<?xml version="1.0" encoding="UTF-8" standalone="no"?>
<!DOCTYPE svg PUBLIC "-//W3C//DTD SVG 1.1//EN"
 "http://www.w3.org/Graphics/SVG/1.1/DTD/svg11.dtd">
<!-- Generated by graphviz version 2.43.0 (0)
 -->
<!-- Title: src/libs/vwidgets/vsimplepoint.h Pages: 1 -->
<!--zoomable 302 -->

<svg id="main" version="1.1" xmlns="http://www.w3.org/2000/svg" xmlns:xlink="http://www.w3.org/1999/xlink" xml:space="preserve" onload="init(evt)">
<style type="text/css"><![CDATA[
.node, .edge {opacity: 0.7;}
.node.selected, .edge.selected {opacity: 1;}
.edge:hover path { stroke: red; }
.edge:hover polygon { stroke: red; fill: red; }
]]></style>

<defs>
  <circle id="rim" cx="0" cy="0" r="7"/>
  <circle id="rim2" cx="0" cy="0" r="3.5"/>
  <g id="zoomPlus">
    <use xlink:href="#rim" fill="#404040"><set attributeName="fill" to="#808080" begin="zoomplus.mouseover" end="zoomplus.mouseout"/></use>
    <path d="M-4,0h8M0,-4v8" fill="none" stroke="white" stroke-width="1.5" pointer-events="none"/>
  </g>
  <g id="zoomMin">
    <use xlink:href="#rim" fill="#404040"><set attributeName="fill" to="#808080" begin="zoomminus.mouseover" end="zoomminus.mouseout"/></use>
    <path d="M-4,0h8" fill="none" stroke="white" stroke-width="1.5" pointer-events="none"/>
  </g>
  <g id="arrowUp" transform="translate(30 24)">
    <use xlink:href="#rim"/>
    <path pointer-events="none" fill="none" stroke="white" stroke-width="1.5" d="M0,-3.0v7 M-2.5,-0.5L0,-3.0L2.5,-0.5"/>
  </g>
  <g id="arrowRight" transform="rotate(90) translate(36 -43)">
    <use xlink:href="#rim"/>
    <path pointer-events="none" fill="none" stroke="white" stroke-width="1.5" d="M0,-3.0v7 M-2.5,-0.5L0,-3.0L2.5,-0.5"/>
  </g>
  <g id="arrowDown" transform="rotate(180) translate(-30 -48)">
    <use xlink:href="#rim"/>
    <path pointer-events="none" fill="none" stroke="white" stroke-width="1.5" d="M0,-3.0v7 M-2.5,-0.5L0,-3.0L2.5,-0.5"/>
  </g>
  <g id="arrowLeft" transform="rotate(270) translate(-36 17)">
    <use xlink:href="#rim"/>
    <path pointer-events="none" fill="none" stroke="white" stroke-width="1.5" d="M0,-3.0v7 M-2.5,-0.5L0,-3.0L2.5,-0.5"/>
  </g>
  <g id="resetDef">
    <use xlink:href="#rim2" fill="#404040"><set attributeName="fill" to="#808080" begin="reset.mouseover" end="reset.mouseout"/></use>
  </g>
</defs>
<script type="application/ecmascript">
var viewWidth = 1335;
var viewHeight = 302;
var sectionId = 'dynsection-0';
</script>
<script type="application/ecmascript" xlink:href="../../svg.min.js"/>
<svg id="graph" class="graph">
<g id="viewport">
<title>src/libs/vwidgets/vsimplepoint.h</title>
<!-- Node1 -->
<g id="Node000001" class="node">
<title>Node1</title>
<g id="a_Node000001"><a xlink:title=" ">
<polygon fill="#999999" stroke="#666666" points="941,-294 767,-294 767,-275 941,-275 941,-294"/>
<text text-anchor="middle" x="854" y="-282" font-family="Helvetica,sans-Serif" font-size="10.00">src/libs/vwidgets/vsimplepoint.h</text>
</a>
</g>
</g>
<!-- Node2 -->
<g id="Node000002" class="node">
<title>Node2</title>
<g id="a_Node000002"><a xlink:title=" ">
<polygon fill="#e0e0e0" stroke="#999999" points="120,-74 0,-74 0,-55 120,-55 120,-74"/>
<text text-anchor="middle" x="60" y="-62" font-family="Helvetica,sans-Serif" font-size="10.00">qcompilerdetection.h</text>
</a>
</g>
</g>
<!-- Node1&#45;&gt;Node2 -->
<g id="edge1_Node000001_Node000002" class="edge">
<title>Node1&#45;&gt;Node2</title>
<g id="a_edge1_Node000001_Node000002"><a xlink:title=" ">
<path fill="none" stroke="#63b8ff" d="M767,-281.14C615.8,-276.43 310.76,-264.09 207,-239 146.82,-224.45 117.06,-232.84 79,-184 56.34,-154.93 55.93,-109.45 57.83,-84.12"/>
<polygon fill="#63b8ff" stroke="#63b8ff" points="61.33,-84.32 58.8,-74.03 54.36,-83.65 61.33,-84.32"/>
</a>
</g>
</g>
<!-- Node3 -->
<g id="Node000003" class="node">
<title>Node3</title>
<g id="a_Node000003"><a xlink:title=" ">
<polygon fill="#e0e0e0" stroke="#999999" points="336,-184 286,-184 286,-165 336,-165 336,-184"/>
<text text-anchor="middle" x="311" y="-172" font-family="Helvetica,sans-Serif" font-size="10.00">QColor</text>
</a>
</g>
</g>
<!-- Node1&#45;&gt;Node3 -->
<g id="edge2_Node000001_Node000003" class="edge">
<title>Node1&#45;&gt;Node3</title>
<g id="a_edge2_Node000001_Node000003"><a xlink:title=" ">
<path fill="none" stroke="#63b8ff" d="M798.9,-274.98C745.78,-266.56 663.19,-252.96 592,-239 484.76,-217.97 456.06,-210.3 346.06,-184.21"/>
<polygon fill="#63b8ff" stroke="#63b8ff" points="346.77,-180.79 336.23,-181.89 345.16,-187.6 346.77,-180.79"/>
</a>
</g>
</g>
<!-- Node4 -->
<g id="Node000004" class="node">
<title>Node4</title>
<g id="a_Node000004"><a xlink:title=" ">
<polygon fill="#e0e0e0" stroke="#999999" points="1176.5,-239 1087.5,-239 1087.5,-220 1176.5,-220 1176.5,-239"/>
<text text-anchor="middle" x="1132" y="-227" font-family="Helvetica,sans-Serif" font-size="10.00">QGraphicsItem</text>
</a>
</g>
</g>
<!-- Node1&#45;&gt;Node4 -->
<g id="edge3_Node000001_Node000004" class="edge">
<title>Node1&#45;&gt;Node4</title>
<g id="a_edge3_Node000001_Node000004"><a xlink:title=" ">
<path fill="none" stroke="#63b8ff" d="M898.67,-274.98C947.3,-265.71 1025.11,-250.88 1077.35,-240.92"/>
<polygon fill="#63b8ff" stroke="#63b8ff" points="1078.28,-244.31 1087.45,-238.99 1076.97,-237.43 1078.28,-244.31"/>
</a>
</g>
</g>
<!-- Node5 -->
<g id="Node000005" class="node">
<title>Node5</title>
<g id="a_Node000005"><a xlink:title=" ">
<polygon fill="#e0e0e0" stroke="#999999" points="434,-184 354,-184 354,-165 434,-165 434,-184"/>
<text text-anchor="middle" x="394" y="-172" font-family="Helvetica,sans-Serif" font-size="10.00">QMetaObject</text>
</a>
</g>
</g>
<!-- Node1&#45;&gt;Node5 -->
<g id="edge4_Node000001_Node000005" class="edge">
<title>Node1&#45;&gt;Node5</title>
<g id="a_edge4_Node000001_Node000005"><a xlink:title=" ">
<path fill="none" stroke="#63b8ff" d="M817.52,-274.94C734.57,-255.46 531.91,-207.88 440.31,-186.37"/>
<polygon fill="#63b8ff" stroke="#63b8ff" points="441.02,-182.94 430.48,-184.07 439.42,-189.76 441.02,-182.94"/>
</a>
</g>
</g>
<!-- Node6 -->
<g id="Node000006" class="node">
<title>Node6</title>
<g id="a_Node000006"><a xlink:title=" ">
<polygon fill="#e0e0e0" stroke="#999999" points="993,-184 937,-184 937,-165 993,-165 993,-184"/>
<text text-anchor="middle" x="965" y="-172" font-family="Helvetica,sans-Serif" font-size="10.00">QObject</text>
</a>
</g>
</g>
<!-- Node1&#45;&gt;Node6 -->
<g id="edge5_Node000001_Node000006" class="edge">
<title>Node1&#45;&gt;Node6</title>
<g id="a_edge5_Node000001_Node000006"><a xlink:title=" ">
<path fill="none" stroke="#63b8ff" d="M863.08,-274.66C881.88,-256.38 925.24,-214.18 948.9,-191.17"/>
<polygon fill="#63b8ff" stroke="#63b8ff" points="951.37,-193.64 956.1,-184.16 946.49,-188.62 951.37,-193.64"/>
</a>
</g>
</g>
<!-- Node7 -->
<g id="Node000007" class="node">
<title>Node7</title>
<g id="a_Node000007"><a xlink:title=" ">
<polygon fill="#e0e0e0" stroke="#999999" points="1249.5,-239 1194.5,-239 1194.5,-220 1249.5,-220 1249.5,-239"/>
<text text-anchor="middle" x="1222" y="-227" font-family="Helvetica,sans-Serif" font-size="10.00">QPointF</text>
</a>
</g>
</g>
<!-- Node1&#45;&gt;Node7 -->
<g id="edge6_Node000001_Node000007" class="edge">
<title>Node1&#45;&gt;Node7</title>
<g id="a_edge6_Node000001_Node000007"><a xlink:title=" ">
<path fill="none" stroke="#63b8ff" d="M934.18,-275C999.27,-267.58 1093.59,-255.66 1184.25,-239.18"/>
<polygon fill="#63b8ff" stroke="#63b8ff" points="1184.95,-242.61 1194.15,-237.36 1183.68,-235.73 1184.95,-242.61"/>
</a>
</g>
</g>
<!-- Node8 -->
<g id="Node000008" class="node">
<title>Node8</title>
<g id="a_Node000008"><a xlink:title=" ">
<polygon fill="#e0e0e0" stroke="#999999" points="973.5,-74 920.5,-74 920.5,-55 973.5,-55 973.5,-74"/>
<text text-anchor="middle" x="947" y="-62" font-family="Helvetica,sans-Serif" font-size="10.00">QString</text>
</a>
</g>
</g>
<!-- Node1&#45;&gt;Node8 -->
<g id="edge7_Node000001_Node000008" class="edge">
<title>Node1&#45;&gt;Node8</title>
<g id="a_edge7_Node000001_Node000008"><a xlink:title=" ">
<path fill="none" stroke="#63b8ff" d="M917.49,-274.93C943.7,-268.66 972.83,-257.79 994,-239 1014.08,-221.17 1013.32,-210.24 1019,-184 1027.98,-142.54 990.48,-102.01 966.23,-80.77"/>
<polygon fill="#63b8ff" stroke="#63b8ff" points="968.21,-77.86 958.31,-74.1 963.7,-83.22 968.21,-77.86"/>
</a>
</g>
</g>
<!-- Node9 -->
<g id="Node000009" class="node">
<title>Node9</title>
<g id="a_Node000009"><a xlink:title=" ">
<polygon fill="#e0e0e0" stroke="#999999" points="1326.5,-239 1267.5,-239 1267.5,-220 1326.5,-220 1326.5,-239"/>
<text text-anchor="middle" x="1297" y="-227" font-family="Helvetica,sans-Serif" font-size="10.00">QVariant</text>
</a>
</g>
</g>
<!-- Node1&#45;&gt;Node9 -->
<g id="edge8_Node000001_Node000009" class="edge">
<title>Node1&#45;&gt;Node9</title>
<g id="a_edge8_Node000001_Node000009"><a xlink:title=" ">
<path fill="none" stroke="#63b8ff" d="M941.29,-276.72C1021.24,-269.86 1143.01,-257.8 1257.22,-239.14"/>
<polygon fill="#63b8ff" stroke="#63b8ff" points="1257.9,-242.58 1267.19,-237.5 1256.75,-235.67 1257.9,-242.58"/>
</a>
</g>
</g>
<!-- Node10 -->
<g id="Node000010" class="node">
<title>Node10</title>
<g id="a_Node000010"><a xlink:title=" ">
<polygon fill="#e0e0e0" stroke="#999999" points="839.5,-74 780.5,-74 780.5,-55 839.5,-55 839.5,-74"/>
<text text-anchor="middle" x="810" y="-62" font-family="Helvetica,sans-Serif" font-size="10.00">QtGlobal</text>
</a>
</g>
</g>
<!-- Node1&#45;&gt;Node10 -->
<g id="edge9_Node000001_Node000010" class="edge">
<title>Node1&#45;&gt;Node10</title>
<g id="a_edge9_Node000001_Node000010"><a xlink:title=" ">
<path fill="none" stroke="#63b8ff" d="M883.69,-274.98C935.69,-258.45 1034.75,-218.86 1002,-165 968.9,-110.57 895.34,-84.58 849.49,-73.25"/>
<polygon fill="#63b8ff" stroke="#63b8ff" points="850.12,-69.8 839.59,-70.92 848.52,-76.61 850.12,-69.8"/>
</a>
</g>
</g>
<!-- Node11 -->
<g id="Node000011" class="node">
<title>Node11</title>
<g id="a_Node000011"><a xlink:href="../../d4/da4/def_8h.html" target="_top" xlink:title=" ">
<polygon fill="white" stroke="#666666" points="511,-129 429,-129 429,-110 511,-110 511,-129"/>
<text text-anchor="middle" x="470" y="-117" font-family="Helvetica,sans-Serif" font-size="10.00">../vmisc/def.h</text>
</a>
</g>
</g>
<!-- Node1&#45;&gt;Node11 -->
<g id="edge10_Node000001_Node000011" class="edge">
<title>Node1&#45;&gt;Node11</title>
<g id="a_edge10_Node000001_Node000011"><a xlink:title=" ">
<path fill="none" stroke="#63b8ff" d="M766.82,-282.14C620.55,-277.75 335.92,-259.47 277,-184 237.98,-134.02 348.93,-122.92 418.47,-120.74"/>
<polygon fill="#63b8ff" stroke="#63b8ff" points="418.92,-124.23 428.83,-120.47 418.74,-117.23 418.92,-124.23"/>
</a>
</g>
</g>
<!-- Node21 -->
<g id="Node000021" class="node">
<title>Node21</title>
<g id="a_Node000021"><a xlink:href="../../d6/d8e/vabstractsimple_8h.html" target="_top" xlink:title=" ">
<polygon fill="white" stroke="#666666" points="796,-239 692,-239 692,-220 796,-220 796,-239"/>
<text text-anchor="middle" x="744" y="-227" font-family="Helvetica,sans-Serif" font-size="10.00">vabstractsimple.h</text>
</a>
</g>
</g>
<!-- Node1&#45;&gt;Node21 -->
<g id="edge23_Node000001_Node000021" class="edge">
<title>Node1&#45;&gt;Node21</title>
<g id="a_edge23_Node000001_Node000021"><a xlink:title=" ">
<path fill="none" stroke="#63b8ff" d="M836.33,-274.98C818.71,-266.5 791.42,-253.35 771.07,-243.54"/>
<polygon fill="#63b8ff" stroke="#63b8ff" points="772.52,-240.36 761.99,-239.17 769.48,-246.66 772.52,-240.36"/>
</a>
</g>
</g>
<!-- Node26 -->
<g id="Node000026" class="node">
<title>Node26</title>
<g id="a_Node000026"><a xlink:href="../../da/df3/vscenepoint_8h.html" target="_top" xlink:title=" ">
<polygon fill="white" stroke="#666666" points="229.5,-184 88.5,-184 88.5,-165 229.5,-165 229.5,-184"/>
<text text-anchor="middle" x="159" y="-172" font-family="Helvetica,sans-Serif" font-size="10.00">../vwidgets/vscenepoint.h</text>
</a>
</g>
</g>
<!-- Node1&#45;&gt;Node26 -->
<g id="edge40_Node000001_Node000026" class="edge">
<title>Node1&#45;&gt;Node26</title>
<g id="a_edge40_Node000001_Node000026"><a xlink:title=" ">
<path fill="none" stroke="#63b8ff" d="M766.96,-283.13C621.9,-281.52 337.39,-273.86 244,-239 216.67,-228.8 190.62,-206.91 174.73,-191.71"/>
<polygon fill="#63b8ff" stroke="#63b8ff" points="176.96,-189 167.39,-184.46 172.05,-193.98 176.96,-189"/>
</a>
</g>
</g>
<!-- Node11&#45;&gt;Node2 -->
<g id="edge11_Node000011_Node000002" class="edge">
<title>Node11&#45;&gt;Node2</title>
<g id="a_edge11_Node000011_Node000002"><a xlink:title=" ">
<path fill="none" stroke="#63b8ff" d="M428.81,-113.18C358.88,-104.14 216.18,-85.69 130.23,-74.58"/>
<polygon fill="#63b8ff" stroke="#63b8ff" points="130.66,-71.11 120.3,-73.29 129.76,-78.05 130.66,-71.11"/>
</a>
</g>
</g>
<!-- Node11&#45;&gt;Node8 -->
<g id="edge14_Node000011_Node000008" class="edge">
<title>Node11&#45;&gt;Node8</title>
<g id="a_edge14_Node000011_Node000008"><a xlink:title=" ">
<path fill="none" stroke="#63b8ff" d="M511.08,-113.94C602.83,-103.74 823.17,-79.26 910.48,-69.56"/>
<polygon fill="#63b8ff" stroke="#63b8ff" points="910.9,-73.03 920.45,-68.45 910.12,-66.08 910.9,-73.03"/>
</a>
</g>
</g>
<!-- Node11&#45;&gt;Node10 -->
<g id="edge17_Node000011_Node000010" class="edge">
<title>Node11&#45;&gt;Node10</title>
<g id="a_edge17_Node000011_Node000010"><a xlink:title=" ">
<path fill="none" stroke="#63b8ff" d="M511.01,-112.11C576.76,-101.86 704.97,-81.87 770.04,-71.73"/>
<polygon fill="#63b8ff" stroke="#63b8ff" points="770.96,-75.13 780.3,-70.13 769.88,-68.21 770.96,-75.13"/>
</a>
</g>
</g>
<!-- Node12 -->
<g id="Node000012" class="node">
<title>Node12</title>
<g id="a_Node000012"><a xlink:title=" ">
<polygon fill="#e0e0e0" stroke="#999999" points="602.5,-74 529.5,-74 529.5,-55 602.5,-55 602.5,-74"/>
<text text-anchor="middle" x="566" y="-62" font-family="Helvetica,sans-Serif" font-size="10.00">QFileDialog</text>
</a>
</g>
</g>
<!-- Node11&#45;&gt;Node12 -->
<g id="edge12_Node000011_Node000012" class="edge">
<title>Node11&#45;&gt;Node12</title>
<g id="a_edge12_Node000011_Node000012"><a xlink:title=" ">
<path fill="none" stroke="#63b8ff" d="M485.42,-109.98C500.45,-101.69 523.54,-88.94 541.16,-79.22"/>
<polygon fill="#63b8ff" stroke="#63b8ff" points="543.23,-82.07 550.3,-74.17 539.85,-75.94 543.23,-82.07"/>
</a>
</g>
</g>
<!-- Node13 -->
<g id="Node000013" class="node">
<title>Node13</title>
<g id="a_Node000013"><a xlink:title=" ">
<polygon fill="#e0e0e0" stroke="#999999" points="188,-74 138,-74 138,-55 188,-55 188,-74"/>
<text text-anchor="middle" x="163" y="-62" font-family="Helvetica,sans-Serif" font-size="10.00">QLineF</text>
</a>
</g>
</g>
<!-- Node11&#45;&gt;Node13 -->
<g id="edge13_Node000011_Node000013" class="edge">
<title>Node11&#45;&gt;Node13</title>
<g id="a_edge13_Node000011_Node000013"><a xlink:title=" ">
<path fill="none" stroke="#63b8ff" d="M428.64,-112.85C376.93,-105.55 285.51,-91.86 198.02,-74.07"/>
<polygon fill="#63b8ff" stroke="#63b8ff" points="198.7,-70.63 188.2,-72.05 197.29,-77.49 198.7,-70.63"/>
</a>
</g>
</g>
<!-- Node14 -->
<g id="Node000014" class="node">
<title>Node14</title>
<g id="a_Node000014"><a xlink:title=" ">
<polygon fill="#e0e0e0" stroke="#999999" points="738,-74 668,-74 668,-55 738,-55 738,-74"/>
<text text-anchor="middle" x="703" y="-62" font-family="Helvetica,sans-Serif" font-size="10.00">QStringList</text>
</a>
</g>
</g>
<!-- Node11&#45;&gt;Node14 -->
<g id="edge15_Node000011_Node000014" class="edge">
<title>Node11&#45;&gt;Node14</title>
<g id="a_edge15_Node000011_Node000014"><a xlink:title=" ">
<path fill="none" stroke="#63b8ff" d="M507.44,-109.98C548.49,-100.65 614.35,-85.67 658.14,-75.71"/>
<polygon fill="#63b8ff" stroke="#63b8ff" points="658.97,-79.1 667.94,-73.47 657.42,-72.28 658.97,-79.1"/>
</a>
</g>
</g>
<!-- Node15 -->
<g id="Node000015" class="node">
<title>Node15</title>
<g id="a_Node000015"><a xlink:title=" ">
<polygon fill="#e0e0e0" stroke="#999999" points="649.5,-74 620.5,-74 620.5,-55 649.5,-55 649.5,-74"/>
<text text-anchor="middle" x="635" y="-62" font-family="Helvetica,sans-Serif" font-size="10.00">Qt</text>
</a>
</g>
</g>
<!-- Node11&#45;&gt;Node15 -->
<g id="edge16_Node000011_Node000015" class="edge">
<title>Node11&#45;&gt;Node15</title>
<g id="a_edge16_Node000011_Node000015"><a xlink:title=" ">
<path fill="none" stroke="#63b8ff" d="M498.7,-109.97C525.51,-101.9 566.86,-89.2 610.74,-74.32"/>
<polygon fill="#63b8ff" stroke="#63b8ff" points="612.11,-77.55 620.44,-71.01 609.84,-70.92 612.11,-77.55"/>
</a>
</g>
</g>
<!-- Node16 -->
<g id="Node000016" class="node">
<title>Node16</title>
<g id="a_Node000016"><a xlink:title=" ">
<polygon fill="#e0e0e0" stroke="#999999" points="262,-74 206,-74 206,-55 262,-55 262,-74"/>
<text text-anchor="middle" x="234" y="-62" font-family="Helvetica,sans-Serif" font-size="10.00">QPrinter</text>
</a>
</g>
</g>
<!-- Node11&#45;&gt;Node16 -->
<g id="edge18_Node000011_Node000016" class="edge">
<title>Node11&#45;&gt;Node16</title>
<g id="a_edge18_Node000011_Node000016"><a xlink:title=" ">
<path fill="none" stroke="#63b8ff" d="M431.46,-109.95C393.4,-101.49 333.26,-88.09 272.1,-74.24"/>
<polygon fill="#63b8ff" stroke="#63b8ff" points="272.8,-70.81 262.28,-72.01 271.26,-77.64 272.8,-70.81"/>
</a>
</g>
</g>
<!-- Node17 -->
<g id="Node000017" class="node">
<title>Node17</title>
<g id="a_Node000017"><a xlink:title=" ">
<polygon fill="#e0e0e0" stroke="#999999" points="341.5,-74 280.5,-74 280.5,-55 341.5,-55 341.5,-74"/>
<text text-anchor="middle" x="311" y="-62" font-family="Helvetica,sans-Serif" font-size="10.00">QPixmap</text>
</a>
</g>
</g>
<!-- Node11&#45;&gt;Node17 -->
<g id="edge19_Node000011_Node000017" class="edge">
<title>Node11&#45;&gt;Node17</title>
<g id="a_edge19_Node000011_Node000017"><a xlink:title=" ">
<path fill="none" stroke="#63b8ff" d="M444.45,-109.98C417.88,-101.13 376.06,-87.19 346.33,-77.28"/>
<polygon fill="#63b8ff" stroke="#63b8ff" points="347.34,-73.92 336.75,-74.08 345.13,-80.56 347.34,-73.92"/>
</a>
</g>
</g>
<!-- Node18 -->
<g id="Node000018" class="node">
<title>Node18</title>
<g id="a_Node000018"><a xlink:title=" ">
<polygon fill="#e0e0e0" stroke="#999999" points="410.5,-74 359.5,-74 359.5,-55 410.5,-55 410.5,-74"/>
<text text-anchor="middle" x="385" y="-62" font-family="Helvetica,sans-Serif" font-size="10.00">csignal</text>
</a>
</g>
</g>
<!-- Node11&#45;&gt;Node18 -->
<g id="edge20_Node000011_Node000018" class="edge">
<title>Node11&#45;&gt;Node18</title>
<g id="a_edge20_Node000011_Node000018"><a xlink:title=" ">
<path fill="none" stroke="#63b8ff" d="M456.34,-109.98C443.16,-101.77 422.97,-89.18 407.43,-79.49"/>
<polygon fill="#63b8ff" stroke="#63b8ff" points="409.24,-76.49 398.91,-74.17 405.54,-82.43 409.24,-76.49"/>
</a>
</g>
</g>
<!-- Node19 -->
<g id="Node000019" class="node">
<title>Node19</title>
<g id="a_Node000019"><a xlink:href="../../d4/d82/debugbreak_8h.html" target="_top" xlink:title=" ">
<polygon fill="white" stroke="#666666" points="511.5,-74 428.5,-74 428.5,-55 511.5,-55 511.5,-74"/>
<text text-anchor="middle" x="470" y="-62" font-family="Helvetica,sans-Serif" font-size="10.00">debugbreak.h</text>
</a>
</g>
</g>
<!-- Node11&#45;&gt;Node19 -->
<g id="edge21_Node000011_Node000019" class="edge">
<title>Node11&#45;&gt;Node19</title>
<g id="a_edge21_Node000011_Node000019"><a xlink:title=" ">
<path fill="none" stroke="#63b8ff" d="M470,-109.75C470,-102.8 470,-92.85 470,-84.13"/>
<polygon fill="#63b8ff" stroke="#63b8ff" points="473.5,-84.09 470,-74.09 466.5,-84.09 473.5,-84.09"/>
</a>
</g>
</g>
<!-- Node20 -->
<g id="Node000020" class="node">
<title>Node20</title>
<g id="a_Node000020"><a xlink:title=" ">
<polygon fill="#e0e0e0" stroke="#999999" points="497.5,-19 442.5,-19 442.5,0 497.5,0 497.5,-19"/>
<text text-anchor="middle" x="470" y="-7" font-family="Helvetica,sans-Serif" font-size="10.00">signal.h</text>
</a>
</g>
</g>
<!-- Node19&#45;&gt;Node20 -->
<g id="edge22_Node000019_Node000020" class="edge">
<title>Node19&#45;&gt;Node20</title>
<g id="a_edge22_Node000019_Node000020"><a xlink:title=" ">
<path fill="none" stroke="#63b8ff" d="M470,-54.75C470,-47.8 470,-37.85 470,-29.13"/>
<polygon fill="#63b8ff" stroke="#63b8ff" points="473.5,-29.09 470,-19.09 466.5,-29.09 473.5,-29.09"/>
</a>
</g>
</g>
<!-- Node21&#45;&gt;Node3 -->
<g id="edge24_Node000021_Node000003" class="edge">
<title>Node21&#45;&gt;Node3</title>
<g id="a_edge24_Node000021_Node000003"><a xlink:title=" ">
<path fill="none" stroke="#63b8ff" d="M691.71,-224.91C617.11,-219.3 475.72,-206.84 346.26,-184"/>
<polygon fill="#63b8ff" stroke="#63b8ff" points="346.63,-180.51 336.17,-182.19 345.4,-187.4 346.63,-180.51"/>
</a>
</g>
</g>
<!-- Node21&#45;&gt;Node5 -->
<g id="edge25_Node000021_Node000005" class="edge">
<title>Node21&#45;&gt;Node5</title>
<g id="a_edge25_Node000021_Node000005"><a xlink:title=" ">
<path fill="none" stroke="#63b8ff" d="M691.92,-221.12C632.05,-212.55 530.84,-197.82 444,-184 443.9,-183.98 443.8,-183.97 443.7,-183.95"/>
<polygon fill="#63b8ff" stroke="#63b8ff" points="444.54,-180.54 434.1,-182.39 443.41,-187.45 444.54,-180.54"/>
</a>
</g>
</g>
<!-- Node21&#45;&gt;Node6 -->
<g id="edge26_Node000021_Node000006" class="edge">
<title>Node21&#45;&gt;Node6</title>
<g id="a_edge26_Node000021_Node000006"><a xlink:title=" ">
<path fill="none" stroke="#63b8ff" d="M779.51,-219.98C819.89,-210.3 885.57,-194.55 926.97,-184.62"/>
<polygon fill="#63b8ff" stroke="#63b8ff" points="928.03,-187.96 936.94,-182.23 926.4,-181.16 928.03,-187.96"/>
</a>
</g>
</g>
<!-- Node21&#45;&gt;Node8 -->
<g id="edge28_Node000021_Node000008" class="edge">
<title>Node21&#45;&gt;Node8</title>
<g id="a_edge28_Node000021_Node000008"><a xlink:title=" ">
<path fill="none" stroke="#63b8ff" d="M788.8,-219.98C814.31,-213.41 845.71,-202.27 869,-184 903.91,-156.61 928.32,-109.07 939.71,-83.32"/>
<polygon fill="#63b8ff" stroke="#63b8ff" points="942.97,-84.6 943.68,-74.02 936.53,-81.85 942.97,-84.6"/>
</a>
</g>
</g>
<!-- Node21&#45;&gt;Node10 -->
<g id="edge30_Node000021_Node000010" class="edge">
<title>Node21&#45;&gt;Node10</title>
<g id="a_edge30_Node000021_Node000010"><a xlink:title=" ">
<path fill="none" stroke="#63b8ff" d="M796.08,-220.01C817.11,-213.75 839.36,-202.87 852,-184 873.85,-151.37 844.24,-106.08 824.72,-82.04"/>
<polygon fill="#63b8ff" stroke="#63b8ff" points="827.22,-79.58 818.09,-74.2 821.88,-84.1 827.22,-79.58"/>
</a>
</g>
</g>
<!-- Node21&#45;&gt;Node11 -->
<g id="edge39_Node000021_Node000011" class="edge">
<title>Node21&#45;&gt;Node11</title>
<g id="a_edge39_Node000021_Node000011"><a xlink:title=" ">
<path fill="none" stroke="#63b8ff" d="M728.36,-219.95C700.29,-204.69 642.3,-173.55 621,-165 586.59,-151.19 546.24,-139.52 515.92,-131.6"/>
<polygon fill="#63b8ff" stroke="#63b8ff" points="516.6,-128.16 506.04,-129.06 514.85,-134.94 516.6,-128.16"/>
</a>
</g>
</g>
<!-- Node21&#45;&gt;Node15 -->
<g id="edge29_Node000021_Node000015" class="edge">
<title>Node21&#45;&gt;Node15</title>
<g id="a_edge29_Node000021_Node000015"><a xlink:title=" ">
<path fill="none" stroke="#63b8ff" d="M732.93,-219.84C722.71,-211.45 707.57,-197.98 697,-184 672.36,-151.41 652.3,-107.64 642.17,-83.45"/>
<polygon fill="#63b8ff" stroke="#63b8ff" points="645.37,-82.03 638.34,-74.1 638.89,-84.68 645.37,-82.03"/>
</a>
</g>
</g>
<!-- Node22 -->
<g id="Node000022" class="node">
<title>Node22</title>
<g id="a_Node000022"><a xlink:title=" ">
<polygon fill="#e0e0e0" stroke="#999999" points="843,-184 801,-184 801,-165 843,-165 843,-184"/>
<text text-anchor="middle" x="822" y="-172" font-family="Helvetica,sans-Serif" font-size="10.00">QPen</text>
</a>
</g>
</g>
<!-- Node21&#45;&gt;Node22 -->
<g id="edge27_Node000021_Node000022" class="edge">
<title>Node21&#45;&gt;Node22</title>
<g id="a_edge27_Node000021_Node000022"><a xlink:title=" ">
<path fill="none" stroke="#63b8ff" d="M756.53,-219.98C768.4,-211.92 786.46,-199.65 800.61,-190.03"/>
<polygon fill="#63b8ff" stroke="#63b8ff" points="802.94,-192.69 809.24,-184.17 799,-186.9 802.94,-192.69"/>
</a>
</g>
</g>
<!-- Node23 -->
<g id="Node000023" class="node">
<title>Node23</title>
<g id="a_Node000023"><a xlink:href="../../d3/da5/ifcdef_8h.html" target="_top" xlink:title=" ">
<polygon fill="white" stroke="#666666" points="782.5,-184 705.5,-184 705.5,-165 782.5,-165 782.5,-184"/>
<text text-anchor="middle" x="744" y="-172" font-family="Helvetica,sans-Serif" font-size="10.00">../ifc/ifcdef.h</text>
</a>
</g>
</g>
<!-- Node21&#45;&gt;Node23 -->
<g id="edge31_Node000021_Node000023" class="edge">
<title>Node21&#45;&gt;Node23</title>
<g id="a_edge31_Node000021_Node000023"><a xlink:title=" ">
<path fill="none" stroke="#63b8ff" d="M744,-219.75C744,-212.8 744,-202.85 744,-194.13"/>
<polygon fill="#63b8ff" stroke="#63b8ff" points="747.5,-194.09 744,-184.09 740.5,-194.09 747.5,-194.09"/>
</a>
</g>
</g>
<!-- Node25 -->
<g id="Node000025" class="node">
<title>Node25</title>
<g id="a_Node000025"><a xlink:href="../../d5/d9d/vgeometrydef_8h.html" target="_top" xlink:title=" ">
<polygon fill="white" stroke="#666666" points="611.5,-184 452.5,-184 452.5,-165 611.5,-165 611.5,-184"/>
<text text-anchor="middle" x="532" y="-172" font-family="Helvetica,sans-Serif" font-size="10.00">../vgeometry/vgeometrydef.h</text>
</a>
</g>
</g>
<!-- Node21&#45;&gt;Node25 -->
<g id="edge38_Node000021_Node000025" class="edge">
<title>Node21&#45;&gt;Node25</title>
<g id="a_edge38_Node000021_Node000025"><a xlink:title=" ">
<path fill="none" stroke="#63b8ff" d="M709.94,-219.98C673.58,-210.89 615.83,-196.46 576.03,-186.51"/>
<polygon fill="#63b8ff" stroke="#63b8ff" points="576.88,-183.11 566.33,-184.08 575.18,-189.9 576.88,-183.11"/>
</a>
</g>
</g>
<!-- Node23&#45;&gt;Node8 -->
<g id="edge32_Node000023_Node000008" class="edge">
<title>Node23&#45;&gt;Node8</title>
<g id="a_edge32_Node000023_Node000008"><a xlink:title=" ">
<path fill="none" stroke="#63b8ff" d="M760.86,-164.9C778.24,-156.01 806.09,-141.68 830,-129 862.13,-111.97 898.95,-91.89 922.57,-78.94"/>
<polygon fill="#63b8ff" stroke="#63b8ff" points="924.45,-81.9 931.53,-74.02 921.08,-75.76 924.45,-81.9"/>
</a>
</g>
</g>
<!-- Node23&#45;&gt;Node10 -->
<g id="edge34_Node000023_Node000010" class="edge">
<title>Node23&#45;&gt;Node10</title>
<g id="a_edge34_Node000023_Node000010"><a xlink:title=" ">
<path fill="none" stroke="#63b8ff" d="M768.81,-164.95C784.84,-157.99 804.43,-146.42 814,-129 821.48,-115.38 819.53,-97.57 816.26,-84.27"/>
<polygon fill="#63b8ff" stroke="#63b8ff" points="819.53,-82.98 813.38,-74.36 812.81,-84.94 819.53,-82.98"/>
</a>
</g>
</g>
<!-- Node23&#45;&gt;Node11 -->
<g id="edge35_Node000023_Node000011" class="edge">
<title>Node23&#45;&gt;Node11</title>
<g id="a_edge35_Node000023_Node000011"><a xlink:title=" ">
<path fill="none" stroke="#63b8ff" d="M705.32,-166.02C657.1,-156.69 574.51,-140.72 521.11,-130.39"/>
<polygon fill="#63b8ff" stroke="#63b8ff" points="521.65,-126.93 511.16,-128.46 520.32,-133.8 521.65,-126.93"/>
</a>
</g>
</g>
<!-- Node23&#45;&gt;Node14 -->
<g id="edge33_Node000023_Node000014" class="edge">
<title>Node23&#45;&gt;Node14</title>
<g id="a_edge33_Node000023_Node000014"><a xlink:title=" ">
<path fill="none" stroke="#63b8ff" d="M721.88,-164.95C706.8,-157.82 687.99,-146.06 679,-129 670.96,-113.75 679.94,-95.2 689.12,-82.1"/>
<polygon fill="#63b8ff" stroke="#63b8ff" points="692.01,-84.08 695.29,-74.01 686.44,-79.83 692.01,-84.08"/>
</a>
</g>
</g>
<!-- Node24 -->
<g id="Node000024" class="node">
<title>Node24</title>
<g id="a_Node000024"><a xlink:href="../../d6/dcd/diagnostic_8h.html" target="_top" xlink:title=" ">
<polygon fill="white" stroke="#666666" points="804.5,-129 687.5,-129 687.5,-110 804.5,-110 804.5,-129"/>
<text text-anchor="middle" x="746" y="-117" font-family="Helvetica,sans-Serif" font-size="10.00">../vmisc/diagnostic.h</text>
</a>
</g>
</g>
<!-- Node23&#45;&gt;Node24 -->
<g id="edge36_Node000023_Node000024" class="edge">
<title>Node23&#45;&gt;Node24</title>
<g id="a_edge36_Node000023_Node000024"><a xlink:title=" ">
<path fill="none" stroke="#63b8ff" d="M744.33,-164.75C744.59,-157.8 744.97,-147.85 745.3,-139.13"/>
<polygon fill="#63b8ff" stroke="#63b8ff" points="748.8,-139.21 745.68,-129.09 741.8,-138.95 748.8,-139.21"/>
</a>
</g>
</g>
<!-- Node24&#45;&gt;Node10 -->
<g id="edge37_Node000024_Node000010" class="edge">
<title>Node24&#45;&gt;Node10</title>
<g id="a_edge37_Node000024_Node000010"><a xlink:title=" ">
<path fill="none" stroke="#63b8ff" d="M756.28,-109.98C765.84,-102.07 780.28,-90.11 791.78,-80.58"/>
<polygon fill="#63b8ff" stroke="#63b8ff" points="794.06,-83.24 799.53,-74.17 789.6,-77.85 794.06,-83.24"/>
</a>
</g>
</g>
<!-- Node26&#45;&gt;Node10 -->
<g id="edge41_Node000026_Node000010" class="edge">
<title>Node26&#45;&gt;Node10</title>
<g id="a_edge41_Node000026_Node000010"><a xlink:title=" ">
<path fill="none" stroke="#63b8ff" d="M229.5,-166.77C302.47,-159.34 419.63,-146.14 520,-129 610.16,-113.61 714.67,-89.04 770.31,-75.42"/>
<polygon fill="#63b8ff" stroke="#63b8ff" points="771.25,-78.79 780.12,-73.01 769.57,-72 771.25,-78.79"/>
</a>
</g>
</g>
<!-- Node26&#45;&gt;Node11 -->
<g id="edge43_Node000026_Node000011" class="edge">
<title>Node26&#45;&gt;Node11</title>
<g id="a_edge43_Node000026_Node000011"><a xlink:title=" ">
<path fill="none" stroke="#63b8ff" d="M208.97,-164.98C266.47,-155.19 360.43,-139.17 418.55,-129.27"/>
<polygon fill="#63b8ff" stroke="#63b8ff" points="419.34,-132.68 428.61,-127.55 418.17,-125.78 419.34,-132.68"/>
</a>
</g>
</g>
<!-- Node27 -->
<g id="Node000027" class="node">
<title>Node27</title>
<g id="a_Node000027"><a xlink:title=" ">
<polygon fill="#e0e0e0" stroke="#999999" points="220,-129 98,-129 98,-110 220,-110 220,-129"/>
<text text-anchor="middle" x="159" y="-117" font-family="Helvetica,sans-Serif" font-size="10.00">QGraphicsEllipseItem</text>
</a>
</g>
</g>
<!-- Node26&#45;&gt;Node27 -->
<g id="edge42_Node000026_Node000027" class="edge">
<title>Node26&#45;&gt;Node27</title>
<g id="a_edge42_Node000026_Node000027"><a xlink:title=" ">
<path fill="none" stroke="#63b8ff" d="M159,-164.75C159,-157.8 159,-147.85 159,-139.13"/>
<polygon fill="#63b8ff" stroke="#63b8ff" points="162.5,-139.09 159,-129.09 155.5,-139.09 162.5,-139.09"/>
</a>
</g>
</g>
</g>
</svg>

<g id="navigator" transform="translate(0 0)" fill="#404254">
  <rect fill="#f2f5e9" fill-opacity="0.5" stroke="#606060" stroke-width=".5" x="0" y="0" width="60" height="60"/>
  <use id="zoomplus" xlink:href="#zoomPlus" x="17" y="9" onmousedown="handleZoom(evt,'in')"/>
  <use id="zoomminus" xlink:href="#zoomMin" x="42" y="9" onmousedown="handleZoom(evt,'out')"/>
  <use id="reset" xlink:href="#resetDef" x="30" y="36" onmousedown="handleReset()"/>
   <use id="arrowup" xlink:href="#arrowUp" x="0" y="0" onmousedown="handlePan(0,-1)"/>
  <use id="arrowright" xlink:href="#arrowRight" x="0" y="0" onmousedown="handlePan(1,0)"/>
  <use id="arrowdown" xlink:href="#arrowDown" x="0" y="0" onmousedown="handlePan(0,1)"/>
  <use id="arrowleft" xlink:href="#arrowLeft" x="0" y="0" onmousedown="handlePan(-1,0)"/>
</g>
<svg viewBox="0 0 15 15" width="100%" height="30px" preserveAspectRatio="xMaxYMin meet">
 <g id="arrow_out" transform="scale(0.3 0.3)">
  <a xlink:href="vsimplepoint_8h__incl_org.svg" target="_base">
   <rect id="button" ry="5" rx="5" y="6" x="6" height="38" width="38"
        fill="#f2f5e9" fill-opacity="0.5" stroke="#606060" stroke-width="1.0"/>
   <path id="arrow"
     d="M 11.500037,31.436501 C 11.940474,20.09759 22.043105,11.32322 32.158766,21.979434 L 37.068811,17.246167 C 37.068811,17.246167 37.088388,32 37.088388,32 L 22.160133,31.978069 C 22.160133,31.978069 26.997745,27.140456 26.997745,27.140456 C 18.528582,18.264221 13.291696,25.230495 11.500037,31.436501 z"
     style="fill:#404040;"/>
  </a>
 </g>
</svg>

<style type='text/css'>
<![CDATA[
[data-mouse-over-selected='false'] { opacity: 0.7; }
[data-mouse-over-selected='true']  { opacity: 1.0; }
]]>
</style>
<script type="application/ecmascript"><![CDATA[
document.addEventListener('DOMContentLoaded', (event) => {
  highlightEdges();
  highlightAdjacentNodes();
});
]]></script>
</svg>
