<?xml version="1.0" encoding="UTF-8" standalone="no"?>
<!DOCTYPE svg PUBLIC "-//W3C//DTD SVG 1.1//EN"
 "http://www.w3.org/Graphics/SVG/1.1/DTD/svg11.dtd">
<!-- Generated by graphviz version 2.43.0 (0)
 -->
<!-- Title: src/libs/vpropertyexplorer/plugins/vstringproperty.cpp Pages: 1 -->
<svg width="1718pt" height="203pt"
 viewBox="0.00 0.00 1718.00 203.00" xmlns="http://www.w3.org/2000/svg" xmlns:xlink="http://www.w3.org/1999/xlink">
<g id="graph0" class="graph" transform="scale(1 1) rotate(0) translate(4 199)">
<title>src/libs/vpropertyexplorer/plugins/vstringproperty.cpp</title>
<!-- Node1 -->
<g id="Node000001" class="node">
<title>Node1</title>
<g id="a_Node000001"><a xlink:title=" ">
<polygon fill="#999999" stroke="#666666" points="1265.5,-195 1113.5,-195 1113.5,-165 1265.5,-165 1265.5,-195"/>
<text text-anchor="start" x="1121.5" y="-183" font-family="Helvetica,sans-Serif" font-size="10.00">src/libs/vpropertyexplorer</text>
<text text-anchor="middle" x="1189.5" y="-172" font-family="Helvetica,sans-Serif" font-size="10.00">/plugins/vstringproperty.cpp</text>
</a>
</g>
</g>
<!-- Node2 -->
<g id="Node000002" class="node">
<title>Node2</title>
<g id="a_Node000002"><a xlink:href="../../d3/dc0/vstringproperty_8h.html" target="_top" xlink:title=" ">
<polygon fill="white" stroke="#666666" points="531,-129 432,-129 432,-110 531,-110 531,-129"/>
<text text-anchor="middle" x="481.5" y="-117" font-family="Helvetica,sans-Serif" font-size="10.00">vstringproperty.h</text>
</a>
</g>
</g>
<!-- Node1&#45;&gt;Node2 -->
<g id="edge1_Node000001_Node000002" class="edge">
<title>Node1&#45;&gt;Node2</title>
<g id="a_edge1_Node000001_Node000002"><a xlink:title=" ">
<path fill="none" stroke="#63b8ff" d="M1113.4,-172.71C971.52,-160.99 669.42,-136.03 541.12,-125.43"/>
<polygon fill="#63b8ff" stroke="#63b8ff" points="541.34,-121.93 531.09,-124.6 540.77,-128.91 541.34,-121.93"/>
</a>
</g>
</g>
<!-- Node17 -->
<g id="Node000017" class="node">
<title>Node17</title>
<g id="a_Node000017"><a xlink:title=" ">
<polygon fill="#e0e0e0" stroke="#999999" points="960.5,-129 890.5,-129 890.5,-110 960.5,-110 960.5,-129"/>
<text text-anchor="middle" x="925.5" y="-117" font-family="Helvetica,sans-Serif" font-size="10.00">QKeyEvent</text>
</a>
</g>
</g>
<!-- Node1&#45;&gt;Node17 -->
<g id="edge25_Node000001_Node000017" class="edge">
<title>Node1&#45;&gt;Node17</title>
<g id="a_edge25_Node000001_Node000017"><a xlink:title=" ">
<path fill="none" stroke="#63b8ff" d="M1126.27,-164.99C1078.25,-154.35 1013.39,-139.98 970.55,-130.48"/>
<polygon fill="#63b8ff" stroke="#63b8ff" points="971.21,-127.04 960.69,-128.3 969.7,-133.88 971.21,-127.04"/>
</a>
</g>
</g>
<!-- Node18 -->
<g id="Node000018" class="node">
<title>Node18</title>
<g id="a_Node000018"><a xlink:title=" ">
<polygon fill="#e0e0e0" stroke="#999999" points="1062,-129 979,-129 979,-110 1062,-110 1062,-129"/>
<text text-anchor="middle" x="1020.5" y="-117" font-family="Helvetica,sans-Serif" font-size="10.00">QLatin1String</text>
</a>
</g>
</g>
<!-- Node1&#45;&gt;Node18 -->
<g id="edge26_Node000001_Node000018" class="edge">
<title>Node1&#45;&gt;Node18</title>
<g id="a_edge26_Node000001_Node000018"><a xlink:title=" ">
<path fill="none" stroke="#63b8ff" d="M1149.02,-164.99C1120.32,-155.05 1082.22,-141.86 1054.97,-132.43"/>
<polygon fill="#63b8ff" stroke="#63b8ff" points="1056.05,-129.1 1045.46,-129.14 1053.76,-135.72 1056.05,-129.1"/>
</a>
</g>
</g>
<!-- Node19 -->
<g id="Node000019" class="node">
<title>Node19</title>
<g id="a_Node000019"><a xlink:title=" ">
<polygon fill="#e0e0e0" stroke="#999999" points="1143,-129 1080,-129 1080,-110 1143,-110 1143,-129"/>
<text text-anchor="middle" x="1111.5" y="-117" font-family="Helvetica,sans-Serif" font-size="10.00">QLineEdit</text>
</a>
</g>
</g>
<!-- Node1&#45;&gt;Node19 -->
<g id="edge27_Node000001_Node000019" class="edge">
<title>Node1&#45;&gt;Node19</title>
<g id="a_edge27_Node000001_Node000019"><a xlink:title=" ">
<path fill="none" stroke="#63b8ff" d="M1170.62,-164.84C1158.72,-155.91 1143.38,-144.41 1131.3,-135.35"/>
<polygon fill="#63b8ff" stroke="#63b8ff" points="1133.29,-132.47 1123.19,-129.27 1129.09,-138.07 1133.29,-132.47"/>
</a>
</g>
</g>
<!-- Node20 -->
<g id="Node000020" class="node">
<title>Node20</title>
<g id="a_Node000020"><a xlink:title=" ">
<polygon fill="#e0e0e0" stroke="#999999" points="1217.5,-129 1161.5,-129 1161.5,-110 1217.5,-110 1217.5,-129"/>
<text text-anchor="middle" x="1189.5" y="-117" font-family="Helvetica,sans-Serif" font-size="10.00">QLocale</text>
</a>
</g>
</g>
<!-- Node1&#45;&gt;Node20 -->
<g id="edge28_Node000001_Node000020" class="edge">
<title>Node1&#45;&gt;Node20</title>
<g id="a_edge28_Node000001_Node000020"><a xlink:title=" ">
<path fill="none" stroke="#63b8ff" d="M1189.5,-164.84C1189.5,-157.21 1189.5,-147.7 1189.5,-139.45"/>
<polygon fill="#63b8ff" stroke="#63b8ff" points="1193,-139.27 1189.5,-129.27 1186,-139.27 1193,-139.27"/>
</a>
</g>
</g>
<!-- Node21 -->
<g id="Node000021" class="node">
<title>Node21</title>
<g id="a_Node000021"><a xlink:title=" ">
<polygon fill="#e0e0e0" stroke="#999999" points="1309.5,-129 1235.5,-129 1235.5,-110 1309.5,-110 1309.5,-129"/>
<text text-anchor="middle" x="1272.5" y="-117" font-family="Helvetica,sans-Serif" font-size="10.00">QSizePolicy</text>
</a>
</g>
</g>
<!-- Node1&#45;&gt;Node21 -->
<g id="edge29_Node000001_Node000021" class="edge">
<title>Node1&#45;&gt;Node21</title>
<g id="a_edge29_Node000001_Node000021"><a xlink:title=" ">
<path fill="none" stroke="#63b8ff" d="M1209.59,-164.84C1222.38,-155.83 1238.9,-144.18 1251.8,-135.09"/>
<polygon fill="#63b8ff" stroke="#63b8ff" points="1253.91,-137.89 1260.06,-129.27 1249.87,-132.17 1253.91,-137.89"/>
</a>
</g>
</g>
<!-- Node22 -->
<g id="Node000022" class="node">
<title>Node22</title>
<g id="a_Node000022"><a xlink:title=" ">
<polygon fill="#e0e0e0" stroke="#999999" points="1431.5,-129 1327.5,-129 1327.5,-110 1431.5,-110 1431.5,-129"/>
<text text-anchor="middle" x="1379.5" y="-117" font-family="Helvetica,sans-Serif" font-size="10.00">QStaticStringData</text>
</a>
</g>
</g>
<!-- Node1&#45;&gt;Node22 -->
<g id="edge30_Node000001_Node000022" class="edge">
<title>Node1&#45;&gt;Node22</title>
<g id="a_edge30_Node000001_Node000022"><a xlink:title=" ">
<path fill="none" stroke="#63b8ff" d="M1235.01,-164.99C1267.66,-154.94 1311.13,-141.55 1341.83,-132.1"/>
<polygon fill="#63b8ff" stroke="#63b8ff" points="1343.19,-135.34 1351.72,-129.05 1341.13,-128.65 1343.19,-135.34"/>
</a>
</g>
</g>
<!-- Node23 -->
<g id="Node000023" class="node">
<title>Node23</title>
<g id="a_Node000023"><a xlink:title=" ">
<polygon fill="#e0e0e0" stroke="#999999" points="1525.5,-129 1449.5,-129 1449.5,-110 1525.5,-110 1525.5,-129"/>
<text text-anchor="middle" x="1487.5" y="-117" font-family="Helvetica,sans-Serif" font-size="10.00">QStringData</text>
</a>
</g>
</g>
<!-- Node1&#45;&gt;Node23 -->
<g id="edge31_Node000001_Node000023" class="edge">
<title>Node1&#45;&gt;Node23</title>
<g id="a_edge31_Node000001_Node000023"><a xlink:title=" ">
<path fill="none" stroke="#63b8ff" d="M1260.88,-164.99C1316.18,-154.13 1391.27,-139.39 1439.56,-129.91"/>
<polygon fill="#63b8ff" stroke="#63b8ff" points="1440.31,-133.33 1449.45,-127.97 1438.96,-126.46 1440.31,-133.33"/>
</a>
</g>
</g>
<!-- Node24 -->
<g id="Node000024" class="node">
<title>Node24</title>
<g id="a_Node000024"><a xlink:title=" ">
<polygon fill="#e0e0e0" stroke="#999999" points="1633,-129 1544,-129 1544,-110 1633,-110 1633,-129"/>
<text text-anchor="middle" x="1588.5" y="-117" font-family="Helvetica,sans-Serif" font-size="10.00">QStringDataPtr</text>
</a>
</g>
</g>
<!-- Node1&#45;&gt;Node24 -->
<g id="edge32_Node000001_Node000024" class="edge">
<title>Node1&#45;&gt;Node24</title>
<g id="a_edge32_Node000001_Node000024"><a xlink:title=" ">
<path fill="none" stroke="#63b8ff" d="M1265.59,-168.24C1333.2,-158.62 1435.01,-143.99 1533.58,-129.12"/>
<polygon fill="#63b8ff" stroke="#63b8ff" points="1534.35,-132.55 1543.72,-127.59 1533.31,-125.63 1534.35,-132.55"/>
</a>
</g>
</g>
<!-- Node25 -->
<g id="Node000025" class="node">
<title>Node25</title>
<g id="a_Node000025"><a xlink:title=" ">
<polygon fill="#e0e0e0" stroke="#999999" points="1710,-129 1651,-129 1651,-110 1710,-110 1710,-129"/>
<text text-anchor="middle" x="1680.5" y="-117" font-family="Helvetica,sans-Serif" font-size="10.00">QWidget</text>
</a>
</g>
</g>
<!-- Node1&#45;&gt;Node25 -->
<g id="edge33_Node000001_Node000025" class="edge">
<title>Node1&#45;&gt;Node25</title>
<g id="a_edge33_Node000001_Node000025"><a xlink:title=" ">
<path fill="none" stroke="#63b8ff" d="M1265.59,-173.18C1353.68,-165.86 1503.27,-151.65 1640.42,-129.19"/>
<polygon fill="#63b8ff" stroke="#63b8ff" points="1641.4,-132.58 1650.69,-127.49 1640.25,-125.67 1641.4,-132.58"/>
</a>
</g>
</g>
<!-- Node26 -->
<g id="Node000026" class="node">
<title>Node26</title>
<g id="a_Node000026"><a xlink:href="../../d1/de6/vproperty__p_8h.html" target="_top" xlink:title=" ">
<polygon fill="white" stroke="#666666" points="872,-129 779,-129 779,-110 872,-110 872,-129"/>
<text text-anchor="middle" x="825.5" y="-117" font-family="Helvetica,sans-Serif" font-size="10.00">../vproperty_p.h</text>
</a>
</g>
</g>
<!-- Node1&#45;&gt;Node26 -->
<g id="edge34_Node000001_Node000026" class="edge">
<title>Node1&#45;&gt;Node26</title>
<g id="a_edge34_Node000001_Node000026"><a xlink:title=" ">
<path fill="none" stroke="#63b8ff" d="M1113.19,-166.74C1044.18,-155.64 944.12,-139.56 882.03,-129.59"/>
<polygon fill="#63b8ff" stroke="#63b8ff" points="882.45,-126.11 872.03,-127.98 881.34,-133.02 882.45,-126.11"/>
</a>
</g>
</g>
<!-- Node3 -->
<g id="Node000003" class="node">
<title>Node3</title>
<g id="a_Node000003"><a xlink:title=" ">
<polygon fill="#e0e0e0" stroke="#999999" points="271.5,-19 151.5,-19 151.5,0 271.5,0 271.5,-19"/>
<text text-anchor="middle" x="211.5" y="-7" font-family="Helvetica,sans-Serif" font-size="10.00">qcompilerdetection.h</text>
</a>
</g>
</g>
<!-- Node2&#45;&gt;Node3 -->
<g id="edge2_Node000002_Node000003" class="edge">
<title>Node2&#45;&gt;Node3</title>
<g id="a_edge2_Node000002_Node000003"><a xlink:title=" ">
<path fill="none" stroke="#63b8ff" d="M459.86,-109.84C412.15,-90.76 297.77,-45.01 242.48,-22.89"/>
<polygon fill="#63b8ff" stroke="#63b8ff" points="243.45,-19.51 232.87,-19.05 240.85,-26.01 243.45,-19.51"/>
</a>
</g>
</g>
<!-- Node4 -->
<g id="Node000004" class="node">
<title>Node4</title>
<g id="a_Node000004"><a xlink:title=" ">
<polygon fill="#e0e0e0" stroke="#999999" points="335,-19 290,-19 290,0 335,0 335,-19"/>
<text text-anchor="middle" x="312.5" y="-7" font-family="Helvetica,sans-Serif" font-size="10.00">QMap</text>
</a>
</g>
</g>
<!-- Node2&#45;&gt;Node4 -->
<g id="edge3_Node000002_Node000004" class="edge">
<title>Node2&#45;&gt;Node4</title>
<g id="a_edge3_Node000002_Node000004"><a xlink:title=" ">
<path fill="none" stroke="#63b8ff" d="M467.96,-109.84C438.91,-91.28 370.38,-47.49 334.8,-24.75"/>
<polygon fill="#63b8ff" stroke="#63b8ff" points="336.42,-21.63 326.11,-19.2 332.65,-27.53 336.42,-21.63"/>
</a>
</g>
</g>
<!-- Node5 -->
<g id="Node000005" class="node">
<title>Node5</title>
<g id="a_Node000005"><a xlink:title=" ">
<polygon fill="#e0e0e0" stroke="#999999" points="521.5,-19 441.5,-19 441.5,0 521.5,0 521.5,-19"/>
<text text-anchor="middle" x="481.5" y="-7" font-family="Helvetica,sans-Serif" font-size="10.00">QMetaObject</text>
</a>
</g>
</g>
<!-- Node2&#45;&gt;Node5 -->
<g id="edge4_Node000002_Node000005" class="edge">
<title>Node2&#45;&gt;Node5</title>
<g id="a_edge4_Node000002_Node000005"><a xlink:title=" ">
<path fill="none" stroke="#63b8ff" d="M481.5,-109.66C481.5,-92.17 481.5,-52.8 481.5,-29.27"/>
<polygon fill="#63b8ff" stroke="#63b8ff" points="485,-29.16 481.5,-19.16 478,-29.16 485,-29.16"/>
</a>
</g>
</g>
<!-- Node6 -->
<g id="Node000006" class="node">
<title>Node6</title>
<g id="a_Node000006"><a xlink:title=" ">
<polygon fill="#e0e0e0" stroke="#999999" points="133.5,-19 77.5,-19 77.5,0 133.5,0 133.5,-19"/>
<text text-anchor="middle" x="105.5" y="-7" font-family="Helvetica,sans-Serif" font-size="10.00">QObject</text>
</a>
</g>
</g>
<!-- Node2&#45;&gt;Node6 -->
<g id="edge5_Node000002_Node000006" class="edge">
<title>Node2&#45;&gt;Node6</title>
<g id="a_edge5_Node000002_Node000006"><a xlink:title=" ">
<path fill="none" stroke="#63b8ff" d="M451.59,-110C420.18,-101.06 369.36,-86.58 325.5,-74 261.51,-55.64 187.1,-34.13 143.29,-21.45"/>
<polygon fill="#63b8ff" stroke="#63b8ff" points="144.2,-18.07 133.62,-18.65 142.25,-24.79 144.2,-18.07"/>
</a>
</g>
</g>
<!-- Node7 -->
<g id="Node000007" class="node">
<title>Node7</title>
<g id="a_Node000007"><a xlink:title=" ">
<polygon fill="#e0e0e0" stroke="#999999" points="1193,-19 1140,-19 1140,0 1193,0 1193,-19"/>
<text text-anchor="middle" x="1166.5" y="-7" font-family="Helvetica,sans-Serif" font-size="10.00">QString</text>
</a>
</g>
</g>
<!-- Node2&#45;&gt;Node7 -->
<g id="edge6_Node000002_Node000007" class="edge">
<title>Node2&#45;&gt;Node7</title>
<g id="a_edge6_Node000002_Node000007"><a xlink:title=" ">
<path fill="none" stroke="#63b8ff" d="M531.16,-112.75C638.82,-99.87 901.79,-66.28 1129.98,-19.21"/>
<polygon fill="#63b8ff" stroke="#63b8ff" points="1130.71,-22.64 1139.79,-17.18 1129.29,-15.78 1130.71,-22.64"/>
</a>
</g>
</g>
<!-- Node8 -->
<g id="Node000008" class="node">
<title>Node8</title>
<g id="a_Node000008"><a xlink:title=" ">
<polygon fill="#e0e0e0" stroke="#999999" points="423.5,-19 353.5,-19 353.5,0 423.5,0 423.5,-19"/>
<text text-anchor="middle" x="388.5" y="-7" font-family="Helvetica,sans-Serif" font-size="10.00">QStringList</text>
</a>
</g>
</g>
<!-- Node2&#45;&gt;Node8 -->
<g id="edge7_Node000002_Node000008" class="edge">
<title>Node2&#45;&gt;Node8</title>
<g id="a_edge7_Node000002_Node000008"><a xlink:title=" ">
<path fill="none" stroke="#63b8ff" d="M473.89,-109.66C458.28,-91.54 422.44,-49.91 402.51,-26.77"/>
<polygon fill="#63b8ff" stroke="#63b8ff" points="405.13,-24.45 395.96,-19.16 399.83,-29.02 405.13,-24.45"/>
</a>
</g>
</g>
<!-- Node9 -->
<g id="Node000009" class="node">
<title>Node9</title>
<g id="a_Node000009"><a xlink:title=" ">
<polygon fill="#e0e0e0" stroke="#999999" points="667.5,-19 539.5,-19 539.5,0 667.5,0 667.5,-19"/>
<text text-anchor="middle" x="603.5" y="-7" font-family="Helvetica,sans-Serif" font-size="10.00">QStyleOptionViewItem</text>
</a>
</g>
</g>
<!-- Node2&#45;&gt;Node9 -->
<g id="edge8_Node000002_Node000009" class="edge">
<title>Node2&#45;&gt;Node9</title>
<g id="a_edge8_Node000002_Node000009"><a xlink:title=" ">
<path fill="none" stroke="#63b8ff" d="M491.48,-109.66C512.23,-91.3 560.22,-48.81 586.14,-25.87"/>
<polygon fill="#63b8ff" stroke="#63b8ff" points="588.55,-28.41 593.72,-19.16 583.91,-23.17 588.55,-28.41"/>
</a>
</g>
</g>
<!-- Node10 -->
<g id="Node000010" class="node">
<title>Node10</title>
<g id="a_Node000010"><a xlink:title=" ">
<polygon fill="#e0e0e0" stroke="#999999" points="1122,-19 1063,-19 1063,0 1122,0 1122,-19"/>
<text text-anchor="middle" x="1092.5" y="-7" font-family="Helvetica,sans-Serif" font-size="10.00">QVariant</text>
</a>
</g>
</g>
<!-- Node2&#45;&gt;Node10 -->
<g id="edge9_Node000002_Node000010" class="edge">
<title>Node2&#45;&gt;Node10</title>
<g id="a_edge9_Node000002_Node000010"><a xlink:title=" ">
<path fill="none" stroke="#63b8ff" d="M531.36,-110.56C629.22,-94.81 853.5,-57.93 1052.65,-19.1"/>
<polygon fill="#63b8ff" stroke="#63b8ff" points="1053.57,-22.48 1062.72,-17.13 1052.23,-15.61 1053.57,-22.48"/>
</a>
</g>
</g>
<!-- Node11 -->
<g id="Node000011" class="node">
<title>Node11</title>
<g id="a_Node000011"><a xlink:title=" ">
<polygon fill="#e0e0e0" stroke="#999999" points="59,-19 0,-19 0,0 59,0 59,-19"/>
<text text-anchor="middle" x="29.5" y="-7" font-family="Helvetica,sans-Serif" font-size="10.00">QtGlobal</text>
</a>
</g>
</g>
<!-- Node2&#45;&gt;Node11 -->
<g id="edge10_Node000002_Node000011" class="edge">
<title>Node2&#45;&gt;Node11</title>
<g id="a_edge10_Node000002_Node000011"><a xlink:title=" ">
<path fill="none" stroke="#63b8ff" d="M434.3,-109.98C389.41,-101.65 320.09,-88.17 260.5,-74 192.22,-57.76 113.59,-35.34 67.92,-21.94"/>
<polygon fill="#63b8ff" stroke="#63b8ff" points="68.73,-18.53 58.14,-19.07 66.75,-25.25 68.73,-18.53"/>
</a>
</g>
</g>
<!-- Node12 -->
<g id="Node000012" class="node">
<title>Node12</title>
<g id="a_Node000012"><a xlink:href="../../d2/d6e/vproperty_8h.html" target="_top" xlink:title=" ">
<polygon fill="white" stroke="#666666" points="643.5,-74 563.5,-74 563.5,-55 643.5,-55 643.5,-74"/>
<text text-anchor="middle" x="603.5" y="-62" font-family="Helvetica,sans-Serif" font-size="10.00">../vproperty.h</text>
</a>
</g>
</g>
<!-- Node2&#45;&gt;Node12 -->
<g id="edge11_Node000002_Node000012" class="edge">
<title>Node2&#45;&gt;Node12</title>
<g id="a_edge11_Node000002_Node000012"><a xlink:title=" ">
<path fill="none" stroke="#63b8ff" d="M501.1,-109.98C520.82,-101.42 551.45,-88.11 574.08,-78.28"/>
<polygon fill="#63b8ff" stroke="#63b8ff" points="575.76,-81.37 583.54,-74.17 572.98,-74.94 575.76,-81.37"/>
</a>
</g>
</g>
<!-- Node12&#45;&gt;Node3 -->
<g id="edge12_Node000012_Node000003" class="edge">
<title>Node12&#45;&gt;Node3</title>
<g id="a_edge12_Node000012_Node000003"><a xlink:title=" ">
<path fill="none" stroke="#63b8ff" d="M563.39,-58.08C497.08,-49.11 363.78,-31.09 281.62,-19.98"/>
<polygon fill="#63b8ff" stroke="#63b8ff" points="281.99,-16.5 271.62,-18.63 281.06,-23.44 281.99,-16.5"/>
</a>
</g>
</g>
<!-- Node12&#45;&gt;Node4 -->
<g id="edge15_Node000012_Node000004" class="edge">
<title>Node12&#45;&gt;Node4</title>
<g id="a_edge15_Node000012_Node000004"><a xlink:title=" ">
<path fill="none" stroke="#63b8ff" d="M563.35,-57.74C514.2,-50.44 428.26,-36.87 345.03,-18.94"/>
<polygon fill="#63b8ff" stroke="#63b8ff" points="345.68,-15.5 335.16,-16.79 344.19,-22.34 345.68,-15.5"/>
</a>
</g>
</g>
<!-- Node12&#45;&gt;Node5 -->
<g id="edge16_Node000012_Node000005" class="edge">
<title>Node12&#45;&gt;Node5</title>
<g id="a_edge16_Node000012_Node000005"><a xlink:title=" ">
<path fill="none" stroke="#63b8ff" d="M583.9,-54.98C564.18,-46.42 533.55,-33.11 510.92,-23.28"/>
<polygon fill="#63b8ff" stroke="#63b8ff" points="512.02,-19.94 501.46,-19.17 509.24,-26.37 512.02,-19.94"/>
</a>
</g>
</g>
<!-- Node12&#45;&gt;Node6 -->
<g id="edge17_Node000012_Node000006" class="edge">
<title>Node12&#45;&gt;Node6</title>
<g id="a_edge17_Node000012_Node000006"><a xlink:title=" ">
<path fill="none" stroke="#63b8ff" d="M563.19,-61.37C484.43,-56.83 304.45,-44.59 143.77,-19"/>
<polygon fill="#63b8ff" stroke="#63b8ff" points="144.14,-15.51 133.71,-17.38 143.02,-22.43 144.14,-15.51"/>
</a>
</g>
</g>
<!-- Node12&#45;&gt;Node7 -->
<g id="edge19_Node000012_Node000007" class="edge">
<title>Node12&#45;&gt;Node7</title>
<g id="a_edge19_Node000012_Node000007"><a xlink:title=" ">
<path fill="none" stroke="#63b8ff" d="M643.83,-62.22C730.98,-59 943.39,-48.71 1129.85,-19.04"/>
<polygon fill="#63b8ff" stroke="#63b8ff" points="1130.52,-22.47 1139.83,-17.42 1129.4,-15.56 1130.52,-22.47"/>
</a>
</g>
</g>
<!-- Node12&#45;&gt;Node8 -->
<g id="edge20_Node000012_Node000008" class="edge">
<title>Node12&#45;&gt;Node8</title>
<g id="a_edge20_Node000012_Node000008"><a xlink:title=" ">
<path fill="none" stroke="#63b8ff" d="M568.96,-54.98C532.08,-45.89 473.51,-31.46 433.16,-21.51"/>
<polygon fill="#63b8ff" stroke="#63b8ff" points="433.86,-18.08 423.31,-19.08 432.19,-24.87 433.86,-18.08"/>
</a>
</g>
</g>
<!-- Node12&#45;&gt;Node9 -->
<g id="edge21_Node000012_Node000009" class="edge">
<title>Node12&#45;&gt;Node9</title>
<g id="a_edge21_Node000012_Node000009"><a xlink:title=" ">
<path fill="none" stroke="#63b8ff" d="M603.5,-54.75C603.5,-47.8 603.5,-37.85 603.5,-29.13"/>
<polygon fill="#63b8ff" stroke="#63b8ff" points="607,-29.09 603.5,-19.09 600,-29.09 607,-29.09"/>
</a>
</g>
</g>
<!-- Node12&#45;&gt;Node10 -->
<g id="edge22_Node000012_Node000010" class="edge">
<title>Node12&#45;&gt;Node10</title>
<g id="a_edge22_Node000012_Node000010"><a xlink:title=" ">
<path fill="none" stroke="#63b8ff" d="M643.73,-61.09C720.98,-56.13 895.54,-43.29 1052.45,-18.97"/>
<polygon fill="#63b8ff" stroke="#63b8ff" points="1053.42,-22.36 1062.76,-17.35 1052.33,-15.45 1053.42,-22.36"/>
</a>
</g>
</g>
<!-- Node12&#45;&gt;Node11 -->
<g id="edge24_Node000012_Node000011" class="edge">
<title>Node12&#45;&gt;Node11</title>
<g id="a_edge24_Node000012_Node000011"><a xlink:title=" ">
<path fill="none" stroke="#63b8ff" d="M563.36,-61.97C475.55,-58.23 259.7,-46.92 69.15,-18.88"/>
<polygon fill="#63b8ff" stroke="#63b8ff" points="69.64,-15.42 59.24,-17.4 68.61,-22.34 69.64,-15.42"/>
</a>
</g>
</g>
<!-- Node13 -->
<g id="Node000013" class="node">
<title>Node13</title>
<g id="a_Node000013"><a xlink:title=" ">
<polygon fill="#e0e0e0" stroke="#999999" points="974,-19 843,-19 843,0 974,0 974,-19"/>
<text text-anchor="middle" x="908.5" y="-7" font-family="Helvetica,sans-Serif" font-size="10.00">QAbstractItemDelegate</text>
</a>
</g>
</g>
<!-- Node12&#45;&gt;Node13 -->
<g id="edge13_Node000012_Node000013" class="edge">
<title>Node12&#45;&gt;Node13</title>
<g id="a_edge13_Node000012_Node000013"><a xlink:title=" ">
<path fill="none" stroke="#63b8ff" d="M643.69,-56.52C696.21,-47.39 788.63,-31.33 849.21,-20.8"/>
<polygon fill="#63b8ff" stroke="#63b8ff" points="850.14,-24.19 859.39,-19.03 848.94,-17.3 850.14,-24.19"/>
</a>
</g>
</g>
<!-- Node14 -->
<g id="Node000014" class="node">
<title>Node14</title>
<g id="a_Node000014"><a xlink:title=" ">
<polygon fill="#e0e0e0" stroke="#999999" points="1044.5,-19 992.5,-19 992.5,0 1044.5,0 1044.5,-19"/>
<text text-anchor="middle" x="1018.5" y="-7" font-family="Helvetica,sans-Serif" font-size="10.00">QEvent</text>
</a>
</g>
</g>
<!-- Node12&#45;&gt;Node14 -->
<g id="edge14_Node000012_Node000014" class="edge">
<title>Node12&#45;&gt;Node14</title>
<g id="a_edge14_Node000012_Node000014"><a xlink:title=" ">
<path fill="none" stroke="#63b8ff" d="M643.67,-60.41C711.5,-54.85 853.15,-41.73 982.15,-19.04"/>
<polygon fill="#63b8ff" stroke="#63b8ff" points="982.97,-22.45 992.2,-17.25 981.74,-15.56 982.97,-22.45"/>
</a>
</g>
</g>
<!-- Node15 -->
<g id="Node000015" class="node">
<title>Node15</title>
<g id="a_Node000015"><a xlink:title=" ">
<polygon fill="#e0e0e0" stroke="#999999" points="777.5,-19 685.5,-19 685.5,0 777.5,0 777.5,-19"/>
<text text-anchor="middle" x="731.5" y="-7" font-family="Helvetica,sans-Serif" font-size="10.00">QSharedPointer</text>
</a>
</g>
</g>
<!-- Node12&#45;&gt;Node15 -->
<g id="edge18_Node000012_Node000015" class="edge">
<title>Node12&#45;&gt;Node15</title>
<g id="a_edge18_Node000012_Node000015"><a xlink:title=" ">
<path fill="none" stroke="#63b8ff" d="M624.07,-54.98C644.93,-46.34 677.47,-32.87 701.27,-23.02"/>
<polygon fill="#63b8ff" stroke="#63b8ff" points="702.66,-26.23 710.56,-19.17 699.98,-19.76 702.66,-26.23"/>
</a>
</g>
</g>
<!-- Node16 -->
<g id="Node000016" class="node">
<title>Node16</title>
<g id="a_Node000016"><a xlink:title=" ">
<polygon fill="#e0e0e0" stroke="#999999" points="825,-19 796,-19 796,0 825,0 825,-19"/>
<text text-anchor="middle" x="810.5" y="-7" font-family="Helvetica,sans-Serif" font-size="10.00">Qt</text>
</a>
</g>
</g>
<!-- Node12&#45;&gt;Node16 -->
<g id="edge23_Node000012_Node000016" class="edge">
<title>Node12&#45;&gt;Node16</title>
<g id="a_edge23_Node000012_Node000016"><a xlink:title=" ">
<path fill="none" stroke="#63b8ff" d="M643.8,-54.94C678.98,-47.19 731.55,-34.95 786.03,-18.89"/>
<polygon fill="#63b8ff" stroke="#63b8ff" points="787.27,-22.17 795.85,-15.95 785.27,-15.46 787.27,-22.17"/>
</a>
</g>
</g>
<!-- Node26&#45;&gt;Node7 -->
<g id="edge36_Node000026_Node000007" class="edge">
<title>Node26&#45;&gt;Node7</title>
<g id="a_edge36_Node000026_Node000007"><a xlink:title=" ">
<path fill="none" stroke="#63b8ff" d="M854.29,-109.99C883.97,-101.17 931.55,-86.9 972.5,-74 1028.2,-56.46 1092.57,-35.19 1131.37,-22.26"/>
<polygon fill="#63b8ff" stroke="#63b8ff" points="1132.76,-25.49 1141.14,-19 1130.54,-18.85 1132.76,-25.49"/>
</a>
</g>
</g>
<!-- Node26&#45;&gt;Node10 -->
<g id="edge35_Node000026_Node000010" class="edge">
<title>Node26&#45;&gt;Node10</title>
<g id="a_edge35_Node000026_Node000010"><a xlink:title=" ">
<path fill="none" stroke="#63b8ff" d="M846.9,-109.84C894.08,-90.76 1007.19,-45.01 1061.87,-22.89"/>
<polygon fill="#63b8ff" stroke="#63b8ff" points="1063.41,-26.04 1071.37,-19.05 1060.79,-19.55 1063.41,-26.04"/>
</a>
</g>
</g>
<!-- Node26&#45;&gt;Node12 -->
<g id="edge37_Node000026_Node000012" class="edge">
<title>Node26&#45;&gt;Node12</title>
<g id="a_edge37_Node000026_Node000012"><a xlink:title=" ">
<path fill="none" stroke="#63b8ff" d="M789.83,-109.98C751.67,-100.87 691.03,-86.4 649.35,-76.45"/>
<polygon fill="#63b8ff" stroke="#63b8ff" points="649.99,-73 639.45,-74.08 648.36,-79.81 649.99,-73"/>
</a>
</g>
</g>
</g>
</svg>
