<?xml version="1.0" encoding="UTF-8" standalone="no"?>
<!DOCTYPE svg PUBLIC "-//W3C//DTD SVG 1.1//EN"
 "http://www.w3.org/Graphics/SVG/1.1/DTD/svg11.dtd">
<!-- Generated by graphviz version 2.43.0 (0)
 -->
<!-- Title: VAbstractConverter Pages: 1 -->
<!--zoomable 1169 -->

<svg id="main" version="1.1" xmlns="http://www.w3.org/2000/svg" xmlns:xlink="http://www.w3.org/1999/xlink" xml:space="preserve" onload="init(evt)">
<style type="text/css"><![CDATA[
.node, .edge {opacity: 0.7;}
.node.selected, .edge.selected {opacity: 1;}
.edge:hover path { stroke: red; }
.edge:hover polygon { stroke: red; fill: red; }
]]></style>

<defs>
  <circle id="rim" cx="0" cy="0" r="7"/>
  <circle id="rim2" cx="0" cy="0" r="3.5"/>
  <g id="zoomPlus">
    <use xlink:href="#rim" fill="#404040"><set attributeName="fill" to="#808080" begin="zoomplus.mouseover" end="zoomplus.mouseout"/></use>
    <path d="M-4,0h8M0,-4v8" fill="none" stroke="white" stroke-width="1.5" pointer-events="none"/>
  </g>
  <g id="zoomMin">
    <use xlink:href="#rim" fill="#404040"><set attributeName="fill" to="#808080" begin="zoomminus.mouseover" end="zoomminus.mouseout"/></use>
    <path d="M-4,0h8" fill="none" stroke="white" stroke-width="1.5" pointer-events="none"/>
  </g>
  <g id="arrowUp" transform="translate(30 24)">
    <use xlink:href="#rim"/>
    <path pointer-events="none" fill="none" stroke="white" stroke-width="1.5" d="M0,-3.0v7 M-2.5,-0.5L0,-3.0L2.5,-0.5"/>
  </g>
  <g id="arrowRight" transform="rotate(90) translate(36 -43)">
    <use xlink:href="#rim"/>
    <path pointer-events="none" fill="none" stroke="white" stroke-width="1.5" d="M0,-3.0v7 M-2.5,-0.5L0,-3.0L2.5,-0.5"/>
  </g>
  <g id="arrowDown" transform="rotate(180) translate(-30 -48)">
    <use xlink:href="#rim"/>
    <path pointer-events="none" fill="none" stroke="white" stroke-width="1.5" d="M0,-3.0v7 M-2.5,-0.5L0,-3.0L2.5,-0.5"/>
  </g>
  <g id="arrowLeft" transform="rotate(270) translate(-36 17)">
    <use xlink:href="#rim"/>
    <path pointer-events="none" fill="none" stroke="white" stroke-width="1.5" d="M0,-3.0v7 M-2.5,-0.5L0,-3.0L2.5,-0.5"/>
  </g>
  <g id="resetDef">
    <use xlink:href="#rim2" fill="#404040"><set attributeName="fill" to="#808080" begin="reset.mouseover" end="reset.mouseout"/></use>
  </g>
</defs>
<script type="application/ecmascript">
var viewWidth = 298;
var viewHeight = 1169;
var sectionId = 'dynsection-1';
</script>
<script type="application/ecmascript" xlink:href="../../svg.min.js"/>
<svg id="graph" class="graph">
<g id="viewport">
<title>VAbstractConverter</title>
<!-- Node1 -->
<g id="Node000001" class="node">
<title>Node1</title>
<g id="a_Node000001"><a xlink:title=" ">
<polygon fill="#999999" stroke="transparent" points="216.5,-424 29.5,-424 29.5,0 216.5,0 216.5,-424"/>
<text text-anchor="start" x="76" y="-412" font-family="Helvetica,sans-Serif" font-size="10.00">VAbstractConverter</text>
<text text-anchor="start" x="34" y="-397" font-family="Helvetica,sans-Serif" font-size="10.00">#</text>
<text text-anchor="start" x="47" y="-397" font-family="Helvetica,sans-Serif" font-size="10.00">m_ver</text>
<text text-anchor="start" x="34" y="-382" font-family="Helvetica,sans-Serif" font-size="10.00">#</text>
<text text-anchor="start" x="47" y="-382" font-family="Helvetica,sans-Serif" font-size="10.00">m_convertedFileName</text>
<text text-anchor="start" x="36.5" y="-367" font-family="Helvetica,sans-Serif" font-size="10.00">&#45;</text>
<text text-anchor="start" x="47" y="-367" font-family="Helvetica,sans-Serif" font-size="10.00">m_tmpFile</text>
<text text-anchor="start" x="34" y="-352" font-family="Helvetica,sans-Serif" font-size="10.00">+</text>
<text text-anchor="start" x="47" y="-352" font-family="Helvetica,sans-Serif" font-size="10.00">VAbstractConverter()</text>
<text text-anchor="start" x="34" y="-337" font-family="Helvetica,sans-Serif" font-size="10.00">+</text>
<text text-anchor="start" x="47" y="-337" font-family="Helvetica,sans-Serif" font-size="10.00">~VAbstractConverter()</text>
<text text-anchor="start" x="34" y="-322" font-family="Helvetica,sans-Serif" font-size="10.00">+</text>
<text text-anchor="start" x="47" y="-322" font-family="Helvetica,sans-Serif" font-size="10.00">Convert()</text>
<text text-anchor="start" x="34" y="-307" font-family="Helvetica,sans-Serif" font-size="10.00">+</text>
<text text-anchor="start" x="47" y="-307" font-family="Helvetica,sans-Serif" font-size="10.00">getCurrentFormatVersion()</text>
<text text-anchor="start" x="34" y="-292" font-family="Helvetica,sans-Serif" font-size="10.00">+</text>
<text text-anchor="start" x="47" y="-292" font-family="Helvetica,sans-Serif" font-size="10.00">getVersionStr()</text>
<text text-anchor="start" x="34" y="-277" font-family="Helvetica,sans-Serif" font-size="10.00">+</text>
<text text-anchor="start" x="47" y="-277" font-family="Helvetica,sans-Serif" font-size="10.00">GetVersion()</text>
<text text-anchor="start" x="34" y="-262" font-family="Helvetica,sans-Serif" font-size="10.00">#</text>
<text text-anchor="start" x="47" y="-262" font-family="Helvetica,sans-Serif" font-size="10.00">ValidateInputFile()</text>
<text text-anchor="start" x="34" y="-247" font-family="Helvetica,sans-Serif" font-size="10.00">#</text>
<text text-anchor="start" x="47" y="-247" font-family="Helvetica,sans-Serif" font-size="10.00">InvalidVersion()</text>
<text text-anchor="start" x="34" y="-232" font-family="Helvetica,sans-Serif" font-size="10.00">#</text>
<text text-anchor="start" x="47" y="-232" font-family="Helvetica,sans-Serif" font-size="10.00">Save()</text>
<text text-anchor="start" x="34" y="-217" font-family="Helvetica,sans-Serif" font-size="10.00">#</text>
<text text-anchor="start" x="47" y="-217" font-family="Helvetica,sans-Serif" font-size="10.00">setVersion()</text>
<text text-anchor="start" x="34" y="-202" font-family="Helvetica,sans-Serif" font-size="10.00">#</text>
<text text-anchor="start" x="47" y="-202" font-family="Helvetica,sans-Serif" font-size="10.00">minVer()</text>
<text text-anchor="start" x="34" y="-187" font-family="Helvetica,sans-Serif" font-size="10.00">#</text>
<text text-anchor="start" x="47" y="-187" font-family="Helvetica,sans-Serif" font-size="10.00">maxVer()</text>
<text text-anchor="start" x="34" y="-172" font-family="Helvetica,sans-Serif" font-size="10.00">#</text>
<text text-anchor="start" x="47" y="-172" font-family="Helvetica,sans-Serif" font-size="10.00">minVerStr()</text>
<text text-anchor="start" x="34" y="-157" font-family="Helvetica,sans-Serif" font-size="10.00">#</text>
<text text-anchor="start" x="47" y="-157" font-family="Helvetica,sans-Serif" font-size="10.00">maxVerStr()</text>
<text text-anchor="start" x="34" y="-142" font-family="Helvetica,sans-Serif" font-size="10.00">#</text>
<text text-anchor="start" x="47" y="-142" font-family="Helvetica,sans-Serif" font-size="10.00">getSchema()</text>
<text text-anchor="start" x="34" y="-127" font-family="Helvetica,sans-Serif" font-size="10.00">#</text>
<text text-anchor="start" x="47" y="-127" font-family="Helvetica,sans-Serif" font-size="10.00">applyPatches()</text>
<text text-anchor="start" x="34" y="-112" font-family="Helvetica,sans-Serif" font-size="10.00">#</text>
<text text-anchor="start" x="47" y="-112" font-family="Helvetica,sans-Serif" font-size="10.00">downgradeToCurrentMaxVersion()</text>
<text text-anchor="start" x="34" y="-97" font-family="Helvetica,sans-Serif" font-size="10.00">#</text>
<text text-anchor="start" x="47" y="-97" font-family="Helvetica,sans-Serif" font-size="10.00">isReadOnly()</text>
<text text-anchor="start" x="34" y="-82" font-family="Helvetica,sans-Serif" font-size="10.00">#</text>
<text text-anchor="start" x="47" y="-82" font-family="Helvetica,sans-Serif" font-size="10.00">Replace()</text>
<text text-anchor="start" x="34" y="-67" font-family="Helvetica,sans-Serif" font-size="10.00">#</text>
<text text-anchor="start" x="47" y="-67" font-family="Helvetica,sans-Serif" font-size="10.00">CorrectionsPositions()</text>
<text text-anchor="start" x="34" y="-52" font-family="Helvetica,sans-Serif" font-size="10.00">#</text>
<text text-anchor="start" x="47" y="-52" font-family="Helvetica,sans-Serif" font-size="10.00">BiasTokens()</text>
<text text-anchor="start" x="36.5" y="-37" font-family="Helvetica,sans-Serif" font-size="10.00">&#45;</text>
<text text-anchor="start" x="47" y="-37" font-family="Helvetica,sans-Serif" font-size="10.00">saveBackupFile()</text>
<text text-anchor="start" x="36.5" y="-22" font-family="Helvetica,sans-Serif" font-size="10.00">&#45;</text>
<text text-anchor="start" x="47" y="-22" font-family="Helvetica,sans-Serif" font-size="10.00">ValidateVersion()</text>
<text text-anchor="start" x="36.5" y="-7" font-family="Helvetica,sans-Serif" font-size="10.00">&#45;</text>
<text text-anchor="start" x="47" y="-7" font-family="Helvetica,sans-Serif" font-size="10.00">removeBakExtension()</text>
<polygon fill="#666666" stroke="#666666" points="30,-407 30,-407 217,-407 217,-407 30,-407"/>
<polygon fill="#666666" stroke="#666666" points="30,-362 30,-362 45,-362 45,-362 30,-362"/>
<polygon fill="#666666" stroke="#666666" points="45,-362 45,-362 217,-362 217,-362 45,-362"/>
<polygon fill="none" stroke="#666666" points="29.5,0 29.5,-424 216.5,-424 216.5,0 29.5,0"/>
</a>
</g>
</g>
<!-- Node2 -->
<g id="Node000002" class="node">
<title>Node2</title>
<g id="a_Node000002"><a xlink:href="../../d6/deb/classVDomDocument.html" target="_top" xlink:title="The VDomDocument class represents a Seamly2D document (.val file).">
<polygon fill="white" stroke="transparent" points="198.5,-1065 47.5,-1065 47.5,-461 198.5,-461 198.5,-1065"/>
<text text-anchor="start" x="83" y="-1053" font-family="Helvetica,sans-Serif" font-size="10.00">VDomDocument</text>
<text text-anchor="start" x="52" y="-1038" font-family="Helvetica,sans-Serif" font-size="10.00">+</text>
<text text-anchor="start" x="65" y="-1038" font-family="Helvetica,sans-Serif" font-size="10.00">AttrId</text>
<text text-anchor="start" x="52" y="-1023" font-family="Helvetica,sans-Serif" font-size="10.00">+</text>
<text text-anchor="start" x="65" y="-1023" font-family="Helvetica,sans-Serif" font-size="10.00">AttrText</text>
<text text-anchor="start" x="52" y="-1008" font-family="Helvetica,sans-Serif" font-size="10.00">+</text>
<text text-anchor="start" x="65" y="-1008" font-family="Helvetica,sans-Serif" font-size="10.00">AttrBold</text>
<text text-anchor="start" x="52" y="-993" font-family="Helvetica,sans-Serif" font-size="10.00">+</text>
<text text-anchor="start" x="65" y="-993" font-family="Helvetica,sans-Serif" font-size="10.00">AttrItalic</text>
<text text-anchor="start" x="52" y="-978" font-family="Helvetica,sans-Serif" font-size="10.00">+</text>
<text text-anchor="start" x="65" y="-978" font-family="Helvetica,sans-Serif" font-size="10.00">AttrAlignment</text>
<text text-anchor="start" x="52" y="-963" font-family="Helvetica,sans-Serif" font-size="10.00">+</text>
<text text-anchor="start" x="65" y="-963" font-family="Helvetica,sans-Serif" font-size="10.00">AttrFSIncrement</text>
<text text-anchor="start" x="52" y="-948" font-family="Helvetica,sans-Serif" font-size="10.00">+</text>
<text text-anchor="start" x="65" y="-948" font-family="Helvetica,sans-Serif" font-size="10.00">TagVersion</text>
<text text-anchor="start" x="52" y="-933" font-family="Helvetica,sans-Serif" font-size="10.00">+</text>
<text text-anchor="start" x="65" y="-933" font-family="Helvetica,sans-Serif" font-size="10.00">TagUnit</text>
<text text-anchor="start" x="52" y="-918" font-family="Helvetica,sans-Serif" font-size="10.00">+</text>
<text text-anchor="start" x="65" y="-918" font-family="Helvetica,sans-Serif" font-size="10.00">TagLine</text>
<text text-anchor="start" x="52" y="-903" font-family="Helvetica,sans-Serif" font-size="10.00">+</text>
<text text-anchor="start" x="65" y="-903" font-family="Helvetica,sans-Serif" font-size="10.00">VDomDocument()</text>
<text text-anchor="start" x="52" y="-888" font-family="Helvetica,sans-Serif" font-size="10.00">+</text>
<text text-anchor="start" x="65" y="-888" font-family="Helvetica,sans-Serif" font-size="10.00">~VDomDocument()</text>
<text text-anchor="start" x="52" y="-873" font-family="Helvetica,sans-Serif" font-size="10.00">+</text>
<text text-anchor="start" x="65" y="-873" font-family="Helvetica,sans-Serif" font-size="10.00">elementById()</text>
<text text-anchor="start" x="52" y="-858" font-family="Helvetica,sans-Serif" font-size="10.00">+</text>
<text text-anchor="start" x="65" y="-858" font-family="Helvetica,sans-Serif" font-size="10.00">SetAttribute()</text>
<text text-anchor="start" x="52" y="-843" font-family="Helvetica,sans-Serif" font-size="10.00">+</text>
<text text-anchor="start" x="65" y="-843" font-family="Helvetica,sans-Serif" font-size="10.00">measurementUnits()</text>
<text text-anchor="start" x="52" y="-828" font-family="Helvetica,sans-Serif" font-size="10.00">+</text>
<text text-anchor="start" x="65" y="-828" font-family="Helvetica,sans-Serif" font-size="10.00">setXMLContent()</text>
<text text-anchor="start" x="52" y="-813" font-family="Helvetica,sans-Serif" font-size="10.00">+</text>
<text text-anchor="start" x="65" y="-813" font-family="Helvetica,sans-Serif" font-size="10.00">SaveDocument()</text>
<text text-anchor="start" x="52" y="-798" font-family="Helvetica,sans-Serif" font-size="10.00">+</text>
<text text-anchor="start" x="65" y="-798" font-family="Helvetica,sans-Serif" font-size="10.00">Major()</text>
<text text-anchor="start" x="52" y="-783" font-family="Helvetica,sans-Serif" font-size="10.00">+</text>
<text text-anchor="start" x="65" y="-783" font-family="Helvetica,sans-Serif" font-size="10.00">Minor()</text>
<text text-anchor="start" x="52" y="-768" font-family="Helvetica,sans-Serif" font-size="10.00">+</text>
<text text-anchor="start" x="65" y="-768" font-family="Helvetica,sans-Serif" font-size="10.00">Patch()</text>
<text text-anchor="start" x="65" y="-753" font-family="Helvetica,sans-Serif" font-size="10.00">and 8 more...</text>
<text text-anchor="start" x="52" y="-738" font-family="Helvetica,sans-Serif" font-size="10.00">+</text>
<text text-anchor="start" x="65" y="-738" font-family="Helvetica,sans-Serif" font-size="10.00">GetParametrUInt()</text>
<text text-anchor="start" x="52" y="-723" font-family="Helvetica,sans-Serif" font-size="10.00">+</text>
<text text-anchor="start" x="65" y="-723" font-family="Helvetica,sans-Serif" font-size="10.00">getParameterBool()</text>
<text text-anchor="start" x="52" y="-708" font-family="Helvetica,sans-Serif" font-size="10.00">+</text>
<text text-anchor="start" x="65" y="-708" font-family="Helvetica,sans-Serif" font-size="10.00">GetParametrUsage()</text>
<text text-anchor="start" x="52" y="-693" font-family="Helvetica,sans-Serif" font-size="10.00">+</text>
<text text-anchor="start" x="65" y="-693" font-family="Helvetica,sans-Serif" font-size="10.00">SetParametrUsage()</text>
<text text-anchor="start" x="52" y="-678" font-family="Helvetica,sans-Serif" font-size="10.00">+</text>
<text text-anchor="start" x="65" y="-678" font-family="Helvetica,sans-Serif" font-size="10.00">GetParametrString()</text>
<text text-anchor="start" x="52" y="-663" font-family="Helvetica,sans-Serif" font-size="10.00">+</text>
<text text-anchor="start" x="65" y="-663" font-family="Helvetica,sans-Serif" font-size="10.00">GetParametrEmptyString()</text>
<text text-anchor="start" x="52" y="-648" font-family="Helvetica,sans-Serif" font-size="10.00">+</text>
<text text-anchor="start" x="65" y="-648" font-family="Helvetica,sans-Serif" font-size="10.00">GetParametrDouble()</text>
<text text-anchor="start" x="52" y="-633" font-family="Helvetica,sans-Serif" font-size="10.00">+</text>
<text text-anchor="start" x="65" y="-633" font-family="Helvetica,sans-Serif" font-size="10.00">getParameterId()</text>
<text text-anchor="start" x="52" y="-618" font-family="Helvetica,sans-Serif" font-size="10.00">+</text>
<text text-anchor="start" x="65" y="-618" font-family="Helvetica,sans-Serif" font-size="10.00">ValidateXML()</text>
<text text-anchor="start" x="52" y="-603" font-family="Helvetica,sans-Serif" font-size="10.00">+</text>
<text text-anchor="start" x="65" y="-603" font-family="Helvetica,sans-Serif" font-size="10.00">UnitsHelpString()</text>
<text text-anchor="start" x="52" y="-588" font-family="Helvetica,sans-Serif" font-size="10.00">+</text>
<text text-anchor="start" x="65" y="-588" font-family="Helvetica,sans-Serif" font-size="10.00">RemoveAllChildren()</text>
<text text-anchor="start" x="52" y="-573" font-family="Helvetica,sans-Serif" font-size="10.00">+</text>
<text text-anchor="start" x="65" y="-573" font-family="Helvetica,sans-Serif" font-size="10.00">SafeCopy()</text>
<text text-anchor="start" x="52" y="-558" font-family="Helvetica,sans-Serif" font-size="10.00">#</text>
<text text-anchor="start" x="65" y="-558" font-family="Helvetica,sans-Serif" font-size="10.00">setTagText()</text>
<text text-anchor="start" x="52" y="-543" font-family="Helvetica,sans-Serif" font-size="10.00">#</text>
<text text-anchor="start" x="65" y="-543" font-family="Helvetica,sans-Serif" font-size="10.00">setTagText()</text>
<text text-anchor="start" x="52" y="-528" font-family="Helvetica,sans-Serif" font-size="10.00">#</text>
<text text-anchor="start" x="65" y="-528" font-family="Helvetica,sans-Serif" font-size="10.00">UniqueTagText()</text>
<text text-anchor="start" x="52" y="-513" font-family="Helvetica,sans-Serif" font-size="10.00">#</text>
<text text-anchor="start" x="65" y="-513" font-family="Helvetica,sans-Serif" font-size="10.00">TestUniqueId()</text>
<text text-anchor="start" x="52" y="-498" font-family="Helvetica,sans-Serif" font-size="10.00">#</text>
<text text-anchor="start" x="65" y="-498" font-family="Helvetica,sans-Serif" font-size="10.00">CollectId()</text>
<text text-anchor="start" x="54.5" y="-483" font-family="Helvetica,sans-Serif" font-size="10.00">&#45;</text>
<text text-anchor="start" x="65" y="-483" font-family="Helvetica,sans-Serif" font-size="10.00">find()</text>
<text text-anchor="start" x="54.5" y="-468" font-family="Helvetica,sans-Serif" font-size="10.00">&#45;</text>
<text text-anchor="start" x="65" y="-468" font-family="Helvetica,sans-Serif" font-size="10.00">SaveCanonicalXML()</text>
<polygon fill="#666666" stroke="#666666" points="48,-1048 48,-1048 199,-1048 199,-1048 48,-1048"/>
<polygon fill="#666666" stroke="#666666" points="48,-913 48,-913 63,-913 63,-913 48,-913"/>
<polygon fill="#666666" stroke="#666666" points="63,-913 63,-913 199,-913 199,-913 63,-913"/>
<polygon fill="none" stroke="#666666" points="47.5,-461 47.5,-1065 198.5,-1065 198.5,-461 47.5,-461"/>
</a>
</g>
</g>
<!-- Node2&#45;&gt;Node1 -->
<g id="edge1_Node000001_Node000002" class="edge">
<title>Node2&#45;&gt;Node1</title>
<g id="a_edge1_Node000001_Node000002"><a xlink:title=" ">
<path fill="none" stroke="#63b8ff" d="M123,-450.88C123,-441.93 123,-433.03 123,-424.23"/>
<polygon fill="none" stroke="#63b8ff" points="119.5,-451 123,-461 126.5,-451 119.5,-451"/>
</a>
</g>
</g>
<!-- Node3 -->
<g id="Node000003" class="node">
<title>Node3</title>
<g id="a_Node000003"><a xlink:title=" ">
<polygon fill="white" stroke="transparent" points="92,-1161 0,-1161 0,-1112 92,-1112 92,-1161"/>
<text text-anchor="start" x="5" y="-1148.5" font-family="Helvetica,sans-Serif" font-size="10.00">QDomDocument</text>
<text text-anchor="start" x="44" y="-1133.5" font-family="Helvetica,sans-Serif" font-size="10.00"> </text>
<text text-anchor="start" x="44" y="-1118.5" font-family="Helvetica,sans-Serif" font-size="10.00"> </text>
<polygon fill="#666666" stroke="#666666" points="0,-1143.5 0,-1143.5 92,-1143.5 92,-1143.5 0,-1143.5"/>
<polygon fill="#666666" stroke="#666666" points="0,-1128.5 0,-1128.5 92,-1128.5 92,-1128.5 0,-1128.5"/>
<polygon fill="none" stroke="#666666" points="0,-1112 0,-1161 92,-1161 92,-1112 0,-1112"/>
</a>
</g>
</g>
<!-- Node3&#45;&gt;Node2 -->
<g id="edge2_Node000002_Node000003" class="edge">
<title>Node3&#45;&gt;Node2</title>
<g id="a_edge2_Node000002_Node000003"><a xlink:title=" ">
<path fill="none" stroke="#63b8ff" d="M52.97,-1101.89C55.12,-1091.49 57.69,-1079.08 60.56,-1065.25"/>
<polygon fill="none" stroke="#63b8ff" points="49.48,-1101.48 50.88,-1111.98 56.33,-1102.9 49.48,-1101.48"/>
</a>
</g>
</g>
<!-- Node4 -->
<g id="Node000004" class="node">
<title>Node4</title>
<g id="a_Node000004"><a xlink:href="../../da/da1/classQHash.html" target="_top" xlink:title=" ">
<polygon fill="white" stroke="transparent" points="289.5,-1161 110.5,-1161 110.5,-1112 289.5,-1112 289.5,-1161"/>
<text text-anchor="start" x="116" y="-1148.5" font-family="Helvetica,sans-Serif" font-size="10.00">QHash&lt; quint32, QDomElement &gt;</text>
<text text-anchor="start" x="198.5" y="-1133.5" font-family="Helvetica,sans-Serif" font-size="10.00"> </text>
<text text-anchor="start" x="198.5" y="-1118.5" font-family="Helvetica,sans-Serif" font-size="10.00"> </text>
<polygon fill="#666666" stroke="#666666" points="111,-1143.5 111,-1143.5 290,-1143.5 290,-1143.5 111,-1143.5"/>
<polygon fill="#666666" stroke="#666666" points="111,-1128.5 111,-1128.5 290,-1128.5 290,-1128.5 111,-1128.5"/>
<polygon fill="none" stroke="#666666" points="110.5,-1112 110.5,-1161 289.5,-1161 289.5,-1112 110.5,-1112"/>
</a>
</g>
</g>
<!-- Node4&#45;&gt;Node2 -->
<g id="edge3_Node000002_Node000004" class="edge">
<title>Node4&#45;&gt;Node2</title>
<g id="a_edge3_Node000002_Node000004"><a xlink:title=" ">
<path fill="none" stroke="#63b8ff" d="M195.12,-1111.98C193.17,-1102.57 190.72,-1090.71 187.89,-1077.09"/>
<polygon fill="none" stroke="#63b8ff" points="187.88,-1077 182.74,-1071.94 185.44,-1065.25 190.57,-1070.32 187.88,-1077"/>
</a>
</g>
<text text-anchor="middle" x="204.5" y="-1086" font-family="Helvetica,sans-Serif" font-size="10.00" fill="grey"> &#45;map</text>
</g>
</g>
</svg>

<g id="navigator" transform="translate(0 0)" fill="#404254">
  <rect fill="#f2f5e9" fill-opacity="0.5" stroke="#606060" stroke-width=".5" x="0" y="0" width="60" height="60"/>
  <use id="zoomplus" xlink:href="#zoomPlus" x="17" y="9" onmousedown="handleZoom(evt,'in')"/>
  <use id="zoomminus" xlink:href="#zoomMin" x="42" y="9" onmousedown="handleZoom(evt,'out')"/>
  <use id="reset" xlink:href="#resetDef" x="30" y="36" onmousedown="handleReset()"/>
   <use id="arrowup" xlink:href="#arrowUp" x="0" y="0" onmousedown="handlePan(0,-1)"/>
  <use id="arrowright" xlink:href="#arrowRight" x="0" y="0" onmousedown="handlePan(1,0)"/>
  <use id="arrowdown" xlink:href="#arrowDown" x="0" y="0" onmousedown="handlePan(0,1)"/>
  <use id="arrowleft" xlink:href="#arrowLeft" x="0" y="0" onmousedown="handlePan(-1,0)"/>
</g>
<svg viewBox="0 0 15 15" width="100%" height="30px" preserveAspectRatio="xMaxYMin meet">
 <g id="arrow_out" transform="scale(0.3 0.3)">
  <a xlink:href="classVAbstractConverter__coll__graph_org.svg" target="_base">
   <rect id="button" ry="5" rx="5" y="6" x="6" height="38" width="38"
        fill="#f2f5e9" fill-opacity="0.5" stroke="#606060" stroke-width="1.0"/>
   <path id="arrow"
     d="M 11.500037,31.436501 C 11.940474,20.09759 22.043105,11.32322 32.158766,21.979434 L 37.068811,17.246167 C 37.068811,17.246167 37.088388,32 37.088388,32 L 22.160133,31.978069 C 22.160133,31.978069 26.997745,27.140456 26.997745,27.140456 C 18.528582,18.264221 13.291696,25.230495 11.500037,31.436501 z"
     style="fill:#404040;"/>
  </a>
 </g>
</svg>

<style type='text/css'>
<![CDATA[
[data-mouse-over-selected='false'] { opacity: 0.7; }
[data-mouse-over-selected='true']  { opacity: 1.0; }
]]>
</style>
<script type="application/ecmascript"><![CDATA[
document.addEventListener('DOMContentLoaded', (event) => {
  highlightEdges();
  highlightAdjacentNodes();
});
]]></script>
</svg>
