<?xml version="1.0" encoding="UTF-8" standalone="no"?>
<!DOCTYPE svg PUBLIC "-//W3C//DTD SVG 1.1//EN"
 "http://www.w3.org/Graphics/SVG/1.1/DTD/svg11.dtd">
<!-- Generated by graphviz version 2.43.0 (0)
 -->
<!-- Title: src/libs/vmisc/projectversion.cpp Pages: 1 -->
<svg width="1182pt" height="82pt"
 viewBox="0.00 0.00 1182.00 82.00" xmlns="http://www.w3.org/2000/svg" xmlns:xlink="http://www.w3.org/1999/xlink">
<g id="graph0" class="graph" transform="scale(1 1) rotate(0) translate(4 78)">
<title>src/libs/vmisc/projectversion.cpp</title>
<!-- Node1 -->
<g id="Node000001" class="node">
<title>Node1</title>
<g id="a_Node000001"><a xlink:title=" ">
<polygon fill="#999999" stroke="#666666" points="732.5,-74 556.5,-74 556.5,-55 732.5,-55 732.5,-74"/>
<text text-anchor="middle" x="644.5" y="-62" font-family="Helvetica,sans-Serif" font-size="10.00">src/libs/vmisc/projectversion.cpp</text>
</a>
</g>
</g>
<!-- Node2 -->
<g id="Node000002" class="node">
<title>Node2</title>
<g id="a_Node000002"><a xlink:href="../../dc/d73/projectversion_8h.html" target="_top" xlink:title=" ">
<polygon fill="white" stroke="#666666" points="95,-19 0,-19 0,0 95,0 95,-19"/>
<text text-anchor="middle" x="47.5" y="-7" font-family="Helvetica,sans-Serif" font-size="10.00">projectversion.h</text>
</a>
</g>
</g>
<!-- Node1&#45;&gt;Node2 -->
<g id="edge1_Node000001_Node000002" class="edge">
<title>Node1&#45;&gt;Node2</title>
<g id="a_edge1_Node000001_Node000002"><a xlink:title=" ">
<path fill="none" stroke="#63b8ff" d="M556.4,-58.03C451.56,-51.11 270.95,-37.92 105.43,-19.03"/>
<polygon fill="#63b8ff" stroke="#63b8ff" points="105.39,-15.5 95.05,-17.83 104.59,-22.45 105.39,-15.5"/>
</a>
</g>
</g>
<!-- Node3 -->
<g id="Node000003" class="node">
<title>Node3</title>
<g id="a_Node000003"><a xlink:title=" ">
<polygon fill="#e0e0e0" stroke="#999999" points="233.5,-19 113.5,-19 113.5,0 233.5,0 233.5,-19"/>
<text text-anchor="middle" x="173.5" y="-7" font-family="Helvetica,sans-Serif" font-size="10.00">qcompilerdetection.h</text>
</a>
</g>
</g>
<!-- Node1&#45;&gt;Node3 -->
<g id="edge2_Node000001_Node000003" class="edge">
<title>Node1&#45;&gt;Node3</title>
<g id="a_edge2_Node000001_Node000003"><a xlink:title=" ">
<path fill="none" stroke="#63b8ff" d="M564.76,-54.97C485.92,-46.46 361.55,-32.87 243.97,-19.16"/>
<polygon fill="#63b8ff" stroke="#63b8ff" points="244.04,-15.64 233.71,-17.96 243.23,-22.6 244.04,-15.64"/>
</a>
</g>
</g>
<!-- Node4 -->
<g id="Node000004" class="node">
<title>Node4</title>
<g id="a_Node000004"><a xlink:title=" ">
<polygon fill="#e0e0e0" stroke="#999999" points="353,-19 252,-19 252,0 353,0 353,-19"/>
<text text-anchor="middle" x="302.5" y="-7" font-family="Helvetica,sans-Serif" font-size="10.00">QCoreApplication</text>
</a>
</g>
</g>
<!-- Node1&#45;&gt;Node4 -->
<g id="edge3_Node000001_Node000004" class="edge">
<title>Node1&#45;&gt;Node4</title>
<g id="a_edge3_Node000001_Node000004"><a xlink:title=" ">
<path fill="none" stroke="#63b8ff" d="M589.55,-54.98C527.63,-45.39 427.26,-29.83 363.1,-19.89"/>
<polygon fill="#63b8ff" stroke="#63b8ff" points="363.55,-16.42 353.13,-18.35 362.47,-23.34 363.55,-16.42"/>
</a>
</g>
</g>
<!-- Node5 -->
<g id="Node000005" class="node">
<title>Node5</title>
<g id="a_Node000005"><a xlink:title=" ">
<polygon fill="#e0e0e0" stroke="#999999" points="448,-19 371,-19 371,0 448,0 448,-19"/>
<text text-anchor="middle" x="409.5" y="-7" font-family="Helvetica,sans-Serif" font-size="10.00">QLatin1Char</text>
</a>
</g>
</g>
<!-- Node1&#45;&gt;Node5 -->
<g id="edge4_Node000001_Node000005" class="edge">
<title>Node1&#45;&gt;Node5</title>
<g id="a_edge4_Node000001_Node000005"><a xlink:title=" ">
<path fill="none" stroke="#63b8ff" d="M606.74,-54.98C566.18,-45.84 501.61,-31.27 457.47,-21.32"/>
<polygon fill="#63b8ff" stroke="#63b8ff" points="458.08,-17.87 447.55,-19.08 456.54,-24.7 458.08,-17.87"/>
</a>
</g>
</g>
<!-- Node6 -->
<g id="Node000006" class="node">
<title>Node6</title>
<g id="a_Node000006"><a xlink:title=" ">
<polygon fill="#e0e0e0" stroke="#999999" points="549,-19 466,-19 466,0 549,0 549,-19"/>
<text text-anchor="middle" x="507.5" y="-7" font-family="Helvetica,sans-Serif" font-size="10.00">QLatin1String</text>
</a>
</g>
</g>
<!-- Node1&#45;&gt;Node6 -->
<g id="edge5_Node000001_Node000006" class="edge">
<title>Node1&#45;&gt;Node6</title>
<g id="a_edge5_Node000001_Node000006"><a xlink:title=" ">
<path fill="none" stroke="#63b8ff" d="M622.49,-54.98C600.05,-46.3 565.02,-32.75 539.51,-22.88"/>
<polygon fill="#63b8ff" stroke="#63b8ff" points="540.5,-19.51 529.91,-19.17 537.98,-26.04 540.5,-19.51"/>
</a>
</g>
</g>
<!-- Node7 -->
<g id="Node000007" class="node">
<title>Node7</title>
<g id="a_Node000007"><a xlink:title=" ">
<polygon fill="#e0e0e0" stroke="#999999" points="623.5,-19 567.5,-19 567.5,0 623.5,0 623.5,-19"/>
<text text-anchor="middle" x="595.5" y="-7" font-family="Helvetica,sans-Serif" font-size="10.00">QObject</text>
</a>
</g>
</g>
<!-- Node1&#45;&gt;Node7 -->
<g id="edge6_Node000001_Node000007" class="edge">
<title>Node1&#45;&gt;Node7</title>
<g id="a_edge6_Node000001_Node000007"><a xlink:title=" ">
<path fill="none" stroke="#63b8ff" d="M636.41,-54.75C629.34,-47.11 618.91,-35.82 610.35,-26.56"/>
<polygon fill="#63b8ff" stroke="#63b8ff" points="612.8,-24.06 603.44,-19.09 607.66,-28.81 612.8,-24.06"/>
</a>
</g>
</g>
<!-- Node8 -->
<g id="Node000008" class="node">
<title>Node8</title>
<g id="a_Node000008"><a xlink:title=" ">
<polygon fill="#e0e0e0" stroke="#999999" points="745.5,-19 641.5,-19 641.5,0 745.5,0 745.5,-19"/>
<text text-anchor="middle" x="693.5" y="-7" font-family="Helvetica,sans-Serif" font-size="10.00">QStaticStringData</text>
</a>
</g>
</g>
<!-- Node1&#45;&gt;Node8 -->
<g id="edge7_Node000001_Node000008" class="edge">
<title>Node1&#45;&gt;Node8</title>
<g id="a_edge7_Node000001_Node000008"><a xlink:title=" ">
<path fill="none" stroke="#63b8ff" d="M652.59,-54.75C659.66,-47.11 670.09,-35.82 678.65,-26.56"/>
<polygon fill="#63b8ff" stroke="#63b8ff" points="681.34,-28.81 685.56,-19.09 676.2,-24.06 681.34,-28.81"/>
</a>
</g>
</g>
<!-- Node9 -->
<g id="Node000009" class="node">
<title>Node9</title>
<g id="a_Node000009"><a xlink:title=" ">
<polygon fill="#e0e0e0" stroke="#999999" points="817,-19 764,-19 764,0 817,0 817,-19"/>
<text text-anchor="middle" x="790.5" y="-7" font-family="Helvetica,sans-Serif" font-size="10.00">QString</text>
</a>
</g>
</g>
<!-- Node1&#45;&gt;Node9 -->
<g id="edge8_Node000001_Node000009" class="edge">
<title>Node1&#45;&gt;Node9</title>
<g id="a_edge8_Node000001_Node000009"><a xlink:title=" ">
<path fill="none" stroke="#63b8ff" d="M667.96,-54.98C692.08,-46.23 729.87,-32.51 757.1,-22.62"/>
<polygon fill="#63b8ff" stroke="#63b8ff" points="758.41,-25.87 766.62,-19.17 756.02,-19.29 758.41,-25.87"/>
</a>
</g>
</g>
<!-- Node10 -->
<g id="Node000010" class="node">
<title>Node10</title>
<g id="a_Node000010"><a xlink:title=" ">
<polygon fill="#e0e0e0" stroke="#999999" points="911.5,-19 835.5,-19 835.5,0 911.5,0 911.5,-19"/>
<text text-anchor="middle" x="873.5" y="-7" font-family="Helvetica,sans-Serif" font-size="10.00">QStringData</text>
</a>
</g>
</g>
<!-- Node1&#45;&gt;Node10 -->
<g id="edge9_Node000001_Node000010" class="edge">
<title>Node1&#45;&gt;Node10</title>
<g id="a_edge9_Node000001_Node000010"><a xlink:title=" ">
<path fill="none" stroke="#63b8ff" d="M681.29,-54.98C720.74,-45.86 783.48,-31.33 826.48,-21.38"/>
<polygon fill="#63b8ff" stroke="#63b8ff" points="827.47,-24.75 836.42,-19.08 825.89,-17.93 827.47,-24.75"/>
</a>
</g>
</g>
<!-- Node11 -->
<g id="Node000011" class="node">
<title>Node11</title>
<g id="a_Node000011"><a xlink:title=" ">
<polygon fill="#e0e0e0" stroke="#999999" points="1019,-19 930,-19 930,0 1019,0 1019,-19"/>
<text text-anchor="middle" x="974.5" y="-7" font-family="Helvetica,sans-Serif" font-size="10.00">QStringDataPtr</text>
</a>
</g>
</g>
<!-- Node1&#45;&gt;Node11 -->
<g id="edge10_Node000001_Node000011" class="edge">
<title>Node1&#45;&gt;Node11</title>
<g id="a_edge10_Node000001_Node000011"><a xlink:title=" ">
<path fill="none" stroke="#63b8ff" d="M697.52,-54.98C758.53,-45.19 858.21,-29.18 919.89,-19.27"/>
<polygon fill="#63b8ff" stroke="#63b8ff" points="920.5,-22.72 929.82,-17.68 919.39,-15.81 920.5,-22.72"/>
</a>
</g>
</g>
<!-- Node12 -->
<g id="Node000012" class="node">
<title>Node12</title>
<g id="a_Node000012"><a xlink:title=" ">
<polygon fill="#e0e0e0" stroke="#999999" points="1096.5,-19 1036.5,-19 1036.5,0 1096.5,0 1096.5,-19"/>
<text text-anchor="middle" x="1066.5" y="-7" font-family="Helvetica,sans-Serif" font-size="10.00">QSysInfo</text>
</a>
</g>
</g>
<!-- Node1&#45;&gt;Node12 -->
<g id="edge11_Node000001_Node000012" class="edge">
<title>Node1&#45;&gt;Node12</title>
<g id="a_edge11_Node000001_Node000012"><a xlink:title=" ">
<path fill="none" stroke="#63b8ff" d="M732.56,-55.94C808.27,-48.83 920.54,-36.84 1026.38,-19.23"/>
<polygon fill="#63b8ff" stroke="#63b8ff" points="1026.99,-22.67 1036.27,-17.56 1025.83,-15.77 1026.99,-22.67"/>
</a>
</g>
</g>
<!-- Node13 -->
<g id="Node000013" class="node">
<title>Node13</title>
<g id="a_Node000013"><a xlink:title=" ">
<polygon fill="#e0e0e0" stroke="#999999" points="1174,-19 1115,-19 1115,0 1174,0 1174,-19"/>
<text text-anchor="middle" x="1144.5" y="-7" font-family="Helvetica,sans-Serif" font-size="10.00">QtGlobal</text>
</a>
</g>
</g>
<!-- Node1&#45;&gt;Node13 -->
<g id="edge12_Node000001_Node000013" class="edge">
<title>Node1&#45;&gt;Node13</title>
<g id="a_edge12_Node000001_Node000013"><a xlink:title=" ">
<path fill="none" stroke="#63b8ff" d="M732.84,-58.09C823.65,-51.82 969.29,-39.8 1104.62,-18.94"/>
<polygon fill="#63b8ff" stroke="#63b8ff" points="1105.42,-22.36 1114.76,-17.36 1104.34,-15.45 1105.42,-22.36"/>
</a>
</g>
</g>
</g>
</svg>
