<?xml version="1.0" encoding="UTF-8" standalone="no"?>
<!DOCTYPE svg PUBLIC "-//W3C//DTD SVG 1.1//EN"
 "http://www.w3.org/Graphics/SVG/1.1/DTD/svg11.dtd">
<!-- Generated by graphviz version 2.43.0 (0)
 -->
<!-- Title: src/libs/vpropertyexplorer/plugins/vboolproperty.h Pages: 1 -->
<svg width="1201pt" height="148pt"
 viewBox="0.00 0.00 1200.50 148.00" xmlns="http://www.w3.org/2000/svg" xmlns:xlink="http://www.w3.org/1999/xlink">
<g id="graph0" class="graph" transform="scale(1 1) rotate(0) translate(4 144)">
<title>src/libs/vpropertyexplorer/plugins/vboolproperty.h</title>
<!-- Node1 -->
<g id="Node000001" class="node">
<title>Node1</title>
<g id="a_Node000001"><a xlink:title=" ">
<polygon fill="#999999" stroke="#666666" points="473,-140 331,-140 331,-110 473,-110 473,-140"/>
<text text-anchor="start" x="339" y="-128" font-family="Helvetica,sans-Serif" font-size="10.00">src/libs/vpropertyexplorer</text>
<text text-anchor="middle" x="402" y="-117" font-family="Helvetica,sans-Serif" font-size="10.00">/plugins/vboolproperty.h</text>
</a>
</g>
</g>
<!-- Node2 -->
<g id="Node000002" class="node">
<title>Node2</title>
<g id="a_Node000002"><a xlink:title=" ">
<polygon fill="#e0e0e0" stroke="#999999" points="120,-19 0,-19 0,0 120,0 120,-19"/>
<text text-anchor="middle" x="60" y="-7" font-family="Helvetica,sans-Serif" font-size="10.00">qcompilerdetection.h</text>
</a>
</g>
</g>
<!-- Node1&#45;&gt;Node2 -->
<g id="edge1_Node000001_Node000002" class="edge">
<title>Node1&#45;&gt;Node2</title>
<g id="a_edge1_Node000001_Node000002"><a xlink:title=" ">
<path fill="none" stroke="#63b8ff" d="M359.72,-109.97C291.7,-87.39 159.16,-43.41 95.63,-22.33"/>
<polygon fill="#63b8ff" stroke="#63b8ff" points="96.64,-18.97 86.05,-19.14 94.44,-25.62 96.64,-18.97"/>
</a>
</g>
</g>
<!-- Node3 -->
<g id="Node000003" class="node">
<title>Node3</title>
<g id="a_Node000003"><a xlink:title=" ">
<polygon fill="#e0e0e0" stroke="#999999" points="660,-74 604,-74 604,-55 660,-55 660,-74"/>
<text text-anchor="middle" x="632" y="-62" font-family="Helvetica,sans-Serif" font-size="10.00">stddef.h</text>
</a>
</g>
</g>
<!-- Node1&#45;&gt;Node3 -->
<g id="edge2_Node000001_Node000003" class="edge">
<title>Node1&#45;&gt;Node3</title>
<g id="a_edge2_Node000001_Node000003"><a xlink:title=" ">
<path fill="none" stroke="#63b8ff" d="M457.09,-109.99C499.36,-99.24 556.62,-84.67 593.93,-75.18"/>
<polygon fill="#63b8ff" stroke="#63b8ff" points="595.07,-78.51 603.89,-72.65 593.34,-71.72 595.07,-78.51"/>
</a>
</g>
</g>
<!-- Node4 -->
<g id="Node000004" class="node">
<title>Node4</title>
<g id="a_Node000004"><a xlink:title=" ">
<polygon fill="#e0e0e0" stroke="#999999" points="218,-19 138,-19 138,0 218,0 218,-19"/>
<text text-anchor="middle" x="178" y="-7" font-family="Helvetica,sans-Serif" font-size="10.00">QMetaObject</text>
</a>
</g>
</g>
<!-- Node1&#45;&gt;Node4 -->
<g id="edge3_Node000001_Node000004" class="edge">
<title>Node1&#45;&gt;Node4</title>
<g id="a_edge3_Node000001_Node000004"><a xlink:title=" ">
<path fill="none" stroke="#63b8ff" d="M374.08,-109.85C330.45,-87.75 246.7,-45.31 204.17,-23.76"/>
<polygon fill="#63b8ff" stroke="#63b8ff" points="205.52,-20.52 195.02,-19.12 202.36,-26.77 205.52,-20.52"/>
</a>
</g>
</g>
<!-- Node5 -->
<g id="Node000005" class="node">
<title>Node5</title>
<g id="a_Node000005"><a xlink:title=" ">
<polygon fill="#e0e0e0" stroke="#999999" points="292,-19 236,-19 236,0 292,0 292,-19"/>
<text text-anchor="middle" x="264" y="-7" font-family="Helvetica,sans-Serif" font-size="10.00">QObject</text>
</a>
</g>
</g>
<!-- Node1&#45;&gt;Node5 -->
<g id="edge4_Node000001_Node000005" class="edge">
<title>Node1&#45;&gt;Node5</title>
<g id="a_edge4_Node000001_Node000005"><a xlink:title=" ">
<path fill="none" stroke="#63b8ff" d="M384.8,-109.85C358.72,-88.41 309.38,-47.82 282.53,-25.74"/>
<polygon fill="#63b8ff" stroke="#63b8ff" points="284.61,-22.92 274.66,-19.27 280.16,-28.33 284.61,-22.92"/>
</a>
</g>
</g>
<!-- Node6 -->
<g id="Node000006" class="node">
<title>Node6</title>
<g id="a_Node000006"><a xlink:title=" ">
<polygon fill="#e0e0e0" stroke="#999999" points="363.5,-19 310.5,-19 310.5,0 363.5,0 363.5,-19"/>
<text text-anchor="middle" x="337" y="-7" font-family="Helvetica,sans-Serif" font-size="10.00">QString</text>
</a>
</g>
</g>
<!-- Node1&#45;&gt;Node6 -->
<g id="edge5_Node000001_Node000006" class="edge">
<title>Node1&#45;&gt;Node6</title>
<g id="a_edge5_Node000001_Node000006"><a xlink:title=" ">
<path fill="none" stroke="#63b8ff" d="M393.77,-109.63C381.86,-88.84 359.87,-50.44 347.03,-28.02"/>
<polygon fill="#63b8ff" stroke="#63b8ff" points="350.01,-26.17 342,-19.23 343.93,-29.65 350.01,-26.17"/>
</a>
</g>
</g>
<!-- Node7 -->
<g id="Node000007" class="node">
<title>Node7</title>
<g id="a_Node000007"><a xlink:title=" ">
<polygon fill="#e0e0e0" stroke="#999999" points="440.5,-19 381.5,-19 381.5,0 440.5,0 440.5,-19"/>
<text text-anchor="middle" x="411" y="-7" font-family="Helvetica,sans-Serif" font-size="10.00">QVariant</text>
</a>
</g>
</g>
<!-- Node1&#45;&gt;Node7 -->
<g id="edge6_Node000001_Node000007" class="edge">
<title>Node1&#45;&gt;Node7</title>
<g id="a_edge6_Node000001_Node000007"><a xlink:title=" ">
<path fill="none" stroke="#63b8ff" d="M403.14,-109.63C404.76,-89.21 407.72,-51.81 409.51,-29.24"/>
<polygon fill="#63b8ff" stroke="#63b8ff" points="413.01,-29.47 410.31,-19.23 406.03,-28.92 413.01,-29.47"/>
</a>
</g>
</g>
<!-- Node8 -->
<g id="Node000008" class="node">
<title>Node8</title>
<g id="a_Node000008"><a xlink:title=" ">
<polygon fill="#e0e0e0" stroke="#999999" points="487.5,-19 458.5,-19 458.5,0 487.5,0 487.5,-19"/>
<text text-anchor="middle" x="473" y="-7" font-family="Helvetica,sans-Serif" font-size="10.00">Qt</text>
</a>
</g>
</g>
<!-- Node1&#45;&gt;Node8 -->
<g id="edge7_Node000001_Node000008" class="edge">
<title>Node1&#45;&gt;Node8</title>
<g id="a_edge7_Node000001_Node000008"><a xlink:title=" ">
<path fill="none" stroke="#63b8ff" d="M410.99,-109.63C424.05,-88.75 448.23,-50.09 462.23,-27.72"/>
<polygon fill="#63b8ff" stroke="#63b8ff" points="465.2,-29.56 467.54,-19.23 459.27,-25.85 465.2,-29.56"/>
</a>
</g>
</g>
<!-- Node9 -->
<g id="Node000009" class="node">
<title>Node9</title>
<g id="a_Node000009"><a xlink:title=" ">
<polygon fill="#e0e0e0" stroke="#999999" points="1192.5,-19 1133.5,-19 1133.5,0 1192.5,0 1192.5,-19"/>
<text text-anchor="middle" x="1163" y="-7" font-family="Helvetica,sans-Serif" font-size="10.00">QtGlobal</text>
</a>
</g>
</g>
<!-- Node1&#45;&gt;Node9 -->
<g id="edge8_Node000001_Node000009" class="edge">
<title>Node1&#45;&gt;Node9</title>
<g id="a_edge8_Node000001_Node000009"><a xlink:title=" ">
<path fill="none" stroke="#63b8ff" d="M452.25,-109.9C482.93,-100.77 522.71,-88.01 557,-74 574.48,-66.86 576.78,-59.96 595,-55 819.59,6.13 889.37,-51.2 1123.04,-19.05"/>
<polygon fill="#63b8ff" stroke="#63b8ff" points="1123.8,-22.48 1133.21,-17.61 1122.82,-15.55 1123.8,-22.48"/>
</a>
</g>
</g>
<!-- Node10 -->
<g id="Node000010" class="node">
<title>Node10</title>
<g id="a_Node000010"><a xlink:href="../../d2/d6e/vproperty_8h.html" target="_top" xlink:title=" ">
<polygon fill="white" stroke="#666666" points="548,-74 468,-74 468,-55 548,-55 548,-74"/>
<text text-anchor="middle" x="508" y="-62" font-family="Helvetica,sans-Serif" font-size="10.00">../vproperty.h</text>
</a>
</g>
</g>
<!-- Node1&#45;&gt;Node10 -->
<g id="edge9_Node000001_Node000010" class="edge">
<title>Node1&#45;&gt;Node10</title>
<g id="a_edge9_Node000001_Node000010"><a xlink:title=" ">
<path fill="none" stroke="#63b8ff" d="M427.39,-109.99C444.29,-100.66 466.38,-88.47 483.16,-79.21"/>
<polygon fill="#63b8ff" stroke="#63b8ff" points="485.28,-82.04 492.35,-74.14 481.9,-75.91 485.28,-82.04"/>
</a>
</g>
</g>
<!-- Node10&#45;&gt;Node2 -->
<g id="edge10_Node000010_Node000002" class="edge">
<title>Node10&#45;&gt;Node2</title>
<g id="a_edge10_Node000010_Node000002"><a xlink:title=" ">
<path fill="none" stroke="#63b8ff" d="M467.88,-58.87C400.46,-51.06 259.87,-34.71 130.31,-19.15"/>
<polygon fill="#63b8ff" stroke="#63b8ff" points="130.55,-15.66 120.21,-17.94 129.72,-22.61 130.55,-15.66"/>
</a>
</g>
</g>
<!-- Node10&#45;&gt;Node4 -->
<g id="edge14_Node000010_Node000004" class="edge">
<title>Node10&#45;&gt;Node4</title>
<g id="a_edge14_Node000010_Node000004"><a xlink:title=" ">
<path fill="none" stroke="#63b8ff" d="M467.95,-57.35C415.33,-49.22 319.78,-34.32 228.11,-19.16"/>
<polygon fill="#63b8ff" stroke="#63b8ff" points="228.54,-15.69 218.1,-17.51 227.4,-22.59 228.54,-15.69"/>
</a>
</g>
</g>
<!-- Node10&#45;&gt;Node5 -->
<g id="edge15_Node000010_Node000005" class="edge">
<title>Node10&#45;&gt;Node5</title>
<g id="a_edge15_Node000010_Node000005"><a xlink:title=" ">
<path fill="none" stroke="#63b8ff" d="M467.89,-55.05C428.2,-46.65 365.45,-33.27 302.04,-19.21"/>
<polygon fill="#63b8ff" stroke="#63b8ff" points="302.79,-15.79 292.27,-17.04 301.28,-22.62 302.79,-15.79"/>
</a>
</g>
</g>
<!-- Node10&#45;&gt;Node6 -->
<g id="edge17_Node000010_Node000006" class="edge">
<title>Node10&#45;&gt;Node6</title>
<g id="a_edge17_Node000010_Node000006"><a xlink:title=" ">
<path fill="none" stroke="#63b8ff" d="M480.53,-54.98C451.48,-45.98 405.51,-31.73 373.44,-21.8"/>
<polygon fill="#63b8ff" stroke="#63b8ff" points="374.15,-18.35 363.56,-18.73 372.08,-25.04 374.15,-18.35"/>
</a>
</g>
</g>
<!-- Node10&#45;&gt;Node7 -->
<g id="edge20_Node000010_Node000007" class="edge">
<title>Node10&#45;&gt;Node7</title>
<g id="a_edge20_Node000010_Node000007"><a xlink:title=" ">
<path fill="none" stroke="#63b8ff" d="M492.42,-54.98C477.23,-46.69 453.9,-33.94 436.1,-24.22"/>
<polygon fill="#63b8ff" stroke="#63b8ff" points="437.32,-20.89 426.87,-19.17 433.97,-27.04 437.32,-20.89"/>
</a>
</g>
</g>
<!-- Node10&#45;&gt;Node8 -->
<g id="edge21_Node000010_Node000008" class="edge">
<title>Node10&#45;&gt;Node8</title>
<g id="a_edge21_Node000010_Node000008"><a xlink:title=" ">
<path fill="none" stroke="#63b8ff" d="M502.22,-54.75C497.38,-47.42 490.32,-36.73 484.36,-27.7"/>
<polygon fill="#63b8ff" stroke="#63b8ff" points="487.1,-25.5 478.67,-19.09 481.26,-29.36 487.1,-25.5"/>
</a>
</g>
</g>
<!-- Node10&#45;&gt;Node9 -->
<g id="edge22_Node000010_Node000009" class="edge">
<title>Node10&#45;&gt;Node9</title>
<g id="a_edge22_Node000010_Node000009"><a xlink:title=" ">
<path fill="none" stroke="#63b8ff" d="M548.05,-56.77C552.74,-56.11 557.47,-55.5 562,-55 807.93,-27.84 875.03,-53.77 1123.17,-19.05"/>
<polygon fill="#63b8ff" stroke="#63b8ff" points="1123.8,-22.49 1133.21,-17.63 1122.82,-15.56 1123.8,-22.49"/>
</a>
</g>
</g>
<!-- Node11 -->
<g id="Node000011" class="node">
<title>Node11</title>
<g id="a_Node000011"><a xlink:title=" ">
<polygon fill="#e0e0e0" stroke="#999999" points="981.5,-19 850.5,-19 850.5,0 981.5,0 981.5,-19"/>
<text text-anchor="middle" x="916" y="-7" font-family="Helvetica,sans-Serif" font-size="10.00">QAbstractItemDelegate</text>
</a>
</g>
</g>
<!-- Node10&#45;&gt;Node11 -->
<g id="edge11_Node000010_Node000011" class="edge">
<title>Node10&#45;&gt;Node11</title>
<g id="a_edge11_Node000010_Node000011"><a xlink:title=" ">
<path fill="none" stroke="#63b8ff" d="M548.08,-57.05C552.77,-56.34 557.49,-55.64 562,-55 657.72,-41.45 768.31,-27.88 840.05,-19.36"/>
<polygon fill="#63b8ff" stroke="#63b8ff" points="840.83,-22.79 850.35,-18.13 840.01,-15.84 840.83,-22.79"/>
</a>
</g>
</g>
<!-- Node12 -->
<g id="Node000012" class="node">
<title>Node12</title>
<g id="a_Node000012"><a xlink:title=" ">
<polygon fill="#e0e0e0" stroke="#999999" points="1052,-19 1000,-19 1000,0 1052,0 1052,-19"/>
<text text-anchor="middle" x="1026" y="-7" font-family="Helvetica,sans-Serif" font-size="10.00">QEvent</text>
</a>
</g>
</g>
<!-- Node10&#45;&gt;Node12 -->
<g id="edge12_Node000010_Node000012" class="edge">
<title>Node10&#45;&gt;Node12</title>
<g id="a_edge12_Node000010_Node000012"><a xlink:title=" ">
<path fill="none" stroke="#63b8ff" d="M548.06,-56.86C552.75,-56.18 557.48,-55.54 562,-55 748.72,-32.5 800.38,-49.08 989.71,-18.96"/>
<polygon fill="#63b8ff" stroke="#63b8ff" points="990.4,-22.39 999.72,-17.34 989.29,-15.48 990.4,-22.39"/>
</a>
</g>
</g>
<!-- Node13 -->
<g id="Node000013" class="node">
<title>Node13</title>
<g id="a_Node000013"><a xlink:title=" ">
<polygon fill="#e0e0e0" stroke="#999999" points="1115.5,-19 1070.5,-19 1070.5,0 1115.5,0 1115.5,-19"/>
<text text-anchor="middle" x="1093" y="-7" font-family="Helvetica,sans-Serif" font-size="10.00">QMap</text>
</a>
</g>
</g>
<!-- Node10&#45;&gt;Node13 -->
<g id="edge13_Node000010_Node000013" class="edge">
<title>Node10&#45;&gt;Node13</title>
<g id="a_edge13_Node000010_Node000013"><a xlink:title=" ">
<path fill="none" stroke="#63b8ff" d="M548.05,-56.81C552.75,-56.14 557.47,-55.52 562,-55 779.67,-30.06 839.94,-54.95 1060.45,-18.72"/>
<polygon fill="#63b8ff" stroke="#63b8ff" points="1061.1,-22.16 1070.39,-17.07 1059.95,-15.26 1061.1,-22.16"/>
</a>
</g>
</g>
<!-- Node14 -->
<g id="Node000014" class="node">
<title>Node14</title>
<g id="a_Node000014"><a xlink:title=" ">
<polygon fill="#e0e0e0" stroke="#999999" points="598,-19 506,-19 506,0 598,0 598,-19"/>
<text text-anchor="middle" x="552" y="-7" font-family="Helvetica,sans-Serif" font-size="10.00">QSharedPointer</text>
</a>
</g>
</g>
<!-- Node10&#45;&gt;Node14 -->
<g id="edge16_Node000010_Node000014" class="edge">
<title>Node10&#45;&gt;Node14</title>
<g id="a_edge16_Node000010_Node000014"><a xlink:title=" ">
<path fill="none" stroke="#63b8ff" d="M515.27,-54.75C521.54,-47.18 530.79,-36.05 538.43,-26.84"/>
<polygon fill="#63b8ff" stroke="#63b8ff" points="541.17,-29.02 544.87,-19.09 535.79,-24.55 541.17,-29.02"/>
</a>
</g>
</g>
<!-- Node15 -->
<g id="Node000015" class="node">
<title>Node15</title>
<g id="a_Node000015"><a xlink:title=" ">
<polygon fill="#e0e0e0" stroke="#999999" points="686,-19 616,-19 616,0 686,0 686,-19"/>
<text text-anchor="middle" x="651" y="-7" font-family="Helvetica,sans-Serif" font-size="10.00">QStringList</text>
</a>
</g>
</g>
<!-- Node10&#45;&gt;Node15 -->
<g id="edge18_Node000010_Node000015" class="edge">
<title>Node10&#45;&gt;Node15</title>
<g id="a_edge18_Node000010_Node000015"><a xlink:title=" ">
<path fill="none" stroke="#63b8ff" d="M530.98,-54.98C554.5,-46.27 591.29,-32.63 617.94,-22.75"/>
<polygon fill="#63b8ff" stroke="#63b8ff" points="619.45,-25.93 627.61,-19.17 617.01,-19.36 619.45,-25.93"/>
</a>
</g>
</g>
<!-- Node16 -->
<g id="Node000016" class="node">
<title>Node16</title>
<g id="a_Node000016"><a xlink:title=" ">
<polygon fill="#e0e0e0" stroke="#999999" points="832,-19 704,-19 704,0 832,0 832,-19"/>
<text text-anchor="middle" x="768" y="-7" font-family="Helvetica,sans-Serif" font-size="10.00">QStyleOptionViewItem</text>
</a>
</g>
</g>
<!-- Node10&#45;&gt;Node16 -->
<g id="edge19_Node000010_Node000016" class="edge">
<title>Node10&#45;&gt;Node16</title>
<g id="a_edge19_Node000010_Node000016"><a xlink:title=" ">
<path fill="none" stroke="#63b8ff" d="M548.06,-55.33C593.23,-46.13 666.83,-31.12 716.31,-21.04"/>
<polygon fill="#63b8ff" stroke="#63b8ff" points="717.08,-24.45 726.18,-19.03 715.68,-17.59 717.08,-24.45"/>
</a>
</g>
</g>
</g>
</svg>
