<?xml version="1.0" encoding="UTF-8" standalone="no"?>
<!DOCTYPE svg PUBLIC "-//W3C//DTD SVG 1.1//EN"
 "http://www.w3.org/Graphics/SVG/1.1/DTD/svg11.dtd">
<!-- Generated by graphviz version 2.43.0 (0)
 -->
<!-- Title: VMainGraphicsScene Pages: 1 -->
<svg width="268pt" height="618pt"
 viewBox="0.00 0.00 268.00 618.00" xmlns="http://www.w3.org/2000/svg" xmlns:xlink="http://www.w3.org/1999/xlink">
<g id="graph0" class="graph" transform="scale(1 1) rotate(0) translate(4 614)">
<title>VMainGraphicsScene</title>
<!-- Node1 -->
<g id="Node000001" class="node">
<title>Node1</title>
<g id="a_Node000001"><a xlink:title="The VMainGraphicsScene class main scene.">
<polygon fill="#999999" stroke="transparent" points="192.5,-514 35.5,-514 35.5,0 192.5,0 192.5,-514"/>
<text text-anchor="start" x="63" y="-502" font-family="Helvetica,sans-Serif" font-size="10.00">VMainGraphicsScene</text>
<text text-anchor="start" x="42.5" y="-487" font-family="Helvetica,sans-Serif" font-size="10.00">&#45;</text>
<text text-anchor="start" x="53" y="-487" font-family="Helvetica,sans-Serif" font-size="10.00">horScrollBar</text>
<text text-anchor="start" x="42.5" y="-472" font-family="Helvetica,sans-Serif" font-size="10.00">&#45;</text>
<text text-anchor="start" x="53" y="-472" font-family="Helvetica,sans-Serif" font-size="10.00">verScrollBar</text>
<text text-anchor="start" x="42.5" y="-457" font-family="Helvetica,sans-Serif" font-size="10.00">&#45;</text>
<text text-anchor="start" x="53" y="-457" font-family="Helvetica,sans-Serif" font-size="10.00">m_previousTransform</text>
<text text-anchor="start" x="42.5" y="-442" font-family="Helvetica,sans-Serif" font-size="10.00">&#45;</text>
<text text-anchor="start" x="53" y="-442" font-family="Helvetica,sans-Serif" font-size="10.00">m_currentTransform</text>
<text text-anchor="start" x="42.5" y="-427" font-family="Helvetica,sans-Serif" font-size="10.00">&#45;</text>
<text text-anchor="start" x="53" y="-427" font-family="Helvetica,sans-Serif" font-size="10.00">scenePos</text>
<text text-anchor="start" x="40" y="-412" font-family="Helvetica,sans-Serif" font-size="10.00">+</text>
<text text-anchor="start" x="53" y="-412" font-family="Helvetica,sans-Serif" font-size="10.00">VMainGraphicsScene()</text>
<text text-anchor="start" x="40" y="-397" font-family="Helvetica,sans-Serif" font-size="10.00">+</text>
<text text-anchor="start" x="53" y="-397" font-family="Helvetica,sans-Serif" font-size="10.00">VMainGraphicsScene()</text>
<text text-anchor="start" x="40" y="-382" font-family="Helvetica,sans-Serif" font-size="10.00">+</text>
<text text-anchor="start" x="53" y="-382" font-family="Helvetica,sans-Serif" font-size="10.00">getHorScrollBar()</text>
<text text-anchor="start" x="40" y="-367" font-family="Helvetica,sans-Serif" font-size="10.00">+</text>
<text text-anchor="start" x="53" y="-367" font-family="Helvetica,sans-Serif" font-size="10.00">setHorScrollBar()</text>
<text text-anchor="start" x="40" y="-352" font-family="Helvetica,sans-Serif" font-size="10.00">+</text>
<text text-anchor="start" x="53" y="-352" font-family="Helvetica,sans-Serif" font-size="10.00">getVerScrollBar()</text>
<text text-anchor="start" x="40" y="-337" font-family="Helvetica,sans-Serif" font-size="10.00">+</text>
<text text-anchor="start" x="53" y="-337" font-family="Helvetica,sans-Serif" font-size="10.00">setVerScrollBar()</text>
<text text-anchor="start" x="40" y="-322" font-family="Helvetica,sans-Serif" font-size="10.00">+</text>
<text text-anchor="start" x="53" y="-322" font-family="Helvetica,sans-Serif" font-size="10.00">transform()</text>
<text text-anchor="start" x="40" y="-307" font-family="Helvetica,sans-Serif" font-size="10.00">+</text>
<text text-anchor="start" x="53" y="-307" font-family="Helvetica,sans-Serif" font-size="10.00">setCurrentTransform()</text>
<text text-anchor="start" x="40" y="-292" font-family="Helvetica,sans-Serif" font-size="10.00">+</text>
<text text-anchor="start" x="53" y="-292" font-family="Helvetica,sans-Serif" font-size="10.00">swapTransforms()</text>
<text text-anchor="start" x="40" y="-277" font-family="Helvetica,sans-Serif" font-size="10.00">+</text>
<text text-anchor="start" x="53" y="-277" font-family="Helvetica,sans-Serif" font-size="10.00">setToolsDisabled()</text>
<text text-anchor="start" x="40" y="-262" font-family="Helvetica,sans-Serif" font-size="10.00">+</text>
<text text-anchor="start" x="53" y="-262" font-family="Helvetica,sans-Serif" font-size="10.00">getScenePos()</text>
<text text-anchor="start" x="40" y="-247" font-family="Helvetica,sans-Serif" font-size="10.00">+</text>
<text text-anchor="start" x="53" y="-247" font-family="Helvetica,sans-Serif" font-size="10.00">visibleItemsBoundingRect()</text>
<text text-anchor="start" x="40" y="-232" font-family="Helvetica,sans-Serif" font-size="10.00">+</text>
<text text-anchor="start" x="53" y="-232" font-family="Helvetica,sans-Serif" font-size="10.00">initializeOrigins()</text>
<text text-anchor="start" x="40" y="-217" font-family="Helvetica,sans-Serif" font-size="10.00">+</text>
<text text-anchor="start" x="53" y="-217" font-family="Helvetica,sans-Serif" font-size="10.00">setOriginsVisible()</text>
<text text-anchor="start" x="40" y="-202" font-family="Helvetica,sans-Serif" font-size="10.00">+</text>
<text text-anchor="start" x="53" y="-202" font-family="Helvetica,sans-Serif" font-size="10.00">chosenItem()</text>
<text text-anchor="start" x="40" y="-187" font-family="Helvetica,sans-Serif" font-size="10.00">+</text>
<text text-anchor="start" x="53" y="-187" font-family="Helvetica,sans-Serif" font-size="10.00">SelectedItem()</text>
<text text-anchor="start" x="40" y="-172" font-family="Helvetica,sans-Serif" font-size="10.00">+</text>
<text text-anchor="start" x="53" y="-172" font-family="Helvetica,sans-Serif" font-size="10.00">EnableItemMove()</text>
<text text-anchor="start" x="40" y="-157" font-family="Helvetica,sans-Serif" font-size="10.00">+</text>
<text text-anchor="start" x="53" y="-157" font-family="Helvetica,sans-Serif" font-size="10.00">enablePiecesMode()</text>
<text text-anchor="start" x="40" y="-142" font-family="Helvetica,sans-Serif" font-size="10.00">+</text>
<text text-anchor="start" x="53" y="-142" font-family="Helvetica,sans-Serif" font-size="10.00">ItemsSelection()</text>
<text text-anchor="start" x="40" y="-127" font-family="Helvetica,sans-Serif" font-size="10.00">+</text>
<text text-anchor="start" x="53" y="-127" font-family="Helvetica,sans-Serif" font-size="10.00">HighlightItem()</text>
<text text-anchor="start" x="40" y="-112" font-family="Helvetica,sans-Serif" font-size="10.00">+</text>
<text text-anchor="start" x="53" y="-112" font-family="Helvetica,sans-Serif" font-size="10.00">ToggleLabelSelection()</text>
<text text-anchor="start" x="40" y="-97" font-family="Helvetica,sans-Serif" font-size="10.00">+</text>
<text text-anchor="start" x="53" y="-97" font-family="Helvetica,sans-Serif" font-size="10.00">TogglePointSelection()</text>
<text text-anchor="start" x="40" y="-82" font-family="Helvetica,sans-Serif" font-size="10.00">+</text>
<text text-anchor="start" x="53" y="-82" font-family="Helvetica,sans-Serif" font-size="10.00">ToggleLineSelection()</text>
<text text-anchor="start" x="40" y="-67" font-family="Helvetica,sans-Serif" font-size="10.00">+</text>
<text text-anchor="start" x="53" y="-67" font-family="Helvetica,sans-Serif" font-size="10.00">ToggleArcSelection()</text>
<text text-anchor="start" x="53" y="-52" font-family="Helvetica,sans-Serif" font-size="10.00">and 16 more...</text>
<text text-anchor="start" x="40" y="-37" font-family="Helvetica,sans-Serif" font-size="10.00">#</text>
<text text-anchor="start" x="53" y="-37" font-family="Helvetica,sans-Serif" font-size="10.00">mouseMoveEvent()</text>
<text text-anchor="start" x="40" y="-22" font-family="Helvetica,sans-Serif" font-size="10.00">#</text>
<text text-anchor="start" x="53" y="-22" font-family="Helvetica,sans-Serif" font-size="10.00">mousePressEvent()</text>
<text text-anchor="start" x="40" y="-7" font-family="Helvetica,sans-Serif" font-size="10.00">#</text>
<text text-anchor="start" x="53" y="-7" font-family="Helvetica,sans-Serif" font-size="10.00">mouseReleaseEvent()</text>
<polygon fill="#666666" stroke="#666666" points="36,-497 36,-497 193,-497 193,-497 36,-497"/>
<polygon fill="#666666" stroke="#666666" points="36,-422 36,-422 51,-422 51,-422 36,-422"/>
<polygon fill="#666666" stroke="#666666" points="51,-422 51,-422 193,-422 193,-422 51,-422"/>
<polygon fill="none" stroke="#666666" points="35.5,0 35.5,-514 192.5,-514 192.5,0 35.5,0"/>
</a>
</g>
</g>
<!-- Node2 -->
<g id="Node000002" class="node">
<title>Node2</title>
<g id="a_Node000002"><a xlink:title=" ">
<polygon fill="white" stroke="transparent" points="90,-610 0,-610 0,-561 90,-561 90,-610"/>
<text text-anchor="start" x="5" y="-597.5" font-family="Helvetica,sans-Serif" font-size="10.00">QGraphicsScene</text>
<text text-anchor="start" x="43" y="-582.5" font-family="Helvetica,sans-Serif" font-size="10.00"> </text>
<text text-anchor="start" x="43" y="-567.5" font-family="Helvetica,sans-Serif" font-size="10.00"> </text>
<polygon fill="#666666" stroke="#666666" points="0,-592.5 0,-592.5 90,-592.5 90,-592.5 0,-592.5"/>
<polygon fill="#666666" stroke="#666666" points="0,-577.5 0,-577.5 90,-577.5 90,-577.5 0,-577.5"/>
<polygon fill="none" stroke="#666666" points="0,-561 0,-610 90,-610 90,-561 0,-561"/>
</a>
</g>
</g>
<!-- Node2&#45;&gt;Node1 -->
<g id="edge1_Node000001_Node000002" class="edge">
<title>Node2&#45;&gt;Node1</title>
<g id="a_edge1_Node000001_Node000002"><a xlink:title=" ">
<path fill="none" stroke="#63b8ff" d="M52.09,-550.96C54.31,-540.47 56.95,-527.98 59.87,-514.15"/>
<polygon fill="none" stroke="#63b8ff" points="48.66,-550.25 50.02,-560.76 55.51,-551.7 48.66,-550.25"/>
</a>
</g>
</g>
<!-- Node3 -->
<g id="Node000003" class="node">
<title>Node3</title>
<g id="a_Node000003"><a xlink:href="../../d5/dc2/classQVector.html" target="_top" xlink:title=" ">
<polygon fill="white" stroke="transparent" points="260,-610 108,-610 108,-561 260,-561 260,-610"/>
<text text-anchor="start" x="113" y="-597.5" font-family="Helvetica,sans-Serif" font-size="10.00">QVector&lt; QGraphicsItem * &gt;</text>
<text text-anchor="start" x="182" y="-582.5" font-family="Helvetica,sans-Serif" font-size="10.00"> </text>
<text text-anchor="start" x="182" y="-567.5" font-family="Helvetica,sans-Serif" font-size="10.00"> </text>
<polygon fill="#666666" stroke="#666666" points="108,-592.5 108,-592.5 260,-592.5 260,-592.5 108,-592.5"/>
<polygon fill="#666666" stroke="#666666" points="108,-577.5 108,-577.5 260,-577.5 260,-577.5 108,-577.5"/>
<polygon fill="none" stroke="#666666" points="108,-561 108,-610 260,-610 260,-561 108,-561"/>
</a>
</g>
</g>
<!-- Node3&#45;&gt;Node1 -->
<g id="edge2_Node000001_Node000003" class="edge">
<title>Node3&#45;&gt;Node1</title>
<g id="a_edge2_Node000001_Node000003"><a xlink:title=" ">
<path fill="none" stroke="#63b8ff" d="M178.91,-560.76C176.88,-551.3 174.34,-539.42 171.43,-525.89"/>
<polygon fill="none" stroke="#63b8ff" points="171.43,-525.88 166.26,-520.85 168.92,-514.15 174.09,-519.18 171.43,-525.88"/>
</a>
</g>
<text text-anchor="middle" x="193" y="-535" font-family="Helvetica,sans-Serif" font-size="10.00" fill="grey"> &#45;origins</text>
</g>
</g>
</svg>
