<?xml version="1.0" encoding="UTF-8" standalone="no"?>
<!DOCTYPE svg PUBLIC "-//W3C//DTD SVG 1.1//EN"
 "http://www.w3.org/Graphics/SVG/1.1/DTD/svg11.dtd">
<!-- Generated by graphviz version 2.43.0 (0)
 -->
<!-- Title: src/libs/vtools/undocommands/move_groupitem.cpp Pages: 1 -->
<!--zoomable 203 -->

<svg id="main" version="1.1" xmlns="http://www.w3.org/2000/svg" xmlns:xlink="http://www.w3.org/1999/xlink" xml:space="preserve" onload="init(evt)">
<style type="text/css"><![CDATA[
.node, .edge {opacity: 0.7;}
.node.selected, .edge.selected {opacity: 1;}
.edge:hover path { stroke: red; }
.edge:hover polygon { stroke: red; fill: red; }
]]></style>

<defs>
  <circle id="rim" cx="0" cy="0" r="7"/>
  <circle id="rim2" cx="0" cy="0" r="3.5"/>
  <g id="zoomPlus">
    <use xlink:href="#rim" fill="#404040"><set attributeName="fill" to="#808080" begin="zoomplus.mouseover" end="zoomplus.mouseout"/></use>
    <path d="M-4,0h8M0,-4v8" fill="none" stroke="white" stroke-width="1.5" pointer-events="none"/>
  </g>
  <g id="zoomMin">
    <use xlink:href="#rim" fill="#404040"><set attributeName="fill" to="#808080" begin="zoomminus.mouseover" end="zoomminus.mouseout"/></use>
    <path d="M-4,0h8" fill="none" stroke="white" stroke-width="1.5" pointer-events="none"/>
  </g>
  <g id="arrowUp" transform="translate(30 24)">
    <use xlink:href="#rim"/>
    <path pointer-events="none" fill="none" stroke="white" stroke-width="1.5" d="M0,-3.0v7 M-2.5,-0.5L0,-3.0L2.5,-0.5"/>
  </g>
  <g id="arrowRight" transform="rotate(90) translate(36 -43)">
    <use xlink:href="#rim"/>
    <path pointer-events="none" fill="none" stroke="white" stroke-width="1.5" d="M0,-3.0v7 M-2.5,-0.5L0,-3.0L2.5,-0.5"/>
  </g>
  <g id="arrowDown" transform="rotate(180) translate(-30 -48)">
    <use xlink:href="#rim"/>
    <path pointer-events="none" fill="none" stroke="white" stroke-width="1.5" d="M0,-3.0v7 M-2.5,-0.5L0,-3.0L2.5,-0.5"/>
  </g>
  <g id="arrowLeft" transform="rotate(270) translate(-36 17)">
    <use xlink:href="#rim"/>
    <path pointer-events="none" fill="none" stroke="white" stroke-width="1.5" d="M0,-3.0v7 M-2.5,-0.5L0,-3.0L2.5,-0.5"/>
  </g>
  <g id="resetDef">
    <use xlink:href="#rim2" fill="#404040"><set attributeName="fill" to="#808080" begin="reset.mouseover" end="reset.mouseout"/></use>
  </g>
</defs>
<script type="application/ecmascript">
var viewWidth = 1729;
var viewHeight = 203;
var sectionId = 'dynsection-0';
</script>
<script type="application/ecmascript" xlink:href="../../svg.min.js"/>
<svg id="graph" class="graph">
<g id="viewport">
<title>src/libs/vtools/undocommands/move_groupitem.cpp</title>
<!-- Node1 -->
<g id="Node000001" class="node">
<title>Node1</title>
<g id="a_Node000001"><a xlink:title=" ">
<polygon fill="#999999" stroke="#666666" points="1118.5,-195 953.5,-195 953.5,-165 1118.5,-165 1118.5,-195"/>
<text text-anchor="start" x="961.5" y="-183" font-family="Helvetica,sans-Serif" font-size="10.00">src/libs/vtools/undocommands</text>
<text text-anchor="middle" x="1036" y="-172" font-family="Helvetica,sans-Serif" font-size="10.00">/move_groupitem.cpp</text>
</a>
</g>
</g>
<!-- Node2 -->
<g id="Node000002" class="node">
<title>Node2</title>
<g id="a_Node000002"><a xlink:href="../../de/dde/move__groupitem_8h.html" target="_top" xlink:title=" ">
<polygon fill="white" stroke="#666666" points="582.5,-129 473.5,-129 473.5,-110 582.5,-110 582.5,-129"/>
<text text-anchor="middle" x="528" y="-117" font-family="Helvetica,sans-Serif" font-size="10.00">move_groupitem.h</text>
</a>
</g>
</g>
<!-- Node1&#45;&gt;Node2 -->
<g id="edge1_Node000001_Node000002" class="edge">
<title>Node1&#45;&gt;Node2</title>
<g id="a_edge1_Node000001_Node000002"><a xlink:title=" ">
<path fill="none" stroke="#63b8ff" d="M953.25,-169.47C852.44,-157.86 684.27,-138.5 592.53,-127.93"/>
<polygon fill="#63b8ff" stroke="#63b8ff" points="592.87,-124.45 582.54,-126.78 592.07,-131.4 592.87,-124.45"/>
</a>
</g>
</g>
<!-- Node12 -->
<g id="Node000012" class="node">
<title>Node12</title>
<g id="a_Node000012"><a xlink:title=" ">
<polygon fill="#e0e0e0" stroke="#999999" points="909,-19 757,-19 757,0 909,0 909,-19"/>
<text text-anchor="middle" x="833" y="-7" font-family="Helvetica,sans-Serif" font-size="10.00">../ifc/xml/vabstractpattern.h</text>
</a>
</g>
</g>
<!-- Node1&#45;&gt;Node12 -->
<g id="edge25_Node000001_Node000012" class="edge">
<title>Node1&#45;&gt;Node12</title>
<g id="a_edge25_Node000001_Node000012"><a xlink:title=" ">
<path fill="none" stroke="#63b8ff" d="M953.35,-167.2C926.94,-159.91 899.32,-148.1 879,-129 850.28,-102.01 839.25,-55.01 835.2,-29.06"/>
<polygon fill="#63b8ff" stroke="#63b8ff" points="838.65,-28.48 833.82,-19.05 831.72,-29.43 838.65,-28.48"/>
</a>
</g>
</g>
<!-- Node13 -->
<g id="Node000013" class="node">
<title>Node13</title>
<g id="a_Node000013"><a xlink:title=" ">
<polygon fill="#e0e0e0" stroke="#999999" points="1030.5,-19 927.5,-19 927.5,0 1030.5,0 1030.5,-19"/>
<text text-anchor="middle" x="979" y="-7" font-family="Helvetica,sans-Serif" font-size="10.00">../vmisc/logging.h</text>
</a>
</g>
</g>
<!-- Node1&#45;&gt;Node13 -->
<g id="edge21_Node000001_Node000013" class="edge">
<title>Node1&#45;&gt;Node13</title>
<g id="a_edge21_Node000001_Node000013"><a xlink:title=" ">
<path fill="none" stroke="#63b8ff" d="M953.34,-169.23C928.97,-162.06 904.88,-149.82 890,-129 862.54,-90.57 920.24,-46.31 955.08,-24.35"/>
<polygon fill="#63b8ff" stroke="#63b8ff" points="957.09,-27.23 963.79,-19.02 953.44,-21.25 957.09,-27.23"/>
</a>
</g>
</g>
<!-- Node14 -->
<g id="Node000014" class="node">
<title>Node14</title>
<g id="a_Node000014"><a xlink:title=" ">
<polygon fill="#e0e0e0" stroke="#999999" points="972.5,-129 899.5,-129 899.5,-110 972.5,-110 972.5,-129"/>
<text text-anchor="middle" x="936" y="-117" font-family="Helvetica,sans-Serif" font-size="10.00">QDomNode</text>
</a>
</g>
</g>
<!-- Node1&#45;&gt;Node14 -->
<g id="edge19_Node000001_Node000014" class="edge">
<title>Node1&#45;&gt;Node14</title>
<g id="a_edge19_Node000001_Node000014"><a xlink:title=" ">
<path fill="none" stroke="#63b8ff" d="M1012.05,-164.99C996.11,-155.66 975.27,-143.47 959.44,-134.21"/>
<polygon fill="#63b8ff" stroke="#63b8ff" points="961.17,-131.17 950.77,-129.14 957.63,-137.21 961.17,-131.17"/>
</a>
</g>
</g>
<!-- Node15 -->
<g id="Node000015" class="node">
<title>Node15</title>
<g id="a_Node000015"><a xlink:title=" ">
<polygon fill="#e0e0e0" stroke="#999999" points="1081,-129 991,-129 991,-110 1081,-110 1081,-129"/>
<text text-anchor="middle" x="1036" y="-117" font-family="Helvetica,sans-Serif" font-size="10.00">QDomNodeList</text>
</a>
</g>
</g>
<!-- Node1&#45;&gt;Node15 -->
<g id="edge20_Node000001_Node000015" class="edge">
<title>Node1&#45;&gt;Node15</title>
<g id="a_edge20_Node000001_Node000015"><a xlink:title=" ">
<path fill="none" stroke="#63b8ff" d="M1036,-164.84C1036,-157.21 1036,-147.7 1036,-139.45"/>
<polygon fill="#63b8ff" stroke="#63b8ff" points="1039.5,-139.27 1036,-129.27 1032.5,-139.27 1039.5,-139.27"/>
</a>
</g>
</g>
<!-- Node16 -->
<g id="Node000016" class="node">
<title>Node16</title>
<g id="a_Node000016"><a xlink:title=" ">
<polygon fill="#e0e0e0" stroke="#999999" points="1266.5,-129 1099.5,-129 1099.5,-110 1266.5,-110 1266.5,-129"/>
<text text-anchor="middle" x="1183" y="-117" font-family="Helvetica,sans-Serif" font-size="10.00">../vmisc/vabstractapplication.h</text>
</a>
</g>
</g>
<!-- Node1&#45;&gt;Node16 -->
<g id="edge22_Node000001_Node000016" class="edge">
<title>Node1&#45;&gt;Node16</title>
<g id="a_edge22_Node000001_Node000016"><a xlink:title=" ">
<path fill="none" stroke="#63b8ff" d="M1071.21,-164.99C1095.74,-155.23 1128.15,-142.33 1151.76,-132.93"/>
<polygon fill="#63b8ff" stroke="#63b8ff" points="1153.29,-136.09 1161.29,-129.14 1150.71,-129.58 1153.29,-136.09"/>
</a>
</g>
</g>
<!-- Node17 -->
<g id="Node000017" class="node">
<title>Node17</title>
<g id="a_Node000017"><a xlink:title=" ">
<polygon fill="#e0e0e0" stroke="#999999" points="1367,-129 1285,-129 1285,-110 1367,-110 1367,-129"/>
<text text-anchor="middle" x="1326" y="-117" font-family="Helvetica,sans-Serif" font-size="10.00">../vmisc/def.h</text>
</a>
</g>
</g>
<!-- Node1&#45;&gt;Node17 -->
<g id="edge23_Node000001_Node000017" class="edge">
<title>Node1&#45;&gt;Node17</title>
<g id="a_edge23_Node000001_Node000017"><a xlink:title=" ">
<path fill="none" stroke="#63b8ff" d="M1105.46,-164.99C1157.6,-154.47 1227.82,-140.3 1274.89,-130.81"/>
<polygon fill="#63b8ff" stroke="#63b8ff" points="1275.75,-134.21 1284.86,-128.8 1274.37,-127.35 1275.75,-134.21"/>
</a>
</g>
</g>
<!-- Node18 -->
<g id="Node000018" class="node">
<title>Node18</title>
<g id="a_Node000018"><a xlink:title=" ">
<polygon fill="#e0e0e0" stroke="#999999" points="1561,-129 1385,-129 1385,-110 1561,-110 1561,-129"/>
<text text-anchor="middle" x="1473" y="-117" font-family="Helvetica,sans-Serif" font-size="10.00">../vwidgets/vmaingraphicsview.h</text>
</a>
</g>
</g>
<!-- Node1&#45;&gt;Node18 -->
<g id="edge24_Node000001_Node000018" class="edge">
<title>Node1&#45;&gt;Node18</title>
<g id="a_edge24_Node000001_Node000018"><a xlink:title=" ">
<path fill="none" stroke="#63b8ff" d="M1118.71,-167.93C1199.58,-157.1 1321.57,-140.77 1399.23,-130.38"/>
<polygon fill="#63b8ff" stroke="#63b8ff" points="1399.97,-133.81 1409.41,-129.01 1399.04,-126.87 1399.97,-133.81"/>
</a>
</g>
</g>
<!-- Node19 -->
<g id="Node000019" class="node">
<title>Node19</title>
<g id="a_Node000019"><a xlink:title=" ">
<polygon fill="#e0e0e0" stroke="#999999" points="1720.5,-129 1579.5,-129 1579.5,-110 1720.5,-110 1720.5,-129"/>
<text text-anchor="middle" x="1650" y="-117" font-family="Helvetica,sans-Serif" font-size="10.00">../vtools/tools/vdatatool.h</text>
</a>
</g>
</g>
<!-- Node1&#45;&gt;Node19 -->
<g id="edge26_Node000001_Node000019" class="edge">
<title>Node1&#45;&gt;Node19</title>
<g id="a_edge26_Node000001_Node000019"><a xlink:title=" ">
<path fill="none" stroke="#63b8ff" d="M1118.82,-171.57C1221.67,-162.27 1402.79,-145.65 1568.92,-129.1"/>
<polygon fill="#63b8ff" stroke="#63b8ff" points="1569.73,-132.53 1579.33,-128.06 1569.04,-125.57 1569.73,-132.53"/>
</a>
</g>
</g>
<!-- Node3 -->
<g id="Node000003" class="node">
<title>Node3</title>
<g id="a_Node000003"><a xlink:title=" ">
<polygon fill="#e0e0e0" stroke="#999999" points="120,-19 0,-19 0,0 120,0 120,-19"/>
<text text-anchor="middle" x="60" y="-7" font-family="Helvetica,sans-Serif" font-size="10.00">qcompilerdetection.h</text>
</a>
</g>
</g>
<!-- Node2&#45;&gt;Node3 -->
<g id="edge2_Node000002_Node000003" class="edge">
<title>Node2&#45;&gt;Node3</title>
<g id="a_edge2_Node000002_Node000003"><a xlink:title=" ">
<path fill="none" stroke="#63b8ff" d="M487.89,-109.95C446.9,-101.15 381.44,-86.95 325,-74 247.4,-56.2 157.31,-34.36 104.69,-21.49"/>
<polygon fill="#63b8ff" stroke="#63b8ff" points="105.22,-18.01 94.68,-19.04 103.56,-24.81 105.22,-18.01"/>
</a>
</g>
</g>
<!-- Node4 -->
<g id="Node000004" class="node">
<title>Node4</title>
<g id="a_Node000004"><a xlink:title=" ">
<polygon fill="#e0e0e0" stroke="#999999" points="226,-19 138,-19 138,0 226,0 226,-19"/>
<text text-anchor="middle" x="182" y="-7" font-family="Helvetica,sans-Serif" font-size="10.00">QDomElement</text>
</a>
</g>
</g>
<!-- Node2&#45;&gt;Node4 -->
<g id="edge3_Node000002_Node000004" class="edge">
<title>Node2&#45;&gt;Node4</title>
<g id="a_edge3_Node000002_Node000004"><a xlink:title=" ">
<path fill="none" stroke="#63b8ff" d="M500.11,-109.93C471.1,-100.99 424.34,-86.58 384,-74 326.25,-56 259.28,-34.9 218.8,-22.13"/>
<polygon fill="#63b8ff" stroke="#63b8ff" points="219.7,-18.74 209.11,-19.07 217.59,-25.41 219.7,-18.74"/>
</a>
</g>
</g>
<!-- Node5 -->
<g id="Node000005" class="node">
<title>Node5</title>
<g id="a_Node000005"><a xlink:title=" ">
<polygon fill="#e0e0e0" stroke="#999999" points="324,-19 244,-19 244,0 324,0 324,-19"/>
<text text-anchor="middle" x="284" y="-7" font-family="Helvetica,sans-Serif" font-size="10.00">QMetaObject</text>
</a>
</g>
</g>
<!-- Node2&#45;&gt;Node5 -->
<g id="edge4_Node000002_Node000005" class="edge">
<title>Node2&#45;&gt;Node5</title>
<g id="a_edge4_Node000002_Node000005"><a xlink:title=" ">
<path fill="none" stroke="#63b8ff" d="M508.63,-109.99C488.29,-101.04 455.39,-86.56 427,-74 387.44,-56.5 341.77,-36.21 312.9,-23.36"/>
<polygon fill="#63b8ff" stroke="#63b8ff" points="313.98,-20.01 303.42,-19.15 311.13,-26.41 313.98,-20.01"/>
</a>
</g>
</g>
<!-- Node6 -->
<g id="Node000006" class="node">
<title>Node6</title>
<g id="a_Node000006"><a xlink:title=" ">
<polygon fill="#e0e0e0" stroke="#999999" points="590,-19 534,-19 534,0 590,0 590,-19"/>
<text text-anchor="middle" x="562" y="-7" font-family="Helvetica,sans-Serif" font-size="10.00">QObject</text>
</a>
</g>
</g>
<!-- Node2&#45;&gt;Node6 -->
<g id="edge5_Node000002_Node000006" class="edge">
<title>Node2&#45;&gt;Node6</title>
<g id="a_edge5_Node000002_Node000006"><a xlink:title=" ">
<path fill="none" stroke="#63b8ff" d="M532.82,-109.89C537.56,-101.11 544.68,-86.97 549,-74 553.89,-59.3 557.28,-42.05 559.37,-29.24"/>
<polygon fill="#63b8ff" stroke="#63b8ff" points="562.84,-29.71 560.88,-19.3 555.92,-28.66 562.84,-29.71"/>
</a>
</g>
</g>
<!-- Node7 -->
<g id="Node000007" class="node">
<title>Node7</title>
<g id="a_Node000007"><a xlink:title=" ">
<polygon fill="#e0e0e0" stroke="#999999" points="661.5,-19 608.5,-19 608.5,0 661.5,0 661.5,-19"/>
<text text-anchor="middle" x="635" y="-7" font-family="Helvetica,sans-Serif" font-size="10.00">QString</text>
</a>
</g>
</g>
<!-- Node2&#45;&gt;Node7 -->
<g id="edge6_Node000002_Node000007" class="edge">
<title>Node2&#45;&gt;Node7</title>
<g id="a_edge6_Node000002_Node000007"><a xlink:title=" ">
<path fill="none" stroke="#63b8ff" d="M536.76,-109.66C554.79,-91.46 596.31,-49.55 619.18,-26.47"/>
<polygon fill="#63b8ff" stroke="#63b8ff" points="621.87,-28.73 626.42,-19.16 616.9,-23.8 621.87,-28.73"/>
</a>
</g>
</g>
<!-- Node8 -->
<g id="Node000008" class="node">
<title>Node8</title>
<g id="a_Node000008"><a xlink:title=" ">
<polygon fill="#e0e0e0" stroke="#999999" points="738.5,-19 679.5,-19 679.5,0 738.5,0 738.5,-19"/>
<text text-anchor="middle" x="709" y="-7" font-family="Helvetica,sans-Serif" font-size="10.00">QtGlobal</text>
</a>
</g>
</g>
<!-- Node2&#45;&gt;Node8 -->
<g id="edge7_Node000002_Node000008" class="edge">
<title>Node2&#45;&gt;Node8</title>
<g id="a_edge7_Node000002_Node000008"><a xlink:title=" ">
<path fill="none" stroke="#63b8ff" d="M542.51,-109.84C573.83,-91.16 648,-46.9 685.88,-24.3"/>
<polygon fill="#63b8ff" stroke="#63b8ff" points="687.88,-27.18 694.68,-19.05 684.3,-21.17 687.88,-27.18"/>
</a>
</g>
</g>
<!-- Node9 -->
<g id="Node000009" class="node">
<title>Node9</title>
<g id="a_Node000009"><a xlink:href="../../d6/dbe/vundocommand_8h.html" target="_top" xlink:title=" ">
<polygon fill="white" stroke="#666666" points="540,-74 436,-74 436,-55 540,-55 540,-74"/>
<text text-anchor="middle" x="488" y="-62" font-family="Helvetica,sans-Serif" font-size="10.00">vundocommand.h</text>
</a>
</g>
</g>
<!-- Node2&#45;&gt;Node9 -->
<g id="edge8_Node000002_Node000009" class="edge">
<title>Node2&#45;&gt;Node9</title>
<g id="a_edge8_Node000002_Node000009"><a xlink:title=" ">
<path fill="none" stroke="#63b8ff" d="M521.39,-109.75C515.74,-102.26 507.46,-91.28 500.55,-82.13"/>
<polygon fill="#63b8ff" stroke="#63b8ff" points="503.3,-79.96 494.48,-74.09 497.71,-84.18 503.3,-79.96"/>
</a>
</g>
</g>
<!-- Node9&#45;&gt;Node3 -->
<g id="edge9_Node000009_Node000003" class="edge">
<title>Node9&#45;&gt;Node3</title>
<g id="a_edge9_Node000009_Node000003"><a xlink:title=" ">
<path fill="none" stroke="#63b8ff" d="M435.95,-57.05C359.41,-47.58 216.33,-29.86 130.46,-19.23"/>
<polygon fill="#63b8ff" stroke="#63b8ff" points="130.64,-15.72 120.28,-17.96 129.78,-22.67 130.64,-15.72"/>
</a>
</g>
</g>
<!-- Node9&#45;&gt;Node4 -->
<g id="edge10_Node000009_Node000004" class="edge">
<title>Node9&#45;&gt;Node4</title>
<g id="a_edge10_Node000009_Node000004"><a xlink:title=" ">
<path fill="none" stroke="#63b8ff" d="M438.84,-54.98C383.37,-45.38 293.44,-29.8 236.05,-19.86"/>
<polygon fill="#63b8ff" stroke="#63b8ff" points="236.53,-16.39 226.08,-18.13 235.33,-23.29 236.53,-16.39"/>
</a>
</g>
</g>
<!-- Node9&#45;&gt;Node5 -->
<g id="edge11_Node000009_Node000005" class="edge">
<title>Node9&#45;&gt;Node5</title>
<g id="a_edge11_Node000009_Node000005"><a xlink:title=" ">
<path fill="none" stroke="#63b8ff" d="M455.22,-54.98C420.38,-45.93 365.13,-31.58 326.86,-21.64"/>
<polygon fill="#63b8ff" stroke="#63b8ff" points="327.59,-18.21 317.03,-19.08 325.83,-24.98 327.59,-18.21"/>
</a>
</g>
</g>
<!-- Node9&#45;&gt;Node6 -->
<g id="edge12_Node000009_Node000006" class="edge">
<title>Node9&#45;&gt;Node6</title>
<g id="a_edge12_Node000009_Node000006"><a xlink:title=" ">
<path fill="none" stroke="#63b8ff" d="M499.89,-54.98C511.15,-46.92 528.29,-34.65 541.71,-25.03"/>
<polygon fill="#63b8ff" stroke="#63b8ff" points="543.8,-27.84 549.89,-19.17 539.73,-22.15 543.8,-27.84"/>
</a>
</g>
</g>
<!-- Node9&#45;&gt;Node7 -->
<g id="edge13_Node000009_Node000007" class="edge">
<title>Node9&#45;&gt;Node7</title>
<g id="a_edge13_Node000009_Node000007"><a xlink:title=" ">
<path fill="none" stroke="#63b8ff" d="M511.62,-54.98C535.9,-46.23 573.95,-32.51 601.37,-22.62"/>
<polygon fill="#63b8ff" stroke="#63b8ff" points="602.73,-25.85 610.95,-19.17 600.36,-19.27 602.73,-25.85"/>
</a>
</g>
</g>
<!-- Node9&#45;&gt;Node8 -->
<g id="edge16_Node000009_Node000008" class="edge">
<title>Node9&#45;&gt;Node8</title>
<g id="a_edge16_Node000009_Node000008"><a xlink:title=" ">
<path fill="none" stroke="#63b8ff" d="M523.51,-54.98C563.41,-45.42 628.02,-29.92 669.49,-19.98"/>
<polygon fill="#63b8ff" stroke="#63b8ff" points="670.34,-23.37 679.25,-17.63 668.71,-16.56 670.34,-23.37"/>
</a>
</g>
</g>
<!-- Node10 -->
<g id="Node000010" class="node">
<title>Node10</title>
<g id="a_Node000010"><a xlink:title=" ">
<polygon fill="#e0e0e0" stroke="#999999" points="442,-19 342,-19 342,0 442,0 442,-19"/>
<text text-anchor="middle" x="392" y="-7" font-family="Helvetica,sans-Serif" font-size="10.00">QUndoCommand</text>
</a>
</g>
</g>
<!-- Node9&#45;&gt;Node10 -->
<g id="edge14_Node000009_Node000010" class="edge">
<title>Node9&#45;&gt;Node10</title>
<g id="a_edge14_Node000009_Node000010"><a xlink:title=" ">
<path fill="none" stroke="#63b8ff" d="M472.58,-54.98C457.55,-46.69 434.46,-33.94 416.84,-24.22"/>
<polygon fill="#63b8ff" stroke="#63b8ff" points="418.15,-20.94 407.7,-19.17 414.77,-27.07 418.15,-20.94"/>
</a>
</g>
</g>
<!-- Node11 -->
<g id="Node000011" class="node">
<title>Node11</title>
<g id="a_Node000011"><a xlink:title=" ">
<polygon fill="#e0e0e0" stroke="#999999" points="515.5,-19 460.5,-19 460.5,0 515.5,0 515.5,-19"/>
<text text-anchor="middle" x="488" y="-7" font-family="Helvetica,sans-Serif" font-size="10.00">QVector</text>
</a>
</g>
</g>
<!-- Node9&#45;&gt;Node11 -->
<g id="edge15_Node000009_Node000011" class="edge">
<title>Node9&#45;&gt;Node11</title>
<g id="a_edge15_Node000009_Node000011"><a xlink:title=" ">
<path fill="none" stroke="#63b8ff" d="M488,-54.75C488,-47.8 488,-37.85 488,-29.13"/>
<polygon fill="#63b8ff" stroke="#63b8ff" points="491.5,-29.09 488,-19.09 484.5,-29.09 491.5,-29.09"/>
</a>
</g>
</g>
<!-- Node9&#45;&gt;Node12 -->
<g id="edge17_Node000009_Node000012" class="edge">
<title>Node9&#45;&gt;Node12</title>
<g id="a_edge17_Node000009_Node000012"><a xlink:title=" ">
<path fill="none" stroke="#63b8ff" d="M540.02,-55.51C600.81,-46.17 701.46,-30.71 767.51,-20.56"/>
<polygon fill="#63b8ff" stroke="#63b8ff" points="768.05,-24.02 777.4,-19.04 766.99,-17.1 768.05,-24.02"/>
</a>
</g>
</g>
<!-- Node9&#45;&gt;Node13 -->
<g id="edge18_Node000009_Node000013" class="edge">
<title>Node9&#45;&gt;Node13</title>
<g id="a_edge18_Node000009_Node000013"><a xlink:title=" ">
<path fill="none" stroke="#63b8ff" d="M540.03,-58.71C619.05,-51.31 774.34,-36.25 917.17,-19.06"/>
<polygon fill="#63b8ff" stroke="#63b8ff" points="917.93,-22.49 927.43,-17.82 917.08,-15.54 917.93,-22.49"/>
</a>
</g>
</g>
</g>
</svg>

<g id="navigator" transform="translate(0 0)" fill="#404254">
  <rect fill="#f2f5e9" fill-opacity="0.5" stroke="#606060" stroke-width=".5" x="0" y="0" width="60" height="60"/>
  <use id="zoomplus" xlink:href="#zoomPlus" x="17" y="9" onmousedown="handleZoom(evt,'in')"/>
  <use id="zoomminus" xlink:href="#zoomMin" x="42" y="9" onmousedown="handleZoom(evt,'out')"/>
  <use id="reset" xlink:href="#resetDef" x="30" y="36" onmousedown="handleReset()"/>
   <use id="arrowup" xlink:href="#arrowUp" x="0" y="0" onmousedown="handlePan(0,-1)"/>
  <use id="arrowright" xlink:href="#arrowRight" x="0" y="0" onmousedown="handlePan(1,0)"/>
  <use id="arrowdown" xlink:href="#arrowDown" x="0" y="0" onmousedown="handlePan(0,1)"/>
  <use id="arrowleft" xlink:href="#arrowLeft" x="0" y="0" onmousedown="handlePan(-1,0)"/>
</g>
<svg viewBox="0 0 15 15" width="100%" height="30px" preserveAspectRatio="xMaxYMin meet">
 <g id="arrow_out" transform="scale(0.3 0.3)">
  <a xlink:href="move__groupitem_8cpp__incl_org.svg" target="_base">
   <rect id="button" ry="5" rx="5" y="6" x="6" height="38" width="38"
        fill="#f2f5e9" fill-opacity="0.5" stroke="#606060" stroke-width="1.0"/>
   <path id="arrow"
     d="M 11.500037,31.436501 C 11.940474,20.09759 22.043105,11.32322 32.158766,21.979434 L 37.068811,17.246167 C 37.068811,17.246167 37.088388,32 37.088388,32 L 22.160133,31.978069 C 22.160133,31.978069 26.997745,27.140456 26.997745,27.140456 C 18.528582,18.264221 13.291696,25.230495 11.500037,31.436501 z"
     style="fill:#404040;"/>
  </a>
 </g>
</svg>

<style type='text/css'>
<![CDATA[
[data-mouse-over-selected='false'] { opacity: 0.7; }
[data-mouse-over-selected='true']  { opacity: 1.0; }
]]>
</style>
<script type="application/ecmascript"><![CDATA[
document.addEventListener('DOMContentLoaded', (event) => {
  highlightEdges();
  highlightAdjacentNodes();
});
]]></script>
</svg>
