<?xml version="1.0" encoding="UTF-8" standalone="no"?>
<!DOCTYPE svg PUBLIC "-//W3C//DTD SVG 1.1//EN"
 "http://www.w3.org/Graphics/SVG/1.1/DTD/svg11.dtd">
<!-- Generated by graphviz version 2.43.0 (0)
 -->
<!-- Title: src/libs/vtools/visualization/path/vispath.cpp Pages: 1 -->
<svg width="2285pt" height="258pt"
 viewBox="0.00 0.00 2285.00 258.00" xmlns="http://www.w3.org/2000/svg" xmlns:xlink="http://www.w3.org/1999/xlink">
<g id="graph0" class="graph" transform="scale(1 1) rotate(0) translate(4 254)">
<title>src/libs/vtools/visualization/path/vispath.cpp</title>
<!-- Node1 -->
<g id="Node000001" class="node">
<title>Node1</title>
<g id="a_Node000001"><a xlink:title=" ">
<polygon fill="#999999" stroke="#666666" points="1928.5,-250 1779.5,-250 1779.5,-220 1928.5,-220 1928.5,-250"/>
<text text-anchor="start" x="1787.5" y="-238" font-family="Helvetica,sans-Serif" font-size="10.00">src/libs/vtools/visualization</text>
<text text-anchor="middle" x="1854" y="-227" font-family="Helvetica,sans-Serif" font-size="10.00">/path/vispath.cpp</text>
</a>
</g>
</g>
<!-- Node2 -->
<g id="Node000002" class="node">
<title>Node2</title>
<g id="a_Node000002"><a xlink:href="../../d7/d91/vispath_8h.html" target="_top" xlink:title=" ">
<polygon fill="white" stroke="#666666" points="398,-184 336,-184 336,-165 398,-165 398,-184"/>
<text text-anchor="middle" x="367" y="-172" font-family="Helvetica,sans-Serif" font-size="10.00">vispath.h</text>
</a>
</g>
</g>
<!-- Node1&#45;&gt;Node2 -->
<g id="edge1_Node000001_Node000002" class="edge">
<title>Node1&#45;&gt;Node2</title>
<g id="a_edge1_Node000001_Node000002"><a xlink:title=" ">
<path fill="none" stroke="#63b8ff" d="M1779.5,-231.07C1513.1,-220.59 612.78,-185.17 408.47,-177.13"/>
<polygon fill="#63b8ff" stroke="#63b8ff" points="408.31,-173.62 398.18,-176.73 408.04,-180.62 408.31,-173.62"/>
</a>
</g>
</g>
<!-- Node9 -->
<g id="Node000009" class="node">
<title>Node9</title>
<g id="a_Node000009"><a xlink:href="../../d2/d02/visualization_8h.html" target="_top" xlink:title=" ">
<polygon fill="white" stroke="#666666" points="943.5,-129 846.5,-129 846.5,-110 943.5,-110 943.5,-129"/>
<text text-anchor="middle" x="895" y="-117" font-family="Helvetica,sans-Serif" font-size="10.00">../visualization.h</text>
</a>
</g>
</g>
<!-- Node1&#45;&gt;Node9 -->
<g id="edge29_Node000001_Node000009" class="edge">
<title>Node1&#45;&gt;Node9</title>
<g id="a_edge29_Node000001_Node000009"><a xlink:title=" ">
<path fill="none" stroke="#63b8ff" d="M1779.15,-225.14C1594.46,-203.28 1119.97,-147.13 953.66,-127.44"/>
<polygon fill="#63b8ff" stroke="#63b8ff" points="953.97,-123.95 943.62,-126.25 953.14,-130.91 953.97,-123.95"/>
</a>
</g>
</g>
<!-- Node16 -->
<g id="Node000016" class="node">
<title>Node16</title>
<g id="a_Node000016"><a xlink:title=" ">
<polygon fill="#e0e0e0" stroke="#999999" points="1943.5,-74 1776.5,-74 1776.5,-55 1943.5,-55 1943.5,-74"/>
<text text-anchor="middle" x="1860" y="-62" font-family="Helvetica,sans-Serif" font-size="10.00">../vmisc/vabstractapplication.h</text>
</a>
</g>
</g>
<!-- Node1&#45;&gt;Node16 -->
<g id="edge31_Node000001_Node000016" class="edge">
<title>Node1&#45;&gt;Node16</title>
<g id="a_edge31_Node000001_Node000016"><a xlink:title=" ">
<path fill="none" stroke="#63b8ff" d="M1834.71,-219.63C1824.37,-210.68 1812.62,-198.18 1807,-184 1803.89,-176.15 1804.95,-173.19 1807,-165 1814.82,-133.67 1834.58,-101.39 1847.64,-82.4"/>
<polygon fill="#63b8ff" stroke="#63b8ff" points="1850.51,-84.4 1853.43,-74.21 1844.8,-80.36 1850.51,-84.4"/>
</a>
</g>
</g>
<!-- Node21 -->
<g id="Node000021" class="node">
<title>Node21</title>
<g id="a_Node000021"><a xlink:title=" ">
<polygon fill="#e0e0e0" stroke="#999999" points="1892.5,-184 1815.5,-184 1815.5,-165 1892.5,-165 1892.5,-184"/>
<text text-anchor="middle" x="1854" y="-172" font-family="Helvetica,sans-Serif" font-size="10.00">../ifc/ifcdef.h</text>
</a>
</g>
</g>
<!-- Node1&#45;&gt;Node21 -->
<g id="edge30_Node000001_Node000021" class="edge">
<title>Node1&#45;&gt;Node21</title>
<g id="a_edge30_Node000001_Node000021"><a xlink:title=" ">
<path fill="none" stroke="#63b8ff" d="M1854,-219.84C1854,-212.21 1854,-202.7 1854,-194.45"/>
<polygon fill="#63b8ff" stroke="#63b8ff" points="1857.5,-194.27 1854,-184.27 1850.5,-194.27 1857.5,-194.27"/>
</a>
</g>
</g>
<!-- Node22 -->
<g id="Node000022" class="node">
<title>Node22</title>
<g id="a_Node000022"><a xlink:title=" ">
<polygon fill="#e0e0e0" stroke="#999999" points="2053,-184 1911,-184 1911,-165 2053,-165 2053,-184"/>
<text text-anchor="middle" x="1982" y="-172" font-family="Helvetica,sans-Serif" font-size="10.00">../vpatterndb/vcontainer.h</text>
</a>
</g>
</g>
<!-- Node1&#45;&gt;Node22 -->
<g id="edge32_Node000001_Node000022" class="edge">
<title>Node1&#45;&gt;Node22</title>
<g id="a_edge32_Node000001_Node000022"><a xlink:title=" ">
<path fill="none" stroke="#63b8ff" d="M1884.66,-219.99C1905.73,-210.36 1933.49,-197.67 1953.97,-188.31"/>
<polygon fill="#63b8ff" stroke="#63b8ff" points="1955.46,-191.48 1963.1,-184.14 1952.55,-185.11 1955.46,-191.48"/>
</a>
</g>
</g>
<!-- Node23 -->
<g id="Node000023" class="node">
<title>Node23</title>
<g id="a_Node000023"><a xlink:title=" ">
<polygon fill="#e0e0e0" stroke="#999999" points="2217,-184 2071,-184 2071,-165 2217,-165 2217,-184"/>
<text text-anchor="middle" x="2144" y="-172" font-family="Helvetica,sans-Serif" font-size="10.00">../vwidgets/vsimplepoint.h</text>
</a>
</g>
</g>
<!-- Node1&#45;&gt;Node23 -->
<g id="edge33_Node000001_Node000023" class="edge">
<title>Node1&#45;&gt;Node23</title>
<g id="a_edge33_Node000001_Node000023"><a xlink:title=" ">
<path fill="none" stroke="#63b8ff" d="M1923.46,-219.99C1975.14,-209.56 2044.56,-195.56 2091.62,-186.07"/>
<polygon fill="#63b8ff" stroke="#63b8ff" points="2092.49,-189.46 2101.6,-184.05 2091.1,-182.6 2092.49,-189.46"/>
</a>
</g>
</g>
<!-- Node24 -->
<g id="Node000024" class="node">
<title>Node24</title>
<g id="a_Node000024"><a xlink:title=" ">
<polygon fill="#e0e0e0" stroke="#999999" points="2277,-184 2235,-184 2235,-165 2277,-165 2277,-184"/>
<text text-anchor="middle" x="2256" y="-172" font-family="Helvetica,sans-Serif" font-size="10.00">QPen</text>
</a>
</g>
</g>
<!-- Node1&#45;&gt;Node24 -->
<g id="edge34_Node000001_Node000024" class="edge">
<title>Node1&#45;&gt;Node24</title>
<g id="a_edge34_Node000001_Node000024"><a xlink:title=" ">
<path fill="none" stroke="#63b8ff" d="M1928.64,-227.13C2001.84,-219.67 2116.71,-206.06 2224.7,-184.01"/>
<polygon fill="#63b8ff" stroke="#63b8ff" points="2225.71,-187.37 2234.79,-181.91 2224.29,-180.52 2225.71,-187.37"/>
</a>
</g>
</g>
<!-- Node3 -->
<g id="Node000003" class="node">
<title>Node3</title>
<g id="a_Node000003"><a xlink:title=" ">
<polygon fill="#e0e0e0" stroke="#999999" points="368,-74 248,-74 248,-55 368,-55 368,-74"/>
<text text-anchor="middle" x="308" y="-62" font-family="Helvetica,sans-Serif" font-size="10.00">qcompilerdetection.h</text>
</a>
</g>
</g>
<!-- Node2&#45;&gt;Node3 -->
<g id="edge2_Node000002_Node000003" class="edge">
<title>Node2&#45;&gt;Node3</title>
<g id="a_edge2_Node000002_Node000003"><a xlink:title=" ">
<path fill="none" stroke="#63b8ff" d="M362.17,-164.66C352.44,-146.85 330.32,-106.37 317.56,-83.01"/>
<polygon fill="#63b8ff" stroke="#63b8ff" points="320.6,-81.26 312.73,-74.16 314.45,-84.61 320.6,-81.26"/>
</a>
</g>
</g>
<!-- Node4 -->
<g id="Node000004" class="node">
<title>Node4</title>
<g id="a_Node000004"><a xlink:title=" ">
<polygon fill="#e0e0e0" stroke="#999999" points="652.5,-74 563.5,-74 563.5,-55 652.5,-55 652.5,-74"/>
<text text-anchor="middle" x="608" y="-62" font-family="Helvetica,sans-Serif" font-size="10.00">QGraphicsItem</text>
</a>
</g>
</g>
<!-- Node2&#45;&gt;Node4 -->
<g id="edge3_Node000002_Node000004" class="edge">
<title>Node2&#45;&gt;Node4</title>
<g id="a_edge3_Node000002_Node000004"><a xlink:title=" ">
<path fill="none" stroke="#63b8ff" d="M386.31,-164.84C428.72,-145.84 530.15,-100.39 579.73,-78.17"/>
<polygon fill="#63b8ff" stroke="#63b8ff" points="581.23,-81.33 588.93,-74.05 578.37,-74.94 581.23,-81.33"/>
</a>
</g>
</g>
<!-- Node5 -->
<g id="Node000005" class="node">
<title>Node5</title>
<g id="a_Node000005"><a xlink:title=" ">
<polygon fill="#e0e0e0" stroke="#999999" points="80,-129 0,-129 0,-110 80,-110 80,-129"/>
<text text-anchor="middle" x="40" y="-117" font-family="Helvetica,sans-Serif" font-size="10.00">QMetaObject</text>
</a>
</g>
</g>
<!-- Node2&#45;&gt;Node5 -->
<g id="edge4_Node000002_Node000005" class="edge">
<title>Node2&#45;&gt;Node5</title>
<g id="a_edge4_Node000002_Node000005"><a xlink:title=" ">
<path fill="none" stroke="#63b8ff" d="M335.94,-168.47C279.3,-159.29 158.78,-139.75 90.3,-128.65"/>
<polygon fill="#63b8ff" stroke="#63b8ff" points="90.61,-125.16 80.18,-127.01 89.49,-132.07 90.61,-125.16"/>
</a>
</g>
</g>
<!-- Node6 -->
<g id="Node000006" class="node">
<title>Node6</title>
<g id="a_Node000006"><a xlink:title=" ">
<polygon fill="#e0e0e0" stroke="#999999" points="192,-74 136,-74 136,-55 192,-55 192,-74"/>
<text text-anchor="middle" x="164" y="-62" font-family="Helvetica,sans-Serif" font-size="10.00">QObject</text>
</a>
</g>
</g>
<!-- Node2&#45;&gt;Node6 -->
<g id="edge5_Node000002_Node000006" class="edge">
<title>Node2&#45;&gt;Node6</title>
<g id="a_edge5_Node000002_Node000006"><a xlink:title=" ">
<path fill="none" stroke="#63b8ff" d="M335.74,-171.35C301.08,-167.6 244.95,-157.28 206,-129 190.16,-117.5 178.6,-98.06 171.66,-83.71"/>
<polygon fill="#63b8ff" stroke="#63b8ff" points="174.74,-82.02 167.43,-74.35 168.36,-84.91 174.74,-82.02"/>
</a>
</g>
</g>
<!-- Node7 -->
<g id="Node000007" class="node">
<title>Node7</title>
<g id="a_Node000007"><a xlink:title=" ">
<polygon fill="#e0e0e0" stroke="#999999" points="383.5,-19 330.5,-19 330.5,0 383.5,0 383.5,-19"/>
<text text-anchor="middle" x="357" y="-7" font-family="Helvetica,sans-Serif" font-size="10.00">QString</text>
</a>
</g>
</g>
<!-- Node2&#45;&gt;Node7 -->
<g id="edge6_Node000002_Node000007" class="edge">
<title>Node2&#45;&gt;Node7</title>
<g id="a_edge6_Node000002_Node000007"><a xlink:title=" ">
<path fill="none" stroke="#63b8ff" d="M335.86,-170.12C258.14,-160.5 66.15,-128.75 127,-55 151.06,-25.84 261.49,-15.56 320.15,-12.12"/>
<polygon fill="#63b8ff" stroke="#63b8ff" points="320.67,-15.6 330.46,-11.56 320.29,-8.61 320.67,-15.6"/>
</a>
</g>
</g>
<!-- Node8 -->
<g id="Node000008" class="node">
<title>Node8</title>
<g id="a_Node000008"><a xlink:title=" ">
<polygon fill="#e0e0e0" stroke="#999999" points="663.5,-19 604.5,-19 604.5,0 663.5,0 663.5,-19"/>
<text text-anchor="middle" x="634" y="-7" font-family="Helvetica,sans-Serif" font-size="10.00">QtGlobal</text>
</a>
</g>
</g>
<!-- Node2&#45;&gt;Node8 -->
<g id="edge7_Node000002_Node000008" class="edge">
<title>Node2&#45;&gt;Node8</title>
<g id="a_edge7_Node000002_Node000008"><a xlink:title=" ">
<path fill="none" stroke="#63b8ff" d="M344.11,-164.89C297.47,-146.15 199.05,-99.71 239,-55 262.41,-28.81 498.47,-16.13 594.09,-12.04"/>
<polygon fill="#63b8ff" stroke="#63b8ff" points="594.39,-15.53 604.24,-11.61 594.1,-8.53 594.39,-15.53"/>
</a>
</g>
</g>
<!-- Node2&#45;&gt;Node9 -->
<g id="edge8_Node000002_Node000009" class="edge">
<title>Node2&#45;&gt;Node9</title>
<g id="a_edge8_Node000002_Node000009"><a xlink:title=" ">
<path fill="none" stroke="#63b8ff" d="M398.06,-170.38C483.7,-161.79 724.25,-137.64 836.25,-126.4"/>
<polygon fill="#63b8ff" stroke="#63b8ff" points="836.76,-129.86 846.36,-125.38 836.06,-122.9 836.76,-129.86"/>
</a>
</g>
</g>
<!-- Node13 -->
<g id="Node000013" class="node">
<title>Node13</title>
<g id="a_Node000013"><a xlink:title=" ">
<polygon fill="#e0e0e0" stroke="#999999" points="982,-19 900,-19 900,0 982,0 982,-19"/>
<text text-anchor="middle" x="941" y="-7" font-family="Helvetica,sans-Serif" font-size="10.00">../vmisc/def.h</text>
</a>
</g>
</g>
<!-- Node2&#45;&gt;Node13 -->
<g id="edge27_Node000002_Node000013" class="edge">
<title>Node2&#45;&gt;Node13</title>
<g id="a_edge27_Node000002_Node000013"><a xlink:title=" ">
<path fill="none" stroke="#63b8ff" d="M398.22,-173.7C593.01,-174.62 1636.3,-174.79 1730,-74 1735.75,-67.82 1735.8,-61.14 1730,-55 1704.62,-28.14 1163,-14.97 992.15,-11.47"/>
<polygon fill="#63b8ff" stroke="#63b8ff" points="992.22,-7.97 982.15,-11.27 992.08,-14.97 992.22,-7.97"/>
</a>
</g>
</g>
<!-- Node19 -->
<g id="Node000019" class="node">
<title>Node19</title>
<g id="a_Node000019"><a xlink:title=" ">
<polygon fill="#e0e0e0" stroke="#999999" points="545.5,-74 386.5,-74 386.5,-55 545.5,-55 545.5,-74"/>
<text text-anchor="middle" x="466" y="-62" font-family="Helvetica,sans-Serif" font-size="10.00">../vwidgets/vcurvepathitem.h</text>
</a>
</g>
</g>
<!-- Node2&#45;&gt;Node19 -->
<g id="edge28_Node000002_Node000019" class="edge">
<title>Node2&#45;&gt;Node19</title>
<g id="a_edge28_Node000002_Node000019"><a xlink:title=" ">
<path fill="none" stroke="#63b8ff" d="M375.1,-164.66C391.72,-146.54 429.87,-104.91 451.09,-81.77"/>
<polygon fill="#63b8ff" stroke="#63b8ff" points="453.89,-83.89 458.06,-74.16 448.73,-79.16 453.89,-83.89"/>
</a>
</g>
</g>
<!-- Node9&#45;&gt;Node3 -->
<g id="edge23_Node000009_Node000003" class="edge">
<title>Node9&#45;&gt;Node3</title>
<g id="a_edge23_Node000009_Node000003"><a xlink:title=" ">
<path fill="none" stroke="#63b8ff" d="M846.38,-114.92C756.26,-108.17 556.94,-92.61 378.3,-74.1"/>
<polygon fill="#63b8ff" stroke="#63b8ff" points="378.5,-70.6 368.2,-73.05 377.78,-77.57 378.5,-70.6"/>
</a>
</g>
</g>
<!-- Node9&#45;&gt;Node4 -->
<g id="edge24_Node000009_Node000004" class="edge">
<title>Node9&#45;&gt;Node4</title>
<g id="a_edge24_Node000009_Node000004"><a xlink:title=" ">
<path fill="none" stroke="#63b8ff" d="M848.89,-109.98C798.13,-100.61 716.58,-85.55 662.65,-75.59"/>
<polygon fill="#63b8ff" stroke="#63b8ff" points="663.05,-72.11 652.58,-73.73 661.78,-78.99 663.05,-72.11"/>
</a>
</g>
</g>
<!-- Node9&#45;&gt;Node6 -->
<g id="edge25_Node000009_Node000006" class="edge">
<title>Node9&#45;&gt;Node6</title>
<g id="a_edge25_Node000009_Node000006"><a xlink:title=" ">
<path fill="none" stroke="#63b8ff" d="M846.39,-115.95C737.5,-110.09 465.8,-94.53 239,-74 226.99,-72.91 213.92,-71.51 202.11,-70.16"/>
<polygon fill="#63b8ff" stroke="#63b8ff" points="202.44,-66.67 192.11,-68.99 201.63,-73.62 202.44,-66.67"/>
</a>
</g>
</g>
<!-- Node9&#45;&gt;Node8 -->
<g id="edge26_Node000009_Node000008" class="edge">
<title>Node9&#45;&gt;Node8</title>
<g id="a_edge26_Node000009_Node000008"><a xlink:title=" ">
<path fill="none" stroke="#63b8ff" d="M846.37,-114.71C805.29,-109.85 745.98,-98.84 700,-74 678.68,-62.49 659.36,-42.18 647.21,-27.63"/>
<polygon fill="#63b8ff" stroke="#63b8ff" points="649.61,-25.04 640.62,-19.44 644.16,-29.43 649.61,-25.04"/>
</a>
</g>
</g>
<!-- Node10 -->
<g id="Node000010" class="node">
<title>Node10</title>
<g id="a_Node000010"><a xlink:href="../../d4/df4/vinternalvariable_8h.html" target="_top" xlink:title=" ">
<polygon fill="white" stroke="#666666" points="866.5,-74 709.5,-74 709.5,-55 866.5,-55 866.5,-74"/>
<text text-anchor="middle" x="788" y="-62" font-family="Helvetica,sans-Serif" font-size="10.00">variables/vinternalvariable.h</text>
</a>
</g>
</g>
<!-- Node9&#45;&gt;Node10 -->
<g id="edge9_Node000009_Node000010" class="edge">
<title>Node9&#45;&gt;Node10</title>
<g id="a_edge9_Node000009_Node000010"><a xlink:title=" ">
<path fill="none" stroke="#63b8ff" d="M877.81,-109.98C860.75,-101.54 834.37,-88.47 814.6,-78.68"/>
<polygon fill="#63b8ff" stroke="#63b8ff" points="816.02,-75.47 805.5,-74.17 812.91,-81.75 816.02,-75.47"/>
</a>
</g>
</g>
<!-- Node9&#45;&gt;Node13 -->
<g id="edge16_Node000009_Node000013" class="edge">
<title>Node9&#45;&gt;Node13</title>
<g id="a_edge16_Node000009_Node000013"><a xlink:title=" ">
<path fill="none" stroke="#63b8ff" d="M896.9,-109.62C899.75,-97.11 905.68,-73.72 914,-55 918.22,-45.5 924.1,-35.56 929.29,-27.48"/>
<polygon fill="#63b8ff" stroke="#63b8ff" points="932.31,-29.27 934.93,-19.01 926.48,-25.39 932.31,-29.27"/>
</a>
</g>
</g>
<!-- Node14 -->
<g id="Node000014" class="node">
<title>Node14</title>
<g id="a_Node000014"><a xlink:title=" ">
<polygon fill="#e0e0e0" stroke="#999999" points="1087,-74 923,-74 923,-55 1087,-55 1087,-74"/>
<text text-anchor="middle" x="1005" y="-62" font-family="Helvetica,sans-Serif" font-size="10.00">../vgeometry/vabstractcurve.h</text>
</a>
</g>
</g>
<!-- Node9&#45;&gt;Node14 -->
<g id="edge15_Node000009_Node000014" class="edge">
<title>Node9&#45;&gt;Node14</title>
<g id="a_edge15_Node000009_Node000014"><a xlink:title=" ">
<path fill="none" stroke="#63b8ff" d="M912.67,-109.98C930.29,-101.5 957.58,-88.35 977.93,-78.54"/>
<polygon fill="#63b8ff" stroke="#63b8ff" points="979.52,-81.66 987.01,-74.17 976.48,-75.36 979.52,-81.66"/>
</a>
</g>
</g>
<!-- Node15 -->
<g id="Node000015" class="node">
<title>Node15</title>
<g id="a_Node000015"><a xlink:title=" ">
<polygon fill="#e0e0e0" stroke="#999999" points="1208.5,-74 1105.5,-74 1105.5,-55 1208.5,-55 1208.5,-74"/>
<text text-anchor="middle" x="1157" y="-62" font-family="Helvetica,sans-Serif" font-size="10.00">../vmisc/logging.h</text>
</a>
</g>
</g>
<!-- Node9&#45;&gt;Node15 -->
<g id="edge17_Node000009_Node000015" class="edge">
<title>Node9&#45;&gt;Node15</title>
<g id="a_edge17_Node000009_Node000015"><a xlink:title=" ">
<path fill="none" stroke="#63b8ff" d="M937.09,-109.98C982.7,-100.76 1055.52,-86.03 1104.75,-76.07"/>
<polygon fill="#63b8ff" stroke="#63b8ff" points="1105.47,-79.5 1114.58,-74.08 1104.08,-72.63 1105.47,-79.5"/>
</a>
</g>
</g>
<!-- Node9&#45;&gt;Node16 -->
<g id="edge18_Node000009_Node000016" class="edge">
<title>Node9&#45;&gt;Node16</title>
<g id="a_edge18_Node000009_Node000016"><a xlink:title=" ">
<path fill="none" stroke="#63b8ff" d="M943.95,-116.1C1072.71,-109.73 1431.47,-91.71 1730,-74 1741.73,-73.3 1754.05,-72.54 1766.25,-71.77"/>
<polygon fill="#63b8ff" stroke="#63b8ff" points="1766.68,-75.24 1776.44,-71.11 1766.24,-68.26 1766.68,-75.24"/>
</a>
</g>
</g>
<!-- Node17 -->
<g id="Node000017" class="node">
<title>Node17</title>
<g id="a_Node000017"><a xlink:title=" ">
<polygon fill="#e0e0e0" stroke="#999999" points="1339,-74 1227,-74 1227,-55 1339,-55 1339,-74"/>
<text text-anchor="middle" x="1283" y="-62" font-family="Helvetica,sans-Serif" font-size="10.00">../vwidgets/global.h</text>
</a>
</g>
</g>
<!-- Node9&#45;&gt;Node17 -->
<g id="edge19_Node000009_Node000017" class="edge">
<title>Node9&#45;&gt;Node17</title>
<g id="a_edge19_Node000009_Node000017"><a xlink:title=" ">
<path fill="none" stroke="#63b8ff" d="M943.75,-111.84C1012.8,-102.41 1139.3,-85.13 1216.79,-74.54"/>
<polygon fill="#63b8ff" stroke="#63b8ff" points="1217.49,-77.98 1226.93,-73.16 1216.54,-71.05 1217.49,-77.98"/>
</a>
</g>
</g>
<!-- Node18 -->
<g id="Node000018" class="node">
<title>Node18</title>
<g id="a_Node000018"><a xlink:title=" ">
<polygon fill="#e0e0e0" stroke="#999999" points="1521,-74 1357,-74 1357,-55 1521,-55 1521,-74"/>
<text text-anchor="middle" x="1439" y="-62" font-family="Helvetica,sans-Serif" font-size="10.00">../vwidgets/scalesceneitems.h</text>
</a>
</g>
</g>
<!-- Node9&#45;&gt;Node18 -->
<g id="edge20_Node000009_Node000018" class="edge">
<title>Node9&#45;&gt;Node18</title>
<g id="a_edge20_Node000009_Node000018"><a xlink:title=" ">
<path fill="none" stroke="#63b8ff" d="M943.76,-113.75C1034.47,-104.91 1230.53,-85.81 1346.91,-74.47"/>
<polygon fill="#63b8ff" stroke="#63b8ff" points="1347.27,-77.95 1356.88,-73.5 1346.59,-70.99 1347.27,-77.95"/>
</a>
</g>
</g>
<!-- Node9&#45;&gt;Node19 -->
<g id="edge21_Node000009_Node000019" class="edge">
<title>Node9&#45;&gt;Node19</title>
<g id="a_edge21_Node000009_Node000019"><a xlink:title=" ">
<path fill="none" stroke="#63b8ff" d="M846.21,-112.47C772.72,-103.39 632.9,-86.12 544.83,-75.24"/>
<polygon fill="#63b8ff" stroke="#63b8ff" points="545.24,-71.76 534.89,-74.01 544.38,-78.71 545.24,-71.76"/>
</a>
</g>
</g>
<!-- Node20 -->
<g id="Node000020" class="node">
<title>Node20</title>
<g id="a_Node000020"><a xlink:title=" ">
<polygon fill="#e0e0e0" stroke="#999999" points="1721,-74 1539,-74 1539,-55 1721,-55 1721,-74"/>
<text text-anchor="middle" x="1630" y="-62" font-family="Helvetica,sans-Serif" font-size="10.00">../vwidgets/vmaingraphicsscene.h</text>
</a>
</g>
</g>
<!-- Node9&#45;&gt;Node20 -->
<g id="edge22_Node000009_Node000020" class="edge">
<title>Node9&#45;&gt;Node20</title>
<g id="a_edge22_Node000009_Node000020"><a xlink:title=" ">
<path fill="none" stroke="#63b8ff" d="M943.61,-115.34C1048.41,-108.47 1303.66,-91.47 1528.96,-74.07"/>
<polygon fill="#63b8ff" stroke="#63b8ff" points="1529.29,-77.56 1538.99,-73.29 1528.75,-70.58 1529.29,-77.56"/>
</a>
</g>
</g>
<!-- Node10&#45;&gt;Node7 -->
<g id="edge11_Node000010_Node000007" class="edge">
<title>Node10&#45;&gt;Node7</title>
<g id="a_edge11_Node000010_Node000007"><a xlink:title=" ">
<path fill="none" stroke="#63b8ff" d="M718.75,-54.98C626.22,-43.61 465.56,-23.85 393.64,-15.01"/>
<polygon fill="#63b8ff" stroke="#63b8ff" points="394.05,-11.53 383.7,-13.78 393.19,-18.48 394.05,-11.53"/>
</a>
</g>
</g>
<!-- Node10&#45;&gt;Node8 -->
<g id="edge13_Node000010_Node000008" class="edge">
<title>Node10&#45;&gt;Node8</title>
<g id="a_edge13_Node000010_Node000008"><a xlink:title=" ">
<path fill="none" stroke="#63b8ff" d="M763.26,-54.98C737.63,-46.16 697.37,-32.31 668.59,-22.41"/>
<polygon fill="#63b8ff" stroke="#63b8ff" points="669.53,-19.03 658.94,-19.08 667.25,-25.65 669.53,-19.03"/>
</a>
</g>
</g>
<!-- Node11 -->
<g id="Node000011" class="node">
<title>Node11</title>
<g id="a_Node000011"><a xlink:title=" ">
<polygon fill="#e0e0e0" stroke="#999999" points="798,-19 682,-19 682,0 798,0 798,-19"/>
<text text-anchor="middle" x="740" y="-7" font-family="Helvetica,sans-Serif" font-size="10.00">QSharedDataPointer</text>
</a>
</g>
</g>
<!-- Node10&#45;&gt;Node11 -->
<g id="edge10_Node000010_Node000011" class="edge">
<title>Node10&#45;&gt;Node11</title>
<g id="a_edge10_Node000010_Node000011"><a xlink:title=" ">
<path fill="none" stroke="#63b8ff" d="M780.07,-54.75C773.15,-47.11 762.93,-35.82 754.55,-26.56"/>
<polygon fill="#63b8ff" stroke="#63b8ff" points="757.09,-24.15 747.78,-19.09 751.9,-28.85 757.09,-24.15"/>
</a>
</g>
</g>
<!-- Node12 -->
<g id="Node000012" class="node">
<title>Node12</title>
<g id="a_Node000012"><a xlink:title=" ">
<polygon fill="#e0e0e0" stroke="#999999" points="881.5,-19 816.5,-19 816.5,0 881.5,0 881.5,-19"/>
<text text-anchor="middle" x="849" y="-7" font-family="Helvetica,sans-Serif" font-size="10.00">QTypeInfo</text>
</a>
</g>
</g>
<!-- Node10&#45;&gt;Node12 -->
<g id="edge12_Node000010_Node000012" class="edge">
<title>Node10&#45;&gt;Node12</title>
<g id="a_edge12_Node000010_Node000012"><a xlink:title=" ">
<path fill="none" stroke="#63b8ff" d="M797.8,-54.98C806.82,-47.15 820.41,-35.34 831.32,-25.86"/>
<polygon fill="#63b8ff" stroke="#63b8ff" points="833.77,-28.37 839.02,-19.17 829.18,-23.09 833.77,-28.37"/>
</a>
</g>
</g>
<!-- Node10&#45;&gt;Node13 -->
<g id="edge14_Node000010_Node000013" class="edge">
<title>Node10&#45;&gt;Node13</title>
<g id="a_edge14_Node000010_Node000013"><a xlink:title=" ">
<path fill="none" stroke="#63b8ff" d="M812.58,-54.98C838.05,-46.16 878.04,-32.31 906.63,-22.41"/>
<polygon fill="#63b8ff" stroke="#63b8ff" points="907.92,-25.66 916.23,-19.08 905.63,-19.05 907.92,-25.66"/>
</a>
</g>
</g>
</g>
</svg>
