<?xml version="1.0" encoding="UTF-8" standalone="no"?>
<!DOCTYPE svg PUBLIC "-//W3C//DTD SVG 1.1//EN"
 "http://www.w3.org/Graphics/SVG/1.1/DTD/svg11.dtd">
<!-- Generated by graphviz version 2.43.0 (0)
 -->
<!-- Title: src/libs/vmisc/legacy_data_archive.cpp Pages: 1 -->
<svg width="1162pt" height="148pt"
 viewBox="0.00 0.00 1162.00 148.00" xmlns="http://www.w3.org/2000/svg" xmlns:xlink="http://www.w3.org/1999/xlink">
<g id="graph0" class="graph" transform="scale(1 1) rotate(0) translate(4 144)">
<title>src/libs/vmisc/legacy_data_archive.cpp</title>
<!-- Node1 -->
<g id="node1" class="node">
<title>Node1</title>
<g id="a_node1"><a xlink:title=" ">
<polygon fill="#999999" stroke="#666666" points="598.5,-140 479.5,-140 479.5,-110 598.5,-110 598.5,-140"/>
<text text-anchor="start" x="487.5" y="-128" font-family="Helvetica,sans-Serif" font-size="10.00">src/libs/vmisc/legacy</text>
<text text-anchor="middle" x="539" y="-117" font-family="Helvetica,sans-Serif" font-size="10.00">_data_archive.cpp</text>
</a>
</g>
</g>
<!-- Node2 -->
<g id="node2" class="node">
<title>Node2</title>
<g id="a_node2"><a xlink:href="../../dd/dca/legacy__data__archive_8h.html" target="_top" xlink:title=" ">
<polygon fill="white" stroke="#666666" points="126,-74 0,-74 0,-55 126,-55 126,-74"/>
<text text-anchor="middle" x="63" y="-62" font-family="Helvetica,sans-Serif" font-size="10.00">legacy_data_archive.h</text>
</a>
</g>
</g>
<!-- Node1&#45;&gt;Node2 -->
<g id="edge1" class="edge">
<title>Node1&#45;&gt;Node2</title>
<path fill="none" stroke="#63b8ff" d="M479.2,-116.65C392.1,-105.95 230.53,-86.09 136.36,-74.52"/>
<polygon fill="#63b8ff" stroke="#63b8ff" points="136.7,-71.03 126.34,-73.28 135.84,-77.98 136.7,-71.03"/>
</g>
<!-- Node4 -->
<g id="node4" class="node">
<title>Node4</title>
<g id="a_node4"><a xlink:title=" ">
<polygon fill="#e0e0e0" stroke="#999999" points="261.5,-74 144.5,-74 144.5,-55 261.5,-55 261.5,-74"/>
<text text-anchor="middle" x="203" y="-62" font-family="Helvetica,sans-Serif" font-size="10.00">QCryptographicHash</text>
</a>
</g>
</g>
<!-- Node1&#45;&gt;Node4 -->
<g id="edge3" class="edge">
<title>Node1&#45;&gt;Node4</title>
<path fill="none" stroke="#63b8ff" d="M479.32,-113.61C417.96,-102.93 322.99,-86.39 261.91,-75.76"/>
<polygon fill="#63b8ff" stroke="#63b8ff" points="262.49,-72.3 252.04,-74.04 261.29,-79.2 262.49,-72.3"/>
</g>
<!-- Node5 -->
<g id="node5" class="node">
<title>Node5</title>
<g id="a_node5"><a xlink:title=" ">
<polygon fill="#e0e0e0" stroke="#999999" points="352,-74 280,-74 280,-55 352,-55 352,-74"/>
<text text-anchor="middle" x="316" y="-62" font-family="Helvetica,sans-Serif" font-size="10.00">QDateTime</text>
</a>
</g>
</g>
<!-- Node1&#45;&gt;Node5 -->
<g id="edge4" class="edge">
<title>Node1&#45;&gt;Node5</title>
<path fill="none" stroke="#63b8ff" d="M485.59,-109.99C446.6,-99.76 394.47,-86.09 358.35,-76.61"/>
<polygon fill="#63b8ff" stroke="#63b8ff" points="359.17,-73.21 348.61,-74.05 357.39,-79.98 359.17,-73.21"/>
</g>
<!-- Node6 -->
<g id="node6" class="node">
<title>Node6</title>
<g id="a_node6"><a xlink:title=" ">
<polygon fill="#e0e0e0" stroke="#999999" points="408,-74 370,-74 370,-55 408,-55 408,-74"/>
<text text-anchor="middle" x="389" y="-62" font-family="Helvetica,sans-Serif" font-size="10.00">QDir</text>
</a>
</g>
</g>
<!-- Node1&#45;&gt;Node6 -->
<g id="edge5" class="edge">
<title>Node1&#45;&gt;Node6</title>
<path fill="none" stroke="#63b8ff" d="M503.07,-109.99C476.87,-99.77 441.83,-86.1 417.54,-76.63"/>
<polygon fill="#63b8ff" stroke="#63b8ff" points="418.74,-73.34 408.15,-72.97 416.2,-79.86 418.74,-73.34"/>
</g>
<!-- Node7 -->
<g id="node7" class="node">
<title>Node7</title>
<g id="a_node7"><a xlink:title=" ">
<polygon fill="#e0e0e0" stroke="#999999" points="500,-74 426,-74 426,-55 500,-55 500,-74"/>
<text text-anchor="middle" x="463" y="-62" font-family="Helvetica,sans-Serif" font-size="10.00">QDirIterator</text>
</a>
</g>
</g>
<!-- Node1&#45;&gt;Node7 -->
<g id="edge6" class="edge">
<title>Node1&#45;&gt;Node7</title>
<path fill="none" stroke="#63b8ff" d="M520.6,-109.84C509.12,-101 494.35,-89.63 482.64,-80.62"/>
<polygon fill="#63b8ff" stroke="#63b8ff" points="484.45,-77.59 474.39,-74.27 480.18,-83.14 484.45,-77.59"/>
</g>
<!-- Node8 -->
<g id="node8" class="node">
<title>Node8</title>
<g id="a_node8"><a xlink:title=" ">
<polygon fill="#e0e0e0" stroke="#999999" points="559.5,-74 518.5,-74 518.5,-55 559.5,-55 559.5,-74"/>
<text text-anchor="middle" x="539" y="-62" font-family="Helvetica,sans-Serif" font-size="10.00">QFile</text>
</a>
</g>
</g>
<!-- Node1&#45;&gt;Node8 -->
<g id="edge7" class="edge">
<title>Node1&#45;&gt;Node8</title>
<path fill="none" stroke="#63b8ff" d="M539,-109.84C539,-102.21 539,-92.7 539,-84.45"/>
<polygon fill="#63b8ff" stroke="#63b8ff" points="542.5,-84.27 539,-74.27 535.5,-84.27 542.5,-84.27"/>
</g>
<!-- Node9 -->
<g id="node9" class="node">
<title>Node9</title>
<g id="a_node9"><a xlink:title=" ">
<polygon fill="#e0e0e0" stroke="#999999" points="638,-74 578,-74 578,-55 638,-55 638,-74"/>
<text text-anchor="middle" x="608" y="-62" font-family="Helvetica,sans-Serif" font-size="10.00">QFileInfo</text>
</a>
</g>
</g>
<!-- Node1&#45;&gt;Node9 -->
<g id="edge8" class="edge">
<title>Node1&#45;&gt;Node9</title>
<path fill="none" stroke="#63b8ff" d="M555.7,-109.84C566.03,-101.09 579.28,-89.85 589.86,-80.88"/>
<polygon fill="#63b8ff" stroke="#63b8ff" points="592.3,-83.4 597.66,-74.27 587.77,-78.06 592.3,-83.4"/>
</g>
<!-- Node10 -->
<g id="node10" class="node">
<title>Node10</title>
<g id="a_node10"><a xlink:title=" ">
<polygon fill="#e0e0e0" stroke="#999999" points="705.5,-74 656.5,-74 656.5,-55 705.5,-55 705.5,-74"/>
<text text-anchor="middle" x="681" y="-62" font-family="Helvetica,sans-Serif" font-size="10.00">QHash</text>
</a>
</g>
</g>
<!-- Node1&#45;&gt;Node10 -->
<g id="edge9" class="edge">
<title>Node1&#45;&gt;Node10</title>
<path fill="none" stroke="#63b8ff" d="M573.01,-109.99C596.6,-100.27 627.74,-87.44 650.52,-78.06"/>
<polygon fill="#63b8ff" stroke="#63b8ff" points="652.12,-81.18 660.03,-74.14 649.45,-74.71 652.12,-81.18"/>
</g>
<!-- Node11 -->
<g id="node11" class="node">
<title>Node11</title>
<g id="a_node11"><a xlink:title=" ">
<polygon fill="#e0e0e0" stroke="#999999" points="794,-74 724,-74 724,-55 794,-55 794,-74"/>
<text text-anchor="middle" x="759" y="-62" font-family="Helvetica,sans-Serif" font-size="10.00">QStringList</text>
</a>
</g>
</g>
<!-- Node1&#45;&gt;Node11 -->
<g id="edge10" class="edge">
<title>Node1&#45;&gt;Node11</title>
<path fill="none" stroke="#63b8ff" d="M591.7,-109.99C629.99,-99.8 681.14,-86.2 716.77,-76.73"/>
<polygon fill="#63b8ff" stroke="#63b8ff" points="718.07,-80.01 726.83,-74.05 716.27,-73.24 718.07,-80.01"/>
</g>
<!-- Node12 -->
<g id="node12" class="node">
<title>Node12</title>
<g id="a_node12"><a xlink:title=" ">
<polygon fill="#e0e0e0" stroke="#999999" points="975.5,-74 812.5,-74 812.5,-55 975.5,-55 975.5,-74"/>
<text text-anchor="middle" x="894" y="-62" font-family="Helvetica,sans-Serif" font-size="10.00">QtCore/private/qzipreader_p.h</text>
</a>
</g>
</g>
<!-- Node1&#45;&gt;Node12 -->
<g id="edge11" class="edge">
<title>Node1&#45;&gt;Node12</title>
<path fill="none" stroke="#63b8ff" d="M598.82,-114.14C663.62,-103.46 766.52,-86.51 832.12,-75.7"/>
<polygon fill="#63b8ff" stroke="#63b8ff" points="833.02,-79.1 842.31,-74.02 831.88,-72.19 833.02,-79.1"/>
</g>
<!-- Node13 -->
<g id="node13" class="node">
<title>Node13</title>
<g id="a_node13"><a xlink:title=" ">
<polygon fill="#e0e0e0" stroke="#999999" points="1154,-74 994,-74 994,-55 1154,-55 1154,-74"/>
<text text-anchor="middle" x="1074" y="-62" font-family="Helvetica,sans-Serif" font-size="10.00">QtCore/private/qzipwriter_p.h</text>
</a>
</g>
</g>
<!-- Node1&#45;&gt;Node13 -->
<g id="edge12" class="edge">
<title>Node1&#45;&gt;Node13</title>
<path fill="none" stroke="#63b8ff" d="M598.56,-117.49C692.71,-107.19 876.48,-87.1 985.92,-75.13"/>
<polygon fill="#63b8ff" stroke="#63b8ff" points="986.38,-78.6 995.94,-74.04 985.62,-71.64 986.38,-78.6"/>
</g>
<!-- Node3 -->
<g id="node3" class="node">
<title>Node3</title>
<g id="a_node3"><a xlink:title=" ">
<polygon fill="#e0e0e0" stroke="#999999" points="89.5,-19 36.5,-19 36.5,0 89.5,0 89.5,-19"/>
<text text-anchor="middle" x="63" y="-7" font-family="Helvetica,sans-Serif" font-size="10.00">QString</text>
</a>
</g>
</g>
<!-- Node2&#45;&gt;Node3 -->
<g id="edge2" class="edge">
<title>Node2&#45;&gt;Node3</title>
<path fill="none" stroke="#63b8ff" d="M63,-54.75C63,-47.8 63,-37.85 63,-29.13"/>
<polygon fill="#63b8ff" stroke="#63b8ff" points="66.5,-29.09 63,-19.09 59.5,-29.09 66.5,-29.09"/>
</g>
</g>
</svg>
