<?xml version="1.0" encoding="UTF-8" standalone="no"?>
<!DOCTYPE svg PUBLIC "-//W3C//DTD SVG 1.1//EN"
 "http://www.w3.org/Graphics/SVG/1.1/DTD/svg11.dtd">
<!-- Generated by graphviz version 2.43.0 (0)
 -->
<!-- Title: src/libs/vtools/visualization/line/point_intersectxy_visual.cpp Pages: 1 -->
<!--zoomable 214 -->

<svg id="main" version="1.1" xmlns="http://www.w3.org/2000/svg" xmlns:xlink="http://www.w3.org/1999/xlink" xml:space="preserve" onload="init(evt)">
<style type="text/css"><![CDATA[
.node, .edge {opacity: 0.7;}
.node.selected, .edge.selected {opacity: 1;}
.edge:hover path { stroke: red; }
.edge:hover polygon { stroke: red; fill: red; }
]]></style>

<defs>
  <circle id="rim" cx="0" cy="0" r="7"/>
  <circle id="rim2" cx="0" cy="0" r="3.5"/>
  <g id="zoomPlus">
    <use xlink:href="#rim" fill="#404040"><set attributeName="fill" to="#808080" begin="zoomplus.mouseover" end="zoomplus.mouseout"/></use>
    <path d="M-4,0h8M0,-4v8" fill="none" stroke="white" stroke-width="1.5" pointer-events="none"/>
  </g>
  <g id="zoomMin">
    <use xlink:href="#rim" fill="#404040"><set attributeName="fill" to="#808080" begin="zoomminus.mouseover" end="zoomminus.mouseout"/></use>
    <path d="M-4,0h8" fill="none" stroke="white" stroke-width="1.5" pointer-events="none"/>
  </g>
  <g id="arrowUp" transform="translate(30 24)">
    <use xlink:href="#rim"/>
    <path pointer-events="none" fill="none" stroke="white" stroke-width="1.5" d="M0,-3.0v7 M-2.5,-0.5L0,-3.0L2.5,-0.5"/>
  </g>
  <g id="arrowRight" transform="rotate(90) translate(36 -43)">
    <use xlink:href="#rim"/>
    <path pointer-events="none" fill="none" stroke="white" stroke-width="1.5" d="M0,-3.0v7 M-2.5,-0.5L0,-3.0L2.5,-0.5"/>
  </g>
  <g id="arrowDown" transform="rotate(180) translate(-30 -48)">
    <use xlink:href="#rim"/>
    <path pointer-events="none" fill="none" stroke="white" stroke-width="1.5" d="M0,-3.0v7 M-2.5,-0.5L0,-3.0L2.5,-0.5"/>
  </g>
  <g id="arrowLeft" transform="rotate(270) translate(-36 17)">
    <use xlink:href="#rim"/>
    <path pointer-events="none" fill="none" stroke="white" stroke-width="1.5" d="M0,-3.0v7 M-2.5,-0.5L0,-3.0L2.5,-0.5"/>
  </g>
  <g id="resetDef">
    <use xlink:href="#rim2" fill="#404040"><set attributeName="fill" to="#808080" begin="reset.mouseover" end="reset.mouseout"/></use>
  </g>
</defs>
<script type="application/ecmascript">
var viewWidth = 2290;
var viewHeight = 214;
var sectionId = 'dynsection-0';
</script>
<script type="application/ecmascript" xlink:href="../../svg.min.js"/>
<svg id="graph" class="graph">
<g id="viewport">
<title>src/libs/vtools/visualization/line/point_intersectxy_visual.cpp</title>
<!-- Node1 -->
<g id="Node000001" class="node">
<title>Node1</title>
<g id="a_Node000001"><a xlink:title=" ">
<polygon fill="#999999" stroke="#666666" points="1238,-206 1058,-206 1058,-176 1238,-176 1238,-206"/>
<text text-anchor="start" x="1066" y="-194" font-family="Helvetica,sans-Serif" font-size="10.00">src/libs/vtools/visualization</text>
<text text-anchor="middle" x="1148" y="-183" font-family="Helvetica,sans-Serif" font-size="10.00">/line/point_intersectxy_visual.cpp</text>
</a>
</g>
</g>
<!-- Node2 -->
<g id="Node000002" class="node">
<title>Node2</title>
<g id="a_Node000002"><a xlink:href="../../d0/d3f/point__intersectxy__visual_8h.html" target="_top" xlink:title=" ">
<polygon fill="white" stroke="#666666" points="691.5,-140 546.5,-140 546.5,-121 691.5,-121 691.5,-140"/>
<text text-anchor="middle" x="619" y="-128" font-family="Helvetica,sans-Serif" font-size="10.00">point_intersectxy_visual.h</text>
</a>
</g>
</g>
<!-- Node1&#45;&gt;Node2 -->
<g id="edge1_Node000001_Node000002" class="edge">
<title>Node1&#45;&gt;Node2</title>
<g id="a_edge1_Node000001_Node000002"><a xlink:title=" ">
<path fill="none" stroke="#63b8ff" d="M1057.96,-180.04C958.12,-169 798.41,-151.34 701.65,-140.64"/>
<polygon fill="#63b8ff" stroke="#63b8ff" points="701.94,-137.15 691.62,-139.53 701.17,-144.11 701.94,-137.15"/>
</a>
</g>
</g>
<!-- Node3 -->
<g id="Node000003" class="node">
<title>Node3</title>
<g id="a_Node000003"><a xlink:href="../../d8/d51/visline_8h.html" target="_top" xlink:title=" ">
<polygon fill="white" stroke="#666666" points="723,-85 665,-85 665,-66 723,-66 723,-85"/>
<text text-anchor="middle" x="694" y="-73" font-family="Helvetica,sans-Serif" font-size="10.00">visline.h</text>
</a>
</g>
</g>
<!-- Node1&#45;&gt;Node3 -->
<g id="edge26_Node000001_Node000003" class="edge">
<title>Node1&#45;&gt;Node3</title>
<g id="a_edge26_Node000001_Node000003"><a xlink:title=" ">
<path fill="none" stroke="#63b8ff" d="M1057.76,-186.76C955.42,-181.73 796.02,-169.33 744,-140 725.53,-129.58 711.44,-109.34 703,-94.5"/>
<polygon fill="#63b8ff" stroke="#63b8ff" points="705.87,-92.44 698.07,-85.27 699.7,-95.74 705.87,-92.44"/>
</a>
</g>
</g>
<!-- Node7 -->
<g id="Node000007" class="node">
<title>Node7</title>
<g id="a_Node000007"><a xlink:title=" ">
<polygon fill="#e0e0e0" stroke="#999999" points="803,-24.5 693,-24.5 693,-5.5 803,-5.5 803,-24.5"/>
<text text-anchor="middle" x="748" y="-12.5" font-family="Helvetica,sans-Serif" font-size="10.00">QGraphicsLineItem</text>
</a>
</g>
</g>
<!-- Node1&#45;&gt;Node7 -->
<g id="edge50_Node000001_Node000007" class="edge">
<title>Node1&#45;&gt;Node7</title>
<g id="a_edge50_Node000001_Node000007"><a xlink:title=" ">
<path fill="none" stroke="#63b8ff" d="M1057.92,-176.2C1019.09,-168.41 973.79,-156.77 935,-140 867.67,-110.89 798.22,-57.52 766.19,-31.32"/>
<polygon fill="#63b8ff" stroke="#63b8ff" points="768.12,-28.38 758.18,-24.7 763.66,-33.77 768.12,-28.38"/>
</a>
</g>
</g>
<!-- Node11 -->
<g id="Node000011" class="node">
<title>Node11</title>
<g id="a_Node000011"><a xlink:title=" ">
<polygon fill="#e0e0e0" stroke="#999999" points="876.5,-24.5 821.5,-24.5 821.5,-5.5 876.5,-5.5 876.5,-24.5"/>
<text text-anchor="middle" x="849" y="-12.5" font-family="Helvetica,sans-Serif" font-size="10.00">QPointF</text>
</a>
</g>
</g>
<!-- Node1&#45;&gt;Node11 -->
<g id="edge52_Node000001_Node000011" class="edge">
<title>Node1&#45;&gt;Node11</title>
<g id="a_edge52_Node000001_Node000011"><a xlink:title=" ">
<path fill="none" stroke="#63b8ff" d="M1057.78,-176.28C1026.23,-168.79 991.58,-157.35 963,-140 916.94,-112.03 878.12,-60.08 859.99,-33.16"/>
<polygon fill="#63b8ff" stroke="#63b8ff" points="862.88,-31.19 854.45,-24.76 857.03,-35.04 862.88,-31.19"/>
</a>
</g>
</g>
<!-- Node13 -->
<g id="Node000013" class="node">
<title>Node13</title>
<g id="a_Node000013"><a xlink:title=" ">
<polygon fill="#e0e0e0" stroke="#999999" points="923.5,-24.5 894.5,-24.5 894.5,-5.5 923.5,-5.5 923.5,-24.5"/>
<text text-anchor="middle" x="909" y="-12.5" font-family="Helvetica,sans-Serif" font-size="10.00">Qt</text>
</a>
</g>
</g>
<!-- Node1&#45;&gt;Node13 -->
<g id="edge54_Node000001_Node000013" class="edge">
<title>Node1&#45;&gt;Node13</title>
<g id="a_edge54_Node000001_Node000013"><a xlink:title=" ">
<path fill="none" stroke="#63b8ff" d="M1063.06,-175.93C1036.45,-168.49 1008.25,-157.17 986,-140 949.52,-111.85 926.01,-61.12 915.45,-34.09"/>
<polygon fill="#63b8ff" stroke="#63b8ff" points="918.72,-32.83 911.94,-24.69 912.16,-35.29 918.72,-32.83"/>
</a>
</g>
</g>
<!-- Node18 -->
<g id="Node000018" class="node">
<title>Node18</title>
<g id="a_Node000018"><a xlink:href="../../d2/d02/visualization_8h.html" target="_top" xlink:title=" ">
<polygon fill="white" stroke="#666666" points="1091.5,-140 994.5,-140 994.5,-121 1091.5,-121 1091.5,-140"/>
<text text-anchor="middle" x="1043" y="-128" font-family="Helvetica,sans-Serif" font-size="10.00">../visualization.h</text>
</a>
</g>
</g>
<!-- Node1&#45;&gt;Node18 -->
<g id="edge27_Node000001_Node000018" class="edge">
<title>Node1&#45;&gt;Node18</title>
<g id="a_edge27_Node000001_Node000018"><a xlink:title=" ">
<path fill="none" stroke="#63b8ff" d="M1122.85,-175.99C1106.11,-166.66 1084.23,-154.47 1067.61,-145.21"/>
<polygon fill="#63b8ff" stroke="#63b8ff" points="1068.95,-141.95 1058.51,-140.14 1065.54,-148.06 1068.95,-141.95"/>
</a>
</g>
</g>
<!-- Node28 -->
<g id="Node000028" class="node">
<title>Node28</title>
<g id="a_Node000028"><a xlink:title=" ">
<polygon fill="#e0e0e0" stroke="#999999" points="1186.5,-140 1109.5,-140 1109.5,-121 1186.5,-121 1186.5,-140"/>
<text text-anchor="middle" x="1148" y="-128" font-family="Helvetica,sans-Serif" font-size="10.00">../ifc/ifcdef.h</text>
</a>
</g>
</g>
<!-- Node1&#45;&gt;Node28 -->
<g id="edge46_Node000001_Node000028" class="edge">
<title>Node1&#45;&gt;Node28</title>
<g id="a_edge46_Node000001_Node000028"><a xlink:title=" ">
<path fill="none" stroke="#63b8ff" d="M1148,-175.84C1148,-168.21 1148,-158.7 1148,-150.45"/>
<polygon fill="#63b8ff" stroke="#63b8ff" points="1151.5,-150.27 1148,-140.27 1144.5,-150.27 1151.5,-150.27"/>
</a>
</g>
</g>
<!-- Node29 -->
<g id="Node000029" class="node">
<title>Node29</title>
<g id="a_Node000029"><a xlink:title=" ">
<polygon fill="#e0e0e0" stroke="#999999" points="1329.5,-140 1204.5,-140 1204.5,-121 1329.5,-121 1329.5,-140"/>
<text text-anchor="middle" x="1267" y="-128" font-family="Helvetica,sans-Serif" font-size="10.00">../vgeometry/vpointf.h</text>
</a>
</g>
</g>
<!-- Node1&#45;&gt;Node29 -->
<g id="edge47_Node000001_Node000029" class="edge">
<title>Node1&#45;&gt;Node29</title>
<g id="a_edge47_Node000001_Node000029"><a xlink:title=" ">
<path fill="none" stroke="#63b8ff" d="M1176.5,-175.99C1195.91,-166.45 1221.43,-153.9 1240.42,-144.57"/>
<polygon fill="#63b8ff" stroke="#63b8ff" points="1242,-147.69 1249.43,-140.14 1238.91,-141.41 1242,-147.69"/>
</a>
</g>
</g>
<!-- Node30 -->
<g id="Node000030" class="node">
<title>Node30</title>
<g id="a_Node000030"><a xlink:title=" ">
<polygon fill="#e0e0e0" stroke="#999999" points="1490,-140 1348,-140 1348,-121 1490,-121 1490,-140"/>
<text text-anchor="middle" x="1419" y="-128" font-family="Helvetica,sans-Serif" font-size="10.00">../vpatterndb/vcontainer.h</text>
</a>
</g>
</g>
<!-- Node1&#45;&gt;Node30 -->
<g id="edge48_Node000001_Node000030" class="edge">
<title>Node1&#45;&gt;Node30</title>
<g id="a_edge48_Node000001_Node000030"><a xlink:title=" ">
<path fill="none" stroke="#63b8ff" d="M1212.91,-175.99C1261,-165.61 1325.54,-151.68 1369.5,-142.19"/>
<polygon fill="#63b8ff" stroke="#63b8ff" points="1370.34,-145.58 1379.38,-140.05 1368.86,-138.74 1370.34,-145.58"/>
</a>
</g>
</g>
<!-- Node31 -->
<g id="Node000031" class="node">
<title>Node31</title>
<g id="a_Node000031"><a xlink:title=" ">
<polygon fill="#e0e0e0" stroke="#999999" points="1630,-140 1508,-140 1508,-121 1630,-121 1630,-140"/>
<text text-anchor="middle" x="1569" y="-128" font-family="Helvetica,sans-Serif" font-size="10.00">QGraphicsEllipseItem</text>
</a>
</g>
</g>
<!-- Node1&#45;&gt;Node31 -->
<g id="edge49_Node000001_Node000031" class="edge">
<title>Node1&#45;&gt;Node31</title>
<g id="a_edge49_Node000001_Node000031"><a xlink:title=" ">
<path fill="none" stroke="#63b8ff" d="M1238.06,-177.49C1315.64,-166.71 1426.13,-151.35 1497.7,-141.41"/>
<polygon fill="#63b8ff" stroke="#63b8ff" points="1498.55,-144.82 1507.97,-139.98 1497.58,-137.89 1498.55,-144.82"/>
</a>
</g>
</g>
<!-- Node32 -->
<g id="Node000032" class="node">
<title>Node32</title>
<g id="a_Node000032"><a xlink:title=" ">
<polygon fill="#e0e0e0" stroke="#999999" points="1692,-140 1648,-140 1648,-121 1692,-121 1692,-140"/>
<text text-anchor="middle" x="1670" y="-128" font-family="Helvetica,sans-Serif" font-size="10.00">QLine</text>
</a>
</g>
</g>
<!-- Node1&#45;&gt;Node32 -->
<g id="edge51_Node000001_Node000032" class="edge">
<title>Node1&#45;&gt;Node32</title>
<g id="a_edge51_Node000001_Node000032"><a xlink:title=" ">
<path fill="none" stroke="#63b8ff" d="M1238.24,-185.32C1334.99,-179.27 1493.14,-166.46 1637.8,-139.93"/>
<polygon fill="#63b8ff" stroke="#63b8ff" points="1638.56,-143.35 1647.75,-138.08 1637.28,-136.46 1638.56,-143.35"/>
</a>
</g>
</g>
<!-- Node33 -->
<g id="Node000033" class="node">
<title>Node33</title>
<g id="a_Node000033"><a xlink:title=" ">
<polygon fill="#e0e0e0" stroke="#999999" points="1802,-140 1710,-140 1710,-121 1802,-121 1802,-140"/>
<text text-anchor="middle" x="1756" y="-128" font-family="Helvetica,sans-Serif" font-size="10.00">QSharedPointer</text>
</a>
</g>
</g>
<!-- Node1&#45;&gt;Node33 -->
<g id="edge53_Node000001_Node000033" class="edge">
<title>Node1&#45;&gt;Node33</title>
<g id="a_edge53_Node000001_Node000033"><a xlink:title=" ">
<path fill="none" stroke="#63b8ff" d="M1238.22,-183.6C1345.71,-175.58 1530.93,-160.51 1699.75,-140.08"/>
<polygon fill="#63b8ff" stroke="#63b8ff" points="1700.31,-143.54 1709.82,-138.85 1699.47,-136.59 1700.31,-143.54"/>
</a>
</g>
</g>
<!-- Node34 -->
<g id="Node000034" class="node">
<title>Node34</title>
<g id="a_Node000034"><a xlink:title=" ">
<polygon fill="#e0e0e0" stroke="#999999" points="1857.5,-140 1820.5,-140 1820.5,-121 1857.5,-121 1857.5,-140"/>
<text text-anchor="middle" x="1839" y="-128" font-family="Helvetica,sans-Serif" font-size="10.00">new</text>
</a>
</g>
</g>
<!-- Node1&#45;&gt;Node34 -->
<g id="edge55_Node000001_Node000034" class="edge">
<title>Node1&#45;&gt;Node34</title>
<g id="a_edge55_Node000001_Node000034"><a xlink:title=" ">
<path fill="none" stroke="#63b8ff" d="M1238.08,-189.44C1364.37,-187.28 1601.07,-178.17 1810.51,-139.61"/>
<polygon fill="#63b8ff" stroke="#63b8ff" points="1811.28,-143.02 1820.47,-137.75 1809.99,-136.14 1811.28,-143.02"/>
</a>
</g>
</g>
<!-- Node2&#45;&gt;Node3 -->
<g id="edge2_Node000002_Node000003" class="edge">
<title>Node2&#45;&gt;Node3</title>
<g id="a_edge2_Node000002_Node000003"><a xlink:title=" ">
<path fill="none" stroke="#63b8ff" d="M631.05,-120.98C642.46,-112.92 659.83,-100.65 673.43,-91.03"/>
<polygon fill="#63b8ff" stroke="#63b8ff" points="675.58,-93.8 681.73,-85.17 671.54,-88.08 675.58,-93.8"/>
</a>
</g>
</g>
<!-- Node4 -->
<g id="Node000004" class="node">
<title>Node4</title>
<g id="a_Node000004"><a xlink:title=" ">
<polygon fill="#e0e0e0" stroke="#999999" points="354,-24.5 234,-24.5 234,-5.5 354,-5.5 354,-24.5"/>
<text text-anchor="middle" x="294" y="-12.5" font-family="Helvetica,sans-Serif" font-size="10.00">qcompilerdetection.h</text>
</a>
</g>
</g>
<!-- Node2&#45;&gt;Node4 -->
<g id="edge18_Node000002_Node000004" class="edge">
<title>Node2&#45;&gt;Node4</title>
<g id="a_edge18_Node000002_Node000004"><a xlink:title=" ">
<path fill="none" stroke="#63b8ff" d="M546.43,-126.55C495.7,-122.11 427.56,-111.25 373,-85 346.73,-72.36 322.42,-48.54 307.89,-32.47"/>
<polygon fill="#63b8ff" stroke="#63b8ff" points="310.46,-30.09 301.23,-24.88 305.19,-34.7 310.46,-30.09"/>
</a>
</g>
</g>
<!-- Node5 -->
<g id="Node000005" class="node">
<title>Node5</title>
<g id="a_Node000005"><a xlink:title=" ">
<polygon fill="#e0e0e0" stroke="#999999" points="148,-24.5 98,-24.5 98,-5.5 148,-5.5 148,-24.5"/>
<text text-anchor="middle" x="123" y="-12.5" font-family="Helvetica,sans-Serif" font-size="10.00">QColor</text>
</a>
</g>
</g>
<!-- Node2&#45;&gt;Node5 -->
<g id="edge19_Node000002_Node000005" class="edge">
<title>Node2&#45;&gt;Node5</title>
<g id="a_edge19_Node000002_Node000005"><a xlink:title=" ">
<path fill="none" stroke="#63b8ff" d="M546.34,-125.32C478.34,-120.1 374.4,-108.79 287,-85 235.95,-71.1 179.8,-44.92 148.22,-29.1"/>
<polygon fill="#63b8ff" stroke="#63b8ff" points="149.75,-25.95 139.24,-24.55 146.58,-32.2 149.75,-25.95"/>
</a>
</g>
</g>
<!-- Node6 -->
<g id="Node000006" class="node">
<title>Node6</title>
<g id="a_Node000006"><a xlink:title=" ">
<polygon fill="#e0e0e0" stroke="#999999" points="461.5,-24.5 372.5,-24.5 372.5,-5.5 461.5,-5.5 461.5,-24.5"/>
<text text-anchor="middle" x="417" y="-12.5" font-family="Helvetica,sans-Serif" font-size="10.00">QGraphicsItem</text>
</a>
</g>
</g>
<!-- Node2&#45;&gt;Node6 -->
<g id="edge20_Node000002_Node000006" class="edge">
<title>Node2&#45;&gt;Node6</title>
<g id="a_edge20_Node000002_Node000006"><a xlink:title=" ">
<path fill="none" stroke="#63b8ff" d="M593.05,-120.98C570.42,-113.08 537.07,-100.25 510,-85 482,-69.23 452.71,-46.25 434.65,-31.22"/>
<polygon fill="#63b8ff" stroke="#63b8ff" points="436.65,-28.32 426.75,-24.54 432.13,-33.67 436.65,-28.32"/>
</a>
</g>
</g>
<!-- Node8 -->
<g id="Node000008" class="node">
<title>Node8</title>
<g id="a_Node000008"><a xlink:title=" ">
<polygon fill="#e0e0e0" stroke="#999999" points="216,-24.5 166,-24.5 166,-5.5 216,-5.5 216,-24.5"/>
<text text-anchor="middle" x="191" y="-12.5" font-family="Helvetica,sans-Serif" font-size="10.00">QLineF</text>
</a>
</g>
</g>
<!-- Node2&#45;&gt;Node8 -->
<g id="edge21_Node000002_Node000008" class="edge">
<title>Node2&#45;&gt;Node8</title>
<g id="a_edge21_Node000002_Node000008"><a xlink:title=" ">
<path fill="none" stroke="#63b8ff" d="M546.36,-123.34C489.55,-117.22 409.05,-105.67 341,-85 294.67,-70.93 244.18,-45.39 215.19,-29.64"/>
<polygon fill="#63b8ff" stroke="#63b8ff" points="216.66,-26.46 206.21,-24.7 213.29,-32.59 216.66,-26.46"/>
</a>
</g>
</g>
<!-- Node9 -->
<g id="Node000009" class="node">
<title>Node9</title>
<g id="a_Node000009"><a xlink:title=" ">
<polygon fill="#e0e0e0" stroke="#999999" points="80,-24.5 0,-24.5 0,-5.5 80,-5.5 80,-24.5"/>
<text text-anchor="middle" x="40" y="-12.5" font-family="Helvetica,sans-Serif" font-size="10.00">QMetaObject</text>
</a>
</g>
</g>
<!-- Node2&#45;&gt;Node9 -->
<g id="edge22_Node000002_Node000009" class="edge">
<title>Node2&#45;&gt;Node9</title>
<g id="a_edge22_Node000002_Node000009"><a xlink:title=" ">
<path fill="none" stroke="#63b8ff" d="M546.41,-126.41C467.23,-121.86 337.2,-110.86 228,-85 169.55,-71.16 104.37,-44.58 68.17,-28.75"/>
<polygon fill="#63b8ff" stroke="#63b8ff" points="69.31,-25.43 58.75,-24.59 66.49,-31.84 69.31,-25.43"/>
</a>
</g>
</g>
<!-- Node10 -->
<g id="Node000010" class="node">
<title>Node10</title>
<g id="a_Node000010"><a xlink:title=" ">
<polygon fill="#e0e0e0" stroke="#999999" points="675,-24.5 619,-24.5 619,-5.5 675,-5.5 675,-24.5"/>
<text text-anchor="middle" x="647" y="-12.5" font-family="Helvetica,sans-Serif" font-size="10.00">QObject</text>
</a>
</g>
</g>
<!-- Node2&#45;&gt;Node10 -->
<g id="edge23_Node000002_Node000010" class="edge">
<title>Node2&#45;&gt;Node10</title>
<g id="a_edge23_Node000002_Node000010"><a xlink:title=" ">
<path fill="none" stroke="#63b8ff" d="M621.1,-120.97C625.6,-102.73 636.25,-59.57 642.4,-34.64"/>
<polygon fill="#63b8ff" stroke="#63b8ff" points="645.87,-35.18 644.87,-24.63 639.08,-33.5 645.87,-35.18"/>
</a>
</g>
</g>
<!-- Node12 -->
<g id="Node000012" class="node">
<title>Node12</title>
<g id="a_Node000012"><a xlink:title=" ">
<polygon fill="#e0e0e0" stroke="#999999" points="1177.5,-24.5 1124.5,-24.5 1124.5,-5.5 1177.5,-5.5 1177.5,-24.5"/>
<text text-anchor="middle" x="1151" y="-12.5" font-family="Helvetica,sans-Serif" font-size="10.00">QString</text>
</a>
</g>
</g>
<!-- Node2&#45;&gt;Node12 -->
<g id="edge24_Node000002_Node000012" class="edge">
<title>Node2&#45;&gt;Node12</title>
<g id="a_edge24_Node000002_Node000012"><a xlink:title=" ">
<path fill="none" stroke="#63b8ff" d="M652.97,-120.99C705.06,-108.11 807.89,-83.32 896,-66 992.79,-46.97 1019.85,-56.02 1115,-30 1117.15,-29.41 1119.36,-28.74 1121.56,-28.01"/>
<polygon fill="#63b8ff" stroke="#63b8ff" points="1122.84,-31.27 1131.07,-24.6 1120.47,-24.69 1122.84,-31.27"/>
</a>
</g>
</g>
<!-- Node14 -->
<g id="Node000014" class="node">
<title>Node14</title>
<g id="a_Node000014"><a xlink:title=" ">
<polygon fill="#e0e0e0" stroke="#999999" points="1355.5,-24.5 1296.5,-24.5 1296.5,-5.5 1355.5,-5.5 1355.5,-24.5"/>
<text text-anchor="middle" x="1326" y="-12.5" font-family="Helvetica,sans-Serif" font-size="10.00">QtGlobal</text>
</a>
</g>
</g>
<!-- Node2&#45;&gt;Node14 -->
<g id="edge25_Node000002_Node000014" class="edge">
<title>Node2&#45;&gt;Node14</title>
<g id="a_edge25_Node000002_Node000014"><a xlink:title=" ">
<path fill="none" stroke="#63b8ff" d="M681.04,-120.99C835.44,-99.71 1228.77,-44.83 1287,-30 1289.5,-29.36 1292.07,-28.63 1294.63,-27.84"/>
<polygon fill="#63b8ff" stroke="#63b8ff" points="1295.98,-31.08 1304.36,-24.59 1293.77,-24.44 1295.98,-31.08"/>
</a>
</g>
</g>
<!-- Node16 -->
<g id="Node000016" class="node">
<title>Node16</title>
<g id="a_Node000016"><a xlink:title=" ">
<polygon fill="#e0e0e0" stroke="#999999" points="1278,-24.5 1196,-24.5 1196,-5.5 1278,-5.5 1278,-24.5"/>
<text text-anchor="middle" x="1237" y="-12.5" font-family="Helvetica,sans-Serif" font-size="10.00">../vmisc/def.h</text>
</a>
</g>
</g>
<!-- Node2&#45;&gt;Node16 -->
<g id="edge17_Node000002_Node000016" class="edge">
<title>Node2&#45;&gt;Node16</title>
<g id="a_edge17_Node000002_Node000016"><a xlink:title=" ">
<path fill="none" stroke="#63b8ff" d="M666.55,-120.99C716.47,-112.05 797.26,-97.57 867,-85 913.67,-76.59 925.28,-74.14 972,-66 1067.45,-49.37 1092.44,-51.09 1187,-30 1190.85,-29.14 1194.84,-28.17 1198.82,-27.14"/>
<polygon fill="#63b8ff" stroke="#63b8ff" points="1199.82,-30.5 1208.58,-24.53 1198.01,-23.74 1199.82,-30.5"/>
</a>
</g>
</g>
<!-- Node3&#45;&gt;Node4 -->
<g id="edge3_Node000003_Node000004" class="edge">
<title>Node3&#45;&gt;Node4</title>
<g id="a_edge3_Node000003_Node000004"><a xlink:title=" ">
<path fill="none" stroke="#63b8ff" d="M664.68,-71.22C606.81,-64.61 473.92,-48.69 363,-30 356.75,-28.95 350.2,-27.75 343.73,-26.5"/>
<polygon fill="#63b8ff" stroke="#63b8ff" points="344.17,-23.02 333.69,-24.52 342.82,-29.89 344.17,-23.02"/>
</a>
</g>
</g>
<!-- Node3&#45;&gt;Node5 -->
<g id="edge4_Node000003_Node000005" class="edge">
<title>Node3&#45;&gt;Node5</title>
<g id="a_edge4_Node000003_Node000005"><a xlink:title=" ">
<path fill="none" stroke="#63b8ff" d="M664.95,-73.27C567.81,-68.98 254.88,-53.6 157,-30 154.83,-29.48 152.62,-28.84 150.42,-28.12"/>
<polygon fill="#63b8ff" stroke="#63b8ff" points="151.6,-24.82 141.01,-24.62 149.16,-31.38 151.6,-24.82"/>
</a>
</g>
</g>
<!-- Node3&#45;&gt;Node6 -->
<g id="edge5_Node000003_Node000006" class="edge">
<title>Node3&#45;&gt;Node6</title>
<g id="a_edge5_Node000003_Node000006"><a xlink:title=" ">
<path fill="none" stroke="#63b8ff" d="M664.88,-69.31C622.03,-61.54 539.53,-46.07 470,-30 466.1,-29.1 462.04,-28.11 457.99,-27.1"/>
<polygon fill="#63b8ff" stroke="#63b8ff" points="458.58,-23.64 448.03,-24.54 456.84,-30.42 458.58,-23.64"/>
</a>
</g>
</g>
<!-- Node3&#45;&gt;Node7 -->
<g id="edge6_Node000003_Node000007" class="edge">
<title>Node3&#45;&gt;Node7</title>
<g id="a_edge6_Node000003_Node000007"><a xlink:title=" ">
<path fill="none" stroke="#63b8ff" d="M701.97,-65.87C710.1,-57.05 722.93,-43.16 732.98,-32.27"/>
<polygon fill="#63b8ff" stroke="#63b8ff" points="735.79,-34.39 740,-24.67 730.64,-29.64 735.79,-34.39"/>
</a>
</g>
</g>
<!-- Node3&#45;&gt;Node8 -->
<g id="edge7_Node000003_Node000008" class="edge">
<title>Node3&#45;&gt;Node8</title>
<g id="a_edge7_Node000003_Node000008"><a xlink:title=" ">
<path fill="none" stroke="#63b8ff" d="M664.95,-74.7C590.6,-74.58 387.76,-70.28 225,-30 222.84,-29.46 220.63,-28.81 218.43,-28.09"/>
<polygon fill="#63b8ff" stroke="#63b8ff" points="219.61,-24.79 209.02,-24.58 217.16,-31.35 219.61,-24.79"/>
</a>
</g>
</g>
<!-- Node3&#45;&gt;Node9 -->
<g id="edge8_Node000003_Node000009" class="edge">
<title>Node3&#45;&gt;Node9</title>
<g id="a_edge8_Node000003_Node000009"><a xlink:title=" ">
<path fill="none" stroke="#63b8ff" d="M664.77,-74.46C576.92,-73.9 307.79,-68.88 89,-30 84.79,-29.25 80.42,-28.29 76.1,-27.21"/>
<polygon fill="#63b8ff" stroke="#63b8ff" points="76.78,-23.77 66.22,-24.56 74.97,-30.53 76.78,-23.77"/>
</a>
</g>
</g>
<!-- Node3&#45;&gt;Node10 -->
<g id="edge9_Node000003_Node000010" class="edge">
<title>Node3&#45;&gt;Node10</title>
<g id="a_edge9_Node000003_Node000010"><a xlink:title=" ">
<path fill="none" stroke="#63b8ff" d="M687.06,-65.87C680.05,-57.14 669.04,-43.43 660.33,-32.59"/>
<polygon fill="#63b8ff" stroke="#63b8ff" points="662.96,-30.27 653.96,-24.67 657.5,-34.66 662.96,-30.27"/>
</a>
</g>
</g>
<!-- Node3&#45;&gt;Node11 -->
<g id="edge10_Node000003_Node000011" class="edge">
<title>Node3&#45;&gt;Node11</title>
<g id="a_edge10_Node000003_Node000011"><a xlink:title=" ">
<path fill="none" stroke="#63b8ff" d="M716.62,-65.98C740.38,-57.02 778.82,-42.53 812,-30 813.59,-29.4 815.22,-28.78 816.86,-28.16"/>
<polygon fill="#63b8ff" stroke="#63b8ff" points="818.19,-31.4 826.3,-24.59 815.71,-24.86 818.19,-31.4"/>
</a>
</g>
</g>
<!-- Node3&#45;&gt;Node12 -->
<g id="edge11_Node000003_Node000012" class="edge">
<title>Node3&#45;&gt;Node12</title>
<g id="a_edge11_Node000003_Node000012"><a xlink:title=" ">
<path fill="none" stroke="#63b8ff" d="M723.22,-72.43C805.87,-66.4 1040.18,-48.16 1115,-30 1117.36,-29.43 1119.78,-28.73 1122.19,-27.97"/>
<polygon fill="#63b8ff" stroke="#63b8ff" points="1123.62,-31.17 1131.87,-24.52 1121.28,-24.58 1123.62,-31.17"/>
</a>
</g>
</g>
<!-- Node3&#45;&gt;Node13 -->
<g id="edge12_Node000003_Node000013" class="edge">
<title>Node3&#45;&gt;Node13</title>
<g id="a_edge12_Node000003_Node000013"><a xlink:title=" ">
<path fill="none" stroke="#63b8ff" d="M723.18,-70.7C761.59,-65.03 830.71,-52.55 886,-30 886.43,-29.82 886.87,-29.64 887.3,-29.45"/>
<polygon fill="#63b8ff" stroke="#63b8ff" points="889.02,-32.5 896.24,-24.75 885.76,-26.3 889.02,-32.5"/>
</a>
</g>
</g>
<!-- Node3&#45;&gt;Node14 -->
<g id="edge13_Node000003_Node000014" class="edge">
<title>Node3&#45;&gt;Node14</title>
<g id="a_edge13_Node000003_Node000014"><a xlink:title=" ">
<path fill="none" stroke="#63b8ff" d="M723.11,-73.36C826.73,-69.12 1177.31,-53.35 1287,-30 1289.84,-29.4 1292.75,-28.64 1295.64,-27.78"/>
<polygon fill="#63b8ff" stroke="#63b8ff" points="1296.85,-31.07 1305.25,-24.62 1294.66,-24.42 1296.85,-31.07"/>
</a>
</g>
</g>
<!-- Node15 -->
<g id="Node000015" class="node">
<title>Node15</title>
<g id="a_Node000015"><a xlink:title=" ">
<polygon fill="#e0e0e0" stroke="#999999" points="600.5,-30 479.5,-30 479.5,0 600.5,0 600.5,-30"/>
<text text-anchor="start" x="487.5" y="-18" font-family="Helvetica,sans-Serif" font-size="10.00">../vtools/visualization</text>
<text text-anchor="middle" x="540" y="-7" font-family="Helvetica,sans-Serif" font-size="10.00">/visualization.h</text>
</a>
</g>
</g>
<!-- Node3&#45;&gt;Node15 -->
<g id="edge14_Node000003_Node000015" class="edge">
<title>Node3&#45;&gt;Node15</title>
<g id="a_edge14_Node000003_Node000015"><a xlink:title=" ">
<path fill="none" stroke="#63b8ff" d="M671.61,-65.99C649.44,-57.57 614.85,-44.43 586.69,-33.73"/>
<polygon fill="#63b8ff" stroke="#63b8ff" points="587.61,-30.34 577.02,-30.06 585.13,-36.89 587.61,-30.34"/>
</a>
</g>
</g>
<!-- Node3&#45;&gt;Node16 -->
<g id="edge15_Node000003_Node000016" class="edge">
<title>Node3&#45;&gt;Node16</title>
<g id="a_edge15_Node000003_Node000016"><a xlink:title=" ">
<path fill="none" stroke="#63b8ff" d="M723.15,-73.73C799.75,-71.3 1012.88,-61.96 1187,-30 1191.24,-29.22 1195.64,-28.25 1199.99,-27.17"/>
<polygon fill="#63b8ff" stroke="#63b8ff" points="1201.19,-30.48 1209.96,-24.54 1199.4,-23.71 1201.19,-30.48"/>
</a>
</g>
</g>
<!-- Node17 -->
<g id="Node000017" class="node">
<title>Node17</title>
<g id="a_Node000017"><a xlink:title=" ">
<polygon fill="#e0e0e0" stroke="#999999" points="1106,-24.5 942,-24.5 942,-5.5 1106,-5.5 1106,-24.5"/>
<text text-anchor="middle" x="1024" y="-12.5" font-family="Helvetica,sans-Serif" font-size="10.00">../vwidgets/scalesceneitems.h</text>
</a>
</g>
</g>
<!-- Node3&#45;&gt;Node17 -->
<g id="edge16_Node000003_Node000017" class="edge">
<title>Node3&#45;&gt;Node17</title>
<g id="a_edge16_Node000003_Node000017"><a xlink:title=" ">
<path fill="none" stroke="#63b8ff" d="M723.29,-69.31C777.56,-59.69 894.7,-38.92 965.69,-26.34"/>
<polygon fill="#63b8ff" stroke="#63b8ff" points="966.58,-29.73 975.82,-24.54 965.36,-22.84 966.58,-29.73"/>
</a>
</g>
</g>
<!-- Node18&#45;&gt;Node4 -->
<g id="edge42_Node000018_Node000004" class="edge">
<title>Node18&#45;&gt;Node4</title>
<g id="a_edge42_Node000018_Node000004"><a xlink:title=" ">
<path fill="none" stroke="#63b8ff" d="M994.27,-127.11C909.42,-122.43 729.23,-110.26 579,-85 490.1,-70.05 387.81,-42.77 333.2,-27.37"/>
<polygon fill="#63b8ff" stroke="#63b8ff" points="333.83,-23.91 323.26,-24.54 331.92,-30.64 333.83,-23.91"/>
</a>
</g>
</g>
<!-- Node18&#45;&gt;Node6 -->
<g id="edge43_Node000018_Node000006" class="edge">
<title>Node18&#45;&gt;Node6</title>
<g id="a_edge43_Node000018_Node000006"><a xlink:title=" ">
<path fill="none" stroke="#63b8ff" d="M994.33,-126.52C920.58,-121.41 776.36,-109.12 656,-85 581.79,-70.13 497.18,-43.28 451.19,-27.83"/>
<polygon fill="#63b8ff" stroke="#63b8ff" points="452.03,-24.42 441.44,-24.53 449.79,-31.05 452.03,-24.42"/>
</a>
</g>
</g>
<!-- Node18&#45;&gt;Node10 -->
<g id="edge44_Node000018_Node000010" class="edge">
<title>Node18&#45;&gt;Node10</title>
<g id="a_edge44_Node000018_Node000010"><a xlink:title=" ">
<path fill="none" stroke="#63b8ff" d="M1008.03,-120.94C943.46,-104.88 801.41,-68.4 684,-30 682.14,-29.39 680.23,-28.75 678.32,-28.08"/>
<polygon fill="#63b8ff" stroke="#63b8ff" points="679.39,-24.74 668.8,-24.62 677,-31.32 679.39,-24.74"/>
</a>
</g>
</g>
<!-- Node18&#45;&gt;Node14 -->
<g id="edge45_Node000018_Node000014" class="edge">
<title>Node18&#45;&gt;Node14</title>
<g id="a_edge45_Node000018_Node000014"><a xlink:title=" ">
<path fill="none" stroke="#63b8ff" d="M1051.04,-120.55C1064.08,-106.62 1091.3,-79.9 1120,-66 1188.34,-32.91 1214,-50.87 1287,-30 1289.42,-29.31 1291.91,-28.54 1294.4,-27.74"/>
<polygon fill="#63b8ff" stroke="#63b8ff" points="1295.55,-31.04 1303.89,-24.51 1293.3,-24.42 1295.55,-31.04"/>
</a>
</g>
</g>
<!-- Node18&#45;&gt;Node16 -->
<g id="edge35_Node000018_Node000016" class="edge">
<title>Node18&#45;&gt;Node16</title>
<g id="a_edge35_Node000018_Node000016"><a xlink:title=" ">
<path fill="none" stroke="#63b8ff" d="M1046.65,-120.76C1052.8,-107.12 1066.46,-80.78 1086,-66 1095.2,-59.04 1156.73,-39.86 1198.35,-27.38"/>
<polygon fill="#63b8ff" stroke="#63b8ff" points="1199.36,-30.73 1207.94,-24.52 1197.36,-24.03 1199.36,-30.73"/>
</a>
</g>
</g>
<!-- Node18&#45;&gt;Node17 -->
<g id="edge39_Node000018_Node000017" class="edge">
<title>Node18&#45;&gt;Node17</title>
<g id="a_edge39_Node000018_Node000017"><a xlink:title=" ">
<path fill="none" stroke="#63b8ff" d="M1041.57,-120.97C1038.52,-102.73 1031.29,-59.57 1027.12,-34.64"/>
<polygon fill="#63b8ff" stroke="#63b8ff" points="1030.55,-33.91 1025.44,-24.63 1023.64,-35.07 1030.55,-33.91"/>
</a>
</g>
</g>
<!-- Node19 -->
<g id="Node000019" class="node">
<title>Node19</title>
<g id="a_Node000019"><a xlink:href="../../d4/df4/vinternalvariable_8h.html" target="_top" xlink:title=" ">
<polygon fill="white" stroke="#666666" points="1285.5,-85 1128.5,-85 1128.5,-66 1285.5,-66 1285.5,-85"/>
<text text-anchor="middle" x="1207" y="-73" font-family="Helvetica,sans-Serif" font-size="10.00">variables/vinternalvariable.h</text>
</a>
</g>
</g>
<!-- Node18&#45;&gt;Node19 -->
<g id="edge28_Node000018_Node000019" class="edge">
<title>Node18&#45;&gt;Node19</title>
<g id="a_edge28_Node000018_Node000019"><a xlink:title=" ">
<path fill="none" stroke="#63b8ff" d="M1069.35,-120.98C1096.76,-112.13 1139.89,-98.19 1170.56,-88.28"/>
<polygon fill="#63b8ff" stroke="#63b8ff" points="1172,-91.49 1180.44,-85.08 1169.85,-84.83 1172,-91.49"/>
</a>
</g>
</g>
<!-- Node22 -->
<g id="Node000022" class="node">
<title>Node22</title>
<g id="a_Node000022"><a xlink:title=" ">
<polygon fill="#e0e0e0" stroke="#999999" points="1468,-85 1304,-85 1304,-66 1468,-66 1468,-85"/>
<text text-anchor="middle" x="1386" y="-73" font-family="Helvetica,sans-Serif" font-size="10.00">../vgeometry/vabstractcurve.h</text>
</a>
</g>
</g>
<!-- Node18&#45;&gt;Node22 -->
<g id="edge34_Node000018_Node000022" class="edge">
<title>Node18&#45;&gt;Node22</title>
<g id="a_edge34_Node000018_Node000022"><a xlink:title=" ">
<path fill="none" stroke="#63b8ff" d="M1091.78,-121.96C1151.86,-112.68 1254.13,-96.88 1320.87,-86.56"/>
<polygon fill="#63b8ff" stroke="#63b8ff" points="1321.51,-90.01 1330.86,-85.02 1320.44,-83.09 1321.51,-90.01"/>
</a>
</g>
</g>
<!-- Node23 -->
<g id="Node000023" class="node">
<title>Node23</title>
<g id="a_Node000023"><a xlink:title=" ">
<polygon fill="#e0e0e0" stroke="#999999" points="1589.5,-85 1486.5,-85 1486.5,-66 1589.5,-66 1589.5,-85"/>
<text text-anchor="middle" x="1538" y="-73" font-family="Helvetica,sans-Serif" font-size="10.00">../vmisc/logging.h</text>
</a>
</g>
</g>
<!-- Node18&#45;&gt;Node23 -->
<g id="edge36_Node000018_Node000023" class="edge">
<title>Node18&#45;&gt;Node23</title>
<g id="a_edge36_Node000018_Node000023"><a xlink:title=" ">
<path fill="none" stroke="#63b8ff" d="M1091.71,-122.18C1094.85,-121.76 1097.97,-121.37 1101,-121 1264.4,-101.22 1308.56,-104.45 1476.26,-85.03"/>
<polygon fill="#63b8ff" stroke="#63b8ff" points="1476.91,-88.48 1486.44,-83.84 1476.1,-81.53 1476.91,-88.48"/>
</a>
</g>
</g>
<!-- Node24 -->
<g id="Node000024" class="node">
<title>Node24</title>
<g id="a_Node000024"><a xlink:title=" ">
<polygon fill="#e0e0e0" stroke="#999999" points="1774.5,-85 1607.5,-85 1607.5,-66 1774.5,-66 1774.5,-85"/>
<text text-anchor="middle" x="1691" y="-73" font-family="Helvetica,sans-Serif" font-size="10.00">../vmisc/vabstractapplication.h</text>
</a>
</g>
</g>
<!-- Node18&#45;&gt;Node24 -->
<g id="edge37_Node000018_Node000024" class="edge">
<title>Node18&#45;&gt;Node24</title>
<g id="a_edge37_Node000018_Node000024"><a xlink:title=" ">
<path fill="none" stroke="#63b8ff" d="M1091.7,-122.1C1094.84,-121.7 1097.96,-121.33 1101,-121 1318.37,-97.25 1376.15,-103.03 1597.3,-85.12"/>
<polygon fill="#63b8ff" stroke="#63b8ff" points="1597.59,-88.61 1607.27,-84.31 1597.02,-81.63 1597.59,-88.61"/>
</a>
</g>
</g>
<!-- Node25 -->
<g id="Node000025" class="node">
<title>Node25</title>
<g id="a_Node000025"><a xlink:title=" ">
<polygon fill="#e0e0e0" stroke="#999999" points="1904,-85 1792,-85 1792,-66 1904,-66 1904,-85"/>
<text text-anchor="middle" x="1848" y="-73" font-family="Helvetica,sans-Serif" font-size="10.00">../vwidgets/global.h</text>
</a>
</g>
</g>
<!-- Node18&#45;&gt;Node25 -->
<g id="edge38_Node000018_Node000025" class="edge">
<title>Node18&#45;&gt;Node25</title>
<g id="a_edge38_Node000018_Node000025"><a xlink:title=" ">
<path fill="none" stroke="#63b8ff" d="M1091.69,-122.03C1094.84,-121.65 1097.96,-121.3 1101,-121 1400.09,-91.27 1479.54,-112.54 1781.46,-85.17"/>
<polygon fill="#63b8ff" stroke="#63b8ff" points="1782.2,-88.61 1791.84,-84.22 1781.56,-81.64 1782.2,-88.61"/>
</a>
</g>
</g>
<!-- Node26 -->
<g id="Node000026" class="node">
<title>Node26</title>
<g id="a_Node000026"><a xlink:title=" ">
<polygon fill="#e0e0e0" stroke="#999999" points="2081.5,-85 1922.5,-85 1922.5,-66 2081.5,-66 2081.5,-85"/>
<text text-anchor="middle" x="2002" y="-73" font-family="Helvetica,sans-Serif" font-size="10.00">../vwidgets/vcurvepathitem.h</text>
</a>
</g>
</g>
<!-- Node18&#45;&gt;Node26 -->
<g id="edge40_Node000018_Node000026" class="edge">
<title>Node18&#45;&gt;Node26</title>
<g id="a_edge40_Node000018_Node000026"><a xlink:title=" ">
<path fill="none" stroke="#63b8ff" d="M1091.69,-122C1094.84,-121.63 1097.96,-121.29 1101,-121 1457.28,-87.08 1550.9,-109.75 1912.22,-85.01"/>
<polygon fill="#63b8ff" stroke="#63b8ff" points="1912.71,-88.48 1922.44,-84.3 1912.22,-81.5 1912.71,-88.48"/>
</a>
</g>
</g>
<!-- Node27 -->
<g id="Node000027" class="node">
<title>Node27</title>
<g id="a_Node000027"><a xlink:title=" ">
<polygon fill="#e0e0e0" stroke="#999999" points="2282,-85 2100,-85 2100,-66 2282,-66 2282,-85"/>
<text text-anchor="middle" x="2191" y="-73" font-family="Helvetica,sans-Serif" font-size="10.00">../vwidgets/vmaingraphicsscene.h</text>
</a>
</g>
</g>
<!-- Node18&#45;&gt;Node27 -->
<g id="edge41_Node000018_Node000027" class="edge">
<title>Node18&#45;&gt;Node27</title>
<g id="a_edge41_Node000018_Node000027"><a xlink:title=" ">
<path fill="none" stroke="#63b8ff" d="M1091.69,-121.97C1094.84,-121.61 1097.96,-121.28 1101,-121 1536.15,-81.32 1649.8,-111.19 2089.87,-85.03"/>
<polygon fill="#63b8ff" stroke="#63b8ff" points="2090.22,-88.52 2100,-84.42 2089.8,-81.53 2090.22,-88.52"/>
</a>
</g>
</g>
<!-- Node19&#45;&gt;Node12 -->
<g id="edge30_Node000019_Node000012" class="edge">
<title>Node19&#45;&gt;Node12</title>
<g id="a_edge30_Node000019_Node000012"><a xlink:title=" ">
<path fill="none" stroke="#63b8ff" d="M1198.74,-65.87C1190.22,-56.97 1176.74,-42.89 1166.27,-31.95"/>
<polygon fill="#63b8ff" stroke="#63b8ff" points="1168.74,-29.47 1159.3,-24.67 1163.68,-34.31 1168.74,-29.47"/>
</a>
</g>
</g>
<!-- Node19&#45;&gt;Node14 -->
<g id="edge32_Node000019_Node000014" class="edge">
<title>Node19&#45;&gt;Node14</title>
<g id="a_edge32_Node000019_Node000014"><a xlink:title=" ">
<path fill="none" stroke="#63b8ff" d="M1224.3,-65.99C1244.05,-56.29 1276.55,-40.31 1299.49,-29.03"/>
<polygon fill="#63b8ff" stroke="#63b8ff" points="1301.25,-32.07 1308.68,-24.52 1298.16,-25.79 1301.25,-32.07"/>
</a>
</g>
</g>
<!-- Node19&#45;&gt;Node16 -->
<g id="edge33_Node000019_Node000016" class="edge">
<title>Node19&#45;&gt;Node16</title>
<g id="a_edge33_Node000019_Node000016"><a xlink:title=" ">
<path fill="none" stroke="#63b8ff" d="M1211.43,-65.87C1215.77,-57.4 1222.52,-44.24 1227.99,-33.57"/>
<polygon fill="#63b8ff" stroke="#63b8ff" points="1231.11,-35.16 1232.56,-24.67 1224.88,-31.97 1231.11,-35.16"/>
</a>
</g>
</g>
<!-- Node20 -->
<g id="Node000020" class="node">
<title>Node20</title>
<g id="a_Node000020"><a xlink:title=" ">
<polygon fill="#e0e0e0" stroke="#999999" points="1490,-24.5 1374,-24.5 1374,-5.5 1490,-5.5 1490,-24.5"/>
<text text-anchor="middle" x="1432" y="-12.5" font-family="Helvetica,sans-Serif" font-size="10.00">QSharedDataPointer</text>
</a>
</g>
</g>
<!-- Node19&#45;&gt;Node20 -->
<g id="edge29_Node000019_Node000020" class="edge">
<title>Node19&#45;&gt;Node20</title>
<g id="a_edge29_Node000019_Node000020"><a xlink:title=" ">
<path fill="none" stroke="#63b8ff" d="M1239.72,-65.99C1279.29,-55.7 1346.01,-38.36 1389.52,-27.04"/>
<polygon fill="#63b8ff" stroke="#63b8ff" points="1390.45,-30.42 1399.24,-24.52 1388.68,-23.65 1390.45,-30.42"/>
</a>
</g>
</g>
<!-- Node21 -->
<g id="Node000021" class="node">
<title>Node21</title>
<g id="a_Node000021"><a xlink:title=" ">
<polygon fill="#e0e0e0" stroke="#999999" points="1573.5,-24.5 1508.5,-24.5 1508.5,-5.5 1573.5,-5.5 1573.5,-24.5"/>
<text text-anchor="middle" x="1541" y="-12.5" font-family="Helvetica,sans-Serif" font-size="10.00">QTypeInfo</text>
</a>
</g>
</g>
<!-- Node19&#45;&gt;Node21 -->
<g id="edge31_Node000019_Node000021" class="edge">
<title>Node19&#45;&gt;Node21</title>
<g id="a_edge31_Node000019_Node000021"><a xlink:title=" ">
<path fill="none" stroke="#63b8ff" d="M1285.78,-66.19C1344.95,-59.05 1427.71,-47.18 1499,-30 1501.97,-29.28 1505.03,-28.45 1508.07,-27.56"/>
<polygon fill="#63b8ff" stroke="#63b8ff" points="1509.16,-30.89 1517.66,-24.56 1507.07,-24.21 1509.16,-30.89"/>
</a>
</g>
</g>
</g>
</svg>

<g id="navigator" transform="translate(0 0)" fill="#404254">
  <rect fill="#f2f5e9" fill-opacity="0.5" stroke="#606060" stroke-width=".5" x="0" y="0" width="60" height="60"/>
  <use id="zoomplus" xlink:href="#zoomPlus" x="17" y="9" onmousedown="handleZoom(evt,'in')"/>
  <use id="zoomminus" xlink:href="#zoomMin" x="42" y="9" onmousedown="handleZoom(evt,'out')"/>
  <use id="reset" xlink:href="#resetDef" x="30" y="36" onmousedown="handleReset()"/>
   <use id="arrowup" xlink:href="#arrowUp" x="0" y="0" onmousedown="handlePan(0,-1)"/>
  <use id="arrowright" xlink:href="#arrowRight" x="0" y="0" onmousedown="handlePan(1,0)"/>
  <use id="arrowdown" xlink:href="#arrowDown" x="0" y="0" onmousedown="handlePan(0,1)"/>
  <use id="arrowleft" xlink:href="#arrowLeft" x="0" y="0" onmousedown="handlePan(-1,0)"/>
</g>
<svg viewBox="0 0 15 15" width="100%" height="30px" preserveAspectRatio="xMaxYMin meet">
 <g id="arrow_out" transform="scale(0.3 0.3)">
  <a xlink:href="point__intersectxy__visual_8cpp__incl_org.svg" target="_base">
   <rect id="button" ry="5" rx="5" y="6" x="6" height="38" width="38"
        fill="#f2f5e9" fill-opacity="0.5" stroke="#606060" stroke-width="1.0"/>
   <path id="arrow"
     d="M 11.500037,31.436501 C 11.940474,20.09759 22.043105,11.32322 32.158766,21.979434 L 37.068811,17.246167 C 37.068811,17.246167 37.088388,32 37.088388,32 L 22.160133,31.978069 C 22.160133,31.978069 26.997745,27.140456 26.997745,27.140456 C 18.528582,18.264221 13.291696,25.230495 11.500037,31.436501 z"
     style="fill:#404040;"/>
  </a>
 </g>
</svg>

<style type='text/css'>
<![CDATA[
[data-mouse-over-selected='false'] { opacity: 0.7; }
[data-mouse-over-selected='true']  { opacity: 1.0; }
]]>
</style>
<script type="application/ecmascript"><![CDATA[
document.addEventListener('DOMContentLoaded', (event) => {
  highlightEdges();
  highlightAdjacentNodes();
});
]]></script>
</svg>
