<?xml version="1.0" encoding="UTF-8" standalone="no"?>
<!DOCTYPE svg PUBLIC "-//W3C//DTD SVG 1.1//EN"
 "http://www.w3.org/Graphics/SVG/1.1/DTD/svg11.dtd">
<!-- Generated by graphviz version 2.43.0 (0)
 -->
<!-- Title: src/libs/vtools/visualization/line/operation/vistoolmove.cpp Pages: 1 -->
<svg width="4381pt" height="269pt"
 viewBox="0.00 0.00 4381.00 269.00" xmlns="http://www.w3.org/2000/svg" xmlns:xlink="http://www.w3.org/1999/xlink">
<g id="graph0" class="graph" transform="scale(1 1) rotate(0) translate(4 265)">
<title>src/libs/vtools/visualization/line/operation/vistoolmove.cpp</title>
<!-- Node1 -->
<g id="Node000001" class="node">
<title>Node1</title>
<g id="a_Node000001"><a xlink:title=" ">
<polygon fill="#999999" stroke="#666666" points="2113,-261 1942,-261 1942,-231 2113,-231 2113,-261"/>
<text text-anchor="start" x="1950" y="-249" font-family="Helvetica,sans-Serif" font-size="10.00">src/libs/vtools/visualization</text>
<text text-anchor="middle" x="2027.5" y="-238" font-family="Helvetica,sans-Serif" font-size="10.00">/line/operation/vistoolmove.cpp</text>
</a>
</g>
</g>
<!-- Node2 -->
<g id="Node000002" class="node">
<title>Node2</title>
<g id="a_Node000002"><a xlink:href="../../d0/d44/vistoolmove_8h.html" target="_top" xlink:title=" ">
<polygon fill="white" stroke="#666666" points="570.5,-195 484.5,-195 484.5,-176 570.5,-176 570.5,-195"/>
<text text-anchor="middle" x="527.5" y="-183" font-family="Helvetica,sans-Serif" font-size="10.00">vistoolmove.h</text>
</a>
</g>
</g>
<!-- Node1&#45;&gt;Node2 -->
<g id="edge1_Node000001_Node000002" class="edge">
<title>Node1&#45;&gt;Node2</title>
<g id="a_edge1_Node000001_Node000002"><a xlink:title=" ">
<path fill="none" stroke="#63b8ff" d="M1941.74,-241.66C1665.52,-230.88 804.1,-197.29 580.8,-188.58"/>
<polygon fill="#63b8ff" stroke="#63b8ff" points="580.78,-185.08 570.65,-188.18 580.51,-192.07 580.78,-185.08"/>
</a>
</g>
</g>
<!-- Node8 -->
<g id="Node000008" class="node">
<title>Node8</title>
<g id="a_Node000008"><a xlink:title=" ">
<polygon fill="#e0e0e0" stroke="#999999" points="55,-24.5 0,-24.5 0,-5.5 55,-5.5 55,-24.5"/>
<text text-anchor="middle" x="27.5" y="-12.5" font-family="Helvetica,sans-Serif" font-size="10.00">QPointF</text>
</a>
</g>
</g>
<!-- Node1&#45;&gt;Node8 -->
<g id="edge40_Node000001_Node000008" class="edge">
<title>Node1&#45;&gt;Node8</title>
<g id="a_edge40_Node000001_Node000008"><a xlink:title=" ">
<path fill="none" stroke="#63b8ff" d="M1941.99,-244.17C1660.28,-241.14 762.96,-228.99 475.5,-195 303.86,-174.71 244.05,-184.18 102.5,-85 80,-69.24 57.21,-47.22 42.75,-32.33"/>
<polygon fill="#63b8ff" stroke="#63b8ff" points="45.07,-29.69 35.63,-24.87 40.01,-34.52 45.07,-29.69"/>
</a>
</g>
</g>
<!-- Node14 -->
<g id="Node000014" class="node">
<title>Node14</title>
<g id="a_Node000014"><a xlink:href="../../d5/d71/visoperation_8h.html" target="_top" xlink:title=" ">
<polygon fill="white" stroke="#666666" points="1018.5,-140 932.5,-140 932.5,-121 1018.5,-121 1018.5,-140"/>
<text text-anchor="middle" x="975.5" y="-128" font-family="Helvetica,sans-Serif" font-size="10.00">visoperation.h</text>
</a>
</g>
</g>
<!-- Node1&#45;&gt;Node14 -->
<g id="edge57_Node000001_Node000014" class="edge">
<title>Node1&#45;&gt;Node14</title>
<g id="a_edge57_Node000001_Node000014"><a xlink:title=" ">
<path fill="none" stroke="#63b8ff" d="M1941.87,-245.31C1741.84,-245.25 1248.87,-240.35 1090.5,-195 1054.27,-184.63 1016.9,-161.19 994.96,-145.87"/>
<polygon fill="#63b8ff" stroke="#63b8ff" points="996.98,-143.02 986.81,-140.06 992.92,-148.72 996.98,-143.02"/>
</a>
</g>
</g>
<!-- Node16 -->
<g id="Node000016" class="node">
<title>Node16</title>
<g id="a_Node000016"><a xlink:title=" ">
<polygon fill="#e0e0e0" stroke="#999999" points="1240.5,-24.5 1130.5,-24.5 1130.5,-5.5 1240.5,-5.5 1240.5,-24.5"/>
<text text-anchor="middle" x="1185.5" y="-12.5" font-family="Helvetica,sans-Serif" font-size="10.00">QGraphicsLineItem</text>
</a>
</g>
</g>
<!-- Node1&#45;&gt;Node16 -->
<g id="edge32_Node000001_Node000016" class="edge">
<title>Node1&#45;&gt;Node16</title>
<g id="a_edge32_Node000001_Node000016"><a xlink:title=" ">
<path fill="none" stroke="#63b8ff" d="M1941.72,-245.02C1748.63,-244.31 1292.46,-238.02 1238.5,-195 1189.11,-155.62 1184.2,-72.44 1184.68,-34.99"/>
<polygon fill="#63b8ff" stroke="#63b8ff" points="1188.19,-34.64 1184.97,-24.55 1181.19,-34.45 1188.19,-34.64"/>
</a>
</g>
</g>
<!-- Node17 -->
<g id="Node000017" class="node">
<title>Node17</title>
<g id="a_Node000017"><a xlink:title=" ">
<polygon fill="#e0e0e0" stroke="#999999" points="1308.5,-24.5 1258.5,-24.5 1258.5,-5.5 1308.5,-5.5 1308.5,-24.5"/>
<text text-anchor="middle" x="1283.5" y="-12.5" font-family="Helvetica,sans-Serif" font-size="10.00">QLineF</text>
</a>
</g>
</g>
<!-- Node1&#45;&gt;Node17 -->
<g id="edge35_Node000001_Node000017" class="edge">
<title>Node1&#45;&gt;Node17</title>
<g id="a_edge35_Node000001_Node000017"><a xlink:title=" ">
<path fill="none" stroke="#63b8ff" d="M1941.85,-245.79C1750.36,-246.67 1300.64,-243.48 1253.5,-195 1210.33,-150.6 1251.12,-68.88 1272.4,-33.31"/>
<polygon fill="#63b8ff" stroke="#63b8ff" points="1275.53,-34.91 1277.8,-24.57 1269.57,-31.23 1275.53,-34.91"/>
</a>
</g>
</g>
<!-- Node18 -->
<g id="Node000018" class="node">
<title>Node18</title>
<g id="a_Node000018"><a xlink:title=" ">
<polygon fill="#e0e0e0" stroke="#999999" points="1356,-24.5 1327,-24.5 1327,-5.5 1356,-5.5 1356,-24.5"/>
<text text-anchor="middle" x="1341.5" y="-12.5" font-family="Helvetica,sans-Serif" font-size="10.00">Qt</text>
</a>
</g>
</g>
<!-- Node1&#45;&gt;Node18 -->
<g id="edge38_Node000001_Node000018" class="edge">
<title>Node1&#45;&gt;Node18</title>
<g id="a_edge38_Node000001_Node000018"><a xlink:title=" ">
<path fill="none" stroke="#63b8ff" d="M1941.97,-245.78C1753.14,-246.62 1313.71,-243.29 1268.5,-195 1223.06,-146.46 1291.67,-65.85 1325.02,-31.87"/>
<polygon fill="#63b8ff" stroke="#63b8ff" points="1327.67,-34.18 1332.29,-24.64 1322.73,-29.21 1327.67,-34.18"/>
</a>
</g>
</g>
<!-- Node21 -->
<g id="Node000021" class="node">
<title>Node21</title>
<g id="a_Node000021"><a xlink:title=" ">
<polygon fill="#e0e0e0" stroke="#999999" points="1145.5,-85 1003.5,-85 1003.5,-66 1145.5,-66 1145.5,-85"/>
<text text-anchor="middle" x="1074.5" y="-73" font-family="Helvetica,sans-Serif" font-size="10.00">../vpatterndb/vcontainer.h</text>
</a>
</g>
</g>
<!-- Node1&#45;&gt;Node21 -->
<g id="edge55_Node000001_Node000021" class="edge">
<title>Node1&#45;&gt;Node21</title>
<g id="a_edge55_Node000001_Node000021"><a xlink:title=" ">
<path fill="none" stroke="#63b8ff" d="M1941.82,-244.23C1736.21,-241.79 1226.82,-232.04 1159.5,-195 1118.96,-172.69 1092.99,-121.85 1081.44,-94.58"/>
<polygon fill="#63b8ff" stroke="#63b8ff" points="1084.6,-93.05 1077.6,-85.09 1078.11,-95.67 1084.6,-93.05"/>
</a>
</g>
</g>
<!-- Node22 -->
<g id="Node000022" class="node">
<title>Node22</title>
<g id="a_Node000022"><a xlink:title=" ">
<polygon fill="#e0e0e0" stroke="#999999" points="1331,-195 1278,-195 1278,-176 1331,-176 1331,-195"/>
<text text-anchor="middle" x="1304.5" y="-183" font-family="Helvetica,sans-Serif" font-size="10.00">limits.h</text>
</a>
</g>
</g>
<!-- Node1&#45;&gt;Node22 -->
<g id="edge31_Node000001_Node000022" class="edge">
<title>Node1&#45;&gt;Node22</title>
<g id="a_edge31_Node000001_Node000022"><a xlink:title=" ">
<path fill="none" stroke="#63b8ff" d="M1941.86,-243.14C1813.37,-239.38 1563.06,-228.31 1341.35,-194.85"/>
<polygon fill="#63b8ff" stroke="#63b8ff" points="1341.56,-191.34 1331.14,-193.29 1340.5,-198.26 1341.56,-191.34"/>
</a>
</g>
</g>
<!-- Node23 -->
<g id="Node000023" class="node">
<title>Node23</title>
<g id="a_Node000023"><a xlink:title=" ">
<polygon fill="#e0e0e0" stroke="#999999" points="1459.5,-195 1349.5,-195 1349.5,-176 1459.5,-176 1459.5,-195"/>
<text text-anchor="middle" x="1404.5" y="-183" font-family="Helvetica,sans-Serif" font-size="10.00">QGraphicsPathItem</text>
</a>
</g>
</g>
<!-- Node1&#45;&gt;Node23 -->
<g id="edge33_Node000001_Node000023" class="edge">
<title>Node1&#45;&gt;Node23</title>
<g id="a_edge33_Node000001_Node000023"><a xlink:title=" ">
<path fill="none" stroke="#63b8ff" d="M1941.68,-238.47C1833.94,-230.02 1643.23,-214.2 1469.72,-195.09"/>
<polygon fill="#63b8ff" stroke="#63b8ff" points="1469.96,-191.6 1459.64,-193.98 1469.19,-198.55 1469.96,-191.6"/>
</a>
</g>
</g>
<!-- Node24 -->
<g id="Node000024" class="node">
<title>Node24</title>
<g id="a_Node000024"><a xlink:title=" ">
<polygon fill="#e0e0e0" stroke="#999999" points="1573,-195 1478,-195 1478,-176 1573,-176 1573,-195"/>
<text text-anchor="middle" x="1525.5" y="-183" font-family="Helvetica,sans-Serif" font-size="10.00">QGuiApplication</text>
</a>
</g>
</g>
<!-- Node1&#45;&gt;Node24 -->
<g id="edge34_Node000001_Node000024" class="edge">
<title>Node1&#45;&gt;Node24</title>
<g id="a_edge34_Node000001_Node000024"><a xlink:title=" ">
<path fill="none" stroke="#63b8ff" d="M1941.88,-236.4C1854.28,-227.38 1713.99,-212.3 1583.33,-195.2"/>
<polygon fill="#63b8ff" stroke="#63b8ff" points="1583.51,-191.69 1573.14,-193.86 1582.6,-198.63 1583.51,-191.69"/>
</a>
</g>
</g>
<!-- Node25 -->
<g id="Node000025" class="node">
<title>Node25</title>
<g id="a_Node000025"><a xlink:title=" ">
<polygon fill="#e0e0e0" stroke="#999999" points="1670,-195 1591,-195 1591,-176 1670,-176 1670,-195"/>
<text text-anchor="middle" x="1630.5" y="-183" font-family="Helvetica,sans-Serif" font-size="10.00">QPainterPath</text>
</a>
</g>
</g>
<!-- Node1&#45;&gt;Node25 -->
<g id="edge36_Node000001_Node000025" class="edge">
<title>Node1&#45;&gt;Node25</title>
<g id="a_edge36_Node000001_Node000025"><a xlink:title=" ">
<path fill="none" stroke="#63b8ff" d="M1941.94,-233.41C1873.85,-224.03 1775.85,-210.16 1680.21,-195.07"/>
<polygon fill="#63b8ff" stroke="#63b8ff" points="1680.49,-191.57 1670.06,-193.46 1679.39,-198.49 1680.49,-191.57"/>
</a>
</g>
</g>
<!-- Node26 -->
<g id="Node000026" class="node">
<title>Node26</title>
<g id="a_Node000026"><a xlink:title=" ">
<polygon fill="#e0e0e0" stroke="#999999" points="1780.5,-195 1688.5,-195 1688.5,-176 1780.5,-176 1780.5,-195"/>
<text text-anchor="middle" x="1734.5" y="-183" font-family="Helvetica,sans-Serif" font-size="10.00">QSharedPointer</text>
</a>
</g>
</g>
<!-- Node1&#45;&gt;Node26 -->
<g id="edge37_Node000001_Node000026" class="edge">
<title>Node1&#45;&gt;Node26</title>
<g id="a_edge37_Node000001_Node000026"><a xlink:title=" ">
<path fill="none" stroke="#63b8ff" d="M1957.32,-230.99C1905.11,-220.56 1834.96,-206.56 1787.42,-197.07"/>
<polygon fill="#63b8ff" stroke="#63b8ff" points="1787.83,-193.58 1777.34,-195.05 1786.46,-200.44 1787.83,-193.58"/>
</a>
</g>
</g>
<!-- Node27 -->
<g id="Node000027" class="node">
<title>Node27</title>
<g id="a_Node000027"><a xlink:title=" ">
<polygon fill="#e0e0e0" stroke="#999999" points="1880,-195 1799,-195 1799,-176 1880,-176 1880,-195"/>
<text text-anchor="middle" x="1839.5" y="-183" font-family="Helvetica,sans-Serif" font-size="10.00">QtAlgorithms</text>
</a>
</g>
</g>
<!-- Node1&#45;&gt;Node27 -->
<g id="edge39_Node000001_Node000027" class="edge">
<title>Node1&#45;&gt;Node27</title>
<g id="a_edge39_Node000001_Node000027"><a xlink:title=" ">
<path fill="none" stroke="#63b8ff" d="M1982.47,-230.99C1950.16,-220.94 1907.16,-207.55 1876.77,-198.1"/>
<polygon fill="#63b8ff" stroke="#63b8ff" points="1877.58,-194.68 1866.99,-195.05 1875.5,-201.37 1877.58,-194.68"/>
</a>
</g>
</g>
<!-- Node28 -->
<g id="Node000028" class="node">
<title>Node28</title>
<g id="a_Node000028"><a xlink:title=" ">
<polygon fill="#e0e0e0" stroke="#999999" points="1935,-195 1898,-195 1898,-176 1935,-176 1935,-195"/>
<text text-anchor="middle" x="1916.5" y="-183" font-family="Helvetica,sans-Serif" font-size="10.00">new</text>
</a>
</g>
</g>
<!-- Node1&#45;&gt;Node28 -->
<g id="edge41_Node000001_Node000028" class="edge">
<title>Node1&#45;&gt;Node28</title>
<g id="a_edge41_Node000001_Node000028"><a xlink:title=" ">
<path fill="none" stroke="#63b8ff" d="M2000.91,-230.99C1983.05,-221.58 1959.66,-209.24 1942.02,-199.95"/>
<polygon fill="#63b8ff" stroke="#63b8ff" points="1943.37,-196.71 1932.89,-195.14 1940.11,-202.9 1943.37,-196.71"/>
</a>
</g>
</g>
<!-- Node29 -->
<g id="Node000029" class="node">
<title>Node29</title>
<g id="a_Node000029"><a xlink:title=" ">
<polygon fill="#e0e0e0" stroke="#999999" points="2101.5,-195 1953.5,-195 1953.5,-176 2101.5,-176 2101.5,-195"/>
<text text-anchor="middle" x="2027.5" y="-183" font-family="Helvetica,sans-Serif" font-size="10.00">../ifc/xml/vdomdocument.h</text>
</a>
</g>
</g>
<!-- Node1&#45;&gt;Node29 -->
<g id="edge42_Node000001_Node000029" class="edge">
<title>Node1&#45;&gt;Node29</title>
<g id="a_edge42_Node000001_Node000029"><a xlink:title=" ">
<path fill="none" stroke="#63b8ff" d="M2027.5,-230.84C2027.5,-223.21 2027.5,-213.7 2027.5,-205.45"/>
<polygon fill="#63b8ff" stroke="#63b8ff" points="2031,-205.27 2027.5,-195.27 2024,-205.27 2031,-205.27"/>
</a>
</g>
</g>
<!-- Node30 -->
<g id="Node000030" class="node">
<title>Node30</title>
<g id="a_Node000030"><a xlink:title=" ">
<polygon fill="#e0e0e0" stroke="#999999" points="2237,-195 2120,-195 2120,-176 2237,-176 2237,-195"/>
<text text-anchor="middle" x="2178.5" y="-183" font-family="Helvetica,sans-Serif" font-size="10.00">../vmisc/diagnostic.h</text>
</a>
</g>
</g>
<!-- Node1&#45;&gt;Node30 -->
<g id="edge43_Node000001_Node000030" class="edge">
<title>Node1&#45;&gt;Node30</title>
<g id="a_edge43_Node000001_Node000030"><a xlink:title=" ">
<path fill="none" stroke="#63b8ff" d="M2063.67,-230.99C2088.97,-221.18 2122.46,-208.21 2146.74,-198.81"/>
<polygon fill="#63b8ff" stroke="#63b8ff" points="2148.14,-202.02 2156.2,-195.14 2145.61,-195.49 2148.14,-202.02"/>
</a>
</g>
</g>
<!-- Node31 -->
<g id="Node000031" class="node">
<title>Node31</title>
<g id="a_Node000031"><a xlink:title=" ">
<polygon fill="#e0e0e0" stroke="#999999" points="2419.5,-195 2255.5,-195 2255.5,-176 2419.5,-176 2419.5,-195"/>
<text text-anchor="middle" x="2337.5" y="-183" font-family="Helvetica,sans-Serif" font-size="10.00">../vgeometry/vabstractcurve.h</text>
</a>
</g>
</g>
<!-- Node1&#45;&gt;Node31 -->
<g id="edge44_Node000001_Node000031" class="edge">
<title>Node1&#45;&gt;Node31</title>
<g id="a_edge44_Node000001_Node000031"><a xlink:title=" ">
<path fill="none" stroke="#63b8ff" d="M2101.75,-230.99C2157.22,-220.52 2231.83,-206.44 2282.14,-196.95"/>
<polygon fill="#63b8ff" stroke="#63b8ff" points="2283,-200.35 2292.17,-195.05 2281.7,-193.47 2283,-200.35"/>
</a>
</g>
</g>
<!-- Node32 -->
<g id="Node000032" class="node">
<title>Node32</title>
<g id="a_Node000032"><a xlink:title=" ">
<polygon fill="#e0e0e0" stroke="#999999" points="2549.5,-195 2437.5,-195 2437.5,-176 2549.5,-176 2549.5,-195"/>
<text text-anchor="middle" x="2493.5" y="-183" font-family="Helvetica,sans-Serif" font-size="10.00">../vgeometry/varc.h</text>
</a>
</g>
</g>
<!-- Node1&#45;&gt;Node32 -->
<g id="edge45_Node000001_Node000032" class="edge">
<title>Node1&#45;&gt;Node32</title>
<g id="a_edge45_Node000001_Node000032"><a xlink:title=" ">
<path fill="none" stroke="#63b8ff" d="M2113.17,-234.47C2192.08,-224.73 2312.7,-209.77 2427.46,-195.13"/>
<polygon fill="#63b8ff" stroke="#63b8ff" points="2428.01,-198.59 2437.48,-193.85 2427.12,-191.64 2428.01,-198.59"/>
</a>
</g>
</g>
<!-- Node33 -->
<g id="Node000033" class="node">
<title>Node33</title>
<g id="a_Node000033"><a xlink:title=" ">
<polygon fill="#e0e0e0" stroke="#999999" points="2719.5,-195 2567.5,-195 2567.5,-176 2719.5,-176 2719.5,-195"/>
<text text-anchor="middle" x="2643.5" y="-183" font-family="Helvetica,sans-Serif" font-size="10.00">../vgeometry/vcubicbezier.h</text>
</a>
</g>
</g>
<!-- Node1&#45;&gt;Node33 -->
<g id="edge46_Node000001_Node000033" class="edge">
<title>Node1&#45;&gt;Node33</title>
<g id="a_edge46_Node000001_Node000033"><a xlink:title=" ">
<path fill="none" stroke="#63b8ff" d="M2113.04,-237.1C2215.85,-227.57 2393.88,-210.95 2556.83,-195.16"/>
<polygon fill="#63b8ff" stroke="#63b8ff" points="2557.43,-198.62 2567.05,-194.17 2556.76,-191.65 2557.43,-198.62"/>
</a>
</g>
</g>
<!-- Node34 -->
<g id="Node000034" class="node">
<title>Node34</title>
<g id="a_Node000034"><a xlink:title=" ">
<polygon fill="#e0e0e0" stroke="#999999" points="2911.5,-195 2737.5,-195 2737.5,-176 2911.5,-176 2911.5,-195"/>
<text text-anchor="middle" x="2824.5" y="-183" font-family="Helvetica,sans-Serif" font-size="10.00">../vgeometry/vcubicbezierpath.h</text>
</a>
</g>
</g>
<!-- Node1&#45;&gt;Node34 -->
<g id="edge47_Node000001_Node000034" class="edge">
<title>Node1&#45;&gt;Node34</title>
<g id="a_edge47_Node000001_Node000034"><a xlink:title=" ">
<path fill="none" stroke="#63b8ff" d="M2113.05,-239.37C2243.21,-230.7 2499.06,-213.25 2727.23,-195.09"/>
<polygon fill="#63b8ff" stroke="#63b8ff" points="2727.69,-198.56 2737.38,-194.28 2727.14,-191.59 2727.69,-198.56"/>
</a>
</g>
</g>
<!-- Node35 -->
<g id="Node000035" class="node">
<title>Node35</title>
<g id="a_Node000035"><a xlink:title=" ">
<polygon fill="#e0e0e0" stroke="#999999" points="3083.5,-195 2929.5,-195 2929.5,-176 3083.5,-176 3083.5,-195"/>
<text text-anchor="middle" x="3006.5" y="-183" font-family="Helvetica,sans-Serif" font-size="10.00">../vgeometry/vellipticalarc.h</text>
</a>
</g>
</g>
<!-- Node1&#45;&gt;Node35 -->
<g id="edge48_Node000001_Node000035" class="edge">
<title>Node1&#45;&gt;Node35</title>
<g id="a_edge48_Node000001_Node000035"><a xlink:title=" ">
<path fill="none" stroke="#63b8ff" d="M2113.16,-241.42C2270.54,-234.57 2616.53,-218.28 2918.87,-195.09"/>
<polygon fill="#63b8ff" stroke="#63b8ff" points="2919.46,-198.56 2929.16,-194.3 2918.92,-191.58 2919.46,-198.56"/>
</a>
</g>
</g>
<!-- Node36 -->
<g id="Node000036" class="node">
<title>Node36</title>
<g id="a_Node000036"><a xlink:title=" ">
<polygon fill="#e0e0e0" stroke="#999999" points="3261,-195 3102,-195 3102,-176 3261,-176 3261,-195"/>
<text text-anchor="middle" x="3181.5" y="-183" font-family="Helvetica,sans-Serif" font-size="10.00">../vgeometry/vgeometrydef.h</text>
</a>
</g>
</g>
<!-- Node1&#45;&gt;Node36 -->
<g id="edge49_Node000001_Node000036" class="edge">
<title>Node1&#45;&gt;Node36</title>
<g id="a_edge49_Node000001_Node000036"><a xlink:title=" ">
<path fill="none" stroke="#63b8ff" d="M2113.17,-242.38C2292.54,-236.6 2720.94,-221.17 3091.81,-195.01"/>
<polygon fill="#63b8ff" stroke="#63b8ff" points="3092.21,-198.49 3101.94,-194.29 3091.72,-191.51 3092.21,-198.49"/>
</a>
</g>
</g>
<!-- Node37 -->
<g id="Node000037" class="node">
<title>Node37</title>
<g id="a_Node000037"><a xlink:title=" ">
<polygon fill="#e0e0e0" stroke="#999999" points="3412,-195 3279,-195 3279,-176 3412,-176 3412,-195"/>
<text text-anchor="middle" x="3345.5" y="-183" font-family="Helvetica,sans-Serif" font-size="10.00">../vgeometry/vgobject.h</text>
</a>
</g>
</g>
<!-- Node1&#45;&gt;Node37 -->
<g id="edge50_Node000001_Node000037" class="edge">
<title>Node1&#45;&gt;Node37</title>
<g id="a_edge50_Node000001_Node000037"><a xlink:title=" ">
<path fill="none" stroke="#63b8ff" d="M2113.15,-243.7C2313.48,-240.18 2828.45,-228.47 3268.81,-195.07"/>
<polygon fill="#63b8ff" stroke="#63b8ff" points="3269.16,-198.56 3278.87,-194.31 3268.63,-191.58 3269.16,-198.56"/>
</a>
</g>
</g>
<!-- Node38 -->
<g id="Node000038" class="node">
<title>Node38</title>
<g id="a_Node000038"><a xlink:title=" ">
<polygon fill="#e0e0e0" stroke="#999999" points="3555,-195 3430,-195 3430,-176 3555,-176 3555,-195"/>
<text text-anchor="middle" x="3492.5" y="-183" font-family="Helvetica,sans-Serif" font-size="10.00">../vgeometry/vpointf.h</text>
</a>
</g>
</g>
<!-- Node1&#45;&gt;Node38 -->
<g id="edge51_Node000001_Node000038" class="edge">
<title>Node1&#45;&gt;Node38</title>
<g id="a_edge51_Node000001_Node000038"><a xlink:title=" ">
<path fill="none" stroke="#63b8ff" d="M2113.3,-244.41C2330.35,-242.37 2919.02,-233.51 3419.49,-195.09"/>
<polygon fill="#63b8ff" stroke="#63b8ff" points="3420.11,-198.55 3429.81,-194.29 3419.57,-191.57 3420.11,-198.55"/>
</a>
</g>
</g>
<!-- Node39 -->
<g id="Node000039" class="node">
<title>Node39</title>
<g id="a_Node000039"><a xlink:title=" ">
<polygon fill="#e0e0e0" stroke="#999999" points="3699.5,-195 3573.5,-195 3573.5,-176 3699.5,-176 3699.5,-195"/>
<text text-anchor="middle" x="3636.5" y="-183" font-family="Helvetica,sans-Serif" font-size="10.00">../vgeometry/vspline.h</text>
</a>
</g>
</g>
<!-- Node1&#45;&gt;Node39 -->
<g id="edge52_Node000001_Node000039" class="edge">
<title>Node1&#45;&gt;Node39</title>
<g id="a_edge52_Node000001_Node000039"><a xlink:title=" ">
<path fill="none" stroke="#63b8ff" d="M2113.03,-244.76C2344.77,-243.58 3004.29,-236.58 3563.03,-195.04"/>
<polygon fill="#63b8ff" stroke="#63b8ff" points="3563.6,-198.5 3573.31,-194.27 3563.08,-191.52 3563.6,-198.5"/>
</a>
</g>
</g>
<!-- Node40 -->
<g id="Node000040" class="node">
<title>Node40</title>
<g id="a_Node000040"><a xlink:title=" ">
<polygon fill="#e0e0e0" stroke="#999999" points="3865.5,-195 3717.5,-195 3717.5,-176 3865.5,-176 3865.5,-195"/>
<text text-anchor="middle" x="3791.5" y="-183" font-family="Helvetica,sans-Serif" font-size="10.00">../vgeometry/vsplinepath.h</text>
</a>
</g>
</g>
<!-- Node1&#45;&gt;Node40 -->
<g id="edge53_Node000001_Node000040" class="edge">
<title>Node1&#45;&gt;Node40</title>
<g id="a_edge53_Node000001_Node000040"><a xlink:title=" ">
<path fill="none" stroke="#63b8ff" d="M2113.32,-244.64C2359.66,-243.13 3090.25,-235.36 3707.32,-195.02"/>
<polygon fill="#63b8ff" stroke="#63b8ff" points="3707.56,-198.51 3717.31,-194.37 3707.1,-191.53 3707.56,-198.51"/>
</a>
</g>
</g>
<!-- Node41 -->
<g id="Node000041" class="node">
<title>Node41</title>
<g id="a_Node000041"><a xlink:title=" ">
<polygon fill="#e0e0e0" stroke="#999999" points="4051,-195 3884,-195 3884,-176 4051,-176 4051,-195"/>
<text text-anchor="middle" x="3967.5" y="-183" font-family="Helvetica,sans-Serif" font-size="10.00">../vmisc/vabstractapplication.h</text>
</a>
</g>
</g>
<!-- Node1&#45;&gt;Node41 -->
<g id="edge54_Node000001_Node000041" class="edge">
<title>Node1&#45;&gt;Node41</title>
<g id="a_edge54_Node000001_Node000041"><a xlink:title=" ">
<path fill="none" stroke="#63b8ff" d="M2113.2,-244.63C2375.14,-243.09 3188.45,-235.2 3873.79,-194.99"/>
<polygon fill="#63b8ff" stroke="#63b8ff" points="3874.09,-198.48 3883.87,-194.4 3873.68,-191.49 3874.09,-198.48"/>
</a>
</g>
</g>
<!-- Node42 -->
<g id="Node000042" class="node">
<title>Node42</title>
<g id="a_Node000042"><a xlink:title=" ">
<polygon fill="#e0e0e0" stroke="#999999" points="4251.5,-195 4069.5,-195 4069.5,-176 4251.5,-176 4251.5,-195"/>
<text text-anchor="middle" x="4160.5" y="-183" font-family="Helvetica,sans-Serif" font-size="10.00">../vwidgets/vmaingraphicsscene.h</text>
</a>
</g>
</g>
<!-- Node1&#45;&gt;Node42 -->
<g id="edge56_Node000001_Node000042" class="edge">
<title>Node1&#45;&gt;Node42</title>
<g id="a_edge56_Node000001_Node000042"><a xlink:title=" ">
<path fill="none" stroke="#63b8ff" d="M2113.28,-244.74C2392.15,-243.49 3298.51,-236.34 4059.43,-195.02"/>
<polygon fill="#63b8ff" stroke="#63b8ff" points="4059.7,-198.51 4069.5,-194.47 4059.32,-191.52 4059.7,-198.51"/>
</a>
</g>
</g>
<!-- Node43 -->
<g id="Node000043" class="node">
<title>Node43</title>
<g id="a_Node000043"><a xlink:title=" ">
<polygon fill="#e0e0e0" stroke="#999999" points="4373,-195 4270,-195 4270,-176 4373,-176 4373,-195"/>
<text text-anchor="middle" x="4321.5" y="-183" font-family="Helvetica,sans-Serif" font-size="10.00">../vmisc/logging.h</text>
</a>
</g>
</g>
<!-- Node1&#45;&gt;Node43 -->
<g id="edge58_Node000001_Node000043" class="edge">
<title>Node1&#45;&gt;Node43</title>
<g id="a_edge58_Node000001_Node000043"><a xlink:title=" ">
<path fill="none" stroke="#63b8ff" d="M2113.1,-244.41C2466.13,-241.79 3811.14,-229.74 4259.85,-194.91"/>
<polygon fill="#63b8ff" stroke="#63b8ff" points="4260.27,-198.39 4269.96,-194.11 4259.72,-191.41 4260.27,-198.39"/>
</a>
</g>
</g>
<!-- Node3 -->
<g id="Node000003" class="node">
<title>Node3</title>
<g id="a_Node000003"><a xlink:title=" ">
<polygon fill="#e0e0e0" stroke="#999999" points="193.5,-24.5 73.5,-24.5 73.5,-5.5 193.5,-5.5 193.5,-24.5"/>
<text text-anchor="middle" x="133.5" y="-12.5" font-family="Helvetica,sans-Serif" font-size="10.00">qcompilerdetection.h</text>
</a>
</g>
</g>
<!-- Node2&#45;&gt;Node3 -->
<g id="edge2_Node000002_Node000003" class="edge">
<title>Node2&#45;&gt;Node3</title>
<g id="a_edge2_Node000002_Node000003"><a xlink:title=" ">
<path fill="none" stroke="#63b8ff" d="M484.41,-181.92C437.05,-177.78 359.57,-167.14 298.5,-140 236.81,-112.58 176.55,-58.36 149.03,-31.64"/>
<polygon fill="#63b8ff" stroke="#63b8ff" points="151.45,-29.1 141.87,-24.58 146.54,-34.09 151.45,-29.1"/>
</a>
</g>
</g>
<!-- Node4 -->
<g id="Node000004" class="node">
<title>Node4</title>
<g id="a_Node000004"><a xlink:title=" ">
<polygon fill="#e0e0e0" stroke="#999999" points="261.5,-24.5 211.5,-24.5 211.5,-5.5 261.5,-5.5 261.5,-24.5"/>
<text text-anchor="middle" x="236.5" y="-12.5" font-family="Helvetica,sans-Serif" font-size="10.00">QColor</text>
</a>
</g>
</g>
<!-- Node2&#45;&gt;Node4 -->
<g id="edge3_Node000002_Node000004" class="edge">
<title>Node2&#45;&gt;Node4</title>
<g id="a_edge3_Node000002_Node000004"><a xlink:title=" ">
<path fill="none" stroke="#63b8ff" d="M484.39,-183.91C440.74,-181.4 372.94,-172.06 324.5,-140 284.1,-113.26 256.39,-61.12 243.95,-33.75"/>
<polygon fill="#63b8ff" stroke="#63b8ff" points="247.15,-32.33 239.93,-24.57 240.74,-35.14 247.15,-32.33"/>
</a>
</g>
</g>
<!-- Node5 -->
<g id="Node000005" class="node">
<title>Node5</title>
<g id="a_Node000005"><a xlink:title=" ">
<polygon fill="#e0e0e0" stroke="#999999" points="469,-24.5 380,-24.5 380,-5.5 469,-5.5 469,-24.5"/>
<text text-anchor="middle" x="424.5" y="-12.5" font-family="Helvetica,sans-Serif" font-size="10.00">QGraphicsItem</text>
</a>
</g>
</g>
<!-- Node2&#45;&gt;Node5 -->
<g id="edge4_Node000002_Node000005" class="edge">
<title>Node2&#45;&gt;Node5</title>
<g id="a_edge4_Node000002_Node000005"><a xlink:title=" ">
<path fill="none" stroke="#63b8ff" d="M525.83,-175.89C523.17,-163.31 517.24,-139.39 507.5,-121 489.14,-86.32 458.88,-51.7 440.42,-32.16"/>
<polygon fill="#63b8ff" stroke="#63b8ff" points="442.75,-29.53 433.29,-24.75 437.7,-34.38 442.75,-29.53"/>
</a>
</g>
</g>
<!-- Node6 -->
<g id="Node000006" class="node">
<title>Node6</title>
<g id="a_Node000006"><a xlink:title=" ">
<polygon fill="#e0e0e0" stroke="#999999" points="567.5,-24.5 487.5,-24.5 487.5,-5.5 567.5,-5.5 567.5,-24.5"/>
<text text-anchor="middle" x="527.5" y="-12.5" font-family="Helvetica,sans-Serif" font-size="10.00">QMetaObject</text>
</a>
</g>
</g>
<!-- Node2&#45;&gt;Node6 -->
<g id="edge5_Node000002_Node000006" class="edge">
<title>Node2&#45;&gt;Node6</title>
<g id="a_edge5_Node000002_Node000006"><a xlink:title=" ">
<path fill="none" stroke="#63b8ff" d="M531.1,-175.82C534.56,-166.99 539.53,-152.81 541.5,-140 546.49,-107.49 545.98,-98.58 541.5,-66 540.04,-55.34 536.9,-43.76 533.96,-34.43"/>
<polygon fill="#63b8ff" stroke="#63b8ff" points="537.2,-33.08 530.72,-24.7 530.56,-35.29 537.2,-33.08"/>
</a>
</g>
</g>
<!-- Node7 -->
<g id="Node000007" class="node">
<title>Node7</title>
<g id="a_Node000007"><a xlink:title=" ">
<polygon fill="#e0e0e0" stroke="#999999" points="641.5,-24.5 585.5,-24.5 585.5,-5.5 641.5,-5.5 641.5,-24.5"/>
<text text-anchor="middle" x="613.5" y="-12.5" font-family="Helvetica,sans-Serif" font-size="10.00">QObject</text>
</a>
</g>
</g>
<!-- Node2&#45;&gt;Node7 -->
<g id="edge6_Node000002_Node000007" class="edge">
<title>Node2&#45;&gt;Node7</title>
<g id="a_edge6_Node000002_Node000007"><a xlink:title=" ">
<path fill="none" stroke="#63b8ff" d="M533.93,-175.91C540.34,-167.15 550.24,-153.02 557.5,-140 577.74,-103.7 596.62,-58.72 606.44,-34.14"/>
<polygon fill="#63b8ff" stroke="#63b8ff" points="609.76,-35.25 610.18,-24.66 603.25,-32.68 609.76,-35.25"/>
</a>
</g>
</g>
<!-- Node2&#45;&gt;Node8 -->
<g id="edge7_Node000002_Node000008" class="edge">
<title>Node2&#45;&gt;Node8</title>
<g id="a_edge7_Node000002_Node000008"><a xlink:title=" ">
<path fill="none" stroke="#63b8ff" d="M484.21,-181.67C430.33,-177.16 336.08,-166.03 259.5,-140 176.64,-111.83 87.83,-56.35 48.41,-30.23"/>
<polygon fill="#63b8ff" stroke="#63b8ff" points="50.17,-27.2 39.91,-24.55 46.27,-33.01 50.17,-27.2"/>
</a>
</g>
</g>
<!-- Node9 -->
<g id="Node000009" class="node">
<title>Node9</title>
<g id="a_Node000009"><a xlink:title=" ">
<polygon fill="#e0e0e0" stroke="#999999" points="1035,-24.5 982,-24.5 982,-5.5 1035,-5.5 1035,-24.5"/>
<text text-anchor="middle" x="1008.5" y="-12.5" font-family="Helvetica,sans-Serif" font-size="10.00">QString</text>
</a>
</g>
</g>
<!-- Node2&#45;&gt;Node9 -->
<g id="edge8_Node000002_Node000009" class="edge">
<title>Node2&#45;&gt;Node9</title>
<g id="a_edge8_Node000002_Node000009"><a xlink:title=" ">
<path fill="none" stroke="#63b8ff" d="M548.28,-175.94C598.38,-155.47 730,-102.66 842.5,-66 899.5,-47.43 915.6,-48.89 972.5,-30 974.36,-29.38 976.27,-28.72 978.18,-28.04"/>
<polygon fill="#63b8ff" stroke="#63b8ff" points="979.54,-31.27 987.69,-24.5 977.1,-24.71 979.54,-31.27"/>
</a>
</g>
</g>
<!-- Node10 -->
<g id="Node000010" class="node">
<title>Node10</title>
<g id="a_Node000010"><a xlink:title=" ">
<polygon fill="#e0e0e0" stroke="#999999" points="404,-140 349,-140 349,-121 404,-121 404,-140"/>
<text text-anchor="middle" x="376.5" y="-128" font-family="Helvetica,sans-Serif" font-size="10.00">QVector</text>
</a>
</g>
</g>
<!-- Node2&#45;&gt;Node10 -->
<g id="edge9_Node000002_Node000010" class="edge">
<title>Node2&#45;&gt;Node10</title>
<g id="a_edge9_Node000002_Node000010"><a xlink:title=" ">
<path fill="none" stroke="#63b8ff" d="M503.24,-175.98C478.18,-167.19 438.87,-153.39 410.67,-143.49"/>
<polygon fill="#63b8ff" stroke="#63b8ff" points="411.8,-140.18 401.2,-140.17 409.48,-146.78 411.8,-140.18"/>
</a>
</g>
</g>
<!-- Node11 -->
<g id="Node000011" class="node">
<title>Node11</title>
<g id="a_Node000011"><a xlink:title=" ">
<polygon fill="#e0e0e0" stroke="#999999" points="1112,-24.5 1053,-24.5 1053,-5.5 1112,-5.5 1112,-24.5"/>
<text text-anchor="middle" x="1082.5" y="-12.5" font-family="Helvetica,sans-Serif" font-size="10.00">QtGlobal</text>
</a>
</g>
</g>
<!-- Node2&#45;&gt;Node11 -->
<g id="edge10_Node000002_Node000011" class="edge">
<title>Node2&#45;&gt;Node11</title>
<g id="a_edge10_Node000002_Node000011"><a xlink:title=" ">
<path fill="none" stroke="#63b8ff" d="M556.95,-175.96C587.58,-167.06 636.94,-152.66 679.5,-140 841.49,-91.81 883.03,-83.01 1043.5,-30 1045.4,-29.37 1047.34,-28.72 1049.3,-28.05"/>
<polygon fill="#63b8ff" stroke="#63b8ff" points="1050.77,-31.24 1059.06,-24.63 1048.46,-24.63 1050.77,-31.24"/>
</a>
</g>
</g>
<!-- Node12 -->
<g id="Node000012" class="node">
<title>Node12</title>
<g id="a_Node000012"><a xlink:title=" ">
<polygon fill="#e0e0e0" stroke="#999999" points="499,-140 422,-140 422,-121 499,-121 499,-140"/>
<text text-anchor="middle" x="460.5" y="-128" font-family="Helvetica,sans-Serif" font-size="10.00">../ifc/ifcdef.h</text>
</a>
</g>
</g>
<!-- Node2&#45;&gt;Node12 -->
<g id="edge11_Node000002_Node000012" class="edge">
<title>Node2&#45;&gt;Node12</title>
<g id="a_edge11_Node000002_Node000012"><a xlink:title=" ">
<path fill="none" stroke="#63b8ff" d="M516.74,-175.98C506.73,-168.07 491.61,-156.11 479.57,-146.58"/>
<polygon fill="#63b8ff" stroke="#63b8ff" points="481.47,-143.63 471.46,-140.17 477.13,-149.12 481.47,-143.63"/>
</a>
</g>
</g>
<!-- Node13 -->
<g id="Node000013" class="node">
<title>Node13</title>
<g id="a_Node000013"><a xlink:title=" ">
<polygon fill="#e0e0e0" stroke="#999999" points="361.5,-24.5 279.5,-24.5 279.5,-5.5 361.5,-5.5 361.5,-24.5"/>
<text text-anchor="middle" x="320.5" y="-12.5" font-family="Helvetica,sans-Serif" font-size="10.00">../vmisc/def.h</text>
</a>
</g>
</g>
<!-- Node2&#45;&gt;Node13 -->
<g id="edge12_Node000002_Node000013" class="edge">
<title>Node2&#45;&gt;Node13</title>
<g id="a_edge12_Node000002_Node000013"><a xlink:title=" ">
<path fill="none" stroke="#63b8ff" d="M484.22,-179.85C434.94,-173.63 358.78,-160.89 339.5,-140 312.88,-111.15 314.33,-61.45 317.51,-34.57"/>
<polygon fill="#63b8ff" stroke="#63b8ff" points="320.99,-34.96 318.91,-24.57 314.06,-33.99 320.99,-34.96"/>
</a>
</g>
</g>
<!-- Node2&#45;&gt;Node14 -->
<g id="edge13_Node000002_Node000014" class="edge">
<title>Node2&#45;&gt;Node14</title>
<g id="a_edge13_Node000002_Node000014"><a xlink:title=" ">
<path fill="none" stroke="#63b8ff" d="M570.86,-179.37C653.43,-169.6 832.96,-148.36 922.5,-137.77"/>
<polygon fill="#63b8ff" stroke="#63b8ff" points="922.92,-141.24 932.44,-136.59 922.1,-134.29 922.92,-141.24"/>
</a>
</g>
</g>
<!-- Node14&#45;&gt;Node11 -->
<g id="edge14_Node000014_Node000011" class="edge">
<title>Node14&#45;&gt;Node11</title>
<g id="a_edge14_Node000014_Node000011"><a xlink:title=" ">
<path fill="none" stroke="#63b8ff" d="M976.07,-120.76C977.36,-107.57 981.45,-82.38 994.5,-66 1007.98,-49.07 1028.87,-36.85 1046.91,-28.74"/>
<polygon fill="#63b8ff" stroke="#63b8ff" points="1048.73,-31.77 1056.57,-24.64 1046,-25.32 1048.73,-31.77"/>
</a>
</g>
</g>
<!-- Node15 -->
<g id="Node000015" class="node">
<title>Node15</title>
<g id="a_Node000015"><a xlink:href="../../d8/d51/visline_8h.html" target="_top" xlink:title=" ">
<polygon fill="white" stroke="#666666" points="754,-85 687,-85 687,-66 754,-66 754,-85"/>
<text text-anchor="middle" x="720.5" y="-73" font-family="Helvetica,sans-Serif" font-size="10.00">../visline.h</text>
</a>
</g>
</g>
<!-- Node14&#45;&gt;Node15 -->
<g id="edge15_Node000014_Node000015" class="edge">
<title>Node14&#45;&gt;Node15</title>
<g id="a_edge15_Node000014_Node000015"><a xlink:title=" ">
<path fill="none" stroke="#63b8ff" d="M934.53,-120.98C887.84,-111.28 811.83,-95.48 764.07,-85.56"/>
<polygon fill="#63b8ff" stroke="#63b8ff" points="764.54,-82.08 754.04,-83.47 763.12,-88.93 764.54,-82.08"/>
</a>
</g>
</g>
<!-- Node14&#45;&gt;Node21 -->
<g id="edge30_Node000014_Node000021" class="edge">
<title>Node14&#45;&gt;Node21</title>
<g id="a_edge30_Node000014_Node000021"><a xlink:title=" ">
<path fill="none" stroke="#63b8ff" d="M991.41,-120.98C1007.05,-112.61 1031.16,-99.7 1049.38,-89.95"/>
<polygon fill="#63b8ff" stroke="#63b8ff" points="1051.14,-92.98 1058.3,-85.17 1047.84,-86.8 1051.14,-92.98"/>
</a>
</g>
</g>
<!-- Node15&#45;&gt;Node3 -->
<g id="edge16_Node000015_Node000003" class="edge">
<title>Node15&#45;&gt;Node3</title>
<g id="a_edge16_Node000015_Node000003"><a xlink:title=" ">
<path fill="none" stroke="#63b8ff" d="M686.71,-72.94C603.85,-68.82 384.09,-56.13 202.5,-30 195.75,-29.03 188.67,-27.82 181.72,-26.51"/>
<polygon fill="#63b8ff" stroke="#63b8ff" points="182.17,-23.04 171.69,-24.56 180.83,-29.91 182.17,-23.04"/>
</a>
</g>
</g>
<!-- Node15&#45;&gt;Node4 -->
<g id="edge17_Node000015_Node000004" class="edge">
<title>Node15&#45;&gt;Node4</title>
<g id="a_edge17_Node000015_Node000004"><a xlink:title=" ">
<path fill="none" stroke="#63b8ff" d="M686.91,-74.5C611.33,-73.78 422.65,-67.97 270.5,-30 268.34,-29.46 266.13,-28.81 263.93,-28.08"/>
<polygon fill="#63b8ff" stroke="#63b8ff" points="265.11,-24.79 254.52,-24.56 262.66,-31.34 265.11,-24.79"/>
</a>
</g>
</g>
<!-- Node15&#45;&gt;Node5 -->
<g id="edge18_Node000015_Node000005" class="edge">
<title>Node15&#45;&gt;Node5</title>
<g id="a_edge18_Node000015_Node000005"><a xlink:title=" ">
<path fill="none" stroke="#63b8ff" d="M686.68,-69.07C639.75,-61.36 552.33,-46.34 478.5,-30 474.35,-29.08 470.04,-28.07 465.74,-27.02"/>
<polygon fill="#63b8ff" stroke="#63b8ff" points="466.37,-23.57 455.82,-24.53 464.66,-30.36 466.37,-23.57"/>
</a>
</g>
</g>
<!-- Node15&#45;&gt;Node6 -->
<g id="edge21_Node000015_Node000006" class="edge">
<title>Node15&#45;&gt;Node6</title>
<g id="a_edge21_Node000015_Node000006"><a xlink:title=" ">
<path fill="none" stroke="#63b8ff" d="M692.44,-65.99C658.99,-55.86 602.94,-38.87 565.6,-27.55"/>
<polygon fill="#63b8ff" stroke="#63b8ff" points="566.18,-24.07 555.6,-24.52 564.15,-30.77 566.18,-24.07"/>
</a>
</g>
</g>
<!-- Node15&#45;&gt;Node7 -->
<g id="edge22_Node000015_Node000007" class="edge">
<title>Node15&#45;&gt;Node7</title>
<g id="a_edge22_Node000015_Node000007"><a xlink:title=" ">
<path fill="none" stroke="#63b8ff" d="M704.71,-65.87C687.17,-56.28 658.62,-40.67 638.13,-29.47"/>
<polygon fill="#63b8ff" stroke="#63b8ff" points="639.81,-26.39 629.35,-24.67 636.45,-32.54 639.81,-26.39"/>
</a>
</g>
</g>
<!-- Node15&#45;&gt;Node8 -->
<g id="edge23_Node000015_Node000008" class="edge">
<title>Node15&#45;&gt;Node8</title>
<g id="a_edge23_Node000015_Node000008"><a xlink:title=" ">
<path fill="none" stroke="#63b8ff" d="M686.69,-73.52C570.05,-69.92 185.09,-56.3 64.5,-30 61.82,-29.42 59.08,-28.68 56.37,-27.84"/>
<polygon fill="#63b8ff" stroke="#63b8ff" points="57.36,-24.48 46.76,-24.51 55.06,-31.09 57.36,-24.48"/>
</a>
</g>
</g>
<!-- Node15&#45;&gt;Node9 -->
<g id="edge24_Node000015_Node000009" class="edge">
<title>Node15&#45;&gt;Node9</title>
<g id="a_edge24_Node000015_Node000009"><a xlink:title=" ">
<path fill="none" stroke="#63b8ff" d="M754.4,-70.66C803.23,-64.65 895.92,-51.43 972.5,-30 974.65,-29.4 976.85,-28.72 979.05,-27.98"/>
<polygon fill="#63b8ff" stroke="#63b8ff" points="980.33,-31.24 988.55,-24.56 977.96,-24.66 980.33,-31.24"/>
</a>
</g>
</g>
<!-- Node15&#45;&gt;Node11 -->
<g id="edge26_Node000015_Node000011" class="edge">
<title>Node15&#45;&gt;Node11</title>
<g id="a_edge26_Node000015_Node000011"><a xlink:title=" ">
<path fill="none" stroke="#63b8ff" d="M754.41,-72.16C813.73,-67.54 939.88,-55.44 1043.5,-30 1046.16,-29.35 1048.89,-28.58 1051.61,-27.74"/>
<polygon fill="#63b8ff" stroke="#63b8ff" points="1052.91,-31 1061.29,-24.52 1050.7,-24.36 1052.91,-31"/>
</a>
</g>
</g>
<!-- Node15&#45;&gt;Node13 -->
<g id="edge28_Node000015_Node000013" class="edge">
<title>Node15&#45;&gt;Node13</title>
<g id="a_edge28_Node000015_Node000013"><a xlink:title=" ">
<path fill="none" stroke="#63b8ff" d="M686.94,-71.88C624.28,-66.63 485.47,-53.27 370.5,-30 366.38,-29.16 362.09,-28.17 357.84,-27.1"/>
<polygon fill="#63b8ff" stroke="#63b8ff" points="358.66,-23.69 348.09,-24.51 356.86,-30.46 358.66,-23.69"/>
</a>
</g>
</g>
<!-- Node15&#45;&gt;Node16 -->
<g id="edge19_Node000015_Node000016" class="edge">
<title>Node15&#45;&gt;Node16</title>
<g id="a_edge19_Node000015_Node000016"><a xlink:title=" ">
<path fill="none" stroke="#63b8ff" d="M754.11,-71.92C823.08,-66.37 985.5,-51.99 1120.5,-30 1126.63,-29 1133.06,-27.8 1139.38,-26.54"/>
<polygon fill="#63b8ff" stroke="#63b8ff" points="1140.1,-29.96 1149.18,-24.5 1138.68,-23.11 1140.1,-29.96"/>
</a>
</g>
</g>
<!-- Node15&#45;&gt;Node17 -->
<g id="edge20_Node000015_Node000017" class="edge">
<title>Node15&#45;&gt;Node17</title>
<g id="a_edge20_Node000015_Node000017"><a xlink:title=" ">
<path fill="none" stroke="#63b8ff" d="M754.31,-73.01C855.49,-68.34 1154.77,-52.91 1249.5,-30 1251.67,-29.48 1253.88,-28.83 1256.08,-28.12"/>
<polygon fill="#63b8ff" stroke="#63b8ff" points="1257.34,-31.38 1265.49,-24.61 1254.9,-24.82 1257.34,-31.38"/>
</a>
</g>
</g>
<!-- Node15&#45;&gt;Node18 -->
<g id="edge25_Node000015_Node000018" class="edge">
<title>Node15&#45;&gt;Node18</title>
<g id="a_edge25_Node000015_Node000018"><a xlink:title=" ">
<path fill="none" stroke="#63b8ff" d="M754.09,-73.98C863.86,-71.96 1211.05,-63.07 1317.5,-30 1318.39,-29.72 1319.28,-29.41 1320.16,-29.07"/>
<polygon fill="#63b8ff" stroke="#63b8ff" points="1321.89,-32.12 1329.3,-24.55 1318.78,-25.85 1321.89,-32.12"/>
</a>
</g>
</g>
<!-- Node19 -->
<g id="Node000019" class="node">
<title>Node19</title>
<g id="a_Node000019"><a xlink:title=" ">
<polygon fill="#e0e0e0" stroke="#999999" points="781,-30 660,-30 660,0 781,0 781,-30"/>
<text text-anchor="start" x="668" y="-18" font-family="Helvetica,sans-Serif" font-size="10.00">../vtools/visualization</text>
<text text-anchor="middle" x="720.5" y="-7" font-family="Helvetica,sans-Serif" font-size="10.00">/visualization.h</text>
</a>
</g>
</g>
<!-- Node15&#45;&gt;Node19 -->
<g id="edge27_Node000015_Node000019" class="edge">
<title>Node15&#45;&gt;Node19</title>
<g id="a_edge27_Node000015_Node000019"><a xlink:title=" ">
<path fill="none" stroke="#63b8ff" d="M720.5,-65.87C720.5,-59.11 720.5,-49.35 720.5,-40.26"/>
<polygon fill="#63b8ff" stroke="#63b8ff" points="724,-40.11 720.5,-30.11 717,-40.11 724,-40.11"/>
</a>
</g>
</g>
<!-- Node20 -->
<g id="Node000020" class="node">
<title>Node20</title>
<g id="a_Node000020"><a xlink:title=" ">
<polygon fill="#e0e0e0" stroke="#999999" points="963.5,-24.5 799.5,-24.5 799.5,-5.5 963.5,-5.5 963.5,-24.5"/>
<text text-anchor="middle" x="881.5" y="-12.5" font-family="Helvetica,sans-Serif" font-size="10.00">../vwidgets/scalesceneitems.h</text>
</a>
</g>
</g>
<!-- Node15&#45;&gt;Node20 -->
<g id="edge29_Node000015_Node000020" class="edge">
<title>Node15&#45;&gt;Node20</title>
<g id="a_edge29_Node000015_Node000020"><a xlink:title=" ">
<path fill="none" stroke="#63b8ff" d="M743.91,-65.99C771.45,-55.99 817.37,-39.3 848.51,-27.99"/>
<polygon fill="#63b8ff" stroke="#63b8ff" points="849.86,-31.22 858.06,-24.52 847.47,-24.64 849.86,-31.22"/>
</a>
</g>
</g>
</g>
</svg>
