<?xml version="1.0" encoding="UTF-8" standalone="no"?>
<!DOCTYPE svg PUBLIC "-//W3C//DTD SVG 1.1//EN"
 "http://www.w3.org/Graphics/SVG/1.1/DTD/svg11.dtd">
<!-- Generated by graphviz version 2.43.0 (0)
 -->
<!-- Title: src/libs/vmisc/vsettings.h Pages: 1 -->
<svg width="7565pt" height="229pt"
 viewBox="0.00 0.00 7564.50 229.00" xmlns="http://www.w3.org/2000/svg" xmlns:xlink="http://www.w3.org/1999/xlink">
<g id="graph0" class="graph" transform="scale(1 1) rotate(0) translate(4 225)">
<title>src/libs/vmisc/vsettings.h</title>
<polygon fill="white" stroke="transparent" points="-4,4 -4,-225 7560.5,-225 7560.5,4 -4,4"/>
<!-- Node1 -->
<g id="node1" class="node">
<title>Node1</title>
<g id="a_node1"><a xlink:title=" ">
<polygon fill="#bfbfbf" stroke="black" points="5828.5,-201.5 5828.5,-220.5 5968.5,-220.5 5968.5,-201.5 5828.5,-201.5"/>
<text text-anchor="middle" x="5898.5" y="-208.5" font-family="Helvetica,sans-Serif" font-size="10.00">src/libs/vmisc/vsettings.h</text>
</a>
</g>
</g>
<!-- Node2 -->
<g id="node2" class="node">
<title>Node2</title>
<g id="a_node2"><a xlink:href="../../d9/d02/vapplication_8h.html" target="_top" xlink:title=" ">
<polygon fill="white" stroke="black" points="2223,-134.5 2223,-164.5 2350,-164.5 2350,-134.5 2223,-134.5"/>
<text text-anchor="start" x="2231" y="-152.5" font-family="Helvetica,sans-Serif" font-size="10.00">src/app/seamly2d/core</text>
<text text-anchor="middle" x="2286.5" y="-141.5" font-family="Helvetica,sans-Serif" font-size="10.00">/vapplication.h</text>
</a>
</g>
</g>
<!-- Node1&#45;&gt;Node2 -->
<g id="edge1" class="edge">
<title>Node1&#45;&gt;Node2</title>
<path fill="none" stroke="midnightblue" d="M5818.29,-208.68C5332.18,-200.67 2786.96,-158.74 2350.29,-151.55"/>
<polygon fill="midnightblue" stroke="midnightblue" points="5818.31,-212.18 5828.37,-208.84 5818.43,-205.18 5818.31,-212.18"/>
</g>
<!-- Node26 -->
<g id="node26" class="node">
<title>Node26</title>
<g id="a_node26"><a xlink:href="../../d5/d74/vabstractapplication_8h.html" target="_top" xlink:title=" ">
<polygon fill="white" stroke="red" points="5739,-140 5739,-159 5934,-159 5934,-140 5739,-140"/>
<text text-anchor="middle" x="5836.5" y="-147" font-family="Helvetica,sans-Serif" font-size="10.00">src/libs/vmisc/vabstractapplication.h</text>
</a>
</g>
</g>
<!-- Node1&#45;&gt;Node26 -->
<g id="edge25" class="edge">
<title>Node1&#45;&gt;Node26</title>
<path fill="none" stroke="midnightblue" d="M5882.17,-194.32C5870.39,-183.02 5854.94,-168.19 5845.37,-159.01"/>
<polygon fill="midnightblue" stroke="midnightblue" points="5879.98,-197.08 5889.62,-201.48 5884.83,-192.03 5879.98,-197.08"/>
</g>
<!-- Node60 -->
<g id="node49" class="node">
<title>Node60</title>
<g id="a_node49"><a xlink:href="../../d2/d31/vmaingraphicsview_8cpp.html" target="_top" xlink:title=" ">
<polygon fill="white" stroke="black" points="7340.5,-73 7340.5,-92 7556.5,-92 7556.5,-73 7340.5,-73"/>
<text text-anchor="middle" x="7448.5" y="-80" font-family="Helvetica,sans-Serif" font-size="10.00">src/libs/vwidgets/vmaingraphicsview.cpp</text>
</a>
</g>
</g>
<!-- Node1&#45;&gt;Node60 -->
<g id="edge51" class="edge">
<title>Node1&#45;&gt;Node60</title>
<path fill="none" stroke="midnightblue" d="M5914.1,-194.4C5935.56,-173.14 5972.46,-137.28 5980.5,-134 6119.56,-77.32 7181.76,-109.25 7331.5,-98 7350.18,-96.6 7370.45,-94.34 7388.79,-92.03"/>
<polygon fill="midnightblue" stroke="midnightblue" points="5911.6,-191.96 5906.98,-201.49 5916.54,-196.92 5911.6,-191.96"/>
</g>
<!-- Node66 -->
<g id="node50" class="node">
<title>Node66</title>
<g id="a_node50"><a xlink:href="../../db/d28/vsettings_8cpp.html" target="_top" xlink:title=" ">
<polygon fill="white" stroke="black" points="5989.5,-140 5989.5,-159 6141.5,-159 6141.5,-140 5989.5,-140"/>
<text text-anchor="middle" x="6065.5" y="-147" font-family="Helvetica,sans-Serif" font-size="10.00">src/libs/vmisc/vsettings.cpp</text>
</a>
</g>
</g>
<!-- Node1&#45;&gt;Node66 -->
<g id="edge50" class="edge">
<title>Node1&#45;&gt;Node66</title>
<path fill="none" stroke="midnightblue" d="M5931.95,-198.08C5964.41,-186.52 6012.87,-169.25 6041.62,-159.01"/>
<polygon fill="midnightblue" stroke="midnightblue" points="5930.67,-194.82 5922.43,-201.48 5933.02,-201.42 5930.67,-194.82"/>
</g>
<!-- Node3 -->
<g id="node3" class="node">
<title>Node3</title>
<g id="a_node3"><a xlink:href="../../d3/dd8/vapplication_8cpp.html" target="_top" xlink:title=" ">
<polygon fill="white" stroke="black" points="0,-67.5 0,-97.5 127,-97.5 127,-67.5 0,-67.5"/>
<text text-anchor="start" x="8" y="-85.5" font-family="Helvetica,sans-Serif" font-size="10.00">src/app/seamly2d/core</text>
<text text-anchor="middle" x="63.5" y="-74.5" font-family="Helvetica,sans-Serif" font-size="10.00">/vapplication.cpp</text>
</a>
</g>
</g>
<!-- Node2&#45;&gt;Node3 -->
<g id="edge2" class="edge">
<title>Node2&#45;&gt;Node3</title>
<path fill="none" stroke="midnightblue" d="M2212.54,-148.48C1883.62,-148.11 551.7,-143.77 136.5,-98 133.42,-97.66 130.27,-97.26 127.1,-96.8"/>
<polygon fill="midnightblue" stroke="midnightblue" points="2212.89,-151.98 2222.89,-148.49 2212.9,-144.98 2212.89,-151.98"/>
</g>
<!-- Node4 -->
<g id="node4" class="node">
<title>Node4</title>
<g id="a_node4"><a xlink:href="../../d2/d00/vtooloptionspropertybrowser_8cpp.html" target="_top" xlink:title=" ">
<polygon fill="white" stroke="black" points="145.5,-67.5 145.5,-97.5 325.5,-97.5 325.5,-67.5 145.5,-67.5"/>
<text text-anchor="start" x="153.5" y="-85.5" font-family="Helvetica,sans-Serif" font-size="10.00">src/app/seamly2d/core</text>
<text text-anchor="middle" x="235.5" y="-74.5" font-family="Helvetica,sans-Serif" font-size="10.00">/vtooloptionspropertybrowser.cpp</text>
</a>
</g>
</g>
<!-- Node2&#45;&gt;Node4 -->
<g id="edge3" class="edge">
<title>Node2&#45;&gt;Node4</title>
<path fill="none" stroke="midnightblue" d="M2212.62,-147.77C1903.12,-144.54 709.59,-130.2 334.5,-98 331.56,-97.75 328.57,-97.46 325.55,-97.16"/>
<polygon fill="midnightblue" stroke="midnightblue" points="2212.78,-151.27 2222.82,-147.88 2212.86,-144.27 2212.78,-151.27"/>
</g>
<!-- Node5 -->
<g id="node5" class="node">
<title>Node5</title>
<g id="a_node5"><a xlink:href="../../d7/dfa/calculator__dialog_8cpp.html" target="_top" xlink:title=" ">
<polygon fill="white" stroke="black" points="344,-67.5 344,-97.5 485,-97.5 485,-67.5 344,-67.5"/>
<text text-anchor="start" x="352" y="-85.5" font-family="Helvetica,sans-Serif" font-size="10.00">src/app/seamly2d/dialogs</text>
<text text-anchor="middle" x="414.5" y="-74.5" font-family="Helvetica,sans-Serif" font-size="10.00">/calculator_dialog.cpp</text>
</a>
</g>
</g>
<!-- Node2&#45;&gt;Node5 -->
<g id="edge4" class="edge">
<title>Node2&#45;&gt;Node5</title>
<path fill="none" stroke="midnightblue" d="M2212.86,-147.93C1919.71,-145.44 835.15,-133.95 493.5,-98 490.73,-97.71 487.9,-97.37 485.06,-97"/>
<polygon fill="midnightblue" stroke="midnightblue" points="2212.92,-151.43 2222.95,-148.02 2212.98,-144.43 2212.92,-151.43"/>
</g>
<!-- Node6 -->
<g id="node6" class="node">
<title>Node6</title>
<g id="a_node6"><a xlink:href="../../d2/d2d/preferencesconfigurationpage_8cpp.html" target="_top" xlink:title=" ">
<polygon fill="white" stroke="black" points="503,-67.5 503,-97.5 750,-97.5 750,-67.5 503,-67.5"/>
<text text-anchor="start" x="511" y="-85.5" font-family="Helvetica,sans-Serif" font-size="10.00">src/app/seamly2d/dialogs</text>
<text text-anchor="middle" x="626.5" y="-74.5" font-family="Helvetica,sans-Serif" font-size="10.00">/configpages/preferencesconfigurationpage.cpp</text>
</a>
</g>
</g>
<!-- Node2&#45;&gt;Node6 -->
<g id="edge5" class="edge">
<title>Node2&#45;&gt;Node6</title>
<path fill="none" stroke="midnightblue" d="M2212.6,-148.03C1991.7,-146.21 1317.19,-137.57 759.5,-98 756.37,-97.78 753.2,-97.54 750.01,-97.29"/>
<polygon fill="midnightblue" stroke="midnightblue" points="2212.74,-151.53 2222.77,-148.11 2212.8,-144.53 2212.74,-151.53"/>
</g>
<!-- Node7 -->
<g id="node7" class="node">
<title>Node7</title>
<g id="a_node7"><a xlink:href="../../d9/d70/preferencesgraphicsviewpage_8cpp.html" target="_top" xlink:title=" ">
<polygon fill="white" stroke="black" points="768.5,-67.5 768.5,-97.5 1016.5,-97.5 1016.5,-67.5 768.5,-67.5"/>
<text text-anchor="start" x="776.5" y="-85.5" font-family="Helvetica,sans-Serif" font-size="10.00">src/app/seamly2d/dialogs</text>
<text text-anchor="middle" x="892.5" y="-74.5" font-family="Helvetica,sans-Serif" font-size="10.00">/configpages/preferencesgraphicsviewpage.cpp</text>
</a>
</g>
</g>
<!-- Node2&#45;&gt;Node7 -->
<g id="edge6" class="edge">
<title>Node2&#45;&gt;Node7</title>
<path fill="none" stroke="midnightblue" d="M2212.67,-147.31C2018.18,-143.8 1475.74,-131.52 1025.5,-98 1022.6,-97.78 1019.67,-97.56 1016.72,-97.31"/>
<polygon fill="midnightblue" stroke="midnightblue" points="2212.71,-150.81 2222.77,-147.49 2212.84,-143.81 2212.71,-150.81"/>
</g>
<!-- Node8 -->
<g id="node8" class="node">
<title>Node8</title>
<g id="a_node8"><a xlink:href="../../dc/d20/preferencespathpage_8cpp.html" target="_top" xlink:title=" ">
<polygon fill="white" stroke="black" points="1035,-67.5 1035,-97.5 1240,-97.5 1240,-67.5 1035,-67.5"/>
<text text-anchor="start" x="1043" y="-85.5" font-family="Helvetica,sans-Serif" font-size="10.00">src/app/seamly2d/dialogs</text>
<text text-anchor="middle" x="1137.5" y="-74.5" font-family="Helvetica,sans-Serif" font-size="10.00">/configpages/preferencespathpage.cpp</text>
</a>
</g>
</g>
<!-- Node2&#45;&gt;Node8 -->
<g id="edge7" class="edge">
<title>Node2&#45;&gt;Node8</title>
<path fill="none" stroke="midnightblue" d="M2212.79,-146.97C2042.62,-142.99 1609.3,-130.29 1248.5,-98 1245.79,-97.76 1243.04,-97.5 1240.28,-97.22"/>
<polygon fill="midnightblue" stroke="midnightblue" points="2212.81,-150.47 2222.89,-147.2 2212.97,-143.47 2212.81,-150.47"/>
</g>
<!-- Node9 -->
<g id="node9" class="node">
<title>Node9</title>
<g id="a_node9"><a xlink:href="../../dd/dc2/decimalchart__dialog_8cpp.html" target="_top" xlink:title=" ">
<polygon fill="white" stroke="black" points="1258,-67.5 1258,-97.5 1399,-97.5 1399,-67.5 1258,-67.5"/>
<text text-anchor="start" x="1266" y="-85.5" font-family="Helvetica,sans-Serif" font-size="10.00">src/app/seamly2d/dialogs</text>
<text text-anchor="middle" x="1328.5" y="-74.5" font-family="Helvetica,sans-Serif" font-size="10.00">/decimalchart_dialog.cpp</text>
</a>
</g>
</g>
<!-- Node2&#45;&gt;Node9 -->
<g id="edge8" class="edge">
<title>Node2&#45;&gt;Node9</title>
<path fill="none" stroke="midnightblue" d="M2212.82,-147.29C2061.56,-144.14 1705.29,-133.3 1408.5,-98 1405.42,-97.63 1402.27,-97.22 1399.1,-96.78"/>
<polygon fill="midnightblue" stroke="midnightblue" points="2212.84,-150.79 2222.91,-147.5 2212.99,-143.79 2212.84,-150.79"/>
</g>
<!-- Node10 -->
<g id="node10" class="node">
<title>Node10</title>
<g id="a_node10"><a xlink:href="../../dc/d63/preferencespatternpage_8cpp.html" target="_top" xlink:title=" ">
<polygon fill="white" stroke="black" points="1417.5,-67.5 1417.5,-97.5 1635.5,-97.5 1635.5,-67.5 1417.5,-67.5"/>
<text text-anchor="start" x="1425.5" y="-85.5" font-family="Helvetica,sans-Serif" font-size="10.00">src/app/seamly2d/dialogs</text>
<text text-anchor="middle" x="1526.5" y="-74.5" font-family="Helvetica,sans-Serif" font-size="10.00">/configpages/preferencespatternpage.cpp</text>
</a>
</g>
</g>
<!-- Node2&#45;&gt;Node10 -->
<g id="edge9" class="edge">
<title>Node2&#45;&gt;Node10</title>
<path fill="none" stroke="midnightblue" d="M2212.49,-143.74C2092.92,-135.8 1849.87,-118.69 1644.5,-98 1641.62,-97.71 1638.71,-97.41 1635.77,-97.1"/>
<polygon fill="midnightblue" stroke="midnightblue" points="2212.42,-147.24 2222.63,-144.41 2212.88,-140.25 2212.42,-147.24"/>
</g>
<!-- Node11 -->
<g id="node11" class="node">
<title>Node11</title>
<g id="a_node11"><a xlink:href="../../dd/d64/dialogaboutapp_8cpp.html" target="_top" xlink:title=" ">
<polygon fill="white" stroke="black" points="1654,-67.5 1654,-97.5 1795,-97.5 1795,-67.5 1654,-67.5"/>
<text text-anchor="start" x="1662" y="-85.5" font-family="Helvetica,sans-Serif" font-size="10.00">src/app/seamly2d/dialogs</text>
<text text-anchor="middle" x="1724.5" y="-74.5" font-family="Helvetica,sans-Serif" font-size="10.00">/dialogaboutapp.cpp</text>
</a>
</g>
</g>
<!-- Node2&#45;&gt;Node11 -->
<g id="edge10" class="edge">
<title>Node2&#45;&gt;Node11</title>
<path fill="none" stroke="midnightblue" d="M2212.55,-142.56C2117.59,-134.52 1947.83,-118.76 1803.5,-98 1800.74,-97.6 1797.93,-97.18 1795.09,-96.74"/>
<polygon fill="midnightblue" stroke="midnightblue" points="2212.37,-146.06 2222.63,-143.41 2212.96,-139.08 2212.37,-146.06"/>
</g>
<!-- Node12 -->
<g id="node12" class="node">
<title>Node12</title>
<g id="a_node12"><a xlink:href="../../d6/d89/dialoglayoutprogress_8cpp.html" target="_top" xlink:title=" ">
<polygon fill="white" stroke="black" points="1813,-67.5 1813,-97.5 1956,-97.5 1956,-67.5 1813,-67.5"/>
<text text-anchor="start" x="1821" y="-85.5" font-family="Helvetica,sans-Serif" font-size="10.00">src/app/seamly2d/dialogs</text>
<text text-anchor="middle" x="1884.5" y="-74.5" font-family="Helvetica,sans-Serif" font-size="10.00">/dialoglayoutprogress.cpp</text>
</a>
</g>
</g>
<!-- Node2&#45;&gt;Node12 -->
<g id="edge11" class="edge">
<title>Node2&#45;&gt;Node12</title>
<path fill="none" stroke="midnightblue" d="M2212.69,-137.43C2147.37,-127.52 2049.5,-112.37 1964.5,-98 1961.72,-97.53 1958.88,-97.04 1956.01,-96.55"/>
<polygon fill="midnightblue" stroke="midnightblue" points="2212.48,-140.94 2222.89,-138.98 2213.52,-134.02 2212.48,-140.94"/>
</g>
<!-- Node13 -->
<g id="node13" class="node">
<title>Node13</title>
<g id="a_node13"><a xlink:href="../../db/def/dialoglayoutsettings_8cpp.html" target="_top" xlink:title=" ">
<polygon fill="white" stroke="black" points="1974,-67.5 1974,-97.5 2115,-97.5 2115,-67.5 1974,-67.5"/>
<text text-anchor="start" x="1982" y="-85.5" font-family="Helvetica,sans-Serif" font-size="10.00">src/app/seamly2d/dialogs</text>
<text text-anchor="middle" x="2044.5" y="-74.5" font-family="Helvetica,sans-Serif" font-size="10.00">/dialoglayoutsettings.cpp</text>
</a>
</g>
</g>
<!-- Node2&#45;&gt;Node13 -->
<g id="edge12" class="edge">
<title>Node2&#45;&gt;Node13</title>
<path fill="none" stroke="midnightblue" d="M2224.51,-131.85C2185.05,-121.25 2134.51,-107.68 2097.04,-97.61"/>
<polygon fill="midnightblue" stroke="midnightblue" points="2223.72,-135.26 2234.29,-134.48 2225.54,-128.5 2223.72,-135.26"/>
</g>
<!-- Node14 -->
<g id="node14" class="node">
<title>Node14</title>
<g id="a_node14"><a xlink:href="../../de/d87/dialognewpattern_8cpp.html" target="_top" xlink:title=" ">
<polygon fill="white" stroke="black" points="2133,-67.5 2133,-97.5 2274,-97.5 2274,-67.5 2133,-67.5"/>
<text text-anchor="start" x="2141" y="-85.5" font-family="Helvetica,sans-Serif" font-size="10.00">src/app/seamly2d/dialogs</text>
<text text-anchor="middle" x="2203.5" y="-74.5" font-family="Helvetica,sans-Serif" font-size="10.00">/dialognewpattern.cpp</text>
</a>
</g>
</g>
<!-- Node2&#45;&gt;Node14 -->
<g id="edge13" class="edge">
<title>Node2&#45;&gt;Node14</title>
<path fill="none" stroke="midnightblue" d="M2260.54,-128.17C2247.85,-118.23 2232.89,-106.51 2221.47,-97.58"/>
<polygon fill="midnightblue" stroke="midnightblue" points="2258.46,-130.99 2268.49,-134.4 2262.78,-125.47 2258.46,-130.99"/>
</g>
<!-- Node15 -->
<g id="node15" class="node">
<title>Node15</title>
<g id="a_node15"><a xlink:href="../../d5/d18/dialogpatternproperties_8cpp.html" target="_top" xlink:title=" ">
<polygon fill="white" stroke="black" points="2292,-67.5 2292,-97.5 2447,-97.5 2447,-67.5 2292,-67.5"/>
<text text-anchor="start" x="2300" y="-85.5" font-family="Helvetica,sans-Serif" font-size="10.00">src/app/seamly2d/dialogs</text>
<text text-anchor="middle" x="2369.5" y="-74.5" font-family="Helvetica,sans-Serif" font-size="10.00">/dialogpatternproperties.cpp</text>
</a>
</g>
</g>
<!-- Node2&#45;&gt;Node15 -->
<g id="edge14" class="edge">
<title>Node2&#45;&gt;Node15</title>
<path fill="none" stroke="midnightblue" d="M2312.46,-128.17C2325.15,-118.23 2340.11,-106.51 2351.53,-97.58"/>
<polygon fill="midnightblue" stroke="midnightblue" points="2310.22,-125.47 2304.51,-134.4 2314.54,-130.99 2310.22,-125.47"/>
</g>
<!-- Node16 -->
<g id="node16" class="node">
<title>Node16</title>
<g id="a_node16"><a xlink:href="../../d5/dc5/dialogpreferences_8cpp.html" target="_top" xlink:title=" ">
<polygon fill="white" stroke="black" points="2465,-67.5 2465,-97.5 2606,-97.5 2606,-67.5 2465,-67.5"/>
<text text-anchor="start" x="2473" y="-85.5" font-family="Helvetica,sans-Serif" font-size="10.00">src/app/seamly2d/dialogs</text>
<text text-anchor="middle" x="2535.5" y="-74.5" font-family="Helvetica,sans-Serif" font-size="10.00">/dialogpreferences.cpp</text>
</a>
</g>
</g>
<!-- Node2&#45;&gt;Node16 -->
<g id="edge15" class="edge">
<title>Node2&#45;&gt;Node16</title>
<path fill="none" stroke="midnightblue" d="M2350.03,-131.92C2390.66,-121.31 2442.8,-107.7 2481.44,-97.61"/>
<polygon fill="midnightblue" stroke="midnightblue" points="2349.01,-128.56 2340.22,-134.48 2350.78,-135.34 2349.01,-128.56"/>
</g>
<!-- Node17 -->
<g id="node17" class="node">
<title>Node17</title>
<g id="a_node17"><a xlink:href="../../dd/d54/export__layout__dialog_8cpp.html" target="_top" xlink:title=" ">
<polygon fill="white" stroke="black" points="2624,-67.5 2624,-97.5 2767,-97.5 2767,-67.5 2624,-67.5"/>
<text text-anchor="start" x="2632" y="-85.5" font-family="Helvetica,sans-Serif" font-size="10.00">src/app/seamly2d/dialogs</text>
<text text-anchor="middle" x="2695.5" y="-74.5" font-family="Helvetica,sans-Serif" font-size="10.00">/export_layout_dialog.cpp</text>
</a>
</g>
</g>
<!-- Node2&#45;&gt;Node17 -->
<g id="edge16" class="edge">
<title>Node2&#45;&gt;Node17</title>
<path fill="none" stroke="midnightblue" d="M2360.04,-137.7C2426.56,-127.81 2527.2,-112.53 2614.5,-98 2617.6,-97.48 2620.77,-96.95 2623.96,-96.4"/>
<polygon fill="midnightblue" stroke="midnightblue" points="2359.44,-134.25 2350.07,-139.18 2360.47,-141.18 2359.44,-134.25"/>
</g>
<!-- Node18 -->
<g id="node18" class="node">
<title>Node18</title>
<g id="a_node18"><a xlink:href="../../db/d5c/groups__widget_8cpp.html" target="_top" xlink:title=" ">
<polygon fill="white" stroke="black" points="2785,-67.5 2785,-97.5 2926,-97.5 2926,-67.5 2785,-67.5"/>
<text text-anchor="start" x="2793" y="-85.5" font-family="Helvetica,sans-Serif" font-size="10.00">src/app/seamly2d/dialogs</text>
<text text-anchor="middle" x="2855.5" y="-74.5" font-family="Helvetica,sans-Serif" font-size="10.00">/groups_widget.cpp</text>
</a>
</g>
</g>
<!-- Node2&#45;&gt;Node18 -->
<g id="edge17" class="edge">
<title>Node2&#45;&gt;Node18</title>
<path fill="none" stroke="midnightblue" d="M2360.56,-142.63C2456.54,-134.61 2628.95,-118.82 2775.5,-98 2778.57,-97.56 2781.71,-97.09 2784.88,-96.6"/>
<polygon fill="midnightblue" stroke="midnightblue" points="2360.05,-139.15 2350.38,-143.47 2360.63,-146.13 2360.05,-139.15"/>
</g>
<!-- Node19 -->
<g id="node19" class="node">
<title>Node19</title>
<g id="a_node19"><a xlink:href="../../dd/d84/shortcuts__dialog_8cpp.html" target="_top" xlink:title=" ">
<polygon fill="white" stroke="black" points="2944,-67.5 2944,-97.5 3085,-97.5 3085,-67.5 2944,-67.5"/>
<text text-anchor="start" x="2952" y="-85.5" font-family="Helvetica,sans-Serif" font-size="10.00">src/app/seamly2d/dialogs</text>
<text text-anchor="middle" x="3014.5" y="-74.5" font-family="Helvetica,sans-Serif" font-size="10.00">/shortcuts_dialog.cpp</text>
</a>
</g>
</g>
<!-- Node2&#45;&gt;Node19 -->
<g id="edge18" class="edge">
<title>Node2&#45;&gt;Node19</title>
<path fill="none" stroke="midnightblue" d="M2360.4,-145.19C2480.98,-139.23 2727.35,-124.77 2934.5,-98 2937.58,-97.6 2940.72,-97.17 2943.89,-96.7"/>
<polygon fill="midnightblue" stroke="midnightblue" points="2360,-141.7 2350.19,-145.69 2360.34,-148.69 2360,-141.7"/>
</g>
<!-- Node20 -->
<g id="node20" class="node">
<title>Node20</title>
<g id="a_node20"><a xlink:href="../../d2/df4/show__info__dialog_8cpp.html" target="_top" xlink:title=" ">
<polygon fill="white" stroke="black" points="3103,-67.5 3103,-97.5 3244,-97.5 3244,-67.5 3103,-67.5"/>
<text text-anchor="start" x="3111" y="-85.5" font-family="Helvetica,sans-Serif" font-size="10.00">src/app/seamly2d/dialogs</text>
<text text-anchor="middle" x="3173.5" y="-74.5" font-family="Helvetica,sans-Serif" font-size="10.00">/show_info_dialog.cpp</text>
</a>
</g>
</g>
<!-- Node2&#45;&gt;Node20 -->
<g id="edge19" class="edge">
<title>Node2&#45;&gt;Node20</title>
<path fill="none" stroke="midnightblue" d="M2360.37,-146.76C2502.71,-142.78 2824.66,-130.66 3093.5,-98 3096.58,-97.63 3099.73,-97.21 3102.9,-96.76"/>
<polygon fill="midnightblue" stroke="midnightblue" points="2359.93,-143.27 2350.03,-147.05 2360.12,-150.27 2359.93,-143.27"/>
</g>
<!-- Node21 -->
<g id="node21" class="node">
<title>Node21</title>
<g id="a_node21"><a xlink:href="../../dc/d14/app_2seamly2d_2main_8cpp.html" target="_top" xlink:title=" ">
<polygon fill="white" stroke="black" points="3262,-73 3262,-92 3413,-92 3413,-73 3262,-73"/>
<text text-anchor="middle" x="3337.5" y="-80" font-family="Helvetica,sans-Serif" font-size="10.00">src/app/seamly2d/main.cpp</text>
</a>
</g>
</g>
<!-- Node2&#45;&gt;Node21 -->
<g id="edge20" class="edge">
<title>Node2&#45;&gt;Node21</title>
<path fill="none" stroke="midnightblue" d="M2360.33,-147.58C2522.32,-144.9 2920.95,-134.82 3252.5,-98 3265.89,-96.51 3280.37,-94.28 3293.52,-92.01"/>
<polygon fill="midnightblue" stroke="midnightblue" points="2359.94,-144.08 2350,-147.74 2360.06,-151.08 2359.94,-144.08"/>
</g>
<!-- Node22 -->
<g id="node22" class="node">
<title>Node22</title>
<g id="a_node22"><a xlink:href="../../d5/de4/vabstractlayoutdialog_8cpp.html" target="_top" xlink:title=" ">
<polygon fill="white" stroke="black" points="3431.5,-67.5 3431.5,-97.5 3577.5,-97.5 3577.5,-67.5 3431.5,-67.5"/>
<text text-anchor="start" x="3439.5" y="-85.5" font-family="Helvetica,sans-Serif" font-size="10.00">src/app/seamly2d/dialogs</text>
<text text-anchor="middle" x="3504.5" y="-74.5" font-family="Helvetica,sans-Serif" font-size="10.00">/vabstractlayoutdialog.cpp</text>
</a>
</g>
</g>
<!-- Node2&#45;&gt;Node22 -->
<g id="edge21" class="edge">
<title>Node2&#45;&gt;Node22</title>
<path fill="none" stroke="midnightblue" d="M2360.31,-148.49C2541.56,-147.76 3022.86,-141.51 3421.5,-98 3424.7,-97.65 3427.96,-97.25 3431.25,-96.82"/>
<polygon fill="midnightblue" stroke="midnightblue" points="2360.08,-144.99 2350.09,-148.53 2360.1,-151.99 2360.08,-144.99"/>
</g>
<!-- Node23 -->
<g id="node23" class="node">
<title>Node23</title>
<g id="a_node23"><a xlink:href="../../d8/de8/mainwindowsnogui_8cpp.html" target="_top" xlink:title=" ">
<polygon fill="white" stroke="black" points="3596,-73 3596,-92 3817,-92 3817,-73 3596,-73"/>
<text text-anchor="middle" x="3706.5" y="-80" font-family="Helvetica,sans-Serif" font-size="10.00">src/app/seamly2d/mainwindowsnogui.cpp</text>
</a>
</g>
</g>
<!-- Node2&#45;&gt;Node23 -->
<g id="edge22" class="edge">
<title>Node2&#45;&gt;Node23</title>
<path fill="none" stroke="midnightblue" d="M2360.21,-147.74C2558.64,-145.23 3120.66,-135.13 3586.5,-98 3605.22,-96.51 3625.52,-94.29 3644,-92.03"/>
<polygon fill="midnightblue" stroke="midnightblue" points="2360.14,-144.24 2350.19,-147.86 2360.23,-151.24 2360.14,-144.24"/>
</g>
<!-- Node24 -->
<g id="node24" class="node">
<title>Node24</title>
<g id="a_node24"><a xlink:href="../../d8/dd9/mainwindow_8cpp.html" target="_top" xlink:title=" ">
<polygon fill="white" stroke="black" points="3835.5,-73 3835.5,-92 4023.5,-92 4023.5,-73 3835.5,-73"/>
<text text-anchor="middle" x="3929.5" y="-80" font-family="Helvetica,sans-Serif" font-size="10.00">src/app/seamly2d/mainwindow.cpp</text>
</a>
</g>
</g>
<!-- Node2&#45;&gt;Node24 -->
<g id="edge23" class="edge">
<title>Node2&#45;&gt;Node24</title>
<path fill="none" stroke="midnightblue" d="M2360.27,-148.84C2582.26,-149.27 3263.43,-146.27 3825.5,-98 3842.03,-96.58 3859.95,-94.34 3876.18,-92.04"/>
<polygon fill="midnightblue" stroke="midnightblue" points="2360.05,-145.34 2350.05,-148.82 2360.04,-152.34 2360.05,-145.34"/>
</g>
<!-- Node25 -->
<g id="node25" class="node">
<title>Node25</title>
<g id="a_node25"><a xlink:href="../../d3/d49/vpattern_8cpp.html" target="_top" xlink:title=" ">
<polygon fill="white" stroke="black" points="4042,-67.5 4042,-97.5 4167,-97.5 4167,-67.5 4042,-67.5"/>
<text text-anchor="start" x="4050" y="-85.5" font-family="Helvetica,sans-Serif" font-size="10.00">src/app/seamly2d/xml</text>
<text text-anchor="middle" x="4104.5" y="-74.5" font-family="Helvetica,sans-Serif" font-size="10.00">/vpattern.cpp</text>
</a>
</g>
</g>
<!-- Node2&#45;&gt;Node25 -->
<g id="edge24" class="edge">
<title>Node2&#45;&gt;Node25</title>
<path fill="none" stroke="midnightblue" d="M2360.59,-148.03C2649.53,-145.95 3701.04,-135.89 4032.5,-98 4035.54,-97.65 4038.64,-97.24 4041.77,-96.79"/>
<polygon fill="midnightblue" stroke="midnightblue" points="2360.2,-144.54 2350.23,-148.11 2360.25,-151.54 2360.2,-144.54"/>
</g>
<!-- Node27 -->
<g id="node27" class="node">
<title>Node27</title>
<g id="a_node27"><a xlink:href="../../d4/d90/fvupdater_8cpp.html" target="_top" xlink:title=" ">
<polygon fill="white" stroke="black" points="4185,-73 4185,-92 4338,-92 4338,-73 4185,-73"/>
<text text-anchor="middle" x="4261.5" y="-80" font-family="Helvetica,sans-Serif" font-size="10.00">src/libs/fervor/fvupdater.cpp</text>
</a>
</g>
</g>
<!-- Node26&#45;&gt;Node27 -->
<g id="edge26" class="edge">
<title>Node26&#45;&gt;Node27</title>
<path fill="none" stroke="midnightblue" d="M5728.7,-146.74C5433.24,-141.61 4614.74,-125.3 4346.5,-98 4332.8,-96.61 4317.97,-94.34 4304.59,-92.01"/>
<polygon fill="midnightblue" stroke="midnightblue" points="5728.93,-150.24 5738.99,-146.92 5729.05,-143.24 5728.93,-150.24"/>
</g>
<!-- Node28 -->
<g id="node28" class="node">
<title>Node28</title>
<g id="a_node28"><a xlink:href="../../d9/dc8/dxiface_8cpp.html" target="_top" xlink:title=" ">
<polygon fill="white" stroke="black" points="4356,-73 4356,-92 4491,-92 4491,-73 4356,-73"/>
<text text-anchor="middle" x="4423.5" y="-80" font-family="Helvetica,sans-Serif" font-size="10.00">src/libs/vdxf/dxiface.cpp</text>
</a>
</g>
</g>
<!-- Node26&#45;&gt;Node28 -->
<g id="edge27" class="edge">
<title>Node26&#45;&gt;Node28</title>
<path fill="none" stroke="midnightblue" d="M5728.56,-146.52C5454.48,-141.17 4736.63,-124.94 4499.5,-98 4487.22,-96.6 4473.95,-94.34 4461.99,-92.01"/>
<polygon fill="midnightblue" stroke="midnightblue" points="5728.84,-150.03 5738.91,-146.73 5728.98,-143.03 5728.84,-150.03"/>
</g>
<!-- Node29 -->
<g id="node29" class="node">
<title>Node29</title>
<g id="a_node29"><a xlink:href="../../da/d75/vabstractarc__p_8h.html" target="_top" xlink:title=" ">
<polygon fill="white" stroke="red" points="4509,-67.5 4509,-97.5 4616,-97.5 4616,-67.5 4509,-67.5"/>
<text text-anchor="start" x="4517" y="-85.5" font-family="Helvetica,sans-Serif" font-size="10.00">src/libs/vgeometry</text>
<text text-anchor="middle" x="4562.5" y="-74.5" font-family="Helvetica,sans-Serif" font-size="10.00">/vabstractarc_p.h</text>
</a>
</g>
</g>
<!-- Node26&#45;&gt;Node29 -->
<g id="edge28" class="edge">
<title>Node26&#45;&gt;Node29</title>
<path fill="none" stroke="midnightblue" d="M5728.61,-146.61C5472.99,-141.7 4836.08,-126.89 4624.5,-98 4621.76,-97.63 4618.97,-97.19 4616.15,-96.7"/>
<polygon fill="midnightblue" stroke="midnightblue" points="5728.58,-150.11 5738.65,-146.8 5728.72,-143.11 5728.58,-150.11"/>
</g>
<!-- Node31 -->
<g id="node30" class="node">
<title>Node31</title>
<g id="a_node30"><a xlink:href="../../dc/da3/varc__p_8h.html" target="_top" xlink:title=" ">
<polygon fill="white" stroke="red" points="4634,-67.5 4634,-97.5 4741,-97.5 4741,-67.5 4634,-67.5"/>
<text text-anchor="start" x="4642" y="-85.5" font-family="Helvetica,sans-Serif" font-size="10.00">src/libs/vgeometry</text>
<text text-anchor="middle" x="4687.5" y="-74.5" font-family="Helvetica,sans-Serif" font-size="10.00">/varc_p.h</text>
</a>
</g>
</g>
<!-- Node26&#45;&gt;Node31 -->
<g id="edge29" class="edge">
<title>Node26&#45;&gt;Node31</title>
<path fill="none" stroke="midnightblue" d="M5728.42,-146C5492.22,-140.12 4936.18,-123.94 4749.5,-98 4746.76,-97.62 4743.97,-97.18 4741.16,-96.68"/>
<polygon fill="midnightblue" stroke="midnightblue" points="5728.66,-149.51 5738.74,-146.25 5728.83,-142.51 5728.66,-149.51"/>
</g>
<!-- Node33 -->
<g id="node31" class="node">
<title>Node33</title>
<g id="a_node31"><a xlink:href="../../d5/d8e/vcubicbezier__p_8h.html" target="_top" xlink:title=" ">
<polygon fill="white" stroke="red" points="4759,-67.5 4759,-97.5 4866,-97.5 4866,-67.5 4759,-67.5"/>
<text text-anchor="start" x="4767" y="-85.5" font-family="Helvetica,sans-Serif" font-size="10.00">src/libs/vgeometry</text>
<text text-anchor="middle" x="4812.5" y="-74.5" font-family="Helvetica,sans-Serif" font-size="10.00">/vcubicbezier_p.h</text>
</a>
</g>
</g>
<!-- Node26&#45;&gt;Node33 -->
<g id="edge30" class="edge">
<title>Node26&#45;&gt;Node33</title>
<path fill="none" stroke="midnightblue" d="M5728.53,-148.31C5550.89,-146.77 5186.19,-138.41 4880.5,-98 4875.83,-97.38 4871.01,-96.62 4866.19,-95.76"/>
<polygon fill="midnightblue" stroke="midnightblue" points="5728.64,-151.81 5738.66,-148.4 5728.69,-144.81 5728.64,-151.81"/>
</g>
<!-- Node35 -->
<g id="node32" class="node">
<title>Node35</title>
<g id="a_node32"><a xlink:href="../../d6/dfb/vellipticalarc_8cpp.html" target="_top" xlink:title=" ">
<polygon fill="white" stroke="black" points="4882,-0.5 4882,-30.5 4989,-30.5 4989,-0.5 4882,-0.5"/>
<text text-anchor="start" x="4890" y="-18.5" font-family="Helvetica,sans-Serif" font-size="10.00">src/libs/vgeometry</text>
<text text-anchor="middle" x="4935.5" y="-7.5" font-family="Helvetica,sans-Serif" font-size="10.00">/vellipticalarc.cpp</text>
</a>
</g>
</g>
<!-- Node26&#45;&gt;Node35 -->
<g id="edge31" class="edge">
<title>Node26&#45;&gt;Node35</title>
<path fill="none" stroke="midnightblue" d="M5728.61,-146.52C5490.96,-141.62 4941.14,-127.19 4913.5,-98 4895.97,-79.48 4912.43,-48.49 4924.78,-30.53"/>
<polygon fill="midnightblue" stroke="midnightblue" points="5728.58,-150.02 5738.65,-146.72 5728.73,-143.02 5728.58,-150.02"/>
</g>
<!-- Node36 -->
<g id="node33" class="node">
<title>Node36</title>
<g id="a_node33"><a xlink:href="../../df/dde/vellipticalarc__p_8h.html" target="_top" xlink:title=" ">
<polygon fill="white" stroke="black" points="4923,-67.5 4923,-97.5 5030,-97.5 5030,-67.5 4923,-67.5"/>
<text text-anchor="start" x="4931" y="-85.5" font-family="Helvetica,sans-Serif" font-size="10.00">src/libs/vgeometry</text>
<text text-anchor="middle" x="4976.5" y="-74.5" font-family="Helvetica,sans-Serif" font-size="10.00">/vellipticalarc_p.h</text>
</a>
</g>
</g>
<!-- Node26&#45;&gt;Node36 -->
<g id="edge32" class="edge">
<title>Node26&#45;&gt;Node36</title>
<path fill="none" stroke="midnightblue" d="M5728.52,-147.36C5574.57,-144.44 5283.5,-134.14 5038.5,-98 5035.77,-97.6 5032.97,-97.13 5030.16,-96.63"/>
<polygon fill="midnightblue" stroke="midnightblue" points="5728.85,-150.86 5738.91,-147.55 5728.98,-143.86 5728.85,-150.86"/>
</g>
<!-- Node37 -->
<g id="node34" class="node">
<title>Node37</title>
<g id="a_node34"><a xlink:href="../../d1/d76/vspline__p_8h.html" target="_top" xlink:title=" ">
<polygon fill="white" stroke="red" points="5048,-67.5 5048,-97.5 5155,-97.5 5155,-67.5 5048,-67.5"/>
<text text-anchor="start" x="5056" y="-85.5" font-family="Helvetica,sans-Serif" font-size="10.00">src/libs/vgeometry</text>
<text text-anchor="middle" x="5101.5" y="-74.5" font-family="Helvetica,sans-Serif" font-size="10.00">/vspline_p.h</text>
</a>
</g>
</g>
<!-- Node26&#45;&gt;Node37 -->
<g id="edge34" class="edge">
<title>Node26&#45;&gt;Node37</title>
<path fill="none" stroke="midnightblue" d="M5728.68,-145.42C5595.47,-140.45 5362.21,-128 5164.5,-98 5161.39,-97.53 5158.21,-96.99 5155.01,-96.4"/>
<polygon fill="midnightblue" stroke="midnightblue" points="5728.76,-148.92 5738.88,-145.79 5729.02,-141.93 5728.76,-148.92"/>
</g>
<!-- Node39 -->
<g id="node35" class="node">
<title>Node39</title>
<g id="a_node35"><a xlink:href="../../d9/d15/vabstractpiece_8cpp.html" target="_top" xlink:title=" ">
<polygon fill="white" stroke="black" points="5173.5,-73 5173.5,-92 5359.5,-92 5359.5,-73 5173.5,-73"/>
<text text-anchor="middle" x="5266.5" y="-80" font-family="Helvetica,sans-Serif" font-size="10.00">src/libs/vlayout/vabstractpiece.cpp</text>
</a>
</g>
</g>
<!-- Node26&#45;&gt;Node39 -->
<g id="edge35" class="edge">
<title>Node26&#45;&gt;Node39</title>
<path fill="none" stroke="midnightblue" d="M5738.49,-138.96C5643.53,-129.48 5495.49,-114.07 5367.5,-98 5353.18,-96.2 5337.73,-94.08 5323.34,-92.02"/>
<polygon fill="midnightblue" stroke="midnightblue" points="5738.36,-142.47 5748.66,-139.98 5739.05,-135.5 5738.36,-142.47"/>
</g>
<!-- Node40 -->
<g id="node36" class="node">
<title>Node40</title>
<g id="a_node36"><a xlink:href="../../dd/d70/vlayoutpiece_8cpp.html" target="_top" xlink:title=" ">
<polygon fill="white" stroke="black" points="5377,-73 5377,-92 5554,-92 5554,-73 5377,-73"/>
<text text-anchor="middle" x="5465.5" y="-80" font-family="Helvetica,sans-Serif" font-size="10.00">src/libs/vlayout/vlayoutpiece.cpp</text>
</a>
</g>
</g>
<!-- Node26&#45;&gt;Node40 -->
<g id="edge36" class="edge">
<title>Node26&#45;&gt;Node40</title>
<path fill="none" stroke="midnightblue" d="M5777.68,-138.19C5704.82,-125.43 5582.03,-103.92 5514.2,-92.03"/>
<polygon fill="midnightblue" stroke="midnightblue" points="5777.16,-141.66 5787.62,-139.94 5778.37,-134.76 5777.16,-141.66"/>
</g>
<!-- Node41 -->
<g id="node37" class="node">
<title>Node41</title>
<g id="a_node37"><a xlink:href="../../d8/d70/vtextmanager_8cpp.html" target="_top" xlink:title=" ">
<polygon fill="white" stroke="black" points="5572.5,-73 5572.5,-92 5754.5,-92 5754.5,-73 5572.5,-73"/>
<text text-anchor="middle" x="5663.5" y="-80" font-family="Helvetica,sans-Serif" font-size="10.00">src/libs/vlayout/vtextmanager.cpp</text>
</a>
</g>
</g>
<!-- Node26&#45;&gt;Node41 -->
<g id="edge37" class="edge">
<title>Node26&#45;&gt;Node41</title>
<path fill="none" stroke="midnightblue" d="M5803.95,-136.27C5769.62,-123.37 5716.4,-103.38 5686.29,-92.06"/>
<polygon fill="midnightblue" stroke="midnightblue" points="5802.93,-139.63 5813.53,-139.87 5805.4,-133.07 5802.93,-139.63"/>
</g>
<!-- Node42 -->
<g id="node38" class="node">
<title>Node42</title>
<g id="a_node38"><a xlink:href="../../db/d65/dialogexporttocsv_8cpp.html" target="_top" xlink:title=" ">
<polygon fill="white" stroke="black" points="5773,-67.5 5773,-97.5 5900,-97.5 5900,-67.5 5773,-67.5"/>
<text text-anchor="start" x="5781" y="-85.5" font-family="Helvetica,sans-Serif" font-size="10.00">src/libs/vmisc/dialogs</text>
<text text-anchor="middle" x="5836.5" y="-74.5" font-family="Helvetica,sans-Serif" font-size="10.00">/dialogexporttocsv.cpp</text>
</a>
</g>
</g>
<!-- Node26&#45;&gt;Node42 -->
<g id="edge38" class="edge">
<title>Node26&#45;&gt;Node42</title>
<path fill="none" stroke="midnightblue" d="M5836.5,-129.41C5836.5,-119.22 5836.5,-106.9 5836.5,-97.59"/>
<polygon fill="midnightblue" stroke="midnightblue" points="5833,-129.73 5836.5,-139.73 5840,-129.73 5833,-129.73"/>
</g>
<!-- Node43 -->
<g id="node39" class="node">
<title>Node43</title>
<g id="a_node39"><a xlink:href="../../d6/d0b/def_8cpp.html" target="_top" xlink:title=" ">
<polygon fill="white" stroke="black" points="5918.5,-73 5918.5,-92 6040.5,-92 6040.5,-73 5918.5,-73"/>
<text text-anchor="middle" x="5979.5" y="-80" font-family="Helvetica,sans-Serif" font-size="10.00">src/libs/vmisc/def.cpp</text>
</a>
</g>
</g>
<!-- Node26&#45;&gt;Node43 -->
<g id="edge39" class="edge">
<title>Node26&#45;&gt;Node43</title>
<path fill="none" stroke="midnightblue" d="M5864.85,-135.61C5893.17,-122.74 5935.93,-103.31 5960.43,-92.17"/>
<polygon fill="midnightblue" stroke="midnightblue" points="5863.14,-132.54 5855.49,-139.87 5866.04,-138.92 5863.14,-132.54"/>
</g>
<!-- Node44 -->
<g id="node40" class="node">
<title>Node44</title>
<g id="a_node40"><a xlink:href="../../d0/df6/vabstractapplication_8cpp.html" target="_top" xlink:title=" ">
<polygon fill="white" stroke="black" points="6058.5,-73 6058.5,-92 6264.5,-92 6264.5,-73 6058.5,-73"/>
<text text-anchor="middle" x="6161.5" y="-80" font-family="Helvetica,sans-Serif" font-size="10.00">src/libs/vmisc/vabstractapplication.cpp</text>
</a>
</g>
</g>
<!-- Node26&#45;&gt;Node44 -->
<g id="edge40" class="edge">
<title>Node26&#45;&gt;Node44</title>
<path fill="none" stroke="midnightblue" d="M5889.21,-137.96C5953.18,-125.16 6059.78,-103.84 6118.84,-92.03"/>
<polygon fill="midnightblue" stroke="midnightblue" points="5888.44,-134.54 5879.32,-139.94 5889.81,-141.41 5888.44,-134.54"/>
</g>
<!-- Node45 -->
<g id="node41" class="node">
<title>Node45</title>
<g id="a_node41"><a xlink:href="../../d4/d4f/pmsystems_8cpp.html" target="_top" xlink:title=" ">
<polygon fill="white" stroke="black" points="6283,-67.5 6283,-97.5 6390,-97.5 6390,-67.5 6283,-67.5"/>
<text text-anchor="start" x="6291" y="-85.5" font-family="Helvetica,sans-Serif" font-size="10.00">src/libs/vpatterndb</text>
<text text-anchor="middle" x="6336.5" y="-74.5" font-family="Helvetica,sans-Serif" font-size="10.00">/pmsystems.cpp</text>
</a>
</g>
</g>
<!-- Node26&#45;&gt;Node45 -->
<g id="edge41" class="edge">
<title>Node26&#45;&gt;Node45</title>
<path fill="none" stroke="midnightblue" d="M5910.45,-138.63C5922.81,-137.04 5935.52,-135.44 5947.5,-134 6092.22,-116.56 6129.79,-122.39 6273.5,-98 6276.6,-97.47 6279.77,-96.89 6282.97,-96.27"/>
<polygon fill="midnightblue" stroke="midnightblue" points="5909.63,-135.21 5900.16,-139.96 5910.53,-142.15 5909.63,-135.21"/>
</g>
<!-- Node46 -->
<g id="node42" class="node">
<title>Node46</title>
<g id="a_node42"><a xlink:href="../../d6/d46/vcontainer_8cpp.html" target="_top" xlink:title=" ">
<polygon fill="white" stroke="black" points="6408,-67.5 6408,-97.5 6515,-97.5 6515,-67.5 6408,-67.5"/>
<text text-anchor="start" x="6416" y="-85.5" font-family="Helvetica,sans-Serif" font-size="10.00">src/libs/vpatterndb</text>
<text text-anchor="middle" x="6461.5" y="-74.5" font-family="Helvetica,sans-Serif" font-size="10.00">/vcontainer.cpp</text>
</a>
</g>
</g>
<!-- Node26&#45;&gt;Node46 -->
<g id="edge42" class="edge">
<title>Node26&#45;&gt;Node46</title>
<path fill="none" stroke="midnightblue" d="M5907.53,-138.68C5920.8,-137 5934.56,-135.36 5947.5,-134 6147.48,-112.97 6199.77,-128.63 6398.5,-98 6401.61,-97.52 6404.79,-96.97 6407.99,-96.38"/>
<polygon fill="midnightblue" stroke="midnightblue" points="5906.98,-135.22 5897.5,-139.97 5907.87,-142.17 5906.98,-135.22"/>
</g>
<!-- Node47 -->
<g id="node43" class="node">
<title>Node47</title>
<g id="a_node43"><a xlink:href="../../db/d11/vformula_8cpp.html" target="_top" xlink:title=" ">
<polygon fill="white" stroke="black" points="6533,-67.5 6533,-97.5 6640,-97.5 6640,-67.5 6533,-67.5"/>
<text text-anchor="start" x="6541" y="-85.5" font-family="Helvetica,sans-Serif" font-size="10.00">src/libs/vpatterndb</text>
<text text-anchor="middle" x="6586.5" y="-74.5" font-family="Helvetica,sans-Serif" font-size="10.00">/vformula.cpp</text>
</a>
</g>
</g>
<!-- Node26&#45;&gt;Node47 -->
<g id="edge43" class="edge">
<title>Node26&#45;&gt;Node47</title>
<path fill="none" stroke="midnightblue" d="M5906.33,-138.65C5919.96,-136.93 5934.17,-135.29 5947.5,-134 6202.81,-109.37 6269.67,-134.89 6523.5,-98 6526.61,-97.55 6529.79,-97.02 6533,-96.44"/>
<polygon fill="midnightblue" stroke="midnightblue" points="5905.51,-135.22 5896.04,-139.97 5906.4,-142.17 5905.51,-135.22"/>
</g>
<!-- Node48 -->
<g id="node44" class="node">
<title>Node48</title>
<g id="a_node44"><a xlink:href="../../df/d7a/vpiece_8cpp.html" target="_top" xlink:title=" ">
<polygon fill="white" stroke="black" points="6658,-67.5 6658,-97.5 6765,-97.5 6765,-67.5 6658,-67.5"/>
<text text-anchor="start" x="6666" y="-85.5" font-family="Helvetica,sans-Serif" font-size="10.00">src/libs/vpatterndb</text>
<text text-anchor="middle" x="6711.5" y="-74.5" font-family="Helvetica,sans-Serif" font-size="10.00">/vpiece.cpp</text>
</a>
</g>
</g>
<!-- Node26&#45;&gt;Node48 -->
<g id="edge44" class="edge">
<title>Node26&#45;&gt;Node48</title>
<path fill="none" stroke="midnightblue" d="M5904.97,-138.7C5919.01,-136.93 5933.72,-135.25 5947.5,-134 6258.19,-105.77 6339.53,-141.15 6648.5,-98 6651.5,-97.58 6654.57,-97.09 6657.66,-96.54"/>
<polygon fill="midnightblue" stroke="midnightblue" points="5904.35,-135.25 5894.88,-140 5905.24,-142.19 5904.35,-135.25"/>
</g>
<!-- Node49 -->
<g id="node45" class="node">
<title>Node49</title>
<g id="a_node45"><a xlink:href="../../df/dba/vpiecenode__p_8h.html" target="_top" xlink:title=" ">
<polygon fill="white" stroke="red" points="6783,-67.5 6783,-97.5 6890,-97.5 6890,-67.5 6783,-67.5"/>
<text text-anchor="start" x="6791" y="-85.5" font-family="Helvetica,sans-Serif" font-size="10.00">src/libs/vpatterndb</text>
<text text-anchor="middle" x="6836.5" y="-74.5" font-family="Helvetica,sans-Serif" font-size="10.00">/vpiecenode_p.h</text>
</a>
</g>
</g>
<!-- Node26&#45;&gt;Node49 -->
<g id="edge45" class="edge">
<title>Node26&#45;&gt;Node49</title>
<path fill="none" stroke="midnightblue" d="M5904.48,-138.68C5918.67,-136.89 5933.56,-135.21 5947.5,-134 6313.58,-102.17 6409.38,-147.42 6773.5,-98 6776.5,-97.59 6779.57,-97.11 6782.66,-96.57"/>
<polygon fill="midnightblue" stroke="midnightblue" points="5903.76,-135.24 5894.29,-139.99 5904.66,-142.18 5903.76,-135.24"/>
</g>
<!-- Node51 -->
<g id="node46" class="node">
<title>Node51</title>
<g id="a_node46"><a xlink:href="../../de/d3e/vtranslatevars_8cpp.html" target="_top" xlink:title=" ">
<polygon fill="white" stroke="black" points="6908.5,-67.5 6908.5,-97.5 7018.5,-97.5 7018.5,-67.5 6908.5,-67.5"/>
<text text-anchor="start" x="6916.5" y="-85.5" font-family="Helvetica,sans-Serif" font-size="10.00">src/libs/vpatterndb</text>
<text text-anchor="middle" x="6963.5" y="-74.5" font-family="Helvetica,sans-Serif" font-size="10.00">/vtranslatevars.cpp</text>
</a>
</g>
</g>
<!-- Node26&#45;&gt;Node51 -->
<g id="edge46" class="edge">
<title>Node26&#45;&gt;Node51</title>
<path fill="none" stroke="midnightblue" d="M5904.24,-138.64C5918.5,-136.85 5933.47,-135.18 5947.5,-134 6368.98,-98.57 6479.03,-152.27 6898.5,-98 6901.71,-97.58 6905,-97.09 6908.3,-96.53"/>
<polygon fill="midnightblue" stroke="midnightblue" points="5903.47,-135.21 5894,-139.96 5904.37,-142.16 5903.47,-135.21"/>
</g>
<!-- Node52 -->
<g id="node47" class="node">
<title>Node52</title>
<g id="a_node47"><a xlink:href="../../df/d40/export__format__combobox_8cpp.html" target="_top" xlink:title=" ">
<polygon fill="white" stroke="black" points="7037,-67.5 7037,-97.5 7170,-97.5 7170,-67.5 7037,-67.5"/>
<text text-anchor="start" x="7045" y="-85.5" font-family="Helvetica,sans-Serif" font-size="10.00">src/libs/vwidgets/export</text>
<text text-anchor="middle" x="7103.5" y="-74.5" font-family="Helvetica,sans-Serif" font-size="10.00">_format_combobox.cpp</text>
</a>
</g>
</g>
<!-- Node26&#45;&gt;Node52 -->
<g id="edge47" class="edge">
<title>Node26&#45;&gt;Node52</title>
<path fill="none" stroke="midnightblue" d="M5903.76,-138.65C5918.16,-136.84 5933.32,-135.16 5947.5,-134 6426.17,-94.85 6550.18,-151.16 7027.5,-98 7030.57,-97.66 7033.7,-97.26 7036.86,-96.82"/>
<polygon fill="midnightblue" stroke="midnightblue" points="5902.9,-135.24 5893.43,-139.99 5903.79,-142.18 5902.9,-135.24"/>
</g>
<!-- Node53 -->
<g id="node48" class="node">
<title>Node53</title>
<g id="a_node48"><a xlink:href="../../d3/d4f/mouse__coordinates_8cpp.html" target="_top" xlink:title=" ">
<polygon fill="white" stroke="black" points="7188.5,-67.5 7188.5,-97.5 7322.5,-97.5 7322.5,-67.5 7188.5,-67.5"/>
<text text-anchor="start" x="7196.5" y="-85.5" font-family="Helvetica,sans-Serif" font-size="10.00">src/libs/vwidgets/mouse</text>
<text text-anchor="middle" x="7255.5" y="-74.5" font-family="Helvetica,sans-Serif" font-size="10.00">_coordinates.cpp</text>
</a>
</g>
</g>
<!-- Node26&#45;&gt;Node53 -->
<g id="edge48" class="edge">
<title>Node26&#45;&gt;Node53</title>
<path fill="none" stroke="midnightblue" d="M5903.1,-138.69C5917.7,-136.85 5933.1,-135.15 5947.5,-134 6493.11,-90.5 6634.33,-156.83 7178.5,-98 7181.75,-97.65 7185.06,-97.24 7188.4,-96.78"/>
<polygon fill="midnightblue" stroke="midnightblue" points="5902.61,-135.23 5893.14,-139.98 5903.5,-142.17 5902.61,-135.23"/>
</g>
<!-- Node26&#45;&gt;Node60 -->
<g id="edge49" class="edge">
<title>Node26&#45;&gt;Node60</title>
<path fill="none" stroke="midnightblue" d="M5902.86,-138.69C5917.53,-136.84 5933.02,-135.13 5947.5,-134 6560.95,-86.08 6717.89,-143.89 7331.5,-98 7350.18,-96.6 7370.45,-94.35 7388.79,-92.04"/>
<polygon fill="midnightblue" stroke="midnightblue" points="5902.32,-135.23 5892.85,-139.99 5903.22,-142.17 5902.32,-135.23"/>
</g>
<!-- Node36&#45;&gt;Node35 -->
<g id="edge33" class="edge">
<title>Node36&#45;&gt;Node35</title>
<path fill="none" stroke="midnightblue" d="M4962.22,-58.87C4956.29,-49.46 4949.59,-38.83 4944.38,-30.58"/>
<polygon fill="midnightblue" stroke="midnightblue" points="4959.31,-60.81 4967.6,-67.4 4965.23,-57.07 4959.31,-60.81"/>
</g>
</g>
</svg>
