<?xml version="1.0" encoding="UTF-8" standalone="no"?>
<!DOCTYPE svg PUBLIC "-//W3C//DTD SVG 1.1//EN"
 "http://www.w3.org/Graphics/SVG/1.1/DTD/svg11.dtd">
<!-- Generated by graphviz version 2.43.0 (0)
 -->
<!-- Title: TST_VAbstractCurve Pages: 1 -->
<svg width="139pt" height="362pt"
 viewBox="0.00 0.00 139.00 362.00" xmlns="http://www.w3.org/2000/svg" xmlns:xlink="http://www.w3.org/1999/xlink">

<svg id="main" version="1.1" xmlns="http://www.w3.org/2000/svg" xmlns:xlink="http://www.w3.org/1999/xlink" xml:space="preserve" onload="init(evt)">
<style type="text/css"><![CDATA[
.node, .edge {opacity: 0.7;}
.node.selected, .edge.selected {opacity: 1;}
.edge:hover path { stroke: red; }
.edge:hover polygon { stroke: red; fill: red; }
]]></style>
<script type="application/ecmascript" xlink:href="../../svg.min.js"/>
<svg id="graph" class="graph">
<g id="graph0" class="graph" transform="scale(1 1) rotate(0) translate(4 358)">
<title>TST_VAbstractCurve</title>
<!-- Node1 -->
<g id="Node000001" class="node">
<title>Node1</title>
<g id="a_Node000001"><a xlink:title=" ">
<polygon fill="#999999" stroke="transparent" points="131,-79 0,-79 0,0 131,0 131,-79"/>
<text text-anchor="start" x="16.5" y="-66.5" font-family="Helvetica,sans-Serif" font-size="10.00">TST_VAbstractCurve</text>
<text text-anchor="start" x="64" y="-51.5" font-family="Helvetica,sans-Serif" font-size="10.00"> </text>
<text text-anchor="start" x="4.5" y="-36.5" font-family="Helvetica,sans-Serif" font-size="10.00">+</text>
<text text-anchor="start" x="17.5" y="-36.5" font-family="Helvetica,sans-Serif" font-size="10.00">TST_VAbstractCurve()</text>
<text text-anchor="start" x="7" y="-21.5" font-family="Helvetica,sans-Serif" font-size="10.00">&#45;</text>
<text text-anchor="start" x="17.5" y="-21.5" font-family="Helvetica,sans-Serif" font-size="10.00">isPointOnCurve_data()</text>
<text text-anchor="start" x="7" y="-6.5" font-family="Helvetica,sans-Serif" font-size="10.00">&#45;</text>
<text text-anchor="start" x="17.5" y="-6.5" font-family="Helvetica,sans-Serif" font-size="10.00">isPointOnCurve()</text>
<polygon fill="#666666" stroke="#666666" points="0.5,-61.5 0.5,-61.5 131.5,-61.5 131.5,-61.5 0.5,-61.5"/>
<polygon fill="#666666" stroke="#666666" points="0.5,-46.5 0.5,-46.5 131.5,-46.5 131.5,-46.5 0.5,-46.5"/>
<polygon fill="none" stroke="#666666" points="0,0 0,-79 131,-79 131,0 0,0"/>
</a>
</g>
</g>
<!-- Node2 -->
<g id="Node000002" class="node">
<title>Node2</title>
<g id="a_Node000002"><a xlink:href="../../d0/d9b/classAbstractTest.html" target="_top" xlink:title=" ">
<polygon fill="white" stroke="transparent" points="121,-269 10,-269 10,-115 121,-115 121,-269"/>
<text text-anchor="start" x="35.5" y="-257" font-family="Helvetica,sans-Serif" font-size="10.00">AbstractTest</text>
<text text-anchor="start" x="64" y="-242" font-family="Helvetica,sans-Serif" font-size="10.00"> </text>
<text text-anchor="start" x="14.5" y="-227" font-family="Helvetica,sans-Serif" font-size="10.00">+</text>
<text text-anchor="start" x="27.5" y="-227" font-family="Helvetica,sans-Serif" font-size="10.00">AbstractTest()</text>
<text text-anchor="start" x="14.5" y="-212" font-family="Helvetica,sans-Serif" font-size="10.00">#</text>
<text text-anchor="start" x="27.5" y="-212" font-family="Helvetica,sans-Serif" font-size="10.00">Comparison()</text>
<text text-anchor="start" x="14.5" y="-197" font-family="Helvetica,sans-Serif" font-size="10.00">#</text>
<text text-anchor="start" x="27.5" y="-197" font-family="Helvetica,sans-Serif" font-size="10.00">Comparison()</text>
<text text-anchor="start" x="14.5" y="-182" font-family="Helvetica,sans-Serif" font-size="10.00">#</text>
<text text-anchor="start" x="27.5" y="-182" font-family="Helvetica,sans-Serif" font-size="10.00">Seamly2DPath()</text>
<text text-anchor="start" x="14.5" y="-167" font-family="Helvetica,sans-Serif" font-size="10.00">#</text>
<text text-anchor="start" x="27.5" y="-167" font-family="Helvetica,sans-Serif" font-size="10.00">SeamlyMePath()</text>
<text text-anchor="start" x="14.5" y="-152" font-family="Helvetica,sans-Serif" font-size="10.00">#</text>
<text text-anchor="start" x="27.5" y="-152" font-family="Helvetica,sans-Serif" font-size="10.00">TranslationsPath()</text>
<text text-anchor="start" x="14.5" y="-137" font-family="Helvetica,sans-Serif" font-size="10.00">#</text>
<text text-anchor="start" x="27.5" y="-137" font-family="Helvetica,sans-Serif" font-size="10.00">Run()</text>
<text text-anchor="start" x="14.5" y="-122" font-family="Helvetica,sans-Serif" font-size="10.00">#</text>
<text text-anchor="start" x="27.5" y="-122" font-family="Helvetica,sans-Serif" font-size="10.00">CopyRecursively()</text>
<polygon fill="#666666" stroke="#666666" points="10.5,-252 10.5,-252 121.5,-252 121.5,-252 10.5,-252"/>
<polygon fill="#666666" stroke="#666666" points="10.5,-237 10.5,-237 121.5,-237 121.5,-237 10.5,-237"/>
<polygon fill="none" stroke="#666666" points="10,-115 10,-269 121,-269 121,-115 10,-115"/>
</a>
</g>
</g>
<!-- Node2&#45;&gt;Node1 -->
<g id="edge1_Node000001_Node000002" class="edge">
<title>Node2&#45;&gt;Node1</title>
<g id="a_edge1_Node000001_Node000002"><a xlink:title=" ">
<path fill="none" stroke="#63b8ff" d="M65.5,-104.74C65.5,-95.82 65.5,-87.11 65.5,-79.13"/>
<polygon fill="none" stroke="#63b8ff" points="62,-104.87 65.5,-114.87 69,-104.87 62,-104.87"/>
</a>
</g>
</g>
<!-- Node3 -->
<g id="Node000003" class="node">
<title>Node3</title>
<g id="a_Node000003"><a xlink:title=" ">
<polygon fill="white" stroke="transparent" points="90.5,-354 40.5,-354 40.5,-305 90.5,-305 90.5,-354"/>
<text text-anchor="start" x="45.5" y="-341.5" font-family="Helvetica,sans-Serif" font-size="10.00">QObject</text>
<text text-anchor="start" x="63.5" y="-326.5" font-family="Helvetica,sans-Serif" font-size="10.00"> </text>
<text text-anchor="start" x="63.5" y="-311.5" font-family="Helvetica,sans-Serif" font-size="10.00"> </text>
<polygon fill="#666666" stroke="#666666" points="40.5,-336.5 40.5,-336.5 90.5,-336.5 90.5,-336.5 40.5,-336.5"/>
<polygon fill="#666666" stroke="#666666" points="40.5,-321.5 40.5,-321.5 90.5,-321.5 90.5,-321.5 40.5,-321.5"/>
<polygon fill="none" stroke="#666666" points="40.5,-305 40.5,-354 90.5,-354 90.5,-305 40.5,-305"/>
</a>
</g>
</g>
<!-- Node3&#45;&gt;Node2 -->
<g id="edge2_Node000002_Node000003" class="edge">
<title>Node3&#45;&gt;Node2</title>
<g id="a_edge2_Node000002_Node000003"><a xlink:title=" ">
<path fill="none" stroke="#63b8ff" d="M65.5,-294.66C65.5,-286.74 65.5,-277.97 65.5,-269.01"/>
<polygon fill="none" stroke="#63b8ff" points="62,-294.9 65.5,-304.9 69,-294.9 62,-294.9"/>
</a>
</g>
</g>
</g>
</svg>
</svg>

<style type='text/css'>
<![CDATA[
[data-mouse-over-selected='false'] { opacity: 0.7; }
[data-mouse-over-selected='true']  { opacity: 1.0; }
]]>
</style>
<script type="application/ecmascript"><![CDATA[
document.addEventListener('DOMContentLoaded', (event) => {
  highlightEdges();
  highlightAdjacentNodes();
});
]]></script>
</svg>
