<?xml version="1.0" encoding="UTF-8" standalone="no"?>
<!DOCTYPE svg PUBLIC "-//W3C//DTD SVG 1.1//EN"
 "http://www.w3.org/Graphics/SVG/1.1/DTD/svg11.dtd">
<!-- Generated by graphviz version 2.43.0 (0)
 -->
<!-- Title: VAbstractCubicBezierPath Pages: 1 -->
<svg width="244pt" height="1567pt"
 viewBox="0.00 0.00 244.00 1567.00" xmlns="http://www.w3.org/2000/svg" xmlns:xlink="http://www.w3.org/1999/xlink">
<g id="graph0" class="graph" transform="scale(1 1) rotate(0) translate(4 1563)">
<title>VAbstractCubicBezierPath</title>
<!-- Node1 -->
<g id="Node000001" class="node">
<title>Node1</title>
<g id="a_Node000001"><a xlink:title=" ">
<polygon fill="#999999" stroke="transparent" points="206,-494 43,-494 43,-280 206,-280 206,-494"/>
<text text-anchor="start" x="62" y="-482" font-family="Helvetica,sans-Serif" font-size="10.00">VAbstractCubicBezierPath</text>
<text text-anchor="start" x="123" y="-467" font-family="Helvetica,sans-Serif" font-size="10.00"> </text>
<text text-anchor="start" x="47.5" y="-452" font-family="Helvetica,sans-Serif" font-size="10.00">+</text>
<text text-anchor="start" x="60.5" y="-452" font-family="Helvetica,sans-Serif" font-size="10.00">VAbstractCubicBezierPath()</text>
<text text-anchor="start" x="47.5" y="-437" font-family="Helvetica,sans-Serif" font-size="10.00">+</text>
<text text-anchor="start" x="60.5" y="-437" font-family="Helvetica,sans-Serif" font-size="10.00">VAbstractCubicBezierPath()</text>
<text text-anchor="start" x="47.5" y="-422" font-family="Helvetica,sans-Serif" font-size="10.00">+</text>
<text text-anchor="start" x="60.5" y="-422" font-family="Helvetica,sans-Serif" font-size="10.00">operator=()</text>
<text text-anchor="start" x="47.5" y="-407" font-family="Helvetica,sans-Serif" font-size="10.00">+</text>
<text text-anchor="start" x="60.5" y="-407" font-family="Helvetica,sans-Serif" font-size="10.00">~VAbstractCubicBezierPath()</text>
<text text-anchor="start" x="47.5" y="-392" font-family="Helvetica,sans-Serif" font-size="10.00">+</text>
<text text-anchor="start" x="60.5" y="-392" font-family="Helvetica,sans-Serif" font-size="10.00">CountSubSpl()</text>
<text text-anchor="start" x="47.5" y="-377" font-family="Helvetica,sans-Serif" font-size="10.00">+</text>
<text text-anchor="start" x="60.5" y="-377" font-family="Helvetica,sans-Serif" font-size="10.00">CountPoints()</text>
<text text-anchor="start" x="47.5" y="-362" font-family="Helvetica,sans-Serif" font-size="10.00">+</text>
<text text-anchor="start" x="60.5" y="-362" font-family="Helvetica,sans-Serif" font-size="10.00">Clear()</text>
<text text-anchor="start" x="47.5" y="-347" font-family="Helvetica,sans-Serif" font-size="10.00">+</text>
<text text-anchor="start" x="60.5" y="-347" font-family="Helvetica,sans-Serif" font-size="10.00">GetSpline()</text>
<text text-anchor="start" x="47.5" y="-332" font-family="Helvetica,sans-Serif" font-size="10.00">+</text>
<text text-anchor="start" x="60.5" y="-332" font-family="Helvetica,sans-Serif" font-size="10.00">GetSplinePath()</text>
<text text-anchor="start" x="47.5" y="-317" font-family="Helvetica,sans-Serif" font-size="10.00">+</text>
<text text-anchor="start" x="60.5" y="-317" font-family="Helvetica,sans-Serif" font-size="10.00">GetPath()</text>
<text text-anchor="start" x="60.5" y="-302" font-family="Helvetica,sans-Serif" font-size="10.00">and 8 more...</text>
<text text-anchor="start" x="47.5" y="-287" font-family="Helvetica,sans-Serif" font-size="10.00">#</text>
<text text-anchor="start" x="60.5" y="-287" font-family="Helvetica,sans-Serif" font-size="10.00">CreateName()</text>
<polygon fill="#666666" stroke="#666666" points="43.5,-477 43.5,-477 206.5,-477 206.5,-477 43.5,-477"/>
<polygon fill="#666666" stroke="#666666" points="43.5,-462 43.5,-462 206.5,-462 206.5,-462 43.5,-462"/>
<polygon fill="none" stroke="#666666" points="43,-280 43,-494 206,-494 206,-280 43,-280"/>
</a>
</g>
</g>
<!-- Node5 -->
<g id="Node000005" class="node">
<title>Node5</title>
<g id="a_Node000005"><a xlink:href="../../d7/da6/classVCubicBezierPath.html" target="_top" xlink:title=" ">
<polygon fill="white" stroke="transparent" points="123,-244 0,-244 0,0 123,0 123,-244"/>
<text text-anchor="start" x="19" y="-232" font-family="Helvetica,sans-Serif" font-size="10.00">VCubicBezierPath</text>
<text text-anchor="start" x="7" y="-217" font-family="Helvetica,sans-Serif" font-size="10.00">&#45;</text>
<text text-anchor="start" x="17.5" y="-217" font-family="Helvetica,sans-Serif" font-size="10.00">d</text>
<text text-anchor="start" x="4.5" y="-202" font-family="Helvetica,sans-Serif" font-size="10.00">+</text>
<text text-anchor="start" x="17.5" y="-202" font-family="Helvetica,sans-Serif" font-size="10.00">VCubicBezierPath()</text>
<text text-anchor="start" x="4.5" y="-187" font-family="Helvetica,sans-Serif" font-size="10.00">+</text>
<text text-anchor="start" x="17.5" y="-187" font-family="Helvetica,sans-Serif" font-size="10.00">VCubicBezierPath()</text>
<text text-anchor="start" x="4.5" y="-172" font-family="Helvetica,sans-Serif" font-size="10.00">+</text>
<text text-anchor="start" x="17.5" y="-172" font-family="Helvetica,sans-Serif" font-size="10.00">VCubicBezierPath()</text>
<text text-anchor="start" x="4.5" y="-157" font-family="Helvetica,sans-Serif" font-size="10.00">+</text>
<text text-anchor="start" x="17.5" y="-157" font-family="Helvetica,sans-Serif" font-size="10.00">Rotate()</text>
<text text-anchor="start" x="4.5" y="-142" font-family="Helvetica,sans-Serif" font-size="10.00">+</text>
<text text-anchor="start" x="17.5" y="-142" font-family="Helvetica,sans-Serif" font-size="10.00">Flip()</text>
<text text-anchor="start" x="4.5" y="-127" font-family="Helvetica,sans-Serif" font-size="10.00">+</text>
<text text-anchor="start" x="17.5" y="-127" font-family="Helvetica,sans-Serif" font-size="10.00">Move()</text>
<text text-anchor="start" x="4.5" y="-112" font-family="Helvetica,sans-Serif" font-size="10.00">+</text>
<text text-anchor="start" x="17.5" y="-112" font-family="Helvetica,sans-Serif" font-size="10.00">~VCubicBezierPath()</text>
<text text-anchor="start" x="4.5" y="-97" font-family="Helvetica,sans-Serif" font-size="10.00">+</text>
<text text-anchor="start" x="17.5" y="-97" font-family="Helvetica,sans-Serif" font-size="10.00">operator=()</text>
<text text-anchor="start" x="4.5" y="-82" font-family="Helvetica,sans-Serif" font-size="10.00">+</text>
<text text-anchor="start" x="17.5" y="-82" font-family="Helvetica,sans-Serif" font-size="10.00">Swap()</text>
<text text-anchor="start" x="4.5" y="-67" font-family="Helvetica,sans-Serif" font-size="10.00">+</text>
<text text-anchor="start" x="17.5" y="-67" font-family="Helvetica,sans-Serif" font-size="10.00">operator[]()</text>
<text text-anchor="start" x="17.5" y="-52" font-family="Helvetica,sans-Serif" font-size="10.00">and 14 more...</text>
<text text-anchor="start" x="4.5" y="-37" font-family="Helvetica,sans-Serif" font-size="10.00">+</text>
<text text-anchor="start" x="17.5" y="-37" font-family="Helvetica,sans-Serif" font-size="10.00">CountSubSpl()</text>
<text text-anchor="start" x="4.5" y="-22" font-family="Helvetica,sans-Serif" font-size="10.00">+</text>
<text text-anchor="start" x="17.5" y="-22" font-family="Helvetica,sans-Serif" font-size="10.00">SubSplOffset()</text>
<text text-anchor="start" x="4.5" y="-7" font-family="Helvetica,sans-Serif" font-size="10.00">+</text>
<text text-anchor="start" x="17.5" y="-7" font-family="Helvetica,sans-Serif" font-size="10.00">SubSplPointsCount()</text>
<polygon fill="#666666" stroke="#666666" points="0.5,-227 0.5,-227 123.5,-227 123.5,-227 0.5,-227"/>
<polygon fill="#666666" stroke="#666666" points="0.5,-212 0.5,-212 15.5,-212 15.5,-212 0.5,-212"/>
<polygon fill="#666666" stroke="#666666" points="15.5,-212 15.5,-212 123.5,-212 123.5,-212 15.5,-212"/>
<polygon fill="none" stroke="#666666" points="0,0 0,-244 123,-244 123,0 0,0"/>
</a>
</g>
</g>
<!-- Node1&#45;&gt;Node5 -->
<g id="edge4_Node000001_Node000005" class="edge">
<title>Node1&#45;&gt;Node5</title>
<g id="a_edge4_Node000001_Node000005"><a xlink:title=" ">
<path fill="none" stroke="#63b8ff" d="M96.68,-269.87C94.65,-261.37 92.59,-252.79 90.55,-244.27"/>
<polygon fill="none" stroke="#63b8ff" points="93.32,-270.88 99.06,-279.79 100.13,-269.25 93.32,-270.88"/>
</a>
</g>
</g>
<!-- Node6 -->
<g id="Node000006" class="node">
<title>Node6</title>
<g id="a_Node000006"><a xlink:href="../../d9/da4/classVSplinePath.html" target="_top" xlink:title="The VSplinePath class keep information about splinePath.">
<polygon fill="white" stroke="transparent" points="236,-221.5 141,-221.5 141,-22.5 236,-22.5 236,-221.5"/>
<text text-anchor="start" x="160" y="-209" font-family="Helvetica,sans-Serif" font-size="10.00">VSplinePath</text>
<text text-anchor="start" x="148" y="-194" font-family="Helvetica,sans-Serif" font-size="10.00">&#45;</text>
<text text-anchor="start" x="158.5" y="-194" font-family="Helvetica,sans-Serif" font-size="10.00">d</text>
<text text-anchor="start" x="145.5" y="-179" font-family="Helvetica,sans-Serif" font-size="10.00">+</text>
<text text-anchor="start" x="158.5" y="-179" font-family="Helvetica,sans-Serif" font-size="10.00">VSplinePath()</text>
<text text-anchor="start" x="145.5" y="-164" font-family="Helvetica,sans-Serif" font-size="10.00">+</text>
<text text-anchor="start" x="158.5" y="-164" font-family="Helvetica,sans-Serif" font-size="10.00">VSplinePath()</text>
<text text-anchor="start" x="145.5" y="-149" font-family="Helvetica,sans-Serif" font-size="10.00">+</text>
<text text-anchor="start" x="158.5" y="-149" font-family="Helvetica,sans-Serif" font-size="10.00">VSplinePath()</text>
<text text-anchor="start" x="145.5" y="-134" font-family="Helvetica,sans-Serif" font-size="10.00">+</text>
<text text-anchor="start" x="158.5" y="-134" font-family="Helvetica,sans-Serif" font-size="10.00">VSplinePath()</text>
<text text-anchor="start" x="145.5" y="-119" font-family="Helvetica,sans-Serif" font-size="10.00">+</text>
<text text-anchor="start" x="158.5" y="-119" font-family="Helvetica,sans-Serif" font-size="10.00">Rotate()</text>
<text text-anchor="start" x="145.5" y="-104" font-family="Helvetica,sans-Serif" font-size="10.00">+</text>
<text text-anchor="start" x="158.5" y="-104" font-family="Helvetica,sans-Serif" font-size="10.00">Flip()</text>
<text text-anchor="start" x="145.5" y="-89" font-family="Helvetica,sans-Serif" font-size="10.00">+</text>
<text text-anchor="start" x="158.5" y="-89" font-family="Helvetica,sans-Serif" font-size="10.00">Move()</text>
<text text-anchor="start" x="145.5" y="-74" font-family="Helvetica,sans-Serif" font-size="10.00">+</text>
<text text-anchor="start" x="158.5" y="-74" font-family="Helvetica,sans-Serif" font-size="10.00">~VSplinePath()</text>
<text text-anchor="start" x="145.5" y="-59" font-family="Helvetica,sans-Serif" font-size="10.00">+</text>
<text text-anchor="start" x="158.5" y="-59" font-family="Helvetica,sans-Serif" font-size="10.00">operator[]()</text>
<text text-anchor="start" x="145.5" y="-44" font-family="Helvetica,sans-Serif" font-size="10.00">+</text>
<text text-anchor="start" x="158.5" y="-44" font-family="Helvetica,sans-Serif" font-size="10.00">operator=()</text>
<text text-anchor="start" x="158.5" y="-29" font-family="Helvetica,sans-Serif" font-size="10.00">and 17 more...</text>
<polygon fill="#666666" stroke="#666666" points="141.5,-204 141.5,-204 236.5,-204 236.5,-204 141.5,-204"/>
<polygon fill="#666666" stroke="#666666" points="141.5,-189 141.5,-189 156.5,-189 156.5,-189 141.5,-189"/>
<polygon fill="#666666" stroke="#666666" points="156.5,-189 156.5,-189 236.5,-189 236.5,-189 156.5,-189"/>
<polygon fill="none" stroke="#666666" points="141,-22.5 141,-221.5 236,-221.5 236,-22.5 141,-22.5"/>
</a>
</g>
</g>
<!-- Node1&#45;&gt;Node6 -->
<g id="edge5_Node000001_Node000006" class="edge">
<title>Node1&#45;&gt;Node6</title>
<g id="a_edge5_Node000001_Node000006"><a xlink:title=" ">
<path fill="none" stroke="#63b8ff" d="M152.78,-269.8C156.7,-253.7 160.69,-237.27 164.52,-221.53"/>
<polygon fill="none" stroke="#63b8ff" points="149.31,-269.24 150.35,-279.79 156.11,-270.9 149.31,-269.24"/>
</a>
</g>
</g>
<!-- Node2 -->
<g id="Node000002" class="node">
<title>Node2</title>
<g id="a_Node000002"><a xlink:href="../../dd/dc4/classVAbstractBezier.html" target="_top" xlink:title=" ">
<polygon fill="white" stroke="transparent" points="182,-654 67,-654 67,-530 182,-530 182,-654"/>
<text text-anchor="start" x="86" y="-642" font-family="Helvetica,sans-Serif" font-size="10.00">VAbstractBezier</text>
<text text-anchor="start" x="123" y="-627" font-family="Helvetica,sans-Serif" font-size="10.00"> </text>
<text text-anchor="start" x="71.5" y="-612" font-family="Helvetica,sans-Serif" font-size="10.00">+</text>
<text text-anchor="start" x="84.5" y="-612" font-family="Helvetica,sans-Serif" font-size="10.00">VAbstractBezier()</text>
<text text-anchor="start" x="71.5" y="-597" font-family="Helvetica,sans-Serif" font-size="10.00">+</text>
<text text-anchor="start" x="84.5" y="-597" font-family="Helvetica,sans-Serif" font-size="10.00">VAbstractBezier()</text>
<text text-anchor="start" x="71.5" y="-582" font-family="Helvetica,sans-Serif" font-size="10.00">+</text>
<text text-anchor="start" x="84.5" y="-582" font-family="Helvetica,sans-Serif" font-size="10.00">operator=()</text>
<text text-anchor="start" x="71.5" y="-567" font-family="Helvetica,sans-Serif" font-size="10.00">+</text>
<text text-anchor="start" x="84.5" y="-567" font-family="Helvetica,sans-Serif" font-size="10.00">~VAbstractBezier()</text>
<text text-anchor="start" x="71.5" y="-552" font-family="Helvetica,sans-Serif" font-size="10.00">+</text>
<text text-anchor="start" x="84.5" y="-552" font-family="Helvetica,sans-Serif" font-size="10.00">GetC1Length()</text>
<text text-anchor="start" x="71.5" y="-537" font-family="Helvetica,sans-Serif" font-size="10.00">+</text>
<text text-anchor="start" x="84.5" y="-537" font-family="Helvetica,sans-Serif" font-size="10.00">GetC2Length()</text>
<polygon fill="#666666" stroke="#666666" points="67.5,-637 67.5,-637 182.5,-637 182.5,-637 67.5,-637"/>
<polygon fill="#666666" stroke="#666666" points="67.5,-622 67.5,-622 182.5,-622 182.5,-622 67.5,-622"/>
<polygon fill="none" stroke="#666666" points="67,-530 67,-654 182,-654 182,-530 67,-530"/>
</a>
</g>
</g>
<!-- Node2&#45;&gt;Node1 -->
<g id="edge1_Node000001_Node000002" class="edge">
<title>Node2&#45;&gt;Node1</title>
<g id="a_edge1_Node000001_Node000002"><a xlink:title=" ">
<path fill="none" stroke="#63b8ff" d="M124.5,-519.81C124.5,-511.48 124.5,-502.84 124.5,-494.16"/>
<polygon fill="none" stroke="#63b8ff" points="121,-519.82 124.5,-529.82 128,-519.82 121,-519.82"/>
</a>
</g>
</g>
<!-- Node3 -->
<g id="Node000003" class="node">
<title>Node3</title>
<g id="a_Node000003"><a xlink:href="../../dc/d55/classVAbstractCurve.html" target="_top" xlink:title=" ">
<polygon fill="white" stroke="transparent" points="201.5,-1024 47.5,-1024 47.5,-690 201.5,-690 201.5,-1024"/>
<text text-anchor="start" x="86.5" y="-1012" font-family="Helvetica,sans-Serif" font-size="10.00">VAbstractCurve</text>
<text text-anchor="start" x="51.5" y="-997" font-family="Helvetica,sans-Serif" font-size="10.00">+</text>
<text text-anchor="start" x="64.5" y="-997" font-family="Helvetica,sans-Serif" font-size="10.00">lengthCurveDirectionArrow</text>
<text text-anchor="start" x="54" y="-982" font-family="Helvetica,sans-Serif" font-size="10.00">&#45;</text>
<text text-anchor="start" x="64.5" y="-982" font-family="Helvetica,sans-Serif" font-size="10.00">d</text>
<text text-anchor="start" x="51.5" y="-967" font-family="Helvetica,sans-Serif" font-size="10.00">+</text>
<text text-anchor="start" x="64.5" y="-967" font-family="Helvetica,sans-Serif" font-size="10.00">VAbstractCurve()</text>
<text text-anchor="start" x="51.5" y="-952" font-family="Helvetica,sans-Serif" font-size="10.00">+</text>
<text text-anchor="start" x="64.5" y="-952" font-family="Helvetica,sans-Serif" font-size="10.00">VAbstractCurve()</text>
<text text-anchor="start" x="51.5" y="-937" font-family="Helvetica,sans-Serif" font-size="10.00">+</text>
<text text-anchor="start" x="64.5" y="-937" font-family="Helvetica,sans-Serif" font-size="10.00">~VAbstractCurve()</text>
<text text-anchor="start" x="51.5" y="-922" font-family="Helvetica,sans-Serif" font-size="10.00">+</text>
<text text-anchor="start" x="64.5" y="-922" font-family="Helvetica,sans-Serif" font-size="10.00">operator=()</text>
<text text-anchor="start" x="51.5" y="-907" font-family="Helvetica,sans-Serif" font-size="10.00">+</text>
<text text-anchor="start" x="64.5" y="-907" font-family="Helvetica,sans-Serif" font-size="10.00">Swap()</text>
<text text-anchor="start" x="51.5" y="-892" font-family="Helvetica,sans-Serif" font-size="10.00">+</text>
<text text-anchor="start" x="64.5" y="-892" font-family="Helvetica,sans-Serif" font-size="10.00">getPoints()</text>
<text text-anchor="start" x="51.5" y="-877" font-family="Helvetica,sans-Serif" font-size="10.00">+</text>
<text text-anchor="start" x="64.5" y="-877" font-family="Helvetica,sans-Serif" font-size="10.00">GetSegmentPoints()</text>
<text text-anchor="start" x="51.5" y="-862" font-family="Helvetica,sans-Serif" font-size="10.00">+</text>
<text text-anchor="start" x="64.5" y="-862" font-family="Helvetica,sans-Serif" font-size="10.00">GetPath()</text>
<text text-anchor="start" x="51.5" y="-847" font-family="Helvetica,sans-Serif" font-size="10.00">+</text>
<text text-anchor="start" x="64.5" y="-847" font-family="Helvetica,sans-Serif" font-size="10.00">GetLength()</text>
<text text-anchor="start" x="51.5" y="-832" font-family="Helvetica,sans-Serif" font-size="10.00">+</text>
<text text-anchor="start" x="64.5" y="-832" font-family="Helvetica,sans-Serif" font-size="10.00">GetLengthByPoint()</text>
<text text-anchor="start" x="64.5" y="-817" font-family="Helvetica,sans-Serif" font-size="10.00">and 17 more...</text>
<text text-anchor="start" x="51.5" y="-802" font-family="Helvetica,sans-Serif" font-size="10.00">+</text>
<text text-anchor="start" x="64.5" y="-802" font-family="Helvetica,sans-Serif" font-size="10.00">GetSegmentPoints()</text>
<text text-anchor="start" x="51.5" y="-787" font-family="Helvetica,sans-Serif" font-size="10.00">+</text>
<text text-anchor="start" x="64.5" y="-787" font-family="Helvetica,sans-Serif" font-size="10.00">isPointOnCurve()</text>
<text text-anchor="start" x="51.5" y="-772" font-family="Helvetica,sans-Serif" font-size="10.00">+</text>
<text text-anchor="start" x="64.5" y="-772" font-family="Helvetica,sans-Serif" font-size="10.00">PathLength()</text>
<text text-anchor="start" x="51.5" y="-757" font-family="Helvetica,sans-Serif" font-size="10.00">+</text>
<text text-anchor="start" x="64.5" y="-757" font-family="Helvetica,sans-Serif" font-size="10.00">CurveIntersectLine()</text>
<text text-anchor="start" x="51.5" y="-742" font-family="Helvetica,sans-Serif" font-size="10.00">+</text>
<text text-anchor="start" x="64.5" y="-742" font-family="Helvetica,sans-Serif" font-size="10.00">ShowDirection()</text>
<text text-anchor="start" x="51.5" y="-727" font-family="Helvetica,sans-Serif" font-size="10.00">#</text>
<text text-anchor="start" x="64.5" y="-727" font-family="Helvetica,sans-Serif" font-size="10.00">CreateName()</text>
<text text-anchor="start" x="54" y="-712" font-family="Helvetica,sans-Serif" font-size="10.00">&#45;</text>
<text text-anchor="start" x="64.5" y="-712" font-family="Helvetica,sans-Serif" font-size="10.00">FromBegin()</text>
<text text-anchor="start" x="54" y="-697" font-family="Helvetica,sans-Serif" font-size="10.00">&#45;</text>
<text text-anchor="start" x="64.5" y="-697" font-family="Helvetica,sans-Serif" font-size="10.00">ToEnd()</text>
<polygon fill="#666666" stroke="#666666" points="47.5,-1007 47.5,-1007 201.5,-1007 201.5,-1007 47.5,-1007"/>
<polygon fill="#666666" stroke="#666666" points="47.5,-977 47.5,-977 62.5,-977 62.5,-977 47.5,-977"/>
<polygon fill="#666666" stroke="#666666" points="62.5,-977 62.5,-977 201.5,-977 201.5,-977 62.5,-977"/>
<polygon fill="none" stroke="#666666" points="47.5,-690 47.5,-1024 201.5,-1024 201.5,-690 47.5,-690"/>
</a>
</g>
</g>
<!-- Node3&#45;&gt;Node2 -->
<g id="edge2_Node000002_Node000003" class="edge">
<title>Node3&#45;&gt;Node2</title>
<g id="a_edge2_Node000002_Node000003"><a xlink:title=" ">
<path fill="none" stroke="#63b8ff" d="M124.5,-679.69C124.5,-670.83 124.5,-662.28 124.5,-654.22"/>
<polygon fill="none" stroke="#63b8ff" points="121,-679.81 124.5,-689.81 128,-679.81 121,-679.81"/>
</a>
</g>
</g>
<!-- Node4 -->
<g id="Node000004" class="node">
<title>Node4</title>
<g id="a_Node000004"><a xlink:href="../../d1/de7/classVGObject.html" target="_top" xlink:title="The VGObject class keep information graphical objects.">
<polygon fill="white" stroke="transparent" points="194,-1559 55,-1559 55,-1060 194,-1060 194,-1559"/>
<text text-anchor="start" x="102" y="-1546.5" font-family="Helvetica,sans-Serif" font-size="10.00">VGObject</text>
<text text-anchor="start" x="59.5" y="-1531.5" font-family="Helvetica,sans-Serif" font-size="10.00">+</text>
<text text-anchor="start" x="72.5" y="-1531.5" font-family="Helvetica,sans-Serif" font-size="10.00">accuracyPointOnLine</text>
<text text-anchor="start" x="62" y="-1516.5" font-family="Helvetica,sans-Serif" font-size="10.00">&#45;</text>
<text text-anchor="start" x="72.5" y="-1516.5" font-family="Helvetica,sans-Serif" font-size="10.00">d</text>
<text text-anchor="start" x="59.5" y="-1501.5" font-family="Helvetica,sans-Serif" font-size="10.00">+</text>
<text text-anchor="start" x="72.5" y="-1501.5" font-family="Helvetica,sans-Serif" font-size="10.00">VGObject()</text>
<text text-anchor="start" x="59.5" y="-1486.5" font-family="Helvetica,sans-Serif" font-size="10.00">+</text>
<text text-anchor="start" x="72.5" y="-1486.5" font-family="Helvetica,sans-Serif" font-size="10.00">VGObject()</text>
<text text-anchor="start" x="59.5" y="-1471.5" font-family="Helvetica,sans-Serif" font-size="10.00">+</text>
<text text-anchor="start" x="72.5" y="-1471.5" font-family="Helvetica,sans-Serif" font-size="10.00">VGObject()</text>
<text text-anchor="start" x="59.5" y="-1456.5" font-family="Helvetica,sans-Serif" font-size="10.00">+</text>
<text text-anchor="start" x="72.5" y="-1456.5" font-family="Helvetica,sans-Serif" font-size="10.00">~VGObject()</text>
<text text-anchor="start" x="59.5" y="-1441.5" font-family="Helvetica,sans-Serif" font-size="10.00">+</text>
<text text-anchor="start" x="72.5" y="-1441.5" font-family="Helvetica,sans-Serif" font-size="10.00">operator=()</text>
<text text-anchor="start" x="59.5" y="-1426.5" font-family="Helvetica,sans-Serif" font-size="10.00">+</text>
<text text-anchor="start" x="72.5" y="-1426.5" font-family="Helvetica,sans-Serif" font-size="10.00">Swap()</text>
<text text-anchor="start" x="59.5" y="-1411.5" font-family="Helvetica,sans-Serif" font-size="10.00">+</text>
<text text-anchor="start" x="72.5" y="-1411.5" font-family="Helvetica,sans-Serif" font-size="10.00">getIdObject()</text>
<text text-anchor="start" x="59.5" y="-1396.5" font-family="Helvetica,sans-Serif" font-size="10.00">+</text>
<text text-anchor="start" x="72.5" y="-1396.5" font-family="Helvetica,sans-Serif" font-size="10.00">setIdObject()</text>
<text text-anchor="start" x="59.5" y="-1381.5" font-family="Helvetica,sans-Serif" font-size="10.00">+</text>
<text text-anchor="start" x="72.5" y="-1381.5" font-family="Helvetica,sans-Serif" font-size="10.00">name()</text>
<text text-anchor="start" x="59.5" y="-1366.5" font-family="Helvetica,sans-Serif" font-size="10.00">+</text>
<text text-anchor="start" x="72.5" y="-1366.5" font-family="Helvetica,sans-Serif" font-size="10.00">setName()</text>
<text text-anchor="start" x="72.5" y="-1351.5" font-family="Helvetica,sans-Serif" font-size="10.00">and 7 more...</text>
<text text-anchor="start" x="59.5" y="-1336.5" font-family="Helvetica,sans-Serif" font-size="10.00">+</text>
<text text-anchor="start" x="72.5" y="-1336.5" font-family="Helvetica,sans-Serif" font-size="10.00">BuildLine()</text>
<text text-anchor="start" x="59.5" y="-1321.5" font-family="Helvetica,sans-Serif" font-size="10.00">+</text>
<text text-anchor="start" x="72.5" y="-1321.5" font-family="Helvetica,sans-Serif" font-size="10.00">BuildRay()</text>
<text text-anchor="start" x="59.5" y="-1306.5" font-family="Helvetica,sans-Serif" font-size="10.00">+</text>
<text text-anchor="start" x="72.5" y="-1306.5" font-family="Helvetica,sans-Serif" font-size="10.00">BuildAxis()</text>
<text text-anchor="start" x="59.5" y="-1291.5" font-family="Helvetica,sans-Serif" font-size="10.00">+</text>
<text text-anchor="start" x="72.5" y="-1291.5" font-family="Helvetica,sans-Serif" font-size="10.00">BuildAxis()</text>
<text text-anchor="start" x="59.5" y="-1276.5" font-family="Helvetica,sans-Serif" font-size="10.00">+</text>
<text text-anchor="start" x="72.5" y="-1276.5" font-family="Helvetica,sans-Serif" font-size="10.00">ContactPoints()</text>
<text text-anchor="start" x="59.5" y="-1261.5" font-family="Helvetica,sans-Serif" font-size="10.00">+</text>
<text text-anchor="start" x="72.5" y="-1261.5" font-family="Helvetica,sans-Serif" font-size="10.00">LineIntersectRect()</text>
<text text-anchor="start" x="59.5" y="-1246.5" font-family="Helvetica,sans-Serif" font-size="10.00">+</text>
<text text-anchor="start" x="72.5" y="-1246.5" font-family="Helvetica,sans-Serif" font-size="10.00">IntersectionCircles()</text>
<text text-anchor="start" x="59.5" y="-1231.5" font-family="Helvetica,sans-Serif" font-size="10.00">+</text>
<text text-anchor="start" x="72.5" y="-1231.5" font-family="Helvetica,sans-Serif" font-size="10.00">LineIntersectCircle()</text>
<text text-anchor="start" x="59.5" y="-1216.5" font-family="Helvetica,sans-Serif" font-size="10.00">+</text>
<text text-anchor="start" x="72.5" y="-1216.5" font-family="Helvetica,sans-Serif" font-size="10.00">ClosestPoint()</text>
<text text-anchor="start" x="59.5" y="-1201.5" font-family="Helvetica,sans-Serif" font-size="10.00">+</text>
<text text-anchor="start" x="72.5" y="-1201.5" font-family="Helvetica,sans-Serif" font-size="10.00">addVector()</text>
<text text-anchor="start" x="59.5" y="-1186.5" font-family="Helvetica,sans-Serif" font-size="10.00">+</text>
<text text-anchor="start" x="72.5" y="-1186.5" font-family="Helvetica,sans-Serif" font-size="10.00">LineCoefficients()</text>
<text text-anchor="start" x="59.5" y="-1171.5" font-family="Helvetica,sans-Serif" font-size="10.00">+</text>
<text text-anchor="start" x="72.5" y="-1171.5" font-family="Helvetica,sans-Serif" font-size="10.00">IsPointOnLineSegment()</text>
<text text-anchor="start" x="59.5" y="-1156.5" font-family="Helvetica,sans-Serif" font-size="10.00">+</text>
<text text-anchor="start" x="72.5" y="-1156.5" font-family="Helvetica,sans-Serif" font-size="10.00">IsPointOnLineviaPDP()</text>
<text text-anchor="start" x="59.5" y="-1141.5" font-family="Helvetica,sans-Serif" font-size="10.00">+</text>
<text text-anchor="start" x="72.5" y="-1141.5" font-family="Helvetica,sans-Serif" font-size="10.00">GetReversePoints()</text>
<text text-anchor="start" x="59.5" y="-1126.5" font-family="Helvetica,sans-Serif" font-size="10.00">+</text>
<text text-anchor="start" x="72.5" y="-1126.5" font-family="Helvetica,sans-Serif" font-size="10.00">GetLengthContour()</text>
<text text-anchor="start" x="59.5" y="-1111.5" font-family="Helvetica,sans-Serif" font-size="10.00">#</text>
<text text-anchor="start" x="72.5" y="-1111.5" font-family="Helvetica,sans-Serif" font-size="10.00">flipTransform()</text>
<text text-anchor="start" x="62" y="-1096.5" font-family="Helvetica,sans-Serif" font-size="10.00">&#45;</text>
<text text-anchor="start" x="72.5" y="-1096.5" font-family="Helvetica,sans-Serif" font-size="10.00">PerpDotProduct()</text>
<text text-anchor="start" x="62" y="-1081.5" font-family="Helvetica,sans-Serif" font-size="10.00">&#45;</text>
<text text-anchor="start" x="72.5" y="-1081.5" font-family="Helvetica,sans-Serif" font-size="10.00">GetEpsilon()</text>
<text text-anchor="start" x="62" y="-1066.5" font-family="Helvetica,sans-Serif" font-size="10.00">&#45;</text>
<text text-anchor="start" x="72.5" y="-1066.5" font-family="Helvetica,sans-Serif" font-size="10.00">PointInCircle()</text>
<polygon fill="#666666" stroke="#666666" points="55.5,-1541.5 55.5,-1541.5 194.5,-1541.5 194.5,-1541.5 55.5,-1541.5"/>
<polygon fill="#666666" stroke="#666666" points="55.5,-1511.5 55.5,-1511.5 70.5,-1511.5 70.5,-1511.5 55.5,-1511.5"/>
<polygon fill="#666666" stroke="#666666" points="70.5,-1511.5 70.5,-1511.5 194.5,-1511.5 194.5,-1511.5 70.5,-1511.5"/>
<polygon fill="none" stroke="#666666" points="55,-1060 55,-1559 194,-1559 194,-1060 55,-1060"/>
</a>
</g>
</g>
<!-- Node4&#45;&gt;Node3 -->
<g id="edge3_Node000003_Node000004" class="edge">
<title>Node4&#45;&gt;Node3</title>
<g id="a_edge3_Node000003_Node000004"><a xlink:title=" ">
<path fill="none" stroke="#63b8ff" d="M124.5,-1049.74C124.5,-1041.15 124.5,-1032.62 124.5,-1024.21"/>
<polygon fill="none" stroke="#63b8ff" points="121,-1049.86 124.5,-1059.86 128,-1049.86 121,-1049.86"/>
</a>
</g>
</g>
</g>
</svg>
