<?xml version="1.0" encoding="UTF-8" standalone="no"?>
<!DOCTYPE svg PUBLIC "-//W3C//DTD SVG 1.1//EN"
 "http://www.w3.org/Graphics/SVG/1.1/DTD/svg11.dtd">
<!-- Generated by graphviz version 2.43.0 (0)
 -->
<!-- Title: src/app/seamly2d/core/vtooloptionspropertybrowser.h Pages: 1 -->
<svg width="777pt" height="104pt"
 viewBox="0.00 0.00 777.00 104.00" xmlns="http://www.w3.org/2000/svg" xmlns:xlink="http://www.w3.org/1999/xlink">
<g id="graph0" class="graph" transform="scale(1 1) rotate(0) translate(4 100)">
<title>src/app/seamly2d/core/vtooloptionspropertybrowser.h</title>
<!-- Node1 -->
<g id="Node000001" class="node">
<title>Node1</title>
<g id="a_Node000001"><a xlink:title=" ">
<polygon fill="#999999" stroke="#666666" points="371.5,-96 202.5,-96 202.5,-66 371.5,-66 371.5,-96"/>
<text text-anchor="start" x="210.5" y="-84" font-family="Helvetica,sans-Serif" font-size="10.00">src/app/seamly2d/core</text>
<text text-anchor="middle" x="287" y="-73" font-family="Helvetica,sans-Serif" font-size="10.00">/vtooloptionspropertybrowser.h</text>
</a>
</g>
</g>
<!-- Node2 -->
<g id="Node000002" class="node">
<title>Node2</title>
<g id="a_Node000002"><a xlink:title=" ">
<polygon fill="#e0e0e0" stroke="#999999" points="52,-24.5 0,-24.5 0,-5.5 52,-5.5 52,-24.5"/>
<text text-anchor="middle" x="26" y="-12.5" font-family="Helvetica,sans-Serif" font-size="10.00">QEvent</text>
</a>
</g>
</g>
<!-- Node1&#45;&gt;Node2 -->
<g id="edge1_Node000001_Node000002" class="edge">
<title>Node1&#45;&gt;Node2</title>
<g id="a_edge1_Node000001_Node000002"><a xlink:title=" ">
<path fill="none" stroke="#63b8ff" d="M208.78,-65.96C164.89,-57.27 109.38,-44.92 61,-30 59.12,-29.42 57.21,-28.79 55.28,-28.12"/>
<polygon fill="#63b8ff" stroke="#63b8ff" points="56.38,-24.79 45.79,-24.57 53.93,-31.35 56.38,-24.79"/>
</a>
</g>
</g>
<!-- Node3 -->
<g id="Node000003" class="node">
<title>Node3</title>
<g id="a_Node000003"><a xlink:title=" ">
<polygon fill="#e0e0e0" stroke="#999999" points="126,-24.5 70,-24.5 70,-5.5 126,-5.5 126,-24.5"/>
<text text-anchor="middle" x="98" y="-12.5" font-family="Helvetica,sans-Serif" font-size="10.00">QObject</text>
</a>
</g>
</g>
<!-- Node1&#45;&gt;Node3 -->
<g id="edge2_Node000001_Node000003" class="edge">
<title>Node1&#45;&gt;Node3</title>
<g id="a_edge2_Node000001_Node000003"><a xlink:title=" ">
<path fill="none" stroke="#63b8ff" d="M242.6,-65.96C212.19,-56.21 171.01,-42.73 135,-30 133.35,-29.42 131.67,-28.81 129.97,-28.2"/>
<polygon fill="#63b8ff" stroke="#63b8ff" points="130.84,-24.79 120.25,-24.6 128.41,-31.35 130.84,-24.79"/>
</a>
</g>
</g>
<!-- Node4 -->
<g id="Node000004" class="node">
<title>Node4</title>
<g id="a_Node000004"><a xlink:title=" ">
<polygon fill="#e0e0e0" stroke="#999999" points="189.5,-24.5 144.5,-24.5 144.5,-5.5 189.5,-5.5 189.5,-24.5"/>
<text text-anchor="middle" x="167" y="-12.5" font-family="Helvetica,sans-Serif" font-size="10.00">QMap</text>
</a>
</g>
</g>
<!-- Node1&#45;&gt;Node4 -->
<g id="edge3_Node000001_Node000004" class="edge">
<title>Node1&#45;&gt;Node4</title>
<g id="a_edge3_Node000001_Node000004"><a xlink:title=" ">
<path fill="none" stroke="#63b8ff" d="M260.67,-65.95C240.18,-55.03 211.94,-39.97 191.84,-29.25"/>
<polygon fill="#63b8ff" stroke="#63b8ff" points="193.44,-26.14 182.97,-24.52 190.15,-32.31 193.44,-26.14"/>
</a>
</g>
</g>
<!-- Node5 -->
<g id="Node000005" class="node">
<title>Node5</title>
<g id="a_Node000005"><a xlink:title=" ">
<polygon fill="#e0e0e0" stroke="#999999" points="366.5,-24.5 207.5,-24.5 207.5,-5.5 366.5,-5.5 366.5,-24.5"/>
<text text-anchor="middle" x="287" y="-12.5" font-family="Helvetica,sans-Serif" font-size="10.00">../vgeometry/vgeometrydef.h</text>
</a>
</g>
</g>
<!-- Node1&#45;&gt;Node5 -->
<g id="edge4_Node000001_Node000005" class="edge">
<title>Node1&#45;&gt;Node5</title>
<g id="a_edge4_Node000001_Node000005"><a xlink:title=" ">
<path fill="none" stroke="#63b8ff" d="M287,-65.8C287,-56.7 287,-44.79 287,-34.9"/>
<polygon fill="#63b8ff" stroke="#63b8ff" points="290.5,-34.84 287,-24.84 283.5,-34.84 290.5,-34.84"/>
</a>
</g>
</g>
<!-- Node6 -->
<g id="Node000006" class="node">
<title>Node6</title>
<g id="a_Node000006"><a xlink:title=" ">
<polygon fill="#e0e0e0" stroke="#999999" points="497.5,-30 384.5,-30 384.5,0 497.5,0 497.5,-30"/>
<text text-anchor="start" x="392.5" y="-18" font-family="Helvetica,sans-Serif" font-size="10.00">../vpropertyexplorer</text>
<text text-anchor="middle" x="441" y="-7" font-family="Helvetica,sans-Serif" font-size="10.00">/vproperty.h</text>
</a>
</g>
</g>
<!-- Node1&#45;&gt;Node6 -->
<g id="edge5_Node000001_Node000006" class="edge">
<title>Node1&#45;&gt;Node6</title>
<g id="a_edge5_Node000001_Node000006"><a xlink:title=" ">
<path fill="none" stroke="#63b8ff" d="M320.8,-65.95C343.46,-56.53 373.52,-44.04 397.9,-33.91"/>
<polygon fill="#63b8ff" stroke="#63b8ff" points="399.39,-37.08 407.28,-30.01 396.71,-30.62 399.39,-37.08"/>
</a>
</g>
</g>
<!-- Node7 -->
<g id="Node000007" class="node">
<title>Node7</title>
<g id="a_Node000007"><a xlink:title=" ">
<polygon fill="#e0e0e0" stroke="#999999" points="628.5,-30 515.5,-30 515.5,0 628.5,0 628.5,-30"/>
<text text-anchor="start" x="523.5" y="-18" font-family="Helvetica,sans-Serif" font-size="10.00">../vpropertyexplorer</text>
<text text-anchor="middle" x="572" y="-7" font-family="Helvetica,sans-Serif" font-size="10.00">/vpropertymodel.h</text>
</a>
</g>
</g>
<!-- Node1&#45;&gt;Node7 -->
<g id="edge6_Node000001_Node000007" class="edge">
<title>Node1&#45;&gt;Node7</title>
<g id="a_edge6_Node000001_Node000007"><a xlink:title=" ">
<path fill="none" stroke="#63b8ff" d="M349.54,-65.95C395.74,-55.58 458.52,-41.48 505.61,-30.91"/>
<polygon fill="#63b8ff" stroke="#63b8ff" points="506.41,-34.32 515.4,-28.71 504.88,-27.49 506.41,-34.32"/>
</a>
</g>
</g>
<!-- Node8 -->
<g id="Node000008" class="node">
<title>Node8</title>
<g id="a_Node000008"><a xlink:title=" ">
<polygon fill="#e0e0e0" stroke="#999999" points="769,-30 647,-30 647,0 769,0 769,-30"/>
<text text-anchor="start" x="655" y="-18" font-family="Helvetica,sans-Serif" font-size="10.00">../vpropertyexplorer</text>
<text text-anchor="middle" x="708" y="-7" font-family="Helvetica,sans-Serif" font-size="10.00">/vpropertyformview.h</text>
</a>
</g>
</g>
<!-- Node1&#45;&gt;Node8 -->
<g id="edge7_Node000001_Node000008" class="edge">
<title>Node1&#45;&gt;Node8</title>
<g id="a_edge7_Node000001_Node000008"><a xlink:title=" ">
<path fill="none" stroke="#63b8ff" d="M371.6,-69.3C440.46,-60.27 540.4,-46.47 637.01,-30.11"/>
<polygon fill="#63b8ff" stroke="#63b8ff" points="637.68,-33.55 646.95,-28.42 636.51,-26.65 637.68,-33.55"/>
</a>
</g>
</g>
</g>
</svg>
