<?xml version="1.0" encoding="UTF-8" standalone="no"?>
<!DOCTYPE svg PUBLIC "-//W3C//DTD SVG 1.1//EN"
 "http://www.w3.org/Graphics/SVG/1.1/DTD/svg11.dtd">
<!-- Generated by graphviz version 2.43.0 (0)
 -->
<!-- Title: VPE::UserChangeEvent Pages: 1 -->
<svg width="132pt" height="157pt"
 viewBox="0.00 0.00 132.00 157.00" xmlns="http://www.w3.org/2000/svg" xmlns:xlink="http://www.w3.org/1999/xlink">
<g id="graph0" class="graph" transform="scale(1 1) rotate(0) translate(4 153)">
<title>VPE::UserChangeEvent</title>
<!-- Node1 -->
<g id="Node000001" class="node">
<title>Node1</title>
<g id="a_Node000001"><a xlink:title=" ">
<polygon fill="#999999" stroke="transparent" points="124,-64 0,-64 0,0 124,0 124,-64"/>
<text text-anchor="start" x="6" y="-52" font-family="Helvetica,sans-Serif" font-size="10.00">VPE::UserChangeEvent</text>
<text text-anchor="start" x="60" y="-37" font-family="Helvetica,sans-Serif" font-size="10.00"> </text>
<text text-anchor="start" x="4" y="-22" font-family="Helvetica,sans-Serif" font-size="10.00">+</text>
<text text-anchor="start" x="17" y="-22" font-family="Helvetica,sans-Serif" font-size="10.00">UserChangeEvent()</text>
<text text-anchor="start" x="4" y="-7" font-family="Helvetica,sans-Serif" font-size="10.00">+</text>
<text text-anchor="start" x="17" y="-7" font-family="Helvetica,sans-Serif" font-size="10.00">~UserChangeEvent()</text>
<polygon fill="#666666" stroke="#666666" points="0,-47 0,-47 124,-47 124,-47 0,-47"/>
<polygon fill="#666666" stroke="#666666" points="0,-32 0,-32 124,-32 124,-32 0,-32"/>
<polygon fill="none" stroke="#666666" points="0,0 0,-64 124,-64 124,0 0,0"/>
</a>
</g>
</g>
<!-- Node2 -->
<g id="Node000002" class="node">
<title>Node2</title>
<g id="a_Node000002"><a xlink:title=" ">
<polygon fill="white" stroke="transparent" points="85,-149 39,-149 39,-100 85,-100 85,-149"/>
<text text-anchor="start" x="44" y="-136.5" font-family="Helvetica,sans-Serif" font-size="10.00">QEvent</text>
<text text-anchor="start" x="60" y="-121.5" font-family="Helvetica,sans-Serif" font-size="10.00"> </text>
<text text-anchor="start" x="60" y="-106.5" font-family="Helvetica,sans-Serif" font-size="10.00"> </text>
<polygon fill="#666666" stroke="#666666" points="39,-131.5 39,-131.5 85,-131.5 85,-131.5 39,-131.5"/>
<polygon fill="#666666" stroke="#666666" points="39,-116.5 39,-116.5 85,-116.5 85,-116.5 39,-116.5"/>
<polygon fill="none" stroke="#666666" points="39,-100 39,-149 85,-149 85,-100 39,-100"/>
</a>
</g>
</g>
<!-- Node2&#45;&gt;Node1 -->
<g id="edge1_Node000001_Node000002" class="edge">
<title>Node2&#45;&gt;Node1</title>
<g id="a_edge1_Node000001_Node000002"><a xlink:title=" ">
<path fill="none" stroke="#63b8ff" d="M62,-89.54C62,-81.2 62,-72.31 62,-64.11"/>
<polygon fill="none" stroke="#63b8ff" points="58.5,-89.72 62,-99.72 65.5,-89.72 58.5,-89.72"/>
</a>
</g>
</g>
</g>
</svg>
