<?xml version="1.0" encoding="UTF-8" standalone="no"?>
<!DOCTYPE svg PUBLIC "-//W3C//DTD SVG 1.1//EN"
 "http://www.w3.org/Graphics/SVG/1.1/DTD/svg11.dtd">
<!-- Generated by graphviz version 2.43.0 (0)
 -->
<!-- Title: src/libs/ifc/ifcdef.h Pages: 1 -->
<svg width="897pt" height="192pt"
 viewBox="0.00 0.00 896.50 192.00" xmlns="http://www.w3.org/2000/svg" xmlns:xlink="http://www.w3.org/1999/xlink">
<g id="graph0" class="graph" transform="scale(1 1) rotate(0) translate(4 188)">
<title>src/libs/ifc/ifcdef.h</title>
<!-- Node1 -->
<g id="Node000001" class="node">
<title>Node1</title>
<g id="a_Node000001"><a xlink:title=" ">
<polygon fill="#999999" stroke="#666666" points="242,-184 137,-184 137,-165 242,-165 242,-184"/>
<text text-anchor="middle" x="189.5" y="-172" font-family="Helvetica,sans-Serif" font-size="10.00">src/libs/ifc/ifcdef.h</text>
</a>
</g>
</g>
<!-- Node2 -->
<g id="Node000002" class="node">
<title>Node2</title>
<g id="a_Node000002"><a xlink:title=" ">
<polygon fill="#e0e0e0" stroke="#999999" points="53,-74 0,-74 0,-55 53,-55 53,-74"/>
<text text-anchor="middle" x="26.5" y="-62" font-family="Helvetica,sans-Serif" font-size="10.00">QString</text>
</a>
</g>
</g>
<!-- Node1&#45;&gt;Node2 -->
<g id="edge1_Node000001_Node000002" class="edge">
<title>Node1&#45;&gt;Node2</title>
<g id="a_edge1_Node000001_Node000002"><a xlink:title=" ">
<path fill="none" stroke="#63b8ff" d="M172.54,-164.98C156.05,-156.49 130.5,-142.77 109.5,-129 86.11,-113.67 60.8,-93.78 44.36,-80.38"/>
<polygon fill="#63b8ff" stroke="#63b8ff" points="46.57,-77.67 36.63,-74.02 42.13,-83.08 46.57,-77.67"/>
</a>
</g>
</g>
<!-- Node3 -->
<g id="Node000003" class="node">
<title>Node3</title>
<g id="a_Node000003"><a xlink:title=" ">
<polygon fill="#e0e0e0" stroke="#999999" points="141.5,-74 71.5,-74 71.5,-55 141.5,-55 141.5,-74"/>
<text text-anchor="middle" x="106.5" y="-62" font-family="Helvetica,sans-Serif" font-size="10.00">QStringList</text>
</a>
</g>
</g>
<!-- Node1&#45;&gt;Node3 -->
<g id="edge2_Node000001_Node000003" class="edge">
<title>Node1&#45;&gt;Node3</title>
<g id="a_edge2_Node000001_Node000003"><a xlink:title=" ">
<path fill="none" stroke="#63b8ff" d="M168.54,-164.95C153.22,-157.63 133.17,-145.63 121.5,-129 112.25,-115.81 108.65,-97.69 107.27,-84.17"/>
<polygon fill="#63b8ff" stroke="#63b8ff" points="110.76,-83.85 106.57,-74.12 103.78,-84.34 110.76,-83.85"/>
</a>
</g>
</g>
<!-- Node4 -->
<g id="Node000004" class="node">
<title>Node4</title>
<g id="a_Node000004"><a xlink:title=" ">
<polygon fill="#e0e0e0" stroke="#999999" points="219,-74 160,-74 160,-55 219,-55 219,-74"/>
<text text-anchor="middle" x="189.5" y="-62" font-family="Helvetica,sans-Serif" font-size="10.00">QtGlobal</text>
</a>
</g>
</g>
<!-- Node1&#45;&gt;Node4 -->
<g id="edge3_Node000001_Node000004" class="edge">
<title>Node1&#45;&gt;Node4</title>
<g id="a_edge3_Node000001_Node000004"><a xlink:title=" ">
<path fill="none" stroke="#63b8ff" d="M213.28,-164.92C228.93,-157.89 248.17,-146.25 257.5,-129 268.98,-107.77 243.89,-89.69 221.02,-78.32"/>
<polygon fill="#63b8ff" stroke="#63b8ff" points="222.33,-75.07 211.79,-74.01 219.37,-81.41 222.33,-75.07"/>
</a>
</g>
</g>
<!-- Node5 -->
<g id="Node000005" class="node">
<title>Node5</title>
<g id="a_Node000005"><a xlink:href="../../d4/da4/def_8h.html" target="_top" xlink:title=" ">
<polygon fill="white" stroke="#666666" points="423.5,-129 341.5,-129 341.5,-110 423.5,-110 423.5,-129"/>
<text text-anchor="middle" x="382.5" y="-117" font-family="Helvetica,sans-Serif" font-size="10.00">../vmisc/def.h</text>
</a>
</g>
</g>
<!-- Node1&#45;&gt;Node5 -->
<g id="edge4_Node000001_Node000005" class="edge">
<title>Node1&#45;&gt;Node5</title>
<g id="a_edge4_Node000001_Node000005"><a xlink:title=" ">
<path fill="none" stroke="#63b8ff" d="M220.51,-164.98C253.33,-155.97 305.3,-141.7 341.49,-131.76"/>
<polygon fill="#63b8ff" stroke="#63b8ff" points="342.53,-135.11 351.25,-129.08 340.68,-128.36 342.53,-135.11"/>
</a>
</g>
</g>
<!-- Node15 -->
<g id="Node000015" class="node">
<title>Node15</title>
<g id="a_Node000015"><a xlink:href="../../d6/dcd/diagnostic_8h.html" target="_top" xlink:title=" ">
<polygon fill="white" stroke="#666666" points="248,-129 131,-129 131,-110 248,-110 248,-129"/>
<text text-anchor="middle" x="189.5" y="-117" font-family="Helvetica,sans-Serif" font-size="10.00">../vmisc/diagnostic.h</text>
</a>
</g>
</g>
<!-- Node1&#45;&gt;Node15 -->
<g id="edge17_Node000001_Node000015" class="edge">
<title>Node1&#45;&gt;Node15</title>
<g id="a_edge17_Node000001_Node000015"><a xlink:title=" ">
<path fill="none" stroke="#63b8ff" d="M189.5,-164.75C189.5,-157.8 189.5,-147.85 189.5,-139.13"/>
<polygon fill="#63b8ff" stroke="#63b8ff" points="193,-139.09 189.5,-129.09 186,-139.09 193,-139.09"/>
</a>
</g>
</g>
<!-- Node5&#45;&gt;Node2 -->
<g id="edge8_Node000005_Node000002" class="edge">
<title>Node5&#45;&gt;Node2</title>
<g id="a_edge8_Node000005_Node000002"><a xlink:title=" ">
<path fill="none" stroke="#63b8ff" d="M341.38,-114.03C282.13,-107.32 169.12,-93.5 63.09,-73.94"/>
<polygon fill="#63b8ff" stroke="#63b8ff" points="63.65,-70.49 53.18,-72.09 62.37,-77.37 63.65,-70.49"/>
</a>
</g>
</g>
<!-- Node5&#45;&gt;Node3 -->
<g id="edge9_Node000005_Node000003" class="edge">
<title>Node5&#45;&gt;Node3</title>
<g id="a_edge9_Node000005_Node000003"><a xlink:title=" ">
<path fill="none" stroke="#63b8ff" d="M341.48,-110.62C290.66,-100.86 204.35,-84.29 151.68,-74.18"/>
<polygon fill="#63b8ff" stroke="#63b8ff" points="152.09,-70.69 141.61,-72.24 150.77,-77.57 152.09,-70.69"/>
</a>
</g>
</g>
<!-- Node5&#45;&gt;Node4 -->
<g id="edge11_Node000005_Node000004" class="edge">
<title>Node5&#45;&gt;Node4</title>
<g id="a_edge11_Node000005_Node000004"><a xlink:title=" ">
<path fill="none" stroke="#63b8ff" d="M351.49,-109.98C318.18,-100.84 265.16,-86.28 228.91,-76.32"/>
<polygon fill="#63b8ff" stroke="#63b8ff" points="229.73,-72.92 219.16,-73.65 227.88,-79.67 229.73,-72.92"/>
</a>
</g>
</g>
<!-- Node6 -->
<g id="Node000006" class="node">
<title>Node6</title>
<g id="a_Node000006"><a xlink:title=" ">
<polygon fill="#e0e0e0" stroke="#999999" points="888.5,-74 768.5,-74 768.5,-55 888.5,-55 888.5,-74"/>
<text text-anchor="middle" x="828.5" y="-62" font-family="Helvetica,sans-Serif" font-size="10.00">qcompilerdetection.h</text>
</a>
</g>
</g>
<!-- Node5&#45;&gt;Node6 -->
<g id="edge5_Node000005_Node000006" class="edge">
<title>Node5&#45;&gt;Node6</title>
<g id="a_edge5_Node000005_Node000006"><a xlink:title=" ">
<path fill="none" stroke="#63b8ff" d="M423.51,-113.73C491.01,-105.86 630.02,-89.59 758.29,-74.14"/>
<polygon fill="#63b8ff" stroke="#63b8ff" points="758.78,-77.61 768.29,-72.94 757.94,-70.66 758.78,-77.61"/>
</a>
</g>
</g>
<!-- Node7 -->
<g id="Node000007" class="node">
<title>Node7</title>
<g id="a_Node000007"><a xlink:title=" ">
<polygon fill="#e0e0e0" stroke="#999999" points="310,-74 237,-74 237,-55 310,-55 310,-74"/>
<text text-anchor="middle" x="273.5" y="-62" font-family="Helvetica,sans-Serif" font-size="10.00">QFileDialog</text>
</a>
</g>
</g>
<!-- Node5&#45;&gt;Node7 -->
<g id="edge6_Node000005_Node000007" class="edge">
<title>Node5&#45;&gt;Node7</title>
<g id="a_edge6_Node000005_Node000007"><a xlink:title=" ">
<path fill="none" stroke="#63b8ff" d="M364.99,-109.98C347.53,-101.5 320.49,-88.35 300.33,-78.54"/>
<polygon fill="#63b8ff" stroke="#63b8ff" points="301.86,-75.4 291.33,-74.17 298.79,-81.69 301.86,-75.4"/>
</a>
</g>
</g>
<!-- Node8 -->
<g id="Node000008" class="node">
<title>Node8</title>
<g id="a_Node000008"><a xlink:title=" ">
<polygon fill="#e0e0e0" stroke="#999999" points="378.5,-74 328.5,-74 328.5,-55 378.5,-55 378.5,-74"/>
<text text-anchor="middle" x="353.5" y="-62" font-family="Helvetica,sans-Serif" font-size="10.00">QLineF</text>
</a>
</g>
</g>
<!-- Node5&#45;&gt;Node8 -->
<g id="edge7_Node000005_Node000008" class="edge">
<title>Node5&#45;&gt;Node8</title>
<g id="a_edge7_Node000005_Node000008"><a xlink:title=" ">
<path fill="none" stroke="#63b8ff" d="M377.71,-109.75C373.74,-102.49 367.97,-91.95 363.07,-82.98"/>
<polygon fill="#63b8ff" stroke="#63b8ff" points="366.07,-81.18 358.2,-74.09 359.93,-84.54 366.07,-81.18"/>
</a>
</g>
</g>
<!-- Node9 -->
<g id="Node000009" class="node">
<title>Node9</title>
<g id="a_Node000009"><a xlink:title=" ">
<polygon fill="#e0e0e0" stroke="#999999" points="426,-74 397,-74 397,-55 426,-55 426,-74"/>
<text text-anchor="middle" x="411.5" y="-62" font-family="Helvetica,sans-Serif" font-size="10.00">Qt</text>
</a>
</g>
</g>
<!-- Node5&#45;&gt;Node9 -->
<g id="edge10_Node000005_Node000009" class="edge">
<title>Node5&#45;&gt;Node9</title>
<g id="a_edge10_Node000005_Node000009"><a xlink:title=" ">
<path fill="none" stroke="#63b8ff" d="M387.29,-109.75C391.26,-102.49 397.03,-91.95 401.93,-82.98"/>
<polygon fill="#63b8ff" stroke="#63b8ff" points="405.07,-84.54 406.8,-74.09 398.93,-81.18 405.07,-84.54"/>
</a>
</g>
</g>
<!-- Node10 -->
<g id="Node000010" class="node">
<title>Node10</title>
<g id="a_Node000010"><a xlink:title=" ">
<polygon fill="#e0e0e0" stroke="#999999" points="500.5,-74 444.5,-74 444.5,-55 500.5,-55 500.5,-74"/>
<text text-anchor="middle" x="472.5" y="-62" font-family="Helvetica,sans-Serif" font-size="10.00">QPrinter</text>
</a>
</g>
</g>
<!-- Node5&#45;&gt;Node10 -->
<g id="edge12_Node000005_Node000010" class="edge">
<title>Node5&#45;&gt;Node10</title>
<g id="a_edge12_Node000005_Node000010"><a xlink:title=" ">
<path fill="none" stroke="#63b8ff" d="M396.96,-109.98C410.92,-101.77 432.29,-89.18 448.75,-79.49"/>
<polygon fill="#63b8ff" stroke="#63b8ff" points="450.94,-82.26 457.78,-74.17 447.38,-76.23 450.94,-82.26"/>
</a>
</g>
</g>
<!-- Node11 -->
<g id="Node000011" class="node">
<title>Node11</title>
<g id="a_Node000011"><a xlink:title=" ">
<polygon fill="#e0e0e0" stroke="#999999" points="580,-74 519,-74 519,-55 580,-55 580,-74"/>
<text text-anchor="middle" x="549.5" y="-62" font-family="Helvetica,sans-Serif" font-size="10.00">QPixmap</text>
</a>
</g>
</g>
<!-- Node5&#45;&gt;Node11 -->
<g id="edge13_Node000005_Node000011" class="edge">
<title>Node5&#45;&gt;Node11</title>
<g id="a_edge13_Node000005_Node000011"><a xlink:title=" ">
<path fill="none" stroke="#63b8ff" d="M409.33,-109.98C437.37,-101.09 481.55,-87.07 512.8,-77.15"/>
<polygon fill="#63b8ff" stroke="#63b8ff" points="513.99,-80.44 522.46,-74.08 511.87,-73.77 513.99,-80.44"/>
</a>
</g>
</g>
<!-- Node12 -->
<g id="Node000012" class="node">
<title>Node12</title>
<g id="a_Node000012"><a xlink:title=" ">
<polygon fill="#e0e0e0" stroke="#999999" points="649,-74 598,-74 598,-55 649,-55 649,-74"/>
<text text-anchor="middle" x="623.5" y="-62" font-family="Helvetica,sans-Serif" font-size="10.00">csignal</text>
</a>
</g>
</g>
<!-- Node5&#45;&gt;Node12 -->
<g id="edge14_Node000005_Node000012" class="edge">
<title>Node5&#45;&gt;Node12</title>
<g id="a_edge14_Node000005_Node000012"><a xlink:title=" ">
<path fill="none" stroke="#63b8ff" d="M423.83,-110.04C463.55,-101.81 525.52,-88.73 587.89,-74.32"/>
<polygon fill="#63b8ff" stroke="#63b8ff" points="588.95,-77.67 597.9,-72 587.37,-70.85 588.95,-77.67"/>
</a>
</g>
</g>
<!-- Node13 -->
<g id="Node000013" class="node">
<title>Node13</title>
<g id="a_Node000013"><a xlink:href="../../d4/d82/debugbreak_8h.html" target="_top" xlink:title=" ">
<polygon fill="white" stroke="#666666" points="750,-74 667,-74 667,-55 750,-55 750,-74"/>
<text text-anchor="middle" x="708.5" y="-62" font-family="Helvetica,sans-Serif" font-size="10.00">debugbreak.h</text>
</a>
</g>
</g>
<!-- Node5&#45;&gt;Node13 -->
<g id="edge15_Node000005_Node000013" class="edge">
<title>Node5&#45;&gt;Node13</title>
<g id="a_edge15_Node000005_Node000013"><a xlink:title=" ">
<path fill="none" stroke="#63b8ff" d="M423.67,-111.97C475.67,-103.71 568.19,-88.92 656.81,-74.27"/>
<polygon fill="#63b8ff" stroke="#63b8ff" points="657.47,-77.71 666.76,-72.62 656.33,-70.8 657.47,-77.71"/>
</a>
</g>
</g>
<!-- Node14 -->
<g id="Node000014" class="node">
<title>Node14</title>
<g id="a_Node000014"><a xlink:title=" ">
<polygon fill="#e0e0e0" stroke="#999999" points="736,-19 681,-19 681,0 736,0 736,-19"/>
<text text-anchor="middle" x="708.5" y="-7" font-family="Helvetica,sans-Serif" font-size="10.00">signal.h</text>
</a>
</g>
</g>
<!-- Node13&#45;&gt;Node14 -->
<g id="edge16_Node000013_Node000014" class="edge">
<title>Node13&#45;&gt;Node14</title>
<g id="a_edge16_Node000013_Node000014"><a xlink:title=" ">
<path fill="none" stroke="#63b8ff" d="M708.5,-54.75C708.5,-47.8 708.5,-37.85 708.5,-29.13"/>
<polygon fill="#63b8ff" stroke="#63b8ff" points="712,-29.09 708.5,-19.09 705,-29.09 712,-29.09"/>
</a>
</g>
</g>
<!-- Node15&#45;&gt;Node4 -->
<g id="edge18_Node000015_Node000004" class="edge">
<title>Node15&#45;&gt;Node4</title>
<g id="a_edge18_Node000015_Node000004"><a xlink:title=" ">
<path fill="none" stroke="#63b8ff" d="M189.5,-109.75C189.5,-102.8 189.5,-92.85 189.5,-84.13"/>
<polygon fill="#63b8ff" stroke="#63b8ff" points="193,-84.09 189.5,-74.09 186,-84.09 193,-84.09"/>
</a>
</g>
</g>
</g>
</svg>
