<?xml version="1.0" encoding="UTF-8" standalone="no"?>
<!DOCTYPE svg PUBLIC "-//W3C//DTD SVG 1.1//EN"
 "http://www.w3.org/Graphics/SVG/1.1/DTD/svg11.dtd">
<!-- Generated by graphviz version 2.43.0 (0)
 -->
<!-- Title: dx_ifaceBlock Pages: 1 -->
<svg width="228pt" height="183pt"
 viewBox="0.00 0.00 228.00 183.00" xmlns="http://www.w3.org/2000/svg" xmlns:xlink="http://www.w3.org/1999/xlink">
<g id="graph0" class="graph" transform="scale(1 1) rotate(0) translate(4 179)">
<title>dx_ifaceBlock</title>
<!-- Node1 -->
<g id="Node000001" class="node">
<title>Node1</title>
<g id="a_Node000001"><a xlink:title=" ">
<polygon fill="#999999" stroke="transparent" points="145.5,-79 39.5,-79 39.5,0 145.5,0 145.5,-79"/>
<text text-anchor="start" x="58" y="-66.5" font-family="Helvetica,sans-Serif" font-size="10.00">dx_ifaceBlock</text>
<text text-anchor="start" x="90.5" y="-51.5" font-family="Helvetica,sans-Serif" font-size="10.00"> </text>
<text text-anchor="start" x="43.5" y="-36.5" font-family="Helvetica,sans-Serif" font-size="10.00">+</text>
<text text-anchor="start" x="56.5" y="-36.5" font-family="Helvetica,sans-Serif" font-size="10.00">dx_ifaceBlock()</text>
<text text-anchor="start" x="43.5" y="-21.5" font-family="Helvetica,sans-Serif" font-size="10.00">+</text>
<text text-anchor="start" x="56.5" y="-21.5" font-family="Helvetica,sans-Serif" font-size="10.00">dx_ifaceBlock()</text>
<text text-anchor="start" x="43.5" y="-6.5" font-family="Helvetica,sans-Serif" font-size="10.00">+</text>
<text text-anchor="start" x="56.5" y="-6.5" font-family="Helvetica,sans-Serif" font-size="10.00">~dx_ifaceBlock()</text>
<polygon fill="#666666" stroke="#666666" points="39.5,-61.5 39.5,-61.5 145.5,-61.5 145.5,-61.5 39.5,-61.5"/>
<polygon fill="#666666" stroke="#666666" points="39.5,-46.5 39.5,-46.5 145.5,-46.5 145.5,-46.5 39.5,-46.5"/>
<polygon fill="none" stroke="#666666" points="39.5,0 39.5,-79 145.5,-79 145.5,0 39.5,0"/>
</a>
</g>
</g>
<!-- Node2 -->
<g id="Node000002" class="node">
<title>Node2</title>
<g id="a_Node000002"><a xlink:title=" ">
<polygon fill="white" stroke="transparent" points="67,-175 0,-175 0,-126 67,-126 67,-175"/>
<text text-anchor="start" x="5.5" y="-162.5" font-family="Helvetica,sans-Serif" font-size="10.00">DRW_Block</text>
<text text-anchor="start" x="32" y="-147.5" font-family="Helvetica,sans-Serif" font-size="10.00"> </text>
<text text-anchor="start" x="32" y="-132.5" font-family="Helvetica,sans-Serif" font-size="10.00"> </text>
<polygon fill="#666666" stroke="#666666" points="0.5,-157.5 0.5,-157.5 67.5,-157.5 67.5,-157.5 0.5,-157.5"/>
<polygon fill="#666666" stroke="#666666" points="0.5,-142.5 0.5,-142.5 67.5,-142.5 67.5,-142.5 0.5,-142.5"/>
<polygon fill="none" stroke="#666666" points="0,-126 0,-175 67,-175 67,-126 0,-126"/>
</a>
</g>
</g>
<!-- Node2&#45;&gt;Node1 -->
<g id="edge1_Node000001_Node000002" class="edge">
<title>Node2&#45;&gt;Node1</title>
<g id="a_edge1_Node000001_Node000002"><a xlink:title=" ">
<path fill="none" stroke="#63b8ff" d="M51.23,-116.75C57.64,-104.9 64.94,-91.41 71.6,-79.1"/>
<polygon fill="none" stroke="#63b8ff" points="47.98,-115.39 46.3,-125.85 54.14,-118.72 47.98,-115.39"/>
</a>
</g>
</g>
<!-- Node3 -->
<g id="Node000003" class="node">
<title>Node3</title>
<g id="a_Node000003"><a xlink:title=" ">
<polygon fill="white" stroke="transparent" points="220,-175 85,-175 85,-126 220,-126 220,-175"/>
<text text-anchor="start" x="90.5" y="-162.5" font-family="Helvetica,sans-Serif" font-size="10.00">std::list&lt; DRW_Entity * &gt;</text>
<text text-anchor="start" x="106.5" y="-147.5" font-family="Helvetica,sans-Serif" font-size="10.00">+</text>
<text text-anchor="start" x="136.5" y="-147.5" font-family="Helvetica,sans-Serif" font-size="10.00">elements</text>
<text text-anchor="start" x="151" y="-132.5" font-family="Helvetica,sans-Serif" font-size="10.00"> </text>
<polygon fill="#666666" stroke="#666666" points="85.5,-157.5 85.5,-157.5 220.5,-157.5 220.5,-157.5 85.5,-157.5"/>
<polygon fill="#666666" stroke="#666666" points="85.5,-142.5 85.5,-142.5 134.5,-142.5 134.5,-142.5 85.5,-142.5"/>
<polygon fill="#666666" stroke="#666666" points="134.5,-142.5 134.5,-142.5 220.5,-142.5 220.5,-142.5 134.5,-142.5"/>
<polygon fill="none" stroke="#666666" points="85,-126 85,-175 220,-175 220,-126 85,-126"/>
</a>
</g>
</g>
<!-- Node3&#45;&gt;Node1 -->
<g id="edge2_Node000001_Node000003" class="edge">
<title>Node3&#45;&gt;Node1</title>
<g id="a_edge2_Node000001_Node000003"><a xlink:title=" ">
<path fill="none" stroke="#63b8ff" d="M139.48,-125.85C133.67,-115.29 126.59,-102.43 119.71,-89.93"/>
<polygon fill="none" stroke="#63b8ff" points="119.54,-89.62 113.14,-86.29 113.75,-79.1 120.15,-82.43 119.54,-89.62"/>
</a>
</g>
<text text-anchor="middle" x="143.5" y="-100" font-family="Helvetica,sans-Serif" font-size="10.00" fill="grey"> +ent</text>
</g>
</g>
</svg>
