<?xml version="1.0" encoding="UTF-8" standalone="no"?>
<!DOCTYPE svg PUBLIC "-//W3C//DTD SVG 1.1//EN"
 "http://www.w3.org/Graphics/SVG/1.1/DTD/svg11.dtd">
<!-- Generated by graphviz version 2.43.0 (0)
 -->
<!-- Title: ExpandingTextEdit Pages: 1 -->
<svg width="127pt" height="187pt"
 viewBox="0.00 0.00 127.00 187.00" xmlns="http://www.w3.org/2000/svg" xmlns:xlink="http://www.w3.org/1999/xlink">
<g id="graph0" class="graph" transform="scale(1 1) rotate(0) translate(4 183)">
<title>ExpandingTextEdit</title>
<!-- Node1 -->
<g id="Node000001" class="node">
<title>Node1</title>
<g id="a_Node000001"><a xlink:title=" ">
<polygon fill="#999999" stroke="transparent" points="119,-94 0,-94 0,0 119,0 119,-94"/>
<text text-anchor="start" x="14.5" y="-82" font-family="Helvetica,sans-Serif" font-size="10.00">ExpandingTextEdit</text>
<text text-anchor="start" x="58" y="-67" font-family="Helvetica,sans-Serif" font-size="10.00"> </text>
<text text-anchor="start" x="4.5" y="-52" font-family="Helvetica,sans-Serif" font-size="10.00">+</text>
<text text-anchor="start" x="17.5" y="-52" font-family="Helvetica,sans-Serif" font-size="10.00">ExpandingTextEdit()</text>
<text text-anchor="start" x="4.5" y="-37" font-family="Helvetica,sans-Serif" font-size="10.00">+</text>
<text text-anchor="start" x="17.5" y="-37" font-family="Helvetica,sans-Serif" font-size="10.00">ExpandingTextEdit()</text>
<text text-anchor="start" x="4.5" y="-22" font-family="Helvetica,sans-Serif" font-size="10.00">#</text>
<text text-anchor="start" x="17.5" y="-22" font-family="Helvetica,sans-Serif" font-size="10.00">focusInEvent()</text>
<text text-anchor="start" x="4.5" y="-7" font-family="Helvetica,sans-Serif" font-size="10.00">#</text>
<text text-anchor="start" x="17.5" y="-7" font-family="Helvetica,sans-Serif" font-size="10.00">focusOutEvent()</text>
<polygon fill="#666666" stroke="#666666" points="0.5,-77 0.5,-77 119.5,-77 119.5,-77 0.5,-77"/>
<polygon fill="#666666" stroke="#666666" points="0.5,-62 0.5,-62 119.5,-62 119.5,-62 0.5,-62"/>
<polygon fill="none" stroke="#666666" points="0,0 0,-94 119,-94 119,0 0,0"/>
</a>
</g>
</g>
<!-- Node2 -->
<g id="Node000002" class="node">
<title>Node2</title>
<g id="a_Node000002"><a xlink:title=" ">
<polygon fill="white" stroke="transparent" points="100,-179 19,-179 19,-130 100,-130 100,-179"/>
<text text-anchor="start" x="24.5" y="-166.5" font-family="Helvetica,sans-Serif" font-size="10.00">QPlainTextEdit</text>
<text text-anchor="start" x="58" y="-151.5" font-family="Helvetica,sans-Serif" font-size="10.00"> </text>
<text text-anchor="start" x="58" y="-136.5" font-family="Helvetica,sans-Serif" font-size="10.00"> </text>
<polygon fill="#666666" stroke="#666666" points="19.5,-161.5 19.5,-161.5 100.5,-161.5 100.5,-161.5 19.5,-161.5"/>
<polygon fill="#666666" stroke="#666666" points="19.5,-146.5 19.5,-146.5 100.5,-146.5 100.5,-146.5 19.5,-146.5"/>
<polygon fill="none" stroke="#666666" points="19,-130 19,-179 100,-179 100,-130 19,-130"/>
</a>
</g>
</g>
<!-- Node2&#45;&gt;Node1 -->
<g id="edge1_Node000001_Node000002" class="edge">
<title>Node2&#45;&gt;Node1</title>
<g id="a_edge1_Node000001_Node000002"><a xlink:title=" ">
<path fill="none" stroke="#63b8ff" d="M59.5,-119.61C59.5,-111.48 59.5,-102.66 59.5,-94.08"/>
<polygon fill="none" stroke="#63b8ff" points="56,-119.82 59.5,-129.82 63,-119.82 56,-119.82"/>
</a>
</g>
</g>
</g>
</svg>
