<?xml version="1.0" encoding="UTF-8" standalone="no"?>
<!DOCTYPE svg PUBLIC "-//W3C//DTD SVG 1.1//EN"
 "http://www.w3.org/Graphics/SVG/1.1/DTD/svg11.dtd">
<!-- Generated by graphviz version 2.43.0 (0)
 -->
<!-- Title: VObjEngine Pages: 1 -->
<!--zoomable 408 -->

<svg id="main" version="1.1" xmlns="http://www.w3.org/2000/svg" xmlns:xlink="http://www.w3.org/1999/xlink" xml:space="preserve" onload="init(evt)">
<style type="text/css"><![CDATA[
.node, .edge {opacity: 0.7;}
.node.selected, .edge.selected {opacity: 1;}
.edge:hover path { stroke: red; }
.edge:hover polygon { stroke: red; fill: red; }
]]></style>

<defs>
  <circle id="rim" cx="0" cy="0" r="7"/>
  <circle id="rim2" cx="0" cy="0" r="3.5"/>
  <g id="zoomPlus">
    <use xlink:href="#rim" fill="#404040"><set attributeName="fill" to="#808080" begin="zoomplus.mouseover" end="zoomplus.mouseout"/></use>
    <path d="M-4,0h8M0,-4v8" fill="none" stroke="white" stroke-width="1.5" pointer-events="none"/>
  </g>
  <g id="zoomMin">
    <use xlink:href="#rim" fill="#404040"><set attributeName="fill" to="#808080" begin="zoomminus.mouseover" end="zoomminus.mouseout"/></use>
    <path d="M-4,0h8" fill="none" stroke="white" stroke-width="1.5" pointer-events="none"/>
  </g>
  <g id="arrowUp" transform="translate(30 24)">
    <use xlink:href="#rim"/>
    <path pointer-events="none" fill="none" stroke="white" stroke-width="1.5" d="M0,-3.0v7 M-2.5,-0.5L0,-3.0L2.5,-0.5"/>
  </g>
  <g id="arrowRight" transform="rotate(90) translate(36 -43)">
    <use xlink:href="#rim"/>
    <path pointer-events="none" fill="none" stroke="white" stroke-width="1.5" d="M0,-3.0v7 M-2.5,-0.5L0,-3.0L2.5,-0.5"/>
  </g>
  <g id="arrowDown" transform="rotate(180) translate(-30 -48)">
    <use xlink:href="#rim"/>
    <path pointer-events="none" fill="none" stroke="white" stroke-width="1.5" d="M0,-3.0v7 M-2.5,-0.5L0,-3.0L2.5,-0.5"/>
  </g>
  <g id="arrowLeft" transform="rotate(270) translate(-36 17)">
    <use xlink:href="#rim"/>
    <path pointer-events="none" fill="none" stroke="white" stroke-width="1.5" d="M0,-3.0v7 M-2.5,-0.5L0,-3.0L2.5,-0.5"/>
  </g>
  <g id="resetDef">
    <use xlink:href="#rim2" fill="#404040"><set attributeName="fill" to="#808080" begin="reset.mouseover" end="reset.mouseout"/></use>
  </g>
</defs>
<script type="application/ecmascript">
var viewWidth = 548;
var viewHeight = 408;
var sectionId = 'dynsection-1';
</script>
<script type="application/ecmascript" xlink:href="../../svg.min.js"/>
<svg id="graph" class="graph">
<g id="viewport">
<title>VObjEngine</title>
<!-- Node1 -->
<g id="Node000001" class="node">
<title>Node1</title>
<g id="a_Node000001"><a xlink:title=" ">
<polygon fill="#999999" stroke="transparent" points="331.5,-289 211.5,-289 211.5,0 331.5,0 331.5,-289"/>
<text text-anchor="start" x="243" y="-276.5" font-family="Helvetica,sans-Serif" font-size="10.00">VObjEngine</text>
<text text-anchor="start" x="218" y="-261.5" font-family="Helvetica,sans-Serif" font-size="10.00">&#45;</text>
<text text-anchor="start" x="228.5" y="-261.5" font-family="Helvetica,sans-Serif" font-size="10.00">globalPointsCount</text>
<text text-anchor="start" x="218" y="-246.5" font-family="Helvetica,sans-Serif" font-size="10.00">&#45;</text>
<text text-anchor="start" x="228.5" y="-246.5" font-family="Helvetica,sans-Serif" font-size="10.00">planeCount</text>
<text text-anchor="start" x="218" y="-231.5" font-family="Helvetica,sans-Serif" font-size="10.00">&#45;</text>
<text text-anchor="start" x="228.5" y="-231.5" font-family="Helvetica,sans-Serif" font-size="10.00">size</text>
<text text-anchor="start" x="218" y="-216.5" font-family="Helvetica,sans-Serif" font-size="10.00">&#45;</text>
<text text-anchor="start" x="228.5" y="-216.5" font-family="Helvetica,sans-Serif" font-size="10.00">resolution</text>
<text text-anchor="start" x="218" y="-201.5" font-family="Helvetica,sans-Serif" font-size="10.00">&#45;</text>
<text text-anchor="start" x="228.5" y="-201.5" font-family="Helvetica,sans-Serif" font-size="10.00">transform</text>
<text text-anchor="start" x="215.5" y="-186.5" font-family="Helvetica,sans-Serif" font-size="10.00">+</text>
<text text-anchor="start" x="228.5" y="-186.5" font-family="Helvetica,sans-Serif" font-size="10.00">VObjEngine()</text>
<text text-anchor="start" x="215.5" y="-171.5" font-family="Helvetica,sans-Serif" font-size="10.00">+</text>
<text text-anchor="start" x="228.5" y="-171.5" font-family="Helvetica,sans-Serif" font-size="10.00">~VObjEngine()</text>
<text text-anchor="start" x="215.5" y="-156.5" font-family="Helvetica,sans-Serif" font-size="10.00">+</text>
<text text-anchor="start" x="228.5" y="-156.5" font-family="Helvetica,sans-Serif" font-size="10.00">begin()</text>
<text text-anchor="start" x="215.5" y="-141.5" font-family="Helvetica,sans-Serif" font-size="10.00">+</text>
<text text-anchor="start" x="228.5" y="-141.5" font-family="Helvetica,sans-Serif" font-size="10.00">end()</text>
<text text-anchor="start" x="215.5" y="-126.5" font-family="Helvetica,sans-Serif" font-size="10.00">+</text>
<text text-anchor="start" x="228.5" y="-126.5" font-family="Helvetica,sans-Serif" font-size="10.00">updateState()</text>
<text text-anchor="start" x="215.5" y="-111.5" font-family="Helvetica,sans-Serif" font-size="10.00">+</text>
<text text-anchor="start" x="228.5" y="-111.5" font-family="Helvetica,sans-Serif" font-size="10.00">drawPath()</text>
<text text-anchor="start" x="215.5" y="-96.5" font-family="Helvetica,sans-Serif" font-size="10.00">+</text>
<text text-anchor="start" x="228.5" y="-96.5" font-family="Helvetica,sans-Serif" font-size="10.00">type()</text>
<text text-anchor="start" x="215.5" y="-81.5" font-family="Helvetica,sans-Serif" font-size="10.00">+</text>
<text text-anchor="start" x="228.5" y="-81.5" font-family="Helvetica,sans-Serif" font-size="10.00">drawPoints()</text>
<text text-anchor="start" x="215.5" y="-66.5" font-family="Helvetica,sans-Serif" font-size="10.00">+</text>
<text text-anchor="start" x="228.5" y="-66.5" font-family="Helvetica,sans-Serif" font-size="10.00">drawPoints()</text>
<text text-anchor="start" x="215.5" y="-51.5" font-family="Helvetica,sans-Serif" font-size="10.00">+</text>
<text text-anchor="start" x="228.5" y="-51.5" font-family="Helvetica,sans-Serif" font-size="10.00">drawPixmap()</text>
<text text-anchor="start" x="228.5" y="-36.5" font-family="Helvetica,sans-Serif" font-size="10.00">and 8 more...</text>
<text text-anchor="start" x="218" y="-21.5" font-family="Helvetica,sans-Serif" font-size="10.00">&#45;</text>
<text text-anchor="start" x="228.5" y="-21.5" font-family="Helvetica,sans-Serif" font-size="10.00">MakePointsUnique()</text>
<text text-anchor="start" x="218" y="-6.5" font-family="Helvetica,sans-Serif" font-size="10.00">&#45;</text>
<text text-anchor="start" x="228.5" y="-6.5" font-family="Helvetica,sans-Serif" font-size="10.00">Square()</text>
<polygon fill="#666666" stroke="#666666" points="211.5,-271.5 211.5,-271.5 331.5,-271.5 331.5,-271.5 211.5,-271.5"/>
<polygon fill="#666666" stroke="#666666" points="211.5,-196.5 211.5,-196.5 226.5,-196.5 226.5,-196.5 211.5,-196.5"/>
<polygon fill="#666666" stroke="#666666" points="226.5,-196.5 226.5,-196.5 331.5,-196.5 331.5,-196.5 226.5,-196.5"/>
<polygon fill="none" stroke="#666666" points="211.5,0 211.5,-289 331.5,-289 331.5,0 211.5,0"/>
</a>
</g>
</g>
<!-- Node2 -->
<g id="Node000002" class="node">
<title>Node2</title>
<g id="a_Node000002"><a xlink:title=" ">
<polygon fill="white" stroke="transparent" points="75,-392.5 0,-392.5 0,-343.5 75,-343.5 75,-392.5"/>
<text text-anchor="start" x="5.5" y="-380" font-family="Helvetica,sans-Serif" font-size="10.00">QPaintEngine</text>
<text text-anchor="start" x="36" y="-365" font-family="Helvetica,sans-Serif" font-size="10.00"> </text>
<text text-anchor="start" x="36" y="-350" font-family="Helvetica,sans-Serif" font-size="10.00"> </text>
<polygon fill="#666666" stroke="#666666" points="0.5,-375 0.5,-375 75.5,-375 75.5,-375 0.5,-375"/>
<polygon fill="#666666" stroke="#666666" points="0.5,-360 0.5,-360 75.5,-360 75.5,-360 0.5,-360"/>
<polygon fill="none" stroke="#666666" points="0,-343.5 0,-392.5 75,-392.5 75,-343.5 0,-343.5"/>
</a>
</g>
</g>
<!-- Node2&#45;&gt;Node1 -->
<g id="edge1_Node000001_Node000002" class="edge">
<title>Node2&#45;&gt;Node1</title>
<g id="a_edge1_Node000001_Node000002"><a xlink:title=" ">
<path fill="none" stroke="#63b8ff" d="M69.95,-336.28C106.4,-301.78 166.34,-245.04 211.4,-202.39"/>
<polygon fill="none" stroke="#63b8ff" points="67.4,-333.88 62.54,-343.3 72.21,-338.96 67.4,-333.88"/>
</a>
</g>
</g>
<!-- Node3 -->
<g id="Node000003" class="node">
<title>Node3</title>
<g id="a_Node000003"><a xlink:href="../../dd/daa/classQSharedPointer.html" target="_top" xlink:title=" ">
<polygon fill="white" stroke="transparent" points="265.5,-392.5 93.5,-392.5 93.5,-343.5 265.5,-343.5 265.5,-392.5"/>
<text text-anchor="start" x="98.5" y="-380" font-family="Helvetica,sans-Serif" font-size="10.00">QSharedPointer&lt; QTextStream &gt;</text>
<text text-anchor="start" x="177.5" y="-365" font-family="Helvetica,sans-Serif" font-size="10.00"> </text>
<text text-anchor="start" x="177.5" y="-350" font-family="Helvetica,sans-Serif" font-size="10.00"> </text>
<polygon fill="#666666" stroke="#666666" points="93.5,-375 93.5,-375 265.5,-375 265.5,-375 93.5,-375"/>
<polygon fill="#666666" stroke="#666666" points="93.5,-360 93.5,-360 265.5,-360 265.5,-360 93.5,-360"/>
<polygon fill="none" stroke="#666666" points="93.5,-343.5 93.5,-392.5 265.5,-392.5 265.5,-343.5 93.5,-343.5"/>
</a>
</g>
</g>
<!-- Node3&#45;&gt;Node1 -->
<g id="edge2_Node000001_Node000003" class="edge">
<title>Node3&#45;&gt;Node1</title>
<g id="a_edge2_Node000001_Node000003"><a xlink:title=" ">
<path fill="none" stroke="#63b8ff" d="M189.35,-343.3C194.09,-331.87 200.22,-317.11 207,-300.79"/>
<polygon fill="none" stroke="#63b8ff" points="207.18,-300.36 205.79,-293.28 211.78,-289.28 213.17,-296.35 207.18,-300.36"/>
</a>
</g>
<text text-anchor="middle" x="225.5" y="-310" font-family="Helvetica,sans-Serif" font-size="10.00" fill="grey"> &#45;stream</text>
</g>
<!-- Node4 -->
<g id="Node000004" class="node">
<title>Node4</title>
<g id="a_Node000004"><a xlink:href="../../dd/daa/classQSharedPointer.html" target="_top" xlink:title=" ">
<polygon fill="white" stroke="transparent" points="445,-392.5 284,-392.5 284,-343.5 445,-343.5 445,-392.5"/>
<text text-anchor="start" x="289.5" y="-380" font-family="Helvetica,sans-Serif" font-size="10.00">QSharedPointer&lt; QIODevice &gt;</text>
<text text-anchor="start" x="363" y="-365" font-family="Helvetica,sans-Serif" font-size="10.00"> </text>
<text text-anchor="start" x="363" y="-350" font-family="Helvetica,sans-Serif" font-size="10.00"> </text>
<polygon fill="#666666" stroke="#666666" points="284.5,-375 284.5,-375 445.5,-375 445.5,-375 284.5,-375"/>
<polygon fill="#666666" stroke="#666666" points="284.5,-360 284.5,-360 445.5,-360 445.5,-360 284.5,-360"/>
<polygon fill="none" stroke="#666666" points="284,-343.5 284,-392.5 445,-392.5 445,-343.5 284,-343.5"/>
</a>
</g>
</g>
<!-- Node4&#45;&gt;Node1 -->
<g id="edge3_Node000001_Node000004" class="edge">
<title>Node4&#45;&gt;Node1</title>
<g id="a_edge3_Node000001_Node000004"><a xlink:title=" ">
<path fill="none" stroke="#63b8ff" d="M354.55,-343.3C349.67,-331.67 343.33,-316.58 336.34,-299.93"/>
<polygon fill="none" stroke="#63b8ff" points="336.3,-299.85 330.29,-295.86 331.66,-288.78 337.67,-292.76 336.3,-299.85"/>
</a>
</g>
<text text-anchor="middle" x="378" y="-310" font-family="Helvetica,sans-Serif" font-size="10.00" fill="grey"> &#45;outputDevice</text>
</g>
<!-- Node5 -->
<g id="Node000005" class="node">
<title>Node5</title>
<g id="a_Node000005"><a xlink:href="../../d1/d9e/structdel__point2d__t.html" target="_top" xlink:title=" ">
<polygon fill="white" stroke="transparent" points="540,-400 463,-400 463,-336 540,-336 540,-400"/>
<text text-anchor="start" x="468.5" y="-388" font-family="Helvetica,sans-Serif" font-size="10.00">del_point2d_t</text>
<text text-anchor="start" x="479.5" y="-373" font-family="Helvetica,sans-Serif" font-size="10.00">+</text>
<text text-anchor="start" x="504.5" y="-373" font-family="Helvetica,sans-Serif" font-size="10.00">x</text>
<text text-anchor="start" x="479.5" y="-358" font-family="Helvetica,sans-Serif" font-size="10.00">+</text>
<text text-anchor="start" x="504.5" y="-358" font-family="Helvetica,sans-Serif" font-size="10.00">y</text>
<text text-anchor="start" x="500" y="-343" font-family="Helvetica,sans-Serif" font-size="10.00"> </text>
<polygon fill="#666666" stroke="#666666" points="463.5,-383 463.5,-383 540.5,-383 540.5,-383 463.5,-383"/>
<polygon fill="#666666" stroke="#666666" points="463.5,-353 463.5,-353 502.5,-353 502.5,-353 463.5,-353"/>
<polygon fill="#666666" stroke="#666666" points="502.5,-353 502.5,-353 540.5,-353 540.5,-353 502.5,-353"/>
<polygon fill="none" stroke="#666666" points="463,-336 463,-400 540,-400 540,-336 463,-336"/>
</a>
</g>
</g>
<!-- Node5&#45;&gt;Node1 -->
<g id="edge4_Node000001_Node000005" class="edge">
<title>Node5&#45;&gt;Node1</title>
<g id="a_edge4_Node000001_Node000005"><a xlink:title=" ">
<path fill="none" stroke="#63b8ff" d="M469.03,-335.73C435.79,-303.72 383.09,-252.96 340.48,-211.93"/>
<polygon fill="none" stroke="#63b8ff" points="340.47,-211.92 333.37,-210.64 331.83,-203.6 338.92,-204.88 340.47,-211.92"/>
</a>
</g>
<text text-anchor="middle" x="464" y="-310" font-family="Helvetica,sans-Serif" font-size="10.00" fill="grey"> &#45;points</text>
</g>
</g>
</svg>

<g id="navigator" transform="translate(0 0)" fill="#404254">
  <rect fill="#f2f5e9" fill-opacity="0.5" stroke="#606060" stroke-width=".5" x="0" y="0" width="60" height="60"/>
  <use id="zoomplus" xlink:href="#zoomPlus" x="17" y="9" onmousedown="handleZoom(evt,'in')"/>
  <use id="zoomminus" xlink:href="#zoomMin" x="42" y="9" onmousedown="handleZoom(evt,'out')"/>
  <use id="reset" xlink:href="#resetDef" x="30" y="36" onmousedown="handleReset()"/>
   <use id="arrowup" xlink:href="#arrowUp" x="0" y="0" onmousedown="handlePan(0,-1)"/>
  <use id="arrowright" xlink:href="#arrowRight" x="0" y="0" onmousedown="handlePan(1,0)"/>
  <use id="arrowdown" xlink:href="#arrowDown" x="0" y="0" onmousedown="handlePan(0,1)"/>
  <use id="arrowleft" xlink:href="#arrowLeft" x="0" y="0" onmousedown="handlePan(-1,0)"/>
</g>
<svg viewBox="0 0 15 15" width="100%" height="30px" preserveAspectRatio="xMaxYMin meet">
 <g id="arrow_out" transform="scale(0.3 0.3)">
  <a xlink:href="classVObjEngine__coll__graph_org.svg" target="_base">
   <rect id="button" ry="5" rx="5" y="6" x="6" height="38" width="38"
        fill="#f2f5e9" fill-opacity="0.5" stroke="#606060" stroke-width="1.0"/>
   <path id="arrow"
     d="M 11.500037,31.436501 C 11.940474,20.09759 22.043105,11.32322 32.158766,21.979434 L 37.068811,17.246167 C 37.068811,17.246167 37.088388,32 37.088388,32 L 22.160133,31.978069 C 22.160133,31.978069 26.997745,27.140456 26.997745,27.140456 C 18.528582,18.264221 13.291696,25.230495 11.500037,31.436501 z"
     style="fill:#404040;"/>
  </a>
 </g>
</svg>

<style type='text/css'>
<![CDATA[
[data-mouse-over-selected='false'] { opacity: 0.7; }
[data-mouse-over-selected='true']  { opacity: 1.0; }
]]>
</style>
<script type="application/ecmascript"><![CDATA[
document.addEventListener('DOMContentLoaded', (event) => {
  highlightEdges();
  highlightAdjacentNodes();
});
]]></script>
</svg>
