<?xml version="1.0" encoding="UTF-8" standalone="no"?>
<!DOCTYPE svg PUBLIC "-//W3C//DTD SVG 1.1//EN"
 "http://www.w3.org/Graphics/SVG/1.1/DTD/svg11.dtd">
<!-- Generated by graphviz version 2.43.0 (0)
 -->
<!-- Title: VPE::VPropertyTreeView Pages: 1 -->
<svg width="138pt" height="217pt"
 viewBox="0.00 0.00 138.00 217.00" xmlns="http://www.w3.org/2000/svg" xmlns:xlink="http://www.w3.org/1999/xlink">
<g id="graph0" class="graph" transform="scale(1 1) rotate(0) translate(4 213)">
<title>VPE::VPropertyTreeView</title>
<!-- Node1 -->
<g id="Node000001" class="node">
<title>Node1</title>
<g id="a_Node000001"><a xlink:title=" ">
<polygon fill="#999999" stroke="transparent" points="130,-124 0,-124 0,0 130,0 130,-124"/>
<text text-anchor="start" x="6" y="-112" font-family="Helvetica,sans-Serif" font-size="10.00">VPE::VPropertyTreeView</text>
<text text-anchor="start" x="4" y="-97" font-family="Helvetica,sans-Serif" font-size="10.00">#</text>
<text text-anchor="start" x="17" y="-97" font-family="Helvetica,sans-Serif" font-size="10.00">d_ptr</text>
<text text-anchor="start" x="4" y="-82" font-family="Helvetica,sans-Serif" font-size="10.00">+</text>
<text text-anchor="start" x="17" y="-82" font-family="Helvetica,sans-Serif" font-size="10.00">VPropertyTreeView()</text>
<text text-anchor="start" x="4" y="-67" font-family="Helvetica,sans-Serif" font-size="10.00">+</text>
<text text-anchor="start" x="17" y="-67" font-family="Helvetica,sans-Serif" font-size="10.00">VPropertyTreeView()</text>
<text text-anchor="start" x="4" y="-52" font-family="Helvetica,sans-Serif" font-size="10.00">+</text>
<text text-anchor="start" x="17" y="-52" font-family="Helvetica,sans-Serif" font-size="10.00">~VPropertyTreeView()</text>
<text text-anchor="start" x="4" y="-37" font-family="Helvetica,sans-Serif" font-size="10.00">+</text>
<text text-anchor="start" x="17" y="-37" font-family="Helvetica,sans-Serif" font-size="10.00">setRowHeight()</text>
<text text-anchor="start" x="4" y="-22" font-family="Helvetica,sans-Serif" font-size="10.00">#</text>
<text text-anchor="start" x="17" y="-22" font-family="Helvetica,sans-Serif" font-size="10.00">init()</text>
<text text-anchor="start" x="4" y="-7" font-family="Helvetica,sans-Serif" font-size="10.00">#</text>
<text text-anchor="start" x="17" y="-7" font-family="Helvetica,sans-Serif" font-size="10.00">VPropertyTreeView()</text>
<polygon fill="#666666" stroke="#666666" points="0,-107 0,-107 130,-107 130,-107 0,-107"/>
<polygon fill="#666666" stroke="#666666" points="0,-92 0,-92 15,-92 15,-92 0,-92"/>
<polygon fill="#666666" stroke="#666666" points="15,-92 15,-92 130,-92 130,-92 15,-92"/>
<polygon fill="none" stroke="#666666" points="0,0 0,-124 130,-124 130,0 0,0"/>
</a>
</g>
</g>
<!-- Node2 -->
<g id="Node000002" class="node">
<title>Node2</title>
<g id="a_Node000002"><a xlink:title=" ">
<polygon fill="white" stroke="transparent" points="96,-209 34,-209 34,-160 96,-160 96,-209"/>
<text text-anchor="start" x="39" y="-196.5" font-family="Helvetica,sans-Serif" font-size="10.00">QTreeView</text>
<text text-anchor="start" x="63" y="-181.5" font-family="Helvetica,sans-Serif" font-size="10.00"> </text>
<text text-anchor="start" x="63" y="-166.5" font-family="Helvetica,sans-Serif" font-size="10.00"> </text>
<polygon fill="#666666" stroke="#666666" points="34,-191.5 34,-191.5 96,-191.5 96,-191.5 34,-191.5"/>
<polygon fill="#666666" stroke="#666666" points="34,-176.5 34,-176.5 96,-176.5 96,-176.5 34,-176.5"/>
<polygon fill="none" stroke="#666666" points="34,-160 34,-209 96,-209 96,-160 34,-160"/>
</a>
</g>
</g>
<!-- Node2&#45;&gt;Node1 -->
<g id="edge1_Node000001_Node000002" class="edge">
<title>Node2&#45;&gt;Node1</title>
<g id="a_edge1_Node000001_Node000002"><a xlink:title=" ">
<path fill="none" stroke="#63b8ff" d="M65,-149.94C65,-141.91 65,-133.08 65,-124.23"/>
<polygon fill="none" stroke="#63b8ff" points="61.5,-149.98 65,-159.98 68.5,-149.98 61.5,-149.98"/>
</a>
</g>
</g>
</g>
</svg>
