<?xml version="1.0" encoding="UTF-8" standalone="no"?>
<!DOCTYPE svg PUBLIC "-//W3C//DTD SVG 1.1//EN"
 "http://www.w3.org/Graphics/SVG/1.1/DTD/svg11.dtd">
<!-- Generated by graphviz version 2.43.0 (0)
 -->
<!-- Title: src/libs/vtools/tools/nodeDetails/vnodesplinepath.h Pages: 1 -->
<svg width="680pt" height="170pt"
 viewBox="0.00 0.00 680.00 170.00" xmlns="http://www.w3.org/2000/svg" xmlns:xlink="http://www.w3.org/1999/xlink">
<g id="graph0" class="graph" transform="scale(1 1) rotate(0) translate(4 166)">
<title>src/libs/vtools/tools/nodeDetails/vnodesplinepath.h</title>
<!-- Node1 -->
<g id="Node000001" class="node">
<title>Node1</title>
<g id="a_Node000001"><a xlink:title=" ">
<polygon fill="#999999" stroke="#666666" points="475,-162 304,-162 304,-132 475,-132 475,-162"/>
<text text-anchor="start" x="312" y="-150" font-family="Helvetica,sans-Serif" font-size="10.00">src/libs/vtools/tools</text>
<text text-anchor="middle" x="389.5" y="-139" font-family="Helvetica,sans-Serif" font-size="10.00">/nodeDetails/vnodesplinepath.h</text>
</a>
</g>
</g>
<!-- Node2 -->
<g id="Node000002" class="node">
<title>Node2</title>
<g id="a_Node000002"><a xlink:href="../../d5/dcf/nodedetails_8h.html" target="_top" xlink:title=" ">
<polygon fill="white" stroke="#666666" points="193,-96 46,-96 46,-66 193,-66 193,-96"/>
<text text-anchor="start" x="54" y="-84" font-family="Helvetica,sans-Serif" font-size="10.00">src/libs/vtools/tools</text>
<text text-anchor="middle" x="119.5" y="-73" font-family="Helvetica,sans-Serif" font-size="10.00">/nodeDetails/nodedetails.h</text>
</a>
</g>
</g>
<!-- Node1&#45;&gt;Node2 -->
<g id="edge1_Node000001_Node000002" class="edge">
<title>Node1&#45;&gt;Node2</title>
<g id="a_edge1_Node000001_Node000002"><a xlink:title=" ">
<path fill="none" stroke="#63b8ff" d="M320.52,-129.65C276.65,-119.25 220.43,-105.93 178.61,-96.01"/>
<polygon fill="#63b8ff" stroke="#63b8ff" points="319.71,-133.05 330.25,-131.95 321.32,-126.24 319.71,-133.05"/>
</a>
</g>
</g>
<!-- Node5 -->
<g id="Node000005" class="node">
<title>Node5</title>
<g id="a_Node000005"><a xlink:href="../../d2/dad/vnodesplinepath_8cpp.html" target="_top" xlink:title=" ">
<polygon fill="white" stroke="#666666" points="393.5,-96 211.5,-96 211.5,-66 393.5,-66 393.5,-96"/>
<text text-anchor="start" x="219.5" y="-84" font-family="Helvetica,sans-Serif" font-size="10.00">src/libs/vtools/tools</text>
<text text-anchor="middle" x="302.5" y="-73" font-family="Helvetica,sans-Serif" font-size="10.00">/nodeDetails/vnodesplinepath.cpp</text>
</a>
</g>
</g>
<!-- Node1&#45;&gt;Node5 -->
<g id="edge4_Node000001_Node000005" class="edge">
<title>Node1&#45;&gt;Node5</title>
<g id="a_edge4_Node000001_Node000005"><a xlink:title=" ">
<path fill="none" stroke="#63b8ff" d="M361.98,-125.75C348.89,-116.13 333.57,-104.86 321.75,-96.16"/>
<polygon fill="#63b8ff" stroke="#63b8ff" points="360.06,-128.69 370.19,-131.8 364.21,-123.05 360.06,-128.69"/>
</a>
</g>
</g>
<!-- Node6 -->
<g id="Node000006" class="node">
<title>Node6</title>
<g id="a_Node000006"><a xlink:href="../../d8/dea/pattern__piece__tool_8cpp.html" target="_top" xlink:title=" ">
<polygon fill="white" stroke="#666666" points="543,-96 412,-96 412,-66 543,-66 543,-96"/>
<text text-anchor="start" x="420" y="-84" font-family="Helvetica,sans-Serif" font-size="10.00">src/libs/vtools/tools</text>
<text text-anchor="middle" x="477.5" y="-73" font-family="Helvetica,sans-Serif" font-size="10.00">/pattern_piece_tool.cpp</text>
</a>
</g>
</g>
<!-- Node1&#45;&gt;Node6 -->
<g id="edge5_Node000001_Node000006" class="edge">
<title>Node1&#45;&gt;Node6</title>
<g id="a_edge5_Node000001_Node000006"><a xlink:title=" ">
<path fill="none" stroke="#63b8ff" d="M417.34,-125.75C430.57,-116.13 446.07,-104.86 458.02,-96.16"/>
<polygon fill="#63b8ff" stroke="#63b8ff" points="415.06,-123.08 409.03,-131.8 419.18,-128.75 415.06,-123.08"/>
</a>
</g>
</g>
<!-- Node7 -->
<g id="Node000007" class="node">
<title>Node7</title>
<g id="a_Node000007"><a xlink:href="../../d4/d9f/union__tool_8cpp.html" target="_top" xlink:title=" ">
<polygon fill="white" stroke="#666666" points="672,-96 561,-96 561,-66 672,-66 672,-96"/>
<text text-anchor="start" x="569" y="-84" font-family="Helvetica,sans-Serif" font-size="10.00">src/libs/vtools/tools</text>
<text text-anchor="middle" x="616.5" y="-73" font-family="Helvetica,sans-Serif" font-size="10.00">/union_tool.cpp</text>
</a>
</g>
</g>
<!-- Node1&#45;&gt;Node7 -->
<g id="edge6_Node000001_Node000007" class="edge">
<title>Node1&#45;&gt;Node7</title>
<g id="a_edge6_Node000001_Node000007"><a xlink:title=" ">
<path fill="none" stroke="#63b8ff" d="M449.37,-129.12C485.97,-118.8 532.23,-105.76 566.8,-96.01"/>
<polygon fill="#63b8ff" stroke="#63b8ff" points="447.99,-125.87 439.32,-131.95 449.89,-132.61 447.99,-125.87"/>
</a>
</g>
</g>
<!-- Node3 -->
<g id="Node000003" class="node">
<title>Node3</title>
<g id="a_Node000003"><a xlink:href="../../d5/da5/tools_8h.html" target="_top" xlink:title=" ">
<polygon fill="white" stroke="#666666" points="111,-30 0,-30 0,0 111,0 111,-30"/>
<text text-anchor="start" x="8" y="-18" font-family="Helvetica,sans-Serif" font-size="10.00">src/libs/vtools/tools</text>
<text text-anchor="middle" x="55.5" y="-7" font-family="Helvetica,sans-Serif" font-size="10.00">/tools.h</text>
</a>
</g>
</g>
<!-- Node2&#45;&gt;Node3 -->
<g id="edge2_Node000002_Node000003" class="edge">
<title>Node2&#45;&gt;Node3</title>
<g id="a_edge2_Node000002_Node000003"><a xlink:title=" ">
<path fill="none" stroke="#63b8ff" d="M98.15,-58.65C88.77,-49.27 78.03,-38.53 69.66,-30.16"/>
<polygon fill="#63b8ff" stroke="#63b8ff" points="95.75,-61.2 105.3,-65.8 100.7,-56.25 95.75,-61.2"/>
</a>
</g>
</g>
<!-- Node4 -->
<g id="Node000004" class="node">
<title>Node4</title>
<g id="a_Node000004"><a xlink:href="../../d9/d4e/vabstracttool_8cpp.html" target="_top" xlink:title=" ">
<polygon fill="white" stroke="#666666" points="240,-30 129,-30 129,0 240,0 240,-30"/>
<text text-anchor="start" x="137" y="-18" font-family="Helvetica,sans-Serif" font-size="10.00">src/libs/vtools/tools</text>
<text text-anchor="middle" x="184.5" y="-7" font-family="Helvetica,sans-Serif" font-size="10.00">/vabstracttool.cpp</text>
</a>
</g>
</g>
<!-- Node2&#45;&gt;Node4 -->
<g id="edge3_Node000002_Node000004" class="edge">
<title>Node2&#45;&gt;Node4</title>
<g id="a_edge3_Node000002_Node000004"><a xlink:title=" ">
<path fill="none" stroke="#63b8ff" d="M141.19,-58.65C150.71,-49.27 161.62,-38.53 170.11,-30.16"/>
<polygon fill="#63b8ff" stroke="#63b8ff" points="138.6,-56.29 133.93,-65.8 143.51,-61.27 138.6,-56.29"/>
</a>
</g>
</g>
</g>
</svg>
