<?xml version="1.0" encoding="UTF-8" standalone="no"?>
<!DOCTYPE svg PUBLIC "-//W3C//DTD SVG 1.1//EN"
 "http://www.w3.org/Graphics/SVG/1.1/DTD/svg11.dtd">
<!-- Generated by graphviz version 2.43.0 (0)
 -->
<!-- Title: src/libs/vwidgets/lineweight_combobox.h Pages: 1 -->
<svg width="298pt" height="170pt"
 viewBox="0.00 0.00 297.50 170.00" xmlns="http://www.w3.org/2000/svg" xmlns:xlink="http://www.w3.org/1999/xlink">
<g id="graph0" class="graph" transform="scale(1 1) rotate(0) translate(4 166)">
<title>src/libs/vwidgets/lineweight_combobox.h</title>
<!-- Node1 -->
<g id="Node000001" class="node">
<title>Node1</title>
<g id="a_Node000001"><a xlink:title=" ">
<polygon fill="#999999" stroke="#666666" points="229,-162 77,-162 77,-132 229,-132 229,-162"/>
<text text-anchor="start" x="85" y="-150" font-family="Helvetica,sans-Serif" font-size="10.00">src/libs/vwidgets/lineweight</text>
<text text-anchor="middle" x="153" y="-139" font-family="Helvetica,sans-Serif" font-size="10.00">_combobox.h</text>
</a>
</g>
</g>
<!-- Node2 -->
<g id="Node000002" class="node">
<title>Node2</title>
<g id="a_Node000002"><a xlink:href="../../da/d40/lineweight__combobox_8cpp.html" target="_top" xlink:title=" ">
<polygon fill="white" stroke="#666666" points="152,-96 0,-96 0,-66 152,-66 152,-96"/>
<text text-anchor="start" x="8" y="-84" font-family="Helvetica,sans-Serif" font-size="10.00">src/libs/vwidgets/lineweight</text>
<text text-anchor="middle" x="76" y="-73" font-family="Helvetica,sans-Serif" font-size="10.00">_combobox.cpp</text>
</a>
</g>
</g>
<!-- Node1&#45;&gt;Node2 -->
<g id="edge1_Node000001_Node000002" class="edge">
<title>Node1&#45;&gt;Node2</title>
<g id="a_edge1_Node000001_Node000002"><a xlink:title=" ">
<path fill="none" stroke="#63b8ff" d="M127.98,-125.2C116.55,-115.7 103.3,-104.69 93.04,-96.16"/>
<polygon fill="#63b8ff" stroke="#63b8ff" points="125.98,-128.1 135.91,-131.8 130.46,-122.71 125.98,-128.1"/>
</a>
</g>
</g>
<!-- Node3 -->
<g id="Node000003" class="node">
<title>Node3</title>
<g id="a_Node000003"><a xlink:href="../../d0/d8d/pen__toolbar_8h.html" target="_top" xlink:title=" ">
<polygon fill="white" stroke="#666666" points="289.5,-96 170.5,-96 170.5,-66 289.5,-66 289.5,-96"/>
<text text-anchor="start" x="178.5" y="-84" font-family="Helvetica,sans-Serif" font-size="10.00">src/libs/vwidgets/pen</text>
<text text-anchor="middle" x="230" y="-73" font-family="Helvetica,sans-Serif" font-size="10.00">_toolbar.h</text>
</a>
</g>
</g>
<!-- Node1&#45;&gt;Node3 -->
<g id="edge2_Node000001_Node000003" class="edge">
<title>Node1&#45;&gt;Node3</title>
<g id="a_edge2_Node000001_Node000003"><a xlink:title=" ">
<path fill="none" stroke="#63b8ff" d="M178.02,-125.2C189.45,-115.7 202.7,-104.69 212.96,-96.16"/>
<polygon fill="#63b8ff" stroke="#63b8ff" points="175.54,-122.71 170.09,-131.8 180.02,-128.1 175.54,-122.71"/>
</a>
</g>
</g>
<!-- Node4 -->
<g id="Node000004" class="node">
<title>Node4</title>
<g id="a_Node000004"><a xlink:href="../../d7/d1b/pen__toolbar_8cpp.html" target="_top" xlink:title=" ">
<polygon fill="white" stroke="#666666" points="289.5,-30 170.5,-30 170.5,0 289.5,0 289.5,-30"/>
<text text-anchor="start" x="178.5" y="-18" font-family="Helvetica,sans-Serif" font-size="10.00">src/libs/vwidgets/pen</text>
<text text-anchor="middle" x="230" y="-7" font-family="Helvetica,sans-Serif" font-size="10.00">_toolbar.cpp</text>
</a>
</g>
</g>
<!-- Node3&#45;&gt;Node4 -->
<g id="edge3_Node000003_Node000004" class="edge">
<title>Node3&#45;&gt;Node4</title>
<g id="a_edge3_Node000003_Node000004"><a xlink:title=" ">
<path fill="none" stroke="#63b8ff" d="M230,-55.54C230,-46.96 230,-37.61 230,-30.16"/>
<polygon fill="#63b8ff" stroke="#63b8ff" points="226.5,-55.8 230,-65.8 233.5,-55.8 226.5,-55.8"/>
</a>
</g>
</g>
</g>
</svg>
