<?xml version="1.0" encoding="UTF-8" standalone="no"?>
<!DOCTYPE svg PUBLIC "-//W3C//DTD SVG 1.1//EN"
 "http://www.w3.org/Graphics/SVG/1.1/DTD/svg11.dtd">
<!-- Generated by graphviz version 2.43.0 (0)
 -->
<!-- Title: src/libs/vtools/dialogs/tools/piece/dialoginternalpath.h Pages: 1 -->
<svg width="698pt" height="115pt"
 viewBox="0.00 0.00 697.50 115.00" xmlns="http://www.w3.org/2000/svg" xmlns:xlink="http://www.w3.org/1999/xlink">
<g id="graph0" class="graph" transform="scale(1 1) rotate(0) translate(4 111)">
<title>src/libs/vtools/dialogs/tools/piece/dialoginternalpath.h</title>
<!-- Node1 -->
<g id="Node000001" class="node">
<title>Node1</title>
<g id="a_Node000001"><a xlink:title=" ">
<polygon fill="#999999" stroke="#666666" points="411,-107 237,-107 237,-77 411,-77 411,-107"/>
<text text-anchor="start" x="245" y="-95" font-family="Helvetica,sans-Serif" font-size="10.00">src/libs/vtools/dialogs</text>
<text text-anchor="middle" x="324" y="-84" font-family="Helvetica,sans-Serif" font-size="10.00">/tools/piece/dialoginternalpath.h</text>
</a>
</g>
</g>
<!-- Node2 -->
<g id="Node000002" class="node">
<title>Node2</title>
<g id="a_Node000002"><a xlink:href="../../df/ded/tooldialogs_8h.html" target="_top" xlink:title=" ">
<polygon fill="white" stroke="#666666" points="122,-35.5 0,-35.5 0,-5.5 122,-5.5 122,-35.5"/>
<text text-anchor="start" x="8" y="-23.5" font-family="Helvetica,sans-Serif" font-size="10.00">src/libs/vtools/dialogs</text>
<text text-anchor="middle" x="61" y="-12.5" font-family="Helvetica,sans-Serif" font-size="10.00">/tooldialogs.h</text>
</a>
</g>
</g>
<!-- Node1&#45;&gt;Node2 -->
<g id="edge1_Node000001_Node000002" class="edge">
<title>Node1&#45;&gt;Node2</title>
<g id="a_edge1_Node000001_Node000002"><a xlink:title=" ">
<path fill="none" stroke="#63b8ff" d="M258.83,-74.43C221.39,-64.83 173.5,-52.42 131,-41 124.54,-39.26 117.76,-37.41 111.06,-35.56"/>
<polygon fill="#63b8ff" stroke="#63b8ff" points="258.05,-77.84 268.61,-76.93 259.79,-71.06 258.05,-77.84"/>
</a>
</g>
</g>
<!-- Node3 -->
<g id="Node000003" class="node">
<title>Node3</title>
<g id="a_Node000003"><a xlink:href="../../dc/d82/dialoginternalpath_8cpp.html" target="_top" xlink:title=" ">
<polygon fill="white" stroke="#666666" points="325.5,-35.5 140.5,-35.5 140.5,-5.5 325.5,-5.5 325.5,-35.5"/>
<text text-anchor="start" x="148.5" y="-23.5" font-family="Helvetica,sans-Serif" font-size="10.00">src/libs/vtools/dialogs</text>
<text text-anchor="middle" x="233" y="-12.5" font-family="Helvetica,sans-Serif" font-size="10.00">/tools/piece/dialoginternalpath.cpp</text>
</a>
</g>
</g>
<!-- Node1&#45;&gt;Node3 -->
<g id="edge2_Node000001_Node000003" class="edge">
<title>Node1&#45;&gt;Node3</title>
<g id="a_edge2_Node000001_Node000003"><a xlink:title=" ">
<path fill="none" stroke="#63b8ff" d="M297.32,-70.63C282.56,-59.35 264.58,-45.62 251.39,-35.54"/>
<polygon fill="#63b8ff" stroke="#63b8ff" points="295.51,-73.65 305.58,-76.94 299.76,-68.08 295.51,-73.65"/>
</a>
</g>
</g>
<!-- Node4 -->
<g id="Node000004" class="node">
<title>Node4</title>
<g id="a_Node000004"><a xlink:href="../../de/d46/pattern__piece__dialog_8cpp.html" target="_top" xlink:title=" ">
<polygon fill="white" stroke="#666666" points="486.5,-41 343.5,-41 343.5,0 486.5,0 486.5,-41"/>
<text text-anchor="start" x="351.5" y="-29" font-family="Helvetica,sans-Serif" font-size="10.00">src/libs/vtools/dialogs</text>
<text text-anchor="start" x="351.5" y="-18" font-family="Helvetica,sans-Serif" font-size="10.00">/tools/piece/pattern_piece</text>
<text text-anchor="middle" x="415" y="-7" font-family="Helvetica,sans-Serif" font-size="10.00">_dialog.cpp</text>
</a>
</g>
</g>
<!-- Node1&#45;&gt;Node4 -->
<g id="edge3_Node000001_Node000004" class="edge">
<title>Node1&#45;&gt;Node4</title>
<g id="a_edge3_Node000001_Node000004"><a xlink:title=" ">
<path fill="none" stroke="#63b8ff" d="M350.48,-70.77C362.73,-61.42 377.23,-50.35 389.37,-41.07"/>
<polygon fill="#63b8ff" stroke="#63b8ff" points="348.24,-68.08 342.42,-76.94 352.49,-73.65 348.24,-68.08"/>
</a>
</g>
</g>
<!-- Node5 -->
<g id="Node000005" class="node">
<title>Node5</title>
<g id="a_Node000005"><a xlink:href="../../d3/dd9/vtoolinternalpath_8cpp.html" target="_top" xlink:title=" ">
<polygon fill="white" stroke="#666666" points="689.5,-35.5 504.5,-35.5 504.5,-5.5 689.5,-5.5 689.5,-35.5"/>
<text text-anchor="start" x="512.5" y="-23.5" font-family="Helvetica,sans-Serif" font-size="10.00">src/libs/vtools/tools</text>
<text text-anchor="middle" x="597" y="-12.5" font-family="Helvetica,sans-Serif" font-size="10.00">/nodeDetails/vtoolinternalpath.cpp</text>
</a>
</g>
</g>
<!-- Node1&#45;&gt;Node5 -->
<g id="edge4_Node000001_Node000005" class="edge">
<title>Node1&#45;&gt;Node5</title>
<g id="a_edge4_Node000001_Node000005"><a xlink:title=" ">
<path fill="none" stroke="#63b8ff" d="M388.94,-74.47C435.54,-62.61 497.64,-46.8 541.84,-35.54"/>
<polygon fill="#63b8ff" stroke="#63b8ff" points="388.07,-71.08 379.25,-76.94 389.8,-77.86 388.07,-71.08"/>
</a>
</g>
</g>
</g>
</svg>
