<?xml version="1.0" encoding="UTF-8" standalone="no"?>
<!DOCTYPE svg PUBLIC "-//W3C//DTD SVG 1.1//EN"
 "http://www.w3.org/Graphics/SVG/1.1/DTD/svg11.dtd">
<!-- Generated by graphviz version 2.43.0 (0)
 -->
<!-- Title: src/libs/ifc/xml/multi_size_converter.cpp Pages: 1 -->
<svg width="2377pt" height="368pt"
 viewBox="0.00 0.00 2376.50 368.00" xmlns="http://www.w3.org/2000/svg" xmlns:xlink="http://www.w3.org/1999/xlink">
<g id="graph0" class="graph" transform="scale(1 1) rotate(0) translate(4 364)">
<title>src/libs/ifc/xml/multi_size_converter.cpp</title>
<!-- Node1 -->
<g id="Node000001" class="node">
<title>Node1</title>
<g id="a_Node000001"><a xlink:title=" ">
<polygon fill="#999999" stroke="#666666" points="993.5,-360 877.5,-360 877.5,-330 993.5,-330 993.5,-360"/>
<text text-anchor="start" x="885.5" y="-348" font-family="Helvetica,sans-Serif" font-size="10.00">src/libs/ifc/xml/multi</text>
<text text-anchor="middle" x="935.5" y="-337" font-family="Helvetica,sans-Serif" font-size="10.00">_size_converter.cpp</text>
</a>
</g>
</g>
<!-- Node2 -->
<g id="Node000002" class="node">
<title>Node2</title>
<g id="a_Node000002"><a xlink:href="../../d5/d4c/multi__size__converter_8h.html" target="_top" xlink:title=" ">
<polygon fill="white" stroke="#666666" points="1129,-294 1002,-294 1002,-275 1129,-275 1129,-294"/>
<text text-anchor="middle" x="1065.5" y="-282" font-family="Helvetica,sans-Serif" font-size="10.00">multi_size_converter.h</text>
</a>
</g>
</g>
<!-- Node1&#45;&gt;Node2 -->
<g id="edge1_Node000001_Node000002" class="edge">
<title>Node1&#45;&gt;Node2</title>
<g id="a_edge1_Node000001_Node000002"><a xlink:title=" ">
<path fill="none" stroke="#63b8ff" d="M966.64,-329.99C988.04,-320.36 1016.23,-307.67 1037.03,-298.31"/>
<polygon fill="#63b8ff" stroke="#63b8ff" points="1038.62,-301.43 1046.3,-294.14 1035.75,-295.05 1038.62,-301.43"/>
</a>
</g>
</g>
<!-- Node7 -->
<g id="Node000007" class="node">
<title>Node7</title>
<g id="a_Node000007"><a xlink:href="../../da/d2c/abstract__m__converter_8h.html" target="_top" xlink:title=" ">
<polygon fill="white" stroke="#666666" points="1213,-239 1082,-239 1082,-220 1213,-220 1213,-239"/>
<text text-anchor="middle" x="1147.5" y="-227" font-family="Helvetica,sans-Serif" font-size="10.00">abstract_m_converter.h</text>
</a>
</g>
</g>
<!-- Node1&#45;&gt;Node7 -->
<g id="edge72_Node000001_Node000007" class="edge">
<title>Node1&#45;&gt;Node7</title>
<g id="a_edge72_Node000001_Node000007"><a xlink:title=" ">
<path fill="none" stroke="#63b8ff" d="M943.71,-329.95C953.58,-314.27 971.59,-289.25 993.5,-275 1019.07,-258.38 1050.96,-247.83 1079.08,-241.2"/>
<polygon fill="#63b8ff" stroke="#63b8ff" points="1079.86,-244.62 1088.86,-239.02 1078.33,-237.79 1079.86,-244.62"/>
</a>
</g>
</g>
<!-- Node8 -->
<g id="Node000008" class="node">
<title>Node8</title>
<g id="a_Node000008"><a xlink:title=" ">
<polygon fill="#e0e0e0" stroke="#999999" points="971,-184 926,-184 926,-165 971,-165 971,-184"/>
<text text-anchor="middle" x="948.5" y="-172" font-family="Helvetica,sans-Serif" font-size="10.00">QMap</text>
</a>
</g>
</g>
<!-- Node1&#45;&gt;Node8 -->
<g id="edge42_Node000001_Node000008" class="edge">
<title>Node1&#45;&gt;Node8</title>
<g id="a_edge42_Node000001_Node000008"><a xlink:title=" ">
<path fill="none" stroke="#63b8ff" d="M930.5,-329.96C922.96,-306.68 910.65,-258.81 921.5,-220 924.26,-210.12 929.89,-200.25 935.29,-192.32"/>
<polygon fill="#63b8ff" stroke="#63b8ff" points="938.28,-194.17 941.35,-184.03 932.63,-190.04 938.28,-194.17"/>
</a>
</g>
</g>
<!-- Node9 -->
<g id="Node000009" class="node">
<title>Node9</title>
<g id="a_Node000009"><a xlink:title=" ">
<polygon fill="#e0e0e0" stroke="#999999" points="1059.5,-184 989.5,-184 989.5,-165 1059.5,-165 1059.5,-184"/>
<text text-anchor="middle" x="1024.5" y="-172" font-family="Helvetica,sans-Serif" font-size="10.00">QMultiMap</text>
</a>
</g>
</g>
<!-- Node1&#45;&gt;Node9 -->
<g id="edge43_Node000001_Node000009" class="edge">
<title>Node1&#45;&gt;Node9</title>
<g id="a_edge43_Node000001_Node000009"><a xlink:title=" ">
<path fill="none" stroke="#63b8ff" d="M941.93,-329.86C948.39,-315.81 958.76,-293.73 968.5,-275 983.67,-245.81 1002.71,-212.65 1014.22,-192.93"/>
<polygon fill="#63b8ff" stroke="#63b8ff" points="1017.32,-194.57 1019.36,-184.18 1011.28,-191.03 1017.32,-194.57"/>
</a>
</g>
</g>
<!-- Node15 -->
<g id="Node000015" class="node">
<title>Node15</title>
<g id="a_Node000015"><a xlink:title=" ">
<polygon fill="#e0e0e0" stroke="#999999" points="73,-74 0,-74 0,-55 73,-55 73,-74"/>
<text text-anchor="middle" x="36.5" y="-62" font-family="Helvetica,sans-Serif" font-size="10.00">QDomNode</text>
</a>
</g>
</g>
<!-- Node1&#45;&gt;Node15 -->
<g id="edge36_Node000001_Node000015" class="edge">
<title>Node1&#45;&gt;Node15</title>
<g id="a_edge36_Node000001_Node000015"><a xlink:title=" ">
<path fill="none" stroke="#63b8ff" d="M877.45,-342.72C679.84,-337.61 45.5,-314.66 45.5,-230.5 45.5,-230.5 45.5,-230.5 45.5,-173.5 45.5,-142.08 41.67,-105.7 39.01,-84.2"/>
<polygon fill="#63b8ff" stroke="#63b8ff" points="42.46,-83.63 37.71,-74.16 35.52,-84.52 42.46,-83.63"/>
</a>
</g>
</g>
<!-- Node17 -->
<g id="Node000017" class="node">
<title>Node17</title>
<g id="a_Node000017"><a xlink:title=" ">
<polygon fill="#e0e0e0" stroke="#999999" points="174,-74 91,-74 91,-55 174,-55 174,-74"/>
<text text-anchor="middle" x="132.5" y="-62" font-family="Helvetica,sans-Serif" font-size="10.00">QLatin1String</text>
</a>
</g>
</g>
<!-- Node1&#45;&gt;Node17 -->
<g id="edge40_Node000001_Node000017" class="edge">
<title>Node1&#45;&gt;Node17</title>
<g id="a_edge40_Node000001_Node000017"><a xlink:title=" ">
<path fill="none" stroke="#63b8ff" d="M877.27,-339.01C727.3,-325.38 339.5,-284.88 339.5,-230.5 339.5,-230.5 339.5,-230.5 339.5,-173.5 339.5,-136.04 231.62,-96.38 171.62,-77.22"/>
<polygon fill="#63b8ff" stroke="#63b8ff" points="172.31,-73.77 161.72,-74.11 170.21,-80.45 172.31,-73.77"/>
</a>
</g>
</g>
<!-- Node18 -->
<g id="Node000018" class="node">
<title>Node18</title>
<g id="a_Node000018"><a xlink:title=" ">
<polygon fill="#e0e0e0" stroke="#999999" points="296.5,-74 192.5,-74 192.5,-55 296.5,-55 296.5,-74"/>
<text text-anchor="middle" x="244.5" y="-62" font-family="Helvetica,sans-Serif" font-size="10.00">QStaticStringData</text>
</a>
</g>
</g>
<!-- Node1&#45;&gt;Node18 -->
<g id="edge44_Node000001_Node000018" class="edge">
<title>Node1&#45;&gt;Node18</title>
<g id="a_edge44_Node000001_Node000018"><a xlink:title=" ">
<path fill="none" stroke="#63b8ff" d="M877.06,-340.78C759.49,-332.7 505.5,-306.45 505.5,-230.5 505.5,-230.5 505.5,-230.5 505.5,-173.5 505.5,-128.92 373.82,-93.18 297.52,-76.22"/>
<polygon fill="#63b8ff" stroke="#63b8ff" points="298.12,-72.76 287.6,-74.04 296.62,-79.6 298.12,-72.76"/>
</a>
</g>
</g>
<!-- Node19 -->
<g id="Node000019" class="node">
<title>Node19</title>
<g id="a_Node000019"><a xlink:title=" ">
<polygon fill="#e0e0e0" stroke="#999999" points="390.5,-74 314.5,-74 314.5,-55 390.5,-55 390.5,-74"/>
<text text-anchor="middle" x="352.5" y="-62" font-family="Helvetica,sans-Serif" font-size="10.00">QStringData</text>
</a>
</g>
</g>
<!-- Node1&#45;&gt;Node19 -->
<g id="edge45_Node000001_Node000019" class="edge">
<title>Node1&#45;&gt;Node19</title>
<g id="a_edge45_Node000001_Node000019"><a xlink:title=" ">
<path fill="none" stroke="#63b8ff" d="M877.47,-340.03C825.63,-334.72 748.64,-322.41 687.5,-294 646.33,-274.87 607.5,-275.89 607.5,-230.5 607.5,-230.5 607.5,-230.5 607.5,-173.5 607.5,-129.07 474.61,-92.51 400.69,-75.6"/>
<polygon fill="#63b8ff" stroke="#63b8ff" points="401.2,-72.13 390.68,-73.35 399.66,-78.96 401.2,-72.13"/>
</a>
</g>
</g>
<!-- Node20 -->
<g id="Node000020" class="node">
<title>Node20</title>
<g id="a_Node000020"><a xlink:title=" ">
<polygon fill="#e0e0e0" stroke="#999999" points="498,-74 409,-74 409,-55 498,-55 498,-74"/>
<text text-anchor="middle" x="453.5" y="-62" font-family="Helvetica,sans-Serif" font-size="10.00">QStringDataPtr</text>
</a>
</g>
</g>
<!-- Node1&#45;&gt;Node20 -->
<g id="edge46_Node000001_Node000020" class="edge">
<title>Node1&#45;&gt;Node20</title>
<g id="a_edge46_Node000001_Node000020"><a xlink:title=" ">
<path fill="none" stroke="#63b8ff" d="M877.28,-343.01C801.18,-338.27 677.5,-317.24 677.5,-230.5 677.5,-230.5 677.5,-230.5 677.5,-173.5 677.5,-135.87 653.51,-129.78 621.5,-110 602.41,-98.2 548.79,-85.09 507.21,-76.18"/>
<polygon fill="#63b8ff" stroke="#63b8ff" points="507.71,-72.71 497.2,-74.06 506.26,-79.55 507.71,-72.71"/>
</a>
</g>
</g>
<!-- Node23 -->
<g id="Node000023" class="node">
<title>Node23</title>
<g id="a_Node000023"><a xlink:title=" ">
<polygon fill="#e0e0e0" stroke="#999999" points="598.5,-74 516.5,-74 516.5,-55 598.5,-55 598.5,-74"/>
<text text-anchor="middle" x="557.5" y="-62" font-family="Helvetica,sans-Serif" font-size="10.00">../vmisc/def.h</text>
</a>
</g>
</g>
<!-- Node1&#45;&gt;Node23 -->
<g id="edge71_Node000001_Node000023" class="edge">
<title>Node1&#45;&gt;Node23</title>
<g id="a_edge71_Node000001_Node000023"><a xlink:title=" ">
<path fill="none" stroke="#63b8ff" d="M877.29,-337.8C814.53,-327.52 723.5,-300.53 723.5,-230.5 723.5,-230.5 723.5,-230.5 723.5,-173.5 723.5,-141.9 715.42,-130.66 691.5,-110 677.97,-98.31 636.33,-85.49 603.02,-76.63"/>
<polygon fill="#63b8ff" stroke="#63b8ff" points="603.55,-73.15 592.99,-74.01 601.79,-79.92 603.55,-73.15"/>
</a>
</g>
</g>
<!-- Node26 -->
<g id="Node000026" class="node">
<title>Node26</title>
<g id="a_Node000026"><a xlink:title=" ">
<polygon fill="#e0e0e0" stroke="#999999" points="1237.5,-294 1147.5,-294 1147.5,-275 1237.5,-275 1237.5,-294"/>
<text text-anchor="middle" x="1192.5" y="-282" font-family="Helvetica,sans-Serif" font-size="10.00">QDomNodeList</text>
</a>
</g>
</g>
<!-- Node1&#45;&gt;Node26 -->
<g id="edge37_Node000001_Node000026" class="edge">
<title>Node1&#45;&gt;Node26</title>
<g id="a_edge37_Node000001_Node000026"><a xlink:title=" ">
<path fill="none" stroke="#63b8ff" d="M993.82,-330.73C1039.61,-320.3 1102.56,-305.97 1145.24,-296.26"/>
<polygon fill="#63b8ff" stroke="#63b8ff" points="1146.12,-299.65 1155.09,-294.02 1144.56,-292.82 1146.12,-299.65"/>
</a>
</g>
</g>
<!-- Node27 -->
<g id="Node000027" class="node">
<title>Node27</title>
<g id="a_Node000027"><a xlink:title=" ">
<polygon fill="#e0e0e0" stroke="#999999" points="1323.5,-294 1255.5,-294 1255.5,-275 1323.5,-275 1323.5,-294"/>
<text text-anchor="middle" x="1289.5" y="-282" font-family="Helvetica,sans-Serif" font-size="10.00">QDomText</text>
</a>
</g>
</g>
<!-- Node1&#45;&gt;Node27 -->
<g id="edge38_Node000001_Node000027" class="edge">
<title>Node1&#45;&gt;Node27</title>
<g id="a_edge38_Node000001_Node000027"><a xlink:title=" ">
<path fill="none" stroke="#63b8ff" d="M993.78,-335.27C1054.22,-326.07 1151.68,-310.83 1245.33,-294.16"/>
<polygon fill="#63b8ff" stroke="#63b8ff" points="1246.03,-297.59 1255.25,-292.38 1244.79,-290.7 1246.03,-297.59"/>
</a>
</g>
</g>
<!-- Node28 -->
<g id="Node000028" class="node">
<title>Node28</title>
<g id="a_Node000028"><a xlink:title=" ">
<polygon fill="#e0e0e0" stroke="#999999" points="1383,-294 1342,-294 1342,-275 1383,-275 1383,-294"/>
<text text-anchor="middle" x="1362.5" y="-282" font-family="Helvetica,sans-Serif" font-size="10.00">QFile</text>
</a>
</g>
</g>
<!-- Node1&#45;&gt;Node28 -->
<g id="edge39_Node000001_Node000028" class="edge">
<title>Node1&#45;&gt;Node28</title>
<g id="a_edge39_Node000001_Node000028"><a xlink:title=" ">
<path fill="none" stroke="#63b8ff" d="M993.8,-339.43C1069.62,-332.87 1206.21,-318.96 1332.13,-293.76"/>
<polygon fill="#63b8ff" stroke="#63b8ff" points="1332.84,-297.19 1341.94,-291.77 1331.45,-290.32 1332.84,-297.19"/>
</a>
</g>
</g>
<!-- Node29 -->
<g id="Node000029" class="node">
<title>Node29</title>
<g id="a_Node000029"><a xlink:title=" ">
<polygon fill="#e0e0e0" stroke="#999999" points="1442,-294 1401,-294 1401,-275 1442,-275 1442,-294"/>
<text text-anchor="middle" x="1421.5" y="-282" font-family="Helvetica,sans-Serif" font-size="10.00">QList</text>
</a>
</g>
</g>
<!-- Node1&#45;&gt;Node29 -->
<g id="edge41_Node000001_Node000029" class="edge">
<title>Node1&#45;&gt;Node29</title>
<g id="a_edge41_Node000001_Node000029"><a xlink:title=" ">
<path fill="none" stroke="#63b8ff" d="M993.71,-340.92C1079.08,-335.69 1243.25,-322.87 1390.57,-294.08"/>
<polygon fill="#63b8ff" stroke="#63b8ff" points="1391.57,-297.45 1400.7,-292.07 1390.21,-290.59 1391.57,-297.45"/>
</a>
</g>
</g>
<!-- Node30 -->
<g id="Node000030" class="node">
<title>Node30</title>
<g id="a_Node000030"><a xlink:href="../../d1/d44/vexception_8h.html" target="_top" xlink:title=" ">
<polygon fill="white" stroke="#666666" points="1617.5,-239 1477.5,-239 1477.5,-220 1617.5,-220 1617.5,-239"/>
<text text-anchor="middle" x="1547.5" y="-227" font-family="Helvetica,sans-Serif" font-size="10.00">../exception/vexception.h</text>
</a>
</g>
</g>
<!-- Node1&#45;&gt;Node30 -->
<g id="edge47_Node000001_Node000030" class="edge">
<title>Node1&#45;&gt;Node30</title>
<g id="a_edge47_Node000001_Node000030"><a xlink:title=" ">
<path fill="none" stroke="#63b8ff" d="M993.55,-341.9C1110.06,-337.12 1368.36,-323.46 1451.5,-294 1481.77,-283.28 1511.87,-260.99 1530.08,-245.89"/>
<polygon fill="#63b8ff" stroke="#63b8ff" points="1532.67,-248.28 1538.01,-239.13 1528.13,-242.95 1532.67,-248.28"/>
</a>
</g>
</g>
<!-- Node3 -->
<g id="Node000003" class="node">
<title>Node3</title>
<g id="a_Node000003"><a xlink:title=" ">
<polygon fill="#e0e0e0" stroke="#999999" points="1749.5,-74 1629.5,-74 1629.5,-55 1749.5,-55 1749.5,-74"/>
<text text-anchor="middle" x="1689.5" y="-62" font-family="Helvetica,sans-Serif" font-size="10.00">qcompilerdetection.h</text>
</a>
</g>
</g>
<!-- Node2&#45;&gt;Node3 -->
<g id="edge2_Node000002_Node000003" class="edge">
<title>Node2&#45;&gt;Node3</title>
<g id="a_edge2_Node000002_Node000003"><a xlink:title=" ">
<path fill="none" stroke="#63b8ff" d="M1129.18,-275.92C1132.33,-275.6 1135.45,-275.29 1138.5,-275 1294,-260.22 1740.13,-307.71 1835.5,-184 1871.99,-136.66 1781.59,-96.42 1727.15,-77.34"/>
<polygon fill="#63b8ff" stroke="#63b8ff" points="1728.04,-73.94 1717.44,-74.02 1725.78,-80.57 1728.04,-73.94"/>
</a>
</g>
</g>
<!-- Node4 -->
<g id="Node000004" class="node">
<title>Node4</title>
<g id="a_Node000004"><a xlink:title=" ">
<polygon fill="#e0e0e0" stroke="#999999" points="1433,-74 1332,-74 1332,-55 1433,-55 1433,-74"/>
<text text-anchor="middle" x="1382.5" y="-62" font-family="Helvetica,sans-Serif" font-size="10.00">QCoreApplication</text>
</a>
</g>
</g>
<!-- Node2&#45;&gt;Node4 -->
<g id="edge3_Node000002_Node000004" class="edge">
<title>Node2&#45;&gt;Node4</title>
<g id="a_edge3_Node000002_Node000004"><a xlink:title=" ">
<path fill="none" stroke="#63b8ff" d="M1034.72,-274.92C983.17,-258.82 887.67,-220.6 916.5,-165 936.02,-127.34 954.82,-125.01 994.5,-110 1128.99,-59.13 1175.48,-90.98 1321.74,-74.13"/>
<polygon fill="#63b8ff" stroke="#63b8ff" points="1322.48,-77.57 1331.98,-72.89 1321.64,-70.62 1322.48,-77.57"/>
</a>
</g>
</g>
<!-- Node5 -->
<g id="Node000005" class="node">
<title>Node5</title>
<g id="a_Node000005"><a xlink:title=" ">
<polygon fill="#e0e0e0" stroke="#999999" points="1504,-74 1451,-74 1451,-55 1504,-55 1504,-74"/>
<text text-anchor="middle" x="1477.5" y="-62" font-family="Helvetica,sans-Serif" font-size="10.00">QString</text>
</a>
</g>
</g>
<!-- Node2&#45;&gt;Node5 -->
<g id="edge4_Node000002_Node000005" class="edge">
<title>Node2&#45;&gt;Node5</title>
<g id="a_edge4_Node000002_Node000005"><a xlink:title=" ">
<path fill="none" stroke="#63b8ff" d="M1113.3,-274.98C1145.36,-268.08 1187.89,-256.57 1222.5,-239 1305.5,-196.85 1308.7,-159.55 1387.5,-110 1406.8,-97.86 1429.87,-86.51 1447.82,-78.31"/>
<polygon fill="#63b8ff" stroke="#63b8ff" points="1449.52,-81.39 1457.21,-74.1 1446.65,-75 1449.52,-81.39"/>
</a>
</g>
</g>
<!-- Node6 -->
<g id="Node000006" class="node">
<title>Node6</title>
<g id="a_Node000006"><a xlink:title=" ">
<polygon fill="#e0e0e0" stroke="#999999" points="1581,-74 1522,-74 1522,-55 1581,-55 1581,-74"/>
<text text-anchor="middle" x="1551.5" y="-62" font-family="Helvetica,sans-Serif" font-size="10.00">QtGlobal</text>
</a>
</g>
</g>
<!-- Node2&#45;&gt;Node6 -->
<g id="edge5_Node000002_Node000006" class="edge">
<title>Node2&#45;&gt;Node6</title>
<g id="a_edge5_Node000002_Node000006"><a xlink:title=" ">
<path fill="none" stroke="#63b8ff" d="M1118.87,-274.98C1156.74,-267.92 1208.32,-256.22 1251.5,-239 1363.62,-194.27 1484.26,-113.09 1531.2,-80.06"/>
<polygon fill="#63b8ff" stroke="#63b8ff" points="1533.45,-82.76 1539.58,-74.13 1529.4,-77.05 1533.45,-82.76"/>
</a>
</g>
</g>
<!-- Node2&#45;&gt;Node7 -->
<g id="edge6_Node000002_Node000007" class="edge">
<title>Node2&#45;&gt;Node7</title>
<g id="a_edge6_Node000002_Node000007"><a xlink:title=" ">
<path fill="none" stroke="#63b8ff" d="M1078.67,-274.98C1091.27,-266.84 1110.5,-254.41 1125.44,-244.76"/>
<polygon fill="#63b8ff" stroke="#63b8ff" points="1127.59,-247.54 1134.09,-239.17 1123.79,-241.66 1127.59,-247.54"/>
</a>
</g>
</g>
<!-- Node10 -->
<g id="Node000010" class="node">
<title>Node10</title>
<g id="a_Node000010"><a xlink:href="../../d0/da1/abstract__converter_8h.html" target="_top" xlink:title=" ">
<polygon fill="white" stroke="#666666" points="1193.5,-184 1077.5,-184 1077.5,-165 1193.5,-165 1193.5,-184"/>
<text text-anchor="middle" x="1135.5" y="-172" font-family="Helvetica,sans-Serif" font-size="10.00">abstract_converter.h</text>
</a>
</g>
</g>
<!-- Node2&#45;&gt;Node10 -->
<g id="edge35_Node000002_Node000010" class="edge">
<title>Node2&#45;&gt;Node10</title>
<g id="a_edge35_Node000002_Node000010"><a xlink:title=" ">
<path fill="none" stroke="#63b8ff" d="M1064.49,-274.58C1063.47,-261.6 1063.27,-237.19 1073.5,-220 1081.41,-206.71 1094.98,-196.3 1107.42,-188.89"/>
<polygon fill="#63b8ff" stroke="#63b8ff" points="1109.13,-191.94 1116.18,-184.03 1105.74,-185.82 1109.13,-191.94"/>
</a>
</g>
</g>
<!-- Node7&#45;&gt;Node3 -->
<g id="edge7_Node000007_Node000003" class="edge">
<title>Node7&#45;&gt;Node3</title>
<g id="a_edge7_Node000007_Node000003"><a xlink:title=" ">
<path fill="none" stroke="#63b8ff" d="M1213.4,-226.21C1339.14,-221.31 1603.83,-208.23 1637.5,-184 1670.37,-160.34 1682.73,-111.25 1687.17,-84.27"/>
<polygon fill="#63b8ff" stroke="#63b8ff" points="1690.66,-84.6 1688.62,-74.2 1683.73,-83.6 1690.66,-84.6"/>
</a>
</g>
</g>
<!-- Node7&#45;&gt;Node5 -->
<g id="edge10_Node000007_Node000005" class="edge">
<title>Node7&#45;&gt;Node5</title>
<g id="a_edge10_Node000007_Node000005"><a xlink:title=" ">
<path fill="none" stroke="#63b8ff" d="M1159.23,-219.7C1170.61,-211 1188.21,-197.13 1202.5,-184 1236.06,-153.16 1233.68,-132.17 1273.5,-110 1337.85,-74.18 1365.34,-89.65 1440.81,-74.23"/>
<polygon fill="#63b8ff" stroke="#63b8ff" points="1441.73,-77.61 1450.77,-72.08 1440.25,-70.77 1441.73,-77.61"/>
</a>
</g>
</g>
<!-- Node7&#45;&gt;Node6 -->
<g id="edge11_Node000007_Node000006" class="edge">
<title>Node7&#45;&gt;Node6</title>
<g id="a_edge11_Node000007_Node000006"><a xlink:title=" ">
<path fill="none" stroke="#63b8ff" d="M1162.21,-219.97C1199.08,-198.88 1298.84,-143.55 1387.5,-110 1410.14,-101.43 1471.14,-85.56 1512.02,-75.28"/>
<polygon fill="#63b8ff" stroke="#63b8ff" points="1513.09,-78.61 1521.94,-72.79 1511.39,-71.82 1513.09,-78.61"/>
</a>
</g>
</g>
<!-- Node7&#45;&gt;Node8 -->
<g id="edge8_Node000007_Node000008" class="edge">
<title>Node7&#45;&gt;Node8</title>
<g id="a_edge8_Node000007_Node000008"><a xlink:title=" ">
<path fill="none" stroke="#63b8ff" d="M1115.53,-219.98C1078.57,-210.14 1018.08,-194.03 980.93,-184.14"/>
<polygon fill="#63b8ff" stroke="#63b8ff" points="981.67,-180.71 971.11,-181.52 979.87,-187.48 981.67,-180.71"/>
</a>
</g>
</g>
<!-- Node7&#45;&gt;Node9 -->
<g id="edge9_Node000007_Node000009" class="edge">
<title>Node7&#45;&gt;Node9</title>
<g id="a_edge9_Node000007_Node000009"><a xlink:title=" ">
<path fill="none" stroke="#63b8ff" d="M1127.74,-219.98C1107.77,-211.38 1076.7,-197.99 1053.85,-188.15"/>
<polygon fill="#63b8ff" stroke="#63b8ff" points="1055.19,-184.91 1044.62,-184.17 1052.42,-191.34 1055.19,-184.91"/>
</a>
</g>
</g>
<!-- Node7&#45;&gt;Node10 -->
<g id="edge12_Node000007_Node000010" class="edge">
<title>Node7&#45;&gt;Node10</title>
<g id="a_edge12_Node000007_Node000010"><a xlink:title=" ">
<path fill="none" stroke="#63b8ff" d="M1145.52,-219.75C1143.93,-212.72 1141.64,-202.62 1139.65,-193.84"/>
<polygon fill="#63b8ff" stroke="#63b8ff" points="1143.07,-193.07 1137.44,-184.09 1136.24,-194.62 1143.07,-193.07"/>
</a>
</g>
</g>
<!-- Node10&#45;&gt;Node3 -->
<g id="edge13_Node000010_Node000003" class="edge">
<title>Node10&#45;&gt;Node3</title>
<g id="a_edge13_Node000010_Node000003"><a xlink:title=" ">
<path fill="none" stroke="#63b8ff" d="M1179.43,-164.94C1279.95,-145.34 1526.38,-97.3 1635.73,-75.98"/>
<polygon fill="#63b8ff" stroke="#63b8ff" points="1636.42,-79.41 1645.56,-74.07 1635.08,-72.54 1636.42,-79.41"/>
</a>
</g>
</g>
<!-- Node10&#45;&gt;Node4 -->
<g id="edge14_Node000010_Node000004" class="edge">
<title>Node10&#45;&gt;Node4</title>
<g id="a_edge14_Node000010_Node000004"><a xlink:title=" ">
<path fill="none" stroke="#63b8ff" d="M1077.31,-164.94C1031.67,-155.86 979.82,-138.76 1005.5,-110 1050.98,-59.08 1237.19,-81.11 1321.93,-73.94"/>
<polygon fill="#63b8ff" stroke="#63b8ff" points="1322.4,-77.41 1331.98,-72.88 1321.67,-70.45 1322.4,-77.41"/>
</a>
</g>
</g>
<!-- Node10&#45;&gt;Node5 -->
<g id="edge15_Node000010_Node000005" class="edge">
<title>Node10&#45;&gt;Node5</title>
<g id="a_edge15_Node000010_Node000005"><a xlink:title=" ">
<path fill="none" stroke="#63b8ff" d="M1136.04,-164.9C1137.42,-150.95 1142.29,-123.58 1159.5,-110 1207.03,-72.5 1365.05,-84.28 1440.7,-73.92"/>
<polygon fill="#63b8ff" stroke="#63b8ff" points="1441.49,-77.34 1450.81,-72.31 1440.39,-70.43 1441.49,-77.34"/>
</a>
</g>
</g>
<!-- Node10&#45;&gt;Node6 -->
<g id="edge17_Node000010_Node000006" class="edge">
<title>Node10&#45;&gt;Node6</title>
<g id="a_edge17_Node000010_Node000006"><a xlink:title=" ">
<path fill="none" stroke="#63b8ff" d="M1155.73,-164.92C1188.1,-151.49 1253.76,-125.44 1311.5,-110 1396.5,-87.27 1422.29,-91.61 1511.63,-74.29"/>
<polygon fill="#63b8ff" stroke="#63b8ff" points="1512.52,-77.68 1521.66,-72.31 1511.17,-70.81 1512.52,-77.68"/>
</a>
</g>
</g>
<!-- Node11 -->
<g id="Node000011" class="node">
<title>Node11</title>
<g id="a_Node000011"><a xlink:title=" ">
<polygon fill="#e0e0e0" stroke="#999999" points="1107,-129 1014,-129 1014,-110 1107,-110 1107,-129"/>
<text text-anchor="middle" x="1060.5" y="-117" font-family="Helvetica,sans-Serif" font-size="10.00">QTemporaryFile</text>
</a>
</g>
</g>
<!-- Node10&#45;&gt;Node11 -->
<g id="edge16_Node000010_Node000011" class="edge">
<title>Node10&#45;&gt;Node11</title>
<g id="a_edge16_Node000010_Node000011"><a xlink:title=" ">
<path fill="none" stroke="#63b8ff" d="M1123.45,-164.98C1112.04,-156.92 1094.67,-144.65 1081.07,-135.03"/>
<polygon fill="#63b8ff" stroke="#63b8ff" points="1082.96,-132.08 1072.77,-129.17 1078.92,-137.8 1082.96,-132.08"/>
</a>
</g>
</g>
<!-- Node12 -->
<g id="Node000012" class="node">
<title>Node12</title>
<g id="a_Node000012"><a xlink:href="../../d8/da5/vdomdocument_8h.html" target="_top" xlink:title=" ">
<polygon fill="white" stroke="#666666" points="869.5,-129 767.5,-129 767.5,-110 869.5,-110 869.5,-129"/>
<text text-anchor="middle" x="818.5" y="-117" font-family="Helvetica,sans-Serif" font-size="10.00">vdomdocument.h</text>
</a>
</g>
</g>
<!-- Node10&#45;&gt;Node12 -->
<g id="edge18_Node000010_Node000012" class="edge">
<title>Node10&#45;&gt;Node12</title>
<g id="a_edge18_Node000010_Node000012"><a xlink:title=" ">
<path fill="none" stroke="#63b8ff" d="M1084.57,-164.98C1028.73,-155.65 939.17,-140.67 879.59,-130.71"/>
<polygon fill="#63b8ff" stroke="#63b8ff" points="880.01,-127.24 869.57,-129.04 878.85,-134.14 880.01,-127.24"/>
</a>
</g>
</g>
<!-- Node12&#45;&gt;Node4 -->
<g id="edge19_Node000012_Node000004" class="edge">
<title>Node12&#45;&gt;Node4</title>
<g id="a_edge19_Node000012_Node000004"><a xlink:title=" ">
<path fill="none" stroke="#63b8ff" d="M869.57,-111.58C874.27,-111.02 878.97,-110.48 883.5,-110 1075.37,-89.62 1126.83,-95.78 1321.99,-74.11"/>
<polygon fill="#63b8ff" stroke="#63b8ff" points="1322.45,-77.58 1332,-72.98 1321.67,-70.62 1322.45,-77.58"/>
</a>
</g>
</g>
<!-- Node12&#45;&gt;Node5 -->
<g id="edge26_Node000012_Node000005" class="edge">
<title>Node12&#45;&gt;Node5</title>
<g id="a_edge26_Node000012_Node000005"><a xlink:title=" ">
<path fill="none" stroke="#63b8ff" d="M869.83,-115.95C995.01,-109.55 1314.4,-92.14 1440.66,-73.99"/>
<polygon fill="#63b8ff" stroke="#63b8ff" points="1441.47,-77.41 1450.84,-72.46 1440.43,-70.49 1441.47,-77.41"/>
</a>
</g>
</g>
<!-- Node12&#45;&gt;Node6 -->
<g id="edge29_Node000012_Node000006" class="edge">
<title>Node12&#45;&gt;Node6</title>
<g id="a_edge29_Node000012_Node000006"><a xlink:title=" ">
<path fill="none" stroke="#63b8ff" d="M869.51,-116.27C1004.63,-110.2 1370.56,-92.68 1511.56,-74.03"/>
<polygon fill="#63b8ff" stroke="#63b8ff" points="1512.28,-77.46 1521.71,-72.62 1511.33,-70.53 1512.28,-77.46"/>
</a>
</g>
</g>
<!-- Node13 -->
<g id="Node000013" class="node">
<title>Node13</title>
<g id="a_Node000013"><a xlink:title=" ">
<polygon fill="#e0e0e0" stroke="#999999" points="836.5,-74 738.5,-74 738.5,-55 836.5,-55 836.5,-74"/>
<text text-anchor="middle" x="787.5" y="-62" font-family="Helvetica,sans-Serif" font-size="10.00">QDomDocument</text>
</a>
</g>
</g>
<!-- Node12&#45;&gt;Node13 -->
<g id="edge20_Node000012_Node000013" class="edge">
<title>Node12&#45;&gt;Node13</title>
<g id="a_edge20_Node000012_Node000013"><a xlink:title=" ">
<path fill="none" stroke="#63b8ff" d="M813.38,-109.75C809.14,-102.49 802.97,-91.95 797.72,-82.98"/>
<polygon fill="#63b8ff" stroke="#63b8ff" points="800.59,-80.95 792.52,-74.09 794.55,-84.49 800.59,-80.95"/>
</a>
</g>
</g>
<!-- Node14 -->
<g id="Node000014" class="node">
<title>Node14</title>
<g id="a_Node000014"><a xlink:title=" ">
<polygon fill="#e0e0e0" stroke="#999999" points="942.5,-74 854.5,-74 854.5,-55 942.5,-55 942.5,-74"/>
<text text-anchor="middle" x="898.5" y="-62" font-family="Helvetica,sans-Serif" font-size="10.00">QDomElement</text>
</a>
</g>
</g>
<!-- Node12&#45;&gt;Node14 -->
<g id="edge21_Node000012_Node000014" class="edge">
<title>Node12&#45;&gt;Node14</title>
<g id="a_edge21_Node000012_Node000014"><a xlink:title=" ">
<path fill="none" stroke="#63b8ff" d="M831.35,-109.98C843.64,-101.84 862.41,-89.41 876.98,-79.76"/>
<polygon fill="#63b8ff" stroke="#63b8ff" points="879.01,-82.61 885.41,-74.17 875.14,-76.78 879.01,-82.61"/>
</a>
</g>
</g>
<!-- Node12&#45;&gt;Node15 -->
<g id="edge22_Node000012_Node000015" class="edge">
<title>Node12&#45;&gt;Node15</title>
<g id="a_edge22_Node000012_Node000015"><a xlink:title=" ">
<path fill="none" stroke="#63b8ff" d="M767.37,-117.63C648.77,-115.15 345.65,-106.05 83.37,-74.08"/>
<polygon fill="#63b8ff" stroke="#63b8ff" points="83.63,-70.59 73.28,-72.84 82.77,-77.54 83.63,-70.59"/>
</a>
</g>
</g>
<!-- Node16 -->
<g id="Node000016" class="node">
<title>Node16</title>
<g id="a_Node000016"><a xlink:title=" ">
<polygon fill="#e0e0e0" stroke="#999999" points="1009,-74 960,-74 960,-55 1009,-55 1009,-74"/>
<text text-anchor="middle" x="984.5" y="-62" font-family="Helvetica,sans-Serif" font-size="10.00">QHash</text>
</a>
</g>
</g>
<!-- Node12&#45;&gt;Node16 -->
<g id="edge23_Node000012_Node000016" class="edge">
<title>Node12&#45;&gt;Node16</title>
<g id="a_edge23_Node000012_Node000016"><a xlink:title=" ">
<path fill="none" stroke="#63b8ff" d="M845.17,-109.98C873.7,-100.88 919.05,-86.4 950.21,-76.45"/>
<polygon fill="#63b8ff" stroke="#63b8ff" points="951.33,-79.76 959.79,-73.39 949.2,-73.1 951.33,-79.76"/>
</a>
</g>
</g>
<!-- Node12&#45;&gt;Node17 -->
<g id="edge24_Node000012_Node000017" class="edge">
<title>Node12&#45;&gt;Node17</title>
<g id="a_edge24_Node000012_Node000017"><a xlink:title=" ">
<path fill="none" stroke="#63b8ff" d="M767.31,-116.57C660.83,-112.19 407.53,-99.91 184.47,-73.99"/>
<polygon fill="#63b8ff" stroke="#63b8ff" points="184.54,-70.47 174.2,-72.78 183.73,-77.42 184.54,-70.47"/>
</a>
</g>
</g>
<!-- Node12&#45;&gt;Node18 -->
<g id="edge25_Node000012_Node000018" class="edge">
<title>Node12&#45;&gt;Node18</title>
<g id="a_edge25_Node000012_Node000018"><a xlink:title=" ">
<path fill="none" stroke="#63b8ff" d="M767.44,-114.95C676.87,-108.47 481.89,-93.65 306.89,-74.1"/>
<polygon fill="#63b8ff" stroke="#63b8ff" points="307.05,-70.6 296.72,-72.96 306.27,-77.55 307.05,-70.6"/>
</a>
</g>
</g>
<!-- Node12&#45;&gt;Node19 -->
<g id="edge27_Node000012_Node000019" class="edge">
<title>Node12&#45;&gt;Node19</title>
<g id="a_edge27_Node000012_Node000019"><a xlink:title=" ">
<path fill="none" stroke="#63b8ff" d="M767.4,-114.29C690.18,-107.65 538.95,-93.62 400.62,-74.06"/>
<polygon fill="#63b8ff" stroke="#63b8ff" points="401.08,-70.59 390.68,-72.65 400.09,-77.52 401.08,-70.59"/>
</a>
</g>
</g>
<!-- Node12&#45;&gt;Node20 -->
<g id="edge28_Node000012_Node000020" class="edge">
<title>Node12&#45;&gt;Node20</title>
<g id="a_edge28_Node000012_Node000020"><a xlink:title=" ">
<path fill="none" stroke="#63b8ff" d="M767.29,-111.4C707.67,-103.08 605.96,-88.73 508.32,-74.11"/>
<polygon fill="#63b8ff" stroke="#63b8ff" points="508.69,-70.62 498.28,-72.6 507.65,-77.54 508.69,-70.62"/>
</a>
</g>
</g>
<!-- Node21 -->
<g id="Node000021" class="node">
<title>Node21</title>
<g id="a_Node000021"><a xlink:title=" ">
<polygon fill="#e0e0e0" stroke="#999999" points="1083.5,-74 1027.5,-74 1027.5,-55 1083.5,-55 1083.5,-74"/>
<text text-anchor="middle" x="1055.5" y="-62" font-family="Helvetica,sans-Serif" font-size="10.00">QLocale</text>
</a>
</g>
</g>
<!-- Node12&#45;&gt;Node21 -->
<g id="edge30_Node000012_Node000021" class="edge">
<title>Node12&#45;&gt;Node21</title>
<g id="a_edge30_Node000012_Node000021"><a xlink:title=" ">
<path fill="none" stroke="#63b8ff" d="M857.23,-109.96C895.49,-101.52 955.94,-88.12 1017.36,-74.25"/>
<polygon fill="#63b8ff" stroke="#63b8ff" points="1018.24,-77.64 1027.22,-72.02 1016.7,-70.81 1018.24,-77.64"/>
</a>
</g>
</g>
<!-- Node22 -->
<g id="Node000022" class="node">
<title>Node22</title>
<g id="a_Node000022"><a xlink:title=" ">
<polygon fill="#e0e0e0" stroke="#999999" points="1179,-74 1102,-74 1102,-55 1179,-55 1179,-74"/>
<text text-anchor="middle" x="1140.5" y="-62" font-family="Helvetica,sans-Serif" font-size="10.00">../ifc/ifcdef.h</text>
</a>
</g>
</g>
<!-- Node12&#45;&gt;Node22 -->
<g id="edge31_Node000012_Node000022" class="edge">
<title>Node12&#45;&gt;Node22</title>
<g id="a_edge31_Node000012_Node000022"><a xlink:title=" ">
<path fill="none" stroke="#63b8ff" d="M869.54,-110.43C922.5,-102.01 1007.99,-88.28 1092.02,-74.06"/>
<polygon fill="#63b8ff" stroke="#63b8ff" points="1092.72,-77.49 1102,-72.37 1091.55,-70.59 1092.72,-77.49"/>
</a>
</g>
</g>
<!-- Node12&#45;&gt;Node23 -->
<g id="edge32_Node000012_Node000023" class="edge">
<title>Node12&#45;&gt;Node23</title>
<g id="a_edge32_Node000012_Node000023"><a xlink:title=" ">
<path fill="none" stroke="#63b8ff" d="M776.57,-109.98C730.96,-100.72 658.03,-85.91 608.98,-75.95"/>
<polygon fill="#63b8ff" stroke="#63b8ff" points="609.4,-72.47 598.9,-73.91 608,-79.33 609.4,-72.47"/>
</a>
</g>
</g>
<!-- Node24 -->
<g id="Node000024" class="node">
<title>Node24</title>
<g id="a_Node000024"><a xlink:title=" ">
<polygon fill="#e0e0e0" stroke="#999999" points="1314,-74 1197,-74 1197,-55 1314,-55 1314,-74"/>
<text text-anchor="middle" x="1255.5" y="-62" font-family="Helvetica,sans-Serif" font-size="10.00">../vmisc/diagnostic.h</text>
</a>
</g>
</g>
<!-- Node12&#45;&gt;Node24 -->
<g id="edge33_Node000012_Node000024" class="edge">
<title>Node12&#45;&gt;Node24</title>
<g id="a_edge33_Node000012_Node000024"><a xlink:title=" ">
<path fill="none" stroke="#63b8ff" d="M869.59,-111.76C874.29,-111.16 878.98,-110.56 883.5,-110 1015.65,-93.56 1051.29,-90.72 1186.35,-74.25"/>
<polygon fill="#63b8ff" stroke="#63b8ff" points="1187.18,-77.68 1196.68,-72.99 1186.33,-70.73 1187.18,-77.68"/>
</a>
</g>
</g>
<!-- Node25 -->
<g id="Node000025" class="node">
<title>Node25</title>
<g id="a_Node000025"><a xlink:title=" ">
<polygon fill="#e0e0e0" stroke="#999999" points="720,-74 617,-74 617,-55 720,-55 720,-74"/>
<text text-anchor="middle" x="668.5" y="-62" font-family="Helvetica,sans-Serif" font-size="10.00">../vmisc/logging.h</text>
</a>
</g>
</g>
<!-- Node12&#45;&gt;Node25 -->
<g id="edge34_Node000012_Node000025" class="edge">
<title>Node12&#45;&gt;Node25</title>
<g id="a_edge34_Node000012_Node000025"><a xlink:title=" ">
<path fill="none" stroke="#63b8ff" d="M794.4,-109.98C769.62,-101.23 730.8,-87.51 702.81,-77.62"/>
<polygon fill="#63b8ff" stroke="#63b8ff" points="703.63,-74.2 693.04,-74.17 701.3,-80.8 703.63,-74.2"/>
</a>
</g>
</g>
<!-- Node30&#45;&gt;Node3 -->
<g id="edge48_Node000030_Node000003" class="edge">
<title>Node30&#45;&gt;Node3</title>
<g id="a_edge48_Node000030_Node000003"><a xlink:title=" ">
<path fill="none" stroke="#63b8ff" d="M1601.46,-219.97C1641.06,-212.49 1690.01,-200.27 1702.5,-184 1725.1,-154.56 1709.66,-108.23 1698.39,-83.11"/>
<polygon fill="#63b8ff" stroke="#63b8ff" points="1701.53,-81.57 1694.07,-74.04 1695.21,-84.57 1701.53,-81.57"/>
</a>
</g>
</g>
<!-- Node30&#45;&gt;Node4 -->
<g id="edge49_Node000030_Node000004" class="edge">
<title>Node30&#45;&gt;Node4</title>
<g id="a_edge49_Node000030_Node000004"><a xlink:title=" ">
<path fill="none" stroke="#63b8ff" d="M1536.87,-219.94C1526.16,-211.19 1509.3,-197.08 1495.5,-184 1458.56,-149 1418.03,-105 1396.99,-81.71"/>
<polygon fill="#63b8ff" stroke="#63b8ff" points="1399.45,-79.21 1390.16,-74.12 1394.25,-83.89 1399.45,-79.21"/>
</a>
</g>
</g>
<!-- Node30&#45;&gt;Node5 -->
<g id="edge51_Node000030_Node000005" class="edge">
<title>Node30&#45;&gt;Node5</title>
<g id="a_edge51_Node000030_Node000005"><a xlink:title=" ">
<path fill="none" stroke="#63b8ff" d="M1539.34,-219.77C1524.65,-203.44 1494.12,-166.53 1481.5,-129 1476.65,-114.59 1475.86,-97.31 1476.17,-84.42"/>
<polygon fill="#63b8ff" stroke="#63b8ff" points="1479.67,-84.56 1476.64,-74.4 1472.67,-84.23 1479.67,-84.56"/>
</a>
</g>
</g>
<!-- Node31 -->
<g id="Node000031" class="node">
<title>Node31</title>
<g id="a_Node000031"><a xlink:title=" ">
<polygon fill="#e0e0e0" stroke="#999999" points="1826.5,-184 1754.5,-184 1754.5,-165 1826.5,-165 1826.5,-184"/>
<text text-anchor="middle" x="1790.5" y="-172" font-family="Helvetica,sans-Serif" font-size="10.00">QException</text>
</a>
</g>
</g>
<!-- Node30&#45;&gt;Node31 -->
<g id="edge50_Node000030_Node000031" class="edge">
<title>Node30&#45;&gt;Node31</title>
<g id="a_edge50_Node000030_Node000031"><a xlink:title=" ">
<path fill="none" stroke="#63b8ff" d="M1586.54,-219.98C1629.57,-210.6 1698.73,-195.52 1744.4,-185.56"/>
<polygon fill="#63b8ff" stroke="#63b8ff" points="1745.31,-188.94 1754.33,-183.39 1743.82,-182.1 1745.31,-188.94"/>
</a>
</g>
</g>
<!-- Node32 -->
<g id="Node000032" class="node">
<title>Node32</title>
<g id="a_Node000032"><a xlink:href="../../d3/da5/ifcdef_8h.html" target="_top" xlink:title=" ">
<polygon fill="white" stroke="#666666" points="1628.5,-184 1566.5,-184 1566.5,-165 1628.5,-165 1628.5,-184"/>
<text text-anchor="middle" x="1597.5" y="-172" font-family="Helvetica,sans-Serif" font-size="10.00">../ifcdef.h</text>
</a>
</g>
</g>
<!-- Node30&#45;&gt;Node32 -->
<g id="edge52_Node000030_Node000032" class="edge">
<title>Node30&#45;&gt;Node32</title>
<g id="a_edge52_Node000030_Node000032"><a xlink:title=" ">
<path fill="none" stroke="#63b8ff" d="M1555.76,-219.75C1562.96,-212.11 1573.61,-200.82 1582.35,-191.56"/>
<polygon fill="#63b8ff" stroke="#63b8ff" points="1585.08,-193.76 1589.4,-184.09 1579.99,-188.96 1585.08,-193.76"/>
</a>
</g>
</g>
<!-- Node32&#45;&gt;Node5 -->
<g id="edge53_Node000032_Node000005" class="edge">
<title>Node32&#45;&gt;Node5</title>
<g id="a_edge53_Node000032_Node000005"><a xlink:title=" ">
<path fill="none" stroke="#63b8ff" d="M1566.36,-166.86C1544.27,-160.62 1515.47,-149.13 1497.5,-129 1486.56,-116.74 1481.6,-98.51 1479.36,-84.72"/>
<polygon fill="#63b8ff" stroke="#63b8ff" points="1482.78,-83.89 1478.04,-74.42 1475.83,-84.78 1482.78,-83.89"/>
</a>
</g>
</g>
<!-- Node32&#45;&gt;Node6 -->
<g id="edge55_Node000032_Node000006" class="edge">
<title>Node32&#45;&gt;Node6</title>
<g id="a_edge55_Node000032_Node000006"><a xlink:title=" ">
<path fill="none" stroke="#63b8ff" d="M1608.44,-164.78C1622.53,-152.45 1643.91,-129.28 1632.5,-110 1623.37,-94.56 1606.76,-84.12 1590.96,-77.26"/>
<polygon fill="#63b8ff" stroke="#63b8ff" points="1591.88,-73.86 1581.29,-73.43 1589.3,-80.37 1591.88,-73.86"/>
</a>
</g>
</g>
<!-- Node33 -->
<g id="Node000033" class="node">
<title>Node33</title>
<g id="a_Node000033"><a xlink:title=" ">
<polygon fill="#e0e0e0" stroke="#999999" points="1837.5,-74 1767.5,-74 1767.5,-55 1837.5,-55 1837.5,-74"/>
<text text-anchor="middle" x="1802.5" y="-62" font-family="Helvetica,sans-Serif" font-size="10.00">QStringList</text>
</a>
</g>
</g>
<!-- Node32&#45;&gt;Node33 -->
<g id="edge54_Node000032_Node000033" class="edge">
<title>Node32&#45;&gt;Node33</title>
<g id="a_edge54_Node000032_Node000033"><a xlink:title=" ">
<path fill="none" stroke="#63b8ff" d="M1613.93,-164.84C1649.7,-146 1734.84,-101.14 1777.39,-78.73"/>
<polygon fill="#63b8ff" stroke="#63b8ff" points="1779.06,-81.8 1786.28,-74.05 1775.8,-75.61 1779.06,-81.8"/>
</a>
</g>
</g>
<!-- Node34 -->
<g id="Node000034" class="node">
<title>Node34</title>
<g id="a_Node000034"><a xlink:href="../../d4/da4/def_8h.html" target="_top" xlink:title=" ">
<polygon fill="white" stroke="#666666" points="2001.5,-129 1919.5,-129 1919.5,-110 2001.5,-110 2001.5,-129"/>
<text text-anchor="middle" x="1960.5" y="-117" font-family="Helvetica,sans-Serif" font-size="10.00">../vmisc/def.h</text>
</a>
</g>
</g>
<!-- Node32&#45;&gt;Node34 -->
<g id="edge56_Node000032_Node000034" class="edge">
<title>Node32&#45;&gt;Node34</title>
<g id="a_edge56_Node000032_Node000034"><a xlink:title=" ">
<path fill="none" stroke="#63b8ff" d="M1628.55,-169.12C1684.13,-161.25 1804.24,-144.14 1905.5,-129 1906.76,-128.81 1908.04,-128.62 1909.33,-128.42"/>
<polygon fill="#63b8ff" stroke="#63b8ff" points="1910,-131.86 1919.36,-126.9 1908.95,-124.94 1910,-131.86"/>
</a>
</g>
</g>
<!-- Node43 -->
<g id="Node000043" class="node">
<title>Node43</title>
<g id="a_Node000043"><a xlink:href="../../d6/dcd/diagnostic_8h.html" target="_top" xlink:title=" ">
<polygon fill="white" stroke="#666666" points="1623,-129 1506,-129 1506,-110 1623,-110 1623,-129"/>
<text text-anchor="middle" x="1564.5" y="-117" font-family="Helvetica,sans-Serif" font-size="10.00">../vmisc/diagnostic.h</text>
</a>
</g>
</g>
<!-- Node32&#45;&gt;Node43 -->
<g id="edge69_Node000032_Node000043" class="edge">
<title>Node32&#45;&gt;Node43</title>
<g id="a_edge69_Node000032_Node000043"><a xlink:title=" ">
<path fill="none" stroke="#63b8ff" d="M1592.05,-164.75C1587.49,-157.42 1580.83,-146.73 1575.21,-137.7"/>
<polygon fill="#63b8ff" stroke="#63b8ff" points="1578.1,-135.73 1569.85,-129.09 1572.16,-139.43 1578.1,-135.73"/>
</a>
</g>
</g>
<!-- Node34&#45;&gt;Node3 -->
<g id="edge57_Node000034_Node000003" class="edge">
<title>Node34&#45;&gt;Node3</title>
<g id="a_edge57_Node000034_Node000003"><a xlink:title=" ">
<path fill="none" stroke="#63b8ff" d="M1919.34,-110.45C1872.28,-101.25 1795.09,-86.15 1743.3,-76.02"/>
<polygon fill="#63b8ff" stroke="#63b8ff" points="1743.78,-72.55 1733.3,-74.07 1742.44,-79.42 1743.78,-72.55"/>
</a>
</g>
</g>
<!-- Node34&#45;&gt;Node5 -->
<g id="edge60_Node000034_Node000005" class="edge">
<title>Node34&#45;&gt;Node5</title>
<g id="a_edge60_Node000034_Node000005"><a xlink:title=" ">
<path fill="none" stroke="#63b8ff" d="M1919.28,-116.23C1841.87,-111.57 1669.39,-99.31 1514.34,-73.9"/>
<polygon fill="#63b8ff" stroke="#63b8ff" points="1514.59,-70.4 1504.16,-72.21 1513.45,-77.3 1514.59,-70.4"/>
</a>
</g>
</g>
<!-- Node34&#45;&gt;Node6 -->
<g id="edge63_Node000034_Node000006" class="edge">
<title>Node34&#45;&gt;Node6</title>
<g id="a_edge63_Node000034_Node000006"><a xlink:title=" ">
<path fill="none" stroke="#63b8ff" d="M1919.41,-113.18C1840.67,-102.97 1669.43,-80.78 1591.52,-70.69"/>
<polygon fill="#63b8ff" stroke="#63b8ff" points="1591.54,-67.16 1581.17,-69.34 1590.64,-74.1 1591.54,-67.16"/>
</a>
</g>
</g>
<!-- Node34&#45;&gt;Node33 -->
<g id="edge61_Node000034_Node000033" class="edge">
<title>Node34&#45;&gt;Node33</title>
<g id="a_edge61_Node000034_Node000033"><a xlink:title=" ">
<path fill="none" stroke="#63b8ff" d="M1935.11,-109.98C1908.7,-101.13 1867.15,-87.19 1837.61,-77.28"/>
<polygon fill="#63b8ff" stroke="#63b8ff" points="1838.68,-73.94 1828.08,-74.08 1836.45,-80.58 1838.68,-73.94"/>
</a>
</g>
</g>
<!-- Node35 -->
<g id="Node000035" class="node">
<title>Node35</title>
<g id="a_Node000035"><a xlink:title=" ">
<polygon fill="#e0e0e0" stroke="#999999" points="2178,-74 2105,-74 2105,-55 2178,-55 2178,-74"/>
<text text-anchor="middle" x="2141.5" y="-62" font-family="Helvetica,sans-Serif" font-size="10.00">QFileDialog</text>
</a>
</g>
</g>
<!-- Node34&#45;&gt;Node35 -->
<g id="edge58_Node000034_Node000035" class="edge">
<title>Node34&#45;&gt;Node35</title>
<g id="a_edge58_Node000034_Node000035"><a xlink:title=" ">
<path fill="none" stroke="#63b8ff" d="M1989.58,-109.98C2020.1,-101.05 2068.26,-86.94 2102.16,-77.02"/>
<polygon fill="#63b8ff" stroke="#63b8ff" points="2103.58,-80.25 2112.19,-74.08 2101.61,-73.53 2103.58,-80.25"/>
</a>
</g>
</g>
<!-- Node36 -->
<g id="Node000036" class="node">
<title>Node36</title>
<g id="a_Node000036"><a xlink:title=" ">
<polygon fill="#e0e0e0" stroke="#999999" points="2246.5,-74 2196.5,-74 2196.5,-55 2246.5,-55 2246.5,-74"/>
<text text-anchor="middle" x="2221.5" y="-62" font-family="Helvetica,sans-Serif" font-size="10.00">QLineF</text>
</a>
</g>
</g>
<!-- Node34&#45;&gt;Node36 -->
<g id="edge59_Node000034_Node000036" class="edge">
<title>Node34&#45;&gt;Node36</title>
<g id="a_edge59_Node000034_Node000036"><a xlink:title=" ">
<path fill="none" stroke="#63b8ff" d="M2001.64,-111.09C2045.17,-103.11 2116.09,-89.69 2186.37,-74.16"/>
<polygon fill="#63b8ff" stroke="#63b8ff" points="2187.28,-77.55 2196.28,-71.96 2185.76,-70.71 2187.28,-77.55"/>
</a>
</g>
</g>
<!-- Node37 -->
<g id="Node000037" class="node">
<title>Node37</title>
<g id="a_Node000037"><a xlink:title=" ">
<polygon fill="#e0e0e0" stroke="#999999" points="2294,-74 2265,-74 2265,-55 2294,-55 2294,-74"/>
<text text-anchor="middle" x="2279.5" y="-62" font-family="Helvetica,sans-Serif" font-size="10.00">Qt</text>
</a>
</g>
</g>
<!-- Node34&#45;&gt;Node37 -->
<g id="edge62_Node000034_Node000037" class="edge">
<title>Node34&#45;&gt;Node37</title>
<g id="a_edge62_Node000034_Node000037"><a xlink:title=" ">
<path fill="none" stroke="#63b8ff" d="M2001.54,-114.8C2057.07,-109.26 2159.24,-97.14 2255.06,-73.63"/>
<polygon fill="#63b8ff" stroke="#63b8ff" points="2256.06,-76.99 2264.91,-71.16 2254.36,-70.2 2256.06,-76.99"/>
</a>
</g>
</g>
<!-- Node38 -->
<g id="Node000038" class="node">
<title>Node38</title>
<g id="a_Node000038"><a xlink:title=" ">
<polygon fill="#e0e0e0" stroke="#999999" points="2368.5,-74 2312.5,-74 2312.5,-55 2368.5,-55 2368.5,-74"/>
<text text-anchor="middle" x="2340.5" y="-62" font-family="Helvetica,sans-Serif" font-size="10.00">QPrinter</text>
</a>
</g>
</g>
<!-- Node34&#45;&gt;Node38 -->
<g id="edge64_Node000034_Node000038" class="edge">
<title>Node34&#45;&gt;Node38</title>
<g id="a_edge64_Node000034_Node000038"><a xlink:title=" ">
<path fill="none" stroke="#63b8ff" d="M2001.62,-114.47C2064.36,-108.03 2187.93,-94.23 2302.3,-74.06"/>
<polygon fill="#63b8ff" stroke="#63b8ff" points="2303.05,-77.48 2312.28,-72.28 2301.82,-70.59 2303.05,-77.48"/>
</a>
</g>
</g>
<!-- Node39 -->
<g id="Node000039" class="node">
<title>Node39</title>
<g id="a_Node000039"><a xlink:title=" ">
<polygon fill="#e0e0e0" stroke="#999999" points="1917,-74 1856,-74 1856,-55 1917,-55 1917,-74"/>
<text text-anchor="middle" x="1886.5" y="-62" font-family="Helvetica,sans-Serif" font-size="10.00">QPixmap</text>
</a>
</g>
</g>
<!-- Node34&#45;&gt;Node39 -->
<g id="edge65_Node000034_Node000039" class="edge">
<title>Node34&#45;&gt;Node39</title>
<g id="a_edge65_Node000034_Node000039"><a xlink:title=" ">
<path fill="none" stroke="#63b8ff" d="M1948.61,-109.98C1937.35,-101.92 1920.21,-89.65 1906.79,-80.03"/>
<polygon fill="#63b8ff" stroke="#63b8ff" points="1908.77,-77.15 1898.61,-74.17 1904.7,-82.84 1908.77,-77.15"/>
</a>
</g>
</g>
<!-- Node40 -->
<g id="Node000040" class="node">
<title>Node40</title>
<g id="a_Node000040"><a xlink:title=" ">
<polygon fill="#e0e0e0" stroke="#999999" points="1986,-74 1935,-74 1935,-55 1986,-55 1986,-74"/>
<text text-anchor="middle" x="1960.5" y="-62" font-family="Helvetica,sans-Serif" font-size="10.00">csignal</text>
</a>
</g>
</g>
<!-- Node34&#45;&gt;Node40 -->
<g id="edge66_Node000034_Node000040" class="edge">
<title>Node34&#45;&gt;Node40</title>
<g id="a_edge66_Node000034_Node000040"><a xlink:title=" ">
<path fill="none" stroke="#63b8ff" d="M1960.5,-109.75C1960.5,-102.8 1960.5,-92.85 1960.5,-84.13"/>
<polygon fill="#63b8ff" stroke="#63b8ff" points="1964,-84.09 1960.5,-74.09 1957,-84.09 1964,-84.09"/>
</a>
</g>
</g>
<!-- Node41 -->
<g id="Node000041" class="node">
<title>Node41</title>
<g id="a_Node000041"><a xlink:href="../../d4/d82/debugbreak_8h.html" target="_top" xlink:title=" ">
<polygon fill="white" stroke="#666666" points="2087,-74 2004,-74 2004,-55 2087,-55 2087,-74"/>
<text text-anchor="middle" x="2045.5" y="-62" font-family="Helvetica,sans-Serif" font-size="10.00">debugbreak.h</text>
</a>
</g>
</g>
<!-- Node34&#45;&gt;Node41 -->
<g id="edge67_Node000034_Node000041" class="edge">
<title>Node34&#45;&gt;Node41</title>
<g id="a_edge67_Node000034_Node000041"><a xlink:title=" ">
<path fill="none" stroke="#63b8ff" d="M1974.16,-109.98C1987.34,-101.77 2007.53,-89.18 2023.07,-79.49"/>
<polygon fill="#63b8ff" stroke="#63b8ff" points="2024.96,-82.43 2031.59,-74.17 2021.26,-76.49 2024.96,-82.43"/>
</a>
</g>
</g>
<!-- Node42 -->
<g id="Node000042" class="node">
<title>Node42</title>
<g id="a_Node000042"><a xlink:title=" ">
<polygon fill="#e0e0e0" stroke="#999999" points="2073,-19 2018,-19 2018,0 2073,0 2073,-19"/>
<text text-anchor="middle" x="2045.5" y="-7" font-family="Helvetica,sans-Serif" font-size="10.00">signal.h</text>
</a>
</g>
</g>
<!-- Node41&#45;&gt;Node42 -->
<g id="edge68_Node000041_Node000042" class="edge">
<title>Node41&#45;&gt;Node42</title>
<g id="a_edge68_Node000041_Node000042"><a xlink:title=" ">
<path fill="none" stroke="#63b8ff" d="M2045.5,-54.75C2045.5,-47.8 2045.5,-37.85 2045.5,-29.13"/>
<polygon fill="#63b8ff" stroke="#63b8ff" points="2049,-29.09 2045.5,-19.09 2042,-29.09 2049,-29.09"/>
</a>
</g>
</g>
<!-- Node43&#45;&gt;Node6 -->
<g id="edge70_Node000043_Node000006" class="edge">
<title>Node43&#45;&gt;Node6</title>
<g id="a_edge70_Node000043_Node000006"><a xlink:title=" ">
<path fill="none" stroke="#63b8ff" d="M1562.35,-109.75C1560.63,-102.72 1558.15,-92.62 1556,-83.84"/>
<polygon fill="#63b8ff" stroke="#63b8ff" points="1559.39,-82.97 1553.61,-74.09 1552.59,-84.63 1559.39,-82.97"/>
</a>
</g>
</g>
</g>
</svg>
