<?xml version="1.0" encoding="UTF-8" standalone="no"?>
<!DOCTYPE svg PUBLIC "-//W3C//DTD SVG 1.1//EN"
 "http://www.w3.org/Graphics/SVG/1.1/DTD/svg11.dtd">
<!-- Generated by graphviz version 2.43.0 (0)
 -->
<!-- Title: src/libs/vmisc/vcommonsettings.cpp Pages: 1 -->
<!--zoomable 247 -->

<svg id="main" version="1.1" xmlns="http://www.w3.org/2000/svg" xmlns:xlink="http://www.w3.org/1999/xlink" xml:space="preserve" onload="init(evt)">
<style type="text/css"><![CDATA[
.node, .edge {opacity: 0.7;}
.node.selected, .edge.selected {opacity: 1;}
.edge:hover path { stroke: red; }
.edge:hover polygon { stroke: red; fill: red; }
]]></style>

<defs>
  <circle id="rim" cx="0" cy="0" r="7"/>
  <circle id="rim2" cx="0" cy="0" r="3.5"/>
  <g id="zoomPlus">
    <use xlink:href="#rim" fill="#404040"><set attributeName="fill" to="#808080" begin="zoomplus.mouseover" end="zoomplus.mouseout"/></use>
    <path d="M-4,0h8M0,-4v8" fill="none" stroke="white" stroke-width="1.5" pointer-events="none"/>
  </g>
  <g id="zoomMin">
    <use xlink:href="#rim" fill="#404040"><set attributeName="fill" to="#808080" begin="zoomminus.mouseover" end="zoomminus.mouseout"/></use>
    <path d="M-4,0h8" fill="none" stroke="white" stroke-width="1.5" pointer-events="none"/>
  </g>
  <g id="arrowUp" transform="translate(30 24)">
    <use xlink:href="#rim"/>
    <path pointer-events="none" fill="none" stroke="white" stroke-width="1.5" d="M0,-3.0v7 M-2.5,-0.5L0,-3.0L2.5,-0.5"/>
  </g>
  <g id="arrowRight" transform="rotate(90) translate(36 -43)">
    <use xlink:href="#rim"/>
    <path pointer-events="none" fill="none" stroke="white" stroke-width="1.5" d="M0,-3.0v7 M-2.5,-0.5L0,-3.0L2.5,-0.5"/>
  </g>
  <g id="arrowDown" transform="rotate(180) translate(-30 -48)">
    <use xlink:href="#rim"/>
    <path pointer-events="none" fill="none" stroke="white" stroke-width="1.5" d="M0,-3.0v7 M-2.5,-0.5L0,-3.0L2.5,-0.5"/>
  </g>
  <g id="arrowLeft" transform="rotate(270) translate(-36 17)">
    <use xlink:href="#rim"/>
    <path pointer-events="none" fill="none" stroke="white" stroke-width="1.5" d="M0,-3.0v7 M-2.5,-0.5L0,-3.0L2.5,-0.5"/>
  </g>
  <g id="resetDef">
    <use xlink:href="#rim2" fill="#404040"><set attributeName="fill" to="#808080" begin="reset.mouseover" end="reset.mouseout"/></use>
  </g>
</defs>
<script type="application/ecmascript">
var viewWidth = 2077;
var viewHeight = 247;
var sectionId = 'dynsection-0';
</script>
<script type="application/ecmascript" xlink:href="../../svg.min.js"/>
<svg id="graph" class="graph">
<g id="viewport">
<title>src/libs/vmisc/vcommonsettings.cpp</title>
<!-- Node1 -->
<g id="Node000001" class="node">
<title>Node1</title>
<g id="a_Node000001"><a xlink:title=" ">
<polygon fill="#999999" stroke="#666666" points="1091.5,-239 897.5,-239 897.5,-220 1091.5,-220 1091.5,-239"/>
<text text-anchor="middle" x="994.5" y="-227" font-family="Helvetica,sans-Serif" font-size="10.00">src/libs/vmisc/vcommonsettings.cpp</text>
</a>
</g>
</g>
<!-- Node2 -->
<g id="Node000002" class="node">
<title>Node2</title>
<g id="a_Node000002"><a xlink:href="../../d4/d5c/vcommonsettings_8h.html" target="_top" xlink:title=" ">
<polygon fill="white" stroke="#666666" points="322,-184 209,-184 209,-165 322,-165 322,-184"/>
<text text-anchor="middle" x="265.5" y="-172" font-family="Helvetica,sans-Serif" font-size="10.00">vcommonsettings.h</text>
</a>
</g>
</g>
<!-- Node1&#45;&gt;Node2 -->
<g id="edge1_Node000001_Node000002" class="edge">
<title>Node1&#45;&gt;Node2</title>
<g id="a_edge1_Node000001_Node000002"><a xlink:title=" ">
<path fill="none" stroke="#63b8ff" d="M897.29,-223.91C769.86,-217.46 539.15,-204.3 332.34,-184.12"/>
<polygon fill="#63b8ff" stroke="#63b8ff" points="332.49,-180.62 322.2,-183.13 331.81,-187.59 332.49,-180.62"/>
</a>
</g>
</g>
<!-- Node15 -->
<g id="Node000015" class="node">
<title>Node15</title>
<g id="a_Node000015"><a xlink:title=" ">
<polygon fill="#e0e0e0" stroke="#999999" points="419,-184 340,-184 340,-165 419,-165 419,-184"/>
<text text-anchor="middle" x="379.5" y="-172" font-family="Helvetica,sans-Serif" font-size="10.00">QApplication</text>
</a>
</g>
</g>
<!-- Node1&#45;&gt;Node15 -->
<g id="edge15_Node000001_Node000015" class="edge">
<title>Node1&#45;&gt;Node15</title>
<g id="a_edge15_Node000001_Node000015"><a xlink:title=" ">
<path fill="none" stroke="#63b8ff" d="M897.39,-223.75C786.45,-217.67 599.29,-205.44 429.15,-184.09"/>
<polygon fill="#63b8ff" stroke="#63b8ff" points="429.37,-180.59 419.01,-182.81 428.49,-187.54 429.37,-180.59"/>
</a>
</g>
</g>
<!-- Node16 -->
<g id="Node000016" class="node">
<title>Node16</title>
<g id="a_Node000016"><a xlink:title=" ">
<polygon fill="#e0e0e0" stroke="#999999" points="484,-184 437,-184 437,-165 484,-165 484,-184"/>
<text text-anchor="middle" x="460.5" y="-172" font-family="Helvetica,sans-Serif" font-size="10.00">QDate</text>
</a>
</g>
</g>
<!-- Node1&#45;&gt;Node16 -->
<g id="edge16_Node000001_Node000016" class="edge">
<title>Node1&#45;&gt;Node16</title>
<g id="a_edge16_Node000001_Node000016"><a xlink:title=" ">
<path fill="none" stroke="#63b8ff" d="M897.38,-224.58C798.28,-219.51 640,-208.45 494.22,-183.82"/>
<polygon fill="#63b8ff" stroke="#63b8ff" points="494.64,-180.34 484.19,-182.1 493.46,-187.24 494.64,-180.34"/>
</a>
</g>
</g>
<!-- Node17 -->
<g id="Node000017" class="node">
<title>Node17</title>
<g id="a_Node000017"><a xlink:title=" ">
<polygon fill="#e0e0e0" stroke="#999999" points="540.5,-184 502.5,-184 502.5,-165 540.5,-165 540.5,-184"/>
<text text-anchor="middle" x="521.5" y="-172" font-family="Helvetica,sans-Serif" font-size="10.00">QDir</text>
</a>
</g>
</g>
<!-- Node1&#45;&gt;Node17 -->
<g id="edge17_Node000001_Node000017" class="edge">
<title>Node1&#45;&gt;Node17</title>
<g id="a_edge17_Node000001_Node000017"><a xlink:title=" ">
<path fill="none" stroke="#63b8ff" d="M897.34,-224.25C809.04,-219.13 675.18,-208.25 550.74,-183.86"/>
<polygon fill="#63b8ff" stroke="#63b8ff" points="551.15,-180.38 540.65,-181.85 549.78,-187.24 551.15,-180.38"/>
</a>
</g>
</g>
<!-- Node18 -->
<g id="Node000018" class="node">
<title>Node18</title>
<g id="a_Node000018"><a xlink:title=" ">
<polygon fill="#e0e0e0" stroke="#999999" points="604,-184 559,-184 559,-165 604,-165 604,-184"/>
<text text-anchor="middle" x="581.5" y="-172" font-family="Helvetica,sans-Serif" font-size="10.00">QFont</text>
</a>
</g>
</g>
<!-- Node1&#45;&gt;Node18 -->
<g id="edge18_Node000001_Node000018" class="edge">
<title>Node1&#45;&gt;Node18</title>
<g id="a_edge18_Node000001_Node000018"><a xlink:title=" ">
<path fill="none" stroke="#63b8ff" d="M897.22,-221.01C822.3,-214.34 716.07,-202.94 614,-183.82"/>
<polygon fill="#63b8ff" stroke="#63b8ff" points="614.61,-180.37 604.13,-181.94 613.3,-187.25 614.61,-180.37"/>
</a>
</g>
</g>
<!-- Node19 -->
<g id="Node000019" class="node">
<title>Node19</title>
<g id="a_Node000019"><a xlink:title=" ">
<polygon fill="#e0e0e0" stroke="#999999" points="678.5,-184 622.5,-184 622.5,-165 678.5,-165 678.5,-184"/>
<text text-anchor="middle" x="650.5" y="-172" font-family="Helvetica,sans-Serif" font-size="10.00">QLocale</text>
</a>
</g>
</g>
<!-- Node1&#45;&gt;Node19 -->
<g id="edge19_Node000001_Node000019" class="edge">
<title>Node1&#45;&gt;Node19</title>
<g id="a_edge19_Node000001_Node000019"><a xlink:title=" ">
<path fill="none" stroke="#63b8ff" d="M924.12,-219.96C864.04,-212.29 775.13,-200.05 688.71,-184.1"/>
<polygon fill="#63b8ff" stroke="#63b8ff" points="689.2,-180.63 678.73,-182.24 687.92,-187.51 689.2,-180.63"/>
</a>
</g>
</g>
<!-- Node20 -->
<g id="Node000020" class="node">
<title>Node20</title>
<g id="a_Node000020"><a xlink:title=" ">
<polygon fill="#e0e0e0" stroke="#999999" points="798,-184 697,-184 697,-165 798,-165 798,-184"/>
<text text-anchor="middle" x="747.5" y="-172" font-family="Helvetica,sans-Serif" font-size="10.00">QMessageLogger</text>
</a>
</g>
</g>
<!-- Node1&#45;&gt;Node20 -->
<g id="edge20_Node000001_Node000020" class="edge">
<title>Node1&#45;&gt;Node20</title>
<g id="a_edge20_Node000001_Node000020"><a xlink:title=" ">
<path fill="none" stroke="#63b8ff" d="M954.82,-219.98C912,-210.8 843.74,-196.15 797.34,-186.19"/>
<polygon fill="#63b8ff" stroke="#63b8ff" points="798.01,-182.76 787.5,-184.08 796.54,-189.6 798.01,-182.76"/>
</a>
</g>
</g>
<!-- Node21 -->
<g id="Node000021" class="node">
<title>Node21</title>
<g id="a_Node000021"><a xlink:title=" ">
<polygon fill="#e0e0e0" stroke="#999999" points="870.5,-184 816.5,-184 816.5,-165 870.5,-165 870.5,-184"/>
<text text-anchor="middle" x="843.5" y="-172" font-family="Helvetica,sans-Serif" font-size="10.00">QSound</text>
</a>
</g>
</g>
<!-- Node1&#45;&gt;Node21 -->
<g id="edge21_Node000001_Node000021" class="edge">
<title>Node1&#45;&gt;Node21</title>
<g id="a_edge21_Node000001_Node000021"><a xlink:title=" ">
<path fill="none" stroke="#63b8ff" d="M970.24,-219.98C945.18,-211.19 905.87,-197.39 877.67,-187.49"/>
<polygon fill="#63b8ff" stroke="#63b8ff" points="878.8,-184.18 868.2,-184.17 876.48,-190.78 878.8,-184.18"/>
</a>
</g>
</g>
<!-- Node22 -->
<g id="Node000022" class="node">
<title>Node22</title>
<g id="a_Node000022"><a xlink:title=" ">
<polygon fill="#e0e0e0" stroke="#999999" points="992.5,-184 888.5,-184 888.5,-165 992.5,-165 992.5,-184"/>
<text text-anchor="middle" x="940.5" y="-172" font-family="Helvetica,sans-Serif" font-size="10.00">QStaticStringData</text>
</a>
</g>
</g>
<!-- Node1&#45;&gt;Node22 -->
<g id="edge22_Node000001_Node000022" class="edge">
<title>Node1&#45;&gt;Node22</title>
<g id="a_edge22_Node000001_Node000022"><a xlink:title=" ">
<path fill="none" stroke="#63b8ff" d="M985.58,-219.75C977.72,-212.03 966.07,-200.6 956.58,-191.28"/>
<polygon fill="#63b8ff" stroke="#63b8ff" points="958.84,-188.6 949.25,-184.09 953.94,-193.59 958.84,-188.6"/>
</a>
</g>
</g>
<!-- Node23 -->
<g id="Node000023" class="node">
<title>Node23</title>
<g id="a_Node000023"><a xlink:title=" ">
<polygon fill="#e0e0e0" stroke="#999999" points="1086.5,-184 1010.5,-184 1010.5,-165 1086.5,-165 1086.5,-184"/>
<text text-anchor="middle" x="1048.5" y="-172" font-family="Helvetica,sans-Serif" font-size="10.00">QStringData</text>
</a>
</g>
</g>
<!-- Node1&#45;&gt;Node23 -->
<g id="edge23_Node000001_Node000023" class="edge">
<title>Node1&#45;&gt;Node23</title>
<g id="a_edge23_Node000001_Node000023"><a xlink:title=" ">
<path fill="none" stroke="#63b8ff" d="M1003.42,-219.75C1011.28,-212.03 1022.93,-200.6 1032.42,-191.28"/>
<polygon fill="#63b8ff" stroke="#63b8ff" points="1035.06,-193.59 1039.75,-184.09 1030.16,-188.6 1035.06,-193.59"/>
</a>
</g>
</g>
<!-- Node24 -->
<g id="Node000024" class="node">
<title>Node24</title>
<g id="a_Node000024"><a xlink:title=" ">
<polygon fill="#e0e0e0" stroke="#999999" points="1194,-184 1105,-184 1105,-165 1194,-165 1194,-184"/>
<text text-anchor="middle" x="1149.5" y="-172" font-family="Helvetica,sans-Serif" font-size="10.00">QStringDataPtr</text>
</a>
</g>
</g>
<!-- Node1&#45;&gt;Node24 -->
<g id="edge24_Node000001_Node000024" class="edge">
<title>Node1&#45;&gt;Node24</title>
<g id="a_edge24_Node000001_Node000024"><a xlink:title=" ">
<path fill="none" stroke="#63b8ff" d="M1019.4,-219.98C1045.2,-211.16 1085.72,-197.31 1114.68,-187.41"/>
<polygon fill="#63b8ff" stroke="#63b8ff" points="1116.07,-190.63 1124.4,-184.08 1113.81,-184.01 1116.07,-190.63"/>
</a>
</g>
</g>
<!-- Node25 -->
<g id="Node000025" class="node">
<title>Node25</title>
<g id="a_Node000025"><a xlink:title=" ">
<polygon fill="#e0e0e0" stroke="#999999" points="1271,-184 1212,-184 1212,-165 1271,-165 1271,-184"/>
<text text-anchor="middle" x="1241.5" y="-172" font-family="Helvetica,sans-Serif" font-size="10.00">QVariant</text>
</a>
</g>
</g>
<!-- Node1&#45;&gt;Node25 -->
<g id="edge25_Node000001_Node000025" class="edge">
<title>Node1&#45;&gt;Node25</title>
<g id="a_edge25_Node000001_Node000025"><a xlink:title=" ">
<path fill="none" stroke="#63b8ff" d="M1034.77,-219.93C1074.63,-211.44 1137.67,-197.98 1201.81,-184.14"/>
<polygon fill="#63b8ff" stroke="#63b8ff" points="1202.66,-187.54 1211.69,-182.01 1201.18,-180.7 1202.66,-187.54"/>
</a>
</g>
</g>
<!-- Node26 -->
<g id="Node000026" class="node">
<title>Node26</title>
<g id="a_Node000026"><a xlink:title=" ">
<polygon fill="#e0e0e0" stroke="#999999" points="1348,-184 1289,-184 1289,-165 1348,-165 1348,-184"/>
<text text-anchor="middle" x="1318.5" y="-172" font-family="Helvetica,sans-Serif" font-size="10.00">QtDebug</text>
</a>
</g>
</g>
<!-- Node1&#45;&gt;Node26 -->
<g id="edge26_Node000001_Node000026" class="edge">
<title>Node1&#45;&gt;Node26</title>
<g id="a_edge26_Node000001_Node000026"><a xlink:title=" ">
<path fill="none" stroke="#63b8ff" d="M1056.11,-219.96C1111.7,-212.02 1195.93,-199.36 1278.65,-184.06"/>
<polygon fill="#63b8ff" stroke="#63b8ff" points="1279.54,-187.45 1288.73,-182.18 1278.25,-180.57 1279.54,-187.45"/>
</a>
</g>
</g>
<!-- Node27 -->
<g id="Node000027" class="node">
<title>Node27</title>
<g id="a_Node000027"><a xlink:title=" ">
<polygon fill="#e0e0e0" stroke="#999999" points="1440.5,-184 1366.5,-184 1366.5,-165 1440.5,-165 1440.5,-184"/>
<text text-anchor="middle" x="1403.5" y="-172" font-family="Helvetica,sans-Serif" font-size="10.00">QTextCodec</text>
</a>
</g>
</g>
<!-- Node1&#45;&gt;Node27 -->
<g id="edge27_Node000001_Node000027" class="edge">
<title>Node1&#45;&gt;Node27</title>
<g id="a_edge27_Node000001_Node000027"><a xlink:title=" ">
<path fill="none" stroke="#63b8ff" d="M1074.48,-219.98C1145.65,-212.1 1252.83,-199.5 1356.33,-183.94"/>
<polygon fill="#63b8ff" stroke="#63b8ff" points="1356.97,-187.38 1366.33,-182.42 1355.92,-180.46 1356.97,-187.38"/>
</a>
</g>
</g>
<!-- Node28 -->
<g id="Node000028" class="node">
<title>Node28</title>
<g id="a_Node000028"><a xlink:href="../../d3/da5/ifcdef_8h.html" target="_top" xlink:title=" ">
<polygon fill="white" stroke="#666666" points="1536,-184 1459,-184 1459,-165 1536,-165 1536,-184"/>
<text text-anchor="middle" x="1497.5" y="-172" font-family="Helvetica,sans-Serif" font-size="10.00">../ifc/ifcdef.h</text>
</a>
</g>
</g>
<!-- Node1&#45;&gt;Node28 -->
<g id="edge28_Node000001_Node000028" class="edge">
<title>Node1&#45;&gt;Node28</title>
<g id="a_edge28_Node000001_Node000028"><a xlink:title=" ">
<path fill="none" stroke="#63b8ff" d="M1091.5,-221.21C1181.45,-213.95 1319.23,-201.54 1448.67,-184.01"/>
<polygon fill="#63b8ff" stroke="#63b8ff" points="1449.33,-187.45 1458.77,-182.63 1448.39,-180.51 1449.33,-187.45"/>
</a>
</g>
</g>
<!-- Node29 -->
<g id="Node000029" class="node">
<title>Node29</title>
<g id="a_Node000029"><a xlink:href="../../d4/da4/def_8h.html" target="_top" xlink:title=" ">
<polygon fill="white" stroke="#666666" points="1640.5,-129 1558.5,-129 1558.5,-110 1640.5,-110 1640.5,-129"/>
<text text-anchor="middle" x="1599.5" y="-117" font-family="Helvetica,sans-Serif" font-size="10.00">../vmisc/def.h</text>
</a>
</g>
</g>
<!-- Node1&#45;&gt;Node29 -->
<g id="edge47_Node000001_Node000029" class="edge">
<title>Node1&#45;&gt;Node29</title>
<g id="a_edge47_Node000001_Node000029"><a xlink:title=" ">
<path fill="none" stroke="#63b8ff" d="M1091.58,-225.7C1243.11,-220.62 1522.63,-208.09 1561.5,-184 1577.84,-173.87 1588.07,-153.88 1593.74,-139.02"/>
<polygon fill="#63b8ff" stroke="#63b8ff" points="1597.13,-139.92 1597.09,-129.32 1590.51,-137.63 1597.13,-139.92"/>
</a>
</g>
</g>
<!-- Node40 -->
<g id="Node000040" class="node">
<title>Node40</title>
<g id="a_Node000040"><a xlink:href="../../db/db3/vmath_8h.html" target="_top" xlink:title=" ">
<polygon fill="white" stroke="#666666" points="1732.5,-184 1634.5,-184 1634.5,-165 1732.5,-165 1732.5,-184"/>
<text text-anchor="middle" x="1683.5" y="-172" font-family="Helvetica,sans-Serif" font-size="10.00">../vmisc/vmath.h</text>
</a>
</g>
</g>
<!-- Node1&#45;&gt;Node40 -->
<g id="edge48_Node000001_Node000040" class="edge">
<title>Node1&#45;&gt;Node40</title>
<g id="a_edge48_Node000001_Node000040"><a xlink:title=" ">
<path fill="none" stroke="#63b8ff" d="M1091.6,-223.2C1214.11,-216.14 1431.2,-202.37 1616.5,-184 1619,-183.75 1621.55,-183.49 1624.13,-183.21"/>
<polygon fill="#63b8ff" stroke="#63b8ff" points="1624.6,-186.68 1634.14,-182.07 1623.81,-179.72 1624.6,-186.68"/>
</a>
</g>
</g>
<!-- Node42 -->
<g id="Node000042" class="node">
<title>Node42</title>
<g id="a_Node000042"><a xlink:href="../../d0/d32/pmsystems_8h.html" target="_top" xlink:title=" ">
<polygon fill="white" stroke="#666666" points="1540.5,-129 1392.5,-129 1392.5,-110 1540.5,-110 1540.5,-129"/>
<text text-anchor="middle" x="1466.5" y="-117" font-family="Helvetica,sans-Serif" font-size="10.00">../vpatterndb/pmsystems.h</text>
</a>
</g>
</g>
<!-- Node1&#45;&gt;Node42 -->
<g id="edge50_Node000001_Node000042" class="edge">
<title>Node1&#45;&gt;Node42</title>
<g id="a_edge50_Node000001_Node000042"><a xlink:title=" ">
<path fill="none" stroke="#63b8ff" d="M1091.8,-227.65C1241.8,-225.31 1515.44,-216.58 1545.5,-184 1564.1,-163.84 1530.76,-144.69 1501.83,-132.79"/>
<polygon fill="#63b8ff" stroke="#63b8ff" points="1502.86,-129.43 1492.28,-129.04 1500.31,-135.95 1502.86,-129.43"/>
</a>
</g>
</g>
<!-- Node3 -->
<g id="Node000003" class="node">
<title>Node3</title>
<g id="a_Node000003"><a xlink:title=" ">
<polygon fill="#e0e0e0" stroke="#999999" points="237,-129 164,-129 164,-110 237,-110 237,-129"/>
<text text-anchor="middle" x="200.5" y="-117" font-family="Helvetica,sans-Serif" font-size="10.00">QByteArray</text>
</a>
</g>
</g>
<!-- Node2&#45;&gt;Node3 -->
<g id="edge2_Node000002_Node000003" class="edge">
<title>Node2&#45;&gt;Node3</title>
<g id="a_edge2_Node000002_Node000003"><a xlink:title=" ">
<path fill="none" stroke="#63b8ff" d="M255.06,-164.98C245.35,-157.07 230.68,-145.11 219,-135.58"/>
<polygon fill="#63b8ff" stroke="#63b8ff" points="221.1,-132.78 211.13,-129.17 216.67,-138.2 221.1,-132.78"/>
</a>
</g>
</g>
<!-- Node4 -->
<g id="Node000004" class="node">
<title>Node4</title>
<g id="a_Node000004"><a xlink:title=" ">
<polygon fill="#e0e0e0" stroke="#999999" points="373.5,-129 293.5,-129 293.5,-110 373.5,-110 373.5,-129"/>
<text text-anchor="middle" x="333.5" y="-117" font-family="Helvetica,sans-Serif" font-size="10.00">QMetaObject</text>
</a>
</g>
</g>
<!-- Node2&#45;&gt;Node4 -->
<g id="edge3_Node000002_Node000004" class="edge">
<title>Node2&#45;&gt;Node4</title>
<g id="a_edge3_Node000002_Node000004"><a xlink:title=" ">
<path fill="none" stroke="#63b8ff" d="M276.43,-164.98C286.58,-157.07 301.92,-145.11 314.15,-135.58"/>
<polygon fill="#63b8ff" stroke="#63b8ff" points="316.64,-138.08 322.38,-129.17 312.34,-132.56 316.64,-138.08"/>
</a>
</g>
</g>
<!-- Node5 -->
<g id="Node000005" class="node">
<title>Node5</title>
<g id="a_Node000005"><a xlink:title=" ">
<polygon fill="#e0e0e0" stroke="#999999" points="447.5,-129 391.5,-129 391.5,-110 447.5,-110 447.5,-129"/>
<text text-anchor="middle" x="419.5" y="-117" font-family="Helvetica,sans-Serif" font-size="10.00">QObject</text>
</a>
</g>
</g>
<!-- Node2&#45;&gt;Node5 -->
<g id="edge4_Node000002_Node000005" class="edge">
<title>Node2&#45;&gt;Node5</title>
<g id="a_edge4_Node000002_Node000005"><a xlink:title=" ">
<path fill="none" stroke="#63b8ff" d="M290.24,-164.98C315.87,-156.16 356.13,-142.31 384.91,-132.41"/>
<polygon fill="#63b8ff" stroke="#63b8ff" points="386.25,-135.65 394.56,-129.08 383.97,-129.03 386.25,-135.65"/>
</a>
</g>
</g>
<!-- Node6 -->
<g id="Node000006" class="node">
<title>Node6</title>
<g id="a_Node000006"><a xlink:title=" ">
<polygon fill="#e0e0e0" stroke="#999999" points="529.5,-129 465.5,-129 465.5,-110 529.5,-110 529.5,-129"/>
<text text-anchor="middle" x="497.5" y="-117" font-family="Helvetica,sans-Serif" font-size="10.00">QSettings</text>
</a>
</g>
</g>
<!-- Node2&#45;&gt;Node6 -->
<g id="edge5_Node000002_Node000006" class="edge">
<title>Node2&#45;&gt;Node6</title>
<g id="a_edge5_Node000002_Node000006"><a xlink:title=" ">
<path fill="none" stroke="#63b8ff" d="M302.77,-164.98C344.4,-155.48 411.62,-140.12 455.19,-130.17"/>
<polygon fill="#63b8ff" stroke="#63b8ff" points="456.21,-133.52 465.18,-127.88 454.65,-126.7 456.21,-133.52"/>
</a>
</g>
</g>
<!-- Node7 -->
<g id="Node000007" class="node">
<title>Node7</title>
<g id="a_Node000007"><a xlink:title=" ">
<polygon fill="#e0e0e0" stroke="#999999" points="591.5,-129 547.5,-129 547.5,-110 591.5,-110 591.5,-129"/>
<text text-anchor="middle" x="569.5" y="-117" font-family="Helvetica,sans-Serif" font-size="10.00">QSize</text>
</a>
</g>
</g>
<!-- Node2&#45;&gt;Node7 -->
<g id="edge6_Node000002_Node000007" class="edge">
<title>Node2&#45;&gt;Node7</title>
<g id="a_edge6_Node000002_Node000007"><a xlink:title=" ">
<path fill="none" stroke="#63b8ff" d="M322.04,-166.07C375.2,-158.68 457.18,-146.26 536.99,-129.14"/>
<polygon fill="#63b8ff" stroke="#63b8ff" points="538.19,-132.46 547.22,-126.91 536.7,-125.62 538.19,-132.46"/>
</a>
</g>
</g>
<!-- Node8 -->
<g id="Node000008" class="node">
<title>Node8</title>
<g id="a_Node000008"><a xlink:title=" ">
<polygon fill="#e0e0e0" stroke="#999999" points="1311,-74 1258,-74 1258,-55 1311,-55 1311,-74"/>
<text text-anchor="middle" x="1284.5" y="-62" font-family="Helvetica,sans-Serif" font-size="10.00">QString</text>
</a>
</g>
</g>
<!-- Node2&#45;&gt;Node8 -->
<g id="edge7_Node000002_Node000008" class="edge">
<title>Node2&#45;&gt;Node8</title>
<g id="a_edge7_Node000002_Node000008"><a xlink:title=" ">
<path fill="none" stroke="#63b8ff" d="M322.21,-166C325.01,-165.65 327.79,-165.32 330.5,-165 687.62,-123.03 1121.02,-81.07 1247.95,-68.97"/>
<polygon fill="#63b8ff" stroke="#63b8ff" points="1248.29,-72.45 1257.92,-68.02 1247.63,-65.48 1248.29,-72.45"/>
</a>
</g>
</g>
<!-- Node9 -->
<g id="Node000009" class="node">
<title>Node9</title>
<g id="a_Node000009"><a xlink:title=" ">
<polygon fill="#e0e0e0" stroke="#999999" points="1399.5,-74 1329.5,-74 1329.5,-55 1399.5,-55 1399.5,-74"/>
<text text-anchor="middle" x="1364.5" y="-62" font-family="Helvetica,sans-Serif" font-size="10.00">QStringList</text>
</a>
</g>
</g>
<!-- Node2&#45;&gt;Node9 -->
<g id="edge8_Node000002_Node000009" class="edge">
<title>Node2&#45;&gt;Node9</title>
<g id="a_edge8_Node000002_Node000009"><a xlink:title=" ">
<path fill="none" stroke="#63b8ff" d="M322.19,-165.78C325,-165.49 327.78,-165.23 330.5,-165 538.36,-147.46 1069.93,-192.91 1268.5,-129 1299.23,-119.11 1329.41,-96.41 1347.49,-81.01"/>
<polygon fill="#63b8ff" stroke="#63b8ff" points="1350.14,-83.35 1355.35,-74.12 1345.52,-78.08 1350.14,-83.35"/>
</a>
</g>
</g>
<!-- Node10 -->
<g id="Node000010" class="node">
<title>Node10</title>
<g id="a_Node000010"><a xlink:title=" ">
<polygon fill="#e0e0e0" stroke="#999999" points="1106,-74 1047,-74 1047,-55 1106,-55 1106,-74"/>
<text text-anchor="middle" x="1076.5" y="-62" font-family="Helvetica,sans-Serif" font-size="10.00">QtGlobal</text>
</a>
</g>
</g>
<!-- Node2&#45;&gt;Node10 -->
<g id="edge9_Node000002_Node000010" class="edge">
<title>Node2&#45;&gt;Node10</title>
<g id="a_edge9_Node000002_Node000010"><a xlink:title=" ">
<path fill="none" stroke="#63b8ff" d="M265.22,-164.83C265.28,-150.77 267.7,-123.26 284.5,-110 343.82,-63.19 883.59,-63.93 1036.37,-65.1"/>
<polygon fill="#63b8ff" stroke="#63b8ff" points="1036.66,-68.6 1046.69,-65.18 1036.72,-61.6 1036.66,-68.6"/>
</a>
</g>
</g>
<!-- Node11 -->
<g id="Node000011" class="node">
<title>Node11</title>
<g id="a_Node000011"><a xlink:href="../../de/dec/vbank_8h.html" target="_top" xlink:title=" ">
<polygon fill="white" stroke="#666666" points="145.5,-129 41.5,-129 41.5,-110 145.5,-110 145.5,-129"/>
<text text-anchor="middle" x="93.5" y="-117" font-family="Helvetica,sans-Serif" font-size="10.00">../vlayout/vbank.h</text>
</a>
</g>
</g>
<!-- Node2&#45;&gt;Node11 -->
<g id="edge10_Node000002_Node000011" class="edge">
<title>Node2&#45;&gt;Node11</title>
<g id="a_edge10_Node000002_Node000011"><a xlink:title=" ">
<path fill="none" stroke="#63b8ff" d="M237.87,-164.98C208.99,-156.09 163.49,-142.07 131.3,-132.15"/>
<polygon fill="#63b8ff" stroke="#63b8ff" points="131.94,-128.68 121.35,-129.08 129.88,-135.37 131.94,-128.68"/>
</a>
</g>
</g>
<!-- Node11&#45;&gt;Node10 -->
<g id="edge14_Node000011_Node000010" class="edge">
<title>Node11&#45;&gt;Node10</title>
<g id="a_edge14_Node000011_Node000010"><a xlink:title=" ">
<path fill="none" stroke="#63b8ff" d="M145.71,-110.91C148.68,-110.58 151.63,-110.27 154.5,-110 495.15,-78.11 908.88,-68.46 1036.87,-66.14"/>
<polygon fill="#63b8ff" stroke="#63b8ff" points="1037.04,-69.63 1046.97,-65.96 1036.91,-62.63 1037.04,-69.63"/>
</a>
</g>
</g>
<!-- Node12 -->
<g id="Node000012" class="node">
<title>Node12</title>
<g id="a_Node000012"><a xlink:title=" ">
<polygon fill="#e0e0e0" stroke="#999999" points="49,-74 0,-74 0,-55 49,-55 49,-74"/>
<text text-anchor="middle" x="24.5" y="-62" font-family="Helvetica,sans-Serif" font-size="10.00">QHash</text>
</a>
</g>
</g>
<!-- Node11&#45;&gt;Node12 -->
<g id="edge11_Node000011_Node000012" class="edge">
<title>Node11&#45;&gt;Node12</title>
<g id="a_edge11_Node000011_Node000012"><a xlink:title=" ">
<path fill="none" stroke="#63b8ff" d="M82.41,-109.98C72.01,-102 56.24,-89.88 43.78,-80.31"/>
<polygon fill="#63b8ff" stroke="#63b8ff" points="45.85,-77.49 35.79,-74.17 41.59,-83.04 45.85,-77.49"/>
</a>
</g>
</g>
<!-- Node13 -->
<g id="Node000013" class="node">
<title>Node13</title>
<g id="a_Node000013"><a xlink:title=" ">
<polygon fill="#e0e0e0" stroke="#999999" points="119.5,-74 67.5,-74 67.5,-55 119.5,-55 119.5,-74"/>
<text text-anchor="middle" x="93.5" y="-62" font-family="Helvetica,sans-Serif" font-size="10.00">QRectF</text>
</a>
</g>
</g>
<!-- Node11&#45;&gt;Node13 -->
<g id="edge12_Node000011_Node000013" class="edge">
<title>Node11&#45;&gt;Node13</title>
<g id="a_edge12_Node000011_Node000013"><a xlink:title=" ">
<path fill="none" stroke="#63b8ff" d="M93.5,-109.75C93.5,-102.8 93.5,-92.85 93.5,-84.13"/>
<polygon fill="#63b8ff" stroke="#63b8ff" points="97,-84.09 93.5,-74.09 90,-84.09 97,-84.09"/>
</a>
</g>
</g>
<!-- Node14 -->
<g id="Node000014" class="node">
<title>Node14</title>
<g id="a_Node000014"><a xlink:title=" ">
<polygon fill="#e0e0e0" stroke="#999999" points="193,-74 138,-74 138,-55 193,-55 193,-74"/>
<text text-anchor="middle" x="165.5" y="-62" font-family="Helvetica,sans-Serif" font-size="10.00">QVector</text>
</a>
</g>
</g>
<!-- Node11&#45;&gt;Node14 -->
<g id="edge13_Node000011_Node000014" class="edge">
<title>Node11&#45;&gt;Node14</title>
<g id="a_edge13_Node000011_Node000014"><a xlink:title=" ">
<path fill="none" stroke="#63b8ff" d="M105.07,-109.98C115.92,-102 132.38,-89.88 145.38,-80.31"/>
<polygon fill="#63b8ff" stroke="#63b8ff" points="147.74,-82.92 153.72,-74.17 143.59,-77.28 147.74,-82.92"/>
</a>
</g>
</g>
<!-- Node28&#45;&gt;Node8 -->
<g id="edge29_Node000028_Node000008" class="edge">
<title>Node28&#45;&gt;Node8</title>
<g id="a_edge29_Node000028_Node000008"><a xlink:title=" ">
<path fill="none" stroke="#63b8ff" d="M1463.42,-164.92C1436.69,-157.46 1399.02,-145.27 1368.5,-129 1343.5,-115.67 1317.98,-95.21 1301.74,-81.13"/>
<polygon fill="#63b8ff" stroke="#63b8ff" points="1303.95,-78.42 1294.14,-74.43 1299.32,-83.67 1303.95,-78.42"/>
</a>
</g>
</g>
<!-- Node28&#45;&gt;Node9 -->
<g id="edge30_Node000028_Node000009" class="edge">
<title>Node28&#45;&gt;Node9</title>
<g id="a_edge30_Node000028_Node000009"><a xlink:title=" ">
<path fill="none" stroke="#63b8ff" d="M1458.75,-167.34C1434.03,-161.48 1403.08,-150.25 1383.5,-129 1372.29,-116.84 1367.68,-98.31 1365.79,-84.4"/>
<polygon fill="#63b8ff" stroke="#63b8ff" points="1369.23,-83.65 1364.76,-74.05 1362.27,-84.35 1369.23,-83.65"/>
</a>
</g>
</g>
<!-- Node28&#45;&gt;Node10 -->
<g id="edge31_Node000028_Node000010" class="edge">
<title>Node28&#45;&gt;Node10</title>
<g id="a_edge31_Node000028_Node000010"><a xlink:title=" ">
<path fill="none" stroke="#63b8ff" d="M1458.76,-166.43C1455.63,-165.92 1452.51,-165.44 1449.5,-165 1309.62,-144.67 1259.12,-193.82 1133.5,-129 1113.41,-118.64 1097.02,-98.07 1087.06,-83.14"/>
<polygon fill="#63b8ff" stroke="#63b8ff" points="1089.77,-80.89 1081.46,-74.31 1083.86,-84.63 1089.77,-80.89"/>
</a>
</g>
</g>
<!-- Node28&#45;&gt;Node29 -->
<g id="edge32_Node000028_Node000029" class="edge">
<title>Node28&#45;&gt;Node29</title>
<g id="a_edge32_Node000028_Node000029"><a xlink:title=" ">
<path fill="none" stroke="#63b8ff" d="M1513.89,-164.98C1530.07,-156.57 1555.07,-143.59 1573.88,-133.81"/>
<polygon fill="#63b8ff" stroke="#63b8ff" points="1575.55,-136.89 1582.81,-129.17 1572.33,-130.68 1575.55,-136.89"/>
</a>
</g>
</g>
<!-- Node39 -->
<g id="Node000039" class="node">
<title>Node39</title>
<g id="a_Node000039"><a xlink:href="../../d6/dcd/diagnostic_8h.html" target="_top" xlink:title=" ">
<polygon fill="white" stroke="#666666" points="1260,-129 1143,-129 1143,-110 1260,-110 1260,-129"/>
<text text-anchor="middle" x="1201.5" y="-117" font-family="Helvetica,sans-Serif" font-size="10.00">../vmisc/diagnostic.h</text>
</a>
</g>
</g>
<!-- Node28&#45;&gt;Node39 -->
<g id="edge45_Node000028_Node000039" class="edge">
<title>Node28&#45;&gt;Node39</title>
<g id="a_edge45_Node000028_Node000039"><a xlink:title=" ">
<path fill="none" stroke="#63b8ff" d="M1458.8,-166.57C1407.84,-157.45 1317.82,-141.33 1258.91,-130.78"/>
<polygon fill="#63b8ff" stroke="#63b8ff" points="1259.48,-127.33 1249.02,-129.01 1258.24,-134.22 1259.48,-127.33"/>
</a>
</g>
</g>
<!-- Node29&#45;&gt;Node8 -->
<g id="edge36_Node000029_Node000008" class="edge">
<title>Node29&#45;&gt;Node8</title>
<g id="a_edge36_Node000029_Node000008"><a xlink:title=" ">
<path fill="none" stroke="#63b8ff" d="M1558.31,-111.46C1555.33,-110.96 1552.37,-110.47 1549.5,-110 1451,-93.89 1423.31,-93.84 1321.3,-74.02"/>
<polygon fill="#63b8ff" stroke="#63b8ff" points="1321.67,-70.53 1311.19,-72.04 1320.33,-77.4 1321.67,-70.53"/>
</a>
</g>
</g>
<!-- Node29&#45;&gt;Node9 -->
<g id="edge37_Node000029_Node000009" class="edge">
<title>Node29&#45;&gt;Node9</title>
<g id="a_edge37_Node000029_Node000009"><a xlink:title=" ">
<path fill="none" stroke="#63b8ff" d="M1561.74,-109.98C1520.34,-100.65 1453.91,-85.67 1409.75,-75.71"/>
<polygon fill="#63b8ff" stroke="#63b8ff" points="1410.38,-72.26 1399.86,-73.47 1408.84,-79.09 1410.38,-72.26"/>
</a>
</g>
</g>
<!-- Node29&#45;&gt;Node10 -->
<g id="edge39_Node000029_Node000010" class="edge">
<title>Node29&#45;&gt;Node10</title>
<g id="a_edge39_Node000029_Node000010"><a xlink:title=" ">
<path fill="none" stroke="#63b8ff" d="M1558.34,-111.25C1555.35,-110.8 1552.38,-110.38 1549.5,-110 1389.66,-88.92 1198.14,-74.09 1116.51,-68.25"/>
<polygon fill="#63b8ff" stroke="#63b8ff" points="1116.42,-64.74 1106.2,-67.52 1115.92,-71.72 1116.42,-64.74"/>
</a>
</g>
</g>
<!-- Node30 -->
<g id="Node000030" class="node">
<title>Node30</title>
<g id="a_Node000030"><a xlink:title=" ">
<polygon fill="#e0e0e0" stroke="#999999" points="1977.5,-74 1857.5,-74 1857.5,-55 1977.5,-55 1977.5,-74"/>
<text text-anchor="middle" x="1917.5" y="-62" font-family="Helvetica,sans-Serif" font-size="10.00">qcompilerdetection.h</text>
</a>
</g>
</g>
<!-- Node29&#45;&gt;Node30 -->
<g id="edge33_Node000029_Node000030" class="edge">
<title>Node29&#45;&gt;Node30</title>
<g id="a_edge33_Node000029_Node000030"><a xlink:title=" ">
<path fill="none" stroke="#63b8ff" d="M1640.75,-111.63C1695.62,-102.48 1793.07,-86.24 1856.47,-75.67"/>
<polygon fill="#63b8ff" stroke="#63b8ff" points="1857.05,-79.12 1866.34,-74.03 1855.9,-72.22 1857.05,-79.12"/>
</a>
</g>
</g>
<!-- Node31 -->
<g id="Node000031" class="node">
<title>Node31</title>
<g id="a_Node000031"><a xlink:title=" ">
<polygon fill="#e0e0e0" stroke="#999999" points="2069,-74 1996,-74 1996,-55 2069,-55 2069,-74"/>
<text text-anchor="middle" x="2032.5" y="-62" font-family="Helvetica,sans-Serif" font-size="10.00">QFileDialog</text>
</a>
</g>
</g>
<!-- Node29&#45;&gt;Node31 -->
<g id="edge34_Node000029_Node000031" class="edge">
<title>Node29&#45;&gt;Node31</title>
<g id="a_edge34_Node000029_Node000031"><a xlink:title=" ">
<path fill="none" stroke="#63b8ff" d="M1640.66,-111.43C1643.99,-110.92 1647.3,-110.44 1650.5,-110 1796.11,-90.08 1836.17,-95.41 1985.86,-73.98"/>
<polygon fill="#63b8ff" stroke="#63b8ff" points="1986.49,-77.42 1995.88,-72.53 1985.48,-70.5 1986.49,-77.42"/>
</a>
</g>
</g>
<!-- Node32 -->
<g id="Node000032" class="node">
<title>Node32</title>
<g id="a_Node000032"><a xlink:title=" ">
<polygon fill="#e0e0e0" stroke="#999999" points="1467.5,-74 1417.5,-74 1417.5,-55 1467.5,-55 1467.5,-74"/>
<text text-anchor="middle" x="1442.5" y="-62" font-family="Helvetica,sans-Serif" font-size="10.00">QLineF</text>
</a>
</g>
</g>
<!-- Node29&#45;&gt;Node32 -->
<g id="edge35_Node000029_Node000032" class="edge">
<title>Node29&#45;&gt;Node32</title>
<g id="a_edge35_Node000029_Node000032"><a xlink:title=" ">
<path fill="none" stroke="#63b8ff" d="M1574.28,-109.98C1548.07,-101.14 1506.86,-87.23 1477.51,-77.32"/>
<polygon fill="#63b8ff" stroke="#63b8ff" points="1478.26,-73.88 1467.66,-73.99 1476.02,-80.51 1478.26,-73.88"/>
</a>
</g>
</g>
<!-- Node33 -->
<g id="Node000033" class="node">
<title>Node33</title>
<g id="a_Node000033"><a xlink:title=" ">
<polygon fill="#e0e0e0" stroke="#999999" points="1515,-74 1486,-74 1486,-55 1515,-55 1515,-74"/>
<text text-anchor="middle" x="1500.5" y="-62" font-family="Helvetica,sans-Serif" font-size="10.00">Qt</text>
</a>
</g>
</g>
<!-- Node29&#45;&gt;Node33 -->
<g id="edge38_Node000029_Node000033" class="edge">
<title>Node29&#45;&gt;Node33</title>
<g id="a_edge38_Node000029_Node000033"><a xlink:title=" ">
<path fill="none" stroke="#63b8ff" d="M1583.59,-109.98C1567.49,-101.36 1542.4,-87.93 1524,-78.08"/>
<polygon fill="#63b8ff" stroke="#63b8ff" points="1525.54,-74.94 1515.08,-73.3 1522.24,-81.11 1525.54,-74.94"/>
</a>
</g>
</g>
<!-- Node34 -->
<g id="Node000034" class="node">
<title>Node34</title>
<g id="a_Node000034"><a xlink:title=" ">
<polygon fill="#e0e0e0" stroke="#999999" points="1589.5,-74 1533.5,-74 1533.5,-55 1589.5,-55 1589.5,-74"/>
<text text-anchor="middle" x="1561.5" y="-62" font-family="Helvetica,sans-Serif" font-size="10.00">QPrinter</text>
</a>
</g>
</g>
<!-- Node29&#45;&gt;Node34 -->
<g id="edge40_Node000029_Node000034" class="edge">
<title>Node29&#45;&gt;Node34</title>
<g id="a_edge40_Node000029_Node000034"><a xlink:title=" ">
<path fill="none" stroke="#63b8ff" d="M1593.23,-109.75C1587.91,-102.34 1580.14,-91.5 1573.62,-82.41"/>
<polygon fill="#63b8ff" stroke="#63b8ff" points="1576.33,-80.18 1567.66,-74.09 1570.64,-84.26 1576.33,-80.18"/>
</a>
</g>
</g>
<!-- Node35 -->
<g id="Node000035" class="node">
<title>Node35</title>
<g id="a_Node000035"><a xlink:title=" ">
<polygon fill="#e0e0e0" stroke="#999999" points="1669,-74 1608,-74 1608,-55 1669,-55 1669,-74"/>
<text text-anchor="middle" x="1638.5" y="-62" font-family="Helvetica,sans-Serif" font-size="10.00">QPixmap</text>
</a>
</g>
</g>
<!-- Node29&#45;&gt;Node35 -->
<g id="edge41_Node000029_Node000035" class="edge">
<title>Node29&#45;&gt;Node35</title>
<g id="a_edge41_Node000029_Node000035"><a xlink:title=" ">
<path fill="none" stroke="#63b8ff" d="M1605.94,-109.75C1611.39,-102.34 1619.36,-91.5 1626.06,-82.41"/>
<polygon fill="#63b8ff" stroke="#63b8ff" points="1629.07,-84.22 1632.18,-74.09 1623.43,-80.07 1629.07,-84.22"/>
</a>
</g>
</g>
<!-- Node36 -->
<g id="Node000036" class="node">
<title>Node36</title>
<g id="a_Node000036"><a xlink:title=" ">
<polygon fill="#e0e0e0" stroke="#999999" points="1738,-74 1687,-74 1687,-55 1738,-55 1738,-74"/>
<text text-anchor="middle" x="1712.5" y="-62" font-family="Helvetica,sans-Serif" font-size="10.00">csignal</text>
</a>
</g>
</g>
<!-- Node29&#45;&gt;Node36 -->
<g id="edge42_Node000029_Node000036" class="edge">
<title>Node29&#45;&gt;Node36</title>
<g id="a_edge42_Node000029_Node000036"><a xlink:title=" ">
<path fill="none" stroke="#63b8ff" d="M1617.66,-109.98C1635.75,-101.5 1663.78,-88.35 1684.69,-78.54"/>
<polygon fill="#63b8ff" stroke="#63b8ff" points="1686.45,-81.59 1694.01,-74.17 1683.47,-75.25 1686.45,-81.59"/>
</a>
</g>
</g>
<!-- Node37 -->
<g id="Node000037" class="node">
<title>Node37</title>
<g id="a_Node000037"><a xlink:href="../../d4/d82/debugbreak_8h.html" target="_top" xlink:title=" ">
<polygon fill="white" stroke="#666666" points="1839,-74 1756,-74 1756,-55 1839,-55 1839,-74"/>
<text text-anchor="middle" x="1797.5" y="-62" font-family="Helvetica,sans-Serif" font-size="10.00">debugbreak.h</text>
</a>
</g>
</g>
<!-- Node29&#45;&gt;Node37 -->
<g id="edge43_Node000029_Node000037" class="edge">
<title>Node29&#45;&gt;Node37</title>
<g id="a_edge43_Node000029_Node000037"><a xlink:title=" ">
<path fill="none" stroke="#63b8ff" d="M1631.31,-109.98C1664.99,-100.97 1718.3,-86.7 1755.42,-76.76"/>
<polygon fill="#63b8ff" stroke="#63b8ff" points="1756.68,-80.05 1765.44,-74.08 1754.87,-73.29 1756.68,-80.05"/>
</a>
</g>
</g>
<!-- Node38 -->
<g id="Node000038" class="node">
<title>Node38</title>
<g id="a_Node000038"><a xlink:title=" ">
<polygon fill="#e0e0e0" stroke="#999999" points="1825,-19 1770,-19 1770,0 1825,0 1825,-19"/>
<text text-anchor="middle" x="1797.5" y="-7" font-family="Helvetica,sans-Serif" font-size="10.00">signal.h</text>
</a>
</g>
</g>
<!-- Node37&#45;&gt;Node38 -->
<g id="edge44_Node000037_Node000038" class="edge">
<title>Node37&#45;&gt;Node38</title>
<g id="a_edge44_Node000037_Node000038"><a xlink:title=" ">
<path fill="none" stroke="#63b8ff" d="M1797.5,-54.75C1797.5,-47.8 1797.5,-37.85 1797.5,-29.13"/>
<polygon fill="#63b8ff" stroke="#63b8ff" points="1801,-29.09 1797.5,-19.09 1794,-29.09 1801,-29.09"/>
</a>
</g>
</g>
<!-- Node39&#45;&gt;Node10 -->
<g id="edge46_Node000039_Node000010" class="edge">
<title>Node39&#45;&gt;Node10</title>
<g id="a_edge46_Node000039_Node000010"><a xlink:title=" ">
<path fill="none" stroke="#63b8ff" d="M1181.42,-109.98C1161.13,-101.38 1129.54,-87.99 1106.33,-78.15"/>
<polygon fill="#63b8ff" stroke="#63b8ff" points="1107.52,-74.85 1096.95,-74.17 1104.79,-81.3 1107.52,-74.85"/>
</a>
</g>
</g>
<!-- Node41 -->
<g id="Node000041" class="node">
<title>Node41</title>
<g id="a_Node000041"><a xlink:title=" ">
<polygon fill="#e0e0e0" stroke="#999999" points="1712,-129 1659,-129 1659,-110 1712,-110 1712,-129"/>
<text text-anchor="middle" x="1685.5" y="-117" font-family="Helvetica,sans-Serif" font-size="10.00">QtMath</text>
</a>
</g>
</g>
<!-- Node40&#45;&gt;Node41 -->
<g id="edge49_Node000040_Node000041" class="edge">
<title>Node40&#45;&gt;Node41</title>
<g id="a_edge49_Node000040_Node000041"><a xlink:title=" ">
<path fill="none" stroke="#63b8ff" d="M1683.83,-164.75C1684.09,-157.8 1684.47,-147.85 1684.8,-139.13"/>
<polygon fill="#63b8ff" stroke="#63b8ff" points="1688.3,-139.21 1685.18,-129.09 1681.3,-138.95 1688.3,-139.21"/>
</a>
</g>
</g>
<!-- Node42&#45;&gt;Node9 -->
<g id="edge51_Node000042_Node000009" class="edge">
<title>Node42&#45;&gt;Node9</title>
<g id="a_edge51_Node000042_Node000009"><a xlink:title=" ">
<path fill="none" stroke="#63b8ff" d="M1450.11,-109.98C1433.93,-101.57 1408.93,-88.59 1390.12,-78.81"/>
<polygon fill="#63b8ff" stroke="#63b8ff" points="1391.67,-75.68 1381.19,-74.17 1388.45,-81.89 1391.67,-75.68"/>
</a>
</g>
</g>
</g>
</svg>

<g id="navigator" transform="translate(0 0)" fill="#404254">
  <rect fill="#f2f5e9" fill-opacity="0.5" stroke="#606060" stroke-width=".5" x="0" y="0" width="60" height="60"/>
  <use id="zoomplus" xlink:href="#zoomPlus" x="17" y="9" onmousedown="handleZoom(evt,'in')"/>
  <use id="zoomminus" xlink:href="#zoomMin" x="42" y="9" onmousedown="handleZoom(evt,'out')"/>
  <use id="reset" xlink:href="#resetDef" x="30" y="36" onmousedown="handleReset()"/>
   <use id="arrowup" xlink:href="#arrowUp" x="0" y="0" onmousedown="handlePan(0,-1)"/>
  <use id="arrowright" xlink:href="#arrowRight" x="0" y="0" onmousedown="handlePan(1,0)"/>
  <use id="arrowdown" xlink:href="#arrowDown" x="0" y="0" onmousedown="handlePan(0,1)"/>
  <use id="arrowleft" xlink:href="#arrowLeft" x="0" y="0" onmousedown="handlePan(-1,0)"/>
</g>
<svg viewBox="0 0 15 15" width="100%" height="30px" preserveAspectRatio="xMaxYMin meet">
 <g id="arrow_out" transform="scale(0.3 0.3)">
  <a xlink:href="vcommonsettings_8cpp__incl_org.svg" target="_base">
   <rect id="button" ry="5" rx="5" y="6" x="6" height="38" width="38"
        fill="#f2f5e9" fill-opacity="0.5" stroke="#606060" stroke-width="1.0"/>
   <path id="arrow"
     d="M 11.500037,31.436501 C 11.940474,20.09759 22.043105,11.32322 32.158766,21.979434 L 37.068811,17.246167 C 37.068811,17.246167 37.088388,32 37.088388,32 L 22.160133,31.978069 C 22.160133,31.978069 26.997745,27.140456 26.997745,27.140456 C 18.528582,18.264221 13.291696,25.230495 11.500037,31.436501 z"
     style="fill:#404040;"/>
  </a>
 </g>
</svg>

<style type='text/css'>
<![CDATA[
[data-mouse-over-selected='false'] { opacity: 0.7; }
[data-mouse-over-selected='true']  { opacity: 1.0; }
]]>
</style>
<script type="application/ecmascript"><![CDATA[
document.addEventListener('DOMContentLoaded', (event) => {
  highlightEdges();
  highlightAdjacentNodes();
});
]]></script>
</svg>
