<?xml version="1.0" encoding="UTF-8" standalone="no"?>
<!DOCTYPE svg PUBLIC "-//W3C//DTD SVG 1.1//EN"
 "http://www.w3.org/Graphics/SVG/1.1/DTD/svg11.dtd">
<!-- Generated by graphviz version 2.43.0 (0)
 -->
<!-- Title: src/libs/vpatterndb/variables/vcurveangle.h Pages: 1 -->
<svg width="6479pt" height="374pt"
 viewBox="0.00 0.00 6479.39 374.00" xmlns="http://www.w3.org/2000/svg" xmlns:xlink="http://www.w3.org/1999/xlink">
<g id="graph0" class="graph" transform="scale(1 1) rotate(0) translate(4 370)">
<title>src/libs/vpatterndb/variables/vcurveangle.h</title>
<polygon fill="white" stroke="transparent" points="-4,4 -4,-370 6475.39,-370 6475.39,4 -4,4"/>
<!-- Node1 -->
<g id="node1" class="node">
<title>Node1</title>
<g id="a_node1"><a xlink:title=" ">
<polygon fill="#bfbfbf" stroke="black" points="5865.5,-335.5 5865.5,-365.5 6002.5,-365.5 6002.5,-335.5 5865.5,-335.5"/>
<text text-anchor="start" x="5873.5" y="-353.5" font-family="Helvetica,sans-Serif" font-size="10.00">src/libs/vpatterndb</text>
<text text-anchor="middle" x="5934" y="-342.5" font-family="Helvetica,sans-Serif" font-size="10.00">/variables/vcurveangle.h</text>
</a>
</g>
</g>
<!-- Node2 -->
<g id="node2" class="node">
<title>Node2</title>
<g id="a_node2"><a xlink:href="../../df/db3/vcurveangle_8cpp.html" target="_top" xlink:title=" ">
<polygon fill="white" stroke="black" points="5714,-268.5 5714,-298.5 5862,-298.5 5862,-268.5 5714,-268.5"/>
<text text-anchor="start" x="5722" y="-286.5" font-family="Helvetica,sans-Serif" font-size="10.00">src/libs/vpatterndb</text>
<text text-anchor="middle" x="5788" y="-275.5" font-family="Helvetica,sans-Serif" font-size="10.00">/variables/vcurveangle.cpp</text>
</a>
</g>
</g>
<!-- Node1&#45;&gt;Node2 -->
<g id="edge1" class="edge">
<title>Node1&#45;&gt;Node2</title>
<path fill="none" stroke="midnightblue" d="M5893.05,-331.27C5869.8,-320.92 5841.13,-308.15 5819.62,-298.58"/>
<polygon fill="midnightblue" stroke="midnightblue" points="5891.76,-334.53 5902.32,-335.4 5894.61,-328.13 5891.76,-334.53"/>
</g>
<!-- Node3 -->
<g id="node3" class="node">
<title>Node3</title>
<g id="a_node3"><a xlink:href="../../de/dca/variables_8h.html" target="_top" xlink:title=" ">
<polygon fill="white" stroke="black" points="5880.5,-268.5 5880.5,-298.5 5987.5,-298.5 5987.5,-268.5 5880.5,-268.5"/>
<text text-anchor="start" x="5888.5" y="-286.5" font-family="Helvetica,sans-Serif" font-size="10.00">src/libs/vpatterndb</text>
<text text-anchor="middle" x="5934" y="-275.5" font-family="Helvetica,sans-Serif" font-size="10.00">/variables.h</text>
</a>
</g>
</g>
<!-- Node1&#45;&gt;Node3 -->
<g id="edge2" class="edge">
<title>Node1&#45;&gt;Node3</title>
<path fill="none" stroke="midnightblue" d="M5934,-325.11C5934,-316.15 5934,-306.32 5934,-298.58"/>
<polygon fill="midnightblue" stroke="midnightblue" points="5930.5,-325.4 5934,-335.4 5937.5,-325.4 5930.5,-325.4"/>
</g>
<!-- Node36 -->
<g id="node31" class="node">
<title>Node36</title>
<g id="a_node31"><a xlink:href="../../d6/d46/vcontainer_8cpp.html" target="_top" xlink:title=" ">
<polygon fill="white" stroke="black" points="5589.5,-67.5 5589.5,-97.5 5696.5,-97.5 5696.5,-67.5 5589.5,-67.5"/>
<text text-anchor="start" x="5597.5" y="-85.5" font-family="Helvetica,sans-Serif" font-size="10.00">src/libs/vpatterndb</text>
<text text-anchor="middle" x="5643" y="-74.5" font-family="Helvetica,sans-Serif" font-size="10.00">/vcontainer.cpp</text>
</a>
</g>
</g>
<!-- Node1&#45;&gt;Node36 -->
<g id="edge60" class="edge">
<title>Node1&#45;&gt;Node36</title>
<path fill="none" stroke="midnightblue" d="M6012.83,-343.44C6186.44,-327.37 6576.25,-274.85 6444,-134 6418.4,-106.73 5872.09,-89.68 5696.69,-84.89"/>
<polygon fill="midnightblue" stroke="midnightblue" points="6012.36,-339.96 6002.72,-344.35 6012.99,-346.94 6012.36,-339.96"/>
</g>
<!-- Node4 -->
<g id="node4" class="node">
<title>Node4</title>
<g id="a_node4"><a xlink:href="../../d3/df7/vcontainer_8h.html" target="_top" xlink:title=" ">
<polygon fill="white" stroke="black" points="5434.5,-201.5 5434.5,-231.5 5541.5,-231.5 5541.5,-201.5 5434.5,-201.5"/>
<text text-anchor="start" x="5442.5" y="-219.5" font-family="Helvetica,sans-Serif" font-size="10.00">src/libs/vpatterndb</text>
<text text-anchor="middle" x="5488" y="-208.5" font-family="Helvetica,sans-Serif" font-size="10.00">/vcontainer.h</text>
</a>
</g>
</g>
<!-- Node3&#45;&gt;Node4 -->
<g id="edge3" class="edge">
<title>Node3&#45;&gt;Node4</title>
<path fill="none" stroke="midnightblue" d="M5870.44,-268.01C5746.93,-246.06 5613.85,-230.63 5541.53,-222.93"/>
<polygon fill="midnightblue" stroke="midnightblue" points="5869.99,-271.49 5880.46,-269.81 5871.23,-264.6 5869.99,-271.49"/>
</g>
<!-- Node5 -->
<g id="node5" class="node">
<title>Node5</title>
<g id="a_node5"><a xlink:href="../../d4/dd6/vmeasurements_8h.html" target="_top" xlink:title=" ">
<polygon fill="white" stroke="black" points="180.5,-140 180.5,-159 365.5,-159 365.5,-140 180.5,-140"/>
<text text-anchor="middle" x="273" y="-147" font-family="Helvetica,sans-Serif" font-size="10.00">src/libs/vformat/vmeasurements.h</text>
</a>
</g>
</g>
<!-- Node4&#45;&gt;Node5 -->
<g id="edge4" class="edge">
<title>Node4&#45;&gt;Node5</title>
<path fill="none" stroke="midnightblue" d="M5424.21,-215.33C5009.24,-214.15 2649.98,-205.82 728,-165 602.56,-162.34 457.73,-157.4 365.79,-154.03"/>
<polygon fill="midnightblue" stroke="midnightblue" points="5424.21,-218.83 5434.22,-215.36 5424.23,-211.83 5424.21,-218.83"/>
</g>
<!-- Node6 -->
<g id="node6" class="node">
<title>Node6</title>
<g id="a_node6"><a xlink:href="../../de/db3/vmeasurements_8cpp.html" target="_top" xlink:title=" ">
<polygon fill="white" stroke="black" points="0,-73 0,-92 196,-92 196,-73 0,-73"/>
<text text-anchor="middle" x="98" y="-80" font-family="Helvetica,sans-Serif" font-size="10.00">src/libs/vformat/vmeasurements.cpp</text>
</a>
</g>
</g>
<!-- Node4&#45;&gt;Node6 -->
<g id="edge6" class="edge">
<title>Node4&#45;&gt;Node6</title>
<path fill="none" stroke="midnightblue" d="M5424.19,-215.5C4942.06,-215.39 1865.37,-212.78 935,-165 609.62,-148.29 528.73,-134.77 205,-98 189.54,-96.24 172.86,-94.1 157.37,-92.01"/>
<polygon fill="midnightblue" stroke="midnightblue" points="5424.44,-219 5434.44,-215.5 5424.44,-212 5424.44,-219"/>
</g>
<!-- Node7 -->
<g id="node7" class="node">
<title>Node7</title>
<g id="a_node7"><a xlink:href="../../d6/de0/vlayoutpiece_8h.html" target="_top" xlink:title=" ">
<polygon fill="white" stroke="black" points="944,-140 944,-159 1110,-159 1110,-140 944,-140"/>
<text text-anchor="middle" x="1027" y="-147" font-family="Helvetica,sans-Serif" font-size="10.00">src/libs/vlayout/vlayoutpiece.h</text>
</a>
</g>
</g>
<!-- Node4&#45;&gt;Node7 -->
<g id="edge7" class="edge">
<title>Node4&#45;&gt;Node7</title>
<path fill="none" stroke="midnightblue" d="M5424.18,-214.57C4926.68,-207.32 1673.91,-159.93 1110.19,-151.71"/>
<polygon fill="midnightblue" stroke="midnightblue" points="5424.35,-218.07 5434.4,-214.72 5424.45,-211.07 5424.35,-218.07"/>
</g>
<!-- Node17 -->
<g id="node16" class="node">
<title>Node17</title>
<g id="a_node16"><a xlink:href="../../d8/d70/vtextmanager_8cpp.html" target="_top" xlink:title=" ">
<polygon fill="white" stroke="black" points="1535,-73 1535,-92 1717,-92 1717,-73 1535,-73"/>
<text text-anchor="middle" x="1626" y="-80" font-family="Helvetica,sans-Serif" font-size="10.00">src/libs/vlayout/vtextmanager.cpp</text>
</a>
</g>
</g>
<!-- Node4&#45;&gt;Node17 -->
<g id="edge18" class="edge">
<title>Node4&#45;&gt;Node17</title>
<path fill="none" stroke="midnightblue" d="M5424.1,-214.57C4991.51,-208.13 2485.99,-168.26 1726,-98 1710.19,-96.54 1693.06,-94.3 1677.52,-92.01"/>
<polygon fill="midnightblue" stroke="midnightblue" points="5424.18,-218.07 5434.23,-214.72 5424.28,-211.07 5424.18,-218.07"/>
</g>
<!-- Node18 -->
<g id="node17" class="node">
<title>Node18</title>
<g id="a_node17"><a xlink:href="../../d5/d74/vabstractapplication_8h.html" target="_top" xlink:title=" ">
<polygon fill="white" stroke="red" points="3394.5,-140 3394.5,-159 3589.5,-159 3589.5,-140 3394.5,-140"/>
<text text-anchor="middle" x="3492" y="-147" font-family="Helvetica,sans-Serif" font-size="10.00">src/libs/vmisc/vabstractapplication.h</text>
</a>
</g>
</g>
<!-- Node4&#45;&gt;Node18 -->
<g id="edge19" class="edge">
<title>Node4&#45;&gt;Node18</title>
<path fill="none" stroke="midnightblue" d="M5424.02,-213.42C5133.91,-203.97 3941.09,-165.12 3589.78,-153.68"/>
<polygon fill="midnightblue" stroke="midnightblue" points="5424.25,-216.93 5434.35,-213.75 5424.47,-209.93 5424.25,-216.93"/>
</g>
<!-- Node4&#45;&gt;Node36 -->
<g id="edge52" class="edge">
<title>Node4&#45;&gt;Node36</title>
<path fill="none" stroke="midnightblue" d="M5482.87,-191.39C5480.56,-173.72 5480.65,-150.12 5493,-134 5499.37,-125.68 5551.38,-109.35 5592.39,-97.51"/>
<polygon fill="midnightblue" stroke="midnightblue" points="5479.46,-192.19 5484.53,-201.49 5486.36,-191.06 5479.46,-192.19"/>
</g>
<!-- Node37 -->
<g id="node32" class="node">
<title>Node37</title>
<g id="a_node32"><a xlink:href="../../db/d11/vformula_8cpp.html" target="_top" xlink:title=" ">
<polygon fill="white" stroke="black" points="5339.5,-67.5 5339.5,-97.5 5446.5,-97.5 5446.5,-67.5 5339.5,-67.5"/>
<text text-anchor="start" x="5347.5" y="-85.5" font-family="Helvetica,sans-Serif" font-size="10.00">src/libs/vpatterndb</text>
<text text-anchor="middle" x="5393" y="-74.5" font-family="Helvetica,sans-Serif" font-size="10.00">/vformula.cpp</text>
</a>
</g>
</g>
<!-- Node4&#45;&gt;Node37 -->
<g id="edge53" class="edge">
<title>Node4&#45;&gt;Node37</title>
<path fill="none" stroke="midnightblue" d="M5469.82,-193.3C5462.85,-184.59 5454.91,-174.44 5448,-165 5431.06,-141.86 5412.67,-113.99 5402.03,-97.57"/>
<polygon fill="midnightblue" stroke="midnightblue" points="5467.14,-195.56 5476.15,-201.14 5472.59,-191.16 5467.14,-195.56"/>
</g>
<!-- Node38 -->
<g id="node33" class="node">
<title>Node38</title>
<g id="a_node33"><a xlink:href="../../df/d7a/vpiece_8cpp.html" target="_top" xlink:title=" ">
<polygon fill="white" stroke="black" points="5464.5,-67.5 5464.5,-97.5 5571.5,-97.5 5571.5,-67.5 5464.5,-67.5"/>
<text text-anchor="start" x="5472.5" y="-85.5" font-family="Helvetica,sans-Serif" font-size="10.00">src/libs/vpatterndb</text>
<text text-anchor="middle" x="5518" y="-74.5" font-family="Helvetica,sans-Serif" font-size="10.00">/vpiece.cpp</text>
</a>
</g>
</g>
<!-- Node4&#45;&gt;Node38 -->
<g id="edge55" class="edge">
<title>Node4&#45;&gt;Node38</title>
<path fill="none" stroke="midnightblue" d="M5468.88,-193.4C5456.97,-176.82 5445.55,-153.69 5455,-134 5462.46,-118.46 5477.3,-106.19 5490.7,-97.64"/>
<polygon fill="midnightblue" stroke="midnightblue" points="5466.18,-195.63 5475.05,-201.43 5471.73,-191.36 5466.18,-195.63"/>
</g>
<!-- Node40 -->
<g id="node35" class="node">
<title>Node40</title>
<g id="a_node35"><a xlink:href="../../d8/dba/vpiecenode_8cpp.html" target="_top" xlink:title=" ">
<polygon fill="white" stroke="black" points="4617.5,-0.5 4617.5,-30.5 4724.5,-30.5 4724.5,-0.5 4617.5,-0.5"/>
<text text-anchor="start" x="4625.5" y="-18.5" font-family="Helvetica,sans-Serif" font-size="10.00">src/libs/vpatterndb</text>
<text text-anchor="middle" x="4671" y="-7.5" font-family="Helvetica,sans-Serif" font-size="10.00">/vpiecenode.cpp</text>
</a>
</g>
</g>
<!-- Node4&#45;&gt;Node40 -->
<g id="edge56" class="edge">
<title>Node4&#45;&gt;Node40</title>
<path fill="none" stroke="midnightblue" d="M5492.99,-191.46C5498.11,-172.95 5507.97,-148.19 5526,-134 5592.77,-81.48 5763.58,-128.51 5705,-67 5670.91,-31.21 4931.78,-19.64 4724.57,-17.09"/>
<polygon fill="midnightblue" stroke="midnightblue" points="5489.57,-190.71 5490.56,-201.26 5496.37,-192.4 5489.57,-190.71"/>
</g>
<!-- Node56 -->
<g id="node45" class="node">
<title>Node56</title>
<g id="a_node45"><a xlink:href="../../d1/de1/vincrement__p_8h.html" target="_top" xlink:title=" ">
<polygon fill="white" stroke="red" points="5535.5,-134.5 5535.5,-164.5 5678.5,-164.5 5678.5,-134.5 5535.5,-134.5"/>
<text text-anchor="start" x="5543.5" y="-152.5" font-family="Helvetica,sans-Serif" font-size="10.00">src/libs/vpatterndb</text>
<text text-anchor="middle" x="5607" y="-141.5" font-family="Helvetica,sans-Serif" font-size="10.00">/variables/vincrement_p.h</text>
</a>
</g>
</g>
<!-- Node4&#45;&gt;Node56 -->
<g id="edge50" class="edge">
<title>Node4&#45;&gt;Node56</title>
<path fill="none" stroke="midnightblue" d="M5522.65,-196.57C5541.37,-186.35 5564.09,-173.94 5581.23,-164.58"/>
<polygon fill="midnightblue" stroke="midnightblue" points="5520.92,-193.53 5513.82,-201.4 5524.28,-199.67 5520.92,-193.53"/>
</g>
<!-- Node58 -->
<g id="node46" class="node">
<title>Node58</title>
<g id="a_node46"><a xlink:href="../../d6/dc1/vmeasurement__p_8h.html" target="_top" xlink:title=" ">
<polygon fill="white" stroke="red" points="5697,-134.5 5697,-164.5 5859,-164.5 5859,-134.5 5697,-134.5"/>
<text text-anchor="start" x="5705" y="-152.5" font-family="Helvetica,sans-Serif" font-size="10.00">src/libs/vpatterndb</text>
<text text-anchor="middle" x="5778" y="-141.5" font-family="Helvetica,sans-Serif" font-size="10.00">/variables/vmeasurement_p.h</text>
</a>
</g>
</g>
<!-- Node4&#45;&gt;Node58 -->
<g id="edge51" class="edge">
<title>Node4&#45;&gt;Node58</title>
<path fill="none" stroke="midnightblue" d="M5551.32,-201.31C5600.02,-190.39 5666.96,-175.39 5715.46,-164.52"/>
<polygon fill="midnightblue" stroke="midnightblue" points="5550.52,-197.9 5541.53,-203.5 5552.05,-204.73 5550.52,-197.9"/>
</g>
<!-- Node60 -->
<g id="node47" class="node">
<title>Node60</title>
<g id="a_node47"><a xlink:href="../../d6/d91/vnodedetail_8cpp.html" target="_top" xlink:title=" ">
<polygon fill="white" stroke="black" points="5877.5,-134.5 5877.5,-164.5 5984.5,-164.5 5984.5,-134.5 5877.5,-134.5"/>
<text text-anchor="start" x="5885.5" y="-152.5" font-family="Helvetica,sans-Serif" font-size="10.00">src/libs/vpatterndb</text>
<text text-anchor="middle" x="5931" y="-141.5" font-family="Helvetica,sans-Serif" font-size="10.00">/vnodedetail.cpp</text>
</a>
</g>
</g>
<!-- Node4&#45;&gt;Node60 -->
<g id="edge54" class="edge">
<title>Node4&#45;&gt;Node60</title>
<path fill="none" stroke="midnightblue" d="M5552.06,-208.85C5627.83,-200.55 5757.61,-184.99 5868,-165 5871.09,-164.44 5874.26,-163.83 5877.45,-163.18"/>
<polygon fill="midnightblue" stroke="midnightblue" points="5551.3,-205.41 5541.74,-209.97 5552.06,-212.37 5551.3,-205.41"/>
</g>
<!-- Node61 -->
<g id="node48" class="node">
<title>Node61</title>
<g id="a_node48"><a xlink:href="../../da/de1/vpiecepath_8cpp.html" target="_top" xlink:title=" ">
<polygon fill="white" stroke="black" points="6002.5,-134.5 6002.5,-164.5 6109.5,-164.5 6109.5,-134.5 6002.5,-134.5"/>
<text text-anchor="start" x="6010.5" y="-152.5" font-family="Helvetica,sans-Serif" font-size="10.00">src/libs/vpatterndb</text>
<text text-anchor="middle" x="6056" y="-141.5" font-family="Helvetica,sans-Serif" font-size="10.00">/vpiecepath.cpp</text>
</a>
</g>
</g>
<!-- Node4&#45;&gt;Node61 -->
<g id="edge57" class="edge">
<title>Node4&#45;&gt;Node61</title>
<path fill="none" stroke="midnightblue" d="M5551.88,-211.71C5648.04,-205.43 5835.5,-190.89 5993,-165 5996.1,-164.49 5999.28,-163.92 6002.48,-163.3"/>
<polygon fill="midnightblue" stroke="midnightblue" points="5551.49,-208.23 5541.74,-212.37 5551.94,-215.22 5551.49,-208.23"/>
</g>
<!-- Node62 -->
<g id="node49" class="node">
<title>Node62</title>
<g id="a_node49"><a xlink:href="../../d1/d3a/abstracttest_8cpp.html" target="_top" xlink:title=" ">
<polygon fill="white" stroke="black" points="6127.5,-140 6127.5,-159 6288.5,-159 6288.5,-140 6127.5,-140"/>
<text text-anchor="middle" x="6208" y="-147" font-family="Helvetica,sans-Serif" font-size="10.00">src/libs/vtest/abstracttest.cpp</text>
</a>
</g>
</g>
<!-- Node4&#45;&gt;Node62 -->
<g id="edge58" class="edge">
<title>Node4&#45;&gt;Node62</title>
<path fill="none" stroke="midnightblue" d="M5552.05,-212.11C5666.25,-205.67 5912.43,-190.05 6119,-165 6132.37,-163.38 6146.8,-161.21 6160.07,-159.05"/>
<polygon fill="midnightblue" stroke="midnightblue" points="5551.54,-208.63 5541.75,-212.68 5551.93,-215.62 5551.54,-208.63"/>
</g>
<!-- Node63 -->
<g id="node50" class="node">
<title>Node63</title>
<g id="a_node50"><a xlink:href="../../da/db4/piece__tablewidgetitem_8cpp.html" target="_top" xlink:title=" ">
<polygon fill="white" stroke="black" points="6307,-134.5 6307,-164.5 6435,-164.5 6435,-134.5 6307,-134.5"/>
<text text-anchor="start" x="6315" y="-152.5" font-family="Helvetica,sans-Serif" font-size="10.00">src/libs/vwidgets/piece</text>
<text text-anchor="middle" x="6371" y="-141.5" font-family="Helvetica,sans-Serif" font-size="10.00">_tablewidgetitem.cpp</text>
</a>
</g>
</g>
<!-- Node4&#45;&gt;Node63 -->
<g id="edge59" class="edge">
<title>Node4&#45;&gt;Node63</title>
<path fill="none" stroke="midnightblue" d="M5552.12,-214.41C5689.43,-211.45 6021.9,-200.86 6298,-165 6300.95,-164.62 6303.95,-164.19 6306.99,-163.72"/>
<polygon fill="midnightblue" stroke="midnightblue" points="5551.71,-210.92 5541.79,-214.63 5551.86,-217.92 5551.71,-210.92"/>
</g>
<!-- Node5&#45;&gt;Node6 -->
<g id="edge5" class="edge">
<title>Node5&#45;&gt;Node6</title>
<path fill="none" stroke="midnightblue" d="M240.07,-136.27C205.34,-123.37 151.51,-103.38 121.06,-92.06"/>
<polygon fill="midnightblue" stroke="midnightblue" points="239.17,-139.67 249.76,-139.87 241.61,-133.11 239.17,-139.67"/>
</g>
<!-- Node8 -->
<g id="node8" class="node">
<title>Node8</title>
<g id="a_node8"><a xlink:href="../../dd/d66/vdxfengine_8cpp.html" target="_top" xlink:title=" ">
<polygon fill="white" stroke="black" points="214,-73 214,-92 368,-92 368,-73 214,-73"/>
<text text-anchor="middle" x="291" y="-80" font-family="Helvetica,sans-Serif" font-size="10.00">src/libs/vdxf/vdxfengine.cpp</text>
</a>
</g>
</g>
<!-- Node7&#45;&gt;Node8 -->
<g id="edge8" class="edge">
<title>Node7&#45;&gt;Node8</title>
<path fill="none" stroke="midnightblue" d="M933.87,-143.89C807.44,-137.03 574.57,-122.28 377,-98 363.93,-96.39 349.81,-94.2 336.86,-92.01"/>
<polygon fill="midnightblue" stroke="midnightblue" points="933.73,-147.39 943.91,-144.43 934.11,-140.4 933.73,-147.39"/>
</g>
<!-- Node9 -->
<g id="node9" class="node">
<title>Node9</title>
<g id="a_node9"><a xlink:href="../../de/da8/vbank_8cpp.html" target="_top" xlink:title=" ">
<polygon fill="white" stroke="black" points="386,-73 386,-92 530,-92 530,-73 386,-73"/>
<text text-anchor="middle" x="458" y="-80" font-family="Helvetica,sans-Serif" font-size="10.00">src/libs/vlayout/vbank.cpp</text>
</a>
</g>
</g>
<!-- Node7&#45;&gt;Node9 -->
<g id="edge9" class="edge">
<title>Node7&#45;&gt;Node9</title>
<path fill="none" stroke="midnightblue" d="M933.67,-140.91C835.26,-132.42 675.85,-117.3 539,-98 527.12,-96.32 514.31,-94.19 502.47,-92.07"/>
<polygon fill="midnightblue" stroke="midnightblue" points="933.62,-144.42 943.88,-141.79 934.22,-137.44 933.62,-144.42"/>
</g>
<!-- Node10 -->
<g id="node10" class="node">
<title>Node10</title>
<g id="a_node10"><a xlink:href="../../df/d5d/vcontour_8cpp.html" target="_top" xlink:title=" ">
<polygon fill="white" stroke="black" points="548,-73 548,-92 704,-92 704,-73 548,-73"/>
<text text-anchor="middle" x="626" y="-80" font-family="Helvetica,sans-Serif" font-size="10.00">src/libs/vlayout/vcontour.cpp</text>
</a>
</g>
</g>
<!-- Node7&#45;&gt;Node10 -->
<g id="edge10" class="edge">
<title>Node7&#45;&gt;Node10</title>
<path fill="none" stroke="midnightblue" d="M963.12,-138.34C899.66,-128.21 799.58,-112.18 713,-98 701.36,-96.09 688.86,-94.02 677.06,-92.06"/>
<polygon fill="midnightblue" stroke="midnightblue" points="962.94,-141.85 973.37,-139.97 964.05,-134.94 962.94,-141.85"/>
</g>
<!-- Node11 -->
<g id="node11" class="node">
<title>Node11</title>
<g id="a_node11"><a xlink:href="../../d3/d39/vlayoutgenerator_8cpp.html" target="_top" xlink:title=" ">
<polygon fill="white" stroke="black" points="722.5,-73 722.5,-92 919.5,-92 919.5,-73 722.5,-73"/>
<text text-anchor="middle" x="821" y="-80" font-family="Helvetica,sans-Serif" font-size="10.00">src/libs/vlayout/vlayoutgenerator.cpp</text>
</a>
</g>
</g>
<!-- Node7&#45;&gt;Node11 -->
<g id="edge11" class="edge">
<title>Node7&#45;&gt;Node11</title>
<path fill="none" stroke="midnightblue" d="M990.07,-136.85C949.27,-123.97 884.53,-103.55 848.14,-92.06"/>
<polygon fill="midnightblue" stroke="midnightblue" points="989.06,-140.2 999.64,-139.87 991.16,-133.52 989.06,-140.2"/>
</g>
<!-- Node12 -->
<g id="node12" class="node">
<title>Node12</title>
<g id="a_node12"><a xlink:href="../../d2/d2d/vlayoutpaper__p_8h.html" target="_top" xlink:title=" ">
<polygon fill="white" stroke="black" points="937.5,-73 937.5,-92 1116.5,-92 1116.5,-73 937.5,-73"/>
<text text-anchor="middle" x="1027" y="-80" font-family="Helvetica,sans-Serif" font-size="10.00">src/libs/vlayout/vlayoutpaper_p.h</text>
</a>
</g>
</g>
<!-- Node7&#45;&gt;Node12 -->
<g id="edge12" class="edge">
<title>Node7&#45;&gt;Node12</title>
<path fill="none" stroke="midnightblue" d="M1027,-129.54C1027,-117.17 1027,-101.62 1027,-92.13"/>
<polygon fill="midnightblue" stroke="midnightblue" points="1023.5,-129.73 1027,-139.73 1030.5,-129.73 1023.5,-129.73"/>
</g>
<!-- Node13 -->
<g id="node13" class="node">
<title>Node13</title>
<g id="a_node13"><a xlink:href="../../d1/dd1/vlayoutpaper_8cpp.html" target="_top" xlink:title=" ">
<polygon fill="white" stroke="black" points="1056,-6 1056,-25 1234,-25 1234,-6 1056,-6"/>
<text text-anchor="middle" x="1145" y="-13" font-family="Helvetica,sans-Serif" font-size="10.00">src/libs/vlayout/vlayoutpaper.cpp</text>
</a>
</g>
</g>
<!-- Node7&#45;&gt;Node13 -->
<g id="edge14" class="edge">
<title>Node7&#45;&gt;Node13</title>
<path fill="none" stroke="midnightblue" d="M1067.97,-136.39C1087.92,-128.5 1110.64,-116.21 1125,-98 1142.32,-76.04 1144.91,-41.17 1145.12,-25.12"/>
<polygon fill="midnightblue" stroke="midnightblue" points="1066.61,-133.16 1058.44,-139.91 1069.04,-139.72 1066.61,-133.16"/>
</g>
<!-- Node14 -->
<g id="node14" class="node">
<title>Node14</title>
<g id="a_node14"><a xlink:href="../../dd/d70/vlayoutpiece_8cpp.html" target="_top" xlink:title=" ">
<polygon fill="white" stroke="black" points="1339.5,-73 1339.5,-92 1516.5,-92 1516.5,-73 1339.5,-73"/>
<text text-anchor="middle" x="1428" y="-80" font-family="Helvetica,sans-Serif" font-size="10.00">src/libs/vlayout/vlayoutpiece.cpp</text>
</a>
</g>
</g>
<!-- Node7&#45;&gt;Node14 -->
<g id="edge15" class="edge">
<title>Node7&#45;&gt;Node14</title>
<path fill="none" stroke="midnightblue" d="M1090.1,-138.27C1168.79,-125.52 1301.9,-103.94 1375.37,-92.03"/>
<polygon fill="midnightblue" stroke="midnightblue" points="1089.15,-134.88 1079.84,-139.94 1090.27,-141.79 1089.15,-134.88"/>
</g>
<!-- Node15 -->
<g id="node15" class="node">
<title>Node15</title>
<g id="a_node15"><a xlink:href="../../db/d5c/vposition_8h.html" target="_top" xlink:title=" ">
<polygon fill="white" stroke="red" points="1173,-73 1173,-92 1321,-92 1321,-73 1173,-73"/>
<text text-anchor="middle" x="1247" y="-80" font-family="Helvetica,sans-Serif" font-size="10.00">src/libs/vlayout/vposition.h</text>
</a>
</g>
</g>
<!-- Node7&#45;&gt;Node15 -->
<g id="edge16" class="edge">
<title>Node7&#45;&gt;Node15</title>
<path fill="none" stroke="midnightblue" d="M1065.89,-137.01C1109.43,-124.15 1178.99,-103.59 1218.02,-92.06"/>
<polygon fill="midnightblue" stroke="midnightblue" points="1064.81,-133.68 1056.21,-139.87 1066.8,-140.39 1064.81,-133.68"/>
</g>
<!-- Node12&#45;&gt;Node13 -->
<g id="edge13" class="edge">
<title>Node12&#45;&gt;Node13</title>
<path fill="none" stroke="midnightblue" d="M1051.89,-67.79C1075.28,-54.9 1109.56,-36.02 1129.34,-25.13"/>
<polygon fill="midnightblue" stroke="midnightblue" points="1049.98,-64.84 1042.91,-72.73 1053.36,-70.97 1049.98,-64.84"/>
</g>
<!-- Node15&#45;&gt;Node13 -->
<g id="edge17" class="edge">
<title>Node15&#45;&gt;Node13</title>
<path fill="none" stroke="midnightblue" d="M1224.67,-67.27C1204.48,-54.4 1175.41,-35.88 1158.54,-25.13"/>
<polygon fill="midnightblue" stroke="midnightblue" points="1222.93,-70.31 1233.24,-72.73 1226.69,-64.41 1222.93,-70.31"/>
</g>
<!-- Node18&#45;&gt;Node14 -->
<g id="edge30" class="edge">
<title>Node18&#45;&gt;Node14</title>
<path fill="none" stroke="midnightblue" d="M3384.37,-147.46C3028.47,-143.73 1891.46,-129.61 1526,-98 1510.15,-96.63 1492.96,-94.36 1477.47,-92.01"/>
<polygon fill="midnightblue" stroke="midnightblue" points="3384.38,-150.96 3394.42,-147.56 3384.45,-143.96 3384.38,-150.96"/>
</g>
<!-- Node18&#45;&gt;Node17 -->
<g id="edge31" class="edge">
<title>Node18&#45;&gt;Node17</title>
<path fill="none" stroke="midnightblue" d="M3384.42,-147.05C3053.04,-142.34 2050.66,-126.09 1726,-98 1709.92,-96.61 1692.48,-94.35 1676.74,-92.02"/>
<polygon fill="midnightblue" stroke="midnightblue" points="3384.45,-150.55 3394.5,-147.2 3384.55,-143.55 3384.45,-150.55"/>
</g>
<!-- Node19 -->
<g id="node18" class="node">
<title>Node19</title>
<g id="a_node18"><a xlink:href="../../d4/d90/fvupdater_8cpp.html" target="_top" xlink:title=" ">
<polygon fill="white" stroke="black" points="1735.5,-73 1735.5,-92 1888.5,-92 1888.5,-73 1735.5,-73"/>
<text text-anchor="middle" x="1812" y="-80" font-family="Helvetica,sans-Serif" font-size="10.00">src/libs/fervor/fvupdater.cpp</text>
</a>
</g>
</g>
<!-- Node18&#45;&gt;Node19 -->
<g id="edge20" class="edge">
<title>Node18&#45;&gt;Node19</title>
<path fill="none" stroke="midnightblue" d="M3384,-147.02C3074.23,-142.45 2186.42,-127.13 1897,-98 1883.3,-96.62 1868.46,-94.36 1855.09,-92.03"/>
<polygon fill="midnightblue" stroke="midnightblue" points="3384.28,-150.52 3394.33,-147.17 3384.38,-143.52 3384.28,-150.52"/>
</g>
<!-- Node20 -->
<g id="node19" class="node">
<title>Node20</title>
<g id="a_node19"><a xlink:href="../../d9/dc8/dxiface_8cpp.html" target="_top" xlink:title=" ">
<polygon fill="white" stroke="black" points="1906.5,-73 1906.5,-92 2041.5,-92 2041.5,-73 1906.5,-73"/>
<text text-anchor="middle" x="1974" y="-80" font-family="Helvetica,sans-Serif" font-size="10.00">src/libs/vdxf/dxiface.cpp</text>
</a>
</g>
</g>
<!-- Node18&#45;&gt;Node20 -->
<g id="edge21" class="edge">
<title>Node18&#45;&gt;Node20</title>
<path fill="none" stroke="midnightblue" d="M3384.31,-146.87C3095.53,-142.17 2308.32,-126.99 2050,-98 2037.72,-96.62 2024.45,-94.36 2012.49,-92.03"/>
<polygon fill="midnightblue" stroke="midnightblue" points="3384.32,-150.37 3394.37,-147.04 3384.43,-143.37 3384.32,-150.37"/>
</g>
<!-- Node21 -->
<g id="node20" class="node">
<title>Node21</title>
<g id="a_node20"><a xlink:href="../../da/d75/vabstractarc__p_8h.html" target="_top" xlink:title=" ">
<polygon fill="white" stroke="red" points="2059.5,-67.5 2059.5,-97.5 2166.5,-97.5 2166.5,-67.5 2059.5,-67.5"/>
<text text-anchor="start" x="2067.5" y="-85.5" font-family="Helvetica,sans-Serif" font-size="10.00">src/libs/vgeometry</text>
<text text-anchor="middle" x="2113" y="-74.5" font-family="Helvetica,sans-Serif" font-size="10.00">/vabstractarc_p.h</text>
</a>
</g>
</g>
<!-- Node18&#45;&gt;Node21 -->
<g id="edge22" class="edge">
<title>Node18&#45;&gt;Node21</title>
<path fill="none" stroke="midnightblue" d="M3384.14,-147.02C3112.91,-142.89 2407.56,-129.36 2175,-98 2172.26,-97.63 2169.47,-97.2 2166.65,-96.71"/>
<polygon fill="midnightblue" stroke="midnightblue" points="3384.33,-150.53 3394.38,-147.18 3384.44,-143.53 3384.33,-150.53"/>
</g>
<!-- Node23 -->
<g id="node21" class="node">
<title>Node23</title>
<g id="a_node21"><a xlink:href="../../dc/da3/varc__p_8h.html" target="_top" xlink:title=" ">
<polygon fill="white" stroke="red" points="2184.5,-67.5 2184.5,-97.5 2291.5,-97.5 2291.5,-67.5 2184.5,-67.5"/>
<text text-anchor="start" x="2192.5" y="-85.5" font-family="Helvetica,sans-Serif" font-size="10.00">src/libs/vgeometry</text>
<text text-anchor="middle" x="2238" y="-74.5" font-family="Helvetica,sans-Serif" font-size="10.00">/varc_p.h</text>
</a>
</g>
</g>
<!-- Node18&#45;&gt;Node23 -->
<g id="edge23" class="edge">
<title>Node18&#45;&gt;Node23</title>
<path fill="none" stroke="midnightblue" d="M3384.13,-146.52C3131.58,-141.46 2507.6,-126.42 2300,-98 2297.26,-97.63 2294.47,-97.19 2291.65,-96.7"/>
<polygon fill="midnightblue" stroke="midnightblue" points="3384.35,-150.02 3394.42,-146.72 3384.49,-143.02 3384.35,-150.02"/>
</g>
<!-- Node25 -->
<g id="node22" class="node">
<title>Node25</title>
<g id="a_node22"><a xlink:href="../../d5/d8e/vcubicbezier__p_8h.html" target="_top" xlink:title=" ">
<polygon fill="white" stroke="red" points="2309.5,-67.5 2309.5,-97.5 2416.5,-97.5 2416.5,-67.5 2309.5,-67.5"/>
<text text-anchor="start" x="2317.5" y="-85.5" font-family="Helvetica,sans-Serif" font-size="10.00">src/libs/vgeometry</text>
<text text-anchor="middle" x="2363" y="-74.5" font-family="Helvetica,sans-Serif" font-size="10.00">/vcubicbezier_p.h</text>
</a>
</g>
</g>
<!-- Node18&#45;&gt;Node25 -->
<g id="edge24" class="edge">
<title>Node18&#45;&gt;Node25</title>
<path fill="none" stroke="midnightblue" d="M3384.19,-145.9C3151.36,-139.87 2607.79,-123.48 2425,-98 2422.26,-97.62 2419.47,-97.17 2416.66,-96.68"/>
<polygon fill="midnightblue" stroke="midnightblue" points="3384.28,-149.4 3394.36,-146.16 3384.46,-142.4 3384.28,-149.4"/>
</g>
<!-- Node27 -->
<g id="node23" class="node">
<title>Node27</title>
<g id="a_node23"><a xlink:href="../../df/dde/vellipticalarc__p_8h.html" target="_top" xlink:title=" ">
<polygon fill="white" stroke="black" points="2434.5,-67.5 2434.5,-97.5 2541.5,-97.5 2541.5,-67.5 2434.5,-67.5"/>
<text text-anchor="start" x="2442.5" y="-85.5" font-family="Helvetica,sans-Serif" font-size="10.00">src/libs/vgeometry</text>
<text text-anchor="middle" x="2488" y="-74.5" font-family="Helvetica,sans-Serif" font-size="10.00">/vellipticalarc_p.h</text>
</a>
</g>
</g>
<!-- Node18&#45;&gt;Node27 -->
<g id="edge25" class="edge">
<title>Node18&#45;&gt;Node27</title>
<path fill="none" stroke="midnightblue" d="M3383.95,-148.14C3209.18,-146.32 2853.95,-137.56 2556,-98 2551.33,-97.38 2546.51,-96.61 2541.69,-95.76"/>
<polygon fill="midnightblue" stroke="midnightblue" points="3384.15,-151.64 3394.18,-148.24 3384.21,-144.64 3384.15,-151.64"/>
</g>
<!-- Node28 -->
<g id="node24" class="node">
<title>Node28</title>
<g id="a_node24"><a xlink:href="../../d6/dfb/vellipticalarc_8cpp.html" target="_top" xlink:title=" ">
<polygon fill="white" stroke="black" points="2475.5,-0.5 2475.5,-30.5 2582.5,-30.5 2582.5,-0.5 2475.5,-0.5"/>
<text text-anchor="start" x="2483.5" y="-18.5" font-family="Helvetica,sans-Serif" font-size="10.00">src/libs/vgeometry</text>
<text text-anchor="middle" x="2529" y="-7.5" font-family="Helvetica,sans-Serif" font-size="10.00">/vellipticalarc.cpp</text>
</a>
</g>
</g>
<!-- Node18&#45;&gt;Node28 -->
<g id="edge27" class="edge">
<title>Node18&#45;&gt;Node28</title>
<path fill="none" stroke="midnightblue" d="M3384.33,-147.59C3159.94,-144.97 2657.34,-134.98 2589,-98 2561.65,-83.2 2543.44,-49.9 2534.8,-30.77"/>
<polygon fill="midnightblue" stroke="midnightblue" points="3384.44,-151.09 3394.48,-147.71 3384.52,-144.09 3384.44,-151.09"/>
</g>
<!-- Node29 -->
<g id="node25" class="node">
<title>Node29</title>
<g id="a_node25"><a xlink:href="../../d1/d76/vspline__p_8h.html" target="_top" xlink:title=" ">
<polygon fill="white" stroke="red" points="2598.5,-67.5 2598.5,-97.5 2705.5,-97.5 2705.5,-67.5 2598.5,-67.5"/>
<text text-anchor="start" x="2606.5" y="-85.5" font-family="Helvetica,sans-Serif" font-size="10.00">src/libs/vgeometry</text>
<text text-anchor="middle" x="2652" y="-74.5" font-family="Helvetica,sans-Serif" font-size="10.00">/vspline_p.h</text>
</a>
</g>
</g>
<!-- Node18&#45;&gt;Node29 -->
<g id="edge28" class="edge">
<title>Node18&#45;&gt;Node29</title>
<path fill="none" stroke="midnightblue" d="M3384.09,-146.97C3233.51,-143.6 2952.14,-132.76 2715,-98 2711.89,-97.54 2708.71,-97.01 2705.5,-96.43"/>
<polygon fill="midnightblue" stroke="midnightblue" points="3384.19,-150.48 3394.26,-147.19 3384.34,-143.48 3384.19,-150.48"/>
</g>
<!-- Node31 -->
<g id="node26" class="node">
<title>Node31</title>
<g id="a_node26"><a xlink:href="../../d9/d15/vabstractpiece_8cpp.html" target="_top" xlink:title=" ">
<polygon fill="white" stroke="black" points="2724,-73 2724,-92 2910,-92 2910,-73 2724,-73"/>
<text text-anchor="middle" x="2817" y="-80" font-family="Helvetica,sans-Serif" font-size="10.00">src/libs/vlayout/vabstractpiece.cpp</text>
</a>
</g>
</g>
<!-- Node18&#45;&gt;Node31 -->
<g id="edge29" class="edge">
<title>Node18&#45;&gt;Node31</title>
<path fill="none" stroke="midnightblue" d="M3384.01,-140.71C3268.69,-131.98 3080.67,-116.6 2919,-98 2904.07,-96.28 2887.96,-94.13 2873.05,-92.02"/>
<polygon fill="midnightblue" stroke="midnightblue" points="3384.02,-144.22 3394.25,-141.48 3384.55,-137.24 3384.02,-144.22"/>
</g>
<!-- Node32 -->
<g id="node27" class="node">
<title>Node32</title>
<g id="a_node27"><a xlink:href="../../d6/d0b/def_8cpp.html" target="_top" xlink:title=" ">
<polygon fill="white" stroke="black" points="2928,-73 2928,-92 3050,-92 3050,-73 2928,-73"/>
<text text-anchor="middle" x="2989" y="-80" font-family="Helvetica,sans-Serif" font-size="10.00">src/libs/vmisc/def.cpp</text>
</a>
</g>
</g>
<!-- Node18&#45;&gt;Node32 -->
<g id="edge32" class="edge">
<title>Node18&#45;&gt;Node32</title>
<path fill="none" stroke="midnightblue" d="M3388.36,-139C3300.42,-130.33 3171.05,-116.1 3059,-98 3048.59,-96.32 3037.37,-94.15 3027.03,-92.01"/>
<polygon fill="midnightblue" stroke="midnightblue" points="3388.04,-142.49 3398.34,-139.98 3388.73,-135.52 3388.04,-142.49"/>
</g>
<!-- Node33 -->
<g id="node28" class="node">
<title>Node33</title>
<g id="a_node28"><a xlink:href="../../db/d65/dialogexporttocsv_8cpp.html" target="_top" xlink:title=" ">
<polygon fill="white" stroke="black" points="3068.5,-67.5 3068.5,-97.5 3195.5,-97.5 3195.5,-67.5 3068.5,-67.5"/>
<text text-anchor="start" x="3076.5" y="-85.5" font-family="Helvetica,sans-Serif" font-size="10.00">src/libs/vmisc/dialogs</text>
<text text-anchor="middle" x="3132" y="-74.5" font-family="Helvetica,sans-Serif" font-size="10.00">/dialogexporttocsv.cpp</text>
</a>
</g>
</g>
<!-- Node18&#45;&gt;Node33 -->
<g id="edge33" class="edge">
<title>Node18&#45;&gt;Node33</title>
<path fill="none" stroke="midnightblue" d="M3431.54,-138.26C3373.41,-128.32 3283.11,-112.63 3205,-98 3201.95,-97.43 3198.83,-96.84 3195.69,-96.24"/>
<polygon fill="midnightblue" stroke="midnightblue" points="3431.2,-141.75 3441.65,-139.98 3432.38,-134.85 3431.2,-141.75"/>
</g>
<!-- Node34 -->
<g id="node29" class="node">
<title>Node34</title>
<g id="a_node29"><a xlink:href="../../d0/df6/vabstractapplication_8cpp.html" target="_top" xlink:title=" ">
<polygon fill="white" stroke="black" points="3214,-73 3214,-92 3420,-92 3420,-73 3214,-73"/>
<text text-anchor="middle" x="3317" y="-80" font-family="Helvetica,sans-Serif" font-size="10.00">src/libs/vmisc/vabstractapplication.cpp</text>
</a>
</g>
</g>
<!-- Node18&#45;&gt;Node34 -->
<g id="edge34" class="edge">
<title>Node18&#45;&gt;Node34</title>
<path fill="none" stroke="midnightblue" d="M3459.07,-136.27C3424.34,-123.37 3370.51,-103.38 3340.06,-92.06"/>
<polygon fill="midnightblue" stroke="midnightblue" points="3458.17,-139.67 3468.76,-139.87 3460.61,-133.11 3458.17,-139.67"/>
</g>
<!-- Node35 -->
<g id="node30" class="node">
<title>Node35</title>
<g id="a_node30"><a xlink:href="../../d4/d4f/pmsystems_8cpp.html" target="_top" xlink:title=" ">
<polygon fill="white" stroke="black" points="3438.5,-67.5 3438.5,-97.5 3545.5,-97.5 3545.5,-67.5 3438.5,-67.5"/>
<text text-anchor="start" x="3446.5" y="-85.5" font-family="Helvetica,sans-Serif" font-size="10.00">src/libs/vpatterndb</text>
<text text-anchor="middle" x="3492" y="-74.5" font-family="Helvetica,sans-Serif" font-size="10.00">/pmsystems.cpp</text>
</a>
</g>
</g>
<!-- Node18&#45;&gt;Node35 -->
<g id="edge35" class="edge">
<title>Node18&#45;&gt;Node35</title>
<path fill="none" stroke="midnightblue" d="M3492,-129.41C3492,-119.22 3492,-106.9 3492,-97.59"/>
<polygon fill="midnightblue" stroke="midnightblue" points="3488.5,-129.73 3492,-139.73 3495.5,-129.73 3488.5,-129.73"/>
</g>
<!-- Node18&#45;&gt;Node36 -->
<g id="edge36" class="edge">
<title>Node18&#45;&gt;Node36</title>
<path fill="none" stroke="midnightblue" d="M3599.7,-148.77C3970.26,-149.24 5191.16,-146.94 5580,-98 5583.01,-97.62 5586.08,-97.16 5589.17,-96.64"/>
<polygon fill="midnightblue" stroke="midnightblue" points="3599.52,-145.27 3589.52,-148.75 3599.51,-152.27 3599.52,-145.27"/>
</g>
<!-- Node18&#45;&gt;Node37 -->
<g id="edge37" class="edge">
<title>Node18&#45;&gt;Node37</title>
<path fill="none" stroke="midnightblue" d="M3599.66,-148.35C3940.32,-147.43 4992.12,-141.09 5330,-98 5333.01,-97.62 5336.08,-97.15 5339.17,-96.63"/>
<polygon fill="midnightblue" stroke="midnightblue" points="3599.54,-144.85 3589.55,-148.38 3599.55,-151.85 3599.54,-144.85"/>
</g>
<!-- Node18&#45;&gt;Node38 -->
<g id="edge38" class="edge">
<title>Node18&#45;&gt;Node38</title>
<path fill="none" stroke="midnightblue" d="M3599.58,-148.57C3955.32,-148.36 5091.64,-144.02 5455,-98 5458.01,-97.62 5461.08,-97.16 5464.17,-96.64"/>
<polygon fill="midnightblue" stroke="midnightblue" points="3599.54,-145.07 3589.54,-148.58 3599.54,-152.07 3599.54,-145.07"/>
</g>
<!-- Node39 -->
<g id="node34" class="node">
<title>Node39</title>
<g id="a_node34"><a xlink:href="../../df/dba/vpiecenode__p_8h.html" target="_top" xlink:title=" ">
<polygon fill="white" stroke="black" points="3563.5,-67.5 3563.5,-97.5 3670.5,-97.5 3670.5,-67.5 3563.5,-67.5"/>
<text text-anchor="start" x="3571.5" y="-85.5" font-family="Helvetica,sans-Serif" font-size="10.00">src/libs/vpatterndb</text>
<text text-anchor="middle" x="3617" y="-74.5" font-family="Helvetica,sans-Serif" font-size="10.00">/vpiecenode_p.h</text>
</a>
</g>
</g>
<!-- Node18&#45;&gt;Node39 -->
<g id="edge39" class="edge">
<title>Node18&#45;&gt;Node39</title>
<path fill="none" stroke="midnightblue" d="M3517.59,-135.19C3538.61,-124.26 3568.33,-108.81 3589.79,-97.65"/>
<polygon fill="midnightblue" stroke="midnightblue" points="3515.86,-132.15 3508.6,-139.87 3519.09,-138.36 3515.86,-132.15"/>
</g>
<!-- Node41 -->
<g id="node36" class="node">
<title>Node41</title>
<g id="a_node36"><a xlink:href="../../de/d3e/vtranslatevars_8cpp.html" target="_top" xlink:title=" ">
<polygon fill="white" stroke="black" points="3689,-67.5 3689,-97.5 3799,-97.5 3799,-67.5 3689,-67.5"/>
<text text-anchor="start" x="3697" y="-85.5" font-family="Helvetica,sans-Serif" font-size="10.00">src/libs/vpatterndb</text>
<text text-anchor="middle" x="3744" y="-74.5" font-family="Helvetica,sans-Serif" font-size="10.00">/vtranslatevars.cpp</text>
</a>
</g>
</g>
<!-- Node18&#45;&gt;Node41 -->
<g id="edge41" class="edge">
<title>Node18&#45;&gt;Node41</title>
<path fill="none" stroke="midnightblue" d="M3535,-137.41C3577.67,-126.4 3643.2,-109.5 3689.49,-97.56"/>
<polygon fill="midnightblue" stroke="midnightblue" points="3534.01,-134.05 3525.2,-139.94 3535.76,-140.83 3534.01,-134.05"/>
</g>
<!-- Node42 -->
<g id="node37" class="node">
<title>Node42</title>
<g id="a_node37"><a xlink:href="../../df/d40/export__format__combobox_8cpp.html" target="_top" xlink:title=" ">
<polygon fill="white" stroke="black" points="3817.5,-67.5 3817.5,-97.5 3950.5,-97.5 3950.5,-67.5 3817.5,-67.5"/>
<text text-anchor="start" x="3825.5" y="-85.5" font-family="Helvetica,sans-Serif" font-size="10.00">src/libs/vwidgets/export</text>
<text text-anchor="middle" x="3884" y="-74.5" font-family="Helvetica,sans-Serif" font-size="10.00">_format_combobox.cpp</text>
</a>
</g>
</g>
<!-- Node18&#45;&gt;Node42 -->
<g id="edge42" class="edge">
<title>Node18&#45;&gt;Node42</title>
<path fill="none" stroke="midnightblue" d="M3558.56,-138.46C3622.58,-128.66 3722.03,-113.07 3808,-98 3811.04,-97.47 3814.15,-96.91 3817.29,-96.34"/>
<polygon fill="midnightblue" stroke="midnightblue" points="3557.95,-135.01 3548.6,-139.98 3559.01,-141.93 3557.95,-135.01"/>
</g>
<!-- Node43 -->
<g id="node38" class="node">
<title>Node43</title>
<g id="a_node38"><a xlink:href="../../d3/d4f/mouse__coordinates_8cpp.html" target="_top" xlink:title=" ">
<polygon fill="white" stroke="black" points="3969,-67.5 3969,-97.5 4103,-97.5 4103,-67.5 3969,-67.5"/>
<text text-anchor="start" x="3977" y="-85.5" font-family="Helvetica,sans-Serif" font-size="10.00">src/libs/vwidgets/mouse</text>
<text text-anchor="middle" x="4036" y="-74.5" font-family="Helvetica,sans-Serif" font-size="10.00">_coordinates.cpp</text>
</a>
</g>
</g>
<!-- Node18&#45;&gt;Node43 -->
<g id="edge43" class="edge">
<title>Node18&#45;&gt;Node43</title>
<path fill="none" stroke="midnightblue" d="M3599.96,-139.25C3694.81,-130.54 3836.41,-116.14 3959,-98 3962.23,-97.52 3965.53,-97.01 3968.86,-96.46"/>
<polygon fill="midnightblue" stroke="midnightblue" points="3599.42,-135.78 3589.78,-140.18 3600.05,-142.75 3599.42,-135.78"/>
</g>
<!-- Node44 -->
<g id="node39" class="node">
<title>Node44</title>
<g id="a_node39"><a xlink:href="../../d7/d1b/pen__toolbar_8cpp.html" target="_top" xlink:title=" ">
<polygon fill="white" stroke="black" points="4121.5,-67.5 4121.5,-97.5 4240.5,-97.5 4240.5,-67.5 4121.5,-67.5"/>
<text text-anchor="start" x="4129.5" y="-85.5" font-family="Helvetica,sans-Serif" font-size="10.00">src/libs/vwidgets/pen</text>
<text text-anchor="middle" x="4181" y="-74.5" font-family="Helvetica,sans-Serif" font-size="10.00">_toolbar.cpp</text>
</a>
</g>
</g>
<!-- Node18&#45;&gt;Node44 -->
<g id="edge44" class="edge">
<title>Node18&#45;&gt;Node44</title>
<path fill="none" stroke="midnightblue" d="M3599.87,-143.84C3723.92,-137.52 3933.46,-123.93 4112,-98 4115.03,-97.56 4118.12,-97.07 4121.24,-96.54"/>
<polygon fill="midnightblue" stroke="midnightblue" points="3599.42,-140.35 3589.61,-144.35 3599.77,-147.35 3599.42,-140.35"/>
</g>
<!-- Node45 -->
<g id="node40" class="node">
<title>Node45</title>
<g id="a_node40"><a xlink:href="../../d8/d76/scene__rect_8cpp.html" target="_top" xlink:title=" ">
<polygon fill="white" stroke="black" points="4259,-67.5 4259,-97.5 4389,-97.5 4389,-67.5 4259,-67.5"/>
<text text-anchor="start" x="4267" y="-85.5" font-family="Helvetica,sans-Serif" font-size="10.00">src/libs/vwidgets/scene</text>
<text text-anchor="middle" x="4324" y="-74.5" font-family="Helvetica,sans-Serif" font-size="10.00">_rect.cpp</text>
</a>
</g>
</g>
<!-- Node18&#45;&gt;Node45 -->
<g id="edge45" class="edge">
<title>Node18&#45;&gt;Node45</title>
<path fill="none" stroke="midnightblue" d="M3600.16,-145.51C3747.43,-140.48 4019.07,-127.78 4249,-98 4252.16,-97.59 4255.38,-97.13 4258.63,-96.63"/>
<polygon fill="midnightblue" stroke="midnightblue" points="3599.65,-142.03 3589.77,-145.86 3599.88,-149.02 3599.65,-142.03"/>
</g>
<!-- Node46 -->
<g id="node41" class="node">
<title>Node46</title>
<g id="a_node41"><a xlink:href="../../dd/df6/vabstractmainwindow_8cpp.html" target="_top" xlink:title=" ">
<polygon fill="white" stroke="black" points="4407.5,-73 4407.5,-92 4636.5,-92 4636.5,-73 4407.5,-73"/>
<text text-anchor="middle" x="4522" y="-80" font-family="Helvetica,sans-Serif" font-size="10.00">src/libs/vwidgets/vabstractmainwindow.cpp</text>
</a>
</g>
</g>
<!-- Node18&#45;&gt;Node46 -->
<g id="edge46" class="edge">
<title>Node18&#45;&gt;Node46</title>
<path fill="none" stroke="midnightblue" d="M3599.87,-144.61C3769.82,-138 4110.18,-122.83 4398,-98 4416.68,-96.39 4436.89,-94.21 4455.47,-92.03"/>
<polygon fill="midnightblue" stroke="midnightblue" points="3599.53,-141.12 3589.68,-145 3599.8,-148.11 3599.53,-141.12"/>
</g>
<!-- Node47 -->
<g id="node42" class="node">
<title>Node47</title>
<g id="a_node42"><a xlink:href="../../d1/d90/vgrainlineitem_8cpp.html" target="_top" xlink:title=" ">
<polygon fill="white" stroke="black" points="4654.5,-73 4654.5,-92 4847.5,-92 4847.5,-73 4654.5,-73"/>
<text text-anchor="middle" x="4751" y="-80" font-family="Helvetica,sans-Serif" font-size="10.00">src/libs/vwidgets/vgrainlineitem.cpp</text>
</a>
</g>
</g>
<!-- Node18&#45;&gt;Node47 -->
<g id="edge47" class="edge">
<title>Node18&#45;&gt;Node47</title>
<path fill="none" stroke="midnightblue" d="M3599.9,-147.09C3804.24,-143.68 4261.59,-132.55 4645,-98 4661.56,-96.51 4679.49,-94.29 4695.82,-92.03"/>
<polygon fill="midnightblue" stroke="midnightblue" points="3599.71,-143.59 3589.76,-147.26 3599.82,-150.59 3599.71,-143.59"/>
</g>
<!-- Node48 -->
<g id="node43" class="node">
<title>Node48</title>
<g id="a_node43"><a xlink:href="../../de/d45/vcontrolpointspline_8cpp.html" target="_top" xlink:title=" ">
<polygon fill="white" stroke="black" points="4865.5,-73 4865.5,-92 5080.5,-92 5080.5,-73 4865.5,-73"/>
<text text-anchor="middle" x="4973" y="-80" font-family="Helvetica,sans-Serif" font-size="10.00">src/libs/vwidgets/vcontrolpointspline.cpp</text>
</a>
</g>
</g>
<!-- Node18&#45;&gt;Node48 -->
<g id="edge48" class="edge">
<title>Node18&#45;&gt;Node48</title>
<path fill="none" stroke="midnightblue" d="M3599.83,-147.67C3830.6,-145.19 4389.34,-135.49 4856,-98 4874.36,-96.53 4894.27,-94.3 4912.38,-92.02"/>
<polygon fill="midnightblue" stroke="midnightblue" points="3599.71,-144.17 3589.75,-147.77 3599.79,-151.17 3599.71,-144.17"/>
</g>
<!-- Node49 -->
<g id="node44" class="node">
<title>Node49</title>
<g id="a_node44"><a xlink:href="../../d1/d88/vmaingraphicsscene_8cpp.html" target="_top" xlink:title=" ">
<polygon fill="white" stroke="black" points="5099,-73 5099,-92 5321,-92 5321,-73 5099,-73"/>
<text text-anchor="middle" x="5210" y="-80" font-family="Helvetica,sans-Serif" font-size="10.00">src/libs/vwidgets/vmaingraphicsscene.cpp</text>
</a>
</g>
</g>
<!-- Node18&#45;&gt;Node49 -->
<g id="edge49" class="edge">
<title>Node18&#45;&gt;Node49</title>
<path fill="none" stroke="midnightblue" d="M3599.95,-148.35C3857.8,-147.27 4529.77,-140.27 5089,-98 5108.09,-96.56 5128.81,-94.32 5147.61,-92.04"/>
<polygon fill="midnightblue" stroke="midnightblue" points="3599.82,-144.85 3589.83,-148.39 3599.85,-151.85 3599.82,-144.85"/>
</g>
<!-- Node27&#45;&gt;Node28 -->
<g id="edge26" class="edge">
<title>Node27&#45;&gt;Node28</title>
<path fill="none" stroke="midnightblue" d="M2502.28,-58.87C2508.21,-49.46 2514.91,-38.83 2520.12,-30.58"/>
<polygon fill="midnightblue" stroke="midnightblue" points="2499.27,-57.07 2496.9,-67.4 2505.19,-60.81 2499.27,-57.07"/>
</g>
<!-- Node39&#45;&gt;Node40 -->
<g id="edge40" class="edge">
<title>Node39&#45;&gt;Node40</title>
<path fill="none" stroke="midnightblue" d="M3681,-67.05C4043.11,-17.43 4469.2,-15.11 4617.24,-15.94"/>
<polygon fill="midnightblue" stroke="midnightblue" points="3680.27,-63.62 3670.84,-68.45 3681.23,-70.55 3680.27,-63.62"/>
</g>
</g>
</svg>
