<?xml version="1.0" encoding="UTF-8" standalone="no"?>
<!DOCTYPE svg PUBLIC "-//W3C//DTD SVG 1.1//EN"
 "http://www.w3.org/Graphics/SVG/1.1/DTD/svg11.dtd">
<!-- Generated by graphviz version 2.43.0 (0)
 -->
<!-- Title: src/libs/vpatterndb/variables/vcurveangle.h Pages: 1 -->
<svg width="5621pt" height="385pt"
 viewBox="0.00 0.00 5621.28 385.00" xmlns="http://www.w3.org/2000/svg" xmlns:xlink="http://www.w3.org/1999/xlink">
<g id="graph0" class="graph" transform="scale(1 1) rotate(0) translate(4 381)">
<title>src/libs/vpatterndb/variables/vcurveangle.h</title>
<polygon fill="white" stroke="transparent" points="-4,4 -4,-381 5617.28,-381 5617.28,4 -4,4"/>
<!-- Node1 -->
<g id="node1" class="node">
<title>Node1</title>
<g id="a_node1"><a xlink:title=" ">
<polygon fill="#bfbfbf" stroke="black" points="222,-346.5 222,-376.5 359,-376.5 359,-346.5 222,-346.5"/>
<text text-anchor="start" x="230" y="-364.5" font-family="Helvetica,sans-Serif" font-size="10.00">src/libs/vpatterndb</text>
<text text-anchor="middle" x="290.5" y="-353.5" font-family="Helvetica,sans-Serif" font-size="10.00">/variables/vcurveangle.h</text>
</a>
</g>
</g>
<!-- Node2 -->
<g id="node2" class="node">
<title>Node2</title>
<g id="a_node2"><a xlink:href="../../df/db3/vcurveangle_8cpp.html" target="_top" xlink:title=" ">
<polygon fill="white" stroke="black" points="114.5,-279.5 114.5,-309.5 262.5,-309.5 262.5,-279.5 114.5,-279.5"/>
<text text-anchor="start" x="122.5" y="-297.5" font-family="Helvetica,sans-Serif" font-size="10.00">src/libs/vpatterndb</text>
<text text-anchor="middle" x="188.5" y="-286.5" font-family="Helvetica,sans-Serif" font-size="10.00">/variables/vcurveangle.cpp</text>
</a>
</g>
</g>
<!-- Node1&#45;&gt;Node2 -->
<g id="edge1" class="edge">
<title>Node1&#45;&gt;Node2</title>
<path fill="none" stroke="midnightblue" d="M259.92,-341.02C244.05,-330.9 225.02,-318.77 210.59,-309.58"/>
<polygon fill="midnightblue" stroke="midnightblue" points="258.05,-343.97 268.37,-346.4 261.82,-338.07 258.05,-343.97"/>
</g>
<!-- Node3 -->
<g id="node3" class="node">
<title>Node3</title>
<g id="a_node3"><a xlink:href="../../d6/d46/vcontainer_8cpp.html" target="_top" xlink:title=" ">
<polygon fill="white" stroke="black" points="0,-67.5 0,-97.5 107,-97.5 107,-67.5 0,-67.5"/>
<text text-anchor="start" x="8" y="-85.5" font-family="Helvetica,sans-Serif" font-size="10.00">src/libs/vpatterndb</text>
<text text-anchor="middle" x="53.5" y="-74.5" font-family="Helvetica,sans-Serif" font-size="10.00">/vcontainer.cpp</text>
</a>
</g>
</g>
<!-- Node1&#45;&gt;Node3 -->
<g id="edge2" class="edge">
<title>Node1&#45;&gt;Node3</title>
<path fill="none" stroke="midnightblue" d="M288.69,-336.05C286.53,-319.06 281.82,-296.44 271.5,-279 221.4,-194.35 122.49,-125.97 77.18,-97.63"/>
<polygon fill="midnightblue" stroke="midnightblue" points="285.24,-336.71 289.77,-346.28 292.2,-335.97 285.24,-336.71"/>
</g>
<!-- Node4 -->
<g id="node4" class="node">
<title>Node4</title>
<g id="a_node4"><a xlink:href="../../de/dca/variables_8h.html" target="_top" xlink:title=" ">
<polygon fill="white" stroke="black" points="2013,-279.5 2013,-309.5 2120,-309.5 2120,-279.5 2013,-279.5"/>
<text text-anchor="start" x="2021" y="-297.5" font-family="Helvetica,sans-Serif" font-size="10.00">src/libs/vpatterndb</text>
<text text-anchor="middle" x="2066.5" y="-286.5" font-family="Helvetica,sans-Serif" font-size="10.00">/variables.h</text>
</a>
</g>
</g>
<!-- Node1&#45;&gt;Node4 -->
<g id="edge3" class="edge">
<title>Node1&#45;&gt;Node4</title>
<path fill="none" stroke="midnightblue" d="M369.04,-357.63C671.63,-346.55 1757.73,-306.8 2012.67,-297.47"/>
<polygon fill="midnightblue" stroke="midnightblue" points="368.9,-354.13 359.03,-357.99 369.15,-361.12 368.9,-354.13"/>
</g>
<!-- Node5 -->
<g id="node5" class="node">
<title>Node5</title>
<g id="a_node5"><a xlink:href="../../d3/df7/vcontainer_8h.html" target="_top" xlink:title=" ">
<polygon fill="white" stroke="black" points="3636,-212.5 3636,-242.5 3743,-242.5 3743,-212.5 3636,-212.5"/>
<text text-anchor="start" x="3644" y="-230.5" font-family="Helvetica,sans-Serif" font-size="10.00">src/libs/vpatterndb</text>
<text text-anchor="middle" x="3689.5" y="-219.5" font-family="Helvetica,sans-Serif" font-size="10.00">/vcontainer.h</text>
</a>
</g>
</g>
<!-- Node4&#45;&gt;Node5 -->
<g id="edge4" class="edge">
<title>Node4&#45;&gt;Node5</title>
<path fill="none" stroke="midnightblue" d="M2130.18,-290.95C2393.13,-280.42 3391.99,-240.41 3635.65,-230.66"/>
<polygon fill="midnightblue" stroke="midnightblue" points="2129.89,-287.46 2120.04,-291.36 2130.17,-294.45 2129.89,-287.46"/>
</g>
<!-- Node5&#45;&gt;Node3 -->
<g id="edge54" class="edge">
<title>Node5&#45;&gt;Node3</title>
<path fill="none" stroke="midnightblue" d="M3625.51,-226.22C3347.43,-224.78 2216.37,-216.61 1288.5,-176 766.96,-153.17 632.96,-174.12 116.5,-98 113.39,-97.54 110.21,-97.01 107.01,-96.43"/>
<polygon fill="midnightblue" stroke="midnightblue" points="3625.79,-229.72 3635.81,-226.27 3625.83,-222.72 3625.79,-229.72"/>
</g>
<!-- Node6 -->
<g id="node6" class="node">
<title>Node6</title>
<g id="a_node6"><a xlink:href="../../dc/db7/measurements_8h.html" target="_top" xlink:title=" ">
<polygon fill="white" stroke="black" points="4358,-145.5 4358,-164.5 4537,-164.5 4537,-145.5 4358,-145.5"/>
<text text-anchor="middle" x="4447.5" y="-152.5" font-family="Helvetica,sans-Serif" font-size="10.00">src/libs/vformat/measurements.h</text>
</a>
</g>
</g>
<!-- Node5&#45;&gt;Node6 -->
<g id="edge5" class="edge">
<title>Node5&#45;&gt;Node6</title>
<path fill="none" stroke="midnightblue" d="M3753.36,-223.97C3870.67,-218.78 4128.22,-204.92 4343.5,-176 4365.19,-173.09 4389.18,-168.56 4408.66,-164.55"/>
<polygon fill="midnightblue" stroke="midnightblue" points="3752.96,-220.48 3743.12,-224.41 3753.27,-227.47 3752.96,-220.48"/>
</g>
<!-- Node7 -->
<g id="node7" class="node">
<title>Node7</title>
<g id="a_node7"><a xlink:href="../../d9/de3/measurements_8cpp.html" target="_top" xlink:title=" ">
<polygon fill="white" stroke="black" points="4319.5,-73 4319.5,-92 4509.5,-92 4509.5,-73 4319.5,-73"/>
<text text-anchor="middle" x="4414.5" y="-80" font-family="Helvetica,sans-Serif" font-size="10.00">src/libs/vformat/measurements.cpp</text>
</a>
</g>
</g>
<!-- Node5&#45;&gt;Node7 -->
<g id="edge7" class="edge">
<title>Node5&#45;&gt;Node7</title>
<path fill="none" stroke="midnightblue" d="M3753.4,-226.61C3890.47,-225.98 4208.19,-219.69 4305.5,-176 4330.16,-164.93 4329.02,-151.65 4349.5,-134 4367.47,-118.51 4389.47,-101.88 4402.71,-92.09"/>
<polygon fill="midnightblue" stroke="midnightblue" points="3753.05,-223.11 3743.06,-226.64 3753.08,-230.11 3753.05,-223.11"/>
</g>
<!-- Node8 -->
<g id="node8" class="node">
<title>Node8</title>
<g id="a_node8"><a xlink:href="../../d6/de0/vlayoutpiece_8h.html" target="_top" xlink:title=" ">
<polygon fill="white" stroke="black" points="4904.5,-145.5 4904.5,-164.5 5070.5,-164.5 5070.5,-145.5 4904.5,-145.5"/>
<text text-anchor="middle" x="4987.5" y="-152.5" font-family="Helvetica,sans-Serif" font-size="10.00">src/libs/vlayout/vlayoutpiece.h</text>
</a>
</g>
</g>
<!-- Node5&#45;&gt;Node8 -->
<g id="edge8" class="edge">
<title>Node5&#45;&gt;Node8</title>
<path fill="none" stroke="midnightblue" d="M3753.37,-223.03C3968.01,-211.37 4663.43,-173.6 4904.39,-160.51"/>
<polygon fill="midnightblue" stroke="midnightblue" points="3753.01,-219.55 3743.21,-223.58 3753.39,-226.54 3753.01,-219.55"/>
</g>
<!-- Node18 -->
<g id="node17" class="node">
<title>Node18</title>
<g id="a_node17"><a xlink:href="../../d8/d70/vtextmanager_8cpp.html" target="_top" xlink:title=" ">
<polygon fill="white" stroke="black" points="125.5,-73 125.5,-92 307.5,-92 307.5,-73 125.5,-73"/>
<text text-anchor="middle" x="216.5" y="-80" font-family="Helvetica,sans-Serif" font-size="10.00">src/libs/vlayout/vtextmanager.cpp</text>
</a>
</g>
</g>
<!-- Node5&#45;&gt;Node18 -->
<g id="edge19" class="edge">
<title>Node5&#45;&gt;Node18</title>
<path fill="none" stroke="midnightblue" d="M3625.66,-225.12C3405.53,-220.25 2657.73,-202.68 2040.5,-176 1706.07,-161.54 1622.87,-149.71 1288.5,-134 868.66,-114.28 762.6,-129.86 343.5,-98 323.7,-96.49 302.22,-94.27 282.65,-92.01"/>
<polygon fill="midnightblue" stroke="midnightblue" points="3625.67,-228.62 3635.74,-225.35 3625.82,-221.63 3625.67,-228.62"/>
</g>
<!-- Node19 -->
<g id="node18" class="node">
<title>Node19</title>
<g id="a_node18"><a xlink:href="../../d5/d74/vabstractapplication_8h.html" target="_top" xlink:title=" ">
<polygon fill="white" stroke="red" points="2050,-145.5 2050,-164.5 2245,-164.5 2245,-145.5 2050,-145.5"/>
<text text-anchor="middle" x="2147.5" y="-152.5" font-family="Helvetica,sans-Serif" font-size="10.00">src/libs/vmisc/vabstractapplication.h</text>
</a>
</g>
</g>
<!-- Node5&#45;&gt;Node19 -->
<g id="edge20" class="edge">
<title>Node5&#45;&gt;Node19</title>
<path fill="none" stroke="midnightblue" d="M3625.67,-223.58C3385.48,-212.6 2534.99,-173.72 2245.11,-160.46"/>
<polygon fill="midnightblue" stroke="midnightblue" points="3625.82,-227.09 3635.97,-224.05 3626.14,-220.1 3625.82,-227.09"/>
</g>
<!-- Node37 -->
<g id="node32" class="node">
<title>Node37</title>
<g id="a_node32"><a xlink:href="../../db/d11/vformula_8cpp.html" target="_top" xlink:title=" ">
<polygon fill="white" stroke="black" points="3837,-67.5 3837,-97.5 3944,-97.5 3944,-67.5 3837,-67.5"/>
<text text-anchor="start" x="3845" y="-85.5" font-family="Helvetica,sans-Serif" font-size="10.00">src/libs/vpatterndb</text>
<text text-anchor="middle" x="3890.5" y="-74.5" font-family="Helvetica,sans-Serif" font-size="10.00">/vformula.cpp</text>
</a>
</g>
</g>
<!-- Node5&#45;&gt;Node37 -->
<g id="edge53" class="edge">
<title>Node5&#45;&gt;Node37</title>
<path fill="none" stroke="midnightblue" d="M3625.8,-227.34C3531.34,-227.07 3361.09,-220.26 3322.5,-176 3310.23,-161.93 3309.78,-147.66 3322.5,-134 3360.84,-92.83 3771.87,-106.33 3827.5,-98 3830.61,-97.53 3833.79,-97 3836.99,-96.41"/>
<polygon fill="midnightblue" stroke="midnightblue" points="3625.81,-230.84 3635.82,-227.35 3625.82,-223.84 3625.81,-230.84"/>
</g>
<!-- Node38 -->
<g id="node33" class="node">
<title>Node38</title>
<g id="a_node33"><a xlink:href="../../df/d7a/vpiece_8cpp.html" target="_top" xlink:title=" ">
<polygon fill="white" stroke="black" points="3962,-67.5 3962,-97.5 4069,-97.5 4069,-67.5 3962,-67.5"/>
<text text-anchor="start" x="3970" y="-85.5" font-family="Helvetica,sans-Serif" font-size="10.00">src/libs/vpatterndb</text>
<text text-anchor="middle" x="4015.5" y="-74.5" font-family="Helvetica,sans-Serif" font-size="10.00">/vpiece.cpp</text>
</a>
</g>
</g>
<!-- Node5&#45;&gt;Node38 -->
<g id="edge56" class="edge">
<title>Node5&#45;&gt;Node38</title>
<path fill="none" stroke="midnightblue" d="M3625.84,-226.33C3538.84,-224.59 3389.67,-215.72 3355.5,-176 3343.33,-161.85 3342.7,-147.59 3355.5,-134 3401.13,-85.54 3887.63,-107.61 3953.5,-98 3956.23,-97.6 3959.03,-97.14 3961.84,-96.64"/>
<polygon fill="midnightblue" stroke="midnightblue" points="3625.81,-229.83 3635.87,-226.51 3625.94,-222.83 3625.81,-229.83"/>
</g>
<!-- Node40 -->
<g id="node35" class="node">
<title>Node40</title>
<g id="a_node35"><a xlink:href="../../d8/dba/vpiecenode_8cpp.html" target="_top" xlink:title=" ">
<polygon fill="white" stroke="black" points="2935,-0.5 2935,-30.5 3042,-30.5 3042,-0.5 2935,-0.5"/>
<text text-anchor="start" x="2943" y="-18.5" font-family="Helvetica,sans-Serif" font-size="10.00">src/libs/vpatterndb</text>
<text text-anchor="middle" x="2988.5" y="-7.5" font-family="Helvetica,sans-Serif" font-size="10.00">/vpiecenode.cpp</text>
</a>
</g>
</g>
<!-- Node5&#45;&gt;Node40 -->
<g id="edge57" class="edge">
<title>Node5&#45;&gt;Node40</title>
<path fill="none" stroke="midnightblue" d="M3753.49,-225.69C3897.59,-223.22 4237.72,-213.43 4272.5,-176 4305.47,-140.51 4307.08,-101.92 4273.5,-67 4230.2,-21.96 3279.9,-17.08 3042.08,-16.56"/>
<polygon fill="midnightblue" stroke="midnightblue" points="3753.4,-222.2 3743.46,-225.86 3753.51,-229.19 3753.4,-222.2"/>
</g>
<!-- Node57 -->
<g id="node45" class="node">
<title>Node57</title>
<g id="a_node45"><a xlink:href="../../d3/d02/custom__variable__p_8h.html" target="_top" xlink:title=" ">
<polygon fill="white" stroke="red" points="3364,-140 3364,-170 3533,-170 3533,-140 3364,-140"/>
<text text-anchor="start" x="3372" y="-158" font-family="Helvetica,sans-Serif" font-size="10.00">src/libs/vpatterndb</text>
<text text-anchor="middle" x="3448.5" y="-147" font-family="Helvetica,sans-Serif" font-size="10.00">/variables/custom_variable_p.h</text>
</a>
</g>
</g>
<!-- Node5&#45;&gt;Node57 -->
<g id="edge51" class="edge">
<title>Node5&#45;&gt;Node57</title>
<path fill="none" stroke="midnightblue" d="M3631.95,-209.66C3590.68,-197.59 3535.7,-181.51 3496.72,-170.11"/>
<polygon fill="midnightblue" stroke="midnightblue" points="3631.02,-213.04 3641.6,-212.49 3632.98,-206.32 3631.02,-213.04"/>
</g>
<!-- Node59 -->
<g id="node46" class="node">
<title>Node59</title>
<g id="a_node46"><a xlink:href="../../d7/d8a/measurement__variable__p_8h.html" target="_top" xlink:title=" ">
<polygon fill="white" stroke="red" points="3551.5,-134.5 3551.5,-175.5 3687.5,-175.5 3687.5,-134.5 3551.5,-134.5"/>
<text text-anchor="start" x="3559.5" y="-163.5" font-family="Helvetica,sans-Serif" font-size="10.00">src/libs/vpatterndb</text>
<text text-anchor="start" x="3559.5" y="-152.5" font-family="Helvetica,sans-Serif" font-size="10.00">/variables/measurement</text>
<text text-anchor="middle" x="3619.5" y="-141.5" font-family="Helvetica,sans-Serif" font-size="10.00">_variable_p.h</text>
</a>
</g>
</g>
<!-- Node5&#45;&gt;Node59 -->
<g id="edge52" class="edge">
<title>Node5&#45;&gt;Node59</title>
<path fill="none" stroke="midnightblue" d="M3668.25,-205.1C3658.93,-195.71 3648.06,-184.76 3638.95,-175.59"/>
<polygon fill="midnightblue" stroke="midnightblue" points="3665.8,-207.6 3675.33,-212.23 3670.77,-202.67 3665.8,-207.6"/>
</g>
<!-- Node61 -->
<g id="node47" class="node">
<title>Node61</title>
<g id="a_node47"><a xlink:href="../../d6/d91/vnodedetail_8cpp.html" target="_top" xlink:title=" ">
<polygon fill="white" stroke="black" points="3706,-140 3706,-170 3813,-170 3813,-140 3706,-140"/>
<text text-anchor="start" x="3714" y="-158" font-family="Helvetica,sans-Serif" font-size="10.00">src/libs/vpatterndb</text>
<text text-anchor="middle" x="3759.5" y="-147" font-family="Helvetica,sans-Serif" font-size="10.00">/vnodedetail.cpp</text>
</a>
</g>
</g>
<!-- Node5&#45;&gt;Node61 -->
<g id="edge55" class="edge">
<title>Node5&#45;&gt;Node61</title>
<path fill="none" stroke="midnightblue" d="M3710.98,-204.86C3722.15,-193.61 3735.49,-180.18 3745.36,-170.25"/>
<polygon fill="midnightblue" stroke="midnightblue" points="3708.23,-202.67 3703.67,-212.23 3713.2,-207.6 3708.23,-202.67"/>
</g>
<!-- Node62 -->
<g id="node48" class="node">
<title>Node62</title>
<g id="a_node48"><a xlink:href="../../da/de1/vpiecepath_8cpp.html" target="_top" xlink:title=" ">
<polygon fill="white" stroke="black" points="3831,-140 3831,-170 3938,-170 3938,-140 3831,-140"/>
<text text-anchor="start" x="3839" y="-158" font-family="Helvetica,sans-Serif" font-size="10.00">src/libs/vpatterndb</text>
<text text-anchor="middle" x="3884.5" y="-147" font-family="Helvetica,sans-Serif" font-size="10.00">/vpiecepath.cpp</text>
</a>
</g>
</g>
<!-- Node5&#45;&gt;Node62 -->
<g id="edge58" class="edge">
<title>Node5&#45;&gt;Node62</title>
<path fill="none" stroke="midnightblue" d="M3738,-208.96C3771.2,-196.96 3814.64,-181.26 3845.58,-170.07"/>
<polygon fill="midnightblue" stroke="midnightblue" points="3736.71,-205.71 3728.49,-212.4 3739.09,-212.29 3736.71,-205.71"/>
</g>
<!-- Node63 -->
<g id="node49" class="node">
<title>Node63</title>
<g id="a_node49"><a xlink:href="../../d1/d3a/abstracttest_8cpp.html" target="_top" xlink:title=" ">
<polygon fill="white" stroke="black" points="3956,-145.5 3956,-164.5 4117,-164.5 4117,-145.5 3956,-145.5"/>
<text text-anchor="middle" x="4036.5" y="-152.5" font-family="Helvetica,sans-Serif" font-size="10.00">src/libs/vtest/abstracttest.cpp</text>
</a>
</g>
</g>
<!-- Node5&#45;&gt;Node63 -->
<g id="edge59" class="edge">
<title>Node5&#45;&gt;Node63</title>
<path fill="none" stroke="midnightblue" d="M3753.58,-214.47C3805.85,-204.53 3881.55,-189.86 3947.5,-176 3964.7,-172.38 3983.72,-168.14 3999.74,-164.5"/>
<polygon fill="midnightblue" stroke="midnightblue" points="3752.62,-211.09 3743.45,-216.39 3753.93,-217.97 3752.62,-211.09"/>
</g>
<!-- Node64 -->
<g id="node50" class="node">
<title>Node64</title>
<g id="a_node50"><a xlink:href="../../da/db4/piece__tablewidgetitem_8cpp.html" target="_top" xlink:title=" ">
<polygon fill="white" stroke="black" points="4135.5,-140 4135.5,-170 4263.5,-170 4263.5,-140 4135.5,-140"/>
<text text-anchor="start" x="4143.5" y="-158" font-family="Helvetica,sans-Serif" font-size="10.00">src/libs/vwidgets/piece</text>
<text text-anchor="middle" x="4199.5" y="-147" font-family="Helvetica,sans-Serif" font-size="10.00">_tablewidgetitem.cpp</text>
</a>
</g>
</g>
<!-- Node5&#45;&gt;Node64 -->
<g id="edge60" class="edge">
<title>Node5&#45;&gt;Node64</title>
<path fill="none" stroke="midnightblue" d="M3753.11,-222.2C3838.59,-215.73 3995.01,-201.46 4126.5,-176 4134.89,-174.38 4143.72,-172.29 4152.23,-170.08"/>
<polygon fill="midnightblue" stroke="midnightblue" points="3752.76,-218.72 3743.04,-222.95 3753.28,-225.7 3752.76,-218.72"/>
</g>
<!-- Node6&#45;&gt;Node7 -->
<g id="edge6" class="edge">
<title>Node6&#45;&gt;Node7</title>
<path fill="none" stroke="midnightblue" d="M4439.16,-136.18C4432.58,-122.13 4423.69,-103.14 4418.58,-92.22"/>
<polygon fill="midnightblue" stroke="midnightblue" points="4436.04,-137.78 4443.45,-145.36 4442.38,-134.81 4436.04,-137.78"/>
</g>
<!-- Node9 -->
<g id="node9" class="node">
<title>Node9</title>
<g id="a_node9"><a xlink:href="../../dd/d66/vdxfengine_8cpp.html" target="_top" xlink:title=" ">
<polygon fill="white" stroke="black" points="4743.5,-73 4743.5,-92 4897.5,-92 4897.5,-73 4743.5,-73"/>
<text text-anchor="middle" x="4820.5" y="-80" font-family="Helvetica,sans-Serif" font-size="10.00">src/libs/vdxf/vdxfengine.cpp</text>
</a>
</g>
</g>
<!-- Node8&#45;&gt;Node9 -->
<g id="edge9" class="edge">
<title>Node8&#45;&gt;Node9</title>
<path fill="none" stroke="midnightblue" d="M4958.01,-141.55C4924.29,-127.32 4869.97,-104.38 4840.72,-92.03"/>
<polygon fill="midnightblue" stroke="midnightblue" points="4956.78,-144.83 4967.36,-145.5 4959.5,-138.38 4956.78,-144.83"/>
</g>
<!-- Node10 -->
<g id="node10" class="node">
<title>Node10</title>
<g id="a_node10"><a xlink:href="../../de/da8/vbank_8cpp.html" target="_top" xlink:title=" ">
<polygon fill="white" stroke="black" points="4915.5,-73 4915.5,-92 5059.5,-92 5059.5,-73 4915.5,-73"/>
<text text-anchor="middle" x="4987.5" y="-80" font-family="Helvetica,sans-Serif" font-size="10.00">src/libs/vlayout/vbank.cpp</text>
</a>
</g>
</g>
<!-- Node8&#45;&gt;Node10 -->
<g id="edge10" class="edge">
<title>Node8&#45;&gt;Node10</title>
<path fill="none" stroke="midnightblue" d="M4987.5,-134.94C4987.5,-121.03 4987.5,-102.82 4987.5,-92.22"/>
<polygon fill="midnightblue" stroke="midnightblue" points="4984,-135.36 4987.5,-145.36 4991,-135.36 4984,-135.36"/>
</g>
<!-- Node11 -->
<g id="node11" class="node">
<title>Node11</title>
<g id="a_node11"><a xlink:href="../../df/d5d/vcontour_8cpp.html" target="_top" xlink:title=" ">
<polygon fill="white" stroke="black" points="5077.5,-73 5077.5,-92 5233.5,-92 5233.5,-73 5077.5,-73"/>
<text text-anchor="middle" x="5155.5" y="-80" font-family="Helvetica,sans-Serif" font-size="10.00">src/libs/vlayout/vcontour.cpp</text>
</a>
</g>
</g>
<!-- Node8&#45;&gt;Node11 -->
<g id="edge11" class="edge">
<title>Node8&#45;&gt;Node11</title>
<path fill="none" stroke="midnightblue" d="M5017.16,-141.55C5051.09,-127.32 5105.73,-104.38 5135.16,-92.03"/>
<polygon fill="midnightblue" stroke="midnightblue" points="5015.63,-138.4 5007.76,-145.5 5018.34,-144.85 5015.63,-138.4"/>
</g>
<!-- Node12 -->
<g id="node12" class="node">
<title>Node12</title>
<g id="a_node12"><a xlink:href="../../d2/d2d/vlayoutpaper__p_8h.html" target="_top" xlink:title=" ">
<polygon fill="white" stroke="black" points="5252,-73 5252,-92 5431,-92 5431,-73 5252,-73"/>
<text text-anchor="middle" x="5341.5" y="-80" font-family="Helvetica,sans-Serif" font-size="10.00">src/libs/vlayout/vlayoutpaper_p.h</text>
</a>
</g>
</g>
<!-- Node8&#45;&gt;Node12 -->
<g id="edge12" class="edge">
<title>Node8&#45;&gt;Node12</title>
<path fill="none" stroke="midnightblue" d="M5040.18,-143.51C5110.5,-129.5 5233.71,-104.97 5298.65,-92.03"/>
<polygon fill="midnightblue" stroke="midnightblue" points="5039.32,-140.11 5030.2,-145.5 5040.69,-146.98 5039.32,-140.11"/>
</g>
<!-- Node13 -->
<g id="node13" class="node">
<title>Node13</title>
<g id="a_node13"><a xlink:href="../../d1/dd1/vlayoutpaper_8cpp.html" target="_top" xlink:title=" ">
<polygon fill="white" stroke="black" points="5434.5,-6 5434.5,-25 5612.5,-25 5612.5,-6 5434.5,-6"/>
<text text-anchor="middle" x="5523.5" y="-13" font-family="Helvetica,sans-Serif" font-size="10.00">src/libs/vlayout/vlayoutpaper.cpp</text>
</a>
</g>
</g>
<!-- Node8&#45;&gt;Node13 -->
<g id="edge15" class="edge">
<title>Node8&#45;&gt;Node13</title>
<path fill="none" stroke="midnightblue" d="M5080.86,-152.34C5245.12,-148.46 5571.79,-135.99 5606.5,-98 5631.9,-70.19 5576.24,-39.65 5544.15,-25.11"/>
<polygon fill="midnightblue" stroke="midnightblue" points="5080.68,-148.85 5070.76,-152.58 5080.84,-155.85 5080.68,-148.85"/>
</g>
<!-- Node14 -->
<g id="node14" class="node">
<title>Node14</title>
<g id="a_node14"><a xlink:href="../../d3/d39/vlayoutgenerator_8cpp.html" target="_top" xlink:title=" ">
<polygon fill="white" stroke="black" points="4528,-73 4528,-92 4725,-92 4725,-73 4528,-73"/>
<text text-anchor="middle" x="4626.5" y="-80" font-family="Helvetica,sans-Serif" font-size="10.00">src/libs/vlayout/vlayoutgenerator.cpp</text>
</a>
</g>
</g>
<!-- Node8&#45;&gt;Node14 -->
<g id="edge14" class="edge">
<title>Node8&#45;&gt;Node14</title>
<path fill="none" stroke="midnightblue" d="M4933.78,-143.51C4862.07,-129.5 4736.43,-104.97 4670.2,-92.03"/>
<polygon fill="midnightblue" stroke="midnightblue" points="4933.47,-147.01 4943.95,-145.5 4934.81,-140.14 4933.47,-147.01"/>
</g>
<!-- Node15 -->
<g id="node15" class="node">
<title>Node15</title>
<g id="a_node15"><a xlink:href="../../db/d5c/vposition_8h.html" target="_top" xlink:title=" ">
<polygon fill="white" stroke="red" points="5449.5,-73 5449.5,-92 5597.5,-92 5597.5,-73 5449.5,-73"/>
<text text-anchor="middle" x="5523.5" y="-80" font-family="Helvetica,sans-Serif" font-size="10.00">src/libs/vlayout/vposition.h</text>
</a>
</g>
</g>
<!-- Node8&#45;&gt;Node15 -->
<g id="edge16" class="edge">
<title>Node8&#45;&gt;Node15</title>
<path fill="none" stroke="midnightblue" d="M5076.27,-144.35C5167.73,-134.1 5314.34,-116.81 5440.5,-98 5452.36,-96.23 5465.14,-94.11 5477.03,-92.04"/>
<polygon fill="midnightblue" stroke="midnightblue" points="5075.77,-140.89 5066.23,-145.48 5076.55,-147.84 5075.77,-140.89"/>
</g>
<!-- Node17 -->
<g id="node16" class="node">
<title>Node17</title>
<g id="a_node16"><a xlink:href="../../dd/d70/vlayoutpiece_8cpp.html" target="_top" xlink:title=" ">
<polygon fill="white" stroke="black" points="4087,-73 4087,-92 4264,-92 4264,-73 4087,-73"/>
<text text-anchor="middle" x="4175.5" y="-80" font-family="Helvetica,sans-Serif" font-size="10.00">src/libs/vlayout/vlayoutpiece.cpp</text>
</a>
</g>
</g>
<!-- Node8&#45;&gt;Node17 -->
<g id="edge18" class="edge">
<title>Node8&#45;&gt;Node17</title>
<path fill="none" stroke="midnightblue" d="M4893.96,-146.99C4763.28,-137.03 4518.69,-117.79 4310.5,-98 4291.49,-96.19 4271,-94.08 4251.86,-92.03"/>
<polygon fill="midnightblue" stroke="midnightblue" points="4894.09,-150.51 4904.33,-147.78 4894.62,-143.53 4894.09,-150.51"/>
</g>
<!-- Node12&#45;&gt;Node13 -->
<g id="edge13" class="edge">
<title>Node12&#45;&gt;Node13</title>
<path fill="none" stroke="midnightblue" d="M5375.28,-69.44C5411.38,-56.54 5467.71,-36.42 5499.52,-25.06"/>
<polygon fill="midnightblue" stroke="midnightblue" points="5373.91,-66.21 5365.67,-72.87 5376.26,-72.8 5373.91,-66.21"/>
</g>
<!-- Node15&#45;&gt;Node13 -->
<g id="edge17" class="edge">
<title>Node15&#45;&gt;Node13</title>
<path fill="none" stroke="midnightblue" d="M5523.5,-62.54C5523.5,-50.17 5523.5,-34.62 5523.5,-25.13"/>
<polygon fill="midnightblue" stroke="midnightblue" points="5520,-62.73 5523.5,-72.73 5527,-62.73 5520,-62.73"/>
</g>
<!-- Node19&#45;&gt;Node3 -->
<g id="edge38" class="edge">
<title>Node19&#45;&gt;Node3</title>
<path fill="none" stroke="midnightblue" d="M2039.6,-151.31C1626.29,-140.99 164.55,-104.13 116.5,-98 113.49,-97.62 110.42,-97.15 107.33,-96.63"/>
<polygon fill="midnightblue" stroke="midnightblue" points="2039.68,-154.82 2049.76,-151.57 2039.85,-147.82 2039.68,-154.82"/>
</g>
<!-- Node19&#45;&gt;Node17 -->
<g id="edge31" class="edge">
<title>Node19&#45;&gt;Node17</title>
<path fill="none" stroke="midnightblue" d="M2255.3,-152.57C2607.2,-147.64 3720.3,-129.85 4078.5,-98 4094.1,-96.61 4111.02,-94.35 4126.29,-92.02"/>
<polygon fill="midnightblue" stroke="midnightblue" points="2255.06,-149.07 2245.11,-152.71 2255.16,-156.07 2255.06,-149.07"/>
</g>
<!-- Node19&#45;&gt;Node18 -->
<g id="edge32" class="edge">
<title>Node19&#45;&gt;Node18</title>
<path fill="none" stroke="midnightblue" d="M2039.27,-146.86C1970.61,-142.55 1879.87,-137.29 1799.5,-134 1142.97,-107.15 976.44,-151.03 321.5,-98 304.53,-96.63 286.12,-94.35 269.52,-92.01"/>
<polygon fill="midnightblue" stroke="midnightblue" points="2039.47,-150.38 2049.67,-147.51 2039.91,-143.39 2039.47,-150.38"/>
</g>
<!-- Node20 -->
<g id="node19" class="node">
<title>Node20</title>
<g id="a_node19"><a xlink:href="../../d4/d90/fvupdater_8cpp.html" target="_top" xlink:title=" ">
<polygon fill="white" stroke="black" points="808,-73 808,-92 961,-92 961,-73 808,-73"/>
<text text-anchor="middle" x="884.5" y="-80" font-family="Helvetica,sans-Serif" font-size="10.00">src/libs/fervor/fvupdater.cpp</text>
</a>
</g>
</g>
<!-- Node19&#45;&gt;Node20 -->
<g id="edge21" class="edge">
<title>Node19&#45;&gt;Node20</title>
<path fill="none" stroke="midnightblue" d="M2039.25,-147.39C1970.57,-143.29 1879.84,-138.05 1799.5,-134 1430.73,-115.41 1336.66,-137.12 969.5,-98 955.95,-96.56 941.3,-94.31 928.03,-92.01"/>
<polygon fill="midnightblue" stroke="midnightblue" points="2039.45,-150.9 2049.64,-148.01 2039.87,-143.92 2039.45,-150.9"/>
</g>
<!-- Node21 -->
<g id="node20" class="node">
<title>Node21</title>
<g id="a_node20"><a xlink:href="../../d9/dc8/dxiface_8cpp.html" target="_top" xlink:title=" ">
<polygon fill="white" stroke="black" points="979,-73 979,-92 1114,-92 1114,-73 979,-73"/>
<text text-anchor="middle" x="1046.5" y="-80" font-family="Helvetica,sans-Serif" font-size="10.00">src/libs/vdxf/dxiface.cpp</text>
</a>
</g>
</g>
<!-- Node19&#45;&gt;Node21 -->
<g id="edge22" class="edge">
<title>Node19&#45;&gt;Node21</title>
<path fill="none" stroke="midnightblue" d="M2039.23,-147.66C1970.55,-143.66 1879.82,-138.44 1799.5,-134 1498.65,-117.36 1421.62,-134.32 1122.5,-98 1110.5,-96.54 1097.54,-94.32 1085.79,-92.05"/>
<polygon fill="midnightblue" stroke="midnightblue" points="2039.44,-151.18 2049.63,-148.26 2039.85,-144.19 2039.44,-151.18"/>
</g>
<!-- Node22 -->
<g id="node21" class="node">
<title>Node22</title>
<g id="a_node21"><a xlink:href="../../da/d75/vabstractarc__p_8h.html" target="_top" xlink:title=" ">
<polygon fill="white" stroke="red" points="1132,-67.5 1132,-97.5 1239,-97.5 1239,-67.5 1132,-67.5"/>
<text text-anchor="start" x="1140" y="-85.5" font-family="Helvetica,sans-Serif" font-size="10.00">src/libs/vgeometry</text>
<text text-anchor="middle" x="1185.5" y="-74.5" font-family="Helvetica,sans-Serif" font-size="10.00">/vabstractarc_p.h</text>
</a>
</g>
</g>
<!-- Node19&#45;&gt;Node22 -->
<g id="edge23" class="edge">
<title>Node19&#45;&gt;Node22</title>
<path fill="none" stroke="midnightblue" d="M2039.82,-147.78C1809.36,-134.41 1286.06,-103.67 1247.5,-98 1244.77,-97.6 1241.97,-97.14 1239.16,-96.63"/>
<polygon fill="midnightblue" stroke="midnightblue" points="2039.71,-151.28 2049.9,-148.37 2040.12,-144.29 2039.71,-151.28"/>
</g>
<!-- Node24 -->
<g id="node22" class="node">
<title>Node24</title>
<g id="a_node22"><a xlink:href="../../dc/da3/varc__p_8h.html" target="_top" xlink:title=" ">
<polygon fill="white" stroke="red" points="1382,-67.5 1382,-97.5 1489,-97.5 1489,-67.5 1382,-67.5"/>
<text text-anchor="start" x="1390" y="-85.5" font-family="Helvetica,sans-Serif" font-size="10.00">src/libs/vgeometry</text>
<text text-anchor="middle" x="1435.5" y="-74.5" font-family="Helvetica,sans-Serif" font-size="10.00">/varc_p.h</text>
</a>
</g>
</g>
<!-- Node19&#45;&gt;Node24 -->
<g id="edge24" class="edge">
<title>Node19&#45;&gt;Node24</title>
<path fill="none" stroke="midnightblue" d="M2039.48,-149.45C1910.03,-142.91 1686.86,-128.14 1497.5,-98 1494.77,-97.57 1491.98,-97.08 1489.18,-96.55"/>
<polygon fill="midnightblue" stroke="midnightblue" points="2039.62,-152.96 2049.79,-149.97 2039.97,-145.97 2039.62,-152.96"/>
</g>
<!-- Node26 -->
<g id="node23" class="node">
<title>Node26</title>
<g id="a_node23"><a xlink:href="../../d5/d8e/vcubicbezier__p_8h.html" target="_top" xlink:title=" ">
<polygon fill="white" stroke="red" points="1507,-67.5 1507,-97.5 1614,-97.5 1614,-67.5 1507,-67.5"/>
<text text-anchor="start" x="1515" y="-85.5" font-family="Helvetica,sans-Serif" font-size="10.00">src/libs/vgeometry</text>
<text text-anchor="middle" x="1560.5" y="-74.5" font-family="Helvetica,sans-Serif" font-size="10.00">/vcubicbezier_p.h</text>
</a>
</g>
</g>
<!-- Node19&#45;&gt;Node26 -->
<g id="edge25" class="edge">
<title>Node19&#45;&gt;Node26</title>
<path fill="none" stroke="midnightblue" d="M2039.65,-146.41C1933.14,-138 1765.86,-122.31 1622.5,-98 1619.78,-97.54 1616.99,-97.03 1614.19,-96.48"/>
<polygon fill="midnightblue" stroke="midnightblue" points="2039.52,-149.91 2049.76,-147.2 2040.07,-142.93 2039.52,-149.91"/>
</g>
<!-- Node28 -->
<g id="node24" class="node">
<title>Node28</title>
<g id="a_node24"><a xlink:href="../../df/dde/vellipticalarc__p_8h.html" target="_top" xlink:title=" ">
<polygon fill="white" stroke="black" points="1257,-67.5 1257,-97.5 1364,-97.5 1364,-67.5 1257,-67.5"/>
<text text-anchor="start" x="1265" y="-85.5" font-family="Helvetica,sans-Serif" font-size="10.00">src/libs/vgeometry</text>
<text text-anchor="middle" x="1310.5" y="-74.5" font-family="Helvetica,sans-Serif" font-size="10.00">/vellipticalarc_p.h</text>
</a>
</g>
</g>
<!-- Node19&#45;&gt;Node28 -->
<g id="edge26" class="edge">
<title>Node19&#45;&gt;Node28</title>
<path fill="none" stroke="midnightblue" d="M2039.66,-147.16C1842.15,-134.48 1436.65,-107.76 1372.5,-98 1369.77,-97.58 1366.98,-97.11 1364.17,-96.6"/>
<polygon fill="midnightblue" stroke="midnightblue" points="2039.57,-150.66 2049.77,-147.8 2040.01,-143.67 2039.57,-150.66"/>
</g>
<!-- Node29 -->
<g id="node25" class="node">
<title>Node29</title>
<g id="a_node25"><a xlink:href="../../d6/dfb/vellipticalarc_8cpp.html" target="_top" xlink:title=" ">
<polygon fill="white" stroke="black" points="770,-0.5 770,-30.5 877,-30.5 877,-0.5 770,-0.5"/>
<text text-anchor="start" x="778" y="-18.5" font-family="Helvetica,sans-Serif" font-size="10.00">src/libs/vgeometry</text>
<text text-anchor="middle" x="823.5" y="-7.5" font-family="Helvetica,sans-Serif" font-size="10.00">/vellipticalarc.cpp</text>
</a>
</g>
</g>
<!-- Node19&#45;&gt;Node29 -->
<g id="edge28" class="edge">
<title>Node19&#45;&gt;Node29</title>
<path fill="none" stroke="midnightblue" d="M2039.27,-146.87C1970.61,-142.57 1879.87,-137.31 1799.5,-134 1759.38,-132.35 382.54,-126.74 354.5,-98 344.88,-88.14 345.29,-77.25 354.5,-67 381.86,-36.54 652.73,-22.85 769.92,-18.32"/>
<polygon fill="midnightblue" stroke="midnightblue" points="2039.47,-150.39 2049.67,-147.53 2039.9,-143.4 2039.47,-150.39"/>
</g>
<!-- Node30 -->
<g id="node26" class="node">
<title>Node30</title>
<g id="a_node26"><a xlink:href="../../d1/d76/vspline__p_8h.html" target="_top" xlink:title=" ">
<polygon fill="white" stroke="red" points="1757,-67.5 1757,-97.5 1864,-97.5 1864,-67.5 1757,-67.5"/>
<text text-anchor="start" x="1765" y="-85.5" font-family="Helvetica,sans-Serif" font-size="10.00">src/libs/vgeometry</text>
<text text-anchor="middle" x="1810.5" y="-74.5" font-family="Helvetica,sans-Serif" font-size="10.00">/vspline_p.h</text>
</a>
</g>
</g>
<!-- Node19&#45;&gt;Node30 -->
<g id="edge29" class="edge">
<title>Node19&#45;&gt;Node30</title>
<path fill="none" stroke="midnightblue" d="M2093.84,-143.44C2038.55,-132.46 1949.88,-114.59 1873.5,-98 1870.43,-97.33 1867.28,-96.64 1864.1,-95.93"/>
<polygon fill="midnightblue" stroke="midnightblue" points="2093.28,-146.9 2103.77,-145.41 2094.64,-140.03 2093.28,-146.9"/>
</g>
<!-- Node32 -->
<g id="node27" class="node">
<title>Node32</title>
<g id="a_node27"><a xlink:href="../../d9/d15/vabstractpiece_8cpp.html" target="_top" xlink:title=" ">
<polygon fill="white" stroke="black" points="1882.5,-73 1882.5,-92 2068.5,-92 2068.5,-73 1882.5,-73"/>
<text text-anchor="middle" x="1975.5" y="-80" font-family="Helvetica,sans-Serif" font-size="10.00">src/libs/vlayout/vabstractpiece.cpp</text>
</a>
</g>
</g>
<!-- Node19&#45;&gt;Node32 -->
<g id="edge30" class="edge">
<title>Node19&#45;&gt;Node32</title>
<path fill="none" stroke="midnightblue" d="M2117.13,-141.55C2082.4,-127.32 2026.45,-104.38 1996.32,-92.03"/>
<polygon fill="midnightblue" stroke="midnightblue" points="2116.17,-144.94 2126.75,-145.5 2118.83,-138.46 2116.17,-144.94"/>
</g>
<!-- Node33 -->
<g id="node28" class="node">
<title>Node33</title>
<g id="a_node28"><a xlink:href="../../d6/d0b/def_8cpp.html" target="_top" xlink:title=" ">
<polygon fill="white" stroke="black" points="2086.5,-73 2086.5,-92 2208.5,-92 2208.5,-73 2086.5,-73"/>
<text text-anchor="middle" x="2147.5" y="-80" font-family="Helvetica,sans-Serif" font-size="10.00">src/libs/vmisc/def.cpp</text>
</a>
</g>
</g>
<!-- Node19&#45;&gt;Node33 -->
<g id="edge33" class="edge">
<title>Node19&#45;&gt;Node33</title>
<path fill="none" stroke="midnightblue" d="M2147.5,-134.94C2147.5,-121.03 2147.5,-102.82 2147.5,-92.22"/>
<polygon fill="midnightblue" stroke="midnightblue" points="2144,-135.36 2147.5,-145.36 2151,-135.36 2144,-135.36"/>
</g>
<!-- Node34 -->
<g id="node29" class="node">
<title>Node34</title>
<g id="a_node29"><a xlink:href="../../db/d65/dialogexporttocsv_8cpp.html" target="_top" xlink:title=" ">
<polygon fill="white" stroke="black" points="2227,-67.5 2227,-97.5 2354,-97.5 2354,-67.5 2227,-67.5"/>
<text text-anchor="start" x="2235" y="-85.5" font-family="Helvetica,sans-Serif" font-size="10.00">src/libs/vmisc/dialogs</text>
<text text-anchor="middle" x="2290.5" y="-74.5" font-family="Helvetica,sans-Serif" font-size="10.00">/dialogexporttocsv.cpp</text>
</a>
</g>
</g>
<!-- Node19&#45;&gt;Node34 -->
<g id="edge34" class="edge">
<title>Node19&#45;&gt;Node34</title>
<path fill="none" stroke="midnightblue" d="M2174,-140.93C2199.03,-128.59 2236.46,-110.14 2262.09,-97.51"/>
<polygon fill="midnightblue" stroke="midnightblue" points="2172.17,-137.93 2164.75,-145.5 2175.27,-144.21 2172.17,-137.93"/>
</g>
<!-- Node35 -->
<g id="node30" class="node">
<title>Node35</title>
<g id="a_node30"><a xlink:href="../../d0/df6/vabstractapplication_8cpp.html" target="_top" xlink:title=" ">
<polygon fill="white" stroke="black" points="2372.5,-73 2372.5,-92 2578.5,-92 2578.5,-73 2372.5,-73"/>
<text text-anchor="middle" x="2475.5" y="-80" font-family="Helvetica,sans-Serif" font-size="10.00">src/libs/vmisc/vabstractapplication.cpp</text>
</a>
</g>
</g>
<!-- Node19&#45;&gt;Node35 -->
<g id="edge35" class="edge">
<title>Node19&#45;&gt;Node35</title>
<path fill="none" stroke="midnightblue" d="M2197.11,-143.34C2262.4,-129.3 2375.87,-104.91 2435.8,-92.03"/>
<polygon fill="midnightblue" stroke="midnightblue" points="2196.11,-139.97 2187.06,-145.5 2197.58,-146.82 2196.11,-139.97"/>
</g>
<!-- Node36 -->
<g id="node31" class="node">
<title>Node36</title>
<g id="a_node31"><a xlink:href="../../d4/d4f/pmsystems_8cpp.html" target="_top" xlink:title=" ">
<polygon fill="white" stroke="black" points="2597,-67.5 2597,-97.5 2704,-97.5 2704,-67.5 2597,-67.5"/>
<text text-anchor="start" x="2605" y="-85.5" font-family="Helvetica,sans-Serif" font-size="10.00">src/libs/vpatterndb</text>
<text text-anchor="middle" x="2650.5" y="-74.5" font-family="Helvetica,sans-Serif" font-size="10.00">/pmsystems.cpp</text>
</a>
</g>
</g>
<!-- Node19&#45;&gt;Node36 -->
<g id="edge36" class="edge">
<title>Node19&#45;&gt;Node36</title>
<path fill="none" stroke="midnightblue" d="M2244.84,-144.43C2334.28,-134.96 2470.34,-118.88 2587.5,-98 2590.59,-97.45 2593.76,-96.84 2596.96,-96.21"/>
<polygon fill="midnightblue" stroke="midnightblue" points="2244.29,-140.96 2234.71,-145.49 2245.02,-147.93 2244.29,-140.96"/>
</g>
<!-- Node19&#45;&gt;Node37 -->
<g id="edge37" class="edge">
<title>Node19&#45;&gt;Node37</title>
<path fill="none" stroke="midnightblue" d="M2255.46,-153.12C2576.49,-150.08 3521.82,-137.89 3827.5,-98 3830.5,-97.61 3833.58,-97.14 3836.67,-96.61"/>
<polygon fill="midnightblue" stroke="midnightblue" points="2255.19,-149.62 2245.22,-153.22 2255.25,-156.62 2255.19,-149.62"/>
</g>
<!-- Node19&#45;&gt;Node38 -->
<g id="edge39" class="edge">
<title>Node19&#45;&gt;Node38</title>
<path fill="none" stroke="midnightblue" d="M2255.32,-151.91C2618.8,-144.67 3785.8,-119.99 3953.5,-98 3956.24,-97.64 3959.04,-97.21 3961.85,-96.73"/>
<polygon fill="midnightblue" stroke="midnightblue" points="2254.99,-148.41 2245.07,-152.11 2255.13,-155.41 2254.99,-148.41"/>
</g>
<!-- Node39 -->
<g id="node34" class="node">
<title>Node39</title>
<g id="a_node34"><a xlink:href="../../df/dba/vpiecenode__p_8h.html" target="_top" xlink:title=" ">
<polygon fill="white" stroke="black" points="1632,-67.5 1632,-97.5 1739,-97.5 1739,-67.5 1632,-67.5"/>
<text text-anchor="start" x="1640" y="-85.5" font-family="Helvetica,sans-Serif" font-size="10.00">src/libs/vpatterndb</text>
<text text-anchor="middle" x="1685.5" y="-74.5" font-family="Helvetica,sans-Serif" font-size="10.00">/vpiecenode_p.h</text>
</a>
</g>
</g>
<!-- Node19&#45;&gt;Node39 -->
<g id="edge40" class="edge">
<title>Node19&#45;&gt;Node39</title>
<path fill="none" stroke="midnightblue" d="M2061.79,-144.28C1980.55,-134.53 1855.25,-118.1 1747.5,-98 1744.78,-97.49 1742.01,-96.95 1739.21,-96.37"/>
<polygon fill="midnightblue" stroke="midnightblue" points="2061.63,-147.79 2071.97,-145.5 2062.46,-140.84 2061.63,-147.79"/>
</g>
<!-- Node41 -->
<g id="node36" class="node">
<title>Node41</title>
<g id="a_node36"><a xlink:href="../../de/d3e/vtranslatevars_8cpp.html" target="_top" xlink:title=" ">
<polygon fill="white" stroke="black" points="2722.5,-67.5 2722.5,-97.5 2832.5,-97.5 2832.5,-67.5 2722.5,-67.5"/>
<text text-anchor="start" x="2730.5" y="-85.5" font-family="Helvetica,sans-Serif" font-size="10.00">src/libs/vpatterndb</text>
<text text-anchor="middle" x="2777.5" y="-74.5" font-family="Helvetica,sans-Serif" font-size="10.00">/vtranslatevars.cpp</text>
</a>
</g>
</g>
<!-- Node19&#45;&gt;Node41 -->
<g id="edge42" class="edge">
<title>Node19&#45;&gt;Node41</title>
<path fill="none" stroke="midnightblue" d="M2255.32,-147.2C2369.38,-139.1 2554.37,-123.38 2712.5,-98 2715.7,-97.49 2718.97,-96.91 2722.27,-96.3"/>
<polygon fill="midnightblue" stroke="midnightblue" points="2254.92,-143.72 2245.19,-147.91 2255.41,-150.7 2254.92,-143.72"/>
</g>
<!-- Node42 -->
<g id="node37" class="node">
<title>Node42</title>
<g id="a_node37"><a xlink:href="../../df/d40/export__format__combobox_8cpp.html" target="_top" xlink:title=" ">
<polygon fill="white" stroke="black" points="2851,-67.5 2851,-97.5 2984,-97.5 2984,-67.5 2851,-67.5"/>
<text text-anchor="start" x="2859" y="-85.5" font-family="Helvetica,sans-Serif" font-size="10.00">src/libs/vwidgets/export</text>
<text text-anchor="middle" x="2917.5" y="-74.5" font-family="Helvetica,sans-Serif" font-size="10.00">_format_combobox.cpp</text>
</a>
</g>
</g>
<!-- Node19&#45;&gt;Node42 -->
<g id="edge43" class="edge">
<title>Node19&#45;&gt;Node42</title>
<path fill="none" stroke="midnightblue" d="M2255.33,-148.91C2392.13,-141.64 2635.09,-125.93 2841.5,-98 2844.56,-97.59 2847.69,-97.13 2850.84,-96.64"/>
<polygon fill="midnightblue" stroke="midnightblue" points="2255.07,-145.42 2245.26,-149.45 2255.43,-152.41 2255.07,-145.42"/>
</g>
<!-- Node43 -->
<g id="node38" class="node">
<title>Node43</title>
<g id="a_node38"><a xlink:href="../../d3/d4f/mouse__coordinates_8cpp.html" target="_top" xlink:title=" ">
<polygon fill="white" stroke="black" points="3002.5,-67.5 3002.5,-97.5 3136.5,-97.5 3136.5,-67.5 3002.5,-67.5"/>
<text text-anchor="start" x="3010.5" y="-85.5" font-family="Helvetica,sans-Serif" font-size="10.00">src/libs/vwidgets/mouse</text>
<text text-anchor="middle" x="3069.5" y="-74.5" font-family="Helvetica,sans-Serif" font-size="10.00">_coordinates.cpp</text>
</a>
</g>
</g>
<!-- Node19&#45;&gt;Node43 -->
<g id="edge44" class="edge">
<title>Node19&#45;&gt;Node43</title>
<path fill="none" stroke="midnightblue" d="M2255.52,-150.99C2416.59,-145.56 2729,-131.42 2992.5,-98 2995.74,-97.59 2999.05,-97.13 3002.38,-96.63"/>
<polygon fill="midnightblue" stroke="midnightblue" points="2255.01,-147.5 2245.13,-151.33 2255.24,-154.5 2255.01,-147.5"/>
</g>
<!-- Node44 -->
<g id="node39" class="node">
<title>Node44</title>
<g id="a_node39"><a xlink:href="../../d2/d28/page__format__combobox_8cpp.html" target="_top" xlink:title=" ">
<polygon fill="white" stroke="black" points="3155,-67.5 3155,-97.5 3286,-97.5 3286,-67.5 3155,-67.5"/>
<text text-anchor="start" x="3163" y="-85.5" font-family="Helvetica,sans-Serif" font-size="10.00">src/libs/vwidgets/page</text>
<text text-anchor="middle" x="3220.5" y="-74.5" font-family="Helvetica,sans-Serif" font-size="10.00">_format_combobox.cpp</text>
</a>
</g>
</g>
<!-- Node19&#45;&gt;Node44 -->
<g id="edge45" class="edge">
<title>Node19&#45;&gt;Node44</title>
<path fill="none" stroke="midnightblue" d="M2255.48,-152.71C2439.02,-149.44 2823.31,-138 3145.5,-98 3148.53,-97.62 3151.62,-97.2 3154.73,-96.74"/>
<polygon fill="midnightblue" stroke="midnightblue" points="2255.22,-149.21 2245.28,-152.88 2255.34,-156.21 2255.22,-149.21"/>
</g>
<!-- Node45 -->
<g id="node40" class="node">
<title>Node45</title>
<g id="a_node40"><a xlink:href="../../d7/d1b/pen__toolbar_8cpp.html" target="_top" xlink:title=" ">
<polygon fill="white" stroke="black" points="3304,-67.5 3304,-97.5 3423,-97.5 3423,-67.5 3304,-67.5"/>
<text text-anchor="start" x="3312" y="-85.5" font-family="Helvetica,sans-Serif" font-size="10.00">src/libs/vwidgets/pen</text>
<text text-anchor="middle" x="3363.5" y="-74.5" font-family="Helvetica,sans-Serif" font-size="10.00">_toolbar.cpp</text>
</a>
</g>
</g>
<!-- Node19&#45;&gt;Node45 -->
<g id="edge46" class="edge">
<title>Node19&#45;&gt;Node45</title>
<path fill="none" stroke="midnightblue" d="M2255.11,-154.41C2458.86,-153.93 2914.58,-146.88 3294.5,-98 3297.54,-97.61 3300.64,-97.16 3303.76,-96.66"/>
<polygon fill="midnightblue" stroke="midnightblue" points="2255.01,-150.91 2245.01,-154.43 2255.02,-157.91 2255.01,-150.91"/>
</g>
<!-- Node46 -->
<g id="node41" class="node">
<title>Node46</title>
<g id="a_node41"><a xlink:href="../../dd/df6/vabstractmainwindow_8cpp.html" target="_top" xlink:title=" ">
<polygon fill="white" stroke="black" points="3441,-73 3441,-92 3670,-92 3670,-73 3441,-73"/>
<text text-anchor="middle" x="3555.5" y="-80" font-family="Helvetica,sans-Serif" font-size="10.00">src/libs/vwidgets/vabstractmainwindow.cpp</text>
</a>
</g>
</g>
<!-- Node19&#45;&gt;Node46 -->
<g id="edge47" class="edge">
<title>Node19&#45;&gt;Node46</title>
<path fill="none" stroke="midnightblue" d="M2255.48,-151.98C2476.65,-147.26 2997.03,-133.11 3432.5,-98 3451.47,-96.47 3472.02,-94.27 3490.8,-92.04"/>
<polygon fill="midnightblue" stroke="midnightblue" points="2255.1,-148.49 2245.18,-152.2 2255.25,-155.49 2255.1,-148.49"/>
</g>
<!-- Node47 -->
<g id="node42" class="node">
<title>Node47</title>
<g id="a_node42"><a xlink:href="../../d8/d76/scene__rect_8cpp.html" target="_top" xlink:title=" ">
<polygon fill="white" stroke="black" points="3688.5,-67.5 3688.5,-97.5 3818.5,-97.5 3818.5,-67.5 3688.5,-67.5"/>
<text text-anchor="start" x="3696.5" y="-85.5" font-family="Helvetica,sans-Serif" font-size="10.00">src/libs/vwidgets/scene</text>
<text text-anchor="middle" x="3753.5" y="-74.5" font-family="Helvetica,sans-Serif" font-size="10.00">_rect.cpp</text>
</a>
</g>
</g>
<!-- Node19&#45;&gt;Node47 -->
<g id="edge48" class="edge">
<title>Node19&#45;&gt;Node47</title>
<path fill="none" stroke="midnightblue" d="M2255.24,-152.26C2556.43,-147.06 3403.13,-129.93 3679.5,-98 3682.36,-97.67 3685.28,-97.29 3688.22,-96.87"/>
<polygon fill="midnightblue" stroke="midnightblue" points="2255.13,-148.76 2245.19,-152.44 2255.25,-155.76 2255.13,-148.76"/>
</g>
<!-- Node48 -->
<g id="node43" class="node">
<title>Node48</title>
<g id="a_node43"><a xlink:href="../../d1/d90/vgrainlineitem_8cpp.html" target="_top" xlink:title=" ">
<polygon fill="white" stroke="black" points="364,-73 364,-92 557,-92 557,-73 364,-73"/>
<text text-anchor="middle" x="460.5" y="-80" font-family="Helvetica,sans-Serif" font-size="10.00">src/libs/vwidgets/vgrainlineitem.cpp</text>
</a>
</g>
</g>
<!-- Node19&#45;&gt;Node48 -->
<g id="edge49" class="edge">
<title>Node19&#45;&gt;Node48</title>
<path fill="none" stroke="midnightblue" d="M2039.26,-146.99C1970.6,-142.74 1879.87,-137.48 1799.5,-134 1251.34,-110.26 1112.28,-143.6 565.5,-98 548.72,-96.6 530.52,-94.35 514.06,-92.03"/>
<polygon fill="midnightblue" stroke="midnightblue" points="2039.46,-150.51 2049.66,-147.64 2039.9,-143.52 2039.46,-150.51"/>
</g>
<!-- Node49 -->
<g id="node44" class="node">
<title>Node49</title>
<g id="a_node44"><a xlink:href="../../de/d45/vcontrolpointspline_8cpp.html" target="_top" xlink:title=" ">
<polygon fill="white" stroke="black" points="575,-73 575,-92 790,-92 790,-73 575,-73"/>
<text text-anchor="middle" x="682.5" y="-80" font-family="Helvetica,sans-Serif" font-size="10.00">src/libs/vwidgets/vcontrolpointspline.cpp</text>
</a>
</g>
</g>
<!-- Node19&#45;&gt;Node49 -->
<g id="edge50" class="edge">
<title>Node19&#45;&gt;Node49</title>
<path fill="none" stroke="midnightblue" d="M2039.26,-147.18C1970.59,-143 1879.85,-137.75 1799.5,-134 1354.81,-113.23 1242.25,-133.64 798.5,-98 780.19,-96.53 760.33,-94.29 742.3,-92"/>
<polygon fill="midnightblue" stroke="midnightblue" points="2039.46,-150.7 2049.65,-147.81 2039.88,-143.71 2039.46,-150.7"/>
</g>
<!-- Node28&#45;&gt;Node29 -->
<g id="edge27" class="edge">
<title>Node28&#45;&gt;Node29</title>
<path fill="none" stroke="midnightblue" d="M1246.98,-67.04C1107.98,-43.25 956.2,-28.1 877.32,-21.04"/>
<polygon fill="midnightblue" stroke="midnightblue" points="1246.51,-70.51 1256.96,-68.77 1247.71,-63.61 1246.51,-70.51"/>
</g>
<!-- Node39&#45;&gt;Node40 -->
<g id="edge41" class="edge">
<title>Node39&#45;&gt;Node40</title>
<path fill="none" stroke="midnightblue" d="M1749.4,-66.95C2002.41,-34.69 2730.4,-20.71 2934.67,-17.34"/>
<polygon fill="midnightblue" stroke="midnightblue" points="1748.61,-63.52 1739.15,-68.3 1749.52,-70.46 1748.61,-63.52"/>
</g>
</g>
</svg>
