<?xml version="1.0" encoding="UTF-8" standalone="no"?>
<!DOCTYPE svg PUBLIC "-//W3C//DTD SVG 1.1//EN"
 "http://www.w3.org/Graphics/SVG/1.1/DTD/svg11.dtd">
<!-- Generated by graphviz version 2.43.0 (0)
 -->
<!-- Title: MoveOperationLabel Pages: 1 -->
<svg width="172pt" height="702pt"
 viewBox="0.00 0.00 171.50 702.00" xmlns="http://www.w3.org/2000/svg" xmlns:xlink="http://www.w3.org/1999/xlink">
<g id="graph0" class="graph" transform="scale(1 1) rotate(0) translate(4 698)">
<title>MoveOperationLabel</title>
<!-- Node1 -->
<g id="Node000001" class="node">
<title>Node1</title>
<g id="a_Node000001"><a xlink:title=" ">
<polygon fill="#999999" stroke="transparent" points="141,-139 2,-139 2,0 141,0 141,-139"/>
<text text-anchor="start" x="21" y="-126.5" font-family="Helvetica,sans-Serif" font-size="10.00">MoveOperationLabel</text>
<text text-anchor="start" x="9" y="-111.5" font-family="Helvetica,sans-Serif" font-size="10.00">&#45;</text>
<text text-anchor="start" x="19.5" y="-111.5" font-family="Helvetica,sans-Serif" font-size="10.00">m_idTool</text>
<text text-anchor="start" x="9" y="-96.5" font-family="Helvetica,sans-Serif" font-size="10.00">&#45;</text>
<text text-anchor="start" x="19.5" y="-96.5" font-family="Helvetica,sans-Serif" font-size="10.00">m_scene</text>
<text text-anchor="start" x="6.5" y="-81.5" font-family="Helvetica,sans-Serif" font-size="10.00">+</text>
<text text-anchor="start" x="19.5" y="-81.5" font-family="Helvetica,sans-Serif" font-size="10.00">MoveOperationLabel()</text>
<text text-anchor="start" x="6.5" y="-66.5" font-family="Helvetica,sans-Serif" font-size="10.00">+</text>
<text text-anchor="start" x="19.5" y="-66.5" font-family="Helvetica,sans-Serif" font-size="10.00">~MoveOperationLabel()</text>
<text text-anchor="start" x="6.5" y="-51.5" font-family="Helvetica,sans-Serif" font-size="10.00">+</text>
<text text-anchor="start" x="19.5" y="-51.5" font-family="Helvetica,sans-Serif" font-size="10.00">mergeWith()</text>
<text text-anchor="start" x="6.5" y="-36.5" font-family="Helvetica,sans-Serif" font-size="10.00">+</text>
<text text-anchor="start" x="19.5" y="-36.5" font-family="Helvetica,sans-Serif" font-size="10.00">id()</text>
<text text-anchor="start" x="6.5" y="-21.5" font-family="Helvetica,sans-Serif" font-size="10.00">+</text>
<text text-anchor="start" x="19.5" y="-21.5" font-family="Helvetica,sans-Serif" font-size="10.00">GetToolId()</text>
<text text-anchor="start" x="6.5" y="-6.5" font-family="Helvetica,sans-Serif" font-size="10.00">#</text>
<text text-anchor="start" x="19.5" y="-6.5" font-family="Helvetica,sans-Serif" font-size="10.00">Do()</text>
<polygon fill="#666666" stroke="#666666" points="2.5,-121.5 2.5,-121.5 141.5,-121.5 141.5,-121.5 2.5,-121.5"/>
<polygon fill="#666666" stroke="#666666" points="2.5,-91.5 2.5,-91.5 17.5,-91.5 17.5,-91.5 2.5,-91.5"/>
<polygon fill="#666666" stroke="#666666" points="17.5,-91.5 17.5,-91.5 141.5,-91.5 141.5,-91.5 17.5,-91.5"/>
<polygon fill="none" stroke="#666666" points="2,0 2,-139 141,-139 141,0 2,0"/>
</a>
</g>
</g>
<!-- Node2 -->
<g id="Node000002" class="node">
<title>Node2</title>
<g id="a_Node000002"><a xlink:href="../../d6/d7c/classMoveAbstractLabel.html" target="_top" xlink:title=" ">
<polygon fill="white" stroke="transparent" points="137,-329 6,-329 6,-175 137,-175 137,-329"/>
<text text-anchor="start" x="25" y="-317" font-family="Helvetica,sans-Serif" font-size="10.00">MoveAbstractLabel</text>
<text text-anchor="start" x="10.5" y="-302" font-family="Helvetica,sans-Serif" font-size="10.00">#</text>
<text text-anchor="start" x="23.5" y="-302" font-family="Helvetica,sans-Serif" font-size="10.00">m_oldPos</text>
<text text-anchor="start" x="10.5" y="-287" font-family="Helvetica,sans-Serif" font-size="10.00">#</text>
<text text-anchor="start" x="23.5" y="-287" font-family="Helvetica,sans-Serif" font-size="10.00">m_newPos</text>
<text text-anchor="start" x="10.5" y="-272" font-family="Helvetica,sans-Serif" font-size="10.00">+</text>
<text text-anchor="start" x="23.5" y="-272" font-family="Helvetica,sans-Serif" font-size="10.00">MoveAbstractLabel()</text>
<text text-anchor="start" x="10.5" y="-257" font-family="Helvetica,sans-Serif" font-size="10.00">+</text>
<text text-anchor="start" x="23.5" y="-257" font-family="Helvetica,sans-Serif" font-size="10.00">~MoveAbstractLabel()</text>
<text text-anchor="start" x="10.5" y="-242" font-family="Helvetica,sans-Serif" font-size="10.00">+</text>
<text text-anchor="start" x="23.5" y="-242" font-family="Helvetica,sans-Serif" font-size="10.00">undo()</text>
<text text-anchor="start" x="10.5" y="-227" font-family="Helvetica,sans-Serif" font-size="10.00">+</text>
<text text-anchor="start" x="23.5" y="-227" font-family="Helvetica,sans-Serif" font-size="10.00">redo()</text>
<text text-anchor="start" x="10.5" y="-212" font-family="Helvetica,sans-Serif" font-size="10.00">+</text>
<text text-anchor="start" x="23.5" y="-212" font-family="Helvetica,sans-Serif" font-size="10.00">GetPointId()</text>
<text text-anchor="start" x="10.5" y="-197" font-family="Helvetica,sans-Serif" font-size="10.00">+</text>
<text text-anchor="start" x="23.5" y="-197" font-family="Helvetica,sans-Serif" font-size="10.00">GetNewPos()</text>
<text text-anchor="start" x="10.5" y="-182" font-family="Helvetica,sans-Serif" font-size="10.00">#</text>
<text text-anchor="start" x="23.5" y="-182" font-family="Helvetica,sans-Serif" font-size="10.00">Do()</text>
<polygon fill="#666666" stroke="#666666" points="6.5,-312 6.5,-312 137.5,-312 137.5,-312 6.5,-312"/>
<polygon fill="#666666" stroke="#666666" points="6.5,-282 6.5,-282 21.5,-282 21.5,-282 6.5,-282"/>
<polygon fill="#666666" stroke="#666666" points="21.5,-282 21.5,-282 137.5,-282 137.5,-282 21.5,-282"/>
<polygon fill="none" stroke="#666666" points="6,-175 6,-329 137,-329 137,-175 6,-175"/>
</a>
</g>
</g>
<!-- Node2&#45;&gt;Node1 -->
<g id="edge1_Node000001_Node000002" class="edge">
<title>Node2&#45;&gt;Node1</title>
<g id="a_edge1_Node000001_Node000002"><a xlink:title=" ">
<path fill="none" stroke="#63b8ff" d="M71.5,-164.92C71.5,-156.31 71.5,-147.65 71.5,-139.26"/>
<polygon fill="none" stroke="#63b8ff" points="68,-164.97 71.5,-174.97 75,-164.97 68,-164.97"/>
</a>
</g>
</g>
<!-- Node3 -->
<g id="Node000003" class="node">
<title>Node3</title>
<g id="a_Node000003"><a xlink:href="../../de/d04/classVUndoCommand.html" target="_top" xlink:title=" ">
<polygon fill="white" stroke="transparent" points="143,-609 0,-609 0,-365 143,-365 143,-609"/>
<text text-anchor="start" x="30.5" y="-597" font-family="Helvetica,sans-Serif" font-size="10.00">VUndoCommand</text>
<text text-anchor="start" x="4.5" y="-582" font-family="Helvetica,sans-Serif" font-size="10.00">#</text>
<text text-anchor="start" x="17.5" y="-582" font-family="Helvetica,sans-Serif" font-size="10.00">xml</text>
<text text-anchor="start" x="4.5" y="-567" font-family="Helvetica,sans-Serif" font-size="10.00">#</text>
<text text-anchor="start" x="17.5" y="-567" font-family="Helvetica,sans-Serif" font-size="10.00">doc</text>
<text text-anchor="start" x="4.5" y="-552" font-family="Helvetica,sans-Serif" font-size="10.00">#</text>
<text text-anchor="start" x="17.5" y="-552" font-family="Helvetica,sans-Serif" font-size="10.00">nodeId</text>
<text text-anchor="start" x="4.5" y="-537" font-family="Helvetica,sans-Serif" font-size="10.00">#</text>
<text text-anchor="start" x="17.5" y="-537" font-family="Helvetica,sans-Serif" font-size="10.00">redoFlag</text>
<text text-anchor="start" x="4.5" y="-522" font-family="Helvetica,sans-Serif" font-size="10.00">+</text>
<text text-anchor="start" x="17.5" y="-522" font-family="Helvetica,sans-Serif" font-size="10.00">VUndoCommand()</text>
<text text-anchor="start" x="4.5" y="-507" font-family="Helvetica,sans-Serif" font-size="10.00">+</text>
<text text-anchor="start" x="17.5" y="-507" font-family="Helvetica,sans-Serif" font-size="10.00">~VUndoCommand()</text>
<text text-anchor="start" x="4.5" y="-492" font-family="Helvetica,sans-Serif" font-size="10.00">#</text>
<text text-anchor="start" x="17.5" y="-492" font-family="Helvetica,sans-Serif" font-size="10.00">RedoFullParsing()</text>
<text text-anchor="start" x="4.5" y="-477" font-family="Helvetica,sans-Serif" font-size="10.00">#</text>
<text text-anchor="start" x="17.5" y="-477" font-family="Helvetica,sans-Serif" font-size="10.00">UndoDeleteAfterSibling()</text>
<text text-anchor="start" x="4.5" y="-462" font-family="Helvetica,sans-Serif" font-size="10.00">#</text>
<text text-anchor="start" x="17.5" y="-462" font-family="Helvetica,sans-Serif" font-size="10.00">IncrementReferences()</text>
<text text-anchor="start" x="4.5" y="-447" font-family="Helvetica,sans-Serif" font-size="10.00">#</text>
<text text-anchor="start" x="17.5" y="-447" font-family="Helvetica,sans-Serif" font-size="10.00">DecrementReferences()</text>
<text text-anchor="start" x="4.5" y="-432" font-family="Helvetica,sans-Serif" font-size="10.00">#</text>
<text text-anchor="start" x="17.5" y="-432" font-family="Helvetica,sans-Serif" font-size="10.00">IncrementReferences()</text>
<text text-anchor="start" x="4.5" y="-417" font-family="Helvetica,sans-Serif" font-size="10.00">#</text>
<text text-anchor="start" x="17.5" y="-417" font-family="Helvetica,sans-Serif" font-size="10.00">DecrementReferences()</text>
<text text-anchor="start" x="4.5" y="-402" font-family="Helvetica,sans-Serif" font-size="10.00">#</text>
<text text-anchor="start" x="17.5" y="-402" font-family="Helvetica,sans-Serif" font-size="10.00">IncrementReferences()</text>
<text text-anchor="start" x="4.5" y="-387" font-family="Helvetica,sans-Serif" font-size="10.00">#</text>
<text text-anchor="start" x="17.5" y="-387" font-family="Helvetica,sans-Serif" font-size="10.00">DecrementReferences()</text>
<text text-anchor="start" x="4.5" y="-372" font-family="Helvetica,sans-Serif" font-size="10.00">#</text>
<text text-anchor="start" x="17.5" y="-372" font-family="Helvetica,sans-Serif" font-size="10.00">getDestinationObject()</text>
<polygon fill="#666666" stroke="#666666" points="0.5,-592 0.5,-592 143.5,-592 143.5,-592 0.5,-592"/>
<polygon fill="#666666" stroke="#666666" points="0.5,-532 0.5,-532 15.5,-532 15.5,-532 0.5,-532"/>
<polygon fill="#666666" stroke="#666666" points="15.5,-532 15.5,-532 143.5,-532 143.5,-532 15.5,-532"/>
<polygon fill="none" stroke="#666666" points="0,-365 0,-609 143,-609 143,-365 0,-365"/>
</a>
</g>
</g>
<!-- Node3&#45;&gt;Node2 -->
<g id="edge2_Node000002_Node000003" class="edge">
<title>Node3&#45;&gt;Node2</title>
<g id="a_edge2_Node000002_Node000003"><a xlink:title=" ">
<path fill="none" stroke="#63b8ff" d="M71.5,-354.58C71.5,-345.98 71.5,-337.48 71.5,-329.29"/>
<polygon fill="none" stroke="#63b8ff" points="68,-354.72 71.5,-364.72 75,-354.72 68,-354.72"/>
</a>
</g>
</g>
<!-- Node4 -->
<g id="Node000004" class="node">
<title>Node4</title>
<g id="a_Node000004"><a xlink:title=" ">
<polygon fill="white" stroke="transparent" points="51.5,-694 1.5,-694 1.5,-645 51.5,-645 51.5,-694"/>
<text text-anchor="start" x="6.5" y="-681.5" font-family="Helvetica,sans-Serif" font-size="10.00">QObject</text>
<text text-anchor="start" x="24.5" y="-666.5" font-family="Helvetica,sans-Serif" font-size="10.00"> </text>
<text text-anchor="start" x="24.5" y="-651.5" font-family="Helvetica,sans-Serif" font-size="10.00"> </text>
<polygon fill="#666666" stroke="#666666" points="1.5,-676.5 1.5,-676.5 51.5,-676.5 51.5,-676.5 1.5,-676.5"/>
<polygon fill="#666666" stroke="#666666" points="1.5,-661.5 1.5,-661.5 51.5,-661.5 51.5,-661.5 1.5,-661.5"/>
<polygon fill="none" stroke="#666666" points="1.5,-645 1.5,-694 51.5,-694 51.5,-645 1.5,-645"/>
</a>
</g>
</g>
<!-- Node4&#45;&gt;Node3 -->
<g id="edge3_Node000003_Node000004" class="edge">
<title>Node4&#45;&gt;Node3</title>
<g id="a_edge3_Node000003_Node000004"><a xlink:title=" ">
<path fill="none" stroke="#63b8ff" d="M34.81,-635.18C36.76,-627.33 38.96,-618.5 41.29,-609.18"/>
<polygon fill="none" stroke="#63b8ff" points="31.41,-634.35 32.38,-644.9 38.2,-636.05 31.41,-634.35"/>
</a>
</g>
</g>
<!-- Node5 -->
<g id="Node000005" class="node">
<title>Node5</title>
<g id="a_Node000005"><a xlink:title=" ">
<polygon fill="white" stroke="transparent" points="163.5,-694 69.5,-694 69.5,-645 163.5,-645 163.5,-694"/>
<text text-anchor="start" x="74.5" y="-681.5" font-family="Helvetica,sans-Serif" font-size="10.00">QUndoCommand</text>
<text text-anchor="start" x="114.5" y="-666.5" font-family="Helvetica,sans-Serif" font-size="10.00"> </text>
<text text-anchor="start" x="114.5" y="-651.5" font-family="Helvetica,sans-Serif" font-size="10.00"> </text>
<polygon fill="#666666" stroke="#666666" points="69.5,-676.5 69.5,-676.5 163.5,-676.5 163.5,-676.5 69.5,-676.5"/>
<polygon fill="#666666" stroke="#666666" points="69.5,-661.5 69.5,-661.5 163.5,-661.5 163.5,-661.5 69.5,-661.5"/>
<polygon fill="none" stroke="#666666" points="69.5,-645 69.5,-694 163.5,-694 163.5,-645 69.5,-645"/>
</a>
</g>
</g>
<!-- Node5&#45;&gt;Node3 -->
<g id="edge4_Node000003_Node000005" class="edge">
<title>Node5&#45;&gt;Node3</title>
<g id="a_edge4_Node000003_Node000005"><a xlink:title=" ">
<path fill="none" stroke="#63b8ff" d="M108.19,-635.18C106.24,-627.33 104.04,-618.5 101.71,-609.18"/>
<polygon fill="none" stroke="#63b8ff" points="104.8,-636.05 110.62,-644.9 111.59,-634.35 104.8,-636.05"/>
</a>
</g>
</g>
</g>
</svg>
