0
SECTION
2
HEADER
9
$ACADVER
1
AC1009
0
ENDSEC
0
SECTION
2
BLOCKS
0
BLOCK
8
1
2
piece_BackPanel_M
70
64
10
0.000000
20
0.000000
0
POLYLINE
8
14
66
1
70
1
250
2
0
VERTEX
8
14
10
1515.000244
20
4289.000000
0
VERTEX
8
14
10
1666.199707
20
4289.000000
0
VERTEX
8
14
10
1729.316406
20
4288.939941
0
VERTEX
8
14
10
1846.320312
20
4287.950195
0
VERTEX
8
14
10
1952.794434
20
4285.979980
0
VERTEX
8
14
10
2049.261230
20
4283.100098
0
VERTEX
8
14
10
2136.274414
20
4279.360352
0
VERTEX
8
14
10
2214.386230
20
4274.830078
0
VERTEX
8
14
10
2299.091309
20
4268.439941
0
VERTEX
8
14
10
2346.143311
20
4263.630371
0
VERTEX
8
14
10
2400.914307
20
4257.080078
0
VERTEX
8
14
10
2448.983398
20
4249.970215
0
VERTEX
8
14
10
2480.855225
20
4244.270020
0
VERTEX
8
14
10
2500.524414
20
4240.310059
0
VERTEX
8
14
10
2518.801270
20
4236.240234
0
VERTEX
8
14
10
2535.813232
20
4232.050293
0
VERTEX
8
14
10
2551.632324
20
4227.750000
0
VERTEX
8
14
10
2566.328369
20
4223.330078
0
VERTEX
8
14
10
2579.971436
20
4218.790039
0
VERTEX
8
14
10
2592.628418
20
4214.140137
0
VERTEX
8
14
10
2604.362305
20
4209.370117
0
VERTEX
8
14
10
2615.235352
20
4204.490234
0
VERTEX
8
14
10
2625.300293
20
4199.490234
0
VERTEX
8
14
10
2634.727295
20
4194.320312
0
VERTEX
8
14
10
2647.444336
20
4186.510254
0
VERTEX
8
14
10
2661.844482
20
4176.000000
0
VERTEX
8
14
10
2673.963379
20
4165.520020
0
VERTEX
8
14
10
2684.043213
20
4155.550293
0
VERTEX
8
14
10
2695.693359
20
4142.939941
0
VERTEX
8
14
10
2705.523193
20
4132.850098
0
VERTEX
8
14
10
2711.213379
20
4127.910156
0
VERTEX
8
14
10
2717.653320
20
4123.380371
0
VERTEX
8
14
10
2723.303467
20
4120.250000
0
VERTEX
8
14
10
2727.533447
20
4118.250000
0
VERTEX
8
14
10
2732.613281
20
4116.180176
0
VERTEX
8
14
10
2738.493408
20
4114.140137
0
VERTEX
8
14
10
2745.253174
20
4112.140137
0
VERTEX
8
14
10
2752.873291
20
4110.240234
0
VERTEX
8
14
10
2766.373291
20
4107.510254
0
VERTEX
8
14
10
2788.543213
20
4104.370117
0
VERTEX
8
14
10
2815.613281
20
4101.970215
0
VERTEX
8
14
10
2848.213379
20
4100.399902
0
VERTEX
8
14
10
2892.843506
20
4099.479980
0
VERTEX
8
14
10
2856.783447
20
3249.910156
0
VERTEX
8
14
10
2906.093262
20
2389.849609
0
VERTEX
8
14
10
2854.543213
20
2387.259766
0
VERTEX
8
14
10
2828.603271
20
2385.450195
0
VERTEX
8
14
10
2804.013184
20
2383.110352
0
VERTEX
8
14
10
2780.673096
20
2380.240234
0
VERTEX
8
14
10
2758.573242
20
2376.849609
0
VERTEX
8
14
10
2737.703369
20
2372.969727
0
VERTEX
8
14
10
2718.023193
20
2368.610352
0
VERTEX
8
14
10
2699.533203
20
2363.780273
0
VERTEX
8
14
10
2682.203369
20
2358.509766
0
VERTEX
8
14
10
2666.005127
20
2352.810059
0
VERTEX
8
14
10
2650.919189
20
2346.700195
0
VERTEX
8
14
10
2636.909424
20
2340.209961
0
VERTEX
8
14
10
2623.941162
20
2333.339844
0
VERTEX
8
14
10
2611.972412
20
2326.129883
0
VERTEX
8
14
10
2600.957275
20
2318.570312
0
VERTEX
8
14
10
2590.845215
20
2310.679688
0
VERTEX
8
14
10
2581.584229
20
2302.469727
0
VERTEX
8
14
10
2573.120361
20
2293.910156
0
VERTEX
8
14
10
2565.399170
20
2284.990234
0
VERTEX
8
14
10
2558.374268
20
2275.709961
0
VERTEX
8
14
10
2552.001221
20
2266.009766
0
VERTEX
8
14
10
2546.247314
20
2255.889648
0
VERTEX
8
14
10
2541.084229
20
2245.299805
0
VERTEX
8
14
10
2536.491211
20
2234.230469
0
VERTEX
8
14
10
2532.456299
20
2222.644043
0
VERTEX
8
14
10
2528.970215
20
2210.531250
0
VERTEX
8
14
10
2526.025146
20
2197.877930
0
VERTEX
8
14
10
2523.616211
20
2184.678711
0
VERTEX
8
14
10
2521.739014
20
2170.932617
0
VERTEX
8
14
10
2520.388428
20
2156.642578
0
VERTEX
8
14
10
2519.555420
20
2141.816406
0
VERTEX
8
14
10
2519.232178
20
2126.458008
0
VERTEX
8
14
10
2519.407227
20
2110.580078
0
VERTEX
8
14
10
2520.068115
20
2094.193359
0
VERTEX
8
14
10
2521.201416
20
2077.306641
0
VERTEX
8
14
10
2522.785400
20
2060.000000
0
VERTEX
8
14
10
2525.941162
20
2033.074219
0
VERTEX
8
14
10
2531.660400
20
1995.484375
0
VERTEX
8
14
10
2538.864014
20
1956.206055
0
VERTEX
8
14
10
2547.401123
20
1915.253906
0
VERTEX
8
14
10
2557.101318
20
1872.698242
0
VERTEX
8
14
10
2567.785400
20
1828.625977
0
VERTEX
8
14
10
2585.238037
20
1759.840820
0
VERTEX
8
14
10
2604.047119
20
1687.630859
0
VERTEX
8
14
10
2536.543213
20
1676.386719
0
VERTEX
8
14
10
2483.200195
20
1668.281250
0
VERTEX
8
14
10
2429.887207
20
1661.081055
0
VERTEX
8
14
10
2376.559326
20
1654.737305
0
VERTEX
8
14
10
2323.113037
20
1649.194336
0
VERTEX
8
14
10
2269.447998
20
1644.394043
0
VERTEX
8
14
10
2215.460205
20
1640.279297
0
VERTEX
8
14
10
2161.047119
20
1636.792969
0
VERTEX
8
14
10
2106.104004
20
1633.876953
0
VERTEX
8
14
10
2050.527100
20
1631.474121
0
VERTEX
8
14
10
1994.210205
20
1629.528320
0
VERTEX
8
14
10
1937.029053
20
1627.980469
0
VERTEX
8
14
10
1849.627197
20
1626.250977
0
VERTEX
8
14
10
1728.974609
20
1624.867188
0
VERTEX
8
14
10
1666.312256
20
1624.432129
0
VERTEX
8
14
10
1515.000000
20
1624.432129
0
VERTEX
8
14
10
1515.000244
20
4289.000000
0
SEQEND
0
POINT
8
3
10
1515.000244
20
4289.000000
0
POINT
8
3
10
1666.199707
20
4289.000000
0
POINT
8
3
10
1729.316406
20
4288.939941
0
POINT
8
3
10
1846.320312
20
4287.950195
0
POINT
8
3
10
1952.794434
20
4285.979980
0
POINT
8
3
10
2049.261230
20
4283.100098
0
POINT
8
3
10
2136.274414
20
4279.360352
0
POINT
8
3
10
2214.386230
20
4274.830078
0
POINT
8
3
10
2299.091309
20
4268.439941
0
POINT
8
3
10
2346.143311
20
4263.630371
0
POINT
8
3
10
2400.914307
20
4257.080078
0
POINT
8
3
10
2448.983398
20
4249.970215
0
POINT
8
3
10
2480.855225
20
4244.270020
0
POINT
8
3
10
2500.524414
20
4240.310059
0
POINT
8
3
10
2518.801270
20
4236.240234
0
POINT
8
3
10
2535.813232
20
4232.050293
0
POINT
8
3
10
2551.632324
20
4227.750000
0
POINT
8
3
10
2566.328369
20
4223.330078
0
POINT
8
3
10
2579.971436
20
4218.790039
0
POINT
8
3
10
2592.628418
20
4214.140137
0
POINT
8
3
10
2604.362305
20
4209.370117
0
POINT
8
3
10
2615.235352
20
4204.490234
0
POINT
8
3
10
2625.300293
20
4199.490234
0
POINT
8
3
10
2634.727295
20
4194.320312
0
POINT
8
3
10
2647.444336
20
4186.510254
0
POINT
8
3
10
2661.844482
20
4176.000000
0
POINT
8
3
10
2673.963379
20
4165.520020
0
POINT
8
3
10
2684.043213
20
4155.550293
0
POINT
8
3
10
2695.693359
20
4142.939941
0
POINT
8
3
10
2705.523193
20
4132.850098
0
POINT
8
3
10
2711.213379
20
4127.910156
0
POINT
8
3
10
2717.653320
20
4123.380371
0
POINT
8
3
10
2723.303467
20
4120.250000
0
POINT
8
3
10
2727.533447
20
4118.250000
0
POINT
8
3
10
2732.613281
20
4116.180176
0
POINT
8
3
10
2738.493408
20
4114.140137
0
POINT
8
3
10
2745.253174
20
4112.140137
0
POINT
8
3
10
2752.873291
20
4110.240234
0
POINT
8
3
10
2766.373291
20
4107.510254
0
POINT
8
3
10
2788.543213
20
4104.370117
0
POINT
8
3
10
2815.613281
20
4101.970215
0
POINT
8
3
10
2848.213379
20
4100.399902
0
POINT
8
2
10
2892.843506
20
4099.479980
0
POINT
8
3
10
2856.783447
20
3249.910156
0
POINT
8
2
10
2906.093262
20
2389.849609
0
POINT
8
3
10
2854.543213
20
2387.259766
0
POINT
8
3
10
2828.603271
20
2385.450195
0
POINT
8
3
10
2804.013184
20
2383.110352
0
POINT
8
3
10
2780.673096
20
2380.240234
0
POINT
8
3
10
2758.573242
20
2376.849609
0
POINT
8
3
10
2737.703369
20
2372.969727
0
POINT
8
3
10
2718.023193
20
2368.610352
0
POINT
8
3
10
2699.533203
20
2363.780273
0
POINT
8
3
10
2682.203369
20
2358.509766
0
POINT
8
3
10
2666.005127
20
2352.810059
0
POINT
8
3
10
2650.919189
20
2346.700195
0
POINT
8
3
10
2636.909424
20
2340.209961
0
POINT
8
3
10
2623.941162
20
2333.339844
0
POINT
8
3
10
2611.972412
20
2326.129883
0
POINT
8
3
10
2600.957275
20
2318.570312
0
POINT
8
3
10
2590.845215
20
2310.679688
0
POINT
8
3
10
2581.584229
20
2302.469727
0
POINT
8
3
10
2573.120361
20
2293.910156
0
POINT
8
3
10
2565.399170
20
2284.990234
0
POINT
8
3
10
2558.374268
20
2275.709961
0
POINT
8
3
10
2552.001221
20
2266.009766
0
POINT
8
3
10
2546.247314
20
2255.889648
0
POINT
8
3
10
2541.084229
20
2245.299805
0
POINT
8
3
10
2536.491211
20
2234.230469
0
POINT
8
3
10
2532.456299
20
2222.644043
0
POINT
8
3
10
2528.970215
20
2210.531250
0
POINT
8
3
10
2526.025146
20
2197.877930
0
POINT
8
3
10
2523.616211
20
2184.678711
0
POINT
8
3
10
2521.739014
20
2170.932617
0
POINT
8
3
10
2520.388428
20
2156.642578
0
POINT
8
3
10
2519.555420
20
2141.816406
0
POINT
8
3
10
2519.232178
20
2126.458008
0
POINT
8
3
10
2519.407227
20
2110.580078
0
POINT
8
3
10
2520.068115
20
2094.193359
0
POINT
8
3
10
2521.201416
20
2077.306641
0
POINT
8
3
10
2522.785400
20
2060.000000
0
POINT
8
3
10
2525.941162
20
2033.074219
0
POINT
8
3
10
2531.660400
20
1995.484375
0
POINT
8
3
10
2538.864014
20
1956.206055
0
POINT
8
3
10
2547.401123
20
1915.253906
0
POINT
8
3
10
2557.101318
20
1872.698242
0
POINT
8
3
10
2567.785400
20
1828.625977
0
POINT
8
3
10
2585.238037
20
1759.840820
0
POINT
8
2
10
2604.047119
20
1687.630859
0
POINT
8
3
10
2536.543213
20
1676.386719
0
POINT
8
3
10
2483.200195
20
1668.281250
0
POINT
8
3
10
2429.887207
20
1661.081055
0
POINT
8
3
10
2376.559326
20
1654.737305
0
POINT
8
3
10
2323.113037
20
1649.194336
0
POINT
8
3
10
2269.447998
20
1644.394043
0
POINT
8
3
10
2215.460205
20
1640.279297
0
POINT
8
3
10
2161.047119
20
1636.792969
0
POINT
8
3
10
2106.104004
20
1633.876953
0
POINT
8
3
10
2050.527100
20
1631.474121
0
POINT
8
3
10
1994.210205
20
1629.528320
0
POINT
8
3
10
1937.029053
20
1627.980469
0
POINT
8
3
10
1849.627197
20
1626.250977
0
POINT
8
3
10
1728.974609
20
1624.867188
0
POINT
8
3
10
1666.312256
20
1624.432129
0
POINT
8
2
10
1515.000000
20
1624.432129
0
POINT
8
3
10
1515.000244
20
4289.000000
0
LINE
8
7
10
1900.075439
20
3554.820312
11
1900.075195
21
2157.339844
0
POLYLINE
8
1
66
1
70
1
250
0
0
VERTEX
8
1
10
1515.000244
20
4289.000000
0
VERTEX
8
1
10
1666.199707
20
4289.000000
0
VERTEX
8
1
10
1729.316406
20
4288.939941
0
VERTEX
8
1
10
1846.320312
20
4287.950195
0
VERTEX
8
1
10
1952.794434
20
4285.979980
0
VERTEX
8
1
10
2049.261230
20
4283.100098
0
VERTEX
8
1
10
2136.274414
20
4279.360352
0
VERTEX
8
1
10
2214.386230
20
4274.830078
0
VERTEX
8
1
10
2299.091309
20
4268.439941
0
VERTEX
8
1
10
2346.143311
20
4263.630371
0
VERTEX
8
1
10
2400.914307
20
4257.080078
0
VERTEX
8
1
10
2448.983398
20
4249.970215
0
VERTEX
8
1
10
2480.855225
20
4244.270020
0
VERTEX
8
1
10
2500.524414
20
4240.310059
0
VERTEX
8
1
10
2518.801270
20
4236.240234
0
VERTEX
8
1
10
2535.813232
20
4232.050293
0
VERTEX
8
1
10
2551.632324
20
4227.750000
0
VERTEX
8
1
10
2566.328369
20
4223.330078
0
VERTEX
8
1
10
2579.971436
20
4218.790039
0
VERTEX
8
1
10
2592.628418
20
4214.140137
0
VERTEX
8
1
10
2604.362305
20
4209.370117
0
VERTEX
8
1
10
2615.235352
20
4204.490234
0
VERTEX
8
1
10
2625.300293
20
4199.490234
0
VERTEX
8
1
10
2634.727295
20
4194.320312
0
VERTEX
8
1
10
2647.444336
20
4186.510254
0
VERTEX
8
1
10
2661.844482
20
4176.000000
0
VERTEX
8
1
10
2673.963379
20
4165.520020
0
VERTEX
8
1
10
2684.043213
20
4155.550293
0
VERTEX
8
1
10
2695.693359
20
4142.939941
0
VERTEX
8
1
10
2705.523193
20
4132.850098
0
VERTEX
8
1
10
2711.213379
20
4127.910156
0
VERTEX
8
1
10
2717.653320
20
4123.380371
0
VERTEX
8
1
10
2723.303467
20
4120.250000
0
VERTEX
8
1
10
2727.533447
20
4118.250000
0
VERTEX
8
1
10
2732.613281
20
4116.180176
0
VERTEX
8
1
10
2738.493408
20
4114.140137
0
VERTEX
8
1
10
2745.253174
20
4112.140137
0
VERTEX
8
1
10
2752.873291
20
4110.240234
0
VERTEX
8
1
10
2766.373291
20
4107.510254
0
VERTEX
8
1
10
2788.543213
20
4104.370117
0
VERTEX
8
1
10
2815.613281
20
4101.970215
0
VERTEX
8
1
10
2848.213379
20
4100.399902
0
VERTEX
8
1
10
2892.843506
20
4099.479980
0
VERTEX
8
1
10
2856.783447
20
3249.910156
0
VERTEX
8
1
10
2906.093262
20
2389.849609
0
VERTEX
8
1
10
2854.543213
20
2387.259766
0
VERTEX
8
1
10
2828.603271
20
2385.450195
0
VERTEX
8
1
10
2804.013184
20
2383.110352
0
VERTEX
8
1
10
2780.673096
20
2380.240234
0
VERTEX
8
1
10
2758.573242
20
2376.849609
0
VERTEX
8
1
10
2737.703369
20
2372.969727
0
VERTEX
8
1
10
2718.023193
20
2368.610352
0
VERTEX
8
1
10
2699.533203
20
2363.780273
0
VERTEX
8
1
10
2682.203369
20
2358.509766
0
VERTEX
8
1
10
2666.005127
20
2352.810059
0
VERTEX
8
1
10
2650.919189
20
2346.700195
0
VERTEX
8
1
10
2636.909424
20
2340.209961
0
VERTEX
8
1
10
2623.941162
20
2333.339844
0
VERTEX
8
1
10
2611.972412
20
2326.129883
0
VERTEX
8
1
10
2600.957275
20
2318.570312
0
VERTEX
8
1
10
2590.845215
20
2310.679688
0
VERTEX
8
1
10
2581.584229
20
2302.469727
0
VERTEX
8
1
10
2573.120361
20
2293.910156
0
VERTEX
8
1
10
2565.399170
20
2284.990234
0
VERTEX
8
1
10
2558.374268
20
2275.709961
0
VERTEX
8
1
10
2552.001221
20
2266.009766
0
VERTEX
8
1
10
2546.247314
20
2255.889648
0
VERTEX
8
1
10
2541.084229
20
2245.299805
0
VERTEX
8
1
10
2536.491211
20
2234.230469
0
VERTEX
8
1
10
2532.456299
20
2222.644043
0
VERTEX
8
1
10
2528.970215
20
2210.531250
0
VERTEX
8
1
10
2526.025146
20
2197.877930
0
VERTEX
8
1
10
2523.616211
20
2184.678711
0
VERTEX
8
1
10
2521.739014
20
2170.932617
0
VERTEX
8
1
10
2520.388428
20
2156.642578
0
VERTEX
8
1
10
2519.555420
20
2141.816406
0
VERTEX
8
1
10
2519.232178
20
2126.458008
0
VERTEX
8
1
10
2519.407227
20
2110.580078
0
VERTEX
8
1
10
2520.068115
20
2094.193359
0
VERTEX
8
1
10
2521.201416
20
2077.306641
0
VERTEX
8
1
10
2522.785400
20
2060.000000
0
VERTEX
8
1
10
2525.941162
20
2033.074219
0
VERTEX
8
1
10
2531.660400
20
1995.484375
0
VERTEX
8
1
10
2538.864014
20
1956.206055
0
VERTEX
8
1
10
2547.401123
20
1915.253906
0
VERTEX
8
1
10
2557.101318
20
1872.698242
0
VERTEX
8
1
10
2567.785400
20
1828.625977
0
VERTEX
8
1
10
2585.238037
20
1759.840820
0
VERTEX
8
1
10
2604.047119
20
1687.630859
0
VERTEX
8
1
10
2536.543213
20
1676.386719
0
VERTEX
8
1
10
2483.200195
20
1668.281250
0
VERTEX
8
1
10
2429.887207
20
1661.081055
0
VERTEX
8
1
10
2376.559326
20
1654.737305
0
VERTEX
8
1
10
2323.113037
20
1649.194336
0
VERTEX
8
1
10
2269.447998
20
1644.394043
0
VERTEX
8
1
10
2215.460205
20
1640.279297
0
VERTEX
8
1
10
2161.047119
20
1636.792969
0
VERTEX
8
1
10
2106.104004
20
1633.876953
0
VERTEX
8
1
10
2050.527100
20
1631.474121
0
VERTEX
8
1
10
1994.210205
20
1629.528320
0
VERTEX
8
1
10
1937.029053
20
1627.980469
0
VERTEX
8
1
10
1849.627197
20
1626.250977
0
VERTEX
8
1
10
1728.974609
20
1624.867188
0
VERTEX
8
1
10
1666.312256
20
1624.432129
0
VERTEX
8
1
10
1515.000000
20
1624.432129
0
VERTEX
8
1
10
1515.000244
20
4289.000000
0
SEQEND
0
POINT
8
3
10
1515.000244
20
4289.000000
0
POINT
8
3
10
1666.199707
20
4289.000000
0
POINT
8
3
10
1729.316406
20
4288.939941
0
POINT
8
3
10
1846.320312
20
4287.950195
0
POINT
8
3
10
1952.794434
20
4285.979980
0
POINT
8
3
10
2049.261230
20
4283.100098
0
POINT
8
3
10
2136.274414
20
4279.360352
0
POINT
8
3
10
2214.386230
20
4274.830078
0
POINT
8
3
10
2299.091309
20
4268.439941
0
POINT
8
3
10
2346.143311
20
4263.630371
0
POINT
8
3
10
2400.914307
20
4257.080078
0
POINT
8
3
10
2448.983398
20
4249.970215
0
POINT
8
3
10
2480.855225
20
4244.270020
0
POINT
8
3
10
2500.524414
20
4240.310059
0
POINT
8
3
10
2518.801270
20
4236.240234
0
POINT
8
3
10
2535.813232
20
4232.050293
0
POINT
8
3
10
2551.632324
20
4227.750000
0
POINT
8
3
10
2566.328369
20
4223.330078
0
POINT
8
3
10
2579.971436
20
4218.790039
0
POINT
8
3
10
2592.628418
20
4214.140137
0
POINT
8
3
10
2604.362305
20
4209.370117
0
POINT
8
3
10
2615.235352
20
4204.490234
0
POINT
8
3
10
2625.300293
20
4199.490234
0
POINT
8
3
10
2634.727295
20
4194.320312
0
POINT
8
3
10
2647.444336
20
4186.510254
0
POINT
8
3
10
2661.844482
20
4176.000000
0
POINT
8
3
10
2673.963379
20
4165.520020
0
POINT
8
3
10
2684.043213
20
4155.550293
0
POINT
8
3
10
2695.693359
20
4142.939941
0
POINT
8
3
10
2705.523193
20
4132.850098
0
POINT
8
3
10
2711.213379
20
4127.910156
0
POINT
8
3
10
2717.653320
20
4123.380371
0
POINT
8
3
10
2723.303467
20
4120.250000
0
POINT
8
3
10
2727.533447
20
4118.250000
0
POINT
8
3
10
2732.613281
20
4116.180176
0
POINT
8
3
10
2738.493408
20
4114.140137
0
POINT
8
3
10
2745.253174
20
4112.140137
0
POINT
8
3
10
2752.873291
20
4110.240234
0
POINT
8
3
10
2766.373291
20
4107.510254
0
POINT
8
3
10
2788.543213
20
4104.370117
0
POINT
8
3
10
2815.613281
20
4101.970215
0
POINT
8
3
10
2848.213379
20
4100.399902
0
POINT
8
2
10
2892.843506
20
4099.479980
0
POINT
8
3
10
2856.783447
20
3249.910156
0
POINT
8
2
10
2906.093262
20
2389.849609
0
POINT
8
3
10
2854.543213
20
2387.259766
0
POINT
8
3
10
2828.603271
20
2385.450195
0
POINT
8
3
10
2804.013184
20
2383.110352
0
POINT
8
3
10
2780.673096
20
2380.240234
0
POINT
8
3
10
2758.573242
20
2376.849609
0
POINT
8
3
10
2737.703369
20
2372.969727
0
POINT
8
3
10
2718.023193
20
2368.610352
0
POINT
8
3
10
2699.533203
20
2363.780273
0
POINT
8
3
10
2682.203369
20
2358.509766
0
POINT
8
3
10
2666.005127
20
2352.810059
0
POINT
8
3
10
2650.919189
20
2346.700195
0
POINT
8
3
10
2636.909424
20
2340.209961
0
POINT
8
3
10
2623.941162
20
2333.339844
0
POINT
8
3
10
2611.972412
20
2326.129883
0
POINT
8
3
10
2600.957275
20
2318.570312
0
POINT
8
3
10
2590.845215
20
2310.679688
0
POINT
8
3
10
2581.584229
20
2302.469727
0
POINT
8
3
10
2573.120361
20
2293.910156
0
POINT
8
3
10
2565.399170
20
2284.990234
0
POINT
8
3
10
2558.374268
20
2275.709961
0
POINT
8
3
10
2552.001221
20
2266.009766
0
POINT
8
3
10
2546.247314
20
2255.889648
0
POINT
8
3
10
2541.084229
20
2245.299805
0
POINT
8
3
10
2536.491211
20
2234.230469
0
POINT
8
3
10
2532.456299
20
2222.644043
0
POINT
8
3
10
2528.970215
20
2210.531250
0
POINT
8
3
10
2526.025146
20
2197.877930
0
POINT
8
3
10
2523.616211
20
2184.678711
0
POINT
8
3
10
2521.739014
20
2170.932617
0
POINT
8
3
10
2520.388428
20
2156.642578
0
POINT
8
3
10
2519.555420
20
2141.816406
0
POINT
8
3
10
2519.232178
20
2126.458008
0
POINT
8
3
10
2519.407227
20
2110.580078
0
POINT
8
3
10
2520.068115
20
2094.193359
0
POINT
8
3
10
2521.201416
20
2077.306641
0
POINT
8
3
10
2522.785400
20
2060.000000
0
POINT
8
3
10
2525.941162
20
2033.074219
0
POINT
8
3
10
2531.660400
20
1995.484375
0
POINT
8
3
10
2538.864014
20
1956.206055
0
POINT
8
3
10
2547.401123
20
1915.253906
0
POINT
8
3
10
2557.101318
20
1872.698242
0
POINT
8
3
10
2567.785400
20
1828.625977
0
POINT
8
3
10
2585.238037
20
1759.840820
0
POINT
8
2
10
2604.047119
20
1687.630859
0
POINT
8
3
10
2536.543213
20
1676.386719
0
POINT
8
3
10
2483.200195
20
1668.281250
0
POINT
8
3
10
2429.887207
20
1661.081055
0
POINT
8
3
10
2376.559326
20
1654.737305
0
POINT
8
3
10
2323.113037
20
1649.194336
0
POINT
8
3
10
2269.447998
20
1644.394043
0
POINT
8
3
10
2215.460205
20
1640.279297
0
POINT
8
3
10
2161.047119
20
1636.792969
0
POINT
8
3
10
2106.104004
20
1633.876953
0
POINT
8
3
10
2050.527100
20
1631.474121
0
POINT
8
3
10
1994.210205
20
1629.528320
0
POINT
8
3
10
1937.029053
20
1627.980469
0
POINT
8
3
10
1849.627197
20
1626.250977
0
POINT
8
3
10
1728.974609
20
1624.867188
0
POINT
8
3
10
1666.312256
20
1624.432129
0
POINT
8
2
10
1515.000000
20
1624.432129
0
POINT
8
3
10
1515.000244
20
4289.000000
0
ENDBLK
0
BLOCK
8
1
2
piece_PocketRound_M
70
64
10
0.000000
20
0.000000
0
POLYLINE
8
14
66
1
70
1
250
2
0
VERTEX
8
14
10
2551.747070
20
5869.110840
0
VERTEX
8
14
10
2551.747070
20
5212.918945
0
VERTEX
8
14
10
2524.805176
20
5199.868896
0
VERTEX
8
14
10
2513.088379
20
5194.711914
0
VERTEX
8
14
10
2500.963379
20
5189.933594
0
VERTEX
8
14
10
2488.536133
20
5185.534180
0
VERTEX
8
14
10
2469.817383
20
5179.673584
0
VERTEX
8
14
10
2444.721191
20
5173.208008
0
VERTEX
8
14
10
2419.873047
20
5168.117432
0
VERTEX
8
14
10
2395.900391
20
5164.382324
0
VERTEX
8
14
10
2373.303223
20
5161.983887
0
VERTEX
8
14
10
2352.728027
20
5160.947998
0
VERTEX
8
14
10
2343.072266
20
5161.021973
0
VERTEX
8
14
10
2332.873047
20
5161.376465
0
VERTEX
8
14
10
2310.856445
20
5163.300293
0
VERTEX
8
14
10
2286.742188
20
5166.533936
0
VERTEX
8
14
10
2261.498047
20
5170.915039
0
VERTEX
8
14
10
2235.970215
20
5176.328613
0
VERTEX
8
14
10
2211.040039
20
5182.688965
0
VERTEX
8
14
10
2187.590332
20
5189.939697
0
VERTEX
8
14
10
2171.440430
20
5196.070312
0
VERTEX
8
14
10
2161.290039
20
5200.572021
0
VERTEX
8
14
10
2136.000000
20
5213.382812
0
VERTEX
8
14
10
2136.000000
20
5867.741943
0
VERTEX
8
14
10
2174.560059
20
5881.862061
0
VERTEX
8
14
10
2202.010254
20
5890.843994
0
VERTEX
8
14
10
2228.850098
20
5898.497070
0
VERTEX
8
14
10
2254.494141
20
5904.810059
0
VERTEX
8
14
10
2278.505371
20
5909.808105
0
VERTEX
8
14
10
2300.489258
20
5913.509033
0
VERTEX
8
14
10
2320.159180
20
5915.924072
0
VERTEX
8
14
10
2337.177246
20
5917.000000
0
VERTEX
8
14
10
2345.064453
20
5916.912109
0
VERTEX
8
14
10
2353.073242
20
5916.497070
0
VERTEX
8
14
10
2370.774414
20
5914.370117
0
VERTEX
8
14
10
2391.328125
20
5910.937012
0
VERTEX
8
14
10
2414.139160
20
5906.419189
0
VERTEX
8
14
10
2438.565430
20
5900.986816
0
VERTEX
8
14
10
2463.845215
20
5894.821777
0
VERTEX
8
14
10
2489.178223
20
5888.100830
0
VERTEX
8
14
10
2513.679199
20
5881.017822
0
VERTEX
8
14
10
2551.747070
20
5869.110840
0
SEQEND
0
POINT
8
3
10
2551.747070
20
5869.110840
0
POINT
8
2
10
2551.747070
20
5212.918945
0
POINT
8
3
10
2524.805176
20
5199.868896
0
POINT
8
3
10
2513.088379
20
5194.711914
0
POINT
8
3
10
2500.963379
20
5189.933594
0
POINT
8
3
10
2488.536133
20
5185.534180
0
POINT
8
3
10
2469.817383
20
5179.673584
0
POINT
8
3
10
2444.721191
20
5173.208008
0
POINT
8
3
10
2419.873047
20
5168.117432
0
POINT
8
3
10
2395.900391
20
5164.382324
0
POINT
8
3
10
2373.303223
20
5161.983887
0
POINT
8
3
10
2352.728027
20
5160.947998
0
POINT
8
3
10
2343.072266
20
5161.021973
0
POINT
8
3
10
2332.873047
20
5161.376465
0
POINT
8
3
10
2310.856445
20
5163.300293
0
POINT
8
3
10
2286.742188
20
5166.533936
0
POINT
8
3
10
2261.498047
20
5170.915039
0
POINT
8
3
10
2235.970215
20
5176.328613
0
POINT
8
3
10
2211.040039
20
5182.688965
0
POINT
8
3
10
2187.590332
20
5189.939697
0
POINT
8
3
10
2171.440430
20
5196.070312
0
POINT
8
3
10
2161.290039
20
5200.572021
0
POINT
8
2
10
2136.000000
20
5213.382812
0
POINT
8
2
10
2136.000000
20
5867.741943
0
POINT
8
3
10
2174.560059
20
5881.862061
0
POINT
8
3
10
2202.010254
20
5890.843994
0
POINT
8
3
10
2228.850098
20
5898.497070
0
POINT
8
3
10
2254.494141
20
5904.810059
0
POINT
8
3
10
2278.505371
20
5909.808105
0
POINT
8
3
10
2300.489258
20
5913.509033
0
POINT
8
3
10
2320.159180
20
5915.924072
0
POINT
8
3
10
2337.177246
20
5917.000000
0
POINT
8
3
10
2345.064453
20
5916.912109
0
POINT
8
3
10
2353.073242
20
5916.497070
0
POINT
8
3
10
2370.774414
20
5914.370117
0
POINT
8
3
10
2391.328125
20
5910.937012
0
POINT
8
3
10
2414.139160
20
5906.419189
0
POINT
8
3
10
2438.565430
20
5900.986816
0
POINT
8
3
10
2463.845215
20
5894.821777
0
POINT
8
3
10
2489.178223
20
5888.100830
0
POINT
8
3
10
2513.679199
20
5881.017822
0
POINT
8
3
10
2551.747070
20
5869.110840
0
LINE
8
7
10
2447.129395
20
5804.770752
11
2447.129395
21
5313.431885
0
POLYLINE
8
1
66
1
70
1
250
0
0
VERTEX
8
1
10
2551.747070
20
5869.110840
0
VERTEX
8
1
10
2551.747070
20
5212.918945
0
VERTEX
8
1
10
2524.805176
20
5199.868896
0
VERTEX
8
1
10
2513.088379
20
5194.711914
0
VERTEX
8
1
10
2500.963379
20
5189.933594
0
VERTEX
8
1
10
2488.536133
20
5185.534180
0
VERTEX
8
1
10
2469.817383
20
5179.673584
0
VERTEX
8
1
10
2444.721191
20
5173.208008
0
VERTEX
8
1
10
2419.873047
20
5168.117432
0
VERTEX
8
1
10
2395.900391
20
5164.382324
0
VERTEX
8
1
10
2373.303223
20
5161.983887
0
VERTEX
8
1
10
2352.728027
20
5160.947998
0
VERTEX
8
1
10
2343.072266
20
5161.021973
0
VERTEX
8
1
10
2332.873047
20
5161.376465
0
VERTEX
8
1
10
2310.856445
20
5163.300293
0
VERTEX
8
1
10
2286.742188
20
5166.533936
0
VERTEX
8
1
10
2261.498047
20
5170.915039
0
VERTEX
8
1
10
2235.970215
20
5176.328613
0
VERTEX
8
1
10
2211.040039
20
5182.688965
0
VERTEX
8
1
10
2187.590332
20
5189.939697
0
VERTEX
8
1
10
2171.440430
20
5196.070312
0
VERTEX
8
1
10
2161.290039
20
5200.572021
0
VERTEX
8
1
10
2136.000000
20
5213.382812
0
VERTEX
8
1
10
2136.000000
20
5867.741943
0
VERTEX
8
1
10
2174.560059
20
5881.862061
0
VERTEX
8
1
10
2202.010254
20
5890.843994
0
VERTEX
8
1
10
2228.850098
20
5898.497070
0
VERTEX
8
1
10
2254.494141
20
5904.810059
0
VERTEX
8
1
10
2278.505371
20
5909.808105
0
VERTEX
8
1
10
2300.489258
20
5913.509033
0
VERTEX
8
1
10
2320.159180
20
5915.924072
0
VERTEX
8
1
10
2337.177246
20
5917.000000
0
VERTEX
8
1
10
2345.064453
20
5916.912109
0
VERTEX
8
1
10
2353.073242
20
5916.497070
0
VERTEX
8
1
10
2370.774414
20
5914.370117
0
VERTEX
8
1
10
2391.328125
20
5910.937012
0
VERTEX
8
1
10
2414.139160
20
5906.419189
0
VERTEX
8
1
10
2438.565430
20
5900.986816
0
VERTEX
8
1
10
2463.845215
20
5894.821777
0
VERTEX
8
1
10
2489.178223
20
5888.100830
0
VERTEX
8
1
10
2513.679199
20
5881.017822
0
VERTEX
8
1
10
2551.747070
20
5869.110840
0
SEQEND
0
POINT
8
3
10
2551.747070
20
5869.110840
0
POINT
8
2
10
2551.747070
20
5212.918945
0
POINT
8
3
10
2524.805176
20
5199.868896
0
POINT
8
3
10
2513.088379
20
5194.711914
0
POINT
8
3
10
2500.963379
20
5189.933594
0
POINT
8
3
10
2488.536133
20
5185.534180
0
POINT
8
3
10
2469.817383
20
5179.673584
0
POINT
8
3
10
2444.721191
20
5173.208008
0
POINT
8
3
10
2419.873047
20
5168.117432
0
POINT
8
3
10
2395.900391
20
5164.382324
0
POINT
8
3
10
2373.303223
20
5161.983887
0
POINT
8
3
10
2352.728027
20
5160.947998
0
POINT
8
3
10
2343.072266
20
5161.021973
0
POINT
8
3
10
2332.873047
20
5161.376465
0
POINT
8
3
10
2310.856445
20
5163.300293
0
POINT
8
3
10
2286.742188
20
5166.533936
0
POINT
8
3
10
2261.498047
20
5170.915039
0
POINT
8
3
10
2235.970215
20
5176.328613
0
POINT
8
3
10
2211.040039
20
5182.688965
0
POINT
8
3
10
2187.590332
20
5189.939697
0
POINT
8
3
10
2171.440430
20
5196.070312
0
POINT
8
3
10
2161.290039
20
5200.572021
0
POINT
8
2
10
2136.000000
20
5213.382812
0
POINT
8
2
10
2136.000000
20
5867.741943
0
POINT
8
3
10
2174.560059
20
5881.862061
0
POINT
8
3
10
2202.010254
20
5890.843994
0
POINT
8
3
10
2228.850098
20
5898.497070
0
POINT
8
3
10
2254.494141
20
5904.810059
0
POINT
8
3
10
2278.505371
20
5909.808105
0
POINT
8
3
10
2300.489258
20
5913.509033
0
POINT
8
3
10
2320.159180
20
5915.924072
0
POINT
8
3
10
2337.177246
20
5917.000000
0
POINT
8
3
10
2345.064453
20
5916.912109
0
POINT
8
3
10
2353.073242
20
5916.497070
0
POINT
8
3
10
2370.774414
20
5914.370117
0
POINT
8
3
10
2391.328125
20
5910.937012
0
POINT
8
3
10
2414.139160
20
5906.419189
0
POINT
8
3
10
2438.565430
20
5900.986816
0
POINT
8
3
10
2463.845215
20
5894.821777
0
POINT
8
3
10
2489.178223
20
5888.100830
0
POINT
8
3
10
2513.679199
20
5881.017822
0
POINT
8
3
10
2551.747070
20
5869.110840
0
ENDBLK
0
BLOCK
8
1
2
piece_Cuff_M
70
64
10
0.000000
20
0.000000
0
POLYLINE
8
14
66
1
70
1
250
2
0
VERTEX
8
14
10
3307.649902
20
6224.999756
0
VERTEX
8
14
10
3307.649902
20
5922.639648
0
VERTEX
8
14
10
2136.000000
20
5922.639893
0
VERTEX
8
14
10
2136.000000
20
6225.000000
0
VERTEX
8
14
10
3307.649902
20
6224.999756
0
SEQEND
0
POINT
8
3
10
3307.649902
20
6224.999756
0
POINT
8
2
10
3307.649902
20
5922.639648
0
POINT
8
2
10
2136.000000
20
5922.639893
0
POINT
8
2
10
2136.000000
20
6225.000000
0
POINT
8
3
10
3307.649902
20
6224.999756
0
LINE
8
7
10
3055.260254
20
6161.739746
11
3055.260254
21
5991.659668
0
POLYLINE
8
1
66
1
70
1
250
0
0
VERTEX
8
1
10
3307.649902
20
6224.999756
0
VERTEX
8
1
10
3307.649902
20
5922.639648
0
VERTEX
8
1
10
2136.000000
20
5922.639893
0
VERTEX
8
1
10
2136.000000
20
6225.000000
0
VERTEX
8
1
10
3307.649902
20
6224.999756
0
SEQEND
0
POINT
8
3
10
3307.649902
20
6224.999756
0
POINT
8
2
10
3307.649902
20
5922.639648
0
POINT
8
2
10
2136.000000
20
5922.639893
0
POINT
8
2
10
2136.000000
20
6225.000000
0
POINT
8
3
10
3307.649902
20
6224.999756
0
ENDBLK
0
BLOCK
8
1
2
piece_PocketFlapRound_M
70
64
10
0.000000
20
0.000000
0
POLYLINE
8
14
66
1
70
1
250
2
0
VERTEX
8
14
10
2551.747070
20
5104.167969
0
VERTEX
8
14
10
2551.747070
20
4928.190063
0
VERTEX
8
14
10
2136.000000
20
4928.190063
0
VERTEX
8
14
10
2136.000000
20
5104.080078
0
VERTEX
8
14
10
2168.650391
20
5118.379028
0
VERTEX
8
14
10
2189.730469
20
5126.536011
0
VERTEX
8
14
10
2211.870117
20
5133.854980
0
VERTEX
8
14
10
2234.760254
20
5140.217041
0
VERTEX
8
14
10
2258.262207
20
5145.555054
0
VERTEX
8
14
10
2282.231445
20
5149.795044
0
VERTEX
8
14
10
2306.523438
20
5152.853027
0
VERTEX
8
14
10
2330.816406
20
5154.626953
0
VERTEX
8
14
10
2343.296387
20
5154.959961
0
VERTEX
8
14
10
2353.750977
20
5155.000000
0
VERTEX
8
14
10
2375.274414
20
5153.824951
0
VERTEX
8
14
10
2398.065430
20
5151.224976
0
VERTEX
8
14
10
2421.646484
20
5147.288086
0
VERTEX
8
14
10
2445.733398
20
5142.061035
0
VERTEX
8
14
10
2470.014160
20
5135.576050
0
VERTEX
8
14
10
2494.169434
20
5127.849976
0
VERTEX
8
14
10
2517.689453
20
5118.951050
0
VERTEX
8
14
10
2551.747070
20
5104.167969
0
SEQEND
0
POINT
8
3
10
2551.747070
20
5104.167969
0
POINT
8
2
10
2551.747070
20
4928.190063
0
POINT
8
2
10
2136.000000
20
4928.190063
0
POINT
8
2
10
2136.000000
20
5104.080078
0
POINT
8
3
10
2168.650391
20
5118.379028
0
POINT
8
3
10
2189.730469
20
5126.536011
0
POINT
8
3
10
2211.870117
20
5133.854980
0
POINT
8
3
10
2234.760254
20
5140.217041
0
POINT
8
3
10
2258.262207
20
5145.555054
0
POINT
8
3
10
2282.231445
20
5149.795044
0
POINT
8
3
10
2306.523438
20
5152.853027
0
POINT
8
3
10
2330.816406
20
5154.626953
0
POINT
8
3
10
2343.296387
20
5154.959961
0
POINT
8
3
10
2353.750977
20
5155.000000
0
POINT
8
3
10
2375.274414
20
5153.824951
0
POINT
8
3
10
2398.065430
20
5151.224976
0
POINT
8
3
10
2421.646484
20
5147.288086
0
POINT
8
3
10
2445.733398
20
5142.061035
0
POINT
8
3
10
2470.014160
20
5135.576050
0
POINT
8
3
10
2494.169434
20
5127.849976
0
POINT
8
3
10
2517.689453
20
5118.951050
0
POINT
8
3
10
2551.747070
20
5104.167969
0
LINE
8
7
10
2393.700195
20
5095.740967
11
2393.700195
21
4982.354980
0
POLYLINE
8
1
66
1
70
1
250
0
0
VERTEX
8
1
10
2551.747070
20
5104.167969
0
VERTEX
8
1
10
2551.747070
20
4928.190063
0
VERTEX
8
1
10
2136.000000
20
4928.190063
0
VERTEX
8
1
10
2136.000000
20
5104.080078
0
VERTEX
8
1
10
2168.650391
20
5118.379028
0
VERTEX
8
1
10
2189.730469
20
5126.536011
0
VERTEX
8
1
10
2211.870117
20
5133.854980
0
VERTEX
8
1
10
2234.760254
20
5140.217041
0
VERTEX
8
1
10
2258.262207
20
5145.555054
0
VERTEX
8
1
10
2282.231445
20
5149.795044
0
VERTEX
8
1
10
2306.523438
20
5152.853027
0
VERTEX
8
1
10
2330.816406
20
5154.626953
0
VERTEX
8
1
10
2343.296387
20
5154.959961
0
VERTEX
8
1
10
2353.750977
20
5155.000000
0
VERTEX
8
1
10
2375.274414
20
5153.824951
0
VERTEX
8
1
10
2398.065430
20
5151.224976
0
VERTEX
8
1
10
2421.646484
20
5147.288086
0
VERTEX
8
1
10
2445.733398
20
5142.061035
0
VERTEX
8
1
10
2470.014160
20
5135.576050
0
VERTEX
8
1
10
2494.169434
20
5127.849976
0
VERTEX
8
1
10
2517.689453
20
5118.951050
0
VERTEX
8
1
10
2551.747070
20
5104.167969
0
SEQEND
0
POINT
8
3
10
2551.747070
20
5104.167969
0
POINT
8
2
10
2551.747070
20
4928.190063
0
POINT
8
2
10
2136.000000
20
4928.190063
0
POINT
8
2
10
2136.000000
20
5104.080078
0
POINT
8
3
10
2168.650391
20
5118.379028
0
POINT
8
3
10
2189.730469
20
5126.536011
0
POINT
8
3
10
2211.870117
20
5133.854980
0
POINT
8
3
10
2234.760254
20
5140.217041
0
POINT
8
3
10
2258.262207
20
5145.555054
0
POINT
8
3
10
2282.231445
20
5149.795044
0
POINT
8
3
10
2306.523438
20
5152.853027
0
POINT
8
3
10
2330.816406
20
5154.626953
0
POINT
8
3
10
2343.296387
20
5154.959961
0
POINT
8
3
10
2353.750977
20
5155.000000
0
POINT
8
3
10
2375.274414
20
5153.824951
0
POINT
8
3
10
2398.065430
20
5151.224976
0
POINT
8
3
10
2421.646484
20
5147.288086
0
POINT
8
3
10
2445.733398
20
5142.061035
0
POINT
8
3
10
2470.014160
20
5135.576050
0
POINT
8
3
10
2494.169434
20
5127.849976
0
POINT
8
3
10
2517.689453
20
5118.951050
0
POINT
8
3
10
2551.747070
20
5104.167969
0
ENDBLK
0
BLOCK
8
1
2
piece_CollarBaseInterface_M
70
64
10
0.000000
20
0.000000
0
POLYLINE
8
14
70
1
0
VERTEX
8
14
10
2996.600098
20
942.255859
70
32
0
VERTEX
8
14
10
2973.400391
20
942.514160
70
32
0
VERTEX
8
14
10
2927.510254
20
942.216797
70
32
0
VERTEX
8
14
10
2882.330078
20
941.057129
70
32
0
VERTEX
8
14
10
2837.980469
20
939.160156
70
32
0
VERTEX
8
14
10
2794.570312
20
936.649902
70
32
0
VERTEX
8
14
10
2752.209961
20
933.653809
70
32
0
VERTEX
8
14
10
2690.760254
20
928.543945
70
32
0
VERTEX
8
14
10
2576.780273
20
917.392090
70
32
0
VERTEX
8
14
10
2495.120117
20
909.610840
70
32
0
VERTEX
8
14
10
2465.410156
20
907.245117
70
32
0
VERTEX
8
14
10
2437.799805
20
905.521973
70
32
0
VERTEX
8
14
10
2412.400391
20
904.568848
70
32
0
VERTEX
8
14
10
2400.669922
20
904.459961
70
32
0
VERTEX
8
14
10
2391.959961
20
904.508789
70
32
0
VERTEX
8
14
10
2372.169922
20
905.252930
70
32
0
VERTEX
8
14
10
2350.110352
20
906.664062
70
32
0
VERTEX
8
14
10
2326.400391
20
908.623047
70
32
0
VERTEX
8
14
10
2289.110352
20
912.298828
70
32
0
VERTEX
8
14
10
2239.260254
20
918.083008
70
32
0
VERTEX
8
14
10
2173.200195
20
926.739746
70
32
0
VERTEX
8
14
10
2137.419922
20
931.974121
70
32
0
VERTEX
8
14
10
2136.000000
20
932.283203
70
32
0
VERTEX
8
14
10
2145.330078
20
930.916992
70
32
0
VERTEX
8
14
10
2153.129883
20
1006.104980
70
32
0
VERTEX
8
14
10
2176.780273
20
1013.179199
70
32
0
VERTEX
8
14
10
2211.310059
20
1022.959961
70
32
0
VERTEX
8
14
10
2235.290039
20
1029.029785
70
32
0
VERTEX
8
14
10
2261.110352
20
1034.701172
70
32
0
VERTEX
8
14
10
2289.709961
20
1039.958984
70
32
0
VERTEX
8
14
10
2322.040039
20
1044.791016
70
32
0
VERTEX
8
14
10
2359.040039
20
1049.185059
70
32
0
VERTEX
8
14
10
2401.669922
20
1053.126953
70
32
0
VERTEX
8
14
10
2450.860352
20
1056.604980
70
32
0
VERTEX
8
14
10
2507.570312
20
1059.605957
70
32
0
VERTEX
8
14
10
2572.730469
20
1062.117188
70
32
0
VERTEX
8
14
10
2647.299805
20
1064.125000
70
32
0
VERTEX
8
14
10
2732.230469
20
1065.616211
70
32
0
VERTEX
8
14
10
2828.450195
20
1066.579102
70
32
0
VERTEX
8
14
10
2936.910156
20
1067.000000
70
32
0
VERTEX
8
14
10
2996.600098
20
1066.979980
70
32
0
VERTEX
8
14
10
2996.600098
20
942.255859
70
32
0
SEQEND
8
14
0
ENDBLK
0
BLOCK
8
1
2
piece_CollarBase_M
70
64
10
0.000000
20
0.000000
0
POLYLINE
8
14
66
1
70
1
250
2
0
VERTEX
8
14
10
2136.000000
20
1273.626953
0
VERTEX
8
14
10
2197.090332
20
1272.947266
0
VERTEX
8
14
10
2242.280273
20
1273.239258
0
VERTEX
8
14
10
2286.780273
20
1274.380859
0
VERTEX
8
14
10
2330.530273
20
1276.252930
0
VERTEX
8
14
10
2373.410156
20
1278.731934
0
VERTEX
8
14
10
2415.290039
20
1281.694336
0
VERTEX
8
14
10
2476.240234
20
1286.762207
0
VERTEX
8
14
10
2589.990234
20
1297.892090
0
VERTEX
8
14
10
2671.990234
20
1305.706055
0
VERTEX
8
14
10
2702.310547
20
1308.121094
0
VERTEX
8
14
10
2730.720215
20
1309.893066
0
VERTEX
8
14
10
2757.110352
20
1310.883789
0
VERTEX
8
14
10
2769.660156
20
1311.000000
0
VERTEX
8
14
10
2779.260254
20
1310.946289
0
VERTEX
8
14
10
2800.140137
20
1310.161133
0
VERTEX
8
14
10
2823.050293
20
1308.696289
0
VERTEX
8
14
10
2847.410156
20
1306.683105
0
VERTEX
8
14
10
2885.320312
20
1302.946289
0
VERTEX
8
14
10
2935.770508
20
1297.091797
0
VERTEX
8
14
10
3002.390137
20
1288.363281
0
VERTEX
8
14
10
3039.770508
20
1282.895020
0
VERTEX
8
14
10
3078.130371
20
1274.497070
0
VERTEX
8
14
10
3065.030273
20
1202.699219
0
VERTEX
8
14
10
3058.600098
20
1203.640137
0
VERTEX
8
14
10
3052.270508
20
1142.575195
0
VERTEX
8
14
10
3004.190430
20
1128.196289
0
VERTEX
8
14
10
2968.880371
20
1118.195312
0
VERTEX
8
14
10
2943.800293
20
1111.847168
0
VERTEX
8
14
10
2916.770508
20
1105.908203
0
VERTEX
8
14
10
2886.910156
20
1100.418945
0
VERTEX
8
14
10
2853.390137
20
1095.409180
0
VERTEX
8
14
10
2815.330078
20
1090.890137
0
VERTEX
8
14
10
2771.810547
20
1086.864258
0
VERTEX
8
14
10
2721.870117
20
1083.333984
0
VERTEX
8
14
10
2664.560547
20
1080.301270
0
VERTEX
8
14
10
2598.900391
20
1077.770996
0
VERTEX
8
14
10
2523.940430
20
1075.752930
0
VERTEX
8
14
10
2438.690430
20
1074.255859
0
VERTEX
8
14
10
2342.209961
20
1073.290039
0
VERTEX
8
14
10
2233.550293
20
1072.869141
0
VERTEX
8
14
10
2136.000000
20
1072.902344
0
VERTEX
8
14
10
2136.000000
20
1273.626953
0
SEQEND
0
POINT
8
3
10
2136.000000
20
1273.626953
0
POINT
8
3
10
2197.090332
20
1272.947266
0
POINT
8
3
10
2242.280273
20
1273.239258
0
POINT
8
3
10
2286.780273
20
1274.380859
0
POINT
8
3
10
2330.530273
20
1276.252930
0
POINT
8
3
10
2373.410156
20
1278.731934
0
POINT
8
3
10
2415.290039
20
1281.694336
0
POINT
8
3
10
2476.240234
20
1286.762207
0
POINT
8
3
10
2589.990234
20
1297.892090
0
POINT
8
3
10
2671.990234
20
1305.706055
0
POINT
8
3
10
2702.310547
20
1308.121094
0
POINT
8
3
10
2730.720215
20
1309.893066
0
POINT
8
3
10
2757.110352
20
1310.883789
0
POINT
8
3
10
2769.660156
20
1311.000000
0
POINT
8
3
10
2779.260254
20
1310.946289
0
POINT
8
3
10
2800.140137
20
1310.161133
0
POINT
8
3
10
2823.050293
20
1308.696289
0
POINT
8
3
10
2847.410156
20
1306.683105
0
POINT
8
3
10
2885.320312
20
1302.946289
0
POINT
8
3
10
2935.770508
20
1297.091797
0
POINT
8
3
10
3002.390137
20
1288.363281
0
POINT
8
3
10
3039.770508
20
1282.895020
0
POINT
8
2
10
3078.130371
20
1274.497070
0
POINT
8
2
10
3065.030273
20
1202.699219
0
POINT
8
2
10
3058.600098
20
1203.640137
0
POINT
8
2
10
3052.270508
20
1142.575195
0
POINT
8
3
10
3004.190430
20
1128.196289
0
POINT
8
3
10
2968.880371
20
1118.195312
0
POINT
8
3
10
2943.800293
20
1111.847168
0
POINT
8
3
10
2916.770508
20
1105.908203
0
POINT
8
3
10
2886.910156
20
1100.418945
0
POINT
8
3
10
2853.390137
20
1095.409180
0
POINT
8
3
10
2815.330078
20
1090.890137
0
POINT
8
3
10
2771.810547
20
1086.864258
0
POINT
8
3
10
2721.870117
20
1083.333984
0
POINT
8
3
10
2664.560547
20
1080.301270
0
POINT
8
3
10
2598.900391
20
1077.770996
0
POINT
8
3
10
2523.940430
20
1075.752930
0
POINT
8
3
10
2438.690430
20
1074.255859
0
POINT
8
3
10
2342.209961
20
1073.290039
0
POINT
8
3
10
2233.550293
20
1072.869141
0
POINT
8
2
10
2136.000000
20
1072.902344
0
POINT
8
3
10
2136.000000
20
1273.626953
0
LINE
8
7
10
2745.050293
20
1270.840820
11
2745.050293
21
1127.218750
0
POLYLINE
8
1
66
1
70
1
250
0
0
VERTEX
8
1
10
2136.000000
20
1273.626953
0
VERTEX
8
1
10
2197.090332
20
1272.947266
0
VERTEX
8
1
10
2242.280273
20
1273.239258
0
VERTEX
8
1
10
2286.780273
20
1274.380859
0
VERTEX
8
1
10
2330.530273
20
1276.252930
0
VERTEX
8
1
10
2373.410156
20
1278.731934
0
VERTEX
8
1
10
2415.290039
20
1281.694336
0
VERTEX
8
1
10
2476.240234
20
1286.762207
0
VERTEX
8
1
10
2589.990234
20
1297.892090
0
VERTEX
8
1
10
2671.990234
20
1305.706055
0
VERTEX
8
1
10
2702.310547
20
1308.121094
0
VERTEX
8
1
10
2730.720215
20
1309.893066
0
VERTEX
8
1
10
2757.110352
20
1310.883789
0
VERTEX
8
1
10
2769.660156
20
1311.000000
0
VERTEX
8
1
10
2779.260254
20
1310.946289
0
VERTEX
8
1
10
2800.140137
20
1310.161133
0
VERTEX
8
1
10
2823.050293
20
1308.696289
0
VERTEX
8
1
10
2847.410156
20
1306.683105
0
VERTEX
8
1
10
2885.320312
20
1302.946289
0
VERTEX
8
1
10
2935.770508
20
1297.091797
0
VERTEX
8
1
10
3002.390137
20
1288.363281
0
VERTEX
8
1
10
3039.770508
20
1282.895020
0
VERTEX
8
1
10
3078.130371
20
1274.497070
0
VERTEX
8
1
10
3065.030273
20
1202.699219
0
VERTEX
8
1
10
3058.600098
20
1203.640137
0
VERTEX
8
1
10
3052.270508
20
1142.575195
0
VERTEX
8
1
10
3004.190430
20
1128.196289
0
VERTEX
8
1
10
2968.880371
20
1118.195312
0
VERTEX
8
1
10
2943.800293
20
1111.847168
0
VERTEX
8
1
10
2916.770508
20
1105.908203
0
VERTEX
8
1
10
2886.910156
20
1100.418945
0
VERTEX
8
1
10
2853.390137
20
1095.409180
0
VERTEX
8
1
10
2815.330078
20
1090.890137
0
VERTEX
8
1
10
2771.810547
20
1086.864258
0
VERTEX
8
1
10
2721.870117
20
1083.333984
0
VERTEX
8
1
10
2664.560547
20
1080.301270
0
VERTEX
8
1
10
2598.900391
20
1077.770996
0
VERTEX
8
1
10
2523.940430
20
1075.752930
0
VERTEX
8
1
10
2438.690430
20
1074.255859
0
VERTEX
8
1
10
2342.209961
20
1073.290039
0
VERTEX
8
1
10
2233.550293
20
1072.869141
0
VERTEX
8
1
10
2136.000000
20
1072.902344
0
VERTEX
8
1
10
2136.000000
20
1273.626953
0
SEQEND
0
POINT
8
3
10
2136.000000
20
1273.626953
0
POINT
8
3
10
2197.090332
20
1272.947266
0
POINT
8
3
10
2242.280273
20
1273.239258
0
POINT
8
3
10
2286.780273
20
1274.380859
0
POINT
8
3
10
2330.530273
20
1276.252930
0
POINT
8
3
10
2373.410156
20
1278.731934
0
POINT
8
3
10
2415.290039
20
1281.694336
0
POINT
8
3
10
2476.240234
20
1286.762207
0
POINT
8
3
10
2589.990234
20
1297.892090
0
POINT
8
3
10
2671.990234
20
1305.706055
0
POINT
8
3
10
2702.310547
20
1308.121094
0
POINT
8
3
10
2730.720215
20
1309.893066
0
POINT
8
3
10
2757.110352
20
1310.883789
0
POINT
8
3
10
2769.660156
20
1311.000000
0
POINT
8
3
10
2779.260254
20
1310.946289
0
POINT
8
3
10
2800.140137
20
1310.161133
0
POINT
8
3
10
2823.050293
20
1308.696289
0
POINT
8
3
10
2847.410156
20
1306.683105
0
POINT
8
3
10
2885.320312
20
1302.946289
0
POINT
8
3
10
2935.770508
20
1297.091797
0
POINT
8
3
10
3002.390137
20
1288.363281
0
POINT
8
3
10
3039.770508
20
1282.895020
0
POINT
8
2
10
3078.130371
20
1274.497070
0
POINT
8
2
10
3065.030273
20
1202.699219
0
POINT
8
2
10
3058.600098
20
1203.640137
0
POINT
8
2
10
3052.270508
20
1142.575195
0
POINT
8
3
10
3004.190430
20
1128.196289
0
POINT
8
3
10
2968.880371
20
1118.195312
0
POINT
8
3
10
2943.800293
20
1111.847168
0
POINT
8
3
10
2916.770508
20
1105.908203
0
POINT
8
3
10
2886.910156
20
1100.418945
0
POINT
8
3
10
2853.390137
20
1095.409180
0
POINT
8
3
10
2815.330078
20
1090.890137
0
POINT
8
3
10
2771.810547
20
1086.864258
0
POINT
8
3
10
2721.870117
20
1083.333984
0
POINT
8
3
10
2664.560547
20
1080.301270
0
POINT
8
3
10
2598.900391
20
1077.770996
0
POINT
8
3
10
2523.940430
20
1075.752930
0
POINT
8
3
10
2438.690430
20
1074.255859
0
POINT
8
3
10
2342.209961
20
1073.290039
0
POINT
8
3
10
2233.550293
20
1072.869141
0
POINT
8
2
10
2136.000000
20
1072.902344
0
POINT
8
3
10
2136.000000
20
1273.626953
0
ENDBLK
0
BLOCK
8
1
2
piece_Pocket_M
70
64
10
0.000000
20
0.000000
0
POLYLINE
8
14
66
1
70
1
250
2
0
VERTEX
8
14
10
2972.747070
20
4977.149170
0
VERTEX
8
14
10
2972.747070
20
4825.968506
0
VERTEX
8
14
10
2557.000000
20
4825.968506
0
VERTEX
8
14
10
2557.000000
20
4977.149170
0
VERTEX
8
14
10
2557.000000
20
5498.806152
0
VERTEX
8
14
10
2764.873047
20
5545.000000
0
VERTEX
8
14
10
2972.747070
20
5498.806152
0
VERTEX
8
14
10
2972.747070
20
4977.149170
0
SEQEND
0
POINT
8
3
10
2972.747070
20
4977.149170
0
POINT
8
2
10
2972.747070
20
4825.968506
0
POINT
8
2
10
2557.000000
20
4825.968506
0
POINT
8
3
10
2557.000000
20
4977.149170
0
POINT
8
2
10
2557.000000
20
5498.806152
0
POINT
8
3
10
2764.873047
20
5545.000000
0
POINT
8
2
10
2972.747070
20
5498.806152
0
POINT
8
3
10
2972.747070
20
4977.149170
0
LINE
8
7
10
2803.158203
20
5411.870117
11
2803.158203
21
4920.531006
0
POLYLINE
8
1
66
1
70
1
250
0
0
VERTEX
8
1
10
2972.747070
20
4977.149170
0
VERTEX
8
1
10
2972.747070
20
4825.968506
0
VERTEX
8
1
10
2557.000000
20
4825.968506
0
VERTEX
8
1
10
2557.000000
20
4977.149170
0
VERTEX
8
1
10
2557.000000
20
5498.806152
0
VERTEX
8
1
10
2764.873047
20
5545.000000
0
VERTEX
8
1
10
2972.747070
20
5498.806152
0
VERTEX
8
1
10
2972.747070
20
4977.149170
0
SEQEND
0
POINT
8
3
10
2972.747070
20
4977.149170
0
POINT
8
2
10
2972.747070
20
4825.968506
0
POINT
8
2
10
2557.000000
20
4825.968506
0
POINT
8
3
10
2557.000000
20
4977.149170
0
POINT
8
2
10
2557.000000
20
5498.806152
0
POINT
8
3
10
2764.873047
20
5545.000000
0
POINT
8
2
10
2972.747070
20
5498.806152
0
POINT
8
3
10
2972.747070
20
4977.149170
0
ENDBLK
0
BLOCK
8
1
2
piece_FrontPanel_M
70
64
10
0.000000
20
0.000000
0
POLYLINE
8
14
66
1
70
1
250
2
0
VERTEX
8
14
10
1509.800171
20
4289.000000
0
VERTEX
8
14
10
1509.799927
20
1640.810059
0
VERTEX
8
14
10
1265.079956
20
1640.810059
0
VERTEX
8
14
10
1256.519897
20
1640.375977
0
VERTEX
8
14
10
1238.419922
20
1639.145020
0
VERTEX
8
14
10
1221.449951
20
1637.598145
0
VERTEX
8
14
10
1205.529785
20
1635.731934
0
VERTEX
8
14
10
1190.649902
20
1633.550781
0
VERTEX
8
14
10
1176.789795
20
1631.062988
0
VERTEX
8
14
10
1163.939941
20
1628.275879
0
VERTEX
8
14
10
1152.069824
20
1625.202148
0
VERTEX
8
14
10
1141.159912
20
1621.855957
0
VERTEX
8
14
10
1131.169922
20
1618.255859
0
VERTEX
8
14
10
1122.079834
20
1614.417969
0
VERTEX
8
14
10
1113.829834
20
1610.360352
0
VERTEX
8
14
10
1106.379883
20
1606.092773
0
VERTEX
8
14
10
1099.639893
20
1601.620117
0
VERTEX
8
14
10
1093.549805
20
1596.933105
0
VERTEX
8
14
10
1088.029785
20
1592.007812
0
VERTEX
8
14
10
1082.989990
20
1586.807129
0
VERTEX
8
14
10
1078.379883
20
1581.279297
0
VERTEX
8
14
10
1074.119873
20
1575.362305
0
VERTEX
8
14
10
1070.189941
20
1568.995117
0
VERTEX
8
14
10
1066.549805
20
1562.117188
0
VERTEX
8
14
10
1063.189941
20
1554.677734
0
VERTEX
8
14
10
1060.099854
20
1546.636719
0
VERTEX
8
14
10
1057.269775
20
1537.962891
0
VERTEX
8
14
10
1054.719971
20
1528.639160
0
VERTEX
8
14
10
1052.429932
20
1518.652344
0
VERTEX
8
14
10
1050.409912
20
1507.997070
0
VERTEX
8
14
10
1048.669922
20
1496.756836
0
VERTEX
8
14
10
1046.449951
20
1478.540039
0
VERTEX
8
14
10
1044.329834
20
1451.756836
0
VERTEX
8
14
10
1041.259766
20
1390.572266
0
VERTEX
8
14
10
307.170044
20
1588.085938
0
VERTEX
8
14
10
324.109985
20
1718.345215
0
VERTEX
8
14
10
340.900024
20
1851.828125
0
VERTEX
8
14
10
347.770020
20
1913.588867
0
VERTEX
8
14
10
351.640015
20
1952.901367
0
VERTEX
8
14
10
354.819946
20
1990.647949
0
VERTEX
8
14
10
357.229980
20
2026.768066
0
VERTEX
8
14
10
358.790039
20
2061.225098
0
VERTEX
8
14
10
359.430054
20
2093.981934
0
VERTEX
8
14
10
359.079956
20
2124.996094
0
VERTEX
8
14
10
357.670044
20
2154.223145
0
VERTEX
8
14
10
355.160034
20
2181.704102
0
VERTEX
8
14
10
352.489990
20
2201.002930
0
VERTEX
8
14
10
350.380005
20
2213.204102
0
VERTEX
8
14
10
347.969971
20
2225.010254
0
VERTEX
8
14
10
345.270020
20
2236.330078
0
VERTEX
8
14
10
342.260010
20
2247.169922
0
VERTEX
8
14
10
338.959961
20
2257.520020
0
VERTEX
8
14
10
335.359985
20
2267.390137
0
VERTEX
8
14
10
331.469971
20
2276.780273
0
VERTEX
8
14
10
327.280029
20
2285.709961
0
VERTEX
8
14
10
322.790039
20
2294.180176
0
VERTEX
8
14
10
318.000000
20
2302.200195
0
VERTEX
8
14
10
312.900024
20
2309.800293
0
VERTEX
8
14
10
307.469971
20
2316.990234
0
VERTEX
8
14
10
301.709961
20
2323.800293
0
VERTEX
8
14
10
295.589966
20
2330.240234
0
VERTEX
8
14
10
289.079956
20
2336.339844
0
VERTEX
8
14
10
282.170044
20
2342.100098
0
VERTEX
8
14
10
274.809937
20
2347.550293
0
VERTEX
8
14
10
266.969971
20
2352.680176
0
VERTEX
8
14
10
258.619995
20
2357.510254
0
VERTEX
8
14
10
249.729980
20
2362.040039
0
VERTEX
8
14
10
240.260010
20
2366.250000
0
VERTEX
8
14
10
230.199951
20
2370.129883
0
VERTEX
8
14
10
219.510010
20
2373.690430
0
VERTEX
8
14
10
208.180054
20
2376.900391
0
VERTEX
8
14
10
196.189941
20
2379.760254
0
VERTEX
8
14
10
183.520020
20
2382.240234
0
VERTEX
8
14
10
170.160034
20
2384.339844
0
VERTEX
8
14
10
156.109985
20
2386.050293
0
VERTEX
8
14
10
141.339966
20
2387.350098
0
VERTEX
8
14
10
125.849976
20
2388.240234
0
VERTEX
8
14
10
109.640015
20
2388.709961
0
VERTEX
8
14
10
92.699951
20
2388.740234
0
VERTEX
8
14
10
74.949951
20
2388.320312
0
VERTEX
8
14
10
24.000000
20
2386.150391
0
VERTEX
8
14
10
73.530151
20
3249.910156
0
VERTEX
8
14
10
37.430176
20
4100.320312
0
VERTEX
8
14
10
82.210083
20
4099.830322
0
VERTEX
8
14
10
112.910156
20
4100.360352
0
VERTEX
8
14
10
138.370117
20
4101.870117
0
VERTEX
8
14
10
159.210083
20
4104.239990
0
VERTEX
8
14
10
171.870117
20
4106.479980
0
VERTEX
8
14
10
179.000122
20
4108.090088
0
VERTEX
8
14
10
185.340088
20
4109.820068
0
VERTEX
8
14
10
190.850098
20
4111.620117
0
VERTEX
8
14
10
195.640137
20
4113.459961
0
VERTEX
8
14
10
199.650146
20
4115.270020
0
VERTEX
8
14
10
205.100098
20
4118.189941
0
VERTEX
8
14
10
211.520142
20
4122.550049
0
VERTEX
8
14
10
217.440063
20
4127.479980
0
VERTEX
8
14
10
227.860107
20
4137.640137
0
VERTEX
8
14
10
240.370117
20
4150.370117
0
VERTEX
8
14
10
251.060059
20
4160.340088
0
VERTEX
8
14
10
263.800171
20
4170.810059
0
VERTEX
8
14
10
278.930176
20
4181.429932
0
VERTEX
8
14
10
296.630127
20
4191.860107
0
VERTEX
8
14
10
312.070068
20
4199.550049
0
VERTEX
8
14
10
323.400146
20
4204.610107
0
VERTEX
8
14
10
335.490112
20
4209.520020
0
VERTEX
8
14
10
348.520142
20
4214.330078
0
VERTEX
8
14
10
362.540161
20
4219.040039
0
VERTEX
8
14
10
377.610107
20
4223.649902
0
VERTEX
8
14
10
393.810059
20
4228.140137
0
VERTEX
8
14
10
411.190063
20
4232.530029
0
VERTEX
8
14
10
429.830078
20
4236.800049
0
VERTEX
8
14
10
449.850098
20
4240.969971
0
VERTEX
8
14
10
482.220093
20
4246.979980
0
VERTEX
8
14
10
530.880188
20
4254.510010
0
VERTEX
8
14
10
586.130188
20
4261.469971
0
VERTEX
8
14
10
648.470154
20
4267.800049
0
VERTEX
8
14
10
718.440125
20
4273.439941
0
VERTEX
8
14
10
796.580139
20
4278.310059
0
VERTEX
8
14
10
883.430237
20
4282.360107
0
VERTEX
8
14
10
979.510071
20
4285.520020
0
VERTEX
8
14
10
1085.370117
20
4287.719971
0
VERTEX
8
14
10
1201.510010
20
4288.880127
0
VERTEX
8
14
10
1264.090088
20
4289.000000
0
VERTEX
8
14
10
1509.800171
20
4289.000000
0
SEQEND
0
POINT
8
3
10
1509.800171
20
4289.000000
0
POINT
8
2
10
1509.799927
20
1640.810059
0
POINT
8
3
10
1265.079956
20
1640.810059
0
POINT
8
3
10
1256.519897
20
1640.375977
0
POINT
8
3
10
1238.419922
20
1639.145020
0
POINT
8
3
10
1221.449951
20
1637.598145
0
POINT
8
3
10
1205.529785
20
1635.731934
0
POINT
8
3
10
1190.649902
20
1633.550781
0
POINT
8
3
10
1176.789795
20
1631.062988
0
POINT
8
3
10
1163.939941
20
1628.275879
0
POINT
8
3
10
1152.069824
20
1625.202148
0
POINT
8
3
10
1141.159912
20
1621.855957
0
POINT
8
3
10
1131.169922
20
1618.255859
0
POINT
8
3
10
1122.079834
20
1614.417969
0
POINT
8
3
10
1113.829834
20
1610.360352
0
POINT
8
3
10
1106.379883
20
1606.092773
0
POINT
8
3
10
1099.639893
20
1601.620117
0
POINT
8
3
10
1093.549805
20
1596.933105
0
POINT
8
3
10
1088.029785
20
1592.007812
0
POINT
8
3
10
1082.989990
20
1586.807129
0
POINT
8
3
10
1078.379883
20
1581.279297
0
POINT
8
3
10
1074.119873
20
1575.362305
0
POINT
8
3
10
1070.189941
20
1568.995117
0
POINT
8
3
10
1066.549805
20
1562.117188
0
POINT
8
3
10
1063.189941
20
1554.677734
0
POINT
8
3
10
1060.099854
20
1546.636719
0
POINT
8
3
10
1057.269775
20
1537.962891
0
POINT
8
3
10
1054.719971
20
1528.639160
0
POINT
8
3
10
1052.429932
20
1518.652344
0
POINT
8
3
10
1050.409912
20
1507.997070
0
POINT
8
3
10
1048.669922
20
1496.756836
0
POINT
8
3
10
1046.449951
20
1478.540039
0
POINT
8
3
10
1044.329834
20
1451.756836
0
POINT
8
2
10
1041.259766
20
1390.572266
0
POINT
8
2
10
307.170044
20
1588.085938
0
POINT
8
3
10
324.109985
20
1718.345215
0
POINT
8
3
10
340.900024
20
1851.828125
0
POINT
8
3
10
347.770020
20
1913.588867
0
POINT
8
3
10
351.640015
20
1952.901367
0
POINT
8
3
10
354.819946
20
1990.647949
0
POINT
8
3
10
357.229980
20
2026.768066
0
POINT
8
3
10
358.790039
20
2061.225098
0
POINT
8
3
10
359.430054
20
2093.981934
0
POINT
8
3
10
359.079956
20
2124.996094
0
POINT
8
3
10
357.670044
20
2154.223145
0
POINT
8
3
10
355.160034
20
2181.704102
0
POINT
8
3
10
352.489990
20
2201.002930
0
POINT
8
3
10
350.380005
20
2213.204102
0
POINT
8
3
10
347.969971
20
2225.010254
0
POINT
8
3
10
345.270020
20
2236.330078
0
POINT
8
3
10
342.260010
20
2247.169922
0
POINT
8
3
10
338.959961
20
2257.520020
0
POINT
8
3
10
335.359985
20
2267.390137
0
POINT
8
3
10
331.469971
20
2276.780273
0
POINT
8
3
10
327.280029
20
2285.709961
0
POINT
8
3
10
322.790039
20
2294.180176
0
POINT
8
3
10
318.000000
20
2302.200195
0
POINT
8
3
10
312.900024
20
2309.800293
0
POINT
8
3
10
307.469971
20
2316.990234
0
POINT
8
3
10
301.709961
20
2323.800293
0
POINT
8
3
10
295.589966
20
2330.240234
0
POINT
8
3
10
289.079956
20
2336.339844
0
POINT
8
3
10
282.170044
20
2342.100098
0
POINT
8
3
10
274.809937
20
2347.550293
0
POINT
8
3
10
266.969971
20
2352.680176
0
POINT
8
3
10
258.619995
20
2357.510254
0
POINT
8
3
10
249.729980
20
2362.040039
0
POINT
8
3
10
240.260010
20
2366.250000
0
POINT
8
3
10
230.199951
20
2370.129883
0
POINT
8
3
10
219.510010
20
2373.690430
0
POINT
8
3
10
208.180054
20
2376.900391
0
POINT
8
3
10
196.189941
20
2379.760254
0
POINT
8
3
10
183.520020
20
2382.240234
0
POINT
8
3
10
170.160034
20
2384.339844
0
POINT
8
3
10
156.109985
20
2386.050293
0
POINT
8
3
10
141.339966
20
2387.350098
0
POINT
8
3
10
125.849976
20
2388.240234
0
POINT
8
3
10
109.640015
20
2388.709961
0
POINT
8
3
10
92.699951
20
2388.740234
0
POINT
8
3
10
74.949951
20
2388.320312
0
POINT
8
2
10
24.000000
20
2386.150391
0
POINT
8
3
10
73.530151
20
3249.910156
0
POINT
8
2
10
37.430176
20
4100.320312
0
POINT
8
3
10
82.210083
20
4099.830322
0
POINT
8
3
10
112.910156
20
4100.360352
0
POINT
8
3
10
138.370117
20
4101.870117
0
POINT
8
3
10
159.210083
20
4104.239990
0
POINT
8
3
10
171.870117
20
4106.479980
0
POINT
8
3
10
179.000122
20
4108.090088
0
POINT
8
3
10
185.340088
20
4109.820068
0
POINT
8
3
10
190.850098
20
4111.620117
0
POINT
8
3
10
195.640137
20
4113.459961
0
POINT
8
3
10
199.650146
20
4115.270020
0
POINT
8
3
10
205.100098
20
4118.189941
0
POINT
8
3
10
211.520142
20
4122.550049
0
POINT
8
3
10
217.440063
20
4127.479980
0
POINT
8
3
10
227.860107
20
4137.640137
0
POINT
8
3
10
240.370117
20
4150.370117
0
POINT
8
3
10
251.060059
20
4160.340088
0
POINT
8
3
10
263.800171
20
4170.810059
0
POINT
8
3
10
278.930176
20
4181.429932
0
POINT
8
3
10
296.630127
20
4191.860107
0
POINT
8
3
10
312.070068
20
4199.550049
0
POINT
8
3
10
323.400146
20
4204.610107
0
POINT
8
3
10
335.490112
20
4209.520020
0
POINT
8
3
10
348.520142
20
4214.330078
0
POINT
8
3
10
362.540161
20
4219.040039
0
POINT
8
3
10
377.610107
20
4223.649902
0
POINT
8
3
10
393.810059
20
4228.140137
0
POINT
8
3
10
411.190063
20
4232.530029
0
POINT
8
3
10
429.830078
20
4236.800049
0
POINT
8
3
10
449.850098
20
4240.969971
0
POINT
8
3
10
482.220093
20
4246.979980
0
POINT
8
3
10
530.880188
20
4254.510010
0
POINT
8
3
10
586.130188
20
4261.469971
0
POINT
8
3
10
648.470154
20
4267.800049
0
POINT
8
3
10
718.440125
20
4273.439941
0
POINT
8
3
10
796.580139
20
4278.310059
0
POINT
8
3
10
883.430237
20
4282.360107
0
POINT
8
3
10
979.510071
20
4285.520020
0
POINT
8
3
10
1085.370117
20
4287.719971
0
POINT
8
3
10
1201.510010
20
4288.880127
0
POINT
8
3
10
1264.090088
20
4289.000000
0
POINT
8
3
10
1509.800171
20
4289.000000
0
LINE
8
7
10
925.350098
20
3592.669922
11
925.349976
21
2195.189941
0
POLYLINE
8
1
66
1
70
1
250
0
0
VERTEX
8
1
10
1509.800171
20
4289.000000
0
VERTEX
8
1
10
1509.799927
20
1640.810059
0
VERTEX
8
1
10
1265.079956
20
1640.810059
0
VERTEX
8
1
10
1256.519897
20
1640.375977
0
VERTEX
8
1
10
1238.419922
20
1639.145020
0
VERTEX
8
1
10
1221.449951
20
1637.598145
0
VERTEX
8
1
10
1205.529785
20
1635.731934
0
VERTEX
8
1
10
1190.649902
20
1633.550781
0
VERTEX
8
1
10
1176.789795
20
1631.062988
0
VERTEX
8
1
10
1163.939941
20
1628.275879
0
VERTEX
8
1
10
1152.069824
20
1625.202148
0
VERTEX
8
1
10
1141.159912
20
1621.855957
0
VERTEX
8
1
10
1131.169922
20
1618.255859
0
VERTEX
8
1
10
1122.079834
20
1614.417969
0
VERTEX
8
1
10
1113.829834
20
1610.360352
0
VERTEX
8
1
10
1106.379883
20
1606.092773
0
VERTEX
8
1
10
1099.639893
20
1601.620117
0
VERTEX
8
1
10
1093.549805
20
1596.933105
0
VERTEX
8
1
10
1088.029785
20
1592.007812
0
VERTEX
8
1
10
1082.989990
20
1586.807129
0
VERTEX
8
1
10
1078.379883
20
1581.279297
0
VERTEX
8
1
10
1074.119873
20
1575.362305
0
VERTEX
8
1
10
1070.189941
20
1568.995117
0
VERTEX
8
1
10
1066.549805
20
1562.117188
0
VERTEX
8
1
10
1063.189941
20
1554.677734
0
VERTEX
8
1
10
1060.099854
20
1546.636719
0
VERTEX
8
1
10
1057.269775
20
1537.962891
0
VERTEX
8
1
10
1054.719971
20
1528.639160
0
VERTEX
8
1
10
1052.429932
20
1518.652344
0
VERTEX
8
1
10
1050.409912
20
1507.997070
0
VERTEX
8
1
10
1048.669922
20
1496.756836
0
VERTEX
8
1
10
1046.449951
20
1478.540039
0
VERTEX
8
1
10
1044.329834
20
1451.756836
0
VERTEX
8
1
10
1041.259766
20
1390.572266
0
VERTEX
8
1
10
307.170044
20
1588.085938
0
VERTEX
8
1
10
324.109985
20
1718.345215
0
VERTEX
8
1
10
340.900024
20
1851.828125
0
VERTEX
8
1
10
347.770020
20
1913.588867
0
VERTEX
8
1
10
351.640015
20
1952.901367
0
VERTEX
8
1
10
354.819946
20
1990.647949
0
VERTEX
8
1
10
357.229980
20
2026.768066
0
VERTEX
8
1
10
358.790039
20
2061.225098
0
VERTEX
8
1
10
359.430054
20
2093.981934
0
VERTEX
8
1
10
359.079956
20
2124.996094
0
VERTEX
8
1
10
357.670044
20
2154.223145
0
VERTEX
8
1
10
355.160034
20
2181.704102
0
VERTEX
8
1
10
352.489990
20
2201.002930
0
VERTEX
8
1
10
350.380005
20
2213.204102
0
VERTEX
8
1
10
347.969971
20
2225.010254
0
VERTEX
8
1
10
345.270020
20
2236.330078
0
VERTEX
8
1
10
342.260010
20
2247.169922
0
VERTEX
8
1
10
338.959961
20
2257.520020
0
VERTEX
8
1
10
335.359985
20
2267.390137
0
VERTEX
8
1
10
331.469971
20
2276.780273
0
VERTEX
8
1
10
327.280029
20
2285.709961
0
VERTEX
8
1
10
322.790039
20
2294.180176
0
VERTEX
8
1
10
318.000000
20
2302.200195
0
VERTEX
8
1
10
312.900024
20
2309.800293
0
VERTEX
8
1
10
307.469971
20
2316.990234
0
VERTEX
8
1
10
301.709961
20
2323.800293
0
VERTEX
8
1
10
295.589966
20
2330.240234
0
VERTEX
8
1
10
289.079956
20
2336.339844
0
VERTEX
8
1
10
282.170044
20
2342.100098
0
VERTEX
8
1
10
274.809937
20
2347.550293
0
VERTEX
8
1
10
266.969971
20
2352.680176
0
VERTEX
8
1
10
258.619995
20
2357.510254
0
VERTEX
8
1
10
249.729980
20
2362.040039
0
VERTEX
8
1
10
240.260010
20
2366.250000
0
VERTEX
8
1
10
230.199951
20
2370.129883
0
VERTEX
8
1
10
219.510010
20
2373.690430
0
VERTEX
8
1
10
208.180054
20
2376.900391
0
VERTEX
8
1
10
196.189941
20
2379.760254
0
VERTEX
8
1
10
183.520020
20
2382.240234
0
VERTEX
8
1
10
170.160034
20
2384.339844
0
VERTEX
8
1
10
156.109985
20
2386.050293
0
VERTEX
8
1
10
141.339966
20
2387.350098
0
VERTEX
8
1
10
125.849976
20
2388.240234
0
VERTEX
8
1
10
109.640015
20
2388.709961
0
VERTEX
8
1
10
92.699951
20
2388.740234
0
VERTEX
8
1
10
74.949951
20
2388.320312
0
VERTEX
8
1
10
24.000000
20
2386.150391
0
VERTEX
8
1
10
73.530151
20
3249.910156
0
VERTEX
8
1
10
37.430176
20
4100.320312
0
VERTEX
8
1
10
82.210083
20
4099.830322
0
VERTEX
8
1
10
112.910156
20
4100.360352
0
VERTEX
8
1
10
138.370117
20
4101.870117
0
VERTEX
8
1
10
159.210083
20
4104.239990
0
VERTEX
8
1
10
171.870117
20
4106.479980
0
VERTEX
8
1
10
179.000122
20
4108.090088
0
VERTEX
8
1
10
185.340088
20
4109.820068
0
VERTEX
8
1
10
190.850098
20
4111.620117
0
VERTEX
8
1
10
195.640137
20
4113.459961
0
VERTEX
8
1
10
199.650146
20
4115.270020
0
VERTEX
8
1
10
205.100098
20
4118.189941
0
VERTEX
8
1
10
211.520142
20
4122.550049
0
VERTEX
8
1
10
217.440063
20
4127.479980
0
VERTEX
8
1
10
227.860107
20
4137.640137
0
VERTEX
8
1
10
240.370117
20
4150.370117
0
VERTEX
8
1
10
251.060059
20
4160.340088
0
VERTEX
8
1
10
263.800171
20
4170.810059
0
VERTEX
8
1
10
278.930176
20
4181.429932
0
VERTEX
8
1
10
296.630127
20
4191.860107
0
VERTEX
8
1
10
312.070068
20
4199.550049
0
VERTEX
8
1
10
323.400146
20
4204.610107
0
VERTEX
8
1
10
335.490112
20
4209.520020
0
VERTEX
8
1
10
348.520142
20
4214.330078
0
VERTEX
8
1
10
362.540161
20
4219.040039
0
VERTEX
8
1
10
377.610107
20
4223.649902
0
VERTEX
8
1
10
393.810059
20
4228.140137
0
VERTEX
8
1
10
411.190063
20
4232.530029
0
VERTEX
8
1
10
429.830078
20
4236.800049
0
VERTEX
8
1
10
449.850098
20
4240.969971
0
VERTEX
8
1
10
482.220093
20
4246.979980
0
VERTEX
8
1
10
530.880188
20
4254.510010
0
VERTEX
8
1
10
586.130188
20
4261.469971
0
VERTEX
8
1
10
648.470154
20
4267.800049
0
VERTEX
8
1
10
718.440125
20
4273.439941
0
VERTEX
8
1
10
796.580139
20
4278.310059
0
VERTEX
8
1
10
883.430237
20
4282.360107
0
VERTEX
8
1
10
979.510071
20
4285.520020
0
VERTEX
8
1
10
1085.370117
20
4287.719971
0
VERTEX
8
1
10
1201.510010
20
4288.880127
0
VERTEX
8
1
10
1264.090088
20
4289.000000
0
VERTEX
8
1
10
1509.800171
20
4289.000000
0
SEQEND
0
POINT
8
3
10
1509.800171
20
4289.000000
0
POINT
8
2
10
1509.799927
20
1640.810059
0
POINT
8
3
10
1265.079956
20
1640.810059
0
POINT
8
3
10
1256.519897
20
1640.375977
0
POINT
8
3
10
1238.419922
20
1639.145020
0
POINT
8
3
10
1221.449951
20
1637.598145
0
POINT
8
3
10
1205.529785
20
1635.731934
0
POINT
8
3
10
1190.649902
20
1633.550781
0
POINT
8
3
10
1176.789795
20
1631.062988
0
POINT
8
3
10
1163.939941
20
1628.275879
0
POINT
8
3
10
1152.069824
20
1625.202148
0
POINT
8
3
10
1141.159912
20
1621.855957
0
POINT
8
3
10
1131.169922
20
1618.255859
0
POINT
8
3
10
1122.079834
20
1614.417969
0
POINT
8
3
10
1113.829834
20
1610.360352
0
POINT
8
3
10
1106.379883
20
1606.092773
0
POINT
8
3
10
1099.639893
20
1601.620117
0
POINT
8
3
10
1093.549805
20
1596.933105
0
POINT
8
3
10
1088.029785
20
1592.007812
0
POINT
8
3
10
1082.989990
20
1586.807129
0
POINT
8
3
10
1078.379883
20
1581.279297
0
POINT
8
3
10
1074.119873
20
1575.362305
0
POINT
8
3
10
1070.189941
20
1568.995117
0
POINT
8
3
10
1066.549805
20
1562.117188
0
POINT
8
3
10
1063.189941
20
1554.677734
0
POINT
8
3
10
1060.099854
20
1546.636719
0
POINT
8
3
10
1057.269775
20
1537.962891
0
POINT
8
3
10
1054.719971
20
1528.639160
0
POINT
8
3
10
1052.429932
20
1518.652344
0
POINT
8
3
10
1050.409912
20
1507.997070
0
POINT
8
3
10
1048.669922
20
1496.756836
0
POINT
8
3
10
1046.449951
20
1478.540039
0
POINT
8
3
10
1044.329834
20
1451.756836
0
POINT
8
2
10
1041.259766
20
1390.572266
0
POINT
8
2
10
307.170044
20
1588.085938
0
POINT
8
3
10
324.109985
20
1718.345215
0
POINT
8
3
10
340.900024
20
1851.828125
0
POINT
8
3
10
347.770020
20
1913.588867
0
POINT
8
3
10
351.640015
20
1952.901367
0
POINT
8
3
10
354.819946
20
1990.647949
0
POINT
8
3
10
357.229980
20
2026.768066
0
POINT
8
3
10
358.790039
20
2061.225098
0
POINT
8
3
10
359.430054
20
2093.981934
0
POINT
8
3
10
359.079956
20
2124.996094
0
POINT
8
3
10
357.670044
20
2154.223145
0
POINT
8
3
10
355.160034
20
2181.704102
0
POINT
8
3
10
352.489990
20
2201.002930
0
POINT
8
3
10
350.380005
20
2213.204102
0
POINT
8
3
10
347.969971
20
2225.010254
0
POINT
8
3
10
345.270020
20
2236.330078
0
POINT
8
3
10
342.260010
20
2247.169922
0
POINT
8
3
10
338.959961
20
2257.520020
0
POINT
8
3
10
335.359985
20
2267.390137
0
POINT
8
3
10
331.469971
20
2276.780273
0
POINT
8
3
10
327.280029
20
2285.709961
0
POINT
8
3
10
322.790039
20
2294.180176
0
POINT
8
3
10
318.000000
20
2302.200195
0
POINT
8
3
10
312.900024
20
2309.800293
0
POINT
8
3
10
307.469971
20
2316.990234
0
POINT
8
3
10
301.709961
20
2323.800293
0
POINT
8
3
10
295.589966
20
2330.240234
0
POINT
8
3
10
289.079956
20
2336.339844
0
POINT
8
3
10
282.170044
20
2342.100098
0
POINT
8
3
10
274.809937
20
2347.550293
0
POINT
8
3
10
266.969971
20
2352.680176
0
POINT
8
3
10
258.619995
20
2357.510254
0
POINT
8
3
10
249.729980
20
2362.040039
0
POINT
8
3
10
240.260010
20
2366.250000
0
POINT
8
3
10
230.199951
20
2370.129883
0
POINT
8
3
10
219.510010
20
2373.690430
0
POINT
8
3
10
208.180054
20
2376.900391
0
POINT
8
3
10
196.189941
20
2379.760254
0
POINT
8
3
10
183.520020
20
2382.240234
0
POINT
8
3
10
170.160034
20
2384.339844
0
POINT
8
3
10
156.109985
20
2386.050293
0
POINT
8
3
10
141.339966
20
2387.350098
0
POINT
8
3
10
125.849976
20
2388.240234
0
POINT
8
3
10
109.640015
20
2388.709961
0
POINT
8
3
10
92.699951
20
2388.740234
0
POINT
8
3
10
74.949951
20
2388.320312
0
POINT
8
2
10
24.000000
20
2386.150391
0
POINT
8
3
10
73.530151
20
3249.910156
0
POINT
8
2
10
37.430176
20
4100.320312
0
POINT
8
3
10
82.210083
20
4099.830322
0
POINT
8
3
10
112.910156
20
4100.360352
0
POINT
8
3
10
138.370117
20
4101.870117
0
POINT
8
3
10
159.210083
20
4104.239990
0
POINT
8
3
10
171.870117
20
4106.479980
0
POINT
8
3
10
179.000122
20
4108.090088
0
POINT
8
3
10
185.340088
20
4109.820068
0
POINT
8
3
10
190.850098
20
4111.620117
0
POINT
8
3
10
195.640137
20
4113.459961
0
POINT
8
3
10
199.650146
20
4115.270020
0
POINT
8
3
10
205.100098
20
4118.189941
0
POINT
8
3
10
211.520142
20
4122.550049
0
POINT
8
3
10
217.440063
20
4127.479980
0
POINT
8
3
10
227.860107
20
4137.640137
0
POINT
8
3
10
240.370117
20
4150.370117
0
POINT
8
3
10
251.060059
20
4160.340088
0
POINT
8
3
10
263.800171
20
4170.810059
0
POINT
8
3
10
278.930176
20
4181.429932
0
POINT
8
3
10
296.630127
20
4191.860107
0
POINT
8
3
10
312.070068
20
4199.550049
0
POINT
8
3
10
323.400146
20
4204.610107
0
POINT
8
3
10
335.490112
20
4209.520020
0
POINT
8
3
10
348.520142
20
4214.330078
0
POINT
8
3
10
362.540161
20
4219.040039
0
POINT
8
3
10
377.610107
20
4223.649902
0
POINT
8
3
10
393.810059
20
4228.140137
0
POINT
8
3
10
411.190063
20
4232.530029
0
POINT
8
3
10
429.830078
20
4236.800049
0
POINT
8
3
10
449.850098
20
4240.969971
0
POINT
8
3
10
482.220093
20
4246.979980
0
POINT
8
3
10
530.880188
20
4254.510010
0
POINT
8
3
10
586.130188
20
4261.469971
0
POINT
8
3
10
648.470154
20
4267.800049
0
POINT
8
3
10
718.440125
20
4273.439941
0
POINT
8
3
10
796.580139
20
4278.310059
0
POINT
8
3
10
883.430237
20
4282.360107
0
POINT
8
3
10
979.510071
20
4285.520020
0
POINT
8
3
10
1085.370117
20
4287.719971
0
POINT
8
3
10
1201.510010
20
4288.880127
0
POINT
8
3
10
1264.090088
20
4289.000000
0
POINT
8
3
10
1509.800171
20
4289.000000
0
ENDBLK
0
BLOCK
8
1
2
piece_ShortSleeve_M
70
64
10
0.000000
20
0.000000
0
POLYLINE
8
14
66
1
70
1
250
2
0
VERTEX
8
14
10
2031.930176
20
1385.000000
0
VERTEX
8
14
10
2013.030273
20
1271.620117
0
VERTEX
8
14
10
2130.794922
20
565.319824
0
VERTEX
8
14
10
2090.475098
20
559.909668
0
VERTEX
8
14
10
2083.180176
20
557.949707
0
VERTEX
8
14
10
2061.530273
20
551.119629
0
VERTEX
8
14
10
2031.879883
20
540.790039
0
VERTEX
8
14
10
1996.720215
20
527.419922
0
VERTEX
8
14
10
1968.169922
20
515.629883
0
VERTEX
8
14
10
1948.810059
20
507.149902
0
VERTEX
8
14
10
1929.370117
20
498.169922
0
VERTEX
8
14
10
1910.220215
20
488.770020
0
VERTEX
8
14
10
1891.650391
20
479.029785
0
VERTEX
8
14
10
1873.879883
20
468.959961
0
VERTEX
8
14
10
1865.580078
20
463.919922
0
VERTEX
8
14
10
1856.990234
20
458.549805
0
VERTEX
8
14
10
1840.280273
20
447.529785
0
VERTEX
8
14
10
1824.500000
20
436.469727
0
VERTEX
8
14
10
1809.540039
20
425.370117
0
VERTEX
8
14
10
1795.320312
20
414.279785
0
VERTEX
8
14
10
1781.850098
20
403.270020
0
VERTEX
8
14
10
1762.690430
20
386.859863
0
VERTEX
8
14
10
1727.600098
20
354.799805
0
VERTEX
8
14
10
1696.680176
20
325.839844
0
VERTEX
8
14
10
1676.850098
20
308.270020
0
VERTEX
8
14
10
1667.110352
20
300.392578
0
VERTEX
8
14
10
1656.650391
20
292.079102
0
VERTEX
8
14
10
1632.530273
20
272.261719
0
VERTEX
8
14
10
1591.180176
20
237.540039
0
VERTEX
8
14
10
1533.190430
20
188.633789
0
VERTEX
8
14
10
1494.250000
20
156.671875
0
VERTEX
8
14
10
1472.260254
20
139.502930
0
VERTEX
8
14
10
1463.250000
20
132.985840
0
VERTEX
8
14
10
1450.570312
20
123.911133
0
VERTEX
8
14
10
1425.959961
20
105.616699
0
VERTEX
8
14
10
1407.090332
20
91.889648
0
VERTEX
8
14
10
1393.860352
20
82.731934
0
VERTEX
8
14
10
1380.070312
20
73.805664
0
VERTEX
8
14
10
1365.560059
20
65.209961
0
VERTEX
8
14
10
1350.200195
20
57.083008
0
VERTEX
8
14
10
1333.910156
20
49.569824
0
VERTEX
8
14
10
1316.580078
20
42.814941
0
VERTEX
8
14
10
1298.160156
20
36.952148
0
VERTEX
8
14
10
1278.580078
20
32.096680
0
VERTEX
8
14
10
1257.780273
20
28.347656
0
VERTEX
8
14
10
1235.680176
20
25.786133
0
VERTEX
8
14
10
1212.379883
20
24.484863
0
VERTEX
8
14
10
1199.940430
20
24.372070
0
VERTEX
8
14
10
1187.440430
20
24.408203
0
VERTEX
8
14
10
1162.229980
20
24.851074
0
VERTEX
8
14
10
1136.290039
20
25.784180
0
VERTEX
8
14
10
1109.770020
20
27.250977
0
VERTEX
8
14
10
1082.740234
20
29.295898
0
VERTEX
8
14
10
1055.280273
20
31.964844
0
VERTEX
8
14
10
1027.470215
20
35.302734
0
VERTEX
8
14
10
999.400391
20
39.357910
0
VERTEX
8
14
10
971.129883
20
44.176758
0
VERTEX
8
14
10
942.750000
20
49.807617
0
VERTEX
8
14
10
914.350098
20
56.299805
0
VERTEX
8
14
10
885.990234
20
63.702148
0
VERTEX
8
14
10
857.760254
20
72.065918
0
VERTEX
8
14
10
829.740234
20
81.443848
0
VERTEX
8
14
10
802.020508
20
91.888672
0
VERTEX
8
14
10
774.799805
20
103.399902
0
VERTEX
8
14
10
761.209961
20
109.716797
0
VERTEX
8
14
10
753.839844
20
113.272949
0
VERTEX
8
14
10
738.470215
20
121.244141
0
VERTEX
8
14
10
713.770508
20
135.061035
0
VERTEX
8
14
10
677.510254
20
157.035156
0
VERTEX
8
14
10
638.200195
20
182.288086
0
VERTEX
8
14
10
596.600098
20
210.123047
0
VERTEX
8
14
10
553.490234
20
239.853027
0
VERTEX
8
14
10
509.669922
20
270.778809
0
VERTEX
8
14
10
465.940430
20
302.203125
0
VERTEX
8
14
10
402.129883
20
348.819824
0
VERTEX
8
14
10
325.310059
20
405.959961
0
VERTEX
8
14
10
263.980469
20
452.080078
0
VERTEX
8
14
10
225.209961
20
481.140137
0
VERTEX
8
14
10
218.350098
20
485.990234
0
VERTEX
8
14
10
215.260254
20
488.000000
0
VERTEX
8
14
10
206.440430
20
493.240234
0
VERTEX
8
14
10
190.100098
20
502.129883
0
VERTEX
8
14
10
164.190430
20
514.990234
0
VERTEX
8
14
10
136.470215
20
527.879883
0
VERTEX
8
14
10
96.250000
20
545.660156
0
VERTEX
8
14
10
59.589844
20
561.069824
0
VERTEX
8
14
10
24.000000
20
575.509766
0
VERTEX
8
14
10
233.419922
20
1271.620117
0
VERTEX
8
14
10
199.310059
20
1385.000000
0
VERTEX
8
14
10
2031.930176
20
1385.000000
0
SEQEND
0
POINT
8
3
10
2031.930176
20
1385.000000
0
POINT
8
3
10
2013.030273
20
1271.620117
0
POINT
8
2
10
2130.794922
20
565.319824
0
POINT
8
3
10
2090.475098
20
559.909668
0
POINT
8
3
10
2083.180176
20
557.949707
0
POINT
8
3
10
2061.530273
20
551.119629
0
POINT
8
3
10
2031.879883
20
540.790039
0
POINT
8
3
10
1996.720215
20
527.419922
0
POINT
8
3
10
1968.169922
20
515.629883
0
POINT
8
3
10
1948.810059
20
507.149902
0
POINT
8
3
10
1929.370117
20
498.169922
0
POINT
8
3
10
1910.220215
20
488.770020
0
POINT
8
3
10
1891.650391
20
479.029785
0
POINT
8
3
10
1873.879883
20
468.959961
0
POINT
8
3
10
1865.580078
20
463.919922
0
POINT
8
3
10
1856.990234
20
458.549805
0
POINT
8
3
10
1840.280273
20
447.529785
0
POINT
8
3
10
1824.500000
20
436.469727
0
POINT
8
3
10
1809.540039
20
425.370117
0
POINT
8
3
10
1795.320312
20
414.279785
0
POINT
8
3
10
1781.850098
20
403.270020
0
POINT
8
3
10
1762.690430
20
386.859863
0
POINT
8
3
10
1727.600098
20
354.799805
0
POINT
8
3
10
1696.680176
20
325.839844
0
POINT
8
3
10
1676.850098
20
308.270020
0
POINT
8
3
10
1667.110352
20
300.392578
0
POINT
8
3
10
1656.650391
20
292.079102
0
POINT
8
3
10
1632.530273
20
272.261719
0
POINT
8
3
10
1591.180176
20
237.540039
0
POINT
8
3
10
1533.190430
20
188.633789
0
POINT
8
3
10
1494.250000
20
156.671875
0
POINT
8
3
10
1472.260254
20
139.502930
0
POINT
8
3
10
1463.250000
20
132.985840
0
POINT
8
3
10
1450.570312
20
123.911133
0
POINT
8
3
10
1425.959961
20
105.616699
0
POINT
8
3
10
1407.090332
20
91.889648
0
POINT
8
3
10
1393.860352
20
82.731934
0
POINT
8
3
10
1380.070312
20
73.805664
0
POINT
8
3
10
1365.560059
20
65.209961
0
POINT
8
3
10
1350.200195
20
57.083008
0
POINT
8
3
10
1333.910156
20
49.569824
0
POINT
8
3
10
1316.580078
20
42.814941
0
POINT
8
3
10
1298.160156
20
36.952148
0
POINT
8
3
10
1278.580078
20
32.096680
0
POINT
8
3
10
1257.780273
20
28.347656
0
POINT
8
3
10
1235.680176
20
25.786133
0
POINT
8
3
10
1212.379883
20
24.484863
0
POINT
8
3
10
1199.940430
20
24.372070
0
POINT
8
3
10
1187.440430
20
24.408203
0
POINT
8
3
10
1162.229980
20
24.851074
0
POINT
8
3
10
1136.290039
20
25.784180
0
POINT
8
3
10
1109.770020
20
27.250977
0
POINT
8
3
10
1082.740234
20
29.295898
0
POINT
8
3
10
1055.280273
20
31.964844
0
POINT
8
3
10
1027.470215
20
35.302734
0
POINT
8
3
10
999.400391
20
39.357910
0
POINT
8
3
10
971.129883
20
44.176758
0
POINT
8
3
10
942.750000
20
49.807617
0
POINT
8
3
10
914.350098
20
56.299805
0
POINT
8
3
10
885.990234
20
63.702148
0
POINT
8
3
10
857.760254
20
72.065918
0
POINT
8
3
10
829.740234
20
81.443848
0
POINT
8
3
10
802.020508
20
91.888672
0
POINT
8
3
10
774.799805
20
103.399902
0
POINT
8
3
10
761.209961
20
109.716797
0
POINT
8
3
10
753.839844
20
113.272949
0
POINT
8
3
10
738.470215
20
121.244141
0
POINT
8
3
10
713.770508
20
135.061035
0
POINT
8
3
10
677.510254
20
157.035156
0
POINT
8
3
10
638.200195
20
182.288086
0
POINT
8
3
10
596.600098
20
210.123047
0
POINT
8
3
10
553.490234
20
239.853027
0
POINT
8
3
10
509.669922
20
270.778809
0
POINT
8
3
10
465.940430
20
302.203125
0
POINT
8
3
10
402.129883
20
348.819824
0
POINT
8
3
10
325.310059
20
405.959961
0
POINT
8
3
10
263.980469
20
452.080078
0
POINT
8
3
10
225.209961
20
481.140137
0
POINT
8
3
10
218.350098
20
485.990234
0
POINT
8
3
10
215.260254
20
488.000000
0
POINT
8
3
10
206.440430
20
493.240234
0
POINT
8
3
10
190.100098
20
502.129883
0
POINT
8
3
10
164.190430
20
514.990234
0
POINT
8
3
10
136.470215
20
527.879883
0
POINT
8
3
10
96.250000
20
545.660156
0
POINT
8
3
10
59.589844
20
561.069824
0
POINT
8
2
10
24.000000
20
575.509766
0
POINT
8
3
10
233.419922
20
1271.620117
0
POINT
8
2
10
199.310059
20
1385.000000
0
POINT
8
3
10
2031.930176
20
1385.000000
0
LINE
8
7
10
1105.890137
20
917.479980
11
1105.890137
21
234.148926
0
POLYLINE
8
1
66
1
70
1
250
0
0
VERTEX
8
1
10
2031.930176
20
1385.000000
0
VERTEX
8
1
10
2013.030273
20
1271.620117
0
VERTEX
8
1
10
2130.794922
20
565.319824
0
VERTEX
8
1
10
2090.475098
20
559.909668
0
VERTEX
8
1
10
2083.180176
20
557.949707
0
VERTEX
8
1
10
2061.530273
20
551.119629
0
VERTEX
8
1
10
2031.879883
20
540.790039
0
VERTEX
8
1
10
1996.720215
20
527.419922
0
VERTEX
8
1
10
1968.169922
20
515.629883
0
VERTEX
8
1
10
1948.810059
20
507.149902
0
VERTEX
8
1
10
1929.370117
20
498.169922
0
VERTEX
8
1
10
1910.220215
20
488.770020
0
VERTEX
8
1
10
1891.650391
20
479.029785
0
VERTEX
8
1
10
1873.879883
20
468.959961
0
VERTEX
8
1
10
1865.580078
20
463.919922
0
VERTEX
8
1
10
1856.990234
20
458.549805
0
VERTEX
8
1
10
1840.280273
20
447.529785
0
VERTEX
8
1
10
1824.500000
20
436.469727
0
VERTEX
8
1
10
1809.540039
20
425.370117
0
VERTEX
8
1
10
1795.320312
20
414.279785
0
VERTEX
8
1
10
1781.850098
20
403.270020
0
VERTEX
8
1
10
1762.690430
20
386.859863
0
VERTEX
8
1
10
1727.600098
20
354.799805
0
VERTEX
8
1
10
1696.680176
20
325.839844
0
VERTEX
8
1
10
1676.850098
20
308.270020
0
VERTEX
8
1
10
1667.110352
20
300.392578
0
VERTEX
8
1
10
1656.650391
20
292.079102
0
VERTEX
8
1
10
1632.530273
20
272.261719
0
VERTEX
8
1
10
1591.180176
20
237.540039
0
VERTEX
8
1
10
1533.190430
20
188.633789
0
VERTEX
8
1
10
1494.250000
20
156.671875
0
VERTEX
8
1
10
1472.260254
20
139.502930
0
VERTEX
8
1
10
1463.250000
20
132.985840
0
VERTEX
8
1
10
1450.570312
20
123.911133
0
VERTEX
8
1
10
1425.959961
20
105.616699
0
VERTEX
8
1
10
1407.090332
20
91.889648
0
VERTEX
8
1
10
1393.860352
20
82.731934
0
VERTEX
8
1
10
1380.070312
20
73.805664
0
VERTEX
8
1
10
1365.560059
20
65.209961
0
VERTEX
8
1
10
1350.200195
20
57.083008
0
VERTEX
8
1
10
1333.910156
20
49.569824
0
VERTEX
8
1
10
1316.580078
20
42.814941
0
VERTEX
8
1
10
1298.160156
20
36.952148
0
VERTEX
8
1
10
1278.580078
20
32.096680
0
VERTEX
8
1
10
1257.780273
20
28.347656
0
VERTEX
8
1
10
1235.680176
20
25.786133
0
VERTEX
8
1
10
1212.379883
20
24.484863
0
VERTEX
8
1
10
1199.940430
20
24.372070
0
VERTEX
8
1
10
1187.440430
20
24.408203
0
VERTEX
8
1
10
1162.229980
20
24.851074
0
VERTEX
8
1
10
1136.290039
20
25.784180
0
VERTEX
8
1
10
1109.770020
20
27.250977
0
VERTEX
8
1
10
1082.740234
20
29.295898
0
VERTEX
8
1
10
1055.280273
20
31.964844
0
VERTEX
8
1
10
1027.470215
20
35.302734
0
VERTEX
8
1
10
999.400391
20
39.357910
0
VERTEX
8
1
10
971.129883
20
44.176758
0
VERTEX
8
1
10
942.750000
20
49.807617
0
VERTEX
8
1
10
914.350098
20
56.299805
0
VERTEX
8
1
10
885.990234
20
63.702148
0
VERTEX
8
1
10
857.760254
20
72.065918
0
VERTEX
8
1
10
829.740234
20
81.443848
0
VERTEX
8
1
10
802.020508
20
91.888672
0
VERTEX
8
1
10
774.799805
20
103.399902
0
VERTEX
8
1
10
761.209961
20
109.716797
0
VERTEX
8
1
10
753.839844
20
113.272949
0
VERTEX
8
1
10
738.470215
20
121.244141
0
VERTEX
8
1
10
713.770508
20
135.061035
0
VERTEX
8
1
10
677.510254
20
157.035156
0
VERTEX
8
1
10
638.200195
20
182.288086
0
VERTEX
8
1
10
596.600098
20
210.123047
0
VERTEX
8
1
10
553.490234
20
239.853027
0
VERTEX
8
1
10
509.669922
20
270.778809
0
VERTEX
8
1
10
465.940430
20
302.203125
0
VERTEX
8
1
10
402.129883
20
348.819824
0
VERTEX
8
1
10
325.310059
20
405.959961
0
VERTEX
8
1
10
263.980469
20
452.080078
0
VERTEX
8
1
10
225.209961
20
481.140137
0
VERTEX
8
1
10
218.350098
20
485.990234
0
VERTEX
8
1
10
215.260254
20
488.000000
0
VERTEX
8
1
10
206.440430
20
493.240234
0
VERTEX
8
1
10
190.100098
20
502.129883
0
VERTEX
8
1
10
164.190430
20
514.990234
0
VERTEX
8
1
10
136.470215
20
527.879883
0
VERTEX
8
1
10
96.250000
20
545.660156
0
VERTEX
8
1
10
59.589844
20
561.069824
0
VERTEX
8
1
10
24.000000
20
575.509766
0
VERTEX
8
1
10
233.419922
20
1271.620117
0
VERTEX
8
1
10
199.310059
20
1385.000000
0
VERTEX
8
1
10
2031.930176
20
1385.000000
0
SEQEND
0
POINT
8
3
10
2031.930176
20
1385.000000
0
POINT
8
3
10
2013.030273
20
1271.620117
0
POINT
8
2
10
2130.794922
20
565.319824
0
POINT
8
3
10
2090.475098
20
559.909668
0
POINT
8
3
10
2083.180176
20
557.949707
0
POINT
8
3
10
2061.530273
20
551.119629
0
POINT
8
3
10
2031.879883
20
540.790039
0
POINT
8
3
10
1996.720215
20
527.419922
0
POINT
8
3
10
1968.169922
20
515.629883
0
POINT
8
3
10
1948.810059
20
507.149902
0
POINT
8
3
10
1929.370117
20
498.169922
0
POINT
8
3
10
1910.220215
20
488.770020
0
POINT
8
3
10
1891.650391
20
479.029785
0
POINT
8
3
10
1873.879883
20
468.959961
0
POINT
8
3
10
1865.580078
20
463.919922
0
POINT
8
3
10
1856.990234
20
458.549805
0
POINT
8
3
10
1840.280273
20
447.529785
0
POINT
8
3
10
1824.500000
20
436.469727
0
POINT
8
3
10
1809.540039
20
425.370117
0
POINT
8
3
10
1795.320312
20
414.279785
0
POINT
8
3
10
1781.850098
20
403.270020
0
POINT
8
3
10
1762.690430
20
386.859863
0
POINT
8
3
10
1727.600098
20
354.799805
0
POINT
8
3
10
1696.680176
20
325.839844
0
POINT
8
3
10
1676.850098
20
308.270020
0
POINT
8
3
10
1667.110352
20
300.392578
0
POINT
8
3
10
1656.650391
20
292.079102
0
POINT
8
3
10
1632.530273
20
272.261719
0
POINT
8
3
10
1591.180176
20
237.540039
0
POINT
8
3
10
1533.190430
20
188.633789
0
POINT
8
3
10
1494.250000
20
156.671875
0
POINT
8
3
10
1472.260254
20
139.502930
0
POINT
8
3
10
1463.250000
20
132.985840
0
POINT
8
3
10
1450.570312
20
123.911133
0
POINT
8
3
10
1425.959961
20
105.616699
0
POINT
8
3
10
1407.090332
20
91.889648
0
POINT
8
3
10
1393.860352
20
82.731934
0
POINT
8
3
10
1380.070312
20
73.805664
0
POINT
8
3
10
1365.560059
20
65.209961
0
POINT
8
3
10
1350.200195
20
57.083008
0
POINT
8
3
10
1333.910156
20
49.569824
0
POINT
8
3
10
1316.580078
20
42.814941
0
POINT
8
3
10
1298.160156
20
36.952148
0
POINT
8
3
10
1278.580078
20
32.096680
0
POINT
8
3
10
1257.780273
20
28.347656
0
POINT
8
3
10
1235.680176
20
25.786133
0
POINT
8
3
10
1212.379883
20
24.484863
0
POINT
8
3
10
1199.940430
20
24.372070
0
POINT
8
3
10
1187.440430
20
24.408203
0
POINT
8
3
10
1162.229980
20
24.851074
0
POINT
8
3
10
1136.290039
20
25.784180
0
POINT
8
3
10
1109.770020
20
27.250977
0
POINT
8
3
10
1082.740234
20
29.295898
0
POINT
8
3
10
1055.280273
20
31.964844
0
POINT
8
3
10
1027.470215
20
35.302734
0
POINT
8
3
10
999.400391
20
39.357910
0
POINT
8
3
10
971.129883
20
44.176758
0
POINT
8
3
10
942.750000
20
49.807617
0
POINT
8
3
10
914.350098
20
56.299805
0
POINT
8
3
10
885.990234
20
63.702148
0
POINT
8
3
10
857.760254
20
72.065918
0
POINT
8
3
10
829.740234
20
81.443848
0
POINT
8
3
10
802.020508
20
91.888672
0
POINT
8
3
10
774.799805
20
103.399902
0
POINT
8
3
10
761.209961
20
109.716797
0
POINT
8
3
10
753.839844
20
113.272949
0
POINT
8
3
10
738.470215
20
121.244141
0
POINT
8
3
10
713.770508
20
135.061035
0
POINT
8
3
10
677.510254
20
157.035156
0
POINT
8
3
10
638.200195
20
182.288086
0
POINT
8
3
10
596.600098
20
210.123047
0
POINT
8
3
10
553.490234
20
239.853027
0
POINT
8
3
10
509.669922
20
270.778809
0
POINT
8
3
10
465.940430
20
302.203125
0
POINT
8
3
10
402.129883
20
348.819824
0
POINT
8
3
10
325.310059
20
405.959961
0
POINT
8
3
10
263.980469
20
452.080078
0
POINT
8
3
10
225.209961
20
481.140137
0
POINT
8
3
10
218.350098
20
485.990234
0
POINT
8
3
10
215.260254
20
488.000000
0
POINT
8
3
10
206.440430
20
493.240234
0
POINT
8
3
10
190.100098
20
502.129883
0
POINT
8
3
10
164.190430
20
514.990234
0
POINT
8
3
10
136.470215
20
527.879883
0
POINT
8
3
10
96.250000
20
545.660156
0
POINT
8
3
10
59.589844
20
561.069824
0
POINT
8
2
10
24.000000
20
575.509766
0
POINT
8
3
10
233.419922
20
1271.620117
0
POINT
8
2
10
199.310059
20
1385.000000
0
POINT
8
3
10
2031.930176
20
1385.000000
0
ENDBLK
0
BLOCK
8
1
2
piece_CuffInterface_M
70
64
10
0.000000
20
0.000000
0
POLYLINE
8
14
70
1
0
VERTEX
8
14
10
2978.000000
20
5545.000000
70
32
0
VERTEX
8
14
10
3204.780273
20
5545.000000
70
32
0
VERTEX
8
14
10
3204.780273
20
4448.930176
70
32
0
VERTEX
8
14
10
2978.000000
20
4448.930176
70
32
0
VERTEX
8
14
10
2978.000000
20
5545.000000
70
32
0
SEQEND
8
14
0
ENDBLK
0
BLOCK
8
1
2
piece_PocketFlap_M
70
64
10
0.000000
20
0.000000
0
POLYLINE
8
14
66
1
70
1
250
2
0
VERTEX
8
14
10
3327.746582
20
4443.000000
0
VERTEX
8
14
10
3327.746582
20
4254.023926
0
VERTEX
8
14
10
2912.000000
20
4254.023926
0
VERTEX
8
14
10
2912.000000
20
4443.000000
0
VERTEX
8
14
10
3119.872559
20
4443.000000
0
VERTEX
8
14
10
3327.746582
20
4443.000000
0
SEQEND
0
POINT
8
3
10
3327.746582
20
4443.000000
0
POINT
8
2
10
3327.746582
20
4254.023926
0
POINT
8
2
10
2912.000000
20
4254.023926
0
POINT
8
2
10
2912.000000
20
4443.000000
0
POINT
8
3
10
3119.872559
20
4443.000000
0
POINT
8
3
10
3327.746582
20
4443.000000
0
LINE
8
7
10
3201.441895
20
4387.457031
11
3201.441895
21
4302.417969
0
POLYLINE
8
1
66
1
70
1
250
0
0
VERTEX
8
1
10
3327.746582
20
4443.000000
0
VERTEX
8
1
10
3327.746582
20
4254.023926
0
VERTEX
8
1
10
2912.000000
20
4254.023926
0
VERTEX
8
1
10
2912.000000
20
4443.000000
0
VERTEX
8
1
10
3119.872559
20
4443.000000
0
VERTEX
8
1
10
3327.746582
20
4443.000000
0
SEQEND
0
POINT
8
3
10
3327.746582
20
4443.000000
0
POINT
8
2
10
3327.746582
20
4254.023926
0
POINT
8
2
10
2912.000000
20
4254.023926
0
POINT
8
2
10
2912.000000
20
4443.000000
0
POINT
8
3
10
3119.872559
20
4443.000000
0
POINT
8
3
10
3327.746582
20
4443.000000
0
ENDBLK
0
BLOCK
8
1
2
piece_Yoke_M
70
64
10
0.000000
20
0.000000
0
POLYLINE
8
14
66
1
70
1
250
2
0
VERTEX
8
14
10
3108.433105
20
6748.999939
0
VERTEX
8
14
10
3118.044434
20
6712.098938
0
VERTEX
8
14
10
3137.488037
20
6636.044922
0
VERTEX
8
14
10
3150.384033
20
6583.856873
0
VERTEX
8
14
10
3163.013184
20
6530.509949
0
VERTEX
8
14
10
3175.187012
20
6476.078857
0
VERTEX
8
14
10
3188.557129
20
6412.676880
0
VERTEX
8
14
10
2449.177246
20
6230.863281
0
VERTEX
8
14
10
2445.587158
20
6276.894897
0
VERTEX
8
14
10
2445.071045
20
6280.382080
0
VERTEX
8
14
10
2444.195068
20
6284.264465
0
VERTEX
8
14
10
2442.871094
20
6288.710388
0
VERTEX
8
14
10
2441.069092
20
6293.625854
0
VERTEX
8
14
10
2438.770020
20
6298.928772
0
VERTEX
8
14
10
2435.962158
20
6304.546570
0
VERTEX
8
14
10
2432.637207
20
6310.414490
0
VERTEX
8
14
10
2428.791016
20
6316.473694
0
VERTEX
8
14
10
2424.420166
20
6322.670410
0
VERTEX
8
14
10
2419.523193
20
6328.954712
0
VERTEX
8
14
10
2414.096191
20
6335.279907
0
VERTEX
8
14
10
2408.138184
20
6341.601562
0
VERTEX
8
14
10
2401.647217
20
6347.877869
0
VERTEX
8
14
10
2394.620117
20
6354.068237
0
VERTEX
8
14
10
2387.053223
20
6360.133972
0
VERTEX
8
14
10
2378.943115
20
6366.037170
0
VERTEX
8
14
10
2370.284180
20
6371.740784
0
VERTEX
8
14
10
2361.070068
20
6377.208984
0
VERTEX
8
14
10
2351.295166
20
6382.403992
0
VERTEX
8
14
10
2340.950195
20
6387.291992
0
VERTEX
8
14
10
2330.026123
20
6391.834961
0
VERTEX
8
14
10
2318.513184
20
6395.996948
0
VERTEX
8
14
10
2306.401123
20
6399.740967
0
VERTEX
8
14
10
2293.679199
20
6403.028992
0
VERTEX
8
14
10
2280.335205
20
6405.821960
0
VERTEX
8
14
10
2266.356934
20
6408.079956
0
VERTEX
8
14
10
2251.733643
20
6409.761963
0
VERTEX
8
14
10
2236.454102
20
6410.825989
0
VERTEX
8
14
10
2220.507812
20
6411.229980
0
VERTEX
8
14
10
2203.883789
20
6410.930969
0
VERTEX
8
14
10
2186.444336
20
6409.875977
0
VERTEX
8
14
10
2136.000000
20
6405.071960
0
VERTEX
8
14
10
2136.000000
20
6749.000000
0
VERTEX
8
14
10
3108.433105
20
6748.999939
0
SEQEND
0
POINT
8
3
10
3108.433105
20
6748.999939
0
POINT
8
3
10
3118.044434
20
6712.098938
0
POINT
8
3
10
3137.488037
20
6636.044922
0
POINT
8
3
10
3150.384033
20
6583.856873
0
POINT
8
3
10
3163.013184
20
6530.509949
0
POINT
8
3
10
3175.187012
20
6476.078857
0
POINT
8
2
10
3188.557129
20
6412.676880
0
POINT
8
2
10
2449.177246
20
6230.863281
0
POINT
8
3
10
2445.587158
20
6276.894897
0
POINT
8
3
10
2445.071045
20
6280.382080
0
POINT
8
3
10
2444.195068
20
6284.264465
0
POINT
8
3
10
2442.871094
20
6288.710388
0
POINT
8
3
10
2441.069092
20
6293.625854
0
POINT
8
3
10
2438.770020
20
6298.928772
0
POINT
8
3
10
2435.962158
20
6304.546570
0
POINT
8
3
10
2432.637207
20
6310.414490
0
POINT
8
3
10
2428.791016
20
6316.473694
0
POINT
8
3
10
2424.420166
20
6322.670410
0
POINT
8
3
10
2419.523193
20
6328.954712
0
POINT
8
3
10
2414.096191
20
6335.279907
0
POINT
8
3
10
2408.138184
20
6341.601562
0
POINT
8
3
10
2401.647217
20
6347.877869
0
POINT
8
3
10
2394.620117
20
6354.068237
0
POINT
8
3
10
2387.053223
20
6360.133972
0
POINT
8
3
10
2378.943115
20
6366.037170
0
POINT
8
3
10
2370.284180
20
6371.740784
0
POINT
8
3
10
2361.070068
20
6377.208984
0
POINT
8
3
10
2351.295166
20
6382.403992
0
POINT
8
3
10
2340.950195
20
6387.291992
0
POINT
8
3
10
2330.026123
20
6391.834961
0
POINT
8
3
10
2318.513184
20
6395.996948
0
POINT
8
3
10
2306.401123
20
6399.740967
0
POINT
8
3
10
2293.679199
20
6403.028992
0
POINT
8
3
10
2280.335205
20
6405.821960
0
POINT
8
3
10
2266.356934
20
6408.079956
0
POINT
8
3
10
2251.733643
20
6409.761963
0
POINT
8
3
10
2236.454102
20
6410.825989
0
POINT
8
3
10
2220.507812
20
6411.229980
0
POINT
8
3
10
2203.883789
20
6410.930969
0
POINT
8
3
10
2186.444336
20
6409.875977
0
POINT
8
2
10
2136.000000
20
6405.071960
0
POINT
8
2
10
2136.000000
20
6749.000000
0
POINT
8
3
10
3108.433105
20
6748.999939
0
LINE
8
7
10
2565.821045
20
6634.601990
11
2565.821045
21
6370.035034
0
POLYLINE
8
1
66
1
70
1
250
0
0
VERTEX
8
1
10
3108.433105
20
6748.999939
0
VERTEX
8
1
10
3118.044434
20
6712.098938
0
VERTEX
8
1
10
3137.488037
20
6636.044922
0
VERTEX
8
1
10
3150.384033
20
6583.856873
0
VERTEX
8
1
10
3163.013184
20
6530.509949
0
VERTEX
8
1
10
3175.187012
20
6476.078857
0
VERTEX
8
1
10
3188.557129
20
6412.676880
0
VERTEX
8
1
10
2449.177246
20
6230.863281
0
VERTEX
8
1
10
2445.587158
20
6276.894897
0
VERTEX
8
1
10
2445.071045
20
6280.382080
0
VERTEX
8
1
10
2444.195068
20
6284.264465
0
VERTEX
8
1
10
2442.871094
20
6288.710388
0
VERTEX
8
1
10
2441.069092
20
6293.625854
0
VERTEX
8
1
10
2438.770020
20
6298.928772
0
VERTEX
8
1
10
2435.962158
20
6304.546570
0
VERTEX
8
1
10
2432.637207
20
6310.414490
0
VERTEX
8
1
10
2428.791016
20
6316.473694
0
VERTEX
8
1
10
2424.420166
20
6322.670410
0
VERTEX
8
1
10
2419.523193
20
6328.954712
0
VERTEX
8
1
10
2414.096191
20
6335.279907
0
VERTEX
8
1
10
2408.138184
20
6341.601562
0
VERTEX
8
1
10
2401.647217
20
6347.877869
0
VERTEX
8
1
10
2394.620117
20
6354.068237
0
VERTEX
8
1
10
2387.053223
20
6360.133972
0
VERTEX
8
1
10
2378.943115
20
6366.037170
0
VERTEX
8
1
10
2370.284180
20
6371.740784
0
VERTEX
8
1
10
2361.070068
20
6377.208984
0
VERTEX
8
1
10
2351.295166
20
6382.403992
0
VERTEX
8
1
10
2340.950195
20
6387.291992
0
VERTEX
8
1
10
2330.026123
20
6391.834961
0
VERTEX
8
1
10
2318.513184
20
6395.996948
0
VERTEX
8
1
10
2306.401123
20
6399.740967
0
VERTEX
8
1
10
2293.679199
20
6403.028992
0
VERTEX
8
1
10
2280.335205
20
6405.821960
0
VERTEX
8
1
10
2266.356934
20
6408.079956
0
VERTEX
8
1
10
2251.733643
20
6409.761963
0
VERTEX
8
1
10
2236.454102
20
6410.825989
0
VERTEX
8
1
10
2220.507812
20
6411.229980
0
VERTEX
8
1
10
2203.883789
20
6410.930969
0
VERTEX
8
1
10
2186.444336
20
6409.875977
0
VERTEX
8
1
10
2136.000000
20
6405.071960
0
VERTEX
8
1
10
2136.000000
20
6749.000000
0
VERTEX
8
1
10
3108.433105
20
6748.999939
0
SEQEND
0
POINT
8
3
10
3108.433105
20
6748.999939
0
POINT
8
3
10
3118.044434
20
6712.098938
0
POINT
8
3
10
3137.488037
20
6636.044922
0
POINT
8
3
10
3150.384033
20
6583.856873
0
POINT
8
3
10
3163.013184
20
6530.509949
0
POINT
8
3
10
3175.187012
20
6476.078857
0
POINT
8
2
10
3188.557129
20
6412.676880
0
POINT
8
2
10
2449.177246
20
6230.863281
0
POINT
8
3
10
2445.587158
20
6276.894897
0
POINT
8
3
10
2445.071045
20
6280.382080
0
POINT
8
3
10
2444.195068
20
6284.264465
0
POINT
8
3
10
2442.871094
20
6288.710388
0
POINT
8
3
10
2441.069092
20
6293.625854
0
POINT
8
3
10
2438.770020
20
6298.928772
0
POINT
8
3
10
2435.962158
20
6304.546570
0
POINT
8
3
10
2432.637207
20
6310.414490
0
POINT
8
3
10
2428.791016
20
6316.473694
0
POINT
8
3
10
2424.420166
20
6322.670410
0
POINT
8
3
10
2419.523193
20
6328.954712
0
POINT
8
3
10
2414.096191
20
6335.279907
0
POINT
8
3
10
2408.138184
20
6341.601562
0
POINT
8
3
10
2401.647217
20
6347.877869
0
POINT
8
3
10
2394.620117
20
6354.068237
0
POINT
8
3
10
2387.053223
20
6360.133972
0
POINT
8
3
10
2378.943115
20
6366.037170
0
POINT
8
3
10
2370.284180
20
6371.740784
0
POINT
8
3
10
2361.070068
20
6377.208984
0
POINT
8
3
10
2351.295166
20
6382.403992
0
POINT
8
3
10
2340.950195
20
6387.291992
0
POINT
8
3
10
2330.026123
20
6391.834961
0
POINT
8
3
10
2318.513184
20
6395.996948
0
POINT
8
3
10
2306.401123
20
6399.740967
0
POINT
8
3
10
2293.679199
20
6403.028992
0
POINT
8
3
10
2280.335205
20
6405.821960
0
POINT
8
3
10
2266.356934
20
6408.079956
0
POINT
8
3
10
2251.733643
20
6409.761963
0
POINT
8
3
10
2236.454102
20
6410.825989
0
POINT
8
3
10
2220.507812
20
6411.229980
0
POINT
8
3
10
2203.883789
20
6410.930969
0
POINT
8
3
10
2186.444336
20
6409.875977
0
POINT
8
2
10
2136.000000
20
6405.071960
0
POINT
8
2
10
2136.000000
20
6749.000000
0
POINT
8
3
10
3108.433105
20
6748.999939
0
ENDBLK
0
BLOCK
8
1
2
piece_PlacketUnder_M
70
64
10
0.000000
20
0.000000
0
POLYLINE
8
14
66
1
70
1
250
2
0
VERTEX
8
14
10
2786.319824
20
4512.000000
0
VERTEX
8
14
10
2786.319824
20
4323.020020
0
VERTEX
8
14
10
2136.000000
20
4323.020020
0
VERTEX
8
14
10
2136.000000
20
4512.000000
0
VERTEX
8
14
10
2786.319824
20
4512.000000
0
SEQEND
0
POINT
8
3
10
2786.319824
20
4512.000000
0
POINT
8
2
10
2786.319824
20
4323.020020
0
POINT
8
2
10
2136.000000
20
4323.020020
0
POINT
8
2
10
2136.000000
20
4512.000000
0
POINT
8
3
10
2786.319824
20
4512.000000
0
LINE
8
7
10
2566.929688
20
4458.739990
11
2566.929688
21
4373.699951
0
POLYLINE
8
1
66
1
70
1
250
0
0
VERTEX
8
1
10
2786.319824
20
4512.000000
0
VERTEX
8
1
10
2786.319824
20
4323.020020
0
VERTEX
8
1
10
2136.000000
20
4323.020020
0
VERTEX
8
1
10
2136.000000
20
4512.000000
0
VERTEX
8
1
10
2786.319824
20
4512.000000
0
SEQEND
0
POINT
8
3
10
2786.319824
20
4512.000000
0
POINT
8
2
10
2786.319824
20
4323.020020
0
POINT
8
2
10
2136.000000
20
4323.020020
0
POINT
8
2
10
2136.000000
20
4512.000000
0
POINT
8
3
10
2786.319824
20
4512.000000
0
ENDBLK
0
BLOCK
8
1
2
piece_FullSleeve_M
70
64
10
0.000000
20
0.000000
0
POLYLINE
8
14
66
1
70
1
250
2
0
VERTEX
8
14
10
1200.460449
20
6713.770020
0
VERTEX
8
14
10
1222.690918
20
6713.030029
0
VERTEX
8
14
10
1312.190918
20
6709.590088
0
VERTEX
8
14
10
1391.350586
20
6707.619629
0
VERTEX
8
14
10
1457.830566
20
6707.009766
0
VERTEX
8
14
10
1503.660156
20
6707.189697
0
VERTEX
8
14
10
1549.980469
20
6707.999756
0
VERTEX
8
14
10
1595.950195
20
6709.559814
0
VERTEX
8
14
10
1640.710449
20
6711.999756
0
VERTEX
8
14
10
1683.470703
20
6715.409668
0
VERTEX
8
14
10
1713.530273
20
6718.699707
0
VERTEX
8
14
10
1732.440430
20
6721.199707
0
VERTEX
8
14
10
1750.360352
20
6723.999756
0
VERTEX
8
14
10
1767.220703
20
6727.109863
0
VERTEX
8
14
10
1813.800781
20
6736.949707
0
VERTEX
8
14
10
2130.795410
20
4835.819580
0
VERTEX
8
14
10
2090.475586
20
4830.409668
0
VERTEX
8
14
10
2083.180664
20
4828.449707
0
VERTEX
8
14
10
2061.530273
20
4821.619873
0
VERTEX
8
14
10
2031.880371
20
4811.289795
0
VERTEX
8
14
10
1996.720703
20
4797.919678
0
VERTEX
8
14
10
1968.170410
20
4786.129639
0
VERTEX
8
14
10
1948.810547
20
4777.649658
0
VERTEX
8
14
10
1929.370117
20
4768.669678
0
VERTEX
8
14
10
1910.220703
20
4759.269775
0
VERTEX
8
14
10
1891.650391
20
4749.530029
0
VERTEX
8
14
10
1873.880371
20
4739.459717
0
VERTEX
8
14
10
1865.580078
20
4734.419678
0
VERTEX
8
14
10
1856.990234
20
4729.050049
0
VERTEX
8
14
10
1840.280273
20
4718.030029
0
VERTEX
8
14
10
1824.500000
20
4706.969971
0
VERTEX
8
14
10
1809.540039
20
4695.869873
0
VERTEX
8
14
10
1795.320312
20
4684.780029
0
VERTEX
8
14
10
1781.850586
20
4673.769775
0
VERTEX
8
14
10
1762.690430
20
4657.359619
0
VERTEX
8
14
10
1727.600586
20
4625.300049
0
VERTEX
8
14
10
1696.680664
20
4596.339600
0
VERTEX
8
14
10
1676.850586
20
4578.769775
0
VERTEX
8
14
10
1667.110352
20
4570.892822
0
VERTEX
8
14
10
1656.650391
20
4562.578857
0
VERTEX
8
14
10
1632.530273
20
4542.761963
0
VERTEX
8
14
10
1591.180664
20
4508.039795
0
VERTEX
8
14
10
1533.190430
20
4459.133789
0
VERTEX
8
14
10
1494.250000
20
4427.171631
0
VERTEX
8
14
10
1472.260742
20
4410.002686
0
VERTEX
8
14
10
1463.250000
20
4403.485596
0
VERTEX
8
14
10
1450.570312
20
4394.410889
0
VERTEX
8
14
10
1425.959961
20
4376.116943
0
VERTEX
8
14
10
1407.090332
20
4362.389893
0
VERTEX
8
14
10
1393.860352
20
4353.231689
0
VERTEX
8
14
10
1380.070312
20
4344.305908
0
VERTEX
8
14
10
1365.560059
20
4335.709717
0
VERTEX
8
14
10
1350.200195
20
4327.582764
0
VERTEX
8
14
10
1333.910156
20
4320.069824
0
VERTEX
8
14
10
1316.580078
20
4313.314697
0
VERTEX
8
14
10
1298.160156
20
4307.451904
0
VERTEX
8
14
10
1278.580078
20
4302.596924
0
VERTEX
8
14
10
1257.780273
20
4298.847900
0
VERTEX
8
14
10
1235.680176
20
4296.285889
0
VERTEX
8
14
10
1212.379883
20
4294.984619
0
VERTEX
8
14
10
1199.940430
20
4294.871826
0
VERTEX
8
14
10
1187.440430
20
4294.907959
0
VERTEX
8
14
10
1162.229980
20
4295.350830
0
VERTEX
8
14
10
1136.290039
20
4296.283936
0
VERTEX
8
14
10
1109.770020
20
4297.750732
0
VERTEX
8
14
10
1082.740234
20
4299.795654
0
VERTEX
8
14
10
1055.280273
20
4302.464600
0
VERTEX
8
14
10
1027.470215
20
4305.802979
0
VERTEX
8
14
10
999.400391
20
4309.857666
0
VERTEX
8
14
10
971.129883
20
4314.677002
0
VERTEX
8
14
10
942.750000
20
4320.307861
0
VERTEX
8
14
10
914.350098
20
4326.799805
0
VERTEX
8
14
10
885.990234
20
4334.201904
0
VERTEX
8
14
10
857.760254
20
4342.565674
0
VERTEX
8
14
10
829.740234
20
4351.943604
0
VERTEX
8
14
10
802.020508
20
4362.388916
0
VERTEX
8
14
10
774.799805
20
4373.899658
0
VERTEX
8
14
10
761.209961
20
4380.216797
0
VERTEX
8
14
10
753.839844
20
4383.772705
0
VERTEX
8
14
10
738.470215
20
4391.743896
0
VERTEX
8
14
10
713.770508
20
4405.560791
0
VERTEX
8
14
10
677.510254
20
4427.534912
0
VERTEX
8
14
10
638.200195
20
4452.787842
0
VERTEX
8
14
10
596.600098
20
4480.622803
0
VERTEX
8
14
10
553.490234
20
4510.352783
0
VERTEX
8
14
10
509.669922
20
4541.279053
0
VERTEX
8
14
10
465.940430
20
4572.702881
0
VERTEX
8
14
10
402.129883
20
4619.319824
0
VERTEX
8
14
10
325.310059
20
4676.459961
0
VERTEX
8
14
10
263.980469
20
4722.579834
0
VERTEX
8
14
10
225.209961
20
4751.639893
0
VERTEX
8
14
10
218.350098
20
4756.489990
0
VERTEX
8
14
10
215.260254
20
4758.500000
0
VERTEX
8
14
10
206.440430
20
4763.739990
0
VERTEX
8
14
10
190.100098
20
4772.629883
0
VERTEX
8
14
10
164.190430
20
4785.489990
0
VERTEX
8
14
10
136.470215
20
4798.379883
0
VERTEX
8
14
10
96.250000
20
4816.159912
0
VERTEX
8
14
10
59.589844
20
4831.569824
0
VERTEX
8
14
10
24.000000
20
4846.010010
0
VERTEX
8
14
10
596.500488
20
6749.000000
0
VERTEX
8
14
10
641.430664
20
6736.830078
0
VERTEX
8
14
10
660.420410
20
6732.300049
0
VERTEX
8
14
10
679.460449
20
6728.389893
0
VERTEX
8
14
10
698.450684
20
6725.060059
0
VERTEX
8
14
10
717.170410
20
6722.260010
0
VERTEX
8
14
10
735.350586
20
6719.969971
0
VERTEX
8
14
10
761.530762
20
6717.280029
0
VERTEX
8
14
10
792.770996
20
6715.080078
0
VERTEX
8
14
10
818.310547
20
6714.030029
0
VERTEX
8
14
10
838.160645
20
6713.770020
0
VERTEX
8
14
10
947.280762
20
6713.770020
0
VERTEX
8
14
10
961.720703
20
6684.899902
0
VERTEX
8
14
10
961.720703
20
6713.770020
0
VERTEX
8
14
10
1117.360840
20
6713.770020
0
VERTEX
8
14
10
1131.800781
20
6684.899902
0
VERTEX
8
14
10
1131.800781
20
6713.770020
0
VERTEX
8
14
10
1200.460449
20
6713.770020
0
SEQEND
0
POINT
8
3
10
1200.460449
20
6713.770020
0
POINT
8
3
10
1222.690918
20
6713.030029
0
POINT
8
3
10
1312.190918
20
6709.590088
0
POINT
8
3
10
1391.350586
20
6707.619629
0
POINT
8
3
10
1457.830566
20
6707.009766
0
POINT
8
3
10
1503.660156
20
6707.189697
0
POINT
8
3
10
1549.980469
20
6707.999756
0
POINT
8
3
10
1595.950195
20
6709.559814
0
POINT
8
3
10
1640.710449
20
6711.999756
0
POINT
8
3
10
1683.470703
20
6715.409668
0
POINT
8
3
10
1713.530273
20
6718.699707
0
POINT
8
3
10
1732.440430
20
6721.199707
0
POINT
8
3
10
1750.360352
20
6723.999756
0
POINT
8
3
10
1767.220703
20
6727.109863
0
POINT
8
2
10
1813.800781
20
6736.949707
0
POINT
8
2
10
2130.795410
20
4835.819580
0
POINT
8
3
10
2090.475586
20
4830.409668
0
POINT
8
3
10
2083.180664
20
4828.449707
0
POINT
8
3
10
2061.530273
20
4821.619873
0
POINT
8
3
10
2031.880371
20
4811.289795
0
POINT
8
3
10
1996.720703
20
4797.919678
0
POINT
8
3
10
1968.170410
20
4786.129639
0
POINT
8
3
10
1948.810547
20
4777.649658
0
POINT
8
3
10
1929.370117
20
4768.669678
0
POINT
8
3
10
1910.220703
20
4759.269775
0
POINT
8
3
10
1891.650391
20
4749.530029
0
POINT
8
3
10
1873.880371
20
4739.459717
0
POINT
8
3
10
1865.580078
20
4734.419678
0
POINT
8
3
10
1856.990234
20
4729.050049
0
POINT
8
3
10
1840.280273
20
4718.030029
0
POINT
8
3
10
1824.500000
20
4706.969971
0
POINT
8
3
10
1809.540039
20
4695.869873
0
POINT
8
3
10
1795.320312
20
4684.780029
0
POINT
8
3
10
1781.850586
20
4673.769775
0
POINT
8
3
10
1762.690430
20
4657.359619
0
POINT
8
3
10
1727.600586
20
4625.300049
0
POINT
8
3
10
1696.680664
20
4596.339600
0
POINT
8
3
10
1676.850586
20
4578.769775
0
POINT
8
3
10
1667.110352
20
4570.892822
0
POINT
8
3
10
1656.650391
20
4562.578857
0
POINT
8
3
10
1632.530273
20
4542.761963
0
POINT
8
3
10
1591.180664
20
4508.039795
0
POINT
8
3
10
1533.190430
20
4459.133789
0
POINT
8
3
10
1494.250000
20
4427.171631
0
POINT
8
3
10
1472.260742
20
4410.002686
0
POINT
8
3
10
1463.250000
20
4403.485596
0
POINT
8
3
10
1450.570312
20
4394.410889
0
POINT
8
3
10
1425.959961
20
4376.116943
0
POINT
8
3
10
1407.090332
20
4362.389893
0
POINT
8
3
10
1393.860352
20
4353.231689
0
POINT
8
3
10
1380.070312
20
4344.305908
0
POINT
8
3
10
1365.560059
20
4335.709717
0
POINT
8
3
10
1350.200195
20
4327.582764
0
POINT
8
3
10
1333.910156
20
4320.069824
0
POINT
8
3
10
1316.580078
20
4313.314697
0
POINT
8
3
10
1298.160156
20
4307.451904
0
POINT
8
3
10
1278.580078
20
4302.596924
0
POINT
8
3
10
1257.780273
20
4298.847900
0
POINT
8
3
10
1235.680176
20
4296.285889
0
POINT
8
3
10
1212.379883
20
4294.984619
0
POINT
8
3
10
1199.940430
20
4294.871826
0
POINT
8
3
10
1187.440430
20
4294.907959
0
POINT
8
3
10
1162.229980
20
4295.350830
0
POINT
8
3
10
1136.290039
20
4296.283936
0
POINT
8
3
10
1109.770020
20
4297.750732
0
POINT
8
3
10
1082.740234
20
4299.795654
0
POINT
8
3
10
1055.280273
20
4302.464600
0
POINT
8
3
10
1027.470215
20
4305.802979
0
POINT
8
3
10
999.400391
20
4309.857666
0
POINT
8
3
10
971.129883
20
4314.677002
0
POINT
8
3
10
942.750000
20
4320.307861
0
POINT
8
3
10
914.350098
20
4326.799805
0
POINT
8
3
10
885.990234
20
4334.201904
0
POINT
8
3
10
857.760254
20
4342.565674
0
POINT
8
3
10
829.740234
20
4351.943604
0
POINT
8
3
10
802.020508
20
4362.388916
0
POINT
8
3
10
774.799805
20
4373.899658
0
POINT
8
3
10
761.209961
20
4380.216797
0
POINT
8
3
10
753.839844
20
4383.772705
0
POINT
8
3
10
738.470215
20
4391.743896
0
POINT
8
3
10
713.770508
20
4405.560791
0
POINT
8
3
10
677.510254
20
4427.534912
0
POINT
8
3
10
638.200195
20
4452.787842
0
POINT
8
3
10
596.600098
20
4480.622803
0
POINT
8
3
10
553.490234
20
4510.352783
0
POINT
8
3
10
509.669922
20
4541.279053
0
POINT
8
3
10
465.940430
20
4572.702881
0
POINT
8
3
10
402.129883
20
4619.319824
0
POINT
8
3
10
325.310059
20
4676.459961
0
POINT
8
3
10
263.980469
20
4722.579834
0
POINT
8
3
10
225.209961
20
4751.639893
0
POINT
8
3
10
218.350098
20
4756.489990
0
POINT
8
3
10
215.260254
20
4758.500000
0
POINT
8
3
10
206.440430
20
4763.739990
0
POINT
8
3
10
190.100098
20
4772.629883
0
POINT
8
3
10
164.190430
20
4785.489990
0
POINT
8
3
10
136.470215
20
4798.379883
0
POINT
8
3
10
96.250000
20
4816.159912
0
POINT
8
3
10
59.589844
20
4831.569824
0
POINT
8
2
10
24.000000
20
4846.010010
0
POINT
8
2
10
596.500488
20
6749.000000
0
POINT
8
3
10
641.430664
20
6736.830078
0
POINT
8
3
10
660.420410
20
6732.300049
0
POINT
8
3
10
679.460449
20
6728.389893
0
POINT
8
3
10
698.450684
20
6725.060059
0
POINT
8
3
10
717.170410
20
6722.260010
0
POINT
8
3
10
735.350586
20
6719.969971
0
POINT
8
3
10
761.530762
20
6717.280029
0
POINT
8
3
10
792.770996
20
6715.080078
0
POINT
8
3
10
818.310547
20
6714.030029
0
POINT
8
3
10
838.160645
20
6713.770020
0
POINT
8
2
10
947.280762
20
6713.770020
0
POINT
8
2
10
961.720703
20
6684.899902
0
POINT
8
2
10
961.720703
20
6713.770020
0
POINT
8
2
10
1117.360840
20
6713.770020
0
POINT
8
2
10
1131.800781
20
6684.899902
0
POINT
8
2
10
1131.800781
20
6713.770020
0
POINT
8
3
10
1200.460449
20
6713.770020
0
LINE
8
7
10
1113.420410
20
6007.929932
11
1113.419922
21
4570.889893
0
POLYLINE
8
1
66
1
70
1
250
0
0
VERTEX
8
1
10
1200.460449
20
6713.770020
0
VERTEX
8
1
10
1222.690918
20
6713.030029
0
VERTEX
8
1
10
1312.190918
20
6709.590088
0
VERTEX
8
1
10
1391.350586
20
6707.619629
0
VERTEX
8
1
10
1457.830566
20
6707.009766
0
VERTEX
8
1
10
1503.660156
20
6707.189697
0
VERTEX
8
1
10
1549.980469
20
6707.999756
0
VERTEX
8
1
10
1595.950195
20
6709.559814
0
VERTEX
8
1
10
1640.710449
20
6711.999756
0
VERTEX
8
1
10
1683.470703
20
6715.409668
0
VERTEX
8
1
10
1713.530273
20
6718.699707
0
VERTEX
8
1
10
1732.440430
20
6721.199707
0
VERTEX
8
1
10
1750.360352
20
6723.999756
0
VERTEX
8
1
10
1767.220703
20
6727.109863
0
VERTEX
8
1
10
1813.800781
20
6736.949707
0
VERTEX
8
1
10
2130.795410
20
4835.819580
0
VERTEX
8
1
10
2090.475586
20
4830.409668
0
VERTEX
8
1
10
2083.180664
20
4828.449707
0
VERTEX
8
1
10
2061.530273
20
4821.619873
0
VERTEX
8
1
10
2031.880371
20
4811.289795
0
VERTEX
8
1
10
1996.720703
20
4797.919678
0
VERTEX
8
1
10
1968.170410
20
4786.129639
0
VERTEX
8
1
10
1948.810547
20
4777.649658
0
VERTEX
8
1
10
1929.370117
20
4768.669678
0
VERTEX
8
1
10
1910.220703
20
4759.269775
0
VERTEX
8
1
10
1891.650391
20
4749.530029
0
VERTEX
8
1
10
1873.880371
20
4739.459717
0
VERTEX
8
1
10
1865.580078
20
4734.419678
0
VERTEX
8
1
10
1856.990234
20
4729.050049
0
VERTEX
8
1
10
1840.280273
20
4718.030029
0
VERTEX
8
1
10
1824.500000
20
4706.969971
0
VERTEX
8
1
10
1809.540039
20
4695.869873
0
VERTEX
8
1
10
1795.320312
20
4684.780029
0
VERTEX
8
1
10
1781.850586
20
4673.769775
0
VERTEX
8
1
10
1762.690430
20
4657.359619
0
VERTEX
8
1
10
1727.600586
20
4625.300049
0
VERTEX
8
1
10
1696.680664
20
4596.339600
0
VERTEX
8
1
10
1676.850586
20
4578.769775
0
VERTEX
8
1
10
1667.110352
20
4570.892822
0
VERTEX
8
1
10
1656.650391
20
4562.578857
0
VERTEX
8
1
10
1632.530273
20
4542.761963
0
VERTEX
8
1
10
1591.180664
20
4508.039795
0
VERTEX
8
1
10
1533.190430
20
4459.133789
0
VERTEX
8
1
10
1494.250000
20
4427.171631
0
VERTEX
8
1
10
1472.260742
20
4410.002686
0
VERTEX
8
1
10
1463.250000
20
4403.485596
0
VERTEX
8
1
10
1450.570312
20
4394.410889
0
VERTEX
8
1
10
1425.959961
20
4376.116943
0
VERTEX
8
1
10
1407.090332
20
4362.389893
0
VERTEX
8
1
10
1393.860352
20
4353.231689
0
VERTEX
8
1
10
1380.070312
20
4344.305908
0
VERTEX
8
1
10
1365.560059
20
4335.709717
0
VERTEX
8
1
10
1350.200195
20
4327.582764
0
VERTEX
8
1
10
1333.910156
20
4320.069824
0
VERTEX
8
1
10
1316.580078
20
4313.314697
0
VERTEX
8
1
10
1298.160156
20
4307.451904
0
VERTEX
8
1
10
1278.580078
20
4302.596924
0
VERTEX
8
1
10
1257.780273
20
4298.847900
0
VERTEX
8
1
10
1235.680176
20
4296.285889
0
VERTEX
8
1
10
1212.379883
20
4294.984619
0
VERTEX
8
1
10
1199.940430
20
4294.871826
0
VERTEX
8
1
10
1187.440430
20
4294.907959
0
VERTEX
8
1
10
1162.229980
20
4295.350830
0
VERTEX
8
1
10
1136.290039
20
4296.283936
0
VERTEX
8
1
10
1109.770020
20
4297.750732
0
VERTEX
8
1
10
1082.740234
20
4299.795654
0
VERTEX
8
1
10
1055.280273
20
4302.464600
0
VERTEX
8
1
10
1027.470215
20
4305.802979
0
VERTEX
8
1
10
999.400391
20
4309.857666
0
VERTEX
8
1
10
971.129883
20
4314.677002
0
VERTEX
8
1
10
942.750000
20
4320.307861
0
VERTEX
8
1
10
914.350098
20
4326.799805
0
VERTEX
8
1
10
885.990234
20
4334.201904
0
VERTEX
8
1
10
857.760254
20
4342.565674
0
VERTEX
8
1
10
829.740234
20
4351.943604
0
VERTEX
8
1
10
802.020508
20
4362.388916
0
VERTEX
8
1
10
774.799805
20
4373.899658
0
VERTEX
8
1
10
761.209961
20
4380.216797
0
VERTEX
8
1
10
753.839844
20
4383.772705
0
VERTEX
8
1
10
738.470215
20
4391.743896
0
VERTEX
8
1
10
713.770508
20
4405.560791
0
VERTEX
8
1
10
677.510254
20
4427.534912
0
VERTEX
8
1
10
638.200195
20
4452.787842
0
VERTEX
8
1
10
596.600098
20
4480.622803
0
VERTEX
8
1
10
553.490234
20
4510.352783
0
VERTEX
8
1
10
509.669922
20
4541.279053
0
VERTEX
8
1
10
465.940430
20
4572.702881
0
VERTEX
8
1
10
402.129883
20
4619.319824
0
VERTEX
8
1
10
325.310059
20
4676.459961
0
VERTEX
8
1
10
263.980469
20
4722.579834
0
VERTEX
8
1
10
225.209961
20
4751.639893
0
VERTEX
8
1
10
218.350098
20
4756.489990
0
VERTEX
8
1
10
215.260254
20
4758.500000
0
VERTEX
8
1
10
206.440430
20
4763.739990
0
VERTEX
8
1
10
190.100098
20
4772.629883
0
VERTEX
8
1
10
164.190430
20
4785.489990
0
VERTEX
8
1
10
136.470215
20
4798.379883
0
VERTEX
8
1
10
96.250000
20
4816.159912
0
VERTEX
8
1
10
59.589844
20
4831.569824
0
VERTEX
8
1
10
24.000000
20
4846.010010
0
VERTEX
8
1
10
596.500488
20
6749.000000
0
VERTEX
8
1
10
641.430664
20
6736.830078
0
VERTEX
8
1
10
660.420410
20
6732.300049
0
VERTEX
8
1
10
679.460449
20
6728.389893
0
VERTEX
8
1
10
698.450684
20
6725.060059
0
VERTEX
8
1
10
717.170410
20
6722.260010
0
VERTEX
8
1
10
735.350586
20
6719.969971
0
VERTEX
8
1
10
761.530762
20
6717.280029
0
VERTEX
8
1
10
792.770996
20
6715.080078
0
VERTEX
8
1
10
818.310547
20
6714.030029
0
VERTEX
8
1
10
838.160645
20
6713.770020
0
VERTEX
8
1
10
947.280762
20
6713.770020
0
VERTEX
8
1
10
961.720703
20
6684.899902
0
VERTEX
8
1
10
961.720703
20
6713.770020
0
VERTEX
8
1
10
1117.360840
20
6713.770020
0
VERTEX
8
1
10
1131.800781
20
6684.899902
0
VERTEX
8
1
10
1131.800781
20
6713.770020
0
VERTEX
8
1
10
1200.460449
20
6713.770020
0
SEQEND
0
POINT
8
3
10
1200.460449
20
6713.770020
0
POINT
8
3
10
1222.690918
20
6713.030029
0
POINT
8
3
10
1312.190918
20
6709.590088
0
POINT
8
3
10
1391.350586
20
6707.619629
0
POINT
8
3
10
1457.830566
20
6707.009766
0
POINT
8
3
10
1503.660156
20
6707.189697
0
POINT
8
3
10
1549.980469
20
6707.999756
0
POINT
8
3
10
1595.950195
20
6709.559814
0
POINT
8
3
10
1640.710449
20
6711.999756
0
POINT
8
3
10
1683.470703
20
6715.409668
0
POINT
8
3
10
1713.530273
20
6718.699707
0
POINT
8
3
10
1732.440430
20
6721.199707
0
POINT
8
3
10
1750.360352
20
6723.999756
0
POINT
8
3
10
1767.220703
20
6727.109863
0
POINT
8
2
10
1813.800781
20
6736.949707
0
POINT
8
2
10
2130.795410
20
4835.819580
0
POINT
8
3
10
2090.475586
20
4830.409668
0
POINT
8
3
10
2083.180664
20
4828.449707
0
POINT
8
3
10
2061.530273
20
4821.619873
0
POINT
8
3
10
2031.880371
20
4811.289795
0
POINT
8
3
10
1996.720703
20
4797.919678
0
POINT
8
3
10
1968.170410
20
4786.129639
0
POINT
8
3
10
1948.810547
20
4777.649658
0
POINT
8
3
10
1929.370117
20
4768.669678
0
POINT
8
3
10
1910.220703
20
4759.269775
0
POINT
8
3
10
1891.650391
20
4749.530029
0
POINT
8
3
10
1873.880371
20
4739.459717
0
POINT
8
3
10
1865.580078
20
4734.419678
0
POINT
8
3
10
1856.990234
20
4729.050049
0
POINT
8
3
10
1840.280273
20
4718.030029
0
POINT
8
3
10
1824.500000
20
4706.969971
0
POINT
8
3
10
1809.540039
20
4695.869873
0
POINT
8
3
10
1795.320312
20
4684.780029
0
POINT
8
3
10
1781.850586
20
4673.769775
0
POINT
8
3
10
1762.690430
20
4657.359619
0
POINT
8
3
10
1727.600586
20
4625.300049
0
POINT
8
3
10
1696.680664
20
4596.339600
0
POINT
8
3
10
1676.850586
20
4578.769775
0
POINT
8
3
10
1667.110352
20
4570.892822
0
POINT
8
3
10
1656.650391
20
4562.578857
0
POINT
8
3
10
1632.530273
20
4542.761963
0
POINT
8
3
10
1591.180664
20
4508.039795
0
POINT
8
3
10
1533.190430
20
4459.133789
0
POINT
8
3
10
1494.250000
20
4427.171631
0
POINT
8
3
10
1472.260742
20
4410.002686
0
POINT
8
3
10
1463.250000
20
4403.485596
0
POINT
8
3
10
1450.570312
20
4394.410889
0
POINT
8
3
10
1425.959961
20
4376.116943
0
POINT
8
3
10
1407.090332
20
4362.389893
0
POINT
8
3
10
1393.860352
20
4353.231689
0
POINT
8
3
10
1380.070312
20
4344.305908
0
POINT
8
3
10
1365.560059
20
4335.709717
0
POINT
8
3
10
1350.200195
20
4327.582764
0
POINT
8
3
10
1333.910156
20
4320.069824
0
POINT
8
3
10
1316.580078
20
4313.314697
0
POINT
8
3
10
1298.160156
20
4307.451904
0
POINT
8
3
10
1278.580078
20
4302.596924
0
POINT
8
3
10
1257.780273
20
4298.847900
0
POINT
8
3
10
1235.680176
20
4296.285889
0
POINT
8
3
10
1212.379883
20
4294.984619
0
POINT
8
3
10
1199.940430
20
4294.871826
0
POINT
8
3
10
1187.440430
20
4294.907959
0
POINT
8
3
10
1162.229980
20
4295.350830
0
POINT
8
3
10
1136.290039
20
4296.283936
0
POINT
8
3
10
1109.770020
20
4297.750732
0
POINT
8
3
10
1082.740234
20
4299.795654
0
POINT
8
3
10
1055.280273
20
4302.464600
0
POINT
8
3
10
1027.470215
20
4305.802979
0
POINT
8
3
10
999.400391
20
4309.857666
0
POINT
8
3
10
971.129883
20
4314.677002
0
POINT
8
3
10
942.750000
20
4320.307861
0
POINT
8
3
10
914.350098
20
4326.799805
0
POINT
8
3
10
885.990234
20
4334.201904
0
POINT
8
3
10
857.760254
20
4342.565674
0
POINT
8
3
10
829.740234
20
4351.943604
0
POINT
8
3
10
802.020508
20
4362.388916
0
POINT
8
3
10
774.799805
20
4373.899658
0
POINT
8
3
10
761.209961
20
4380.216797
0
POINT
8
3
10
753.839844
20
4383.772705
0
POINT
8
3
10
738.470215
20
4391.743896
0
POINT
8
3
10
713.770508
20
4405.560791
0
POINT
8
3
10
677.510254
20
4427.534912
0
POINT
8
3
10
638.200195
20
4452.787842
0
POINT
8
3
10
596.600098
20
4480.622803
0
POINT
8
3
10
553.490234
20
4510.352783
0
POINT
8
3
10
509.669922
20
4541.279053
0
POINT
8
3
10
465.940430
20
4572.702881
0
POINT
8
3
10
402.129883
20
4619.319824
0
POINT
8
3
10
325.310059
20
4676.459961
0
POINT
8
3
10
263.980469
20
4722.579834
0
POINT
8
3
10
225.209961
20
4751.639893
0
POINT
8
3
10
218.350098
20
4756.489990
0
POINT
8
3
10
215.260254
20
4758.500000
0
POINT
8
3
10
206.440430
20
4763.739990
0
POINT
8
3
10
190.100098
20
4772.629883
0
POINT
8
3
10
164.190430
20
4785.489990
0
POINT
8
3
10
136.470215
20
4798.379883
0
POINT
8
3
10
96.250000
20
4816.159912
0
POINT
8
3
10
59.589844
20
4831.569824
0
POINT
8
2
10
24.000000
20
4846.010010
0
POINT
8
2
10
596.500488
20
6749.000000
0
POINT
8
3
10
641.430664
20
6736.830078
0
POINT
8
3
10
660.420410
20
6732.300049
0
POINT
8
3
10
679.460449
20
6728.389893
0
POINT
8
3
10
698.450684
20
6725.060059
0
POINT
8
3
10
717.170410
20
6722.260010
0
POINT
8
3
10
735.350586
20
6719.969971
0
POINT
8
3
10
761.530762
20
6717.280029
0
POINT
8
3
10
792.770996
20
6715.080078
0
POINT
8
3
10
818.310547
20
6714.030029
0
POINT
8
3
10
838.160645
20
6713.770020
0
POINT
8
2
10
947.280762
20
6713.770020
0
POINT
8
2
10
961.720703
20
6684.899902
0
POINT
8
2
10
961.720703
20
6713.770020
0
POINT
8
2
10
1117.360840
20
6713.770020
0
POINT
8
2
10
1131.800781
20
6684.899902
0
POINT
8
2
10
1131.800781
20
6713.770020
0
POINT
8
3
10
1200.460449
20
6713.770020
0
ENDBLK
0
BLOCK
8
1
2
piece_PlacketTop_M
70
64
10
0.000000
20
0.000000
0
POLYLINE
8
14
66
1
70
1
250
2
0
VERTEX
8
14
10
2972.060059
20
4517.629639
0
VERTEX
8
14
10
2321.739746
20
4517.629883
0
VERTEX
8
14
10
2321.739746
20
4631.020020
0
VERTEX
8
14
10
2230.489746
20
4631.020020
0
VERTEX
8
14
10
2136.000000
20
4725.510010
0
VERTEX
8
14
10
2230.489746
20
4820.000000
0
VERTEX
8
14
10
2972.060059
20
4819.999756
0
VERTEX
8
14
10
2972.060059
20
4517.629639
0
SEQEND
0
POINT
8
3
10
2972.060059
20
4517.629639
0
POINT
8
2
10
2321.739746
20
4517.629883
0
POINT
8
2
10
2321.739746
20
4631.020020
0
POINT
8
3
10
2230.489746
20
4631.020020
0
POINT
8
2
10
2136.000000
20
4725.510010
0
POINT
8
3
10
2230.489746
20
4820.000000
0
POINT
8
2
10
2972.060059
20
4819.999756
0
POINT
8
3
10
2972.060059
20
4517.629639
0
LINE
8
7
10
2789.350098
20
4751.079590
11
2789.350098
21
4569.659668
0
POLYLINE
8
1
66
1
70
1
250
0
0
VERTEX
8
1
10
2972.060059
20
4517.629639
0
VERTEX
8
1
10
2321.739746
20
4517.629883
0
VERTEX
8
1
10
2321.739746
20
4631.020020
0
VERTEX
8
1
10
2230.489746
20
4631.020020
0
VERTEX
8
1
10
2136.000000
20
4725.510010
0
VERTEX
8
1
10
2230.489746
20
4820.000000
0
VERTEX
8
1
10
2972.060059
20
4819.999756
0
VERTEX
8
1
10
2972.060059
20
4517.629639
0
SEQEND
0
POINT
8
3
10
2972.060059
20
4517.629639
0
POINT
8
2
10
2321.739746
20
4517.629883
0
POINT
8
2
10
2321.739746
20
4631.020020
0
POINT
8
3
10
2230.489746
20
4631.020020
0
POINT
8
2
10
2136.000000
20
4725.510010
0
POINT
8
3
10
2230.489746
20
4820.000000
0
POINT
8
2
10
2972.060059
20
4819.999756
0
POINT
8
3
10
2972.060059
20
4517.629639
0
ENDBLK
0
BLOCK
8
1
2
piece_CollarTop_M
70
64
10
0.000000
20
0.000000
0
POLYLINE
8
14
66
1
70
1
250
2
0
VERTEX
8
14
10
2557.000000
20
5823.940063
0
VERTEX
8
14
10
2628.549805
20
5823.902100
0
VERTEX
8
14
10
2713.199707
20
5824.800110
0
VERTEX
8
14
10
2787.069824
20
5826.587097
0
VERTEX
8
14
10
2839.269531
20
5828.378052
0
VERTEX
8
14
10
2893.209961
20
5830.762024
0
VERTEX
8
14
10
2948.040039
20
5833.809021
0
VERTEX
8
14
10
3002.959961
20
5837.588013
0
VERTEX
8
14
10
3057.139648
20
5842.166992
0
VERTEX
8
14
10
3109.759766
20
5847.611023
0
VERTEX
8
14
10
3160.029785
20
5853.984009
0
VERTEX
8
14
10
3195.509766
20
5859.430054
0
VERTEX
8
14
10
3217.949707
20
5863.337036
0
VERTEX
8
14
10
3239.339844
20
5867.501038
0
VERTEX
8
14
10
3259.500000
20
5871.911011
0
VERTEX
8
14
10
3278.309570
20
5876.557007
0
VERTEX
8
14
10
3295.629883
20
5881.421997
0
VERTEX
8
14
10
3311.309570
20
5886.475037
0
VERTEX
8
14
10
3325.359863
20
5891.730042
0
VERTEX
8
14
10
3384.399902
20
5917.000000
0
VERTEX
8
14
10
3384.399902
20
5569.290283
0
VERTEX
8
14
10
3336.199707
20
5550.549561
0
VERTEX
8
14
10
3326.849609
20
5563.109619
0
VERTEX
8
14
10
3321.519531
20
5564.502197
0
VERTEX
8
14
10
3310.459961
20
5566.620728
0
VERTEX
8
14
10
3295.459961
20
5568.916260
0
VERTEX
8
14
10
3277.209961
20
5571.261475
0
VERTEX
8
14
10
3244.719727
20
5574.804688
0
VERTEX
8
14
10
3192.799805
20
5579.433838
0
VERTEX
8
14
10
3133.599609
20
5583.876953
0
VERTEX
8
14
10
3069.239746
20
5588.070068
0
VERTEX
8
14
10
3001.809570
20
5591.953125
0
VERTEX
8
14
10
2899.109863
20
5597.132812
0
VERTEX
8
14
10
2770.409668
20
5602.379639
0
VERTEX
8
14
10
2690.349609
20
5604.798828
0
VERTEX
8
14
10
2647.739746
20
5605.672119
0
VERTEX
8
14
10
2616.739746
20
5605.859863
0
VERTEX
8
14
10
2603.609863
20
5605.536987
0
VERTEX
8
14
10
2602.609863
20
5605.452881
0
VERTEX
8
14
10
2557.000000
20
5592.924561
0
VERTEX
8
14
10
2557.000000
20
5823.940063
0
SEQEND
0
POINT
8
3
10
2557.000000
20
5823.940063
0
POINT
8
3
10
2628.549805
20
5823.902100
0
POINT
8
3
10
2713.199707
20
5824.800110
0
POINT
8
3
10
2787.069824
20
5826.587097
0
POINT
8
3
10
2839.269531
20
5828.378052
0
POINT
8
3
10
2893.209961
20
5830.762024
0
POINT
8
3
10
2948.040039
20
5833.809021
0
POINT
8
3
10
3002.959961
20
5837.588013
0
POINT
8
3
10
3057.139648
20
5842.166992
0
POINT
8
3
10
3109.759766
20
5847.611023
0
POINT
8
3
10
3160.029785
20
5853.984009
0
POINT
8
3
10
3195.509766
20
5859.430054
0
POINT
8
3
10
3217.949707
20
5863.337036
0
POINT
8
3
10
3239.339844
20
5867.501038
0
POINT
8
3
10
3259.500000
20
5871.911011
0
POINT
8
3
10
3278.309570
20
5876.557007
0
POINT
8
3
10
3295.629883
20
5881.421997
0
POINT
8
3
10
3311.309570
20
5886.475037
0
POINT
8
3
10
3325.359863
20
5891.730042
0
POINT
8
2
10
3384.399902
20
5917.000000
0
POINT
8
2
10
3384.399902
20
5569.290283
0
POINT
8
2
10
3336.199707
20
5550.549561
0
POINT
8
3
10
3326.849609
20
5563.109619
0
POINT
8
3
10
3321.519531
20
5564.502197
0
POINT
8
3
10
3310.459961
20
5566.620728
0
POINT
8
3
10
3295.459961
20
5568.916260
0
POINT
8
3
10
3277.209961
20
5571.261475
0
POINT
8
3
10
3244.719727
20
5574.804688
0
POINT
8
3
10
3192.799805
20
5579.433838
0
POINT
8
3
10
3133.599609
20
5583.876953
0
POINT
8
3
10
3069.239746
20
5588.070068
0
POINT
8
3
10
3001.809570
20
5591.953125
0
POINT
8
3
10
2899.109863
20
5597.132812
0
POINT
8
3
10
2770.409668
20
5602.379639
0
POINT
8
3
10
2690.349609
20
5604.798828
0
POINT
8
3
10
2647.739746
20
5605.672119
0
POINT
8
3
10
2616.739746
20
5605.859863
0
POINT
8
3
10
2603.609863
20
5605.536987
0
POINT
8
3
10
2602.609863
20
5605.452881
0
POINT
8
2
10
2557.000000
20
5592.924561
0
POINT
8
3
10
2557.000000
20
5823.940063
0
LINE
8
7
10
3209.019531
20
5785.196045
11
3209.019531
21
5641.573975
0
POLYLINE
8
1
66
1
70
1
250
0
0
VERTEX
8
1
10
2557.000000
20
5823.940063
0
VERTEX
8
1
10
2628.549805
20
5823.902100
0
VERTEX
8
1
10
2713.199707
20
5824.800110
0
VERTEX
8
1
10
2787.069824
20
5826.587097
0
VERTEX
8
1
10
2839.269531
20
5828.378052
0
VERTEX
8
1
10
2893.209961
20
5830.762024
0
VERTEX
8
1
10
2948.040039
20
5833.809021
0
VERTEX
8
1
10
3002.959961
20
5837.588013
0
VERTEX
8
1
10
3057.139648
20
5842.166992
0
VERTEX
8
1
10
3109.759766
20
5847.611023
0
VERTEX
8
1
10
3160.029785
20
5853.984009
0
VERTEX
8
1
10
3195.509766
20
5859.430054
0
VERTEX
8
1
10
3217.949707
20
5863.337036
0
VERTEX
8
1
10
3239.339844
20
5867.501038
0
VERTEX
8
1
10
3259.500000
20
5871.911011
0
VERTEX
8
1
10
3278.309570
20
5876.557007
0
VERTEX
8
1
10
3295.629883
20
5881.421997
0
VERTEX
8
1
10
3311.309570
20
5886.475037
0
VERTEX
8
1
10
3325.359863
20
5891.730042
0
VERTEX
8
1
10
3384.399902
20
5917.000000
0
VERTEX
8
1
10
3384.399902
20
5569.290283
0
VERTEX
8
1
10
3336.199707
20
5550.549561
0
VERTEX
8
1
10
3326.849609
20
5563.109619
0
VERTEX
8
1
10
3321.519531
20
5564.502197
0
VERTEX
8
1
10
3310.459961
20
5566.620728
0
VERTEX
8
1
10
3295.459961
20
5568.916260
0
VERTEX
8
1
10
3277.209961
20
5571.261475
0
VERTEX
8
1
10
3244.719727
20
5574.804688
0
VERTEX
8
1
10
3192.799805
20
5579.433838
0
VERTEX
8
1
10
3133.599609
20
5583.876953
0
VERTEX
8
1
10
3069.239746
20
5588.070068
0
VERTEX
8
1
10
3001.809570
20
5591.953125
0
VERTEX
8
1
10
2899.109863
20
5597.132812
0
VERTEX
8
1
10
2770.409668
20
5602.379639
0
VERTEX
8
1
10
2690.349609
20
5604.798828
0
VERTEX
8
1
10
2647.739746
20
5605.672119
0
VERTEX
8
1
10
2616.739746
20
5605.859863
0
VERTEX
8
1
10
2603.609863
20
5605.536987
0
VERTEX
8
1
10
2602.609863
20
5605.452881
0
VERTEX
8
1
10
2557.000000
20
5592.924561
0
VERTEX
8
1
10
2557.000000
20
5823.940063
0
SEQEND
0
POINT
8
3
10
2557.000000
20
5823.940063
0
POINT
8
3
10
2628.549805
20
5823.902100
0
POINT
8
3
10
2713.199707
20
5824.800110
0
POINT
8
3
10
2787.069824
20
5826.587097
0
POINT
8
3
10
2839.269531
20
5828.378052
0
POINT
8
3
10
2893.209961
20
5830.762024
0
POINT
8
3
10
2948.040039
20
5833.809021
0
POINT
8
3
10
3002.959961
20
5837.588013
0
POINT
8
3
10
3057.139648
20
5842.166992
0
POINT
8
3
10
3109.759766
20
5847.611023
0
POINT
8
3
10
3160.029785
20
5853.984009
0
POINT
8
3
10
3195.509766
20
5859.430054
0
POINT
8
3
10
3217.949707
20
5863.337036
0
POINT
8
3
10
3239.339844
20
5867.501038
0
POINT
8
3
10
3259.500000
20
5871.911011
0
POINT
8
3
10
3278.309570
20
5876.557007
0
POINT
8
3
10
3295.629883
20
5881.421997
0
POINT
8
3
10
3311.309570
20
5886.475037
0
POINT
8
3
10
3325.359863
20
5891.730042
0
POINT
8
2
10
3384.399902
20
5917.000000
0
POINT
8
2
10
3384.399902
20
5569.290283
0
POINT
8
2
10
3336.199707
20
5550.549561
0
POINT
8
3
10
3326.849609
20
5563.109619
0
POINT
8
3
10
3321.519531
20
5564.502197
0
POINT
8
3
10
3310.459961
20
5566.620728
0
POINT
8
3
10
3295.459961
20
5568.916260
0
POINT
8
3
10
3277.209961
20
5571.261475
0
POINT
8
3
10
3244.719727
20
5574.804688
0
POINT
8
3
10
3192.799805
20
5579.433838
0
POINT
8
3
10
3133.599609
20
5583.876953
0
POINT
8
3
10
3069.239746
20
5588.070068
0
POINT
8
3
10
3001.809570
20
5591.953125
0
POINT
8
3
10
2899.109863
20
5597.132812
0
POINT
8
3
10
2770.409668
20
5602.379639
0
POINT
8
3
10
2690.349609
20
5604.798828
0
POINT
8
3
10
2647.739746
20
5605.672119
0
POINT
8
3
10
2616.739746
20
5605.859863
0
POINT
8
3
10
2603.609863
20
5605.536987
0
POINT
8
3
10
2602.609863
20
5605.452881
0
POINT
8
2
10
2557.000000
20
5592.924561
0
POINT
8
3
10
2557.000000
20
5823.940063
0
ENDBLK
0
BLOCK
8
1
2
piece_CollarTopInterface_M
70
64
10
0.000000
20
0.000000
0
POLYLINE
8
14
70
1
0
VERTEX
8
14
10
2887.799805
20
1619.000000
70
32
0
VERTEX
8
14
10
2887.799805
20
1316.637695
70
32
0
VERTEX
8
14
10
2887.229980
20
1317.261230
70
32
0
VERTEX
8
14
10
2885.259766
20
1318.509277
70
32
0
VERTEX
8
14
10
2880.609863
20
1320.382812
70
32
0
VERTEX
8
14
10
2871.060059
20
1322.878906
70
32
0
VERTEX
8
14
10
2858.080078
20
1325.365723
70
32
0
VERTEX
8
14
10
2841.929688
20
1327.837402
70
32
0
VERTEX
8
14
10
2822.870117
20
1330.286621
70
32
0
VERTEX
8
14
10
2789.649902
20
1333.909668
70
32
0
VERTEX
8
14
10
2737.089844
20
1338.595215
70
32
0
VERTEX
8
14
10
2677.439941
20
1343.072266
70
32
0
VERTEX
8
14
10
2612.750000
20
1347.286621
70
32
0
VERTEX
8
14
10
2545.049805
20
1351.185547
70
32
0
VERTEX
8
14
10
2442.030273
20
1356.381348
70
32
0
VERTEX
8
14
10
2312.950195
20
1361.643555
70
32
0
VERTEX
8
14
10
2232.509766
20
1364.074219
70
32
0
VERTEX
8
14
10
2189.439941
20
1364.957031
70
32
0
VERTEX
8
14
10
2157.589844
20
1365.149902
70
32
0
VERTEX
8
14
10
2142.759766
20
1364.785156
70
32
0
VERTEX
8
14
10
2137.160156
20
1364.314453
70
32
0
VERTEX
8
14
10
2136.000000
20
1363.994629
70
32
0
VERTEX
8
14
10
2136.000000
20
1545.412109
70
32
0
VERTEX
8
14
10
2163.609863
20
1545.369141
70
32
0
VERTEX
8
14
10
2218.320312
20
1545.800293
70
32
0
VERTEX
8
14
10
2272.299805
20
1546.846191
70
32
0
VERTEX
8
14
10
2325.490234
20
1548.502930
70
32
0
VERTEX
8
14
10
2377.790039
20
1550.767090
70
32
0
VERTEX
8
14
10
2429.120117
20
1553.632812
70
32
0
VERTEX
8
14
10
2479.389648
20
1557.097168
70
32
0
VERTEX
8
14
10
2528.520020
20
1561.155273
70
32
0
VERTEX
8
14
10
2576.419922
20
1565.800781
70
32
0
VERTEX
8
14
10
2623.009766
20
1571.032227
70
32
0
VERTEX
8
14
10
2668.200195
20
1576.842773
70
32
0
VERTEX
8
14
10
2711.899902
20
1583.229980
70
32
0
VERTEX
8
14
10
2754.030273
20
1590.187988
70
32
0
VERTEX
8
14
10
2794.509766
20
1597.712891
70
32
0
VERTEX
8
14
10
2833.240234
20
1605.800781
70
32
0
VERTEX
8
14
10
2870.149902
20
1614.445801
70
32
0
VERTEX
8
14
10
2887.799805
20
1619.000000
70
32
0
SEQEND
8
14
0
ENDBLK
0
ENDSEC
0
SECTION
2
ENTITIES
0
INSERT
8
1
2
piece_BackPanel_M
10
0.000000
20
0.000000
0
INSERT
8
1
2
piece_PocketRound_M
10
0.000000
20
0.000000
0
INSERT
8
1
2
piece_Cuff_M
10
0.000000
20
0.000000
0
INSERT
8
1
2
piece_PocketFlapRound_M
10
0.000000
20
0.000000
0
INSERT
8
1
2
piece_CollarBaseInterface_M
10
0.000000
20
0.000000
0
INSERT
8
1
2
piece_CollarBase_M
10
0.000000
20
0.000000
0
INSERT
8
1
2
piece_Pocket_M
10
0.000000
20
0.000000
0
INSERT
8
1
2
piece_FrontPanel_M
10
0.000000
20
0.000000
0
INSERT
8
1
2
piece_ShortSleeve_M
10
0.000000
20
0.000000
0
INSERT
8
1
2
piece_CuffInterface_M
10
0.000000
20
0.000000
0
INSERT
8
1
2
piece_PocketFlap_M
10
0.000000
20
0.000000
0
INSERT
8
1
2
piece_Yoke_M
10
0.000000
20
0.000000
0
INSERT
8
1
2
piece_PlacketUnder_M
10
0.000000
20
0.000000
0
INSERT
8
1
2
piece_FullSleeve_M
10
0.000000
20
0.000000
0
INSERT
8
1
2
piece_PlacketTop_M
10
0.000000
20
0.000000
0
INSERT
8
1
2
piece_CollarTop_M
10
0.000000
20
0.000000
0
INSERT
8
1
2
piece_CollarTopInterface_M
10
0.000000
20
0.000000
0
ENDSEC
0
EOF
