<?xml version="1.0" encoding="UTF-8" standalone="no"?>
<!DOCTYPE svg PUBLIC "-//W3C//DTD SVG 1.1//EN"
 "http://www.w3.org/Graphics/SVG/1.1/DTD/svg11.dtd">
<!-- Generated by graphviz version 2.43.0 (0)
 -->
<!-- Title: src/app/seamlylayout/qt_frontend/src/PreferencesController.cpp Pages: 1 -->
<svg width="625pt" height="214pt"
 viewBox="0.00 0.00 625.00 214.00" xmlns="http://www.w3.org/2000/svg" xmlns:xlink="http://www.w3.org/1999/xlink">
<g id="graph0" class="graph" transform="scale(1 1) rotate(0) translate(4 210)">
<title>src/app/seamlylayout/qt_frontend/src/PreferencesController.cpp</title>
<!-- Node1 -->
<g id="node1" class="node">
<title>Node1</title>
<g id="a_node1"><a xlink:title=" ">
<polygon fill="#999999" stroke="#666666" points="280.5,-206 126.5,-206 126.5,-165 280.5,-165 280.5,-206"/>
<text text-anchor="start" x="134.5" y="-194" font-family="Helvetica,sans-Serif" font-size="10.00">src/app/seamlylayout</text>
<text text-anchor="start" x="134.5" y="-183" font-family="Helvetica,sans-Serif" font-size="10.00">/qt_frontend/src/Preferences</text>
<text text-anchor="middle" x="203.5" y="-172" font-family="Helvetica,sans-Serif" font-size="10.00">Controller.cpp</text>
</a>
</g>
</g>
<!-- Node2 -->
<g id="node2" class="node">
<title>Node2</title>
<g id="a_node2"><a xlink:href="../../dc/d7f/PreferencesController_8h.html" target="_top" xlink:title=" ">
<polygon fill="white" stroke="#666666" points="131,-129 0,-129 0,-110 131,-110 131,-129"/>
<text text-anchor="middle" x="65.5" y="-117" font-family="Helvetica,sans-Serif" font-size="10.00">PreferencesController.h</text>
</a>
</g>
</g>
<!-- Node1&#45;&gt;Node2 -->
<g id="edge1" class="edge">
<title>Node1&#45;&gt;Node2</title>
<path fill="none" stroke="#63b8ff" d="M161.35,-164.95C139.24,-154.7 112.78,-142.43 93.27,-133.38"/>
<polygon fill="#63b8ff" stroke="#63b8ff" points="94.57,-130.12 84.03,-129.09 91.63,-136.47 94.57,-130.12"/>
</g>
<!-- Node4 -->
<g id="node4" class="node">
<title>Node4</title>
<g id="a_node4"><a xlink:href="../../d6/d40/PreferencesModel_8h.html" target="_top" xlink:title=" ">
<polygon fill="white" stroke="#666666" points="202,-74 89,-74 89,-55 202,-55 202,-74"/>
<text text-anchor="middle" x="145.5" y="-62" font-family="Helvetica,sans-Serif" font-size="10.00">PreferencesModel.h</text>
</a>
</g>
</g>
<!-- Node1&#45;&gt;Node4 -->
<g id="edge7" class="edge">
<title>Node1&#45;&gt;Node4</title>
<path fill="none" stroke="#63b8ff" d="M193.92,-164.85C182.87,-142.17 164.84,-105.19 154.18,-83.31"/>
<polygon fill="#63b8ff" stroke="#63b8ff" points="157.26,-81.63 149.73,-74.18 150.96,-84.7 157.26,-81.63"/>
</g>
<!-- Node7 -->
<g id="node7" class="node">
<title>Node7</title>
<g id="a_node7"><a xlink:href="../../de/d08/PreferencesWindow_8h.html" target="_top" xlink:title=" ">
<polygon fill="white" stroke="#666666" points="309.5,-129 187.5,-129 187.5,-110 309.5,-110 309.5,-129"/>
<text text-anchor="middle" x="248.5" y="-117" font-family="Helvetica,sans-Serif" font-size="10.00">PreferencesWindow.h</text>
</a>
</g>
</g>
<!-- Node1&#45;&gt;Node7 -->
<g id="edge8" class="edge">
<title>Node1&#45;&gt;Node7</title>
<path fill="none" stroke="#63b8ff" d="M217.25,-164.95C223.4,-156.2 230.58,-145.99 236.51,-137.56"/>
<polygon fill="#63b8ff" stroke="#63b8ff" points="239.45,-139.45 242.34,-129.26 233.73,-135.43 239.45,-139.45"/>
</g>
<!-- Node9 -->
<g id="node9" class="node">
<title>Node9</title>
<g id="a_node9"><a xlink:href="../../dd/da4/Logger_8h.html" target="_top" xlink:title=" ">
<polygon fill="white" stroke="#666666" points="416.5,-129 358.5,-129 358.5,-110 416.5,-110 416.5,-129"/>
<text text-anchor="middle" x="387.5" y="-117" font-family="Helvetica,sans-Serif" font-size="10.00">Logger.h</text>
</a>
</g>
</g>
<!-- Node1&#45;&gt;Node9 -->
<g id="edge10" class="edge">
<title>Node1&#45;&gt;Node9</title>
<path fill="none" stroke="#63b8ff" d="M259.71,-164.95C290.26,-154.32 327.05,-141.53 353.29,-132.4"/>
<polygon fill="#63b8ff" stroke="#63b8ff" points="354.5,-135.68 362.8,-129.09 352.2,-129.07 354.5,-135.68"/>
</g>
<!-- Node3 -->
<g id="node3" class="node">
<title>Node3</title>
<g id="a_node3"><a xlink:title=" ">
<polygon fill="#e0e0e0" stroke="#999999" points="98.5,-19 42.5,-19 42.5,0 98.5,0 98.5,-19"/>
<text text-anchor="middle" x="70.5" y="-7" font-family="Helvetica,sans-Serif" font-size="10.00">QObject</text>
</a>
</g>
</g>
<!-- Node2&#45;&gt;Node3 -->
<g id="edge2" class="edge">
<title>Node2&#45;&gt;Node3</title>
<path fill="none" stroke="#63b8ff" d="M65.91,-109.66C66.72,-92.17 68.54,-52.8 69.63,-29.27"/>
<polygon fill="#63b8ff" stroke="#63b8ff" points="73.13,-29.31 70.1,-19.16 66.14,-28.99 73.13,-29.31"/>
</g>
<!-- Node2&#45;&gt;Node4 -->
<g id="edge3" class="edge">
<title>Node2&#45;&gt;Node4</title>
<path fill="none" stroke="#63b8ff" d="M78.35,-109.98C90.64,-101.84 109.41,-89.41 123.98,-79.76"/>
<polygon fill="#63b8ff" stroke="#63b8ff" points="126.01,-82.61 132.41,-74.17 122.14,-76.78 126.01,-82.61"/>
</g>
<!-- Node4&#45;&gt;Node3 -->
<g id="edge4" class="edge">
<title>Node4&#45;&gt;Node3</title>
<path fill="none" stroke="#63b8ff" d="M133.45,-54.98C122.04,-46.92 104.67,-34.65 91.07,-25.03"/>
<polygon fill="#63b8ff" stroke="#63b8ff" points="92.96,-22.08 82.77,-19.17 88.92,-27.8 92.96,-22.08"/>
</g>
<!-- Node5 -->
<g id="node5" class="node">
<title>Node5</title>
<g id="a_node5"><a xlink:title=" ">
<polygon fill="#e0e0e0" stroke="#999999" points="283,-19 230,-19 230,0 283,0 283,-19"/>
<text text-anchor="middle" x="256.5" y="-7" font-family="Helvetica,sans-Serif" font-size="10.00">QString</text>
</a>
</g>
</g>
<!-- Node4&#45;&gt;Node5 -->
<g id="edge5" class="edge">
<title>Node4&#45;&gt;Node5</title>
<path fill="none" stroke="#63b8ff" d="M163.33,-54.98C181.11,-46.5 208.65,-33.35 229.18,-23.54"/>
<polygon fill="#63b8ff" stroke="#63b8ff" points="230.83,-26.64 238.34,-19.17 227.81,-20.32 230.83,-26.64"/>
</g>
<!-- Node6 -->
<g id="node6" class="node">
<title>Node6</title>
<g id="a_node6"><a xlink:title=" ">
<polygon fill="#e0e0e0" stroke="#999999" points="164.5,-19 126.5,-19 126.5,0 164.5,0 164.5,-19"/>
<text text-anchor="middle" x="145.5" y="-7" font-family="Helvetica,sans-Serif" font-size="10.00">QUrl</text>
</a>
</g>
</g>
<!-- Node4&#45;&gt;Node6 -->
<g id="edge6" class="edge">
<title>Node4&#45;&gt;Node6</title>
<path fill="none" stroke="#63b8ff" d="M145.5,-54.75C145.5,-47.8 145.5,-37.85 145.5,-29.13"/>
<polygon fill="#63b8ff" stroke="#63b8ff" points="149,-29.09 145.5,-19.09 142,-29.09 149,-29.09"/>
</g>
<!-- Node8 -->
<g id="node8" class="node">
<title>Node8</title>
<g id="a_node8"><a xlink:title=" ">
<polygon fill="#e0e0e0" stroke="#999999" points="276.5,-74 220.5,-74 220.5,-55 276.5,-55 276.5,-74"/>
<text text-anchor="middle" x="248.5" y="-62" font-family="Helvetica,sans-Serif" font-size="10.00">QDialog</text>
</a>
</g>
</g>
<!-- Node7&#45;&gt;Node8 -->
<g id="edge9" class="edge">
<title>Node7&#45;&gt;Node8</title>
<path fill="none" stroke="#63b8ff" d="M248.5,-109.75C248.5,-102.8 248.5,-92.85 248.5,-84.13"/>
<polygon fill="#63b8ff" stroke="#63b8ff" points="252,-84.09 248.5,-74.09 245,-84.09 252,-84.09"/>
</g>
<!-- Node9&#45;&gt;Node5 -->
<g id="edge11" class="edge">
<title>Node9&#45;&gt;Node5</title>
<path fill="none" stroke="#63b8ff" d="M374.09,-109.8C361.06,-101.18 340.91,-87.35 324.5,-74 305.82,-58.8 285.84,-39.77 272.41,-26.53"/>
<polygon fill="#63b8ff" stroke="#63b8ff" points="274.52,-23.69 264.96,-19.11 269.58,-28.65 274.52,-23.69"/>
</g>
<!-- Node10 -->
<g id="node10" class="node">
<title>Node10</title>
<g id="a_node10"><a xlink:title=" ">
<polygon fill="#e0e0e0" stroke="#999999" points="374,-74 333,-74 333,-55 374,-55 374,-74"/>
<text text-anchor="middle" x="353.5" y="-62" font-family="Helvetica,sans-Serif" font-size="10.00">QFile</text>
</a>
</g>
</g>
<!-- Node9&#45;&gt;Node10 -->
<g id="edge12" class="edge">
<title>Node9&#45;&gt;Node10</title>
<path fill="none" stroke="#63b8ff" d="M381.89,-109.75C377.18,-102.42 370.33,-91.73 364.53,-82.7"/>
<polygon fill="#63b8ff" stroke="#63b8ff" points="367.36,-80.62 359.01,-74.09 361.46,-84.4 367.36,-80.62"/>
</g>
<!-- Node11 -->
<g id="node11" class="node">
<title>Node11</title>
<g id="a_node11"><a xlink:title=" ">
<polygon fill="#e0e0e0" stroke="#999999" points="447,-74 392,-74 392,-55 447,-55 447,-74"/>
<text text-anchor="middle" x="419.5" y="-62" font-family="Helvetica,sans-Serif" font-size="10.00">QMutex</text>
</a>
</g>
</g>
<!-- Node9&#45;&gt;Node11 -->
<g id="edge13" class="edge">
<title>Node9&#45;&gt;Node11</title>
<path fill="none" stroke="#63b8ff" d="M392.78,-109.75C397.21,-102.42 403.66,-91.73 409.12,-82.7"/>
<polygon fill="#63b8ff" stroke="#63b8ff" points="412.14,-84.46 414.31,-74.09 406.15,-80.84 412.14,-84.46"/>
</g>
<!-- Node12 -->
<g id="node12" class="node">
<title>Node12</title>
<g id="a_node12"><a xlink:title=" ">
<polygon fill="#e0e0e0" stroke="#999999" points="545.5,-74 465.5,-74 465.5,-55 545.5,-55 545.5,-74"/>
<text text-anchor="middle" x="505.5" y="-62" font-family="Helvetica,sans-Serif" font-size="10.00">QTextStream</text>
</a>
</g>
</g>
<!-- Node9&#45;&gt;Node12 -->
<g id="edge14" class="edge">
<title>Node9&#45;&gt;Node12</title>
<path fill="none" stroke="#63b8ff" d="M406.46,-109.98C425.53,-101.42 455.16,-88.11 477.05,-78.28"/>
<polygon fill="#63b8ff" stroke="#63b8ff" points="478.51,-81.46 486.2,-74.17 475.64,-75.07 478.51,-81.46"/>
</g>
<!-- Node13 -->
<g id="node13" class="node">
<title>Node13</title>
<g id="a_node13"><a xlink:title=" ">
<polygon fill="#e0e0e0" stroke="#999999" points="617,-74 564,-74 564,-55 617,-55 617,-74"/>
<text text-anchor="middle" x="590.5" y="-62" font-family="Helvetica,sans-Serif" font-size="10.00">cstddef</text>
</a>
</g>
</g>
<!-- Node9&#45;&gt;Node13 -->
<g id="edge15" class="edge">
<title>Node9&#45;&gt;Node13</title>
<path fill="none" stroke="#63b8ff" d="M416.58,-110.91C452.79,-101.45 514.65,-85.3 554,-75.03"/>
<polygon fill="#63b8ff" stroke="#63b8ff" points="554.94,-78.4 563.73,-72.49 553.17,-71.63 554.94,-78.4"/>
</g>
</g>
</svg>
