<?xml version="1.0" encoding="UTF-8" standalone="no"?>
<!DOCTYPE svg PUBLIC "-//W3C//DTD SVG 1.1//EN"
 "http://www.w3.org/Graphics/SVG/1.1/DTD/svg11.dtd">
<!-- Generated by graphviz version 2.43.0 (0)
 -->
<!-- Title: MoveSPoint Pages: 1 -->
<svg width="172pt" height="617pt"
 viewBox="0.00 0.00 171.50 617.00" xmlns="http://www.w3.org/2000/svg" xmlns:xlink="http://www.w3.org/1999/xlink">
<g id="graph0" class="graph" transform="scale(1 1) rotate(0) translate(4 613)">
<title>MoveSPoint</title>
<!-- Node1 -->
<g id="Node000001" class="node">
<title>Node1</title>
<g id="a_Node000001"><a xlink:title=" ">
<polygon fill="#999999" stroke="transparent" points="119,-244 24,-244 24,0 119,0 119,-244"/>
<text text-anchor="start" x="43" y="-232" font-family="Helvetica,sans-Serif" font-size="10.00">MoveSPoint</text>
<text text-anchor="start" x="31" y="-217" font-family="Helvetica,sans-Serif" font-size="10.00">&#45;</text>
<text text-anchor="start" x="41.5" y="-217" font-family="Helvetica,sans-Serif" font-size="10.00">oldX</text>
<text text-anchor="start" x="31" y="-202" font-family="Helvetica,sans-Serif" font-size="10.00">&#45;</text>
<text text-anchor="start" x="41.5" y="-202" font-family="Helvetica,sans-Serif" font-size="10.00">oldY</text>
<text text-anchor="start" x="31" y="-187" font-family="Helvetica,sans-Serif" font-size="10.00">&#45;</text>
<text text-anchor="start" x="41.5" y="-187" font-family="Helvetica,sans-Serif" font-size="10.00">newX</text>
<text text-anchor="start" x="31" y="-172" font-family="Helvetica,sans-Serif" font-size="10.00">&#45;</text>
<text text-anchor="start" x="41.5" y="-172" font-family="Helvetica,sans-Serif" font-size="10.00">newY</text>
<text text-anchor="start" x="31" y="-157" font-family="Helvetica,sans-Serif" font-size="10.00">&#45;</text>
<text text-anchor="start" x="41.5" y="-157" font-family="Helvetica,sans-Serif" font-size="10.00">scene</text>
<text text-anchor="start" x="28.5" y="-142" font-family="Helvetica,sans-Serif" font-size="10.00">+</text>
<text text-anchor="start" x="41.5" y="-142" font-family="Helvetica,sans-Serif" font-size="10.00">MoveSPoint()</text>
<text text-anchor="start" x="28.5" y="-127" font-family="Helvetica,sans-Serif" font-size="10.00">+</text>
<text text-anchor="start" x="41.5" y="-127" font-family="Helvetica,sans-Serif" font-size="10.00">~MoveSPoint()</text>
<text text-anchor="start" x="28.5" y="-112" font-family="Helvetica,sans-Serif" font-size="10.00">+</text>
<text text-anchor="start" x="41.5" y="-112" font-family="Helvetica,sans-Serif" font-size="10.00">undo()</text>
<text text-anchor="start" x="28.5" y="-97" font-family="Helvetica,sans-Serif" font-size="10.00">+</text>
<text text-anchor="start" x="41.5" y="-97" font-family="Helvetica,sans-Serif" font-size="10.00">redo()</text>
<text text-anchor="start" x="28.5" y="-82" font-family="Helvetica,sans-Serif" font-size="10.00">+</text>
<text text-anchor="start" x="41.5" y="-82" font-family="Helvetica,sans-Serif" font-size="10.00">mergeWith()</text>
<text text-anchor="start" x="28.5" y="-67" font-family="Helvetica,sans-Serif" font-size="10.00">+</text>
<text text-anchor="start" x="41.5" y="-67" font-family="Helvetica,sans-Serif" font-size="10.00">id()</text>
<text text-anchor="start" x="28.5" y="-52" font-family="Helvetica,sans-Serif" font-size="10.00">+</text>
<text text-anchor="start" x="41.5" y="-52" font-family="Helvetica,sans-Serif" font-size="10.00">getSPointId()</text>
<text text-anchor="start" x="28.5" y="-37" font-family="Helvetica,sans-Serif" font-size="10.00">+</text>
<text text-anchor="start" x="41.5" y="-37" font-family="Helvetica,sans-Serif" font-size="10.00">getNewX()</text>
<text text-anchor="start" x="28.5" y="-22" font-family="Helvetica,sans-Serif" font-size="10.00">+</text>
<text text-anchor="start" x="41.5" y="-22" font-family="Helvetica,sans-Serif" font-size="10.00">getNewY()</text>
<text text-anchor="start" x="28.5" y="-7" font-family="Helvetica,sans-Serif" font-size="10.00">+</text>
<text text-anchor="start" x="41.5" y="-7" font-family="Helvetica,sans-Serif" font-size="10.00">Do()</text>
<polygon fill="#666666" stroke="#666666" points="24.5,-227 24.5,-227 119.5,-227 119.5,-227 24.5,-227"/>
<polygon fill="#666666" stroke="#666666" points="24.5,-152 24.5,-152 39.5,-152 39.5,-152 24.5,-152"/>
<polygon fill="#666666" stroke="#666666" points="39.5,-152 39.5,-152 119.5,-152 119.5,-152 39.5,-152"/>
<polygon fill="none" stroke="#666666" points="24,0 24,-244 119,-244 119,0 24,0"/>
</a>
</g>
</g>
<!-- Node2 -->
<g id="Node000002" class="node">
<title>Node2</title>
<g id="a_Node000002"><a xlink:href="../../de/d04/classVUndoCommand.html" target="_top" xlink:title=" ">
<polygon fill="white" stroke="transparent" points="143,-524 0,-524 0,-280 143,-280 143,-524"/>
<text text-anchor="start" x="30.5" y="-512" font-family="Helvetica,sans-Serif" font-size="10.00">VUndoCommand</text>
<text text-anchor="start" x="4.5" y="-497" font-family="Helvetica,sans-Serif" font-size="10.00">#</text>
<text text-anchor="start" x="17.5" y="-497" font-family="Helvetica,sans-Serif" font-size="10.00">xml</text>
<text text-anchor="start" x="4.5" y="-482" font-family="Helvetica,sans-Serif" font-size="10.00">#</text>
<text text-anchor="start" x="17.5" y="-482" font-family="Helvetica,sans-Serif" font-size="10.00">doc</text>
<text text-anchor="start" x="4.5" y="-467" font-family="Helvetica,sans-Serif" font-size="10.00">#</text>
<text text-anchor="start" x="17.5" y="-467" font-family="Helvetica,sans-Serif" font-size="10.00">nodeId</text>
<text text-anchor="start" x="4.5" y="-452" font-family="Helvetica,sans-Serif" font-size="10.00">#</text>
<text text-anchor="start" x="17.5" y="-452" font-family="Helvetica,sans-Serif" font-size="10.00">redoFlag</text>
<text text-anchor="start" x="4.5" y="-437" font-family="Helvetica,sans-Serif" font-size="10.00">+</text>
<text text-anchor="start" x="17.5" y="-437" font-family="Helvetica,sans-Serif" font-size="10.00">VUndoCommand()</text>
<text text-anchor="start" x="4.5" y="-422" font-family="Helvetica,sans-Serif" font-size="10.00">+</text>
<text text-anchor="start" x="17.5" y="-422" font-family="Helvetica,sans-Serif" font-size="10.00">~VUndoCommand()</text>
<text text-anchor="start" x="4.5" y="-407" font-family="Helvetica,sans-Serif" font-size="10.00">#</text>
<text text-anchor="start" x="17.5" y="-407" font-family="Helvetica,sans-Serif" font-size="10.00">RedoFullParsing()</text>
<text text-anchor="start" x="4.5" y="-392" font-family="Helvetica,sans-Serif" font-size="10.00">#</text>
<text text-anchor="start" x="17.5" y="-392" font-family="Helvetica,sans-Serif" font-size="10.00">UndoDeleteAfterSibling()</text>
<text text-anchor="start" x="4.5" y="-377" font-family="Helvetica,sans-Serif" font-size="10.00">#</text>
<text text-anchor="start" x="17.5" y="-377" font-family="Helvetica,sans-Serif" font-size="10.00">IncrementReferences()</text>
<text text-anchor="start" x="4.5" y="-362" font-family="Helvetica,sans-Serif" font-size="10.00">#</text>
<text text-anchor="start" x="17.5" y="-362" font-family="Helvetica,sans-Serif" font-size="10.00">DecrementReferences()</text>
<text text-anchor="start" x="4.5" y="-347" font-family="Helvetica,sans-Serif" font-size="10.00">#</text>
<text text-anchor="start" x="17.5" y="-347" font-family="Helvetica,sans-Serif" font-size="10.00">IncrementReferences()</text>
<text text-anchor="start" x="4.5" y="-332" font-family="Helvetica,sans-Serif" font-size="10.00">#</text>
<text text-anchor="start" x="17.5" y="-332" font-family="Helvetica,sans-Serif" font-size="10.00">DecrementReferences()</text>
<text text-anchor="start" x="4.5" y="-317" font-family="Helvetica,sans-Serif" font-size="10.00">#</text>
<text text-anchor="start" x="17.5" y="-317" font-family="Helvetica,sans-Serif" font-size="10.00">IncrementReferences()</text>
<text text-anchor="start" x="4.5" y="-302" font-family="Helvetica,sans-Serif" font-size="10.00">#</text>
<text text-anchor="start" x="17.5" y="-302" font-family="Helvetica,sans-Serif" font-size="10.00">DecrementReferences()</text>
<text text-anchor="start" x="4.5" y="-287" font-family="Helvetica,sans-Serif" font-size="10.00">#</text>
<text text-anchor="start" x="17.5" y="-287" font-family="Helvetica,sans-Serif" font-size="10.00">getDestinationObject()</text>
<polygon fill="#666666" stroke="#666666" points="0.5,-507 0.5,-507 143.5,-507 143.5,-507 0.5,-507"/>
<polygon fill="#666666" stroke="#666666" points="0.5,-447 0.5,-447 15.5,-447 15.5,-447 0.5,-447"/>
<polygon fill="#666666" stroke="#666666" points="15.5,-447 15.5,-447 143.5,-447 143.5,-447 15.5,-447"/>
<polygon fill="none" stroke="#666666" points="0,-280 0,-524 143,-524 143,-280 0,-280"/>
</a>
</g>
</g>
<!-- Node2&#45;&gt;Node1 -->
<g id="edge1_Node000001_Node000002" class="edge">
<title>Node2&#45;&gt;Node1</title>
<g id="a_edge1_Node000001_Node000002"><a xlink:title=" ">
<path fill="none" stroke="#63b8ff" d="M71.5,-269.84C71.5,-261.27 71.5,-252.66 71.5,-244.14"/>
<polygon fill="none" stroke="#63b8ff" points="68,-269.87 71.5,-279.87 75,-269.87 68,-269.87"/>
</a>
</g>
</g>
<!-- Node3 -->
<g id="Node000003" class="node">
<title>Node3</title>
<g id="a_Node000003"><a xlink:title=" ">
<polygon fill="white" stroke="transparent" points="51.5,-609 1.5,-609 1.5,-560 51.5,-560 51.5,-609"/>
<text text-anchor="start" x="6.5" y="-596.5" font-family="Helvetica,sans-Serif" font-size="10.00">QObject</text>
<text text-anchor="start" x="24.5" y="-581.5" font-family="Helvetica,sans-Serif" font-size="10.00"> </text>
<text text-anchor="start" x="24.5" y="-566.5" font-family="Helvetica,sans-Serif" font-size="10.00"> </text>
<polygon fill="#666666" stroke="#666666" points="1.5,-591.5 1.5,-591.5 51.5,-591.5 51.5,-591.5 1.5,-591.5"/>
<polygon fill="#666666" stroke="#666666" points="1.5,-576.5 1.5,-576.5 51.5,-576.5 51.5,-576.5 1.5,-576.5"/>
<polygon fill="none" stroke="#666666" points="1.5,-560 1.5,-609 51.5,-609 51.5,-560 1.5,-560"/>
</a>
</g>
</g>
<!-- Node3&#45;&gt;Node2 -->
<g id="edge2_Node000002_Node000003" class="edge">
<title>Node3&#45;&gt;Node2</title>
<g id="a_edge2_Node000002_Node000003"><a xlink:title=" ">
<path fill="none" stroke="#63b8ff" d="M34.81,-550.18C36.76,-542.33 38.96,-533.5 41.29,-524.18"/>
<polygon fill="none" stroke="#63b8ff" points="31.41,-549.35 32.38,-559.9 38.2,-551.05 31.41,-549.35"/>
</a>
</g>
</g>
<!-- Node4 -->
<g id="Node000004" class="node">
<title>Node4</title>
<g id="a_Node000004"><a xlink:title=" ">
<polygon fill="white" stroke="transparent" points="163.5,-609 69.5,-609 69.5,-560 163.5,-560 163.5,-609"/>
<text text-anchor="start" x="74.5" y="-596.5" font-family="Helvetica,sans-Serif" font-size="10.00">QUndoCommand</text>
<text text-anchor="start" x="114.5" y="-581.5" font-family="Helvetica,sans-Serif" font-size="10.00"> </text>
<text text-anchor="start" x="114.5" y="-566.5" font-family="Helvetica,sans-Serif" font-size="10.00"> </text>
<polygon fill="#666666" stroke="#666666" points="69.5,-591.5 69.5,-591.5 163.5,-591.5 163.5,-591.5 69.5,-591.5"/>
<polygon fill="#666666" stroke="#666666" points="69.5,-576.5 69.5,-576.5 163.5,-576.5 163.5,-576.5 69.5,-576.5"/>
<polygon fill="none" stroke="#666666" points="69.5,-560 69.5,-609 163.5,-609 163.5,-560 69.5,-560"/>
</a>
</g>
</g>
<!-- Node4&#45;&gt;Node2 -->
<g id="edge3_Node000002_Node000004" class="edge">
<title>Node4&#45;&gt;Node2</title>
<g id="a_edge3_Node000002_Node000004"><a xlink:title=" ">
<path fill="none" stroke="#63b8ff" d="M108.19,-550.18C106.24,-542.33 104.04,-533.5 101.71,-524.18"/>
<polygon fill="none" stroke="#63b8ff" points="104.8,-551.05 110.62,-559.9 111.59,-549.35 104.8,-551.05"/>
</a>
</g>
</g>
</g>
</svg>
