<?xml version="1.0" encoding="UTF-8" standalone="no"?>
<!DOCTYPE svg PUBLIC "-//W3C//DTD SVG 1.1//EN"
 "http://www.w3.org/Graphics/SVG/1.1/DTD/svg11.dtd">
<!-- Generated by graphviz version 2.43.0 (0)
 -->
<!-- Title: VPE::VObjectProperty Pages: 1 -->
<svg width="141pt" height="602pt"
 viewBox="0.00 0.00 141.00 602.00" xmlns="http://www.w3.org/2000/svg" xmlns:xlink="http://www.w3.org/1999/xlink">
<g id="graph0" class="graph" transform="scale(1 1) rotate(0) translate(4 598)">
<title>VPE::VObjectProperty</title>
<!-- Node1 -->
<g id="Node000001" class="node">
<title>Node1</title>
<g id="a_Node000001"><a xlink:title=" ">
<polygon fill="#999999" stroke="transparent" points="133,-244 0,-244 0,0 133,0 133,-244"/>
<text text-anchor="start" x="14.5" y="-232" font-family="Helvetica,sans-Serif" font-size="10.00">VPE::VObjectProperty</text>
<text text-anchor="start" x="4.5" y="-217" font-family="Helvetica,sans-Serif" font-size="10.00">#</text>
<text text-anchor="start" x="17.5" y="-217" font-family="Helvetica,sans-Serif" font-size="10.00">m_objects</text>
<text text-anchor="start" x="4.5" y="-202" font-family="Helvetica,sans-Serif" font-size="10.00">#</text>
<text text-anchor="start" x="17.5" y="-202" font-family="Helvetica,sans-Serif" font-size="10.00">m_indexList</text>
<text text-anchor="start" x="4.5" y="-187" font-family="Helvetica,sans-Serif" font-size="10.00">+</text>
<text text-anchor="start" x="17.5" y="-187" font-family="Helvetica,sans-Serif" font-size="10.00">VObjectProperty()</text>
<text text-anchor="start" x="4.5" y="-172" font-family="Helvetica,sans-Serif" font-size="10.00">+</text>
<text text-anchor="start" x="17.5" y="-172" font-family="Helvetica,sans-Serif" font-size="10.00">~VObjectProperty()</text>
<text text-anchor="start" x="4.5" y="-157" font-family="Helvetica,sans-Serif" font-size="10.00">+</text>
<text text-anchor="start" x="17.5" y="-157" font-family="Helvetica,sans-Serif" font-size="10.00">data()</text>
<text text-anchor="start" x="4.5" y="-142" font-family="Helvetica,sans-Serif" font-size="10.00">+</text>
<text text-anchor="start" x="17.5" y="-142" font-family="Helvetica,sans-Serif" font-size="10.00">createEditor()</text>
<text text-anchor="start" x="4.5" y="-127" font-family="Helvetica,sans-Serif" font-size="10.00">+</text>
<text text-anchor="start" x="17.5" y="-127" font-family="Helvetica,sans-Serif" font-size="10.00">getEditorData()</text>
<text text-anchor="start" x="4.5" y="-112" font-family="Helvetica,sans-Serif" font-size="10.00">+</text>
<text text-anchor="start" x="17.5" y="-112" font-family="Helvetica,sans-Serif" font-size="10.00">setObjectsList()</text>
<text text-anchor="start" x="4.5" y="-97" font-family="Helvetica,sans-Serif" font-size="10.00">+</text>
<text text-anchor="start" x="17.5" y="-97" font-family="Helvetica,sans-Serif" font-size="10.00">getObjects()</text>
<text text-anchor="start" x="4.5" y="-82" font-family="Helvetica,sans-Serif" font-size="10.00">+</text>
<text text-anchor="start" x="17.5" y="-82" font-family="Helvetica,sans-Serif" font-size="10.00">setValue()</text>
<text text-anchor="start" x="4.5" y="-67" font-family="Helvetica,sans-Serif" font-size="10.00">+</text>
<text text-anchor="start" x="17.5" y="-67" font-family="Helvetica,sans-Serif" font-size="10.00">type()</text>
<text text-anchor="start" x="4.5" y="-52" font-family="Helvetica,sans-Serif" font-size="10.00">+</text>
<text text-anchor="start" x="17.5" y="-52" font-family="Helvetica,sans-Serif" font-size="10.00">clone()</text>
<text text-anchor="start" x="4.5" y="-37" font-family="Helvetica,sans-Serif" font-size="10.00">+</text>
<text text-anchor="start" x="17.5" y="-37" font-family="Helvetica,sans-Serif" font-size="10.00">indexOfObject()</text>
<text text-anchor="start" x="4.5" y="-22" font-family="Helvetica,sans-Serif" font-size="10.00">+</text>
<text text-anchor="start" x="17.5" y="-22" font-family="Helvetica,sans-Serif" font-size="10.00">currentIndexChanged()</text>
<text text-anchor="start" x="4.5" y="-7" font-family="Helvetica,sans-Serif" font-size="10.00">#</text>
<text text-anchor="start" x="17.5" y="-7" font-family="Helvetica,sans-Serif" font-size="10.00">fillListItems()</text>
<polygon fill="#666666" stroke="#666666" points="0.5,-227 0.5,-227 133.5,-227 133.5,-227 0.5,-227"/>
<polygon fill="#666666" stroke="#666666" points="0.5,-197 0.5,-197 15.5,-197 15.5,-197 0.5,-197"/>
<polygon fill="#666666" stroke="#666666" points="15.5,-197 15.5,-197 133.5,-197 133.5,-197 15.5,-197"/>
<polygon fill="none" stroke="#666666" points="0,0 0,-244 133,-244 133,0 0,0"/>
</a>
</g>
</g>
<!-- Node2 -->
<g id="Node000002" class="node">
<title>Node2</title>
<g id="a_Node000002"><a xlink:href="../../db/df9/classVPE_1_1VProperty.html" target="_top" xlink:title=" ">
<polygon fill="white" stroke="transparent" points="127.5,-509 5.5,-509 5.5,-280 127.5,-280 127.5,-509"/>
<text text-anchor="start" x="30" y="-496.5" font-family="Helvetica,sans-Serif" font-size="10.00">VPE::VProperty</text>
<text text-anchor="start" x="9.5" y="-481.5" font-family="Helvetica,sans-Serif" font-size="10.00">#</text>
<text text-anchor="start" x="22.5" y="-481.5" font-family="Helvetica,sans-Serif" font-size="10.00">d_ptr</text>
<text text-anchor="start" x="9.5" y="-466.5" font-family="Helvetica,sans-Serif" font-size="10.00">+</text>
<text text-anchor="start" x="22.5" y="-466.5" font-family="Helvetica,sans-Serif" font-size="10.00">VProperty()</text>
<text text-anchor="start" x="9.5" y="-451.5" font-family="Helvetica,sans-Serif" font-size="10.00">+</text>
<text text-anchor="start" x="22.5" y="-451.5" font-family="Helvetica,sans-Serif" font-size="10.00">~VProperty()</text>
<text text-anchor="start" x="9.5" y="-436.5" font-family="Helvetica,sans-Serif" font-size="10.00">+</text>
<text text-anchor="start" x="22.5" y="-436.5" font-family="Helvetica,sans-Serif" font-size="10.00">type()</text>
<text text-anchor="start" x="9.5" y="-421.5" font-family="Helvetica,sans-Serif" font-size="10.00">+</text>
<text text-anchor="start" x="22.5" y="-421.5" font-family="Helvetica,sans-Serif" font-size="10.00">data()</text>
<text text-anchor="start" x="9.5" y="-406.5" font-family="Helvetica,sans-Serif" font-size="10.00">+</text>
<text text-anchor="start" x="22.5" y="-406.5" font-family="Helvetica,sans-Serif" font-size="10.00">setData()</text>
<text text-anchor="start" x="9.5" y="-391.5" font-family="Helvetica,sans-Serif" font-size="10.00">+</text>
<text text-anchor="start" x="22.5" y="-391.5" font-family="Helvetica,sans-Serif" font-size="10.00">paint()</text>
<text text-anchor="start" x="9.5" y="-376.5" font-family="Helvetica,sans-Serif" font-size="10.00">+</text>
<text text-anchor="start" x="22.5" y="-376.5" font-family="Helvetica,sans-Serif" font-size="10.00">createEditor()</text>
<text text-anchor="start" x="9.5" y="-361.5" font-family="Helvetica,sans-Serif" font-size="10.00">+</text>
<text text-anchor="start" x="22.5" y="-361.5" font-family="Helvetica,sans-Serif" font-size="10.00">setEditorData()</text>
<text text-anchor="start" x="9.5" y="-346.5" font-family="Helvetica,sans-Serif" font-size="10.00">+</text>
<text text-anchor="start" x="22.5" y="-346.5" font-family="Helvetica,sans-Serif" font-size="10.00">getEditorData()</text>
<text text-anchor="start" x="9.5" y="-331.5" font-family="Helvetica,sans-Serif" font-size="10.00">+</text>
<text text-anchor="start" x="22.5" y="-331.5" font-family="Helvetica,sans-Serif" font-size="10.00">flags()</text>
<text text-anchor="start" x="22.5" y="-316.5" font-family="Helvetica,sans-Serif" font-size="10.00">and 29 more...</text>
<text text-anchor="start" x="9.5" y="-301.5" font-family="Helvetica,sans-Serif" font-size="10.00">+</text>
<text text-anchor="start" x="22.5" y="-301.5" font-family="Helvetica,sans-Serif" font-size="10.00">childValueChanged()</text>
<text text-anchor="start" x="9.5" y="-286.5" font-family="Helvetica,sans-Serif" font-size="10.00">#</text>
<text text-anchor="start" x="22.5" y="-286.5" font-family="Helvetica,sans-Serif" font-size="10.00">VProperty()</text>
<polygon fill="#666666" stroke="#666666" points="5.5,-491.5 5.5,-491.5 127.5,-491.5 127.5,-491.5 5.5,-491.5"/>
<polygon fill="#666666" stroke="#666666" points="5.5,-476.5 5.5,-476.5 20.5,-476.5 20.5,-476.5 5.5,-476.5"/>
<polygon fill="#666666" stroke="#666666" points="20.5,-476.5 20.5,-476.5 127.5,-476.5 127.5,-476.5 20.5,-476.5"/>
<polygon fill="none" stroke="#666666" points="5.5,-280 5.5,-509 127.5,-509 127.5,-280 5.5,-280"/>
</a>
</g>
</g>
<!-- Node2&#45;&gt;Node1 -->
<g id="edge1_Node000001_Node000002" class="edge">
<title>Node2&#45;&gt;Node1</title>
<g id="a_edge1_Node000001_Node000002"><a xlink:title=" ">
<path fill="none" stroke="#63b8ff" d="M66.5,-269.91C66.5,-261.32 66.5,-252.66 66.5,-244.08"/>
<polygon fill="none" stroke="#63b8ff" points="63,-269.96 66.5,-279.96 70,-269.96 63,-269.96"/>
</a>
</g>
</g>
<!-- Node3 -->
<g id="Node000003" class="node">
<title>Node3</title>
<g id="a_Node000003"><a xlink:title=" ">
<polygon fill="white" stroke="transparent" points="91.5,-594 41.5,-594 41.5,-545 91.5,-545 91.5,-594"/>
<text text-anchor="start" x="46.5" y="-581.5" font-family="Helvetica,sans-Serif" font-size="10.00">QObject</text>
<text text-anchor="start" x="64.5" y="-566.5" font-family="Helvetica,sans-Serif" font-size="10.00"> </text>
<text text-anchor="start" x="64.5" y="-551.5" font-family="Helvetica,sans-Serif" font-size="10.00"> </text>
<polygon fill="#666666" stroke="#666666" points="41.5,-576.5 41.5,-576.5 91.5,-576.5 91.5,-576.5 41.5,-576.5"/>
<polygon fill="#666666" stroke="#666666" points="41.5,-561.5 41.5,-561.5 91.5,-561.5 91.5,-561.5 41.5,-561.5"/>
<polygon fill="none" stroke="#666666" points="41.5,-545 41.5,-594 91.5,-594 91.5,-545 41.5,-545"/>
</a>
</g>
</g>
<!-- Node3&#45;&gt;Node2 -->
<g id="edge2_Node000002_Node000003" class="edge">
<title>Node3&#45;&gt;Node2</title>
<g id="a_edge2_Node000002_Node000003"><a xlink:title=" ">
<path fill="none" stroke="#63b8ff" d="M66.5,-534.77C66.5,-526.96 66.5,-518.21 66.5,-509.01"/>
<polygon fill="none" stroke="#63b8ff" points="63,-534.81 66.5,-544.81 70,-534.81 63,-534.81"/>
</a>
</g>
</g>
</g>
</svg>
