<?xml version="1.0" encoding="UTF-8" standalone="no"?>
<!DOCTYPE svg PUBLIC "-//W3C//DTD SVG 1.1//EN"
 "http://www.w3.org/Graphics/SVG/1.1/DTD/svg11.dtd">
<!-- Generated by graphviz version 2.43.0 (0)
 -->
<!-- Title: src/libs/vwidgets/global.h Pages: 1 -->
<svg width="2287pt" height="95pt"
 viewBox="0.00 0.00 2287.00 95.00" xmlns="http://www.w3.org/2000/svg" xmlns:xlink="http://www.w3.org/1999/xlink">
<g id="graph0" class="graph" transform="scale(1 1) rotate(0) translate(4 91)">
<title>src/libs/vwidgets/global.h</title>
<polygon fill="white" stroke="transparent" points="-4,4 -4,-91 2283,-91 2283,4 -4,4"/>
<!-- Node1 -->
<g id="node1" class="node">
<title>Node1</title>
<g id="a_node1"><a xlink:title=" ">
<polygon fill="#bfbfbf" stroke="black" points="990.5,-67.5 990.5,-86.5 1130.5,-86.5 1130.5,-67.5 990.5,-67.5"/>
<text text-anchor="middle" x="1060.5" y="-74.5" font-family="Helvetica,sans-Serif" font-size="10.00">src/libs/vwidgets/global.h</text>
</a>
</g>
</g>
<!-- Node2 -->
<g id="node2" class="node">
<title>Node2</title>
<g id="a_node2"><a xlink:href="../../dd/d70/vlayoutpiece_8cpp.html" target="_top" xlink:title=" ">
<polygon fill="white" stroke="black" points="0,-6 0,-25 177,-25 177,-6 0,-6"/>
<text text-anchor="middle" x="88.5" y="-13" font-family="Helvetica,sans-Serif" font-size="10.00">src/libs/vlayout/vlayoutpiece.cpp</text>
</a>
</g>
</g>
<!-- Node1&#45;&gt;Node2 -->
<g id="edge1" class="edge">
<title>Node1&#45;&gt;Node2</title>
<path fill="none" stroke="midnightblue" d="M980.05,-74.42C825.79,-70.83 477.84,-59.99 186.5,-31 171.27,-29.48 154.78,-27.27 139.76,-25.03"/>
<polygon fill="midnightblue" stroke="midnightblue" points="980.29,-77.93 990.37,-74.66 980.46,-70.93 980.29,-77.93"/>
</g>
<!-- Node3 -->
<g id="node3" class="node">
<title>Node3</title>
<g id="a_node3"><a xlink:href="../../db/d7d/global_8cpp.html" target="_top" xlink:title=" ">
<polygon fill="white" stroke="black" points="195.5,-6 195.5,-25 347.5,-25 347.5,-6 195.5,-6"/>
<text text-anchor="middle" x="271.5" y="-13" font-family="Helvetica,sans-Serif" font-size="10.00">src/libs/vwidgets/global.cpp</text>
</a>
</g>
</g>
<!-- Node1&#45;&gt;Node3 -->
<g id="edge2" class="edge">
<title>Node1&#45;&gt;Node3</title>
<path fill="none" stroke="midnightblue" d="M979.99,-73.61C848.95,-69.09 581.53,-57.31 356.5,-31 343.42,-29.47 329.28,-27.28 316.37,-25.06"/>
<polygon fill="midnightblue" stroke="midnightblue" points="980.22,-77.12 990.33,-73.96 980.46,-70.12 980.22,-77.12"/>
</g>
<!-- Node4 -->
<g id="node4" class="node">
<title>Node4</title>
<g id="a_node4"><a xlink:href="../../d4/d50/scalesceneitems_8cpp.html" target="_top" xlink:title=" ">
<polygon fill="white" stroke="black" points="366,-6 366,-25 569,-25 569,-6 366,-6"/>
<text text-anchor="middle" x="467.5" y="-13" font-family="Helvetica,sans-Serif" font-size="10.00">src/libs/vwidgets/scalesceneitems.cpp</text>
</a>
</g>
</g>
<!-- Node1&#45;&gt;Node4 -->
<g id="edge3" class="edge">
<title>Node1&#45;&gt;Node4</title>
<path fill="none" stroke="midnightblue" d="M980.22,-69.46C884.3,-61.44 719.01,-46.91 577.5,-31 561.71,-29.22 544.67,-27.09 528.83,-25.01"/>
<polygon fill="midnightblue" stroke="midnightblue" points="980.17,-72.97 990.43,-70.32 980.75,-66 980.17,-72.97"/>
</g>
<!-- Node5 -->
<g id="node5" class="node">
<title>Node5</title>
<g id="a_node5"><a xlink:href="../../df/dcf/vcurvepathitem_8cpp.html" target="_top" xlink:title=" ">
<polygon fill="white" stroke="black" points="587,-6 587,-25 786,-25 786,-6 587,-6"/>
<text text-anchor="middle" x="686.5" y="-13" font-family="Helvetica,sans-Serif" font-size="10.00">src/libs/vwidgets/vcurvepathitem.cpp</text>
</a>
</g>
</g>
<!-- Node1&#45;&gt;Node5 -->
<g id="edge4" class="edge">
<title>Node1&#45;&gt;Node5</title>
<path fill="none" stroke="midnightblue" d="M997.02,-65.9C924.71,-54.4 807.84,-35.8 739.99,-25.01"/>
<polygon fill="midnightblue" stroke="midnightblue" points="996.49,-69.36 1006.91,-67.48 997.59,-62.45 996.49,-69.36"/>
</g>
<!-- Node6 -->
<g id="node6" class="node">
<title>Node6</title>
<g id="a_node6"><a xlink:href="../../d8/d76/scene__rect_8cpp.html" target="_top" xlink:title=" ">
<polygon fill="white" stroke="black" points="804.5,-0.5 804.5,-30.5 934.5,-30.5 934.5,-0.5 804.5,-0.5"/>
<text text-anchor="start" x="812.5" y="-18.5" font-family="Helvetica,sans-Serif" font-size="10.00">src/libs/vwidgets/scene</text>
<text text-anchor="middle" x="869.5" y="-7.5" font-family="Helvetica,sans-Serif" font-size="10.00">_rect.cpp</text>
</a>
</g>
</g>
<!-- Node1&#45;&gt;Node6 -->
<g id="edge5" class="edge">
<title>Node1&#45;&gt;Node6</title>
<path fill="none" stroke="midnightblue" d="M1023.53,-64.48C992.39,-54.78 947.73,-40.87 914.51,-30.52"/>
<polygon fill="midnightblue" stroke="midnightblue" points="1022.55,-67.84 1033.13,-67.48 1024.63,-61.16 1022.55,-67.84"/>
</g>
<!-- Node7 -->
<g id="node7" class="node">
<title>Node7</title>
<g id="a_node7"><a xlink:href="../../de/d45/vcontrolpointspline_8cpp.html" target="_top" xlink:title=" ">
<polygon fill="white" stroke="black" points="953,-6 953,-25 1168,-25 1168,-6 953,-6"/>
<text text-anchor="middle" x="1060.5" y="-13" font-family="Helvetica,sans-Serif" font-size="10.00">src/libs/vwidgets/vcontrolpointspline.cpp</text>
</a>
</g>
</g>
<!-- Node1&#45;&gt;Node7 -->
<g id="edge6" class="edge">
<title>Node1&#45;&gt;Node7</title>
<path fill="none" stroke="midnightblue" d="M1060.5,-57.32C1060.5,-46.5 1060.5,-33.4 1060.5,-25.01"/>
<polygon fill="midnightblue" stroke="midnightblue" points="1057,-57.48 1060.5,-67.48 1064,-57.48 1057,-57.48"/>
</g>
<!-- Node8 -->
<g id="node8" class="node">
<title>Node8</title>
<g id="a_node8"><a xlink:href="../../de/dec/vgraphicssimpletextitem_8cpp.html" target="_top" xlink:title=" ">
<polygon fill="white" stroke="black" points="1186.5,-6 1186.5,-25 1430.5,-25 1430.5,-6 1186.5,-6"/>
<text text-anchor="middle" x="1308.5" y="-13" font-family="Helvetica,sans-Serif" font-size="10.00">src/libs/vwidgets/vgraphicssimpletextitem.cpp</text>
</a>
</g>
</g>
<!-- Node1&#45;&gt;Node8 -->
<g id="edge7" class="edge">
<title>Node1&#45;&gt;Node8</title>
<path fill="none" stroke="midnightblue" d="M1105.87,-65.11C1154.01,-53.57 1229.05,-35.56 1273.03,-25.01"/>
<polygon fill="midnightblue" stroke="midnightblue" points="1104.94,-61.74 1096.03,-67.48 1106.57,-68.55 1104.94,-61.74"/>
</g>
<!-- Node9 -->
<g id="node9" class="node">
<title>Node9</title>
<g id="a_node9"><a xlink:href="../../d1/d88/vmaingraphicsscene_8cpp.html" target="_top" xlink:title=" ">
<polygon fill="white" stroke="black" points="1448.5,-6 1448.5,-25 1670.5,-25 1670.5,-6 1448.5,-6"/>
<text text-anchor="middle" x="1559.5" y="-13" font-family="Helvetica,sans-Serif" font-size="10.00">src/libs/vwidgets/vmaingraphicsscene.cpp</text>
</a>
</g>
</g>
<!-- Node1&#45;&gt;Node9 -->
<g id="edge8" class="edge">
<title>Node1&#45;&gt;Node9</title>
<path fill="none" stroke="midnightblue" d="M1140.78,-66.52C1217.5,-57.44 1336.4,-43.35 1439.5,-31 1455.54,-29.08 1472.79,-27 1489.07,-25.04"/>
<polygon fill="midnightblue" stroke="midnightblue" points="1140.23,-63.06 1130.71,-67.71 1141.05,-70.01 1140.23,-63.06"/>
</g>
<!-- Node10 -->
<g id="node10" class="node">
<title>Node10</title>
<g id="a_node10"><a xlink:href="../../de/d22/vsimplecurve_8cpp.html" target="_top" xlink:title=" ">
<polygon fill="white" stroke="black" points="1688.5,-6 1688.5,-25 1876.5,-25 1876.5,-6 1688.5,-6"/>
<text text-anchor="middle" x="1782.5" y="-13" font-family="Helvetica,sans-Serif" font-size="10.00">src/libs/vwidgets/vsimplecurve.cpp</text>
</a>
</g>
</g>
<!-- Node1&#45;&gt;Node10 -->
<g id="edge9" class="edge">
<title>Node1&#45;&gt;Node10</title>
<path fill="none" stroke="midnightblue" d="M1140.78,-71.89C1258.96,-65.46 1486.64,-51.56 1679.5,-31 1694.94,-29.35 1711.63,-27.18 1726.99,-25.01"/>
<polygon fill="midnightblue" stroke="midnightblue" points="1140.52,-68.4 1130.72,-72.44 1140.9,-75.39 1140.52,-68.4"/>
</g>
<!-- Node11 -->
<g id="node11" class="node">
<title>Node11</title>
<g id="a_node11"><a xlink:href="../../df/d38/vsimplepoint_8cpp.html" target="_top" xlink:title=" ">
<polygon fill="white" stroke="black" points="1895,-6 1895,-25 2080,-25 2080,-6 1895,-6"/>
<text text-anchor="middle" x="1987.5" y="-13" font-family="Helvetica,sans-Serif" font-size="10.00">src/libs/vwidgets/vsimplepoint.cpp</text>
</a>
</g>
</g>
<!-- Node1&#45;&gt;Node11 -->
<g id="edge10" class="edge">
<title>Node1&#45;&gt;Node11</title>
<path fill="none" stroke="midnightblue" d="M1141.07,-73.92C1288.91,-69.6 1613.3,-57.72 1885.5,-31 1901.25,-29.45 1918.31,-27.24 1933.87,-25.01"/>
<polygon fill="midnightblue" stroke="midnightblue" points="1140.63,-70.44 1130.74,-74.22 1140.83,-77.43 1140.63,-70.44"/>
</g>
<!-- Node12 -->
<g id="node12" class="node">
<title>Node12</title>
<g id="a_node12"><a xlink:href="../../d0/d5d/vscenepoint_8cpp.html" target="_top" xlink:title=" ">
<polygon fill="white" stroke="black" points="2098,-6 2098,-25 2279,-25 2279,-6 2098,-6"/>
<text text-anchor="middle" x="2188.5" y="-13" font-family="Helvetica,sans-Serif" font-size="10.00">src/libs/vwidgets/vscenepoint.cpp</text>
</a>
</g>
</g>
<!-- Node1&#45;&gt;Node12 -->
<g id="edge11" class="edge">
<title>Node1&#45;&gt;Node12</title>
<path fill="none" stroke="midnightblue" d="M1140.6,-75.27C1314,-73.07 1736.93,-64.44 2089.5,-31 2105.06,-29.52 2121.92,-27.29 2137.24,-25.02"/>
<polygon fill="midnightblue" stroke="midnightblue" points="1140.5,-71.77 1130.54,-75.39 1140.58,-78.77 1140.5,-71.77"/>
</g>
</g>
</svg>
