<?xml version="1.0" encoding="UTF-8" standalone="no"?>
<!DOCTYPE svg PUBLIC "-//W3C//DTD SVG 1.1//EN"
 "http://www.w3.org/Graphics/SVG/1.1/DTD/svg11.dtd">
<!-- Generated by graphviz version 2.43.0 (0)
 -->
<!-- Title: src/libs/tools/images/image_dialog.h Pages: 1 -->
<svg width="1010pt" height="104pt"
 viewBox="0.00 0.00 1009.50 104.00" xmlns="http://www.w3.org/2000/svg" xmlns:xlink="http://www.w3.org/1999/xlink">
<g id="graph0" class="graph" transform="scale(1 1) rotate(0) translate(4 100)">
<title>src/libs/tools/images/image_dialog.h</title>
<!-- Node1 -->
<g id="Node000001" class="node">
<title>Node1</title>
<g id="a_Node000001"><a xlink:title=" ">
<polygon fill="#999999" stroke="#666666" points="684.5,-96 567.5,-96 567.5,-66 684.5,-66 684.5,-96"/>
<text text-anchor="start" x="575.5" y="-84" font-family="Helvetica,sans-Serif" font-size="10.00">src/libs/tools/images</text>
<text text-anchor="middle" x="626" y="-73" font-family="Helvetica,sans-Serif" font-size="10.00">/image_dialog.h</text>
</a>
</g>
</g>
<!-- Node2 -->
<g id="Node000002" class="node">
<title>Node2</title>
<g id="a_Node000002"><a xlink:title=" ">
<polygon fill="#e0e0e0" stroke="#999999" points="82,-24.5 0,-24.5 0,-5.5 82,-5.5 82,-24.5"/>
<text text-anchor="middle" x="41" y="-12.5" font-family="Helvetica,sans-Serif" font-size="10.00">../vmisc/def.h</text>
</a>
</g>
</g>
<!-- Node1&#45;&gt;Node2 -->
<g id="edge1_Node000001_Node000002" class="edge">
<title>Node1&#45;&gt;Node2</title>
<g id="a_edge1_Node000001_Node000002"><a xlink:title=" ">
<path fill="none" stroke="#63b8ff" d="M567.34,-77.97C468.38,-73.77 262.3,-61.72 91,-30 86.76,-29.22 82.36,-28.24 78.01,-27.16"/>
<polygon fill="#63b8ff" stroke="#63b8ff" points="78.6,-23.7 68.04,-24.53 76.81,-30.46 78.6,-23.7"/>
</a>
</g>
</g>
<!-- Node3 -->
<g id="Node000003" class="node">
<title>Node3</title>
<g id="a_Node000003"><a xlink:title=" ">
<polygon fill="#e0e0e0" stroke="#999999" points="221.5,-30 100.5,-30 100.5,0 221.5,0 221.5,-30"/>
<text text-anchor="start" x="108.5" y="-18" font-family="Helvetica,sans-Serif" font-size="10.00">../vtools/dialogs/tools</text>
<text text-anchor="middle" x="161" y="-7" font-family="Helvetica,sans-Serif" font-size="10.00">/dialogtool.h</text>
</a>
</g>
</g>
<!-- Node1&#45;&gt;Node3 -->
<g id="edge2_Node000001_Node000003" class="edge">
<title>Node1&#45;&gt;Node3</title>
<g id="a_edge2_Node000001_Node000003"><a xlink:title=" ">
<path fill="none" stroke="#63b8ff" d="M567.25,-73.89C491.97,-65.77 357.22,-50.23 231.82,-30.06"/>
<polygon fill="#63b8ff" stroke="#63b8ff" points="232.09,-26.55 221.66,-28.41 230.97,-33.46 232.09,-26.55"/>
</a>
</g>
</g>
<!-- Node4 -->
<g id="Node000004" class="node">
<title>Node4</title>
<g id="a_Node000004"><a xlink:title=" ">
<polygon fill="#e0e0e0" stroke="#999999" points="410,-30 240,-30 240,0 410,0 410,-30"/>
<text text-anchor="start" x="248" y="-18" font-family="Helvetica,sans-Serif" font-size="10.00">../vtools/tools/drawTools</text>
<text text-anchor="middle" x="325" y="-7" font-family="Helvetica,sans-Serif" font-size="10.00">/operation/vabstractoperation.h</text>
</a>
</g>
</g>
<!-- Node1&#45;&gt;Node4 -->
<g id="edge3_Node000001_Node000004" class="edge">
<title>Node1&#45;&gt;Node4</title>
<g id="a_edge3_Node000001_Node000004"><a xlink:title=" ">
<path fill="none" stroke="#63b8ff" d="M567.25,-67.51C519.77,-57.41 452.6,-43.13 401.02,-32.16"/>
<polygon fill="#63b8ff" stroke="#63b8ff" points="401.44,-28.67 390.93,-30.02 399.98,-35.52 401.44,-28.67"/>
</a>
</g>
</g>
<!-- Node5 -->
<g id="Node000005" class="node">
<title>Node5</title>
<g id="a_Node000005"><a xlink:title=" ">
<polygon fill="#e0e0e0" stroke="#999999" points="548,-24.5 428,-24.5 428,-5.5 548,-5.5 548,-24.5"/>
<text text-anchor="middle" x="488" y="-12.5" font-family="Helvetica,sans-Serif" font-size="10.00">qcompilerdetection.h</text>
</a>
</g>
</g>
<!-- Node1&#45;&gt;Node5 -->
<g id="edge4_Node000001_Node000005" class="edge">
<title>Node1&#45;&gt;Node5</title>
<g id="a_edge4_Node000001_Node000005"><a xlink:title=" ">
<path fill="none" stroke="#63b8ff" d="M595.72,-65.95C571.83,-54.88 538.8,-39.56 515.64,-28.82"/>
<polygon fill="#63b8ff" stroke="#63b8ff" points="516.91,-25.55 506.37,-24.52 513.96,-31.9 516.91,-25.55"/>
</a>
</g>
</g>
<!-- Node6 -->
<g id="Node000006" class="node">
<title>Node6</title>
<g id="a_Node000006"><a xlink:title=" ">
<polygon fill="#e0e0e0" stroke="#999999" points="607.5,-24.5 566.5,-24.5 566.5,-5.5 607.5,-5.5 607.5,-24.5"/>
<text text-anchor="middle" x="587" y="-12.5" font-family="Helvetica,sans-Serif" font-size="10.00">QList</text>
</a>
</g>
</g>
<!-- Node1&#45;&gt;Node6 -->
<g id="edge5_Node000001_Node000006" class="edge">
<title>Node1&#45;&gt;Node6</title>
<g id="a_edge5_Node000001_Node000006"><a xlink:title=" ">
<path fill="none" stroke="#63b8ff" d="M617.34,-65.8C611.56,-56.31 603.92,-43.76 597.74,-33.63"/>
<polygon fill="#63b8ff" stroke="#63b8ff" points="600.58,-31.56 592.39,-24.84 594.6,-35.21 600.58,-31.56"/>
</a>
</g>
</g>
<!-- Node7 -->
<g id="Node000007" class="node">
<title>Node7</title>
<g id="a_Node000007"><a xlink:title=" ">
<polygon fill="#e0e0e0" stroke="#999999" points="706,-24.5 626,-24.5 626,-5.5 706,-5.5 706,-24.5"/>
<text text-anchor="middle" x="666" y="-12.5" font-family="Helvetica,sans-Serif" font-size="10.00">QMetaObject</text>
</a>
</g>
</g>
<!-- Node1&#45;&gt;Node7 -->
<g id="edge6_Node000001_Node000007" class="edge">
<title>Node1&#45;&gt;Node7</title>
<g id="a_edge6_Node000001_Node000007"><a xlink:title=" ">
<path fill="none" stroke="#63b8ff" d="M634.88,-65.8C640.81,-56.31 648.65,-43.76 654.98,-33.63"/>
<polygon fill="#63b8ff" stroke="#63b8ff" points="658.14,-35.18 660.47,-24.84 652.2,-31.47 658.14,-35.18"/>
</a>
</g>
</g>
<!-- Node8 -->
<g id="Node000008" class="node">
<title>Node8</title>
<g id="a_Node000008"><a xlink:title=" ">
<polygon fill="#e0e0e0" stroke="#999999" points="780,-24.5 724,-24.5 724,-5.5 780,-5.5 780,-24.5"/>
<text text-anchor="middle" x="752" y="-12.5" font-family="Helvetica,sans-Serif" font-size="10.00">QObject</text>
</a>
</g>
</g>
<!-- Node1&#45;&gt;Node8 -->
<g id="edge7_Node000001_Node000008" class="edge">
<title>Node1&#45;&gt;Node8</title>
<g id="a_edge7_Node000001_Node000008"><a xlink:title=" ">
<path fill="none" stroke="#63b8ff" d="M653.65,-65.95C675.26,-54.98 705.08,-39.83 726.2,-29.11"/>
<polygon fill="#63b8ff" stroke="#63b8ff" points="727.9,-32.17 735.23,-24.52 724.73,-25.93 727.9,-32.17"/>
</a>
</g>
</g>
<!-- Node9 -->
<g id="Node000009" class="node">
<title>Node9</title>
<g id="a_Node000009"><a xlink:title=" ">
<polygon fill="#e0e0e0" stroke="#999999" points="851.5,-24.5 798.5,-24.5 798.5,-5.5 851.5,-5.5 851.5,-24.5"/>
<text text-anchor="middle" x="825" y="-12.5" font-family="Helvetica,sans-Serif" font-size="10.00">QString</text>
</a>
</g>
</g>
<!-- Node1&#45;&gt;Node9 -->
<g id="edge8_Node000001_Node000009" class="edge">
<title>Node1&#45;&gt;Node9</title>
<g id="a_edge8_Node000001_Node000009"><a xlink:title=" ">
<path fill="none" stroke="#63b8ff" d="M675.16,-65.94C707.67,-56.4 751.11,-43.16 789,-30 790.65,-29.43 792.35,-28.82 794.05,-28.2"/>
<polygon fill="#63b8ff" stroke="#63b8ff" points="795.64,-31.34 803.78,-24.55 793.18,-24.79 795.64,-31.34"/>
</a>
</g>
</g>
<!-- Node10 -->
<g id="Node000010" class="node">
<title>Node10</title>
<g id="a_Node000010"><a xlink:title=" ">
<polygon fill="#e0e0e0" stroke="#999999" points="924.5,-24.5 869.5,-24.5 869.5,-5.5 924.5,-5.5 924.5,-24.5"/>
<text text-anchor="middle" x="897" y="-12.5" font-family="Helvetica,sans-Serif" font-size="10.00">QVector</text>
</a>
</g>
</g>
<!-- Node1&#45;&gt;Node10 -->
<g id="edge9_Node000001_Node000010" class="edge">
<title>Node1&#45;&gt;Node10</title>
<g id="a_edge9_Node000001_Node000010"><a xlink:title=" ">
<path fill="none" stroke="#63b8ff" d="M684.6,-70.25C732.55,-61.62 801.85,-47.67 861,-30 862.93,-29.42 864.9,-28.79 866.87,-28.12"/>
<polygon fill="#63b8ff" stroke="#63b8ff" points="868.43,-31.28 876.64,-24.58 866.04,-24.7 868.43,-31.28"/>
</a>
</g>
</g>
<!-- Node11 -->
<g id="Node000011" class="node">
<title>Node11</title>
<g id="a_Node000011"><a xlink:title=" ">
<polygon fill="#e0e0e0" stroke="#999999" points="1001.5,-24.5 942.5,-24.5 942.5,-5.5 1001.5,-5.5 1001.5,-24.5"/>
<text text-anchor="middle" x="972" y="-12.5" font-family="Helvetica,sans-Serif" font-size="10.00">QtGlobal</text>
</a>
</g>
</g>
<!-- Node1&#45;&gt;Node11 -->
<g id="edge10_Node000001_Node000011" class="edge">
<title>Node1&#45;&gt;Node11</title>
<g id="a_edge10_Node000001_Node000011"><a xlink:title=" ">
<path fill="none" stroke="#63b8ff" d="M684.6,-73.88C747.08,-66.58 848.6,-52.44 934,-30 936.44,-29.36 938.94,-28.62 941.44,-27.83"/>
<polygon fill="#63b8ff" stroke="#63b8ff" points="942.6,-31.13 950.93,-24.58 940.33,-24.51 942.6,-31.13"/>
</a>
</g>
</g>
</g>
</svg>
