<?xml version="1.0" encoding="UTF-8" standalone="no"?>
<!DOCTYPE svg PUBLIC "-//W3C//DTD SVG 1.1//EN"
 "http://www.w3.org/Graphics/SVG/1.1/DTD/svg11.dtd">
<!-- Generated by graphviz version 2.43.0 (0)
 -->
<!-- Title: VEllipticalArc Pages: 1 -->
<!--zoomable 1482 -->

<svg id="main" version="1.1" xmlns="http://www.w3.org/2000/svg" xmlns:xlink="http://www.w3.org/1999/xlink" xml:space="preserve" onload="init(evt)">
<style type="text/css"><![CDATA[
.node, .edge {opacity: 0.7;}
.node.selected, .edge.selected {opacity: 1;}
.edge:hover path { stroke: red; }
.edge:hover polygon { stroke: red; fill: red; }
]]></style>

<defs>
  <circle id="rim" cx="0" cy="0" r="7"/>
  <circle id="rim2" cx="0" cy="0" r="3.5"/>
  <g id="zoomPlus">
    <use xlink:href="#rim" fill="#404040"><set attributeName="fill" to="#808080" begin="zoomplus.mouseover" end="zoomplus.mouseout"/></use>
    <path d="M-4,0h8M0,-4v8" fill="none" stroke="white" stroke-width="1.5" pointer-events="none"/>
  </g>
  <g id="zoomMin">
    <use xlink:href="#rim" fill="#404040"><set attributeName="fill" to="#808080" begin="zoomminus.mouseover" end="zoomminus.mouseout"/></use>
    <path d="M-4,0h8" fill="none" stroke="white" stroke-width="1.5" pointer-events="none"/>
  </g>
  <g id="arrowUp" transform="translate(30 24)">
    <use xlink:href="#rim"/>
    <path pointer-events="none" fill="none" stroke="white" stroke-width="1.5" d="M0,-3.0v7 M-2.5,-0.5L0,-3.0L2.5,-0.5"/>
  </g>
  <g id="arrowRight" transform="rotate(90) translate(36 -43)">
    <use xlink:href="#rim"/>
    <path pointer-events="none" fill="none" stroke="white" stroke-width="1.5" d="M0,-3.0v7 M-2.5,-0.5L0,-3.0L2.5,-0.5"/>
  </g>
  <g id="arrowDown" transform="rotate(180) translate(-30 -48)">
    <use xlink:href="#rim"/>
    <path pointer-events="none" fill="none" stroke="white" stroke-width="1.5" d="M0,-3.0v7 M-2.5,-0.5L0,-3.0L2.5,-0.5"/>
  </g>
  <g id="arrowLeft" transform="rotate(270) translate(-36 17)">
    <use xlink:href="#rim"/>
    <path pointer-events="none" fill="none" stroke="white" stroke-width="1.5" d="M0,-3.0v7 M-2.5,-0.5L0,-3.0L2.5,-0.5"/>
  </g>
  <g id="resetDef">
    <use xlink:href="#rim2" fill="#404040"><set attributeName="fill" to="#808080" begin="reset.mouseover" end="reset.mouseout"/></use>
  </g>
</defs>
<script type="application/ecmascript">
var viewWidth = 162;
var viewHeight = 1482;
var sectionId = 'dynsection-1';
</script>
<script type="application/ecmascript" xlink:href="../../svg.min.js"/>
<svg id="graph" class="graph">
<g id="viewport">
<title>VEllipticalArc</title>
<!-- Node1 -->
<g id="Node000001" class="node">
<title>Node1</title>
<g id="a_Node000001"><a xlink:title=" ">
<polygon fill="#999999" stroke="transparent" points="133,-289 21,-289 21,0 133,0 133,-289"/>
<text text-anchor="start" x="44.5" y="-276.5" font-family="Helvetica,sans-Serif" font-size="10.00">VEllipticalArc</text>
<text text-anchor="start" x="27.5" y="-261.5" font-family="Helvetica,sans-Serif" font-size="10.00">&#45;</text>
<text text-anchor="start" x="38" y="-261.5" font-family="Helvetica,sans-Serif" font-size="10.00">d</text>
<text text-anchor="start" x="25" y="-246.5" font-family="Helvetica,sans-Serif" font-size="10.00">+</text>
<text text-anchor="start" x="38" y="-246.5" font-family="Helvetica,sans-Serif" font-size="10.00">VEllipticalArc()</text>
<text text-anchor="start" x="25" y="-231.5" font-family="Helvetica,sans-Serif" font-size="10.00">+</text>
<text text-anchor="start" x="38" y="-231.5" font-family="Helvetica,sans-Serif" font-size="10.00">VEllipticalArc()</text>
<text text-anchor="start" x="25" y="-216.5" font-family="Helvetica,sans-Serif" font-size="10.00">+</text>
<text text-anchor="start" x="38" y="-216.5" font-family="Helvetica,sans-Serif" font-size="10.00">VEllipticalArc()</text>
<text text-anchor="start" x="25" y="-201.5" font-family="Helvetica,sans-Serif" font-size="10.00">+</text>
<text text-anchor="start" x="38" y="-201.5" font-family="Helvetica,sans-Serif" font-size="10.00">VEllipticalArc()</text>
<text text-anchor="start" x="25" y="-186.5" font-family="Helvetica,sans-Serif" font-size="10.00">+</text>
<text text-anchor="start" x="38" y="-186.5" font-family="Helvetica,sans-Serif" font-size="10.00">VEllipticalArc()</text>
<text text-anchor="start" x="25" y="-171.5" font-family="Helvetica,sans-Serif" font-size="10.00">+</text>
<text text-anchor="start" x="38" y="-171.5" font-family="Helvetica,sans-Serif" font-size="10.00">VEllipticalArc()</text>
<text text-anchor="start" x="25" y="-156.5" font-family="Helvetica,sans-Serif" font-size="10.00">+</text>
<text text-anchor="start" x="38" y="-156.5" font-family="Helvetica,sans-Serif" font-size="10.00">Rotate()</text>
<text text-anchor="start" x="25" y="-141.5" font-family="Helvetica,sans-Serif" font-size="10.00">+</text>
<text text-anchor="start" x="38" y="-141.5" font-family="Helvetica,sans-Serif" font-size="10.00">Flip()</text>
<text text-anchor="start" x="25" y="-126.5" font-family="Helvetica,sans-Serif" font-size="10.00">+</text>
<text text-anchor="start" x="38" y="-126.5" font-family="Helvetica,sans-Serif" font-size="10.00">Move()</text>
<text text-anchor="start" x="25" y="-111.5" font-family="Helvetica,sans-Serif" font-size="10.00">+</text>
<text text-anchor="start" x="38" y="-111.5" font-family="Helvetica,sans-Serif" font-size="10.00">~VEllipticalArc()</text>
<text text-anchor="start" x="38" y="-96.5" font-family="Helvetica,sans-Serif" font-size="10.00">and 22 more...</text>
<text text-anchor="start" x="25" y="-81.5" font-family="Helvetica,sans-Serif" font-size="10.00">+</text>
<text text-anchor="start" x="38" y="-81.5" font-family="Helvetica,sans-Serif" font-size="10.00">normalizeAngle()</text>
<text text-anchor="start" x="25" y="-66.5" font-family="Helvetica,sans-Serif" font-size="10.00">#</text>
<text text-anchor="start" x="38" y="-66.5" font-family="Helvetica,sans-Serif" font-size="10.00">CreateName()</text>
<text text-anchor="start" x="25" y="-51.5" font-family="Helvetica,sans-Serif" font-size="10.00">#</text>
<text text-anchor="start" x="38" y="-51.5" font-family="Helvetica,sans-Serif" font-size="10.00">FindF2()</text>
<text text-anchor="start" x="27.5" y="-36.5" font-family="Helvetica,sans-Serif" font-size="10.00">&#45;</text>
<text text-anchor="start" x="38" y="-36.5" font-family="Helvetica,sans-Serif" font-size="10.00">MaxLength()</text>
<text text-anchor="start" x="27.5" y="-21.5" font-family="Helvetica,sans-Serif" font-size="10.00">&#45;</text>
<text text-anchor="start" x="38" y="-21.5" font-family="Helvetica,sans-Serif" font-size="10.00">getPoint()</text>
<text text-anchor="start" x="27.5" y="-6.5" font-family="Helvetica,sans-Serif" font-size="10.00">&#45;</text>
<text text-anchor="start" x="38" y="-6.5" font-family="Helvetica,sans-Serif" font-size="10.00">getRealEndAngle()</text>
<polygon fill="#666666" stroke="#666666" points="21,-271.5 21,-271.5 133,-271.5 133,-271.5 21,-271.5"/>
<polygon fill="#666666" stroke="#666666" points="21,-256.5 21,-256.5 36,-256.5 36,-256.5 21,-256.5"/>
<polygon fill="#666666" stroke="#666666" points="36,-256.5 36,-256.5 133,-256.5 133,-256.5 36,-256.5"/>
<polygon fill="none" stroke="#666666" points="21,0 21,-289 133,-289 133,0 21,0"/>
</a>
</g>
</g>
<!-- Node2 -->
<g id="Node000002" class="node">
<title>Node2</title>
<g id="a_Node000002"><a xlink:href="../../d9/d54/classVAbstractArc.html" target="_top" xlink:title=" ">
<polygon fill="white" stroke="transparent" points="136,-569 18,-569 18,-325 136,-325 136,-569"/>
<text text-anchor="start" x="45.5" y="-557" font-family="Helvetica,sans-Serif" font-size="10.00">VAbstractArc</text>
<text text-anchor="start" x="24.5" y="-542" font-family="Helvetica,sans-Serif" font-size="10.00">&#45;</text>
<text text-anchor="start" x="35" y="-542" font-family="Helvetica,sans-Serif" font-size="10.00">d</text>
<text text-anchor="start" x="22" y="-527" font-family="Helvetica,sans-Serif" font-size="10.00">+</text>
<text text-anchor="start" x="35" y="-527" font-family="Helvetica,sans-Serif" font-size="10.00">VAbstractArc()</text>
<text text-anchor="start" x="22" y="-512" font-family="Helvetica,sans-Serif" font-size="10.00">+</text>
<text text-anchor="start" x="35" y="-512" font-family="Helvetica,sans-Serif" font-size="10.00">VAbstractArc()</text>
<text text-anchor="start" x="22" y="-497" font-family="Helvetica,sans-Serif" font-size="10.00">+</text>
<text text-anchor="start" x="35" y="-497" font-family="Helvetica,sans-Serif" font-size="10.00">VAbstractArc()</text>
<text text-anchor="start" x="22" y="-482" font-family="Helvetica,sans-Serif" font-size="10.00">+</text>
<text text-anchor="start" x="35" y="-482" font-family="Helvetica,sans-Serif" font-size="10.00">VAbstractArc()</text>
<text text-anchor="start" x="22" y="-467" font-family="Helvetica,sans-Serif" font-size="10.00">+</text>
<text text-anchor="start" x="35" y="-467" font-family="Helvetica,sans-Serif" font-size="10.00">VAbstractArc()</text>
<text text-anchor="start" x="22" y="-452" font-family="Helvetica,sans-Serif" font-size="10.00">+</text>
<text text-anchor="start" x="35" y="-452" font-family="Helvetica,sans-Serif" font-size="10.00">VAbstractArc()</text>
<text text-anchor="start" x="22" y="-437" font-family="Helvetica,sans-Serif" font-size="10.00">+</text>
<text text-anchor="start" x="35" y="-437" font-family="Helvetica,sans-Serif" font-size="10.00">~VAbstractArc()</text>
<text text-anchor="start" x="22" y="-422" font-family="Helvetica,sans-Serif" font-size="10.00">+</text>
<text text-anchor="start" x="35" y="-422" font-family="Helvetica,sans-Serif" font-size="10.00">operator=()</text>
<text text-anchor="start" x="22" y="-407" font-family="Helvetica,sans-Serif" font-size="10.00">+</text>
<text text-anchor="start" x="35" y="-407" font-family="Helvetica,sans-Serif" font-size="10.00">Swap()</text>
<text text-anchor="start" x="22" y="-392" font-family="Helvetica,sans-Serif" font-size="10.00">+</text>
<text text-anchor="start" x="35" y="-392" font-family="Helvetica,sans-Serif" font-size="10.00">GetFormulaF1()</text>
<text text-anchor="start" x="35" y="-377" font-family="Helvetica,sans-Serif" font-size="10.00">and 13 more...</text>
<text text-anchor="start" x="22" y="-362" font-family="Helvetica,sans-Serif" font-size="10.00">#</text>
<text text-anchor="start" x="35" y="-362" font-family="Helvetica,sans-Serif" font-size="10.00">SetFlipped()</text>
<text text-anchor="start" x="22" y="-347" font-family="Helvetica,sans-Serif" font-size="10.00">#</text>
<text text-anchor="start" x="35" y="-347" font-family="Helvetica,sans-Serif" font-size="10.00">FindF2()</text>
<text text-anchor="start" x="22" y="-332" font-family="Helvetica,sans-Serif" font-size="10.00">#</text>
<text text-anchor="start" x="35" y="-332" font-family="Helvetica,sans-Serif" font-size="10.00">SetFormulaLength()</text>
<polygon fill="#666666" stroke="#666666" points="18,-552 18,-552 136,-552 136,-552 18,-552"/>
<polygon fill="#666666" stroke="#666666" points="18,-537 18,-537 33,-537 33,-537 18,-537"/>
<polygon fill="#666666" stroke="#666666" points="33,-537 33,-537 136,-537 136,-537 33,-537"/>
<polygon fill="none" stroke="#666666" points="18,-325 18,-569 136,-569 136,-325 18,-325"/>
</a>
</g>
</g>
<!-- Node2&#45;&gt;Node1 -->
<g id="edge1_Node000001_Node000002" class="edge">
<title>Node2&#45;&gt;Node1</title>
<g id="a_edge1_Node000001_Node000002"><a xlink:title=" ">
<path fill="none" stroke="#63b8ff" d="M77,-314.42C77,-306 77,-297.5 77,-289.03"/>
<polygon fill="none" stroke="#63b8ff" points="73.5,-314.64 77,-324.64 80.5,-314.64 73.5,-314.64"/>
</a>
</g>
</g>
<!-- Node3 -->
<g id="Node000003" class="node">
<title>Node3</title>
<g id="a_Node000003"><a xlink:href="../../dc/d55/classVAbstractCurve.html" target="_top" xlink:title=" ">
<polygon fill="white" stroke="transparent" points="154,-939 0,-939 0,-605 154,-605 154,-939"/>
<text text-anchor="start" x="39" y="-927" font-family="Helvetica,sans-Serif" font-size="10.00">VAbstractCurve</text>
<text text-anchor="start" x="4" y="-912" font-family="Helvetica,sans-Serif" font-size="10.00">+</text>
<text text-anchor="start" x="17" y="-912" font-family="Helvetica,sans-Serif" font-size="10.00">lengthCurveDirectionArrow</text>
<text text-anchor="start" x="6.5" y="-897" font-family="Helvetica,sans-Serif" font-size="10.00">&#45;</text>
<text text-anchor="start" x="17" y="-897" font-family="Helvetica,sans-Serif" font-size="10.00">d</text>
<text text-anchor="start" x="4" y="-882" font-family="Helvetica,sans-Serif" font-size="10.00">+</text>
<text text-anchor="start" x="17" y="-882" font-family="Helvetica,sans-Serif" font-size="10.00">VAbstractCurve()</text>
<text text-anchor="start" x="4" y="-867" font-family="Helvetica,sans-Serif" font-size="10.00">+</text>
<text text-anchor="start" x="17" y="-867" font-family="Helvetica,sans-Serif" font-size="10.00">VAbstractCurve()</text>
<text text-anchor="start" x="4" y="-852" font-family="Helvetica,sans-Serif" font-size="10.00">+</text>
<text text-anchor="start" x="17" y="-852" font-family="Helvetica,sans-Serif" font-size="10.00">~VAbstractCurve()</text>
<text text-anchor="start" x="4" y="-837" font-family="Helvetica,sans-Serif" font-size="10.00">+</text>
<text text-anchor="start" x="17" y="-837" font-family="Helvetica,sans-Serif" font-size="10.00">operator=()</text>
<text text-anchor="start" x="4" y="-822" font-family="Helvetica,sans-Serif" font-size="10.00">+</text>
<text text-anchor="start" x="17" y="-822" font-family="Helvetica,sans-Serif" font-size="10.00">Swap()</text>
<text text-anchor="start" x="4" y="-807" font-family="Helvetica,sans-Serif" font-size="10.00">+</text>
<text text-anchor="start" x="17" y="-807" font-family="Helvetica,sans-Serif" font-size="10.00">getPoints()</text>
<text text-anchor="start" x="4" y="-792" font-family="Helvetica,sans-Serif" font-size="10.00">+</text>
<text text-anchor="start" x="17" y="-792" font-family="Helvetica,sans-Serif" font-size="10.00">GetSegmentPoints()</text>
<text text-anchor="start" x="4" y="-777" font-family="Helvetica,sans-Serif" font-size="10.00">+</text>
<text text-anchor="start" x="17" y="-777" font-family="Helvetica,sans-Serif" font-size="10.00">GetPath()</text>
<text text-anchor="start" x="4" y="-762" font-family="Helvetica,sans-Serif" font-size="10.00">+</text>
<text text-anchor="start" x="17" y="-762" font-family="Helvetica,sans-Serif" font-size="10.00">GetLength()</text>
<text text-anchor="start" x="4" y="-747" font-family="Helvetica,sans-Serif" font-size="10.00">+</text>
<text text-anchor="start" x="17" y="-747" font-family="Helvetica,sans-Serif" font-size="10.00">GetLengthByPoint()</text>
<text text-anchor="start" x="17" y="-732" font-family="Helvetica,sans-Serif" font-size="10.00">and 17 more...</text>
<text text-anchor="start" x="4" y="-717" font-family="Helvetica,sans-Serif" font-size="10.00">+</text>
<text text-anchor="start" x="17" y="-717" font-family="Helvetica,sans-Serif" font-size="10.00">GetSegmentPoints()</text>
<text text-anchor="start" x="4" y="-702" font-family="Helvetica,sans-Serif" font-size="10.00">+</text>
<text text-anchor="start" x="17" y="-702" font-family="Helvetica,sans-Serif" font-size="10.00">isPointOnCurve()</text>
<text text-anchor="start" x="4" y="-687" font-family="Helvetica,sans-Serif" font-size="10.00">+</text>
<text text-anchor="start" x="17" y="-687" font-family="Helvetica,sans-Serif" font-size="10.00">PathLength()</text>
<text text-anchor="start" x="4" y="-672" font-family="Helvetica,sans-Serif" font-size="10.00">+</text>
<text text-anchor="start" x="17" y="-672" font-family="Helvetica,sans-Serif" font-size="10.00">CurveIntersectLine()</text>
<text text-anchor="start" x="4" y="-657" font-family="Helvetica,sans-Serif" font-size="10.00">+</text>
<text text-anchor="start" x="17" y="-657" font-family="Helvetica,sans-Serif" font-size="10.00">ShowDirection()</text>
<text text-anchor="start" x="4" y="-642" font-family="Helvetica,sans-Serif" font-size="10.00">#</text>
<text text-anchor="start" x="17" y="-642" font-family="Helvetica,sans-Serif" font-size="10.00">CreateName()</text>
<text text-anchor="start" x="6.5" y="-627" font-family="Helvetica,sans-Serif" font-size="10.00">&#45;</text>
<text text-anchor="start" x="17" y="-627" font-family="Helvetica,sans-Serif" font-size="10.00">FromBegin()</text>
<text text-anchor="start" x="6.5" y="-612" font-family="Helvetica,sans-Serif" font-size="10.00">&#45;</text>
<text text-anchor="start" x="17" y="-612" font-family="Helvetica,sans-Serif" font-size="10.00">ToEnd()</text>
<polygon fill="#666666" stroke="#666666" points="0,-922 0,-922 154,-922 154,-922 0,-922"/>
<polygon fill="#666666" stroke="#666666" points="0,-892 0,-892 15,-892 15,-892 0,-892"/>
<polygon fill="#666666" stroke="#666666" points="15,-892 15,-892 154,-892 154,-892 15,-892"/>
<polygon fill="none" stroke="#666666" points="0,-605 0,-939 154,-939 154,-605 0,-605"/>
</a>
</g>
</g>
<!-- Node3&#45;&gt;Node2 -->
<g id="edge2_Node000002_Node000003" class="edge">
<title>Node3&#45;&gt;Node2</title>
<g id="a_edge2_Node000002_Node000003"><a xlink:title=" ">
<path fill="none" stroke="#63b8ff" d="M77,-594.74C77,-586.21 77,-577.74 77,-569.42"/>
<polygon fill="none" stroke="#63b8ff" points="73.5,-594.77 77,-604.77 80.5,-594.77 73.5,-594.77"/>
</a>
</g>
</g>
<!-- Node4 -->
<g id="Node000004" class="node">
<title>Node4</title>
<g id="a_Node000004"><a xlink:href="../../d1/de7/classVGObject.html" target="_top" xlink:title="The VGObject class keep information graphical objects.">
<polygon fill="white" stroke="transparent" points="146.5,-1474 7.5,-1474 7.5,-975 146.5,-975 146.5,-1474"/>
<text text-anchor="start" x="54.5" y="-1461.5" font-family="Helvetica,sans-Serif" font-size="10.00">VGObject</text>
<text text-anchor="start" x="12" y="-1446.5" font-family="Helvetica,sans-Serif" font-size="10.00">+</text>
<text text-anchor="start" x="25" y="-1446.5" font-family="Helvetica,sans-Serif" font-size="10.00">accuracyPointOnLine</text>
<text text-anchor="start" x="14.5" y="-1431.5" font-family="Helvetica,sans-Serif" font-size="10.00">&#45;</text>
<text text-anchor="start" x="25" y="-1431.5" font-family="Helvetica,sans-Serif" font-size="10.00">d</text>
<text text-anchor="start" x="12" y="-1416.5" font-family="Helvetica,sans-Serif" font-size="10.00">+</text>
<text text-anchor="start" x="25" y="-1416.5" font-family="Helvetica,sans-Serif" font-size="10.00">VGObject()</text>
<text text-anchor="start" x="12" y="-1401.5" font-family="Helvetica,sans-Serif" font-size="10.00">+</text>
<text text-anchor="start" x="25" y="-1401.5" font-family="Helvetica,sans-Serif" font-size="10.00">VGObject()</text>
<text text-anchor="start" x="12" y="-1386.5" font-family="Helvetica,sans-Serif" font-size="10.00">+</text>
<text text-anchor="start" x="25" y="-1386.5" font-family="Helvetica,sans-Serif" font-size="10.00">VGObject()</text>
<text text-anchor="start" x="12" y="-1371.5" font-family="Helvetica,sans-Serif" font-size="10.00">+</text>
<text text-anchor="start" x="25" y="-1371.5" font-family="Helvetica,sans-Serif" font-size="10.00">~VGObject()</text>
<text text-anchor="start" x="12" y="-1356.5" font-family="Helvetica,sans-Serif" font-size="10.00">+</text>
<text text-anchor="start" x="25" y="-1356.5" font-family="Helvetica,sans-Serif" font-size="10.00">operator=()</text>
<text text-anchor="start" x="12" y="-1341.5" font-family="Helvetica,sans-Serif" font-size="10.00">+</text>
<text text-anchor="start" x="25" y="-1341.5" font-family="Helvetica,sans-Serif" font-size="10.00">Swap()</text>
<text text-anchor="start" x="12" y="-1326.5" font-family="Helvetica,sans-Serif" font-size="10.00">+</text>
<text text-anchor="start" x="25" y="-1326.5" font-family="Helvetica,sans-Serif" font-size="10.00">getIdObject()</text>
<text text-anchor="start" x="12" y="-1311.5" font-family="Helvetica,sans-Serif" font-size="10.00">+</text>
<text text-anchor="start" x="25" y="-1311.5" font-family="Helvetica,sans-Serif" font-size="10.00">setIdObject()</text>
<text text-anchor="start" x="12" y="-1296.5" font-family="Helvetica,sans-Serif" font-size="10.00">+</text>
<text text-anchor="start" x="25" y="-1296.5" font-family="Helvetica,sans-Serif" font-size="10.00">name()</text>
<text text-anchor="start" x="12" y="-1281.5" font-family="Helvetica,sans-Serif" font-size="10.00">+</text>
<text text-anchor="start" x="25" y="-1281.5" font-family="Helvetica,sans-Serif" font-size="10.00">setName()</text>
<text text-anchor="start" x="25" y="-1266.5" font-family="Helvetica,sans-Serif" font-size="10.00">and 7 more...</text>
<text text-anchor="start" x="12" y="-1251.5" font-family="Helvetica,sans-Serif" font-size="10.00">+</text>
<text text-anchor="start" x="25" y="-1251.5" font-family="Helvetica,sans-Serif" font-size="10.00">BuildLine()</text>
<text text-anchor="start" x="12" y="-1236.5" font-family="Helvetica,sans-Serif" font-size="10.00">+</text>
<text text-anchor="start" x="25" y="-1236.5" font-family="Helvetica,sans-Serif" font-size="10.00">BuildRay()</text>
<text text-anchor="start" x="12" y="-1221.5" font-family="Helvetica,sans-Serif" font-size="10.00">+</text>
<text text-anchor="start" x="25" y="-1221.5" font-family="Helvetica,sans-Serif" font-size="10.00">BuildAxis()</text>
<text text-anchor="start" x="12" y="-1206.5" font-family="Helvetica,sans-Serif" font-size="10.00">+</text>
<text text-anchor="start" x="25" y="-1206.5" font-family="Helvetica,sans-Serif" font-size="10.00">BuildAxis()</text>
<text text-anchor="start" x="12" y="-1191.5" font-family="Helvetica,sans-Serif" font-size="10.00">+</text>
<text text-anchor="start" x="25" y="-1191.5" font-family="Helvetica,sans-Serif" font-size="10.00">ContactPoints()</text>
<text text-anchor="start" x="12" y="-1176.5" font-family="Helvetica,sans-Serif" font-size="10.00">+</text>
<text text-anchor="start" x="25" y="-1176.5" font-family="Helvetica,sans-Serif" font-size="10.00">LineIntersectRect()</text>
<text text-anchor="start" x="12" y="-1161.5" font-family="Helvetica,sans-Serif" font-size="10.00">+</text>
<text text-anchor="start" x="25" y="-1161.5" font-family="Helvetica,sans-Serif" font-size="10.00">IntersectionCircles()</text>
<text text-anchor="start" x="12" y="-1146.5" font-family="Helvetica,sans-Serif" font-size="10.00">+</text>
<text text-anchor="start" x="25" y="-1146.5" font-family="Helvetica,sans-Serif" font-size="10.00">LineIntersectCircle()</text>
<text text-anchor="start" x="12" y="-1131.5" font-family="Helvetica,sans-Serif" font-size="10.00">+</text>
<text text-anchor="start" x="25" y="-1131.5" font-family="Helvetica,sans-Serif" font-size="10.00">ClosestPoint()</text>
<text text-anchor="start" x="12" y="-1116.5" font-family="Helvetica,sans-Serif" font-size="10.00">+</text>
<text text-anchor="start" x="25" y="-1116.5" font-family="Helvetica,sans-Serif" font-size="10.00">addVector()</text>
<text text-anchor="start" x="12" y="-1101.5" font-family="Helvetica,sans-Serif" font-size="10.00">+</text>
<text text-anchor="start" x="25" y="-1101.5" font-family="Helvetica,sans-Serif" font-size="10.00">LineCoefficients()</text>
<text text-anchor="start" x="12" y="-1086.5" font-family="Helvetica,sans-Serif" font-size="10.00">+</text>
<text text-anchor="start" x="25" y="-1086.5" font-family="Helvetica,sans-Serif" font-size="10.00">IsPointOnLineSegment()</text>
<text text-anchor="start" x="12" y="-1071.5" font-family="Helvetica,sans-Serif" font-size="10.00">+</text>
<text text-anchor="start" x="25" y="-1071.5" font-family="Helvetica,sans-Serif" font-size="10.00">IsPointOnLineviaPDP()</text>
<text text-anchor="start" x="12" y="-1056.5" font-family="Helvetica,sans-Serif" font-size="10.00">+</text>
<text text-anchor="start" x="25" y="-1056.5" font-family="Helvetica,sans-Serif" font-size="10.00">GetReversePoints()</text>
<text text-anchor="start" x="12" y="-1041.5" font-family="Helvetica,sans-Serif" font-size="10.00">+</text>
<text text-anchor="start" x="25" y="-1041.5" font-family="Helvetica,sans-Serif" font-size="10.00">GetLengthContour()</text>
<text text-anchor="start" x="12" y="-1026.5" font-family="Helvetica,sans-Serif" font-size="10.00">#</text>
<text text-anchor="start" x="25" y="-1026.5" font-family="Helvetica,sans-Serif" font-size="10.00">flipTransform()</text>
<text text-anchor="start" x="14.5" y="-1011.5" font-family="Helvetica,sans-Serif" font-size="10.00">&#45;</text>
<text text-anchor="start" x="25" y="-1011.5" font-family="Helvetica,sans-Serif" font-size="10.00">PerpDotProduct()</text>
<text text-anchor="start" x="14.5" y="-996.5" font-family="Helvetica,sans-Serif" font-size="10.00">&#45;</text>
<text text-anchor="start" x="25" y="-996.5" font-family="Helvetica,sans-Serif" font-size="10.00">GetEpsilon()</text>
<text text-anchor="start" x="14.5" y="-981.5" font-family="Helvetica,sans-Serif" font-size="10.00">&#45;</text>
<text text-anchor="start" x="25" y="-981.5" font-family="Helvetica,sans-Serif" font-size="10.00">PointInCircle()</text>
<polygon fill="#666666" stroke="#666666" points="8,-1456.5 8,-1456.5 147,-1456.5 147,-1456.5 8,-1456.5"/>
<polygon fill="#666666" stroke="#666666" points="8,-1426.5 8,-1426.5 23,-1426.5 23,-1426.5 8,-1426.5"/>
<polygon fill="#666666" stroke="#666666" points="23,-1426.5 23,-1426.5 147,-1426.5 147,-1426.5 23,-1426.5"/>
<polygon fill="none" stroke="#666666" points="7.5,-975 7.5,-1474 146.5,-1474 146.5,-975 7.5,-975"/>
</a>
</g>
</g>
<!-- Node4&#45;&gt;Node3 -->
<g id="edge3_Node000003_Node000004" class="edge">
<title>Node4&#45;&gt;Node3</title>
<g id="a_edge3_Node000003_Node000004"><a xlink:title=" ">
<path fill="none" stroke="#63b8ff" d="M77,-964.74C77,-956.15 77,-947.62 77,-939.21"/>
<polygon fill="none" stroke="#63b8ff" points="73.5,-964.86 77,-974.86 80.5,-964.86 73.5,-964.86"/>
</a>
</g>
</g>
</g>
</svg>

<g id="navigator" transform="translate(0 0)" fill="#404254">
  <rect fill="#f2f5e9" fill-opacity="0.5" stroke="#606060" stroke-width=".5" x="0" y="0" width="60" height="60"/>
  <use id="zoomplus" xlink:href="#zoomPlus" x="17" y="9" onmousedown="handleZoom(evt,'in')"/>
  <use id="zoomminus" xlink:href="#zoomMin" x="42" y="9" onmousedown="handleZoom(evt,'out')"/>
  <use id="reset" xlink:href="#resetDef" x="30" y="36" onmousedown="handleReset()"/>
   <use id="arrowup" xlink:href="#arrowUp" x="0" y="0" onmousedown="handlePan(0,-1)"/>
  <use id="arrowright" xlink:href="#arrowRight" x="0" y="0" onmousedown="handlePan(1,0)"/>
  <use id="arrowdown" xlink:href="#arrowDown" x="0" y="0" onmousedown="handlePan(0,1)"/>
  <use id="arrowleft" xlink:href="#arrowLeft" x="0" y="0" onmousedown="handlePan(-1,0)"/>
</g>
<svg viewBox="0 0 15 15" width="100%" height="30px" preserveAspectRatio="xMaxYMin meet">
 <g id="arrow_out" transform="scale(0.3 0.3)">
  <a xlink:href="classVEllipticalArc__coll__graph_org.svg" target="_base">
   <rect id="button" ry="5" rx="5" y="6" x="6" height="38" width="38"
        fill="#f2f5e9" fill-opacity="0.5" stroke="#606060" stroke-width="1.0"/>
   <path id="arrow"
     d="M 11.500037,31.436501 C 11.940474,20.09759 22.043105,11.32322 32.158766,21.979434 L 37.068811,17.246167 C 37.068811,17.246167 37.088388,32 37.088388,32 L 22.160133,31.978069 C 22.160133,31.978069 26.997745,27.140456 26.997745,27.140456 C 18.528582,18.264221 13.291696,25.230495 11.500037,31.436501 z"
     style="fill:#404040;"/>
  </a>
 </g>
</svg>

<style type='text/css'>
<![CDATA[
[data-mouse-over-selected='false'] { opacity: 0.7; }
[data-mouse-over-selected='true']  { opacity: 1.0; }
]]>
</style>
<script type="application/ecmascript"><![CDATA[
document.addEventListener('DOMContentLoaded', (event) => {
  highlightEdges();
  highlightAdjacentNodes();
});
]]></script>
</svg>
