<?xml version="1.0" encoding="UTF-8" standalone="no"?>
<!DOCTYPE svg PUBLIC "-//W3C//DTD SVG 1.1//EN"
 "http://www.w3.org/Graphics/SVG/1.1/DTD/svg11.dtd">
<!-- Generated by graphviz version 2.43.0 (0)
 -->
<!-- Title: MessageHandler Pages: 1 -->
<svg width="148pt" height="232pt"
 viewBox="0.00 0.00 148.00 232.00" xmlns="http://www.w3.org/2000/svg" xmlns:xlink="http://www.w3.org/1999/xlink">
<g id="graph0" class="graph" transform="scale(1 1) rotate(0) translate(4 228)">
<title>MessageHandler</title>
<!-- Node1 -->
<g id="Node000001" class="node">
<title>Node1</title>
<g id="a_Node000001"><a xlink:title=" ">
<polygon fill="#999999" stroke="transparent" points="125.5,-139 14.5,-139 14.5,0 125.5,0 125.5,-139"/>
<text text-anchor="start" x="29.5" y="-126.5" font-family="Helvetica,sans-Serif" font-size="10.00">MessageHandler</text>
<text text-anchor="start" x="21.5" y="-111.5" font-family="Helvetica,sans-Serif" font-size="10.00">&#45;</text>
<text text-anchor="start" x="32" y="-111.5" font-family="Helvetica,sans-Serif" font-size="10.00">m_messageType</text>
<text text-anchor="start" x="21.5" y="-96.5" font-family="Helvetica,sans-Serif" font-size="10.00">&#45;</text>
<text text-anchor="start" x="32" y="-96.5" font-family="Helvetica,sans-Serif" font-size="10.00">m_description</text>
<text text-anchor="start" x="21.5" y="-81.5" font-family="Helvetica,sans-Serif" font-size="10.00">&#45;</text>
<text text-anchor="start" x="32" y="-81.5" font-family="Helvetica,sans-Serif" font-size="10.00">m_sourceLocation</text>
<text text-anchor="start" x="19" y="-66.5" font-family="Helvetica,sans-Serif" font-size="10.00">+</text>
<text text-anchor="start" x="32" y="-66.5" font-family="Helvetica,sans-Serif" font-size="10.00">MessageHandler()</text>
<text text-anchor="start" x="19" y="-51.5" font-family="Helvetica,sans-Serif" font-size="10.00">+</text>
<text text-anchor="start" x="32" y="-51.5" font-family="Helvetica,sans-Serif" font-size="10.00">statusMessage()</text>
<text text-anchor="start" x="19" y="-36.5" font-family="Helvetica,sans-Serif" font-size="10.00">+</text>
<text text-anchor="start" x="32" y="-36.5" font-family="Helvetica,sans-Serif" font-size="10.00">line()</text>
<text text-anchor="start" x="19" y="-21.5" font-family="Helvetica,sans-Serif" font-size="10.00">+</text>
<text text-anchor="start" x="32" y="-21.5" font-family="Helvetica,sans-Serif" font-size="10.00">column()</text>
<text text-anchor="start" x="19" y="-6.5" font-family="Helvetica,sans-Serif" font-size="10.00">#</text>
<text text-anchor="start" x="32" y="-6.5" font-family="Helvetica,sans-Serif" font-size="10.00">handleMessage()</text>
<polygon fill="#666666" stroke="#666666" points="15,-121.5 15,-121.5 126,-121.5 126,-121.5 15,-121.5"/>
<polygon fill="#666666" stroke="#666666" points="15,-76.5 15,-76.5 30,-76.5 30,-76.5 15,-76.5"/>
<polygon fill="#666666" stroke="#666666" points="30,-76.5 30,-76.5 126,-76.5 126,-76.5 30,-76.5"/>
<polygon fill="none" stroke="#666666" points="14.5,0 14.5,-139 125.5,-139 125.5,0 14.5,0"/>
</a>
</g>
</g>
<!-- Node2 -->
<g id="Node000002" class="node">
<title>Node2</title>
<g id="a_Node000002"><a xlink:title=" ">
<polygon fill="white" stroke="transparent" points="140,-224 0,-224 0,-175 140,-175 140,-224"/>
<text text-anchor="start" x="5" y="-211.5" font-family="Helvetica,sans-Serif" font-size="10.00">QAbstractMessageHandler</text>
<text text-anchor="start" x="68" y="-196.5" font-family="Helvetica,sans-Serif" font-size="10.00"> </text>
<text text-anchor="start" x="68" y="-181.5" font-family="Helvetica,sans-Serif" font-size="10.00"> </text>
<polygon fill="#666666" stroke="#666666" points="0,-206.5 0,-206.5 140,-206.5 140,-206.5 0,-206.5"/>
<polygon fill="#666666" stroke="#666666" points="0,-191.5 0,-191.5 140,-191.5 140,-191.5 0,-191.5"/>
<polygon fill="none" stroke="#666666" points="0,-175 0,-224 140,-224 140,-175 0,-175"/>
</a>
</g>
</g>
<!-- Node2&#45;&gt;Node1 -->
<g id="edge1_Node000001_Node000002" class="edge">
<title>Node2&#45;&gt;Node1</title>
<g id="a_edge1_Node000001_Node000002"><a xlink:title=" ">
<path fill="none" stroke="#63b8ff" d="M70,-164.48C70,-156.57 70,-147.86 70,-139.04"/>
<polygon fill="none" stroke="#63b8ff" points="66.5,-164.72 70,-174.72 73.5,-164.72 66.5,-164.72"/>
</a>
</g>
</g>
</g>
</svg>
