<?xml version="1.0" encoding="UTF-8" standalone="no"?>
<!DOCTYPE svg PUBLIC "-//W3C//DTD SVG 1.1//EN"
 "http://www.w3.org/Graphics/SVG/1.1/DTD/svg11.dtd">
<!-- Generated by graphviz version 2.43.0 (0)
 -->
<!-- Title: src/libs/vtools/tools/nodeDetails/vabstractnode.h Pages: 1 -->
<!--zoomable 262 -->
<svg id="main" version="1.1" xmlns="http://www.w3.org/2000/svg" xmlns:xlink="http://www.w3.org/1999/xlink" xml:space="preserve" onload="init(evt)">
<style type="text/css"><![CDATA[
.edge:hover path { stroke: red; }
.edge:hover polygon { stroke: red; fill: red; }
]]></style>
<script type="text/javascript"><![CDATA[
var edges = document.getElementsByTagName('g');
if (edges && edges.length) {
  for (var i=0;i<edges.length;i++) {
    if (edges[i].id.substr(0,4)=='edge') {
      edges[i].setAttribute('class','edge');
    }
  }
}
]]></script>
        <defs>
                <circle id="rim" cx="0" cy="0" r="7"/>
                <circle id="rim2" cx="0" cy="0" r="3.5"/>
                <g id="zoomPlus">
                        <use xlink:href="#rim" fill="#404040">
                                <set attributeName="fill" to="#808080" begin="zoomplus.mouseover" end="zoomplus.mouseout"/>
                        </use>
                        <path d="M-4,0h8M0,-4v8" fill="none" stroke="white" stroke-width="1.5" pointer-events="none"/>
                </g>
                <g id="zoomMin">
                        <use xlink:href="#rim" fill="#404040">
                                <set attributeName="fill" to="#808080" begin="zoomminus.mouseover" end="zoomminus.mouseout"/>
                        </use>
                        <path d="M-4,0h8" fill="none" stroke="white" stroke-width="1.5" pointer-events="none"/>
                </g>
                <g id="dirArrow">
                        <path fill="none" stroke="white" stroke-width="1.5" d="M0,-3.0v7 M-2.5,-0.5L0,-3.0L2.5,-0.5"/>
                </g>
               <g id="resetDef">
                       <use xlink:href="#rim2" fill="#404040">
                               <set attributeName="fill" to="#808080" begin="reset.mouseover" end="reset.mouseout"/>
                       </use>
               </g>
        </defs>

<script type="text/javascript">
var viewWidth = 2108;
var viewHeight = 262;
var sectionId = 'dynsection-1';
</script>
<script xlink:href="../../svgpan.js"/>
<svg id="graph" class="graph">
<g id="viewport">
<title>src/libs/vtools/tools/nodeDetails/vabstractnode.h</title>
<polygon fill="white" stroke="transparent" points="-4,4 -4,-258 2103.5,-258 2103.5,4 -4,4"/>
<!-- Node1 -->
<g id="node1" class="node">
<title>Node1</title>
<g id="a_node1"><a xlink:title=" ">
<polygon fill="#bfbfbf" stroke="black" points="1274.5,-223.5 1274.5,-253.5 1434.5,-253.5 1434.5,-223.5 1274.5,-223.5"/>
<text text-anchor="start" x="1282.5" y="-241.5" font-family="Helvetica,sans-Serif" font-size="10.00">src/libs/vtools/tools</text>
<text text-anchor="middle" x="1354.5" y="-230.5" font-family="Helvetica,sans-Serif" font-size="10.00">/nodeDetails/vabstractnode.h</text>
</a>
</g>
</g>
<!-- Node2 -->
<g id="node2" class="node">
<title>Node2</title>
<g id="a_node2"><a xlink:href="../../de/d51/anchorpoint__tool_8h.html" target="_top" xlink:title=" ">
<polygon fill="white" stroke="black" points="506,-145.5 506,-186.5 645,-186.5 645,-145.5 506,-145.5"/>
<text text-anchor="start" x="514" y="-174.5" font-family="Helvetica,sans-Serif" font-size="10.00">src/libs/vtools/tools</text>
<text text-anchor="start" x="514" y="-163.5" font-family="Helvetica,sans-Serif" font-size="10.00">/nodeDetails/anchorpoint</text>
<text text-anchor="middle" x="575.5" y="-152.5" font-family="Helvetica,sans-Serif" font-size="10.00">_tool.h</text>
</a>
</g>
</g>
<!-- Node1&#45;&gt;Node2 -->
<g id="edge1" class="edge">
<title>Node1&#45;&gt;Node2</title>
<path fill="none" stroke="midnightblue" d="M1264.14,-235.58C1131.05,-231.7 874.78,-220.23 659.5,-187 654.76,-186.27 649.89,-185.41 645,-184.46"/>
<polygon fill="midnightblue" stroke="midnightblue" points="1264.2,-239.08 1274.29,-235.86 1264.39,-232.08 1264.2,-239.08"/>
</g>
<!-- Node9 -->
<g id="node9" class="node">
<title>Node9</title>
<g id="a_node9"><a xlink:href="../../d0/d43/vnodearc_8cpp.html" target="_top" xlink:title=" ">
<polygon fill="white" stroke="black" points="753.5,-73 753.5,-103 899.5,-103 899.5,-73 753.5,-73"/>
<text text-anchor="start" x="761.5" y="-91" font-family="Helvetica,sans-Serif" font-size="10.00">src/libs/vtools/tools</text>
<text text-anchor="middle" x="826.5" y="-80" font-family="Helvetica,sans-Serif" font-size="10.00">/nodeDetails/vnodearc.cpp</text>
</a>
</g>
</g>
<!-- Node1&#45;&gt;Node9 -->
<g id="edge8" class="edge">
<title>Node1&#45;&gt;Node9</title>
<path fill="none" stroke="midnightblue" d="M1264.21,-236.81C1099.97,-234.6 765.91,-225.39 730.5,-187 717.84,-173.28 721.2,-161.19 730.5,-145 741.84,-125.26 763.12,-111.82 782.77,-103.06"/>
<polygon fill="midnightblue" stroke="midnightblue" points="1264.25,-240.31 1274.3,-236.94 1264.34,-233.31 1264.25,-240.31"/>
</g>
<!-- Node10 -->
<g id="node10" class="node">
<title>Node10</title>
<g id="a_node10"><a xlink:href="../../df/d98/vnodearc_8h.html" target="_top" xlink:title=" ">
<polygon fill="white" stroke="black" points="1127,-151 1127,-181 1262,-181 1262,-151 1127,-151"/>
<text text-anchor="start" x="1135" y="-169" font-family="Helvetica,sans-Serif" font-size="10.00">src/libs/vtools/tools</text>
<text text-anchor="middle" x="1194.5" y="-158" font-family="Helvetica,sans-Serif" font-size="10.00">/nodeDetails/vnodearc.h</text>
</a>
</g>
</g>
<!-- Node1&#45;&gt;Node10 -->
<g id="edge9" class="edge">
<title>Node1&#45;&gt;Node10</title>
<path fill="none" stroke="midnightblue" d="M1313.29,-219.34C1286.24,-207.42 1251.39,-192.07 1226.44,-181.07"/>
<polygon fill="midnightblue" stroke="midnightblue" points="1311.94,-222.57 1322.51,-223.4 1314.77,-216.17 1311.94,-222.57"/>
</g>
<!-- Node12 -->
<g id="node12" class="node">
<title>Node12</title>
<g id="a_node12"><a xlink:href="../../df/d25/vnodeellipticalarc_8h.html" target="_top" xlink:title=" ">
<polygon fill="white" stroke="black" points="932,-151 932,-181 1109,-181 1109,-151 932,-151"/>
<text text-anchor="start" x="940" y="-169" font-family="Helvetica,sans-Serif" font-size="10.00">src/libs/vtools/tools</text>
<text text-anchor="middle" x="1020.5" y="-158" font-family="Helvetica,sans-Serif" font-size="10.00">/nodeDetails/vnodeellipticalarc.h</text>
</a>
</g>
</g>
<!-- Node1&#45;&gt;Node12 -->
<g id="edge14" class="edge">
<title>Node1&#45;&gt;Node12</title>
<path fill="none" stroke="midnightblue" d="M1278.32,-221.42C1220.65,-209.25 1142.21,-192.69 1087.05,-181.05"/>
<polygon fill="midnightblue" stroke="midnightblue" points="1277.61,-224.85 1288.11,-223.49 1279.05,-218 1277.61,-224.85"/>
</g>
<!-- Node13 -->
<g id="node13" class="node">
<title>Node13</title>
<g id="a_node13"><a xlink:href="../../d3/d3a/vnodeellipticalarc_8cpp.html" target="_top" xlink:title=" ">
<polygon fill="white" stroke="black" points="363.5,-73 363.5,-103 551.5,-103 551.5,-73 363.5,-73"/>
<text text-anchor="start" x="371.5" y="-91" font-family="Helvetica,sans-Serif" font-size="10.00">src/libs/vtools/tools</text>
<text text-anchor="middle" x="457.5" y="-80" font-family="Helvetica,sans-Serif" font-size="10.00">/nodeDetails/vnodeellipticalarc.cpp</text>
</a>
</g>
</g>
<!-- Node1&#45;&gt;Node13 -->
<g id="edge19" class="edge">
<title>Node1&#45;&gt;Node13</title>
<path fill="none" stroke="midnightblue" d="M1264.26,-235.85C1113.23,-232.18 816.12,-220.77 717.5,-187 685.31,-175.98 684.43,-159.17 653.5,-145 612.64,-126.28 564.08,-112.35 525.52,-103.07"/>
<polygon fill="midnightblue" stroke="midnightblue" points="1264.36,-239.35 1274.44,-236.09 1264.52,-232.36 1264.36,-239.35"/>
</g>
<!-- Node14 -->
<g id="node14" class="node">
<title>Node14</title>
<g id="a_node14"><a xlink:href="../../d5/df0/vnodepoint_8h.html" target="_top" xlink:title=" ">
<polygon fill="white" stroke="black" points="1447,-151 1447,-181 1592,-181 1592,-151 1447,-151"/>
<text text-anchor="start" x="1455" y="-169" font-family="Helvetica,sans-Serif" font-size="10.00">src/libs/vtools/tools</text>
<text text-anchor="middle" x="1519.5" y="-158" font-family="Helvetica,sans-Serif" font-size="10.00">/nodeDetails/vnodepoint.h</text>
</a>
</g>
</g>
<!-- Node1&#45;&gt;Node14 -->
<g id="edge20" class="edge">
<title>Node1&#45;&gt;Node14</title>
<path fill="none" stroke="midnightblue" d="M1396.99,-219.34C1424.89,-207.42 1460.84,-192.07 1486.56,-181.07"/>
<polygon fill="midnightblue" stroke="midnightblue" points="1395.31,-216.26 1387.49,-223.4 1398.06,-222.69 1395.31,-216.26"/>
</g>
<!-- Node15 -->
<g id="node15" class="node">
<title>Node15</title>
<g id="a_node15"><a xlink:href="../../d4/d7b/vnodepoint_8cpp.html" target="_top" xlink:title=" ">
<polygon fill="white" stroke="black" points="1743.5,-73 1743.5,-103 1899.5,-103 1899.5,-73 1743.5,-73"/>
<text text-anchor="start" x="1751.5" y="-91" font-family="Helvetica,sans-Serif" font-size="10.00">src/libs/vtools/tools</text>
<text text-anchor="middle" x="1821.5" y="-80" font-family="Helvetica,sans-Serif" font-size="10.00">/nodeDetails/vnodepoint.cpp</text>
</a>
</g>
</g>
<!-- Node1&#45;&gt;Node15 -->
<g id="edge37" class="edge">
<title>Node1&#45;&gt;Node15</title>
<path fill="none" stroke="midnightblue" d="M1444.92,-233.34C1569.91,-226.72 1783.06,-211.91 1808.5,-187 1830.94,-165.03 1827.94,-124.39 1824.41,-103"/>
<polygon fill="midnightblue" stroke="midnightblue" points="1444.4,-229.87 1434.6,-233.88 1444.76,-236.86 1444.4,-229.87"/>
</g>
<!-- Node16 -->
<g id="node16" class="node">
<title>Node16</title>
<g id="a_node16"><a xlink:href="../../df/d94/vnodespline_8cpp.html" target="_top" xlink:title=" ">
<polygon fill="white" stroke="black" points="1564,-73 1564,-103 1725,-103 1725,-73 1564,-73"/>
<text text-anchor="start" x="1572" y="-91" font-family="Helvetica,sans-Serif" font-size="10.00">src/libs/vtools/tools</text>
<text text-anchor="middle" x="1644.5" y="-80" font-family="Helvetica,sans-Serif" font-size="10.00">/nodeDetails/vnodespline.cpp</text>
</a>
</g>
</g>
<!-- Node1&#45;&gt;Node16 -->
<g id="edge25" class="edge">
<title>Node1&#45;&gt;Node16</title>
<path fill="none" stroke="midnightblue" d="M1444.99,-233.34C1565.98,-226.84 1767.94,-212.32 1790.5,-187 1802.92,-173.06 1801.07,-160.38 1790.5,-145 1779.62,-129.17 1736.16,-113.73 1699.46,-103.09"/>
<polygon fill="midnightblue" stroke="midnightblue" points="1444.78,-229.85 1434.98,-233.87 1445.15,-236.84 1444.78,-229.85"/>
</g>
<!-- Node17 -->
<g id="node17" class="node">
<title>Node17</title>
<g id="a_node17"><a xlink:href="../../d0/dd2/vnodespline_8h.html" target="_top" xlink:title=" ">
<polygon fill="white" stroke="black" points="1280,-151 1280,-181 1429,-181 1429,-151 1280,-151"/>
<text text-anchor="start" x="1288" y="-169" font-family="Helvetica,sans-Serif" font-size="10.00">src/libs/vtools/tools</text>
<text text-anchor="middle" x="1354.5" y="-158" font-family="Helvetica,sans-Serif" font-size="10.00">/nodeDetails/vnodespline.h</text>
</a>
</g>
</g>
<!-- Node1&#45;&gt;Node17 -->
<g id="edge26" class="edge">
<title>Node1&#45;&gt;Node17</title>
<path fill="none" stroke="midnightblue" d="M1354.5,-213.23C1354.5,-202.57 1354.5,-190.41 1354.5,-181.25"/>
<polygon fill="midnightblue" stroke="midnightblue" points="1351,-213.23 1354.5,-223.23 1358,-213.23 1351,-213.23"/>
</g>
<!-- Node18 -->
<g id="node18" class="node">
<title>Node18</title>
<g id="a_node18"><a xlink:href="../../d2/dad/vnodesplinepath_8cpp.html" target="_top" xlink:title=" ">
<polygon fill="white" stroke="black" points="1917.5,-73 1917.5,-103 2099.5,-103 2099.5,-73 1917.5,-73"/>
<text text-anchor="start" x="1925.5" y="-91" font-family="Helvetica,sans-Serif" font-size="10.00">src/libs/vtools/tools</text>
<text text-anchor="middle" x="2008.5" y="-80" font-family="Helvetica,sans-Serif" font-size="10.00">/nodeDetails/vnodesplinepath.cpp</text>
</a>
</g>
</g>
<!-- Node1&#45;&gt;Node18 -->
<g id="edge31" class="edge">
<title>Node1&#45;&gt;Node18</title>
<path fill="none" stroke="midnightblue" d="M1444.74,-232.27C1562.25,-224.71 1760.86,-209.16 1830.5,-187 1866.91,-175.41 1872.05,-163.46 1905.5,-145 1931.52,-130.64 1961.36,-114.45 1982.2,-103.18"/>
<polygon fill="midnightblue" stroke="midnightblue" points="1444.43,-228.78 1434.67,-232.91 1444.88,-235.77 1444.43,-228.78"/>
</g>
<!-- Node19 -->
<g id="node19" class="node">
<title>Node19</title>
<g id="a_node19"><a xlink:href="../../df/d88/vnodesplinepath_8h.html" target="_top" xlink:title=" ">
<polygon fill="white" stroke="black" points="1610,-151 1610,-181 1781,-181 1781,-151 1610,-151"/>
<text text-anchor="start" x="1618" y="-169" font-family="Helvetica,sans-Serif" font-size="10.00">src/libs/vtools/tools</text>
<text text-anchor="middle" x="1695.5" y="-158" font-family="Helvetica,sans-Serif" font-size="10.00">/nodeDetails/vnodesplinepath.h</text>
</a>
</g>
</g>
<!-- Node1&#45;&gt;Node19 -->
<g id="edge32" class="edge">
<title>Node1&#45;&gt;Node19</title>
<path fill="none" stroke="midnightblue" d="M1433.54,-221.51C1482.03,-211.65 1545.38,-198.71 1601.5,-187 1610.73,-185.07 1620.46,-183.03 1630.03,-181"/>
<polygon fill="midnightblue" stroke="midnightblue" points="1432.84,-218.08 1423.73,-223.5 1434.23,-224.94 1432.84,-218.08"/>
</g>
<!-- Node20 -->
<g id="node20" class="node">
<title>Node20</title>
<g id="a_node20"><a xlink:href="../../d5/d9d/vtoolinternalpath_8h.html" target="_top" xlink:title=" ">
<polygon fill="white" stroke="black" points="739.5,-151 739.5,-181 913.5,-181 913.5,-151 739.5,-151"/>
<text text-anchor="start" x="747.5" y="-169" font-family="Helvetica,sans-Serif" font-size="10.00">src/libs/vtools/tools</text>
<text text-anchor="middle" x="826.5" y="-158" font-family="Helvetica,sans-Serif" font-size="10.00">/nodeDetails/vtoolinternalpath.h</text>
</a>
</g>
</g>
<!-- Node1&#45;&gt;Node20 -->
<g id="edge38" class="edge">
<title>Node1&#45;&gt;Node20</title>
<path fill="none" stroke="midnightblue" d="M1264.23,-229.22C1176.81,-220.66 1040.65,-205.9 923.5,-187 912.81,-185.27 901.5,-183.19 890.53,-181.02"/>
<polygon fill="midnightblue" stroke="midnightblue" points="1264.09,-232.72 1274.38,-230.21 1264.77,-225.76 1264.09,-232.72"/>
</g>
<!-- Node23 -->
<g id="node23" class="node">
<title>Node23</title>
<g id="a_node23"><a xlink:href="../../d5/dcd/vabstractnode_8cpp.html" target="_top" xlink:title=" ">
<polygon fill="white" stroke="black" points="1914,-151 1914,-181 2085,-181 2085,-151 1914,-151"/>
<text text-anchor="start" x="1922" y="-169" font-family="Helvetica,sans-Serif" font-size="10.00">src/libs/vtools/tools</text>
<text text-anchor="middle" x="1999.5" y="-158" font-family="Helvetica,sans-Serif" font-size="10.00">/nodeDetails/vabstractnode.cpp</text>
</a>
</g>
</g>
<!-- Node1&#45;&gt;Node23 -->
<g id="edge45" class="edge">
<title>Node1&#45;&gt;Node23</title>
<path fill="none" stroke="midnightblue" d="M1444.94,-232.04C1553.34,-224.82 1740.32,-210.23 1899.5,-187 1910.89,-185.34 1922.94,-183.23 1934.58,-181.01"/>
<polygon fill="midnightblue" stroke="midnightblue" points="1444.44,-228.56 1434.69,-232.71 1444.9,-235.55 1444.44,-228.56"/>
</g>
<!-- Node3 -->
<g id="node3" class="node">
<title>Node3</title>
<g id="a_node3"><a xlink:href="../../d8/dd9/mainwindow_8cpp.html" target="_top" xlink:title=" ">
<polygon fill="white" stroke="black" points="157.5,-78.5 157.5,-97.5 345.5,-97.5 345.5,-78.5 157.5,-78.5"/>
<text text-anchor="middle" x="251.5" y="-85.5" font-family="Helvetica,sans-Serif" font-size="10.00">src/app/seamly2d/mainwindow.cpp</text>
</a>
</g>
</g>
<!-- Node2&#45;&gt;Node3 -->
<g id="edge2" class="edge">
<title>Node2&#45;&gt;Node3</title>
<path fill="none" stroke="midnightblue" d="M495.97,-146.35C429.53,-130.76 337.86,-109.26 287.77,-97.51"/>
<polygon fill="midnightblue" stroke="midnightblue" points="495.46,-149.82 505.99,-148.7 497.06,-143 495.46,-149.82"/>
</g>
<!-- Node4 -->
<g id="node4" class="node">
<title>Node4</title>
<g id="a_node4"><a xlink:href="../../d9/d3a/anchorpoint__tool_8cpp.html" target="_top" xlink:title=" ">
<polygon fill="white" stroke="black" points="0,-67.5 0,-108.5 139,-108.5 139,-67.5 0,-67.5"/>
<text text-anchor="start" x="8" y="-96.5" font-family="Helvetica,sans-Serif" font-size="10.00">src/libs/vtools/tools</text>
<text text-anchor="start" x="8" y="-85.5" font-family="Helvetica,sans-Serif" font-size="10.00">/nodeDetails/anchorpoint</text>
<text text-anchor="middle" x="69.5" y="-74.5" font-family="Helvetica,sans-Serif" font-size="10.00">_tool.cpp</text>
</a>
</g>
</g>
<!-- Node2&#45;&gt;Node4 -->
<g id="edge3" class="edge">
<title>Node2&#45;&gt;Node4</title>
<path fill="none" stroke="midnightblue" d="M495.99,-157.4C409.9,-148.51 268.76,-132.03 148.5,-109 145.44,-108.41 142.33,-107.78 139.19,-107.12"/>
<polygon fill="midnightblue" stroke="midnightblue" points="495.65,-160.88 505.95,-158.42 496.36,-153.92 495.65,-160.88"/>
</g>
<!-- Node5 -->
<g id="node5" class="node">
<title>Node5</title>
<g id="a_node5"><a xlink:href="../../d5/dcf/nodedetails_8h.html" target="_top" xlink:title=" ">
<polygon fill="white" stroke="black" points="1121,-73 1121,-103 1268,-103 1268,-73 1121,-73"/>
<text text-anchor="start" x="1129" y="-91" font-family="Helvetica,sans-Serif" font-size="10.00">src/libs/vtools/tools</text>
<text text-anchor="middle" x="1194.5" y="-80" font-family="Helvetica,sans-Serif" font-size="10.00">/nodeDetails/nodedetails.h</text>
</a>
</g>
</g>
<!-- Node2&#45;&gt;Node5 -->
<g id="edge4" class="edge">
<title>Node2&#45;&gt;Node5</title>
<path fill="none" stroke="midnightblue" d="M655.44,-154.15C679.54,-151.03 706.08,-147.73 730.5,-145 899.98,-126.09 944.33,-137.28 1112.5,-109 1122.04,-107.4 1132.11,-105.29 1141.8,-103.05"/>
<polygon fill="midnightblue" stroke="midnightblue" points="654.73,-150.71 645.27,-155.48 655.64,-157.66 654.73,-150.71"/>
</g>
<!-- Node8 -->
<g id="node8" class="node">
<title>Node8</title>
<g id="a_node8"><a xlink:href="../../d4/d9f/union__tool_8cpp.html" target="_top" xlink:title=" ">
<polygon fill="white" stroke="black" points="1286,-73 1286,-103 1397,-103 1397,-73 1286,-73"/>
<text text-anchor="start" x="1294" y="-91" font-family="Helvetica,sans-Serif" font-size="10.00">src/libs/vtools/tools</text>
<text text-anchor="middle" x="1341.5" y="-80" font-family="Helvetica,sans-Serif" font-size="10.00">/union_tool.cpp</text>
</a>
</g>
</g>
<!-- Node2&#45;&gt;Node8 -->
<g id="edge7" class="edge">
<title>Node2&#45;&gt;Node8</title>
<path fill="none" stroke="midnightblue" d="M655.39,-153.72C679.49,-150.58 706.04,-147.38 730.5,-145 972.99,-121.4 1037.99,-153.65 1277.5,-109 1285.4,-107.53 1293.69,-105.4 1301.58,-103.07"/>
<polygon fill="midnightblue" stroke="midnightblue" points="654.68,-150.28 645.22,-155.06 655.6,-157.22 654.68,-150.28"/>
</g>
<!-- Node6 -->
<g id="node6" class="node">
<title>Node6</title>
<g id="a_node6"><a xlink:href="../../d5/da5/tools_8h.html" target="_top" xlink:title=" ">
<polygon fill="white" stroke="black" points="1074,-0.5 1074,-30.5 1185,-30.5 1185,-0.5 1074,-0.5"/>
<text text-anchor="start" x="1082" y="-18.5" font-family="Helvetica,sans-Serif" font-size="10.00">src/libs/vtools/tools</text>
<text text-anchor="middle" x="1129.5" y="-7.5" font-family="Helvetica,sans-Serif" font-size="10.00">/tools.h</text>
</a>
</g>
</g>
<!-- Node5&#45;&gt;Node6 -->
<g id="edge5" class="edge">
<title>Node5&#45;&gt;Node6</title>
<path fill="none" stroke="midnightblue" d="M1174.55,-65.36C1164.18,-54.11 1151.79,-40.68 1142.63,-30.75"/>
<polygon fill="midnightblue" stroke="midnightblue" points="1171.99,-67.75 1181.35,-72.73 1177.14,-63.01 1171.99,-67.75"/>
</g>
<!-- Node7 -->
<g id="node7" class="node">
<title>Node7</title>
<g id="a_node7"><a xlink:href="../../d9/d4e/vabstracttool_8cpp.html" target="_top" xlink:title=" ">
<polygon fill="white" stroke="black" points="1203,-0.5 1203,-30.5 1314,-30.5 1314,-0.5 1203,-0.5"/>
<text text-anchor="start" x="1211" y="-18.5" font-family="Helvetica,sans-Serif" font-size="10.00">src/libs/vtools/tools</text>
<text text-anchor="middle" x="1258.5" y="-7.5" font-family="Helvetica,sans-Serif" font-size="10.00">/vabstracttool.cpp</text>
</a>
</g>
</g>
<!-- Node5&#45;&gt;Node7 -->
<g id="edge6" class="edge">
<title>Node5&#45;&gt;Node7</title>
<path fill="none" stroke="midnightblue" d="M1214.44,-65.04C1224.59,-53.86 1236.64,-40.58 1245.57,-30.75"/>
<polygon fill="midnightblue" stroke="midnightblue" points="1211.58,-62.98 1207.45,-72.73 1216.76,-67.68 1211.58,-62.98"/>
</g>
<!-- Node10&#45;&gt;Node5 -->
<g id="edge11" class="edge">
<title>Node10&#45;&gt;Node5</title>
<path fill="none" stroke="midnightblue" d="M1194.5,-140.59C1194.5,-128.26 1194.5,-113.72 1194.5,-103.23"/>
<polygon fill="midnightblue" stroke="midnightblue" points="1191,-140.7 1194.5,-150.7 1198,-140.71 1191,-140.7"/>
</g>
<!-- Node10&#45;&gt;Node8 -->
<g id="edge12" class="edge">
<title>Node10&#45;&gt;Node8</title>
<path fill="none" stroke="midnightblue" d="M1230.91,-146.17C1256.75,-132.82 1290.87,-115.18 1314.34,-103.04"/>
<polygon fill="midnightblue" stroke="midnightblue" points="1229.08,-143.18 1221.81,-150.88 1232.3,-149.4 1229.08,-143.18"/>
</g>
<!-- Node10&#45;&gt;Node9 -->
<g id="edge10" class="edge">
<title>Node10&#45;&gt;Node9</title>
<path fill="none" stroke="midnightblue" d="M1133.71,-148.5C1128.58,-147.26 1123.46,-146.08 1118.5,-145 1026.39,-124.99 1001.81,-128.05 909.5,-109 900.79,-107.2 891.6,-105.15 882.64,-103.06"/>
<polygon fill="midnightblue" stroke="midnightblue" points="1133,-151.93 1143.55,-150.94 1134.68,-145.14 1133,-151.93"/>
</g>
<!-- Node11 -->
<g id="node11" class="node">
<title>Node11</title>
<g id="a_node11"><a xlink:href="../../d8/dea/pattern__piece__tool_8cpp.html" target="_top" xlink:title=" ">
<polygon fill="white" stroke="black" points="1415,-73 1415,-103 1546,-103 1546,-73 1415,-73"/>
<text text-anchor="start" x="1423" y="-91" font-family="Helvetica,sans-Serif" font-size="10.00">src/libs/vtools/tools</text>
<text text-anchor="middle" x="1480.5" y="-80" font-family="Helvetica,sans-Serif" font-size="10.00">/pattern_piece_tool.cpp</text>
</a>
</g>
</g>
<!-- Node10&#45;&gt;Node11 -->
<g id="edge13" class="edge">
<title>Node10&#45;&gt;Node11</title>
<path fill="none" stroke="midnightblue" d="M1257.95,-148.34C1300.09,-137.25 1356.62,-122.33 1406.5,-109 1413.7,-107.08 1421.29,-105.04 1428.76,-103.02"/>
<polygon fill="midnightblue" stroke="midnightblue" points="1256.89,-145 1248.11,-150.93 1258.67,-151.77 1256.89,-145"/>
</g>
<!-- Node12&#45;&gt;Node5 -->
<g id="edge16" class="edge">
<title>Node12&#45;&gt;Node5</title>
<path fill="none" stroke="midnightblue" d="M1062,-146.87C1092.76,-133.44 1134.08,-115.39 1162.35,-103.04"/>
<polygon fill="midnightblue" stroke="midnightblue" points="1060.58,-143.67 1052.82,-150.88 1063.39,-150.09 1060.58,-143.67"/>
</g>
<!-- Node12&#45;&gt;Node8 -->
<g id="edge17" class="edge">
<title>Node12&#45;&gt;Node8</title>
<path fill="none" stroke="midnightblue" d="M1098.01,-148.9C1160.83,-135.7 1244.19,-117.82 1277.5,-109 1284.25,-107.21 1291.35,-105.17 1298.27,-103.08"/>
<polygon fill="midnightblue" stroke="midnightblue" points="1097.18,-145.49 1088.12,-150.97 1098.62,-152.35 1097.18,-145.49"/>
</g>
<!-- Node12&#45;&gt;Node11 -->
<g id="edge18" class="edge">
<title>Node12&#45;&gt;Node11</title>
<path fill="none" stroke="midnightblue" d="M1095.77,-149.03C1103.44,-147.59 1111.11,-146.21 1118.5,-145 1245.79,-124.09 1279.93,-133.89 1406.5,-109 1414.86,-107.36 1423.66,-105.29 1432.17,-103.1"/>
<polygon fill="midnightblue" stroke="midnightblue" points="1094.9,-145.63 1085.74,-150.96 1096.22,-152.51 1094.9,-145.63"/>
</g>
<!-- Node12&#45;&gt;Node13 -->
<g id="edge15" class="edge">
<title>Node12&#45;&gt;Node13</title>
<path fill="none" stroke="midnightblue" d="M946.72,-149.1C938.57,-147.6 930.37,-146.19 922.5,-145 762.64,-120.8 720.48,-132.43 560.5,-109 548.96,-107.31 536.76,-105.22 524.94,-103.02"/>
<polygon fill="midnightblue" stroke="midnightblue" points="946.14,-152.56 956.62,-150.98 947.45,-145.68 946.14,-152.56"/>
</g>
<!-- Node14&#45;&gt;Node5 -->
<g id="edge21" class="edge">
<title>Node14&#45;&gt;Node5</title>
<path fill="none" stroke="midnightblue" d="M1453.54,-148.59C1448.46,-147.36 1443.4,-146.15 1438.5,-145 1367.13,-128.21 1348.92,-125.59 1277.5,-109 1269.27,-107.09 1260.59,-105.04 1252.07,-103"/>
<polygon fill="midnightblue" stroke="midnightblue" points="1452.78,-152 1463.33,-150.96 1454.44,-145.2 1452.78,-152"/>
</g>
<!-- Node14&#45;&gt;Node8 -->
<g id="edge23" class="edge">
<title>Node14&#45;&gt;Node8</title>
<path fill="none" stroke="midnightblue" d="M1477.04,-146.87C1445.58,-133.44 1403.31,-115.39 1374.39,-103.04"/>
<polygon fill="midnightblue" stroke="midnightblue" points="1475.87,-150.18 1486.44,-150.88 1478.61,-143.74 1475.87,-150.18"/>
</g>
<!-- Node14&#45;&gt;Node11 -->
<g id="edge24" class="edge">
<title>Node14&#45;&gt;Node11</title>
<path fill="none" stroke="midnightblue" d="M1507.55,-141.7C1501.1,-129.14 1493.35,-114.04 1487.8,-103.23"/>
<polygon fill="midnightblue" stroke="midnightblue" points="1504.48,-143.41 1512.16,-150.7 1510.71,-140.21 1504.48,-143.41"/>
</g>
<!-- Node14&#45;&gt;Node15 -->
<g id="edge22" class="edge">
<title>Node14&#45;&gt;Node15</title>
<path fill="none" stroke="midnightblue" d="M1585.06,-148.5C1639.04,-134.92 1714.75,-115.87 1765.83,-103.01"/>
<polygon fill="midnightblue" stroke="midnightblue" points="1584.09,-145.14 1575.24,-150.97 1585.8,-151.93 1584.09,-145.14"/>
</g>
<!-- Node17&#45;&gt;Node5 -->
<g id="edge27" class="edge">
<title>Node17&#45;&gt;Node5</title>
<path fill="none" stroke="midnightblue" d="M1315.6,-146.52C1287.4,-133.13 1249.83,-115.28 1224.06,-103.04"/>
<polygon fill="midnightblue" stroke="midnightblue" points="1314.25,-149.75 1324.78,-150.88 1317.25,-143.43 1314.25,-149.75"/>
</g>
<!-- Node17&#45;&gt;Node8 -->
<g id="edge29" class="edge">
<title>Node17&#45;&gt;Node8</title>
<path fill="none" stroke="midnightblue" d="M1350.32,-140.59C1348.21,-128.26 1345.73,-113.72 1343.93,-103.23"/>
<polygon fill="midnightblue" stroke="midnightblue" points="1346.92,-141.44 1352.05,-150.7 1353.82,-140.26 1346.92,-141.44"/>
</g>
<!-- Node17&#45;&gt;Node11 -->
<g id="edge30" class="edge">
<title>Node17&#45;&gt;Node11</title>
<path fill="none" stroke="midnightblue" d="M1386.59,-145.64C1408.62,-132.35 1437.37,-115.02 1457.22,-103.04"/>
<polygon fill="midnightblue" stroke="midnightblue" points="1384.66,-142.72 1377.9,-150.88 1388.28,-148.72 1384.66,-142.72"/>
</g>
<!-- Node17&#45;&gt;Node16 -->
<g id="edge28" class="edge">
<title>Node17&#45;&gt;Node16</title>
<path fill="none" stroke="midnightblue" d="M1417.76,-148.42C1469.5,-134.86 1541.84,-115.9 1590.79,-103.07"/>
<polygon fill="midnightblue" stroke="midnightblue" points="1416.81,-145.05 1408.03,-150.97 1418.59,-151.82 1416.81,-145.05"/>
</g>
<!-- Node19&#45;&gt;Node5 -->
<g id="edge33" class="edge">
<title>Node19&#45;&gt;Node5</title>
<path fill="none" stroke="midnightblue" d="M1624.04,-149.03C1616.45,-147.56 1608.83,-146.18 1601.5,-145 1458.47,-121.9 1420.21,-134.02 1277.5,-109 1268.01,-107.34 1257.99,-105.23 1248.32,-103.01"/>
<polygon fill="midnightblue" stroke="midnightblue" points="1623.49,-152.49 1633.98,-151 1624.85,-145.62 1623.49,-152.49"/>
</g>
<!-- Node19&#45;&gt;Node8 -->
<g id="edge35" class="edge">
<title>Node19&#45;&gt;Node8</title>
<path fill="none" stroke="midnightblue" d="M1620.66,-148.89C1614.18,-147.55 1607.73,-146.24 1601.5,-145 1515.06,-127.83 1492.09,-129.99 1406.5,-109 1399.39,-107.26 1391.91,-105.18 1384.66,-103.04"/>
<polygon fill="midnightblue" stroke="midnightblue" points="1620.32,-152.39 1630.82,-151 1621.74,-145.54 1620.32,-152.39"/>
</g>
<!-- Node19&#45;&gt;Node11 -->
<g id="edge36" class="edge">
<title>Node19&#45;&gt;Node11</title>
<path fill="none" stroke="midnightblue" d="M1645.94,-147.48C1607.8,-134 1555.78,-115.61 1520.32,-103.07"/>
<polygon fill="midnightblue" stroke="midnightblue" points="1645.22,-150.94 1655.82,-150.97 1647.55,-144.34 1645.22,-150.94"/>
</g>
<!-- Node19&#45;&gt;Node18 -->
<g id="edge34" class="edge">
<title>Node19&#45;&gt;Node18</title>
<path fill="none" stroke="midnightblue" d="M1763.1,-148.59C1819.07,-134.99 1897.75,-115.89 1950.8,-103.01"/>
<polygon fill="midnightblue" stroke="midnightblue" points="1762.17,-145.21 1753.27,-150.97 1763.82,-152.01 1762.17,-145.21"/>
</g>
<!-- Node20&#45;&gt;Node3 -->
<g id="edge39" class="edge">
<title>Node20&#45;&gt;Node3</title>
<path fill="none" stroke="midnightblue" d="M729.22,-153.64C596.45,-138.12 372.75,-111.85 354.5,-109 333.8,-105.77 310.92,-101.4 291.98,-97.58"/>
<polygon fill="midnightblue" stroke="midnightblue" points="729.07,-157.15 739.41,-154.84 729.88,-150.2 729.07,-157.15"/>
</g>
<!-- Node20&#45;&gt;Node5 -->
<g id="edge40" class="edge">
<title>Node20&#45;&gt;Node5</title>
<path fill="none" stroke="midnightblue" d="M903.62,-148.99C910.34,-147.63 917.04,-146.28 923.5,-145 1007.38,-128.37 1028.94,-127.14 1112.5,-109 1120.95,-107.17 1129.86,-105.12 1138.57,-103.05"/>
<polygon fill="midnightblue" stroke="midnightblue" points="902.89,-145.57 893.79,-150.99 904.28,-152.43 902.89,-145.57"/>
</g>
<!-- Node20&#45;&gt;Node8 -->
<g id="edge42" class="edge">
<title>Node20&#45;&gt;Node8</title>
<path fill="none" stroke="midnightblue" d="M899.79,-149.06C907.77,-147.58 915.79,-146.18 923.5,-145 1079.81,-121 1122.57,-140.75 1277.5,-109 1285.14,-107.43 1293.17,-105.32 1300.85,-103.05"/>
<polygon fill="midnightblue" stroke="midnightblue" points="898.89,-145.67 889.73,-150.99 900.21,-152.55 898.89,-145.67"/>
</g>
<!-- Node20&#45;&gt;Node11 -->
<g id="edge43" class="edge">
<title>Node20&#45;&gt;Node11</title>
<path fill="none" stroke="midnightblue" d="M898.74,-149.04C907.06,-147.52 915.45,-146.13 923.5,-145 1136.69,-115.2 1194.31,-145.24 1406.5,-109 1415.42,-107.48 1424.82,-105.35 1433.82,-103.05"/>
<polygon fill="midnightblue" stroke="midnightblue" points="897.82,-145.65 888.65,-150.95 899.13,-152.53 897.82,-145.65"/>
</g>
<!-- Node21 -->
<g id="node21" class="node">
<title>Node21</title>
<g id="a_node21"><a xlink:href="../../d3/dd9/vtoolinternalpath_8cpp.html" target="_top" xlink:title=" ">
<polygon fill="white" stroke="black" points="918,-73 918,-103 1103,-103 1103,-73 918,-73"/>
<text text-anchor="start" x="926" y="-91" font-family="Helvetica,sans-Serif" font-size="10.00">src/libs/vtools/tools</text>
<text text-anchor="middle" x="1010.5" y="-80" font-family="Helvetica,sans-Serif" font-size="10.00">/nodeDetails/vtoolinternalpath.cpp</text>
</a>
</g>
</g>
<!-- Node20&#45;&gt;Node21 -->
<g id="edge41" class="edge">
<title>Node20&#45;&gt;Node21</title>
<path fill="none" stroke="midnightblue" d="M869.97,-147.05C902.54,-133.59 946.48,-115.44 976.51,-103.04"/>
<polygon fill="midnightblue" stroke="midnightblue" points="868.58,-143.83 860.68,-150.88 871.26,-150.3 868.58,-143.83"/>
</g>
<!-- Node22 -->
<g id="node22" class="node">
<title>Node22</title>
<g id="a_node22"><a xlink:href="../../dd/d3a/savepiecepathoptions_8cpp.html" target="_top" xlink:title=" ">
<polygon fill="white" stroke="black" points="570,-73 570,-103 735,-103 735,-73 570,-73"/>
<text text-anchor="start" x="578" y="-91" font-family="Helvetica,sans-Serif" font-size="10.00">src/libs/vtools/undocommands</text>
<text text-anchor="middle" x="652.5" y="-80" font-family="Helvetica,sans-Serif" font-size="10.00">/savepiecepathoptions.cpp</text>
</a>
</g>
</g>
<!-- Node20&#45;&gt;Node22 -->
<g id="edge44" class="edge">
<title>Node20&#45;&gt;Node22</title>
<path fill="none" stroke="midnightblue" d="M785,-146.87C754.24,-133.44 712.92,-115.39 684.65,-103.04"/>
<polygon fill="midnightblue" stroke="midnightblue" points="783.61,-150.09 794.18,-150.88 786.42,-143.67 783.61,-150.09"/>
</g>
</g>
</svg>
        <g id="navigator" transform="translate(0 0)" fill="#404254">
                <rect fill="#f2f5e9" fill-opacity="0.5" stroke="#606060" stroke-width=".5" x="0" y="0" width="60" height="60"/>
                <use id="zoomplus" xlink:href="#zoomPlus" x="17" y="9" onmousedown="handleZoom(evt,'in')"/>
                <use id="zoomminus" xlink:href="#zoomMin" x="42" y="9" onmousedown="handleZoom(evt,'out')"/>
                <use id="reset" xlink:href="#resetDef" x="30" y="36" onmousedown="handleReset()"/>
                <g id="arrowUp" xlink:href="#dirArrow" transform="translate(30 24)" onmousedown="handlePan(0,-1)">
                  <use xlink:href="#rim" fill="#404040">
                        <set attributeName="fill" to="#808080" begin="arrowUp.mouseover" end="arrowUp.mouseout"/>
                  </use>
                  <path fill="none" stroke="white" stroke-width="1.5" d="M0,-3.0v7 M-2.5,-0.5L0,-3.0L2.5,-0.5"/>
                </g>
                <g id="arrowRight" xlink:href="#dirArrow" transform="rotate(90) translate(36 -43)" onmousedown="handlePan(1,0)">
                  <use xlink:href="#rim" fill="#404040">
                        <set attributeName="fill" to="#808080" begin="arrowRight.mouseover" end="arrowRight.mouseout"/>
                  </use>
                  <path fill="none" stroke="white" stroke-width="1.5" d="M0,-3.0v7 M-2.5,-0.5L0,-3.0L2.5,-0.5"/>
                </g>
                <g id="arrowDown" xlink:href="#dirArrow" transform="rotate(180) translate(-30 -48)" onmousedown="handlePan(0,1)">
                  <use xlink:href="#rim" fill="#404040">
                        <set attributeName="fill" to="#808080" begin="arrowDown.mouseover" end="arrowDown.mouseout"/>
                  </use>
                  <path fill="none" stroke="white" stroke-width="1.5" d="M0,-3.0v7 M-2.5,-0.5L0,-3.0L2.5,-0.5"/>
                </g>
                <g id="arrowLeft" xlink:href="#dirArrow" transform="rotate(270) translate(-36 17)" onmousedown="handlePan(-1,0)">
                  <use xlink:href="#rim" fill="#404040">
                        <set attributeName="fill" to="#808080" begin="arrowLeft.mouseover" end="arrowLeft.mouseout"/>
                  </use>
                  <path fill="none" stroke="white" stroke-width="1.5" d="M0,-3.0v7 M-2.5,-0.5L0,-3.0L2.5,-0.5"/>
                </g>
        </g>
        <svg viewBox="0 0 15 15" width="100%" height="30px" preserveAspectRatio="xMaxYMin meet">
         <g id="arrow_out" transform="scale(0.3 0.3)">
          <a xlink:href="vabstractnode_8h__dep__incl_org.svg" target="_base">
           <rect id="button" ry="5" rx="5" y="6" x="6" height="38" width="38"
                fill="#f2f5e9" fill-opacity="0.5" stroke="#606060" stroke-width="1.0"/>
           <path id="arrow"
             d="M 11.500037,31.436501 C 11.940474,20.09759 22.043105,11.32322 32.158766,21.979434 L 37.068811,17.246167 C 37.068811,17.246167 37.088388,32 37.088388,32 L 22.160133,31.978069 C 22.160133,31.978069 26.997745,27.140456 26.997745,27.140456 C 18.528582,18.264221 13.291696,25.230495 11.500037,31.436501 z"
             style="fill:#404040;"/>
          </a>
         </g>
        </svg>
</svg>
