<?xml version="1.0" encoding="UTF-8" standalone="no"?>
<!DOCTYPE svg PUBLIC "-//W3C//DTD SVG 1.1//EN"
 "http://www.w3.org/Graphics/SVG/1.1/DTD/svg11.dtd">
<!-- Generated by graphviz version 2.43.0 (0)
 -->
<!-- Title: src/libs/vtools/tools/nodeDetails/vabstractnode.h Pages: 1 -->
<svg width="2107pt" height="262pt"
 viewBox="0.00 0.00 2106.50 262.00" xmlns="http://www.w3.org/2000/svg" xmlns:xlink="http://www.w3.org/1999/xlink">
<g id="graph0" class="graph" transform="scale(1 1) rotate(0) translate(4 258)">
<title>src/libs/vtools/tools/nodeDetails/vabstractnode.h</title>
<polygon fill="white" stroke="transparent" points="-4,4 -4,-258 2102.5,-258 2102.5,4 -4,4"/>
<!-- Node1 -->
<g id="node1" class="node">
<title>Node1</title>
<g id="a_node1"><a xlink:title=" ">
<polygon fill="#bfbfbf" stroke="black" points="1417.5,-223.5 1417.5,-253.5 1577.5,-253.5 1577.5,-223.5 1417.5,-223.5"/>
<text text-anchor="start" x="1425.5" y="-241.5" font-family="Helvetica,sans-Serif" font-size="10.00">src/libs/vtools/tools</text>
<text text-anchor="middle" x="1497.5" y="-230.5" font-family="Helvetica,sans-Serif" font-size="10.00">/nodeDetails/vabstractnode.h</text>
</a>
</g>
</g>
<!-- Node2 -->
<g id="node2" class="node">
<title>Node2</title>
<g id="a_node2"><a xlink:href="../../de/d51/anchorpoint__tool_8h.html" target="_top" xlink:title=" ">
<polygon fill="white" stroke="black" points="366,-145.5 366,-186.5 505,-186.5 505,-145.5 366,-145.5"/>
<text text-anchor="start" x="374" y="-174.5" font-family="Helvetica,sans-Serif" font-size="10.00">src/libs/vtools/tools</text>
<text text-anchor="start" x="374" y="-163.5" font-family="Helvetica,sans-Serif" font-size="10.00">/nodeDetails/anchorpoint</text>
<text text-anchor="middle" x="435.5" y="-152.5" font-family="Helvetica,sans-Serif" font-size="10.00">_tool.h</text>
</a>
</g>
</g>
<!-- Node1&#45;&gt;Node2 -->
<g id="edge1" class="edge">
<title>Node1&#45;&gt;Node2</title>
<path fill="none" stroke="midnightblue" d="M1407.34,-235.14C1198.24,-229.29 685.12,-212.72 514.5,-187 511.42,-186.54 508.29,-186 505.14,-185.42"/>
<polygon fill="midnightblue" stroke="midnightblue" points="1407.27,-238.64 1417.37,-235.42 1407.47,-231.64 1407.27,-238.64"/>
</g>
<!-- Node9 -->
<g id="node9" class="node">
<title>Node9</title>
<g id="a_node9"><a xlink:href="../../d5/dcd/vabstractnode_8cpp.html" target="_top" xlink:title=" ">
<polygon fill="white" stroke="black" points="1774,-151 1774,-181 1945,-181 1945,-151 1774,-151"/>
<text text-anchor="start" x="1782" y="-169" font-family="Helvetica,sans-Serif" font-size="10.00">src/libs/vtools/tools</text>
<text text-anchor="middle" x="1859.5" y="-158" font-family="Helvetica,sans-Serif" font-size="10.00">/nodeDetails/vabstractnode.cpp</text>
</a>
</g>
</g>
<!-- Node1&#45;&gt;Node9 -->
<g id="edge8" class="edge">
<title>Node1&#45;&gt;Node9</title>
<path fill="none" stroke="midnightblue" d="M1581.01,-221.56C1632.49,-211.69 1699.84,-198.72 1759.5,-187 1769.23,-185.09 1779.49,-183.06 1789.58,-181.05"/>
<polygon fill="midnightblue" stroke="midnightblue" points="1580.1,-218.17 1570.93,-223.49 1581.41,-225.04 1580.1,-218.17"/>
</g>
<!-- Node10 -->
<g id="node10" class="node">
<title>Node10</title>
<g id="a_node10"><a xlink:href="../../df/d98/vnodearc_8h.html" target="_top" xlink:title=" ">
<polygon fill="white" stroke="black" points="1430,-151 1430,-181 1565,-181 1565,-151 1430,-151"/>
<text text-anchor="start" x="1438" y="-169" font-family="Helvetica,sans-Serif" font-size="10.00">src/libs/vtools/tools</text>
<text text-anchor="middle" x="1497.5" y="-158" font-family="Helvetica,sans-Serif" font-size="10.00">/nodeDetails/vnodearc.h</text>
</a>
</g>
</g>
<!-- Node1&#45;&gt;Node10 -->
<g id="edge9" class="edge">
<title>Node1&#45;&gt;Node10</title>
<path fill="none" stroke="midnightblue" d="M1497.5,-213.23C1497.5,-202.57 1497.5,-190.41 1497.5,-181.25"/>
<polygon fill="midnightblue" stroke="midnightblue" points="1494,-213.23 1497.5,-223.23 1501,-213.23 1494,-213.23"/>
</g>
<!-- Node11 -->
<g id="node11" class="node">
<title>Node11</title>
<g id="a_node11"><a xlink:href="../../d0/d43/vnodearc_8cpp.html" target="_top" xlink:title=" ">
<polygon fill="white" stroke="black" points="1952.5,-73 1952.5,-103 2098.5,-103 2098.5,-73 1952.5,-73"/>
<text text-anchor="start" x="1960.5" y="-91" font-family="Helvetica,sans-Serif" font-size="10.00">src/libs/vtools/tools</text>
<text text-anchor="middle" x="2025.5" y="-80" font-family="Helvetica,sans-Serif" font-size="10.00">/nodeDetails/vnodearc.cpp</text>
</a>
</g>
</g>
<!-- Node1&#45;&gt;Node11 -->
<g id="edge14" class="edge">
<title>Node1&#45;&gt;Node11</title>
<path fill="none" stroke="midnightblue" d="M1587.52,-223.57C1625.36,-215.74 1669.16,-204.03 1706.5,-187 1735.79,-173.64 1735.97,-157.8 1765.5,-145 1839.55,-112.89 1864.72,-126.57 1943.5,-109 1951.8,-107.15 1960.54,-105.11 1969.11,-103.07"/>
<polygon fill="midnightblue" stroke="midnightblue" points="1586.64,-220.17 1577.53,-225.57 1588.02,-227.04 1586.64,-220.17"/>
</g>
<!-- Node13 -->
<g id="node13" class="node">
<title>Node13</title>
<g id="a_node13"><a xlink:href="../../d3/d3a/vnodeellipticalarc_8cpp.html" target="_top" xlink:title=" ">
<polygon fill="white" stroke="black" points="1372.5,-73 1372.5,-103 1560.5,-103 1560.5,-73 1372.5,-73"/>
<text text-anchor="start" x="1380.5" y="-91" font-family="Helvetica,sans-Serif" font-size="10.00">src/libs/vtools/tools</text>
<text text-anchor="middle" x="1466.5" y="-80" font-family="Helvetica,sans-Serif" font-size="10.00">/nodeDetails/vnodeellipticalarc.cpp</text>
</a>
</g>
</g>
<!-- Node1&#45;&gt;Node13 -->
<g id="edge15" class="edge">
<title>Node1&#45;&gt;Node13</title>
<path fill="none" stroke="midnightblue" d="M1567.79,-219.42C1583.45,-211.99 1598.16,-201.57 1607.5,-187 1617.58,-171.29 1617.98,-160.44 1607.5,-145 1593.45,-124.3 1570.41,-111.25 1546.98,-103.02"/>
<polygon fill="midnightblue" stroke="midnightblue" points="1566.27,-216.26 1558.49,-223.46 1569.06,-222.68 1566.27,-216.26"/>
</g>
<!-- Node14 -->
<g id="node14" class="node">
<title>Node14</title>
<g id="a_node14"><a xlink:href="../../d5/df0/vnodepoint_8h.html" target="_top" xlink:title=" ">
<polygon fill="white" stroke="black" points="1267,-151 1267,-181 1412,-181 1412,-151 1267,-151"/>
<text text-anchor="start" x="1275" y="-169" font-family="Helvetica,sans-Serif" font-size="10.00">src/libs/vtools/tools</text>
<text text-anchor="middle" x="1339.5" y="-158" font-family="Helvetica,sans-Serif" font-size="10.00">/nodeDetails/vnodepoint.h</text>
</a>
</g>
</g>
<!-- Node1&#45;&gt;Node14 -->
<g id="edge16" class="edge">
<title>Node1&#45;&gt;Node14</title>
<path fill="none" stroke="midnightblue" d="M1456.46,-219.19C1429.8,-207.29 1395.57,-192.02 1371.04,-181.07"/>
<polygon fill="midnightblue" stroke="midnightblue" points="1455.35,-222.52 1465.91,-223.4 1458.2,-216.13 1455.35,-222.52"/>
</g>
<!-- Node15 -->
<g id="node15" class="node">
<title>Node15</title>
<g id="a_node15"><a xlink:href="../../d4/d7b/vnodepoint_8cpp.html" target="_top" xlink:title=" ">
<polygon fill="white" stroke="black" points="1778.5,-73 1778.5,-103 1934.5,-103 1934.5,-73 1778.5,-73"/>
<text text-anchor="start" x="1786.5" y="-91" font-family="Helvetica,sans-Serif" font-size="10.00">src/libs/vtools/tools</text>
<text text-anchor="middle" x="1856.5" y="-80" font-family="Helvetica,sans-Serif" font-size="10.00">/nodeDetails/vnodepoint.cpp</text>
</a>
</g>
</g>
<!-- Node1&#45;&gt;Node15 -->
<g id="edge45" class="edge">
<title>Node1&#45;&gt;Node15</title>
<path fill="none" stroke="midnightblue" d="M1558.59,-220.52C1587.77,-211.71 1622.92,-200.05 1653.5,-187 1689.71,-171.54 1696.18,-162.39 1731.5,-145 1762.22,-129.87 1797.93,-114.04 1823.3,-103.09"/>
<polygon fill="midnightblue" stroke="midnightblue" points="1557.52,-217.19 1548.94,-223.4 1559.52,-223.9 1557.52,-217.19"/>
</g>
<!-- Node16 -->
<g id="node16" class="node">
<title>Node16</title>
<g id="a_node16"><a xlink:href="../../df/d94/vnodespline_8cpp.html" target="_top" xlink:title=" ">
<polygon fill="white" stroke="black" points="1193,-73 1193,-103 1354,-103 1354,-73 1193,-73"/>
<text text-anchor="start" x="1201" y="-91" font-family="Helvetica,sans-Serif" font-size="10.00">src/libs/vtools/tools</text>
<text text-anchor="middle" x="1273.5" y="-80" font-family="Helvetica,sans-Serif" font-size="10.00">/nodeDetails/vnodespline.cpp</text>
</a>
</g>
</g>
<!-- Node1&#45;&gt;Node16 -->
<g id="edge21" class="edge">
<title>Node1&#45;&gt;Node16</title>
<path fill="none" stroke="midnightblue" d="M1541.41,-218.46C1554.07,-210.65 1566.38,-200.27 1573.5,-187 1582.32,-170.55 1585.53,-159.27 1573.5,-145 1542.98,-108.8 1409.96,-118.14 1363.5,-109 1354.23,-107.18 1344.46,-105.13 1334.9,-103.06"/>
<polygon fill="midnightblue" stroke="midnightblue" points="1539.6,-215.46 1532.64,-223.45 1543.06,-221.54 1539.6,-215.46"/>
</g>
<!-- Node17 -->
<g id="node17" class="node">
<title>Node17</title>
<g id="a_node17"><a xlink:href="../../d0/dd2/vnodespline_8h.html" target="_top" xlink:title=" ">
<polygon fill="white" stroke="black" points="716,-151 716,-181 865,-181 865,-151 716,-151"/>
<text text-anchor="start" x="724" y="-169" font-family="Helvetica,sans-Serif" font-size="10.00">src/libs/vtools/tools</text>
<text text-anchor="middle" x="790.5" y="-158" font-family="Helvetica,sans-Serif" font-size="10.00">/nodeDetails/vnodespline.h</text>
</a>
</g>
</g>
<!-- Node1&#45;&gt;Node17 -->
<g id="edge22" class="edge">
<title>Node1&#45;&gt;Node17</title>
<path fill="none" stroke="midnightblue" d="M1407.21,-234.6C1285.38,-229.69 1061.92,-217.14 873.5,-187 863.69,-185.43 853.34,-183.31 843.39,-181.04"/>
<polygon fill="midnightblue" stroke="midnightblue" points="1407.11,-238.1 1417.24,-235 1407.38,-231.11 1407.11,-238.1"/>
</g>
<!-- Node18 -->
<g id="node18" class="node">
<title>Node18</title>
<g id="a_node18"><a xlink:href="../../df/d25/vnodeellipticalarc_8h.html" target="_top" xlink:title=" ">
<polygon fill="white" stroke="black" points="883,-151 883,-181 1060,-181 1060,-151 883,-151"/>
<text text-anchor="start" x="891" y="-169" font-family="Helvetica,sans-Serif" font-size="10.00">src/libs/vtools/tools</text>
<text text-anchor="middle" x="971.5" y="-158" font-family="Helvetica,sans-Serif" font-size="10.00">/nodeDetails/vnodeellipticalarc.h</text>
</a>
</g>
</g>
<!-- Node1&#45;&gt;Node18 -->
<g id="edge27" class="edge">
<title>Node1&#45;&gt;Node18</title>
<path fill="none" stroke="midnightblue" d="M1407.25,-229.16C1320.22,-220.58 1184.93,-205.82 1068.5,-187 1057.81,-185.27 1046.5,-183.18 1035.53,-181.02"/>
<polygon fill="midnightblue" stroke="midnightblue" points="1407.06,-232.66 1417.36,-230.15 1407.75,-225.69 1407.06,-232.66"/>
</g>
<!-- Node19 -->
<g id="node19" class="node">
<title>Node19</title>
<g id="a_node19"><a xlink:href="../../d2/dad/vnodesplinepath_8cpp.html" target="_top" xlink:title=" ">
<polygon fill="white" stroke="black" points="1578.5,-73 1578.5,-103 1760.5,-103 1760.5,-73 1578.5,-73"/>
<text text-anchor="start" x="1586.5" y="-91" font-family="Helvetica,sans-Serif" font-size="10.00">src/libs/vtools/tools</text>
<text text-anchor="middle" x="1669.5" y="-80" font-family="Helvetica,sans-Serif" font-size="10.00">/nodeDetails/vnodesplinepath.cpp</text>
</a>
</g>
</g>
<!-- Node1&#45;&gt;Node19 -->
<g id="edge32" class="edge">
<title>Node1&#45;&gt;Node19</title>
<path fill="none" stroke="midnightblue" d="M1569.41,-220.12C1589.42,-212.55 1609.91,-201.88 1625.5,-187 1649.91,-163.69 1661.8,-124.35 1666.67,-103.3"/>
<polygon fill="midnightblue" stroke="midnightblue" points="1568.2,-216.83 1559.96,-223.49 1570.55,-223.43 1568.2,-216.83"/>
</g>
<!-- Node20 -->
<g id="node20" class="node">
<title>Node20</title>
<g id="a_node20"><a xlink:href="../../df/d88/vnodesplinepath_8h.html" target="_top" xlink:title=" ">
<polygon fill="white" stroke="black" points="1078,-151 1078,-181 1249,-181 1249,-151 1078,-151"/>
<text text-anchor="start" x="1086" y="-169" font-family="Helvetica,sans-Serif" font-size="10.00">src/libs/vtools/tools</text>
<text text-anchor="middle" x="1163.5" y="-158" font-family="Helvetica,sans-Serif" font-size="10.00">/nodeDetails/vnodesplinepath.h</text>
</a>
</g>
</g>
<!-- Node1&#45;&gt;Node20 -->
<g id="edge33" class="edge">
<title>Node1&#45;&gt;Node20</title>
<path fill="none" stroke="midnightblue" d="M1420.93,-221.43C1373.8,-211.53 1312.14,-198.56 1257.5,-187 1248.36,-185.07 1238.72,-183.02 1229.24,-181.01"/>
<polygon fill="midnightblue" stroke="midnightblue" points="1420.26,-224.87 1430.76,-223.5 1421.7,-218.02 1420.26,-224.87"/>
</g>
<!-- Node21 -->
<g id="node21" class="node">
<title>Node21</title>
<g id="a_node21"><a xlink:href="../../d5/d9d/vtoolinternalpath_8h.html" target="_top" xlink:title=" ">
<polygon fill="white" stroke="black" points="523.5,-151 523.5,-181 697.5,-181 697.5,-151 523.5,-151"/>
<text text-anchor="start" x="531.5" y="-169" font-family="Helvetica,sans-Serif" font-size="10.00">src/libs/vtools/tools</text>
<text text-anchor="middle" x="610.5" y="-158" font-family="Helvetica,sans-Serif" font-size="10.00">/nodeDetails/vtoolinternalpath.h</text>
</a>
</g>
</g>
<!-- Node1&#45;&gt;Node21 -->
<g id="edge38" class="edge">
<title>Node1&#45;&gt;Node21</title>
<path fill="none" stroke="midnightblue" d="M1407.07,-235.89C1259.71,-232.33 958.85,-221.17 706.5,-187 695.03,-185.45 682.88,-183.31 671.22,-181"/>
<polygon fill="midnightblue" stroke="midnightblue" points="1407.33,-239.39 1417.41,-236.13 1407.5,-232.4 1407.33,-239.39"/>
</g>
<!-- Node3 -->
<g id="node3" class="node">
<title>Node3</title>
<g id="a_node3"><a xlink:href="../../d8/dd9/mainwindow_8cpp.html" target="_top" xlink:title=" ">
<polygon fill="white" stroke="black" points="157.5,-78.5 157.5,-97.5 345.5,-97.5 345.5,-78.5 157.5,-78.5"/>
<text text-anchor="middle" x="251.5" y="-85.5" font-family="Helvetica,sans-Serif" font-size="10.00">src/app/seamly2d/mainwindow.cpp</text>
</a>
</g>
</g>
<!-- Node2&#45;&gt;Node3 -->
<g id="edge2" class="edge">
<title>Node2&#45;&gt;Node3</title>
<path fill="none" stroke="midnightblue" d="M378.65,-141.52C342.5,-126.59 297.83,-108.14 272.2,-97.55"/>
<polygon fill="midnightblue" stroke="midnightblue" points="377.54,-144.85 388.12,-145.43 380.21,-138.38 377.54,-144.85"/>
</g>
<!-- Node4 -->
<g id="node4" class="node">
<title>Node4</title>
<g id="a_node4"><a xlink:href="../../d9/d3a/anchorpoint__tool_8cpp.html" target="_top" xlink:title=" ">
<polygon fill="white" stroke="black" points="0,-67.5 0,-108.5 139,-108.5 139,-67.5 0,-67.5"/>
<text text-anchor="start" x="8" y="-96.5" font-family="Helvetica,sans-Serif" font-size="10.00">src/libs/vtools/tools</text>
<text text-anchor="start" x="8" y="-85.5" font-family="Helvetica,sans-Serif" font-size="10.00">/nodeDetails/anchorpoint</text>
<text text-anchor="middle" x="69.5" y="-74.5" font-family="Helvetica,sans-Serif" font-size="10.00">_tool.cpp</text>
</a>
</g>
</g>
<!-- Node2&#45;&gt;Node4 -->
<g id="edge3" class="edge">
<title>Node2&#45;&gt;Node4</title>
<path fill="none" stroke="midnightblue" d="M355.82,-150.68C298.09,-140 218.25,-124.62 148.5,-109 145.46,-108.32 142.36,-107.61 139.24,-106.88"/>
<polygon fill="midnightblue" stroke="midnightblue" points="355.51,-154.18 365.98,-152.55 356.78,-147.29 355.51,-154.18"/>
</g>
<!-- Node5 -->
<g id="node5" class="node">
<title>Node5</title>
<g id="a_node5"><a xlink:href="../../d5/dcf/nodedetails_8h.html" target="_top" xlink:title=" ">
<polygon fill="white" stroke="black" points="879,-73 879,-103 1026,-103 1026,-73 879,-73"/>
<text text-anchor="start" x="887" y="-91" font-family="Helvetica,sans-Serif" font-size="10.00">src/libs/vtools/tools</text>
<text text-anchor="middle" x="952.5" y="-80" font-family="Helvetica,sans-Serif" font-size="10.00">/nodeDetails/nodedetails.h</text>
</a>
</g>
</g>
<!-- Node2&#45;&gt;Node5 -->
<g id="edge4" class="edge">
<title>Node2&#45;&gt;Node5</title>
<path fill="none" stroke="midnightblue" d="M515.2,-145.03C672.47,-118.19 716.37,-135.09 869.5,-109 879,-107.38 889.02,-105.3 898.7,-103.08"/>
<polygon fill="midnightblue" stroke="midnightblue" points="514.42,-141.61 505.17,-146.77 515.62,-148.51 514.42,-141.61"/>
</g>
<!-- Node8 -->
<g id="node8" class="node">
<title>Node8</title>
<g id="a_node8"><a xlink:href="../../d4/d9f/union__tool_8cpp.html" target="_top" xlink:title=" ">
<polygon fill="white" stroke="black" points="750,-73 750,-103 861,-103 861,-73 750,-73"/>
<text text-anchor="start" x="758" y="-91" font-family="Helvetica,sans-Serif" font-size="10.00">src/libs/vtools/tools</text>
<text text-anchor="middle" x="805.5" y="-80" font-family="Helvetica,sans-Serif" font-size="10.00">/union_tool.cpp</text>
</a>
</g>
</g>
<!-- Node2&#45;&gt;Node8 -->
<g id="edge7" class="edge">
<title>Node2&#45;&gt;Node8</title>
<path fill="none" stroke="midnightblue" d="M515.18,-144.97C615.9,-124.94 644.52,-131.29 740.5,-109 747.75,-107.32 755.36,-105.25 762.73,-103.09"/>
<polygon fill="midnightblue" stroke="midnightblue" points="514.31,-141.57 505.21,-146.99 515.7,-148.43 514.31,-141.57"/>
</g>
<!-- Node6 -->
<g id="node6" class="node">
<title>Node6</title>
<g id="a_node6"><a xlink:href="../../d5/da5/tools_8h.html" target="_top" xlink:title=" ">
<polygon fill="white" stroke="black" points="832,-0.5 832,-30.5 943,-30.5 943,-0.5 832,-0.5"/>
<text text-anchor="start" x="840" y="-18.5" font-family="Helvetica,sans-Serif" font-size="10.00">src/libs/vtools/tools</text>
<text text-anchor="middle" x="887.5" y="-7.5" font-family="Helvetica,sans-Serif" font-size="10.00">/tools.h</text>
</a>
</g>
</g>
<!-- Node5&#45;&gt;Node6 -->
<g id="edge5" class="edge">
<title>Node5&#45;&gt;Node6</title>
<path fill="none" stroke="midnightblue" d="M932.55,-65.36C922.18,-54.11 909.79,-40.68 900.63,-30.75"/>
<polygon fill="midnightblue" stroke="midnightblue" points="929.99,-67.75 939.35,-72.73 935.14,-63.01 929.99,-67.75"/>
</g>
<!-- Node7 -->
<g id="node7" class="node">
<title>Node7</title>
<g id="a_node7"><a xlink:href="../../d9/d4e/vabstracttool_8cpp.html" target="_top" xlink:title=" ">
<polygon fill="white" stroke="black" points="961,-0.5 961,-30.5 1072,-30.5 1072,-0.5 961,-0.5"/>
<text text-anchor="start" x="969" y="-18.5" font-family="Helvetica,sans-Serif" font-size="10.00">src/libs/vtools/tools</text>
<text text-anchor="middle" x="1016.5" y="-7.5" font-family="Helvetica,sans-Serif" font-size="10.00">/vabstracttool.cpp</text>
</a>
</g>
</g>
<!-- Node5&#45;&gt;Node7 -->
<g id="edge6" class="edge">
<title>Node5&#45;&gt;Node7</title>
<path fill="none" stroke="midnightblue" d="M972.44,-65.04C982.59,-53.86 994.64,-40.58 1003.57,-30.75"/>
<polygon fill="midnightblue" stroke="midnightblue" points="969.58,-62.98 965.45,-72.73 974.76,-67.68 969.58,-62.98"/>
</g>
<!-- Node10&#45;&gt;Node5 -->
<g id="edge11" class="edge">
<title>Node10&#45;&gt;Node5</title>
<path fill="none" stroke="midnightblue" d="M1438.13,-148.57C1432.2,-147.23 1426.25,-146.01 1420.5,-145 1250.79,-115.25 1204.43,-137.49 1034.5,-109 1024.96,-107.4 1014.89,-105.3 1005.2,-103.05"/>
<polygon fill="midnightblue" stroke="midnightblue" points="1437.52,-152.02 1448.05,-150.9 1439.12,-145.2 1437.52,-152.02"/>
</g>
<!-- Node10&#45;&gt;Node8 -->
<g id="edge13" class="edge">
<title>Node10&#45;&gt;Node8</title>
<path fill="none" stroke="midnightblue" d="M1439.15,-148.62C1432.89,-147.23 1426.59,-145.98 1420.5,-145 1178.21,-105.98 1110.77,-153.92 869.5,-109 861.6,-107.53 853.31,-105.4 845.42,-103.07"/>
<polygon fill="midnightblue" stroke="midnightblue" points="1438.38,-152.03 1448.91,-150.9 1439.97,-145.21 1438.38,-152.03"/>
</g>
<!-- Node10&#45;&gt;Node11 -->
<g id="edge10" class="edge">
<title>Node10&#45;&gt;Node11</title>
<path fill="none" stroke="midnightblue" d="M1575.16,-157.97C1664.47,-149.25 1815.28,-132.61 1943.5,-109 1952.72,-107.3 1962.46,-105.2 1971.88,-103.01"/>
<polygon fill="midnightblue" stroke="midnightblue" points="1574.73,-154.49 1565.12,-158.94 1575.41,-161.46 1574.73,-154.49"/>
</g>
<!-- Node12 -->
<g id="node12" class="node">
<title>Node12</title>
<g id="a_node12"><a xlink:href="../../d8/dea/pattern__piece__tool_8cpp.html" target="_top" xlink:title=" ">
<polygon fill="white" stroke="black" points="1044,-73 1044,-103 1175,-103 1175,-73 1044,-73"/>
<text text-anchor="start" x="1052" y="-91" font-family="Helvetica,sans-Serif" font-size="10.00">src/libs/vtools/tools</text>
<text text-anchor="middle" x="1109.5" y="-80" font-family="Helvetica,sans-Serif" font-size="10.00">/pattern_piece_tool.cpp</text>
</a>
</g>
</g>
<!-- Node10&#45;&gt;Node12 -->
<g id="edge12" class="edge">
<title>Node10&#45;&gt;Node12</title>
<path fill="none" stroke="midnightblue" d="M1436.59,-148.56C1431.16,-147.28 1425.74,-146.08 1420.5,-145 1316.13,-123.58 1287.76,-130.93 1183.5,-109 1175.3,-107.27 1166.65,-105.19 1158.27,-103.02"/>
<polygon fill="midnightblue" stroke="midnightblue" points="1435.77,-151.96 1446.31,-150.92 1437.42,-145.16 1435.77,-151.96"/>
</g>
<!-- Node14&#45;&gt;Node5 -->
<g id="edge17" class="edge">
<title>Node14&#45;&gt;Node5</title>
<path fill="none" stroke="midnightblue" d="M1274.74,-148.7C1268.92,-147.39 1263.11,-146.14 1257.5,-145 1159.1,-125.09 1132.9,-128.91 1034.5,-109 1025.74,-107.23 1016.5,-105.16 1007.5,-103.05"/>
<polygon fill="midnightblue" stroke="midnightblue" points="1273.97,-152.12 1284.5,-150.95 1275.54,-145.29 1273.97,-152.12"/>
</g>
<!-- Node14&#45;&gt;Node8 -->
<g id="edge20" class="edge">
<title>Node14&#45;&gt;Node8</title>
<path fill="none" stroke="midnightblue" d="M1276.71,-148.69C1270.25,-147.31 1263.76,-146.05 1257.5,-145 1086.69,-116.4 1039.31,-143.02 869.5,-109 861.74,-107.45 853.58,-105.31 845.79,-103"/>
<polygon fill="midnightblue" stroke="midnightblue" points="1276.28,-152.18 1286.8,-150.94 1277.8,-145.35 1276.28,-152.18"/>
</g>
<!-- Node14&#45;&gt;Node12 -->
<g id="edge19" class="edge">
<title>Node14&#45;&gt;Node12</title>
<path fill="none" stroke="midnightblue" d="M1287.52,-147.83C1246.63,-134.31 1190.35,-115.72 1152.1,-103.07"/>
<polygon fill="midnightblue" stroke="midnightblue" points="1286.45,-151.16 1297.05,-150.97 1288.65,-144.51 1286.45,-151.16"/>
</g>
<!-- Node14&#45;&gt;Node15 -->
<g id="edge18" class="edge">
<title>Node14&#45;&gt;Node15</title>
<path fill="none" stroke="midnightblue" d="M1401.82,-148.69C1408.11,-147.32 1414.41,-146.06 1420.5,-145 1574.12,-118.25 1615.67,-134.52 1769.5,-109 1779.44,-107.35 1789.94,-105.25 1800.07,-103.03"/>
<polygon fill="midnightblue" stroke="midnightblue" points="1400.98,-145.29 1392,-150.91 1402.52,-152.12 1400.98,-145.29"/>
</g>
<!-- Node17&#45;&gt;Node5 -->
<g id="edge23" class="edge">
<title>Node17&#45;&gt;Node5</title>
<path fill="none" stroke="midnightblue" d="M829.88,-146.52C858.44,-133.13 896.48,-115.28 922.57,-103.04"/>
<polygon fill="midnightblue" stroke="midnightblue" points="828.16,-143.47 820.59,-150.88 831.13,-149.8 828.16,-143.47"/>
</g>
<!-- Node17&#45;&gt;Node8 -->
<g id="edge26" class="edge">
<title>Node17&#45;&gt;Node8</title>
<path fill="none" stroke="midnightblue" d="M795.32,-140.59C797.75,-128.26 800.62,-113.72 802.69,-103.23"/>
<polygon fill="midnightblue" stroke="midnightblue" points="791.82,-140.22 793.32,-150.7 798.69,-141.57 791.82,-140.22"/>
</g>
<!-- Node17&#45;&gt;Node12 -->
<g id="edge25" class="edge">
<title>Node17&#45;&gt;Node12</title>
<path fill="none" stroke="midnightblue" d="M858.09,-148.62C863.3,-147.38 868.49,-146.16 873.5,-145 944.92,-128.41 963.28,-126.45 1034.5,-109 1042.09,-107.14 1050.09,-105.1 1057.93,-103.05"/>
<polygon fill="midnightblue" stroke="midnightblue" points="856.99,-145.28 848.07,-151 858.61,-152.09 856.99,-145.28"/>
</g>
<!-- Node17&#45;&gt;Node16 -->
<g id="edge24" class="edge">
<title>Node17&#45;&gt;Node16</title>
<path fill="none" stroke="midnightblue" d="M854.68,-148.72C861.02,-147.36 867.37,-146.09 873.5,-145 1010.06,-120.71 1046.73,-132.08 1183.5,-109 1193.44,-107.32 1203.94,-105.26 1214.12,-103.1"/>
<polygon fill="midnightblue" stroke="midnightblue" points="853.77,-145.34 844.77,-150.93 855.29,-152.17 853.77,-145.34"/>
</g>
<!-- Node18&#45;&gt;Node5 -->
<g id="edge28" class="edge">
<title>Node18&#45;&gt;Node5</title>
<path fill="none" stroke="midnightblue" d="M965.49,-140.96C962.39,-128.55 958.71,-113.83 956.06,-103.23"/>
<polygon fill="midnightblue" stroke="midnightblue" points="962.11,-141.85 967.93,-150.7 968.9,-140.15 962.11,-141.85"/>
</g>
<!-- Node18&#45;&gt;Node8 -->
<g id="edge31" class="edge">
<title>Node18&#45;&gt;Node8</title>
<path fill="none" stroke="midnightblue" d="M931.53,-146.7C902.22,-133.28 863.02,-115.34 836.17,-103.04"/>
<polygon fill="midnightblue" stroke="midnightblue" points="930.12,-149.9 940.67,-150.88 933.03,-143.54 930.12,-149.9"/>
</g>
<!-- Node18&#45;&gt;Node12 -->
<g id="edge30" class="edge">
<title>Node18&#45;&gt;Node12</title>
<path fill="none" stroke="midnightblue" d="M1006,-146C1030.22,-132.66 1062.07,-115.12 1084,-103.04"/>
<polygon fill="midnightblue" stroke="midnightblue" points="1004.2,-142.99 997.13,-150.88 1007.58,-149.12 1004.2,-142.99"/>
</g>
<!-- Node18&#45;&gt;Node13 -->
<g id="edge29" class="edge">
<title>Node18&#45;&gt;Node13</title>
<path fill="none" stroke="midnightblue" d="M1045.82,-149.03C1053.46,-147.58 1061.13,-146.21 1068.5,-145 1198.41,-123.69 1232.45,-129.44 1362.5,-109 1373.67,-107.24 1385.48,-105.18 1396.97,-103.05"/>
<polygon fill="midnightblue" stroke="midnightblue" points="1044.95,-145.64 1035.8,-150.98 1046.29,-152.51 1044.95,-145.64"/>
</g>
<!-- Node20&#45;&gt;Node5 -->
<g id="edge34" class="edge">
<title>Node20&#45;&gt;Node5</title>
<path fill="none" stroke="midnightblue" d="M1114.61,-147.39C1077.17,-133.9 1026.21,-115.55 991.48,-103.04"/>
<polygon fill="midnightblue" stroke="midnightblue" points="1113.71,-150.79 1124.31,-150.88 1116.08,-144.2 1113.71,-150.79"/>
</g>
<!-- Node20&#45;&gt;Node8 -->
<g id="edge37" class="edge">
<title>Node20&#45;&gt;Node8</title>
<path fill="none" stroke="midnightblue" d="M1088.33,-148.97C1081.63,-147.6 1074.95,-146.26 1068.5,-145 980.29,-127.74 956.78,-130.45 869.5,-109 862.49,-107.28 855.12,-105.22 847.98,-103.08"/>
<polygon fill="midnightblue" stroke="midnightblue" points="1087.64,-152.4 1098.14,-150.98 1089.05,-145.54 1087.64,-152.4"/>
</g>
<!-- Node20&#45;&gt;Node12 -->
<g id="edge36" class="edge">
<title>Node20&#45;&gt;Node12</title>
<path fill="none" stroke="midnightblue" d="M1147.47,-142.44C1138.44,-129.73 1127.44,-114.25 1119.61,-103.23"/>
<polygon fill="midnightblue" stroke="midnightblue" points="1144.7,-144.58 1153.34,-150.7 1150.4,-140.53 1144.7,-144.58"/>
</g>
<!-- Node20&#45;&gt;Node19 -->
<g id="edge35" class="edge">
<title>Node20&#45;&gt;Node19</title>
<path fill="none" stroke="midnightblue" d="M1235.14,-149.02C1242.67,-147.56 1250.23,-146.19 1257.5,-145 1395.25,-122.45 1431.61,-130.71 1569.5,-109 1580.52,-107.27 1592.17,-105.17 1603.48,-103"/>
<polygon fill="midnightblue" stroke="midnightblue" points="1234.41,-145.6 1225.28,-150.98 1235.77,-152.47 1234.41,-145.6"/>
</g>
<!-- Node21&#45;&gt;Node3 -->
<g id="edge39" class="edge">
<title>Node21&#45;&gt;Node3</title>
<path fill="none" stroke="midnightblue" d="M534.02,-148.81C459.86,-133.11 350.25,-109.91 291.75,-97.52"/>
<polygon fill="midnightblue" stroke="midnightblue" points="533.73,-152.32 544.24,-150.97 535.18,-145.48 533.73,-152.32"/>
</g>
<!-- Node21&#45;&gt;Node5 -->
<g id="edge40" class="edge">
<title>Node21&#45;&gt;Node5</title>
<path fill="none" stroke="midnightblue" d="M687.47,-148.85C739.05,-137.91 808.43,-122.96 869.5,-109 877.74,-107.12 886.42,-105.08 894.94,-103.05"/>
<polygon fill="midnightblue" stroke="midnightblue" points="686.46,-145.49 677.41,-150.99 687.91,-152.34 686.46,-145.49"/>
</g>
<!-- Node21&#45;&gt;Node8 -->
<g id="edge43" class="edge">
<title>Node21&#45;&gt;Node8</title>
<path fill="none" stroke="midnightblue" d="M656.12,-147.22C690.68,-133.75 737.52,-115.5 769.47,-103.04"/>
<polygon fill="midnightblue" stroke="midnightblue" points="654.77,-143.99 646.72,-150.88 657.31,-150.51 654.77,-143.99"/>
</g>
<!-- Node21&#45;&gt;Node12 -->
<g id="edge42" class="edge">
<title>Node21&#45;&gt;Node12</title>
<path fill="none" stroke="midnightblue" d="M683.67,-149C691.36,-147.54 699.08,-146.18 706.5,-145 851.34,-122.02 890.35,-135.97 1034.5,-109 1043.11,-107.39 1052.18,-105.31 1060.93,-103.1"/>
<polygon fill="midnightblue" stroke="midnightblue" points="682.75,-145.61 673.6,-150.95 684.08,-152.48 682.75,-145.61"/>
</g>
<!-- Node22 -->
<g id="node22" class="node">
<title>Node22</title>
<g id="a_node22"><a xlink:href="../../d3/dd9/vtoolinternalpath_8cpp.html" target="_top" xlink:title=" ">
<polygon fill="white" stroke="black" points="364,-73 364,-103 549,-103 549,-73 364,-73"/>
<text text-anchor="start" x="372" y="-91" font-family="Helvetica,sans-Serif" font-size="10.00">src/libs/vtools/tools</text>
<text text-anchor="middle" x="456.5" y="-80" font-family="Helvetica,sans-Serif" font-size="10.00">/nodeDetails/vtoolinternalpath.cpp</text>
</a>
</g>
</g>
<!-- Node21&#45;&gt;Node22 -->
<g id="edge41" class="edge">
<title>Node21&#45;&gt;Node22</title>
<path fill="none" stroke="midnightblue" d="M572.71,-146.35C545.6,-132.97 509.65,-115.23 484.95,-103.04"/>
<polygon fill="midnightblue" stroke="midnightblue" points="571.38,-149.6 581.89,-150.88 574.48,-143.32 571.38,-149.6"/>
</g>
<!-- Node23 -->
<g id="node23" class="node">
<title>Node23</title>
<g id="a_node23"><a xlink:href="../../dd/d3a/savepiecepathoptions_8cpp.html" target="_top" xlink:title=" ">
<polygon fill="white" stroke="black" points="567,-73 567,-103 732,-103 732,-73 567,-73"/>
<text text-anchor="start" x="575" y="-91" font-family="Helvetica,sans-Serif" font-size="10.00">src/libs/vtools/undocommands</text>
<text text-anchor="middle" x="649.5" y="-80" font-family="Helvetica,sans-Serif" font-size="10.00">/savepiecepathoptions.cpp</text>
</a>
</g>
</g>
<!-- Node21&#45;&gt;Node23 -->
<g id="edge44" class="edge">
<title>Node21&#45;&gt;Node23</title>
<path fill="none" stroke="midnightblue" d="M622.45,-141.7C628.9,-129.14 636.65,-114.04 642.2,-103.23"/>
<polygon fill="midnightblue" stroke="midnightblue" points="619.29,-140.21 617.84,-150.7 625.52,-143.41 619.29,-140.21"/>
</g>
</g>
</svg>
