<?xml version="1.0" encoding="UTF-8" standalone="no"?>
<!DOCTYPE svg PUBLIC "-//W3C//DTD SVG 1.1//EN"
 "http://www.w3.org/Graphics/SVG/1.1/DTD/svg11.dtd">
<!-- Generated by graphviz version 2.43.0 (0)
 -->
<!-- Title: VArc Pages: 1 -->
<svg width="162pt" height="1437pt"
 viewBox="0.00 0.00 162.00 1437.00" xmlns="http://www.w3.org/2000/svg" xmlns:xlink="http://www.w3.org/1999/xlink">
<g id="graph0" class="graph" transform="scale(1 1) rotate(0) translate(4 1433)">
<title>VArc</title>
<!-- Node1 -->
<g id="Node000001" class="node">
<title>Node1</title>
<g id="a_Node000001"><a xlink:title="VArc class for anticlockwise arc.">
<polygon fill="#999999" stroke="transparent" points="123,-244 31,-244 31,0 123,0 123,-244"/>
<text text-anchor="start" x="66" y="-232" font-family="Helvetica,sans-Serif" font-size="10.00">VArc</text>
<text text-anchor="start" x="37.5" y="-217" font-family="Helvetica,sans-Serif" font-size="10.00">&#45;</text>
<text text-anchor="start" x="48" y="-217" font-family="Helvetica,sans-Serif" font-size="10.00">d</text>
<text text-anchor="start" x="35" y="-202" font-family="Helvetica,sans-Serif" font-size="10.00">+</text>
<text text-anchor="start" x="48" y="-202" font-family="Helvetica,sans-Serif" font-size="10.00">VArc()</text>
<text text-anchor="start" x="35" y="-187" font-family="Helvetica,sans-Serif" font-size="10.00">+</text>
<text text-anchor="start" x="48" y="-187" font-family="Helvetica,sans-Serif" font-size="10.00">VArc()</text>
<text text-anchor="start" x="35" y="-172" font-family="Helvetica,sans-Serif" font-size="10.00">+</text>
<text text-anchor="start" x="48" y="-172" font-family="Helvetica,sans-Serif" font-size="10.00">VArc()</text>
<text text-anchor="start" x="35" y="-157" font-family="Helvetica,sans-Serif" font-size="10.00">+</text>
<text text-anchor="start" x="48" y="-157" font-family="Helvetica,sans-Serif" font-size="10.00">VArc()</text>
<text text-anchor="start" x="35" y="-142" font-family="Helvetica,sans-Serif" font-size="10.00">+</text>
<text text-anchor="start" x="48" y="-142" font-family="Helvetica,sans-Serif" font-size="10.00">VArc()</text>
<text text-anchor="start" x="35" y="-127" font-family="Helvetica,sans-Serif" font-size="10.00">+</text>
<text text-anchor="start" x="48" y="-127" font-family="Helvetica,sans-Serif" font-size="10.00">VArc()</text>
<text text-anchor="start" x="35" y="-112" font-family="Helvetica,sans-Serif" font-size="10.00">+</text>
<text text-anchor="start" x="48" y="-112" font-family="Helvetica,sans-Serif" font-size="10.00">Rotate()</text>
<text text-anchor="start" x="35" y="-97" font-family="Helvetica,sans-Serif" font-size="10.00">+</text>
<text text-anchor="start" x="48" y="-97" font-family="Helvetica,sans-Serif" font-size="10.00">Flip()</text>
<text text-anchor="start" x="35" y="-82" font-family="Helvetica,sans-Serif" font-size="10.00">+</text>
<text text-anchor="start" x="48" y="-82" font-family="Helvetica,sans-Serif" font-size="10.00">Move()</text>
<text text-anchor="start" x="35" y="-67" font-family="Helvetica,sans-Serif" font-size="10.00">+</text>
<text text-anchor="start" x="48" y="-67" font-family="Helvetica,sans-Serif" font-size="10.00">~VArc()</text>
<text text-anchor="start" x="48" y="-52" font-family="Helvetica,sans-Serif" font-size="10.00">and 12 more...</text>
<text text-anchor="start" x="35" y="-37" font-family="Helvetica,sans-Serif" font-size="10.00">#</text>
<text text-anchor="start" x="48" y="-37" font-family="Helvetica,sans-Serif" font-size="10.00">CreateName()</text>
<text text-anchor="start" x="35" y="-22" font-family="Helvetica,sans-Serif" font-size="10.00">#</text>
<text text-anchor="start" x="48" y="-22" font-family="Helvetica,sans-Serif" font-size="10.00">FindF2()</text>
<text text-anchor="start" x="37.5" y="-7" font-family="Helvetica,sans-Serif" font-size="10.00">&#45;</text>
<text text-anchor="start" x="48" y="-7" font-family="Helvetica,sans-Serif" font-size="10.00">MaxLength()</text>
<polygon fill="#666666" stroke="#666666" points="31,-227 31,-227 123,-227 123,-227 31,-227"/>
<polygon fill="#666666" stroke="#666666" points="31,-212 31,-212 46,-212 46,-212 31,-212"/>
<polygon fill="#666666" stroke="#666666" points="46,-212 46,-212 123,-212 123,-212 46,-212"/>
<polygon fill="none" stroke="#666666" points="31,0 31,-244 123,-244 123,0 31,0"/>
</a>
</g>
</g>
<!-- Node2 -->
<g id="Node000002" class="node">
<title>Node2</title>
<g id="a_Node000002"><a xlink:href="../../d9/d54/classVAbstractArc.html" target="_top" xlink:title=" ">
<polygon fill="white" stroke="transparent" points="136,-524 18,-524 18,-280 136,-280 136,-524"/>
<text text-anchor="start" x="45.5" y="-512" font-family="Helvetica,sans-Serif" font-size="10.00">VAbstractArc</text>
<text text-anchor="start" x="24.5" y="-497" font-family="Helvetica,sans-Serif" font-size="10.00">&#45;</text>
<text text-anchor="start" x="35" y="-497" font-family="Helvetica,sans-Serif" font-size="10.00">d</text>
<text text-anchor="start" x="22" y="-482" font-family="Helvetica,sans-Serif" font-size="10.00">+</text>
<text text-anchor="start" x="35" y="-482" font-family="Helvetica,sans-Serif" font-size="10.00">VAbstractArc()</text>
<text text-anchor="start" x="22" y="-467" font-family="Helvetica,sans-Serif" font-size="10.00">+</text>
<text text-anchor="start" x="35" y="-467" font-family="Helvetica,sans-Serif" font-size="10.00">VAbstractArc()</text>
<text text-anchor="start" x="22" y="-452" font-family="Helvetica,sans-Serif" font-size="10.00">+</text>
<text text-anchor="start" x="35" y="-452" font-family="Helvetica,sans-Serif" font-size="10.00">VAbstractArc()</text>
<text text-anchor="start" x="22" y="-437" font-family="Helvetica,sans-Serif" font-size="10.00">+</text>
<text text-anchor="start" x="35" y="-437" font-family="Helvetica,sans-Serif" font-size="10.00">VAbstractArc()</text>
<text text-anchor="start" x="22" y="-422" font-family="Helvetica,sans-Serif" font-size="10.00">+</text>
<text text-anchor="start" x="35" y="-422" font-family="Helvetica,sans-Serif" font-size="10.00">VAbstractArc()</text>
<text text-anchor="start" x="22" y="-407" font-family="Helvetica,sans-Serif" font-size="10.00">+</text>
<text text-anchor="start" x="35" y="-407" font-family="Helvetica,sans-Serif" font-size="10.00">VAbstractArc()</text>
<text text-anchor="start" x="22" y="-392" font-family="Helvetica,sans-Serif" font-size="10.00">+</text>
<text text-anchor="start" x="35" y="-392" font-family="Helvetica,sans-Serif" font-size="10.00">~VAbstractArc()</text>
<text text-anchor="start" x="22" y="-377" font-family="Helvetica,sans-Serif" font-size="10.00">+</text>
<text text-anchor="start" x="35" y="-377" font-family="Helvetica,sans-Serif" font-size="10.00">operator=()</text>
<text text-anchor="start" x="22" y="-362" font-family="Helvetica,sans-Serif" font-size="10.00">+</text>
<text text-anchor="start" x="35" y="-362" font-family="Helvetica,sans-Serif" font-size="10.00">Swap()</text>
<text text-anchor="start" x="22" y="-347" font-family="Helvetica,sans-Serif" font-size="10.00">+</text>
<text text-anchor="start" x="35" y="-347" font-family="Helvetica,sans-Serif" font-size="10.00">GetFormulaF1()</text>
<text text-anchor="start" x="35" y="-332" font-family="Helvetica,sans-Serif" font-size="10.00">and 13 more...</text>
<text text-anchor="start" x="22" y="-317" font-family="Helvetica,sans-Serif" font-size="10.00">#</text>
<text text-anchor="start" x="35" y="-317" font-family="Helvetica,sans-Serif" font-size="10.00">SetFlipped()</text>
<text text-anchor="start" x="22" y="-302" font-family="Helvetica,sans-Serif" font-size="10.00">#</text>
<text text-anchor="start" x="35" y="-302" font-family="Helvetica,sans-Serif" font-size="10.00">FindF2()</text>
<text text-anchor="start" x="22" y="-287" font-family="Helvetica,sans-Serif" font-size="10.00">#</text>
<text text-anchor="start" x="35" y="-287" font-family="Helvetica,sans-Serif" font-size="10.00">SetFormulaLength()</text>
<polygon fill="#666666" stroke="#666666" points="18,-507 18,-507 136,-507 136,-507 18,-507"/>
<polygon fill="#666666" stroke="#666666" points="18,-492 18,-492 33,-492 33,-492 18,-492"/>
<polygon fill="#666666" stroke="#666666" points="33,-492 33,-492 136,-492 136,-492 33,-492"/>
<polygon fill="none" stroke="#666666" points="18,-280 18,-524 136,-524 136,-280 18,-280"/>
</a>
</g>
</g>
<!-- Node2&#45;&gt;Node1 -->
<g id="edge1_Node000001_Node000002" class="edge">
<title>Node2&#45;&gt;Node1</title>
<g id="a_edge1_Node000001_Node000002"><a xlink:title=" ">
<path fill="none" stroke="#63b8ff" d="M77,-269.84C77,-261.27 77,-252.66 77,-244.14"/>
<polygon fill="none" stroke="#63b8ff" points="73.5,-269.87 77,-279.87 80.5,-269.87 73.5,-269.87"/>
</a>
</g>
</g>
<!-- Node3 -->
<g id="Node000003" class="node">
<title>Node3</title>
<g id="a_Node000003"><a xlink:href="../../dc/d55/classVAbstractCurve.html" target="_top" xlink:title=" ">
<polygon fill="white" stroke="transparent" points="154,-894 0,-894 0,-560 154,-560 154,-894"/>
<text text-anchor="start" x="39" y="-882" font-family="Helvetica,sans-Serif" font-size="10.00">VAbstractCurve</text>
<text text-anchor="start" x="4" y="-867" font-family="Helvetica,sans-Serif" font-size="10.00">+</text>
<text text-anchor="start" x="17" y="-867" font-family="Helvetica,sans-Serif" font-size="10.00">lengthCurveDirectionArrow</text>
<text text-anchor="start" x="6.5" y="-852" font-family="Helvetica,sans-Serif" font-size="10.00">&#45;</text>
<text text-anchor="start" x="17" y="-852" font-family="Helvetica,sans-Serif" font-size="10.00">d</text>
<text text-anchor="start" x="4" y="-837" font-family="Helvetica,sans-Serif" font-size="10.00">+</text>
<text text-anchor="start" x="17" y="-837" font-family="Helvetica,sans-Serif" font-size="10.00">VAbstractCurve()</text>
<text text-anchor="start" x="4" y="-822" font-family="Helvetica,sans-Serif" font-size="10.00">+</text>
<text text-anchor="start" x="17" y="-822" font-family="Helvetica,sans-Serif" font-size="10.00">VAbstractCurve()</text>
<text text-anchor="start" x="4" y="-807" font-family="Helvetica,sans-Serif" font-size="10.00">+</text>
<text text-anchor="start" x="17" y="-807" font-family="Helvetica,sans-Serif" font-size="10.00">~VAbstractCurve()</text>
<text text-anchor="start" x="4" y="-792" font-family="Helvetica,sans-Serif" font-size="10.00">+</text>
<text text-anchor="start" x="17" y="-792" font-family="Helvetica,sans-Serif" font-size="10.00">operator=()</text>
<text text-anchor="start" x="4" y="-777" font-family="Helvetica,sans-Serif" font-size="10.00">+</text>
<text text-anchor="start" x="17" y="-777" font-family="Helvetica,sans-Serif" font-size="10.00">Swap()</text>
<text text-anchor="start" x="4" y="-762" font-family="Helvetica,sans-Serif" font-size="10.00">+</text>
<text text-anchor="start" x="17" y="-762" font-family="Helvetica,sans-Serif" font-size="10.00">getPoints()</text>
<text text-anchor="start" x="4" y="-747" font-family="Helvetica,sans-Serif" font-size="10.00">+</text>
<text text-anchor="start" x="17" y="-747" font-family="Helvetica,sans-Serif" font-size="10.00">GetSegmentPoints()</text>
<text text-anchor="start" x="4" y="-732" font-family="Helvetica,sans-Serif" font-size="10.00">+</text>
<text text-anchor="start" x="17" y="-732" font-family="Helvetica,sans-Serif" font-size="10.00">GetPath()</text>
<text text-anchor="start" x="4" y="-717" font-family="Helvetica,sans-Serif" font-size="10.00">+</text>
<text text-anchor="start" x="17" y="-717" font-family="Helvetica,sans-Serif" font-size="10.00">GetLength()</text>
<text text-anchor="start" x="4" y="-702" font-family="Helvetica,sans-Serif" font-size="10.00">+</text>
<text text-anchor="start" x="17" y="-702" font-family="Helvetica,sans-Serif" font-size="10.00">GetLengthByPoint()</text>
<text text-anchor="start" x="17" y="-687" font-family="Helvetica,sans-Serif" font-size="10.00">and 17 more...</text>
<text text-anchor="start" x="4" y="-672" font-family="Helvetica,sans-Serif" font-size="10.00">+</text>
<text text-anchor="start" x="17" y="-672" font-family="Helvetica,sans-Serif" font-size="10.00">GetSegmentPoints()</text>
<text text-anchor="start" x="4" y="-657" font-family="Helvetica,sans-Serif" font-size="10.00">+</text>
<text text-anchor="start" x="17" y="-657" font-family="Helvetica,sans-Serif" font-size="10.00">isPointOnCurve()</text>
<text text-anchor="start" x="4" y="-642" font-family="Helvetica,sans-Serif" font-size="10.00">+</text>
<text text-anchor="start" x="17" y="-642" font-family="Helvetica,sans-Serif" font-size="10.00">PathLength()</text>
<text text-anchor="start" x="4" y="-627" font-family="Helvetica,sans-Serif" font-size="10.00">+</text>
<text text-anchor="start" x="17" y="-627" font-family="Helvetica,sans-Serif" font-size="10.00">CurveIntersectLine()</text>
<text text-anchor="start" x="4" y="-612" font-family="Helvetica,sans-Serif" font-size="10.00">+</text>
<text text-anchor="start" x="17" y="-612" font-family="Helvetica,sans-Serif" font-size="10.00">ShowDirection()</text>
<text text-anchor="start" x="4" y="-597" font-family="Helvetica,sans-Serif" font-size="10.00">#</text>
<text text-anchor="start" x="17" y="-597" font-family="Helvetica,sans-Serif" font-size="10.00">CreateName()</text>
<text text-anchor="start" x="6.5" y="-582" font-family="Helvetica,sans-Serif" font-size="10.00">&#45;</text>
<text text-anchor="start" x="17" y="-582" font-family="Helvetica,sans-Serif" font-size="10.00">FromBegin()</text>
<text text-anchor="start" x="6.5" y="-567" font-family="Helvetica,sans-Serif" font-size="10.00">&#45;</text>
<text text-anchor="start" x="17" y="-567" font-family="Helvetica,sans-Serif" font-size="10.00">ToEnd()</text>
<polygon fill="#666666" stroke="#666666" points="0,-877 0,-877 154,-877 154,-877 0,-877"/>
<polygon fill="#666666" stroke="#666666" points="0,-847 0,-847 15,-847 15,-847 0,-847"/>
<polygon fill="#666666" stroke="#666666" points="15,-847 15,-847 154,-847 154,-847 15,-847"/>
<polygon fill="none" stroke="#666666" points="0,-560 0,-894 154,-894 154,-560 0,-560"/>
</a>
</g>
</g>
<!-- Node3&#45;&gt;Node2 -->
<g id="edge2_Node000002_Node000003" class="edge">
<title>Node3&#45;&gt;Node2</title>
<g id="a_edge2_Node000002_Node000003"><a xlink:title=" ">
<path fill="none" stroke="#63b8ff" d="M77,-549.74C77,-541.21 77,-532.74 77,-524.42"/>
<polygon fill="none" stroke="#63b8ff" points="73.5,-549.77 77,-559.77 80.5,-549.77 73.5,-549.77"/>
</a>
</g>
</g>
<!-- Node4 -->
<g id="Node000004" class="node">
<title>Node4</title>
<g id="a_Node000004"><a xlink:href="../../d1/de7/classVGObject.html" target="_top" xlink:title="The VGObject class keep information graphical objects.">
<polygon fill="white" stroke="transparent" points="146.5,-1429 7.5,-1429 7.5,-930 146.5,-930 146.5,-1429"/>
<text text-anchor="start" x="54.5" y="-1416.5" font-family="Helvetica,sans-Serif" font-size="10.00">VGObject</text>
<text text-anchor="start" x="12" y="-1401.5" font-family="Helvetica,sans-Serif" font-size="10.00">+</text>
<text text-anchor="start" x="25" y="-1401.5" font-family="Helvetica,sans-Serif" font-size="10.00">accuracyPointOnLine</text>
<text text-anchor="start" x="14.5" y="-1386.5" font-family="Helvetica,sans-Serif" font-size="10.00">&#45;</text>
<text text-anchor="start" x="25" y="-1386.5" font-family="Helvetica,sans-Serif" font-size="10.00">d</text>
<text text-anchor="start" x="12" y="-1371.5" font-family="Helvetica,sans-Serif" font-size="10.00">+</text>
<text text-anchor="start" x="25" y="-1371.5" font-family="Helvetica,sans-Serif" font-size="10.00">VGObject()</text>
<text text-anchor="start" x="12" y="-1356.5" font-family="Helvetica,sans-Serif" font-size="10.00">+</text>
<text text-anchor="start" x="25" y="-1356.5" font-family="Helvetica,sans-Serif" font-size="10.00">VGObject()</text>
<text text-anchor="start" x="12" y="-1341.5" font-family="Helvetica,sans-Serif" font-size="10.00">+</text>
<text text-anchor="start" x="25" y="-1341.5" font-family="Helvetica,sans-Serif" font-size="10.00">VGObject()</text>
<text text-anchor="start" x="12" y="-1326.5" font-family="Helvetica,sans-Serif" font-size="10.00">+</text>
<text text-anchor="start" x="25" y="-1326.5" font-family="Helvetica,sans-Serif" font-size="10.00">~VGObject()</text>
<text text-anchor="start" x="12" y="-1311.5" font-family="Helvetica,sans-Serif" font-size="10.00">+</text>
<text text-anchor="start" x="25" y="-1311.5" font-family="Helvetica,sans-Serif" font-size="10.00">operator=()</text>
<text text-anchor="start" x="12" y="-1296.5" font-family="Helvetica,sans-Serif" font-size="10.00">+</text>
<text text-anchor="start" x="25" y="-1296.5" font-family="Helvetica,sans-Serif" font-size="10.00">Swap()</text>
<text text-anchor="start" x="12" y="-1281.5" font-family="Helvetica,sans-Serif" font-size="10.00">+</text>
<text text-anchor="start" x="25" y="-1281.5" font-family="Helvetica,sans-Serif" font-size="10.00">getIdObject()</text>
<text text-anchor="start" x="12" y="-1266.5" font-family="Helvetica,sans-Serif" font-size="10.00">+</text>
<text text-anchor="start" x="25" y="-1266.5" font-family="Helvetica,sans-Serif" font-size="10.00">setIdObject()</text>
<text text-anchor="start" x="12" y="-1251.5" font-family="Helvetica,sans-Serif" font-size="10.00">+</text>
<text text-anchor="start" x="25" y="-1251.5" font-family="Helvetica,sans-Serif" font-size="10.00">name()</text>
<text text-anchor="start" x="12" y="-1236.5" font-family="Helvetica,sans-Serif" font-size="10.00">+</text>
<text text-anchor="start" x="25" y="-1236.5" font-family="Helvetica,sans-Serif" font-size="10.00">setName()</text>
<text text-anchor="start" x="25" y="-1221.5" font-family="Helvetica,sans-Serif" font-size="10.00">and 7 more...</text>
<text text-anchor="start" x="12" y="-1206.5" font-family="Helvetica,sans-Serif" font-size="10.00">+</text>
<text text-anchor="start" x="25" y="-1206.5" font-family="Helvetica,sans-Serif" font-size="10.00">BuildLine()</text>
<text text-anchor="start" x="12" y="-1191.5" font-family="Helvetica,sans-Serif" font-size="10.00">+</text>
<text text-anchor="start" x="25" y="-1191.5" font-family="Helvetica,sans-Serif" font-size="10.00">BuildRay()</text>
<text text-anchor="start" x="12" y="-1176.5" font-family="Helvetica,sans-Serif" font-size="10.00">+</text>
<text text-anchor="start" x="25" y="-1176.5" font-family="Helvetica,sans-Serif" font-size="10.00">BuildAxis()</text>
<text text-anchor="start" x="12" y="-1161.5" font-family="Helvetica,sans-Serif" font-size="10.00">+</text>
<text text-anchor="start" x="25" y="-1161.5" font-family="Helvetica,sans-Serif" font-size="10.00">BuildAxis()</text>
<text text-anchor="start" x="12" y="-1146.5" font-family="Helvetica,sans-Serif" font-size="10.00">+</text>
<text text-anchor="start" x="25" y="-1146.5" font-family="Helvetica,sans-Serif" font-size="10.00">ContactPoints()</text>
<text text-anchor="start" x="12" y="-1131.5" font-family="Helvetica,sans-Serif" font-size="10.00">+</text>
<text text-anchor="start" x="25" y="-1131.5" font-family="Helvetica,sans-Serif" font-size="10.00">LineIntersectRect()</text>
<text text-anchor="start" x="12" y="-1116.5" font-family="Helvetica,sans-Serif" font-size="10.00">+</text>
<text text-anchor="start" x="25" y="-1116.5" font-family="Helvetica,sans-Serif" font-size="10.00">IntersectionCircles()</text>
<text text-anchor="start" x="12" y="-1101.5" font-family="Helvetica,sans-Serif" font-size="10.00">+</text>
<text text-anchor="start" x="25" y="-1101.5" font-family="Helvetica,sans-Serif" font-size="10.00">LineIntersectCircle()</text>
<text text-anchor="start" x="12" y="-1086.5" font-family="Helvetica,sans-Serif" font-size="10.00">+</text>
<text text-anchor="start" x="25" y="-1086.5" font-family="Helvetica,sans-Serif" font-size="10.00">ClosestPoint()</text>
<text text-anchor="start" x="12" y="-1071.5" font-family="Helvetica,sans-Serif" font-size="10.00">+</text>
<text text-anchor="start" x="25" y="-1071.5" font-family="Helvetica,sans-Serif" font-size="10.00">addVector()</text>
<text text-anchor="start" x="12" y="-1056.5" font-family="Helvetica,sans-Serif" font-size="10.00">+</text>
<text text-anchor="start" x="25" y="-1056.5" font-family="Helvetica,sans-Serif" font-size="10.00">LineCoefficients()</text>
<text text-anchor="start" x="12" y="-1041.5" font-family="Helvetica,sans-Serif" font-size="10.00">+</text>
<text text-anchor="start" x="25" y="-1041.5" font-family="Helvetica,sans-Serif" font-size="10.00">IsPointOnLineSegment()</text>
<text text-anchor="start" x="12" y="-1026.5" font-family="Helvetica,sans-Serif" font-size="10.00">+</text>
<text text-anchor="start" x="25" y="-1026.5" font-family="Helvetica,sans-Serif" font-size="10.00">IsPointOnLineviaPDP()</text>
<text text-anchor="start" x="12" y="-1011.5" font-family="Helvetica,sans-Serif" font-size="10.00">+</text>
<text text-anchor="start" x="25" y="-1011.5" font-family="Helvetica,sans-Serif" font-size="10.00">GetReversePoints()</text>
<text text-anchor="start" x="12" y="-996.5" font-family="Helvetica,sans-Serif" font-size="10.00">+</text>
<text text-anchor="start" x="25" y="-996.5" font-family="Helvetica,sans-Serif" font-size="10.00">GetLengthContour()</text>
<text text-anchor="start" x="12" y="-981.5" font-family="Helvetica,sans-Serif" font-size="10.00">#</text>
<text text-anchor="start" x="25" y="-981.5" font-family="Helvetica,sans-Serif" font-size="10.00">flipTransform()</text>
<text text-anchor="start" x="14.5" y="-966.5" font-family="Helvetica,sans-Serif" font-size="10.00">&#45;</text>
<text text-anchor="start" x="25" y="-966.5" font-family="Helvetica,sans-Serif" font-size="10.00">PerpDotProduct()</text>
<text text-anchor="start" x="14.5" y="-951.5" font-family="Helvetica,sans-Serif" font-size="10.00">&#45;</text>
<text text-anchor="start" x="25" y="-951.5" font-family="Helvetica,sans-Serif" font-size="10.00">GetEpsilon()</text>
<text text-anchor="start" x="14.5" y="-936.5" font-family="Helvetica,sans-Serif" font-size="10.00">&#45;</text>
<text text-anchor="start" x="25" y="-936.5" font-family="Helvetica,sans-Serif" font-size="10.00">PointInCircle()</text>
<polygon fill="#666666" stroke="#666666" points="8,-1411.5 8,-1411.5 147,-1411.5 147,-1411.5 8,-1411.5"/>
<polygon fill="#666666" stroke="#666666" points="8,-1381.5 8,-1381.5 23,-1381.5 23,-1381.5 8,-1381.5"/>
<polygon fill="#666666" stroke="#666666" points="23,-1381.5 23,-1381.5 147,-1381.5 147,-1381.5 23,-1381.5"/>
<polygon fill="none" stroke="#666666" points="7.5,-930 7.5,-1429 146.5,-1429 146.5,-930 7.5,-930"/>
</a>
</g>
</g>
<!-- Node4&#45;&gt;Node3 -->
<g id="edge3_Node000003_Node000004" class="edge">
<title>Node4&#45;&gt;Node3</title>
<g id="a_edge3_Node000003_Node000004"><a xlink:title=" ">
<path fill="none" stroke="#63b8ff" d="M77,-919.74C77,-911.15 77,-902.62 77,-894.21"/>
<polygon fill="none" stroke="#63b8ff" points="73.5,-919.86 77,-929.86 80.5,-919.86 73.5,-919.86"/>
</a>
</g>
</g>
</g>
</svg>
