<?xml version="1.0" encoding="UTF-8" standalone="no"?>
<!DOCTYPE svg PUBLIC "-//W3C//DTD SVG 1.1//EN"
 "http://www.w3.org/Graphics/SVG/1.1/DTD/svg11.dtd">
<!-- Generated by graphviz version 2.43.0 (0)
 -->
<!-- Title: VToolArcWithLength Pages: 1 -->
<!--zoomable 2787 -->

<svg id="main" version="1.1" xmlns="http://www.w3.org/2000/svg" xmlns:xlink="http://www.w3.org/1999/xlink" xml:space="preserve" onload="init(evt)">
<style type="text/css"><![CDATA[
.node, .edge {opacity: 0.7;}
.node.selected, .edge.selected {opacity: 1;}
.edge:hover path { stroke: red; }
.edge:hover polygon { stroke: red; fill: red; }
]]></style>

<defs>
  <circle id="rim" cx="0" cy="0" r="7"/>
  <circle id="rim2" cx="0" cy="0" r="3.5"/>
  <g id="zoomPlus">
    <use xlink:href="#rim" fill="#404040"><set attributeName="fill" to="#808080" begin="zoomplus.mouseover" end="zoomplus.mouseout"/></use>
    <path d="M-4,0h8M0,-4v8" fill="none" stroke="white" stroke-width="1.5" pointer-events="none"/>
  </g>
  <g id="zoomMin">
    <use xlink:href="#rim" fill="#404040"><set attributeName="fill" to="#808080" begin="zoomminus.mouseover" end="zoomminus.mouseout"/></use>
    <path d="M-4,0h8" fill="none" stroke="white" stroke-width="1.5" pointer-events="none"/>
  </g>
  <g id="arrowUp" transform="translate(30 24)">
    <use xlink:href="#rim"/>
    <path pointer-events="none" fill="none" stroke="white" stroke-width="1.5" d="M0,-3.0v7 M-2.5,-0.5L0,-3.0L2.5,-0.5"/>
  </g>
  <g id="arrowRight" transform="rotate(90) translate(36 -43)">
    <use xlink:href="#rim"/>
    <path pointer-events="none" fill="none" stroke="white" stroke-width="1.5" d="M0,-3.0v7 M-2.5,-0.5L0,-3.0L2.5,-0.5"/>
  </g>
  <g id="arrowDown" transform="rotate(180) translate(-30 -48)">
    <use xlink:href="#rim"/>
    <path pointer-events="none" fill="none" stroke="white" stroke-width="1.5" d="M0,-3.0v7 M-2.5,-0.5L0,-3.0L2.5,-0.5"/>
  </g>
  <g id="arrowLeft" transform="rotate(270) translate(-36 17)">
    <use xlink:href="#rim"/>
    <path pointer-events="none" fill="none" stroke="white" stroke-width="1.5" d="M0,-3.0v7 M-2.5,-0.5L0,-3.0L2.5,-0.5"/>
  </g>
  <g id="resetDef">
    <use xlink:href="#rim2" fill="#404040"><set attributeName="fill" to="#808080" begin="reset.mouseover" end="reset.mouseout"/></use>
  </g>
</defs>
<script type="application/ecmascript">
var viewWidth = 290;
var viewHeight = 2787;
var sectionId = 'dynsection-0';
</script>
<script type="application/ecmascript" xlink:href="../../svg.min.js"/>
<svg id="graph" class="graph">
<g id="viewport">
<title>VToolArcWithLength</title>
<!-- Node1 -->
<g id="Node000001" class="node">
<title>Node1</title>
<g id="a_Node000001"><a xlink:title=" ">
<polygon fill="#999999" stroke="transparent" points="218.5,-364 91.5,-364 91.5,0 218.5,0 218.5,-364"/>
<text text-anchor="start" x="106.5" y="-352" font-family="Helvetica,sans-Serif" font-size="10.00">VToolArcWithLength</text>
<text text-anchor="start" x="96" y="-337" font-family="Helvetica,sans-Serif" font-size="10.00">+</text>
<text text-anchor="start" x="109" y="-337" font-family="Helvetica,sans-Serif" font-size="10.00">ToolType</text>
<text text-anchor="start" x="96" y="-322" font-family="Helvetica,sans-Serif" font-size="10.00">+</text>
<text text-anchor="start" x="109" y="-322" font-family="Helvetica,sans-Serif" font-size="10.00">setDialog()</text>
<text text-anchor="start" x="96" y="-307" font-family="Helvetica,sans-Serif" font-size="10.00">+</text>
<text text-anchor="start" x="109" y="-307" font-family="Helvetica,sans-Serif" font-size="10.00">type()</text>
<text text-anchor="start" x="96" y="-292" font-family="Helvetica,sans-Serif" font-size="10.00">+</text>
<text text-anchor="start" x="109" y="-292" font-family="Helvetica,sans-Serif" font-size="10.00">getTagName()</text>
<text text-anchor="start" x="96" y="-277" font-family="Helvetica,sans-Serif" font-size="10.00">+</text>
<text text-anchor="start" x="109" y="-277" font-family="Helvetica,sans-Serif" font-size="10.00">CenterPointName()</text>
<text text-anchor="start" x="96" y="-262" font-family="Helvetica,sans-Serif" font-size="10.00">+</text>
<text text-anchor="start" x="109" y="-262" font-family="Helvetica,sans-Serif" font-size="10.00">getCenter()</text>
<text text-anchor="start" x="96" y="-247" font-family="Helvetica,sans-Serif" font-size="10.00">+</text>
<text text-anchor="start" x="109" y="-247" font-family="Helvetica,sans-Serif" font-size="10.00">setCenter()</text>
<text text-anchor="start" x="96" y="-232" font-family="Helvetica,sans-Serif" font-size="10.00">+</text>
<text text-anchor="start" x="109" y="-232" font-family="Helvetica,sans-Serif" font-size="10.00">GetFormulaRadius()</text>
<text text-anchor="start" x="96" y="-217" font-family="Helvetica,sans-Serif" font-size="10.00">+</text>
<text text-anchor="start" x="109" y="-217" font-family="Helvetica,sans-Serif" font-size="10.00">SetFormulaRadius()</text>
<text text-anchor="start" x="96" y="-202" font-family="Helvetica,sans-Serif" font-size="10.00">+</text>
<text text-anchor="start" x="109" y="-202" font-family="Helvetica,sans-Serif" font-size="10.00">GetFormulaF1()</text>
<text text-anchor="start" x="96" y="-187" font-family="Helvetica,sans-Serif" font-size="10.00">+</text>
<text text-anchor="start" x="109" y="-187" font-family="Helvetica,sans-Serif" font-size="10.00">SetFormulaF1()</text>
<text text-anchor="start" x="96" y="-172" font-family="Helvetica,sans-Serif" font-size="10.00">+</text>
<text text-anchor="start" x="109" y="-172" font-family="Helvetica,sans-Serif" font-size="10.00">GetFormulaLength()</text>
<text text-anchor="start" x="96" y="-157" font-family="Helvetica,sans-Serif" font-size="10.00">+</text>
<text text-anchor="start" x="109" y="-157" font-family="Helvetica,sans-Serif" font-size="10.00">SetFormulaLength()</text>
<text text-anchor="start" x="96" y="-142" font-family="Helvetica,sans-Serif" font-size="10.00">+</text>
<text text-anchor="start" x="109" y="-142" font-family="Helvetica,sans-Serif" font-size="10.00">ShowVisualization()</text>
<text text-anchor="start" x="96" y="-127" font-family="Helvetica,sans-Serif" font-size="10.00">+</text>
<text text-anchor="start" x="109" y="-127" font-family="Helvetica,sans-Serif" font-size="10.00">Create()</text>
<text text-anchor="start" x="96" y="-112" font-family="Helvetica,sans-Serif" font-size="10.00">+</text>
<text text-anchor="start" x="109" y="-112" font-family="Helvetica,sans-Serif" font-size="10.00">Create()</text>
<text text-anchor="start" x="96" y="-97" font-family="Helvetica,sans-Serif" font-size="10.00">#</text>
<text text-anchor="start" x="109" y="-97" font-family="Helvetica,sans-Serif" font-size="10.00">RemoveReferens()</text>
<text text-anchor="start" x="96" y="-82" font-family="Helvetica,sans-Serif" font-size="10.00">#</text>
<text text-anchor="start" x="109" y="-82" font-family="Helvetica,sans-Serif" font-size="10.00">SaveDialog()</text>
<text text-anchor="start" x="96" y="-67" font-family="Helvetica,sans-Serif" font-size="10.00">#</text>
<text text-anchor="start" x="109" y="-67" font-family="Helvetica,sans-Serif" font-size="10.00">SaveOptions()</text>
<text text-anchor="start" x="96" y="-52" font-family="Helvetica,sans-Serif" font-size="10.00">#</text>
<text text-anchor="start" x="109" y="-52" font-family="Helvetica,sans-Serif" font-size="10.00">SetVisualization()</text>
<text text-anchor="start" x="96" y="-37" font-family="Helvetica,sans-Serif" font-size="10.00">#</text>
<text text-anchor="start" x="109" y="-37" font-family="Helvetica,sans-Serif" font-size="10.00">makeToolTip()</text>
<text text-anchor="start" x="96" y="-22" font-family="Helvetica,sans-Serif" font-size="10.00">#</text>
<text text-anchor="start" x="109" y="-22" font-family="Helvetica,sans-Serif" font-size="10.00">showContextMenu()</text>
<text text-anchor="start" x="98.5" y="-7" font-family="Helvetica,sans-Serif" font-size="10.00">&#45;</text>
<text text-anchor="start" x="109" y="-7" font-family="Helvetica,sans-Serif" font-size="10.00">VToolArcWithLength()</text>
<polygon fill="#666666" stroke="#666666" points="92,-347 92,-347 219,-347 219,-347 92,-347"/>
<polygon fill="#666666" stroke="#666666" points="92,-332 92,-332 107,-332 107,-332 92,-332"/>
<polygon fill="#666666" stroke="#666666" points="107,-332 107,-332 219,-332 219,-332 107,-332"/>
<polygon fill="none" stroke="#666666" points="91.5,0 91.5,-364 218.5,-364 218.5,0 91.5,0"/>
</a>
</g>
</g>
<!-- Node2 -->
<g id="Node000002" class="node">
<title>Node2</title>
<g id="a_Node000002"><a xlink:href="../../d3/d64/classVAbstractSpline.html" target="_top" xlink:title=" ">
<polygon fill="white" stroke="transparent" points="242.5,-1079 67.5,-1079 67.5,-400 242.5,-400 242.5,-1079"/>
<text text-anchor="start" x="117" y="-1066.5" font-family="Helvetica,sans-Serif" font-size="10.00">VAbstractSpline</text>
<text text-anchor="start" x="72" y="-1051.5" font-family="Helvetica,sans-Serif" font-size="10.00">#</text>
<text text-anchor="start" x="85" y="-1051.5" font-family="Helvetica,sans-Serif" font-size="10.00">m_controlPoints</text>
<text text-anchor="start" x="72" y="-1036.5" font-family="Helvetica,sans-Serif" font-size="10.00">#</text>
<text text-anchor="start" x="85" y="-1036.5" font-family="Helvetica,sans-Serif" font-size="10.00">m_sceneType</text>
<text text-anchor="start" x="72" y="-1021.5" font-family="Helvetica,sans-Serif" font-size="10.00">#</text>
<text text-anchor="start" x="85" y="-1021.5" font-family="Helvetica,sans-Serif" font-size="10.00">m_isHovered</text>
<text text-anchor="start" x="72" y="-1006.5" font-family="Helvetica,sans-Serif" font-size="10.00">#</text>
<text text-anchor="start" x="85" y="-1006.5" font-family="Helvetica,sans-Serif" font-size="10.00">m_piecesMode</text>
<text text-anchor="start" x="72" y="-991.5" font-family="Helvetica,sans-Serif" font-size="10.00">+</text>
<text text-anchor="start" x="85" y="-991.5" font-family="Helvetica,sans-Serif" font-size="10.00">VAbstractSpline()</text>
<text text-anchor="start" x="72" y="-976.5" font-family="Helvetica,sans-Serif" font-size="10.00">+</text>
<text text-anchor="start" x="85" y="-976.5" font-family="Helvetica,sans-Serif" font-size="10.00">~VAbstractSpline()</text>
<text text-anchor="start" x="72" y="-961.5" font-family="Helvetica,sans-Serif" font-size="10.00">+</text>
<text text-anchor="start" x="85" y="-961.5" font-family="Helvetica,sans-Serif" font-size="10.00">shape()</text>
<text text-anchor="start" x="72" y="-946.5" font-family="Helvetica,sans-Serif" font-size="10.00">+</text>
<text text-anchor="start" x="85" y="-946.5" font-family="Helvetica,sans-Serif" font-size="10.00">paint()</text>
<text text-anchor="start" x="72" y="-931.5" font-family="Helvetica,sans-Serif" font-size="10.00">+</text>
<text text-anchor="start" x="85" y="-931.5" font-family="Helvetica,sans-Serif" font-size="10.00">type()</text>
<text text-anchor="start" x="72" y="-916.5" font-family="Helvetica,sans-Serif" font-size="10.00">+</text>
<text text-anchor="start" x="85" y="-916.5" font-family="Helvetica,sans-Serif" font-size="10.00">getTagName()</text>
<text text-anchor="start" x="72" y="-901.5" font-family="Helvetica,sans-Serif" font-size="10.00">+</text>
<text text-anchor="start" x="85" y="-901.5" font-family="Helvetica,sans-Serif" font-size="10.00">showHandles()</text>
<text text-anchor="start" x="72" y="-886.5" font-family="Helvetica,sans-Serif" font-size="10.00">+</text>
<text text-anchor="start" x="85" y="-886.5" font-family="Helvetica,sans-Serif" font-size="10.00">getLineColor()</text>
<text text-anchor="start" x="72" y="-871.5" font-family="Helvetica,sans-Serif" font-size="10.00">+</text>
<text text-anchor="start" x="85" y="-871.5" font-family="Helvetica,sans-Serif" font-size="10.00">setLineColor()</text>
<text text-anchor="start" x="72" y="-856.5" font-family="Helvetica,sans-Serif" font-size="10.00">+</text>
<text text-anchor="start" x="85" y="-856.5" font-family="Helvetica,sans-Serif" font-size="10.00">GetPenStyle()</text>
<text text-anchor="start" x="72" y="-841.5" font-family="Helvetica,sans-Serif" font-size="10.00">+</text>
<text text-anchor="start" x="85" y="-841.5" font-family="Helvetica,sans-Serif" font-size="10.00">SetPenStyle()</text>
<text text-anchor="start" x="72" y="-826.5" font-family="Helvetica,sans-Serif" font-size="10.00">+</text>
<text text-anchor="start" x="85" y="-826.5" font-family="Helvetica,sans-Serif" font-size="10.00">getLineWeight()</text>
<text text-anchor="start" x="72" y="-811.5" font-family="Helvetica,sans-Serif" font-size="10.00">+</text>
<text text-anchor="start" x="85" y="-811.5" font-family="Helvetica,sans-Serif" font-size="10.00">setLineWeight()</text>
<text text-anchor="start" x="72" y="-796.5" font-family="Helvetica,sans-Serif" font-size="10.00">+</text>
<text text-anchor="start" x="85" y="-796.5" font-family="Helvetica,sans-Serif" font-size="10.00">name()</text>
<text text-anchor="start" x="72" y="-781.5" font-family="Helvetica,sans-Serif" font-size="10.00">+</text>
<text text-anchor="start" x="85" y="-781.5" font-family="Helvetica,sans-Serif" font-size="10.00">GroupVisibility()</text>
<text text-anchor="start" x="72" y="-766.5" font-family="Helvetica,sans-Serif" font-size="10.00">+</text>
<text text-anchor="start" x="85" y="-766.5" font-family="Helvetica,sans-Serif" font-size="10.00">FullUpdateFromFile()</text>
<text text-anchor="start" x="72" y="-751.5" font-family="Helvetica,sans-Serif" font-size="10.00">+</text>
<text text-anchor="start" x="85" y="-751.5" font-family="Helvetica,sans-Serif" font-size="10.00">Disable()</text>
<text text-anchor="start" x="72" y="-736.5" font-family="Helvetica,sans-Serif" font-size="10.00">+</text>
<text text-anchor="start" x="85" y="-736.5" font-family="Helvetica,sans-Serif" font-size="10.00">piecesMode()</text>
<text text-anchor="start" x="72" y="-721.5" font-family="Helvetica,sans-Serif" font-size="10.00">+</text>
<text text-anchor="start" x="85" y="-721.5" font-family="Helvetica,sans-Serif" font-size="10.00">AllowHover()</text>
<text text-anchor="start" x="72" y="-706.5" font-family="Helvetica,sans-Serif" font-size="10.00">+</text>
<text text-anchor="start" x="85" y="-706.5" font-family="Helvetica,sans-Serif" font-size="10.00">AllowSelecting()</text>
<text text-anchor="start" x="72" y="-691.5" font-family="Helvetica,sans-Serif" font-size="10.00">+</text>
<text text-anchor="start" x="85" y="-691.5" font-family="Helvetica,sans-Serif" font-size="10.00">makeToolTip()</text>
<text text-anchor="start" x="72" y="-676.5" font-family="Helvetica,sans-Serif" font-size="10.00">#</text>
<text text-anchor="start" x="85" y="-676.5" font-family="Helvetica,sans-Serif" font-size="10.00">refreshGeometry()</text>
<text text-anchor="start" x="72" y="-661.5" font-family="Helvetica,sans-Serif" font-size="10.00">#</text>
<text text-anchor="start" x="85" y="-661.5" font-family="Helvetica,sans-Serif" font-size="10.00">ShowTool()</text>
<text text-anchor="start" x="72" y="-646.5" font-family="Helvetica,sans-Serif" font-size="10.00">#</text>
<text text-anchor="start" x="85" y="-646.5" font-family="Helvetica,sans-Serif" font-size="10.00">hoverEnterEvent()</text>
<text text-anchor="start" x="72" y="-631.5" font-family="Helvetica,sans-Serif" font-size="10.00">#</text>
<text text-anchor="start" x="85" y="-631.5" font-family="Helvetica,sans-Serif" font-size="10.00">hoverLeaveEvent()</text>
<text text-anchor="start" x="72" y="-616.5" font-family="Helvetica,sans-Serif" font-size="10.00">#</text>
<text text-anchor="start" x="85" y="-616.5" font-family="Helvetica,sans-Serif" font-size="10.00">itemChange()</text>
<text text-anchor="start" x="72" y="-601.5" font-family="Helvetica,sans-Serif" font-size="10.00">#</text>
<text text-anchor="start" x="85" y="-601.5" font-family="Helvetica,sans-Serif" font-size="10.00">keyReleaseEvent()</text>
<text text-anchor="start" x="72" y="-586.5" font-family="Helvetica,sans-Serif" font-size="10.00">#</text>
<text text-anchor="start" x="85" y="-586.5" font-family="Helvetica,sans-Serif" font-size="10.00">mousePressEvent()</text>
<text text-anchor="start" x="72" y="-571.5" font-family="Helvetica,sans-Serif" font-size="10.00">#</text>
<text text-anchor="start" x="85" y="-571.5" font-family="Helvetica,sans-Serif" font-size="10.00">mouseReleaseEvent()</text>
<text text-anchor="start" x="72" y="-556.5" font-family="Helvetica,sans-Serif" font-size="10.00">#</text>
<text text-anchor="start" x="85" y="-556.5" font-family="Helvetica,sans-Serif" font-size="10.00">ReadToolAttributes()</text>
<text text-anchor="start" x="72" y="-541.5" font-family="Helvetica,sans-Serif" font-size="10.00">#</text>
<text text-anchor="start" x="85" y="-541.5" font-family="Helvetica,sans-Serif" font-size="10.00">SaveOptions()</text>
<text text-anchor="start" x="72" y="-526.5" font-family="Helvetica,sans-Serif" font-size="10.00">#</text>
<text text-anchor="start" x="85" y="-526.5" font-family="Helvetica,sans-Serif" font-size="10.00">refreshCtrlPoints()</text>
<text text-anchor="start" x="72" y="-511.5" font-family="Helvetica,sans-Serif" font-size="10.00">#</text>
<text text-anchor="start" x="85" y="-511.5" font-family="Helvetica,sans-Serif" font-size="10.00">contextMenuEvent()</text>
<text text-anchor="start" x="72" y="-496.5" font-family="Helvetica,sans-Serif" font-size="10.00">#</text>
<text text-anchor="start" x="85" y="-496.5" font-family="Helvetica,sans-Serif" font-size="10.00">correctedSpline()</text>
<text text-anchor="start" x="72" y="-481.5" font-family="Helvetica,sans-Serif" font-size="10.00">#</text>
<text text-anchor="start" x="85" y="-481.5" font-family="Helvetica,sans-Serif" font-size="10.00">ShowToolVisualization()</text>
<text text-anchor="start" x="72" y="-466.5" font-family="Helvetica,sans-Serif" font-size="10.00">#</text>
<text text-anchor="start" x="85" y="-466.5" font-family="Helvetica,sans-Serif" font-size="10.00">initSplineToolConnections()</text>
<text text-anchor="start" x="72" y="-451.5" font-family="Helvetica,sans-Serif" font-size="10.00">#</text>
<text text-anchor="start" x="85" y="-451.5" font-family="Helvetica,sans-Serif" font-size="10.00">initSplinePathToolConnections()</text>
<text text-anchor="start" x="72" y="-436.5" font-family="Helvetica,sans-Serif" font-size="10.00">#</text>
<text text-anchor="start" x="85" y="-436.5" font-family="Helvetica,sans-Serif" font-size="10.00">initArcToolConnections()</text>
<text text-anchor="start" x="72" y="-421.5" font-family="Helvetica,sans-Serif" font-size="10.00">#</text>
<text text-anchor="start" x="85" y="-421.5" font-family="Helvetica,sans-Serif" font-size="10.00">initElArcToolConnections()</text>
<text text-anchor="start" x="74.5" y="-406.5" font-family="Helvetica,sans-Serif" font-size="10.00">&#45;</text>
<text text-anchor="start" x="85" y="-406.5" font-family="Helvetica,sans-Serif" font-size="10.00">initDefShape()</text>
<polygon fill="#666666" stroke="#666666" points="68,-1061.5 68,-1061.5 243,-1061.5 243,-1061.5 68,-1061.5"/>
<polygon fill="#666666" stroke="#666666" points="68,-1001.5 68,-1001.5 83,-1001.5 83,-1001.5 68,-1001.5"/>
<polygon fill="#666666" stroke="#666666" points="83,-1001.5 83,-1001.5 243,-1001.5 243,-1001.5 83,-1001.5"/>
<polygon fill="none" stroke="#666666" points="67.5,-400 67.5,-1079 242.5,-1079 242.5,-400 67.5,-400"/>
</a>
</g>
</g>
<!-- Node2&#45;&gt;Node1 -->
<g id="edge1_Node000001_Node000002" class="edge">
<title>Node2&#45;&gt;Node1</title>
<g id="a_edge1_Node000001_Node000002"><a xlink:title=" ">
<path fill="none" stroke="#63b8ff" d="M155,-389.59C155,-380.96 155,-372.43 155,-364.04"/>
<polygon fill="none" stroke="#63b8ff" points="151.5,-389.76 155,-399.76 158.5,-389.76 151.5,-389.76"/>
</a>
</g>
</g>
<!-- Node3 -->
<g id="Node000003" class="node">
<title>Node3</title>
<g id="a_Node000003"><a xlink:href="../../d2/df2/classVDrawTool.html" target="_top" xlink:title="The VDrawTool abstract class for all draw tool.">
<polygon fill="white" stroke="transparent" points="160,-1629 0,-1629 0,-1115 160,-1115 160,-1629"/>
<text text-anchor="start" x="54" y="-1617" font-family="Helvetica,sans-Serif" font-size="10.00">VDrawTool</text>
<text text-anchor="start" x="4" y="-1602" font-family="Helvetica,sans-Serif" font-size="10.00">#</text>
<text text-anchor="start" x="17" y="-1602" font-family="Helvetica,sans-Serif" font-size="10.00">activeBlockName</text>
<text text-anchor="start" x="4" y="-1587" font-family="Helvetica,sans-Serif" font-size="10.00">#</text>
<text text-anchor="start" x="17" y="-1587" font-family="Helvetica,sans-Serif" font-size="10.00">m_lineType</text>
<text text-anchor="start" x="4" y="-1572" font-family="Helvetica,sans-Serif" font-size="10.00">#</text>
<text text-anchor="start" x="17" y="-1572" font-family="Helvetica,sans-Serif" font-size="10.00">m_lineWeight</text>
<text text-anchor="start" x="4" y="-1557" font-family="Helvetica,sans-Serif" font-size="10.00">+</text>
<text text-anchor="start" x="17" y="-1557" font-family="Helvetica,sans-Serif" font-size="10.00">VDrawTool()</text>
<text text-anchor="start" x="4" y="-1542" font-family="Helvetica,sans-Serif" font-size="10.00">+</text>
<text text-anchor="start" x="17" y="-1542" font-family="Helvetica,sans-Serif" font-size="10.00">~VDrawTool()</text>
<text text-anchor="start" x="4" y="-1527" font-family="Helvetica,sans-Serif" font-size="10.00">+</text>
<text text-anchor="start" x="17" y="-1527" font-family="Helvetica,sans-Serif" font-size="10.00">getLineType()</text>
<text text-anchor="start" x="4" y="-1512" font-family="Helvetica,sans-Serif" font-size="10.00">+</text>
<text text-anchor="start" x="17" y="-1512" font-family="Helvetica,sans-Serif" font-size="10.00">setLineType()</text>
<text text-anchor="start" x="4" y="-1497" font-family="Helvetica,sans-Serif" font-size="10.00">+</text>
<text text-anchor="start" x="17" y="-1497" font-family="Helvetica,sans-Serif" font-size="10.00">getLineWeight()</text>
<text text-anchor="start" x="4" y="-1482" font-family="Helvetica,sans-Serif" font-size="10.00">+</text>
<text text-anchor="start" x="17" y="-1482" font-family="Helvetica,sans-Serif" font-size="10.00">setLineWeight()</text>
<text text-anchor="start" x="4" y="-1467" font-family="Helvetica,sans-Serif" font-size="10.00">+</text>
<text text-anchor="start" x="17" y="-1467" font-family="Helvetica,sans-Serif" font-size="10.00">isPointNameVisible()</text>
<text text-anchor="start" x="4" y="-1452" font-family="Helvetica,sans-Serif" font-size="10.00">+</text>
<text text-anchor="start" x="17" y="-1452" font-family="Helvetica,sans-Serif" font-size="10.00">ShowTool()</text>
<text text-anchor="start" x="4" y="-1437" font-family="Helvetica,sans-Serif" font-size="10.00">+</text>
<text text-anchor="start" x="17" y="-1437" font-family="Helvetica,sans-Serif" font-size="10.00">activeBlockChanged()</text>
<text text-anchor="start" x="4" y="-1422" font-family="Helvetica,sans-Serif" font-size="10.00">+</text>
<text text-anchor="start" x="17" y="-1422" font-family="Helvetica,sans-Serif" font-size="10.00">blockNameChanged()</text>
<text text-anchor="start" x="4" y="-1407" font-family="Helvetica,sans-Serif" font-size="10.00">+</text>
<text text-anchor="start" x="17" y="-1407" font-family="Helvetica,sans-Serif" font-size="10.00">EnableToolMove()</text>
<text text-anchor="start" x="4" y="-1392" font-family="Helvetica,sans-Serif" font-size="10.00">+</text>
<text text-anchor="start" x="17" y="-1392" font-family="Helvetica,sans-Serif" font-size="10.00">Disable()</text>
<text text-anchor="start" x="4" y="-1377" font-family="Helvetica,sans-Serif" font-size="10.00">+</text>
<text text-anchor="start" x="17" y="-1377" font-family="Helvetica,sans-Serif" font-size="10.00">piecesMode()</text>
<text text-anchor="start" x="4" y="-1362" font-family="Helvetica,sans-Serif" font-size="10.00">#</text>
<text text-anchor="start" x="17" y="-1362" font-family="Helvetica,sans-Serif" font-size="10.00">AddToCalculation()</text>
<text text-anchor="start" x="4" y="-1347" font-family="Helvetica,sans-Serif" font-size="10.00">#</text>
<text text-anchor="start" x="17" y="-1347" font-family="Helvetica,sans-Serif" font-size="10.00">addDependence()</text>
<text text-anchor="start" x="4" y="-1332" font-family="Helvetica,sans-Serif" font-size="10.00">#</text>
<text text-anchor="start" x="17" y="-1332" font-family="Helvetica,sans-Serif" font-size="10.00">SaveDialog()</text>
<text text-anchor="start" x="4" y="-1317" font-family="Helvetica,sans-Serif" font-size="10.00">#</text>
<text text-anchor="start" x="17" y="-1317" font-family="Helvetica,sans-Serif" font-size="10.00">SaveDialogChange()</text>
<text text-anchor="start" x="4" y="-1302" font-family="Helvetica,sans-Serif" font-size="10.00">#</text>
<text text-anchor="start" x="17" y="-1302" font-family="Helvetica,sans-Serif" font-size="10.00">AddToFile()</text>
<text text-anchor="start" x="4" y="-1287" font-family="Helvetica,sans-Serif" font-size="10.00">#</text>
<text text-anchor="start" x="17" y="-1287" font-family="Helvetica,sans-Serif" font-size="10.00">SaveOption()</text>
<text text-anchor="start" x="4" y="-1272" font-family="Helvetica,sans-Serif" font-size="10.00">#</text>
<text text-anchor="start" x="17" y="-1272" font-family="Helvetica,sans-Serif" font-size="10.00">SaveOptions()</text>
<text text-anchor="start" x="4" y="-1257" font-family="Helvetica,sans-Serif" font-size="10.00">#</text>
<text text-anchor="start" x="17" y="-1257" font-family="Helvetica,sans-Serif" font-size="10.00">makeToolTip()</text>
<text text-anchor="start" x="4" y="-1242" font-family="Helvetica,sans-Serif" font-size="10.00">#</text>
<text text-anchor="start" x="17" y="-1242" font-family="Helvetica,sans-Serif" font-size="10.00">CorrectDisable()</text>
<text text-anchor="start" x="4" y="-1227" font-family="Helvetica,sans-Serif" font-size="10.00">#</text>
<text text-anchor="start" x="17" y="-1227" font-family="Helvetica,sans-Serif" font-size="10.00">ReadAttributes()</text>
<text text-anchor="start" x="4" y="-1212" font-family="Helvetica,sans-Serif" font-size="10.00">#</text>
<text text-anchor="start" x="17" y="-1212" font-family="Helvetica,sans-Serif" font-size="10.00">ReadToolAttributes()</text>
<text text-anchor="start" x="4" y="-1197" font-family="Helvetica,sans-Serif" font-size="10.00">#</text>
<text text-anchor="start" x="17" y="-1197" font-family="Helvetica,sans-Serif" font-size="10.00">updatePointNameVisibility()</text>
<text text-anchor="start" x="4" y="-1182" font-family="Helvetica,sans-Serif" font-size="10.00">#</text>
<text text-anchor="start" x="17" y="-1182" font-family="Helvetica,sans-Serif" font-size="10.00">ContextMenu()</text>
<text text-anchor="start" x="4" y="-1167" font-family="Helvetica,sans-Serif" font-size="10.00">#</text>
<text text-anchor="start" x="17" y="-1167" font-family="Helvetica,sans-Serif" font-size="10.00">ShowItem()</text>
<text text-anchor="start" x="4" y="-1152" font-family="Helvetica,sans-Serif" font-size="10.00">#</text>
<text text-anchor="start" x="17" y="-1152" font-family="Helvetica,sans-Serif" font-size="10.00">ObjectName()</text>
<text text-anchor="start" x="4" y="-1137" font-family="Helvetica,sans-Serif" font-size="10.00">#</text>
<text text-anchor="start" x="17" y="-1137" font-family="Helvetica,sans-Serif" font-size="10.00">InitDrawToolConnections()</text>
<text text-anchor="start" x="4" y="-1122" font-family="Helvetica,sans-Serif" font-size="10.00">#</text>
<text text-anchor="start" x="17" y="-1122" font-family="Helvetica,sans-Serif" font-size="10.00">showContextMenu()</text>
<polygon fill="#666666" stroke="#666666" points="0,-1612 0,-1612 160,-1612 160,-1612 0,-1612"/>
<polygon fill="#666666" stroke="#666666" points="0,-1567 0,-1567 15,-1567 15,-1567 0,-1567"/>
<polygon fill="#666666" stroke="#666666" points="15,-1567 15,-1567 160,-1567 160,-1567 15,-1567"/>
<polygon fill="none" stroke="#666666" points="0,-1115 0,-1629 160,-1629 160,-1115 0,-1115"/>
</a>
</g>
</g>
<!-- Node3&#45;&gt;Node2 -->
<g id="edge2_Node000002_Node000003" class="edge">
<title>Node3&#45;&gt;Node2</title>
<g id="a_edge2_Node000002_Node000003"><a xlink:title=" ">
<path fill="none" stroke="#63b8ff" d="M111.71,-1104.4C112.71,-1096.06 113.7,-1087.67 114.7,-1079.25"/>
<polygon fill="none" stroke="#63b8ff" points="108.21,-1104.21 110.51,-1114.55 115.16,-1105.03 108.21,-1104.21"/>
</a>
</g>
</g>
<!-- Node4 -->
<g id="Node000004" class="node">
<title>Node4</title>
<g id="a_Node000004"><a xlink:href="../../d4/d36/classVInteractiveTool.html" target="_top" xlink:title=" ">
<polygon fill="white" stroke="transparent" points="155.5,-1804 4.5,-1804 4.5,-1665 155.5,-1665 155.5,-1804"/>
<text text-anchor="start" x="41" y="-1791.5" font-family="Helvetica,sans-Serif" font-size="10.00">VInteractiveTool</text>
<text text-anchor="start" x="9" y="-1776.5" font-family="Helvetica,sans-Serif" font-size="10.00">#</text>
<text text-anchor="start" x="22" y="-1776.5" font-family="Helvetica,sans-Serif" font-size="10.00">m_dialog</text>
<text text-anchor="start" x="9" y="-1761.5" font-family="Helvetica,sans-Serif" font-size="10.00">+</text>
<text text-anchor="start" x="22" y="-1761.5" font-family="Helvetica,sans-Serif" font-size="10.00">VInteractiveTool()</text>
<text text-anchor="start" x="9" y="-1746.5" font-family="Helvetica,sans-Serif" font-size="10.00">+</text>
<text text-anchor="start" x="22" y="-1746.5" font-family="Helvetica,sans-Serif" font-size="10.00">~VInteractiveTool()</text>
<text text-anchor="start" x="9" y="-1731.5" font-family="Helvetica,sans-Serif" font-size="10.00">+</text>
<text text-anchor="start" x="22" y="-1731.5" font-family="Helvetica,sans-Serif" font-size="10.00">DialogLinkDestroy()</text>
<text text-anchor="start" x="9" y="-1716.5" font-family="Helvetica,sans-Serif" font-size="10.00">+</text>
<text text-anchor="start" x="22" y="-1716.5" font-family="Helvetica,sans-Serif" font-size="10.00">FullUpdateFromGuiOk()</text>
<text text-anchor="start" x="9" y="-1701.5" font-family="Helvetica,sans-Serif" font-size="10.00">+</text>
<text text-anchor="start" x="22" y="-1701.5" font-family="Helvetica,sans-Serif" font-size="10.00">FullUpdateFromGuiApply()</text>
<text text-anchor="start" x="9" y="-1686.5" font-family="Helvetica,sans-Serif" font-size="10.00">#</text>
<text text-anchor="start" x="22" y="-1686.5" font-family="Helvetica,sans-Serif" font-size="10.00">setDialog()</text>
<text text-anchor="start" x="9" y="-1671.5" font-family="Helvetica,sans-Serif" font-size="10.00">#</text>
<text text-anchor="start" x="22" y="-1671.5" font-family="Helvetica,sans-Serif" font-size="10.00">SaveDialogChange()</text>
<polygon fill="#666666" stroke="#666666" points="5,-1786.5 5,-1786.5 156,-1786.5 156,-1786.5 5,-1786.5"/>
<polygon fill="#666666" stroke="#666666" points="5,-1771.5 5,-1771.5 20,-1771.5 20,-1771.5 5,-1771.5"/>
<polygon fill="#666666" stroke="#666666" points="20,-1771.5 20,-1771.5 156,-1771.5 156,-1771.5 20,-1771.5"/>
<polygon fill="none" stroke="#666666" points="4.5,-1665 4.5,-1804 155.5,-1804 155.5,-1665 4.5,-1665"/>
</a>
</g>
</g>
<!-- Node4&#45;&gt;Node3 -->
<g id="edge3_Node000003_Node000004" class="edge">
<title>Node4&#45;&gt;Node3</title>
<g id="a_edge3_Node000003_Node000004"><a xlink:title=" ">
<path fill="none" stroke="#63b8ff" d="M80,-1654.78C80,-1646.66 80,-1638.13 80,-1629.31"/>
<polygon fill="none" stroke="#63b8ff" points="76.5,-1654.84 80,-1664.84 83.5,-1654.84 76.5,-1654.84"/>
</a>
</g>
</g>
<!-- Node5 -->
<g id="Node000005" class="node">
<title>Node5</title>
<g id="a_Node000005"><a xlink:href="../../d4/d36/classVAbstractTool.html" target="_top" xlink:title="The VAbstractTool abstract class for all tools.">
<polygon fill="white" stroke="transparent" points="152.5,-2489 7.5,-2489 7.5,-1840 152.5,-1840 152.5,-2489"/>
<text text-anchor="start" x="47" y="-2476.5" font-family="Helvetica,sans-Serif" font-size="10.00">VAbstractTool</text>
<text text-anchor="start" x="12" y="-2461.5" font-family="Helvetica,sans-Serif" font-size="10.00">+</text>
<text text-anchor="start" x="25" y="-2461.5" font-family="Helvetica,sans-Serif" font-size="10.00">m_suppressContextMenu</text>
<text text-anchor="start" x="12" y="-2446.5" font-family="Helvetica,sans-Serif" font-size="10.00">+</text>
<text text-anchor="start" x="25" y="-2446.5" font-family="Helvetica,sans-Serif" font-size="10.00">AttrInUse</text>
<text text-anchor="start" x="12" y="-2431.5" font-family="Helvetica,sans-Serif" font-size="10.00">#</text>
<text text-anchor="start" x="25" y="-2431.5" font-family="Helvetica,sans-Serif" font-size="10.00">doc</text>
<text text-anchor="start" x="12" y="-2416.5" font-family="Helvetica,sans-Serif" font-size="10.00">#</text>
<text text-anchor="start" x="25" y="-2416.5" font-family="Helvetica,sans-Serif" font-size="10.00">m_id</text>
<text text-anchor="start" x="12" y="-2401.5" font-family="Helvetica,sans-Serif" font-size="10.00">#</text>
<text text-anchor="start" x="25" y="-2401.5" font-family="Helvetica,sans-Serif" font-size="10.00">vis</text>
<text text-anchor="start" x="12" y="-2386.5" font-family="Helvetica,sans-Serif" font-size="10.00">#</text>
<text text-anchor="start" x="25" y="-2386.5" font-family="Helvetica,sans-Serif" font-size="10.00">selectionType</text>
<text text-anchor="start" x="12" y="-2371.5" font-family="Helvetica,sans-Serif" font-size="10.00">+</text>
<text text-anchor="start" x="25" y="-2371.5" font-family="Helvetica,sans-Serif" font-size="10.00">VAbstractTool()</text>
<text text-anchor="start" x="12" y="-2356.5" font-family="Helvetica,sans-Serif" font-size="10.00">+</text>
<text text-anchor="start" x="25" y="-2356.5" font-family="Helvetica,sans-Serif" font-size="10.00">~VAbstractTool()</text>
<text text-anchor="start" x="12" y="-2341.5" font-family="Helvetica,sans-Serif" font-size="10.00">+</text>
<text text-anchor="start" x="25" y="-2341.5" font-family="Helvetica,sans-Serif" font-size="10.00">getId()</text>
<text text-anchor="start" x="12" y="-2326.5" font-family="Helvetica,sans-Serif" font-size="10.00">+</text>
<text text-anchor="start" x="25" y="-2326.5" font-family="Helvetica,sans-Serif" font-size="10.00">getData()</text>
<text text-anchor="start" x="12" y="-2311.5" font-family="Helvetica,sans-Serif" font-size="10.00">+</text>
<text text-anchor="start" x="25" y="-2311.5" font-family="Helvetica,sans-Serif" font-size="10.00">PointsList()</text>
<text text-anchor="start" x="12" y="-2296.5" font-family="Helvetica,sans-Serif" font-size="10.00">+</text>
<text text-anchor="start" x="25" y="-2296.5" font-family="Helvetica,sans-Serif" font-size="10.00">getTagName()</text>
<text text-anchor="start" x="12" y="-2281.5" font-family="Helvetica,sans-Serif" font-size="10.00">+</text>
<text text-anchor="start" x="25" y="-2281.5" font-family="Helvetica,sans-Serif" font-size="10.00">ShowVisualization()</text>
<text text-anchor="start" x="12" y="-2266.5" font-family="Helvetica,sans-Serif" font-size="10.00">+</text>
<text text-anchor="start" x="25" y="-2266.5" font-family="Helvetica,sans-Serif" font-size="10.00">setPointNamePosition()</text>
<text text-anchor="start" x="12" y="-2251.5" font-family="Helvetica,sans-Serif" font-size="10.00">+</text>
<text text-anchor="start" x="25" y="-2251.5" font-family="Helvetica,sans-Serif" font-size="10.00">setPointNameVisiblity()</text>
<text text-anchor="start" x="12" y="-2236.5" font-family="Helvetica,sans-Serif" font-size="10.00">+</text>
<text text-anchor="start" x="25" y="-2236.5" font-family="Helvetica,sans-Serif" font-size="10.00">CheckFormula()</text>
<text text-anchor="start" x="12" y="-2221.5" font-family="Helvetica,sans-Serif" font-size="10.00">+</text>
<text text-anchor="start" x="25" y="-2221.5" font-family="Helvetica,sans-Serif" font-size="10.00">Colors()</text>
<text text-anchor="start" x="12" y="-2206.5" font-family="Helvetica,sans-Serif" font-size="10.00">+</text>
<text text-anchor="start" x="25" y="-2206.5" font-family="Helvetica,sans-Serif" font-size="10.00">ColorsList()</text>
<text text-anchor="start" x="12" y="-2191.5" font-family="Helvetica,sans-Serif" font-size="10.00">+</text>
<text text-anchor="start" x="25" y="-2191.5" font-family="Helvetica,sans-Serif" font-size="10.00">supportColorsList()</text>
<text text-anchor="start" x="12" y="-2176.5" font-family="Helvetica,sans-Serif" font-size="10.00">+</text>
<text text-anchor="start" x="25" y="-2176.5" font-family="Helvetica,sans-Serif" font-size="10.00">backgroundColorsList()</text>
<text text-anchor="start" x="12" y="-2161.5" font-family="Helvetica,sans-Serif" font-size="10.00">+</text>
<text text-anchor="start" x="25" y="-2161.5" font-family="Helvetica,sans-Serif" font-size="10.00">createColorIcon()</text>
<text text-anchor="start" x="12" y="-2146.5" font-family="Helvetica,sans-Serif" font-size="10.00">+</text>
<text text-anchor="start" x="25" y="-2146.5" font-family="Helvetica,sans-Serif" font-size="10.00">fills()</text>
<text text-anchor="start" x="12" y="-2131.5" font-family="Helvetica,sans-Serif" font-size="10.00">+</text>
<text text-anchor="start" x="25" y="-2131.5" font-family="Helvetica,sans-Serif" font-size="10.00">AddRecord()</text>
<text text-anchor="start" x="12" y="-2116.5" font-family="Helvetica,sans-Serif" font-size="10.00">+</text>
<text text-anchor="start" x="25" y="-2116.5" font-family="Helvetica,sans-Serif" font-size="10.00">AddNodes()</text>
<text text-anchor="start" x="12" y="-2101.5" font-family="Helvetica,sans-Serif" font-size="10.00">+</text>
<text text-anchor="start" x="25" y="-2101.5" font-family="Helvetica,sans-Serif" font-size="10.00">AddNodes()</text>
<text text-anchor="start" x="12" y="-2086.5" font-family="Helvetica,sans-Serif" font-size="10.00">+</text>
<text text-anchor="start" x="25" y="-2086.5" font-family="Helvetica,sans-Serif" font-size="10.00">CreateNode()</text>
<text text-anchor="start" x="12" y="-2071.5" font-family="Helvetica,sans-Serif" font-size="10.00">+</text>
<text text-anchor="start" x="25" y="-2071.5" font-family="Helvetica,sans-Serif" font-size="10.00">FullUpdateFromFile()</text>
<text text-anchor="start" x="12" y="-2056.5" font-family="Helvetica,sans-Serif" font-size="10.00">+</text>
<text text-anchor="start" x="25" y="-2056.5" font-family="Helvetica,sans-Serif" font-size="10.00">AllowHover()</text>
<text text-anchor="start" x="12" y="-2041.5" font-family="Helvetica,sans-Serif" font-size="10.00">+</text>
<text text-anchor="start" x="25" y="-2041.5" font-family="Helvetica,sans-Serif" font-size="10.00">AllowSelecting()</text>
<text text-anchor="start" x="12" y="-2026.5" font-family="Helvetica,sans-Serif" font-size="10.00">+</text>
<text text-anchor="start" x="25" y="-2026.5" font-family="Helvetica,sans-Serif" font-size="10.00">ToolSelectionType()</text>
<text text-anchor="start" x="12" y="-2011.5" font-family="Helvetica,sans-Serif" font-size="10.00">#</text>
<text text-anchor="start" x="25" y="-2011.5" font-family="Helvetica,sans-Serif" font-size="10.00">AddToFile()</text>
<text text-anchor="start" x="12" y="-1996.5" font-family="Helvetica,sans-Serif" font-size="10.00">#</text>
<text text-anchor="start" x="25" y="-1996.5" font-family="Helvetica,sans-Serif" font-size="10.00">RefreshDataInFile()</text>
<text text-anchor="start" x="12" y="-1981.5" font-family="Helvetica,sans-Serif" font-size="10.00">#</text>
<text text-anchor="start" x="25" y="-1981.5" font-family="Helvetica,sans-Serif" font-size="10.00">RemoveReferens()</text>
<text text-anchor="start" x="12" y="-1966.5" font-family="Helvetica,sans-Serif" font-size="10.00">#</text>
<text text-anchor="start" x="25" y="-1966.5" font-family="Helvetica,sans-Serif" font-size="10.00">deleteTool()</text>
<text text-anchor="start" x="12" y="-1951.5" font-family="Helvetica,sans-Serif" font-size="10.00">#</text>
<text text-anchor="start" x="25" y="-1951.5" font-family="Helvetica,sans-Serif" font-size="10.00">AddVisualization()</text>
<text text-anchor="start" x="12" y="-1936.5" font-family="Helvetica,sans-Serif" font-size="10.00">#</text>
<text text-anchor="start" x="25" y="-1936.5" font-family="Helvetica,sans-Serif" font-size="10.00">SetVisualization()</text>
<text text-anchor="start" x="12" y="-1921.5" font-family="Helvetica,sans-Serif" font-size="10.00">#</text>
<text text-anchor="start" x="25" y="-1921.5" font-family="Helvetica,sans-Serif" font-size="10.00">ToolCreation()</text>
<text text-anchor="start" x="12" y="-1906.5" font-family="Helvetica,sans-Serif" font-size="10.00">#</text>
<text text-anchor="start" x="25" y="-1906.5" font-family="Helvetica,sans-Serif" font-size="10.00">ConfirmDeletion()</text>
<text text-anchor="start" x="12" y="-1891.5" font-family="Helvetica,sans-Serif" font-size="10.00">#</text>
<text text-anchor="start" x="25" y="-1891.5" font-family="Helvetica,sans-Serif" font-size="10.00">AddSANode()</text>
<text text-anchor="start" x="12" y="-1876.5" font-family="Helvetica,sans-Serif" font-size="10.00">#</text>
<text text-anchor="start" x="25" y="-1876.5" font-family="Helvetica,sans-Serif" font-size="10.00">AddNode()</text>
<text text-anchor="start" x="12" y="-1861.5" font-family="Helvetica,sans-Serif" font-size="10.00">#</text>
<text text-anchor="start" x="25" y="-1861.5" font-family="Helvetica,sans-Serif" font-size="10.00">PrepareNodes()</text>
<text text-anchor="start" x="12" y="-1846.5" font-family="Helvetica,sans-Serif" font-size="10.00">#</text>
<text text-anchor="start" x="25" y="-1846.5" font-family="Helvetica,sans-Serif" font-size="10.00">PrepareNode()</text>
<polygon fill="#666666" stroke="#666666" points="8,-2471.5 8,-2471.5 153,-2471.5 153,-2471.5 8,-2471.5"/>
<polygon fill="#666666" stroke="#666666" points="8,-2381.5 8,-2381.5 23,-2381.5 23,-2381.5 8,-2381.5"/>
<polygon fill="#666666" stroke="#666666" points="23,-2381.5 23,-2381.5 153,-2381.5 153,-2381.5 23,-2381.5"/>
<polygon fill="none" stroke="#666666" points="7.5,-1840 7.5,-2489 152.5,-2489 152.5,-1840 7.5,-1840"/>
</a>
</g>
</g>
<!-- Node5&#45;&gt;Node4 -->
<g id="edge4_Node000004_Node000005" class="edge">
<title>Node5&#45;&gt;Node4</title>
<g id="a_edge4_Node000004_Node000005"><a xlink:title=" ">
<path fill="none" stroke="#63b8ff" d="M80,-1829.69C80,-1820.77 80,-1812.26 80,-1804.26"/>
<polygon fill="none" stroke="#63b8ff" points="76.5,-1829.93 80,-1839.93 83.5,-1829.93 76.5,-1829.93"/>
</a>
</g>
</g>
<!-- Node6 -->
<g id="Node000006" class="node">
<title>Node6</title>
<g id="a_Node000006"><a xlink:href="../../d5/d68/classVDataTool.html" target="_top" xlink:title="The VDataTool class need for getting access to data container of tool.">
<polygon fill="white" stroke="transparent" points="142.5,-2694 17.5,-2694 17.5,-2525 142.5,-2525 142.5,-2694"/>
<text text-anchor="start" x="55.5" y="-2681.5" font-family="Helvetica,sans-Serif" font-size="10.00">VDataTool</text>
<text text-anchor="start" x="22" y="-2666.5" font-family="Helvetica,sans-Serif" font-size="10.00">#</text>
<text text-anchor="start" x="35" y="-2666.5" font-family="Helvetica,sans-Serif" font-size="10.00">data</text>
<text text-anchor="start" x="22" y="-2651.5" font-family="Helvetica,sans-Serif" font-size="10.00">#</text>
<text text-anchor="start" x="35" y="-2651.5" font-family="Helvetica,sans-Serif" font-size="10.00">_referens</text>
<text text-anchor="start" x="22" y="-2636.5" font-family="Helvetica,sans-Serif" font-size="10.00">+</text>
<text text-anchor="start" x="35" y="-2636.5" font-family="Helvetica,sans-Serif" font-size="10.00">VDataTool()</text>
<text text-anchor="start" x="22" y="-2621.5" font-family="Helvetica,sans-Serif" font-size="10.00">+</text>
<text text-anchor="start" x="35" y="-2621.5" font-family="Helvetica,sans-Serif" font-size="10.00">~VDataTool()</text>
<text text-anchor="start" x="22" y="-2606.5" font-family="Helvetica,sans-Serif" font-size="10.00">+</text>
<text text-anchor="start" x="35" y="-2606.5" font-family="Helvetica,sans-Serif" font-size="10.00">getData()</text>
<text text-anchor="start" x="22" y="-2591.5" font-family="Helvetica,sans-Serif" font-size="10.00">+</text>
<text text-anchor="start" x="35" y="-2591.5" font-family="Helvetica,sans-Serif" font-size="10.00">setData()</text>
<text text-anchor="start" x="22" y="-2576.5" font-family="Helvetica,sans-Serif" font-size="10.00">+</text>
<text text-anchor="start" x="35" y="-2576.5" font-family="Helvetica,sans-Serif" font-size="10.00">referens()</text>
<text text-anchor="start" x="22" y="-2561.5" font-family="Helvetica,sans-Serif" font-size="10.00">+</text>
<text text-anchor="start" x="35" y="-2561.5" font-family="Helvetica,sans-Serif" font-size="10.00">incrementReferens()</text>
<text text-anchor="start" x="22" y="-2546.5" font-family="Helvetica,sans-Serif" font-size="10.00">+</text>
<text text-anchor="start" x="35" y="-2546.5" font-family="Helvetica,sans-Serif" font-size="10.00">decrementReferens()</text>
<text text-anchor="start" x="22" y="-2531.5" font-family="Helvetica,sans-Serif" font-size="10.00">+</text>
<text text-anchor="start" x="35" y="-2531.5" font-family="Helvetica,sans-Serif" font-size="10.00">GroupVisibility()</text>
<polygon fill="#666666" stroke="#666666" points="18,-2676.5 18,-2676.5 143,-2676.5 143,-2676.5 18,-2676.5"/>
<polygon fill="#666666" stroke="#666666" points="18,-2646.5 18,-2646.5 33,-2646.5 33,-2646.5 18,-2646.5"/>
<polygon fill="#666666" stroke="#666666" points="33,-2646.5 33,-2646.5 143,-2646.5 143,-2646.5 33,-2646.5"/>
<polygon fill="none" stroke="#666666" points="17.5,-2525 17.5,-2694 142.5,-2694 142.5,-2525 17.5,-2525"/>
</a>
</g>
</g>
<!-- Node6&#45;&gt;Node5 -->
<g id="edge5_Node000005_Node000006" class="edge">
<title>Node6&#45;&gt;Node5</title>
<g id="a_edge5_Node000005_Node000006"><a xlink:title=" ">
<path fill="none" stroke="#63b8ff" d="M80,-2514.78C80,-2506.62 80,-2498.12 80,-2489.33"/>
<polygon fill="none" stroke="#63b8ff" points="76.5,-2514.91 80,-2524.91 83.5,-2514.91 76.5,-2514.91"/>
</a>
</g>
</g>
<!-- Node7 -->
<g id="Node000007" class="node">
<title>Node7</title>
<g id="a_Node000007"><a xlink:title=" ">
<polygon fill="white" stroke="transparent" points="105,-2779 55,-2779 55,-2730 105,-2730 105,-2779"/>
<text text-anchor="start" x="60" y="-2766.5" font-family="Helvetica,sans-Serif" font-size="10.00">QObject</text>
<text text-anchor="start" x="78" y="-2751.5" font-family="Helvetica,sans-Serif" font-size="10.00"> </text>
<text text-anchor="start" x="78" y="-2736.5" font-family="Helvetica,sans-Serif" font-size="10.00"> </text>
<polygon fill="#666666" stroke="#666666" points="55,-2761.5 55,-2761.5 105,-2761.5 105,-2761.5 55,-2761.5"/>
<polygon fill="#666666" stroke="#666666" points="55,-2746.5 55,-2746.5 105,-2746.5 105,-2746.5 55,-2746.5"/>
<polygon fill="none" stroke="#666666" points="55,-2730 55,-2779 105,-2779 105,-2730 55,-2730"/>
</a>
</g>
</g>
<!-- Node7&#45;&gt;Node6 -->
<g id="edge6_Node000006_Node000007" class="edge">
<title>Node7&#45;&gt;Node6</title>
<g id="a_edge6_Node000006_Node000007"><a xlink:title=" ">
<path fill="none" stroke="#63b8ff" d="M80,-2719.72C80,-2711.84 80,-2703.1 80,-2694.1"/>
<polygon fill="none" stroke="#63b8ff" points="76.5,-2719.89 80,-2729.89 83.5,-2719.89 76.5,-2719.89"/>
</a>
</g>
</g>
<!-- Node8 -->
<g id="Node000008" class="node">
<title>Node8</title>
<g id="a_Node000008"><a xlink:title=" ">
<polygon fill="white" stroke="transparent" points="282,-1396.5 178,-1396.5 178,-1347.5 282,-1347.5 282,-1396.5"/>
<text text-anchor="start" x="183" y="-1384" font-family="Helvetica,sans-Serif" font-size="10.00">QGraphicsPathItem</text>
<text text-anchor="start" x="228" y="-1369" font-family="Helvetica,sans-Serif" font-size="10.00"> </text>
<text text-anchor="start" x="228" y="-1354" font-family="Helvetica,sans-Serif" font-size="10.00"> </text>
<polygon fill="#666666" stroke="#666666" points="178,-1379 178,-1379 282,-1379 282,-1379 178,-1379"/>
<polygon fill="#666666" stroke="#666666" points="178,-1364 178,-1364 282,-1364 282,-1364 178,-1364"/>
<polygon fill="none" stroke="#666666" points="178,-1347.5 178,-1396.5 282,-1396.5 282,-1347.5 178,-1347.5"/>
</a>
</g>
</g>
<!-- Node8&#45;&gt;Node2 -->
<g id="edge7_Node000002_Node000008" class="edge">
<title>Node8&#45;&gt;Node2</title>
<g id="a_edge7_Node000002_Node000008"><a xlink:title=" ">
<path fill="none" stroke="#63b8ff" d="M226,-1337.36C219.94,-1286.46 207.82,-1184.55 195.28,-1079.14"/>
<polygon fill="none" stroke="#63b8ff" points="222.54,-1337.92 227.2,-1347.43 229.49,-1337.09 222.54,-1337.92"/>
</a>
</g>
</g>
</g>
</svg>

<g id="navigator" transform="translate(0 0)" fill="#404254">
  <rect fill="#f2f5e9" fill-opacity="0.5" stroke="#606060" stroke-width=".5" x="0" y="0" width="60" height="60"/>
  <use id="zoomplus" xlink:href="#zoomPlus" x="17" y="9" onmousedown="handleZoom(evt,'in')"/>
  <use id="zoomminus" xlink:href="#zoomMin" x="42" y="9" onmousedown="handleZoom(evt,'out')"/>
  <use id="reset" xlink:href="#resetDef" x="30" y="36" onmousedown="handleReset()"/>
   <use id="arrowup" xlink:href="#arrowUp" x="0" y="0" onmousedown="handlePan(0,-1)"/>
  <use id="arrowright" xlink:href="#arrowRight" x="0" y="0" onmousedown="handlePan(1,0)"/>
  <use id="arrowdown" xlink:href="#arrowDown" x="0" y="0" onmousedown="handlePan(0,1)"/>
  <use id="arrowleft" xlink:href="#arrowLeft" x="0" y="0" onmousedown="handlePan(-1,0)"/>
</g>
<svg viewBox="0 0 15 15" width="100%" height="30px" preserveAspectRatio="xMaxYMin meet">
 <g id="arrow_out" transform="scale(0.3 0.3)">
  <a xlink:href="classVToolArcWithLength__inherit__graph_org.svg" target="_base">
   <rect id="button" ry="5" rx="5" y="6" x="6" height="38" width="38"
        fill="#f2f5e9" fill-opacity="0.5" stroke="#606060" stroke-width="1.0"/>
   <path id="arrow"
     d="M 11.500037,31.436501 C 11.940474,20.09759 22.043105,11.32322 32.158766,21.979434 L 37.068811,17.246167 C 37.068811,17.246167 37.088388,32 37.088388,32 L 22.160133,31.978069 C 22.160133,31.978069 26.997745,27.140456 26.997745,27.140456 C 18.528582,18.264221 13.291696,25.230495 11.500037,31.436501 z"
     style="fill:#404040;"/>
  </a>
 </g>
</svg>

<style type='text/css'>
<![CDATA[
[data-mouse-over-selected='false'] { opacity: 0.7; }
[data-mouse-over-selected='true']  { opacity: 1.0; }
]]>
</style>
<script type="application/ecmascript"><![CDATA[
document.addEventListener('DOMContentLoaded', (event) => {
  highlightEdges();
  highlightAdjacentNodes();
});
]]></script>
</svg>
