<?xml version="1.0" encoding="UTF-8" standalone="no"?>
<!DOCTYPE svg PUBLIC "-//W3C//DTD SVG 1.1//EN"
 "http://www.w3.org/Graphics/SVG/1.1/DTD/svg11.dtd">
<!-- Generated by graphviz version 2.43.0 (0)
 -->
<!-- Title: src/app/seamly2d/dialogs/layoutsettings_dialog.h Pages: 1 -->
<svg width="540pt" height="148pt"
 viewBox="0.00 0.00 540.00 148.00" xmlns="http://www.w3.org/2000/svg" xmlns:xlink="http://www.w3.org/1999/xlink">
<g id="graph0" class="graph" transform="scale(1 1) rotate(0) translate(4 144)">
<title>src/app/seamly2d/dialogs/layoutsettings_dialog.h</title>
<!-- Node1 -->
<g id="Node000001" class="node">
<title>Node1</title>
<g id="a_Node000001"><a xlink:title=" ">
<polygon fill="#999999" stroke="#666666" points="332,-140 191,-140 191,-110 332,-110 332,-140"/>
<text text-anchor="start" x="199" y="-128" font-family="Helvetica,sans-Serif" font-size="10.00">src/app/seamly2d/dialogs</text>
<text text-anchor="middle" x="261.5" y="-117" font-family="Helvetica,sans-Serif" font-size="10.00">/layoutsettings_dialog.h</text>
</a>
</g>
</g>
<!-- Node2 -->
<g id="Node000002" class="node">
<title>Node2</title>
<g id="a_Node000002"><a xlink:href="../../d7/d9e/abstractlayout__dialog_8h.html" target="_top" xlink:title=" ">
<polygon fill="white" stroke="#666666" points="193,-74 62,-74 62,-55 193,-55 193,-74"/>
<text text-anchor="middle" x="127.5" y="-62" font-family="Helvetica,sans-Serif" font-size="10.00">abstractlayout_dialog.h</text>
</a>
</g>
</g>
<!-- Node1&#45;&gt;Node2 -->
<g id="edge1_Node000001_Node000002" class="edge">
<title>Node1&#45;&gt;Node2</title>
<g id="a_edge1_Node000001_Node000002"><a xlink:title=" ">
<path fill="none" stroke="#63b8ff" d="M229.4,-109.99C207.25,-100.31 178.02,-87.56 156.55,-78.18"/>
<polygon fill="#63b8ff" stroke="#63b8ff" points="157.85,-74.93 147.29,-74.14 155.05,-81.35 157.85,-74.93"/>
</a>
</g>
</g>
<!-- Node3 -->
<g id="Node000003" class="node">
<title>Node3</title>
<g id="a_Node000003"><a xlink:title=" ">
<polygon fill="#e0e0e0" stroke="#999999" points="77,-19 0,-19 0,0 77,0 77,-19"/>
<text text-anchor="middle" x="38.5" y="-7" font-family="Helvetica,sans-Serif" font-size="10.00">../ifc/ifcdef.h</text>
</a>
</g>
</g>
<!-- Node1&#45;&gt;Node3 -->
<g id="edge7_Node000001_Node000003" class="edge">
<title>Node1&#45;&gt;Node3</title>
<g id="a_edge7_Node000001_Node000003"><a xlink:title=" ">
<path fill="none" stroke="#63b8ff" d="M190.96,-115.04C138.49,-106.96 72.76,-93.34 53.5,-74 41.89,-62.35 38.63,-43.49 37.97,-29.34"/>
<polygon fill="#63b8ff" stroke="#63b8ff" points="41.47,-29.21 37.9,-19.24 34.47,-29.26 41.47,-29.21"/>
</a>
</g>
</g>
<!-- Node4 -->
<g id="Node000004" class="node">
<title>Node4</title>
<g id="a_Node000004"><a xlink:title=" ">
<polygon fill="#e0e0e0" stroke="#999999" points="258.5,-19 176.5,-19 176.5,0 258.5,0 258.5,-19"/>
<text text-anchor="middle" x="217.5" y="-7" font-family="Helvetica,sans-Serif" font-size="10.00">../vmisc/def.h</text>
</a>
</g>
</g>
<!-- Node1&#45;&gt;Node4 -->
<g id="edge6_Node000001_Node000004" class="edge">
<title>Node1&#45;&gt;Node4</title>
<g id="a_edge6_Node000001_Node000004"><a xlink:title=" ">
<path fill="none" stroke="#63b8ff" d="M255.24,-109.64C250.96,-99.69 245.23,-86.1 240.5,-74 234.56,-58.81 228.29,-41.39 223.8,-28.64"/>
<polygon fill="#63b8ff" stroke="#63b8ff" points="227.09,-27.46 220.49,-19.18 220.49,-29.77 227.09,-27.46"/>
</a>
</g>
</g>
<!-- Node6 -->
<g id="Node000006" class="node">
<title>Node6</title>
<g id="a_Node000006"><a xlink:title=" ">
<polygon fill="#e0e0e0" stroke="#999999" points="353.5,-74 249.5,-74 249.5,-55 353.5,-55 353.5,-74"/>
<text text-anchor="middle" x="301.5" y="-62" font-family="Helvetica,sans-Serif" font-size="10.00">../vlayout/vbank.h</text>
</a>
</g>
</g>
<!-- Node1&#45;&gt;Node6 -->
<g id="edge5_Node000001_Node000006" class="edge">
<title>Node1&#45;&gt;Node6</title>
<g id="a_edge5_Node000001_Node000006"><a xlink:title=" ">
<path fill="none" stroke="#63b8ff" d="M271.18,-109.84C276.75,-101.69 283.79,-91.4 289.68,-82.78"/>
<polygon fill="#63b8ff" stroke="#63b8ff" points="292.75,-84.5 295.51,-74.27 286.97,-80.55 292.75,-84.5"/>
</a>
</g>
</g>
<!-- Node7 -->
<g id="Node000007" class="node">
<title>Node7</title>
<g id="a_Node000007"><a xlink:title=" ">
<polygon fill="#e0e0e0" stroke="#999999" points="451,-74 372,-74 372,-55 451,-55 451,-74"/>
<text text-anchor="middle" x="411.5" y="-62" font-family="Helvetica,sans-Serif" font-size="10.00">QCloseEvent</text>
</a>
</g>
</g>
<!-- Node1&#45;&gt;Node7 -->
<g id="edge8_Node000001_Node000007" class="edge">
<title>Node1&#45;&gt;Node7</title>
<g id="a_edge8_Node000001_Node000007"><a xlink:title=" ">
<path fill="none" stroke="#63b8ff" d="M297.43,-109.99C322.57,-100.18 355.83,-87.21 379.95,-77.81"/>
<polygon fill="#63b8ff" stroke="#63b8ff" points="381.3,-81.03 389.35,-74.14 378.76,-74.51 381.3,-81.03"/>
</a>
</g>
</g>
<!-- Node8 -->
<g id="Node000008" class="node">
<title>Node8</title>
<g id="a_Node000008"><a xlink:title=" ">
<polygon fill="#e0e0e0" stroke="#999999" points="532,-74 469,-74 469,-55 532,-55 532,-74"/>
<text text-anchor="middle" x="500.5" y="-62" font-family="Helvetica,sans-Serif" font-size="10.00">QMargins</text>
</a>
</g>
</g>
<!-- Node1&#45;&gt;Node8 -->
<g id="edge9_Node000001_Node000008" class="edge">
<title>Node1&#45;&gt;Node8</title>
<g id="a_edge9_Node000001_Node000008"><a xlink:title=" ">
<path fill="none" stroke="#63b8ff" d="M318.75,-109.99C361.97,-99.41 420.28,-85.13 459.07,-75.64"/>
<polygon fill="#63b8ff" stroke="#63b8ff" points="460.1,-78.99 468.98,-73.22 458.43,-72.19 460.1,-78.99"/>
</a>
</g>
</g>
<!-- Node2&#45;&gt;Node3 -->
<g id="edge2_Node000002_Node000003" class="edge">
<title>Node2&#45;&gt;Node3</title>
<g id="a_edge2_Node000002_Node000003"><a xlink:title=" ">
<path fill="none" stroke="#63b8ff" d="M113.2,-54.98C99.4,-46.77 78.26,-34.18 61.99,-24.49"/>
<polygon fill="#63b8ff" stroke="#63b8ff" points="63.44,-21.28 53.06,-19.17 59.86,-27.29 63.44,-21.28"/>
</a>
</g>
</g>
<!-- Node2&#45;&gt;Node4 -->
<g id="edge3_Node000002_Node000004" class="edge">
<title>Node2&#45;&gt;Node4</title>
<g id="a_edge3_Node000002_Node000004"><a xlink:title=" ">
<path fill="none" stroke="#63b8ff" d="M141.96,-54.98C155.92,-46.77 177.29,-34.18 193.75,-24.49"/>
<polygon fill="#63b8ff" stroke="#63b8ff" points="195.94,-27.26 202.78,-19.17 192.38,-21.23 195.94,-27.26"/>
</a>
</g>
</g>
<!-- Node5 -->
<g id="Node000005" class="node">
<title>Node5</title>
<g id="a_Node000005"><a xlink:title=" ">
<polygon fill="#e0e0e0" stroke="#999999" points="155.5,-19 99.5,-19 99.5,0 155.5,0 155.5,-19"/>
<text text-anchor="middle" x="127.5" y="-7" font-family="Helvetica,sans-Serif" font-size="10.00">QDialog</text>
</a>
</g>
</g>
<!-- Node2&#45;&gt;Node5 -->
<g id="edge4_Node000002_Node000005" class="edge">
<title>Node2&#45;&gt;Node5</title>
<g id="a_edge4_Node000002_Node000005"><a xlink:title=" ">
<path fill="none" stroke="#63b8ff" d="M127.5,-54.75C127.5,-47.8 127.5,-37.85 127.5,-29.13"/>
<polygon fill="#63b8ff" stroke="#63b8ff" points="131,-29.09 127.5,-19.09 124,-29.09 131,-29.09"/>
</a>
</g>
</g>
</g>
</svg>
