<?xml version="1.0" encoding="UTF-8" standalone="no"?>
<!DOCTYPE svg PUBLIC "-//W3C//DTD SVG 1.1//EN"
 "http://www.w3.org/Graphics/SVG/1.1/DTD/svg11.dtd">
<!-- Generated by graphviz version 2.43.0 (0)
 -->
<!-- Title: src/test/Seamly2DTest/tst_vabstractcurve.cpp Pages: 1 -->
<svg width="374pt" height="148pt"
 viewBox="0.00 0.00 374.00 148.00" xmlns="http://www.w3.org/2000/svg" xmlns:xlink="http://www.w3.org/1999/xlink">
<g id="graph0" class="graph" transform="scale(1 1) rotate(0) translate(4 144)">
<title>src/test/Seamly2DTest/tst_vabstractcurve.cpp</title>
<!-- Node1 -->
<g id="Node000001" class="node">
<title>Node1</title>
<g id="a_Node000001"><a xlink:title=" ">
<polygon fill="#999999" stroke="#666666" points="284,-140 153,-140 153,-110 284,-110 284,-140"/>
<text text-anchor="start" x="161" y="-128" font-family="Helvetica,sans-Serif" font-size="10.00">src/test/Seamly2DTest</text>
<text text-anchor="middle" x="218.5" y="-117" font-family="Helvetica,sans-Serif" font-size="10.00">/tst_vabstractcurve.cpp</text>
</a>
</g>
</g>
<!-- Node2 -->
<g id="Node000002" class="node">
<title>Node2</title>
<g id="a_Node000002"><a xlink:href="../../d5/d09/tst__vabstractcurve_8h.html" target="_top" xlink:title=" ">
<polygon fill="white" stroke="#666666" points="118.5,-74 2.5,-74 2.5,-55 118.5,-55 118.5,-74"/>
<text text-anchor="middle" x="60.5" y="-62" font-family="Helvetica,sans-Serif" font-size="10.00">tst_vabstractcurve.h</text>
</a>
</g>
</g>
<!-- Node1&#45;&gt;Node2 -->
<g id="edge1_Node000001_Node000002" class="edge">
<title>Node1&#45;&gt;Node2</title>
<g id="a_edge1_Node000001_Node000002"><a xlink:title=" ">
<path fill="none" stroke="#63b8ff" d="M180.66,-109.99C154.06,-100.14 118.83,-87.1 93.4,-77.68"/>
<polygon fill="#63b8ff" stroke="#63b8ff" points="94.43,-74.33 83.83,-74.14 92,-80.89 94.43,-74.33"/>
</a>
</g>
</g>
<!-- Node4 -->
<g id="Node000004" class="node">
<title>Node4</title>
<g id="a_Node000004"><a xlink:title=" ">
<polygon fill="#e0e0e0" stroke="#999999" points="300.5,-74 136.5,-74 136.5,-55 300.5,-55 300.5,-74"/>
<text text-anchor="middle" x="218.5" y="-62" font-family="Helvetica,sans-Serif" font-size="10.00">../vgeometry/vabstractcurve.h</text>
</a>
</g>
</g>
<!-- Node1&#45;&gt;Node4 -->
<g id="edge3_Node000001_Node000004" class="edge">
<title>Node1&#45;&gt;Node4</title>
<g id="a_edge3_Node000001_Node000004"><a xlink:title=" ">
<path fill="none" stroke="#63b8ff" d="M218.5,-109.84C218.5,-102.21 218.5,-92.7 218.5,-84.45"/>
<polygon fill="#63b8ff" stroke="#63b8ff" points="222,-84.27 218.5,-74.27 215,-84.27 222,-84.27"/>
</a>
</g>
</g>
<!-- Node5 -->
<g id="Node000005" class="node">
<title>Node5</title>
<g id="a_Node000005"><a xlink:title=" ">
<polygon fill="#e0e0e0" stroke="#999999" points="366,-74 319,-74 319,-55 366,-55 366,-74"/>
<text text-anchor="middle" x="342.5" y="-62" font-family="Helvetica,sans-Serif" font-size="10.00">QtTest</text>
</a>
</g>
</g>
<!-- Node1&#45;&gt;Node5 -->
<g id="edge4_Node000001_Node000005" class="edge">
<title>Node1&#45;&gt;Node5</title>
<g id="a_edge4_Node000001_Node000005"><a xlink:title=" ">
<path fill="none" stroke="#63b8ff" d="M248.2,-109.99C268.52,-100.4 295.26,-87.79 315.08,-78.44"/>
<polygon fill="#63b8ff" stroke="#63b8ff" points="316.64,-81.57 324.19,-74.14 313.65,-75.24 316.64,-81.57"/>
</a>
</g>
</g>
<!-- Node3 -->
<g id="Node000003" class="node">
<title>Node3</title>
<g id="a_Node000003"><a xlink:title=" ">
<polygon fill="#e0e0e0" stroke="#999999" points="121,-19 0,-19 0,0 121,0 121,-19"/>
<text text-anchor="middle" x="60.5" y="-7" font-family="Helvetica,sans-Serif" font-size="10.00">../vtest/abstracttest.h</text>
</a>
</g>
</g>
<!-- Node2&#45;&gt;Node3 -->
<g id="edge2_Node000002_Node000003" class="edge">
<title>Node2&#45;&gt;Node3</title>
<g id="a_edge2_Node000002_Node000003"><a xlink:title=" ">
<path fill="none" stroke="#63b8ff" d="M60.5,-54.75C60.5,-47.8 60.5,-37.85 60.5,-29.13"/>
<polygon fill="#63b8ff" stroke="#63b8ff" points="64,-29.09 60.5,-19.09 57,-29.09 64,-29.09"/>
</a>
</g>
</g>
</g>
</svg>
