<?xml version="1.0" encoding="UTF-8" standalone="no"?>
<!DOCTYPE svg PUBLIC "-//W3C//DTD SVG 1.1//EN"
 "http://www.w3.org/Graphics/SVG/1.1/DTD/svg11.dtd">
<!-- Generated by graphviz version 2.43.0 (0)
 -->
<!-- Title: src/libs/vpatterndb/vtranslatemeasurements.h Pages: 1 -->
<svg width="5935pt" height="374pt"
 viewBox="0.00 0.00 5935.17 374.00" xmlns="http://www.w3.org/2000/svg" xmlns:xlink="http://www.w3.org/1999/xlink">
<g id="graph0" class="graph" transform="scale(1 1) rotate(0) translate(4 370)">
<title>src/libs/vpatterndb/vtranslatemeasurements.h</title>
<polygon fill="white" stroke="transparent" points="-4,4 -4,-370 5931.17,-370 5931.17,4 -4,4"/>
<!-- Node1 -->
<g id="node1" class="node">
<title>Node1</title>
<g id="a_node1"><a xlink:title=" ">
<polygon fill="#bfbfbf" stroke="black" points="5288.17,-335.5 5288.17,-365.5 5440.17,-365.5 5440.17,-335.5 5288.17,-335.5"/>
<text text-anchor="start" x="5296.17" y="-353.5" font-family="Helvetica,sans-Serif" font-size="10.00">src/libs/vpatterndb</text>
<text text-anchor="middle" x="5364.17" y="-342.5" font-family="Helvetica,sans-Serif" font-size="10.00">/vtranslatemeasurements.h</text>
</a>
</g>
</g>
<!-- Node2 -->
<g id="node2" class="node">
<title>Node2</title>
<g id="a_node2"><a xlink:href="../../d9/de3/measurements_8cpp.html" target="_top" xlink:title=" ">
<polygon fill="white" stroke="black" points="5007.67,-268.5 5007.67,-298.5 5120.67,-298.5 5120.67,-268.5 5007.67,-268.5"/>
<text text-anchor="start" x="5015.67" y="-286.5" font-family="Helvetica,sans-Serif" font-size="10.00">src/libs/vpatterndb</text>
<text text-anchor="middle" x="5064.17" y="-275.5" font-family="Helvetica,sans-Serif" font-size="10.00">/measurements.cpp</text>
</a>
</g>
</g>
<!-- Node1&#45;&gt;Node2 -->
<g id="edge1" class="edge">
<title>Node1&#45;&gt;Node2</title>
<path fill="none" stroke="midnightblue" d="M5288.98,-333.35C5243.09,-323.47 5183.23,-310.55 5130.17,-299 5127.08,-298.33 5123.9,-297.63 5120.69,-296.93"/>
<polygon fill="midnightblue" stroke="midnightblue" points="5288.33,-336.79 5298.85,-335.47 5289.81,-329.94 5288.33,-336.79"/>
</g>
<!-- Node3 -->
<g id="node3" class="node">
<title>Node3</title>
<g id="a_node3"><a xlink:href="../../de/d3e/vtranslatevars_8cpp.html" target="_top" xlink:title=" ">
<polygon fill="white" stroke="black" points="5817.17,-67.5 5817.17,-97.5 5927.17,-97.5 5927.17,-67.5 5817.17,-67.5"/>
<text text-anchor="start" x="5825.17" y="-85.5" font-family="Helvetica,sans-Serif" font-size="10.00">src/libs/vpatterndb</text>
<text text-anchor="middle" x="5872.17" y="-74.5" font-family="Helvetica,sans-Serif" font-size="10.00">/vtranslatevars.cpp</text>
</a>
</g>
</g>
<!-- Node1&#45;&gt;Node3 -->
<g id="edge2" class="edge">
<title>Node1&#45;&gt;Node3</title>
<path fill="none" stroke="midnightblue" d="M5388.95,-328.85C5410.6,-311.37 5443.32,-286.32 5474.17,-268 5601.05,-192.66 5763.85,-125.68 5835.52,-97.56"/>
<polygon fill="midnightblue" stroke="midnightblue" points="5386.48,-326.34 5380.94,-335.38 5390.91,-331.77 5386.48,-326.34"/>
</g>
<!-- Node4 -->
<g id="node4" class="node">
<title>Node4</title>
<g id="a_node4"><a xlink:href="../../da/d69/vtranslatevars_8h.html" target="_top" xlink:title=" ">
<polygon fill="white" stroke="black" points="5138.67,-268.5 5138.67,-298.5 5245.67,-298.5 5245.67,-268.5 5138.67,-268.5"/>
<text text-anchor="start" x="5146.67" y="-286.5" font-family="Helvetica,sans-Serif" font-size="10.00">src/libs/vpatterndb</text>
<text text-anchor="middle" x="5192.17" y="-275.5" font-family="Helvetica,sans-Serif" font-size="10.00">/vtranslatevars.h</text>
</a>
</g>
</g>
<!-- Node1&#45;&gt;Node4 -->
<g id="edge3" class="edge">
<title>Node1&#45;&gt;Node4</title>
<path fill="none" stroke="midnightblue" d="M5317.38,-331.82C5289.74,-321.37 5255.21,-308.32 5229.42,-298.58"/>
<polygon fill="midnightblue" stroke="midnightblue" points="5316.26,-335.13 5326.85,-335.4 5318.73,-328.59 5316.26,-335.13"/>
</g>
<!-- Node67 -->
<g id="node50" class="node">
<title>Node67</title>
<g id="a_node50"><a xlink:href="../../d0/d50/vtranslatemeasurements_8cpp.html" target="_top" xlink:title=" ">
<polygon fill="white" stroke="black" points="5482.67,-268.5 5482.67,-298.5 5645.67,-298.5 5645.67,-268.5 5482.67,-268.5"/>
<text text-anchor="start" x="5490.67" y="-286.5" font-family="Helvetica,sans-Serif" font-size="10.00">src/libs/vpatterndb</text>
<text text-anchor="middle" x="5564.17" y="-275.5" font-family="Helvetica,sans-Serif" font-size="10.00">/vtranslatemeasurements.cpp</text>
</a>
</g>
</g>
<!-- Node1&#45;&gt;Node67 -->
<g id="edge62" class="edge">
<title>Node1&#45;&gt;Node67</title>
<path fill="none" stroke="midnightblue" d="M5417.32,-332.23C5449.67,-321.71 5490.48,-308.45 5520.86,-298.58"/>
<polygon fill="midnightblue" stroke="midnightblue" points="5416,-328.98 5407.57,-335.4 5418.16,-335.63 5416,-328.98"/>
</g>
<!-- Node4&#45;&gt;Node3 -->
<g id="edge58" class="edge">
<title>Node4&#45;&gt;Node3</title>
<path fill="none" stroke="midnightblue" d="M5255.79,-277.82C5295.48,-272.12 5345.75,-259.58 5382.17,-232 5422.52,-201.45 5397.48,-161.18 5440.17,-134 5509.48,-89.87 5727.06,-111.1 5808.17,-98 5811.1,-97.53 5814.09,-97 5817.1,-96.44"/>
<polygon fill="midnightblue" stroke="midnightblue" points="5255.14,-274.37 5245.68,-279.15 5256.05,-281.31 5255.14,-274.37"/>
</g>
<!-- Node5 -->
<g id="node5" class="node">
<title>Node5</title>
<g id="a_node5"><a xlink:href="../../d5/d74/vabstractapplication_8h.html" target="_top" xlink:title=" ">
<polygon fill="white" stroke="black" points="3336.67,-140 3336.67,-159 3531.67,-159 3531.67,-140 3336.67,-140"/>
<text text-anchor="middle" x="3434.17" y="-147" font-family="Helvetica,sans-Serif" font-size="10.00">src/libs/vmisc/vabstractapplication.h</text>
</a>
</g>
</g>
<!-- Node4&#45;&gt;Node5 -->
<g id="edge4" class="edge">
<title>Node4&#45;&gt;Node5</title>
<path fill="none" stroke="midnightblue" d="M5128.2,-267.85C4518.88,-176.96 3791.21,-156.4 3531.81,-151.79"/>
<polygon fill="midnightblue" stroke="midnightblue" points="5128.1,-271.37 5138.51,-269.39 5129.14,-264.45 5128.1,-271.37"/>
</g>
<!-- Node25 -->
<g id="node21" class="node">
<title>Node25</title>
<g id="a_node21"><a xlink:href="../../d6/d46/vcontainer_8cpp.html" target="_top" xlink:title=" ">
<polygon fill="white" stroke="black" points="5691.67,-67.5 5691.67,-97.5 5798.67,-97.5 5798.67,-67.5 5691.67,-67.5"/>
<text text-anchor="start" x="5699.67" y="-85.5" font-family="Helvetica,sans-Serif" font-size="10.00">src/libs/vpatterndb</text>
<text text-anchor="middle" x="5745.17" y="-74.5" font-family="Helvetica,sans-Serif" font-size="10.00">/vcontainer.cpp</text>
</a>
</g>
</g>
<!-- Node4&#45;&gt;Node25 -->
<g id="edge56" class="edge">
<title>Node4&#45;&gt;Node25</title>
<path fill="none" stroke="midnightblue" d="M5255.95,-276.44C5290.37,-270.21 5331.54,-257.57 5360.17,-232 5395.52,-200.44 5364.35,-162.55 5402.17,-134 5452.42,-96.07 5621.22,-109.18 5683.17,-98 5685.89,-97.51 5688.67,-96.98 5691.47,-96.41"/>
<polygon fill="midnightblue" stroke="midnightblue" points="5255.26,-273.01 5245.98,-278.11 5256.42,-279.91 5255.26,-273.01"/>
</g>
<!-- Node26 -->
<g id="node22" class="node">
<title>Node26</title>
<g id="a_node22"><a xlink:href="../../db/d11/vformula_8cpp.html" target="_top" xlink:title=" ">
<polygon fill="white" stroke="black" points="757.67,-67.5 757.67,-97.5 864.67,-97.5 864.67,-67.5 757.67,-67.5"/>
<text text-anchor="start" x="765.67" y="-85.5" font-family="Helvetica,sans-Serif" font-size="10.00">src/libs/vpatterndb</text>
<text text-anchor="middle" x="811.17" y="-74.5" font-family="Helvetica,sans-Serif" font-size="10.00">/vformula.cpp</text>
</a>
</g>
</g>
<!-- Node4&#45;&gt;Node26 -->
<g id="edge57" class="edge">
<title>Node4&#45;&gt;Node26</title>
<path fill="none" stroke="midnightblue" d="M5128.33,-267.97C4615.97,-203.78 1340.05,-160.36 874.17,-98 871.17,-97.6 868.1,-97.12 865.01,-96.58"/>
<polygon fill="midnightblue" stroke="midnightblue" points="5128.15,-271.47 5138.52,-269.3 5129.06,-264.53 5128.15,-271.47"/>
</g>
<!-- Node44 -->
<g id="node40" class="node">
<title>Node44</title>
<g id="a_node40"><a xlink:href="../../d3/df7/vcontainer_8h.html" target="_top" xlink:title=" ">
<polygon fill="white" stroke="red" points="772.67,-201.5 772.67,-231.5 879.67,-231.5 879.67,-201.5 772.67,-201.5"/>
<text text-anchor="start" x="780.67" y="-219.5" font-family="Helvetica,sans-Serif" font-size="10.00">src/libs/vpatterndb</text>
<text text-anchor="middle" x="826.17" y="-208.5" font-family="Helvetica,sans-Serif" font-size="10.00">/vcontainer.h</text>
</a>
</g>
</g>
<!-- Node4&#45;&gt;Node44 -->
<g id="edge41" class="edge">
<title>Node4&#45;&gt;Node44</title>
<path fill="none" stroke="midnightblue" d="M5128.47,-268.61C4906.48,-259.54 1360.18,-222.98 879.86,-218.05"/>
<polygon fill="midnightblue" stroke="midnightblue" points="5128.34,-272.11 5138.53,-269.2 5128.76,-265.12 5128.34,-272.11"/>
</g>
<!-- Node64 -->
<g id="node47" class="node">
<title>Node64</title>
<g id="a_node47"><a xlink:href="../../df/de5/dialogspline_8cpp.html" target="_top" xlink:title=" ">
<polygon fill="white" stroke="black" points="4891.17,-201.5 4891.17,-231.5 5017.17,-231.5 5017.17,-201.5 4891.17,-201.5"/>
<text text-anchor="start" x="4899.17" y="-219.5" font-family="Helvetica,sans-Serif" font-size="10.00">src/libs/vtools/dialogs</text>
<text text-anchor="middle" x="4954.17" y="-208.5" font-family="Helvetica,sans-Serif" font-size="10.00">/tools/dialogspline.cpp</text>
</a>
</g>
</g>
<!-- Node4&#45;&gt;Node64 -->
<g id="edge59" class="edge">
<title>Node4&#45;&gt;Node64</title>
<path fill="none" stroke="midnightblue" d="M5130.71,-265.71C5091.98,-255.14 5042.54,-241.63 5005.84,-231.61"/>
<polygon fill="midnightblue" stroke="midnightblue" points="5130.25,-269.22 5140.82,-268.48 5132.1,-262.46 5130.25,-269.22"/>
</g>
<!-- Node65 -->
<g id="node48" class="node">
<title>Node65</title>
<g id="a_node48"><a xlink:href="../../dc/dc2/dialogsplinepath_8cpp.html" target="_top" xlink:title=" ">
<polygon fill="white" stroke="black" points="5035.17,-201.5 5035.17,-231.5 5183.17,-231.5 5183.17,-201.5 5035.17,-201.5"/>
<text text-anchor="start" x="5043.17" y="-219.5" font-family="Helvetica,sans-Serif" font-size="10.00">src/libs/vtools/dialogs</text>
<text text-anchor="middle" x="5109.17" y="-208.5" font-family="Helvetica,sans-Serif" font-size="10.00">/tools/dialogsplinepath.cpp</text>
</a>
</g>
</g>
<!-- Node4&#45;&gt;Node65 -->
<g id="edge60" class="edge">
<title>Node4&#45;&gt;Node65</title>
<path fill="none" stroke="midnightblue" d="M5166.21,-262.17C5153.52,-252.23 5138.56,-240.51 5127.15,-231.58"/>
<polygon fill="midnightblue" stroke="midnightblue" points="5164.13,-264.99 5174.16,-268.4 5168.45,-259.47 5164.13,-264.99"/>
</g>
<!-- Node66 -->
<g id="node49" class="node">
<title>Node66</title>
<g id="a_node49"><a xlink:href="../../d1/d75/vistoolendline_8cpp.html" target="_top" xlink:title=" ">
<polygon fill="white" stroke="black" points="5201.67,-201.5 5201.67,-231.5 5350.67,-231.5 5350.67,-201.5 5201.67,-201.5"/>
<text text-anchor="start" x="5209.67" y="-219.5" font-family="Helvetica,sans-Serif" font-size="10.00">src/libs/vtools/visualization</text>
<text text-anchor="middle" x="5276.17" y="-208.5" font-family="Helvetica,sans-Serif" font-size="10.00">/line/vistoolendline.cpp</text>
</a>
</g>
</g>
<!-- Node4&#45;&gt;Node66 -->
<g id="edge61" class="edge">
<title>Node4&#45;&gt;Node66</title>
<path fill="none" stroke="midnightblue" d="M5218.45,-262.17C5231.29,-252.23 5246.43,-240.51 5257.98,-231.58"/>
<polygon fill="midnightblue" stroke="midnightblue" points="5216.17,-259.51 5210.4,-268.4 5220.45,-265.04 5216.17,-259.51"/>
</g>
<!-- Node5&#45;&gt;Node3 -->
<g id="edge26" class="edge">
<title>Node5&#45;&gt;Node3</title>
<path fill="none" stroke="midnightblue" d="M3541.7,-147.49C3975.18,-143.24 5581.96,-125.74 5808.17,-98 5811.11,-97.64 5814.12,-97.2 5817.14,-96.71"/>
<polygon fill="midnightblue" stroke="midnightblue" points="3541.64,-143.99 3531.68,-147.59 3541.71,-150.99 3541.64,-143.99"/>
</g>
<!-- Node6 -->
<g id="node6" class="node">
<title>Node6</title>
<g id="a_node6"><a xlink:href="../../d4/d90/fvupdater_8cpp.html" target="_top" xlink:title=" ">
<polygon fill="white" stroke="black" points="4088.67,-73 4088.67,-92 4241.67,-92 4241.67,-73 4088.67,-73"/>
<text text-anchor="middle" x="4165.17" y="-80" font-family="Helvetica,sans-Serif" font-size="10.00">src/libs/fervor/fvupdater.cpp</text>
</a>
</g>
</g>
<!-- Node5&#45;&gt;Node6 -->
<g id="edge5" class="edge">
<title>Node5&#45;&gt;Node6</title>
<path fill="none" stroke="midnightblue" d="M3542.09,-143.07C3670.6,-135.91 3891.59,-121.41 4080.17,-98 4093.1,-96.4 4107.05,-94.21 4119.85,-92.02"/>
<polygon fill="midnightblue" stroke="midnightblue" points="3541.65,-139.59 3531.85,-143.64 3542.03,-146.58 3541.65,-139.59"/>
</g>
<!-- Node7 -->
<g id="node7" class="node">
<title>Node7</title>
<g id="a_node7"><a xlink:href="../../d9/dc8/dxiface_8cpp.html" target="_top" xlink:title=" ">
<polygon fill="white" stroke="black" points="4259.67,-73 4259.67,-92 4394.67,-92 4394.67,-73 4259.67,-73"/>
<text text-anchor="middle" x="4327.17" y="-80" font-family="Helvetica,sans-Serif" font-size="10.00">src/libs/vdxf/dxiface.cpp</text>
</a>
</g>
</g>
<!-- Node5&#45;&gt;Node7 -->
<g id="edge6" class="edge">
<title>Node5&#45;&gt;Node7</title>
<path fill="none" stroke="midnightblue" d="M3541.81,-146.19C3698.45,-141.85 3998.17,-129.82 4251.17,-98 4263.03,-96.51 4275.83,-94.3 4287.49,-92.06"/>
<polygon fill="midnightblue" stroke="midnightblue" points="3541.6,-142.69 3531.7,-146.47 3541.79,-149.69 3541.6,-142.69"/>
</g>
<!-- Node8 -->
<g id="node8" class="node">
<title>Node8</title>
<g id="a_node8"><a xlink:href="../../da/d75/vabstractarc__p_8h.html" target="_top" xlink:title=" ">
<polygon fill="white" stroke="red" points="4412.67,-67.5 4412.67,-97.5 4519.67,-97.5 4519.67,-67.5 4412.67,-67.5"/>
<text text-anchor="start" x="4420.67" y="-85.5" font-family="Helvetica,sans-Serif" font-size="10.00">src/libs/vgeometry</text>
<text text-anchor="middle" x="4466.17" y="-74.5" font-family="Helvetica,sans-Serif" font-size="10.00">/vabstractarc_p.h</text>
</a>
</g>
</g>
<!-- Node5&#45;&gt;Node8 -->
<g id="edge7" class="edge">
<title>Node5&#45;&gt;Node8</title>
<path fill="none" stroke="midnightblue" d="M3542.03,-149.12C3721.74,-148.75 4093.4,-142.07 4404.17,-98 4406.91,-97.61 4409.7,-97.16 4412.51,-96.66"/>
<polygon fill="midnightblue" stroke="midnightblue" points="3541.78,-145.62 3531.79,-149.13 3541.79,-152.62 3541.78,-145.62"/>
</g>
<!-- Node10 -->
<g id="node9" class="node">
<title>Node10</title>
<g id="a_node9"><a xlink:href="../../dc/da3/varc__p_8h.html" target="_top" xlink:title=" ">
<polygon fill="white" stroke="red" points="4537.67,-67.5 4537.67,-97.5 4644.67,-97.5 4644.67,-67.5 4537.67,-67.5"/>
<text text-anchor="start" x="4545.67" y="-85.5" font-family="Helvetica,sans-Serif" font-size="10.00">src/libs/vgeometry</text>
<text text-anchor="middle" x="4591.17" y="-74.5" font-family="Helvetica,sans-Serif" font-size="10.00">/varc_p.h</text>
</a>
</g>
</g>
<!-- Node5&#45;&gt;Node10 -->
<g id="edge8" class="edge">
<title>Node5&#45;&gt;Node10</title>
<path fill="none" stroke="midnightblue" d="M3541.81,-146.05C3779.05,-140.25 4340.79,-124.15 4529.17,-98 4531.91,-97.62 4534.7,-97.18 4537.52,-96.68"/>
<polygon fill="midnightblue" stroke="midnightblue" points="3541.7,-142.55 3531.79,-146.3 3541.87,-149.55 3541.7,-142.55"/>
</g>
<!-- Node12 -->
<g id="node10" class="node">
<title>Node12</title>
<g id="a_node10"><a xlink:href="../../d5/d8e/vcubicbezier__p_8h.html" target="_top" xlink:title=" ">
<polygon fill="white" stroke="red" points="4662.67,-67.5 4662.67,-97.5 4769.67,-97.5 4769.67,-67.5 4662.67,-67.5"/>
<text text-anchor="start" x="4670.67" y="-85.5" font-family="Helvetica,sans-Serif" font-size="10.00">src/libs/vgeometry</text>
<text text-anchor="middle" x="4716.17" y="-74.5" font-family="Helvetica,sans-Serif" font-size="10.00">/vcubicbezier_p.h</text>
</a>
</g>
</g>
<!-- Node5&#45;&gt;Node12 -->
<g id="edge9" class="edge">
<title>Node5&#45;&gt;Node12</title>
<path fill="none" stroke="midnightblue" d="M3541.84,-146.64C3798.52,-141.8 4440.94,-127.08 4654.17,-98 4656.91,-97.63 4659.71,-97.19 4662.52,-96.7"/>
<polygon fill="midnightblue" stroke="midnightblue" points="3541.69,-143.15 3531.76,-146.83 3541.82,-150.15 3541.69,-143.15"/>
</g>
<!-- Node14 -->
<g id="node11" class="node">
<title>Node14</title>
<g id="a_node11"><a xlink:href="../../df/dde/vellipticalarc__p_8h.html" target="_top" xlink:title=" ">
<polygon fill="white" stroke="black" points="5280.67,-67.5 5280.67,-97.5 5387.67,-97.5 5387.67,-67.5 5280.67,-67.5"/>
<text text-anchor="start" x="5288.67" y="-85.5" font-family="Helvetica,sans-Serif" font-size="10.00">src/libs/vgeometry</text>
<text text-anchor="middle" x="5334.17" y="-74.5" font-family="Helvetica,sans-Serif" font-size="10.00">/vellipticalarc_p.h</text>
</a>
</g>
</g>
<!-- Node5&#45;&gt;Node14 -->
<g id="edge10" class="edge">
<title>Node5&#45;&gt;Node14</title>
<path fill="none" stroke="midnightblue" d="M3541.84,-148.4C3882.52,-147.63 4934.37,-141.68 5272.17,-98 5274.91,-97.65 5277.71,-97.22 5280.53,-96.75"/>
<polygon fill="midnightblue" stroke="midnightblue" points="3541.72,-144.9 3531.72,-148.42 3541.73,-151.9 3541.72,-144.9"/>
</g>
<!-- Node15 -->
<g id="node12" class="node">
<title>Node15</title>
<g id="a_node12"><a xlink:href="../../d6/dfb/vellipticalarc_8cpp.html" target="_top" xlink:title=" ">
<polygon fill="white" stroke="black" points="5074.67,-0.5 5074.67,-30.5 5181.67,-30.5 5181.67,-0.5 5074.67,-0.5"/>
<text text-anchor="start" x="5082.67" y="-18.5" font-family="Helvetica,sans-Serif" font-size="10.00">src/libs/vgeometry</text>
<text text-anchor="middle" x="5128.17" y="-7.5" font-family="Helvetica,sans-Serif" font-size="10.00">/vellipticalarc.cpp</text>
</a>
</g>
</g>
<!-- Node5&#45;&gt;Node15 -->
<g id="edge12" class="edge">
<title>Node5&#45;&gt;Node15</title>
<path fill="none" stroke="midnightblue" d="M3541.82,-148.68C3859.32,-148.69 4777.65,-144.61 4904.17,-98 4924.95,-90.35 4923.42,-77.01 4943.17,-67 4984.9,-45.86 5036.55,-32.71 5074.66,-25.15"/>
<polygon fill="midnightblue" stroke="midnightblue" points="3541.69,-145.18 3531.69,-148.68 3541.69,-152.18 3541.69,-145.18"/>
</g>
<!-- Node16 -->
<g id="node13" class="node">
<title>Node16</title>
<g id="a_node13"><a xlink:href="../../d1/d76/vspline__p_8h.html" target="_top" xlink:title=" ">
<polygon fill="white" stroke="red" points="4951.67,-67.5 4951.67,-97.5 5058.67,-97.5 5058.67,-67.5 4951.67,-67.5"/>
<text text-anchor="start" x="4959.67" y="-85.5" font-family="Helvetica,sans-Serif" font-size="10.00">src/libs/vgeometry</text>
<text text-anchor="middle" x="5005.17" y="-74.5" font-family="Helvetica,sans-Serif" font-size="10.00">/vspline_p.h</text>
</a>
</g>
</g>
<!-- Node5&#45;&gt;Node16 -->
<g id="edge13" class="edge">
<title>Node5&#45;&gt;Node16</title>
<path fill="none" stroke="midnightblue" d="M3542.18,-147.35C3839.71,-143.78 4666.97,-131.08 4937.17,-98 4941.84,-97.43 4946.67,-96.69 4951.5,-95.86"/>
<polygon fill="midnightblue" stroke="midnightblue" points="3541.78,-143.85 3531.83,-147.47 3541.87,-150.85 3541.78,-143.85"/>
</g>
<!-- Node18 -->
<g id="node14" class="node">
<title>Node18</title>
<g id="a_node14"><a xlink:href="../../d9/d15/vabstractpiece_8cpp.html" target="_top" xlink:title=" ">
<polygon fill="white" stroke="black" points="5077.17,-73 5077.17,-92 5263.17,-92 5263.17,-73 5077.17,-73"/>
<text text-anchor="middle" x="5170.17" y="-80" font-family="Helvetica,sans-Serif" font-size="10.00">src/libs/vlayout/vabstractpiece.cpp</text>
</a>
</g>
</g>
<!-- Node5&#45;&gt;Node18 -->
<g id="edge14" class="edge">
<title>Node5&#45;&gt;Node18</title>
<path fill="none" stroke="midnightblue" d="M3542.28,-149.27C3804.46,-150.25 4494.75,-147.47 5068.17,-98 5084.48,-96.59 5102.16,-94.34 5118.15,-92.02"/>
<polygon fill="midnightblue" stroke="midnightblue" points="3542.02,-145.77 3532,-149.23 3541.99,-152.77 3542.02,-145.77"/>
</g>
<!-- Node19 -->
<g id="node15" class="node">
<title>Node19</title>
<g id="a_node15"><a xlink:href="../../dd/d70/vlayoutpiece_8cpp.html" target="_top" xlink:title=" ">
<polygon fill="white" stroke="black" points="361.67,-73 361.67,-92 538.67,-92 538.67,-73 361.67,-73"/>
<text text-anchor="middle" x="450.17" y="-80" font-family="Helvetica,sans-Serif" font-size="10.00">src/libs/vlayout/vlayoutpiece.cpp</text>
</a>
</g>
</g>
<!-- Node5&#45;&gt;Node19 -->
<g id="edge15" class="edge">
<title>Node5&#45;&gt;Node19</title>
<path fill="none" stroke="midnightblue" d="M3326.19,-148.48C2870.58,-148.12 1103.3,-143.73 548.17,-98 532.15,-96.68 514.75,-94.39 499.13,-92.01"/>
<polygon fill="midnightblue" stroke="midnightblue" points="3326.38,-151.98 3336.38,-148.49 3326.39,-144.98 3326.38,-151.98"/>
</g>
<!-- Node20 -->
<g id="node16" class="node">
<title>Node20</title>
<g id="a_node16"><a xlink:href="../../d8/d70/vtextmanager_8cpp.html" target="_top" xlink:title=" ">
<polygon fill="white" stroke="black" points="557.17,-73 557.17,-92 739.17,-92 739.17,-73 557.17,-73"/>
<text text-anchor="middle" x="648.17" y="-80" font-family="Helvetica,sans-Serif" font-size="10.00">src/libs/vlayout/vtextmanager.cpp</text>
</a>
</g>
</g>
<!-- Node5&#45;&gt;Node20 -->
<g id="edge16" class="edge">
<title>Node5&#45;&gt;Node20</title>
<path fill="none" stroke="midnightblue" d="M3326.55,-148.26C2891.65,-147 1262.84,-139.54 749.17,-98 732.75,-96.67 714.93,-94.4 698.9,-92.03"/>
<polygon fill="midnightblue" stroke="midnightblue" points="3326.59,-151.76 3336.6,-148.28 3326.61,-144.76 3326.59,-151.76"/>
</g>
<!-- Node21 -->
<g id="node17" class="node">
<title>Node21</title>
<g id="a_node17"><a xlink:href="../../d6/d0b/def_8cpp.html" target="_top" xlink:title=" ">
<polygon fill="white" stroke="black" points="5406.17,-73 5406.17,-92 5528.17,-92 5528.17,-73 5406.17,-73"/>
<text text-anchor="middle" x="5467.17" y="-80" font-family="Helvetica,sans-Serif" font-size="10.00">src/libs/vmisc/def.cpp</text>
</a>
</g>
</g>
<!-- Node5&#45;&gt;Node21 -->
<g id="edge17" class="edge">
<title>Node5&#45;&gt;Node21</title>
<path fill="none" stroke="midnightblue" d="M3541.72,-148.26C3897.34,-147.08 5033.33,-140.02 5397.17,-98 5408.64,-96.68 5421.01,-94.4 5432.12,-92.04"/>
<polygon fill="midnightblue" stroke="midnightblue" points="3541.67,-144.76 3531.68,-148.29 3541.69,-151.76 3541.67,-144.76"/>
</g>
<!-- Node22 -->
<g id="node18" class="node">
<title>Node22</title>
<g id="a_node18"><a xlink:href="../../db/d65/dialogexporttocsv_8cpp.html" target="_top" xlink:title=" ">
<polygon fill="white" stroke="black" points="5546.67,-67.5 5546.67,-97.5 5673.67,-97.5 5673.67,-67.5 5546.67,-67.5"/>
<text text-anchor="start" x="5554.67" y="-85.5" font-family="Helvetica,sans-Serif" font-size="10.00">src/libs/vmisc/dialogs</text>
<text text-anchor="middle" x="5610.17" y="-74.5" font-family="Helvetica,sans-Serif" font-size="10.00">/dialogexporttocsv.cpp</text>
</a>
</g>
</g>
<!-- Node5&#45;&gt;Node22 -->
<g id="edge18" class="edge">
<title>Node5&#45;&gt;Node22</title>
<path fill="none" stroke="midnightblue" d="M3541.9,-147C3943.22,-141.27 5338.61,-119.94 5537.17,-98 5540.25,-97.66 5543.4,-97.26 5546.57,-96.8"/>
<polygon fill="midnightblue" stroke="midnightblue" points="3541.69,-143.5 3531.74,-147.15 3541.79,-150.5 3541.69,-143.5"/>
</g>
<!-- Node23 -->
<g id="node19" class="node">
<title>Node23</title>
<g id="a_node19"><a xlink:href="../../d0/df6/vabstractapplication_8cpp.html" target="_top" xlink:title=" ">
<polygon fill="white" stroke="black" points="883.17,-73 883.17,-92 1089.17,-92 1089.17,-73 883.17,-73"/>
<text text-anchor="middle" x="986.17" y="-80" font-family="Helvetica,sans-Serif" font-size="10.00">src/libs/vmisc/vabstractapplication.cpp</text>
</a>
</g>
</g>
<!-- Node5&#45;&gt;Node23 -->
<g id="edge19" class="edge">
<title>Node5&#45;&gt;Node23</title>
<path fill="none" stroke="midnightblue" d="M3326.36,-146.84C2897.14,-140.15 1322.34,-114.68 1099.17,-98 1080.93,-96.64 1061.11,-94.36 1043.25,-92.02"/>
<polygon fill="midnightblue" stroke="midnightblue" points="3326.53,-150.35 3336.59,-147 3326.64,-143.35 3326.53,-150.35"/>
</g>
<!-- Node24 -->
<g id="node20" class="node">
<title>Node24</title>
<g id="a_node20"><a xlink:href="../../d4/d4f/pmsystems_8cpp.html" target="_top" xlink:title=" ">
<polygon fill="white" stroke="black" points="1107.67,-67.5 1107.67,-97.5 1214.67,-97.5 1214.67,-67.5 1107.67,-67.5"/>
<text text-anchor="start" x="1115.67" y="-85.5" font-family="Helvetica,sans-Serif" font-size="10.00">src/libs/vpatterndb</text>
<text text-anchor="middle" x="1161.17" y="-74.5" font-family="Helvetica,sans-Serif" font-size="10.00">/pmsystems.cpp</text>
</a>
</g>
</g>
<!-- Node5&#45;&gt;Node24 -->
<g id="edge20" class="edge">
<title>Node5&#45;&gt;Node24</title>
<path fill="none" stroke="midnightblue" d="M3326.22,-147.32C2911.5,-142.62 1433.35,-124.19 1224.17,-98 1221.17,-97.62 1218.09,-97.17 1215,-96.65"/>
<polygon fill="midnightblue" stroke="midnightblue" points="3326.37,-150.82 3336.41,-147.44 3326.45,-143.82 3326.37,-150.82"/>
</g>
<!-- Node5&#45;&gt;Node25 -->
<g id="edge21" class="edge">
<title>Node5&#45;&gt;Node25</title>
<path fill="none" stroke="midnightblue" d="M3542.26,-147.39C3961.84,-142.9 5470.04,-125.02 5683.17,-98 5685.91,-97.65 5688.71,-97.23 5691.53,-96.76"/>
<polygon fill="midnightblue" stroke="midnightblue" points="3541.91,-143.89 3531.95,-147.5 3541.99,-150.89 3541.91,-143.89"/>
</g>
<!-- Node5&#45;&gt;Node26 -->
<g id="edge22" class="edge">
<title>Node5&#45;&gt;Node26</title>
<path fill="none" stroke="midnightblue" d="M3326.29,-146.99C2855.3,-140.34 997.38,-113.23 874.17,-98 871.16,-97.63 868.09,-97.17 865,-96.66"/>
<polygon fill="midnightblue" stroke="midnightblue" points="3326.43,-150.5 3336.48,-147.14 3326.53,-143.5 3326.43,-150.5"/>
</g>
<!-- Node27 -->
<g id="node23" class="node">
<title>Node27</title>
<g id="a_node23"><a xlink:href="../../df/d7a/vpiece_8cpp.html" target="_top" xlink:title=" ">
<polygon fill="white" stroke="black" points="22.67,-67.5 22.67,-97.5 129.67,-97.5 129.67,-67.5 22.67,-67.5"/>
<text text-anchor="start" x="30.67" y="-85.5" font-family="Helvetica,sans-Serif" font-size="10.00">src/libs/vpatterndb</text>
<text text-anchor="middle" x="76.17" y="-74.5" font-family="Helvetica,sans-Serif" font-size="10.00">/vpiece.cpp</text>
</a>
</g>
</g>
<!-- Node5&#45;&gt;Node27 -->
<g id="edge23" class="edge">
<title>Node5&#45;&gt;Node27</title>
<path fill="none" stroke="midnightblue" d="M3326.22,-148.2C2793.87,-146.53 460.86,-137.04 139.17,-98 136.16,-97.63 133.09,-97.19 130,-96.67"/>
<polygon fill="midnightblue" stroke="midnightblue" points="3326.57,-151.7 3336.58,-148.23 3326.59,-144.7 3326.57,-151.7"/>
</g>
<!-- Node28 -->
<g id="node24" class="node">
<title>Node28</title>
<g id="a_node24"><a xlink:href="../../df/dba/vpiecenode__p_8h.html" target="_top" xlink:title=" ">
<polygon fill="white" stroke="black" points="4787.67,-67.5 4787.67,-97.5 4894.67,-97.5 4894.67,-67.5 4787.67,-67.5"/>
<text text-anchor="start" x="4795.67" y="-85.5" font-family="Helvetica,sans-Serif" font-size="10.00">src/libs/vpatterndb</text>
<text text-anchor="middle" x="4841.17" y="-74.5" font-family="Helvetica,sans-Serif" font-size="10.00">/vpiecenode_p.h</text>
</a>
</g>
</g>
<!-- Node5&#45;&gt;Node28 -->
<g id="edge24" class="edge">
<title>Node5&#45;&gt;Node28</title>
<path fill="none" stroke="midnightblue" d="M3542.33,-147.12C3817.85,-143.18 4541.09,-130.01 4779.17,-98 4781.91,-97.63 4784.71,-97.2 4787.52,-96.71"/>
<polygon fill="midnightblue" stroke="midnightblue" points="3541.88,-143.63 3531.93,-147.27 3541.98,-150.63 3541.88,-143.63"/>
</g>
<!-- Node30 -->
<g id="node26" class="node">
<title>Node30</title>
<g id="a_node26"><a xlink:href="../../df/d40/export__format__combobox_8cpp.html" target="_top" xlink:title=" ">
<polygon fill="white" stroke="black" points="1232.67,-67.5 1232.67,-97.5 1365.67,-97.5 1365.67,-67.5 1232.67,-67.5"/>
<text text-anchor="start" x="1240.67" y="-85.5" font-family="Helvetica,sans-Serif" font-size="10.00">src/libs/vwidgets/export</text>
<text text-anchor="middle" x="1299.17" y="-74.5" font-family="Helvetica,sans-Serif" font-size="10.00">_format_combobox.cpp</text>
</a>
</g>
</g>
<!-- Node5&#45;&gt;Node30 -->
<g id="edge27" class="edge">
<title>Node5&#45;&gt;Node30</title>
<path fill="none" stroke="midnightblue" d="M3326.36,-146.89C2930.38,-140.85 1569.27,-118.75 1375.17,-98 1372.1,-97.67 1368.97,-97.29 1365.81,-96.85"/>
<polygon fill="midnightblue" stroke="midnightblue" points="3326.33,-150.39 3336.38,-147.05 3326.43,-143.39 3326.33,-150.39"/>
</g>
<!-- Node31 -->
<g id="node27" class="node">
<title>Node31</title>
<g id="a_node27"><a xlink:href="../../d3/d4f/mouse__coordinates_8cpp.html" target="_top" xlink:title=" ">
<polygon fill="white" stroke="black" points="1384.17,-67.5 1384.17,-97.5 1518.17,-97.5 1518.17,-67.5 1384.17,-67.5"/>
<text text-anchor="start" x="1392.17" y="-85.5" font-family="Helvetica,sans-Serif" font-size="10.00">src/libs/vwidgets/mouse</text>
<text text-anchor="middle" x="1451.17" y="-74.5" font-family="Helvetica,sans-Serif" font-size="10.00">_coordinates.cpp</text>
</a>
</g>
</g>
<!-- Node5&#45;&gt;Node31 -->
<g id="edge28" class="edge">
<title>Node5&#45;&gt;Node31</title>
<path fill="none" stroke="midnightblue" d="M3326.52,-147.91C2977.68,-145.64 1880.69,-135.62 1528.17,-98 1524.93,-97.65 1521.61,-97.24 1518.27,-96.79"/>
<polygon fill="midnightblue" stroke="midnightblue" points="3326.59,-151.41 3336.62,-147.97 3326.64,-144.41 3326.59,-151.41"/>
</g>
<!-- Node32 -->
<g id="node28" class="node">
<title>Node32</title>
<g id="a_node28"><a xlink:href="../../d7/d1b/pen__toolbar_8cpp.html" target="_top" xlink:title=" ">
<polygon fill="white" stroke="black" points="1536.67,-67.5 1536.67,-97.5 1655.67,-97.5 1655.67,-67.5 1536.67,-67.5"/>
<text text-anchor="start" x="1544.67" y="-85.5" font-family="Helvetica,sans-Serif" font-size="10.00">src/libs/vwidgets/pen</text>
<text text-anchor="middle" x="1596.17" y="-74.5" font-family="Helvetica,sans-Serif" font-size="10.00">_toolbar.cpp</text>
</a>
</g>
</g>
<!-- Node5&#45;&gt;Node32 -->
<g id="edge29" class="edge">
<title>Node5&#45;&gt;Node32</title>
<path fill="none" stroke="midnightblue" d="M3326.31,-147.95C2994.11,-145.84 1989.33,-136.38 1665.17,-98 1662.13,-97.64 1659.03,-97.21 1655.9,-96.73"/>
<polygon fill="midnightblue" stroke="midnightblue" points="3326.4,-151.45 3336.42,-148.01 3326.44,-144.45 3326.4,-151.45"/>
</g>
<!-- Node33 -->
<g id="node29" class="node">
<title>Node33</title>
<g id="a_node29"><a xlink:href="../../d8/d76/scene__rect_8cpp.html" target="_top" xlink:title=" ">
<polygon fill="white" stroke="black" points="1674.17,-67.5 1674.17,-97.5 1804.17,-97.5 1804.17,-67.5 1674.17,-67.5"/>
<text text-anchor="start" x="1682.17" y="-85.5" font-family="Helvetica,sans-Serif" font-size="10.00">src/libs/vwidgets/scene</text>
<text text-anchor="middle" x="1739.17" y="-74.5" font-family="Helvetica,sans-Serif" font-size="10.00">_rect.cpp</text>
</a>
</g>
</g>
<!-- Node5&#45;&gt;Node33 -->
<g id="edge30" class="edge">
<title>Node5&#45;&gt;Node33</title>
<path fill="none" stroke="midnightblue" d="M3326.11,-147.39C3012.92,-143.8 2108.31,-130.81 1814.17,-98 1811.01,-97.65 1807.78,-97.23 1804.52,-96.77"/>
<polygon fill="midnightblue" stroke="midnightblue" points="3326.51,-150.89 3336.55,-147.5 3326.59,-143.89 3326.51,-150.89"/>
</g>
<!-- Node34 -->
<g id="node30" class="node">
<title>Node34</title>
<g id="a_node30"><a xlink:href="../../dd/df6/vabstractmainwindow_8cpp.html" target="_top" xlink:title=" ">
<polygon fill="white" stroke="black" points="1822.67,-73 1822.67,-92 2051.67,-92 2051.67,-73 1822.67,-73"/>
<text text-anchor="middle" x="1937.17" y="-80" font-family="Helvetica,sans-Serif" font-size="10.00">src/libs/vwidgets/vabstractmainwindow.cpp</text>
</a>
</g>
</g>
<!-- Node5&#45;&gt;Node34 -->
<g id="edge31" class="edge">
<title>Node5&#45;&gt;Node34</title>
<path fill="none" stroke="midnightblue" d="M3326.52,-147.45C3094.8,-144.56 2531.62,-134.1 2061.17,-98 2041.72,-96.51 2020.62,-94.27 2001.44,-92"/>
<polygon fill="midnightblue" stroke="midnightblue" points="3326.59,-150.96 3336.64,-147.58 3326.68,-143.96 3326.59,-150.96"/>
</g>
<!-- Node35 -->
<g id="node31" class="node">
<title>Node35</title>
<g id="a_node31"><a xlink:href="../../d1/d90/vgrainlineitem_8cpp.html" target="_top" xlink:title=" ">
<polygon fill="white" stroke="black" points="2069.67,-73 2069.67,-92 2262.67,-92 2262.67,-73 2069.67,-73"/>
<text text-anchor="middle" x="2166.17" y="-80" font-family="Helvetica,sans-Serif" font-size="10.00">src/libs/vwidgets/vgrainlineitem.cpp</text>
</a>
</g>
</g>
<!-- Node5&#45;&gt;Node35 -->
<g id="edge32" class="edge">
<title>Node5&#45;&gt;Node35</title>
<path fill="none" stroke="midnightblue" d="M3326.22,-147.14C3120.68,-143.81 2659.07,-132.79 2272.17,-98 2255.62,-96.51 2237.68,-94.29 2221.35,-92.03"/>
<polygon fill="midnightblue" stroke="midnightblue" points="3326.36,-150.64 3336.41,-147.3 3326.47,-143.64 3326.36,-150.64"/>
</g>
<!-- Node36 -->
<g id="node32" class="node">
<title>Node36</title>
<g id="a_node32"><a xlink:href="../../de/d45/vcontrolpointspline_8cpp.html" target="_top" xlink:title=" ">
<polygon fill="white" stroke="black" points="2280.67,-73 2280.67,-92 2495.67,-92 2495.67,-73 2280.67,-73"/>
<text text-anchor="middle" x="2388.17" y="-80" font-family="Helvetica,sans-Serif" font-size="10.00">src/libs/vwidgets/vcontrolpointspline.cpp</text>
</a>
</g>
</g>
<!-- Node5&#45;&gt;Node36 -->
<g id="edge33" class="edge">
<title>Node5&#45;&gt;Node36</title>
<path fill="none" stroke="midnightblue" d="M3326.23,-145.05C3152.86,-138.97 2801.73,-124.41 2505.17,-98 2487.33,-96.41 2468.02,-94.22 2450.33,-92.01"/>
<polygon fill="midnightblue" stroke="midnightblue" points="3326.26,-148.55 3336.38,-145.4 3326.5,-141.56 3326.26,-148.55"/>
</g>
<!-- Node37 -->
<g id="node33" class="node">
<title>Node37</title>
<g id="a_node33"><a xlink:href="../../d1/d88/vmaingraphicsscene_8cpp.html" target="_top" xlink:title=" ">
<polygon fill="white" stroke="black" points="2514.17,-73 2514.17,-92 2736.17,-92 2736.17,-73 2514.17,-73"/>
<text text-anchor="middle" x="2625.17" y="-80" font-family="Helvetica,sans-Serif" font-size="10.00">src/libs/vwidgets/vmaingraphicsscene.cpp</text>
</a>
</g>
</g>
<!-- Node5&#45;&gt;Node37 -->
<g id="edge34" class="edge">
<title>Node5&#45;&gt;Node37</title>
<path fill="none" stroke="midnightblue" d="M3326.5,-142.18C3190.8,-133.86 2950.44,-117.91 2745.17,-98 2727.63,-96.3 2708.68,-94.15 2691.13,-92.04"/>
<polygon fill="midnightblue" stroke="midnightblue" points="3326.3,-145.68 3336.49,-142.79 3326.73,-138.69 3326.3,-145.68"/>
</g>
<!-- Node38 -->
<g id="node34" class="node">
<title>Node38</title>
<g id="a_node34"><a xlink:href="../../de/dec/vgraphicssimpletextitem_8cpp.html" target="_top" xlink:title=" ">
<polygon fill="white" stroke="black" points="2754.17,-73 2754.17,-92 2998.17,-92 2998.17,-73 2754.17,-73"/>
<text text-anchor="middle" x="2876.17" y="-80" font-family="Helvetica,sans-Serif" font-size="10.00">src/libs/vwidgets/vgraphicssimpletextitem.cpp</text>
</a>
</g>
</g>
<!-- Node5&#45;&gt;Node38 -->
<g id="edge35" class="edge">
<title>Node5&#45;&gt;Node38</title>
<path fill="none" stroke="midnightblue" d="M3350.98,-138.81C3242.17,-126.13 3053.2,-104.12 2949.5,-92.04"/>
<polygon fill="midnightblue" stroke="midnightblue" points="3350.6,-142.29 3360.94,-139.97 3351.41,-135.34 3350.6,-142.29"/>
</g>
<!-- Node39 -->
<g id="node35" class="node">
<title>Node39</title>
<g id="a_node35"><a xlink:href="../../d0/d5d/vscenepoint_8cpp.html" target="_top" xlink:title=" ">
<polygon fill="white" stroke="black" points="3016.67,-73 3016.67,-92 3197.67,-92 3197.67,-73 3016.67,-73"/>
<text text-anchor="middle" x="3107.17" y="-80" font-family="Helvetica,sans-Serif" font-size="10.00">src/libs/vwidgets/vscenepoint.cpp</text>
</a>
</g>
</g>
<!-- Node5&#45;&gt;Node39 -->
<g id="edge36" class="edge">
<title>Node5&#45;&gt;Node39</title>
<path fill="none" stroke="midnightblue" d="M3381.14,-137.96C3316.78,-125.16 3209.52,-103.84 3150.09,-92.03"/>
<polygon fill="midnightblue" stroke="midnightblue" points="3380.6,-141.42 3391.09,-139.94 3381.96,-134.55 3380.6,-141.42"/>
</g>
<!-- Node40 -->
<g id="node36" class="node">
<title>Node40</title>
<g id="a_node36"><a xlink:href="../../d2/d31/vmaingraphicsview_8cpp.html" target="_top" xlink:title=" ">
<polygon fill="white" stroke="black" points="3216.17,-73 3216.17,-92 3432.17,-92 3432.17,-73 3216.17,-73"/>
<text text-anchor="middle" x="3324.17" y="-80" font-family="Helvetica,sans-Serif" font-size="10.00">src/libs/vwidgets/vmaingraphicsview.cpp</text>
</a>
</g>
</g>
<!-- Node5&#45;&gt;Node40 -->
<g id="edge37" class="edge">
<title>Node5&#45;&gt;Node40</title>
<path fill="none" stroke="midnightblue" d="M3410.67,-134.62C3388.88,-121.74 3357.13,-102.98 3338.77,-92.13"/>
<polygon fill="midnightblue" stroke="midnightblue" points="3408.95,-137.66 3419.34,-139.73 3412.51,-131.63 3408.95,-137.66"/>
</g>
<!-- Node41 -->
<g id="node37" class="node">
<title>Node41</title>
<g id="a_node37"><a xlink:href="../../de/d22/vsimplecurve_8cpp.html" target="_top" xlink:title=" ">
<polygon fill="white" stroke="black" points="3450.17,-73 3450.17,-92 3638.17,-92 3638.17,-73 3450.17,-73"/>
<text text-anchor="middle" x="3544.17" y="-80" font-family="Helvetica,sans-Serif" font-size="10.00">src/libs/vwidgets/vsimplecurve.cpp</text>
</a>
</g>
</g>
<!-- Node5&#45;&gt;Node41 -->
<g id="edge38" class="edge">
<title>Node5&#45;&gt;Node41</title>
<path fill="none" stroke="midnightblue" d="M3457.67,-134.62C3479.46,-121.74 3511.21,-102.98 3529.57,-92.13"/>
<polygon fill="midnightblue" stroke="midnightblue" points="3455.84,-131.63 3449.01,-139.73 3459.4,-137.66 3455.84,-131.63"/>
</g>
<!-- Node42 -->
<g id="node38" class="node">
<title>Node42</title>
<g id="a_node38"><a xlink:href="../../df/d38/vsimplepoint_8cpp.html" target="_top" xlink:title=" ">
<polygon fill="white" stroke="black" points="3656.67,-73 3656.67,-92 3841.67,-92 3841.67,-73 3656.67,-73"/>
<text text-anchor="middle" x="3749.17" y="-80" font-family="Helvetica,sans-Serif" font-size="10.00">src/libs/vwidgets/vsimplepoint.cpp</text>
</a>
</g>
</g>
<!-- Node5&#45;&gt;Node42 -->
<g id="edge39" class="edge">
<title>Node5&#45;&gt;Node42</title>
<path fill="none" stroke="midnightblue" d="M3485.64,-137.88C3547.68,-125.08 3650.7,-103.82 3707.83,-92.03"/>
<polygon fill="midnightblue" stroke="midnightblue" points="3484.76,-134.49 3475.68,-139.94 3486.18,-141.34 3484.76,-134.49"/>
</g>
<!-- Node43 -->
<g id="node39" class="node">
<title>Node43</title>
<g id="a_node39"><a xlink:href="../../df/df5/vtextgraphicsitem_8cpp.html" target="_top" xlink:title=" ">
<polygon fill="white" stroke="black" points="3859.67,-73 3859.67,-92 4070.67,-92 4070.67,-73 3859.67,-73"/>
<text text-anchor="middle" x="3965.17" y="-80" font-family="Helvetica,sans-Serif" font-size="10.00">src/libs/vwidgets/vtextgraphicsitem.cpp</text>
</a>
</g>
</g>
<!-- Node5&#45;&gt;Node43 -->
<g id="edge40" class="edge">
<title>Node5&#45;&gt;Node43</title>
<path fill="none" stroke="midnightblue" d="M3515.76,-138.77C3599.84,-128.7 3734.69,-112.46 3851.17,-98 3866.62,-96.08 3883.23,-93.99 3898.87,-92"/>
<polygon fill="midnightblue" stroke="midnightblue" points="3515.28,-135.3 3505.76,-139.96 3516.11,-142.25 3515.28,-135.3"/>
</g>
<!-- Node14&#45;&gt;Node15 -->
<g id="edge11" class="edge">
<title>Node14&#45;&gt;Node15</title>
<path fill="none" stroke="midnightblue" d="M5280.12,-64.44C5246.73,-53.91 5204.39,-40.55 5172.89,-30.61"/>
<polygon fill="midnightblue" stroke="midnightblue" points="5279.14,-67.8 5289.73,-67.48 5281.24,-61.13 5279.14,-67.8"/>
</g>
<!-- Node29 -->
<g id="node25" class="node">
<title>Node29</title>
<g id="a_node25"><a xlink:href="../../d8/dba/vpiecenode_8cpp.html" target="_top" xlink:title=" ">
<polygon fill="white" stroke="black" points="2547.67,-0.5 2547.67,-30.5 2654.67,-30.5 2654.67,-0.5 2547.67,-0.5"/>
<text text-anchor="start" x="2555.67" y="-18.5" font-family="Helvetica,sans-Serif" font-size="10.00">src/libs/vpatterndb</text>
<text text-anchor="middle" x="2601.17" y="-7.5" font-family="Helvetica,sans-Serif" font-size="10.00">/vpiecenode.cpp</text>
</a>
</g>
</g>
<!-- Node28&#45;&gt;Node29 -->
<g id="edge25" class="edge">
<title>Node28&#45;&gt;Node29</title>
<path fill="none" stroke="midnightblue" d="M4777.42,-66.98C4328.63,-12.45 2945.06,-15.07 2654.89,-16.24"/>
<polygon fill="midnightblue" stroke="midnightblue" points="4777.17,-70.48 4787.53,-68.24 4778.04,-63.53 4777.17,-70.48"/>
</g>
<!-- Node44&#45;&gt;Node5 -->
<g id="edge48" class="edge">
<title>Node44&#45;&gt;Node5</title>
<path fill="none" stroke="midnightblue" d="M889.91,-213.91C1238.34,-205.23 2912.54,-163.5 3336.46,-152.94"/>
<polygon fill="midnightblue" stroke="midnightblue" points="889.66,-210.42 879.75,-214.16 889.83,-217.41 889.66,-210.42"/>
</g>
<!-- Node44&#45;&gt;Node20 -->
<g id="edge47" class="edge">
<title>Node44&#45;&gt;Node20</title>
<path fill="none" stroke="midnightblue" d="M889.83,-201.11C936.2,-187.69 986.62,-165.07 960.17,-134 956.08,-129.19 796.26,-105.14 706.99,-92.04"/>
<polygon fill="midnightblue" stroke="midnightblue" points="888.73,-197.78 880.03,-203.83 890.6,-204.53 888.73,-197.78"/>
</g>
<!-- Node44&#45;&gt;Node25 -->
<g id="edge51" class="edge">
<title>Node44&#45;&gt;Node25</title>
<path fill="none" stroke="midnightblue" d="M889.98,-214.61C1188.99,-210.39 2481.55,-191.43 3541.17,-165 4017.26,-153.13 5210.99,-159.97 5683.17,-98 5685.91,-97.64 5688.71,-97.21 5691.52,-96.73"/>
<polygon fill="midnightblue" stroke="midnightblue" points="889.71,-211.12 879.76,-214.76 889.81,-218.11 889.71,-211.12"/>
</g>
<!-- Node44&#45;&gt;Node26 -->
<g id="edge52" class="edge">
<title>Node44&#45;&gt;Node26</title>
<path fill="none" stroke="midnightblue" d="M890.02,-208.09C951.61,-198.28 1031.05,-176.93 998.17,-134 993.99,-128.54 918.87,-109.46 865.14,-96.38"/>
<polygon fill="midnightblue" stroke="midnightblue" points="889.28,-204.67 879.92,-209.63 890.33,-211.59 889.28,-204.67"/>
</g>
<!-- Node44&#45;&gt;Node27 -->
<g id="edge54" class="edge">
<title>Node44&#45;&gt;Node27</title>
<path fill="none" stroke="midnightblue" d="M762.2,-216.08C588.83,-217 119.76,-214.82 73.17,-165 56.34,-147.01 63.78,-115.82 70.27,-97.69"/>
<polygon fill="midnightblue" stroke="midnightblue" points="762.47,-219.58 772.45,-216.02 762.43,-212.58 762.47,-219.58"/>
</g>
<!-- Node44&#45;&gt;Node29 -->
<g id="edge55" class="edge">
<title>Node44&#45;&gt;Node29</title>
<path fill="none" stroke="midnightblue" d="M762.36,-214.47C589.24,-211.24 119.55,-199.37 59.17,-165 17.36,-141.2 -20.52,-101.35 13.17,-67 59.17,-20.1 2181.11,-16.75 2547.55,-16.52"/>
<polygon fill="midnightblue" stroke="midnightblue" points="762.54,-217.98 772.6,-214.66 762.66,-210.98 762.54,-217.98"/>
</g>
<!-- Node45 -->
<g id="node41" class="node">
<title>Node45</title>
<g id="a_node41"><a xlink:href="../../d4/dd6/vmeasurements_8h.html" target="_top" xlink:title=" ">
<polygon fill="white" stroke="black" points="733.67,-140 733.67,-159 918.67,-159 918.67,-140 733.67,-140"/>
<text text-anchor="middle" x="826.17" y="-147" font-family="Helvetica,sans-Serif" font-size="10.00">src/libs/vformat/vmeasurements.h</text>
</a>
</g>
</g>
<!-- Node44&#45;&gt;Node45 -->
<g id="edge42" class="edge">
<title>Node44&#45;&gt;Node45</title>
<path fill="none" stroke="midnightblue" d="M826.17,-191.25C826.17,-180.02 826.17,-167.38 826.17,-159.19"/>
<polygon fill="midnightblue" stroke="midnightblue" points="822.67,-191.4 826.17,-201.4 829.67,-191.4 822.67,-191.4"/>
</g>
<!-- Node46 -->
<g id="node42" class="node">
<title>Node46</title>
<g id="a_node42"><a xlink:href="../../de/db3/vmeasurements_8cpp.html" target="_top" xlink:title=" ">
<polygon fill="white" stroke="black" points="148.17,-73 148.17,-92 344.17,-92 344.17,-73 148.17,-73"/>
<text text-anchor="middle" x="246.17" y="-80" font-family="Helvetica,sans-Serif" font-size="10.00">src/libs/vformat/vmeasurements.cpp</text>
</a>
</g>
</g>
<!-- Node44&#45;&gt;Node46 -->
<g id="edge44" class="edge">
<title>Node44&#45;&gt;Node46</title>
<path fill="none" stroke="midnightblue" d="M877.06,-197.5C913.1,-182.1 951.25,-158.57 928.17,-134 884.34,-87.34 416.88,-104.3 353.17,-98 336.94,-96.39 319.39,-94.21 303.28,-92.02"/>
<polygon fill="midnightblue" stroke="midnightblue" points="875.42,-194.39 867.5,-201.43 878.08,-200.87 875.42,-194.39"/>
</g>
<!-- Node47 -->
<g id="node43" class="node">
<title>Node47</title>
<g id="a_node43"><a xlink:href="../../d6/de0/vlayoutpiece_8h.html" target="_top" xlink:title=" ">
<polygon fill="white" stroke="red" points="82.17,-140 82.17,-159 248.17,-159 248.17,-140 82.17,-140"/>
<text text-anchor="middle" x="165.17" y="-147" font-family="Helvetica,sans-Serif" font-size="10.00">src/libs/vlayout/vlayoutpiece.h</text>
</a>
</g>
</g>
<!-- Node44&#45;&gt;Node47 -->
<g id="edge45" class="edge">
<title>Node44&#45;&gt;Node47</title>
<path fill="none" stroke="midnightblue" d="M762.26,-211.2C656.97,-203.8 440.53,-187.3 258.17,-165 244.39,-163.31 229.5,-161.15 215.77,-159.01"/>
<polygon fill="midnightblue" stroke="midnightblue" points="762.18,-214.7 772.4,-211.91 762.67,-207.72 762.18,-214.7"/>
</g>
<!-- Node56 -->
<g id="node44" class="node">
<title>Node56</title>
<g id="a_node44"><a xlink:href="../../d1/de1/vincrement__p_8h.html" target="_top" xlink:title=" ">
<polygon fill="white" stroke="red" points="266.67,-134.5 266.67,-164.5 409.67,-164.5 409.67,-134.5 266.67,-134.5"/>
<text text-anchor="start" x="274.67" y="-152.5" font-family="Helvetica,sans-Serif" font-size="10.00">src/libs/vpatterndb</text>
<text text-anchor="middle" x="338.17" y="-141.5" font-family="Helvetica,sans-Serif" font-size="10.00">/variables/vincrement_p.h</text>
</a>
</g>
</g>
<!-- Node44&#45;&gt;Node56 -->
<g id="edge49" class="edge">
<title>Node44&#45;&gt;Node56</title>
<path fill="none" stroke="midnightblue" d="M762.44,-208.66C682.19,-199.81 540.19,-183.33 419.17,-165 416.06,-164.53 412.89,-164.03 409.69,-163.52"/>
<polygon fill="midnightblue" stroke="midnightblue" points="762.06,-212.14 772.39,-209.76 762.83,-205.19 762.06,-212.14"/>
</g>
<!-- Node58 -->
<g id="node45" class="node">
<title>Node58</title>
<g id="a_node45"><a xlink:href="../../d6/dc1/vmeasurement__p_8h.html" target="_top" xlink:title=" ">
<polygon fill="white" stroke="red" points="428.17,-134.5 428.17,-164.5 590.17,-164.5 590.17,-134.5 428.17,-134.5"/>
<text text-anchor="start" x="436.17" y="-152.5" font-family="Helvetica,sans-Serif" font-size="10.00">src/libs/vpatterndb</text>
<text text-anchor="middle" x="509.17" y="-141.5" font-family="Helvetica,sans-Serif" font-size="10.00">/variables/vmeasurement_p.h</text>
</a>
</g>
</g>
<!-- Node44&#45;&gt;Node58 -->
<g id="edge50" class="edge">
<title>Node44&#45;&gt;Node58</title>
<path fill="none" stroke="midnightblue" d="M762.34,-202.41C708.77,-191.43 632.44,-175.77 577.61,-164.53"/>
<polygon fill="midnightblue" stroke="midnightblue" points="761.9,-205.89 772.4,-204.47 763.3,-199.04 761.9,-205.89"/>
</g>
<!-- Node60 -->
<g id="node46" class="node">
<title>Node60</title>
<g id="a_node46"><a xlink:href="../../d6/d91/vnodedetail_8cpp.html" target="_top" xlink:title=" ">
<polygon fill="white" stroke="black" points="608.67,-134.5 608.67,-164.5 715.67,-164.5 715.67,-134.5 608.67,-134.5"/>
<text text-anchor="start" x="616.67" y="-152.5" font-family="Helvetica,sans-Serif" font-size="10.00">src/libs/vpatterndb</text>
<text text-anchor="middle" x="662.17" y="-141.5" font-family="Helvetica,sans-Serif" font-size="10.00">/vnodedetail.cpp</text>
</a>
</g>
</g>
<!-- Node44&#45;&gt;Node60 -->
<g id="edge53" class="edge">
<title>Node44&#45;&gt;Node60</title>
<path fill="none" stroke="midnightblue" d="M781.21,-197.68C754.91,-187.26 722.17,-174.28 697.69,-164.58"/>
<polygon fill="midnightblue" stroke="midnightblue" points="780,-200.97 790.59,-201.4 782.58,-194.46 780,-200.97"/>
</g>
<!-- Node45&#45;&gt;Node46 -->
<g id="edge43" class="edge">
<title>Node45&#45;&gt;Node46</title>
<path fill="none" stroke="midnightblue" d="M760.05,-138.56C748.44,-136.94 736.46,-135.36 725.17,-134 560.25,-114.19 518.17,-117.16 353.17,-98 337.9,-96.23 321.44,-94.1 306.11,-92.03"/>
<polygon fill="midnightblue" stroke="midnightblue" points="759.75,-142.05 770.14,-139.99 760.73,-135.12 759.75,-142.05"/>
</g>
<!-- Node47&#45;&gt;Node19 -->
<g id="edge46" class="edge">
<title>Node47&#45;&gt;Node19</title>
<path fill="none" stroke="midnightblue" d="M212.77,-137.64C268.93,-124.84 361.12,-103.81 412.54,-92.08"/>
<polygon fill="midnightblue" stroke="midnightblue" points="211.7,-134.3 202.72,-139.94 213.25,-141.12 211.7,-134.3"/>
</g>
</g>
</svg>
