<?xml version="1.0" encoding="UTF-8" standalone="no"?>
<!DOCTYPE svg PUBLIC "-//W3C//DTD SVG 1.1//EN"
 "http://www.w3.org/Graphics/SVG/1.1/DTD/svg11.dtd">
<!-- Generated by graphviz version 2.43.0 (0)
 -->
<!-- Title: src/libs/vpatterndb/vtranslatemeasurements.h Pages: 1 -->
<svg width="6515pt" height="385pt"
 viewBox="0.00 0.00 6514.50 385.00" xmlns="http://www.w3.org/2000/svg" xmlns:xlink="http://www.w3.org/1999/xlink">
<g id="graph0" class="graph" transform="scale(1 1) rotate(0) translate(4 381)">
<title>src/libs/vpatterndb/vtranslatemeasurements.h</title>
<polygon fill="white" stroke="transparent" points="-4,4 -4,-381 6510.5,-381 6510.5,4 -4,4"/>
<!-- Node1 -->
<g id="node1" class="node">
<title>Node1</title>
<g id="a_node1"><a xlink:title=" ">
<polygon fill="#bfbfbf" stroke="black" points="6149,-346.5 6149,-376.5 6301,-376.5 6301,-346.5 6149,-346.5"/>
<text text-anchor="start" x="6157" y="-364.5" font-family="Helvetica,sans-Serif" font-size="10.00">src/libs/vpatterndb</text>
<text text-anchor="middle" x="6225" y="-353.5" font-family="Helvetica,sans-Serif" font-size="10.00">/vtranslatemeasurements.h</text>
</a>
</g>
</g>
<!-- Node2 -->
<g id="node2" class="node">
<title>Node2</title>
<g id="a_node2"><a xlink:href="../../dd/de9/measurements__def_8cpp.html" target="_top" xlink:title=" ">
<polygon fill="white" stroke="black" points="5847,-279.5 5847,-309.5 5981,-309.5 5981,-279.5 5847,-279.5"/>
<text text-anchor="start" x="5855" y="-297.5" font-family="Helvetica,sans-Serif" font-size="10.00">src/libs/vpatterndb</text>
<text text-anchor="middle" x="5914" y="-286.5" font-family="Helvetica,sans-Serif" font-size="10.00">/measurements_def.cpp</text>
</a>
</g>
</g>
<!-- Node1&#45;&gt;Node2 -->
<g id="edge1" class="edge">
<title>Node1&#45;&gt;Node2</title>
<path fill="none" stroke="midnightblue" d="M6147.88,-344.38C6096.73,-333.69 6030.25,-319.8 5981.25,-309.55"/>
<polygon fill="midnightblue" stroke="midnightblue" points="6147.4,-347.86 6157.9,-346.48 6148.83,-341 6147.4,-347.86"/>
</g>
<!-- Node3 -->
<g id="node3" class="node">
<title>Node3</title>
<g id="a_node3"><a xlink:href="../../da/d69/vtranslatevars_8h.html" target="_top" xlink:title=" ">
<polygon fill="white" stroke="black" points="5999.5,-279.5 5999.5,-309.5 6106.5,-309.5 6106.5,-279.5 5999.5,-279.5"/>
<text text-anchor="start" x="6007.5" y="-297.5" font-family="Helvetica,sans-Serif" font-size="10.00">src/libs/vpatterndb</text>
<text text-anchor="middle" x="6053" y="-286.5" font-family="Helvetica,sans-Serif" font-size="10.00">/vtranslatevars.h</text>
</a>
</g>
</g>
<!-- Node1&#45;&gt;Node3 -->
<g id="edge2" class="edge">
<title>Node1&#45;&gt;Node3</title>
<path fill="none" stroke="midnightblue" d="M6178.21,-342.82C6150.57,-332.37 6116.04,-319.32 6090.25,-309.58"/>
<polygon fill="midnightblue" stroke="midnightblue" points="6177.09,-346.13 6187.68,-346.4 6179.56,-339.59 6177.09,-346.13"/>
</g>
<!-- Node29 -->
<g id="node25" class="node">
<title>Node29</title>
<g id="a_node25"><a xlink:href="../../de/d3e/vtranslatevars_8cpp.html" target="_top" xlink:title=" ">
<polygon fill="white" stroke="black" points="6286,-67.5 6286,-97.5 6396,-97.5 6396,-67.5 6286,-67.5"/>
<text text-anchor="start" x="6294" y="-85.5" font-family="Helvetica,sans-Serif" font-size="10.00">src/libs/vpatterndb</text>
<text text-anchor="middle" x="6341" y="-74.5" font-family="Helvetica,sans-Serif" font-size="10.00">/vtranslatevars.cpp</text>
</a>
</g>
</g>
<!-- Node1&#45;&gt;Node29 -->
<g id="edge61" class="edge">
<title>Node1&#45;&gt;Node29</title>
<path fill="none" stroke="midnightblue" d="M6234.85,-336.98C6258.21,-281.21 6316.38,-142.28 6335.1,-97.59"/>
<polygon fill="midnightblue" stroke="midnightblue" points="6231.55,-335.81 6230.91,-346.38 6238,-338.51 6231.55,-335.81"/>
</g>
<!-- Node68 -->
<g id="node50" class="node">
<title>Node68</title>
<g id="a_node50"><a xlink:href="../../d0/d50/vtranslatemeasurements_8cpp.html" target="_top" xlink:title=" ">
<polygon fill="white" stroke="black" points="6343.5,-279.5 6343.5,-309.5 6506.5,-309.5 6506.5,-279.5 6343.5,-279.5"/>
<text text-anchor="start" x="6351.5" y="-297.5" font-family="Helvetica,sans-Serif" font-size="10.00">src/libs/vpatterndb</text>
<text text-anchor="middle" x="6425" y="-286.5" font-family="Helvetica,sans-Serif" font-size="10.00">/vtranslatemeasurements.cpp</text>
</a>
</g>
</g>
<!-- Node1&#45;&gt;Node68 -->
<g id="edge62" class="edge">
<title>Node1&#45;&gt;Node68</title>
<path fill="none" stroke="midnightblue" d="M6278.15,-343.23C6310.5,-332.71 6351.31,-319.45 6381.69,-309.58"/>
<polygon fill="midnightblue" stroke="midnightblue" points="6276.83,-339.98 6268.4,-346.4 6278.99,-346.63 6276.83,-339.98"/>
</g>
<!-- Node4 -->
<g id="node4" class="node">
<title>Node4</title>
<g id="a_node4"><a xlink:href="../../d5/d74/vabstractapplication_8h.html" target="_top" xlink:title=" ">
<polygon fill="white" stroke="black" points="3623.5,-145.5 3623.5,-164.5 3818.5,-164.5 3818.5,-145.5 3623.5,-145.5"/>
<text text-anchor="middle" x="3721" y="-152.5" font-family="Helvetica,sans-Serif" font-size="10.00">src/libs/vmisc/vabstractapplication.h</text>
</a>
</g>
</g>
<!-- Node3&#45;&gt;Node4 -->
<g id="edge3" class="edge">
<title>Node3&#45;&gt;Node4</title>
<path fill="none" stroke="midnightblue" d="M5988.96,-279.03C5147.54,-161.22 4133.06,-154.37 3818.61,-155.31"/>
<polygon fill="midnightblue" stroke="midnightblue" points="5988.77,-282.54 5999.16,-280.47 5989.74,-275.61 5988.77,-282.54"/>
</g>
<!-- Node24 -->
<g id="node20" class="node">
<title>Node24</title>
<g id="a_node20"><a xlink:href="../../db/d11/vformula_8cpp.html" target="_top" xlink:title=" ">
<polygon fill="white" stroke="black" points="6035.5,-67.5 6035.5,-97.5 6142.5,-97.5 6142.5,-67.5 6035.5,-67.5"/>
<text text-anchor="start" x="6043.5" y="-85.5" font-family="Helvetica,sans-Serif" font-size="10.00">src/libs/vpatterndb</text>
<text text-anchor="middle" x="6089" y="-74.5" font-family="Helvetica,sans-Serif" font-size="10.00">/vformula.cpp</text>
</a>
</g>
</g>
<!-- Node3&#45;&gt;Node24 -->
<g id="edge41" class="edge">
<title>Node3&#45;&gt;Node24</title>
<path fill="none" stroke="midnightblue" d="M5989.33,-279.14C5867.46,-260.51 5679.84,-302.83 5743,-212 5760.83,-186.35 5952.25,-125.22 6042.46,-97.54"/>
<polygon fill="midnightblue" stroke="midnightblue" points="5989,-282.64 5999.45,-280.86 5990.17,-275.73 5989,-282.64"/>
</g>
<!-- Node25 -->
<g id="node21" class="node">
<title>Node25</title>
<g id="a_node21"><a xlink:href="../../d6/d46/vcontainer_8cpp.html" target="_top" xlink:title=" ">
<polygon fill="white" stroke="black" points="6160.5,-67.5 6160.5,-97.5 6267.5,-97.5 6267.5,-67.5 6160.5,-67.5"/>
<text text-anchor="start" x="6168.5" y="-85.5" font-family="Helvetica,sans-Serif" font-size="10.00">src/libs/vpatterndb</text>
<text text-anchor="middle" x="6214" y="-74.5" font-family="Helvetica,sans-Serif" font-size="10.00">/vcontainer.cpp</text>
</a>
</g>
</g>
<!-- Node3&#45;&gt;Node25 -->
<g id="edge56" class="edge">
<title>Node3&#45;&gt;Node25</title>
<path fill="none" stroke="midnightblue" d="M6116.89,-291.9C6153.36,-287.28 6196.4,-274.79 6220,-243 6252.7,-198.94 6231.23,-127.62 6219.82,-97.57"/>
<polygon fill="midnightblue" stroke="midnightblue" points="6116.36,-288.43 6106.8,-293 6117.12,-295.39 6116.36,-288.43"/>
</g>
<!-- Node3&#45;&gt;Node29 -->
<g id="edge57" class="edge">
<title>Node3&#45;&gt;Node29</title>
<path fill="none" stroke="midnightblue" d="M6116.66,-288.99C6155.98,-283.36 6205.53,-270.82 6241,-243 6284.52,-208.88 6270.39,-180.06 6301,-134 6309.54,-121.15 6320.5,-107.47 6328.78,-97.6"/>
<polygon fill="midnightblue" stroke="midnightblue" points="6116.09,-285.53 6106.63,-290.31 6117.01,-292.47 6116.09,-285.53"/>
</g>
<!-- Node45 -->
<g id="node41" class="node">
<title>Node45</title>
<g id="a_node41"><a xlink:href="../../d3/df7/vcontainer_8h.html" target="_top" xlink:title=" ">
<polygon fill="white" stroke="red" points="669.5,-212.5 669.5,-242.5 776.5,-242.5 776.5,-212.5 669.5,-212.5"/>
<text text-anchor="start" x="677.5" y="-230.5" font-family="Helvetica,sans-Serif" font-size="10.00">src/libs/vpatterndb</text>
<text text-anchor="middle" x="723" y="-219.5" font-family="Helvetica,sans-Serif" font-size="10.00">/vcontainer.h</text>
</a>
</g>
</g>
<!-- Node3&#45;&gt;Node45 -->
<g id="edge42" class="edge">
<title>Node3&#45;&gt;Node45</title>
<path fill="none" stroke="midnightblue" d="M5989.21,-279.28C5627.35,-246.36 1309.78,-230.52 776.84,-228.68"/>
<polygon fill="midnightblue" stroke="midnightblue" points="5988.87,-282.76 5999.18,-280.31 5989.59,-275.8 5988.87,-282.76"/>
</g>
<!-- Node65 -->
<g id="node47" class="node">
<title>Node65</title>
<g id="a_node47"><a xlink:href="../../df/de5/dialogspline_8cpp.html" target="_top" xlink:title=" ">
<polygon fill="white" stroke="black" points="5752,-212.5 5752,-242.5 5878,-242.5 5878,-212.5 5752,-212.5"/>
<text text-anchor="start" x="5760" y="-230.5" font-family="Helvetica,sans-Serif" font-size="10.00">src/libs/vtools/dialogs</text>
<text text-anchor="middle" x="5815" y="-219.5" font-family="Helvetica,sans-Serif" font-size="10.00">/tools/dialogspline.cpp</text>
</a>
</g>
</g>
<!-- Node3&#45;&gt;Node65 -->
<g id="edge58" class="edge">
<title>Node3&#45;&gt;Node65</title>
<path fill="none" stroke="midnightblue" d="M5991.54,-276.71C5952.81,-266.14 5903.37,-252.63 5866.67,-242.61"/>
<polygon fill="midnightblue" stroke="midnightblue" points="5991.08,-280.22 6001.65,-279.48 5992.93,-273.46 5991.08,-280.22"/>
</g>
<!-- Node66 -->
<g id="node48" class="node">
<title>Node66</title>
<g id="a_node48"><a xlink:href="../../dc/dc2/dialogsplinepath_8cpp.html" target="_top" xlink:title=" ">
<polygon fill="white" stroke="black" points="5896,-212.5 5896,-242.5 6044,-242.5 6044,-212.5 5896,-212.5"/>
<text text-anchor="start" x="5904" y="-230.5" font-family="Helvetica,sans-Serif" font-size="10.00">src/libs/vtools/dialogs</text>
<text text-anchor="middle" x="5970" y="-219.5" font-family="Helvetica,sans-Serif" font-size="10.00">/tools/dialogsplinepath.cpp</text>
</a>
</g>
</g>
<!-- Node3&#45;&gt;Node66 -->
<g id="edge59" class="edge">
<title>Node3&#45;&gt;Node66</title>
<path fill="none" stroke="midnightblue" d="M6027.04,-273.17C6014.35,-263.23 5999.39,-251.51 5987.97,-242.58"/>
<polygon fill="midnightblue" stroke="midnightblue" points="6024.96,-275.99 6034.99,-279.4 6029.28,-270.47 6024.96,-275.99"/>
</g>
<!-- Node67 -->
<g id="node49" class="node">
<title>Node67</title>
<g id="a_node49"><a xlink:href="../../d1/d75/vistoolendline_8cpp.html" target="_top" xlink:title=" ">
<polygon fill="white" stroke="black" points="6062.5,-212.5 6062.5,-242.5 6211.5,-242.5 6211.5,-212.5 6062.5,-212.5"/>
<text text-anchor="start" x="6070.5" y="-230.5" font-family="Helvetica,sans-Serif" font-size="10.00">src/libs/vtools/visualization</text>
<text text-anchor="middle" x="6137" y="-219.5" font-family="Helvetica,sans-Serif" font-size="10.00">/line/vistoolendline.cpp</text>
</a>
</g>
</g>
<!-- Node3&#45;&gt;Node67 -->
<g id="edge60" class="edge">
<title>Node3&#45;&gt;Node67</title>
<path fill="none" stroke="midnightblue" d="M6079.28,-273.17C6092.12,-263.23 6107.26,-251.51 6118.81,-242.58"/>
<polygon fill="midnightblue" stroke="midnightblue" points="6076.99,-270.51 6071.23,-279.4 6081.28,-276.04 6076.99,-270.51"/>
</g>
<!-- Node5 -->
<g id="node5" class="node">
<title>Node5</title>
<g id="a_node5"><a xlink:href="../../d4/d90/fvupdater_8cpp.html" target="_top" xlink:title=" ">
<polygon fill="white" stroke="black" points="4702.5,-73 4702.5,-92 4855.5,-92 4855.5,-73 4702.5,-73"/>
<text text-anchor="middle" x="4779" y="-80" font-family="Helvetica,sans-Serif" font-size="10.00">src/libs/fervor/fvupdater.cpp</text>
</a>
</g>
</g>
<!-- Node4&#45;&gt;Node5 -->
<g id="edge4" class="edge">
<title>Node4&#45;&gt;Node5</title>
<path fill="none" stroke="midnightblue" d="M3828.81,-151.64C4008.49,-146.85 4380.36,-133.26 4693,-98 4706.39,-96.49 4720.87,-94.28 4734.05,-92.03"/>
<polygon fill="midnightblue" stroke="midnightblue" points="3828.47,-148.15 3818.56,-151.91 3828.65,-155.15 3828.47,-148.15"/>
</g>
<!-- Node6 -->
<g id="node6" class="node">
<title>Node6</title>
<g id="a_node6"><a xlink:href="../../d9/dc8/dxiface_8cpp.html" target="_top" xlink:title=" ">
<polygon fill="white" stroke="black" points="4873.5,-73 4873.5,-92 5008.5,-92 5008.5,-73 4873.5,-73"/>
<text text-anchor="middle" x="4941" y="-80" font-family="Helvetica,sans-Serif" font-size="10.00">src/libs/vdxf/dxiface.cpp</text>
</a>
</g>
</g>
<!-- Node4&#45;&gt;Node6 -->
<g id="edge5" class="edge">
<title>Node4&#45;&gt;Node6</title>
<path fill="none" stroke="midnightblue" d="M3829.19,-150.6C4074.24,-142.58 4665.72,-121.41 4864,-98 4876.16,-96.56 4889.28,-94.35 4901.2,-92.07"/>
<polygon fill="midnightblue" stroke="midnightblue" points="3828.73,-147.11 3818.85,-150.93 3828.96,-154.11 3828.73,-147.11"/>
</g>
<!-- Node7 -->
<g id="node7" class="node">
<title>Node7</title>
<g id="a_node7"><a xlink:href="../../da/d75/vabstractarc__p_8h.html" target="_top" xlink:title=" ">
<polygon fill="white" stroke="red" points="5026.5,-67.5 5026.5,-97.5 5133.5,-97.5 5133.5,-67.5 5026.5,-67.5"/>
<text text-anchor="start" x="5034.5" y="-85.5" font-family="Helvetica,sans-Serif" font-size="10.00">src/libs/vgeometry</text>
<text text-anchor="middle" x="5080" y="-74.5" font-family="Helvetica,sans-Serif" font-size="10.00">/vabstractarc_p.h</text>
</a>
</g>
</g>
<!-- Node4&#45;&gt;Node7 -->
<g id="edge6" class="edge">
<title>Node4&#45;&gt;Node7</title>
<path fill="none" stroke="midnightblue" d="M3828.74,-150.48C4118.6,-140.84 4901,-113.72 5017,-98 5020,-97.59 5023.07,-97.11 5026.16,-96.57"/>
<polygon fill="midnightblue" stroke="midnightblue" points="3828.52,-146.98 3818.64,-150.81 3828.75,-153.98 3828.52,-146.98"/>
</g>
<!-- Node9 -->
<g id="node8" class="node">
<title>Node9</title>
<g id="a_node8"><a xlink:href="../../dc/da3/varc__p_8h.html" target="_top" xlink:title=" ">
<polygon fill="white" stroke="red" points="5151.5,-67.5 5151.5,-97.5 5258.5,-97.5 5258.5,-67.5 5151.5,-67.5"/>
<text text-anchor="start" x="5159.5" y="-85.5" font-family="Helvetica,sans-Serif" font-size="10.00">src/libs/vgeometry</text>
<text text-anchor="middle" x="5205" y="-74.5" font-family="Helvetica,sans-Serif" font-size="10.00">/varc_p.h</text>
</a>
</g>
</g>
<!-- Node4&#45;&gt;Node9 -->
<g id="edge7" class="edge">
<title>Node4&#45;&gt;Node9</title>
<path fill="none" stroke="midnightblue" d="M3828.95,-150.3C4149.45,-139.23 5077.3,-106.64 5142,-98 5145,-97.6 5148.07,-97.12 5151.16,-96.59"/>
<polygon fill="midnightblue" stroke="midnightblue" points="3828.6,-146.81 3818.72,-150.65 3828.84,-153.8 3828.6,-146.81"/>
</g>
<!-- Node11 -->
<g id="node9" class="node">
<title>Node11</title>
<g id="a_node9"><a xlink:href="../../d5/d8e/vcubicbezier__p_8h.html" target="_top" xlink:title=" ">
<polygon fill="white" stroke="red" points="5276.5,-67.5 5276.5,-97.5 5383.5,-97.5 5383.5,-67.5 5276.5,-67.5"/>
<text text-anchor="start" x="5284.5" y="-85.5" font-family="Helvetica,sans-Serif" font-size="10.00">src/libs/vgeometry</text>
<text text-anchor="middle" x="5330" y="-74.5" font-family="Helvetica,sans-Serif" font-size="10.00">/vcubicbezier_p.h</text>
</a>
</g>
</g>
<!-- Node4&#45;&gt;Node11 -->
<g id="edge8" class="edge">
<title>Node4&#45;&gt;Node11</title>
<path fill="none" stroke="midnightblue" d="M3828.86,-150.23C4176.97,-138.04 5249.16,-100.35 5267,-98 5270,-97.6 5273.08,-97.13 5276.17,-96.6"/>
<polygon fill="midnightblue" stroke="midnightblue" points="3828.65,-146.73 3818.77,-150.58 3828.89,-153.73 3828.65,-146.73"/>
</g>
<!-- Node13 -->
<g id="node10" class="node">
<title>Node13</title>
<g id="a_node10"><a xlink:href="../../df/dde/vellipticalarc__p_8h.html" target="_top" xlink:title=" ">
<polygon fill="white" stroke="black" points="5769.5,-67.5 5769.5,-97.5 5876.5,-97.5 5876.5,-67.5 5769.5,-67.5"/>
<text text-anchor="start" x="5777.5" y="-85.5" font-family="Helvetica,sans-Serif" font-size="10.00">src/libs/vgeometry</text>
<text text-anchor="middle" x="5823" y="-74.5" font-family="Helvetica,sans-Serif" font-size="10.00">/vellipticalarc_p.h</text>
</a>
</g>
</g>
<!-- Node4&#45;&gt;Node13 -->
<g id="edge9" class="edge">
<title>Node4&#45;&gt;Node13</title>
<path fill="none" stroke="midnightblue" d="M3828.65,-149.98C3945.28,-145.7 4136.82,-138.88 4302,-134 4626.18,-124.42 5439.3,-139.14 5761,-98 5763.74,-97.65 5766.54,-97.23 5769.35,-96.76"/>
<polygon fill="midnightblue" stroke="midnightblue" points="3828.51,-146.48 3818.65,-150.35 3828.77,-153.48 3828.51,-146.48"/>
</g>
<!-- Node14 -->
<g id="node11" class="node">
<title>Node14</title>
<g id="a_node11"><a xlink:href="../../d6/dfb/vellipticalarc_8cpp.html" target="_top" xlink:title=" ">
<polygon fill="white" stroke="black" points="5563.5,-0.5 5563.5,-30.5 5670.5,-30.5 5670.5,-0.5 5563.5,-0.5"/>
<text text-anchor="start" x="5571.5" y="-18.5" font-family="Helvetica,sans-Serif" font-size="10.00">src/libs/vgeometry</text>
<text text-anchor="middle" x="5617" y="-7.5" font-family="Helvetica,sans-Serif" font-size="10.00">/vellipticalarc.cpp</text>
</a>
</g>
</g>
<!-- Node4&#45;&gt;Node14 -->
<g id="edge11" class="edge">
<title>Node4&#45;&gt;Node14</title>
<path fill="none" stroke="midnightblue" d="M3828.66,-150.25C3945.29,-146.2 4136.85,-139.57 4302,-134 4423.11,-129.92 5278.27,-139.81 5392,-98 5412.78,-90.36 5411.24,-77 5431,-67 5472.95,-45.78 5524.88,-32.64 5563.2,-25.1"/>
<polygon fill="midnightblue" stroke="midnightblue" points="3828.53,-146.75 3818.66,-150.6 3828.77,-153.75 3828.53,-146.75"/>
</g>
<!-- Node15 -->
<g id="node12" class="node">
<title>Node15</title>
<g id="a_node12"><a xlink:href="../../d1/d76/vspline__p_8h.html" target="_top" xlink:title=" ">
<polygon fill="white" stroke="red" points="5440.5,-67.5 5440.5,-97.5 5547.5,-97.5 5547.5,-67.5 5440.5,-67.5"/>
<text text-anchor="start" x="5448.5" y="-85.5" font-family="Helvetica,sans-Serif" font-size="10.00">src/libs/vgeometry</text>
<text text-anchor="middle" x="5494" y="-74.5" font-family="Helvetica,sans-Serif" font-size="10.00">/vspline_p.h</text>
</a>
</g>
</g>
<!-- Node4&#45;&gt;Node15 -->
<g id="edge12" class="edge">
<title>Node4&#45;&gt;Node15</title>
<path fill="none" stroke="midnightblue" d="M3828.66,-150.22C3945.29,-146.14 4136.84,-139.49 4302,-134 4801.54,-117.4 4929.85,-158.36 5426,-98 5430.67,-97.43 5435.5,-96.7 5440.33,-95.87"/>
<polygon fill="midnightblue" stroke="midnightblue" points="3828.53,-146.72 3818.66,-150.57 3828.77,-153.71 3828.53,-146.72"/>
</g>
<!-- Node17 -->
<g id="node13" class="node">
<title>Node17</title>
<g id="a_node13"><a xlink:href="../../d9/d15/vabstractpiece_8cpp.html" target="_top" xlink:title=" ">
<polygon fill="white" stroke="black" points="5566,-73 5566,-92 5752,-92 5752,-73 5566,-73"/>
<text text-anchor="middle" x="5659" y="-80" font-family="Helvetica,sans-Serif" font-size="10.00">src/libs/vlayout/vabstractpiece.cpp</text>
</a>
</g>
</g>
<!-- Node4&#45;&gt;Node17 -->
<g id="edge13" class="edge">
<title>Node4&#45;&gt;Node17</title>
<path fill="none" stroke="midnightblue" d="M3828.66,-150.11C3945.28,-145.94 4136.84,-139.21 4302,-134 4859.29,-116.41 5000.42,-144.94 5556,-98 5572.55,-96.6 5590.51,-94.34 5606.73,-92.01"/>
<polygon fill="midnightblue" stroke="midnightblue" points="3828.52,-146.61 3818.65,-150.47 3828.77,-153.61 3828.52,-146.61"/>
</g>
<!-- Node18 -->
<g id="node14" class="node">
<title>Node18</title>
<g id="a_node14"><a xlink:href="../../dd/d70/vlayoutpiece_8cpp.html" target="_top" xlink:title=" ">
<polygon fill="white" stroke="black" points="882.5,-73 882.5,-92 1059.5,-92 1059.5,-73 882.5,-73"/>
<text text-anchor="middle" x="971" y="-80" font-family="Helvetica,sans-Serif" font-size="10.00">src/libs/vlayout/vlayoutpiece.cpp</text>
</a>
</g>
</g>
<!-- Node4&#45;&gt;Node18 -->
<g id="edge14" class="edge">
<title>Node4&#45;&gt;Node18</title>
<path fill="none" stroke="midnightblue" d="M3612.88,-153.56C3180.5,-151.49 1574.71,-141.04 1068,-98 1052.22,-96.66 1035.11,-94.38 1019.71,-92.02"/>
<polygon fill="midnightblue" stroke="midnightblue" points="3613.17,-157.06 3623.18,-153.6 3613.2,-150.06 3613.17,-157.06"/>
</g>
<!-- Node19 -->
<g id="node15" class="node">
<title>Node19</title>
<g id="a_node15"><a xlink:href="../../d8/d70/vtextmanager_8cpp.html" target="_top" xlink:title=" ">
<polygon fill="white" stroke="black" points="682,-73 682,-92 864,-92 864,-73 682,-73"/>
<text text-anchor="middle" x="773" y="-80" font-family="Helvetica,sans-Serif" font-size="10.00">src/libs/vlayout/vtextmanager.cpp</text>
</a>
</g>
</g>
<!-- Node4&#45;&gt;Node19 -->
<g id="edge15" class="edge">
<title>Node4&#45;&gt;Node19</title>
<path fill="none" stroke="midnightblue" d="M3613.31,-153.68C3161.92,-152.04 1420.39,-142.89 873,-98 856.74,-96.67 839.1,-94.39 823.22,-92.03"/>
<polygon fill="midnightblue" stroke="midnightblue" points="3613.4,-157.18 3623.41,-153.71 3613.42,-150.18 3613.4,-157.18"/>
</g>
<!-- Node20 -->
<g id="node16" class="node">
<title>Node20</title>
<g id="a_node16"><a xlink:href="../../d6/d0b/def_8cpp.html" target="_top" xlink:title=" ">
<polygon fill="white" stroke="black" points="5895,-73 5895,-92 6017,-92 6017,-73 5895,-73"/>
<text text-anchor="middle" x="5956" y="-80" font-family="Helvetica,sans-Serif" font-size="10.00">src/libs/vmisc/def.cpp</text>
</a>
</g>
</g>
<!-- Node4&#45;&gt;Node20 -->
<g id="edge16" class="edge">
<title>Node4&#45;&gt;Node20</title>
<path fill="none" stroke="midnightblue" d="M3828.65,-149.92C3945.27,-145.58 4136.82,-138.72 4302,-134 4653.73,-123.95 5535.34,-137.36 5885,-98 5896.63,-96.69 5909.18,-94.42 5920.44,-92.06"/>
<polygon fill="midnightblue" stroke="midnightblue" points="3828.51,-146.42 3818.65,-150.29 3828.77,-153.42 3828.51,-146.42"/>
</g>
<!-- Node21 -->
<g id="node17" class="node">
<title>Node21</title>
<g id="a_node17"><a xlink:href="../../db/d65/dialogexporttocsv_8cpp.html" target="_top" xlink:title=" ">
<polygon fill="white" stroke="black" points="1202.5,-67.5 1202.5,-97.5 1329.5,-97.5 1329.5,-67.5 1202.5,-67.5"/>
<text text-anchor="start" x="1210.5" y="-85.5" font-family="Helvetica,sans-Serif" font-size="10.00">src/libs/vmisc/dialogs</text>
<text text-anchor="middle" x="1266" y="-74.5" font-family="Helvetica,sans-Serif" font-size="10.00">/dialogexporttocsv.cpp</text>
</a>
</g>
</g>
<!-- Node4&#45;&gt;Node21 -->
<g id="edge17" class="edge">
<title>Node4&#45;&gt;Node21</title>
<path fill="none" stroke="midnightblue" d="M3613.23,-153.94C3209.78,-153.32 1788.82,-147.59 1339,-98 1335.92,-97.66 1332.77,-97.26 1329.6,-96.8"/>
<polygon fill="midnightblue" stroke="midnightblue" points="3613.43,-157.44 3623.43,-153.95 3613.44,-150.44 3613.43,-157.44"/>
</g>
<!-- Node22 -->
<g id="node18" class="node">
<title>Node22</title>
<g id="a_node18"><a xlink:href="../../d0/df6/vabstractapplication_8cpp.html" target="_top" xlink:title=" ">
<polygon fill="white" stroke="black" points="1348,-73 1348,-92 1554,-92 1554,-73 1348,-73"/>
<text text-anchor="middle" x="1451" y="-80" font-family="Helvetica,sans-Serif" font-size="10.00">src/libs/vmisc/vabstractapplication.cpp</text>
</a>
</g>
</g>
<!-- Node4&#45;&gt;Node22 -->
<g id="edge18" class="edge">
<title>Node4&#45;&gt;Node22</title>
<path fill="none" stroke="midnightblue" d="M3613.38,-152.67C3235.18,-147.78 1968.11,-129.4 1563,-98 1545.02,-96.61 1525.49,-94.34 1507.86,-92.01"/>
<polygon fill="midnightblue" stroke="midnightblue" points="3613.45,-156.17 3623.5,-152.8 3613.54,-149.18 3613.45,-156.17"/>
</g>
<!-- Node23 -->
<g id="node19" class="node">
<title>Node23</title>
<g id="a_node19"><a xlink:href="../../d4/d4f/pmsystems_8cpp.html" target="_top" xlink:title=" ">
<polygon fill="white" stroke="black" points="1572.5,-67.5 1572.5,-97.5 1679.5,-97.5 1679.5,-67.5 1572.5,-67.5"/>
<text text-anchor="start" x="1580.5" y="-85.5" font-family="Helvetica,sans-Serif" font-size="10.00">src/libs/vpatterndb</text>
<text text-anchor="middle" x="1626" y="-74.5" font-family="Helvetica,sans-Serif" font-size="10.00">/pmsystems.cpp</text>
</a>
</g>
</g>
<!-- Node4&#45;&gt;Node23 -->
<g id="edge19" class="edge">
<title>Node4&#45;&gt;Node23</title>
<path fill="none" stroke="midnightblue" d="M3613.32,-153.9C3249.17,-153.13 2065.49,-146.83 1688,-98 1685.26,-97.65 1682.46,-97.22 1679.65,-96.75"/>
<polygon fill="midnightblue" stroke="midnightblue" points="3613.33,-157.4 3623.33,-153.92 3613.34,-150.4 3613.33,-157.4"/>
</g>
<!-- Node4&#45;&gt;Node24 -->
<g id="edge20" class="edge">
<title>Node4&#45;&gt;Node24</title>
<path fill="none" stroke="midnightblue" d="M3828.65,-149.86C3945.27,-145.47 4136.82,-138.57 4302,-134 4685.05,-123.41 5645.73,-145.22 6026,-98 6029.01,-97.63 6032.08,-97.17 6035.17,-96.65"/>
<polygon fill="midnightblue" stroke="midnightblue" points="3828.51,-146.36 3818.65,-150.24 3828.77,-153.36 3828.51,-146.36"/>
</g>
<!-- Node4&#45;&gt;Node25 -->
<g id="edge21" class="edge">
<title>Node4&#45;&gt;Node25</title>
<path fill="none" stroke="midnightblue" d="M3828.84,-152.81C4269.25,-147.75 5919.13,-127.05 6151,-98 6154.01,-97.62 6157.08,-97.16 6160.17,-96.65"/>
<polygon fill="midnightblue" stroke="midnightblue" points="3828.62,-149.31 3818.66,-152.92 3828.7,-156.31 3828.62,-149.31"/>
</g>
<!-- Node26 -->
<g id="node22" class="node">
<title>Node26</title>
<g id="a_node22"><a xlink:href="../../df/d7a/vpiece_8cpp.html" target="_top" xlink:title=" ">
<polygon fill="white" stroke="black" points="556.5,-67.5 556.5,-97.5 663.5,-97.5 663.5,-67.5 556.5,-67.5"/>
<text text-anchor="start" x="564.5" y="-85.5" font-family="Helvetica,sans-Serif" font-size="10.00">src/libs/vpatterndb</text>
<text text-anchor="middle" x="610" y="-74.5" font-family="Helvetica,sans-Serif" font-size="10.00">/vpiece.cpp</text>
</a>
</g>
</g>
<!-- Node4&#45;&gt;Node26 -->
<g id="edge22" class="edge">
<title>Node4&#45;&gt;Node26</title>
<path fill="none" stroke="midnightblue" d="M3612.94,-153.35C3105.21,-150.1 968.91,-134.37 673,-98 669.99,-97.63 666.92,-97.18 663.83,-96.66"/>
<polygon fill="midnightblue" stroke="midnightblue" points="3613.17,-156.85 3623.19,-153.41 3613.21,-149.85 3613.17,-156.85"/>
</g>
<!-- Node27 -->
<g id="node23" class="node">
<title>Node27</title>
<g id="a_node23"><a xlink:href="../../df/dba/vpiecenode__p_8h.html" target="_top" xlink:title=" ">
<polygon fill="white" stroke="black" points="1077.5,-67.5 1077.5,-97.5 1184.5,-97.5 1184.5,-67.5 1077.5,-67.5"/>
<text text-anchor="start" x="1085.5" y="-85.5" font-family="Helvetica,sans-Serif" font-size="10.00">src/libs/vpatterndb</text>
<text text-anchor="middle" x="1131" y="-74.5" font-family="Helvetica,sans-Serif" font-size="10.00">/vpiecenode_p.h</text>
</a>
</g>
</g>
<!-- Node4&#45;&gt;Node27 -->
<g id="edge23" class="edge">
<title>Node4&#45;&gt;Node27</title>
<path fill="none" stroke="midnightblue" d="M3613.34,-152.93C3162.07,-148.29 1434.98,-128.64 1193,-98 1190.26,-97.65 1187.46,-97.24 1184.64,-96.76"/>
<polygon fill="midnightblue" stroke="midnightblue" points="3613.41,-156.43 3623.44,-153.04 3613.48,-149.43 3613.41,-156.43"/>
</g>
<!-- Node4&#45;&gt;Node29 -->
<g id="edge25" class="edge">
<title>Node4&#45;&gt;Node29</title>
<path fill="none" stroke="midnightblue" d="M3828.76,-154.47C4250.71,-155.88 5791.17,-156.8 6276,-98 6279.21,-97.61 6282.5,-97.13 6285.81,-96.59"/>
<polygon fill="midnightblue" stroke="midnightblue" points="3828.72,-150.97 3818.7,-154.44 3828.69,-157.97 3828.72,-150.97"/>
</g>
<!-- Node30 -->
<g id="node26" class="node">
<title>Node30</title>
<g id="a_node26"><a xlink:href="../../df/d40/export__format__combobox_8cpp.html" target="_top" xlink:title=" ">
<polygon fill="white" stroke="black" points="1697.5,-67.5 1697.5,-97.5 1830.5,-97.5 1830.5,-67.5 1697.5,-67.5"/>
<text text-anchor="start" x="1705.5" y="-85.5" font-family="Helvetica,sans-Serif" font-size="10.00">src/libs/vwidgets/export</text>
<text text-anchor="middle" x="1764" y="-74.5" font-family="Helvetica,sans-Serif" font-size="10.00">_format_combobox.cpp</text>
</a>
</g>
</g>
<!-- Node4&#45;&gt;Node30 -->
<g id="edge26" class="edge">
<title>Node4&#45;&gt;Node30</title>
<path fill="none" stroke="midnightblue" d="M3613.25,-153.04C3267.34,-149.61 2187.32,-136.06 1840,-98 1836.93,-97.66 1833.8,-97.27 1830.64,-96.83"/>
<polygon fill="midnightblue" stroke="midnightblue" points="3613.24,-156.54 3623.27,-153.14 3613.31,-149.54 3613.24,-156.54"/>
</g>
<!-- Node31 -->
<g id="node27" class="node">
<title>Node31</title>
<g id="a_node27"><a xlink:href="../../d3/d4f/mouse__coordinates_8cpp.html" target="_top" xlink:title=" ">
<polygon fill="white" stroke="black" points="1849,-67.5 1849,-97.5 1983,-97.5 1983,-67.5 1849,-67.5"/>
<text text-anchor="start" x="1857" y="-85.5" font-family="Helvetica,sans-Serif" font-size="10.00">src/libs/vwidgets/mouse</text>
<text text-anchor="middle" x="1916" y="-74.5" font-family="Helvetica,sans-Serif" font-size="10.00">_coordinates.cpp</text>
</a>
</g>
</g>
<!-- Node4&#45;&gt;Node31 -->
<g id="edge27" class="edge">
<title>Node4&#45;&gt;Node31</title>
<path fill="none" stroke="midnightblue" d="M3612.84,-152.71C3285.45,-148.45 2308.24,-133.07 1992,-98 1989.06,-97.67 1986.07,-97.3 1983.05,-96.88"/>
<polygon fill="midnightblue" stroke="midnightblue" points="3613.23,-156.21 3623.28,-152.84 3613.32,-149.21 3613.23,-156.21"/>
</g>
<!-- Node32 -->
<g id="node28" class="node">
<title>Node32</title>
<g id="a_node28"><a xlink:href="../../d2/d28/page__format__combobox_8cpp.html" target="_top" xlink:title=" ">
<polygon fill="white" stroke="black" points="2001.5,-67.5 2001.5,-97.5 2132.5,-97.5 2132.5,-67.5 2001.5,-67.5"/>
<text text-anchor="start" x="2009.5" y="-85.5" font-family="Helvetica,sans-Serif" font-size="10.00">src/libs/vwidgets/page</text>
<text text-anchor="middle" x="2067" y="-74.5" font-family="Helvetica,sans-Serif" font-size="10.00">_format_combobox.cpp</text>
</a>
</g>
</g>
<!-- Node4&#45;&gt;Node32 -->
<g id="edge28" class="edge">
<title>Node4&#45;&gt;Node32</title>
<path fill="none" stroke="midnightblue" d="M3613.16,-152.4C3305.46,-147.48 2427.05,-130.89 2141,-98 2138.27,-97.69 2135.49,-97.33 2132.68,-96.93"/>
<polygon fill="midnightblue" stroke="midnightblue" points="3613.37,-155.9 3623.43,-152.56 3613.48,-148.9 3613.37,-155.9"/>
</g>
<!-- Node33 -->
<g id="node29" class="node">
<title>Node33</title>
<g id="a_node29"><a xlink:href="../../d7/d1b/pen__toolbar_8cpp.html" target="_top" xlink:title=" ">
<polygon fill="white" stroke="black" points="2150.5,-67.5 2150.5,-97.5 2269.5,-97.5 2269.5,-67.5 2150.5,-67.5"/>
<text text-anchor="start" x="2158.5" y="-85.5" font-family="Helvetica,sans-Serif" font-size="10.00">src/libs/vwidgets/pen</text>
<text text-anchor="middle" x="2210" y="-74.5" font-family="Helvetica,sans-Serif" font-size="10.00">_toolbar.cpp</text>
</a>
</g>
</g>
<!-- Node4&#45;&gt;Node33 -->
<g id="edge29" class="edge">
<title>Node4&#45;&gt;Node33</title>
<path fill="none" stroke="midnightblue" d="M3613.28,-152.17C3324.42,-146.88 2537.02,-129.89 2279,-98 2275.96,-97.62 2272.86,-97.18 2269.74,-96.7"/>
<polygon fill="midnightblue" stroke="midnightblue" points="3613.28,-155.67 3623.34,-152.35 3613.41,-148.67 3613.28,-155.67"/>
</g>
<!-- Node34 -->
<g id="node30" class="node">
<title>Node34</title>
<g id="a_node30"><a xlink:href="../../d8/d76/scene__rect_8cpp.html" target="_top" xlink:title=" ">
<polygon fill="white" stroke="black" points="2288,-67.5 2288,-97.5 2418,-97.5 2418,-67.5 2288,-67.5"/>
<text text-anchor="start" x="2296" y="-85.5" font-family="Helvetica,sans-Serif" font-size="10.00">src/libs/vwidgets/scene</text>
<text text-anchor="middle" x="2353" y="-74.5" font-family="Helvetica,sans-Serif" font-size="10.00">_rect.cpp</text>
</a>
</g>
</g>
<!-- Node4&#45;&gt;Node34 -->
<g id="edge30" class="edge">
<title>Node4&#45;&gt;Node34</title>
<path fill="none" stroke="midnightblue" d="M3613.16,-154.79C3390.6,-155.22 2864.62,-150.05 2427,-98 2424.14,-97.66 2421.23,-97.27 2418.29,-96.84"/>
<polygon fill="midnightblue" stroke="midnightblue" points="3613.21,-158.29 3623.2,-154.77 3613.19,-151.29 3613.21,-158.29"/>
</g>
<!-- Node35 -->
<g id="node31" class="node">
<title>Node35</title>
<g id="a_node31"><a xlink:href="../../dd/df6/vabstractmainwindow_8cpp.html" target="_top" xlink:title=" ">
<polygon fill="white" stroke="black" points="2436.5,-73 2436.5,-92 2665.5,-92 2665.5,-73 2436.5,-73"/>
<text text-anchor="middle" x="2551" y="-80" font-family="Helvetica,sans-Serif" font-size="10.00">src/libs/vwidgets/vabstractmainwindow.cpp</text>
</a>
</g>
</g>
<!-- Node4&#45;&gt;Node35 -->
<g id="edge31" class="edge">
<title>Node4&#45;&gt;Node35</title>
<path fill="none" stroke="midnightblue" d="M3613.16,-150.51C3423.14,-143.84 3016.38,-127.31 2674,-98 2655.36,-96.4 2635.19,-94.22 2616.67,-92.03"/>
<polygon fill="midnightblue" stroke="midnightblue" points="3613.31,-154.01 3623.42,-150.86 3613.55,-147.02 3613.31,-154.01"/>
</g>
<!-- Node36 -->
<g id="node32" class="node">
<title>Node36</title>
<g id="a_node32"><a xlink:href="../../d1/d90/vgrainlineitem_8cpp.html" target="_top" xlink:title=" ">
<polygon fill="white" stroke="black" points="2683.5,-73 2683.5,-92 2876.5,-92 2876.5,-73 2683.5,-73"/>
<text text-anchor="middle" x="2780" y="-80" font-family="Helvetica,sans-Serif" font-size="10.00">src/libs/vwidgets/vgrainlineitem.cpp</text>
</a>
</g>
</g>
<!-- Node4&#45;&gt;Node36 -->
<g id="edge32" class="edge">
<title>Node4&#45;&gt;Node36</title>
<path fill="none" stroke="midnightblue" d="M3613.16,-149.15C3453.87,-141.44 3146.42,-124.51 2886,-98 2870.02,-96.37 2852.73,-94.19 2836.85,-92.01"/>
<polygon fill="midnightblue" stroke="midnightblue" points="3613.28,-152.66 3623.44,-149.64 3613.62,-145.67 3613.28,-152.66"/>
</g>
<!-- Node37 -->
<g id="node33" class="node">
<title>Node37</title>
<g id="a_node33"><a xlink:href="../../de/dec/vgraphicssimpletextitem_8cpp.html" target="_top" xlink:title=" ">
<polygon fill="white" stroke="black" points="2895,-73 2895,-92 3139,-92 3139,-73 2895,-73"/>
<text text-anchor="middle" x="3017" y="-80" font-family="Helvetica,sans-Serif" font-size="10.00">src/libs/vwidgets/vgraphicssimpletextitem.cpp</text>
</a>
</g>
</g>
<!-- Node4&#45;&gt;Node37 -->
<g id="edge33" class="edge">
<title>Node4&#45;&gt;Node37</title>
<path fill="none" stroke="midnightblue" d="M3620.01,-144.52C3505.5,-133.69 3313.26,-115.22 3148,-98 3130.02,-96.13 3110.66,-94.03 3092.49,-92.02"/>
<polygon fill="midnightblue" stroke="midnightblue" points="3619.87,-148.03 3630.16,-145.48 3620.53,-141.06 3619.87,-148.03"/>
</g>
<!-- Node38 -->
<g id="node34" class="node">
<title>Node38</title>
<g id="a_node34"><a xlink:href="../../d1/d88/vmaingraphicsscene_8cpp.html" target="_top" xlink:title=" ">
<polygon fill="white" stroke="black" points="3157,-73 3157,-92 3379,-92 3379,-73 3157,-73"/>
<text text-anchor="middle" x="3268" y="-80" font-family="Helvetica,sans-Serif" font-size="10.00">src/libs/vwidgets/vmaingraphicsscene.cpp</text>
</a>
</g>
</g>
<!-- Node4&#45;&gt;Node38 -->
<g id="edge34" class="edge">
<title>Node4&#45;&gt;Node38</title>
<path fill="none" stroke="midnightblue" d="M3656.33,-143.94C3566.84,-130.01 3406.79,-105.1 3322.84,-92.03"/>
<polygon fill="midnightblue" stroke="midnightblue" points="3655.94,-147.42 3666.36,-145.5 3657.01,-140.5 3655.94,-147.42"/>
</g>
<!-- Node39 -->
<g id="node35" class="node">
<title>Node39</title>
<g id="a_node35"><a xlink:href="../../de/d45/vcontrolpointspline_8cpp.html" target="_top" xlink:title=" ">
<polygon fill="white" stroke="black" points="3397.5,-73 3397.5,-92 3612.5,-92 3612.5,-73 3397.5,-73"/>
<text text-anchor="middle" x="3505" y="-80" font-family="Helvetica,sans-Serif" font-size="10.00">src/libs/vwidgets/vcontrolpointspline.cpp</text>
</a>
</g>
</g>
<!-- Node4&#45;&gt;Node39 -->
<g id="edge35" class="edge">
<title>Node4&#45;&gt;Node39</title>
<path fill="none" stroke="midnightblue" d="M3685.36,-142.37C3641.97,-128.21 3569.72,-104.62 3531.15,-92.03"/>
<polygon fill="midnightblue" stroke="midnightblue" points="3684.35,-145.72 3694.95,-145.5 3686.52,-139.07 3684.35,-145.72"/>
</g>
<!-- Node40 -->
<g id="node36" class="node">
<title>Node40</title>
<g id="a_node36"><a xlink:href="../../d0/d5d/vscenepoint_8cpp.html" target="_top" xlink:title=" ">
<polygon fill="white" stroke="black" points="3630.5,-73 3630.5,-92 3811.5,-92 3811.5,-73 3630.5,-73"/>
<text text-anchor="middle" x="3721" y="-80" font-family="Helvetica,sans-Serif" font-size="10.00">src/libs/vwidgets/vscenepoint.cpp</text>
</a>
</g>
</g>
<!-- Node4&#45;&gt;Node40 -->
<g id="edge36" class="edge">
<title>Node4&#45;&gt;Node40</title>
<path fill="none" stroke="midnightblue" d="M3721,-134.94C3721,-121.03 3721,-102.82 3721,-92.22"/>
<polygon fill="midnightblue" stroke="midnightblue" points="3717.5,-135.36 3721,-145.36 3724.5,-135.36 3717.5,-135.36"/>
</g>
<!-- Node41 -->
<g id="node37" class="node">
<title>Node41</title>
<g id="a_node37"><a xlink:href="../../d2/d31/vmaingraphicsview_8cpp.html" target="_top" xlink:title=" ">
<polygon fill="white" stroke="black" points="3830,-73 3830,-92 4046,-92 4046,-73 3830,-73"/>
<text text-anchor="middle" x="3938" y="-80" font-family="Helvetica,sans-Serif" font-size="10.00">src/libs/vwidgets/vmaingraphicsview.cpp</text>
</a>
</g>
</g>
<!-- Node4&#45;&gt;Node41 -->
<g id="edge37" class="edge">
<title>Node4&#45;&gt;Node41</title>
<path fill="none" stroke="midnightblue" d="M3756.8,-142.37C3800.4,-128.21 3872.98,-104.62 3911.73,-92.03"/>
<polygon fill="midnightblue" stroke="midnightblue" points="3755.6,-139.08 3747.18,-145.5 3757.77,-145.73 3755.6,-139.08"/>
</g>
<!-- Node42 -->
<g id="node38" class="node">
<title>Node42</title>
<g id="a_node38"><a xlink:href="../../de/d22/vsimplecurve_8cpp.html" target="_top" xlink:title=" ">
<polygon fill="white" stroke="black" points="4064,-73 4064,-92 4252,-92 4252,-73 4064,-73"/>
<text text-anchor="middle" x="4158" y="-80" font-family="Helvetica,sans-Serif" font-size="10.00">src/libs/vwidgets/vsimplecurve.cpp</text>
</a>
</g>
</g>
<!-- Node4&#45;&gt;Node42 -->
<g id="edge38" class="edge">
<title>Node4&#45;&gt;Node42</title>
<path fill="none" stroke="midnightblue" d="M3783.65,-143.89C3870.03,-129.96 4024.19,-105.09 4105.1,-92.03"/>
<polygon fill="midnightblue" stroke="midnightblue" points="3783.03,-140.45 3773.71,-145.5 3784.14,-147.36 3783.03,-140.45"/>
</g>
<!-- Node43 -->
<g id="node39" class="node">
<title>Node43</title>
<g id="a_node39"><a xlink:href="../../df/d38/vsimplepoint_8cpp.html" target="_top" xlink:title=" ">
<polygon fill="white" stroke="black" points="4270.5,-73 4270.5,-92 4455.5,-92 4455.5,-73 4270.5,-73"/>
<text text-anchor="middle" x="4363" y="-80" font-family="Helvetica,sans-Serif" font-size="10.00">src/libs/vwidgets/vsimplepoint.cpp</text>
</a>
</g>
</g>
<!-- Node4&#45;&gt;Node43 -->
<g id="edge39" class="edge">
<title>Node4&#45;&gt;Node43</title>
<path fill="none" stroke="midnightblue" d="M3823.3,-144.55C3932,-134.25 4108.82,-116.7 4261,-98 4275.56,-96.21 4291.25,-94.08 4305.87,-92.01"/>
<polygon fill="midnightblue" stroke="midnightblue" points="3822.95,-141.07 3813.33,-145.5 3823.61,-148.04 3822.95,-141.07"/>
</g>
<!-- Node44 -->
<g id="node40" class="node">
<title>Node44</title>
<g id="a_node40"><a xlink:href="../../df/df5/vtextgraphicsitem_8cpp.html" target="_top" xlink:title=" ">
<polygon fill="white" stroke="black" points="4473.5,-73 4473.5,-92 4684.5,-92 4684.5,-73 4473.5,-73"/>
<text text-anchor="middle" x="4579" y="-80" font-family="Helvetica,sans-Serif" font-size="10.00">src/libs/vwidgets/vtextgraphicsitem.cpp</text>
</a>
</g>
</g>
<!-- Node4&#45;&gt;Node44 -->
<g id="edge40" class="edge">
<title>Node4&#45;&gt;Node44</title>
<path fill="none" stroke="midnightblue" d="M3829.01,-147.56C3973.74,-138.55 4238.54,-120.7 4464,-98 4480.92,-96.3 4499.2,-94.14 4516.1,-92.01"/>
<polygon fill="midnightblue" stroke="midnightblue" points="3828.56,-144.09 3818.8,-148.2 3828.99,-151.07 3828.56,-144.09"/>
</g>
<!-- Node13&#45;&gt;Node14 -->
<g id="edge10" class="edge">
<title>Node13&#45;&gt;Node14</title>
<path fill="none" stroke="midnightblue" d="M5768.95,-64.44C5735.55,-53.91 5693.22,-40.55 5661.72,-30.61"/>
<polygon fill="midnightblue" stroke="midnightblue" points="5767.96,-67.8 5778.55,-67.48 5770.07,-61.13 5767.96,-67.8"/>
</g>
<!-- Node28 -->
<g id="node24" class="node">
<title>Node28</title>
<g id="a_node24"><a xlink:href="../../d8/dba/vpiecenode_8cpp.html" target="_top" xlink:title=" ">
<polygon fill="white" stroke="black" points="776.5,-0.5 776.5,-30.5 883.5,-30.5 883.5,-0.5 776.5,-0.5"/>
<text text-anchor="start" x="784.5" y="-18.5" font-family="Helvetica,sans-Serif" font-size="10.00">src/libs/vpatterndb</text>
<text text-anchor="middle" x="830" y="-7.5" font-family="Helvetica,sans-Serif" font-size="10.00">/vpiecenode.cpp</text>
</a>
</g>
</g>
<!-- Node27&#45;&gt;Node28 -->
<g id="edge24" class="edge">
<title>Node27&#45;&gt;Node28</title>
<path fill="none" stroke="midnightblue" d="M1067.63,-66.94C998.42,-51.68 930.04,-37.28 883.94,-27.67"/>
<polygon fill="midnightblue" stroke="midnightblue" points="1066.88,-70.36 1077.4,-69.1 1068.39,-63.52 1066.88,-70.36"/>
</g>
<!-- Node45&#45;&gt;Node4 -->
<g id="edge49" class="edge">
<title>Node45&#45;&gt;Node4</title>
<path fill="none" stroke="midnightblue" d="M786.68,-225C1168.92,-216.01 3157.91,-169.24 3623.45,-158.29"/>
<polygon fill="midnightblue" stroke="midnightblue" points="786.54,-221.5 776.63,-225.24 786.71,-228.5 786.54,-221.5"/>
</g>
<!-- Node45&#45;&gt;Node19 -->
<g id="edge48" class="edge">
<title>Node45&#45;&gt;Node19</title>
<path fill="none" stroke="midnightblue" d="M731.33,-202.66C742.66,-170.27 762.37,-113.9 769.93,-92.28"/>
<polygon fill="midnightblue" stroke="midnightblue" points="727.97,-201.67 727.98,-212.27 734.58,-203.98 727.97,-201.67"/>
</g>
<!-- Node45&#45;&gt;Node24 -->
<g id="edge52" class="edge">
<title>Node45&#45;&gt;Node24</title>
<path fill="none" stroke="midnightblue" d="M786.77,-225.92C1110.5,-222.86 2604.45,-207.62 3827,-176 3949.2,-172.84 5904.8,-113.95 6026,-98 6029,-97.6 6032.08,-97.13 6035.17,-96.6"/>
<polygon fill="midnightblue" stroke="midnightblue" points="786.61,-222.42 776.64,-226.01 786.67,-229.42 786.61,-222.42"/>
</g>
<!-- Node45&#45;&gt;Node25 -->
<g id="edge53" class="edge">
<title>Node45&#45;&gt;Node25</title>
<path fill="none" stroke="midnightblue" d="M786.63,-226.44C1148.65,-225.93 2985.53,-221.15 4485,-176 5225.92,-153.69 5416.64,-198.87 6151,-98 6154,-97.59 6157.07,-97.1 6160.16,-96.56"/>
<polygon fill="midnightblue" stroke="midnightblue" points="786.59,-222.94 776.6,-226.45 786.6,-229.94 786.59,-222.94"/>
</g>
<!-- Node45&#45;&gt;Node26 -->
<g id="edge54" class="edge">
<title>Node45&#45;&gt;Node26</title>
<path fill="none" stroke="midnightblue" d="M705.33,-204.14C681.81,-174.37 640.88,-122.58 621.2,-97.68"/>
<polygon fill="midnightblue" stroke="midnightblue" points="702.81,-206.59 711.75,-212.27 708.3,-202.25 702.81,-206.59"/>
</g>
<!-- Node45&#45;&gt;Node28 -->
<g id="edge55" class="edge">
<title>Node45&#45;&gt;Node28</title>
<path fill="none" stroke="midnightblue" d="M675.09,-208.56C607.87,-180.76 498.87,-124.48 547,-67 575.68,-32.75 702.61,-21.71 776.38,-18.16"/>
<polygon fill="midnightblue" stroke="midnightblue" points="674.1,-211.93 684.68,-212.45 676.73,-205.45 674.1,-211.93"/>
</g>
<!-- Node46 -->
<g id="node42" class="node">
<title>Node46</title>
<g id="a_node42"><a xlink:href="../../dc/db7/measurements_8h.html" target="_top" xlink:title=" ">
<polygon fill="white" stroke="black" points="315.5,-145.5 315.5,-164.5 494.5,-164.5 494.5,-145.5 315.5,-145.5"/>
<text text-anchor="middle" x="405" y="-152.5" font-family="Helvetica,sans-Serif" font-size="10.00">src/libs/vformat/measurements.h</text>
</a>
</g>
</g>
<!-- Node45&#45;&gt;Node46 -->
<g id="edge43" class="edge">
<title>Node45&#45;&gt;Node46</title>
<path fill="none" stroke="midnightblue" d="M659.37,-212.39C594.95,-198.11 497.4,-176.49 443.76,-164.59"/>
<polygon fill="midnightblue" stroke="midnightblue" points="658.89,-215.87 669.42,-214.62 660.41,-209.04 658.89,-215.87"/>
</g>
<!-- Node47 -->
<g id="node43" class="node">
<title>Node47</title>
<g id="a_node43"><a xlink:href="../../d9/de3/measurements_8cpp.html" target="_top" xlink:title=" ">
<polygon fill="white" stroke="black" points="310,-73 310,-92 500,-92 500,-73 310,-73"/>
<text text-anchor="middle" x="405" y="-80" font-family="Helvetica,sans-Serif" font-size="10.00">src/libs/vformat/measurements.cpp</text>
</a>
</g>
</g>
<!-- Node45&#45;&gt;Node47 -->
<g id="edge45" class="edge">
<title>Node45&#45;&gt;Node47</title>
<path fill="none" stroke="midnightblue" d="M659.11,-215.92C624.34,-208.3 581.51,-195.79 547,-176 523.55,-162.55 525.02,-149.69 503,-134 478.21,-116.34 446.41,-101.14 425.87,-92.15"/>
<polygon fill="midnightblue" stroke="midnightblue" points="658.64,-219.4 669.15,-218.04 660.09,-212.55 658.64,-219.4"/>
</g>
<!-- Node48 -->
<g id="node44" class="node">
<title>Node48</title>
<g id="a_node44"><a xlink:href="../../d6/de0/vlayoutpiece_8h.html" target="_top" xlink:title=" ">
<polygon fill="white" stroke="red" points="845,-145.5 845,-164.5 1011,-164.5 1011,-145.5 845,-145.5"/>
<text text-anchor="middle" x="928" y="-152.5" font-family="Helvetica,sans-Serif" font-size="10.00">src/libs/vlayout/vlayoutpiece.h</text>
</a>
</g>
</g>
<!-- Node45&#45;&gt;Node48 -->
<g id="edge46" class="edge">
<title>Node45&#45;&gt;Node48</title>
<path fill="none" stroke="midnightblue" d="M773.59,-209.1C814.79,-194.93 871.2,-175.54 903.19,-164.53"/>
<polygon fill="midnightblue" stroke="midnightblue" points="772.31,-205.84 763.99,-212.4 774.59,-212.46 772.31,-205.84"/>
</g>
<!-- Node57 -->
<g id="node45" class="node">
<title>Node57</title>
<g id="a_node45"><a xlink:href="../../d7/d8a/measurement__variable__p_8h.html" target="_top" xlink:title=" ">
<polygon fill="white" stroke="red" points="0,-134.5 0,-175.5 136,-175.5 136,-134.5 0,-134.5"/>
<text text-anchor="start" x="8" y="-163.5" font-family="Helvetica,sans-Serif" font-size="10.00">src/libs/vpatterndb</text>
<text text-anchor="start" x="8" y="-152.5" font-family="Helvetica,sans-Serif" font-size="10.00">/variables/measurement</text>
<text text-anchor="middle" x="68" y="-141.5" font-family="Helvetica,sans-Serif" font-size="10.00">_variable_p.h</text>
</a>
</g>
</g>
<!-- Node45&#45;&gt;Node57 -->
<g id="edge50" class="edge">
<title>Node45&#45;&gt;Node57</title>
<path fill="none" stroke="midnightblue" d="M658.91,-224.39C551.8,-220.1 329.93,-207.87 145,-176 142.14,-175.51 139.23,-174.96 136.3,-174.37"/>
<polygon fill="midnightblue" stroke="midnightblue" points="659.1,-227.9 669.23,-224.8 659.37,-220.91 659.1,-227.9"/>
</g>
<!-- Node59 -->
<g id="node46" class="node">
<title>Node59</title>
<g id="a_node46"><a xlink:href="../../d1/de1/vincrement__p_8h.html" target="_top" xlink:title=" ">
<polygon fill="white" stroke="red" points="154.5,-140 154.5,-170 297.5,-170 297.5,-140 154.5,-140"/>
<text text-anchor="start" x="162.5" y="-158" font-family="Helvetica,sans-Serif" font-size="10.00">src/libs/vpatterndb</text>
<text text-anchor="middle" x="226" y="-147" font-family="Helvetica,sans-Serif" font-size="10.00">/variables/vincrement_p.h</text>
</a>
</g>
</g>
<!-- Node45&#45;&gt;Node59 -->
<g id="edge51" class="edge">
<title>Node45&#45;&gt;Node59</title>
<path fill="none" stroke="midnightblue" d="M659.18,-221.26C577.04,-213.95 430.13,-198.94 306,-176 296.99,-174.33 287.49,-172.25 278.3,-170.07"/>
<polygon fill="midnightblue" stroke="midnightblue" points="659.09,-224.76 669.36,-222.16 659.7,-217.79 659.09,-224.76"/>
</g>
<!-- Node46&#45;&gt;Node47 -->
<g id="edge44" class="edge">
<title>Node46&#45;&gt;Node47</title>
<path fill="none" stroke="midnightblue" d="M405,-134.94C405,-121.03 405,-102.82 405,-92.22"/>
<polygon fill="midnightblue" stroke="midnightblue" points="401.5,-135.36 405,-145.36 408.5,-135.36 401.5,-135.36"/>
</g>
<!-- Node48&#45;&gt;Node18 -->
<g id="edge47" class="edge">
<title>Node48&#45;&gt;Node18</title>
<path fill="none" stroke="midnightblue" d="M938.62,-136.59C947.21,-122.5 958.96,-103.24 965.68,-92.22"/>
<polygon fill="midnightblue" stroke="midnightblue" points="935.49,-135 933.27,-145.36 941.47,-138.64 935.49,-135"/>
</g>
</g>
</svg>
