<?xml version="1.0" encoding="UTF-8" standalone="no"?>
<!DOCTYPE svg PUBLIC "-//W3C//DTD SVG 1.1//EN"
 "http://www.w3.org/Graphics/SVG/1.1/DTD/svg11.dtd">
<!-- Generated by graphviz version 2.43.0 (0)
 -->
<!-- Title: VPE::VFilePropertyPrivate Pages: 1 -->
<svg width="286pt" height="579pt"
 viewBox="0.00 0.00 285.50 579.00" xmlns="http://www.w3.org/2000/svg" xmlns:xlink="http://www.w3.org/1999/xlink">
<g id="graph0" class="graph" transform="scale(1 1) rotate(0) translate(4 575)">
<title>VPE::VFilePropertyPrivate</title>
<!-- Node1 -->
<g id="Node000001" class="node">
<title>Node1</title>
<g id="a_Node000001"><a xlink:title=" ">
<polygon fill="#999999" stroke="transparent" points="277.5,-161.5 140.5,-161.5 140.5,-67.5 277.5,-67.5 277.5,-161.5"/>
<text text-anchor="start" x="147" y="-149.5" font-family="Helvetica,sans-Serif" font-size="10.00">VPE::VFilePropertyPrivate</text>
<text text-anchor="start" x="145" y="-134.5" font-family="Helvetica,sans-Serif" font-size="10.00">+</text>
<text text-anchor="start" x="158" y="-134.5" font-family="Helvetica,sans-Serif" font-size="10.00">FileFilters</text>
<text text-anchor="start" x="145" y="-119.5" font-family="Helvetica,sans-Serif" font-size="10.00">+</text>
<text text-anchor="start" x="158" y="-119.5" font-family="Helvetica,sans-Serif" font-size="10.00">Directory</text>
<text text-anchor="start" x="145" y="-104.5" font-family="Helvetica,sans-Serif" font-size="10.00">+</text>
<text text-anchor="start" x="158" y="-104.5" font-family="Helvetica,sans-Serif" font-size="10.00">VFilePropertyPrivate()</text>
<text text-anchor="start" x="145" y="-89.5" font-family="Helvetica,sans-Serif" font-size="10.00">+</text>
<text text-anchor="start" x="158" y="-89.5" font-family="Helvetica,sans-Serif" font-size="10.00">VFilePropertyPrivate()</text>
<text text-anchor="start" x="145" y="-74.5" font-family="Helvetica,sans-Serif" font-size="10.00">+</text>
<text text-anchor="start" x="158" y="-74.5" font-family="Helvetica,sans-Serif" font-size="10.00">~VFilePropertyPrivate()</text>
<polygon fill="#666666" stroke="#666666" points="141,-144.5 141,-144.5 278,-144.5 278,-144.5 141,-144.5"/>
<polygon fill="#666666" stroke="#666666" points="141,-114.5 141,-114.5 156,-114.5 156,-114.5 141,-114.5"/>
<polygon fill="#666666" stroke="#666666" points="156,-114.5 156,-114.5 278,-114.5 278,-114.5 156,-114.5"/>
<polygon fill="none" stroke="#666666" points="140.5,-67.5 140.5,-161.5 277.5,-161.5 277.5,-67.5 140.5,-67.5"/>
</a>
</g>
</g>
<!-- Node2 -->
<g id="Node000002" class="node">
<title>Node2</title>
<g id="a_Node000002"><a xlink:href="../../db/d53/classVPE_1_1VPropertyPrivate.html" target="_top" xlink:title=" ">
<polygon fill="white" stroke="transparent" points="200,-475 80,-475 80,-276 200,-276 200,-475"/>
<text text-anchor="start" x="86" y="-462.5" font-family="Helvetica,sans-Serif" font-size="10.00">VPE::VPropertyPrivate</text>
<text text-anchor="start" x="84" y="-447.5" font-family="Helvetica,sans-Serif" font-size="10.00">+</text>
<text text-anchor="start" x="97" y="-447.5" font-family="Helvetica,sans-Serif" font-size="10.00">VariantValue</text>
<text text-anchor="start" x="84" y="-432.5" font-family="Helvetica,sans-Serif" font-size="10.00">+</text>
<text text-anchor="start" x="97" y="-432.5" font-family="Helvetica,sans-Serif" font-size="10.00">Name</text>
<text text-anchor="start" x="84" y="-417.5" font-family="Helvetica,sans-Serif" font-size="10.00">+</text>
<text text-anchor="start" x="97" y="-417.5" font-family="Helvetica,sans-Serif" font-size="10.00">Description</text>
<text text-anchor="start" x="84" y="-402.5" font-family="Helvetica,sans-Serif" font-size="10.00">+</text>
<text text-anchor="start" x="97" y="-402.5" font-family="Helvetica,sans-Serif" font-size="10.00">IsEmpty</text>
<text text-anchor="start" x="84" y="-387.5" font-family="Helvetica,sans-Serif" font-size="10.00">+</text>
<text text-anchor="start" x="97" y="-387.5" font-family="Helvetica,sans-Serif" font-size="10.00">PropertyVariantType</text>
<text text-anchor="start" x="84" y="-372.5" font-family="Helvetica,sans-Serif" font-size="10.00">+</text>
<text text-anchor="start" x="97" y="-372.5" font-family="Helvetica,sans-Serif" font-size="10.00">updateParent</text>
<text text-anchor="start" x="84" y="-357.5" font-family="Helvetica,sans-Serif" font-size="10.00">+</text>
<text text-anchor="start" x="97" y="-357.5" font-family="Helvetica,sans-Serif" font-size="10.00">UpdateChildren</text>
<text text-anchor="start" x="84" y="-342.5" font-family="Helvetica,sans-Serif" font-size="10.00">+</text>
<text text-anchor="start" x="97" y="-342.5" font-family="Helvetica,sans-Serif" font-size="10.00">editor</text>
<text text-anchor="start" x="84" y="-327.5" font-family="Helvetica,sans-Serif" font-size="10.00">+</text>
<text text-anchor="start" x="97" y="-327.5" font-family="Helvetica,sans-Serif" font-size="10.00">type</text>
<text text-anchor="start" x="84" y="-312.5" font-family="Helvetica,sans-Serif" font-size="10.00">+</text>
<text text-anchor="start" x="97" y="-312.5" font-family="Helvetica,sans-Serif" font-size="10.00">VPropertyPrivate()</text>
<text text-anchor="start" x="84" y="-297.5" font-family="Helvetica,sans-Serif" font-size="10.00">+</text>
<text text-anchor="start" x="97" y="-297.5" font-family="Helvetica,sans-Serif" font-size="10.00">VPropertyPrivate()</text>
<text text-anchor="start" x="84" y="-282.5" font-family="Helvetica,sans-Serif" font-size="10.00">+</text>
<text text-anchor="start" x="97" y="-282.5" font-family="Helvetica,sans-Serif" font-size="10.00">~VPropertyPrivate()</text>
<polygon fill="#666666" stroke="#666666" points="80,-457.5 80,-457.5 200,-457.5 200,-457.5 80,-457.5"/>
<polygon fill="#666666" stroke="#666666" points="80,-322.5 80,-322.5 95,-322.5 95,-322.5 80,-322.5"/>
<polygon fill="#666666" stroke="#666666" points="95,-322.5 95,-322.5 200,-322.5 200,-322.5 95,-322.5"/>
<polygon fill="none" stroke="#666666" points="80,-276 80,-475 200,-475 200,-276 80,-276"/>
</a>
</g>
</g>
<!-- Node2&#45;&gt;Node1 -->
<g id="edge1_Node000001_Node000002" class="edge">
<title>Node2&#45;&gt;Node1</title>
<g id="a_edge1_Node000001_Node000002"><a xlink:title=" ">
<path fill="none" stroke="#63b8ff" d="M181.72,-266C182.51,-263.32 183.28,-260.65 184,-258 192.69,-226.27 199.04,-189.69 203.16,-161.55"/>
<polygon fill="none" stroke="#63b8ff" points="178.31,-265.18 178.73,-275.77 185.01,-267.23 178.31,-265.18"/>
</a>
</g>
</g>
<!-- Node3 -->
<g id="Node000003" class="node">
<title>Node3</title>
<g id="a_Node000003"><a xlink:href="../../db/df9/classVPE_1_1VProperty.html" target="_top" xlink:title=" ">
<polygon fill="white" stroke="transparent" points="122,-229 0,-229 0,0 122,0 122,-229"/>
<text text-anchor="start" x="24.5" y="-216.5" font-family="Helvetica,sans-Serif" font-size="10.00">VPE::VProperty</text>
<text text-anchor="start" x="59" y="-201.5" font-family="Helvetica,sans-Serif" font-size="10.00"> </text>
<text text-anchor="start" x="4" y="-186.5" font-family="Helvetica,sans-Serif" font-size="10.00">+</text>
<text text-anchor="start" x="17" y="-186.5" font-family="Helvetica,sans-Serif" font-size="10.00">VProperty()</text>
<text text-anchor="start" x="4" y="-171.5" font-family="Helvetica,sans-Serif" font-size="10.00">+</text>
<text text-anchor="start" x="17" y="-171.5" font-family="Helvetica,sans-Serif" font-size="10.00">~VProperty()</text>
<text text-anchor="start" x="4" y="-156.5" font-family="Helvetica,sans-Serif" font-size="10.00">+</text>
<text text-anchor="start" x="17" y="-156.5" font-family="Helvetica,sans-Serif" font-size="10.00">type()</text>
<text text-anchor="start" x="4" y="-141.5" font-family="Helvetica,sans-Serif" font-size="10.00">+</text>
<text text-anchor="start" x="17" y="-141.5" font-family="Helvetica,sans-Serif" font-size="10.00">data()</text>
<text text-anchor="start" x="4" y="-126.5" font-family="Helvetica,sans-Serif" font-size="10.00">+</text>
<text text-anchor="start" x="17" y="-126.5" font-family="Helvetica,sans-Serif" font-size="10.00">setData()</text>
<text text-anchor="start" x="4" y="-111.5" font-family="Helvetica,sans-Serif" font-size="10.00">+</text>
<text text-anchor="start" x="17" y="-111.5" font-family="Helvetica,sans-Serif" font-size="10.00">paint()</text>
<text text-anchor="start" x="4" y="-96.5" font-family="Helvetica,sans-Serif" font-size="10.00">+</text>
<text text-anchor="start" x="17" y="-96.5" font-family="Helvetica,sans-Serif" font-size="10.00">createEditor()</text>
<text text-anchor="start" x="4" y="-81.5" font-family="Helvetica,sans-Serif" font-size="10.00">+</text>
<text text-anchor="start" x="17" y="-81.5" font-family="Helvetica,sans-Serif" font-size="10.00">setEditorData()</text>
<text text-anchor="start" x="4" y="-66.5" font-family="Helvetica,sans-Serif" font-size="10.00">+</text>
<text text-anchor="start" x="17" y="-66.5" font-family="Helvetica,sans-Serif" font-size="10.00">getEditorData()</text>
<text text-anchor="start" x="4" y="-51.5" font-family="Helvetica,sans-Serif" font-size="10.00">+</text>
<text text-anchor="start" x="17" y="-51.5" font-family="Helvetica,sans-Serif" font-size="10.00">flags()</text>
<text text-anchor="start" x="17" y="-36.5" font-family="Helvetica,sans-Serif" font-size="10.00">and 29 more...</text>
<text text-anchor="start" x="4" y="-21.5" font-family="Helvetica,sans-Serif" font-size="10.00">+</text>
<text text-anchor="start" x="17" y="-21.5" font-family="Helvetica,sans-Serif" font-size="10.00">childValueChanged()</text>
<text text-anchor="start" x="4" y="-6.5" font-family="Helvetica,sans-Serif" font-size="10.00">#</text>
<text text-anchor="start" x="17" y="-6.5" font-family="Helvetica,sans-Serif" font-size="10.00">VProperty()</text>
<polygon fill="#666666" stroke="#666666" points="0,-211.5 0,-211.5 122,-211.5 122,-211.5 0,-211.5"/>
<polygon fill="#666666" stroke="#666666" points="0,-196.5 0,-196.5 122,-196.5 122,-196.5 0,-196.5"/>
<polygon fill="none" stroke="#666666" points="0,0 0,-229 122,-229 122,0 0,0"/>
</a>
</g>
</g>
<!-- Node2&#45;&gt;Node3 -->
<g id="edge4_Node000003_Node000002" class="edge">
<title>Node2&#45;&gt;Node3</title>
<g id="a_edge4_Node000003_Node000002"><a xlink:title=" ">
<path fill="none" stroke="#63b8ff" d="M80.55,-275.99C78.09,-270.01 75.87,-263.99 74,-258 72.28,-252.51 70.77,-246.85 69.44,-241.09"/>
<polygon fill="none" stroke="#63b8ff" points="69.4,-240.9 64.26,-235.84 66.95,-229.15 72.09,-234.21 69.4,-240.9"/>
</a>
</g>
<text text-anchor="middle" x="92.5" y="-250" font-family="Helvetica,sans-Serif" font-size="10.00" fill="grey"> #d_ptr</text>
</g>
<!-- Node3&#45;&gt;Node2 -->
<g id="edge2_Node000002_Node000003" class="edge">
<title>Node3&#45;&gt;Node2</title>
<g id="a_edge2_Node000002_Node000003"><a xlink:title=" ">
<path fill="none" stroke="#63b8ff" d="M109.22,-229.05C111.28,-235.08 113.23,-241.09 115,-247 116.66,-252.52 118.23,-258.2 119.72,-263.96"/>
<polygon fill="none" stroke="#63b8ff" points="119.79,-264.23 125.11,-269.09 122.67,-275.88 117.35,-271.01 119.79,-264.23"/>
</a>
</g>
<text text-anchor="middle" x="138.5" y="-250" font-family="Helvetica,sans-Serif" font-size="10.00" fill="grey"> +Parent</text>
</g>
<!-- Node4 -->
<g id="Node000004" class="node">
<title>Node4</title>
<g id="a_Node000004"><a xlink:title=" ">
<polygon fill="white" stroke="transparent" points="62,-400 12,-400 12,-351 62,-351 62,-400"/>
<text text-anchor="start" x="17" y="-387.5" font-family="Helvetica,sans-Serif" font-size="10.00">QObject</text>
<text text-anchor="start" x="35" y="-372.5" font-family="Helvetica,sans-Serif" font-size="10.00"> </text>
<text text-anchor="start" x="35" y="-357.5" font-family="Helvetica,sans-Serif" font-size="10.00"> </text>
<polygon fill="#666666" stroke="#666666" points="12,-382.5 12,-382.5 62,-382.5 62,-382.5 12,-382.5"/>
<polygon fill="#666666" stroke="#666666" points="12,-367.5 12,-367.5 62,-367.5 62,-367.5 12,-367.5"/>
<polygon fill="none" stroke="#666666" points="12,-351 12,-400 62,-400 62,-351 12,-351"/>
</a>
</g>
</g>
<!-- Node4&#45;&gt;Node3 -->
<g id="edge3_Node000003_Node000004" class="edge">
<title>Node4&#45;&gt;Node3</title>
<g id="a_edge3_Node000003_Node000004"><a xlink:title=" ">
<path fill="none" stroke="#63b8ff" d="M40.16,-340.39C42.8,-311.88 46.73,-269.54 50.46,-229.27"/>
<polygon fill="none" stroke="#63b8ff" points="36.65,-340.32 39.21,-350.6 43.62,-340.96 36.65,-340.32"/>
</a>
</g>
</g>
<!-- Node5 -->
<g id="Node000005" class="node">
<title>Node5</title>
<g id="a_Node000005"><a xlink:href="../../d1/d4a/classQList.html" target="_top" xlink:title=" ">
<polygon fill="white" stroke="transparent" points="209.5,-571 70.5,-571 70.5,-522 209.5,-522 209.5,-571"/>
<text text-anchor="start" x="76" y="-558.5" font-family="Helvetica,sans-Serif" font-size="10.00">QList&lt; VPE::VProperty * &gt;</text>
<text text-anchor="start" x="138.5" y="-543.5" font-family="Helvetica,sans-Serif" font-size="10.00"> </text>
<text text-anchor="start" x="138.5" y="-528.5" font-family="Helvetica,sans-Serif" font-size="10.00"> </text>
<polygon fill="#666666" stroke="#666666" points="71,-553.5 71,-553.5 210,-553.5 210,-553.5 71,-553.5"/>
<polygon fill="#666666" stroke="#666666" points="71,-538.5 71,-538.5 210,-538.5 210,-538.5 71,-538.5"/>
<polygon fill="none" stroke="#666666" points="70.5,-522 70.5,-571 209.5,-571 209.5,-522 70.5,-522"/>
</a>
</g>
</g>
<!-- Node5&#45;&gt;Node2 -->
<g id="edge5_Node000002_Node000005" class="edge">
<title>Node5&#45;&gt;Node2</title>
<g id="a_edge5_Node000002_Node000005"><a xlink:title=" ">
<path fill="none" stroke="#63b8ff" d="M140,-521.64C140,-512.06 140,-500.28 140,-487.6"/>
<polygon fill="none" stroke="#63b8ff" points="140,-487.22 136,-481.22 140,-475.22 144,-481.22 140,-487.22"/>
</a>
</g>
<text text-anchor="middle" x="166" y="-496" font-family="Helvetica,sans-Serif" font-size="10.00" fill="grey"> +Children</text>
</g>
</g>
</svg>
