<?xml version="1.0" encoding="UTF-8" standalone="no"?>
<!DOCTYPE svg PUBLIC "-//W3C//DTD SVG 1.1//EN"
 "http://www.w3.org/Graphics/SVG/1.1/DTD/svg11.dtd">
<!-- Generated by graphviz version 2.43.0 (0)
 -->
<!-- Title: src/libs/vpropertyexplorer/vpropertyformview_p.h Pages: 1 -->
<svg width="1202pt" height="203pt"
 viewBox="0.00 0.00 1201.50 203.00" xmlns="http://www.w3.org/2000/svg" xmlns:xlink="http://www.w3.org/1999/xlink">
<g id="graph0" class="graph" transform="scale(1 1) rotate(0) translate(4 199)">
<title>src/libs/vpropertyexplorer/vpropertyformview_p.h</title>
<!-- Node1 -->
<g id="Node000001" class="node">
<title>Node1</title>
<g id="a_Node000001"><a xlink:title=" ">
<polygon fill="#999999" stroke="#666666" points="812,-195 670,-195 670,-165 812,-165 812,-195"/>
<text text-anchor="start" x="678" y="-183" font-family="Helvetica,sans-Serif" font-size="10.00">src/libs/vpropertyexplorer</text>
<text text-anchor="middle" x="741" y="-172" font-family="Helvetica,sans-Serif" font-size="10.00">/vpropertyformview_p.h</text>
</a>
</g>
</g>
<!-- Node2 -->
<g id="Node000002" class="node">
<title>Node2</title>
<g id="a_Node000002"><a xlink:href="../../d1/dde/vpropertyformwidget__p_8h.html" target="_top" xlink:title=" ">
<polygon fill="white" stroke="#666666" points="762,-129 622,-129 622,-110 762,-110 762,-129"/>
<text text-anchor="middle" x="692" y="-117" font-family="Helvetica,sans-Serif" font-size="10.00">vpropertyformwidget_p.h</text>
</a>
</g>
</g>
<!-- Node1&#45;&gt;Node2 -->
<g id="edge1_Node000001_Node000002" class="edge">
<title>Node1&#45;&gt;Node2</title>
<g id="a_edge1_Node000001_Node000002"><a xlink:title=" ">
<path fill="none" stroke="#63b8ff" d="M729.14,-164.84C722.1,-156.43 713.14,-145.74 705.79,-136.96"/>
<polygon fill="#63b8ff" stroke="#63b8ff" points="708.45,-134.68 699.34,-129.27 703.08,-139.18 708.45,-134.68"/>
</a>
</g>
</g>
<!-- Node18 -->
<g id="Node000018" class="node">
<title>Node18</title>
<g id="a_Node000018"><a xlink:href="../../d6/dcd/diagnostic_8h.html" target="_top" xlink:title=" ">
<polygon fill="white" stroke="#666666" points="855.5,-74 738.5,-74 738.5,-55 855.5,-55 855.5,-74"/>
<text text-anchor="middle" x="797" y="-62" font-family="Helvetica,sans-Serif" font-size="10.00">../vmisc/diagnostic.h</text>
</a>
</g>
</g>
<!-- Node1&#45;&gt;Node18 -->
<g id="edge19_Node000001_Node000018" class="edge">
<title>Node1&#45;&gt;Node18</title>
<g id="a_edge19_Node000001_Node000018"><a xlink:title=" ">
<path fill="none" stroke="#63b8ff" d="M750.26,-164.88C756.51,-155.04 764.74,-141.49 771,-129 778.42,-114.19 785.45,-96.73 790.33,-83.87"/>
<polygon fill="#63b8ff" stroke="#63b8ff" points="793.68,-84.91 793.88,-74.31 787.11,-82.47 793.68,-84.91"/>
</a>
</g>
</g>
<!-- Node3 -->
<g id="Node000003" class="node">
<title>Node3</title>
<g id="a_Node000003"><a xlink:title=" ">
<polygon fill="#e0e0e0" stroke="#999999" points="631.5,-74 590.5,-74 590.5,-55 631.5,-55 631.5,-74"/>
<text text-anchor="middle" x="611" y="-62" font-family="Helvetica,sans-Serif" font-size="10.00">QList</text>
</a>
</g>
</g>
<!-- Node2&#45;&gt;Node3 -->
<g id="edge2_Node000002_Node000003" class="edge">
<title>Node2&#45;&gt;Node3</title>
<g id="a_edge2_Node000002_Node000003"><a xlink:title=" ">
<path fill="none" stroke="#63b8ff" d="M678.99,-109.98C666.54,-101.84 647.54,-89.41 632.79,-79.76"/>
<polygon fill="#63b8ff" stroke="#63b8ff" points="634.54,-76.72 624.25,-74.17 630.7,-82.57 634.54,-76.72"/>
</a>
</g>
</g>
<!-- Node4 -->
<g id="Node000004" class="node">
<title>Node4</title>
<g id="a_Node000004"><a xlink:href="../../d2/d6e/vproperty_8h.html" target="_top" xlink:title=" ">
<polygon fill="white" stroke="#666666" points="720.5,-74 649.5,-74 649.5,-55 720.5,-55 720.5,-74"/>
<text text-anchor="middle" x="685" y="-62" font-family="Helvetica,sans-Serif" font-size="10.00">vproperty.h</text>
</a>
</g>
</g>
<!-- Node2&#45;&gt;Node4 -->
<g id="edge3_Node000002_Node000004" class="edge">
<title>Node2&#45;&gt;Node4</title>
<g id="a_edge3_Node000002_Node000004"><a xlink:title=" ">
<path fill="none" stroke="#63b8ff" d="M690.84,-109.75C689.93,-102.8 688.61,-92.85 687.46,-84.13"/>
<polygon fill="#63b8ff" stroke="#63b8ff" points="690.91,-83.54 686.13,-74.09 683.97,-84.46 690.91,-83.54"/>
</a>
</g>
</g>
<!-- Node2&#45;&gt;Node18 -->
<g id="edge17_Node000002_Node000018" class="edge">
<title>Node2&#45;&gt;Node18</title>
<g id="a_edge17_Node000002_Node000018"><a xlink:title=" ">
<path fill="none" stroke="#63b8ff" d="M708.87,-109.98C725.61,-101.54 751.5,-88.47 770.89,-78.68"/>
<polygon fill="#63b8ff" stroke="#63b8ff" points="772.47,-81.8 779.82,-74.17 769.32,-75.55 772.47,-81.8"/>
</a>
</g>
</g>
<!-- Node5 -->
<g id="Node000005" class="node">
<title>Node5</title>
<g id="a_Node000005"><a xlink:title=" ">
<polygon fill="#e0e0e0" stroke="#999999" points="120,-19 0,-19 0,0 120,0 120,-19"/>
<text text-anchor="middle" x="60" y="-7" font-family="Helvetica,sans-Serif" font-size="10.00">qcompilerdetection.h</text>
</a>
</g>
</g>
<!-- Node4&#45;&gt;Node5 -->
<g id="edge4_Node000004_Node000005" class="edge">
<title>Node4&#45;&gt;Node5</title>
<g id="a_edge4_Node000004_Node000005"><a xlink:title=" ">
<path fill="none" stroke="#63b8ff" d="M649.2,-56.35C646.09,-55.85 643,-55.39 640,-55 417.51,-26.25 357.37,-40.49 130.42,-19.08"/>
<polygon fill="#63b8ff" stroke="#63b8ff" points="130.48,-15.57 120.19,-18.1 129.81,-22.54 130.48,-15.57"/>
</a>
</g>
</g>
<!-- Node6 -->
<g id="Node000006" class="node">
<title>Node6</title>
<g id="a_Node000006"><a xlink:title=" ">
<polygon fill="#e0e0e0" stroke="#999999" points="269.5,-19 138.5,-19 138.5,0 269.5,0 269.5,-19"/>
<text text-anchor="middle" x="204" y="-7" font-family="Helvetica,sans-Serif" font-size="10.00">QAbstractItemDelegate</text>
</a>
</g>
</g>
<!-- Node4&#45;&gt;Node6 -->
<g id="edge5_Node000004_Node000006" class="edge">
<title>Node4&#45;&gt;Node6</title>
<g id="a_edge5_Node000004_Node000006"><a xlink:title=" ">
<path fill="none" stroke="#63b8ff" d="M649.19,-56.44C646.08,-55.92 642.99,-55.43 640,-55 483.68,-32.49 441.07,-35.92 280.11,-19.1"/>
<polygon fill="#63b8ff" stroke="#63b8ff" points="280.16,-15.58 269.84,-18.01 279.42,-22.54 280.16,-15.58"/>
</a>
</g>
</g>
<!-- Node7 -->
<g id="Node000007" class="node">
<title>Node7</title>
<g id="a_Node000007"><a xlink:title=" ">
<polygon fill="#e0e0e0" stroke="#999999" points="340,-19 288,-19 288,0 340,0 340,-19"/>
<text text-anchor="middle" x="314" y="-7" font-family="Helvetica,sans-Serif" font-size="10.00">QEvent</text>
</a>
</g>
</g>
<!-- Node4&#45;&gt;Node7 -->
<g id="edge6_Node000004_Node000007" class="edge">
<title>Node4&#45;&gt;Node7</title>
<g id="a_edge6_Node000004_Node000007"><a xlink:title=" ">
<path fill="none" stroke="#63b8ff" d="M649.17,-56.52C646.08,-55.98 642.99,-55.47 640,-55 514.38,-35.39 478.92,-42.07 350.15,-19.02"/>
<polygon fill="#63b8ff" stroke="#63b8ff" points="350.77,-15.57 340.3,-17.23 349.52,-22.46 350.77,-15.57"/>
</a>
</g>
</g>
<!-- Node8 -->
<g id="Node000008" class="node">
<title>Node8</title>
<g id="a_Node000008"><a xlink:title=" ">
<polygon fill="#e0e0e0" stroke="#999999" points="403.5,-19 358.5,-19 358.5,0 403.5,0 403.5,-19"/>
<text text-anchor="middle" x="381" y="-7" font-family="Helvetica,sans-Serif" font-size="10.00">QMap</text>
</a>
</g>
</g>
<!-- Node4&#45;&gt;Node8 -->
<g id="edge7_Node000004_Node000008" class="edge">
<title>Node4&#45;&gt;Node8</title>
<g id="a_edge7_Node000004_Node000008"><a xlink:title=" ">
<path fill="none" stroke="#63b8ff" d="M649.16,-56.63C646.06,-56.07 642.98,-55.52 640,-55 542.5,-38.06 514.66,-40 413.66,-18.94"/>
<polygon fill="#63b8ff" stroke="#63b8ff" points="414.16,-15.46 403.66,-16.83 412.72,-22.31 414.16,-15.46"/>
</a>
</g>
</g>
<!-- Node9 -->
<g id="Node000009" class="node">
<title>Node9</title>
<g id="a_Node000009"><a xlink:title=" ">
<polygon fill="#e0e0e0" stroke="#999999" points="502,-19 422,-19 422,0 502,0 502,-19"/>
<text text-anchor="middle" x="462" y="-7" font-family="Helvetica,sans-Serif" font-size="10.00">QMetaObject</text>
</a>
</g>
</g>
<!-- Node4&#45;&gt;Node9 -->
<g id="edge8_Node000004_Node000009" class="edge">
<title>Node4&#45;&gt;Node9</title>
<g id="a_edge8_Node000004_Node000009"><a xlink:title=" ">
<path fill="none" stroke="#63b8ff" d="M649.17,-54.98C610.84,-45.87 549.92,-31.4 508.05,-21.45"/>
<polygon fill="#63b8ff" stroke="#63b8ff" points="508.65,-17.99 498.11,-19.08 507.03,-24.8 508.65,-17.99"/>
</a>
</g>
</g>
<!-- Node10 -->
<g id="Node000010" class="node">
<title>Node10</title>
<g id="a_Node000010"><a xlink:title=" ">
<polygon fill="#e0e0e0" stroke="#999999" points="576,-19 520,-19 520,0 576,0 576,-19"/>
<text text-anchor="middle" x="548" y="-7" font-family="Helvetica,sans-Serif" font-size="10.00">QObject</text>
</a>
</g>
</g>
<!-- Node4&#45;&gt;Node10 -->
<g id="edge9_Node000004_Node000010" class="edge">
<title>Node4&#45;&gt;Node10</title>
<g id="a_edge9_Node000004_Node000010"><a xlink:title=" ">
<path fill="none" stroke="#63b8ff" d="M662.99,-54.98C640.55,-46.3 605.52,-32.75 580.01,-22.88"/>
<polygon fill="#63b8ff" stroke="#63b8ff" points="581,-19.51 570.41,-19.17 578.48,-26.04 581,-19.51"/>
</a>
</g>
</g>
<!-- Node11 -->
<g id="Node000011" class="node">
<title>Node11</title>
<g id="a_Node000011"><a xlink:title=" ">
<polygon fill="#e0e0e0" stroke="#999999" points="686,-19 594,-19 594,0 686,0 686,-19"/>
<text text-anchor="middle" x="640" y="-7" font-family="Helvetica,sans-Serif" font-size="10.00">QSharedPointer</text>
</a>
</g>
</g>
<!-- Node4&#45;&gt;Node11 -->
<g id="edge10_Node000004_Node000011" class="edge">
<title>Node4&#45;&gt;Node11</title>
<g id="a_edge10_Node000004_Node000011"><a xlink:title=" ">
<path fill="none" stroke="#63b8ff" d="M677.57,-54.75C671.15,-47.18 661.69,-36.05 653.88,-26.84"/>
<polygon fill="#63b8ff" stroke="#63b8ff" points="656.43,-24.45 647.29,-19.09 651.1,-28.98 656.43,-24.45"/>
</a>
</g>
</g>
<!-- Node12 -->
<g id="Node000012" class="node">
<title>Node12</title>
<g id="a_Node000012"><a xlink:title=" ">
<polygon fill="#e0e0e0" stroke="#999999" points="757.5,-19 704.5,-19 704.5,0 757.5,0 757.5,-19"/>
<text text-anchor="middle" x="731" y="-7" font-family="Helvetica,sans-Serif" font-size="10.00">QString</text>
</a>
</g>
</g>
<!-- Node4&#45;&gt;Node12 -->
<g id="edge11_Node000004_Node000012" class="edge">
<title>Node4&#45;&gt;Node12</title>
<g id="a_edge11_Node000004_Node000012"><a xlink:title=" ">
<path fill="none" stroke="#63b8ff" d="M692.6,-54.75C699.16,-47.18 708.82,-36.05 716.81,-26.84"/>
<polygon fill="#63b8ff" stroke="#63b8ff" points="719.63,-28.94 723.55,-19.09 714.35,-24.35 719.63,-28.94"/>
</a>
</g>
</g>
<!-- Node13 -->
<g id="Node000013" class="node">
<title>Node13</title>
<g id="a_Node000013"><a xlink:title=" ">
<polygon fill="#e0e0e0" stroke="#999999" points="846,-19 776,-19 776,0 846,0 846,-19"/>
<text text-anchor="middle" x="811" y="-7" font-family="Helvetica,sans-Serif" font-size="10.00">QStringList</text>
</a>
</g>
</g>
<!-- Node4&#45;&gt;Node13 -->
<g id="edge12_Node000004_Node000013" class="edge">
<title>Node4&#45;&gt;Node13</title>
<g id="a_edge12_Node000004_Node000013"><a xlink:title=" ">
<path fill="none" stroke="#63b8ff" d="M705.24,-54.98C725.7,-46.38 757.53,-32.99 780.93,-23.15"/>
<polygon fill="#63b8ff" stroke="#63b8ff" points="782.53,-26.27 790.39,-19.17 779.81,-19.82 782.53,-26.27"/>
</a>
</g>
</g>
<!-- Node14 -->
<g id="Node000014" class="node">
<title>Node14</title>
<g id="a_Node000014"><a xlink:title=" ">
<polygon fill="#e0e0e0" stroke="#999999" points="992,-19 864,-19 864,0 992,0 992,-19"/>
<text text-anchor="middle" x="928" y="-7" font-family="Helvetica,sans-Serif" font-size="10.00">QStyleOptionViewItem</text>
</a>
</g>
</g>
<!-- Node4&#45;&gt;Node14 -->
<g id="edge13_Node000004_Node000014" class="edge">
<title>Node4&#45;&gt;Node14</title>
<g id="a_edge13_Node000004_Node000014"><a xlink:title=" ">
<path fill="none" stroke="#63b8ff" d="M720.59,-55.74C762.35,-46.63 831.83,-31.48 878.74,-21.24"/>
<polygon fill="#63b8ff" stroke="#63b8ff" points="879.66,-24.63 888.68,-19.08 878.17,-17.79 879.66,-24.63"/>
</a>
</g>
</g>
<!-- Node15 -->
<g id="Node000015" class="node">
<title>Node15</title>
<g id="a_Node000015"><a xlink:title=" ">
<polygon fill="#e0e0e0" stroke="#999999" points="1069.5,-19 1010.5,-19 1010.5,0 1069.5,0 1069.5,-19"/>
<text text-anchor="middle" x="1040" y="-7" font-family="Helvetica,sans-Serif" font-size="10.00">QVariant</text>
</a>
</g>
</g>
<!-- Node4&#45;&gt;Node15 -->
<g id="edge14_Node000004_Node000015" class="edge">
<title>Node4&#45;&gt;Node15</title>
<g id="a_edge14_Node000004_Node000015"><a xlink:title=" ">
<path fill="none" stroke="#63b8ff" d="M720.51,-56.45C723.38,-55.94 726.24,-55.45 729,-55 846.19,-35.94 879.16,-39.78 1000.21,-19"/>
<polygon fill="#63b8ff" stroke="#63b8ff" points="1000.99,-22.41 1010.24,-17.25 999.79,-15.52 1000.99,-22.41"/>
</a>
</g>
</g>
<!-- Node16 -->
<g id="Node000016" class="node">
<title>Node16</title>
<g id="a_Node000016"><a xlink:title=" ">
<polygon fill="#e0e0e0" stroke="#999999" points="1116.5,-19 1087.5,-19 1087.5,0 1116.5,0 1116.5,-19"/>
<text text-anchor="middle" x="1102" y="-7" font-family="Helvetica,sans-Serif" font-size="10.00">Qt</text>
</a>
</g>
</g>
<!-- Node4&#45;&gt;Node16 -->
<g id="edge15_Node000004_Node000016" class="edge">
<title>Node4&#45;&gt;Node16</title>
<g id="a_edge15_Node000004_Node000016"><a xlink:title=" ">
<path fill="none" stroke="#63b8ff" d="M720.97,-56.28C723.69,-55.82 726.38,-55.39 729,-55 880.37,-32.64 924.78,-53.45 1076.89,-18.98"/>
<polygon fill="#63b8ff" stroke="#63b8ff" points="1078.12,-22.29 1087.07,-16.63 1076.54,-15.47 1078.12,-22.29"/>
</a>
</g>
</g>
<!-- Node17 -->
<g id="Node000017" class="node">
<title>Node17</title>
<g id="a_Node000017"><a xlink:title=" ">
<polygon fill="#e0e0e0" stroke="#999999" points="1193.5,-19 1134.5,-19 1134.5,0 1193.5,0 1193.5,-19"/>
<text text-anchor="middle" x="1164" y="-7" font-family="Helvetica,sans-Serif" font-size="10.00">QtGlobal</text>
</a>
</g>
</g>
<!-- Node4&#45;&gt;Node17 -->
<g id="edge16_Node000004_Node000017" class="edge">
<title>Node4&#45;&gt;Node17</title>
<g id="a_edge16_Node000004_Node000017"><a xlink:title=" ">
<path fill="none" stroke="#63b8ff" d="M720.97,-56.25C723.68,-55.79 726.38,-55.37 729,-55 901.16,-30.63 949.19,-45.81 1124.14,-19.11"/>
<polygon fill="#63b8ff" stroke="#63b8ff" points="1124.85,-22.54 1134.2,-17.55 1123.78,-15.62 1124.85,-22.54"/>
</a>
</g>
</g>
<!-- Node18&#45;&gt;Node17 -->
<g id="edge18_Node000018_Node000017" class="edge">
<title>Node18&#45;&gt;Node17</title>
<g id="a_edge18_Node000018_Node000017"><a xlink:title=" ">
<path fill="none" stroke="#63b8ff" d="M855.78,-57.09C919.65,-49.78 1024.91,-36.72 1124.27,-19.19"/>
<polygon fill="#63b8ff" stroke="#63b8ff" points="1124.95,-22.63 1134.18,-17.42 1123.72,-15.73 1124.95,-22.63"/>
</a>
</g>
</g>
</g>
</svg>
