<?xml version="1.0" encoding="UTF-8" standalone="no"?>
<!DOCTYPE svg PUBLIC "-//W3C//DTD SVG 1.1//EN"
 "http://www.w3.org/Graphics/SVG/1.1/DTD/svg11.dtd">
<!-- Generated by graphviz version 2.43.0 (0)
 -->
<!-- Title: src/libs/vtools/dialogs/tools/dialoggroup.cpp Pages: 1 -->
<svg width="3101pt" height="214pt"
 viewBox="0.00 0.00 3100.50 214.00" xmlns="http://www.w3.org/2000/svg" xmlns:xlink="http://www.w3.org/1999/xlink">
<g id="graph0" class="graph" transform="scale(1 1) rotate(0) translate(4 210)">
<title>src/libs/vtools/dialogs/tools/dialoggroup.cpp</title>
<!-- Node1 -->
<g id="Node000001" class="node">
<title>Node1</title>
<g id="a_Node000001"><a xlink:title=" ">
<polygon fill="#999999" stroke="#666666" points="3029,-206 2904,-206 2904,-176 3029,-176 3029,-206"/>
<text text-anchor="start" x="2912" y="-194" font-family="Helvetica,sans-Serif" font-size="10.00">src/libs/vtools/dialogs</text>
<text text-anchor="middle" x="2966.5" y="-183" font-family="Helvetica,sans-Serif" font-size="10.00">/tools/dialoggroup.cpp</text>
</a>
</g>
</g>
<!-- Node2 -->
<g id="Node000002" class="node">
<title>Node2</title>
<g id="a_Node000002"><a xlink:href="../../d9/d54/dialoggroup_8h.html" target="_top" xlink:title=" ">
<polygon fill="white" stroke="#666666" points="2148,-140 2065,-140 2065,-121 2148,-121 2148,-140"/>
<text text-anchor="middle" x="2106.5" y="-128" font-family="Helvetica,sans-Serif" font-size="10.00">dialoggroup.h</text>
</a>
</g>
</g>
<!-- Node1&#45;&gt;Node2 -->
<g id="edge1_Node000001_Node000002" class="edge">
<title>Node1&#45;&gt;Node2</title>
<g id="a_edge1_Node000001_Node000002"><a xlink:title=" ">
<path fill="none" stroke="#63b8ff" d="M2903.96,-185.75C2741.46,-174.69 2308.15,-145.22 2158.33,-135.03"/>
<polygon fill="#63b8ff" stroke="#63b8ff" points="2158.25,-131.51 2148.04,-134.33 2157.78,-138.5 2158.25,-131.51"/>
</a>
</g>
</g>
<!-- Node15 -->
<g id="Node000015" class="node">
<title>Node15</title>
<g id="a_Node000015"><a xlink:title=" ">
<polygon fill="#e0e0e0" stroke="#999999" points="3062,-24.5 2999,-24.5 2999,-5.5 3062,-5.5 3062,-24.5"/>
<text text-anchor="middle" x="3030.5" y="-12.5" font-family="Helvetica,sans-Serif" font-size="10.00">QLineEdit</text>
</a>
</g>
</g>
<!-- Node1&#45;&gt;Node15 -->
<g id="edge38_Node000001_Node000015" class="edge">
<title>Node1&#45;&gt;Node15</title>
<g id="a_edge38_Node000001_Node000015"><a xlink:title=" ">
<path fill="none" stroke="#63b8ff" d="M2969.8,-175.82C2973.22,-161.75 2978.97,-139.65 2985.5,-121 2996.49,-89.61 3012.39,-54.3 3022.05,-33.66"/>
<polygon fill="#63b8ff" stroke="#63b8ff" points="3025.25,-35.09 3026.36,-24.55 3018.92,-32.1 3025.25,-35.09"/>
</a>
</g>
</g>
<!-- Node33 -->
<g id="Node000033" class="node">
<title>Node33</title>
<g id="a_Node000033"><a xlink:title=" ">
<polygon fill="#e0e0e0" stroke="#999999" points="3092.5,-140 2994.5,-140 2994.5,-121 3092.5,-121 3092.5,-140"/>
<text text-anchor="middle" x="3043.5" y="-128" font-family="Helvetica,sans-Serif" font-size="10.00">ui_dialoggroup.h</text>
</a>
</g>
</g>
<!-- Node1&#45;&gt;Node33 -->
<g id="edge39_Node000001_Node000033" class="edge">
<title>Node1&#45;&gt;Node33</title>
<g id="a_edge39_Node000001_Node000033"><a xlink:title=" ">
<path fill="none" stroke="#63b8ff" d="M2985.14,-175.84C2996.89,-166.91 3012.03,-155.41 3023.95,-146.35"/>
<polygon fill="#63b8ff" stroke="#63b8ff" points="3026.12,-149.1 3031.96,-140.27 3021.88,-143.53 3026.12,-149.1"/>
</a>
</g>
</g>
<!-- Node3 -->
<g id="Node000003" class="node">
<title>Node3</title>
<g id="a_Node000003"><a xlink:title=" ">
<polygon fill="#e0e0e0" stroke="#999999" points="268.5,-24.5 148.5,-24.5 148.5,-5.5 268.5,-5.5 268.5,-24.5"/>
<text text-anchor="middle" x="208.5" y="-12.5" font-family="Helvetica,sans-Serif" font-size="10.00">qcompilerdetection.h</text>
</a>
</g>
</g>
<!-- Node2&#45;&gt;Node3 -->
<g id="edge2_Node000002_Node000003" class="edge">
<title>Node2&#45;&gt;Node3</title>
<g id="a_edge2_Node000002_Node000003"><a xlink:title=" ">
<path fill="none" stroke="#63b8ff" d="M2064.99,-127.41C1801.41,-114.15 369.12,-41.72 277.5,-30 270.33,-29.08 262.79,-27.84 255.44,-26.48"/>
<polygon fill="#63b8ff" stroke="#63b8ff" points="256.06,-23.03 245.58,-24.56 254.72,-29.9 256.06,-23.03"/>
</a>
</g>
</g>
<!-- Node4 -->
<g id="Node000004" class="node">
<title>Node4</title>
<g id="a_Node000004"><a xlink:title=" ">
<polygon fill="#e0e0e0" stroke="#999999" points="2808,-24.5 2763,-24.5 2763,-5.5 2808,-5.5 2808,-24.5"/>
<text text-anchor="middle" x="2785.5" y="-12.5" font-family="Helvetica,sans-Serif" font-size="10.00">QMap</text>
</a>
</g>
</g>
<!-- Node2&#45;&gt;Node4 -->
<g id="edge3_Node000002_Node000004" class="edge">
<title>Node2&#45;&gt;Node4</title>
<g id="a_edge3_Node000002_Node000004"><a xlink:title=" ">
<path fill="none" stroke="#63b8ff" d="M2148.23,-123.39C2286.74,-103.06 2724.13,-38.52 2753.5,-30 2755.18,-29.51 2756.89,-28.96 2758.6,-28.35"/>
<polygon fill="#63b8ff" stroke="#63b8ff" points="2760.2,-31.49 2768.2,-24.54 2757.61,-24.98 2760.2,-31.49"/>
</a>
</g>
</g>
<!-- Node5 -->
<g id="Node000005" class="node">
<title>Node5</title>
<g id="a_Node000005"><a xlink:title=" ">
<polygon fill="#e0e0e0" stroke="#999999" points="2906.5,-24.5 2826.5,-24.5 2826.5,-5.5 2906.5,-5.5 2906.5,-24.5"/>
<text text-anchor="middle" x="2866.5" y="-12.5" font-family="Helvetica,sans-Serif" font-size="10.00">QMetaObject</text>
</a>
</g>
</g>
<!-- Node2&#45;&gt;Node5 -->
<g id="edge4_Node000002_Node000005" class="edge">
<title>Node2&#45;&gt;Node5</title>
<g id="a_edge4_Node000002_Node000005"><a xlink:title=" ">
<path fill="none" stroke="#63b8ff" d="M2148.13,-126.02C2258.25,-116.29 2565.93,-85.85 2816.5,-30 2820.35,-29.14 2824.34,-28.17 2828.32,-27.14"/>
<polygon fill="#63b8ff" stroke="#63b8ff" points="2829.32,-30.5 2838.08,-24.53 2827.51,-23.74 2829.32,-30.5"/>
</a>
</g>
</g>
<!-- Node6 -->
<g id="Node000006" class="node">
<title>Node6</title>
<g id="a_Node000006"><a xlink:title=" ">
<polygon fill="#e0e0e0" stroke="#999999" points="2980.5,-24.5 2924.5,-24.5 2924.5,-5.5 2980.5,-5.5 2980.5,-24.5"/>
<text text-anchor="middle" x="2952.5" y="-12.5" font-family="Helvetica,sans-Serif" font-size="10.00">QObject</text>
</a>
</g>
</g>
<!-- Node2&#45;&gt;Node6 -->
<g id="edge5_Node000002_Node000006" class="edge">
<title>Node2&#45;&gt;Node6</title>
<g id="a_edge5_Node000002_Node000006"><a xlink:title=" ">
<path fill="none" stroke="#63b8ff" d="M2148.1,-128.46C2268.82,-124.57 2628.81,-106.88 2915.5,-30 2917.79,-29.38 2920.15,-28.68 2922.49,-27.92"/>
<polygon fill="#63b8ff" stroke="#63b8ff" points="2923.72,-31.2 2932,-24.59 2921.4,-24.6 2923.72,-31.2"/>
</a>
</g>
</g>
<!-- Node7 -->
<g id="Node000007" class="node">
<title>Node7</title>
<g id="a_Node000007"><a xlink:title=" ">
<polygon fill="#e0e0e0" stroke="#999999" points="53,-24.5 0,-24.5 0,-5.5 53,-5.5 53,-24.5"/>
<text text-anchor="middle" x="26.5" y="-12.5" font-family="Helvetica,sans-Serif" font-size="10.00">QString</text>
</a>
</g>
</g>
<!-- Node2&#45;&gt;Node7 -->
<g id="edge6_Node000002_Node000007" class="edge">
<title>Node2&#45;&gt;Node7</title>
<g id="a_edge6_Node000002_Node000007"><a xlink:title=" ">
<path fill="none" stroke="#63b8ff" d="M2064.92,-129.34C1833.68,-128.29 703.95,-121.36 357.5,-85 224.42,-71.03 190.02,-67.25 61.5,-30 59.57,-29.44 57.59,-28.81 55.62,-28.14"/>
<polygon fill="#63b8ff" stroke="#63b8ff" points="56.48,-24.73 45.88,-24.54 54.05,-31.29 56.48,-24.73"/>
</a>
</g>
</g>
<!-- Node8 -->
<g id="Node000008" class="node">
<title>Node8</title>
<g id="a_Node000008"><a xlink:title=" ">
<polygon fill="#e0e0e0" stroke="#999999" points="130,-24.5 71,-24.5 71,-5.5 130,-5.5 130,-24.5"/>
<text text-anchor="middle" x="100.5" y="-12.5" font-family="Helvetica,sans-Serif" font-size="10.00">QtGlobal</text>
</a>
</g>
</g>
<!-- Node2&#45;&gt;Node8 -->
<g id="edge7_Node000002_Node000008" class="edge">
<title>Node2&#45;&gt;Node8</title>
<g id="a_edge7_Node000002_Node000008"><a xlink:title=" ">
<path fill="none" stroke="#63b8ff" d="M2064.87,-128.47C1911.27,-124.55 1361.92,-109.56 909.5,-85 566.91,-66.4 475.2,-100.84 139.5,-30 136.66,-29.4 133.75,-28.64 130.86,-27.79"/>
<polygon fill="#63b8ff" stroke="#63b8ff" points="131.84,-24.43 121.24,-24.63 129.65,-31.08 131.84,-24.43"/>
</a>
</g>
</g>
<!-- Node9 -->
<g id="Node000009" class="node">
<title>Node9</title>
<g id="a_Node000009"><a xlink:href="../../d1/d30/dialogtool_8h.html" target="_top" xlink:title=" ">
<polygon fill="white" stroke="#666666" points="1400.5,-85 1326.5,-85 1326.5,-66 1400.5,-66 1400.5,-85"/>
<text text-anchor="middle" x="1363.5" y="-73" font-family="Helvetica,sans-Serif" font-size="10.00">dialogtool.h</text>
</a>
</g>
</g>
<!-- Node2&#45;&gt;Node9 -->
<g id="edge8_Node000002_Node000009" class="edge">
<title>Node2&#45;&gt;Node9</title>
<g id="a_edge8_Node000002_Node000009"><a xlink:title=" ">
<path fill="none" stroke="#63b8ff" d="M2064.96,-126.54C1936.59,-117.38 1546.71,-89.57 1410.82,-79.88"/>
<polygon fill="#63b8ff" stroke="#63b8ff" points="1410.95,-76.38 1400.72,-79.16 1410.45,-83.36 1410.95,-76.38"/>
</a>
</g>
</g>
<!-- Node9&#45;&gt;Node3 -->
<g id="edge9_Node000009_Node000003" class="edge">
<title>Node9&#45;&gt;Node3</title>
<g id="a_edge9_Node000009_Node000003"><a xlink:title=" ">
<path fill="none" stroke="#63b8ff" d="M1326.14,-72.81C1287.27,-71.07 1224.62,-68.28 1170.5,-66 773.64,-49.26 671.84,-77.64 277.5,-30 270.16,-29.11 262.43,-27.86 254.92,-26.47"/>
<polygon fill="#63b8ff" stroke="#63b8ff" points="255.33,-22.99 244.85,-24.51 253.99,-29.86 255.33,-22.99"/>
</a>
</g>
</g>
<!-- Node9&#45;&gt;Node4 -->
<g id="edge19_Node000009_Node000004" class="edge">
<title>Node9&#45;&gt;Node4</title>
<g id="a_edge19_Node000009_Node000004"><a xlink:title=" ">
<path fill="none" stroke="#63b8ff" d="M1400.76,-74.15C1608.4,-72.08 2618.38,-60.53 2753.5,-30 2755.58,-29.53 2757.69,-28.93 2759.79,-28.23"/>
<polygon fill="#63b8ff" stroke="#63b8ff" points="2761.26,-31.41 2769.3,-24.51 2758.71,-24.89 2761.26,-31.41"/>
</a>
</g>
</g>
<!-- Node9&#45;&gt;Node5 -->
<g id="edge20_Node000009_Node000005" class="edge">
<title>Node9&#45;&gt;Node5</title>
<g id="a_edge20_Node000009_Node000005"><a xlink:title=" ">
<path fill="none" stroke="#63b8ff" d="M1400.66,-74.58C1598.69,-74.82 2531.63,-73.58 2816.5,-30 2821.08,-29.3 2825.85,-28.31 2830.53,-27.19"/>
<polygon fill="#63b8ff" stroke="#63b8ff" points="2831.77,-30.48 2840.55,-24.55 2829.99,-23.71 2831.77,-30.48"/>
</a>
</g>
</g>
<!-- Node9&#45;&gt;Node6 -->
<g id="edge21_Node000009_Node000006" class="edge">
<title>Node9&#45;&gt;Node6</title>
<g id="a_edge21_Node000009_Node000006"><a xlink:title=" ">
<path fill="none" stroke="#63b8ff" d="M1400.64,-74.17C1622,-72.13 2762.79,-60.19 2915.5,-30 2918.34,-29.44 2921.25,-28.68 2924.13,-27.81"/>
<polygon fill="#63b8ff" stroke="#63b8ff" points="2925.35,-31.09 2933.65,-24.51 2923.06,-24.48 2925.35,-31.09"/>
</a>
</g>
</g>
<!-- Node9&#45;&gt;Node7 -->
<g id="edge26_Node000009_Node000007" class="edge">
<title>Node9&#45;&gt;Node7</title>
<g id="a_edge26_Node000009_Node000007"><a xlink:title=" ">
<path fill="none" stroke="#63b8ff" d="M1326.36,-74C1126.99,-71.18 188,-56.61 61.5,-30 59.12,-29.5 56.7,-28.85 54.29,-28.11"/>
<polygon fill="#63b8ff" stroke="#63b8ff" points="55.25,-24.73 44.65,-24.64 52.88,-31.32 55.25,-24.73"/>
</a>
</g>
</g>
<!-- Node9&#45;&gt;Node8 -->
<g id="edge28_Node000009_Node000008" class="edge">
<title>Node9&#45;&gt;Node8</title>
<g id="a_edge28_Node000009_Node000008"><a xlink:title=" ">
<path fill="none" stroke="#63b8ff" d="M1326.42,-73.83C1134.5,-70.28 258.38,-52.92 139.5,-30 136.49,-29.42 133.4,-28.64 130.34,-27.75"/>
<polygon fill="#63b8ff" stroke="#63b8ff" points="131.4,-24.42 120.81,-24.63 129.22,-31.07 131.4,-24.42"/>
</a>
</g>
</g>
<!-- Node10 -->
<g id="Node000010" class="node">
<title>Node10</title>
<g id="a_Node000010"><a xlink:title=" ">
<polygon fill="#e0e0e0" stroke="#999999" points="2676,-24.5 2603,-24.5 2603,-5.5 2676,-5.5 2676,-24.5"/>
<text text-anchor="middle" x="2639.5" y="-12.5" font-family="Helvetica,sans-Serif" font-size="10.00">QCheckBox</text>
</a>
</g>
</g>
<!-- Node9&#45;&gt;Node10 -->
<g id="edge10_Node000009_Node000010" class="edge">
<title>Node9&#45;&gt;Node10</title>
<g id="a_edge10_Node000009_Node000010"><a xlink:title=" ">
<path fill="none" stroke="#63b8ff" d="M1400.7,-74.45C1579.93,-74.02 2355.48,-69.83 2593.5,-30 2597.46,-29.34 2601.56,-28.43 2605.6,-27.39"/>
<polygon fill="#63b8ff" stroke="#63b8ff" points="2606.76,-30.7 2615.43,-24.61 2604.86,-23.96 2606.76,-30.7"/>
</a>
</g>
</g>
<!-- Node11 -->
<g id="Node000011" class="node">
<title>Node11</title>
<g id="a_Node000011"><a xlink:title=" ">
<polygon fill="#e0e0e0" stroke="#999999" points="2744.5,-24.5 2694.5,-24.5 2694.5,-5.5 2744.5,-5.5 2744.5,-24.5"/>
<text text-anchor="middle" x="2719.5" y="-12.5" font-family="Helvetica,sans-Serif" font-size="10.00">QColor</text>
</a>
</g>
</g>
<!-- Node9&#45;&gt;Node11 -->
<g id="edge11_Node000009_Node000011" class="edge">
<title>Node9&#45;&gt;Node11</title>
<g id="a_edge11_Node000009_Node000011"><a xlink:title=" ">
<path fill="none" stroke="#63b8ff" d="M1400.52,-74.02C1601.38,-71.29 2556.01,-57 2684.5,-30 2686.88,-29.5 2689.3,-28.85 2691.71,-28.11"/>
<polygon fill="#63b8ff" stroke="#63b8ff" points="2693.12,-31.32 2701.35,-24.64 2690.75,-24.73 2693.12,-31.32"/>
</a>
</g>
</g>
<!-- Node12 -->
<g id="Node000012" class="node">
<title>Node12</title>
<g id="a_Node000012"><a xlink:title=" ">
<polygon fill="#e0e0e0" stroke="#999999" points="364,-24.5 287,-24.5 287,-5.5 364,-5.5 364,-24.5"/>
<text text-anchor="middle" x="325.5" y="-12.5" font-family="Helvetica,sans-Serif" font-size="10.00">QComboBox</text>
</a>
</g>
</g>
<!-- Node9&#45;&gt;Node12 -->
<g id="edge12_Node000009_Node000012" class="edge">
<title>Node9&#45;&gt;Node12</title>
<g id="a_edge12_Node000009_Node000012"><a xlink:title=" ">
<path fill="none" stroke="#63b8ff" d="M1326.44,-72.86C1147.32,-64.95 379.5,-30.99 373.5,-30 369.26,-29.3 364.87,-28.34 360.54,-27.26"/>
<polygon fill="#63b8ff" stroke="#63b8ff" points="361.22,-23.82 350.65,-24.56 359.37,-30.57 361.22,-23.82"/>
</a>
</g>
</g>
<!-- Node13 -->
<g id="Node000013" class="node">
<title>Node13</title>
<g id="a_Node000013"><a xlink:title=" ">
<polygon fill="#e0e0e0" stroke="#999999" points="438.5,-24.5 382.5,-24.5 382.5,-5.5 438.5,-5.5 438.5,-24.5"/>
<text text-anchor="middle" x="410.5" y="-12.5" font-family="Helvetica,sans-Serif" font-size="10.00">QDialog</text>
</a>
</g>
</g>
<!-- Node9&#45;&gt;Node13 -->
<g id="edge13_Node000009_Node000013" class="edge">
<title>Node9&#45;&gt;Node13</title>
<g id="a_edge13_Node000009_Node000013"><a xlink:title=" ">
<path fill="none" stroke="#63b8ff" d="M1326.3,-72.85C1157.33,-65.34 469.37,-34.55 447.5,-30 444.82,-29.44 442.08,-28.72 439.35,-27.89"/>
<polygon fill="#63b8ff" stroke="#63b8ff" points="440.34,-24.53 429.74,-24.58 438.06,-31.15 440.34,-24.53"/>
</a>
</g>
</g>
<!-- Node14 -->
<g id="Node000014" class="node">
<title>Node14</title>
<g id="a_Node000014"><a xlink:title=" ">
<polygon fill="#e0e0e0" stroke="#999999" points="564,-24.5 457,-24.5 457,-5.5 564,-5.5 564,-24.5"/>
<text text-anchor="middle" x="510.5" y="-12.5" font-family="Helvetica,sans-Serif" font-size="10.00">QDialogButtonBox</text>
</a>
</g>
</g>
<!-- Node9&#45;&gt;Node14 -->
<g id="edge14_Node000009_Node000014" class="edge">
<title>Node9&#45;&gt;Node14</title>
<g id="a_edge14_Node000009_Node000014"><a xlink:title=" ">
<path fill="none" stroke="#63b8ff" d="M1326.42,-72.78C1180.16,-65.93 647.59,-40.52 572.5,-30 566.26,-29.13 559.72,-27.95 553.32,-26.64"/>
<polygon fill="#63b8ff" stroke="#63b8ff" points="553.97,-23.2 543.45,-24.51 552.49,-30.04 553.97,-23.2"/>
</a>
</g>
</g>
<!-- Node9&#45;&gt;Node15 -->
<g id="edge15_Node000009_Node000015" class="edge">
<title>Node9&#45;&gt;Node15</title>
<g id="a_edge15_Node000009_Node000015"><a xlink:title=" ">
<path fill="none" stroke="#63b8ff" d="M1400.54,-74.15C1627.75,-71.95 2828.56,-58.99 2989.5,-30 2992.94,-29.38 2996.47,-28.53 2999.96,-27.54"/>
<polygon fill="#63b8ff" stroke="#63b8ff" points="3001.06,-30.86 3009.54,-24.51 2998.95,-24.19 3001.06,-30.86"/>
</a>
</g>
</g>
<!-- Node16 -->
<g id="Node000016" class="node">
<title>Node16</title>
<g id="a_Node000016"><a xlink:title=" ">
<polygon fill="#e0e0e0" stroke="#999999" points="623,-24.5 582,-24.5 582,-5.5 623,-5.5 623,-24.5"/>
<text text-anchor="middle" x="602.5" y="-12.5" font-family="Helvetica,sans-Serif" font-size="10.00">QList</text>
</a>
</g>
</g>
<!-- Node9&#45;&gt;Node16 -->
<g id="edge16_Node000009_Node000016" class="edge">
<title>Node9&#45;&gt;Node16</title>
<g id="a_edge16_Node000009_Node000016"><a xlink:title=" ">
<path fill="none" stroke="#63b8ff" d="M1326.21,-72.62C1181.89,-65.29 666.39,-38.61 632.5,-30 630.81,-29.57 629.11,-29.05 627.41,-28.46"/>
<polygon fill="#63b8ff" stroke="#63b8ff" points="628.55,-25.14 617.97,-24.57 625.88,-31.62 628.55,-25.14"/>
</a>
</g>
</g>
<!-- Node17 -->
<g id="Node000017" class="node">
<title>Node17</title>
<g id="a_Node000017"><a xlink:title=" ">
<polygon fill="#e0e0e0" stroke="#999999" points="717.5,-24.5 641.5,-24.5 641.5,-5.5 717.5,-5.5 717.5,-24.5"/>
<text text-anchor="middle" x="679.5" y="-12.5" font-family="Helvetica,sans-Serif" font-size="10.00">QListWidget</text>
</a>
</g>
</g>
<!-- Node9&#45;&gt;Node17 -->
<g id="edge17_Node000009_Node000017" class="edge">
<title>Node9&#45;&gt;Node17</title>
<g id="a_edge17_Node000009_Node000017"><a xlink:title=" ">
<path fill="none" stroke="#63b8ff" d="M1326.29,-72.98C1208.21,-67.97 842.94,-51.14 726.5,-30 722.56,-29.28 718.48,-28.36 714.45,-27.33"/>
<polygon fill="#63b8ff" stroke="#63b8ff" points="715.19,-23.9 704.62,-24.59 713.32,-30.64 715.19,-23.9"/>
</a>
</g>
</g>
<!-- Node18 -->
<g id="Node000018" class="node">
<title>Node18</title>
<g id="a_Node000018"><a xlink:title=" ">
<polygon fill="#e0e0e0" stroke="#999999" points="791.5,-24.5 735.5,-24.5 735.5,-5.5 791.5,-5.5 791.5,-24.5"/>
<text text-anchor="middle" x="763.5" y="-12.5" font-family="Helvetica,sans-Serif" font-size="10.00">QLocale</text>
</a>
</g>
</g>
<!-- Node9&#45;&gt;Node18 -->
<g id="edge18_Node000009_Node000018" class="edge">
<title>Node9&#45;&gt;Node18</title>
<g id="a_edge18_Node000009_Node000018"><a xlink:title=" ">
<path fill="none" stroke="#63b8ff" d="M1326.4,-72.94C1217.7,-68.14 901.32,-52.58 800.5,-30 797.98,-29.44 795.4,-28.73 792.83,-27.95"/>
<polygon fill="#63b8ff" stroke="#63b8ff" points="793.75,-24.56 783.15,-24.61 791.47,-31.18 793.75,-24.56"/>
</a>
</g>
</g>
<!-- Node19 -->
<g id="Node000019" class="node">
<title>Node19</title>
<g id="a_Node000019"><a xlink:title=" ">
<polygon fill="#e0e0e0" stroke="#999999" points="869,-24.5 810,-24.5 810,-5.5 869,-5.5 869,-24.5"/>
<text text-anchor="middle" x="839.5" y="-12.5" font-family="Helvetica,sans-Serif" font-size="10.00">QPointer</text>
</a>
</g>
</g>
<!-- Node9&#45;&gt;Node19 -->
<g id="edge22_Node000009_Node000019" class="edge">
<title>Node9&#45;&gt;Node19</title>
<g id="a_edge22_Node000009_Node000019"><a xlink:title=" ">
<path fill="none" stroke="#63b8ff" d="M1326.39,-72.31C1228.31,-66.34 963.94,-48.93 878.5,-30 875.67,-29.37 872.76,-28.6 869.87,-27.73"/>
<polygon fill="#63b8ff" stroke="#63b8ff" points="870.86,-24.37 860.26,-24.55 868.66,-31.02 870.86,-24.37"/>
</a>
</g>
</g>
<!-- Node20 -->
<g id="Node000020" class="node">
<title>Node20</title>
<g id="a_Node000020"><a xlink:title=" ">
<polygon fill="#e0e0e0" stroke="#999999" points="967.5,-24.5 887.5,-24.5 887.5,-5.5 967.5,-5.5 967.5,-24.5"/>
<text text-anchor="middle" x="927.5" y="-12.5" font-family="Helvetica,sans-Serif" font-size="10.00">QPushButton</text>
</a>
</g>
</g>
<!-- Node9&#45;&gt;Node20 -->
<g id="edge23_Node000009_Node000020" class="edge">
<title>Node9&#45;&gt;Node20</title>
<g id="a_edge23_Node000009_Node000020"><a xlink:title=" ">
<path fill="none" stroke="#63b8ff" d="M1326.37,-72.26C1257.06,-67.64 1103.52,-55.27 976.5,-30 972.4,-29.18 968.14,-28.19 963.93,-27.12"/>
<polygon fill="#63b8ff" stroke="#63b8ff" points="964.83,-23.74 954.26,-24.5 963,-30.49 964.83,-23.74"/>
</a>
</g>
</g>
<!-- Node21 -->
<g id="Node000021" class="node">
<title>Node21</title>
<g id="a_Node000021"><a xlink:title=" ">
<polygon fill="#e0e0e0" stroke="#999999" points="1069.5,-24.5 985.5,-24.5 985.5,-5.5 1069.5,-5.5 1069.5,-24.5"/>
<text text-anchor="middle" x="1027.5" y="-12.5" font-family="Helvetica,sans-Serif" font-size="10.00">QRadioButton</text>
</a>
</g>
</g>
<!-- Node9&#45;&gt;Node21 -->
<g id="edge24_Node000009_Node000021" class="edge">
<title>Node9&#45;&gt;Node21</title>
<g id="a_edge24_Node000009_Node000021"><a xlink:title=" ">
<path fill="none" stroke="#63b8ff" d="M1326.36,-70.06C1271.73,-63.23 1166.63,-48.91 1078.5,-30 1074.57,-29.16 1070.5,-28.19 1066.44,-27.17"/>
<polygon fill="#63b8ff" stroke="#63b8ff" points="1067.05,-23.72 1056.49,-24.57 1065.27,-30.49 1067.05,-23.72"/>
</a>
</g>
</g>
<!-- Node22 -->
<g id="Node000022" class="node">
<title>Node22</title>
<g id="a_Node000022"><a xlink:title=" ">
<polygon fill="#e0e0e0" stroke="#999999" points="1145,-24.5 1088,-24.5 1088,-5.5 1145,-5.5 1145,-24.5"/>
<text text-anchor="middle" x="1116.5" y="-12.5" font-family="Helvetica,sans-Serif" font-size="10.00">QScreen</text>
</a>
</g>
</g>
<!-- Node9&#45;&gt;Node22 -->
<g id="edge25_Node000009_Node000022" class="edge">
<title>Node9&#45;&gt;Node22</title>
<g id="a_edge25_Node000009_Node000022"><a xlink:title=" ">
<path fill="none" stroke="#63b8ff" d="M1326.28,-68.39C1283.97,-61.03 1213.04,-47.46 1153.5,-30 1151.36,-29.37 1149.16,-28.68 1146.96,-27.94"/>
<polygon fill="#63b8ff" stroke="#63b8ff" points="1148.04,-24.61 1137.44,-24.56 1145.69,-31.21 1148.04,-24.61"/>
</a>
</g>
</g>
<!-- Node23 -->
<g id="Node000023" class="node">
<title>Node23</title>
<g id="a_Node000023"><a xlink:title=" ">
<polygon fill="#e0e0e0" stroke="#999999" points="1222,-24.5 1163,-24.5 1163,-5.5 1222,-5.5 1222,-24.5"/>
<text text-anchor="middle" x="1192.5" y="-12.5" font-family="Helvetica,sans-Serif" font-size="10.00">QVariant</text>
</a>
</g>
</g>
<!-- Node9&#45;&gt;Node23 -->
<g id="edge27_Node000009_Node000023" class="edge">
<title>Node9&#45;&gt;Node23</title>
<g id="a_edge27_Node000009_Node000023"><a xlink:title=" ">
<path fill="none" stroke="#63b8ff" d="M1336.92,-65.87C1310.02,-57.07 1267.25,-42.92 1230.5,-30 1228.66,-29.35 1226.77,-28.68 1224.87,-28"/>
<polygon fill="#63b8ff" stroke="#63b8ff" points="1225.96,-24.67 1215.37,-24.55 1223.57,-31.25 1225.96,-24.67"/>
</a>
</g>
</g>
<!-- Node24 -->
<g id="Node000024" class="node">
<title>Node24</title>
<g id="a_Node000024"><a xlink:title=" ">
<polygon fill="#e0e0e0" stroke="#999999" points="1361,-30 1240,-30 1240,0 1361,0 1361,-30"/>
<text text-anchor="start" x="1248" y="-18" font-family="Helvetica,sans-Serif" font-size="10.00">../vtools/visualization</text>
<text text-anchor="middle" x="1300.5" y="-7" font-family="Helvetica,sans-Serif" font-size="10.00">/visualization.h</text>
</a>
</g>
</g>
<!-- Node9&#45;&gt;Node24 -->
<g id="edge29_Node000009_Node000024" class="edge">
<title>Node9&#45;&gt;Node24</title>
<g id="a_edge29_Node000009_Node000024"><a xlink:title=" ">
<path fill="none" stroke="#63b8ff" d="M1354.2,-65.87C1346.05,-58.3 1333.86,-46.98 1323.16,-37.04"/>
<polygon fill="#63b8ff" stroke="#63b8ff" points="1325.41,-34.35 1315.7,-30.11 1320.65,-39.48 1325.41,-34.35"/>
</a>
</g>
</g>
<!-- Node25 -->
<g id="Node000025" class="node">
<title>Node25</title>
<g id="a_Node000025"><a xlink:title=" ">
<polygon fill="#e0e0e0" stroke="#999999" points="1531.5,-24.5 1379.5,-24.5 1379.5,-5.5 1531.5,-5.5 1531.5,-24.5"/>
<text text-anchor="middle" x="1455.5" y="-12.5" font-family="Helvetica,sans-Serif" font-size="10.00">../ifc/xml/vabstractpattern.h</text>
</a>
</g>
</g>
<!-- Node9&#45;&gt;Node25 -->
<g id="edge30_Node000009_Node000025" class="edge">
<title>Node9&#45;&gt;Node25</title>
<g id="a_edge30_Node000009_Node000025"><a xlink:title=" ">
<path fill="none" stroke="#63b8ff" d="M1377.07,-65.87C1391.89,-56.45 1415.83,-41.23 1433.36,-30.08"/>
<polygon fill="#63b8ff" stroke="#63b8ff" points="1435.31,-32.99 1441.87,-24.67 1431.55,-27.08 1435.31,-32.99"/>
</a>
</g>
</g>
<!-- Node26 -->
<g id="Node000026" class="node">
<title>Node26</title>
<g id="a_Node000026"><a xlink:title=" ">
<polygon fill="#e0e0e0" stroke="#999999" points="1627,-24.5 1550,-24.5 1550,-5.5 1627,-5.5 1627,-24.5"/>
<text text-anchor="middle" x="1588.5" y="-12.5" font-family="Helvetica,sans-Serif" font-size="10.00">../ifc/ifcdef.h</text>
</a>
</g>
</g>
<!-- Node9&#45;&gt;Node26 -->
<g id="edge31_Node000009_Node000026" class="edge">
<title>Node9&#45;&gt;Node26</title>
<g id="a_edge31_Node000009_Node000026"><a xlink:title=" ">
<path fill="none" stroke="#63b8ff" d="M1399.2,-65.94C1435.02,-57.26 1491.73,-43.24 1540.5,-30 1543.64,-29.15 1546.89,-28.24 1550.15,-27.32"/>
<polygon fill="#63b8ff" stroke="#63b8ff" points="1551.22,-30.66 1559.87,-24.54 1549.29,-23.93 1551.22,-30.66"/>
</a>
</g>
</g>
<!-- Node27 -->
<g id="Node000027" class="node">
<title>Node27</title>
<g id="a_Node000027"><a xlink:title=" ">
<polygon fill="#e0e0e0" stroke="#999999" points="1804,-24.5 1645,-24.5 1645,-5.5 1804,-5.5 1804,-24.5"/>
<text text-anchor="middle" x="1724.5" y="-12.5" font-family="Helvetica,sans-Serif" font-size="10.00">../vgeometry/vgeometrydef.h</text>
</a>
</g>
</g>
<!-- Node9&#45;&gt;Node27 -->
<g id="edge32_Node000009_Node000027" class="edge">
<title>Node9&#45;&gt;Node27</title>
<g id="a_edge32_Node000009_Node000027"><a xlink:title=" ">
<path fill="none" stroke="#63b8ff" d="M1400.77,-68.46C1462.37,-58.48 1586.07,-38.43 1661.45,-26.22"/>
<polygon fill="#63b8ff" stroke="#63b8ff" points="1662.45,-29.6 1671.76,-24.55 1661.33,-22.69 1662.45,-29.6"/>
</a>
</g>
</g>
<!-- Node28 -->
<g id="Node000028" class="node">
<title>Node28</title>
<g id="a_Node000028"><a xlink:title=" ">
<polygon fill="#e0e0e0" stroke="#999999" points="1904.5,-24.5 1822.5,-24.5 1822.5,-5.5 1904.5,-5.5 1904.5,-24.5"/>
<text text-anchor="middle" x="1863.5" y="-12.5" font-family="Helvetica,sans-Serif" font-size="10.00">../vmisc/def.h</text>
</a>
</g>
</g>
<!-- Node9&#45;&gt;Node28 -->
<g id="edge33_Node000009_Node000028" class="edge">
<title>Node9&#45;&gt;Node28</title>
<g id="a_edge33_Node000009_Node000028"><a xlink:title=" ">
<path fill="none" stroke="#63b8ff" d="M1400.76,-72.94C1478.08,-69.24 1661.35,-58.03 1812.5,-30 1816.88,-29.19 1821.44,-28.18 1825.95,-27.08"/>
<polygon fill="#63b8ff" stroke="#63b8ff" points="1826.84,-30.46 1835.64,-24.56 1825.08,-23.69 1826.84,-30.46"/>
</a>
</g>
</g>
<!-- Node29 -->
<g id="Node000029" class="node">
<title>Node29</title>
<g id="a_Node000029"><a xlink:title=" ">
<polygon fill="#e0e0e0" stroke="#999999" points="2026,-24.5 1923,-24.5 1923,-5.5 2026,-5.5 2026,-24.5"/>
<text text-anchor="middle" x="1974.5" y="-12.5" font-family="Helvetica,sans-Serif" font-size="10.00">../vmisc/logging.h</text>
</a>
</g>
</g>
<!-- Node9&#45;&gt;Node29 -->
<g id="edge34_Node000009_Node000029" class="edge">
<title>Node9&#45;&gt;Node29</title>
<g id="a_edge34_Node000009_Node000029"><a xlink:title=" ">
<path fill="none" stroke="#63b8ff" d="M1400.73,-73.35C1489.8,-70.19 1722.02,-59.56 1913.5,-30 1919.35,-29.1 1925.47,-27.95 1931.48,-26.69"/>
<polygon fill="#63b8ff" stroke="#63b8ff" points="1932.41,-30.07 1941.43,-24.51 1930.91,-23.23 1932.41,-30.07"/>
</a>
</g>
</g>
<!-- Node30 -->
<g id="Node000030" class="node">
<title>Node30</title>
<g id="a_Node000030"><a xlink:title=" ">
<polygon fill="#e0e0e0" stroke="#999999" points="2211,-24.5 2044,-24.5 2044,-5.5 2211,-5.5 2211,-24.5"/>
<text text-anchor="middle" x="2127.5" y="-12.5" font-family="Helvetica,sans-Serif" font-size="10.00">../vmisc/vabstractapplication.h</text>
</a>
</g>
</g>
<!-- Node9&#45;&gt;Node30 -->
<g id="edge35_Node000009_Node000030" class="edge">
<title>Node9&#45;&gt;Node30</title>
<g id="a_edge35_Node000009_Node000030"><a xlink:title=" ">
<path fill="none" stroke="#63b8ff" d="M1400.69,-73.12C1502.4,-69.11 1793.65,-56.07 2034.5,-30 2044.71,-28.89 2055.52,-27.49 2066.01,-25.99"/>
<polygon fill="#63b8ff" stroke="#63b8ff" points="2066.56,-29.45 2075.95,-24.54 2065.55,-22.52 2066.56,-29.45"/>
</a>
</g>
</g>
<!-- Node31 -->
<g id="Node000031" class="node">
<title>Node31</title>
<g id="a_Node000031"><a xlink:title=" ">
<polygon fill="#e0e0e0" stroke="#999999" points="2384,-24.5 2229,-24.5 2229,-5.5 2384,-5.5 2384,-24.5"/>
<text text-anchor="middle" x="2306.5" y="-12.5" font-family="Helvetica,sans-Serif" font-size="10.00">../vmisc/vcommonsettings.h</text>
</a>
</g>
</g>
<!-- Node9&#45;&gt;Node31 -->
<g id="edge36_Node000009_Node000031" class="edge">
<title>Node9&#45;&gt;Node31</title>
<g id="a_edge36_Node000009_Node000031"><a xlink:title=" ">
<path fill="none" stroke="#63b8ff" d="M1400.74,-73.99C1520.12,-72.07 1903.93,-63.49 2219.5,-30 2229.1,-28.98 2239.25,-27.61 2249.1,-26.13"/>
<polygon fill="#63b8ff" stroke="#63b8ff" points="2249.87,-29.55 2259.21,-24.56 2248.79,-22.64 2249.87,-29.55"/>
</a>
</g>
</g>
<!-- Node32 -->
<g id="Node000032" class="node">
<title>Node32</title>
<g id="a_Node000032"><a xlink:title=" ">
<polygon fill="#e0e0e0" stroke="#999999" points="2584.5,-24.5 2402.5,-24.5 2402.5,-5.5 2584.5,-5.5 2584.5,-24.5"/>
<text text-anchor="middle" x="2493.5" y="-12.5" font-family="Helvetica,sans-Serif" font-size="10.00">../vwidgets/vmaingraphicsscene.h</text>
</a>
</g>
</g>
<!-- Node9&#45;&gt;Node32 -->
<g id="edge37_Node000009_Node000032" class="edge">
<title>Node9&#45;&gt;Node32</title>
<g id="a_edge37_Node000009_Node000032"><a xlink:title=" ">
<path fill="none" stroke="#63b8ff" d="M1400.96,-74.16C1535.4,-72.66 2006.06,-65.06 2392.5,-30 2404.35,-28.93 2416.93,-27.45 2429.05,-25.86"/>
<polygon fill="#63b8ff" stroke="#63b8ff" points="2429.65,-29.31 2439.09,-24.5 2428.72,-22.37 2429.65,-29.31"/>
</a>
</g>
</g>
</g>
</svg>
