<?xml version="1.0" encoding="UTF-8" standalone="no"?>
<!DOCTYPE svg PUBLIC "-//W3C//DTD SVG 1.1//EN"
 "http://www.w3.org/Graphics/SVG/1.1/DTD/svg11.dtd">
<!-- Generated by graphviz version 2.43.0 (0)
 -->
<!-- Title: VCubicBezierData Pages: 1 -->
<!--zoomable 977 -->

<svg id="main" version="1.1" xmlns="http://www.w3.org/2000/svg" xmlns:xlink="http://www.w3.org/1999/xlink" xml:space="preserve" onload="init(evt)">
<style type="text/css"><![CDATA[
.node, .edge {opacity: 0.7;}
.node.selected, .edge.selected {opacity: 1;}
.edge:hover path { stroke: red; }
.edge:hover polygon { stroke: red; fill: red; }
]]></style>

<defs>
  <circle id="rim" cx="0" cy="0" r="7"/>
  <circle id="rim2" cx="0" cy="0" r="3.5"/>
  <g id="zoomPlus">
    <use xlink:href="#rim" fill="#404040"><set attributeName="fill" to="#808080" begin="zoomplus.mouseover" end="zoomplus.mouseout"/></use>
    <path d="M-4,0h8M0,-4v8" fill="none" stroke="white" stroke-width="1.5" pointer-events="none"/>
  </g>
  <g id="zoomMin">
    <use xlink:href="#rim" fill="#404040"><set attributeName="fill" to="#808080" begin="zoomminus.mouseover" end="zoomminus.mouseout"/></use>
    <path d="M-4,0h8" fill="none" stroke="white" stroke-width="1.5" pointer-events="none"/>
  </g>
  <g id="arrowUp" transform="translate(30 24)">
    <use xlink:href="#rim"/>
    <path pointer-events="none" fill="none" stroke="white" stroke-width="1.5" d="M0,-3.0v7 M-2.5,-0.5L0,-3.0L2.5,-0.5"/>
  </g>
  <g id="arrowRight" transform="rotate(90) translate(36 -43)">
    <use xlink:href="#rim"/>
    <path pointer-events="none" fill="none" stroke="white" stroke-width="1.5" d="M0,-3.0v7 M-2.5,-0.5L0,-3.0L2.5,-0.5"/>
  </g>
  <g id="arrowDown" transform="rotate(180) translate(-30 -48)">
    <use xlink:href="#rim"/>
    <path pointer-events="none" fill="none" stroke="white" stroke-width="1.5" d="M0,-3.0v7 M-2.5,-0.5L0,-3.0L2.5,-0.5"/>
  </g>
  <g id="arrowLeft" transform="rotate(270) translate(-36 17)">
    <use xlink:href="#rim"/>
    <path pointer-events="none" fill="none" stroke="white" stroke-width="1.5" d="M0,-3.0v7 M-2.5,-0.5L0,-3.0L2.5,-0.5"/>
  </g>
  <g id="resetDef">
    <use xlink:href="#rim2" fill="#404040"><set attributeName="fill" to="#808080" begin="reset.mouseover" end="reset.mouseout"/></use>
  </g>
</defs>
<script type="application/ecmascript">
var viewWidth = 226;
var viewHeight = 977;
var sectionId = 'dynsection-1';
</script>
<script type="application/ecmascript" xlink:href="../../svg.min.js"/>
<svg id="graph" class="graph">
<g id="viewport">
<title>VCubicBezierData</title>
<!-- Node1 -->
<g id="Node000001" class="node">
<title>Node1</title>
<g id="a_Node000001"><a xlink:title=" ">
<polygon fill="#999999" stroke="transparent" points="136,-109 11,-109 11,0 136,0 136,-109"/>
<text text-anchor="start" x="30" y="-96.5" font-family="Helvetica,sans-Serif" font-size="10.00">VCubicBezierData</text>
<text text-anchor="start" x="72" y="-81.5" font-family="Helvetica,sans-Serif" font-size="10.00"> </text>
<text text-anchor="start" x="15.5" y="-66.5" font-family="Helvetica,sans-Serif" font-size="10.00">+</text>
<text text-anchor="start" x="28.5" y="-66.5" font-family="Helvetica,sans-Serif" font-size="10.00">VCubicBezierData()</text>
<text text-anchor="start" x="15.5" y="-51.5" font-family="Helvetica,sans-Serif" font-size="10.00">+</text>
<text text-anchor="start" x="28.5" y="-51.5" font-family="Helvetica,sans-Serif" font-size="10.00">VCubicBezierData()</text>
<text text-anchor="start" x="15.5" y="-36.5" font-family="Helvetica,sans-Serif" font-size="10.00">+</text>
<text text-anchor="start" x="28.5" y="-36.5" font-family="Helvetica,sans-Serif" font-size="10.00">VCubicBezierData()</text>
<text text-anchor="start" x="15.5" y="-21.5" font-family="Helvetica,sans-Serif" font-size="10.00">+</text>
<text text-anchor="start" x="28.5" y="-21.5" font-family="Helvetica,sans-Serif" font-size="10.00">~VCubicBezierData()</text>
<text text-anchor="start" x="18" y="-6.5" font-family="Helvetica,sans-Serif" font-size="10.00">&#45;</text>
<text text-anchor="start" x="28.5" y="-6.5" font-family="Helvetica,sans-Serif" font-size="10.00">operator=()</text>
<polygon fill="#666666" stroke="#666666" points="11.5,-91.5 11.5,-91.5 136.5,-91.5 136.5,-91.5 11.5,-91.5"/>
<polygon fill="#666666" stroke="#666666" points="11.5,-76.5 11.5,-76.5 136.5,-76.5 136.5,-76.5 11.5,-76.5"/>
<polygon fill="none" stroke="#666666" points="11,0 11,-109 136,-109 136,0 11,0"/>
</a>
</g>
</g>
<!-- Node2 -->
<g id="Node000002" class="node">
<title>Node2</title>
<g id="a_Node000002"><a xlink:title=" ">
<polygon fill="white" stroke="transparent" points="75,-335.5 0,-335.5 0,-286.5 75,-286.5 75,-335.5"/>
<text text-anchor="start" x="5.5" y="-323" font-family="Helvetica,sans-Serif" font-size="10.00">QSharedData</text>
<text text-anchor="start" x="36" y="-308" font-family="Helvetica,sans-Serif" font-size="10.00"> </text>
<text text-anchor="start" x="36" y="-293" font-family="Helvetica,sans-Serif" font-size="10.00"> </text>
<polygon fill="#666666" stroke="#666666" points="0.5,-318 0.5,-318 75.5,-318 75.5,-318 0.5,-318"/>
<polygon fill="#666666" stroke="#666666" points="0.5,-303 0.5,-303 75.5,-303 75.5,-303 0.5,-303"/>
<polygon fill="none" stroke="#666666" points="0,-286.5 0,-335.5 75,-335.5 75,-286.5 0,-286.5"/>
</a>
</g>
</g>
<!-- Node2&#45;&gt;Node1 -->
<g id="edge1_Node000001_Node000002" class="edge">
<title>Node2&#45;&gt;Node1</title>
<g id="a_edge1_Node000001_Node000002"><a xlink:title=" ">
<path fill="none" stroke="#63b8ff" d="M42.32,-275.9C48.37,-233.19 58.79,-159.52 65.9,-109.21"/>
<polygon fill="none" stroke="#63b8ff" points="38.82,-275.67 40.89,-286.06 45.75,-276.65 38.82,-275.67"/>
</a>
</g>
</g>
<!-- Node3 -->
<g id="Node000003" class="node">
<title>Node3</title>
<g id="a_Node000003"><a xlink:href="../../db/d57/classVPointF.html" target="_top" xlink:title="The VPointF class keep data of point.">
<polygon fill="white" stroke="transparent" points="204.5,-433 92.5,-433 92.5,-189 204.5,-189 204.5,-433"/>
<text text-anchor="start" x="129.5" y="-421" font-family="Helvetica,sans-Serif" font-size="10.00">VPointF</text>
<text text-anchor="start" x="99" y="-406" font-family="Helvetica,sans-Serif" font-size="10.00">&#45;</text>
<text text-anchor="start" x="109.5" y="-406" font-family="Helvetica,sans-Serif" font-size="10.00">d</text>
<text text-anchor="start" x="96.5" y="-391" font-family="Helvetica,sans-Serif" font-size="10.00">+</text>
<text text-anchor="start" x="109.5" y="-391" font-family="Helvetica,sans-Serif" font-size="10.00">VPointF()</text>
<text text-anchor="start" x="96.5" y="-376" font-family="Helvetica,sans-Serif" font-size="10.00">+</text>
<text text-anchor="start" x="109.5" y="-376" font-family="Helvetica,sans-Serif" font-size="10.00">VPointF()</text>
<text text-anchor="start" x="96.5" y="-361" font-family="Helvetica,sans-Serif" font-size="10.00">+</text>
<text text-anchor="start" x="109.5" y="-361" font-family="Helvetica,sans-Serif" font-size="10.00">VPointF()</text>
<text text-anchor="start" x="96.5" y="-346" font-family="Helvetica,sans-Serif" font-size="10.00">+</text>
<text text-anchor="start" x="109.5" y="-346" font-family="Helvetica,sans-Serif" font-size="10.00">VPointF()</text>
<text text-anchor="start" x="96.5" y="-331" font-family="Helvetica,sans-Serif" font-size="10.00">+</text>
<text text-anchor="start" x="109.5" y="-331" font-family="Helvetica,sans-Serif" font-size="10.00">VPointF()</text>
<text text-anchor="start" x="96.5" y="-316" font-family="Helvetica,sans-Serif" font-size="10.00">+</text>
<text text-anchor="start" x="109.5" y="-316" font-family="Helvetica,sans-Serif" font-size="10.00">~VPointF()</text>
<text text-anchor="start" x="96.5" y="-301" font-family="Helvetica,sans-Serif" font-size="10.00">+</text>
<text text-anchor="start" x="109.5" y="-301" font-family="Helvetica,sans-Serif" font-size="10.00">operator=()</text>
<text text-anchor="start" x="96.5" y="-286" font-family="Helvetica,sans-Serif" font-size="10.00">+</text>
<text text-anchor="start" x="109.5" y="-286" font-family="Helvetica,sans-Serif" font-size="10.00">Swap()</text>
<text text-anchor="start" x="96.5" y="-271" font-family="Helvetica,sans-Serif" font-size="10.00">+</text>
<text text-anchor="start" x="109.5" y="-271" font-family="Helvetica,sans-Serif" font-size="10.00">operator QPointF()</text>
<text text-anchor="start" x="96.5" y="-256" font-family="Helvetica,sans-Serif" font-size="10.00">+</text>
<text text-anchor="start" x="109.5" y="-256" font-family="Helvetica,sans-Serif" font-size="10.00">Rotate()</text>
<text text-anchor="start" x="109.5" y="-241" font-family="Helvetica,sans-Serif" font-size="10.00">and 13 more...</text>
<text text-anchor="start" x="96.5" y="-226" font-family="Helvetica,sans-Serif" font-size="10.00">+</text>
<text text-anchor="start" x="109.5" y="-226" font-family="Helvetica,sans-Serif" font-size="10.00">RotatePF()</text>
<text text-anchor="start" x="96.5" y="-211" font-family="Helvetica,sans-Serif" font-size="10.00">+</text>
<text text-anchor="start" x="109.5" y="-211" font-family="Helvetica,sans-Serif" font-size="10.00">FlipPF()</text>
<text text-anchor="start" x="96.5" y="-196" font-family="Helvetica,sans-Serif" font-size="10.00">+</text>
<text text-anchor="start" x="109.5" y="-196" font-family="Helvetica,sans-Serif" font-size="10.00">MovePF()</text>
<polygon fill="#666666" stroke="#666666" points="92.5,-416 92.5,-416 204.5,-416 204.5,-416 92.5,-416"/>
<polygon fill="#666666" stroke="#666666" points="92.5,-401 92.5,-401 107.5,-401 107.5,-401 92.5,-401"/>
<polygon fill="#666666" stroke="#666666" points="107.5,-401 107.5,-401 204.5,-401 204.5,-401 107.5,-401"/>
<polygon fill="none" stroke="#666666" points="92.5,-189 92.5,-433 204.5,-433 204.5,-189 92.5,-189"/>
</a>
</g>
</g>
<!-- Node3&#45;&gt;Node1 -->
<g id="edge2_Node000001_Node000003" class="edge">
<title>Node3&#45;&gt;Node1</title>
<g id="a_edge2_Node000001_Node000003"><a xlink:title=" ">
<path fill="none" stroke="#63b8ff" d="M112.76,-188.71C105.85,-165.27 98.86,-141.56 92.74,-120.77"/>
<polygon fill="none" stroke="#63b8ff" points="92.72,-120.73 87.19,-116.11 89.33,-109.22 94.86,-113.84 92.72,-120.73"/>
</a>
</g>
<text text-anchor="middle" x="118.5" y="-163" font-family="Helvetica,sans-Serif" font-size="10.00" fill="grey"> +p1</text>
<text text-anchor="middle" x="118.5" y="-152" font-family="Helvetica,sans-Serif" font-size="10.00" fill="grey">+p2</text>
<text text-anchor="middle" x="118.5" y="-141" font-family="Helvetica,sans-Serif" font-size="10.00" fill="grey">+p3</text>
<text text-anchor="middle" x="118.5" y="-130" font-family="Helvetica,sans-Serif" font-size="10.00" fill="grey">+p4</text>
</g>
<!-- Node4 -->
<g id="Node000004" class="node">
<title>Node4</title>
<g id="a_Node000004"><a xlink:href="../../d1/de7/classVGObject.html" target="_top" xlink:title="The VGObject class keep information graphical objects.">
<polygon fill="white" stroke="transparent" points="218,-969 79,-969 79,-470 218,-470 218,-969"/>
<text text-anchor="start" x="126" y="-956.5" font-family="Helvetica,sans-Serif" font-size="10.00">VGObject</text>
<text text-anchor="start" x="83.5" y="-941.5" font-family="Helvetica,sans-Serif" font-size="10.00">+</text>
<text text-anchor="start" x="96.5" y="-941.5" font-family="Helvetica,sans-Serif" font-size="10.00">accuracyPointOnLine</text>
<text text-anchor="start" x="86" y="-926.5" font-family="Helvetica,sans-Serif" font-size="10.00">&#45;</text>
<text text-anchor="start" x="96.5" y="-926.5" font-family="Helvetica,sans-Serif" font-size="10.00">d</text>
<text text-anchor="start" x="83.5" y="-911.5" font-family="Helvetica,sans-Serif" font-size="10.00">+</text>
<text text-anchor="start" x="96.5" y="-911.5" font-family="Helvetica,sans-Serif" font-size="10.00">VGObject()</text>
<text text-anchor="start" x="83.5" y="-896.5" font-family="Helvetica,sans-Serif" font-size="10.00">+</text>
<text text-anchor="start" x="96.5" y="-896.5" font-family="Helvetica,sans-Serif" font-size="10.00">VGObject()</text>
<text text-anchor="start" x="83.5" y="-881.5" font-family="Helvetica,sans-Serif" font-size="10.00">+</text>
<text text-anchor="start" x="96.5" y="-881.5" font-family="Helvetica,sans-Serif" font-size="10.00">VGObject()</text>
<text text-anchor="start" x="83.5" y="-866.5" font-family="Helvetica,sans-Serif" font-size="10.00">+</text>
<text text-anchor="start" x="96.5" y="-866.5" font-family="Helvetica,sans-Serif" font-size="10.00">~VGObject()</text>
<text text-anchor="start" x="83.5" y="-851.5" font-family="Helvetica,sans-Serif" font-size="10.00">+</text>
<text text-anchor="start" x="96.5" y="-851.5" font-family="Helvetica,sans-Serif" font-size="10.00">operator=()</text>
<text text-anchor="start" x="83.5" y="-836.5" font-family="Helvetica,sans-Serif" font-size="10.00">+</text>
<text text-anchor="start" x="96.5" y="-836.5" font-family="Helvetica,sans-Serif" font-size="10.00">Swap()</text>
<text text-anchor="start" x="83.5" y="-821.5" font-family="Helvetica,sans-Serif" font-size="10.00">+</text>
<text text-anchor="start" x="96.5" y="-821.5" font-family="Helvetica,sans-Serif" font-size="10.00">getIdObject()</text>
<text text-anchor="start" x="83.5" y="-806.5" font-family="Helvetica,sans-Serif" font-size="10.00">+</text>
<text text-anchor="start" x="96.5" y="-806.5" font-family="Helvetica,sans-Serif" font-size="10.00">setIdObject()</text>
<text text-anchor="start" x="83.5" y="-791.5" font-family="Helvetica,sans-Serif" font-size="10.00">+</text>
<text text-anchor="start" x="96.5" y="-791.5" font-family="Helvetica,sans-Serif" font-size="10.00">name()</text>
<text text-anchor="start" x="83.5" y="-776.5" font-family="Helvetica,sans-Serif" font-size="10.00">+</text>
<text text-anchor="start" x="96.5" y="-776.5" font-family="Helvetica,sans-Serif" font-size="10.00">setName()</text>
<text text-anchor="start" x="96.5" y="-761.5" font-family="Helvetica,sans-Serif" font-size="10.00">and 7 more...</text>
<text text-anchor="start" x="83.5" y="-746.5" font-family="Helvetica,sans-Serif" font-size="10.00">+</text>
<text text-anchor="start" x="96.5" y="-746.5" font-family="Helvetica,sans-Serif" font-size="10.00">BuildLine()</text>
<text text-anchor="start" x="83.5" y="-731.5" font-family="Helvetica,sans-Serif" font-size="10.00">+</text>
<text text-anchor="start" x="96.5" y="-731.5" font-family="Helvetica,sans-Serif" font-size="10.00">BuildRay()</text>
<text text-anchor="start" x="83.5" y="-716.5" font-family="Helvetica,sans-Serif" font-size="10.00">+</text>
<text text-anchor="start" x="96.5" y="-716.5" font-family="Helvetica,sans-Serif" font-size="10.00">BuildAxis()</text>
<text text-anchor="start" x="83.5" y="-701.5" font-family="Helvetica,sans-Serif" font-size="10.00">+</text>
<text text-anchor="start" x="96.5" y="-701.5" font-family="Helvetica,sans-Serif" font-size="10.00">BuildAxis()</text>
<text text-anchor="start" x="83.5" y="-686.5" font-family="Helvetica,sans-Serif" font-size="10.00">+</text>
<text text-anchor="start" x="96.5" y="-686.5" font-family="Helvetica,sans-Serif" font-size="10.00">ContactPoints()</text>
<text text-anchor="start" x="83.5" y="-671.5" font-family="Helvetica,sans-Serif" font-size="10.00">+</text>
<text text-anchor="start" x="96.5" y="-671.5" font-family="Helvetica,sans-Serif" font-size="10.00">LineIntersectRect()</text>
<text text-anchor="start" x="83.5" y="-656.5" font-family="Helvetica,sans-Serif" font-size="10.00">+</text>
<text text-anchor="start" x="96.5" y="-656.5" font-family="Helvetica,sans-Serif" font-size="10.00">IntersectionCircles()</text>
<text text-anchor="start" x="83.5" y="-641.5" font-family="Helvetica,sans-Serif" font-size="10.00">+</text>
<text text-anchor="start" x="96.5" y="-641.5" font-family="Helvetica,sans-Serif" font-size="10.00">LineIntersectCircle()</text>
<text text-anchor="start" x="83.5" y="-626.5" font-family="Helvetica,sans-Serif" font-size="10.00">+</text>
<text text-anchor="start" x="96.5" y="-626.5" font-family="Helvetica,sans-Serif" font-size="10.00">ClosestPoint()</text>
<text text-anchor="start" x="83.5" y="-611.5" font-family="Helvetica,sans-Serif" font-size="10.00">+</text>
<text text-anchor="start" x="96.5" y="-611.5" font-family="Helvetica,sans-Serif" font-size="10.00">addVector()</text>
<text text-anchor="start" x="83.5" y="-596.5" font-family="Helvetica,sans-Serif" font-size="10.00">+</text>
<text text-anchor="start" x="96.5" y="-596.5" font-family="Helvetica,sans-Serif" font-size="10.00">LineCoefficients()</text>
<text text-anchor="start" x="83.5" y="-581.5" font-family="Helvetica,sans-Serif" font-size="10.00">+</text>
<text text-anchor="start" x="96.5" y="-581.5" font-family="Helvetica,sans-Serif" font-size="10.00">IsPointOnLineSegment()</text>
<text text-anchor="start" x="83.5" y="-566.5" font-family="Helvetica,sans-Serif" font-size="10.00">+</text>
<text text-anchor="start" x="96.5" y="-566.5" font-family="Helvetica,sans-Serif" font-size="10.00">IsPointOnLineviaPDP()</text>
<text text-anchor="start" x="83.5" y="-551.5" font-family="Helvetica,sans-Serif" font-size="10.00">+</text>
<text text-anchor="start" x="96.5" y="-551.5" font-family="Helvetica,sans-Serif" font-size="10.00">GetReversePoints()</text>
<text text-anchor="start" x="83.5" y="-536.5" font-family="Helvetica,sans-Serif" font-size="10.00">+</text>
<text text-anchor="start" x="96.5" y="-536.5" font-family="Helvetica,sans-Serif" font-size="10.00">GetLengthContour()</text>
<text text-anchor="start" x="83.5" y="-521.5" font-family="Helvetica,sans-Serif" font-size="10.00">#</text>
<text text-anchor="start" x="96.5" y="-521.5" font-family="Helvetica,sans-Serif" font-size="10.00">flipTransform()</text>
<text text-anchor="start" x="86" y="-506.5" font-family="Helvetica,sans-Serif" font-size="10.00">&#45;</text>
<text text-anchor="start" x="96.5" y="-506.5" font-family="Helvetica,sans-Serif" font-size="10.00">PerpDotProduct()</text>
<text text-anchor="start" x="86" y="-491.5" font-family="Helvetica,sans-Serif" font-size="10.00">&#45;</text>
<text text-anchor="start" x="96.5" y="-491.5" font-family="Helvetica,sans-Serif" font-size="10.00">GetEpsilon()</text>
<text text-anchor="start" x="86" y="-476.5" font-family="Helvetica,sans-Serif" font-size="10.00">&#45;</text>
<text text-anchor="start" x="96.5" y="-476.5" font-family="Helvetica,sans-Serif" font-size="10.00">PointInCircle()</text>
<polygon fill="#666666" stroke="#666666" points="79.5,-951.5 79.5,-951.5 218.5,-951.5 218.5,-951.5 79.5,-951.5"/>
<polygon fill="#666666" stroke="#666666" points="79.5,-921.5 79.5,-921.5 94.5,-921.5 94.5,-921.5 79.5,-921.5"/>
<polygon fill="#666666" stroke="#666666" points="94.5,-921.5 94.5,-921.5 218.5,-921.5 218.5,-921.5 94.5,-921.5"/>
<polygon fill="none" stroke="#666666" points="79,-470 79,-969 218,-969 218,-470 79,-470"/>
</a>
</g>
</g>
<!-- Node4&#45;&gt;Node3 -->
<g id="edge3_Node000003_Node000004" class="edge">
<title>Node4&#45;&gt;Node3</title>
<g id="a_edge3_Node000003_Node000004"><a xlink:title=" ">
<path fill="none" stroke="#63b8ff" d="M148.5,-459.53C148.5,-450.53 148.5,-441.7 148.5,-433.1"/>
<polygon fill="none" stroke="#63b8ff" points="145,-459.75 148.5,-469.75 152,-459.75 145,-459.75"/>
</a>
</g>
</g>
</g>
</svg>

<g id="navigator" transform="translate(0 0)" fill="#404254">
  <rect fill="#f2f5e9" fill-opacity="0.5" stroke="#606060" stroke-width=".5" x="0" y="0" width="60" height="60"/>
  <use id="zoomplus" xlink:href="#zoomPlus" x="17" y="9" onmousedown="handleZoom(evt,'in')"/>
  <use id="zoomminus" xlink:href="#zoomMin" x="42" y="9" onmousedown="handleZoom(evt,'out')"/>
  <use id="reset" xlink:href="#resetDef" x="30" y="36" onmousedown="handleReset()"/>
   <use id="arrowup" xlink:href="#arrowUp" x="0" y="0" onmousedown="handlePan(0,-1)"/>
  <use id="arrowright" xlink:href="#arrowRight" x="0" y="0" onmousedown="handlePan(1,0)"/>
  <use id="arrowdown" xlink:href="#arrowDown" x="0" y="0" onmousedown="handlePan(0,1)"/>
  <use id="arrowleft" xlink:href="#arrowLeft" x="0" y="0" onmousedown="handlePan(-1,0)"/>
</g>
<svg viewBox="0 0 15 15" width="100%" height="30px" preserveAspectRatio="xMaxYMin meet">
 <g id="arrow_out" transform="scale(0.3 0.3)">
  <a xlink:href="classVCubicBezierData__coll__graph_org.svg" target="_base">
   <rect id="button" ry="5" rx="5" y="6" x="6" height="38" width="38"
        fill="#f2f5e9" fill-opacity="0.5" stroke="#606060" stroke-width="1.0"/>
   <path id="arrow"
     d="M 11.500037,31.436501 C 11.940474,20.09759 22.043105,11.32322 32.158766,21.979434 L 37.068811,17.246167 C 37.068811,17.246167 37.088388,32 37.088388,32 L 22.160133,31.978069 C 22.160133,31.978069 26.997745,27.140456 26.997745,27.140456 C 18.528582,18.264221 13.291696,25.230495 11.500037,31.436501 z"
     style="fill:#404040;"/>
  </a>
 </g>
</svg>

<style type='text/css'>
<![CDATA[
[data-mouse-over-selected='false'] { opacity: 0.7; }
[data-mouse-over-selected='true']  { opacity: 1.0; }
]]>
</style>
<script type="application/ecmascript"><![CDATA[
document.addEventListener('DOMContentLoaded', (event) => {
  highlightEdges();
  highlightAdjacentNodes();
});
]]></script>
</svg>
