<?xml version="1.0" encoding="UTF-8" standalone="no"?>
<!DOCTYPE svg PUBLIC "-//W3C//DTD SVG 1.1//EN"
 "http://www.w3.org/Graphics/SVG/1.1/DTD/svg11.dtd">
<!-- Generated by graphviz version 2.43.0 (0)
 -->
<!-- Title: src/libs/vtools/tools/drawTools/toolpoint/toolsinglepoint/vtoolpointfromarcandtangent.h Pages: 1 -->
<svg width="644pt" height="192pt"
 viewBox="0.00 0.00 644.00 192.00" xmlns="http://www.w3.org/2000/svg" xmlns:xlink="http://www.w3.org/1999/xlink">
<g id="graph0" class="graph" transform="scale(1 1) rotate(0) translate(4 188)">
<title>src/libs/vtools/tools/drawTools/toolpoint/toolsinglepoint/vtoolpointfromarcandtangent.h</title>
<!-- Node1 -->
<g id="Node000001" class="node">
<title>Node1</title>
<g id="a_Node000001"><a xlink:title=" ">
<polygon fill="#999999" stroke="#666666" points="400,-184 152,-184 152,-143 400,-143 400,-184"/>
<text text-anchor="start" x="160" y="-172" font-family="Helvetica,sans-Serif" font-size="10.00">src/libs/vtools/tools</text>
<text text-anchor="start" x="160" y="-161" font-family="Helvetica,sans-Serif" font-size="10.00">/drawTools/toolpoint</text>
<text text-anchor="middle" x="276" y="-150" font-family="Helvetica,sans-Serif" font-size="10.00">/toolsinglepoint/vtoolpointfromarcandtangent.h</text>
</a>
</g>
</g>
<!-- Node2 -->
<g id="Node000002" class="node">
<title>Node2</title>
<g id="a_Node000002"><a xlink:href="../../d4/d56/drawtools_8h.html" target="_top" xlink:title=" ">
<polygon fill="white" stroke="#666666" points="128,-101.5 0,-101.5 0,-71.5 128,-71.5 128,-101.5"/>
<text text-anchor="start" x="8" y="-89.5" font-family="Helvetica,sans-Serif" font-size="10.00">src/libs/vtools/tools</text>
<text text-anchor="middle" x="64" y="-78.5" font-family="Helvetica,sans-Serif" font-size="10.00">/drawTools/drawtools.h</text>
</a>
</g>
</g>
<!-- Node1&#45;&gt;Node2 -->
<g id="edge1_Node000001_Node000002" class="edge">
<title>Node1&#45;&gt;Node2</title>
<g id="a_edge1_Node000001_Node000002"><a xlink:title=" ">
<path fill="none" stroke="#63b8ff" d="M211.18,-139.57C176.14,-127.17 134,-112.26 103.81,-101.58"/>
<polygon fill="#63b8ff" stroke="#63b8ff" points="210.26,-142.95 220.85,-142.99 212.59,-136.36 210.26,-142.95"/>
</a>
</g>
</g>
<!-- Node4 -->
<g id="Node000004" class="node">
<title>Node4</title>
<g id="a_Node000004"><a xlink:href="../../d5/d77/vtoolpointfromarcandtangent_8cpp.html" target="_top" xlink:title=" ">
<polygon fill="white" stroke="#666666" points="405.5,-107 146.5,-107 146.5,-66 405.5,-66 405.5,-107"/>
<text text-anchor="start" x="154.5" y="-95" font-family="Helvetica,sans-Serif" font-size="10.00">src/libs/vtools/tools</text>
<text text-anchor="start" x="154.5" y="-84" font-family="Helvetica,sans-Serif" font-size="10.00">/drawTools/toolpoint</text>
<text text-anchor="middle" x="276" y="-73" font-family="Helvetica,sans-Serif" font-size="10.00">/toolsinglepoint/vtoolpointfromarcandtangent.cpp</text>
</a>
</g>
</g>
<!-- Node1&#45;&gt;Node4 -->
<g id="edge3_Node000001_Node000004" class="edge">
<title>Node1&#45;&gt;Node4</title>
<g id="a_edge3_Node000001_Node000004"><a xlink:title=" ">
<path fill="none" stroke="#63b8ff" d="M276,-132.69C276,-124.08 276,-114.9 276,-107.07"/>
<polygon fill="#63b8ff" stroke="#63b8ff" points="272.5,-132.79 276,-142.79 279.5,-132.79 272.5,-132.79"/>
</a>
</g>
</g>
<!-- Node5 -->
<g id="Node000005" class="node">
<title>Node5</title>
<g id="a_Node000005"><a xlink:href="../../d1/db9/vistoolpointfromarcandtangent_8cpp.html" target="_top" xlink:title=" ">
<polygon fill="white" stroke="#666666" points="636,-101.5 424,-101.5 424,-71.5 636,-71.5 636,-101.5"/>
<text text-anchor="start" x="432" y="-89.5" font-family="Helvetica,sans-Serif" font-size="10.00">src/libs/vtools/visualization</text>
<text text-anchor="middle" x="530" y="-78.5" font-family="Helvetica,sans-Serif" font-size="10.00">/line/vistoolpointfromarcandtangent.cpp</text>
</a>
</g>
</g>
<!-- Node1&#45;&gt;Node5 -->
<g id="edge4_Node000001_Node000005" class="edge">
<title>Node1&#45;&gt;Node5</title>
<g id="a_edge4_Node000001_Node000005"><a xlink:title=" ">
<path fill="none" stroke="#63b8ff" d="M351.79,-140.12C394.13,-127.62 445.59,-112.42 482.31,-101.58"/>
<polygon fill="#63b8ff" stroke="#63b8ff" points="350.67,-136.8 342.07,-142.99 352.65,-143.52 350.67,-136.8"/>
</a>
</g>
</g>
<!-- Node3 -->
<g id="Node000003" class="node">
<title>Node3</title>
<g id="a_Node000003"><a xlink:href="../../d5/da5/tools_8h.html" target="_top" xlink:title=" ">
<polygon fill="white" stroke="#666666" points="119.5,-30 8.5,-30 8.5,0 119.5,0 119.5,-30"/>
<text text-anchor="start" x="16.5" y="-18" font-family="Helvetica,sans-Serif" font-size="10.00">src/libs/vtools/tools</text>
<text text-anchor="middle" x="64" y="-7" font-family="Helvetica,sans-Serif" font-size="10.00">/tools.h</text>
</a>
</g>
</g>
<!-- Node2&#45;&gt;Node3 -->
<g id="edge2_Node000002_Node000003" class="edge">
<title>Node2&#45;&gt;Node3</title>
<g id="a_edge2_Node000002_Node000003"><a xlink:title=" ">
<path fill="none" stroke="#63b8ff" d="M64,-61.25C64,-50.81 64,-38.99 64,-30.04"/>
<polygon fill="#63b8ff" stroke="#63b8ff" points="60.5,-61.44 64,-71.44 67.5,-61.44 60.5,-61.44"/>
</a>
</g>
</g>
</g>
</svg>
