<?xml version="1.0" encoding="UTF-8" standalone="no"?>
<!DOCTYPE svg PUBLIC "-//W3C//DTD SVG 1.1//EN"
 "http://www.w3.org/Graphics/SVG/1.1/DTD/svg11.dtd">
<!-- Generated by graphviz version 2.43.0 (0)
 -->
<!-- Title: src/libs/vwidgets/vmaingraphicsscene.h Pages: 1 -->
<!--zoomable 159 -->

<svg id="main" version="1.1" xmlns="http://www.w3.org/2000/svg" xmlns:xlink="http://www.w3.org/1999/xlink" xml:space="preserve" onload="init(evt)">
<style type="text/css"><![CDATA[
.node, .edge {opacity: 0.7;}
.node.selected, .edge.selected {opacity: 1;}
.edge:hover path { stroke: red; }
.edge:hover polygon { stroke: red; fill: red; }
]]></style>

<defs>
  <circle id="rim" cx="0" cy="0" r="7"/>
  <circle id="rim2" cx="0" cy="0" r="3.5"/>
  <g id="zoomPlus">
    <use xlink:href="#rim" fill="#404040"><set attributeName="fill" to="#808080" begin="zoomplus.mouseover" end="zoomplus.mouseout"/></use>
    <path d="M-4,0h8M0,-4v8" fill="none" stroke="white" stroke-width="1.5" pointer-events="none"/>
  </g>
  <g id="zoomMin">
    <use xlink:href="#rim" fill="#404040"><set attributeName="fill" to="#808080" begin="zoomminus.mouseover" end="zoomminus.mouseout"/></use>
    <path d="M-4,0h8" fill="none" stroke="white" stroke-width="1.5" pointer-events="none"/>
  </g>
  <g id="arrowUp" transform="translate(30 24)">
    <use xlink:href="#rim"/>
    <path pointer-events="none" fill="none" stroke="white" stroke-width="1.5" d="M0,-3.0v7 M-2.5,-0.5L0,-3.0L2.5,-0.5"/>
  </g>
  <g id="arrowRight" transform="rotate(90) translate(36 -43)">
    <use xlink:href="#rim"/>
    <path pointer-events="none" fill="none" stroke="white" stroke-width="1.5" d="M0,-3.0v7 M-2.5,-0.5L0,-3.0L2.5,-0.5"/>
  </g>
  <g id="arrowDown" transform="rotate(180) translate(-30 -48)">
    <use xlink:href="#rim"/>
    <path pointer-events="none" fill="none" stroke="white" stroke-width="1.5" d="M0,-3.0v7 M-2.5,-0.5L0,-3.0L2.5,-0.5"/>
  </g>
  <g id="arrowLeft" transform="rotate(270) translate(-36 17)">
    <use xlink:href="#rim"/>
    <path pointer-events="none" fill="none" stroke="white" stroke-width="1.5" d="M0,-3.0v7 M-2.5,-0.5L0,-3.0L2.5,-0.5"/>
  </g>
  <g id="resetDef">
    <use xlink:href="#rim2" fill="#404040"><set attributeName="fill" to="#808080" begin="reset.mouseover" end="reset.mouseout"/></use>
  </g>
</defs>
<script type="application/ecmascript">
var viewWidth = 1230;
var viewHeight = 159;
var sectionId = 'dynsection-1';
</script>
<script type="application/ecmascript" xlink:href="../../svg.min.js"/>
<svg id="graph" class="graph">
<g id="viewport">
<title>src/libs/vwidgets/vmaingraphicsscene.h</title>
<!-- Node1 -->
<g id="Node000001" class="node">
<title>Node1</title>
<g id="a_Node000001"><a xlink:title=" ">
<polygon fill="#999999" stroke="#666666" points="607,-151 396,-151 396,-132 607,-132 607,-151"/>
<text text-anchor="middle" x="501.5" y="-139" font-family="Helvetica,sans-Serif" font-size="10.00">src/libs/vwidgets/vmaingraphicsscene.h</text>
</a>
</g>
</g>
<!-- Node2 -->
<g id="Node000002" class="node">
<title>Node2</title>
<g id="a_Node000002"><a xlink:href="../../df/d1e/image__item_8cpp.html" target="_top" xlink:title=" ">
<polygon fill="white" stroke="#666666" points="117,-96 0,-96 0,-66 117,-66 117,-96"/>
<text text-anchor="start" x="8" y="-84" font-family="Helvetica,sans-Serif" font-size="10.00">src/libs/tools/images</text>
<text text-anchor="middle" x="58.5" y="-73" font-family="Helvetica,sans-Serif" font-size="10.00">/image_item.cpp</text>
</a>
</g>
</g>
<!-- Node1&#45;&gt;Node2 -->
<g id="edge1_Node000001_Node000002" class="edge">
<title>Node1&#45;&gt;Node2</title>
<g id="a_edge1_Node000001_Node000002"><a xlink:title=" ">
<path fill="none" stroke="#63b8ff" d="M401.4,-130.96C325.68,-123.17 219.25,-111.02 126.5,-96 123.41,-95.5 120.24,-94.96 117.05,-94.38"/>
<polygon fill="#63b8ff" stroke="#63b8ff" points="401.11,-134.44 411.41,-131.98 401.82,-127.48 401.11,-134.44"/>
</a>
</g>
</g>
<!-- Node3 -->
<g id="Node000003" class="node">
<title>Node3</title>
<g id="a_Node000003"><a xlink:href="../../d0/dbf/image__tool_8h.html" target="_top" xlink:title=" ">
<polygon fill="white" stroke="#666666" points="252,-96 135,-96 135,-66 252,-66 252,-96"/>
<text text-anchor="start" x="143" y="-84" font-family="Helvetica,sans-Serif" font-size="10.00">src/libs/tools/images</text>
<text text-anchor="middle" x="193.5" y="-73" font-family="Helvetica,sans-Serif" font-size="10.00">/image_tool.h</text>
</a>
</g>
</g>
<!-- Node1&#45;&gt;Node3 -->
<g id="edge2_Node000001_Node000003" class="edge">
<title>Node1&#45;&gt;Node3</title>
<g id="a_edge2_Node000001_Node000003"><a xlink:title=" ">
<path fill="none" stroke="#63b8ff" d="M444.06,-130.18C395.41,-121.36 323.82,-108.19 261.5,-96 258.42,-95.4 255.27,-94.77 252.09,-94.14"/>
<polygon fill="#63b8ff" stroke="#63b8ff" points="443.62,-133.66 454.09,-131.99 444.87,-126.77 443.62,-133.66"/>
</a>
</g>
</g>
<!-- Node5 -->
<g id="Node000005" class="node">
<title>Node5</title>
<g id="a_Node000005"><a xlink:href="../../de/d45/vcontrolpointspline_8cpp.html" target="_top" xlink:title=" ">
<polygon fill="white" stroke="#666666" points="485,-90.5 270,-90.5 270,-71.5 485,-71.5 485,-90.5"/>
<text text-anchor="middle" x="377.5" y="-78.5" font-family="Helvetica,sans-Serif" font-size="10.00">src/libs/vwidgets/vcontrolpointspline.cpp</text>
</a>
</g>
</g>
<!-- Node1&#45;&gt;Node5 -->
<g id="edge4_Node000001_Node000005" class="edge">
<title>Node1&#45;&gt;Node5</title>
<g id="a_edge4_Node000001_Node000005"><a xlink:title=" ">
<path fill="none" stroke="#63b8ff" d="M474.23,-127.63C450.31,-116.35 416.22,-100.27 395.55,-90.52"/>
<polygon fill="#63b8ff" stroke="#63b8ff" points="472.93,-130.89 483.47,-131.99 475.92,-124.56 472.93,-130.89"/>
</a>
</g>
</g>
<!-- Node6 -->
<g id="Node000006" class="node">
<title>Node6</title>
<g id="a_Node000006"><a xlink:href="../../de/dec/vgraphicssimpletextitem_8cpp.html" target="_top" xlink:title=" ">
<polygon fill="white" stroke="#666666" points="747.5,-90.5 503.5,-90.5 503.5,-71.5 747.5,-71.5 747.5,-90.5"/>
<text text-anchor="middle" x="625.5" y="-78.5" font-family="Helvetica,sans-Serif" font-size="10.00">src/libs/vwidgets/vgraphicssimpletextitem.cpp</text>
</a>
</g>
</g>
<!-- Node1&#45;&gt;Node6 -->
<g id="edge5_Node000001_Node000006" class="edge">
<title>Node1&#45;&gt;Node6</title>
<g id="a_edge5_Node000001_Node000006"><a xlink:title=" ">
<path fill="none" stroke="#63b8ff" d="M528.77,-127.63C552.69,-116.35 586.78,-100.27 607.45,-90.52"/>
<polygon fill="#63b8ff" stroke="#63b8ff" points="527.08,-124.56 519.53,-131.99 530.07,-130.89 527.08,-124.56"/>
</a>
</g>
</g>
<!-- Node7 -->
<g id="Node000007" class="node">
<title>Node7</title>
<g id="a_Node000007"><a xlink:href="../../d1/d88/vmaingraphicsscene_8cpp.html" target="_top" xlink:title=" ">
<polygon fill="white" stroke="#666666" points="987.5,-90.5 765.5,-90.5 765.5,-71.5 987.5,-71.5 987.5,-90.5"/>
<text text-anchor="middle" x="876.5" y="-78.5" font-family="Helvetica,sans-Serif" font-size="10.00">src/libs/vwidgets/vmaingraphicsscene.cpp</text>
</a>
</g>
</g>
<!-- Node1&#45;&gt;Node7 -->
<g id="edge6_Node000001_Node000007" class="edge">
<title>Node1&#45;&gt;Node7</title>
<g id="a_edge6_Node000001_Node000007"><a xlink:title=" ">
<path fill="none" stroke="#63b8ff" d="M565.92,-130.45C638.13,-119.19 753.97,-101.11 821.91,-90.52"/>
<polygon fill="#63b8ff" stroke="#63b8ff" points="565.37,-126.99 556.03,-131.99 566.45,-133.91 565.37,-126.99"/>
</a>
</g>
</g>
<!-- Node8 -->
<g id="Node000008" class="node">
<title>Node8</title>
<g id="a_Node000008"><a xlink:href="../../d2/d31/vmaingraphicsview_8cpp.html" target="_top" xlink:title=" ">
<polygon fill="white" stroke="#666666" points="1221.5,-90.5 1005.5,-90.5 1005.5,-71.5 1221.5,-71.5 1221.5,-90.5"/>
<text text-anchor="middle" x="1113.5" y="-78.5" font-family="Helvetica,sans-Serif" font-size="10.00">src/libs/vwidgets/vmaingraphicsview.cpp</text>
</a>
</g>
</g>
<!-- Node1&#45;&gt;Node8 -->
<g id="edge7_Node000001_Node000008" class="edge">
<title>Node1&#45;&gt;Node8</title>
<g id="a_edge7_Node000001_Node000008"><a xlink:title=" ">
<path fill="none" stroke="#63b8ff" d="M616.53,-131.12C716.91,-122.71 866.45,-109.62 996.5,-96 1012.27,-94.35 1029.21,-92.41 1045.17,-90.52"/>
<polygon fill="#63b8ff" stroke="#63b8ff" points="616.03,-127.65 606.36,-131.97 616.62,-134.63 616.03,-127.65"/>
</a>
</g>
</g>
<!-- Node4 -->
<g id="Node000004" class="node">
<title>Node4</title>
<g id="a_Node000004"><a xlink:href="../../d9/da3/image__tool_8cpp.html" target="_top" xlink:title=" ">
<polygon fill="white" stroke="#666666" points="252,-30 135,-30 135,0 252,0 252,-30"/>
<text text-anchor="start" x="143" y="-18" font-family="Helvetica,sans-Serif" font-size="10.00">src/libs/tools/images</text>
<text text-anchor="middle" x="193.5" y="-7" font-family="Helvetica,sans-Serif" font-size="10.00">/image_tool.cpp</text>
</a>
</g>
</g>
<!-- Node3&#45;&gt;Node4 -->
<g id="edge3_Node000003_Node000004" class="edge">
<title>Node3&#45;&gt;Node4</title>
<g id="a_edge3_Node000003_Node000004"><a xlink:title=" ">
<path fill="none" stroke="#63b8ff" d="M193.5,-55.54C193.5,-46.96 193.5,-37.61 193.5,-30.16"/>
<polygon fill="#63b8ff" stroke="#63b8ff" points="190,-55.8 193.5,-65.8 197,-55.8 190,-55.8"/>
</a>
</g>
</g>
</g>
</svg>

<g id="navigator" transform="translate(0 0)" fill="#404254">
  <rect fill="#f2f5e9" fill-opacity="0.5" stroke="#606060" stroke-width=".5" x="0" y="0" width="60" height="60"/>
  <use id="zoomplus" xlink:href="#zoomPlus" x="17" y="9" onmousedown="handleZoom(evt,'in')"/>
  <use id="zoomminus" xlink:href="#zoomMin" x="42" y="9" onmousedown="handleZoom(evt,'out')"/>
  <use id="reset" xlink:href="#resetDef" x="30" y="36" onmousedown="handleReset()"/>
   <use id="arrowup" xlink:href="#arrowUp" x="0" y="0" onmousedown="handlePan(0,-1)"/>
  <use id="arrowright" xlink:href="#arrowRight" x="0" y="0" onmousedown="handlePan(1,0)"/>
  <use id="arrowdown" xlink:href="#arrowDown" x="0" y="0" onmousedown="handlePan(0,1)"/>
  <use id="arrowleft" xlink:href="#arrowLeft" x="0" y="0" onmousedown="handlePan(-1,0)"/>
</g>
<svg viewBox="0 0 15 15" width="100%" height="30px" preserveAspectRatio="xMaxYMin meet">
 <g id="arrow_out" transform="scale(0.3 0.3)">
  <a xlink:href="vmaingraphicsscene_8h__dep__incl_org.svg" target="_base">
   <rect id="button" ry="5" rx="5" y="6" x="6" height="38" width="38"
        fill="#f2f5e9" fill-opacity="0.5" stroke="#606060" stroke-width="1.0"/>
   <path id="arrow"
     d="M 11.500037,31.436501 C 11.940474,20.09759 22.043105,11.32322 32.158766,21.979434 L 37.068811,17.246167 C 37.068811,17.246167 37.088388,32 37.088388,32 L 22.160133,31.978069 C 22.160133,31.978069 26.997745,27.140456 26.997745,27.140456 C 18.528582,18.264221 13.291696,25.230495 11.500037,31.436501 z"
     style="fill:#404040;"/>
  </a>
 </g>
</svg>

<style type='text/css'>
<![CDATA[
[data-mouse-over-selected='false'] { opacity: 0.7; }
[data-mouse-over-selected='true']  { opacity: 1.0; }
]]>
</style>
<script type="application/ecmascript"><![CDATA[
document.addEventListener('DOMContentLoaded', (event) => {
  highlightEdges();
  highlightAdjacentNodes();
});
]]></script>
</svg>
