<?xml version="1.0" encoding="UTF-8" standalone="no"?>
<!DOCTYPE svg PUBLIC "-//W3C//DTD SVG 1.1//EN"
 "http://www.w3.org/Graphics/SVG/1.1/DTD/svg11.dtd">
<!-- Generated by graphviz version 2.43.0 (0)
 -->
<!-- Title: src/libs/vpatterndb/floatItemData/vpiecelabeldata.h Pages: 1 -->
<svg width="426pt" height="203pt"
 viewBox="0.00 0.00 426.34 203.00" xmlns="http://www.w3.org/2000/svg" xmlns:xlink="http://www.w3.org/1999/xlink">
<g id="graph0" class="graph" transform="scale(1 1) rotate(0) translate(4 199)">
<title>src/libs/vpatterndb/floatItemData/vpiecelabeldata.h</title>
<!-- Node1 -->
<g id="node1" class="node">
<title>Node1</title>
<g id="a_node1"><a xlink:title=" ">
<polygon fill="#999999" stroke="#666666" points="382.34,-195 205.34,-195 205.34,-165 382.34,-165 382.34,-195"/>
<text text-anchor="start" x="213.34" y="-183" font-family="Helvetica,sans-Serif" font-size="10.00">src/libs/vpatterndb</text>
<text text-anchor="middle" x="293.84" y="-172" font-family="Helvetica,sans-Serif" font-size="10.00">/floatItemData/vpiecelabeldata.h</text>
</a>
</g>
</g>
<!-- Node2 -->
<g id="node2" class="node">
<title>Node2</title>
<g id="a_node2"><a xlink:title=" ">
<polygon fill="#e0e0e0" stroke="#999999" points="359.34,-74 306.34,-74 306.34,-55 359.34,-55 359.34,-74"/>
<text text-anchor="middle" x="332.84" y="-62" font-family="Helvetica,sans-Serif" font-size="10.00">QString</text>
</a>
</g>
</g>
<!-- Node1&#45;&gt;Node2 -->
<g id="edge1" class="edge">
<title>Node1&#45;&gt;Node2</title>
<path fill="none" stroke="#63b8ff" d="M297.4,-164.83C301.07,-150.77 307.17,-128.68 313.84,-110 317.01,-101.1 321.07,-91.43 324.61,-83.38"/>
<polygon fill="#63b8ff" stroke="#63b8ff" points="327.82,-84.8 328.73,-74.24 321.43,-81.92 327.82,-84.8"/>
</g>
<!-- Node3 -->
<g id="node3" class="node">
<title>Node3</title>
<g id="a_node3"><a xlink:href="../../de/d1f/vpatternlabeldata_8h.html" target="_top" xlink:title=" ">
<polygon fill="white" stroke="#666666" points="164.34,-129 51.34,-129 51.34,-110 164.34,-110 164.34,-129"/>
<text text-anchor="middle" x="107.84" y="-117" font-family="Helvetica,sans-Serif" font-size="10.00">vpatternlabeldata.h</text>
</a>
</g>
</g>
<!-- Node1&#45;&gt;Node3 -->
<g id="edge2" class="edge">
<title>Node1&#45;&gt;Node3</title>
<path fill="none" stroke="#63b8ff" d="M249.28,-164.99C217.32,-154.94 174.77,-141.55 144.71,-132.1"/>
<polygon fill="#63b8ff" stroke="#63b8ff" points="145.62,-128.72 135.03,-129.05 143.52,-135.39 145.62,-128.72"/>
</g>
<!-- Node9 -->
<g id="node9" class="node">
<title>Node9</title>
<g id="a_node9"><a xlink:href="../../dc/d76/floatitemdef_8h.html" target="_top" xlink:title=" ">
<polygon fill="white" stroke="#666666" points="407.34,-129 322.34,-129 322.34,-110 407.34,-110 407.34,-129"/>
<text text-anchor="middle" x="364.84" y="-117" font-family="Helvetica,sans-Serif" font-size="10.00">floatitemdef.h</text>
</a>
</g>
</g>
<!-- Node1&#45;&gt;Node9 -->
<g id="edge9" class="edge">
<title>Node1&#45;&gt;Node9</title>
<path fill="none" stroke="#63b8ff" d="M311.02,-164.84C321.65,-156.09 335.28,-144.85 346.17,-135.88"/>
<polygon fill="#63b8ff" stroke="#63b8ff" points="348.71,-138.33 354.2,-129.27 344.25,-132.92 348.71,-138.33"/>
</g>
<!-- Node4 -->
<g id="node4" class="node">
<title>Node4</title>
<g id="a_node4"><a xlink:title=" ">
<polygon fill="#e0e0e0" stroke="#999999" points="78.34,-19 23.34,-19 23.34,0 78.34,0 78.34,-19"/>
<text text-anchor="middle" x="50.84" y="-7" font-family="Helvetica,sans-Serif" font-size="10.00">QPointF</text>
</a>
</g>
</g>
<!-- Node3&#45;&gt;Node4 -->
<g id="edge3" class="edge">
<title>Node3&#45;&gt;Node4</title>
<path fill="none" stroke="#63b8ff" d="M58.99,-109.95C38.33,-103.65 16.22,-92.77 3.84,-74 -7.55,-56.74 10.77,-37.8 27.75,-25.13"/>
<polygon fill="#63b8ff" stroke="#63b8ff" points="30.16,-27.72 36.35,-19.12 26.15,-21.98 30.16,-27.72"/>
</g>
<!-- Node5 -->
<g id="node5" class="node">
<title>Node5</title>
<g id="a_node5"><a xlink:title=" ">
<polygon fill="#e0e0e0" stroke="#999999" points="64.84,-74 12.84,-74 12.84,-55 64.84,-55 64.84,-74"/>
<text text-anchor="middle" x="38.84" y="-62" font-family="Helvetica,sans-Serif" font-size="10.00">QRectF</text>
</a>
</g>
</g>
<!-- Node3&#45;&gt;Node5 -->
<g id="edge4" class="edge">
<title>Node3&#45;&gt;Node5</title>
<path fill="none" stroke="#63b8ff" d="M96.75,-109.98C86.35,-102 70.58,-89.88 58.11,-80.31"/>
<polygon fill="#63b8ff" stroke="#63b8ff" points="60.19,-77.49 50.12,-74.17 55.92,-83.04 60.19,-77.49"/>
</g>
<!-- Node6 -->
<g id="node6" class="node">
<title>Node6</title>
<g id="a_node6"><a xlink:title=" ">
<polygon fill="#e0e0e0" stroke="#999999" points="132.84,-74 82.84,-74 82.84,-55 132.84,-55 132.84,-74"/>
<text text-anchor="middle" x="107.84" y="-62" font-family="Helvetica,sans-Serif" font-size="10.00">QSizeF</text>
</a>
</g>
</g>
<!-- Node3&#45;&gt;Node6 -->
<g id="edge5" class="edge">
<title>Node3&#45;&gt;Node6</title>
<path fill="none" stroke="#63b8ff" d="M107.84,-109.75C107.84,-102.8 107.84,-92.85 107.84,-84.13"/>
<polygon fill="#63b8ff" stroke="#63b8ff" points="111.34,-84.09 107.84,-74.09 104.34,-84.09 111.34,-84.09"/>
</g>
<!-- Node7 -->
<g id="node7" class="node">
<title>Node7</title>
<g id="a_node7"><a xlink:href="../../db/dc1/vabstractfloatitemdata_8h.html" target="_top" xlink:title=" ">
<polygon fill="white" stroke="#666666" points="288.34,-74 151.34,-74 151.34,-55 288.34,-55 288.34,-74"/>
<text text-anchor="middle" x="219.84" y="-62" font-family="Helvetica,sans-Serif" font-size="10.00">vabstractfloatitemdata.h</text>
</a>
</g>
</g>
<!-- Node3&#45;&gt;Node7 -->
<g id="edge6" class="edge">
<title>Node3&#45;&gt;Node7</title>
<path fill="none" stroke="#63b8ff" d="M125.83,-109.98C143.77,-101.5 171.55,-88.35 192.27,-78.54"/>
<polygon fill="#63b8ff" stroke="#63b8ff" points="193.97,-81.61 201.51,-74.17 190.98,-75.28 193.97,-81.61"/>
</g>
<!-- Node7&#45;&gt;Node4 -->
<g id="edge7" class="edge">
<title>Node7&#45;&gt;Node4</title>
<path fill="none" stroke="#63b8ff" d="M192.68,-54.98C164.31,-46.09 119.6,-32.07 87.97,-22.15"/>
<polygon fill="#63b8ff" stroke="#63b8ff" points="88.79,-18.73 78.2,-19.08 86.7,-25.41 88.79,-18.73"/>
</g>
<!-- Node8 -->
<g id="node8" class="node">
<title>Node8</title>
<g id="a_node8"><a xlink:title=" ">
<polygon fill="#e0e0e0" stroke="#999999" points="277.84,-19 161.84,-19 161.84,0 277.84,0 277.84,-19"/>
<text text-anchor="middle" x="219.84" y="-7" font-family="Helvetica,sans-Serif" font-size="10.00">QSharedDataPointer</text>
</a>
</g>
</g>
<!-- Node7&#45;&gt;Node8 -->
<g id="edge8" class="edge">
<title>Node7&#45;&gt;Node8</title>
<path fill="none" stroke="#63b8ff" d="M219.84,-54.75C219.84,-47.8 219.84,-37.85 219.84,-29.13"/>
<polygon fill="#63b8ff" stroke="#63b8ff" points="223.34,-29.09 219.84,-19.09 216.34,-29.09 223.34,-29.09"/>
</g>
<!-- Node9&#45;&gt;Node2 -->
<g id="edge11" class="edge">
<title>Node9&#45;&gt;Node2</title>
<path fill="none" stroke="#63b8ff" d="M359.55,-109.75C355.13,-102.42 348.67,-91.73 343.22,-82.7"/>
<polygon fill="#63b8ff" stroke="#63b8ff" points="346.19,-80.84 338.02,-74.09 340.19,-84.46 346.19,-80.84"/>
</g>
<!-- Node10 -->
<g id="node10" class="node">
<title>Node10</title>
<g id="a_node10"><a xlink:title=" ">
<polygon fill="#e0e0e0" stroke="#999999" points="418.34,-74 377.34,-74 377.34,-55 418.34,-55 418.34,-74"/>
<text text-anchor="middle" x="397.84" y="-62" font-family="Helvetica,sans-Serif" font-size="10.00">QList</text>
</a>
</g>
</g>
<!-- Node9&#45;&gt;Node10 -->
<g id="edge10" class="edge">
<title>Node9&#45;&gt;Node10</title>
<path fill="none" stroke="#63b8ff" d="M370.29,-109.75C374.85,-102.42 381.5,-91.73 387.13,-82.7"/>
<polygon fill="#63b8ff" stroke="#63b8ff" points="390.17,-84.43 392.49,-74.09 384.23,-80.73 390.17,-84.43"/>
</g>
</g>
</svg>
