<?xml version="1.0" encoding="UTF-8" standalone="no"?>
<!DOCTYPE svg PUBLIC "-//W3C//DTD SVG 1.1//EN"
 "http://www.w3.org/Graphics/SVG/1.1/DTD/svg11.dtd">
<!-- Generated by graphviz version 2.43.0 (0)
 -->
<!-- Title: IntersectCircleTangentVisual Pages: 1 -->
<!--zoomable 1242 -->

<svg id="main" version="1.1" xmlns="http://www.w3.org/2000/svg" xmlns:xlink="http://www.w3.org/1999/xlink" xml:space="preserve" onload="init(evt)">
<style type="text/css"><![CDATA[
.node, .edge {opacity: 0.7;}
.node.selected, .edge.selected {opacity: 1;}
.edge:hover path { stroke: red; }
.edge:hover polygon { stroke: red; fill: red; }
]]></style>

<defs>
  <circle id="rim" cx="0" cy="0" r="7"/>
  <circle id="rim2" cx="0" cy="0" r="3.5"/>
  <g id="zoomPlus">
    <use xlink:href="#rim" fill="#404040"><set attributeName="fill" to="#808080" begin="zoomplus.mouseover" end="zoomplus.mouseout"/></use>
    <path d="M-4,0h8M0,-4v8" fill="none" stroke="white" stroke-width="1.5" pointer-events="none"/>
  </g>
  <g id="zoomMin">
    <use xlink:href="#rim" fill="#404040"><set attributeName="fill" to="#808080" begin="zoomminus.mouseover" end="zoomminus.mouseout"/></use>
    <path d="M-4,0h8" fill="none" stroke="white" stroke-width="1.5" pointer-events="none"/>
  </g>
  <g id="arrowUp" transform="translate(30 24)">
    <use xlink:href="#rim"/>
    <path pointer-events="none" fill="none" stroke="white" stroke-width="1.5" d="M0,-3.0v7 M-2.5,-0.5L0,-3.0L2.5,-0.5"/>
  </g>
  <g id="arrowRight" transform="rotate(90) translate(36 -43)">
    <use xlink:href="#rim"/>
    <path pointer-events="none" fill="none" stroke="white" stroke-width="1.5" d="M0,-3.0v7 M-2.5,-0.5L0,-3.0L2.5,-0.5"/>
  </g>
  <g id="arrowDown" transform="rotate(180) translate(-30 -48)">
    <use xlink:href="#rim"/>
    <path pointer-events="none" fill="none" stroke="white" stroke-width="1.5" d="M0,-3.0v7 M-2.5,-0.5L0,-3.0L2.5,-0.5"/>
  </g>
  <g id="arrowLeft" transform="rotate(270) translate(-36 17)">
    <use xlink:href="#rim"/>
    <path pointer-events="none" fill="none" stroke="white" stroke-width="1.5" d="M0,-3.0v7 M-2.5,-0.5L0,-3.0L2.5,-0.5"/>
  </g>
  <g id="resetDef">
    <use xlink:href="#rim2" fill="#404040"><set attributeName="fill" to="#808080" begin="reset.mouseover" end="reset.mouseout"/></use>
  </g>
</defs>
<script type="application/ecmascript">
var viewWidth = 250;
var viewHeight = 1242;
var sectionId = 'dynsection-0';
</script>
<script type="application/ecmascript" xlink:href="../../svg.min.js"/>
<svg id="graph" class="graph">
<g id="viewport">
<title>IntersectCircleTangentVisual</title>
<!-- Node1 -->
<g id="Node000001" class="node">
<title>Node1</title>
<g id="a_Node000001"><a xlink:title=" ">
<polygon fill="#999999" stroke="transparent" points="210.5,-274 34.5,-274 34.5,0 210.5,0 210.5,-274"/>
<text text-anchor="start" x="53" y="-262" font-family="Helvetica,sans-Serif" font-size="10.00">IntersectCircleTangentVisual</text>
<text text-anchor="start" x="41" y="-247" font-family="Helvetica,sans-Serif" font-size="10.00">&#45;</text>
<text text-anchor="start" x="51.5" y="-247" font-family="Helvetica,sans-Serif" font-size="10.00">object2Id</text>
<text text-anchor="start" x="41" y="-232" font-family="Helvetica,sans-Serif" font-size="10.00">&#45;</text>
<text text-anchor="start" x="51.5" y="-232" font-family="Helvetica,sans-Serif" font-size="10.00">cRadius</text>
<text text-anchor="start" x="41" y="-217" font-family="Helvetica,sans-Serif" font-size="10.00">&#45;</text>
<text text-anchor="start" x="51.5" y="-217" font-family="Helvetica,sans-Serif" font-size="10.00">crossPoint</text>
<text text-anchor="start" x="41" y="-202" font-family="Helvetica,sans-Serif" font-size="10.00">&#45;</text>
<text text-anchor="start" x="51.5" y="-202" font-family="Helvetica,sans-Serif" font-size="10.00">point</text>
<text text-anchor="start" x="41" y="-187" font-family="Helvetica,sans-Serif" font-size="10.00">&#45;</text>
<text text-anchor="start" x="51.5" y="-187" font-family="Helvetica,sans-Serif" font-size="10.00">tangent</text>
<text text-anchor="start" x="41" y="-172" font-family="Helvetica,sans-Serif" font-size="10.00">&#45;</text>
<text text-anchor="start" x="51.5" y="-172" font-family="Helvetica,sans-Serif" font-size="10.00">cCenter</text>
<text text-anchor="start" x="41" y="-157" font-family="Helvetica,sans-Serif" font-size="10.00">&#45;</text>
<text text-anchor="start" x="51.5" y="-157" font-family="Helvetica,sans-Serif" font-size="10.00">cPath</text>
<text text-anchor="start" x="41" y="-142" font-family="Helvetica,sans-Serif" font-size="10.00">&#45;</text>
<text text-anchor="start" x="51.5" y="-142" font-family="Helvetica,sans-Serif" font-size="10.00">tangent2</text>
<text text-anchor="start" x="41" y="-127" font-family="Helvetica,sans-Serif" font-size="10.00">&#45;</text>
<text text-anchor="start" x="51.5" y="-127" font-family="Helvetica,sans-Serif" font-size="10.00">m_secondarySupportColor</text>
<text text-anchor="start" x="38.5" y="-112" font-family="Helvetica,sans-Serif" font-size="10.00">+</text>
<text text-anchor="start" x="51.5" y="-112" font-family="Helvetica,sans-Serif" font-size="10.00">IntersectCircleTangentVisual()</text>
<text text-anchor="start" x="38.5" y="-97" font-family="Helvetica,sans-Serif" font-size="10.00">+</text>
<text text-anchor="start" x="51.5" y="-97" font-family="Helvetica,sans-Serif" font-size="10.00">~IntersectCircleTangentVisual()</text>
<text text-anchor="start" x="38.5" y="-82" font-family="Helvetica,sans-Serif" font-size="10.00">+</text>
<text text-anchor="start" x="51.5" y="-82" font-family="Helvetica,sans-Serif" font-size="10.00">RefreshGeometry()</text>
<text text-anchor="start" x="38.5" y="-67" font-family="Helvetica,sans-Serif" font-size="10.00">+</text>
<text text-anchor="start" x="51.5" y="-67" font-family="Helvetica,sans-Serif" font-size="10.00">setObject2Id()</text>
<text text-anchor="start" x="38.5" y="-52" font-family="Helvetica,sans-Serif" font-size="10.00">+</text>
<text text-anchor="start" x="51.5" y="-52" font-family="Helvetica,sans-Serif" font-size="10.00">setCRadius()</text>
<text text-anchor="start" x="38.5" y="-37" font-family="Helvetica,sans-Serif" font-size="10.00">+</text>
<text text-anchor="start" x="51.5" y="-37" font-family="Helvetica,sans-Serif" font-size="10.00">setCrossPoint()</text>
<text text-anchor="start" x="38.5" y="-22" font-family="Helvetica,sans-Serif" font-size="10.00">+</text>
<text text-anchor="start" x="51.5" y="-22" font-family="Helvetica,sans-Serif" font-size="10.00">type()</text>
<text text-anchor="start" x="41" y="-7" font-family="Helvetica,sans-Serif" font-size="10.00">&#45;</text>
<text text-anchor="start" x="51.5" y="-7" font-family="Helvetica,sans-Serif" font-size="10.00">FindRays()</text>
<polygon fill="#666666" stroke="#666666" points="34.5,-257 34.5,-257 210.5,-257 210.5,-257 34.5,-257"/>
<polygon fill="#666666" stroke="#666666" points="34.5,-122 34.5,-122 49.5,-122 49.5,-122 34.5,-122"/>
<polygon fill="#666666" stroke="#666666" points="49.5,-122 49.5,-122 210.5,-122 210.5,-122 49.5,-122"/>
<polygon fill="none" stroke="#666666" points="34.5,0 34.5,-274 210.5,-274 210.5,0 34.5,0"/>
</a>
</g>
</g>
<!-- Node2 -->
<g id="Node000002" class="node">
<title>Node2</title>
<g id="a_Node000002"><a xlink:href="../../de/d0e/classVisLine.html" target="_top" xlink:title=" ">
<polygon fill="white" stroke="transparent" points="168.5,-509 76.5,-509 76.5,-310 168.5,-310 168.5,-509"/>
<text text-anchor="start" x="104.5" y="-496.5" font-family="Helvetica,sans-Serif" font-size="10.00">VisLine</text>
<text text-anchor="start" x="120.5" y="-481.5" font-family="Helvetica,sans-Serif" font-size="10.00"> </text>
<text text-anchor="start" x="80.5" y="-466.5" font-family="Helvetica,sans-Serif" font-size="10.00">+</text>
<text text-anchor="start" x="93.5" y="-466.5" font-family="Helvetica,sans-Serif" font-size="10.00">VisLine()</text>
<text text-anchor="start" x="80.5" y="-451.5" font-family="Helvetica,sans-Serif" font-size="10.00">+</text>
<text text-anchor="start" x="93.5" y="-451.5" font-family="Helvetica,sans-Serif" font-size="10.00">~VisLine()</text>
<text text-anchor="start" x="80.5" y="-436.5" font-family="Helvetica,sans-Serif" font-size="10.00">+</text>
<text text-anchor="start" x="93.5" y="-436.5" font-family="Helvetica,sans-Serif" font-size="10.00">type()</text>
<text text-anchor="start" x="80.5" y="-421.5" font-family="Helvetica,sans-Serif" font-size="10.00">+</text>
<text text-anchor="start" x="93.5" y="-421.5" font-family="Helvetica,sans-Serif" font-size="10.00">CorrectAngle()</text>
<text text-anchor="start" x="80.5" y="-406.5" font-family="Helvetica,sans-Serif" font-size="10.00">#</text>
<text text-anchor="start" x="93.5" y="-406.5" font-family="Helvetica,sans-Serif" font-size="10.00">Ray()</text>
<text text-anchor="start" x="80.5" y="-391.5" font-family="Helvetica,sans-Serif" font-size="10.00">#</text>
<text text-anchor="start" x="93.5" y="-391.5" font-family="Helvetica,sans-Serif" font-size="10.00">Ray()</text>
<text text-anchor="start" x="80.5" y="-376.5" font-family="Helvetica,sans-Serif" font-size="10.00">#</text>
<text text-anchor="start" x="93.5" y="-376.5" font-family="Helvetica,sans-Serif" font-size="10.00">Axis()</text>
<text text-anchor="start" x="80.5" y="-361.5" font-family="Helvetica,sans-Serif" font-size="10.00">#</text>
<text text-anchor="start" x="93.5" y="-361.5" font-family="Helvetica,sans-Serif" font-size="10.00">Axis()</text>
<text text-anchor="start" x="80.5" y="-346.5" font-family="Helvetica,sans-Serif" font-size="10.00">#</text>
<text text-anchor="start" x="93.5" y="-346.5" font-family="Helvetica,sans-Serif" font-size="10.00">initPen()</text>
<text text-anchor="start" x="80.5" y="-331.5" font-family="Helvetica,sans-Serif" font-size="10.00">#</text>
<text text-anchor="start" x="93.5" y="-331.5" font-family="Helvetica,sans-Serif" font-size="10.00">AddOnScene()</text>
<text text-anchor="start" x="80.5" y="-316.5" font-family="Helvetica,sans-Serif" font-size="10.00">#</text>
<text text-anchor="start" x="93.5" y="-316.5" font-family="Helvetica,sans-Serif" font-size="10.00">DrawRay()</text>
<polygon fill="#666666" stroke="#666666" points="76.5,-491.5 76.5,-491.5 168.5,-491.5 168.5,-491.5 76.5,-491.5"/>
<polygon fill="#666666" stroke="#666666" points="76.5,-476.5 76.5,-476.5 168.5,-476.5 168.5,-476.5 76.5,-476.5"/>
<polygon fill="none" stroke="#666666" points="76.5,-310 76.5,-509 168.5,-509 168.5,-310 76.5,-310"/>
</a>
</g>
</g>
<!-- Node2&#45;&gt;Node1 -->
<g id="edge1_Node000001_Node000002" class="edge">
<title>Node2&#45;&gt;Node1</title>
<g id="a_edge1_Node000001_Node000002"><a xlink:title=" ">
<path fill="none" stroke="#63b8ff" d="M122.5,-299.53C122.5,-291.13 122.5,-282.59 122.5,-274.05"/>
<polygon fill="none" stroke="#63b8ff" points="119,-299.7 122.5,-309.7 126,-299.7 119,-299.7"/>
</a>
</g>
</g>
<!-- Node3 -->
<g id="Node000003" class="node">
<title>Node3</title>
<g id="a_Node000003"><a xlink:href="../../d7/d24/classVisualization.html" target="_top" xlink:title=" ">
<polygon fill="white" stroke="transparent" points="115,-1149 0,-1149 0,-545 115,-545 115,-1149"/>
<text text-anchor="start" x="26" y="-1137" font-family="Helvetica,sans-Serif" font-size="10.00">Visualization</text>
<text text-anchor="start" x="4.5" y="-1122" font-family="Helvetica,sans-Serif" font-size="10.00">#</text>
<text text-anchor="start" x="17.5" y="-1122" font-family="Helvetica,sans-Serif" font-size="10.00">data</text>
<text text-anchor="start" x="4.5" y="-1107" font-family="Helvetica,sans-Serif" font-size="10.00">#</text>
<text text-anchor="start" x="17.5" y="-1107" font-family="Helvetica,sans-Serif" font-size="10.00">scenePos</text>
<text text-anchor="start" x="4.5" y="-1092" font-family="Helvetica,sans-Serif" font-size="10.00">#</text>
<text text-anchor="start" x="17.5" y="-1092" font-family="Helvetica,sans-Serif" font-size="10.00">mainColor</text>
<text text-anchor="start" x="4.5" y="-1077" font-family="Helvetica,sans-Serif" font-size="10.00">#</text>
<text text-anchor="start" x="17.5" y="-1077" font-family="Helvetica,sans-Serif" font-size="10.00">supportColor</text>
<text text-anchor="start" x="4.5" y="-1062" font-family="Helvetica,sans-Serif" font-size="10.00">#</text>
<text text-anchor="start" x="17.5" y="-1062" font-family="Helvetica,sans-Serif" font-size="10.00">lineStyle</text>
<text text-anchor="start" x="4.5" y="-1047" font-family="Helvetica,sans-Serif" font-size="10.00">#</text>
<text text-anchor="start" x="17.5" y="-1047" font-family="Helvetica,sans-Serif" font-size="10.00">lineWeight</text>
<text text-anchor="start" x="4.5" y="-1032" font-family="Helvetica,sans-Serif" font-size="10.00">#</text>
<text text-anchor="start" x="17.5" y="-1032" font-family="Helvetica,sans-Serif" font-size="10.00">object1Id</text>
<text text-anchor="start" x="4.5" y="-1017" font-family="Helvetica,sans-Serif" font-size="10.00">#</text>
<text text-anchor="start" x="17.5" y="-1017" font-family="Helvetica,sans-Serif" font-size="10.00">toolTip</text>
<text text-anchor="start" x="4.5" y="-1002" font-family="Helvetica,sans-Serif" font-size="10.00">#</text>
<text text-anchor="start" x="17.5" y="-1002" font-family="Helvetica,sans-Serif" font-size="10.00">mode</text>
<text text-anchor="start" x="4.5" y="-987" font-family="Helvetica,sans-Serif" font-size="10.00">+</text>
<text text-anchor="start" x="17.5" y="-987" font-family="Helvetica,sans-Serif" font-size="10.00">Visualization()</text>
<text text-anchor="start" x="4.5" y="-972" font-family="Helvetica,sans-Serif" font-size="10.00">+</text>
<text text-anchor="start" x="17.5" y="-972" font-family="Helvetica,sans-Serif" font-size="10.00">~Visualization()</text>
<text text-anchor="start" x="4.5" y="-957" font-family="Helvetica,sans-Serif" font-size="10.00">+</text>
<text text-anchor="start" x="17.5" y="-957" font-family="Helvetica,sans-Serif" font-size="10.00">RefreshGeometry()</text>
<text text-anchor="start" x="4.5" y="-942" font-family="Helvetica,sans-Serif" font-size="10.00">+</text>
<text text-anchor="start" x="17.5" y="-942" font-family="Helvetica,sans-Serif" font-size="10.00">setObject1Id()</text>
<text text-anchor="start" x="4.5" y="-927" font-family="Helvetica,sans-Serif" font-size="10.00">+</text>
<text text-anchor="start" x="17.5" y="-927" font-family="Helvetica,sans-Serif" font-size="10.00">setLineStyle()</text>
<text text-anchor="start" x="4.5" y="-912" font-family="Helvetica,sans-Serif" font-size="10.00">+</text>
<text text-anchor="start" x="17.5" y="-912" font-family="Helvetica,sans-Serif" font-size="10.00">setLineWeight()</text>
<text text-anchor="start" x="4.5" y="-897" font-family="Helvetica,sans-Serif" font-size="10.00">+</text>
<text text-anchor="start" x="17.5" y="-897" font-family="Helvetica,sans-Serif" font-size="10.00">setScenePos()</text>
<text text-anchor="start" x="4.5" y="-882" font-family="Helvetica,sans-Serif" font-size="10.00">+</text>
<text text-anchor="start" x="17.5" y="-882" font-family="Helvetica,sans-Serif" font-size="10.00">VisualMode()</text>
<text text-anchor="start" x="4.5" y="-867" font-family="Helvetica,sans-Serif" font-size="10.00">+</text>
<text text-anchor="start" x="17.5" y="-867" font-family="Helvetica,sans-Serif" font-size="10.00">setMainColor()</text>
<text text-anchor="start" x="4.5" y="-852" font-family="Helvetica,sans-Serif" font-size="10.00">+</text>
<text text-anchor="start" x="17.5" y="-852" font-family="Helvetica,sans-Serif" font-size="10.00">getData()</text>
<text text-anchor="start" x="4.5" y="-837" font-family="Helvetica,sans-Serif" font-size="10.00">+</text>
<text text-anchor="start" x="17.5" y="-837" font-family="Helvetica,sans-Serif" font-size="10.00">setData()</text>
<text text-anchor="start" x="4.5" y="-822" font-family="Helvetica,sans-Serif" font-size="10.00">+</text>
<text text-anchor="start" x="17.5" y="-822" font-family="Helvetica,sans-Serif" font-size="10.00">GetMode()</text>
<text text-anchor="start" x="4.5" y="-807" font-family="Helvetica,sans-Serif" font-size="10.00">+</text>
<text text-anchor="start" x="17.5" y="-807" font-family="Helvetica,sans-Serif" font-size="10.00">SetMode()</text>
<text text-anchor="start" x="4.5" y="-792" font-family="Helvetica,sans-Serif" font-size="10.00">+</text>
<text text-anchor="start" x="17.5" y="-792" font-family="Helvetica,sans-Serif" font-size="10.00">CurrentToolTip()</text>
<text text-anchor="start" x="4.5" y="-777" font-family="Helvetica,sans-Serif" font-size="10.00">+</text>
<text text-anchor="start" x="17.5" y="-777" font-family="Helvetica,sans-Serif" font-size="10.00">FindLength()</text>
<text text-anchor="start" x="4.5" y="-762" font-family="Helvetica,sans-Serif" font-size="10.00">+</text>
<text text-anchor="start" x="17.5" y="-762" font-family="Helvetica,sans-Serif" font-size="10.00">FindVal()</text>
<text text-anchor="start" x="4.5" y="-747" font-family="Helvetica,sans-Serif" font-size="10.00">+</text>
<text text-anchor="start" x="17.5" y="-747" font-family="Helvetica,sans-Serif" font-size="10.00">mousePos()</text>
<text text-anchor="start" x="4.5" y="-732" font-family="Helvetica,sans-Serif" font-size="10.00">#</text>
<text text-anchor="start" x="17.5" y="-732" font-family="Helvetica,sans-Serif" font-size="10.00">initPen()</text>
<text text-anchor="start" x="4.5" y="-717" font-family="Helvetica,sans-Serif" font-size="10.00">#</text>
<text text-anchor="start" x="17.5" y="-717" font-family="Helvetica,sans-Serif" font-size="10.00">AddOnScene()</text>
<text text-anchor="start" x="4.5" y="-702" font-family="Helvetica,sans-Serif" font-size="10.00">#</text>
<text text-anchor="start" x="17.5" y="-702" font-family="Helvetica,sans-Serif" font-size="10.00">InitPoint()</text>
<text text-anchor="start" x="4.5" y="-687" font-family="Helvetica,sans-Serif" font-size="10.00">#</text>
<text text-anchor="start" x="17.5" y="-687" font-family="Helvetica,sans-Serif" font-size="10.00">DrawPoint()</text>
<text text-anchor="start" x="4.5" y="-672" font-family="Helvetica,sans-Serif" font-size="10.00">#</text>
<text text-anchor="start" x="17.5" y="-672" font-family="Helvetica,sans-Serif" font-size="10.00">DrawLine()</text>
<text text-anchor="start" x="4.5" y="-657" font-family="Helvetica,sans-Serif" font-size="10.00">#</text>
<text text-anchor="start" x="17.5" y="-657" font-family="Helvetica,sans-Serif" font-size="10.00">DrawPath()</text>
<text text-anchor="start" x="4.5" y="-642" font-family="Helvetica,sans-Serif" font-size="10.00">#</text>
<text text-anchor="start" x="17.5" y="-642" font-family="Helvetica,sans-Serif" font-size="10.00">DrawPath()</text>
<text text-anchor="start" x="4.5" y="-627" font-family="Helvetica,sans-Serif" font-size="10.00">#</text>
<text text-anchor="start" x="17.5" y="-627" font-family="Helvetica,sans-Serif" font-size="10.00">drawArrowedLine()</text>
<text text-anchor="start" x="4.5" y="-612" font-family="Helvetica,sans-Serif" font-size="10.00">#</text>
<text text-anchor="start" x="17.5" y="-612" font-family="Helvetica,sans-Serif" font-size="10.00">drawArrow()</text>
<text text-anchor="start" x="4.5" y="-597" font-family="Helvetica,sans-Serif" font-size="10.00">#</text>
<text text-anchor="start" x="17.5" y="-597" font-family="Helvetica,sans-Serif" font-size="10.00">addItem()</text>
<text text-anchor="start" x="4.5" y="-582" font-family="Helvetica,sans-Serif" font-size="10.00">#</text>
<text text-anchor="start" x="17.5" y="-582" font-family="Helvetica,sans-Serif" font-size="10.00">InitItem()</text>
<text text-anchor="start" x="4.5" y="-567" font-family="Helvetica,sans-Serif" font-size="10.00">#</text>
<text text-anchor="start" x="17.5" y="-567" font-family="Helvetica,sans-Serif" font-size="10.00">GetPointItem()</text>
<text text-anchor="start" x="7" y="-552" font-family="Helvetica,sans-Serif" font-size="10.00">&#45;</text>
<text text-anchor="start" x="17.5" y="-552" font-family="Helvetica,sans-Serif" font-size="10.00">initPointItem()</text>
<polygon fill="#666666" stroke="#666666" points="0.5,-1132 0.5,-1132 115.5,-1132 115.5,-1132 0.5,-1132"/>
<polygon fill="#666666" stroke="#666666" points="0.5,-997 0.5,-997 15.5,-997 15.5,-997 0.5,-997"/>
<polygon fill="#666666" stroke="#666666" points="15.5,-997 15.5,-997 115.5,-997 115.5,-997 15.5,-997"/>
<polygon fill="none" stroke="#666666" points="0,-545 0,-1149 115,-1149 115,-545 0,-545"/>
</a>
</g>
</g>
<!-- Node3&#45;&gt;Node2 -->
<g id="edge2_Node000002_Node000003" class="edge">
<title>Node3&#45;&gt;Node2</title>
<g id="a_edge2_Node000002_Node000003"><a xlink:title=" ">
<path fill="none" stroke="#63b8ff" d="M103.96,-534.74C105.26,-525.99 106.53,-517.49 107.75,-509.31"/>
<polygon fill="none" stroke="#63b8ff" points="100.48,-534.31 102.47,-544.72 107.41,-535.34 100.48,-534.31"/>
</a>
</g>
</g>
<!-- Node4 -->
<g id="Node000004" class="node">
<title>Node4</title>
<g id="a_Node000004"><a xlink:title=" ">
<polygon fill="white" stroke="transparent" points="82.5,-1234 32.5,-1234 32.5,-1185 82.5,-1185 82.5,-1234"/>
<text text-anchor="start" x="37.5" y="-1221.5" font-family="Helvetica,sans-Serif" font-size="10.00">QObject</text>
<text text-anchor="start" x="55.5" y="-1206.5" font-family="Helvetica,sans-Serif" font-size="10.00"> </text>
<text text-anchor="start" x="55.5" y="-1191.5" font-family="Helvetica,sans-Serif" font-size="10.00"> </text>
<polygon fill="#666666" stroke="#666666" points="32.5,-1216.5 32.5,-1216.5 82.5,-1216.5 82.5,-1216.5 32.5,-1216.5"/>
<polygon fill="#666666" stroke="#666666" points="32.5,-1201.5 32.5,-1201.5 82.5,-1201.5 82.5,-1201.5 32.5,-1201.5"/>
<polygon fill="none" stroke="#666666" points="32.5,-1185 32.5,-1234 82.5,-1234 82.5,-1185 32.5,-1185"/>
</a>
</g>
</g>
<!-- Node4&#45;&gt;Node3 -->
<g id="edge3_Node000003_Node000004" class="edge">
<title>Node4&#45;&gt;Node3</title>
<g id="a_edge3_Node000003_Node000004"><a xlink:title=" ">
<path fill="none" stroke="#63b8ff" d="M57.5,-1174.83C57.5,-1167.23 57.5,-1158.56 57.5,-1149.06"/>
<polygon fill="none" stroke="#63b8ff" points="54,-1174.85 57.5,-1184.85 61,-1174.85 54,-1174.85"/>
</a>
</g>
</g>
<!-- Node5 -->
<g id="Node000005" class="node">
<title>Node5</title>
<g id="a_Node000005"><a xlink:href="../../dd/da2/classVScaledLine.html" target="_top" xlink:title=" ">
<polygon fill="white" stroke="transparent" points="242,-916.5 133,-916.5 133,-777.5 242,-777.5 242,-916.5"/>
<text text-anchor="start" x="158" y="-904" font-family="Helvetica,sans-Serif" font-size="10.00">VScaledLine</text>
<text text-anchor="start" x="140" y="-889" font-family="Helvetica,sans-Serif" font-size="10.00">&#45;</text>
<text text-anchor="start" x="150.5" y="-889" font-family="Helvetica,sans-Serif" font-size="10.00">m_defaultWidth</text>
<text text-anchor="start" x="137.5" y="-874" font-family="Helvetica,sans-Serif" font-size="10.00">+</text>
<text text-anchor="start" x="150.5" y="-874" font-family="Helvetica,sans-Serif" font-size="10.00">VScaledLine()</text>
<text text-anchor="start" x="137.5" y="-859" font-family="Helvetica,sans-Serif" font-size="10.00">+</text>
<text text-anchor="start" x="150.5" y="-859" font-family="Helvetica,sans-Serif" font-size="10.00">VScaledLine()</text>
<text text-anchor="start" x="137.5" y="-844" font-family="Helvetica,sans-Serif" font-size="10.00">+</text>
<text text-anchor="start" x="150.5" y="-844" font-family="Helvetica,sans-Serif" font-size="10.00">~VScaledLine()</text>
<text text-anchor="start" x="137.5" y="-829" font-family="Helvetica,sans-Serif" font-size="10.00">+</text>
<text text-anchor="start" x="150.5" y="-829" font-family="Helvetica,sans-Serif" font-size="10.00">type()</text>
<text text-anchor="start" x="137.5" y="-814" font-family="Helvetica,sans-Serif" font-size="10.00">+</text>
<text text-anchor="start" x="150.5" y="-814" font-family="Helvetica,sans-Serif" font-size="10.00">paint()</text>
<text text-anchor="start" x="137.5" y="-799" font-family="Helvetica,sans-Serif" font-size="10.00">+</text>
<text text-anchor="start" x="150.5" y="-799" font-family="Helvetica,sans-Serif" font-size="10.00">getDefaultWidth()</text>
<text text-anchor="start" x="137.5" y="-784" font-family="Helvetica,sans-Serif" font-size="10.00">+</text>
<text text-anchor="start" x="150.5" y="-784" font-family="Helvetica,sans-Serif" font-size="10.00">setDefaultWidth()</text>
<polygon fill="#666666" stroke="#666666" points="133.5,-899 133.5,-899 242.5,-899 242.5,-899 133.5,-899"/>
<polygon fill="#666666" stroke="#666666" points="133.5,-884 133.5,-884 148.5,-884 148.5,-884 133.5,-884"/>
<polygon fill="#666666" stroke="#666666" points="148.5,-884 148.5,-884 242.5,-884 242.5,-884 148.5,-884"/>
<polygon fill="none" stroke="#666666" points="133,-777.5 133,-916.5 242,-916.5 242,-777.5 133,-777.5"/>
</a>
</g>
</g>
<!-- Node5&#45;&gt;Node2 -->
<g id="edge4_Node000002_Node000005" class="edge">
<title>Node5&#45;&gt;Node2</title>
<g id="a_edge4_Node000002_Node000005"><a xlink:title=" ">
<path fill="none" stroke="#63b8ff" d="M175.78,-767.51C164.99,-695.18 148.92,-587.54 137.26,-509.37"/>
<polygon fill="none" stroke="#63b8ff" points="172.33,-768.1 177.27,-777.47 179.26,-767.07 172.33,-768.1"/>
</a>
</g>
</g>
<!-- Node6 -->
<g id="Node000006" class="node">
<title>Node6</title>
<g id="a_Node000006"><a xlink:title=" ">
<polygon fill="white" stroke="transparent" points="239.5,-1234 135.5,-1234 135.5,-1185 239.5,-1185 239.5,-1234"/>
<text text-anchor="start" x="140.5" y="-1221.5" font-family="Helvetica,sans-Serif" font-size="10.00">QGraphicsLineItem</text>
<text text-anchor="start" x="185.5" y="-1206.5" font-family="Helvetica,sans-Serif" font-size="10.00"> </text>
<text text-anchor="start" x="185.5" y="-1191.5" font-family="Helvetica,sans-Serif" font-size="10.00"> </text>
<polygon fill="#666666" stroke="#666666" points="135.5,-1216.5 135.5,-1216.5 239.5,-1216.5 239.5,-1216.5 135.5,-1216.5"/>
<polygon fill="#666666" stroke="#666666" points="135.5,-1201.5 135.5,-1201.5 239.5,-1201.5 239.5,-1201.5 135.5,-1201.5"/>
<polygon fill="none" stroke="#666666" points="135.5,-1185 135.5,-1234 239.5,-1234 239.5,-1185 135.5,-1185"/>
</a>
</g>
</g>
<!-- Node6&#45;&gt;Node5 -->
<g id="edge5_Node000005_Node000006" class="edge">
<title>Node6&#45;&gt;Node5</title>
<g id="a_edge5_Node000005_Node000006"><a xlink:title=" ">
<path fill="none" stroke="#63b8ff" d="M187.5,-1174.63C187.5,-1115.83 187.5,-993.79 187.5,-916.67"/>
<polygon fill="none" stroke="#63b8ff" points="184,-1174.85 187.5,-1184.85 191,-1174.85 184,-1174.85"/>
</a>
</g>
</g>
</g>
</svg>

<g id="navigator" transform="translate(0 0)" fill="#404254">
  <rect fill="#f2f5e9" fill-opacity="0.5" stroke="#606060" stroke-width=".5" x="0" y="0" width="60" height="60"/>
  <use id="zoomplus" xlink:href="#zoomPlus" x="17" y="9" onmousedown="handleZoom(evt,'in')"/>
  <use id="zoomminus" xlink:href="#zoomMin" x="42" y="9" onmousedown="handleZoom(evt,'out')"/>
  <use id="reset" xlink:href="#resetDef" x="30" y="36" onmousedown="handleReset()"/>
   <use id="arrowup" xlink:href="#arrowUp" x="0" y="0" onmousedown="handlePan(0,-1)"/>
  <use id="arrowright" xlink:href="#arrowRight" x="0" y="0" onmousedown="handlePan(1,0)"/>
  <use id="arrowdown" xlink:href="#arrowDown" x="0" y="0" onmousedown="handlePan(0,1)"/>
  <use id="arrowleft" xlink:href="#arrowLeft" x="0" y="0" onmousedown="handlePan(-1,0)"/>
</g>
<svg viewBox="0 0 15 15" width="100%" height="30px" preserveAspectRatio="xMaxYMin meet">
 <g id="arrow_out" transform="scale(0.3 0.3)">
  <a xlink:href="classIntersectCircleTangentVisual__inherit__graph_org.svg" target="_base">
   <rect id="button" ry="5" rx="5" y="6" x="6" height="38" width="38"
        fill="#f2f5e9" fill-opacity="0.5" stroke="#606060" stroke-width="1.0"/>
   <path id="arrow"
     d="M 11.500037,31.436501 C 11.940474,20.09759 22.043105,11.32322 32.158766,21.979434 L 37.068811,17.246167 C 37.068811,17.246167 37.088388,32 37.088388,32 L 22.160133,31.978069 C 22.160133,31.978069 26.997745,27.140456 26.997745,27.140456 C 18.528582,18.264221 13.291696,25.230495 11.500037,31.436501 z"
     style="fill:#404040;"/>
  </a>
 </g>
</svg>

<style type='text/css'>
<![CDATA[
[data-mouse-over-selected='false'] { opacity: 0.7; }
[data-mouse-over-selected='true']  { opacity: 1.0; }
]]>
</style>
<script type="application/ecmascript"><![CDATA[
document.addEventListener('DOMContentLoaded', (event) => {
  highlightEdges();
  highlightAdjacentNodes();
});
]]></script>
</svg>
