<?xml version="1.0" encoding="UTF-8" standalone="no"?>
<!DOCTYPE svg PUBLIC "-//W3C//DTD SVG 1.1//EN"
 "http://www.w3.org/Graphics/SVG/1.1/DTD/svg11.dtd">
<!-- Generated by graphviz version 2.43.0 (0)
 -->
<!-- Title: VAbstractCubicBezier Pages: 1 -->
<svg width="162pt" height="1392pt"
 viewBox="0.00 0.00 162.00 1392.00" xmlns="http://www.w3.org/2000/svg" xmlns:xlink="http://www.w3.org/1999/xlink">
<g id="graph0" class="graph" transform="scale(1 1) rotate(0) translate(4 1388)">
<title>VAbstractCubicBezier</title>
<!-- Node1 -->
<g id="Node000001" class="node">
<title>Node1</title>
<g id="a_Node000001"><a xlink:title=" ">
<polygon fill="#999999" stroke="transparent" points="148,-319 6,-319 6,0 148,0 148,-319"/>
<text text-anchor="start" x="24.5" y="-306.5" font-family="Helvetica,sans-Serif" font-size="10.00">VAbstractCubicBezier</text>
<text text-anchor="start" x="75" y="-291.5" font-family="Helvetica,sans-Serif" font-size="10.00"> </text>
<text text-anchor="start" x="10" y="-276.5" font-family="Helvetica,sans-Serif" font-size="10.00">+</text>
<text text-anchor="start" x="23" y="-276.5" font-family="Helvetica,sans-Serif" font-size="10.00">VAbstractCubicBezier()</text>
<text text-anchor="start" x="10" y="-261.5" font-family="Helvetica,sans-Serif" font-size="10.00">+</text>
<text text-anchor="start" x="23" y="-261.5" font-family="Helvetica,sans-Serif" font-size="10.00">VAbstractCubicBezier()</text>
<text text-anchor="start" x="10" y="-246.5" font-family="Helvetica,sans-Serif" font-size="10.00">+</text>
<text text-anchor="start" x="23" y="-246.5" font-family="Helvetica,sans-Serif" font-size="10.00">operator=()</text>
<text text-anchor="start" x="10" y="-231.5" font-family="Helvetica,sans-Serif" font-size="10.00">+</text>
<text text-anchor="start" x="23" y="-231.5" font-family="Helvetica,sans-Serif" font-size="10.00">~VAbstractCubicBezier()</text>
<text text-anchor="start" x="10" y="-216.5" font-family="Helvetica,sans-Serif" font-size="10.00">+</text>
<text text-anchor="start" x="23" y="-216.5" font-family="Helvetica,sans-Serif" font-size="10.00">GetP1()</text>
<text text-anchor="start" x="10" y="-201.5" font-family="Helvetica,sans-Serif" font-size="10.00">+</text>
<text text-anchor="start" x="23" y="-201.5" font-family="Helvetica,sans-Serif" font-size="10.00">GetP2()</text>
<text text-anchor="start" x="10" y="-186.5" font-family="Helvetica,sans-Serif" font-size="10.00">+</text>
<text text-anchor="start" x="23" y="-186.5" font-family="Helvetica,sans-Serif" font-size="10.00">GetP3()</text>
<text text-anchor="start" x="10" y="-171.5" font-family="Helvetica,sans-Serif" font-size="10.00">+</text>
<text text-anchor="start" x="23" y="-171.5" font-family="Helvetica,sans-Serif" font-size="10.00">GetP4()</text>
<text text-anchor="start" x="10" y="-156.5" font-family="Helvetica,sans-Serif" font-size="10.00">+</text>
<text text-anchor="start" x="23" y="-156.5" font-family="Helvetica,sans-Serif" font-size="10.00">CutSpline()</text>
<text text-anchor="start" x="10" y="-141.5" font-family="Helvetica,sans-Serif" font-size="10.00">+</text>
<text text-anchor="start" x="23" y="-141.5" font-family="Helvetica,sans-Serif" font-size="10.00">NameForHistory()</text>
<text text-anchor="start" x="10" y="-126.5" font-family="Helvetica,sans-Serif" font-size="10.00">+</text>
<text text-anchor="start" x="23" y="-126.5" font-family="Helvetica,sans-Serif" font-size="10.00">GetParmT()</text>
<text text-anchor="start" x="10" y="-111.5" font-family="Helvetica,sans-Serif" font-size="10.00">+</text>
<text text-anchor="start" x="23" y="-111.5" font-family="Helvetica,sans-Serif" font-size="10.00">LengthT()</text>
<text text-anchor="start" x="10" y="-96.5" font-family="Helvetica,sans-Serif" font-size="10.00">#</text>
<text text-anchor="start" x="23" y="-96.5" font-family="Helvetica,sans-Serif" font-size="10.00">CreateName()</text>
<text text-anchor="start" x="10" y="-81.5" font-family="Helvetica,sans-Serif" font-size="10.00">#</text>
<text text-anchor="start" x="23" y="-81.5" font-family="Helvetica,sans-Serif" font-size="10.00">GetControlPoint1()</text>
<text text-anchor="start" x="10" y="-66.5" font-family="Helvetica,sans-Serif" font-size="10.00">#</text>
<text text-anchor="start" x="23" y="-66.5" font-family="Helvetica,sans-Serif" font-size="10.00">GetControlPoint2()</text>
<text text-anchor="start" x="10" y="-51.5" font-family="Helvetica,sans-Serif" font-size="10.00">#</text>
<text text-anchor="start" x="23" y="-51.5" font-family="Helvetica,sans-Serif" font-size="10.00">CalcSqDistance()</text>
<text text-anchor="start" x="10" y="-36.5" font-family="Helvetica,sans-Serif" font-size="10.00">#</text>
<text text-anchor="start" x="23" y="-36.5" font-family="Helvetica,sans-Serif" font-size="10.00">PointBezier_r()</text>
<text text-anchor="start" x="10" y="-21.5" font-family="Helvetica,sans-Serif" font-size="10.00">#</text>
<text text-anchor="start" x="23" y="-21.5" font-family="Helvetica,sans-Serif" font-size="10.00">GetCubicBezierPoints()</text>
<text text-anchor="start" x="10" y="-6.5" font-family="Helvetica,sans-Serif" font-size="10.00">#</text>
<text text-anchor="start" x="23" y="-6.5" font-family="Helvetica,sans-Serif" font-size="10.00">LengthBezier()</text>
<polygon fill="#666666" stroke="#666666" points="6,-301.5 6,-301.5 148,-301.5 148,-301.5 6,-301.5"/>
<polygon fill="#666666" stroke="#666666" points="6,-286.5 6,-286.5 148,-286.5 148,-286.5 6,-286.5"/>
<polygon fill="none" stroke="#666666" points="6,0 6,-319 148,-319 148,0 6,0"/>
</a>
</g>
</g>
<!-- Node2 -->
<g id="Node000002" class="node">
<title>Node2</title>
<g id="a_Node000002"><a xlink:href="../../dd/dc4/classVAbstractBezier.html" target="_top" xlink:title=" ">
<polygon fill="white" stroke="transparent" points="134.5,-479 19.5,-479 19.5,-355 134.5,-355 134.5,-479"/>
<text text-anchor="start" x="38.5" y="-467" font-family="Helvetica,sans-Serif" font-size="10.00">VAbstractBezier</text>
<text text-anchor="start" x="75.5" y="-452" font-family="Helvetica,sans-Serif" font-size="10.00"> </text>
<text text-anchor="start" x="24" y="-437" font-family="Helvetica,sans-Serif" font-size="10.00">+</text>
<text text-anchor="start" x="37" y="-437" font-family="Helvetica,sans-Serif" font-size="10.00">VAbstractBezier()</text>
<text text-anchor="start" x="24" y="-422" font-family="Helvetica,sans-Serif" font-size="10.00">+</text>
<text text-anchor="start" x="37" y="-422" font-family="Helvetica,sans-Serif" font-size="10.00">VAbstractBezier()</text>
<text text-anchor="start" x="24" y="-407" font-family="Helvetica,sans-Serif" font-size="10.00">+</text>
<text text-anchor="start" x="37" y="-407" font-family="Helvetica,sans-Serif" font-size="10.00">operator=()</text>
<text text-anchor="start" x="24" y="-392" font-family="Helvetica,sans-Serif" font-size="10.00">+</text>
<text text-anchor="start" x="37" y="-392" font-family="Helvetica,sans-Serif" font-size="10.00">~VAbstractBezier()</text>
<text text-anchor="start" x="24" y="-377" font-family="Helvetica,sans-Serif" font-size="10.00">+</text>
<text text-anchor="start" x="37" y="-377" font-family="Helvetica,sans-Serif" font-size="10.00">GetC1Length()</text>
<text text-anchor="start" x="24" y="-362" font-family="Helvetica,sans-Serif" font-size="10.00">+</text>
<text text-anchor="start" x="37" y="-362" font-family="Helvetica,sans-Serif" font-size="10.00">GetC2Length()</text>
<polygon fill="#666666" stroke="#666666" points="20,-462 20,-462 135,-462 135,-462 20,-462"/>
<polygon fill="#666666" stroke="#666666" points="20,-447 20,-447 135,-447 135,-447 20,-447"/>
<polygon fill="none" stroke="#666666" points="19.5,-355 19.5,-479 134.5,-479 134.5,-355 19.5,-355"/>
</a>
</g>
</g>
<!-- Node2&#45;&gt;Node1 -->
<g id="edge1_Node000001_Node000002" class="edge">
<title>Node2&#45;&gt;Node1</title>
<g id="a_edge1_Node000001_Node000002"><a xlink:title=" ">
<path fill="none" stroke="#63b8ff" d="M77,-344.71C77,-336.57 77,-328.05 77,-319.32"/>
<polygon fill="none" stroke="#63b8ff" points="73.5,-344.8 77,-354.8 80.5,-344.8 73.5,-344.8"/>
</a>
</g>
</g>
<!-- Node3 -->
<g id="Node000003" class="node">
<title>Node3</title>
<g id="a_Node000003"><a xlink:href="../../dc/d55/classVAbstractCurve.html" target="_top" xlink:title=" ">
<polygon fill="white" stroke="transparent" points="154,-849 0,-849 0,-515 154,-515 154,-849"/>
<text text-anchor="start" x="39" y="-837" font-family="Helvetica,sans-Serif" font-size="10.00">VAbstractCurve</text>
<text text-anchor="start" x="4" y="-822" font-family="Helvetica,sans-Serif" font-size="10.00">+</text>
<text text-anchor="start" x="17" y="-822" font-family="Helvetica,sans-Serif" font-size="10.00">lengthCurveDirectionArrow</text>
<text text-anchor="start" x="6.5" y="-807" font-family="Helvetica,sans-Serif" font-size="10.00">&#45;</text>
<text text-anchor="start" x="17" y="-807" font-family="Helvetica,sans-Serif" font-size="10.00">d</text>
<text text-anchor="start" x="4" y="-792" font-family="Helvetica,sans-Serif" font-size="10.00">+</text>
<text text-anchor="start" x="17" y="-792" font-family="Helvetica,sans-Serif" font-size="10.00">VAbstractCurve()</text>
<text text-anchor="start" x="4" y="-777" font-family="Helvetica,sans-Serif" font-size="10.00">+</text>
<text text-anchor="start" x="17" y="-777" font-family="Helvetica,sans-Serif" font-size="10.00">VAbstractCurve()</text>
<text text-anchor="start" x="4" y="-762" font-family="Helvetica,sans-Serif" font-size="10.00">+</text>
<text text-anchor="start" x="17" y="-762" font-family="Helvetica,sans-Serif" font-size="10.00">~VAbstractCurve()</text>
<text text-anchor="start" x="4" y="-747" font-family="Helvetica,sans-Serif" font-size="10.00">+</text>
<text text-anchor="start" x="17" y="-747" font-family="Helvetica,sans-Serif" font-size="10.00">operator=()</text>
<text text-anchor="start" x="4" y="-732" font-family="Helvetica,sans-Serif" font-size="10.00">+</text>
<text text-anchor="start" x="17" y="-732" font-family="Helvetica,sans-Serif" font-size="10.00">Swap()</text>
<text text-anchor="start" x="4" y="-717" font-family="Helvetica,sans-Serif" font-size="10.00">+</text>
<text text-anchor="start" x="17" y="-717" font-family="Helvetica,sans-Serif" font-size="10.00">getPoints()</text>
<text text-anchor="start" x="4" y="-702" font-family="Helvetica,sans-Serif" font-size="10.00">+</text>
<text text-anchor="start" x="17" y="-702" font-family="Helvetica,sans-Serif" font-size="10.00">GetSegmentPoints()</text>
<text text-anchor="start" x="4" y="-687" font-family="Helvetica,sans-Serif" font-size="10.00">+</text>
<text text-anchor="start" x="17" y="-687" font-family="Helvetica,sans-Serif" font-size="10.00">GetPath()</text>
<text text-anchor="start" x="4" y="-672" font-family="Helvetica,sans-Serif" font-size="10.00">+</text>
<text text-anchor="start" x="17" y="-672" font-family="Helvetica,sans-Serif" font-size="10.00">GetLength()</text>
<text text-anchor="start" x="4" y="-657" font-family="Helvetica,sans-Serif" font-size="10.00">+</text>
<text text-anchor="start" x="17" y="-657" font-family="Helvetica,sans-Serif" font-size="10.00">GetLengthByPoint()</text>
<text text-anchor="start" x="17" y="-642" font-family="Helvetica,sans-Serif" font-size="10.00">and 17 more...</text>
<text text-anchor="start" x="4" y="-627" font-family="Helvetica,sans-Serif" font-size="10.00">+</text>
<text text-anchor="start" x="17" y="-627" font-family="Helvetica,sans-Serif" font-size="10.00">GetSegmentPoints()</text>
<text text-anchor="start" x="4" y="-612" font-family="Helvetica,sans-Serif" font-size="10.00">+</text>
<text text-anchor="start" x="17" y="-612" font-family="Helvetica,sans-Serif" font-size="10.00">isPointOnCurve()</text>
<text text-anchor="start" x="4" y="-597" font-family="Helvetica,sans-Serif" font-size="10.00">+</text>
<text text-anchor="start" x="17" y="-597" font-family="Helvetica,sans-Serif" font-size="10.00">PathLength()</text>
<text text-anchor="start" x="4" y="-582" font-family="Helvetica,sans-Serif" font-size="10.00">+</text>
<text text-anchor="start" x="17" y="-582" font-family="Helvetica,sans-Serif" font-size="10.00">CurveIntersectLine()</text>
<text text-anchor="start" x="4" y="-567" font-family="Helvetica,sans-Serif" font-size="10.00">+</text>
<text text-anchor="start" x="17" y="-567" font-family="Helvetica,sans-Serif" font-size="10.00">ShowDirection()</text>
<text text-anchor="start" x="4" y="-552" font-family="Helvetica,sans-Serif" font-size="10.00">#</text>
<text text-anchor="start" x="17" y="-552" font-family="Helvetica,sans-Serif" font-size="10.00">CreateName()</text>
<text text-anchor="start" x="6.5" y="-537" font-family="Helvetica,sans-Serif" font-size="10.00">&#45;</text>
<text text-anchor="start" x="17" y="-537" font-family="Helvetica,sans-Serif" font-size="10.00">FromBegin()</text>
<text text-anchor="start" x="6.5" y="-522" font-family="Helvetica,sans-Serif" font-size="10.00">&#45;</text>
<text text-anchor="start" x="17" y="-522" font-family="Helvetica,sans-Serif" font-size="10.00">ToEnd()</text>
<polygon fill="#666666" stroke="#666666" points="0,-832 0,-832 154,-832 154,-832 0,-832"/>
<polygon fill="#666666" stroke="#666666" points="0,-802 0,-802 15,-802 15,-802 0,-802"/>
<polygon fill="#666666" stroke="#666666" points="15,-802 15,-802 154,-802 154,-802 15,-802"/>
<polygon fill="none" stroke="#666666" points="0,-515 0,-849 154,-849 154,-515 0,-515"/>
</a>
</g>
</g>
<!-- Node3&#45;&gt;Node2 -->
<g id="edge2_Node000002_Node000003" class="edge">
<title>Node3&#45;&gt;Node2</title>
<g id="a_edge2_Node000002_Node000003"><a xlink:title=" ">
<path fill="none" stroke="#63b8ff" d="M77,-504.69C77,-495.83 77,-487.28 77,-479.22"/>
<polygon fill="none" stroke="#63b8ff" points="73.5,-504.81 77,-514.81 80.5,-504.81 73.5,-504.81"/>
</a>
</g>
</g>
<!-- Node4 -->
<g id="Node000004" class="node">
<title>Node4</title>
<g id="a_Node000004"><a xlink:href="../../d1/de7/classVGObject.html" target="_top" xlink:title="The VGObject class keep information graphical objects.">
<polygon fill="white" stroke="transparent" points="146.5,-1384 7.5,-1384 7.5,-885 146.5,-885 146.5,-1384"/>
<text text-anchor="start" x="54.5" y="-1371.5" font-family="Helvetica,sans-Serif" font-size="10.00">VGObject</text>
<text text-anchor="start" x="12" y="-1356.5" font-family="Helvetica,sans-Serif" font-size="10.00">+</text>
<text text-anchor="start" x="25" y="-1356.5" font-family="Helvetica,sans-Serif" font-size="10.00">accuracyPointOnLine</text>
<text text-anchor="start" x="14.5" y="-1341.5" font-family="Helvetica,sans-Serif" font-size="10.00">&#45;</text>
<text text-anchor="start" x="25" y="-1341.5" font-family="Helvetica,sans-Serif" font-size="10.00">d</text>
<text text-anchor="start" x="12" y="-1326.5" font-family="Helvetica,sans-Serif" font-size="10.00">+</text>
<text text-anchor="start" x="25" y="-1326.5" font-family="Helvetica,sans-Serif" font-size="10.00">VGObject()</text>
<text text-anchor="start" x="12" y="-1311.5" font-family="Helvetica,sans-Serif" font-size="10.00">+</text>
<text text-anchor="start" x="25" y="-1311.5" font-family="Helvetica,sans-Serif" font-size="10.00">VGObject()</text>
<text text-anchor="start" x="12" y="-1296.5" font-family="Helvetica,sans-Serif" font-size="10.00">+</text>
<text text-anchor="start" x="25" y="-1296.5" font-family="Helvetica,sans-Serif" font-size="10.00">VGObject()</text>
<text text-anchor="start" x="12" y="-1281.5" font-family="Helvetica,sans-Serif" font-size="10.00">+</text>
<text text-anchor="start" x="25" y="-1281.5" font-family="Helvetica,sans-Serif" font-size="10.00">~VGObject()</text>
<text text-anchor="start" x="12" y="-1266.5" font-family="Helvetica,sans-Serif" font-size="10.00">+</text>
<text text-anchor="start" x="25" y="-1266.5" font-family="Helvetica,sans-Serif" font-size="10.00">operator=()</text>
<text text-anchor="start" x="12" y="-1251.5" font-family="Helvetica,sans-Serif" font-size="10.00">+</text>
<text text-anchor="start" x="25" y="-1251.5" font-family="Helvetica,sans-Serif" font-size="10.00">Swap()</text>
<text text-anchor="start" x="12" y="-1236.5" font-family="Helvetica,sans-Serif" font-size="10.00">+</text>
<text text-anchor="start" x="25" y="-1236.5" font-family="Helvetica,sans-Serif" font-size="10.00">getIdObject()</text>
<text text-anchor="start" x="12" y="-1221.5" font-family="Helvetica,sans-Serif" font-size="10.00">+</text>
<text text-anchor="start" x="25" y="-1221.5" font-family="Helvetica,sans-Serif" font-size="10.00">setIdObject()</text>
<text text-anchor="start" x="12" y="-1206.5" font-family="Helvetica,sans-Serif" font-size="10.00">+</text>
<text text-anchor="start" x="25" y="-1206.5" font-family="Helvetica,sans-Serif" font-size="10.00">name()</text>
<text text-anchor="start" x="12" y="-1191.5" font-family="Helvetica,sans-Serif" font-size="10.00">+</text>
<text text-anchor="start" x="25" y="-1191.5" font-family="Helvetica,sans-Serif" font-size="10.00">setName()</text>
<text text-anchor="start" x="25" y="-1176.5" font-family="Helvetica,sans-Serif" font-size="10.00">and 7 more...</text>
<text text-anchor="start" x="12" y="-1161.5" font-family="Helvetica,sans-Serif" font-size="10.00">+</text>
<text text-anchor="start" x="25" y="-1161.5" font-family="Helvetica,sans-Serif" font-size="10.00">BuildLine()</text>
<text text-anchor="start" x="12" y="-1146.5" font-family="Helvetica,sans-Serif" font-size="10.00">+</text>
<text text-anchor="start" x="25" y="-1146.5" font-family="Helvetica,sans-Serif" font-size="10.00">BuildRay()</text>
<text text-anchor="start" x="12" y="-1131.5" font-family="Helvetica,sans-Serif" font-size="10.00">+</text>
<text text-anchor="start" x="25" y="-1131.5" font-family="Helvetica,sans-Serif" font-size="10.00">BuildAxis()</text>
<text text-anchor="start" x="12" y="-1116.5" font-family="Helvetica,sans-Serif" font-size="10.00">+</text>
<text text-anchor="start" x="25" y="-1116.5" font-family="Helvetica,sans-Serif" font-size="10.00">BuildAxis()</text>
<text text-anchor="start" x="12" y="-1101.5" font-family="Helvetica,sans-Serif" font-size="10.00">+</text>
<text text-anchor="start" x="25" y="-1101.5" font-family="Helvetica,sans-Serif" font-size="10.00">ContactPoints()</text>
<text text-anchor="start" x="12" y="-1086.5" font-family="Helvetica,sans-Serif" font-size="10.00">+</text>
<text text-anchor="start" x="25" y="-1086.5" font-family="Helvetica,sans-Serif" font-size="10.00">LineIntersectRect()</text>
<text text-anchor="start" x="12" y="-1071.5" font-family="Helvetica,sans-Serif" font-size="10.00">+</text>
<text text-anchor="start" x="25" y="-1071.5" font-family="Helvetica,sans-Serif" font-size="10.00">IntersectionCircles()</text>
<text text-anchor="start" x="12" y="-1056.5" font-family="Helvetica,sans-Serif" font-size="10.00">+</text>
<text text-anchor="start" x="25" y="-1056.5" font-family="Helvetica,sans-Serif" font-size="10.00">LineIntersectCircle()</text>
<text text-anchor="start" x="12" y="-1041.5" font-family="Helvetica,sans-Serif" font-size="10.00">+</text>
<text text-anchor="start" x="25" y="-1041.5" font-family="Helvetica,sans-Serif" font-size="10.00">ClosestPoint()</text>
<text text-anchor="start" x="12" y="-1026.5" font-family="Helvetica,sans-Serif" font-size="10.00">+</text>
<text text-anchor="start" x="25" y="-1026.5" font-family="Helvetica,sans-Serif" font-size="10.00">addVector()</text>
<text text-anchor="start" x="12" y="-1011.5" font-family="Helvetica,sans-Serif" font-size="10.00">+</text>
<text text-anchor="start" x="25" y="-1011.5" font-family="Helvetica,sans-Serif" font-size="10.00">LineCoefficients()</text>
<text text-anchor="start" x="12" y="-996.5" font-family="Helvetica,sans-Serif" font-size="10.00">+</text>
<text text-anchor="start" x="25" y="-996.5" font-family="Helvetica,sans-Serif" font-size="10.00">IsPointOnLineSegment()</text>
<text text-anchor="start" x="12" y="-981.5" font-family="Helvetica,sans-Serif" font-size="10.00">+</text>
<text text-anchor="start" x="25" y="-981.5" font-family="Helvetica,sans-Serif" font-size="10.00">IsPointOnLineviaPDP()</text>
<text text-anchor="start" x="12" y="-966.5" font-family="Helvetica,sans-Serif" font-size="10.00">+</text>
<text text-anchor="start" x="25" y="-966.5" font-family="Helvetica,sans-Serif" font-size="10.00">GetReversePoints()</text>
<text text-anchor="start" x="12" y="-951.5" font-family="Helvetica,sans-Serif" font-size="10.00">+</text>
<text text-anchor="start" x="25" y="-951.5" font-family="Helvetica,sans-Serif" font-size="10.00">GetLengthContour()</text>
<text text-anchor="start" x="12" y="-936.5" font-family="Helvetica,sans-Serif" font-size="10.00">#</text>
<text text-anchor="start" x="25" y="-936.5" font-family="Helvetica,sans-Serif" font-size="10.00">flipTransform()</text>
<text text-anchor="start" x="14.5" y="-921.5" font-family="Helvetica,sans-Serif" font-size="10.00">&#45;</text>
<text text-anchor="start" x="25" y="-921.5" font-family="Helvetica,sans-Serif" font-size="10.00">PerpDotProduct()</text>
<text text-anchor="start" x="14.5" y="-906.5" font-family="Helvetica,sans-Serif" font-size="10.00">&#45;</text>
<text text-anchor="start" x="25" y="-906.5" font-family="Helvetica,sans-Serif" font-size="10.00">GetEpsilon()</text>
<text text-anchor="start" x="14.5" y="-891.5" font-family="Helvetica,sans-Serif" font-size="10.00">&#45;</text>
<text text-anchor="start" x="25" y="-891.5" font-family="Helvetica,sans-Serif" font-size="10.00">PointInCircle()</text>
<polygon fill="#666666" stroke="#666666" points="8,-1366.5 8,-1366.5 147,-1366.5 147,-1366.5 8,-1366.5"/>
<polygon fill="#666666" stroke="#666666" points="8,-1336.5 8,-1336.5 23,-1336.5 23,-1336.5 8,-1336.5"/>
<polygon fill="#666666" stroke="#666666" points="23,-1336.5 23,-1336.5 147,-1336.5 147,-1336.5 23,-1336.5"/>
<polygon fill="none" stroke="#666666" points="7.5,-885 7.5,-1384 146.5,-1384 146.5,-885 7.5,-885"/>
</a>
</g>
</g>
<!-- Node4&#45;&gt;Node3 -->
<g id="edge3_Node000003_Node000004" class="edge">
<title>Node4&#45;&gt;Node3</title>
<g id="a_edge3_Node000003_Node000004"><a xlink:title=" ">
<path fill="none" stroke="#63b8ff" d="M77,-874.74C77,-866.15 77,-857.62 77,-849.21"/>
<polygon fill="none" stroke="#63b8ff" points="73.5,-874.86 77,-884.86 80.5,-874.86 73.5,-874.86"/>
</a>
</g>
</g>
</g>
</svg>
