<?xml version="1.0" encoding="UTF-8" standalone="no"?>
<!DOCTYPE svg PUBLIC "-//W3C//DTD SVG 1.1//EN"
 "http://www.w3.org/Graphics/SVG/1.1/DTD/svg11.dtd">
<!-- Generated by graphviz version 2.43.0 (0)
 -->
<!-- Title: src/app/seamly2d/core/vcmdexport.h Pages: 1 -->
<svg width="924pt" height="214pt"
 viewBox="0.00 0.00 923.50 214.00" xmlns="http://www.w3.org/2000/svg" xmlns:xlink="http://www.w3.org/1999/xlink">
<g id="graph0" class="graph" transform="scale(1 1) rotate(0) translate(4 210)">
<title>src/app/seamly2d/core/vcmdexport.h</title>
<!-- Node1 -->
<g id="Node000001" class="node">
<title>Node1</title>
<g id="a_Node000001"><a xlink:title=" ">
<polygon fill="#999999" stroke="#666666" points="419.5,-206 292.5,-206 292.5,-176 419.5,-176 419.5,-206"/>
<text text-anchor="start" x="300.5" y="-194" font-family="Helvetica,sans-Serif" font-size="10.00">src/app/seamly2d/core</text>
<text text-anchor="middle" x="356" y="-183" font-family="Helvetica,sans-Serif" font-size="10.00">/vcmdexport.h</text>
</a>
</g>
</g>
<!-- Node2 -->
<g id="Node000002" class="node">
<title>Node2</title>
<g id="a_Node000002"><a xlink:title=" ">
<polygon fill="#e0e0e0" stroke="#999999" points="58,-134.5 0,-134.5 0,-115.5 58,-115.5 58,-134.5"/>
<text text-anchor="middle" x="29" y="-122.5" font-family="Helvetica,sans-Serif" font-size="10.00">memory</text>
</a>
</g>
</g>
<!-- Node1&#45;&gt;Node2 -->
<g id="edge1_Node000001_Node000002" class="edge">
<title>Node1&#45;&gt;Node2</title>
<g id="a_edge1_Node000001_Node000002"><a xlink:title=" ">
<path fill="none" stroke="#63b8ff" d="M292.42,-182.38C233.38,-174.51 143.35,-160.49 67,-140 64.56,-139.35 62.06,-138.6 59.57,-137.8"/>
<polygon fill="#63b8ff" stroke="#63b8ff" points="60.68,-134.48 50.08,-134.54 58.4,-141.1 60.68,-134.48"/>
</a>
</g>
</g>
<!-- Node3 -->
<g id="Node000003" class="node">
<title>Node3</title>
<g id="a_Node000003"><a xlink:title=" ">
<polygon fill="#e0e0e0" stroke="#999999" points="123.5,-134.5 76.5,-134.5 76.5,-115.5 123.5,-115.5 123.5,-134.5"/>
<text text-anchor="middle" x="100" y="-122.5" font-family="Helvetica,sans-Serif" font-size="10.00">vector</text>
</a>
</g>
</g>
<!-- Node1&#45;&gt;Node3 -->
<g id="edge2_Node000001_Node000003" class="edge">
<title>Node1&#45;&gt;Node3</title>
<g id="a_edge2_Node000001_Node000003"><a xlink:title=" ">
<path fill="none" stroke="#63b8ff" d="M292.22,-178.88C247.18,-170.26 185.7,-156.93 133,-140 131.37,-139.48 129.71,-138.9 128.05,-138.3"/>
<polygon fill="#63b8ff" stroke="#63b8ff" points="129.21,-135 118.62,-134.59 126.65,-141.51 129.21,-135"/>
</a>
</g>
</g>
<!-- Node4 -->
<g id="Node000004" class="node">
<title>Node4</title>
<g id="a_Node000004"><a xlink:title=" ">
<polygon fill="#e0e0e0" stroke="#999999" points="222,-134.5 142,-134.5 142,-115.5 222,-115.5 222,-134.5"/>
<text text-anchor="middle" x="182" y="-122.5" font-family="Helvetica,sans-Serif" font-size="10.00">QTextStream</text>
</a>
</g>
</g>
<!-- Node1&#45;&gt;Node4 -->
<g id="edge3_Node000001_Node000004" class="edge">
<title>Node1&#45;&gt;Node4</title>
<g id="a_edge3_Node000001_Node000004"><a xlink:title=" ">
<path fill="none" stroke="#63b8ff" d="M317.81,-175.95C287.03,-164.63 244.19,-148.88 214.91,-138.1"/>
<polygon fill="#63b8ff" stroke="#63b8ff" points="215.75,-134.68 205.16,-134.52 213.33,-141.25 215.75,-134.68"/>
</a>
</g>
</g>
<!-- Node5 -->
<g id="Node000005" class="node">
<title>Node5</title>
<g id="a_Node000005"><a xlink:title=" ">
<polygon fill="#e0e0e0" stroke="#999999" points="341.5,-134.5 240.5,-134.5 240.5,-115.5 341.5,-115.5 341.5,-134.5"/>
<text text-anchor="middle" x="291" y="-122.5" font-family="Helvetica,sans-Serif" font-size="10.00">QCoreApplication</text>
</a>
</g>
</g>
<!-- Node1&#45;&gt;Node5 -->
<g id="edge4_Node000001_Node000005" class="edge">
<title>Node1&#45;&gt;Node5</title>
<g id="a_edge4_Node000001_Node000005"><a xlink:title=" ">
<path fill="none" stroke="#63b8ff" d="M341.57,-175.8C331.44,-165.82 317.87,-152.46 307.34,-142.09"/>
<polygon fill="#63b8ff" stroke="#63b8ff" points="309.56,-139.37 299.98,-134.84 304.65,-144.35 309.56,-139.37"/>
</a>
</g>
</g>
<!-- Node6 -->
<g id="Node000006" class="node">
<title>Node6</title>
<g id="a_Node000006"><a xlink:title=" ">
<polygon fill="#e0e0e0" stroke="#999999" points="484.5,-134.5 359.5,-134.5 359.5,-115.5 484.5,-115.5 484.5,-134.5"/>
<text text-anchor="middle" x="422" y="-122.5" font-family="Helvetica,sans-Serif" font-size="10.00">QCommandLineParser</text>
</a>
</g>
</g>
<!-- Node1&#45;&gt;Node6 -->
<g id="edge5_Node000001_Node000006" class="edge">
<title>Node1&#45;&gt;Node6</title>
<g id="a_edge5_Node000001_Node000006"><a xlink:title=" ">
<path fill="none" stroke="#63b8ff" d="M370.65,-175.8C380.94,-165.82 394.72,-152.46 405.41,-142.09"/>
<polygon fill="#63b8ff" stroke="#63b8ff" points="408.14,-144.32 412.88,-134.84 403.26,-139.29 408.14,-144.32"/>
</a>
</g>
</g>
<!-- Node7 -->
<g id="Node000007" class="node">
<title>Node7</title>
<g id="a_Node000007"><a xlink:href="../../d3/dd8/layoutsettings__dialog_8h.html" target="_top" xlink:title=" ">
<polygon fill="white" stroke="#666666" points="637,-140 503,-140 503,-110 637,-110 637,-140"/>
<text text-anchor="start" x="511" y="-128" font-family="Helvetica,sans-Serif" font-size="10.00">../dialogs/layoutsettings</text>
<text text-anchor="middle" x="570" y="-117" font-family="Helvetica,sans-Serif" font-size="10.00">_dialog.h</text>
</a>
</g>
</g>
<!-- Node1&#45;&gt;Node7 -->
<g id="edge6_Node000001_Node000007" class="edge">
<title>Node1&#45;&gt;Node7</title>
<g id="a_edge6_Node000001_Node000007"><a xlink:title=" ">
<path fill="none" stroke="#63b8ff" d="M402.96,-175.95C435.44,-166.24 478.82,-153.27 513.24,-142.98"/>
<polygon fill="#63b8ff" stroke="#63b8ff" points="514.57,-146.23 523.15,-140.01 512.56,-139.52 514.57,-146.23"/>
</a>
</g>
</g>
<!-- Node10 -->
<g id="Node000010" class="node">
<title>Node10</title>
<g id="a_Node000010"><a xlink:title=" ">
<polygon fill="#e0e0e0" stroke="#999999" points="476,-19 394,-19 394,0 476,0 476,-19"/>
<text text-anchor="middle" x="435" y="-7" font-family="Helvetica,sans-Serif" font-size="10.00">../vmisc/def.h</text>
</a>
</g>
</g>
<!-- Node1&#45;&gt;Node10 -->
<g id="edge16_Node000001_Node000010" class="edge">
<title>Node1&#45;&gt;Node10</title>
<g id="a_edge16_Node000001_Node000010"><a xlink:title=" ">
<path fill="none" stroke="#63b8ff" d="M419.72,-185.87C479.69,-180.4 571.22,-167.94 646,-140 699.05,-120.18 727.2,-123.34 755,-74 759.15,-66.64 760.54,-61.37 755,-55 720.79,-15.7 567.67,-10 486.27,-9.84"/>
<polygon fill="#63b8ff" stroke="#63b8ff" points="486.23,-6.34 476.23,-9.84 486.24,-13.34 486.23,-6.34"/>
</a>
</g>
</g>
<!-- Node15 -->
<g id="Node000015" class="node">
<title>Node15</title>
<g id="a_Node000015"><a xlink:title=" ">
<polygon fill="#e0e0e0" stroke="#999999" points="915.5,-134.5 802.5,-134.5 802.5,-115.5 915.5,-115.5 915.5,-134.5"/>
<text text-anchor="middle" x="859" y="-122.5" font-family="Helvetica,sans-Serif" font-size="10.00">../vmisc/vsysexits.h</text>
</a>
</g>
</g>
<!-- Node1&#45;&gt;Node15 -->
<g id="edge17_Node000001_Node000015" class="edge">
<title>Node1&#45;&gt;Node15</title>
<g id="a_edge17_Node000001_Node000015"><a xlink:title=" ">
<path fill="none" stroke="#63b8ff" d="M419.53,-184.24C503.96,-176.22 657.64,-160.36 788,-140 794.67,-138.96 801.67,-137.74 808.57,-136.46"/>
<polygon fill="#63b8ff" stroke="#63b8ff" points="809.38,-139.86 818.55,-134.55 808.07,-132.99 809.38,-139.86"/>
</a>
</g>
</g>
<!-- Node8 -->
<g id="Node000008" class="node">
<title>Node8</title>
<g id="a_Node000008"><a xlink:href="../../d7/d9e/abstractlayout__dialog_8h.html" target="_top" xlink:title=" ">
<polygon fill="white" stroke="#666666" points="406.5,-74 275.5,-74 275.5,-55 406.5,-55 406.5,-74"/>
<text text-anchor="middle" x="341" y="-62" font-family="Helvetica,sans-Serif" font-size="10.00">abstractlayout_dialog.h</text>
</a>
</g>
</g>
<!-- Node7&#45;&gt;Node8 -->
<g id="edge7_Node000007_Node000008" class="edge">
<title>Node7&#45;&gt;Node8</title>
<g id="a_edge7_Node000007_Node000008"><a xlink:title=" ">
<path fill="none" stroke="#63b8ff" d="M515.15,-109.99C475.11,-99.76 421.58,-86.09 384.49,-76.61"/>
<polygon fill="#63b8ff" stroke="#63b8ff" points="385.04,-73.14 374.48,-74.05 383.31,-79.92 385.04,-73.14"/>
</a>
</g>
</g>
<!-- Node9 -->
<g id="Node000009" class="node">
<title>Node9</title>
<g id="a_Node000009"><a xlink:title=" ">
<polygon fill="#e0e0e0" stroke="#999999" points="290.5,-19 213.5,-19 213.5,0 290.5,0 290.5,-19"/>
<text text-anchor="middle" x="252" y="-7" font-family="Helvetica,sans-Serif" font-size="10.00">../ifc/ifcdef.h</text>
</a>
</g>
</g>
<!-- Node7&#45;&gt;Node9 -->
<g id="edge13_Node000007_Node000009" class="edge">
<title>Node7&#45;&gt;Node9</title>
<g id="a_edge13_Node000007_Node000009"><a xlink:title=" ">
<path fill="none" stroke="#63b8ff" d="M502.88,-111.54C499.88,-111.01 496.91,-110.5 494,-110 443.44,-101.35 303.35,-109.16 266,-74 254.07,-62.77 251.17,-43.85 250.89,-29.58"/>
<polygon fill="#63b8ff" stroke="#63b8ff" points="254.39,-29.44 251.11,-19.36 247.4,-29.29 254.39,-29.44"/>
</a>
</g>
</g>
<!-- Node7&#45;&gt;Node10 -->
<g id="edge12_Node000007_Node000010" class="edge">
<title>Node7&#45;&gt;Node10</title>
<g id="a_edge12_Node000007_Node000010"><a xlink:title=" ">
<path fill="none" stroke="#63b8ff" d="M511.62,-109.96C490.94,-102.37 469.09,-90.95 454,-74 443.12,-61.78 438.47,-43.54 436.48,-29.75"/>
<polygon fill="#63b8ff" stroke="#63b8ff" points="439.92,-28.99 435.35,-19.43 432.96,-29.75 439.92,-28.99"/>
</a>
</g>
</g>
<!-- Node12 -->
<g id="Node000012" class="node">
<title>Node12</title>
<g id="a_Node000012"><a xlink:title=" ">
<polygon fill="#e0e0e0" stroke="#999999" points="567,-74 463,-74 463,-55 567,-55 567,-74"/>
<text text-anchor="middle" x="515" y="-62" font-family="Helvetica,sans-Serif" font-size="10.00">../vlayout/vbank.h</text>
</a>
</g>
</g>
<!-- Node7&#45;&gt;Node12 -->
<g id="edge11_Node000007_Node000012" class="edge">
<title>Node7&#45;&gt;Node12</title>
<g id="a_edge11_Node000007_Node000012"><a xlink:title=" ">
<path fill="none" stroke="#63b8ff" d="M556.69,-109.84C548.7,-101.35 538.52,-90.52 530.22,-81.69"/>
<polygon fill="#63b8ff" stroke="#63b8ff" points="532.64,-79.15 523.24,-74.27 527.54,-83.95 532.64,-79.15"/>
</a>
</g>
</g>
<!-- Node13 -->
<g id="Node000013" class="node">
<title>Node13</title>
<g id="a_Node000013"><a xlink:title=" ">
<polygon fill="#e0e0e0" stroke="#999999" points="664.5,-74 585.5,-74 585.5,-55 664.5,-55 664.5,-74"/>
<text text-anchor="middle" x="625" y="-62" font-family="Helvetica,sans-Serif" font-size="10.00">QCloseEvent</text>
</a>
</g>
</g>
<!-- Node7&#45;&gt;Node13 -->
<g id="edge14_Node000007_Node000013" class="edge">
<title>Node7&#45;&gt;Node13</title>
<g id="a_edge14_Node000007_Node000013"><a xlink:title=" ">
<path fill="none" stroke="#63b8ff" d="M583.31,-109.84C591.3,-101.35 601.48,-90.52 609.78,-81.69"/>
<polygon fill="#63b8ff" stroke="#63b8ff" points="612.46,-83.95 616.76,-74.27 607.36,-79.15 612.46,-83.95"/>
</a>
</g>
</g>
<!-- Node14 -->
<g id="Node000014" class="node">
<title>Node14</title>
<g id="a_Node000014"><a xlink:title=" ">
<polygon fill="#e0e0e0" stroke="#999999" points="745.5,-74 682.5,-74 682.5,-55 745.5,-55 745.5,-74"/>
<text text-anchor="middle" x="714" y="-62" font-family="Helvetica,sans-Serif" font-size="10.00">QMargins</text>
</a>
</g>
</g>
<!-- Node7&#45;&gt;Node14 -->
<g id="edge15_Node000007_Node000014" class="edge">
<title>Node7&#45;&gt;Node14</title>
<g id="a_edge15_Node000007_Node000014"><a xlink:title=" ">
<path fill="none" stroke="#63b8ff" d="M604.49,-109.99C628.52,-100.23 660.27,-87.33 683.4,-77.93"/>
<polygon fill="#63b8ff" stroke="#63b8ff" points="684.79,-81.15 692.73,-74.14 682.15,-74.66 684.79,-81.15"/>
</a>
</g>
</g>
<!-- Node8&#45;&gt;Node9 -->
<g id="edge8_Node000008_Node000009" class="edge">
<title>Node8&#45;&gt;Node9</title>
<g id="a_edge8_Node000008_Node000009"><a xlink:title=" ">
<path fill="none" stroke="#63b8ff" d="M326.7,-54.98C312.9,-46.77 291.76,-34.18 275.49,-24.49"/>
<polygon fill="#63b8ff" stroke="#63b8ff" points="276.94,-21.28 266.56,-19.17 273.36,-27.29 276.94,-21.28"/>
</a>
</g>
</g>
<!-- Node8&#45;&gt;Node10 -->
<g id="edge9_Node000008_Node000010" class="edge">
<title>Node8&#45;&gt;Node10</title>
<g id="a_edge9_Node000008_Node000010"><a xlink:title=" ">
<path fill="none" stroke="#63b8ff" d="M356.1,-54.98C370.82,-46.69 393.42,-33.94 410.67,-24.22"/>
<polygon fill="#63b8ff" stroke="#63b8ff" points="412.63,-27.13 419.62,-19.17 409.19,-21.03 412.63,-27.13"/>
</a>
</g>
</g>
<!-- Node11 -->
<g id="Node000011" class="node">
<title>Node11</title>
<g id="a_Node000011"><a xlink:title=" ">
<polygon fill="#e0e0e0" stroke="#999999" points="369,-19 313,-19 313,0 369,0 369,-19"/>
<text text-anchor="middle" x="341" y="-7" font-family="Helvetica,sans-Serif" font-size="10.00">QDialog</text>
</a>
</g>
</g>
<!-- Node8&#45;&gt;Node11 -->
<g id="edge10_Node000008_Node000011" class="edge">
<title>Node8&#45;&gt;Node11</title>
<g id="a_edge10_Node000008_Node000011"><a xlink:title=" ">
<path fill="none" stroke="#63b8ff" d="M341,-54.75C341,-47.8 341,-37.85 341,-29.13"/>
<polygon fill="#63b8ff" stroke="#63b8ff" points="344.5,-29.09 341,-19.09 337.5,-29.09 344.5,-29.09"/>
</a>
</g>
</g>
</g>
</svg>
