<?xml version="1.0" encoding="UTF-8" standalone="no"?>
<!DOCTYPE svg PUBLIC "-//W3C//DTD SVG 1.1//EN"
 "http://www.w3.org/Graphics/SVG/1.1/DTD/svg11.dtd">
<!-- Generated by graphviz version 2.43.0 (0)
 -->
<!-- Title: src/libs/vmisc/vlockguard.h Pages: 1 -->
<!--zoomable 214 -->

<svg id="main" version="1.1" xmlns="http://www.w3.org/2000/svg" xmlns:xlink="http://www.w3.org/1999/xlink" xml:space="preserve" onload="init(evt)">
<style type="text/css"><![CDATA[
.node, .edge {opacity: 0.7;}
.node.selected, .edge.selected {opacity: 1;}
.edge:hover path { stroke: red; }
.edge:hover polygon { stroke: red; fill: red; }
]]></style>

<defs>
  <circle id="rim" cx="0" cy="0" r="7"/>
  <circle id="rim2" cx="0" cy="0" r="3.5"/>
  <g id="zoomPlus">
    <use xlink:href="#rim" fill="#404040"><set attributeName="fill" to="#808080" begin="zoomplus.mouseover" end="zoomplus.mouseout"/></use>
    <path d="M-4,0h8M0,-4v8" fill="none" stroke="white" stroke-width="1.5" pointer-events="none"/>
  </g>
  <g id="zoomMin">
    <use xlink:href="#rim" fill="#404040"><set attributeName="fill" to="#808080" begin="zoomminus.mouseover" end="zoomminus.mouseout"/></use>
    <path d="M-4,0h8" fill="none" stroke="white" stroke-width="1.5" pointer-events="none"/>
  </g>
  <g id="arrowUp" transform="translate(30 24)">
    <use xlink:href="#rim"/>
    <path pointer-events="none" fill="none" stroke="white" stroke-width="1.5" d="M0,-3.0v7 M-2.5,-0.5L0,-3.0L2.5,-0.5"/>
  </g>
  <g id="arrowRight" transform="rotate(90) translate(36 -43)">
    <use xlink:href="#rim"/>
    <path pointer-events="none" fill="none" stroke="white" stroke-width="1.5" d="M0,-3.0v7 M-2.5,-0.5L0,-3.0L2.5,-0.5"/>
  </g>
  <g id="arrowDown" transform="rotate(180) translate(-30 -48)">
    <use xlink:href="#rim"/>
    <path pointer-events="none" fill="none" stroke="white" stroke-width="1.5" d="M0,-3.0v7 M-2.5,-0.5L0,-3.0L2.5,-0.5"/>
  </g>
  <g id="arrowLeft" transform="rotate(270) translate(-36 17)">
    <use xlink:href="#rim"/>
    <path pointer-events="none" fill="none" stroke="white" stroke-width="1.5" d="M0,-3.0v7 M-2.5,-0.5L0,-3.0L2.5,-0.5"/>
  </g>
  <g id="resetDef">
    <use xlink:href="#rim2" fill="#404040"><set attributeName="fill" to="#808080" begin="reset.mouseover" end="reset.mouseout"/></use>
  </g>
</defs>
<script type="application/ecmascript">
var viewWidth = 5847;
var viewHeight = 214;
var sectionId = 'dynsection-1';
</script>
<script type="application/ecmascript" xlink:href="../../svg.min.js"/>
<svg id="graph" class="graph">
<g id="viewport">
<title>src/libs/vmisc/vlockguard.h</title>
<!-- Node1 -->
<g id="Node000001" class="node">
<title>Node1</title>
<g id="a_Node000001"><a xlink:title=" ">
<polygon fill="#999999" stroke="#666666" points="2601,-206 2452,-206 2452,-187 2601,-187 2601,-206"/>
<text text-anchor="middle" x="2526.5" y="-194" font-family="Helvetica,sans-Serif" font-size="10.00">src/libs/vmisc/vlockguard.h</text>
</a>
</g>
</g>
<!-- Node2 -->
<g id="Node000002" class="node">
<title>Node2</title>
<g id="a_Node000002"><a xlink:href="../../d5/d74/vabstractapplication_8h.html" target="_top" xlink:title=" ">
<polygon fill="white" stroke="#666666" points="2624,-151 2429,-151 2429,-132 2624,-132 2624,-151"/>
<text text-anchor="middle" x="2526.5" y="-139" font-family="Helvetica,sans-Serif" font-size="10.00">src/libs/vmisc/vabstractapplication.h</text>
</a>
</g>
</g>
<!-- Node1&#45;&gt;Node2 -->
<g id="edge1_Node000001_Node000002" class="edge">
<title>Node1&#45;&gt;Node2</title>
<g id="a_edge1_Node000001_Node000002"><a xlink:title=" ">
<path fill="none" stroke="#63b8ff" d="M2526.5,-176.66C2526.5,-167.93 2526.5,-157.99 2526.5,-151.09"/>
<polygon fill="#63b8ff" stroke="#63b8ff" points="2523,-176.75 2526.5,-186.75 2530,-176.75 2523,-176.75"/>
</a>
</g>
</g>
<!-- Node3 -->
<g id="Node000003" class="node">
<title>Node3</title>
<g id="a_Node000003"><a xlink:href="../../d4/d90/fvupdater_8cpp.html" target="_top" xlink:title=" ">
<polygon fill="white" stroke="#666666" points="153,-90.5 0,-90.5 0,-71.5 153,-71.5 153,-90.5"/>
<text text-anchor="middle" x="76.5" y="-78.5" font-family="Helvetica,sans-Serif" font-size="10.00">src/libs/fervor/fvupdater.cpp</text>
</a>
</g>
</g>
<!-- Node2&#45;&gt;Node3 -->
<g id="edge2_Node000002_Node000003" class="edge">
<title>Node2&#45;&gt;Node3</title>
<g id="a_edge2_Node000002_Node000003"><a xlink:title=" ">
<path fill="none" stroke="#63b8ff" d="M2418.53,-140.54C2016.76,-140.37 608.53,-136.8 161.5,-96 148.24,-94.79 133.93,-92.73 120.9,-90.56"/>
<polygon fill="#63b8ff" stroke="#63b8ff" points="2418.69,-144.04 2428.69,-140.54 2418.69,-137.04 2418.69,-144.04"/>
</a>
</g>
</g>
<!-- Node4 -->
<g id="Node000004" class="node">
<title>Node4</title>
<g id="a_Node000004"><a xlink:href="../../d9/dc8/dxiface_8cpp.html" target="_top" xlink:title=" ">
<polygon fill="white" stroke="#666666" points="306,-90.5 171,-90.5 171,-71.5 306,-71.5 306,-90.5"/>
<text text-anchor="middle" x="238.5" y="-78.5" font-family="Helvetica,sans-Serif" font-size="10.00">src/libs/vdxf/dxiface.cpp</text>
</a>
</g>
</g>
<!-- Node2&#45;&gt;Node4 -->
<g id="edge3_Node000002_Node000004" class="edge">
<title>Node2&#45;&gt;Node4</title>
<g id="a_edge3_Node000002_Node000004"><a xlink:title=" ">
<path fill="none" stroke="#63b8ff" d="M2418.72,-140.65C2034.07,-140.8 729.74,-138.14 314.5,-96 302.62,-94.79 289.82,-92.73 278.16,-90.56"/>
<polygon fill="#63b8ff" stroke="#63b8ff" points="2418.73,-144.15 2428.73,-140.64 2418.73,-137.15 2418.73,-144.15"/>
</a>
</g>
</g>
<!-- Node5 -->
<g id="Node000005" class="node">
<title>Node5</title>
<g id="a_Node000005"><a xlink:href="../../da/d75/vabstractarc__p_8h.html" target="_top" xlink:title=" ">
<polygon fill="white" stroke="#666666" points="431,-96 324,-96 324,-66 431,-66 431,-96"/>
<text text-anchor="start" x="332" y="-84" font-family="Helvetica,sans-Serif" font-size="10.00">src/libs/vgeometry</text>
<text text-anchor="middle" x="377.5" y="-73" font-family="Helvetica,sans-Serif" font-size="10.00">/vabstractarc_p.h</text>
</a>
</g>
</g>
<!-- Node2&#45;&gt;Node5 -->
<g id="edge4_Node000002_Node000005" class="edge">
<title>Node2&#45;&gt;Node5</title>
<g id="a_edge4_Node000002_Node000005"><a xlink:title=" ">
<path fill="none" stroke="#63b8ff" d="M2418.9,-139.47C2019.67,-135.48 636.16,-120.05 439.5,-96 436.76,-95.67 433.97,-95.26 431.15,-94.81"/>
<polygon fill="#63b8ff" stroke="#63b8ff" points="2418.97,-142.97 2429,-139.57 2419.04,-135.97 2418.97,-142.97"/>
</a>
</g>
</g>
<!-- Node7 -->
<g id="Node000007" class="node">
<title>Node7</title>
<g id="a_Node000007"><a xlink:href="../../dc/da3/varc__p_8h.html" target="_top" xlink:title=" ">
<polygon fill="white" stroke="#666666" points="556,-96 449,-96 449,-66 556,-66 556,-96"/>
<text text-anchor="start" x="457" y="-84" font-family="Helvetica,sans-Serif" font-size="10.00">src/libs/vgeometry</text>
<text text-anchor="middle" x="502.5" y="-73" font-family="Helvetica,sans-Serif" font-size="10.00">/varc_p.h</text>
</a>
</g>
</g>
<!-- Node2&#45;&gt;Node7 -->
<g id="edge6_Node000002_Node000007" class="edge">
<title>Node2&#45;&gt;Node7</title>
<g id="a_edge6_Node000002_Node000007"><a xlink:title=" ">
<path fill="none" stroke="#63b8ff" d="M2418.67,-140.88C2062.81,-141.71 927.71,-140.67 564.5,-96 561.76,-95.66 558.97,-95.26 556.15,-94.8"/>
<polygon fill="#63b8ff" stroke="#63b8ff" points="2418.73,-144.38 2428.72,-140.86 2418.71,-137.38 2418.73,-144.38"/>
</a>
</g>
</g>
<!-- Node9 -->
<g id="Node000009" class="node">
<title>Node9</title>
<g id="a_Node000009"><a xlink:href="../../d5/d8e/vcubicbezier__p_8h.html" target="_top" xlink:title=" ">
<polygon fill="white" stroke="#666666" points="681,-96 574,-96 574,-66 681,-66 681,-96"/>
<text text-anchor="start" x="582" y="-84" font-family="Helvetica,sans-Serif" font-size="10.00">src/libs/vgeometry</text>
<text text-anchor="middle" x="627.5" y="-73" font-family="Helvetica,sans-Serif" font-size="10.00">/vcubicbezier_p.h</text>
</a>
</g>
</g>
<!-- Node2&#45;&gt;Node9 -->
<g id="edge8_Node000002_Node000009" class="edge">
<title>Node2&#45;&gt;Node9</title>
<g id="a_edge8_Node000002_Node000009"><a xlink:title=" ">
<path fill="none" stroke="#63b8ff" d="M2418.7,-140.41C2078.84,-139.72 1032.4,-134.46 695.5,-96 690.83,-95.47 686,-94.77 681.18,-93.97"/>
<polygon fill="#63b8ff" stroke="#63b8ff" points="2418.79,-143.91 2428.79,-140.43 2418.8,-136.91 2418.79,-143.91"/>
</a>
</g>
</g>
<!-- Node11 -->
<g id="Node000011" class="node">
<title>Node11</title>
<g id="a_Node000011"><a xlink:href="../../d6/dfb/vellipticalarc_8cpp.html" target="_top" xlink:title=" ">
<polygon fill="white" stroke="#666666" points="826,-30 719,-30 719,0 826,0 826,-30"/>
<text text-anchor="start" x="727" y="-18" font-family="Helvetica,sans-Serif" font-size="10.00">src/libs/vgeometry</text>
<text text-anchor="middle" x="772.5" y="-7" font-family="Helvetica,sans-Serif" font-size="10.00">/vellipticalarc.cpp</text>
</a>
</g>
</g>
<!-- Node2&#45;&gt;Node11 -->
<g id="edge10_Node000002_Node000011" class="edge">
<title>Node2&#45;&gt;Node11</title>
<g id="a_edge10_Node000002_Node000011"><a xlink:title=" ">
<path fill="none" stroke="#63b8ff" d="M2418.51,-139.84C2034.75,-137.26 758.13,-126.38 728.5,-96 709.57,-76.6 735.56,-47.42 754.91,-30.19"/>
<polygon fill="#63b8ff" stroke="#63b8ff" points="2418.76,-143.34 2428.78,-139.91 2418.8,-136.35 2418.76,-143.34"/>
</a>
</g>
</g>
<!-- Node12 -->
<g id="Node000012" class="node">
<title>Node12</title>
<g id="a_Node000012"><a xlink:href="../../df/dde/vellipticalarc__p_8h.html" target="_top" xlink:title=" ">
<polygon fill="white" stroke="#666666" points="845,-96 738,-96 738,-66 845,-66 845,-96"/>
<text text-anchor="start" x="746" y="-84" font-family="Helvetica,sans-Serif" font-size="10.00">src/libs/vgeometry</text>
<text text-anchor="middle" x="791.5" y="-73" font-family="Helvetica,sans-Serif" font-size="10.00">/vellipticalarc_p.h</text>
</a>
</g>
</g>
<!-- Node2&#45;&gt;Node12 -->
<g id="edge11_Node000002_Node000012" class="edge">
<title>Node2&#45;&gt;Node12</title>
<g id="a_edge11_Node000002_Node000012"><a xlink:title=" ">
<path fill="none" stroke="#63b8ff" d="M2418.73,-140.38C2098.8,-139.61 1157.97,-134.05 853.5,-96 850.76,-95.66 847.97,-95.25 845.16,-94.79"/>
<polygon fill="#63b8ff" stroke="#63b8ff" points="2418.92,-143.88 2428.93,-140.41 2418.94,-136.88 2418.92,-143.88"/>
</a>
</g>
</g>
<!-- Node13 -->
<g id="Node000013" class="node">
<title>Node13</title>
<g id="a_Node000013"><a xlink:href="../../d1/d76/vspline__p_8h.html" target="_top" xlink:title=" ">
<polygon fill="white" stroke="#666666" points="970,-96 863,-96 863,-66 970,-66 970,-96"/>
<text text-anchor="start" x="871" y="-84" font-family="Helvetica,sans-Serif" font-size="10.00">src/libs/vgeometry</text>
<text text-anchor="middle" x="916.5" y="-73" font-family="Helvetica,sans-Serif" font-size="10.00">/vspline_p.h</text>
</a>
</g>
</g>
<!-- Node2&#45;&gt;Node13 -->
<g id="edge13_Node000002_Node000013" class="edge">
<title>Node2&#45;&gt;Node13</title>
<g id="a_edge13_Node000002_Node000013"><a xlink:title=" ">
<path fill="none" stroke="#63b8ff" d="M2418.74,-140.06C2115.45,-138.41 1258.55,-130.7 979.5,-96 976.5,-95.63 973.43,-95.18 970.34,-94.67"/>
<polygon fill="#63b8ff" stroke="#63b8ff" points="2418.84,-143.56 2428.86,-140.12 2418.88,-136.56 2418.84,-143.56"/>
</a>
</g>
</g>
<!-- Node15 -->
<g id="Node000015" class="node">
<title>Node15</title>
<g id="a_Node000015"><a xlink:href="../../d9/d15/vabstractpiece_8cpp.html" target="_top" xlink:title=" ">
<polygon fill="white" stroke="#666666" points="1174.5,-90.5 988.5,-90.5 988.5,-71.5 1174.5,-71.5 1174.5,-90.5"/>
<text text-anchor="middle" x="1081.5" y="-78.5" font-family="Helvetica,sans-Serif" font-size="10.00">src/libs/vlayout/vabstractpiece.cpp</text>
</a>
</g>
</g>
<!-- Node2&#45;&gt;Node15 -->
<g id="edge15_Node000002_Node000015" class="edge">
<title>Node2&#45;&gt;Node15</title>
<g id="a_edge15_Node000002_Node000015"><a xlink:title=" ">
<path fill="none" stroke="#63b8ff" d="M2418.6,-140.75C2190.14,-140.44 1640.96,-135.26 1182.5,-96 1167.16,-94.69 1150.58,-92.65 1135.37,-90.53"/>
<polygon fill="#63b8ff" stroke="#63b8ff" points="2418.9,-144.25 2428.9,-140.76 2418.9,-137.25 2418.9,-144.25"/>
</a>
</g>
</g>
<!-- Node16 -->
<g id="Node000016" class="node">
<title>Node16</title>
<g id="a_Node000016"><a xlink:href="../../dd/d70/vlayoutpiece_8cpp.html" target="_top" xlink:title=" ">
<polygon fill="white" stroke="#666666" points="1369,-90.5 1192,-90.5 1192,-71.5 1369,-71.5 1369,-90.5"/>
<text text-anchor="middle" x="1280.5" y="-78.5" font-family="Helvetica,sans-Serif" font-size="10.00">src/libs/vlayout/vlayoutpiece.cpp</text>
</a>
</g>
</g>
<!-- Node2&#45;&gt;Node16 -->
<g id="edge16_Node000002_Node000016" class="edge">
<title>Node2&#45;&gt;Node16</title>
<g id="a_edge16_Node000002_Node000016"><a xlink:title=" ">
<path fill="none" stroke="#63b8ff" d="M2418.66,-140.02C2214.99,-138.3 1759.91,-130.54 1378.5,-96 1363.69,-94.66 1347.71,-92.63 1333.02,-90.52"/>
<polygon fill="#63b8ff" stroke="#63b8ff" points="2418.73,-143.52 2428.76,-140.11 2418.79,-136.52 2418.73,-143.52"/>
</a>
</g>
</g>
<!-- Node17 -->
<g id="Node000017" class="node">
<title>Node17</title>
<g id="a_Node000017"><a xlink:href="../../d8/d70/vtextmanager_8cpp.html" target="_top" xlink:title=" ">
<polygon fill="white" stroke="#666666" points="1569.5,-90.5 1387.5,-90.5 1387.5,-71.5 1569.5,-71.5 1569.5,-90.5"/>
<text text-anchor="middle" x="1478.5" y="-78.5" font-family="Helvetica,sans-Serif" font-size="10.00">src/libs/vlayout/vtextmanager.cpp</text>
</a>
</g>
</g>
<!-- Node2&#45;&gt;Node17 -->
<g id="edge17_Node000002_Node000017" class="edge">
<title>Node2&#45;&gt;Node17</title>
<g id="a_edge17_Node000002_Node000017"><a xlink:title=" ">
<path fill="none" stroke="#63b8ff" d="M2418.67,-138.67C2242.53,-134.96 1882.25,-124.33 1578.5,-96 1563.58,-94.61 1547.47,-92.58 1532.63,-90.51"/>
<polygon fill="#63b8ff" stroke="#63b8ff" points="2418.65,-142.17 2428.72,-138.88 2418.79,-135.17 2418.65,-142.17"/>
</a>
</g>
</g>
<!-- Node18 -->
<g id="Node000018" class="node">
<title>Node18</title>
<g id="a_Node000018"><a xlink:href="../../d6/d0b/def_8cpp.html" target="_top" xlink:title=" ">
<polygon fill="white" stroke="#666666" points="1709.5,-90.5 1587.5,-90.5 1587.5,-71.5 1709.5,-71.5 1709.5,-90.5"/>
<text text-anchor="middle" x="1648.5" y="-78.5" font-family="Helvetica,sans-Serif" font-size="10.00">src/libs/vmisc/def.cpp</text>
</a>
</g>
</g>
<!-- Node2&#45;&gt;Node18 -->
<g id="edge18_Node000002_Node000018" class="edge">
<title>Node2&#45;&gt;Node18</title>
<g id="a_edge18_Node000002_Node000018"><a xlink:title=" ">
<path fill="none" stroke="#63b8ff" d="M2418.75,-139.43C2263.43,-136.79 1967.9,-127.64 1718.5,-96 1707.93,-94.66 1696.56,-92.64 1686.12,-90.55"/>
<polygon fill="#63b8ff" stroke="#63b8ff" points="2418.71,-142.93 2428.77,-139.6 2418.83,-135.93 2418.71,-142.93"/>
</a>
</g>
</g>
<!-- Node19 -->
<g id="Node000019" class="node">
<title>Node19</title>
<g id="a_Node000019"><a xlink:href="../../db/d65/dialogexporttocsv_8cpp.html" target="_top" xlink:title=" ">
<polygon fill="white" stroke="#666666" points="1855,-96 1728,-96 1728,-66 1855,-66 1855,-96"/>
<text text-anchor="start" x="1736" y="-84" font-family="Helvetica,sans-Serif" font-size="10.00">src/libs/vmisc/dialogs</text>
<text text-anchor="middle" x="1791.5" y="-73" font-family="Helvetica,sans-Serif" font-size="10.00">/dialogexporttocsv.cpp</text>
</a>
</g>
</g>
<!-- Node2&#45;&gt;Node19 -->
<g id="edge19_Node000002_Node000019" class="edge">
<title>Node2&#45;&gt;Node19</title>
<g id="a_edge19_Node000002_Node000019"><a xlink:title=" ">
<path fill="none" stroke="#63b8ff" d="M2418.76,-137.31C2287.43,-132.48 2058.93,-121.08 1864.5,-96 1861.43,-95.6 1858.29,-95.16 1855.13,-94.68"/>
<polygon fill="#63b8ff" stroke="#63b8ff" points="2418.71,-140.81 2428.83,-137.67 2418.96,-133.81 2418.71,-140.81"/>
</a>
</g>
</g>
<!-- Node20 -->
<g id="Node000020" class="node">
<title>Node20</title>
<g id="a_Node000020"><a xlink:href="../../d0/df6/vabstractapplication_8cpp.html" target="_top" xlink:title=" ">
<polygon fill="white" stroke="#666666" points="2079.5,-90.5 1873.5,-90.5 1873.5,-71.5 2079.5,-71.5 2079.5,-90.5"/>
<text text-anchor="middle" x="1976.5" y="-78.5" font-family="Helvetica,sans-Serif" font-size="10.00">src/libs/vmisc/vabstractapplication.cpp</text>
</a>
</g>
</g>
<!-- Node2&#45;&gt;Node20 -->
<g id="edge20_Node000002_Node000020" class="edge">
<title>Node2&#45;&gt;Node20</title>
<g id="a_edge20_Node000002_Node000020"><a xlink:title=" ">
<path fill="none" stroke="#63b8ff" d="M2426.61,-131.01C2337.79,-122.42 2204.41,-109.13 2088.5,-96 2073.6,-94.31 2057.61,-92.38 2042.5,-90.51"/>
<polygon fill="#63b8ff" stroke="#63b8ff" points="2426.39,-134.51 2436.68,-131.99 2427.06,-127.54 2426.39,-134.51"/>
</a>
</g>
</g>
<!-- Node21 -->
<g id="Node000021" class="node">
<title>Node21</title>
<g id="a_Node000021"><a xlink:href="../../d4/d4f/pmsystems_8cpp.html" target="_top" xlink:title=" ">
<polygon fill="white" stroke="#666666" points="2205,-96 2098,-96 2098,-66 2205,-66 2205,-96"/>
<text text-anchor="start" x="2106" y="-84" font-family="Helvetica,sans-Serif" font-size="10.00">src/libs/vpatterndb</text>
<text text-anchor="middle" x="2151.5" y="-73" font-family="Helvetica,sans-Serif" font-size="10.00">/pmsystems.cpp</text>
</a>
</g>
</g>
<!-- Node2&#45;&gt;Node21 -->
<g id="edge21_Node000002_Node000021" class="edge">
<title>Node2&#45;&gt;Node21</title>
<g id="a_edge21_Node000002_Node000021"><a xlink:title=" ">
<path fill="none" stroke="#63b8ff" d="M2444.82,-130.73C2381.49,-122.7 2291.64,-110.35 2213.5,-96 2210.79,-95.5 2208.01,-94.97 2205.21,-94.41"/>
<polygon fill="#63b8ff" stroke="#63b8ff" points="2444.39,-134.2 2454.75,-131.98 2445.27,-127.25 2444.39,-134.2"/>
</a>
</g>
</g>
<!-- Node22 -->
<g id="Node000022" class="node">
<title>Node22</title>
<g id="a_Node000022"><a xlink:href="../../d6/d46/vcontainer_8cpp.html" target="_top" xlink:title=" ">
<polygon fill="white" stroke="#666666" points="2330,-96 2223,-96 2223,-66 2330,-66 2330,-96"/>
<text text-anchor="start" x="2231" y="-84" font-family="Helvetica,sans-Serif" font-size="10.00">src/libs/vpatterndb</text>
<text text-anchor="middle" x="2276.5" y="-73" font-family="Helvetica,sans-Serif" font-size="10.00">/vcontainer.cpp</text>
</a>
</g>
</g>
<!-- Node2&#45;&gt;Node22 -->
<g id="edge22_Node000002_Node000022" class="edge">
<title>Node2&#45;&gt;Node22</title>
<g id="a_edge22_Node000002_Node000022"><a xlink:title=" ">
<path fill="none" stroke="#63b8ff" d="M2480.37,-129.7C2437.97,-119.78 2375.12,-105.08 2330.42,-94.62"/>
<polygon fill="#63b8ff" stroke="#63b8ff" points="2479.61,-133.12 2490.15,-131.99 2481.21,-126.31 2479.61,-133.12"/>
</a>
</g>
</g>
<!-- Node23 -->
<g id="Node000023" class="node">
<title>Node23</title>
<g id="a_Node000023"><a xlink:href="../../db/d11/vformula_8cpp.html" target="_top" xlink:title=" ">
<polygon fill="white" stroke="#666666" points="2455,-96 2348,-96 2348,-66 2455,-66 2455,-96"/>
<text text-anchor="start" x="2356" y="-84" font-family="Helvetica,sans-Serif" font-size="10.00">src/libs/vpatterndb</text>
<text text-anchor="middle" x="2401.5" y="-73" font-family="Helvetica,sans-Serif" font-size="10.00">/vformula.cpp</text>
</a>
</g>
</g>
<!-- Node2&#45;&gt;Node23 -->
<g id="edge23_Node000002_Node000023" class="edge">
<title>Node2&#45;&gt;Node23</title>
<g id="a_edge23_Node000002_Node000023"><a xlink:title=" ">
<path fill="none" stroke="#63b8ff" d="M2499.18,-127.72C2479.29,-118.41 2452.35,-105.8 2431.79,-96.18"/>
<polygon fill="#63b8ff" stroke="#63b8ff" points="2497.78,-130.92 2508.32,-131.99 2500.75,-124.58 2497.78,-130.92"/>
</a>
</g>
</g>
<!-- Node24 -->
<g id="Node000024" class="node">
<title>Node24</title>
<g id="a_Node000024"><a xlink:href="../../df/d7a/vpiece_8cpp.html" target="_top" xlink:title=" ">
<polygon fill="white" stroke="#666666" points="2580,-96 2473,-96 2473,-66 2580,-66 2580,-96"/>
<text text-anchor="start" x="2481" y="-84" font-family="Helvetica,sans-Serif" font-size="10.00">src/libs/vpatterndb</text>
<text text-anchor="middle" x="2526.5" y="-73" font-family="Helvetica,sans-Serif" font-size="10.00">/vpiece.cpp</text>
</a>
</g>
</g>
<!-- Node2&#45;&gt;Node24 -->
<g id="edge24_Node000002_Node000024" class="edge">
<title>Node2&#45;&gt;Node24</title>
<g id="a_edge24_Node000002_Node000024"><a xlink:title=" ">
<path fill="none" stroke="#63b8ff" d="M2526.5,-121.65C2526.5,-113.36 2526.5,-103.78 2526.5,-96.11"/>
<polygon fill="#63b8ff" stroke="#63b8ff" points="2523,-121.87 2526.5,-131.87 2530,-121.87 2523,-121.87"/>
</a>
</g>
</g>
<!-- Node25 -->
<g id="Node000025" class="node">
<title>Node25</title>
<g id="a_Node000025"><a xlink:href="../../df/dba/vpiecenode__p_8h.html" target="_top" xlink:title=" ">
<polygon fill="white" stroke="#666666" points="2705,-96 2598,-96 2598,-66 2705,-66 2705,-96"/>
<text text-anchor="start" x="2606" y="-84" font-family="Helvetica,sans-Serif" font-size="10.00">src/libs/vpatterndb</text>
<text text-anchor="middle" x="2651.5" y="-73" font-family="Helvetica,sans-Serif" font-size="10.00">/vpiecenode_p.h</text>
</a>
</g>
</g>
<!-- Node2&#45;&gt;Node25 -->
<g id="edge25_Node000002_Node000025" class="edge">
<title>Node2&#45;&gt;Node25</title>
<g id="a_edge25_Node000002_Node000025"><a xlink:title=" ">
<path fill="none" stroke="#63b8ff" d="M2553.82,-127.72C2573.71,-118.41 2600.65,-105.8 2621.21,-96.18"/>
<polygon fill="#63b8ff" stroke="#63b8ff" points="2552.25,-124.58 2544.68,-131.99 2555.22,-130.92 2552.25,-124.58"/>
</a>
</g>
</g>
<!-- Node27 -->
<g id="Node000027" class="node">
<title>Node27</title>
<g id="a_Node000027"><a xlink:href="../../de/d3e/vtranslatevars_8cpp.html" target="_top" xlink:title=" ">
<polygon fill="white" stroke="#666666" points="2833.5,-96 2723.5,-96 2723.5,-66 2833.5,-66 2833.5,-96"/>
<text text-anchor="start" x="2731.5" y="-84" font-family="Helvetica,sans-Serif" font-size="10.00">src/libs/vpatterndb</text>
<text text-anchor="middle" x="2778.5" y="-73" font-family="Helvetica,sans-Serif" font-size="10.00">/vtranslatevars.cpp</text>
</a>
</g>
</g>
<!-- Node2&#45;&gt;Node27 -->
<g id="edge27_Node000002_Node000027" class="edge">
<title>Node2&#45;&gt;Node27</title>
<g id="a_edge27_Node000002_Node000027"><a xlink:title=" ">
<path fill="none" stroke="#63b8ff" d="M2572.94,-129.72C2615.37,-119.87 2678.19,-105.29 2723.2,-94.84"/>
<polygon fill="#63b8ff" stroke="#63b8ff" points="2572.09,-126.32 2563.14,-131.99 2573.68,-133.14 2572.09,-126.32"/>
</a>
</g>
</g>
<!-- Node28 -->
<g id="Node000028" class="node">
<title>Node28</title>
<g id="a_Node000028"><a xlink:href="../../df/d40/export__format__combobox_8cpp.html" target="_top" xlink:title=" ">
<polygon fill="white" stroke="#666666" points="2985,-96 2852,-96 2852,-66 2985,-66 2985,-96"/>
<text text-anchor="start" x="2860" y="-84" font-family="Helvetica,sans-Serif" font-size="10.00">src/libs/vwidgets/export</text>
<text text-anchor="middle" x="2918.5" y="-73" font-family="Helvetica,sans-Serif" font-size="10.00">_format_combobox.cpp</text>
</a>
</g>
</g>
<!-- Node2&#45;&gt;Node28 -->
<g id="edge28_Node000002_Node000028" class="edge">
<title>Node2&#45;&gt;Node28</title>
<g id="a_edge28_Node000002_Node000028"><a xlink:title=" ">
<path fill="none" stroke="#63b8ff" d="M2602.92,-130.66C2667.01,-122.19 2760.87,-109.26 2842.5,-96 2845.55,-95.51 2848.66,-94.99 2851.8,-94.45"/>
<polygon fill="#63b8ff" stroke="#63b8ff" points="2602.35,-127.2 2592.9,-131.98 2603.27,-134.14 2602.35,-127.2"/>
</a>
</g>
</g>
<!-- Node29 -->
<g id="Node000029" class="node">
<title>Node29</title>
<g id="a_Node000029"><a xlink:href="../../d3/d4f/mouse__coordinates_8cpp.html" target="_top" xlink:title=" ">
<polygon fill="white" stroke="#666666" points="3137.5,-96 3003.5,-96 3003.5,-66 3137.5,-66 3137.5,-96"/>
<text text-anchor="start" x="3011.5" y="-84" font-family="Helvetica,sans-Serif" font-size="10.00">src/libs/vwidgets/mouse</text>
<text text-anchor="middle" x="3070.5" y="-73" font-family="Helvetica,sans-Serif" font-size="10.00">_coordinates.cpp</text>
</a>
</g>
</g>
<!-- Node2&#45;&gt;Node29 -->
<g id="edge29_Node000002_Node000029" class="edge">
<title>Node2&#45;&gt;Node29</title>
<g id="a_edge29_Node000002_Node000029"><a xlink:title=" ">
<path fill="none" stroke="#63b8ff" d="M2634.24,-132.94C2729.3,-125.64 2871.47,-113.15 2994.5,-96 2997.42,-95.59 3000.41,-95.15 3003.41,-94.69"/>
<polygon fill="#63b8ff" stroke="#63b8ff" points="2633.75,-129.47 2624.04,-133.72 2634.28,-136.45 2633.75,-129.47"/>
</a>
</g>
</g>
<!-- Node30 -->
<g id="Node000030" class="node">
<title>Node30</title>
<g id="a_Node000030"><a xlink:href="../../d2/d28/page__format__combobox_8cpp.html" target="_top" xlink:title=" ">
<polygon fill="white" stroke="#666666" points="3287,-96 3156,-96 3156,-66 3287,-66 3287,-96"/>
<text text-anchor="start" x="3164" y="-84" font-family="Helvetica,sans-Serif" font-size="10.00">src/libs/vwidgets/page</text>
<text text-anchor="middle" x="3221.5" y="-73" font-family="Helvetica,sans-Serif" font-size="10.00">_format_combobox.cpp</text>
</a>
</g>
</g>
<!-- Node2&#45;&gt;Node30 -->
<g id="edge30_Node000002_Node000030" class="edge">
<title>Node2&#45;&gt;Node30</title>
<g id="a_edge30_Node000002_Node000030"><a xlink:title=" ">
<path fill="none" stroke="#63b8ff" d="M2634.27,-136.46C2758.24,-130.95 2967.7,-119.03 3146.5,-96 3149.52,-95.61 3152.61,-95.18 3155.72,-94.71"/>
<polygon fill="#63b8ff" stroke="#63b8ff" points="2633.86,-132.97 2624.02,-136.91 2634.17,-139.97 2633.86,-132.97"/>
</a>
</g>
</g>
<!-- Node31 -->
<g id="Node000031" class="node">
<title>Node31</title>
<g id="a_Node000031"><a xlink:href="../../d7/d1b/pen__toolbar_8cpp.html" target="_top" xlink:title=" ">
<polygon fill="white" stroke="#666666" points="3424,-96 3305,-96 3305,-66 3424,-66 3424,-96"/>
<text text-anchor="start" x="3313" y="-84" font-family="Helvetica,sans-Serif" font-size="10.00">src/libs/vwidgets/pen</text>
<text text-anchor="middle" x="3364.5" y="-73" font-family="Helvetica,sans-Serif" font-size="10.00">_toolbar.cpp</text>
</a>
</g>
</g>
<!-- Node2&#45;&gt;Node31 -->
<g id="edge31_Node000002_Node000031" class="edge">
<title>Node2&#45;&gt;Node31</title>
<g id="a_edge31_Node000002_Node000031"><a xlink:title=" ">
<path fill="none" stroke="#63b8ff" d="M2634.25,-139.2C2783.58,-136.28 3061.59,-126.8 3296.5,-96 3299.25,-95.64 3302.05,-95.23 3304.88,-94.79"/>
<polygon fill="#63b8ff" stroke="#63b8ff" points="2634.1,-135.7 2624.17,-139.39 2634.23,-142.7 2634.1,-135.7"/>
</a>
</g>
</g>
<!-- Node32 -->
<g id="Node000032" class="node">
<title>Node32</title>
<g id="a_Node000032"><a xlink:href="../../d8/d76/scene__rect_8cpp.html" target="_top" xlink:title=" ">
<polygon fill="white" stroke="#666666" points="3572.5,-96 3442.5,-96 3442.5,-66 3572.5,-66 3572.5,-96"/>
<text text-anchor="start" x="3450.5" y="-84" font-family="Helvetica,sans-Serif" font-size="10.00">src/libs/vwidgets/scene</text>
<text text-anchor="middle" x="3507.5" y="-73" font-family="Helvetica,sans-Serif" font-size="10.00">_rect.cpp</text>
</a>
</g>
</g>
<!-- Node2&#45;&gt;Node32 -->
<g id="edge32_Node000002_Node000032" class="edge">
<title>Node2&#45;&gt;Node32</title>
<g id="a_edge32_Node000002_Node000032"><a xlink:title=" ">
<path fill="none" stroke="#63b8ff" d="M2634.4,-140.01C2804.76,-138.15 3146.21,-130.06 3433.5,-96 3436.36,-95.66 3439.27,-95.28 3442.21,-94.86"/>
<polygon fill="#63b8ff" stroke="#63b8ff" points="2634.14,-136.51 2624.18,-140.12 2634.22,-143.51 2634.14,-136.51"/>
</a>
</g>
</g>
<!-- Node33 -->
<g id="Node000033" class="node">
<title>Node33</title>
<g id="a_Node000033"><a xlink:href="../../dd/df6/vabstractmainwindow_8cpp.html" target="_top" xlink:title=" ">
<polygon fill="white" stroke="#666666" points="3820,-90.5 3591,-90.5 3591,-71.5 3820,-71.5 3820,-90.5"/>
<text text-anchor="middle" x="3705.5" y="-78.5" font-family="Helvetica,sans-Serif" font-size="10.00">src/libs/vwidgets/vabstractmainwindow.cpp</text>
</a>
</g>
</g>
<!-- Node2&#45;&gt;Node33 -->
<g id="edge33_Node000002_Node000033" class="edge">
<title>Node2&#45;&gt;Node33</title>
<g id="a_edge33_Node000002_Node000033"><a xlink:title=" ">
<path fill="none" stroke="#63b8ff" d="M2634.13,-138.46C2825.14,-134.27 3235.84,-122.77 3581.5,-96 3599.75,-94.59 3619.46,-92.58 3637.69,-90.53"/>
<polygon fill="#63b8ff" stroke="#63b8ff" points="2634.01,-134.96 2624.09,-138.67 2634.16,-141.96 2634.01,-134.96"/>
</a>
</g>
</g>
<!-- Node34 -->
<g id="Node000034" class="node">
<title>Node34</title>
<g id="a_Node000034"><a xlink:href="../../de/d45/vcontrolpointspline_8cpp.html" target="_top" xlink:title=" ">
<polygon fill="white" stroke="#666666" points="4053,-90.5 3838,-90.5 3838,-71.5 4053,-71.5 4053,-90.5"/>
<text text-anchor="middle" x="3945.5" y="-78.5" font-family="Helvetica,sans-Serif" font-size="10.00">src/libs/vwidgets/vcontrolpointspline.cpp</text>
</a>
</g>
</g>
<!-- Node2&#45;&gt;Node34 -->
<g id="edge34_Node000002_Node000034" class="edge">
<title>Node2&#45;&gt;Node34</title>
<g id="a_edge34_Node000002_Node000034"><a xlink:title=" ">
<path fill="none" stroke="#63b8ff" d="M2634.4,-139.95C2857.77,-138.12 3386.93,-130.2 3829.5,-96 3846.99,-94.65 3865.91,-92.61 3883.29,-90.51"/>
<polygon fill="#63b8ff" stroke="#63b8ff" points="2634.3,-136.45 2624.32,-140.03 2634.35,-143.45 2634.3,-136.45"/>
</a>
</g>
</g>
<!-- Node35 -->
<g id="Node000035" class="node">
<title>Node35</title>
<g id="a_Node000035"><a xlink:href="../../d1/d90/vgrainlineitem_8cpp.html" target="_top" xlink:title=" ">
<polygon fill="white" stroke="#666666" points="4264,-90.5 4071,-90.5 4071,-71.5 4264,-71.5 4264,-90.5"/>
<text text-anchor="middle" x="4167.5" y="-78.5" font-family="Helvetica,sans-Serif" font-size="10.00">src/libs/vwidgets/vgrainlineitem.cpp</text>
</a>
</g>
</g>
<!-- Node2&#45;&gt;Node35 -->
<g id="edge35_Node000002_Node000035" class="edge">
<title>Node2&#45;&gt;Node35</title>
<g id="a_edge35_Node000002_Node000035"><a xlink:title=" ">
<path fill="none" stroke="#63b8ff" d="M2634.39,-141.21C2885.38,-142.02 3527.79,-139.28 4062.5,-96 4078.54,-94.7 4095.88,-92.66 4111.76,-90.52"/>
<polygon fill="#63b8ff" stroke="#63b8ff" points="2634.19,-137.71 2624.18,-141.17 2634.17,-144.71 2634.19,-137.71"/>
</a>
</g>
</g>
<!-- Node36 -->
<g id="Node000036" class="node">
<title>Node36</title>
<g id="a_Node000036"><a xlink:href="../../de/dec/vgraphicssimpletextitem_8cpp.html" target="_top" xlink:title=" ">
<polygon fill="white" stroke="#666666" points="4526.5,-90.5 4282.5,-90.5 4282.5,-71.5 4526.5,-71.5 4526.5,-90.5"/>
<text text-anchor="middle" x="4404.5" y="-78.5" font-family="Helvetica,sans-Serif" font-size="10.00">src/libs/vwidgets/vgraphicssimpletextitem.cpp</text>
</a>
</g>
</g>
<!-- Node2&#45;&gt;Node36 -->
<g id="edge36_Node000002_Node000036" class="edge">
<title>Node2&#45;&gt;Node36</title>
<g id="a_edge36_Node000002_Node000036"><a xlink:title=" ">
<path fill="none" stroke="#63b8ff" d="M2634.51,-140.79C2908.74,-140.86 3654.04,-136.92 4273.5,-96 4293.36,-94.69 4314.85,-92.65 4334.57,-90.53"/>
<polygon fill="#63b8ff" stroke="#63b8ff" points="2634.17,-137.29 2624.17,-140.78 2634.17,-144.29 2634.17,-137.29"/>
</a>
</g>
</g>
<!-- Node37 -->
<g id="Node000037" class="node">
<title>Node37</title>
<g id="a_Node000037"><a xlink:href="../../d1/d88/vmaingraphicsscene_8cpp.html" target="_top" xlink:title=" ">
<polygon fill="white" stroke="#666666" points="4766.5,-90.5 4544.5,-90.5 4544.5,-71.5 4766.5,-71.5 4766.5,-90.5"/>
<text text-anchor="middle" x="4655.5" y="-78.5" font-family="Helvetica,sans-Serif" font-size="10.00">src/libs/vwidgets/vmaingraphicsscene.cpp</text>
</a>
</g>
</g>
<!-- Node2&#45;&gt;Node37 -->
<g id="edge37_Node000002_Node000037" class="edge">
<title>Node2&#45;&gt;Node37</title>
<g id="a_edge37_Node000002_Node000037"><a xlink:title=" ">
<path fill="none" stroke="#63b8ff" d="M2634.26,-139.45C2995.33,-135.73 4160.83,-121.95 4535.5,-96 4553.91,-94.72 4573.85,-92.67 4592.08,-90.53"/>
<polygon fill="#63b8ff" stroke="#63b8ff" points="2634.03,-135.95 2624.07,-139.56 2634.1,-142.95 2634.03,-135.95"/>
</a>
</g>
</g>
<!-- Node38 -->
<g id="Node000038" class="node">
<title>Node38</title>
<g id="a_Node000038"><a xlink:href="../../d2/d31/vmaingraphicsview_8cpp.html" target="_top" xlink:title=" ">
<polygon fill="white" stroke="#666666" points="5000.5,-90.5 4784.5,-90.5 4784.5,-71.5 5000.5,-71.5 5000.5,-90.5"/>
<text text-anchor="middle" x="4892.5" y="-78.5" font-family="Helvetica,sans-Serif" font-size="10.00">src/libs/vwidgets/vmaingraphicsview.cpp</text>
</a>
</g>
</g>
<!-- Node2&#45;&gt;Node38 -->
<g id="edge38_Node000002_Node000038" class="edge">
<title>Node2&#45;&gt;Node38</title>
<g id="a_edge38_Node000002_Node000038"><a xlink:title=" ">
<path fill="none" stroke="#63b8ff" d="M2634.34,-139.79C3023.04,-137 4351.57,-125.48 4775.5,-96 4793.56,-94.74 4813.12,-92.68 4830.98,-90.52"/>
<polygon fill="#63b8ff" stroke="#63b8ff" points="2634.2,-136.29 2624.22,-139.86 2634.25,-143.29 2634.2,-136.29"/>
</a>
</g>
</g>
<!-- Node39 -->
<g id="Node000039" class="node">
<title>Node39</title>
<g id="a_Node000039"><a xlink:href="../../d0/d5d/vscenepoint_8cpp.html" target="_top" xlink:title=" ">
<polygon fill="white" stroke="#666666" points="5200,-90.5 5019,-90.5 5019,-71.5 5200,-71.5 5200,-90.5"/>
<text text-anchor="middle" x="5109.5" y="-78.5" font-family="Helvetica,sans-Serif" font-size="10.00">src/libs/vwidgets/vscenepoint.cpp</text>
</a>
</g>
</g>
<!-- Node2&#45;&gt;Node39 -->
<g id="edge39_Node000002_Node000039" class="edge">
<title>Node2&#45;&gt;Node39</title>
<g id="a_edge39_Node000002_Node000039"><a xlink:title=" ">
<path fill="none" stroke="#63b8ff" d="M2634.2,-140.31C3048.2,-139.3 4537.56,-133.13 5009.5,-96 5025.14,-94.77 5042.07,-92.69 5057.47,-90.5"/>
<polygon fill="#63b8ff" stroke="#63b8ff" points="2634.03,-136.81 2624.03,-140.33 2634.04,-143.81 2634.03,-136.81"/>
</a>
</g>
</g>
<!-- Node40 -->
<g id="Node000040" class="node">
<title>Node40</title>
<g id="a_Node000040"><a xlink:href="../../de/d22/vsimplecurve_8cpp.html" target="_top" xlink:title=" ">
<polygon fill="white" stroke="#666666" points="5406.5,-90.5 5218.5,-90.5 5218.5,-71.5 5406.5,-71.5 5406.5,-90.5"/>
<text text-anchor="middle" x="5312.5" y="-78.5" font-family="Helvetica,sans-Serif" font-size="10.00">src/libs/vwidgets/vsimplecurve.cpp</text>
</a>
</g>
</g>
<!-- Node2&#45;&gt;Node40 -->
<g id="edge40_Node000002_Node000040" class="edge">
<title>Node2&#45;&gt;Node40</title>
<g id="a_edge40_Node000002_Node000040"><a xlink:title=" ">
<path fill="none" stroke="#63b8ff" d="M2634.4,-140.42C3069.48,-139.83 4696.18,-135 5209.5,-96 5225.61,-94.78 5243.04,-92.7 5258.9,-90.51"/>
<polygon fill="#63b8ff" stroke="#63b8ff" points="2634.34,-136.92 2624.34,-140.43 2634.35,-143.92 2634.34,-136.92"/>
</a>
</g>
</g>
<!-- Node41 -->
<g id="Node000041" class="node">
<title>Node41</title>
<g id="a_Node000041"><a xlink:href="../../df/d38/vsimplepoint_8cpp.html" target="_top" xlink:title=" ">
<polygon fill="white" stroke="#666666" points="5610,-90.5 5425,-90.5 5425,-71.5 5610,-71.5 5610,-90.5"/>
<text text-anchor="middle" x="5517.5" y="-78.5" font-family="Helvetica,sans-Serif" font-size="10.00">src/libs/vwidgets/vsimplepoint.cpp</text>
</a>
</g>
</g>
<!-- Node2&#45;&gt;Node41 -->
<g id="edge41_Node000002_Node000041" class="edge">
<title>Node2&#45;&gt;Node41</title>
<g id="a_edge41_Node000002_Node000041"><a xlink:title=" ">
<path fill="none" stroke="#63b8ff" d="M2634.2,-140.59C3089.62,-140.69 4859.39,-138.29 5415.5,-96 5431.45,-94.79 5448.72,-92.71 5464.43,-90.52"/>
<polygon fill="#63b8ff" stroke="#63b8ff" points="2634.01,-137.09 2624.01,-140.58 2634.01,-144.09 2634.01,-137.09"/>
</a>
</g>
</g>
<!-- Node42 -->
<g id="Node000042" class="node">
<title>Node42</title>
<g id="a_Node000042"><a xlink:href="../../df/df5/vtextgraphicsitem_8cpp.html" target="_top" xlink:title=" ">
<polygon fill="white" stroke="#666666" points="5839,-90.5 5628,-90.5 5628,-71.5 5839,-71.5 5839,-90.5"/>
<text text-anchor="middle" x="5733.5" y="-78.5" font-family="Helvetica,sans-Serif" font-size="10.00">src/libs/vwidgets/vtextgraphicsitem.cpp</text>
</a>
</g>
</g>
<!-- Node2&#45;&gt;Node42 -->
<g id="edge42_Node000002_Node000042" class="edge">
<title>Node2&#45;&gt;Node42</title>
<g id="a_edge42_Node000002_Node000042"><a xlink:title=" ">
<path fill="none" stroke="#63b8ff" d="M2634.6,-140.51C3110.37,-140.32 5020.83,-136.95 5619.5,-96 5637.31,-94.78 5656.59,-92.7 5674.15,-90.52"/>
<polygon fill="#63b8ff" stroke="#63b8ff" points="2634.3,-137.01 2624.3,-140.51 2634.3,-144.01 2634.3,-137.01"/>
</a>
</g>
</g>
<!-- Node6 -->
<g id="Node000006" class="node">
<title>Node6</title>
<g id="a_Node000006"><a xlink:href="../../d4/da1/vabstractarc_8cpp.html" target="_top" xlink:title=" ">
<polygon fill="white" stroke="#666666" points="431,-30 324,-30 324,0 431,0 431,-30"/>
<text text-anchor="start" x="332" y="-18" font-family="Helvetica,sans-Serif" font-size="10.00">src/libs/vgeometry</text>
<text text-anchor="middle" x="377.5" y="-7" font-family="Helvetica,sans-Serif" font-size="10.00">/vabstractarc.cpp</text>
</a>
</g>
</g>
<!-- Node5&#45;&gt;Node6 -->
<g id="edge5_Node000005_Node000006" class="edge">
<title>Node5&#45;&gt;Node6</title>
<g id="a_edge5_Node000005_Node000006"><a xlink:title=" ">
<path fill="none" stroke="#63b8ff" d="M377.5,-55.54C377.5,-46.96 377.5,-37.61 377.5,-30.16"/>
<polygon fill="#63b8ff" stroke="#63b8ff" points="374,-55.8 377.5,-65.8 381,-55.8 374,-55.8"/>
</a>
</g>
</g>
<!-- Node8 -->
<g id="Node000008" class="node">
<title>Node8</title>
<g id="a_Node000008"><a xlink:href="../../d5/ded/varc_8cpp.html" target="_top" xlink:title=" ">
<polygon fill="white" stroke="#666666" points="556,-30 449,-30 449,0 556,0 556,-30"/>
<text text-anchor="start" x="457" y="-18" font-family="Helvetica,sans-Serif" font-size="10.00">src/libs/vgeometry</text>
<text text-anchor="middle" x="502.5" y="-7" font-family="Helvetica,sans-Serif" font-size="10.00">/varc.cpp</text>
</a>
</g>
</g>
<!-- Node7&#45;&gt;Node8 -->
<g id="edge7_Node000007_Node000008" class="edge">
<title>Node7&#45;&gt;Node8</title>
<g id="a_edge7_Node000007_Node000008"><a xlink:title=" ">
<path fill="none" stroke="#63b8ff" d="M502.5,-55.54C502.5,-46.96 502.5,-37.61 502.5,-30.16"/>
<polygon fill="#63b8ff" stroke="#63b8ff" points="499,-55.8 502.5,-65.8 506,-55.8 499,-55.8"/>
</a>
</g>
</g>
<!-- Node10 -->
<g id="Node000010" class="node">
<title>Node10</title>
<g id="a_Node000010"><a xlink:href="../../d2/d26/vcubicbezier_8cpp.html" target="_top" xlink:title=" ">
<polygon fill="white" stroke="#666666" points="681,-30 574,-30 574,0 681,0 681,-30"/>
<text text-anchor="start" x="582" y="-18" font-family="Helvetica,sans-Serif" font-size="10.00">src/libs/vgeometry</text>
<text text-anchor="middle" x="627.5" y="-7" font-family="Helvetica,sans-Serif" font-size="10.00">/vcubicbezier.cpp</text>
</a>
</g>
</g>
<!-- Node9&#45;&gt;Node10 -->
<g id="edge9_Node000009_Node000010" class="edge">
<title>Node9&#45;&gt;Node10</title>
<g id="a_edge9_Node000009_Node000010"><a xlink:title=" ">
<path fill="none" stroke="#63b8ff" d="M627.5,-55.54C627.5,-46.96 627.5,-37.61 627.5,-30.16"/>
<polygon fill="#63b8ff" stroke="#63b8ff" points="624,-55.8 627.5,-65.8 631,-55.8 624,-55.8"/>
</a>
</g>
</g>
<!-- Node12&#45;&gt;Node11 -->
<g id="edge12_Node000012_Node000011" class="edge">
<title>Node12&#45;&gt;Node11</title>
<g id="a_edge12_Node000012_Node000011"><a xlink:title=" ">
<path fill="none" stroke="#63b8ff" d="M784.41,-56.11C781.81,-47.38 778.97,-37.78 776.7,-30.16"/>
<polygon fill="#63b8ff" stroke="#63b8ff" points="781.08,-57.21 787.28,-65.8 787.79,-55.21 781.08,-57.21"/>
</a>
</g>
</g>
<!-- Node14 -->
<g id="Node000014" class="node">
<title>Node14</title>
<g id="a_Node000014"><a xlink:href="../../d5/dd2/vspline_8cpp.html" target="_top" xlink:title=" ">
<polygon fill="white" stroke="#666666" points="970,-30 863,-30 863,0 970,0 970,-30"/>
<text text-anchor="start" x="871" y="-18" font-family="Helvetica,sans-Serif" font-size="10.00">src/libs/vgeometry</text>
<text text-anchor="middle" x="916.5" y="-7" font-family="Helvetica,sans-Serif" font-size="10.00">/vspline.cpp</text>
</a>
</g>
</g>
<!-- Node13&#45;&gt;Node14 -->
<g id="edge14_Node000013_Node000014" class="edge">
<title>Node13&#45;&gt;Node14</title>
<g id="a_edge14_Node000013_Node000014"><a xlink:title=" ">
<path fill="none" stroke="#63b8ff" d="M916.5,-55.54C916.5,-46.96 916.5,-37.61 916.5,-30.16"/>
<polygon fill="#63b8ff" stroke="#63b8ff" points="913,-55.8 916.5,-65.8 920,-55.8 913,-55.8"/>
</a>
</g>
</g>
<!-- Node26 -->
<g id="Node000026" class="node">
<title>Node26</title>
<g id="a_Node000026"><a xlink:href="../../d8/dba/vpiecenode_8cpp.html" target="_top" xlink:title=" ">
<polygon fill="white" stroke="#666666" points="2705,-30 2598,-30 2598,0 2705,0 2705,-30"/>
<text text-anchor="start" x="2606" y="-18" font-family="Helvetica,sans-Serif" font-size="10.00">src/libs/vpatterndb</text>
<text text-anchor="middle" x="2651.5" y="-7" font-family="Helvetica,sans-Serif" font-size="10.00">/vpiecenode.cpp</text>
</a>
</g>
</g>
<!-- Node25&#45;&gt;Node26 -->
<g id="edge26_Node000025_Node000026" class="edge">
<title>Node25&#45;&gt;Node26</title>
<g id="a_edge26_Node000025_Node000026"><a xlink:title=" ">
<path fill="none" stroke="#63b8ff" d="M2651.5,-55.54C2651.5,-46.96 2651.5,-37.61 2651.5,-30.16"/>
<polygon fill="#63b8ff" stroke="#63b8ff" points="2648,-55.8 2651.5,-65.8 2655,-55.8 2648,-55.8"/>
</a>
</g>
</g>
</g>
</svg>

<g id="navigator" transform="translate(0 0)" fill="#404254">
  <rect fill="#f2f5e9" fill-opacity="0.5" stroke="#606060" stroke-width=".5" x="0" y="0" width="60" height="60"/>
  <use id="zoomplus" xlink:href="#zoomPlus" x="17" y="9" onmousedown="handleZoom(evt,'in')"/>
  <use id="zoomminus" xlink:href="#zoomMin" x="42" y="9" onmousedown="handleZoom(evt,'out')"/>
  <use id="reset" xlink:href="#resetDef" x="30" y="36" onmousedown="handleReset()"/>
   <use id="arrowup" xlink:href="#arrowUp" x="0" y="0" onmousedown="handlePan(0,-1)"/>
  <use id="arrowright" xlink:href="#arrowRight" x="0" y="0" onmousedown="handlePan(1,0)"/>
  <use id="arrowdown" xlink:href="#arrowDown" x="0" y="0" onmousedown="handlePan(0,1)"/>
  <use id="arrowleft" xlink:href="#arrowLeft" x="0" y="0" onmousedown="handlePan(-1,0)"/>
</g>
<svg viewBox="0 0 15 15" width="100%" height="30px" preserveAspectRatio="xMaxYMin meet">
 <g id="arrow_out" transform="scale(0.3 0.3)">
  <a xlink:href="vlockguard_8h__dep__incl_org.svg" target="_base">
   <rect id="button" ry="5" rx="5" y="6" x="6" height="38" width="38"
        fill="#f2f5e9" fill-opacity="0.5" stroke="#606060" stroke-width="1.0"/>
   <path id="arrow"
     d="M 11.500037,31.436501 C 11.940474,20.09759 22.043105,11.32322 32.158766,21.979434 L 37.068811,17.246167 C 37.068811,17.246167 37.088388,32 37.088388,32 L 22.160133,31.978069 C 22.160133,31.978069 26.997745,27.140456 26.997745,27.140456 C 18.528582,18.264221 13.291696,25.230495 11.500037,31.436501 z"
     style="fill:#404040;"/>
  </a>
 </g>
</svg>

<style type='text/css'>
<![CDATA[
[data-mouse-over-selected='false'] { opacity: 0.7; }
[data-mouse-over-selected='true']  { opacity: 1.0; }
]]>
</style>
<script type="application/ecmascript"><![CDATA[
document.addEventListener('DOMContentLoaded', (event) => {
  highlightEdges();
  highlightAdjacentNodes();
});
]]></script>
</svg>
