<?xml version="1.0" encoding="UTF-8" standalone="no"?>
<!DOCTYPE svg PUBLIC "-//W3C//DTD SVG 1.1//EN"
 "http://www.w3.org/Graphics/SVG/1.1/DTD/svg11.dtd">
<!-- Generated by graphviz version 2.43.0 (0)
 -->
<!-- Title: src/libs/vtools/dialogs/tools/dialogarcwithlength.h Pages: 1 -->
<!--zoomable 159 -->

<svg id="main" version="1.1" xmlns="http://www.w3.org/2000/svg" xmlns:xlink="http://www.w3.org/1999/xlink" xml:space="preserve" onload="init(evt)">
<style type="text/css"><![CDATA[
.node, .edge {opacity: 0.7;}
.node.selected, .edge.selected {opacity: 1;}
.edge:hover path { stroke: red; }
.edge:hover polygon { stroke: red; fill: red; }
]]></style>

<defs>
  <circle id="rim" cx="0" cy="0" r="7"/>
  <circle id="rim2" cx="0" cy="0" r="3.5"/>
  <g id="zoomPlus">
    <use xlink:href="#rim" fill="#404040"><set attributeName="fill" to="#808080" begin="zoomplus.mouseover" end="zoomplus.mouseout"/></use>
    <path d="M-4,0h8M0,-4v8" fill="none" stroke="white" stroke-width="1.5" pointer-events="none"/>
  </g>
  <g id="zoomMin">
    <use xlink:href="#rim" fill="#404040"><set attributeName="fill" to="#808080" begin="zoomminus.mouseover" end="zoomminus.mouseout"/></use>
    <path d="M-4,0h8" fill="none" stroke="white" stroke-width="1.5" pointer-events="none"/>
  </g>
  <g id="arrowUp" transform="translate(30 24)">
    <use xlink:href="#rim"/>
    <path pointer-events="none" fill="none" stroke="white" stroke-width="1.5" d="M0,-3.0v7 M-2.5,-0.5L0,-3.0L2.5,-0.5"/>
  </g>
  <g id="arrowRight" transform="rotate(90) translate(36 -43)">
    <use xlink:href="#rim"/>
    <path pointer-events="none" fill="none" stroke="white" stroke-width="1.5" d="M0,-3.0v7 M-2.5,-0.5L0,-3.0L2.5,-0.5"/>
  </g>
  <g id="arrowDown" transform="rotate(180) translate(-30 -48)">
    <use xlink:href="#rim"/>
    <path pointer-events="none" fill="none" stroke="white" stroke-width="1.5" d="M0,-3.0v7 M-2.5,-0.5L0,-3.0L2.5,-0.5"/>
  </g>
  <g id="arrowLeft" transform="rotate(270) translate(-36 17)">
    <use xlink:href="#rim"/>
    <path pointer-events="none" fill="none" stroke="white" stroke-width="1.5" d="M0,-3.0v7 M-2.5,-0.5L0,-3.0L2.5,-0.5"/>
  </g>
  <g id="resetDef">
    <use xlink:href="#rim2" fill="#404040"><set attributeName="fill" to="#808080" begin="reset.mouseover" end="reset.mouseout"/></use>
  </g>
</defs>
<script type="application/ecmascript">
var viewWidth = 3068;
var viewHeight = 159;
var sectionId = 'dynsection-0';
</script>
<script type="application/ecmascript" xlink:href="../../svg.min.js"/>
<svg id="graph" class="graph">
<g id="viewport">
<title>src/libs/vtools/dialogs/tools/dialogarcwithlength.h</title>
<!-- Node1 -->
<g id="Node000001" class="node">
<title>Node1</title>
<g id="a_Node000001"><a xlink:title=" ">
<polygon fill="#999999" stroke="#666666" points="459,-151 307,-151 307,-121 459,-121 459,-151"/>
<text text-anchor="start" x="315" y="-139" font-family="Helvetica,sans-Serif" font-size="10.00">src/libs/vtools/dialogs</text>
<text text-anchor="middle" x="383" y="-128" font-family="Helvetica,sans-Serif" font-size="10.00">/tools/dialogarcwithlength.h</text>
</a>
</g>
</g>
<!-- Node2 -->
<g id="Node000002" class="node">
<title>Node2</title>
<g id="a_Node000002"><a xlink:title=" ">
<polygon fill="#e0e0e0" stroke="#999999" points="120,-24.5 0,-24.5 0,-5.5 120,-5.5 120,-24.5"/>
<text text-anchor="middle" x="60" y="-12.5" font-family="Helvetica,sans-Serif" font-size="10.00">qcompilerdetection.h</text>
</a>
</g>
</g>
<!-- Node1&#45;&gt;Node2 -->
<g id="edge1_Node000001_Node000002" class="edge">
<title>Node1&#45;&gt;Node2</title>
<g id="a_edge1_Node000001_Node000002"><a xlink:title=" ">
<path fill="none" stroke="#63b8ff" d="M345,-121C281.02,-97.43 152.91,-50.23 92.69,-28.04"/>
<polygon fill="#63b8ff" stroke="#63b8ff" points="93.88,-24.75 83.29,-24.58 91.46,-31.32 93.88,-24.75"/>
</a>
</g>
</g>
<!-- Node3 -->
<g id="Node000003" class="node">
<title>Node3</title>
<g id="a_Node000003"><a xlink:title=" ">
<polygon fill="#e0e0e0" stroke="#999999" points="218,-24.5 138,-24.5 138,-5.5 218,-5.5 218,-24.5"/>
<text text-anchor="middle" x="178" y="-12.5" font-family="Helvetica,sans-Serif" font-size="10.00">QMetaObject</text>
</a>
</g>
</g>
<!-- Node1&#45;&gt;Node3 -->
<g id="edge2_Node000001_Node000003" class="edge">
<title>Node1&#45;&gt;Node3</title>
<g id="a_edge2_Node000001_Node000003"><a xlink:title=" ">
<path fill="none" stroke="#63b8ff" d="M358.68,-120.88C319.08,-97.9 241.16,-52.66 201.86,-29.85"/>
<polygon fill="#63b8ff" stroke="#63b8ff" points="203.15,-26.55 192.75,-24.56 199.64,-32.61 203.15,-26.55"/>
</a>
</g>
</g>
<!-- Node4 -->
<g id="Node000004" class="node">
<title>Node4</title>
<g id="a_Node000004"><a xlink:title=" ">
<polygon fill="#e0e0e0" stroke="#999999" points="292,-24.5 236,-24.5 236,-5.5 292,-5.5 292,-24.5"/>
<text text-anchor="middle" x="264" y="-12.5" font-family="Helvetica,sans-Serif" font-size="10.00">QObject</text>
</a>
</g>
</g>
<!-- Node1&#45;&gt;Node4 -->
<g id="edge3_Node000001_Node000004" class="edge">
<title>Node1&#45;&gt;Node4</title>
<g id="a_edge3_Node000001_Node000004"><a xlink:title=" ">
<path fill="none" stroke="#63b8ff" d="M368.88,-120.88C346.54,-98.54 303.16,-55.16 279.81,-31.81"/>
<polygon fill="#63b8ff" stroke="#63b8ff" points="282.26,-29.31 272.71,-24.71 277.31,-34.26 282.26,-29.31"/>
</a>
</g>
</g>
<!-- Node5 -->
<g id="Node000005" class="node">
<title>Node5</title>
<g id="a_Node000005"><a xlink:title=" ">
<polygon fill="#e0e0e0" stroke="#999999" points="363.5,-24.5 310.5,-24.5 310.5,-5.5 363.5,-5.5 363.5,-24.5"/>
<text text-anchor="middle" x="337" y="-12.5" font-family="Helvetica,sans-Serif" font-size="10.00">QString</text>
</a>
</g>
</g>
<!-- Node1&#45;&gt;Node5 -->
<g id="edge4_Node000001_Node000005" class="edge">
<title>Node1&#45;&gt;Node5</title>
<g id="a_edge4_Node000001_Node000005"><a xlink:title=" ">
<path fill="none" stroke="#63b8ff" d="M377.54,-120.88C369.2,-99.31 353.29,-58.15 344.08,-34.31"/>
<polygon fill="#63b8ff" stroke="#63b8ff" points="347.24,-32.78 340.37,-24.71 340.71,-35.3 347.24,-32.78"/>
</a>
</g>
</g>
<!-- Node6 -->
<g id="Node000006" class="node">
<title>Node6</title>
<g id="a_Node000006"><a xlink:title=" ">
<polygon fill="#e0e0e0" stroke="#999999" points="440.5,-24.5 381.5,-24.5 381.5,-5.5 440.5,-5.5 440.5,-24.5"/>
<text text-anchor="middle" x="411" y="-12.5" font-family="Helvetica,sans-Serif" font-size="10.00">QtGlobal</text>
</a>
</g>
</g>
<!-- Node1&#45;&gt;Node6 -->
<g id="edge5_Node000001_Node000006" class="edge">
<title>Node1&#45;&gt;Node6</title>
<g id="a_edge5_Node000001_Node000006"><a xlink:title=" ">
<path fill="none" stroke="#63b8ff" d="M386.32,-120.88C391.37,-99.41 400.99,-58.52 406.61,-34.64"/>
<polygon fill="#63b8ff" stroke="#63b8ff" points="410.07,-35.25 408.95,-24.71 403.25,-33.64 410.07,-35.25"/>
</a>
</g>
</g>
<!-- Node7 -->
<g id="Node000007" class="node">
<title>Node7</title>
<g id="a_Node000007"><a xlink:href="../../d1/d30/dialogtool_8h.html" target="_top" xlink:title=" ">
<polygon fill="white" stroke="#666666" points="1636,-85 1562,-85 1562,-66 1636,-66 1636,-85"/>
<text text-anchor="middle" x="1599" y="-73" font-family="Helvetica,sans-Serif" font-size="10.00">dialogtool.h</text>
</a>
</g>
</g>
<!-- Node1&#45;&gt;Node7 -->
<g id="edge6_Node000001_Node000007" class="edge">
<title>Node1&#45;&gt;Node7</title>
<g id="a_edge6_Node000001_Node000007"><a xlink:title=" ">
<path fill="none" stroke="#63b8ff" d="M459.07,-131.34C687.95,-120.33 1365.91,-87.71 1551.54,-78.78"/>
<polygon fill="#63b8ff" stroke="#63b8ff" points="1551.97,-82.27 1561.79,-78.29 1551.63,-75.27 1551.97,-82.27"/>
</a>
</g>
</g>
<!-- Node27 -->
<g id="Node000027" class="node">
<title>Node27</title>
<g id="a_Node000027"><a xlink:title=" ">
<polygon fill="#e0e0e0" stroke="#999999" points="3060,-24.5 2978,-24.5 2978,-5.5 3060,-5.5 3060,-24.5"/>
<text text-anchor="middle" x="3019" y="-12.5" font-family="Helvetica,sans-Serif" font-size="10.00">../vmisc/def.h</text>
</a>
</g>
</g>
<!-- Node1&#45;&gt;Node27 -->
<g id="edge37_Node000001_Node000027" class="edge">
<title>Node1&#45;&gt;Node27</title>
<g id="a_edge37_Node000001_Node000027"><a xlink:title=" ">
<path fill="none" stroke="#63b8ff" d="M459.17,-133.85C714.52,-129.74 1530.59,-114.41 1645,-85 1663.29,-80.3 1664.69,-70.59 1683,-66 1960.3,3.57 2686.34,-72.86 2969,-30 2973.59,-29.3 2978.35,-28.32 2983.03,-27.2"/>
<polygon fill="#63b8ff" stroke="#63b8ff" points="2984.27,-30.49 2993.05,-24.56 2982.49,-23.72 2984.27,-30.49"/>
</a>
</g>
</g>
<!-- Node32 -->
<g id="Node000032" class="node">
<title>Node32</title>
<g id="a_Node000032"><a xlink:title=" ">
<polygon fill="#e0e0e0" stroke="#999999" points="1804,-85 1692,-85 1692,-66 1804,-66 1804,-85"/>
<text text-anchor="middle" x="1748" y="-73" font-family="Helvetica,sans-Serif" font-size="10.00">../vgeometry/varc.h</text>
</a>
</g>
</g>
<!-- Node1&#45;&gt;Node32 -->
<g id="edge36_Node000001_Node000032" class="edge">
<title>Node1&#45;&gt;Node32</title>
<g id="a_edge36_Node000001_Node000032"><a xlink:title=" ">
<path fill="none" stroke="#63b8ff" d="M459.03,-134.25C658.98,-131.79 1215.98,-121.91 1678,-85 1679.27,-84.9 1680.55,-84.79 1681.84,-84.68"/>
<polygon fill="#63b8ff" stroke="#63b8ff" points="1682.25,-88.16 1691.88,-83.73 1681.59,-81.19 1682.25,-88.16"/>
</a>
</g>
</g>
<!-- Node7&#45;&gt;Node2 -->
<g id="edge7_Node000007_Node000002" class="edge">
<title>Node7&#45;&gt;Node2</title>
<g id="a_edge7_Node000007_Node000002"><a xlink:title=" ">
<path fill="none" stroke="#63b8ff" d="M1561.79,-74.23C1362.4,-72.66 418.77,-63.54 129,-30 121.49,-29.13 113.57,-27.86 105.89,-26.44"/>
<polygon fill="#63b8ff" stroke="#63b8ff" points="106.47,-22.99 95.98,-24.5 105.13,-29.86 106.47,-22.99"/>
</a>
</g>
</g>
<!-- Node7&#45;&gt;Node3 -->
<g id="edge18_Node000007_Node000003" class="edge">
<title>Node7&#45;&gt;Node3</title>
<g id="a_edge18_Node000007_Node000003"><a xlink:title=" ">
<path fill="none" stroke="#63b8ff" d="M1561.73,-74.53C1370.15,-74.48 494.82,-71.95 227,-30 222.5,-29.3 217.83,-28.31 213.24,-27.18"/>
<polygon fill="#63b8ff" stroke="#63b8ff" points="213.98,-23.76 203.42,-24.54 212.17,-30.52 213.98,-23.76"/>
</a>
</g>
</g>
<!-- Node7&#45;&gt;Node4 -->
<g id="edge19_Node000007_Node000004" class="edge">
<title>Node7&#45;&gt;Node4</title>
<g id="a_edge19_Node000007_Node000004"><a xlink:title=" ">
<path fill="none" stroke="#63b8ff" d="M1561.98,-73.95C1363.27,-70.91 427.36,-55.35 301,-30 298.31,-29.46 295.57,-28.75 292.85,-27.93"/>
<polygon fill="#63b8ff" stroke="#63b8ff" points="293.83,-24.57 283.23,-24.64 291.56,-31.19 293.83,-24.57"/>
</a>
</g>
</g>
<!-- Node7&#45;&gt;Node5 -->
<g id="edge24_Node000007_Node000005" class="edge">
<title>Node7&#45;&gt;Node5</title>
<g id="a_edge24_Node000007_Node000005"><a xlink:title=" ">
<path fill="none" stroke="#63b8ff" d="M1561.81,-73.91C1369.35,-70.76 490.74,-55.11 372,-30 369.62,-29.5 367.2,-28.85 364.79,-28.1"/>
<polygon fill="#63b8ff" stroke="#63b8ff" points="365.75,-24.73 355.16,-24.64 363.38,-31.31 365.75,-24.73"/>
</a>
</g>
</g>
<!-- Node7&#45;&gt;Node6 -->
<g id="edge26_Node000007_Node000006" class="edge">
<title>Node7&#45;&gt;Node6</title>
<g id="a_edge26_Node000007_Node000006"><a xlink:title=" ">
<path fill="none" stroke="#63b8ff" d="M1561.91,-74.63C1389.94,-74.97 669.36,-73.71 449,-30 446.16,-29.44 443.24,-28.69 440.35,-27.84"/>
<polygon fill="#63b8ff" stroke="#63b8ff" points="441.37,-24.48 430.78,-24.62 439.14,-31.12 441.37,-24.48"/>
</a>
</g>
</g>
<!-- Node8 -->
<g id="Node000008" class="node">
<title>Node8</title>
<g id="a_Node000008"><a xlink:title=" ">
<polygon fill="#e0e0e0" stroke="#999999" points="1388.5,-24.5 1315.5,-24.5 1315.5,-5.5 1388.5,-5.5 1388.5,-24.5"/>
<text text-anchor="middle" x="1352" y="-12.5" font-family="Helvetica,sans-Serif" font-size="10.00">QCheckBox</text>
</a>
</g>
</g>
<!-- Node7&#45;&gt;Node8 -->
<g id="edge8_Node000007_Node000008" class="edge">
<title>Node7&#45;&gt;Node8</title>
<g id="a_edge8_Node000007_Node000008"><a xlink:title=" ">
<path fill="none" stroke="#63b8ff" d="M1561.75,-67.15C1521.24,-58.96 1454.69,-44.88 1398,-30 1395.03,-29.22 1391.96,-28.37 1388.88,-27.5"/>
<polygon fill="#63b8ff" stroke="#63b8ff" points="1389.72,-24.1 1379.14,-24.64 1387.75,-30.82 1389.72,-24.1"/>
</a>
</g>
</g>
<!-- Node9 -->
<g id="Node000009" class="node">
<title>Node9</title>
<g id="a_Node000009"><a xlink:title=" ">
<polygon fill="#e0e0e0" stroke="#999999" points="1457,-24.5 1407,-24.5 1407,-5.5 1457,-5.5 1457,-24.5"/>
<text text-anchor="middle" x="1432" y="-12.5" font-family="Helvetica,sans-Serif" font-size="10.00">QColor</text>
</a>
</g>
</g>
<!-- Node7&#45;&gt;Node9 -->
<g id="edge9_Node000007_Node000009" class="edge">
<title>Node7&#45;&gt;Node9</title>
<g id="a_edge9_Node000007_Node000009"><a xlink:title=" ">
<path fill="none" stroke="#63b8ff" d="M1571.81,-66C1544.8,-57.41 1502.28,-43.52 1466,-30 1464.58,-29.47 1463.13,-28.92 1461.67,-28.35"/>
<polygon fill="#63b8ff" stroke="#63b8ff" points="1462.63,-24.97 1452.05,-24.52 1460.04,-31.47 1462.63,-24.97"/>
</a>
</g>
</g>
<!-- Node10 -->
<g id="Node000010" class="node">
<title>Node10</title>
<g id="a_Node000010"><a xlink:title=" ">
<polygon fill="#e0e0e0" stroke="#999999" points="1552.5,-24.5 1475.5,-24.5 1475.5,-5.5 1552.5,-5.5 1552.5,-24.5"/>
<text text-anchor="middle" x="1514" y="-12.5" font-family="Helvetica,sans-Serif" font-size="10.00">QComboBox</text>
</a>
</g>
</g>
<!-- Node7&#45;&gt;Node10 -->
<g id="edge10_Node000007_Node000010" class="edge">
<title>Node7&#45;&gt;Node10</title>
<g id="a_edge10_Node000007_Node000010"><a xlink:title=" ">
<path fill="none" stroke="#63b8ff" d="M1586.46,-65.87C1572.9,-56.54 1551.06,-41.51 1534.9,-30.38"/>
<polygon fill="#63b8ff" stroke="#63b8ff" points="1536.82,-27.45 1526.59,-24.67 1532.85,-33.22 1536.82,-27.45"/>
</a>
</g>
</g>
<!-- Node11 -->
<g id="Node000011" class="node">
<title>Node11</title>
<g id="a_Node000011"><a xlink:title=" ">
<polygon fill="#e0e0e0" stroke="#999999" points="1627,-24.5 1571,-24.5 1571,-5.5 1627,-5.5 1627,-24.5"/>
<text text-anchor="middle" x="1599" y="-12.5" font-family="Helvetica,sans-Serif" font-size="10.00">QDialog</text>
</a>
</g>
</g>
<!-- Node7&#45;&gt;Node11 -->
<g id="edge11_Node000007_Node000011" class="edge">
<title>Node7&#45;&gt;Node11</title>
<g id="a_edge11_Node000007_Node000011"><a xlink:title=" ">
<path fill="none" stroke="#63b8ff" d="M1599,-65.87C1599,-57.75 1599,-45.31 1599,-34.89"/>
<polygon fill="#63b8ff" stroke="#63b8ff" points="1602.5,-34.67 1599,-24.67 1595.5,-34.67 1602.5,-34.67"/>
</a>
</g>
</g>
<!-- Node12 -->
<g id="Node000012" class="node">
<title>Node12</title>
<g id="a_Node000012"><a xlink:title=" ">
<polygon fill="#e0e0e0" stroke="#999999" points="1752.5,-24.5 1645.5,-24.5 1645.5,-5.5 1752.5,-5.5 1752.5,-24.5"/>
<text text-anchor="middle" x="1699" y="-12.5" font-family="Helvetica,sans-Serif" font-size="10.00">QDialogButtonBox</text>
</a>
</g>
</g>
<!-- Node7&#45;&gt;Node12 -->
<g id="edge12_Node000007_Node000012" class="edge">
<title>Node7&#45;&gt;Node12</title>
<g id="a_edge12_Node000007_Node000012"><a xlink:title=" ">
<path fill="none" stroke="#63b8ff" d="M1613.76,-65.87C1630,-56.36 1656.35,-40.95 1675.46,-29.77"/>
<polygon fill="#63b8ff" stroke="#63b8ff" points="1677.32,-32.74 1684.18,-24.67 1673.79,-26.7 1677.32,-32.74"/>
</a>
</g>
</g>
<!-- Node13 -->
<g id="Node000013" class="node">
<title>Node13</title>
<g id="a_Node000013"><a xlink:title=" ">
<polygon fill="#e0e0e0" stroke="#999999" points="1833.5,-24.5 1770.5,-24.5 1770.5,-5.5 1833.5,-5.5 1833.5,-24.5"/>
<text text-anchor="middle" x="1802" y="-12.5" font-family="Helvetica,sans-Serif" font-size="10.00">QLineEdit</text>
</a>
</g>
</g>
<!-- Node7&#45;&gt;Node13 -->
<g id="edge13_Node000007_Node000013" class="edge">
<title>Node7&#45;&gt;Node13</title>
<g id="a_edge13_Node000007_Node000013"><a xlink:title=" ">
<path fill="none" stroke="#63b8ff" d="M1632.92,-65.98C1666.03,-57.49 1717.74,-43.77 1762,-30 1764.25,-29.3 1766.57,-28.55 1768.9,-27.79"/>
<polygon fill="#63b8ff" stroke="#63b8ff" points="1770.05,-31.09 1778.4,-24.57 1767.81,-24.46 1770.05,-31.09"/>
</a>
</g>
</g>
<!-- Node14 -->
<g id="Node000014" class="node">
<title>Node14</title>
<g id="a_Node000014"><a xlink:title=" ">
<polygon fill="#e0e0e0" stroke="#999999" points="1892.5,-24.5 1851.5,-24.5 1851.5,-5.5 1892.5,-5.5 1892.5,-24.5"/>
<text text-anchor="middle" x="1872" y="-12.5" font-family="Helvetica,sans-Serif" font-size="10.00">QList</text>
</a>
</g>
</g>
<!-- Node7&#45;&gt;Node14 -->
<g id="edge14_Node000007_Node000014" class="edge">
<title>Node7&#45;&gt;Node14</title>
<g id="a_edge14_Node000007_Node000014"><a xlink:title=" ">
<path fill="none" stroke="#63b8ff" d="M1636.16,-68.29C1699.55,-57.61 1823.63,-36.31 1843,-30 1844.23,-29.6 1845.47,-29.16 1846.71,-28.69"/>
<polygon fill="#63b8ff" stroke="#63b8ff" points="1848.27,-31.82 1856.06,-24.64 1845.49,-25.4 1848.27,-31.82"/>
</a>
</g>
</g>
<!-- Node15 -->
<g id="Node000015" class="node">
<title>Node15</title>
<g id="a_Node000015"><a xlink:title=" ">
<polygon fill="#e0e0e0" stroke="#999999" points="1987,-24.5 1911,-24.5 1911,-5.5 1987,-5.5 1987,-24.5"/>
<text text-anchor="middle" x="1949" y="-12.5" font-family="Helvetica,sans-Serif" font-size="10.00">QListWidget</text>
</a>
</g>
</g>
<!-- Node7&#45;&gt;Node15 -->
<g id="edge15_Node000007_Node000015" class="edge">
<title>Node7&#45;&gt;Node15</title>
<g id="a_edge15_Node000007_Node000015"><a xlink:title=" ">
<path fill="none" stroke="#63b8ff" d="M1636.03,-68.22C1640.73,-67.46 1645.48,-66.7 1650,-66 1761.81,-48.7 1791.48,-54.21 1902,-30 1905.62,-29.21 1909.37,-28.28 1913.1,-27.28"/>
<polygon fill="#63b8ff" stroke="#63b8ff" points="1914.15,-30.62 1922.83,-24.54 1912.25,-23.89 1914.15,-30.62"/>
</a>
</g>
</g>
<!-- Node16 -->
<g id="Node000016" class="node">
<title>Node16</title>
<g id="a_Node000016"><a xlink:title=" ">
<polygon fill="#e0e0e0" stroke="#999999" points="2061,-24.5 2005,-24.5 2005,-5.5 2061,-5.5 2061,-24.5"/>
<text text-anchor="middle" x="2033" y="-12.5" font-family="Helvetica,sans-Serif" font-size="10.00">QLocale</text>
</a>
</g>
</g>
<!-- Node7&#45;&gt;Node16 -->
<g id="edge16_Node000007_Node000016" class="edge">
<title>Node7&#45;&gt;Node16</title>
<g id="a_edge16_Node000007_Node000016"><a xlink:title=" ">
<path fill="none" stroke="#63b8ff" d="M1636.01,-68.06C1640.71,-67.32 1645.46,-66.61 1650,-66 1803.21,-45.28 1845.56,-65.65 1996,-30 1998.51,-29.4 2001.09,-28.68 2003.65,-27.88"/>
<polygon fill="#63b8ff" stroke="#63b8ff" points="2005.03,-31.11 2013.32,-24.52 2002.73,-24.5 2005.03,-31.11"/>
</a>
</g>
</g>
<!-- Node17 -->
<g id="Node000017" class="node">
<title>Node17</title>
<g id="a_Node000017"><a xlink:title=" ">
<polygon fill="#e0e0e0" stroke="#999999" points="2124.5,-24.5 2079.5,-24.5 2079.5,-5.5 2124.5,-5.5 2124.5,-24.5"/>
<text text-anchor="middle" x="2102" y="-12.5" font-family="Helvetica,sans-Serif" font-size="10.00">QMap</text>
</a>
</g>
</g>
<!-- Node7&#45;&gt;Node17 -->
<g id="edge17_Node000007_Node000017" class="edge">
<title>Node7&#45;&gt;Node17</title>
<g id="a_edge17_Node000007_Node000017"><a xlink:title=" ">
<path fill="none" stroke="#63b8ff" d="M1636.27,-67.94C1640.89,-67.23 1645.55,-66.56 1650,-66 1835.88,-42.58 1888.42,-76.16 2070,-30 2071.9,-29.52 2073.82,-28.94 2075.74,-28.29"/>
<polygon fill="#63b8ff" stroke="#63b8ff" points="2077.06,-31.53 2085.09,-24.62 2074.51,-25.01 2077.06,-31.53"/>
</a>
</g>
</g>
<!-- Node18 -->
<g id="Node000018" class="node">
<title>Node18</title>
<g id="a_Node000018"><a xlink:title=" ">
<polygon fill="#e0e0e0" stroke="#999999" points="2201.5,-24.5 2142.5,-24.5 2142.5,-5.5 2201.5,-5.5 2201.5,-24.5"/>
<text text-anchor="middle" x="2172" y="-12.5" font-family="Helvetica,sans-Serif" font-size="10.00">QPointer</text>
</a>
</g>
</g>
<!-- Node7&#45;&gt;Node18 -->
<g id="edge20_Node000007_Node000018" class="edge">
<title>Node7&#45;&gt;Node18</title>
<g id="a_edge20_Node000007_Node000018"><a xlink:title=" ">
<path fill="none" stroke="#63b8ff" d="M1636.27,-67.89C1640.88,-67.19 1645.54,-66.54 1650,-66 1864.16,-40.24 1923.2,-75.73 2134,-30 2136.68,-29.42 2139.42,-28.69 2142.15,-27.87"/>
<polygon fill="#63b8ff" stroke="#63b8ff" points="2143.44,-31.13 2151.8,-24.63 2141.21,-24.5 2143.44,-31.13"/>
</a>
</g>
</g>
<!-- Node19 -->
<g id="Node000019" class="node">
<title>Node19</title>
<g id="a_Node000019"><a xlink:title=" ">
<polygon fill="#e0e0e0" stroke="#999999" points="2300,-24.5 2220,-24.5 2220,-5.5 2300,-5.5 2300,-24.5"/>
<text text-anchor="middle" x="2260" y="-12.5" font-family="Helvetica,sans-Serif" font-size="10.00">QPushButton</text>
</a>
</g>
</g>
<!-- Node7&#45;&gt;Node19 -->
<g id="edge21_Node000007_Node000019" class="edge">
<title>Node7&#45;&gt;Node19</title>
<g id="a_edge21_Node000007_Node000019"><a xlink:title=" ">
<path fill="none" stroke="#63b8ff" d="M1636.26,-67.84C1640.88,-67.15 1645.54,-66.51 1650,-66 1898.21,-37.43 1964.81,-72.56 2211,-30 2215.27,-29.26 2219.69,-28.3 2224.06,-27.21"/>
<polygon fill="#63b8ff" stroke="#63b8ff" points="2225.3,-30.51 2234.05,-24.53 2223.48,-23.74 2225.3,-30.51"/>
</a>
</g>
</g>
<!-- Node20 -->
<g id="Node000020" class="node">
<title>Node20</title>
<g id="a_Node000020"><a xlink:title=" ">
<polygon fill="#e0e0e0" stroke="#999999" points="2402,-24.5 2318,-24.5 2318,-5.5 2402,-5.5 2402,-24.5"/>
<text text-anchor="middle" x="2360" y="-12.5" font-family="Helvetica,sans-Serif" font-size="10.00">QRadioButton</text>
</a>
</g>
</g>
<!-- Node7&#45;&gt;Node20 -->
<g id="edge22_Node000007_Node000020" class="edge">
<title>Node7&#45;&gt;Node20</title>
<g id="a_edge22_Node000007_Node000020"><a xlink:title=" ">
<path fill="none" stroke="#63b8ff" d="M1636.26,-67.8C1640.87,-67.12 1645.54,-66.49 1650,-66 1941.56,-33.84 2019.48,-77.09 2309,-30 2313.56,-29.26 2318.29,-28.27 2322.96,-27.16"/>
<polygon fill="#63b8ff" stroke="#63b8ff" points="2324.17,-30.46 2332.98,-24.57 2322.42,-23.68 2324.17,-30.46"/>
</a>
</g>
</g>
<!-- Node21 -->
<g id="Node000021" class="node">
<title>Node21</title>
<g id="a_Node000021"><a xlink:title=" ">
<polygon fill="#e0e0e0" stroke="#999999" points="2477.5,-24.5 2420.5,-24.5 2420.5,-5.5 2477.5,-5.5 2477.5,-24.5"/>
<text text-anchor="middle" x="2449" y="-12.5" font-family="Helvetica,sans-Serif" font-size="10.00">QScreen</text>
</a>
</g>
</g>
<!-- Node7&#45;&gt;Node21 -->
<g id="edge23_Node000007_Node000021" class="edge">
<title>Node7&#45;&gt;Node21</title>
<g id="a_edge23_Node000007_Node000021"><a xlink:title=" ">
<path fill="none" stroke="#63b8ff" d="M1636.25,-67.77C1640.87,-67.09 1645.54,-66.48 1650,-66 1986.69,-30.1 2079.16,-97.31 2411,-30 2413.84,-29.42 2416.76,-28.67 2419.64,-27.81"/>
<polygon fill="#63b8ff" stroke="#63b8ff" points="2420.86,-31.09 2429.22,-24.59 2418.62,-24.46 2420.86,-31.09"/>
</a>
</g>
</g>
<!-- Node22 -->
<g id="Node000022" class="node">
<title>Node22</title>
<g id="a_Node000022"><a xlink:title=" ">
<polygon fill="#e0e0e0" stroke="#999999" points="2554.5,-24.5 2495.5,-24.5 2495.5,-5.5 2554.5,-5.5 2554.5,-24.5"/>
<text text-anchor="middle" x="2525" y="-12.5" font-family="Helvetica,sans-Serif" font-size="10.00">QVariant</text>
</a>
</g>
</g>
<!-- Node7&#45;&gt;Node22 -->
<g id="edge25_Node000007_Node000022" class="edge">
<title>Node7&#45;&gt;Node22</title>
<g id="a_edge25_Node000007_Node000022"><a xlink:title=" ">
<path fill="none" stroke="#63b8ff" d="M1636.25,-67.75C1640.87,-67.07 1645.54,-66.47 1650,-66 2020.33,-27.32 2121.93,-103.24 2487,-30 2489.84,-29.43 2492.76,-28.68 2495.64,-27.82"/>
<polygon fill="#63b8ff" stroke="#63b8ff" points="2496.86,-31.11 2505.22,-24.6 2494.63,-24.47 2496.86,-31.11"/>
</a>
</g>
</g>
<!-- Node23 -->
<g id="Node000023" class="node">
<title>Node23</title>
<g id="a_Node000023"><a xlink:title=" ">
<polygon fill="#e0e0e0" stroke="#999999" points="2693.5,-30 2572.5,-30 2572.5,0 2693.5,0 2693.5,-30"/>
<text text-anchor="start" x="2580.5" y="-18" font-family="Helvetica,sans-Serif" font-size="10.00">../vtools/visualization</text>
<text text-anchor="middle" x="2633" y="-7" font-family="Helvetica,sans-Serif" font-size="10.00">/visualization.h</text>
</a>
</g>
</g>
<!-- Node7&#45;&gt;Node23 -->
<g id="edge27_Node000007_Node000023" class="edge">
<title>Node7&#45;&gt;Node23</title>
<g id="a_edge27_Node000007_Node000023"><a xlink:title=" ">
<path fill="none" stroke="#63b8ff" d="M1636.25,-67.74C1640.87,-67.06 1645.54,-66.46 1650,-66 2051.06,-24.85 2158.6,-77.69 2561.94,-30.12"/>
<polygon fill="#63b8ff" stroke="#63b8ff" points="2562.62,-33.56 2572.13,-28.9 2561.79,-26.61 2562.62,-33.56"/>
</a>
</g>
</g>
<!-- Node24 -->
<g id="Node000024" class="node">
<title>Node24</title>
<g id="a_Node000024"><a xlink:title=" ">
<polygon fill="#e0e0e0" stroke="#999999" points="2864,-24.5 2712,-24.5 2712,-5.5 2864,-5.5 2864,-24.5"/>
<text text-anchor="middle" x="2788" y="-12.5" font-family="Helvetica,sans-Serif" font-size="10.00">../ifc/xml/vabstractpattern.h</text>
</a>
</g>
</g>
<!-- Node7&#45;&gt;Node24 -->
<g id="edge28_Node000007_Node000024" class="edge">
<title>Node7&#45;&gt;Node24</title>
<g id="a_edge28_Node000007_Node000024"><a xlink:title=" ">
<path fill="none" stroke="#63b8ff" d="M1636.25,-67.71C1640.87,-67.04 1645.53,-66.45 1650,-66 2115.95,-19.41 2237.01,-76.15 2703,-30 2712.61,-29.05 2722.78,-27.69 2732.62,-26.18"/>
<polygon fill="#63b8ff" stroke="#63b8ff" points="2733.38,-29.6 2742.71,-24.57 2732.28,-22.69 2733.38,-29.6"/>
</a>
</g>
</g>
<!-- Node25 -->
<g id="Node000025" class="node">
<title>Node25</title>
<g id="a_Node000025"><a xlink:title=" ">
<polygon fill="#e0e0e0" stroke="#999999" points="2959.5,-24.5 2882.5,-24.5 2882.5,-5.5 2959.5,-5.5 2959.5,-24.5"/>
<text text-anchor="middle" x="2921" y="-12.5" font-family="Helvetica,sans-Serif" font-size="10.00">../ifc/ifcdef.h</text>
</a>
</g>
</g>
<!-- Node7&#45;&gt;Node25 -->
<g id="edge29_Node000007_Node000025" class="edge">
<title>Node7&#45;&gt;Node25</title>
<g id="a_edge29_Node000007_Node000025"><a xlink:title=" ">
<path fill="none" stroke="#63b8ff" d="M1636.25,-67.69C1640.87,-67.03 1645.53,-66.44 1650,-66 2191.22,-13.18 2335.86,-114.82 2873,-30 2877.24,-29.33 2881.64,-28.4 2885.97,-27.32"/>
<polygon fill="#63b8ff" stroke="#63b8ff" points="2887.13,-30.64 2895.86,-24.64 2885.3,-23.88 2887.13,-30.64"/>
</a>
</g>
</g>
<!-- Node26 -->
<g id="Node000026" class="node">
<title>Node26</title>
<g id="a_Node000026"><a xlink:title=" ">
<polygon fill="#e0e0e0" stroke="#999999" points="617.5,-24.5 458.5,-24.5 458.5,-5.5 617.5,-5.5 617.5,-24.5"/>
<text text-anchor="middle" x="538" y="-12.5" font-family="Helvetica,sans-Serif" font-size="10.00">../vgeometry/vgeometrydef.h</text>
</a>
</g>
</g>
<!-- Node7&#45;&gt;Node26 -->
<g id="edge30_Node000007_Node000026" class="edge">
<title>Node7&#45;&gt;Node26</title>
<g id="a_edge30_Node000007_Node000026"><a xlink:title=" ">
<path fill="none" stroke="#63b8ff" d="M1561.77,-74.3C1432.24,-73.27 989.37,-67.1 626,-30 616.07,-28.99 605.56,-27.6 595.39,-26.08"/>
<polygon fill="#63b8ff" stroke="#63b8ff" points="595.79,-22.6 585.37,-24.53 594.72,-29.52 595.79,-22.6"/>
</a>
</g>
</g>
<!-- Node7&#45;&gt;Node27 -->
<g id="edge31_Node000007_Node000027" class="edge">
<title>Node7&#45;&gt;Node27</title>
<g id="a_edge31_Node000007_Node000027"><a xlink:title=" ">
<path fill="none" stroke="#63b8ff" d="M1636.25,-67.68C1640.86,-67.02 1645.53,-66.43 1650,-66 2233.73,-9.66 2389.16,-117.72 2969,-30 2973.59,-29.31 2978.35,-28.33 2983.03,-27.2"/>
<polygon fill="#63b8ff" stroke="#63b8ff" points="2984.27,-30.49 2993.05,-24.57 2982.49,-23.72 2984.27,-30.49"/>
</a>
</g>
</g>
<!-- Node28 -->
<g id="Node000028" class="node">
<title>Node28</title>
<g id="a_Node000028"><a xlink:title=" ">
<polygon fill="#e0e0e0" stroke="#999999" points="738.5,-24.5 635.5,-24.5 635.5,-5.5 738.5,-5.5 738.5,-24.5"/>
<text text-anchor="middle" x="687" y="-12.5" font-family="Helvetica,sans-Serif" font-size="10.00">../vmisc/logging.h</text>
</a>
</g>
</g>
<!-- Node7&#45;&gt;Node28 -->
<g id="edge32_Node000007_Node000028" class="edge">
<title>Node7&#45;&gt;Node28</title>
<g id="a_edge32_Node000007_Node000028"><a xlink:title=" ">
<path fill="none" stroke="#63b8ff" d="M1561.82,-74.9C1442.65,-75.67 1059.74,-74.3 747,-30 741.1,-29.16 734.92,-28.03 728.87,-26.76"/>
<polygon fill="#63b8ff" stroke="#63b8ff" points="729.4,-23.29 718.87,-24.54 727.88,-30.13 729.4,-23.29"/>
</a>
</g>
</g>
<!-- Node29 -->
<g id="Node000029" class="node">
<title>Node29</title>
<g id="a_Node000029"><a xlink:title=" ">
<polygon fill="#e0e0e0" stroke="#999999" points="923.5,-24.5 756.5,-24.5 756.5,-5.5 923.5,-5.5 923.5,-24.5"/>
<text text-anchor="middle" x="840" y="-12.5" font-family="Helvetica,sans-Serif" font-size="10.00">../vmisc/vabstractapplication.h</text>
</a>
</g>
</g>
<!-- Node7&#45;&gt;Node29 -->
<g id="edge33_Node000007_Node000029" class="edge">
<title>Node7&#45;&gt;Node29</title>
<g id="a_edge33_Node000007_Node000029"><a xlink:title=" ">
<path fill="none" stroke="#63b8ff" d="M1561.66,-73.12C1460.22,-69.11 1171.1,-56.12 932,-30 922,-28.91 911.43,-27.52 901.15,-26.04"/>
<polygon fill="#63b8ff" stroke="#63b8ff" points="901.4,-22.54 891,-24.54 900.38,-29.47 901.4,-22.54"/>
</a>
</g>
</g>
<!-- Node30 -->
<g id="Node000030" class="node">
<title>Node30</title>
<g id="a_Node000030"><a xlink:title=" ">
<polygon fill="#e0e0e0" stroke="#999999" points="1096.5,-24.5 941.5,-24.5 941.5,-5.5 1096.5,-5.5 1096.5,-24.5"/>
<text text-anchor="middle" x="1019" y="-12.5" font-family="Helvetica,sans-Serif" font-size="10.00">../vmisc/vcommonsettings.h</text>
</a>
</g>
</g>
<!-- Node7&#45;&gt;Node30 -->
<g id="edge34_Node000007_Node000030" class="edge">
<title>Node7&#45;&gt;Node30</title>
<g id="a_edge34_Node000007_Node000030"><a xlink:title=" ">
<path fill="none" stroke="#63b8ff" d="M1561.8,-72.03C1479.47,-66.37 1275.69,-51.29 1106,-30 1096.97,-28.87 1087.44,-27.51 1078.13,-26.08"/>
<polygon fill="#63b8ff" stroke="#63b8ff" points="1078.57,-22.61 1068.15,-24.52 1077.48,-29.52 1078.57,-22.61"/>
</a>
</g>
</g>
<!-- Node31 -->
<g id="Node000031" class="node">
<title>Node31</title>
<g id="a_Node000031"><a xlink:title=" ">
<polygon fill="#e0e0e0" stroke="#999999" points="1297,-24.5 1115,-24.5 1115,-5.5 1297,-5.5 1297,-24.5"/>
<text text-anchor="middle" x="1206" y="-12.5" font-family="Helvetica,sans-Serif" font-size="10.00">../vwidgets/vmaingraphicsscene.h</text>
</a>
</g>
</g>
<!-- Node7&#45;&gt;Node31 -->
<g id="edge35_Node000007_Node000031" class="edge">
<title>Node7&#45;&gt;Node31</title>
<g id="a_edge35_Node000007_Node000031"><a xlink:title=" ">
<path fill="none" stroke="#63b8ff" d="M1561.67,-68.94C1495.46,-59.09 1356.59,-38.42 1273.31,-26.02"/>
<polygon fill="#63b8ff" stroke="#63b8ff" points="1273.6,-22.52 1263.19,-24.51 1272.57,-29.45 1273.6,-22.52"/>
</a>
</g>
</g>
</g>
</svg>

<g id="navigator" transform="translate(0 0)" fill="#404254">
  <rect fill="#f2f5e9" fill-opacity="0.5" stroke="#606060" stroke-width=".5" x="0" y="0" width="60" height="60"/>
  <use id="zoomplus" xlink:href="#zoomPlus" x="17" y="9" onmousedown="handleZoom(evt,'in')"/>
  <use id="zoomminus" xlink:href="#zoomMin" x="42" y="9" onmousedown="handleZoom(evt,'out')"/>
  <use id="reset" xlink:href="#resetDef" x="30" y="36" onmousedown="handleReset()"/>
   <use id="arrowup" xlink:href="#arrowUp" x="0" y="0" onmousedown="handlePan(0,-1)"/>
  <use id="arrowright" xlink:href="#arrowRight" x="0" y="0" onmousedown="handlePan(1,0)"/>
  <use id="arrowdown" xlink:href="#arrowDown" x="0" y="0" onmousedown="handlePan(0,1)"/>
  <use id="arrowleft" xlink:href="#arrowLeft" x="0" y="0" onmousedown="handlePan(-1,0)"/>
</g>
<svg viewBox="0 0 15 15" width="100%" height="30px" preserveAspectRatio="xMaxYMin meet">
 <g id="arrow_out" transform="scale(0.3 0.3)">
  <a xlink:href="dialogarcwithlength_8h__incl_org.svg" target="_base">
   <rect id="button" ry="5" rx="5" y="6" x="6" height="38" width="38"
        fill="#f2f5e9" fill-opacity="0.5" stroke="#606060" stroke-width="1.0"/>
   <path id="arrow"
     d="M 11.500037,31.436501 C 11.940474,20.09759 22.043105,11.32322 32.158766,21.979434 L 37.068811,17.246167 C 37.068811,17.246167 37.088388,32 37.088388,32 L 22.160133,31.978069 C 22.160133,31.978069 26.997745,27.140456 26.997745,27.140456 C 18.528582,18.264221 13.291696,25.230495 11.500037,31.436501 z"
     style="fill:#404040;"/>
  </a>
 </g>
</svg>

<style type='text/css'>
<![CDATA[
[data-mouse-over-selected='false'] { opacity: 0.7; }
[data-mouse-over-selected='true']  { opacity: 1.0; }
]]>
</style>
<script type="application/ecmascript"><![CDATA[
document.addEventListener('DOMContentLoaded', (event) => {
  highlightEdges();
  highlightAdjacentNodes();
});
]]></script>
</svg>
