<?xml version="1.0" encoding="UTF-8" standalone="no"?>
<!DOCTYPE svg PUBLIC "-//W3C//DTD SVG 1.1//EN"
 "http://www.w3.org/Graphics/SVG/1.1/DTD/svg11.dtd">
<!-- Generated by graphviz version 2.43.0 (0)
 -->
<!-- Title: TST_TSTranslation Pages: 1 -->
<svg width="161pt" height="475pt"
 viewBox="0.00 0.00 161.00 475.00" xmlns="http://www.w3.org/2000/svg" xmlns:xlink="http://www.w3.org/1999/xlink">
<g id="graph0" class="graph" transform="scale(1 1) rotate(0) translate(4 471)">
<title>TST_TSTranslation</title>
<!-- Node1 -->
<g id="Node000001" class="node">
<title>Node1</title>
<g id="a_Node000001"><a xlink:title=" ">
<polygon fill="#999999" stroke="transparent" points="153,-382 0,-382 0,0 153,0 153,-382"/>
<text text-anchor="start" x="32.5" y="-370" font-family="Helvetica,sans-Serif" font-size="10.00">TST_TSTranslation</text>
<text text-anchor="start" x="7" y="-355" font-family="Helvetica,sans-Serif" font-size="10.00">&#45;</text>
<text text-anchor="start" x="17.5" y="-355" font-family="Helvetica,sans-Serif" font-size="10.00">tsFile</text>
<text text-anchor="start" x="7" y="-340" font-family="Helvetica,sans-Serif" font-size="10.00">&#45;</text>
<text text-anchor="start" x="17.5" y="-340" font-family="Helvetica,sans-Serif" font-size="10.00">tsXML</text>
<text text-anchor="start" x="7" y="-325" font-family="Helvetica,sans-Serif" font-size="10.00">&#45;</text>
<text text-anchor="start" x="17.5" y="-325" font-family="Helvetica,sans-Serif" font-size="10.00">TagName</text>
<text text-anchor="start" x="7" y="-310" font-family="Helvetica,sans-Serif" font-size="10.00">&#45;</text>
<text text-anchor="start" x="17.5" y="-310" font-family="Helvetica,sans-Serif" font-size="10.00">TagMessage</text>
<text text-anchor="start" x="7" y="-295" font-family="Helvetica,sans-Serif" font-size="10.00">&#45;</text>
<text text-anchor="start" x="17.5" y="-295" font-family="Helvetica,sans-Serif" font-size="10.00">TagSource</text>
<text text-anchor="start" x="7" y="-280" font-family="Helvetica,sans-Serif" font-size="10.00">&#45;</text>
<text text-anchor="start" x="17.5" y="-280" font-family="Helvetica,sans-Serif" font-size="10.00">TagTranslation</text>
<text text-anchor="start" x="7" y="-265" font-family="Helvetica,sans-Serif" font-size="10.00">&#45;</text>
<text text-anchor="start" x="17.5" y="-265" font-family="Helvetica,sans-Serif" font-size="10.00">AttrType</text>
<text text-anchor="start" x="7" y="-250" font-family="Helvetica,sans-Serif" font-size="10.00">&#45;</text>
<text text-anchor="start" x="17.5" y="-250" font-family="Helvetica,sans-Serif" font-size="10.00">AttrValVanished</text>
<text text-anchor="start" x="7" y="-235" font-family="Helvetica,sans-Serif" font-size="10.00">&#45;</text>
<text text-anchor="start" x="17.5" y="-235" font-family="Helvetica,sans-Serif" font-size="10.00">AttrValUnfinished</text>
<text text-anchor="start" x="7" y="-220" font-family="Helvetica,sans-Serif" font-size="10.00">&#45;</text>
<text text-anchor="start" x="17.5" y="-220" font-family="Helvetica,sans-Serif" font-size="10.00">AttrValObsolete</text>
<text text-anchor="start" x="4.5" y="-205" font-family="Helvetica,sans-Serif" font-size="10.00">+</text>
<text text-anchor="start" x="17.5" y="-205" font-family="Helvetica,sans-Serif" font-size="10.00">TST_TSTranslation()</text>
<text text-anchor="start" x="7" y="-190" font-family="Helvetica,sans-Serif" font-size="10.00">&#45;</text>
<text text-anchor="start" x="17.5" y="-190" font-family="Helvetica,sans-Serif" font-size="10.00">LoadTSFile()</text>
<text text-anchor="start" x="7" y="-175" font-family="Helvetica,sans-Serif" font-size="10.00">&#45;</text>
<text text-anchor="start" x="17.5" y="-175" font-family="Helvetica,sans-Serif" font-size="10.00">CheckEnglishLocalization</text>
<text text-anchor="start" x="17.5" y="-164" font-family="Helvetica,sans-Serif" font-size="10.00">_data()</text>
<text text-anchor="start" x="7" y="-149" font-family="Helvetica,sans-Serif" font-size="10.00">&#45;</text>
<text text-anchor="start" x="17.5" y="-149" font-family="Helvetica,sans-Serif" font-size="10.00">CheckEnglishLocalization()</text>
<text text-anchor="start" x="7" y="-134" font-family="Helvetica,sans-Serif" font-size="10.00">&#45;</text>
<text text-anchor="start" x="17.5" y="-134" font-family="Helvetica,sans-Serif" font-size="10.00">CheckEmptyToolButton</text>
<text text-anchor="start" x="17.5" y="-123" font-family="Helvetica,sans-Serif" font-size="10.00">_data()</text>
<text text-anchor="start" x="7" y="-108" font-family="Helvetica,sans-Serif" font-size="10.00">&#45;</text>
<text text-anchor="start" x="17.5" y="-108" font-family="Helvetica,sans-Serif" font-size="10.00">CheckEmptyToolButton()</text>
<text text-anchor="start" x="7" y="-93" font-family="Helvetica,sans-Serif" font-size="10.00">&#45;</text>
<text text-anchor="start" x="17.5" y="-93" font-family="Helvetica,sans-Serif" font-size="10.00">CheckPlaceMarkerExist</text>
<text text-anchor="start" x="17.5" y="-82" font-family="Helvetica,sans-Serif" font-size="10.00">_data()</text>
<text text-anchor="start" x="7" y="-67" font-family="Helvetica,sans-Serif" font-size="10.00">&#45;</text>
<text text-anchor="start" x="17.5" y="-67" font-family="Helvetica,sans-Serif" font-size="10.00">CheckPlaceMarkerExist()</text>
<text text-anchor="start" x="7" y="-52" font-family="Helvetica,sans-Serif" font-size="10.00">&#45;</text>
<text text-anchor="start" x="17.5" y="-52" font-family="Helvetica,sans-Serif" font-size="10.00">TestPunctuation_data()</text>
<text text-anchor="start" x="7" y="-37" font-family="Helvetica,sans-Serif" font-size="10.00">&#45;</text>
<text text-anchor="start" x="17.5" y="-37" font-family="Helvetica,sans-Serif" font-size="10.00">TestPunctuation()</text>
<text text-anchor="start" x="7" y="-22" font-family="Helvetica,sans-Serif" font-size="10.00">&#45;</text>
<text text-anchor="start" x="17.5" y="-22" font-family="Helvetica,sans-Serif" font-size="10.00">TestHTMLTags_data()</text>
<text text-anchor="start" x="7" y="-7" font-family="Helvetica,sans-Serif" font-size="10.00">&#45;</text>
<text text-anchor="start" x="17.5" y="-7" font-family="Helvetica,sans-Serif" font-size="10.00">TestHTMLTags()</text>
<polygon fill="#666666" stroke="#666666" points="0.5,-365 0.5,-365 153.5,-365 153.5,-365 0.5,-365"/>
<polygon fill="#666666" stroke="#666666" points="0.5,-215 0.5,-215 15.5,-215 15.5,-215 0.5,-215"/>
<polygon fill="#666666" stroke="#666666" points="15.5,-215 15.5,-215 153.5,-215 153.5,-215 15.5,-215"/>
<polygon fill="none" stroke="#666666" points="0,0 0,-382 153,-382 153,0 0,0"/>
</a>
</g>
</g>
<!-- Node2 -->
<g id="Node000002" class="node">
<title>Node2</title>
<g id="a_Node000002"><a xlink:title=" ">
<polygon fill="white" stroke="transparent" points="101.5,-467 51.5,-467 51.5,-418 101.5,-418 101.5,-467"/>
<text text-anchor="start" x="56.5" y="-454.5" font-family="Helvetica,sans-Serif" font-size="10.00">QObject</text>
<text text-anchor="start" x="74.5" y="-439.5" font-family="Helvetica,sans-Serif" font-size="10.00"> </text>
<text text-anchor="start" x="74.5" y="-424.5" font-family="Helvetica,sans-Serif" font-size="10.00"> </text>
<polygon fill="#666666" stroke="#666666" points="51.5,-449.5 51.5,-449.5 101.5,-449.5 101.5,-449.5 51.5,-449.5"/>
<polygon fill="#666666" stroke="#666666" points="51.5,-434.5 51.5,-434.5 101.5,-434.5 101.5,-434.5 51.5,-434.5"/>
<polygon fill="none" stroke="#666666" points="51.5,-418 51.5,-467 101.5,-467 101.5,-418 51.5,-418"/>
</a>
</g>
</g>
<!-- Node2&#45;&gt;Node1 -->
<g id="edge1_Node000001_Node000002" class="edge">
<title>Node2&#45;&gt;Node1</title>
<g id="a_edge1_Node000001_Node000002"><a xlink:title=" ">
<path fill="none" stroke="#63b8ff" d="M76.5,-407.54C76.5,-399.97 76.5,-391.41 76.5,-382.19"/>
<polygon fill="none" stroke="#63b8ff" points="73,-407.58 76.5,-417.58 80,-407.58 73,-407.58"/>
</a>
</g>
</g>
</g>
</svg>
