<?xml version="1.0" encoding="UTF-8" standalone="no"?>
<!DOCTYPE svg PUBLIC "-//W3C//DTD SVG 1.1//EN"
 "http://www.w3.org/Graphics/SVG/1.1/DTD/svg11.dtd">
<!-- Generated by graphviz version 2.43.0 (0)
 -->
<!-- Title: src/app/seamly2d/core/application_2d.h Pages: 1 -->
<svg width="4472pt" height="106pt"
 viewBox="0.00 0.00 4472.00 106.00" xmlns="http://www.w3.org/2000/svg" xmlns:xlink="http://www.w3.org/1999/xlink">
<g id="graph0" class="graph" transform="scale(1 1) rotate(0) translate(4 102)">
<title>src/app/seamly2d/core/application_2d.h</title>
<polygon fill="white" stroke="transparent" points="-4,4 -4,-102 4468,-102 4468,4 -4,4"/>
<!-- Node1 -->
<g id="node1" class="node">
<title>Node1</title>
<g id="a_node1"><a xlink:title=" ">
<polygon fill="#bfbfbf" stroke="black" points="2318,-67.5 2318,-97.5 2445,-97.5 2445,-67.5 2318,-67.5"/>
<text text-anchor="start" x="2326" y="-85.5" font-family="Helvetica,sans-Serif" font-size="10.00">src/app/seamly2d/core</text>
<text text-anchor="middle" x="2381.5" y="-74.5" font-family="Helvetica,sans-Serif" font-size="10.00">/application_2d.h</text>
</a>
</g>
</g>
<!-- Node2 -->
<g id="node2" class="node">
<title>Node2</title>
<g id="a_node2"><a xlink:href="../../df/d3e/application__2d_8cpp.html" target="_top" xlink:title=" ">
<polygon fill="white" stroke="black" points="0,-0.5 0,-30.5 127,-30.5 127,-0.5 0,-0.5"/>
<text text-anchor="start" x="8" y="-18.5" font-family="Helvetica,sans-Serif" font-size="10.00">src/app/seamly2d/core</text>
<text text-anchor="middle" x="63.5" y="-7.5" font-family="Helvetica,sans-Serif" font-size="10.00">/application_2d.cpp</text>
</a>
</g>
</g>
<!-- Node1&#45;&gt;Node2 -->
<g id="edge1" class="edge">
<title>Node1&#45;&gt;Node2</title>
<path fill="none" stroke="midnightblue" d="M2307.84,-81.59C1970.47,-81.73 570.73,-79.34 135.5,-31 132.71,-30.69 129.87,-30.33 127.01,-29.92"/>
<polygon fill="midnightblue" stroke="midnightblue" points="2307.98,-85.09 2317.98,-81.58 2307.97,-78.09 2307.98,-85.09"/>
</g>
<!-- Node3 -->
<g id="node3" class="node">
<title>Node3</title>
<g id="a_node3"><a xlink:href="../../d9/d7f/about2d__dialog_8cpp.html" target="_top" xlink:title=" ">
<polygon fill="white" stroke="black" points="145,-0.5 145,-30.5 286,-30.5 286,-0.5 145,-0.5"/>
<text text-anchor="start" x="153" y="-18.5" font-family="Helvetica,sans-Serif" font-size="10.00">src/app/seamly2d/dialogs</text>
<text text-anchor="middle" x="215.5" y="-7.5" font-family="Helvetica,sans-Serif" font-size="10.00">/about2d_dialog.cpp</text>
</a>
</g>
</g>
<!-- Node1&#45;&gt;Node3 -->
<g id="edge2" class="edge">
<title>Node1&#45;&gt;Node3</title>
<path fill="none" stroke="midnightblue" d="M2307.62,-81.25C1985,-79.92 697.8,-72.08 295.5,-31 292.41,-30.68 289.26,-30.32 286.09,-29.91"/>
<polygon fill="midnightblue" stroke="midnightblue" points="2307.78,-84.75 2317.79,-81.29 2307.81,-77.75 2307.78,-84.75"/>
</g>
<!-- Node4 -->
<g id="node4" class="node">
<title>Node4</title>
<g id="a_node4"><a xlink:href="../../dd/db4/abstractlayout__dialog_8cpp.html" target="_top" xlink:title=" ">
<polygon fill="white" stroke="black" points="304.5,-0.5 304.5,-30.5 450.5,-30.5 450.5,-0.5 304.5,-0.5"/>
<text text-anchor="start" x="312.5" y="-18.5" font-family="Helvetica,sans-Serif" font-size="10.00">src/app/seamly2d/dialogs</text>
<text text-anchor="middle" x="377.5" y="-7.5" font-family="Helvetica,sans-Serif" font-size="10.00">/abstractlayout_dialog.cpp</text>
</a>
</g>
</g>
<!-- Node1&#45;&gt;Node4 -->
<g id="edge3" class="edge">
<title>Node1&#45;&gt;Node4</title>
<path fill="none" stroke="midnightblue" d="M2307.71,-81.03C2001.26,-78.85 827.9,-68.2 459.5,-31 456.62,-30.71 453.7,-30.38 450.74,-30.01"/>
<polygon fill="midnightblue" stroke="midnightblue" points="2307.79,-84.53 2317.81,-81.1 2307.84,-77.53 2307.79,-84.53"/>
</g>
<!-- Node5 -->
<g id="node5" class="node">
<title>Node5</title>
<g id="a_node5"><a xlink:href="../../d7/dfa/calculator__dialog_8cpp.html" target="_top" xlink:title=" ">
<polygon fill="white" stroke="black" points="469,-0.5 469,-30.5 610,-30.5 610,-0.5 469,-0.5"/>
<text text-anchor="start" x="477" y="-18.5" font-family="Helvetica,sans-Serif" font-size="10.00">src/app/seamly2d/dialogs</text>
<text text-anchor="middle" x="539.5" y="-7.5" font-family="Helvetica,sans-Serif" font-size="10.00">/calculator_dialog.cpp</text>
</a>
</g>
</g>
<!-- Node1&#45;&gt;Node5 -->
<g id="edge4" class="edge">
<title>Node1&#45;&gt;Node5</title>
<path fill="none" stroke="midnightblue" d="M2307.24,-80.86C2016.44,-78.14 954.55,-65.96 619.5,-31 616.41,-30.68 613.26,-30.3 610.09,-29.89"/>
<polygon fill="midnightblue" stroke="midnightblue" points="2307.64,-84.37 2317.67,-80.96 2307.7,-77.37 2307.64,-84.37"/>
</g>
<!-- Node6 -->
<g id="node6" class="node">
<title>Node6</title>
<g id="a_node6"><a xlink:href="../../d2/d00/vtooloptionspropertybrowser_8cpp.html" target="_top" xlink:title=" ">
<polygon fill="white" stroke="black" points="628.5,-0.5 628.5,-30.5 808.5,-30.5 808.5,-0.5 628.5,-0.5"/>
<text text-anchor="start" x="636.5" y="-18.5" font-family="Helvetica,sans-Serif" font-size="10.00">src/app/seamly2d/core</text>
<text text-anchor="middle" x="718.5" y="-7.5" font-family="Helvetica,sans-Serif" font-size="10.00">/vtooloptionspropertybrowser.cpp</text>
</a>
</g>
</g>
<!-- Node1&#45;&gt;Node6 -->
<g id="edge5" class="edge">
<title>Node1&#45;&gt;Node6</title>
<path fill="none" stroke="midnightblue" d="M2307.64,-82.08C2083.18,-83.19 1389.48,-81.96 817.5,-31 814.56,-30.74 811.57,-30.45 808.56,-30.13"/>
<polygon fill="midnightblue" stroke="midnightblue" points="2307.67,-85.58 2317.66,-82.02 2307.64,-78.58 2307.67,-85.58"/>
</g>
<!-- Node7 -->
<g id="node7" class="node">
<title>Node7</title>
<g id="a_node7"><a xlink:href="../../d2/d2d/preferencesconfigurationpage_8cpp.html" target="_top" xlink:title=" ">
<polygon fill="white" stroke="black" points="827,-0.5 827,-30.5 1074,-30.5 1074,-0.5 827,-0.5"/>
<text text-anchor="start" x="835" y="-18.5" font-family="Helvetica,sans-Serif" font-size="10.00">src/app/seamly2d/dialogs</text>
<text text-anchor="middle" x="950.5" y="-7.5" font-family="Helvetica,sans-Serif" font-size="10.00">/configpages/preferencesconfigurationpage.cpp</text>
</a>
</g>
</g>
<!-- Node1&#45;&gt;Node7 -->
<g id="edge6" class="edge">
<title>Node1&#45;&gt;Node7</title>
<path fill="none" stroke="midnightblue" d="M2307.87,-80.46C2109.64,-77.25 1548.18,-65.59 1082.5,-31 1079.74,-30.8 1076.95,-30.58 1074.14,-30.35"/>
<polygon fill="midnightblue" stroke="midnightblue" points="2307.83,-83.96 2317.88,-80.62 2307.94,-76.96 2307.83,-83.96"/>
</g>
<!-- Node8 -->
<g id="node8" class="node">
<title>Node8</title>
<g id="a_node8"><a xlink:href="../../dc/d20/preferencespathpage_8cpp.html" target="_top" xlink:title=" ">
<polygon fill="white" stroke="black" points="1092,-0.5 1092,-30.5 1297,-30.5 1297,-0.5 1092,-0.5"/>
<text text-anchor="start" x="1100" y="-18.5" font-family="Helvetica,sans-Serif" font-size="10.00">src/app/seamly2d/dialogs</text>
<text text-anchor="middle" x="1194.5" y="-7.5" font-family="Helvetica,sans-Serif" font-size="10.00">/configpages/preferencespathpage.cpp</text>
</a>
</g>
</g>
<!-- Node1&#45;&gt;Node8 -->
<g id="edge7" class="edge">
<title>Node1&#45;&gt;Node8</title>
<path fill="none" stroke="midnightblue" d="M2307.6,-80.14C2132.98,-76.48 1681.29,-64.31 1305.5,-31 1302.79,-30.76 1300.04,-30.5 1297.27,-30.23"/>
<polygon fill="midnightblue" stroke="midnightblue" points="2307.63,-83.65 2317.7,-80.35 2307.78,-76.65 2307.63,-83.65"/>
</g>
<!-- Node9 -->
<g id="node9" class="node">
<title>Node9</title>
<g id="a_node9"><a xlink:href="../../d9/d70/preferencesgraphicsviewpage_8cpp.html" target="_top" xlink:title=" ">
<polygon fill="white" stroke="black" points="1314.5,-0.5 1314.5,-30.5 1562.5,-30.5 1562.5,-0.5 1314.5,-0.5"/>
<text text-anchor="start" x="1322.5" y="-18.5" font-family="Helvetica,sans-Serif" font-size="10.00">src/app/seamly2d/dialogs</text>
<text text-anchor="middle" x="1438.5" y="-7.5" font-family="Helvetica,sans-Serif" font-size="10.00">/configpages/preferencesgraphicsviewpage.cpp</text>
</a>
</g>
</g>
<!-- Node1&#45;&gt;Node9 -->
<g id="edge8" class="edge">
<title>Node1&#45;&gt;Node9</title>
<path fill="none" stroke="midnightblue" d="M2307.53,-78.04C2164.98,-71.11 1842.33,-54.19 1571.5,-31 1568.61,-30.75 1565.68,-30.49 1562.73,-30.23"/>
<polygon fill="midnightblue" stroke="midnightblue" points="2307.74,-81.55 2317.89,-78.54 2308.07,-74.56 2307.74,-81.55"/>
</g>
<!-- Node10 -->
<g id="node10" class="node">
<title>Node10</title>
<g id="a_node10"><a xlink:href="../../dd/dc2/decimalchart__dialog_8cpp.html" target="_top" xlink:title=" ">
<polygon fill="white" stroke="black" points="1581,-0.5 1581,-30.5 1722,-30.5 1722,-0.5 1581,-0.5"/>
<text text-anchor="start" x="1589" y="-18.5" font-family="Helvetica,sans-Serif" font-size="10.00">src/app/seamly2d/dialogs</text>
<text text-anchor="middle" x="1651.5" y="-7.5" font-family="Helvetica,sans-Serif" font-size="10.00">/decimalchart_dialog.cpp</text>
</a>
</g>
</g>
<!-- Node1&#45;&gt;Node10 -->
<g id="edge9" class="edge">
<title>Node1&#45;&gt;Node10</title>
<path fill="none" stroke="midnightblue" d="M2307.37,-78.2C2186.42,-72.26 1939.29,-57.83 1731.5,-31 1728.42,-30.6 1725.28,-30.17 1722.11,-29.7"/>
<polygon fill="midnightblue" stroke="midnightblue" points="2307.46,-81.71 2317.62,-78.7 2307.8,-74.72 2307.46,-81.71"/>
</g>
<!-- Node11 -->
<g id="node11" class="node">
<title>Node11</title>
<g id="a_node11"><a xlink:href="../../dc/d63/preferencespatternpage_8cpp.html" target="_top" xlink:title=" ">
<polygon fill="white" stroke="black" points="1740.5,-0.5 1740.5,-30.5 1958.5,-30.5 1958.5,-0.5 1740.5,-0.5"/>
<text text-anchor="start" x="1748.5" y="-18.5" font-family="Helvetica,sans-Serif" font-size="10.00">src/app/seamly2d/dialogs</text>
<text text-anchor="middle" x="1849.5" y="-7.5" font-family="Helvetica,sans-Serif" font-size="10.00">/configpages/preferencespatternpage.cpp</text>
</a>
</g>
</g>
<!-- Node1&#45;&gt;Node11 -->
<g id="edge10" class="edge">
<title>Node1&#45;&gt;Node11</title>
<path fill="none" stroke="midnightblue" d="M2307.6,-72.51C2224.78,-62.42 2086.51,-45.57 1967.5,-31 1964.63,-30.65 1961.72,-30.29 1958.79,-29.93"/>
<polygon fill="midnightblue" stroke="midnightblue" points="2307.32,-76 2317.67,-73.73 2308.16,-69.05 2307.32,-76"/>
</g>
<!-- Node12 -->
<g id="node12" class="node">
<title>Node12</title>
<g id="a_node12"><a xlink:href="../../d6/d89/dialoglayoutprogress_8cpp.html" target="_top" xlink:title=" ">
<polygon fill="white" stroke="black" points="1977,-0.5 1977,-30.5 2120,-30.5 2120,-0.5 1977,-0.5"/>
<text text-anchor="start" x="1985" y="-18.5" font-family="Helvetica,sans-Serif" font-size="10.00">src/app/seamly2d/dialogs</text>
<text text-anchor="middle" x="2048.5" y="-7.5" font-family="Helvetica,sans-Serif" font-size="10.00">/dialoglayoutprogress.cpp</text>
</a>
</g>
</g>
<!-- Node1&#45;&gt;Node12 -->
<g id="edge11" class="edge">
<title>Node1&#45;&gt;Node12</title>
<path fill="none" stroke="midnightblue" d="M2307.85,-67.12C2251.97,-56.22 2175.58,-41.3 2120.18,-30.49"/>
<polygon fill="midnightblue" stroke="midnightblue" points="2307.2,-70.56 2317.69,-69.04 2308.54,-63.69 2307.2,-70.56"/>
</g>
<!-- Node13 -->
<g id="node13" class="node">
<title>Node13</title>
<g id="a_node13"><a xlink:href="../../d5/d18/dialogpatternproperties_8cpp.html" target="_top" xlink:title=" ">
<polygon fill="white" stroke="black" points="2138,-0.5 2138,-30.5 2293,-30.5 2293,-0.5 2138,-0.5"/>
<text text-anchor="start" x="2146" y="-18.5" font-family="Helvetica,sans-Serif" font-size="10.00">src/app/seamly2d/dialogs</text>
<text text-anchor="middle" x="2215.5" y="-7.5" font-family="Helvetica,sans-Serif" font-size="10.00">/dialogpatternproperties.cpp</text>
</a>
</g>
</g>
<!-- Node1&#45;&gt;Node13 -->
<g id="edge12" class="edge">
<title>Node1&#45;&gt;Node13</title>
<path fill="none" stroke="midnightblue" d="M2335.99,-63.68C2309.37,-53.26 2276.23,-40.28 2251.45,-30.58"/>
<polygon fill="midnightblue" stroke="midnightblue" points="2334.89,-67.01 2345.48,-67.4 2337.45,-60.49 2334.89,-67.01"/>
</g>
<!-- Node14 -->
<g id="node14" class="node">
<title>Node14</title>
<g id="a_node14"><a xlink:href="../../d5/dc5/dialogpreferences_8cpp.html" target="_top" xlink:title=" ">
<polygon fill="white" stroke="black" points="2311,-0.5 2311,-30.5 2452,-30.5 2452,-0.5 2311,-0.5"/>
<text text-anchor="start" x="2319" y="-18.5" font-family="Helvetica,sans-Serif" font-size="10.00">src/app/seamly2d/dialogs</text>
<text text-anchor="middle" x="2381.5" y="-7.5" font-family="Helvetica,sans-Serif" font-size="10.00">/dialogpreferences.cpp</text>
</a>
</g>
</g>
<!-- Node1&#45;&gt;Node14 -->
<g id="edge13" class="edge">
<title>Node1&#45;&gt;Node14</title>
<path fill="none" stroke="midnightblue" d="M2381.5,-57.11C2381.5,-48.15 2381.5,-38.32 2381.5,-30.58"/>
<polygon fill="midnightblue" stroke="midnightblue" points="2378,-57.4 2381.5,-67.4 2385,-57.4 2378,-57.4"/>
</g>
<!-- Node15 -->
<g id="node15" class="node">
<title>Node15</title>
<g id="a_node15"><a xlink:href="../../de/d87/dialognewpattern_8cpp.html" target="_top" xlink:title=" ">
<polygon fill="white" stroke="black" points="2470,-0.5 2470,-30.5 2611,-30.5 2611,-0.5 2470,-0.5"/>
<text text-anchor="start" x="2478" y="-18.5" font-family="Helvetica,sans-Serif" font-size="10.00">src/app/seamly2d/dialogs</text>
<text text-anchor="middle" x="2540.5" y="-7.5" font-family="Helvetica,sans-Serif" font-size="10.00">/dialognewpattern.cpp</text>
</a>
</g>
</g>
<!-- Node1&#45;&gt;Node15 -->
<g id="edge14" class="edge">
<title>Node1&#45;&gt;Node15</title>
<path fill="none" stroke="midnightblue" d="M2425.42,-63.54C2450.87,-53.14 2482.43,-40.24 2506.07,-30.58"/>
<polygon fill="midnightblue" stroke="midnightblue" points="2423.93,-60.37 2416,-67.4 2426.58,-66.85 2423.93,-60.37"/>
</g>
<!-- Node16 -->
<g id="node16" class="node">
<title>Node16</title>
<g id="a_node16"><a xlink:href="../../dd/d54/export__layout__dialog_8cpp.html" target="_top" xlink:title=" ">
<polygon fill="white" stroke="black" points="2629,-0.5 2629,-30.5 2772,-30.5 2772,-0.5 2629,-0.5"/>
<text text-anchor="start" x="2637" y="-18.5" font-family="Helvetica,sans-Serif" font-size="10.00">src/app/seamly2d/dialogs</text>
<text text-anchor="middle" x="2700.5" y="-7.5" font-family="Helvetica,sans-Serif" font-size="10.00">/export_layout_dialog.cpp</text>
</a>
</g>
</g>
<!-- Node1&#45;&gt;Node16 -->
<g id="edge15" class="edge">
<title>Node1&#45;&gt;Node16</title>
<path fill="none" stroke="midnightblue" d="M2455.32,-66.46C2508.45,-55.63 2579.61,-41.13 2631.57,-30.54"/>
<polygon fill="midnightblue" stroke="midnightblue" points="2454.39,-63.08 2445.29,-68.5 2455.79,-69.94 2454.39,-63.08"/>
</g>
<!-- Node17 -->
<g id="node17" class="node">
<title>Node17</title>
<g id="a_node17"><a xlink:href="../../db/d5c/groups__widget_8cpp.html" target="_top" xlink:title=" ">
<polygon fill="white" stroke="black" points="2790,-0.5 2790,-30.5 2931,-30.5 2931,-0.5 2790,-0.5"/>
<text text-anchor="start" x="2798" y="-18.5" font-family="Helvetica,sans-Serif" font-size="10.00">src/app/seamly2d/dialogs</text>
<text text-anchor="middle" x="2860.5" y="-7.5" font-family="Helvetica,sans-Serif" font-size="10.00">/groups_widget.cpp</text>
</a>
</g>
</g>
<!-- Node1&#45;&gt;Node17 -->
<g id="edge16" class="edge">
<title>Node1&#45;&gt;Node17</title>
<path fill="none" stroke="midnightblue" d="M2455.06,-73.46C2535.44,-64.39 2667.9,-48.58 2781.5,-31 2784.26,-30.57 2787.06,-30.13 2789.9,-29.66"/>
<polygon fill="midnightblue" stroke="midnightblue" points="2454.59,-69.99 2445.04,-74.59 2455.37,-76.95 2454.59,-69.99"/>
</g>
<!-- Node18 -->
<g id="node18" class="node">
<title>Node18</title>
<g id="a_node18"><a xlink:href="../../d0/dfa/layoutsettings__dialog_8cpp.html" target="_top" xlink:title=" ">
<polygon fill="white" stroke="black" points="2949,-0.5 2949,-30.5 3094,-30.5 3094,-0.5 2949,-0.5"/>
<text text-anchor="start" x="2957" y="-18.5" font-family="Helvetica,sans-Serif" font-size="10.00">src/app/seamly2d/dialogs</text>
<text text-anchor="middle" x="3021.5" y="-7.5" font-family="Helvetica,sans-Serif" font-size="10.00">/layoutsettings_dialog.cpp</text>
</a>
</g>
</g>
<!-- Node1&#45;&gt;Node18 -->
<g id="edge17" class="edge">
<title>Node1&#45;&gt;Node18</title>
<path fill="none" stroke="midnightblue" d="M2455.48,-76.88C2562.71,-69.71 2767.42,-54.26 2940.5,-31 2943.19,-30.64 2945.93,-30.25 2948.69,-29.84"/>
<polygon fill="midnightblue" stroke="midnightblue" points="2455.16,-73.39 2445.42,-77.54 2455.63,-80.37 2455.16,-73.39"/>
</g>
<!-- Node19 -->
<g id="node19" class="node">
<title>Node19</title>
<g id="a_node19"><a xlink:href="../../dd/d84/shortcuts__dialog_8cpp.html" target="_top" xlink:title=" ">
<polygon fill="white" stroke="black" points="3112,-0.5 3112,-30.5 3253,-30.5 3253,-0.5 3112,-0.5"/>
<text text-anchor="start" x="3120" y="-18.5" font-family="Helvetica,sans-Serif" font-size="10.00">src/app/seamly2d/dialogs</text>
<text text-anchor="middle" x="3182.5" y="-7.5" font-family="Helvetica,sans-Serif" font-size="10.00">/shortcuts_dialog.cpp</text>
</a>
</g>
</g>
<!-- Node1&#45;&gt;Node19 -->
<g id="edge18" class="edge">
<title>Node1&#45;&gt;Node19</title>
<path fill="none" stroke="midnightblue" d="M2455.8,-79.04C2586.98,-74.09 2868.03,-60.75 3103.5,-31 3106.27,-30.65 3109.08,-30.27 3111.93,-29.86"/>
<polygon fill="midnightblue" stroke="midnightblue" points="2455.34,-75.56 2445.48,-79.43 2455.6,-82.55 2455.34,-75.56"/>
</g>
<!-- Node20 -->
<g id="node20" class="node">
<title>Node20</title>
<g id="a_node20"><a xlink:href="../../df/d69/welcome__dialog_8cpp.html" target="_top" xlink:title=" ">
<polygon fill="white" stroke="black" points="3271,-0.5 3271,-30.5 3412,-30.5 3412,-0.5 3271,-0.5"/>
<text text-anchor="start" x="3279" y="-18.5" font-family="Helvetica,sans-Serif" font-size="10.00">src/app/seamly2d/dialogs</text>
<text text-anchor="middle" x="3341.5" y="-7.5" font-family="Helvetica,sans-Serif" font-size="10.00">/welcome_dialog.cpp</text>
</a>
</g>
</g>
<!-- Node1&#45;&gt;Node20 -->
<g id="edge19" class="edge">
<title>Node1&#45;&gt;Node20</title>
<path fill="none" stroke="midnightblue" d="M2455.16,-80.37C2606.78,-77.35 2964.55,-66.74 3262.5,-31 3265.27,-30.67 3268.09,-30.3 3270.93,-29.9"/>
<polygon fill="midnightblue" stroke="midnightblue" points="2454.97,-76.87 2445.04,-80.56 2455.1,-83.87 2454.97,-76.87"/>
</g>
<!-- Node21 -->
<g id="node21" class="node">
<title>Node21</title>
<g id="a_node21"><a xlink:href="../../dc/d14/app_2seamly2d_2main_8cpp.html" target="_top" xlink:title=" ">
<polygon fill="white" stroke="black" points="3430,-6 3430,-25 3581,-25 3581,-6 3430,-6"/>
<text text-anchor="middle" x="3505.5" y="-13" font-family="Helvetica,sans-Serif" font-size="10.00">src/app/seamly2d/main.cpp</text>
</a>
</g>
</g>
<!-- Node1&#45;&gt;Node21 -->
<g id="edge20" class="edge">
<title>Node1&#45;&gt;Node21</title>
<path fill="none" stroke="midnightblue" d="M2455.14,-81.02C2625.64,-79.22 3060.53,-70.77 3421.5,-31 3434.74,-29.54 3449.05,-27.32 3462.05,-25.04"/>
<polygon fill="midnightblue" stroke="midnightblue" points="2454.99,-77.52 2445.02,-81.12 2455.06,-84.52 2454.99,-77.52"/>
</g>
<!-- Node22 -->
<g id="node22" class="node">
<title>Node22</title>
<g id="a_node22"><a xlink:href="../../d2/df4/show__info__dialog_8cpp.html" target="_top" xlink:title=" ">
<polygon fill="white" stroke="black" points="3599,-0.5 3599,-30.5 3740,-30.5 3740,-0.5 3599,-0.5"/>
<text text-anchor="start" x="3607" y="-18.5" font-family="Helvetica,sans-Serif" font-size="10.00">src/app/seamly2d/dialogs</text>
<text text-anchor="middle" x="3669.5" y="-7.5" font-family="Helvetica,sans-Serif" font-size="10.00">/show_info_dialog.cpp</text>
</a>
</g>
</g>
<!-- Node1&#45;&gt;Node22 -->
<g id="edge21" class="edge">
<title>Node1&#45;&gt;Node22</title>
<path fill="none" stroke="midnightblue" d="M2455.43,-82C2644.81,-82.5 3162.56,-78.97 3590.5,-31 3593.27,-30.69 3596.09,-30.34 3598.94,-29.96"/>
<polygon fill="midnightblue" stroke="midnightblue" points="2455.33,-78.5 2445.32,-81.97 2455.3,-85.5 2455.33,-78.5"/>
</g>
<!-- Node23 -->
<g id="node23" class="node">
<title>Node23</title>
<g id="a_node23"><a xlink:href="../../d8/de8/mainwindowsnogui_8cpp.html" target="_top" xlink:title=" ">
<polygon fill="white" stroke="black" points="3758,-6 3758,-25 3979,-25 3979,-6 3758,-6"/>
<text text-anchor="middle" x="3868.5" y="-13" font-family="Helvetica,sans-Serif" font-size="10.00">src/app/seamly2d/mainwindowsnogui.cpp</text>
</a>
</g>
</g>
<!-- Node1&#45;&gt;Node23 -->
<g id="edge22" class="edge">
<title>Node1&#45;&gt;Node23</title>
<path fill="none" stroke="midnightblue" d="M2455.08,-80.96C2660.27,-79 3256.15,-70.09 3749.5,-31 3768.17,-29.52 3788.42,-27.29 3806.84,-25.02"/>
<polygon fill="midnightblue" stroke="midnightblue" points="2454.99,-77.47 2445.02,-81.06 2455.05,-84.46 2454.99,-77.47"/>
</g>
<!-- Node24 -->
<g id="node24" class="node">
<title>Node24</title>
<g id="a_node24"><a xlink:href="../../d8/dd9/mainwindow_8cpp.html" target="_top" xlink:title=" ">
<polygon fill="white" stroke="black" points="3997.5,-6 3997.5,-25 4185.5,-25 4185.5,-6 3997.5,-6"/>
<text text-anchor="middle" x="4091.5" y="-13" font-family="Helvetica,sans-Serif" font-size="10.00">src/app/seamly2d/mainwindow.cpp</text>
</a>
</g>
</g>
<!-- Node1&#45;&gt;Node24 -->
<g id="edge23" class="edge">
<title>Node1&#45;&gt;Node24</title>
<path fill="none" stroke="midnightblue" d="M2455.37,-82.02C2683.82,-83.03 3398.93,-81.61 3988.5,-31 4004.96,-29.59 4022.82,-27.33 4038.96,-25.02"/>
<polygon fill="midnightblue" stroke="midnightblue" points="2455.2,-78.52 2445.19,-81.98 2455.17,-85.52 2455.2,-78.52"/>
</g>
<!-- Node25 -->
<g id="node25" class="node">
<title>Node25</title>
<g id="a_node25"><a xlink:href="../../d3/d49/vpattern_8cpp.html" target="_top" xlink:title=" ">
<polygon fill="white" stroke="black" points="4204,-0.5 4204,-30.5 4329,-30.5 4329,-0.5 4204,-0.5"/>
<text text-anchor="start" x="4212" y="-18.5" font-family="Helvetica,sans-Serif" font-size="10.00">src/app/seamly2d/xml</text>
<text text-anchor="middle" x="4266.5" y="-7.5" font-family="Helvetica,sans-Serif" font-size="10.00">/vpattern.cpp</text>
</a>
</g>
</g>
<!-- Node1&#45;&gt;Node25 -->
<g id="edge24" class="edge">
<title>Node1&#45;&gt;Node25</title>
<path fill="none" stroke="midnightblue" d="M2455.49,-81.13C2751.24,-79.37 3849.17,-70.29 4194.5,-31 4197.54,-30.65 4200.64,-30.25 4203.77,-29.79"/>
<polygon fill="midnightblue" stroke="midnightblue" points="2455.29,-77.63 2445.31,-81.19 2455.33,-84.63 2455.29,-77.63"/>
</g>
<!-- Node26 -->
<g id="node26" class="node">
<title>Node26</title>
<g id="a_node26"><a xlink:href="../../d9/da3/image__tool_8cpp.html" target="_top" xlink:title=" ">
<polygon fill="white" stroke="black" points="4347,-0.5 4347,-30.5 4464,-30.5 4464,-0.5 4347,-0.5"/>
<text text-anchor="start" x="4355" y="-18.5" font-family="Helvetica,sans-Serif" font-size="10.00">src/libs/tools/images</text>
<text text-anchor="middle" x="4405.5" y="-7.5" font-family="Helvetica,sans-Serif" font-size="10.00">/image_tool.cpp</text>
</a>
</g>
</g>
<!-- Node1&#45;&gt;Node26 -->
<g id="edge25" class="edge">
<title>Node1&#45;&gt;Node26</title>
<path fill="none" stroke="midnightblue" d="M2455.64,-81.44C2766.21,-80.92 3963.76,-75.98 4338.5,-31 4341.22,-30.67 4343.99,-30.29 4346.78,-29.86"/>
<polygon fill="midnightblue" stroke="midnightblue" points="2455.4,-77.94 2445.4,-81.46 2455.41,-84.94 2455.4,-77.94"/>
</g>
</g>
</svg>
