<?xml version="1.0" encoding="UTF-8" standalone="no"?>
<!DOCTYPE svg PUBLIC "-//W3C//DTD SVG 1.1//EN"
 "http://www.w3.org/Graphics/SVG/1.1/DTD/svg11.dtd">
<!-- Generated by graphviz version 2.43.0 (0)
 -->
<!-- Title: MeasurementVariable Pages: 1 -->
<svg width="153pt" height="797pt"
 viewBox="0.00 0.00 153.00 797.00" xmlns="http://www.w3.org/2000/svg" xmlns:xlink="http://www.w3.org/1999/xlink">
<g id="graph0" class="graph" transform="scale(1 1) rotate(0) translate(4 793)">
<title>MeasurementVariable</title>
<!-- Node1 -->
<g id="Node000001" class="node">
<title>Node1</title>
<g id="a_Node000001"><a xlink:title="The MeasurementVariable class keep data row of multisize table.">
<polygon fill="#999999" stroke="transparent" points="145,-319 0,-319 0,0 145,0 145,-319"/>
<text text-anchor="start" x="19" y="-306.5" font-family="Helvetica,sans-Serif" font-size="10.00">MeasurementVariable</text>
<text text-anchor="start" x="7" y="-291.5" font-family="Helvetica,sans-Serif" font-size="10.00">&#45;</text>
<text text-anchor="start" x="17.5" y="-291.5" font-family="Helvetica,sans-Serif" font-size="10.00">d</text>
<text text-anchor="start" x="4.5" y="-276.5" font-family="Helvetica,sans-Serif" font-size="10.00">+</text>
<text text-anchor="start" x="17.5" y="-276.5" font-family="Helvetica,sans-Serif" font-size="10.00">MeasurementVariable()</text>
<text text-anchor="start" x="4.5" y="-261.5" font-family="Helvetica,sans-Serif" font-size="10.00">+</text>
<text text-anchor="start" x="17.5" y="-261.5" font-family="Helvetica,sans-Serif" font-size="10.00">MeasurementVariable()</text>
<text text-anchor="start" x="4.5" y="-246.5" font-family="Helvetica,sans-Serif" font-size="10.00">+</text>
<text text-anchor="start" x="17.5" y="-246.5" font-family="Helvetica,sans-Serif" font-size="10.00">MeasurementVariable()</text>
<text text-anchor="start" x="4.5" y="-231.5" font-family="Helvetica,sans-Serif" font-size="10.00">+</text>
<text text-anchor="start" x="17.5" y="-231.5" font-family="Helvetica,sans-Serif" font-size="10.00">~MeasurementVariable()</text>
<text text-anchor="start" x="4.5" y="-216.5" font-family="Helvetica,sans-Serif" font-size="10.00">+</text>
<text text-anchor="start" x="17.5" y="-216.5" font-family="Helvetica,sans-Serif" font-size="10.00">operator=()</text>
<text text-anchor="start" x="4.5" y="-201.5" font-family="Helvetica,sans-Serif" font-size="10.00">+</text>
<text text-anchor="start" x="17.5" y="-201.5" font-family="Helvetica,sans-Serif" font-size="10.00">Swap()</text>
<text text-anchor="start" x="4.5" y="-186.5" font-family="Helvetica,sans-Serif" font-size="10.00">+</text>
<text text-anchor="start" x="17.5" y="-186.5" font-family="Helvetica,sans-Serif" font-size="10.00">getGuiText()</text>
<text text-anchor="start" x="4.5" y="-171.5" font-family="Helvetica,sans-Serif" font-size="10.00">+</text>
<text text-anchor="start" x="17.5" y="-171.5" font-family="Helvetica,sans-Serif" font-size="10.00">TagName()</text>
<text text-anchor="start" x="4.5" y="-156.5" font-family="Helvetica,sans-Serif" font-size="10.00">+</text>
<text text-anchor="start" x="17.5" y="-156.5" font-family="Helvetica,sans-Serif" font-size="10.00">setTagName()</text>
<text text-anchor="start" x="4.5" y="-141.5" font-family="Helvetica,sans-Serif" font-size="10.00">+</text>
<text text-anchor="start" x="17.5" y="-141.5" font-family="Helvetica,sans-Serif" font-size="10.00">GetFormula()</text>
<text text-anchor="start" x="17.5" y="-126.5" font-family="Helvetica,sans-Serif" font-size="10.00">and 16 more...</text>
<text text-anchor="start" x="4.5" y="-111.5" font-family="Helvetica,sans-Serif" font-size="10.00">+</text>
<text text-anchor="start" x="17.5" y="-111.5" font-family="Helvetica,sans-Serif" font-size="10.00">ListHeights()</text>
<text text-anchor="start" x="4.5" y="-96.5" font-family="Helvetica,sans-Serif" font-size="10.00">+</text>
<text text-anchor="start" x="17.5" y="-96.5" font-family="Helvetica,sans-Serif" font-size="10.00">ListSizes()</text>
<text text-anchor="start" x="4.5" y="-81.5" font-family="Helvetica,sans-Serif" font-size="10.00">+</text>
<text text-anchor="start" x="17.5" y="-81.5" font-family="Helvetica,sans-Serif" font-size="10.00">WholeListHeights()</text>
<text text-anchor="start" x="4.5" y="-66.5" font-family="Helvetica,sans-Serif" font-size="10.00">+</text>
<text text-anchor="start" x="17.5" y="-66.5" font-family="Helvetica,sans-Serif" font-size="10.00">WholeListSizes()</text>
<text text-anchor="start" x="4.5" y="-51.5" font-family="Helvetica,sans-Serif" font-size="10.00">+</text>
<text text-anchor="start" x="17.5" y="-51.5" font-family="Helvetica,sans-Serif" font-size="10.00">IsGradationSizeValid()</text>
<text text-anchor="start" x="4.5" y="-36.5" font-family="Helvetica,sans-Serif" font-size="10.00">+</text>
<text text-anchor="start" x="17.5" y="-36.5" font-family="Helvetica,sans-Serif" font-size="10.00">IsGradationHeightValid()</text>
<text text-anchor="start" x="7" y="-21.5" font-family="Helvetica,sans-Serif" font-size="10.00">&#45;</text>
<text text-anchor="start" x="17.5" y="-21.5" font-family="Helvetica,sans-Serif" font-size="10.00">CalcValue()</text>
<text text-anchor="start" x="7" y="-6.5" font-family="Helvetica,sans-Serif" font-size="10.00">&#45;</text>
<text text-anchor="start" x="17.5" y="-6.5" font-family="Helvetica,sans-Serif" font-size="10.00">ListValue()</text>
<polygon fill="#666666" stroke="#666666" points="0.5,-301.5 0.5,-301.5 145.5,-301.5 145.5,-301.5 0.5,-301.5"/>
<polygon fill="#666666" stroke="#666666" points="0.5,-286.5 0.5,-286.5 15.5,-286.5 15.5,-286.5 0.5,-286.5"/>
<polygon fill="#666666" stroke="#666666" points="15.5,-286.5 15.5,-286.5 145.5,-286.5 145.5,-286.5 15.5,-286.5"/>
<polygon fill="none" stroke="#666666" points="0,0 0,-319 145,-319 145,0 0,0"/>
</a>
</g>
</g>
<!-- Node2 -->
<g id="Node000002" class="node">
<title>Node2</title>
<g id="a_Node000002"><a xlink:href="../../da/d49/classVVariable.html" target="_top" xlink:title=" ">
<polygon fill="white" stroke="transparent" points="123.5,-509 21.5,-509 21.5,-355 123.5,-355 123.5,-509"/>
<text text-anchor="start" x="49" y="-497" font-family="Helvetica,sans-Serif" font-size="10.00">VVariable</text>
<text text-anchor="start" x="28" y="-482" font-family="Helvetica,sans-Serif" font-size="10.00">&#45;</text>
<text text-anchor="start" x="38.5" y="-482" font-family="Helvetica,sans-Serif" font-size="10.00">d</text>
<text text-anchor="start" x="25.5" y="-467" font-family="Helvetica,sans-Serif" font-size="10.00">+</text>
<text text-anchor="start" x="38.5" y="-467" font-family="Helvetica,sans-Serif" font-size="10.00">VVariable()</text>
<text text-anchor="start" x="25.5" y="-452" font-family="Helvetica,sans-Serif" font-size="10.00">+</text>
<text text-anchor="start" x="38.5" y="-452" font-family="Helvetica,sans-Serif" font-size="10.00">VVariable()</text>
<text text-anchor="start" x="25.5" y="-437" font-family="Helvetica,sans-Serif" font-size="10.00">+</text>
<text text-anchor="start" x="38.5" y="-437" font-family="Helvetica,sans-Serif" font-size="10.00">VVariable()</text>
<text text-anchor="start" x="25.5" y="-422" font-family="Helvetica,sans-Serif" font-size="10.00">+</text>
<text text-anchor="start" x="38.5" y="-422" font-family="Helvetica,sans-Serif" font-size="10.00">~VVariable()</text>
<text text-anchor="start" x="25.5" y="-407" font-family="Helvetica,sans-Serif" font-size="10.00">+</text>
<text text-anchor="start" x="38.5" y="-407" font-family="Helvetica,sans-Serif" font-size="10.00">operator=()</text>
<text text-anchor="start" x="25.5" y="-392" font-family="Helvetica,sans-Serif" font-size="10.00">+</text>
<text text-anchor="start" x="38.5" y="-392" font-family="Helvetica,sans-Serif" font-size="10.00">Swap()</text>
<text text-anchor="start" x="25.5" y="-377" font-family="Helvetica,sans-Serif" font-size="10.00">+</text>
<text text-anchor="start" x="38.5" y="-377" font-family="Helvetica,sans-Serif" font-size="10.00">GetDescription()</text>
<text text-anchor="start" x="25.5" y="-362" font-family="Helvetica,sans-Serif" font-size="10.00">+</text>
<text text-anchor="start" x="38.5" y="-362" font-family="Helvetica,sans-Serif" font-size="10.00">SetDescription()</text>
<polygon fill="#666666" stroke="#666666" points="21.5,-492 21.5,-492 123.5,-492 123.5,-492 21.5,-492"/>
<polygon fill="#666666" stroke="#666666" points="21.5,-477 21.5,-477 36.5,-477 36.5,-477 21.5,-477"/>
<polygon fill="#666666" stroke="#666666" points="36.5,-477 36.5,-477 123.5,-477 123.5,-477 36.5,-477"/>
<polygon fill="none" stroke="#666666" points="21.5,-355 21.5,-509 123.5,-509 123.5,-355 21.5,-355"/>
</a>
</g>
</g>
<!-- Node2&#45;&gt;Node1 -->
<g id="edge1_Node000001_Node000002" class="edge">
<title>Node2&#45;&gt;Node1</title>
<g id="a_edge1_Node000001_Node000002"><a xlink:title=" ">
<path fill="none" stroke="#63b8ff" d="M72.5,-344.87C72.5,-336.5 72.5,-327.84 72.5,-319.04"/>
<polygon fill="none" stroke="#63b8ff" points="69,-344.93 72.5,-354.93 76,-344.93 69,-344.93"/>
</a>
</g>
</g>
<!-- Node3 -->
<g id="Node000003" class="node">
<title>Node3</title>
<g id="a_Node000003"><a xlink:href="../../d4/d3d/classVInternalVariable.html" target="_top" xlink:title=" ">
<polygon fill="white" stroke="transparent" points="133,-789 12,-789 12,-545 133,-545 133,-789"/>
<text text-anchor="start" x="30.5" y="-777" font-family="Helvetica,sans-Serif" font-size="10.00">VInternalVariable</text>
<text text-anchor="start" x="19" y="-762" font-family="Helvetica,sans-Serif" font-size="10.00">&#45;</text>
<text text-anchor="start" x="29.5" y="-762" font-family="Helvetica,sans-Serif" font-size="10.00">d</text>
<text text-anchor="start" x="16.5" y="-747" font-family="Helvetica,sans-Serif" font-size="10.00">+</text>
<text text-anchor="start" x="29.5" y="-747" font-family="Helvetica,sans-Serif" font-size="10.00">VInternalVariable()</text>
<text text-anchor="start" x="16.5" y="-732" font-family="Helvetica,sans-Serif" font-size="10.00">+</text>
<text text-anchor="start" x="29.5" y="-732" font-family="Helvetica,sans-Serif" font-size="10.00">VInternalVariable()</text>
<text text-anchor="start" x="16.5" y="-717" font-family="Helvetica,sans-Serif" font-size="10.00">+</text>
<text text-anchor="start" x="29.5" y="-717" font-family="Helvetica,sans-Serif" font-size="10.00">~VInternalVariable()</text>
<text text-anchor="start" x="16.5" y="-702" font-family="Helvetica,sans-Serif" font-size="10.00">+</text>
<text text-anchor="start" x="29.5" y="-702" font-family="Helvetica,sans-Serif" font-size="10.00">operator=()</text>
<text text-anchor="start" x="16.5" y="-687" font-family="Helvetica,sans-Serif" font-size="10.00">+</text>
<text text-anchor="start" x="29.5" y="-687" font-family="Helvetica,sans-Serif" font-size="10.00">Swap()</text>
<text text-anchor="start" x="16.5" y="-672" font-family="Helvetica,sans-Serif" font-size="10.00">+</text>
<text text-anchor="start" x="29.5" y="-672" font-family="Helvetica,sans-Serif" font-size="10.00">GetValue()</text>
<text text-anchor="start" x="16.5" y="-657" font-family="Helvetica,sans-Serif" font-size="10.00">+</text>
<text text-anchor="start" x="29.5" y="-657" font-family="Helvetica,sans-Serif" font-size="10.00">GetValue()</text>
<text text-anchor="start" x="16.5" y="-642" font-family="Helvetica,sans-Serif" font-size="10.00">+</text>
<text text-anchor="start" x="29.5" y="-642" font-family="Helvetica,sans-Serif" font-size="10.00">GetName()</text>
<text text-anchor="start" x="16.5" y="-627" font-family="Helvetica,sans-Serif" font-size="10.00">+</text>
<text text-anchor="start" x="29.5" y="-627" font-family="Helvetica,sans-Serif" font-size="10.00">SetName()</text>
<text text-anchor="start" x="16.5" y="-612" font-family="Helvetica,sans-Serif" font-size="10.00">+</text>
<text text-anchor="start" x="29.5" y="-612" font-family="Helvetica,sans-Serif" font-size="10.00">GetType()</text>
<text text-anchor="start" x="16.5" y="-597" font-family="Helvetica,sans-Serif" font-size="10.00">+</text>
<text text-anchor="start" x="29.5" y="-597" font-family="Helvetica,sans-Serif" font-size="10.00">SetType()</text>
<text text-anchor="start" x="16.5" y="-582" font-family="Helvetica,sans-Serif" font-size="10.00">+</text>
<text text-anchor="start" x="29.5" y="-582" font-family="Helvetica,sans-Serif" font-size="10.00">Filter()</text>
<text text-anchor="start" x="16.5" y="-567" font-family="Helvetica,sans-Serif" font-size="10.00">+</text>
<text text-anchor="start" x="29.5" y="-567" font-family="Helvetica,sans-Serif" font-size="10.00">isNotUsed()</text>
<text text-anchor="start" x="16.5" y="-552" font-family="Helvetica,sans-Serif" font-size="10.00">#</text>
<text text-anchor="start" x="29.5" y="-552" font-family="Helvetica,sans-Serif" font-size="10.00">SetValue()</text>
<polygon fill="#666666" stroke="#666666" points="12.5,-772 12.5,-772 133.5,-772 133.5,-772 12.5,-772"/>
<polygon fill="#666666" stroke="#666666" points="12.5,-757 12.5,-757 27.5,-757 27.5,-757 12.5,-757"/>
<polygon fill="#666666" stroke="#666666" points="27.5,-757 27.5,-757 133.5,-757 133.5,-757 27.5,-757"/>
<polygon fill="none" stroke="#666666" points="12,-545 12,-789 133,-789 133,-545 12,-545"/>
</a>
</g>
</g>
<!-- Node3&#45;&gt;Node2 -->
<g id="edge2_Node000002_Node000003" class="edge">
<title>Node3&#45;&gt;Node2</title>
<g id="a_edge2_Node000002_Node000003"><a xlink:title=" ">
<path fill="none" stroke="#63b8ff" d="M72.5,-534.58C72.5,-525.98 72.5,-517.48 72.5,-509.29"/>
<polygon fill="none" stroke="#63b8ff" points="69,-534.72 72.5,-544.72 76,-534.72 69,-534.72"/>
</a>
</g>
</g>
</g>
</svg>
