<?xml version="1.0" encoding="UTF-8" standalone="no"?>
<!DOCTYPE svg PUBLIC "-//W3C//DTD SVG 1.1//EN"
 "http://www.w3.org/Graphics/SVG/1.1/DTD/svg11.dtd">
<!-- Generated by graphviz version 2.43.0 (0)
 -->
<!-- Title: src/libs/vlayout/vbestsquare.h Pages: 1 -->
<svg width="417pt" height="140pt"
 viewBox="0.00 0.00 416.50 140.00" xmlns="http://www.w3.org/2000/svg" xmlns:xlink="http://www.w3.org/1999/xlink">
<g id="graph0" class="graph" transform="scale(1 1) rotate(0) translate(4 136)">
<title>src/libs/vlayout/vbestsquare.h</title>
<polygon fill="white" stroke="transparent" points="-4,4 -4,-136 412.5,-136 412.5,4 -4,4"/>
<!-- Node1 -->
<g id="node1" class="node">
<title>Node1</title>
<g id="a_node1"><a xlink:title=" ">
<polygon fill="#bfbfbf" stroke="black" points="68.5,-112.5 68.5,-131.5 231.5,-131.5 231.5,-112.5 68.5,-112.5"/>
<text text-anchor="middle" x="150" y="-119.5" font-family="Helvetica,sans-Serif" font-size="10.00">src/libs/vlayout/vbestsquare.h</text>
</a>
</g>
</g>
<!-- Node2 -->
<g id="node2" class="node">
<title>Node2</title>
<g id="a_node2"><a xlink:href="../../d1/dd1/vlayoutpaper_8cpp.html" target="_top" xlink:title=" ">
<polygon fill="white" stroke="black" points="0,-0.5 0,-19.5 178,-19.5 178,-0.5 0,-0.5"/>
<text text-anchor="middle" x="89" y="-7.5" font-family="Helvetica,sans-Serif" font-size="10.00">src/libs/vlayout/vlayoutpaper.cpp</text>
</a>
</g>
</g>
<!-- Node1&#45;&gt;Node2 -->
<g id="edge1" class="edge">
<title>Node1&#45;&gt;Node2</title>
<path fill="none" stroke="midnightblue" d="M98.98,-109.13C81.68,-102.4 64.16,-91.99 54,-76 41.62,-56.53 63.96,-32.3 78.31,-19.64"/>
<polygon fill="midnightblue" stroke="midnightblue" points="97.93,-112.47 108.53,-112.5 100.27,-105.87 97.93,-112.47"/>
</g>
<!-- Node3 -->
<g id="node3" class="node">
<title>Node3</title>
<g id="a_node3"><a xlink:href="../../d8/d5f/vbestsquare_8cpp.html" target="_top" xlink:title=" ">
<polygon fill="white" stroke="black" points="63,-56.5 63,-75.5 237,-75.5 237,-56.5 63,-56.5"/>
<text text-anchor="middle" x="150" y="-63.5" font-family="Helvetica,sans-Serif" font-size="10.00">src/libs/vlayout/vbestsquare.cpp</text>
</a>
</g>
</g>
<!-- Node1&#45;&gt;Node3 -->
<g id="edge2" class="edge">
<title>Node1&#45;&gt;Node3</title>
<path fill="none" stroke="midnightblue" d="M150,-101.8C150,-92.91 150,-82.78 150,-75.75"/>
<polygon fill="midnightblue" stroke="midnightblue" points="146.5,-102.08 150,-112.08 153.5,-102.08 146.5,-102.08"/>
</g>
<!-- Node4 -->
<g id="node4" class="node">
<title>Node4</title>
<g id="a_node4"><a xlink:href="../../db/d5c/vposition_8h.html" target="_top" xlink:title=" ">
<polygon fill="white" stroke="black" points="255,-56.5 255,-75.5 403,-75.5 403,-56.5 255,-56.5"/>
<text text-anchor="middle" x="329" y="-63.5" font-family="Helvetica,sans-Serif" font-size="10.00">src/libs/vlayout/vposition.h</text>
</a>
</g>
</g>
<!-- Node1&#45;&gt;Node4 -->
<g id="edge3" class="edge">
<title>Node1&#45;&gt;Node4</title>
<path fill="none" stroke="midnightblue" d="M188.33,-109.44C222.08,-99.26 270.45,-84.66 300.77,-75.52"/>
<polygon fill="midnightblue" stroke="midnightblue" points="186.93,-106.2 178.36,-112.44 188.95,-112.91 186.93,-106.2"/>
</g>
<!-- Node4&#45;&gt;Node2 -->
<g id="edge4" class="edge">
<title>Node4&#45;&gt;Node2</title>
<path fill="none" stroke="midnightblue" d="M281.08,-54.22C235.73,-44.01 168.56,-28.9 126.85,-19.52"/>
<polygon fill="midnightblue" stroke="midnightblue" points="280.45,-57.66 290.97,-56.44 281.98,-50.83 280.45,-57.66"/>
</g>
<!-- Node5 -->
<g id="node5" class="node">
<title>Node5</title>
<g id="a_node5"><a xlink:href="../../df/d76/vposition_8cpp.html" target="_top" xlink:title=" ">
<polygon fill="white" stroke="black" points="249.5,-0.5 249.5,-19.5 408.5,-19.5 408.5,-0.5 249.5,-0.5"/>
<text text-anchor="middle" x="329" y="-7.5" font-family="Helvetica,sans-Serif" font-size="10.00">src/libs/vlayout/vposition.cpp</text>
</a>
</g>
</g>
<!-- Node4&#45;&gt;Node5 -->
<g id="edge5" class="edge">
<title>Node4&#45;&gt;Node5</title>
<path fill="none" stroke="midnightblue" d="M329,-45.8C329,-36.91 329,-26.78 329,-19.75"/>
<polygon fill="midnightblue" stroke="midnightblue" points="325.5,-46.08 329,-56.08 332.5,-46.08 325.5,-46.08"/>
</g>
</g>
</svg>
