<?xml version="1.0" encoding="UTF-8" standalone="no"?>
<!DOCTYPE svg PUBLIC "-//W3C//DTD SVG 1.1//EN"
 "http://www.w3.org/Graphics/SVG/1.1/DTD/svg11.dtd">
<!-- Generated by graphviz version 2.43.0 (0)
 -->
<!-- Title: AnchorPointTool Pages: 1 -->
<!--zoomable 1552 -->

<svg id="main" version="1.1" xmlns="http://www.w3.org/2000/svg" xmlns:xlink="http://www.w3.org/1999/xlink" xml:space="preserve" onload="init(evt)">
<style type="text/css"><![CDATA[
.node, .edge {opacity: 0.7;}
.node.selected, .edge.selected {opacity: 1;}
.edge:hover path { stroke: red; }
.edge:hover polygon { stroke: red; fill: red; }
]]></style>

<defs>
  <circle id="rim" cx="0" cy="0" r="7"/>
  <circle id="rim2" cx="0" cy="0" r="3.5"/>
  <g id="zoomPlus">
    <use xlink:href="#rim" fill="#404040"><set attributeName="fill" to="#808080" begin="zoomplus.mouseover" end="zoomplus.mouseout"/></use>
    <path d="M-4,0h8M0,-4v8" fill="none" stroke="white" stroke-width="1.5" pointer-events="none"/>
  </g>
  <g id="zoomMin">
    <use xlink:href="#rim" fill="#404040"><set attributeName="fill" to="#808080" begin="zoomminus.mouseover" end="zoomminus.mouseout"/></use>
    <path d="M-4,0h8" fill="none" stroke="white" stroke-width="1.5" pointer-events="none"/>
  </g>
  <g id="arrowUp" transform="translate(30 24)">
    <use xlink:href="#rim"/>
    <path pointer-events="none" fill="none" stroke="white" stroke-width="1.5" d="M0,-3.0v7 M-2.5,-0.5L0,-3.0L2.5,-0.5"/>
  </g>
  <g id="arrowRight" transform="rotate(90) translate(36 -43)">
    <use xlink:href="#rim"/>
    <path pointer-events="none" fill="none" stroke="white" stroke-width="1.5" d="M0,-3.0v7 M-2.5,-0.5L0,-3.0L2.5,-0.5"/>
  </g>
  <g id="arrowDown" transform="rotate(180) translate(-30 -48)">
    <use xlink:href="#rim"/>
    <path pointer-events="none" fill="none" stroke="white" stroke-width="1.5" d="M0,-3.0v7 M-2.5,-0.5L0,-3.0L2.5,-0.5"/>
  </g>
  <g id="arrowLeft" transform="rotate(270) translate(-36 17)">
    <use xlink:href="#rim"/>
    <path pointer-events="none" fill="none" stroke="white" stroke-width="1.5" d="M0,-3.0v7 M-2.5,-0.5L0,-3.0L2.5,-0.5"/>
  </g>
  <g id="resetDef">
    <use xlink:href="#rim2" fill="#404040"><set attributeName="fill" to="#808080" begin="reset.mouseover" end="reset.mouseout"/></use>
  </g>
</defs>
<script type="application/ecmascript">
var viewWidth = 153;
var viewHeight = 1552;
var sectionId = 'dynsection-0';
</script>
<script type="application/ecmascript" xlink:href="../../svg.min.js"/>
<svg id="graph" class="graph">
<g id="viewport">
<title>AnchorPointTool</title>
<!-- Node1 -->
<g id="Node000001" class="node">
<title>Node1</title>
<g id="a_Node000001"><a xlink:title=" ">
<polygon fill="#999999" stroke="transparent" points="134.5,-199 10.5,-199 10.5,0 134.5,0 134.5,-199"/>
<text text-anchor="start" x="33" y="-186.5" font-family="Helvetica,sans-Serif" font-size="10.00">AnchorPointTool</text>
<text text-anchor="start" x="14.5" y="-171.5" font-family="Helvetica,sans-Serif" font-size="10.00">+</text>
<text text-anchor="start" x="27.5" y="-171.5" font-family="Helvetica,sans-Serif" font-size="10.00">ToolType</text>
<text text-anchor="start" x="17" y="-156.5" font-family="Helvetica,sans-Serif" font-size="10.00">&#45;</text>
<text text-anchor="start" x="27.5" y="-156.5" font-family="Helvetica,sans-Serif" font-size="10.00">m_pieceId</text>
<text text-anchor="start" x="14.5" y="-141.5" font-family="Helvetica,sans-Serif" font-size="10.00">+</text>
<text text-anchor="start" x="27.5" y="-141.5" font-family="Helvetica,sans-Serif" font-size="10.00">getTagName()</text>
<text text-anchor="start" x="14.5" y="-126.5" font-family="Helvetica,sans-Serif" font-size="10.00">+</text>
<text text-anchor="start" x="27.5" y="-126.5" font-family="Helvetica,sans-Serif" font-size="10.00">Create()</text>
<text text-anchor="start" x="14.5" y="-111.5" font-family="Helvetica,sans-Serif" font-size="10.00">+</text>
<text text-anchor="start" x="27.5" y="-111.5" font-family="Helvetica,sans-Serif" font-size="10.00">Create()</text>
<text text-anchor="start" x="14.5" y="-96.5" font-family="Helvetica,sans-Serif" font-size="10.00">+</text>
<text text-anchor="start" x="27.5" y="-96.5" font-family="Helvetica,sans-Serif" font-size="10.00">FullUpdateFromFile()</text>
<text text-anchor="start" x="14.5" y="-81.5" font-family="Helvetica,sans-Serif" font-size="10.00">+</text>
<text text-anchor="start" x="27.5" y="-81.5" font-family="Helvetica,sans-Serif" font-size="10.00">AllowHover()</text>
<text text-anchor="start" x="14.5" y="-66.5" font-family="Helvetica,sans-Serif" font-size="10.00">+</text>
<text text-anchor="start" x="27.5" y="-66.5" font-family="Helvetica,sans-Serif" font-size="10.00">AllowSelecting()</text>
<text text-anchor="start" x="14.5" y="-51.5" font-family="Helvetica,sans-Serif" font-size="10.00">#</text>
<text text-anchor="start" x="27.5" y="-51.5" font-family="Helvetica,sans-Serif" font-size="10.00">AddToFile()</text>
<text text-anchor="start" x="14.5" y="-36.5" font-family="Helvetica,sans-Serif" font-size="10.00">#</text>
<text text-anchor="start" x="27.5" y="-36.5" font-family="Helvetica,sans-Serif" font-size="10.00">ShowNode()</text>
<text text-anchor="start" x="14.5" y="-21.5" font-family="Helvetica,sans-Serif" font-size="10.00">#</text>
<text text-anchor="start" x="27.5" y="-21.5" font-family="Helvetica,sans-Serif" font-size="10.00">HideNode()</text>
<text text-anchor="start" x="17" y="-6.5" font-family="Helvetica,sans-Serif" font-size="10.00">&#45;</text>
<text text-anchor="start" x="27.5" y="-6.5" font-family="Helvetica,sans-Serif" font-size="10.00">AnchorPointTool()</text>
<polygon fill="#666666" stroke="#666666" points="10.5,-181.5 10.5,-181.5 134.5,-181.5 134.5,-181.5 10.5,-181.5"/>
<polygon fill="#666666" stroke="#666666" points="10.5,-151.5 10.5,-151.5 25.5,-151.5 25.5,-151.5 10.5,-151.5"/>
<polygon fill="#666666" stroke="#666666" points="25.5,-151.5 25.5,-151.5 134.5,-151.5 134.5,-151.5 25.5,-151.5"/>
<polygon fill="none" stroke="#666666" points="10.5,0 10.5,-199 134.5,-199 134.5,0 10.5,0"/>
</a>
</g>
</g>
<!-- Node2 -->
<g id="Node000002" class="node">
<title>Node2</title>
<g id="a_Node000002"><a xlink:href="../../d3/d16/classVAbstractNode.html" target="_top" xlink:title="The VAbstractNode class parent class for all detail node.">
<polygon fill="white" stroke="transparent" points="135,-569 10,-569 10,-235 135,-235 135,-569"/>
<text text-anchor="start" x="36.5" y="-557" font-family="Helvetica,sans-Serif" font-size="10.00">VAbstractNode</text>
<text text-anchor="start" x="14.5" y="-542" font-family="Helvetica,sans-Serif" font-size="10.00">+</text>
<text text-anchor="start" x="27.5" y="-542" font-family="Helvetica,sans-Serif" font-size="10.00">AttrIdTool</text>
<text text-anchor="start" x="14.5" y="-527" font-family="Helvetica,sans-Serif" font-size="10.00">#</text>
<text text-anchor="start" x="27.5" y="-527" font-family="Helvetica,sans-Serif" font-size="10.00">parentType</text>
<text text-anchor="start" x="14.5" y="-512" font-family="Helvetica,sans-Serif" font-size="10.00">#</text>
<text text-anchor="start" x="27.5" y="-512" font-family="Helvetica,sans-Serif" font-size="10.00">idNode</text>
<text text-anchor="start" x="14.5" y="-497" font-family="Helvetica,sans-Serif" font-size="10.00">#</text>
<text text-anchor="start" x="27.5" y="-497" font-family="Helvetica,sans-Serif" font-size="10.00">idTool</text>
<text text-anchor="start" x="14.5" y="-482" font-family="Helvetica,sans-Serif" font-size="10.00">#</text>
<text text-anchor="start" x="27.5" y="-482" font-family="Helvetica,sans-Serif" font-size="10.00">m_blockName</text>
<text text-anchor="start" x="14.5" y="-467" font-family="Helvetica,sans-Serif" font-size="10.00">#</text>
<text text-anchor="start" x="27.5" y="-467" font-family="Helvetica,sans-Serif" font-size="10.00">m_exluded</text>
<text text-anchor="start" x="14.5" y="-452" font-family="Helvetica,sans-Serif" font-size="10.00">+</text>
<text text-anchor="start" x="27.5" y="-452" font-family="Helvetica,sans-Serif" font-size="10.00">VAbstractNode()</text>
<text text-anchor="start" x="14.5" y="-437" font-family="Helvetica,sans-Serif" font-size="10.00">+</text>
<text text-anchor="start" x="27.5" y="-437" font-family="Helvetica,sans-Serif" font-size="10.00">~VAbstractNode()</text>
<text text-anchor="start" x="14.5" y="-422" font-family="Helvetica,sans-Serif" font-size="10.00">+</text>
<text text-anchor="start" x="27.5" y="-422" font-family="Helvetica,sans-Serif" font-size="10.00">ShowVisualization()</text>
<text text-anchor="start" x="14.5" y="-407" font-family="Helvetica,sans-Serif" font-size="10.00">+</text>
<text text-anchor="start" x="27.5" y="-407" font-family="Helvetica,sans-Serif" font-size="10.00">incrementReferens()</text>
<text text-anchor="start" x="14.5" y="-392" font-family="Helvetica,sans-Serif" font-size="10.00">+</text>
<text text-anchor="start" x="27.5" y="-392" font-family="Helvetica,sans-Serif" font-size="10.00">decrementReferens()</text>
<text text-anchor="start" x="14.5" y="-377" font-family="Helvetica,sans-Serif" font-size="10.00">+</text>
<text text-anchor="start" x="27.5" y="-377" font-family="Helvetica,sans-Serif" font-size="10.00">GetParentType()</text>
<text text-anchor="start" x="14.5" y="-362" font-family="Helvetica,sans-Serif" font-size="10.00">+</text>
<text text-anchor="start" x="27.5" y="-362" font-family="Helvetica,sans-Serif" font-size="10.00">SetParentType()</text>
<text text-anchor="start" x="14.5" y="-347" font-family="Helvetica,sans-Serif" font-size="10.00">+</text>
<text text-anchor="start" x="27.5" y="-347" font-family="Helvetica,sans-Serif" font-size="10.00">GroupVisibility()</text>
<text text-anchor="start" x="14.5" y="-332" font-family="Helvetica,sans-Serif" font-size="10.00">+</text>
<text text-anchor="start" x="27.5" y="-332" font-family="Helvetica,sans-Serif" font-size="10.00">IsExluded()</text>
<text text-anchor="start" x="14.5" y="-317" font-family="Helvetica,sans-Serif" font-size="10.00">+</text>
<text text-anchor="start" x="27.5" y="-317" font-family="Helvetica,sans-Serif" font-size="10.00">SetExluded()</text>
<text text-anchor="start" x="14.5" y="-302" font-family="Helvetica,sans-Serif" font-size="10.00">#</text>
<text text-anchor="start" x="27.5" y="-302" font-family="Helvetica,sans-Serif" font-size="10.00">AddToModeling()</text>
<text text-anchor="start" x="14.5" y="-287" font-family="Helvetica,sans-Serif" font-size="10.00">#</text>
<text text-anchor="start" x="27.5" y="-287" font-family="Helvetica,sans-Serif" font-size="10.00">ToolCreation()</text>
<text text-anchor="start" x="14.5" y="-272" font-family="Helvetica,sans-Serif" font-size="10.00">#</text>
<text text-anchor="start" x="27.5" y="-272" font-family="Helvetica,sans-Serif" font-size="10.00">SetVisualization()</text>
<text text-anchor="start" x="14.5" y="-257" font-family="Helvetica,sans-Serif" font-size="10.00">#</text>
<text text-anchor="start" x="27.5" y="-257" font-family="Helvetica,sans-Serif" font-size="10.00">ShowNode()</text>
<text text-anchor="start" x="14.5" y="-242" font-family="Helvetica,sans-Serif" font-size="10.00">#</text>
<text text-anchor="start" x="27.5" y="-242" font-family="Helvetica,sans-Serif" font-size="10.00">HideNode()</text>
<polygon fill="#666666" stroke="#666666" points="10.5,-552 10.5,-552 135.5,-552 135.5,-552 10.5,-552"/>
<polygon fill="#666666" stroke="#666666" points="10.5,-462 10.5,-462 25.5,-462 25.5,-462 10.5,-462"/>
<polygon fill="#666666" stroke="#666666" points="25.5,-462 25.5,-462 135.5,-462 135.5,-462 25.5,-462"/>
<polygon fill="none" stroke="#666666" points="10,-235 10,-569 135,-569 135,-235 10,-235"/>
</a>
</g>
</g>
<!-- Node2&#45;&gt;Node1 -->
<g id="edge1_Node000001_Node000002" class="edge">
<title>Node2&#45;&gt;Node1</title>
<g id="a_edge1_Node000001_Node000002"><a xlink:title=" ">
<path fill="none" stroke="#63b8ff" d="M72.5,-224.66C72.5,-215.96 72.5,-207.37 72.5,-199.03"/>
<polygon fill="none" stroke="#63b8ff" points="69,-224.93 72.5,-234.93 76,-224.93 69,-224.93"/>
</a>
</g>
</g>
<!-- Node3 -->
<g id="Node000003" class="node">
<title>Node3</title>
<g id="a_Node000003"><a xlink:href="../../d4/d36/classVAbstractTool.html" target="_top" xlink:title="The VAbstractTool abstract class for all tools.">
<polygon fill="white" stroke="transparent" points="145,-1254 0,-1254 0,-605 145,-605 145,-1254"/>
<text text-anchor="start" x="39.5" y="-1241.5" font-family="Helvetica,sans-Serif" font-size="10.00">VAbstractTool</text>
<text text-anchor="start" x="4.5" y="-1226.5" font-family="Helvetica,sans-Serif" font-size="10.00">+</text>
<text text-anchor="start" x="17.5" y="-1226.5" font-family="Helvetica,sans-Serif" font-size="10.00">m_suppressContextMenu</text>
<text text-anchor="start" x="4.5" y="-1211.5" font-family="Helvetica,sans-Serif" font-size="10.00">+</text>
<text text-anchor="start" x="17.5" y="-1211.5" font-family="Helvetica,sans-Serif" font-size="10.00">AttrInUse</text>
<text text-anchor="start" x="4.5" y="-1196.5" font-family="Helvetica,sans-Serif" font-size="10.00">#</text>
<text text-anchor="start" x="17.5" y="-1196.5" font-family="Helvetica,sans-Serif" font-size="10.00">doc</text>
<text text-anchor="start" x="4.5" y="-1181.5" font-family="Helvetica,sans-Serif" font-size="10.00">#</text>
<text text-anchor="start" x="17.5" y="-1181.5" font-family="Helvetica,sans-Serif" font-size="10.00">m_id</text>
<text text-anchor="start" x="4.5" y="-1166.5" font-family="Helvetica,sans-Serif" font-size="10.00">#</text>
<text text-anchor="start" x="17.5" y="-1166.5" font-family="Helvetica,sans-Serif" font-size="10.00">vis</text>
<text text-anchor="start" x="4.5" y="-1151.5" font-family="Helvetica,sans-Serif" font-size="10.00">#</text>
<text text-anchor="start" x="17.5" y="-1151.5" font-family="Helvetica,sans-Serif" font-size="10.00">selectionType</text>
<text text-anchor="start" x="4.5" y="-1136.5" font-family="Helvetica,sans-Serif" font-size="10.00">+</text>
<text text-anchor="start" x="17.5" y="-1136.5" font-family="Helvetica,sans-Serif" font-size="10.00">VAbstractTool()</text>
<text text-anchor="start" x="4.5" y="-1121.5" font-family="Helvetica,sans-Serif" font-size="10.00">+</text>
<text text-anchor="start" x="17.5" y="-1121.5" font-family="Helvetica,sans-Serif" font-size="10.00">~VAbstractTool()</text>
<text text-anchor="start" x="4.5" y="-1106.5" font-family="Helvetica,sans-Serif" font-size="10.00">+</text>
<text text-anchor="start" x="17.5" y="-1106.5" font-family="Helvetica,sans-Serif" font-size="10.00">getId()</text>
<text text-anchor="start" x="4.5" y="-1091.5" font-family="Helvetica,sans-Serif" font-size="10.00">+</text>
<text text-anchor="start" x="17.5" y="-1091.5" font-family="Helvetica,sans-Serif" font-size="10.00">getData()</text>
<text text-anchor="start" x="4.5" y="-1076.5" font-family="Helvetica,sans-Serif" font-size="10.00">+</text>
<text text-anchor="start" x="17.5" y="-1076.5" font-family="Helvetica,sans-Serif" font-size="10.00">PointsList()</text>
<text text-anchor="start" x="4.5" y="-1061.5" font-family="Helvetica,sans-Serif" font-size="10.00">+</text>
<text text-anchor="start" x="17.5" y="-1061.5" font-family="Helvetica,sans-Serif" font-size="10.00">getTagName()</text>
<text text-anchor="start" x="4.5" y="-1046.5" font-family="Helvetica,sans-Serif" font-size="10.00">+</text>
<text text-anchor="start" x="17.5" y="-1046.5" font-family="Helvetica,sans-Serif" font-size="10.00">ShowVisualization()</text>
<text text-anchor="start" x="4.5" y="-1031.5" font-family="Helvetica,sans-Serif" font-size="10.00">+</text>
<text text-anchor="start" x="17.5" y="-1031.5" font-family="Helvetica,sans-Serif" font-size="10.00">setPointNamePosition()</text>
<text text-anchor="start" x="4.5" y="-1016.5" font-family="Helvetica,sans-Serif" font-size="10.00">+</text>
<text text-anchor="start" x="17.5" y="-1016.5" font-family="Helvetica,sans-Serif" font-size="10.00">setPointNameVisiblity()</text>
<text text-anchor="start" x="4.5" y="-1001.5" font-family="Helvetica,sans-Serif" font-size="10.00">+</text>
<text text-anchor="start" x="17.5" y="-1001.5" font-family="Helvetica,sans-Serif" font-size="10.00">CheckFormula()</text>
<text text-anchor="start" x="4.5" y="-986.5" font-family="Helvetica,sans-Serif" font-size="10.00">+</text>
<text text-anchor="start" x="17.5" y="-986.5" font-family="Helvetica,sans-Serif" font-size="10.00">Colors()</text>
<text text-anchor="start" x="4.5" y="-971.5" font-family="Helvetica,sans-Serif" font-size="10.00">+</text>
<text text-anchor="start" x="17.5" y="-971.5" font-family="Helvetica,sans-Serif" font-size="10.00">ColorsList()</text>
<text text-anchor="start" x="4.5" y="-956.5" font-family="Helvetica,sans-Serif" font-size="10.00">+</text>
<text text-anchor="start" x="17.5" y="-956.5" font-family="Helvetica,sans-Serif" font-size="10.00">supportColorsList()</text>
<text text-anchor="start" x="4.5" y="-941.5" font-family="Helvetica,sans-Serif" font-size="10.00">+</text>
<text text-anchor="start" x="17.5" y="-941.5" font-family="Helvetica,sans-Serif" font-size="10.00">backgroundColorsList()</text>
<text text-anchor="start" x="4.5" y="-926.5" font-family="Helvetica,sans-Serif" font-size="10.00">+</text>
<text text-anchor="start" x="17.5" y="-926.5" font-family="Helvetica,sans-Serif" font-size="10.00">createColorIcon()</text>
<text text-anchor="start" x="4.5" y="-911.5" font-family="Helvetica,sans-Serif" font-size="10.00">+</text>
<text text-anchor="start" x="17.5" y="-911.5" font-family="Helvetica,sans-Serif" font-size="10.00">fills()</text>
<text text-anchor="start" x="4.5" y="-896.5" font-family="Helvetica,sans-Serif" font-size="10.00">+</text>
<text text-anchor="start" x="17.5" y="-896.5" font-family="Helvetica,sans-Serif" font-size="10.00">AddRecord()</text>
<text text-anchor="start" x="4.5" y="-881.5" font-family="Helvetica,sans-Serif" font-size="10.00">+</text>
<text text-anchor="start" x="17.5" y="-881.5" font-family="Helvetica,sans-Serif" font-size="10.00">AddNodes()</text>
<text text-anchor="start" x="4.5" y="-866.5" font-family="Helvetica,sans-Serif" font-size="10.00">+</text>
<text text-anchor="start" x="17.5" y="-866.5" font-family="Helvetica,sans-Serif" font-size="10.00">AddNodes()</text>
<text text-anchor="start" x="4.5" y="-851.5" font-family="Helvetica,sans-Serif" font-size="10.00">+</text>
<text text-anchor="start" x="17.5" y="-851.5" font-family="Helvetica,sans-Serif" font-size="10.00">CreateNode()</text>
<text text-anchor="start" x="4.5" y="-836.5" font-family="Helvetica,sans-Serif" font-size="10.00">+</text>
<text text-anchor="start" x="17.5" y="-836.5" font-family="Helvetica,sans-Serif" font-size="10.00">FullUpdateFromFile()</text>
<text text-anchor="start" x="4.5" y="-821.5" font-family="Helvetica,sans-Serif" font-size="10.00">+</text>
<text text-anchor="start" x="17.5" y="-821.5" font-family="Helvetica,sans-Serif" font-size="10.00">AllowHover()</text>
<text text-anchor="start" x="4.5" y="-806.5" font-family="Helvetica,sans-Serif" font-size="10.00">+</text>
<text text-anchor="start" x="17.5" y="-806.5" font-family="Helvetica,sans-Serif" font-size="10.00">AllowSelecting()</text>
<text text-anchor="start" x="4.5" y="-791.5" font-family="Helvetica,sans-Serif" font-size="10.00">+</text>
<text text-anchor="start" x="17.5" y="-791.5" font-family="Helvetica,sans-Serif" font-size="10.00">ToolSelectionType()</text>
<text text-anchor="start" x="4.5" y="-776.5" font-family="Helvetica,sans-Serif" font-size="10.00">#</text>
<text text-anchor="start" x="17.5" y="-776.5" font-family="Helvetica,sans-Serif" font-size="10.00">AddToFile()</text>
<text text-anchor="start" x="4.5" y="-761.5" font-family="Helvetica,sans-Serif" font-size="10.00">#</text>
<text text-anchor="start" x="17.5" y="-761.5" font-family="Helvetica,sans-Serif" font-size="10.00">RefreshDataInFile()</text>
<text text-anchor="start" x="4.5" y="-746.5" font-family="Helvetica,sans-Serif" font-size="10.00">#</text>
<text text-anchor="start" x="17.5" y="-746.5" font-family="Helvetica,sans-Serif" font-size="10.00">RemoveReferens()</text>
<text text-anchor="start" x="4.5" y="-731.5" font-family="Helvetica,sans-Serif" font-size="10.00">#</text>
<text text-anchor="start" x="17.5" y="-731.5" font-family="Helvetica,sans-Serif" font-size="10.00">deleteTool()</text>
<text text-anchor="start" x="4.5" y="-716.5" font-family="Helvetica,sans-Serif" font-size="10.00">#</text>
<text text-anchor="start" x="17.5" y="-716.5" font-family="Helvetica,sans-Serif" font-size="10.00">AddVisualization()</text>
<text text-anchor="start" x="4.5" y="-701.5" font-family="Helvetica,sans-Serif" font-size="10.00">#</text>
<text text-anchor="start" x="17.5" y="-701.5" font-family="Helvetica,sans-Serif" font-size="10.00">SetVisualization()</text>
<text text-anchor="start" x="4.5" y="-686.5" font-family="Helvetica,sans-Serif" font-size="10.00">#</text>
<text text-anchor="start" x="17.5" y="-686.5" font-family="Helvetica,sans-Serif" font-size="10.00">ToolCreation()</text>
<text text-anchor="start" x="4.5" y="-671.5" font-family="Helvetica,sans-Serif" font-size="10.00">#</text>
<text text-anchor="start" x="17.5" y="-671.5" font-family="Helvetica,sans-Serif" font-size="10.00">ConfirmDeletion()</text>
<text text-anchor="start" x="4.5" y="-656.5" font-family="Helvetica,sans-Serif" font-size="10.00">#</text>
<text text-anchor="start" x="17.5" y="-656.5" font-family="Helvetica,sans-Serif" font-size="10.00">AddSANode()</text>
<text text-anchor="start" x="4.5" y="-641.5" font-family="Helvetica,sans-Serif" font-size="10.00">#</text>
<text text-anchor="start" x="17.5" y="-641.5" font-family="Helvetica,sans-Serif" font-size="10.00">AddNode()</text>
<text text-anchor="start" x="4.5" y="-626.5" font-family="Helvetica,sans-Serif" font-size="10.00">#</text>
<text text-anchor="start" x="17.5" y="-626.5" font-family="Helvetica,sans-Serif" font-size="10.00">PrepareNodes()</text>
<text text-anchor="start" x="4.5" y="-611.5" font-family="Helvetica,sans-Serif" font-size="10.00">#</text>
<text text-anchor="start" x="17.5" y="-611.5" font-family="Helvetica,sans-Serif" font-size="10.00">PrepareNode()</text>
<polygon fill="#666666" stroke="#666666" points="0.5,-1236.5 0.5,-1236.5 145.5,-1236.5 145.5,-1236.5 0.5,-1236.5"/>
<polygon fill="#666666" stroke="#666666" points="0.5,-1146.5 0.5,-1146.5 15.5,-1146.5 15.5,-1146.5 0.5,-1146.5"/>
<polygon fill="#666666" stroke="#666666" points="15.5,-1146.5 15.5,-1146.5 145.5,-1146.5 145.5,-1146.5 15.5,-1146.5"/>
<polygon fill="none" stroke="#666666" points="0,-605 0,-1254 145,-1254 145,-605 0,-605"/>
</a>
</g>
</g>
<!-- Node3&#45;&gt;Node2 -->
<g id="edge2_Node000002_Node000003" class="edge">
<title>Node3&#45;&gt;Node2</title>
<g id="a_edge2_Node000002_Node000003"><a xlink:title=" ">
<path fill="none" stroke="#63b8ff" d="M72.5,-594.56C72.5,-585.98 72.5,-577.52 72.5,-569.2"/>
<polygon fill="none" stroke="#63b8ff" points="69,-594.67 72.5,-604.67 76,-594.67 69,-594.67"/>
</a>
</g>
</g>
<!-- Node4 -->
<g id="Node000004" class="node">
<title>Node4</title>
<g id="a_Node000004"><a xlink:href="../../d5/d68/classVDataTool.html" target="_top" xlink:title="The VDataTool class need for getting access to data container of tool.">
<polygon fill="white" stroke="transparent" points="135,-1459 10,-1459 10,-1290 135,-1290 135,-1459"/>
<text text-anchor="start" x="48" y="-1446.5" font-family="Helvetica,sans-Serif" font-size="10.00">VDataTool</text>
<text text-anchor="start" x="14.5" y="-1431.5" font-family="Helvetica,sans-Serif" font-size="10.00">#</text>
<text text-anchor="start" x="27.5" y="-1431.5" font-family="Helvetica,sans-Serif" font-size="10.00">data</text>
<text text-anchor="start" x="14.5" y="-1416.5" font-family="Helvetica,sans-Serif" font-size="10.00">#</text>
<text text-anchor="start" x="27.5" y="-1416.5" font-family="Helvetica,sans-Serif" font-size="10.00">_referens</text>
<text text-anchor="start" x="14.5" y="-1401.5" font-family="Helvetica,sans-Serif" font-size="10.00">+</text>
<text text-anchor="start" x="27.5" y="-1401.5" font-family="Helvetica,sans-Serif" font-size="10.00">VDataTool()</text>
<text text-anchor="start" x="14.5" y="-1386.5" font-family="Helvetica,sans-Serif" font-size="10.00">+</text>
<text text-anchor="start" x="27.5" y="-1386.5" font-family="Helvetica,sans-Serif" font-size="10.00">~VDataTool()</text>
<text text-anchor="start" x="14.5" y="-1371.5" font-family="Helvetica,sans-Serif" font-size="10.00">+</text>
<text text-anchor="start" x="27.5" y="-1371.5" font-family="Helvetica,sans-Serif" font-size="10.00">getData()</text>
<text text-anchor="start" x="14.5" y="-1356.5" font-family="Helvetica,sans-Serif" font-size="10.00">+</text>
<text text-anchor="start" x="27.5" y="-1356.5" font-family="Helvetica,sans-Serif" font-size="10.00">setData()</text>
<text text-anchor="start" x="14.5" y="-1341.5" font-family="Helvetica,sans-Serif" font-size="10.00">+</text>
<text text-anchor="start" x="27.5" y="-1341.5" font-family="Helvetica,sans-Serif" font-size="10.00">referens()</text>
<text text-anchor="start" x="14.5" y="-1326.5" font-family="Helvetica,sans-Serif" font-size="10.00">+</text>
<text text-anchor="start" x="27.5" y="-1326.5" font-family="Helvetica,sans-Serif" font-size="10.00">incrementReferens()</text>
<text text-anchor="start" x="14.5" y="-1311.5" font-family="Helvetica,sans-Serif" font-size="10.00">+</text>
<text text-anchor="start" x="27.5" y="-1311.5" font-family="Helvetica,sans-Serif" font-size="10.00">decrementReferens()</text>
<text text-anchor="start" x="14.5" y="-1296.5" font-family="Helvetica,sans-Serif" font-size="10.00">+</text>
<text text-anchor="start" x="27.5" y="-1296.5" font-family="Helvetica,sans-Serif" font-size="10.00">GroupVisibility()</text>
<polygon fill="#666666" stroke="#666666" points="10.5,-1441.5 10.5,-1441.5 135.5,-1441.5 135.5,-1441.5 10.5,-1441.5"/>
<polygon fill="#666666" stroke="#666666" points="10.5,-1411.5 10.5,-1411.5 25.5,-1411.5 25.5,-1411.5 10.5,-1411.5"/>
<polygon fill="#666666" stroke="#666666" points="25.5,-1411.5 25.5,-1411.5 135.5,-1411.5 135.5,-1411.5 25.5,-1411.5"/>
<polygon fill="none" stroke="#666666" points="10,-1290 10,-1459 135,-1459 135,-1290 10,-1290"/>
</a>
</g>
</g>
<!-- Node4&#45;&gt;Node3 -->
<g id="edge3_Node000003_Node000004" class="edge">
<title>Node4&#45;&gt;Node3</title>
<g id="a_edge3_Node000003_Node000004"><a xlink:title=" ">
<path fill="none" stroke="#63b8ff" d="M72.5,-1279.78C72.5,-1271.62 72.5,-1263.12 72.5,-1254.33"/>
<polygon fill="none" stroke="#63b8ff" points="69,-1279.91 72.5,-1289.91 76,-1279.91 69,-1279.91"/>
</a>
</g>
</g>
<!-- Node5 -->
<g id="Node000005" class="node">
<title>Node5</title>
<g id="a_Node000005"><a xlink:title=" ">
<polygon fill="white" stroke="transparent" points="97.5,-1544 47.5,-1544 47.5,-1495 97.5,-1495 97.5,-1544"/>
<text text-anchor="start" x="52.5" y="-1531.5" font-family="Helvetica,sans-Serif" font-size="10.00">QObject</text>
<text text-anchor="start" x="70.5" y="-1516.5" font-family="Helvetica,sans-Serif" font-size="10.00"> </text>
<text text-anchor="start" x="70.5" y="-1501.5" font-family="Helvetica,sans-Serif" font-size="10.00"> </text>
<polygon fill="#666666" stroke="#666666" points="47.5,-1526.5 47.5,-1526.5 97.5,-1526.5 97.5,-1526.5 47.5,-1526.5"/>
<polygon fill="#666666" stroke="#666666" points="47.5,-1511.5 47.5,-1511.5 97.5,-1511.5 97.5,-1511.5 47.5,-1511.5"/>
<polygon fill="none" stroke="#666666" points="47.5,-1495 47.5,-1544 97.5,-1544 97.5,-1495 47.5,-1495"/>
</a>
</g>
</g>
<!-- Node5&#45;&gt;Node4 -->
<g id="edge4_Node000004_Node000005" class="edge">
<title>Node5&#45;&gt;Node4</title>
<g id="a_edge4_Node000004_Node000005"><a xlink:title=" ">
<path fill="none" stroke="#63b8ff" d="M72.5,-1484.72C72.5,-1476.84 72.5,-1468.1 72.5,-1459.1"/>
<polygon fill="none" stroke="#63b8ff" points="69,-1484.89 72.5,-1494.89 76,-1484.89 69,-1484.89"/>
</a>
</g>
</g>
</g>
</svg>

<g id="navigator" transform="translate(0 0)" fill="#404254">
  <rect fill="#f2f5e9" fill-opacity="0.5" stroke="#606060" stroke-width=".5" x="0" y="0" width="60" height="60"/>
  <use id="zoomplus" xlink:href="#zoomPlus" x="17" y="9" onmousedown="handleZoom(evt,'in')"/>
  <use id="zoomminus" xlink:href="#zoomMin" x="42" y="9" onmousedown="handleZoom(evt,'out')"/>
  <use id="reset" xlink:href="#resetDef" x="30" y="36" onmousedown="handleReset()"/>
   <use id="arrowup" xlink:href="#arrowUp" x="0" y="0" onmousedown="handlePan(0,-1)"/>
  <use id="arrowright" xlink:href="#arrowRight" x="0" y="0" onmousedown="handlePan(1,0)"/>
  <use id="arrowdown" xlink:href="#arrowDown" x="0" y="0" onmousedown="handlePan(0,1)"/>
  <use id="arrowleft" xlink:href="#arrowLeft" x="0" y="0" onmousedown="handlePan(-1,0)"/>
</g>
<svg viewBox="0 0 15 15" width="100%" height="30px" preserveAspectRatio="xMaxYMin meet">
 <g id="arrow_out" transform="scale(0.3 0.3)">
  <a xlink:href="classAnchorPointTool__inherit__graph_org.svg" target="_base">
   <rect id="button" ry="5" rx="5" y="6" x="6" height="38" width="38"
        fill="#f2f5e9" fill-opacity="0.5" stroke="#606060" stroke-width="1.0"/>
   <path id="arrow"
     d="M 11.500037,31.436501 C 11.940474,20.09759 22.043105,11.32322 32.158766,21.979434 L 37.068811,17.246167 C 37.068811,17.246167 37.088388,32 37.088388,32 L 22.160133,31.978069 C 22.160133,31.978069 26.997745,27.140456 26.997745,27.140456 C 18.528582,18.264221 13.291696,25.230495 11.500037,31.436501 z"
     style="fill:#404040;"/>
  </a>
 </g>
</svg>

<style type='text/css'>
<![CDATA[
[data-mouse-over-selected='false'] { opacity: 0.7; }
[data-mouse-over-selected='true']  { opacity: 1.0; }
]]>
</style>
<script type="application/ecmascript"><![CDATA[
document.addEventListener('DOMContentLoaded', (event) => {
  highlightEdges();
  highlightAdjacentNodes();
});
]]></script>
</svg>
