<?xml version="1.0" encoding="UTF-8" standalone="no"?>
<!DOCTYPE svg PUBLIC "-//W3C//DTD SVG 1.1//EN"
 "http://www.w3.org/Graphics/SVG/1.1/DTD/svg11.dtd">
<!-- Generated by graphviz version 2.43.0 (0)
 -->
<!-- Title: VAbstractFloatItemData Pages: 1 -->
<svg width="266pt" height="647pt"
 viewBox="0.00 0.00 266.00 647.00" xmlns="http://www.w3.org/2000/svg" xmlns:xlink="http://www.w3.org/1999/xlink">
<g id="graph0" class="graph" transform="scale(1 1) rotate(0) translate(4 643)">
<title>VAbstractFloatItemData</title>
<!-- Node1 -->
<g id="Node000001" class="node">
<title>Node1</title>
<g id="a_Node000001"><a xlink:title=" ">
<polygon fill="#999999" stroke="transparent" points="202,-639 48,-639 48,-470 202,-470 202,-639"/>
<text text-anchor="start" x="66" y="-626.5" font-family="Helvetica,sans-Serif" font-size="10.00">VAbstractFloatItemData</text>
<text text-anchor="start" x="54.5" y="-611.5" font-family="Helvetica,sans-Serif" font-size="10.00">&#45;</text>
<text text-anchor="start" x="65" y="-611.5" font-family="Helvetica,sans-Serif" font-size="10.00">d</text>
<text text-anchor="start" x="52" y="-596.5" font-family="Helvetica,sans-Serif" font-size="10.00">+</text>
<text text-anchor="start" x="65" y="-596.5" font-family="Helvetica,sans-Serif" font-size="10.00">VAbstractFloatItemData()</text>
<text text-anchor="start" x="52" y="-581.5" font-family="Helvetica,sans-Serif" font-size="10.00">+</text>
<text text-anchor="start" x="65" y="-581.5" font-family="Helvetica,sans-Serif" font-size="10.00">VAbstractFloatItemData()</text>
<text text-anchor="start" x="52" y="-566.5" font-family="Helvetica,sans-Serif" font-size="10.00">+</text>
<text text-anchor="start" x="65" y="-566.5" font-family="Helvetica,sans-Serif" font-size="10.00">~VAbstractFloatItemData()</text>
<text text-anchor="start" x="52" y="-551.5" font-family="Helvetica,sans-Serif" font-size="10.00">+</text>
<text text-anchor="start" x="65" y="-551.5" font-family="Helvetica,sans-Serif" font-size="10.00">operator=()</text>
<text text-anchor="start" x="52" y="-536.5" font-family="Helvetica,sans-Serif" font-size="10.00">+</text>
<text text-anchor="start" x="65" y="-536.5" font-family="Helvetica,sans-Serif" font-size="10.00">Swap()</text>
<text text-anchor="start" x="52" y="-521.5" font-family="Helvetica,sans-Serif" font-size="10.00">+</text>
<text text-anchor="start" x="65" y="-521.5" font-family="Helvetica,sans-Serif" font-size="10.00">GetPos()</text>
<text text-anchor="start" x="52" y="-506.5" font-family="Helvetica,sans-Serif" font-size="10.00">+</text>
<text text-anchor="start" x="65" y="-506.5" font-family="Helvetica,sans-Serif" font-size="10.00">SetPos()</text>
<text text-anchor="start" x="52" y="-491.5" font-family="Helvetica,sans-Serif" font-size="10.00">+</text>
<text text-anchor="start" x="65" y="-491.5" font-family="Helvetica,sans-Serif" font-size="10.00">IsVisible()</text>
<text text-anchor="start" x="52" y="-476.5" font-family="Helvetica,sans-Serif" font-size="10.00">+</text>
<text text-anchor="start" x="65" y="-476.5" font-family="Helvetica,sans-Serif" font-size="10.00">SetVisible()</text>
<polygon fill="#666666" stroke="#666666" points="48,-621.5 48,-621.5 202,-621.5 202,-621.5 48,-621.5"/>
<polygon fill="#666666" stroke="#666666" points="48,-606.5 48,-606.5 63,-606.5 63,-606.5 48,-606.5"/>
<polygon fill="#666666" stroke="#666666" points="63,-606.5 63,-606.5 202,-606.5 202,-606.5 63,-606.5"/>
<polygon fill="none" stroke="#666666" points="48,-470 48,-639 202,-639 202,-470 48,-470"/>
</a>
</g>
</g>
<!-- Node2 -->
<g id="Node000002" class="node">
<title>Node2</title>
<g id="a_Node000002"><a xlink:href="../../da/d7f/classVGrainlineData.html" target="_top" xlink:title="The VGrainlineData class holds information about a grainline like position, size, rotation and visibi...">
<polygon fill="white" stroke="transparent" points="112,-434 0,-434 0,-235 112,-235 112,-434"/>
<text text-anchor="start" x="18.5" y="-421.5" font-family="Helvetica,sans-Serif" font-size="10.00">VGrainlineData</text>
<text text-anchor="start" x="6.5" y="-406.5" font-family="Helvetica,sans-Serif" font-size="10.00">&#45;</text>
<text text-anchor="start" x="17" y="-406.5" font-family="Helvetica,sans-Serif" font-size="10.00">d</text>
<text text-anchor="start" x="4" y="-391.5" font-family="Helvetica,sans-Serif" font-size="10.00">+</text>
<text text-anchor="start" x="17" y="-391.5" font-family="Helvetica,sans-Serif" font-size="10.00">VGrainlineData()</text>
<text text-anchor="start" x="4" y="-376.5" font-family="Helvetica,sans-Serif" font-size="10.00">+</text>
<text text-anchor="start" x="17" y="-376.5" font-family="Helvetica,sans-Serif" font-size="10.00">VGrainlineData()</text>
<text text-anchor="start" x="4" y="-361.5" font-family="Helvetica,sans-Serif" font-size="10.00">+</text>
<text text-anchor="start" x="17" y="-361.5" font-family="Helvetica,sans-Serif" font-size="10.00">~VGrainlineData()</text>
<text text-anchor="start" x="4" y="-346.5" font-family="Helvetica,sans-Serif" font-size="10.00">+</text>
<text text-anchor="start" x="17" y="-346.5" font-family="Helvetica,sans-Serif" font-size="10.00">operator=()</text>
<text text-anchor="start" x="4" y="-331.5" font-family="Helvetica,sans-Serif" font-size="10.00">+</text>
<text text-anchor="start" x="17" y="-331.5" font-family="Helvetica,sans-Serif" font-size="10.00">Swap()</text>
<text text-anchor="start" x="4" y="-316.5" font-family="Helvetica,sans-Serif" font-size="10.00">+</text>
<text text-anchor="start" x="17" y="-316.5" font-family="Helvetica,sans-Serif" font-size="10.00">GetLength()</text>
<text text-anchor="start" x="4" y="-301.5" font-family="Helvetica,sans-Serif" font-size="10.00">+</text>
<text text-anchor="start" x="17" y="-301.5" font-family="Helvetica,sans-Serif" font-size="10.00">SetLength()</text>
<text text-anchor="start" x="4" y="-286.5" font-family="Helvetica,sans-Serif" font-size="10.00">+</text>
<text text-anchor="start" x="17" y="-286.5" font-family="Helvetica,sans-Serif" font-size="10.00">GetRotation()</text>
<text text-anchor="start" x="4" y="-271.5" font-family="Helvetica,sans-Serif" font-size="10.00">+</text>
<text text-anchor="start" x="17" y="-271.5" font-family="Helvetica,sans-Serif" font-size="10.00">SetRotation()</text>
<text text-anchor="start" x="4" y="-256.5" font-family="Helvetica,sans-Serif" font-size="10.00">+</text>
<text text-anchor="start" x="17" y="-256.5" font-family="Helvetica,sans-Serif" font-size="10.00">GetArrowType()</text>
<text text-anchor="start" x="17" y="-241.5" font-family="Helvetica,sans-Serif" font-size="10.00">and 7 more...</text>
<polygon fill="#666666" stroke="#666666" points="0,-416.5 0,-416.5 112,-416.5 112,-416.5 0,-416.5"/>
<polygon fill="#666666" stroke="#666666" points="0,-401.5 0,-401.5 15,-401.5 15,-401.5 0,-401.5"/>
<polygon fill="#666666" stroke="#666666" points="15,-401.5 15,-401.5 112,-401.5 112,-401.5 15,-401.5"/>
<polygon fill="none" stroke="#666666" points="0,-235 0,-434 112,-434 112,-235 0,-235"/>
</a>
</g>
</g>
<!-- Node1&#45;&gt;Node2 -->
<g id="edge1_Node000001_Node000002" class="edge">
<title>Node1&#45;&gt;Node2</title>
<g id="a_edge1_Node000001_Node000002"><a xlink:title=" ">
<path fill="none" stroke="#63b8ff" d="M95.47,-460.2C92.75,-451.61 89.99,-442.88 87.25,-434.24"/>
<polygon fill="none" stroke="#63b8ff" points="92.17,-461.36 98.52,-469.84 98.84,-459.25 92.17,-461.36"/>
</a>
</g>
</g>
<!-- Node3 -->
<g id="Node000003" class="node">
<title>Node3</title>
<g id="a_Node000003"><a xlink:href="../../df/da3/classVPatternLabelData.html" target="_top" xlink:title="The VPatternLabelData class holds the information about pattern info label geometry.">
<polygon fill="white" stroke="transparent" points="258,-434 130,-434 130,-235 258,-235 258,-434"/>
<text text-anchor="start" x="148.5" y="-421.5" font-family="Helvetica,sans-Serif" font-size="10.00">VPatternLabelData</text>
<text text-anchor="start" x="136.5" y="-406.5" font-family="Helvetica,sans-Serif" font-size="10.00">&#45;</text>
<text text-anchor="start" x="147" y="-406.5" font-family="Helvetica,sans-Serif" font-size="10.00">d</text>
<text text-anchor="start" x="134" y="-391.5" font-family="Helvetica,sans-Serif" font-size="10.00">+</text>
<text text-anchor="start" x="147" y="-391.5" font-family="Helvetica,sans-Serif" font-size="10.00">VPatternLabelData()</text>
<text text-anchor="start" x="134" y="-376.5" font-family="Helvetica,sans-Serif" font-size="10.00">+</text>
<text text-anchor="start" x="147" y="-376.5" font-family="Helvetica,sans-Serif" font-size="10.00">VPatternLabelData()</text>
<text text-anchor="start" x="134" y="-361.5" font-family="Helvetica,sans-Serif" font-size="10.00">+</text>
<text text-anchor="start" x="147" y="-361.5" font-family="Helvetica,sans-Serif" font-size="10.00">~VPatternLabelData()</text>
<text text-anchor="start" x="134" y="-346.5" font-family="Helvetica,sans-Serif" font-size="10.00">+</text>
<text text-anchor="start" x="147" y="-346.5" font-family="Helvetica,sans-Serif" font-size="10.00">operator=()</text>
<text text-anchor="start" x="134" y="-331.5" font-family="Helvetica,sans-Serif" font-size="10.00">+</text>
<text text-anchor="start" x="147" y="-331.5" font-family="Helvetica,sans-Serif" font-size="10.00">Swap()</text>
<text text-anchor="start" x="134" y="-316.5" font-family="Helvetica,sans-Serif" font-size="10.00">+</text>
<text text-anchor="start" x="147" y="-316.5" font-family="Helvetica,sans-Serif" font-size="10.00">GetLabelWidth()</text>
<text text-anchor="start" x="134" y="-301.5" font-family="Helvetica,sans-Serif" font-size="10.00">+</text>
<text text-anchor="start" x="147" y="-301.5" font-family="Helvetica,sans-Serif" font-size="10.00">SetLabelWidth()</text>
<text text-anchor="start" x="134" y="-286.5" font-family="Helvetica,sans-Serif" font-size="10.00">+</text>
<text text-anchor="start" x="147" y="-286.5" font-family="Helvetica,sans-Serif" font-size="10.00">GetLabelHeight()</text>
<text text-anchor="start" x="134" y="-271.5" font-family="Helvetica,sans-Serif" font-size="10.00">+</text>
<text text-anchor="start" x="147" y="-271.5" font-family="Helvetica,sans-Serif" font-size="10.00">SetLabelHeight()</text>
<text text-anchor="start" x="134" y="-256.5" font-family="Helvetica,sans-Serif" font-size="10.00">+</text>
<text text-anchor="start" x="147" y="-256.5" font-family="Helvetica,sans-Serif" font-size="10.00">getFontSize()</text>
<text text-anchor="start" x="147" y="-241.5" font-family="Helvetica,sans-Serif" font-size="10.00">and 9 more...</text>
<polygon fill="#666666" stroke="#666666" points="130,-416.5 130,-416.5 258,-416.5 258,-416.5 130,-416.5"/>
<polygon fill="#666666" stroke="#666666" points="130,-401.5 130,-401.5 145,-401.5 145,-401.5 130,-401.5"/>
<polygon fill="#666666" stroke="#666666" points="145,-401.5 145,-401.5 258,-401.5 258,-401.5 145,-401.5"/>
<polygon fill="none" stroke="#666666" points="130,-235 130,-434 258,-434 258,-235 130,-235"/>
</a>
</g>
</g>
<!-- Node1&#45;&gt;Node3 -->
<g id="edge2_Node000001_Node000003" class="edge">
<title>Node1&#45;&gt;Node3</title>
<g id="a_edge2_Node000001_Node000003"><a xlink:title=" ">
<path fill="none" stroke="#63b8ff" d="M154.53,-460.2C157.25,-451.61 160.01,-442.88 162.75,-434.24"/>
<polygon fill="none" stroke="#63b8ff" points="151.16,-459.25 151.48,-469.84 157.83,-461.36 151.16,-459.25"/>
</a>
</g>
</g>
<!-- Node4 -->
<g id="Node000004" class="node">
<title>Node4</title>
<g id="a_Node000004"><a xlink:href="../../de/d3b/classVPieceLabelData.html" target="_top" xlink:title="The VPieceLabelData class holds some information about a single piece like letter,...">
<polygon fill="white" stroke="transparent" points="254,-199 134,-199 134,0 254,0 254,-199"/>
<text text-anchor="start" x="152.5" y="-186.5" font-family="Helvetica,sans-Serif" font-size="10.00">VPieceLabelData</text>
<text text-anchor="start" x="140.5" y="-171.5" font-family="Helvetica,sans-Serif" font-size="10.00">&#45;</text>
<text text-anchor="start" x="151" y="-171.5" font-family="Helvetica,sans-Serif" font-size="10.00">d</text>
<text text-anchor="start" x="138" y="-156.5" font-family="Helvetica,sans-Serif" font-size="10.00">+</text>
<text text-anchor="start" x="151" y="-156.5" font-family="Helvetica,sans-Serif" font-size="10.00">VPieceLabelData()</text>
<text text-anchor="start" x="138" y="-141.5" font-family="Helvetica,sans-Serif" font-size="10.00">+</text>
<text text-anchor="start" x="151" y="-141.5" font-family="Helvetica,sans-Serif" font-size="10.00">VPieceLabelData()</text>
<text text-anchor="start" x="138" y="-126.5" font-family="Helvetica,sans-Serif" font-size="10.00">+</text>
<text text-anchor="start" x="151" y="-126.5" font-family="Helvetica,sans-Serif" font-size="10.00">~VPieceLabelData()</text>
<text text-anchor="start" x="138" y="-111.5" font-family="Helvetica,sans-Serif" font-size="10.00">+</text>
<text text-anchor="start" x="151" y="-111.5" font-family="Helvetica,sans-Serif" font-size="10.00">operator=()</text>
<text text-anchor="start" x="138" y="-96.5" font-family="Helvetica,sans-Serif" font-size="10.00">+</text>
<text text-anchor="start" x="151" y="-96.5" font-family="Helvetica,sans-Serif" font-size="10.00">Swap()</text>
<text text-anchor="start" x="138" y="-81.5" font-family="Helvetica,sans-Serif" font-size="10.00">+</text>
<text text-anchor="start" x="151" y="-81.5" font-family="Helvetica,sans-Serif" font-size="10.00">Clear()</text>
<text text-anchor="start" x="138" y="-66.5" font-family="Helvetica,sans-Serif" font-size="10.00">+</text>
<text text-anchor="start" x="151" y="-66.5" font-family="Helvetica,sans-Serif" font-size="10.00">GetLetter()</text>
<text text-anchor="start" x="138" y="-51.5" font-family="Helvetica,sans-Serif" font-size="10.00">+</text>
<text text-anchor="start" x="151" y="-51.5" font-family="Helvetica,sans-Serif" font-size="10.00">SetLetter()</text>
<text text-anchor="start" x="138" y="-36.5" font-family="Helvetica,sans-Serif" font-size="10.00">+</text>
<text text-anchor="start" x="151" y="-36.5" font-family="Helvetica,sans-Serif" font-size="10.00">GetAnnotation()</text>
<text text-anchor="start" x="138" y="-21.5" font-family="Helvetica,sans-Serif" font-size="10.00">+</text>
<text text-anchor="start" x="151" y="-21.5" font-family="Helvetica,sans-Serif" font-size="10.00">SetAnnotation()</text>
<text text-anchor="start" x="151" y="-6.5" font-family="Helvetica,sans-Serif" font-size="10.00">and 14 more...</text>
<polygon fill="#666666" stroke="#666666" points="134,-181.5 134,-181.5 254,-181.5 254,-181.5 134,-181.5"/>
<polygon fill="#666666" stroke="#666666" points="134,-166.5 134,-166.5 149,-166.5 149,-166.5 134,-166.5"/>
<polygon fill="#666666" stroke="#666666" points="149,-166.5 149,-166.5 254,-166.5 254,-166.5 149,-166.5"/>
<polygon fill="none" stroke="#666666" points="134,0 134,-199 254,-199 254,0 134,0"/>
</a>
</g>
</g>
<!-- Node3&#45;&gt;Node4 -->
<g id="edge3_Node000003_Node000004" class="edge">
<title>Node3&#45;&gt;Node4</title>
<g id="a_edge3_Node000003_Node000004"><a xlink:title=" ">
<path fill="none" stroke="#63b8ff" d="M194,-224.42C194,-215.97 194,-207.47 194,-199.09"/>
<polygon fill="none" stroke="#63b8ff" points="190.5,-224.69 194,-234.69 197.5,-224.69 190.5,-224.69"/>
</a>
</g>
</g>
</g>
</svg>
