<?xml version="1.0" encoding="UTF-8" standalone="no"?>
<!DOCTYPE svg PUBLIC "-//W3C//DTD SVG 1.1//EN"
 "http://www.w3.org/Graphics/SVG/1.1/DTD/svg11.dtd">
<!-- Generated by graphviz version 2.43.0 (0)
 -->
<!-- Title: ImageDialog Pages: 1 -->
<svg width="162pt" height="738pt"
 viewBox="0.00 0.00 162.00 738.00" xmlns="http://www.w3.org/2000/svg" xmlns:xlink="http://www.w3.org/1999/xlink">
<g id="graph0" class="graph" transform="scale(1 1) rotate(0) translate(4 734)">
<title>ImageDialog</title>
<!-- Node1 -->
<g id="Node000001" class="node">
<title>Node1</title>
<g id="a_Node000001"><a xlink:title=" ">
<polygon fill="#999999" stroke="transparent" points="128.5,-484 7.5,-484 7.5,0 128.5,0 128.5,-484"/>
<text text-anchor="start" x="37" y="-472" font-family="Helvetica,sans-Serif" font-size="10.00">ImageDialog</text>
<text text-anchor="start" x="14.5" y="-457" font-family="Helvetica,sans-Serif" font-size="10.00">&#45;</text>
<text text-anchor="start" x="25" y="-457" font-family="Helvetica,sans-Serif" font-size="10.00">ui</text>
<text text-anchor="start" x="14.5" y="-442" font-family="Helvetica,sans-Serif" font-size="10.00">&#45;</text>
<text text-anchor="start" x="25" y="-442" font-family="Helvetica,sans-Serif" font-size="10.00">m_pixmapWidth</text>
<text text-anchor="start" x="14.5" y="-427" font-family="Helvetica,sans-Serif" font-size="10.00">&#45;</text>
<text text-anchor="start" x="25" y="-427" font-family="Helvetica,sans-Serif" font-size="10.00">m_pixmapHeight</text>
<text text-anchor="start" x="14.5" y="-412" font-family="Helvetica,sans-Serif" font-size="10.00">&#45;</text>
<text text-anchor="start" x="25" y="-412" font-family="Helvetica,sans-Serif" font-size="10.00">m_maxDimension</text>
<text text-anchor="start" x="14.5" y="-397" font-family="Helvetica,sans-Serif" font-size="10.00">&#45;</text>
<text text-anchor="start" x="25" y="-397" font-family="Helvetica,sans-Serif" font-size="10.00">m_minDimension</text>
<text text-anchor="start" x="14.5" y="-382" font-family="Helvetica,sans-Serif" font-size="10.00">&#45;</text>
<text text-anchor="start" x="25" y="-382" font-family="Helvetica,sans-Serif" font-size="10.00">m_minOpacity</text>
<text text-anchor="start" x="14.5" y="-367" font-family="Helvetica,sans-Serif" font-size="10.00">&#45;</text>
<text text-anchor="start" x="25" y="-367" font-family="Helvetica,sans-Serif" font-size="10.00">m_xScale</text>
<text text-anchor="start" x="14.5" y="-352" font-family="Helvetica,sans-Serif" font-size="10.00">&#45;</text>
<text text-anchor="start" x="25" y="-352" font-family="Helvetica,sans-Serif" font-size="10.00">m_yScale</text>
<text text-anchor="start" x="14.5" y="-337" font-family="Helvetica,sans-Serif" font-size="10.00">&#45;</text>
<text text-anchor="start" x="25" y="-337" font-family="Helvetica,sans-Serif" font-size="10.00">m_flagName</text>
<text text-anchor="start" x="12" y="-322" font-family="Helvetica,sans-Serif" font-size="10.00">+</text>
<text text-anchor="start" x="25" y="-322" font-family="Helvetica,sans-Serif" font-size="10.00">ImageDialog()</text>
<text text-anchor="start" x="12" y="-307" font-family="Helvetica,sans-Serif" font-size="10.00">+</text>
<text text-anchor="start" x="25" y="-307" font-family="Helvetica,sans-Serif" font-size="10.00">~ImageDialog()</text>
<text text-anchor="start" x="12" y="-292" font-family="Helvetica,sans-Serif" font-size="10.00">+</text>
<text text-anchor="start" x="25" y="-292" font-family="Helvetica,sans-Serif" font-size="10.00">getImage()</text>
<text text-anchor="start" x="12" y="-277" font-family="Helvetica,sans-Serif" font-size="10.00">+</text>
<text text-anchor="start" x="25" y="-277" font-family="Helvetica,sans-Serif" font-size="10.00">setImage()</text>
<text text-anchor="start" x="12" y="-262" font-family="Helvetica,sans-Serif" font-size="10.00">+</text>
<text text-anchor="start" x="25" y="-262" font-family="Helvetica,sans-Serif" font-size="10.00">updateImage()</text>
<text text-anchor="start" x="12" y="-247" font-family="Helvetica,sans-Serif" font-size="10.00">+</text>
<text text-anchor="start" x="25" y="-247" font-family="Helvetica,sans-Serif" font-size="10.00">enableWidgets()</text>
<text text-anchor="start" x="12" y="-232" font-family="Helvetica,sans-Serif" font-size="10.00">+</text>
<text text-anchor="start" x="25" y="-232" font-family="Helvetica,sans-Serif" font-size="10.00">getName()</text>
<text text-anchor="start" x="12" y="-217" font-family="Helvetica,sans-Serif" font-size="10.00">+</text>
<text text-anchor="start" x="25" y="-217" font-family="Helvetica,sans-Serif" font-size="10.00">setName()</text>
<text text-anchor="start" x="12" y="-202" font-family="Helvetica,sans-Serif" font-size="10.00">+</text>
<text text-anchor="start" x="25" y="-202" font-family="Helvetica,sans-Serif" font-size="10.00">setOriginPoint()</text>
<text text-anchor="start" x="12" y="-187" font-family="Helvetica,sans-Serif" font-size="10.00">+</text>
<text text-anchor="start" x="25" y="-187" font-family="Helvetica,sans-Serif" font-size="10.00">getXPos()</text>
<text text-anchor="start" x="25" y="-172" font-family="Helvetica,sans-Serif" font-size="10.00">and 21 more...</text>
<text text-anchor="start" x="14.5" y="-157" font-family="Helvetica,sans-Serif" font-size="10.00">&#45;</text>
<text text-anchor="start" x="25" y="-157" font-family="Helvetica,sans-Serif" font-size="10.00">nameChanged()</text>
<text text-anchor="start" x="14.5" y="-142" font-family="Helvetica,sans-Serif" font-size="10.00">&#45;</text>
<text text-anchor="start" x="25" y="-142" font-family="Helvetica,sans-Serif" font-size="10.00">originChanged()</text>
<text text-anchor="start" x="14.5" y="-127" font-family="Helvetica,sans-Serif" font-size="10.00">&#45;</text>
<text text-anchor="start" x="25" y="-127" font-family="Helvetica,sans-Serif" font-size="10.00">lockChanged()</text>
<text text-anchor="start" x="14.5" y="-112" font-family="Helvetica,sans-Serif" font-size="10.00">&#45;</text>
<text text-anchor="start" x="25" y="-112" font-family="Helvetica,sans-Serif" font-size="10.00">alignmentChanged()</text>
<text text-anchor="start" x="14.5" y="-97" font-family="Helvetica,sans-Serif" font-size="10.00">&#45;</text>
<text text-anchor="start" x="25" y="-97" font-family="Helvetica,sans-Serif" font-size="10.00">xPosChanged()</text>
<text text-anchor="start" x="14.5" y="-82" font-family="Helvetica,sans-Serif" font-size="10.00">&#45;</text>
<text text-anchor="start" x="25" y="-82" font-family="Helvetica,sans-Serif" font-size="10.00">yPosChanged()</text>
<text text-anchor="start" x="14.5" y="-67" font-family="Helvetica,sans-Serif" font-size="10.00">&#45;</text>
<text text-anchor="start" x="25" y="-67" font-family="Helvetica,sans-Serif" font-size="10.00">widthChanged()</text>
<text text-anchor="start" x="14.5" y="-52" font-family="Helvetica,sans-Serif" font-size="10.00">&#45;</text>
<text text-anchor="start" x="25" y="-52" font-family="Helvetica,sans-Serif" font-size="10.00">heightChanged()</text>
<text text-anchor="start" x="14.5" y="-37" font-family="Helvetica,sans-Serif" font-size="10.00">&#45;</text>
<text text-anchor="start" x="25" y="-37" font-family="Helvetica,sans-Serif" font-size="10.00">xScaleChanged()</text>
<text text-anchor="start" x="14.5" y="-22" font-family="Helvetica,sans-Serif" font-size="10.00">&#45;</text>
<text text-anchor="start" x="25" y="-22" font-family="Helvetica,sans-Serif" font-size="10.00">yScaleChanged()</text>
<text text-anchor="start" x="25" y="-7" font-family="Helvetica,sans-Serif" font-size="10.00">and 10 more...</text>
<polygon fill="#666666" stroke="#666666" points="8,-467 8,-467 129,-467 129,-467 8,-467"/>
<polygon fill="#666666" stroke="#666666" points="8,-332 8,-332 23,-332 23,-332 8,-332"/>
<polygon fill="#666666" stroke="#666666" points="23,-332 23,-332 129,-332 129,-332 23,-332"/>
<polygon fill="none" stroke="#666666" points="7.5,0 7.5,-484 128.5,-484 128.5,0 7.5,0"/>
</a>
</g>
</g>
<!-- Node2 -->
<g id="Node000002" class="node">
<title>Node2</title>
<g id="a_Node000002"><a xlink:title=" ">
<polygon fill="white" stroke="transparent" points="50,-655 0,-655 0,-606 50,-606 50,-655"/>
<text text-anchor="start" x="5" y="-642.5" font-family="Helvetica,sans-Serif" font-size="10.00">QDialog</text>
<text text-anchor="start" x="23" y="-627.5" font-family="Helvetica,sans-Serif" font-size="10.00"> </text>
<text text-anchor="start" x="23" y="-612.5" font-family="Helvetica,sans-Serif" font-size="10.00"> </text>
<polygon fill="#666666" stroke="#666666" points="0,-637.5 0,-637.5 50,-637.5 50,-637.5 0,-637.5"/>
<polygon fill="#666666" stroke="#666666" points="0,-622.5 0,-622.5 50,-622.5 50,-622.5 0,-622.5"/>
<polygon fill="none" stroke="#666666" points="0,-606 0,-655 50,-655 50,-606 0,-606"/>
</a>
</g>
</g>
<!-- Node2&#45;&gt;Node1 -->
<g id="edge1_Node000001_Node000002" class="edge">
<title>Node2&#45;&gt;Node1</title>
<g id="a_edge1_Node000001_Node000002"><a xlink:title=" ">
<path fill="none" stroke="#63b8ff" d="M28.74,-595.89C31.74,-568.88 36.26,-528.26 41.18,-484.08"/>
<polygon fill="none" stroke="#63b8ff" points="25.25,-595.58 27.63,-605.9 32.21,-596.35 25.25,-595.58"/>
</a>
</g>
</g>
<!-- Node3 -->
<g id="Node000003" class="node">
<title>Node3</title>
<g id="a_Node000003"><a xlink:href="../../d3/df8/structDraftImage.html" target="_top" xlink:title=" ">
<polygon fill="white" stroke="transparent" points="154,-730 68,-730 68,-531 154,-531 154,-730"/>
<text text-anchor="start" x="83.5" y="-717.5" font-family="Helvetica,sans-Serif" font-size="10.00">DraftImage</text>
<text text-anchor="start" x="72" y="-702.5" font-family="Helvetica,sans-Serif" font-size="10.00">+</text>
<text text-anchor="start" x="85" y="-702.5" font-family="Helvetica,sans-Serif" font-size="10.00">id</text>
<text text-anchor="start" x="72" y="-687.5" font-family="Helvetica,sans-Serif" font-size="10.00">+</text>
<text text-anchor="start" x="85" y="-687.5" font-family="Helvetica,sans-Serif" font-size="10.00">name</text>
<text text-anchor="start" x="72" y="-672.5" font-family="Helvetica,sans-Serif" font-size="10.00">+</text>
<text text-anchor="start" x="85" y="-672.5" font-family="Helvetica,sans-Serif" font-size="10.00">filename</text>
<text text-anchor="start" x="72" y="-657.5" font-family="Helvetica,sans-Serif" font-size="10.00">+</text>
<text text-anchor="start" x="85" y="-657.5" font-family="Helvetica,sans-Serif" font-size="10.00">locked</text>
<text text-anchor="start" x="72" y="-642.5" font-family="Helvetica,sans-Serif" font-size="10.00">+</text>
<text text-anchor="start" x="85" y="-642.5" font-family="Helvetica,sans-Serif" font-size="10.00">xOrigin</text>
<text text-anchor="start" x="72" y="-627.5" font-family="Helvetica,sans-Serif" font-size="10.00">+</text>
<text text-anchor="start" x="85" y="-627.5" font-family="Helvetica,sans-Serif" font-size="10.00">yOrigin</text>
<text text-anchor="start" x="72" y="-612.5" font-family="Helvetica,sans-Serif" font-size="10.00">+</text>
<text text-anchor="start" x="85" y="-612.5" font-family="Helvetica,sans-Serif" font-size="10.00">xPos</text>
<text text-anchor="start" x="72" y="-597.5" font-family="Helvetica,sans-Serif" font-size="10.00">+</text>
<text text-anchor="start" x="85" y="-597.5" font-family="Helvetica,sans-Serif" font-size="10.00">yPos</text>
<text text-anchor="start" x="72" y="-582.5" font-family="Helvetica,sans-Serif" font-size="10.00">+</text>
<text text-anchor="start" x="85" y="-582.5" font-family="Helvetica,sans-Serif" font-size="10.00">width</text>
<text text-anchor="start" x="72" y="-567.5" font-family="Helvetica,sans-Serif" font-size="10.00">+</text>
<text text-anchor="start" x="85" y="-567.5" font-family="Helvetica,sans-Serif" font-size="10.00">height</text>
<text text-anchor="start" x="85" y="-552.5" font-family="Helvetica,sans-Serif" font-size="10.00">and 9 more...</text>
<text text-anchor="start" x="72" y="-537.5" font-family="Helvetica,sans-Serif" font-size="10.00">+</text>
<text text-anchor="start" x="85" y="-537.5" font-family="Helvetica,sans-Serif" font-size="10.00">DraftImage()</text>
<polygon fill="#666666" stroke="#666666" points="68,-712.5 68,-712.5 154,-712.5 154,-712.5 68,-712.5"/>
<polygon fill="#666666" stroke="#666666" points="68,-547.5 68,-547.5 83,-547.5 83,-547.5 68,-547.5"/>
<polygon fill="#666666" stroke="#666666" points="83,-547.5 83,-547.5 154,-547.5 154,-547.5 83,-547.5"/>
<polygon fill="none" stroke="#666666" points="68,-531 68,-730 154,-730 154,-531 68,-531"/>
</a>
</g>
</g>
<!-- Node3&#45;&gt;Node1 -->
<g id="edge2_Node000001_Node000003" class="edge">
<title>Node3&#45;&gt;Node1</title>
<g id="a_edge2_Node000001_Node000003"><a xlink:title=" ">
<path fill="none" stroke="#63b8ff" d="M100.04,-530.97C98.81,-519.9 97.51,-508.28 96.18,-496.31"/>
<polygon fill="none" stroke="#63b8ff" points="96.17,-496.17 91.53,-490.65 94.84,-484.25 99.48,-489.77 96.17,-496.17"/>
</a>
</g>
<text text-anchor="middle" x="123.5" y="-505" font-family="Helvetica,sans-Serif" font-size="10.00" fill="grey"> &#45;m_image</text>
</g>
</g>
</svg>
