<?xml version="1.0" encoding="UTF-8" standalone="no"?>
<!DOCTYPE svg PUBLIC "-//W3C//DTD SVG 1.1//EN"
 "http://www.w3.org/Graphics/SVG/1.1/DTD/svg11.dtd">
<!-- Generated by graphviz version 2.43.0 (0)
 -->
<!-- Title: src/libs/vgeometry/vabstractcubicbezierpath.h Pages: 1 -->
<svg width="4894pt" height="307pt"
 viewBox="0.00 0.00 4893.50 307.00" xmlns="http://www.w3.org/2000/svg" xmlns:xlink="http://www.w3.org/1999/xlink">
<g id="graph0" class="graph" transform="scale(1 1) rotate(0) translate(4 303)">
<title>src/libs/vgeometry/vabstractcubicbezierpath.h</title>
<polygon fill="white" stroke="transparent" points="-4,4 -4,-303 4889.5,-303 4889.5,4 -4,4"/>
<!-- Node1 -->
<g id="node1" class="node">
<title>Node1</title>
<g id="a_node1"><a xlink:title=" ">
<polygon fill="#bfbfbf" stroke="black" points="1274.5,-268.5 1274.5,-298.5 1426.5,-298.5 1426.5,-268.5 1274.5,-268.5"/>
<text text-anchor="start" x="1282.5" y="-286.5" font-family="Helvetica,sans-Serif" font-size="10.00">src/libs/vgeometry</text>
<text text-anchor="middle" x="1350.5" y="-275.5" font-family="Helvetica,sans-Serif" font-size="10.00">/vabstractcubicbezierpath.h</text>
</a>
</g>
</g>
<!-- Node2 -->
<g id="node2" class="node">
<title>Node2</title>
<g id="a_node2"><a xlink:href="../../db/d0a/vabstractcubicbezierpath_8cpp.html" target="_top" xlink:title=" ">
<polygon fill="white" stroke="black" points="985,-201.5 985,-231.5 1148,-231.5 1148,-201.5 985,-201.5"/>
<text text-anchor="start" x="993" y="-219.5" font-family="Helvetica,sans-Serif" font-size="10.00">src/libs/vgeometry</text>
<text text-anchor="middle" x="1066.5" y="-208.5" font-family="Helvetica,sans-Serif" font-size="10.00">/vabstractcubicbezierpath.cpp</text>
</a>
</g>
</g>
<!-- Node1&#45;&gt;Node2 -->
<g id="edge1" class="edge">
<title>Node1&#45;&gt;Node2</title>
<path fill="none" stroke="midnightblue" d="M1279.22,-266.19C1232.71,-255.54 1172.6,-241.78 1128.15,-231.61"/>
<polygon fill="midnightblue" stroke="midnightblue" points="1278.7,-269.66 1289.23,-268.48 1280.26,-262.83 1278.7,-269.66"/>
</g>
<!-- Node3 -->
<g id="node3" class="node">
<title>Node3</title>
<g id="a_node3"><a xlink:href="../../dd/dbe/vcubicbezierpath_8h.html" target="_top" xlink:title=" ">
<polygon fill="white" stroke="black" points="1166.5,-201.5 1166.5,-231.5 1278.5,-231.5 1278.5,-201.5 1166.5,-201.5"/>
<text text-anchor="start" x="1174.5" y="-219.5" font-family="Helvetica,sans-Serif" font-size="10.00">src/libs/vgeometry</text>
<text text-anchor="middle" x="1222.5" y="-208.5" font-family="Helvetica,sans-Serif" font-size="10.00">/vcubicbezierpath.h</text>
</a>
</g>
</g>
<!-- Node1&#45;&gt;Node3 -->
<g id="edge2" class="edge">
<title>Node1&#45;&gt;Node3</title>
<path fill="none" stroke="midnightblue" d="M1313.78,-263.85C1293.54,-253.58 1268.83,-241.03 1250.22,-231.58"/>
<polygon fill="midnightblue" stroke="midnightblue" points="1312.22,-266.99 1322.73,-268.4 1315.39,-260.75 1312.22,-266.99"/>
</g>
<!-- Node5 -->
<g id="node5" class="node">
<title>Node5</title>
<g id="a_node5"><a xlink:href="../../d0/d39/vsplinepath_8h.html" target="_top" xlink:title=" ">
<polygon fill="white" stroke="black" points="1297,-201.5 1297,-231.5 1404,-231.5 1404,-201.5 1297,-201.5"/>
<text text-anchor="start" x="1305" y="-219.5" font-family="Helvetica,sans-Serif" font-size="10.00">src/libs/vgeometry</text>
<text text-anchor="middle" x="1350.5" y="-208.5" font-family="Helvetica,sans-Serif" font-size="10.00">/vsplinepath.h</text>
</a>
</g>
</g>
<!-- Node1&#45;&gt;Node5 -->
<g id="edge4" class="edge">
<title>Node1&#45;&gt;Node5</title>
<path fill="none" stroke="midnightblue" d="M1350.5,-258.11C1350.5,-249.15 1350.5,-239.32 1350.5,-231.58"/>
<polygon fill="midnightblue" stroke="midnightblue" points="1347,-258.4 1350.5,-268.4 1354,-258.4 1347,-258.4"/>
</g>
<!-- Node10 -->
<g id="node10" class="node">
<title>Node10</title>
<g id="a_node10"><a xlink:href="../../d3/df7/vcontainer_8h.html" target="_top" xlink:title=" ">
<polygon fill="white" stroke="black" points="2159,-201.5 2159,-231.5 2266,-231.5 2266,-201.5 2159,-201.5"/>
<text text-anchor="start" x="2167" y="-219.5" font-family="Helvetica,sans-Serif" font-size="10.00">src/libs/vpatterndb</text>
<text text-anchor="middle" x="2212.5" y="-208.5" font-family="Helvetica,sans-Serif" font-size="10.00">/vcontainer.h</text>
</a>
</g>
</g>
<!-- Node1&#45;&gt;Node10 -->
<g id="edge9" class="edge">
<title>Node1&#45;&gt;Node10</title>
<path fill="none" stroke="midnightblue" d="M1436.67,-276C1613.72,-262.65 2013.91,-232.48 2158.83,-221.55"/>
<polygon fill="midnightblue" stroke="midnightblue" points="1436.33,-272.52 1426.62,-276.76 1436.85,-279.5 1436.33,-272.52"/>
</g>
<!-- Node42 -->
<g id="node37" class="node">
<title>Node42</title>
<g id="a_node37"><a xlink:href="../../d6/d46/vcontainer_8cpp.html" target="_top" xlink:title=" ">
<polygon fill="white" stroke="black" points="3244,-67.5 3244,-97.5 3351,-97.5 3351,-67.5 3244,-67.5"/>
<text text-anchor="start" x="3252" y="-85.5" font-family="Helvetica,sans-Serif" font-size="10.00">src/libs/vpatterndb</text>
<text text-anchor="middle" x="3297.5" y="-74.5" font-family="Helvetica,sans-Serif" font-size="10.00">/vcontainer.cpp</text>
</a>
</g>
</g>
<!-- Node1&#45;&gt;Node42 -->
<g id="edge62" class="edge">
<title>Node1&#45;&gt;Node42</title>
<path fill="none" stroke="midnightblue" d="M1436.57,-278.08C1599.94,-269.64 1966.23,-250.39 2274.5,-232 2504.79,-218.26 3152.72,-333.31 3310.5,-165 3327.55,-146.81 3315.42,-115.7 3305.9,-97.63"/>
<polygon fill="midnightblue" stroke="midnightblue" points="1436.38,-274.59 1426.57,-278.6 1436.74,-281.58 1436.38,-274.59"/>
</g>
<!-- Node4 -->
<g id="node4" class="node">
<title>Node4</title>
<g id="a_node4"><a xlink:href="../../de/df0/vcubicbezierpath_8cpp.html" target="_top" xlink:title=" ">
<polygon fill="white" stroke="black" points="858,-134.5 858,-164.5 981,-164.5 981,-134.5 858,-134.5"/>
<text text-anchor="start" x="866" y="-152.5" font-family="Helvetica,sans-Serif" font-size="10.00">src/libs/vgeometry</text>
<text text-anchor="middle" x="919.5" y="-141.5" font-family="Helvetica,sans-Serif" font-size="10.00">/vcubicbezierpath.cpp</text>
</a>
</g>
</g>
<!-- Node3&#45;&gt;Node4 -->
<g id="edge3" class="edge">
<title>Node3&#45;&gt;Node4</title>
<path fill="none" stroke="midnightblue" d="M1156.8,-201.07C1156.7,-201.04 1156.6,-201.02 1156.5,-201 1097.08,-188.14 1029.23,-173.71 981.4,-163.58"/>
<polygon fill="midnightblue" stroke="midnightblue" points="1155.82,-204.43 1166.34,-203.14 1157.31,-197.59 1155.82,-204.43"/>
</g>
<!-- Node6 -->
<g id="node6" class="node">
<title>Node6</title>
<g id="a_node6"><a xlink:href="../../db/d6a/vsplinepath_8cpp.html" target="_top" xlink:title=" ">
<polygon fill="white" stroke="black" points="1221,-134.5 1221,-164.5 1328,-164.5 1328,-134.5 1221,-134.5"/>
<text text-anchor="start" x="1229" y="-152.5" font-family="Helvetica,sans-Serif" font-size="10.00">src/libs/vgeometry</text>
<text text-anchor="middle" x="1274.5" y="-141.5" font-family="Helvetica,sans-Serif" font-size="10.00">/vsplinepath.cpp</text>
</a>
</g>
</g>
<!-- Node5&#45;&gt;Node6 -->
<g id="edge5" class="edge">
<title>Node5&#45;&gt;Node6</title>
<path fill="none" stroke="midnightblue" d="M1326.39,-194.88C1314.84,-185.01 1301.31,-173.43 1290.96,-164.58"/>
<polygon fill="midnightblue" stroke="midnightblue" points="1324.13,-197.56 1334.01,-201.4 1328.68,-192.24 1324.13,-197.56"/>
</g>
<!-- Node7 -->
<g id="node7" class="node">
<title>Node7</title>
<g id="a_node7"><a xlink:href="../../d1/d3a/abstracttest_8cpp.html" target="_top" xlink:title=" ">
<polygon fill="white" stroke="black" points="1346,-140 1346,-159 1507,-159 1507,-140 1346,-140"/>
<text text-anchor="middle" x="1426.5" y="-147" font-family="Helvetica,sans-Serif" font-size="10.00">src/libs/vtest/abstracttest.cpp</text>
</a>
</g>
</g>
<!-- Node5&#45;&gt;Node7 -->
<g id="edge6" class="edge">
<title>Node5&#45;&gt;Node7</title>
<path fill="none" stroke="midnightblue" d="M1374.85,-194.67C1388.89,-182.67 1405.78,-168.22 1416.33,-159.19"/>
<polygon fill="midnightblue" stroke="midnightblue" points="1372.32,-192.24 1366.99,-201.4 1376.87,-197.56 1372.32,-192.24"/>
</g>
<!-- Node8 -->
<g id="node8" class="node">
<title>Node8</title>
<g id="a_node8"><a xlink:href="../../d8/d13/vcontrolpointspline_8h.html" target="_top" xlink:title=" ">
<polygon fill="white" stroke="black" points="999.5,-140 999.5,-159 1203.5,-159 1203.5,-140 999.5,-140"/>
<text text-anchor="middle" x="1101.5" y="-147" font-family="Helvetica,sans-Serif" font-size="10.00">src/libs/vwidgets/vcontrolpointspline.h</text>
</a>
</g>
</g>
<!-- Node5&#45;&gt;Node8 -->
<g id="edge7" class="edge">
<title>Node5&#45;&gt;Node8</title>
<path fill="none" stroke="midnightblue" d="M1286.95,-198.91C1238.18,-186.18 1172.86,-169.13 1134.17,-159.03"/>
<polygon fill="midnightblue" stroke="midnightblue" points="1286.22,-202.34 1296.78,-201.48 1287.99,-195.56 1286.22,-202.34"/>
</g>
<!-- Node9 -->
<g id="node9" class="node">
<title>Node9</title>
<g id="a_node9"><a xlink:href="../../de/d45/vcontrolpointspline_8cpp.html" target="_top" xlink:title=" ">
<polygon fill="white" stroke="black" points="0,-73 0,-92 215,-92 215,-73 0,-73"/>
<text text-anchor="middle" x="107.5" y="-80" font-family="Helvetica,sans-Serif" font-size="10.00">src/libs/vwidgets/vcontrolpointspline.cpp</text>
</a>
</g>
</g>
<!-- Node8&#45;&gt;Node9 -->
<g id="edge8" class="edge">
<title>Node8&#45;&gt;Node9</title>
<path fill="none" stroke="midnightblue" d="M1032.66,-138.69C1018.41,-136.91 1003.49,-135.23 989.5,-134 649.99,-104.1 563.07,-127.16 223.5,-98 205.6,-96.46 186.22,-94.26 168.51,-92.03"/>
<polygon fill="midnightblue" stroke="midnightblue" points="1032.53,-142.2 1042.89,-139.99 1033.41,-135.25 1032.53,-142.2"/>
</g>
<!-- Node10&#45;&gt;Node7 -->
<g id="edge60" class="edge">
<title>Node10&#45;&gt;Node7</title>
<path fill="none" stroke="midnightblue" d="M2148.29,-212.72C2025.35,-206.98 1748.31,-192.03 1516.5,-165 1502.82,-163.41 1488.05,-161.22 1474.5,-159.03"/>
<polygon fill="midnightblue" stroke="midnightblue" points="2148.49,-216.23 2158.64,-213.2 2148.82,-209.24 2148.49,-216.23"/>
</g>
<!-- Node11 -->
<g id="node11" class="node">
<title>Node11</title>
<g id="a_node11"><a xlink:href="../../d4/dd6/vmeasurements_8h.html" target="_top" xlink:title=" ">
<polygon fill="white" stroke="black" points="2956,-140 2956,-159 3141,-159 3141,-140 2956,-140"/>
<text text-anchor="middle" x="3048.5" y="-147" font-family="Helvetica,sans-Serif" font-size="10.00">src/libs/vformat/vmeasurements.h</text>
</a>
</g>
</g>
<!-- Node10&#45;&gt;Node11 -->
<g id="edge10" class="edge">
<title>Node10&#45;&gt;Node11</title>
<path fill="none" stroke="midnightblue" d="M2276.51,-212.51C2403.66,-206.26 2696.97,-190.26 2942.5,-165 2958.39,-163.37 2975.57,-161.19 2991.37,-159.03"/>
<polygon fill="midnightblue" stroke="midnightblue" points="2276,-209.03 2266.18,-213.02 2276.34,-216.03 2276,-209.03"/>
</g>
<!-- Node12 -->
<g id="node12" class="node">
<title>Node12</title>
<g id="a_node12"><a xlink:href="../../de/db3/vmeasurements_8cpp.html" target="_top" xlink:title=" ">
<polygon fill="white" stroke="black" points="3369.5,-73 3369.5,-92 3565.5,-92 3565.5,-73 3369.5,-73"/>
<text text-anchor="middle" x="3467.5" y="-80" font-family="Helvetica,sans-Serif" font-size="10.00">src/libs/vformat/vmeasurements.cpp</text>
</a>
</g>
</g>
<!-- Node10&#45;&gt;Node12 -->
<g id="edge12" class="edge">
<title>Node10&#45;&gt;Node12</title>
<path fill="none" stroke="midnightblue" d="M2276.29,-214.17C2495.63,-209.36 3210.83,-191.77 3310.5,-165 3368.63,-149.39 3429.78,-109.91 3455.25,-92.26"/>
<polygon fill="midnightblue" stroke="midnightblue" points="2276.14,-210.67 2266.22,-214.38 2276.3,-217.67 2276.14,-210.67"/>
</g>
<!-- Node13 -->
<g id="node13" class="node">
<title>Node13</title>
<g id="a_node13"><a xlink:href="../../d6/de0/vlayoutpiece_8h.html" target="_top" xlink:title=" ">
<polygon fill="white" stroke="black" points="3997.5,-140 3997.5,-159 4163.5,-159 4163.5,-140 3997.5,-140"/>
<text text-anchor="middle" x="4080.5" y="-147" font-family="Helvetica,sans-Serif" font-size="10.00">src/libs/vlayout/vlayoutpiece.h</text>
</a>
</g>
</g>
<!-- Node10&#45;&gt;Node13 -->
<g id="edge13" class="edge">
<title>Node10&#45;&gt;Node13</title>
<path fill="none" stroke="midnightblue" d="M2276.41,-213.28C2557.21,-203.51 3681.48,-164.38 3997.49,-153.39"/>
<polygon fill="midnightblue" stroke="midnightblue" points="2276.26,-209.78 2266.39,-213.62 2276.51,-216.77 2276.26,-209.78"/>
</g>
<!-- Node23 -->
<g id="node22" class="node">
<title>Node23</title>
<g id="a_node22"><a xlink:href="../../d8/d70/vtextmanager_8cpp.html" target="_top" xlink:title=" ">
<polygon fill="white" stroke="black" points="358.5,-73 358.5,-92 540.5,-92 540.5,-73 358.5,-73"/>
<text text-anchor="middle" x="449.5" y="-80" font-family="Helvetica,sans-Serif" font-size="10.00">src/libs/vlayout/vtextmanager.cpp</text>
</a>
</g>
</g>
<!-- Node10&#45;&gt;Node23 -->
<g id="edge24" class="edge">
<title>Node10&#45;&gt;Node23</title>
<path fill="none" stroke="midnightblue" d="M2193.16,-193.93C2172.96,-172.02 2142.08,-140.42 2126.5,-134 2045.47,-100.63 636.83,-105.3 549.5,-98 533.33,-96.65 515.79,-94.38 499.98,-92.03"/>
<polygon fill="midnightblue" stroke="midnightblue" points="2190.74,-196.47 2200.07,-201.5 2195.91,-191.75 2190.74,-196.47"/>
</g>
<!-- Node24 -->
<g id="node23" class="node">
<title>Node24</title>
<g id="a_node23"><a xlink:href="../../d5/d74/vabstractapplication_8h.html" target="_top" xlink:title=" ">
<polygon fill="white" stroke="red" points="2178,-140 2178,-159 2373,-159 2373,-140 2178,-140"/>
<text text-anchor="middle" x="2275.5" y="-147" font-family="Helvetica,sans-Serif" font-size="10.00">src/libs/vmisc/vabstractapplication.h</text>
</a>
</g>
</g>
<!-- Node10&#45;&gt;Node24 -->
<g id="edge25" class="edge">
<title>Node10&#45;&gt;Node24</title>
<path fill="none" stroke="midnightblue" d="M2233.34,-194C2244.84,-182.13 2258.49,-168.05 2267.07,-159.19"/>
<polygon fill="midnightblue" stroke="midnightblue" points="2230.62,-191.78 2226.17,-201.4 2235.64,-196.65 2230.62,-191.78"/>
</g>
<!-- Node10&#45;&gt;Node42 -->
<g id="edge54" class="edge">
<title>Node10&#45;&gt;Node42</title>
<path fill="none" stroke="midnightblue" d="M2276.32,-215.34C2424.97,-214.26 2790.31,-207.24 2904.5,-165 2926.26,-156.95 2924.96,-142.63 2946.5,-134 3064.19,-86.83 3104.5,-119.24 3229.5,-98 3234.14,-97.21 3238.95,-96.33 3243.76,-95.39"/>
<polygon fill="midnightblue" stroke="midnightblue" points="2275.98,-211.85 2266,-215.41 2276.02,-218.85 2275.98,-211.85"/>
</g>
<!-- Node43 -->
<g id="node38" class="node">
<title>Node43</title>
<g id="a_node38"><a xlink:href="../../db/d11/vformula_8cpp.html" target="_top" xlink:title=" ">
<polygon fill="white" stroke="black" points="3080,-67.5 3080,-97.5 3187,-97.5 3187,-67.5 3080,-67.5"/>
<text text-anchor="start" x="3088" y="-85.5" font-family="Helvetica,sans-Serif" font-size="10.00">src/libs/vpatterndb</text>
<text text-anchor="middle" x="3133.5" y="-74.5" font-family="Helvetica,sans-Serif" font-size="10.00">/vformula.cpp</text>
</a>
</g>
</g>
<!-- Node10&#45;&gt;Node43 -->
<g id="edge55" class="edge">
<title>Node10&#45;&gt;Node43</title>
<path fill="none" stroke="midnightblue" d="M2276.83,-208.7C2420.05,-193.11 2775.81,-151.98 3070.5,-98 3073.59,-97.43 3076.76,-96.82 3079.95,-96.17"/>
<polygon fill="midnightblue" stroke="midnightblue" points="2276.04,-205.26 2266.48,-209.82 2276.8,-212.22 2276.04,-205.26"/>
</g>
<!-- Node44 -->
<g id="node39" class="node">
<title>Node44</title>
<g id="a_node39"><a xlink:href="../../df/d7a/vpiece_8cpp.html" target="_top" xlink:title=" ">
<polygon fill="white" stroke="black" points="233,-67.5 233,-97.5 340,-97.5 340,-67.5 233,-67.5"/>
<text text-anchor="start" x="241" y="-85.5" font-family="Helvetica,sans-Serif" font-size="10.00">src/libs/vpatterndb</text>
<text text-anchor="middle" x="286.5" y="-74.5" font-family="Helvetica,sans-Serif" font-size="10.00">/vpiece.cpp</text>
</a>
</g>
</g>
<!-- Node10&#45;&gt;Node44 -->
<g id="edge57" class="edge">
<title>Node10&#45;&gt;Node44</title>
<path fill="none" stroke="midnightblue" d="M2176.22,-196.57C2160.43,-187.74 2142.03,-176.62 2126.5,-165 2110.39,-152.94 2112.13,-141.6 2093.5,-134 2003.77,-97.39 445.67,-109.93 349.5,-98 346.49,-97.63 343.42,-97.17 340.33,-96.65"/>
<polygon fill="midnightblue" stroke="midnightblue" points="2174.73,-199.75 2185.18,-201.5 2178.1,-193.61 2174.73,-199.75"/>
</g>
<!-- Node46 -->
<g id="node41" class="node">
<title>Node46</title>
<g id="a_node41"><a xlink:href="../../d8/dba/vpiecenode_8cpp.html" target="_top" xlink:title=" ">
<polygon fill="white" stroke="black" points="3058,-0.5 3058,-30.5 3165,-30.5 3165,-0.5 3058,-0.5"/>
<text text-anchor="start" x="3066" y="-18.5" font-family="Helvetica,sans-Serif" font-size="10.00">src/libs/vpatterndb</text>
<text text-anchor="middle" x="3111.5" y="-7.5" font-family="Helvetica,sans-Serif" font-size="10.00">/vpiecenode.cpp</text>
</a>
</g>
</g>
<!-- Node10&#45;&gt;Node46 -->
<g id="edge58" class="edge">
<title>Node10&#45;&gt;Node46</title>
<path fill="none" stroke="midnightblue" d="M2276.27,-211.99C2378.32,-205.82 2584.46,-191.17 2757.5,-165 2823.52,-155.01 2838.64,-145 2904.5,-134 2968.77,-123.27 3152.35,-146.82 3195.5,-98 3217.7,-72.88 3176.39,-46.28 3144.21,-30.55"/>
<polygon fill="midnightblue" stroke="midnightblue" points="2275.9,-208.5 2266.13,-212.59 2276.32,-215.49 2275.9,-208.5"/>
</g>
<!-- Node61 -->
<g id="node46" class="node">
<title>Node61</title>
<g id="a_node46"><a xlink:href="../../d1/de1/vincrement__p_8h.html" target="_top" xlink:title=" ">
<polygon fill="white" stroke="red" points="3159,-134.5 3159,-164.5 3302,-164.5 3302,-134.5 3159,-134.5"/>
<text text-anchor="start" x="3167" y="-152.5" font-family="Helvetica,sans-Serif" font-size="10.00">src/libs/vpatterndb</text>
<text text-anchor="middle" x="3230.5" y="-141.5" font-family="Helvetica,sans-Serif" font-size="10.00">/variables/vincrement_p.h</text>
</a>
</g>
</g>
<!-- Node10&#45;&gt;Node61 -->
<g id="edge52" class="edge">
<title>Node10&#45;&gt;Node61</title>
<path fill="none" stroke="midnightblue" d="M2276.11,-214.77C2427.79,-212.45 2822.44,-202.94 3149.5,-165 3152.48,-164.65 3155.52,-164.27 3158.58,-163.85"/>
<polygon fill="midnightblue" stroke="midnightblue" points="2275.99,-211.27 2266.05,-214.92 2276.1,-218.27 2275.99,-211.27"/>
</g>
<!-- Node63 -->
<g id="node47" class="node">
<title>Node63</title>
<g id="a_node47"><a xlink:href="../../d6/dc1/vmeasurement__p_8h.html" target="_top" xlink:title=" ">
<polygon fill="white" stroke="red" points="1525.5,-134.5 1525.5,-164.5 1687.5,-164.5 1687.5,-134.5 1525.5,-134.5"/>
<text text-anchor="start" x="1533.5" y="-152.5" font-family="Helvetica,sans-Serif" font-size="10.00">src/libs/vpatterndb</text>
<text text-anchor="middle" x="1606.5" y="-141.5" font-family="Helvetica,sans-Serif" font-size="10.00">/variables/vmeasurement_p.h</text>
</a>
</g>
</g>
<!-- Node10&#45;&gt;Node63 -->
<g id="edge53" class="edge">
<title>Node10&#45;&gt;Node63</title>
<path fill="none" stroke="midnightblue" d="M2148.9,-210.56C2051.35,-202.69 1859.02,-186.02 1696.5,-165 1693.67,-164.63 1690.8,-164.25 1687.9,-163.85"/>
<polygon fill="midnightblue" stroke="midnightblue" points="2148.64,-214.05 2158.89,-211.36 2149.2,-207.07 2148.64,-214.05"/>
</g>
<!-- Node65 -->
<g id="node48" class="node">
<title>Node65</title>
<g id="a_node48"><a xlink:href="../../d6/d91/vnodedetail_8cpp.html" target="_top" xlink:title=" ">
<polygon fill="white" stroke="black" points="1706,-134.5 1706,-164.5 1813,-164.5 1813,-134.5 1706,-134.5"/>
<text text-anchor="start" x="1714" y="-152.5" font-family="Helvetica,sans-Serif" font-size="10.00">src/libs/vpatterndb</text>
<text text-anchor="middle" x="1759.5" y="-141.5" font-family="Helvetica,sans-Serif" font-size="10.00">/vnodedetail.cpp</text>
</a>
</g>
</g>
<!-- Node10&#45;&gt;Node65 -->
<g id="edge56" class="edge">
<title>Node10&#45;&gt;Node65</title>
<path fill="none" stroke="midnightblue" d="M2148.69,-209.27C2071.03,-201.22 1936.07,-185.74 1821.5,-165 1818.78,-164.51 1816,-163.97 1813.2,-163.41"/>
<polygon fill="midnightblue" stroke="midnightblue" points="2148.49,-212.76 2158.79,-210.3 2149.2,-205.8 2148.49,-212.76"/>
</g>
<!-- Node66 -->
<g id="node49" class="node">
<title>Node66</title>
<g id="a_node49"><a xlink:href="../../da/de1/vpiecepath_8cpp.html" target="_top" xlink:title=" ">
<polygon fill="white" stroke="black" points="1831,-134.5 1831,-164.5 1938,-164.5 1938,-134.5 1831,-134.5"/>
<text text-anchor="start" x="1839" y="-152.5" font-family="Helvetica,sans-Serif" font-size="10.00">src/libs/vpatterndb</text>
<text text-anchor="middle" x="1884.5" y="-141.5" font-family="Helvetica,sans-Serif" font-size="10.00">/vpiecepath.cpp</text>
</a>
</g>
</g>
<!-- Node10&#45;&gt;Node66 -->
<g id="edge59" class="edge">
<title>Node10&#45;&gt;Node66</title>
<path fill="none" stroke="midnightblue" d="M2148.76,-204.05C2095,-194.23 2016.07,-179.42 1947.5,-165 1944.42,-164.35 1941.27,-163.67 1938.09,-162.98"/>
<polygon fill="midnightblue" stroke="midnightblue" points="2148.37,-207.54 2158.83,-205.89 2149.62,-200.65 2148.37,-207.54"/>
</g>
<!-- Node67 -->
<g id="node50" class="node">
<title>Node67</title>
<g id="a_node50"><a xlink:href="../../da/db4/piece__tablewidgetitem_8cpp.html" target="_top" xlink:title=" ">
<polygon fill="white" stroke="black" points="1956.5,-134.5 1956.5,-164.5 2084.5,-164.5 2084.5,-134.5 1956.5,-134.5"/>
<text text-anchor="start" x="1964.5" y="-152.5" font-family="Helvetica,sans-Serif" font-size="10.00">src/libs/vwidgets/piece</text>
<text text-anchor="middle" x="2020.5" y="-141.5" font-family="Helvetica,sans-Serif" font-size="10.00">_tablewidgetitem.cpp</text>
</a>
</g>
</g>
<!-- Node10&#45;&gt;Node67 -->
<g id="edge61" class="edge">
<title>Node10&#45;&gt;Node67</title>
<path fill="none" stroke="midnightblue" d="M2161.08,-198.09C2130.08,-187.6 2091.12,-174.41 2062.08,-164.58"/>
<polygon fill="midnightblue" stroke="midnightblue" points="2160.24,-201.5 2170.84,-201.4 2162.49,-194.87 2160.24,-201.5"/>
</g>
<!-- Node11&#45;&gt;Node12 -->
<g id="edge11" class="edge">
<title>Node11&#45;&gt;Node12</title>
<path fill="none" stroke="midnightblue" d="M3113.68,-138.39C3195.8,-125.65 3335.5,-103.98 3412.5,-92.03"/>
<polygon fill="midnightblue" stroke="midnightblue" points="3113.05,-134.94 3103.71,-139.94 3114.13,-141.86 3113.05,-134.94"/>
</g>
<!-- Node14 -->
<g id="node14" class="node">
<title>Node14</title>
<g id="a_node14"><a xlink:href="../../dd/d66/vdxfengine_8cpp.html" target="_top" xlink:title=" ">
<polygon fill="white" stroke="black" points="4569.5,-73 4569.5,-92 4723.5,-92 4723.5,-73 4569.5,-73"/>
<text text-anchor="middle" x="4646.5" y="-80" font-family="Helvetica,sans-Serif" font-size="10.00">src/libs/vdxf/vdxfengine.cpp</text>
</a>
</g>
</g>
<!-- Node13&#45;&gt;Node14 -->
<g id="edge14" class="edge">
<title>Node13&#45;&gt;Node14</title>
<path fill="none" stroke="midnightblue" d="M4173.56,-140.44C4270.42,-131.64 4426.39,-116.34 4560.5,-98 4573.1,-96.28 4586.69,-94.12 4599.27,-92.01"/>
<polygon fill="midnightblue" stroke="midnightblue" points="4173.15,-136.96 4163.5,-141.35 4173.78,-143.93 4173.15,-136.96"/>
</g>
<!-- Node15 -->
<g id="node15" class="node">
<title>Node15</title>
<g id="a_node15"><a xlink:href="../../de/da8/vbank_8cpp.html" target="_top" xlink:title=" ">
<polygon fill="white" stroke="black" points="4741.5,-73 4741.5,-92 4885.5,-92 4885.5,-73 4741.5,-73"/>
<text text-anchor="middle" x="4813.5" y="-80" font-family="Helvetica,sans-Serif" font-size="10.00">src/libs/vlayout/vbank.cpp</text>
</a>
</g>
</g>
<!-- Node13&#45;&gt;Node15 -->
<g id="edge15" class="edge">
<title>Node13&#45;&gt;Node15</title>
<path fill="none" stroke="midnightblue" d="M4173.69,-144.21C4300.49,-137.71 4534.31,-123.35 4732.5,-98 4744.83,-96.42 4758.13,-94.24 4770.32,-92.05"/>
<polygon fill="midnightblue" stroke="midnightblue" points="4173.43,-140.72 4163.62,-144.72 4173.79,-147.71 4173.43,-140.72"/>
</g>
<!-- Node16 -->
<g id="node16" class="node">
<title>Node16</title>
<g id="a_node16"><a xlink:href="../../df/d5d/vcontour_8cpp.html" target="_top" xlink:title=" ">
<polygon fill="white" stroke="black" points="3778.5,-73 3778.5,-92 3934.5,-92 3934.5,-73 3778.5,-73"/>
<text text-anchor="middle" x="3856.5" y="-80" font-family="Helvetica,sans-Serif" font-size="10.00">src/libs/vlayout/vcontour.cpp</text>
</a>
</g>
</g>
<!-- Node13&#45;&gt;Node16 -->
<g id="edge16" class="edge">
<title>Node13&#45;&gt;Node16</title>
<path fill="none" stroke="midnightblue" d="M4040.9,-137.01C3996.57,-124.15 3925.75,-103.59 3886.01,-92.06"/>
<polygon fill="midnightblue" stroke="midnightblue" points="4040.18,-140.44 4050.75,-139.87 4042.13,-133.72 4040.18,-140.44"/>
</g>
<!-- Node17 -->
<g id="node17" class="node">
<title>Node17</title>
<g id="a_node17"><a xlink:href="../../d1/dd1/vlayoutpaper_8cpp.html" target="_top" xlink:title=" ">
<polygon fill="white" stroke="black" points="3991.5,-6 3991.5,-25 4169.5,-25 4169.5,-6 3991.5,-6"/>
<text text-anchor="middle" x="4080.5" y="-13" font-family="Helvetica,sans-Serif" font-size="10.00">src/libs/vlayout/vlayoutpaper.cpp</text>
</a>
</g>
</g>
<!-- Node13&#45;&gt;Node17 -->
<g id="edge17" class="edge">
<title>Node13&#45;&gt;Node17</title>
<path fill="none" stroke="midnightblue" d="M4034.57,-136.55C4014.95,-128.93 3993.97,-116.82 3982.5,-98 3975.33,-86.24 3975.33,-78.76 3982.5,-67 3995.85,-45.1 4022.08,-32.29 4044.04,-25.06"/>
<polygon fill="midnightblue" stroke="midnightblue" points="4033.44,-139.87 4044.04,-139.94 4035.81,-133.28 4033.44,-139.87"/>
</g>
<!-- Node18 -->
<g id="node18" class="node">
<title>Node18</title>
<g id="a_node18"><a xlink:href="../../d2/d2d/vlayoutpaper__p_8h.html" target="_top" xlink:title=" ">
<polygon fill="white" stroke="black" points="3991,-73 3991,-92 4170,-92 4170,-73 3991,-73"/>
<text text-anchor="middle" x="4080.5" y="-80" font-family="Helvetica,sans-Serif" font-size="10.00">src/libs/vlayout/vlayoutpaper_p.h</text>
</a>
</g>
</g>
<!-- Node13&#45;&gt;Node18 -->
<g id="edge18" class="edge">
<title>Node13&#45;&gt;Node18</title>
<path fill="none" stroke="midnightblue" d="M4080.5,-129.54C4080.5,-117.17 4080.5,-101.62 4080.5,-92.13"/>
<polygon fill="midnightblue" stroke="midnightblue" points="4077,-129.73 4080.5,-139.73 4084,-129.73 4077,-129.73"/>
</g>
<!-- Node19 -->
<g id="node19" class="node">
<title>Node19</title>
<g id="a_node19"><a xlink:href="../../d3/d39/vlayoutgenerator_8cpp.html" target="_top" xlink:title=" ">
<polygon fill="white" stroke="black" points="4188,-73 4188,-92 4385,-92 4385,-73 4188,-73"/>
<text text-anchor="middle" x="4286.5" y="-80" font-family="Helvetica,sans-Serif" font-size="10.00">src/libs/vlayout/vlayoutgenerator.cpp</text>
</a>
</g>
</g>
<!-- Node13&#45;&gt;Node19 -->
<g id="edge20" class="edge">
<title>Node13&#45;&gt;Node19</title>
<path fill="none" stroke="midnightblue" d="M4117.43,-136.85C4158.23,-123.97 4222.97,-103.55 4259.36,-92.06"/>
<polygon fill="midnightblue" stroke="midnightblue" points="4116.34,-133.52 4107.86,-139.87 4118.44,-140.2 4116.34,-133.52"/>
</g>
<!-- Node20 -->
<g id="node20" class="node">
<title>Node20</title>
<g id="a_node20"><a xlink:href="../../dd/d70/vlayoutpiece_8cpp.html" target="_top" xlink:title=" ">
<polygon fill="white" stroke="black" points="3583,-73 3583,-92 3760,-92 3760,-73 3583,-73"/>
<text text-anchor="middle" x="3671.5" y="-80" font-family="Helvetica,sans-Serif" font-size="10.00">src/libs/vlayout/vlayoutpiece.cpp</text>
</a>
</g>
</g>
<!-- Node13&#45;&gt;Node20 -->
<g id="edge21" class="edge">
<title>Node13&#45;&gt;Node20</title>
<path fill="none" stroke="midnightblue" d="M4016.64,-138.35C3936.44,-125.6 3800.27,-103.96 3725.18,-92.03"/>
<polygon fill="midnightblue" stroke="midnightblue" points="4016.18,-141.82 4026.61,-139.94 4017.28,-134.91 4016.18,-141.82"/>
</g>
<!-- Node21 -->
<g id="node21" class="node">
<title>Node21</title>
<g id="a_node21"><a xlink:href="../../db/d5c/vposition_8h.html" target="_top" xlink:title=" ">
<polygon fill="white" stroke="red" points="4403.5,-73 4403.5,-92 4551.5,-92 4551.5,-73 4403.5,-73"/>
<text text-anchor="middle" x="4477.5" y="-80" font-family="Helvetica,sans-Serif" font-size="10.00">src/libs/vlayout/vposition.h</text>
</a>
</g>
</g>
<!-- Node13&#45;&gt;Node21 -->
<g id="edge22" class="edge">
<title>Node13&#45;&gt;Node21</title>
<path fill="none" stroke="midnightblue" d="M4145.26,-138.35C4208.78,-128.33 4308.36,-112.45 4394.5,-98 4405.75,-96.11 4417.85,-94.03 4429.24,-92.04"/>
<polygon fill="midnightblue" stroke="midnightblue" points="4144.33,-134.95 4134.99,-139.96 4145.42,-141.86 4144.33,-134.95"/>
</g>
<!-- Node18&#45;&gt;Node17 -->
<g id="edge19" class="edge">
<title>Node18&#45;&gt;Node17</title>
<path fill="none" stroke="midnightblue" d="M4080.5,-62.54C4080.5,-50.17 4080.5,-34.62 4080.5,-25.13"/>
<polygon fill="midnightblue" stroke="midnightblue" points="4077,-62.73 4080.5,-72.73 4084,-62.73 4077,-62.73"/>
</g>
<!-- Node21&#45;&gt;Node17 -->
<g id="edge23" class="edge">
<title>Node21&#45;&gt;Node17</title>
<path fill="none" stroke="midnightblue" d="M4419.22,-71.22C4410.93,-69.78 4402.5,-68.34 4394.5,-67 4303.56,-51.74 4197.65,-34.9 4134.99,-25.04"/>
<polygon fill="midnightblue" stroke="midnightblue" points="4418.79,-74.69 4429.24,-72.96 4419.99,-67.8 4418.79,-74.69"/>
</g>
<!-- Node24&#45;&gt;Node9 -->
<g id="edge51" class="edge">
<title>Node24&#45;&gt;Node9</title>
<path fill="none" stroke="midnightblue" d="M2171.95,-139.16C2146.33,-137.15 2118.93,-135.26 2093.5,-134 1263.25,-92.97 1052.62,-157.64 223.5,-98 204.67,-96.65 184.22,-94.36 165.8,-92"/>
<polygon fill="midnightblue" stroke="midnightblue" points="2171.8,-142.66 2182.05,-139.97 2172.36,-135.68 2171.8,-142.66"/>
</g>
<!-- Node24&#45;&gt;Node20 -->
<g id="edge36" class="edge">
<title>Node24&#45;&gt;Node20</title>
<path fill="none" stroke="midnightblue" d="M2383.21,-145.83C2651.49,-138.95 3344.47,-119.6 3574.5,-98 3589.93,-96.55 3606.64,-94.3 3621.78,-92"/>
<polygon fill="midnightblue" stroke="midnightblue" points="2382.98,-142.34 2373.07,-146.09 2383.16,-149.34 2382.98,-142.34"/>
</g>
<!-- Node24&#45;&gt;Node23 -->
<g id="edge37" class="edge">
<title>Node24&#45;&gt;Node23</title>
<path fill="none" stroke="midnightblue" d="M2209.39,-138.68C2194.64,-136.82 2179.06,-135.11 2164.5,-134 1448.62,-79.42 1264.98,-157.62 549.5,-98 533.24,-96.65 515.6,-94.36 499.72,-92"/>
<polygon fill="midnightblue" stroke="midnightblue" points="2209.07,-142.17 2219.44,-139.98 2209.97,-135.22 2209.07,-142.17"/>
</g>
<!-- Node25 -->
<g id="node24" class="node">
<title>Node25</title>
<g id="a_node24"><a xlink:href="../../d4/d90/fvupdater_8cpp.html" target="_top" xlink:title=" ">
<polygon fill="white" stroke="black" points="559,-73 559,-92 712,-92 712,-73 559,-73"/>
<text text-anchor="middle" x="635.5" y="-80" font-family="Helvetica,sans-Serif" font-size="10.00">src/libs/fervor/fvupdater.cpp</text>
</a>
</g>
</g>
<!-- Node24&#45;&gt;Node25 -->
<g id="edge26" class="edge">
<title>Node24&#45;&gt;Node25</title>
<path fill="none" stroke="midnightblue" d="M2209.15,-138.68C2194.47,-136.83 2178.98,-135.12 2164.5,-134 1524.45,-84.35 1359.46,-160.14 720.5,-98 706.64,-96.65 691.64,-94.37 678.14,-92.01"/>
<polygon fill="midnightblue" stroke="midnightblue" points="2208.78,-142.16 2219.15,-139.97 2209.68,-135.22 2208.78,-142.16"/>
</g>
<!-- Node26 -->
<g id="node25" class="node">
<title>Node26</title>
<g id="a_node25"><a xlink:href="../../d9/dc8/dxiface_8cpp.html" target="_top" xlink:title=" ">
<polygon fill="white" stroke="black" points="730,-73 730,-92 865,-92 865,-73 730,-73"/>
<text text-anchor="middle" x="797.5" y="-80" font-family="Helvetica,sans-Serif" font-size="10.00">src/libs/vdxf/dxiface.cpp</text>
</a>
</g>
</g>
<!-- Node24&#45;&gt;Node26 -->
<g id="edge27" class="edge">
<title>Node24&#45;&gt;Node26</title>
<path fill="none" stroke="midnightblue" d="M2208.9,-138.68C2194.3,-136.84 2178.9,-135.14 2164.5,-134 1592.28,-88.77 1444.14,-159.99 873.5,-98 861.08,-96.65 847.66,-94.37 835.59,-92.01"/>
<polygon fill="midnightblue" stroke="midnightblue" points="2208.5,-142.15 2218.86,-139.97 2209.4,-135.21 2208.5,-142.15"/>
</g>
<!-- Node27 -->
<g id="node26" class="node">
<title>Node27</title>
<g id="a_node26"><a xlink:href="../../da/d75/vabstractarc__p_8h.html" target="_top" xlink:title=" ">
<polygon fill="white" stroke="red" points="883,-67.5 883,-97.5 990,-97.5 990,-67.5 883,-67.5"/>
<text text-anchor="start" x="891" y="-85.5" font-family="Helvetica,sans-Serif" font-size="10.00">src/libs/vgeometry</text>
<text text-anchor="middle" x="936.5" y="-74.5" font-family="Helvetica,sans-Serif" font-size="10.00">/vabstractarc_p.h</text>
</a>
</g>
</g>
<!-- Node24&#45;&gt;Node27 -->
<g id="edge28" class="edge">
<title>Node24&#45;&gt;Node27</title>
<path fill="none" stroke="midnightblue" d="M2208.24,-138.63C2193.84,-136.82 2178.69,-135.14 2164.5,-134 1647.7,-92.37 1512.57,-165.37 998.5,-98 995.76,-97.64 992.96,-97.21 990.15,-96.74"/>
<polygon fill="midnightblue" stroke="midnightblue" points="2208.21,-142.15 2218.58,-139.96 2209.11,-135.21 2208.21,-142.15"/>
</g>
<!-- Node29 -->
<g id="node27" class="node">
<title>Node29</title>
<g id="a_node27"><a xlink:href="../../dc/da3/varc__p_8h.html" target="_top" xlink:title=" ">
<polygon fill="white" stroke="red" points="1008,-67.5 1008,-97.5 1115,-97.5 1115,-67.5 1008,-67.5"/>
<text text-anchor="start" x="1016" y="-85.5" font-family="Helvetica,sans-Serif" font-size="10.00">src/libs/vgeometry</text>
<text text-anchor="middle" x="1061.5" y="-74.5" font-family="Helvetica,sans-Serif" font-size="10.00">/varc_p.h</text>
</a>
</g>
</g>
<!-- Node24&#45;&gt;Node29 -->
<g id="edge29" class="edge">
<title>Node24&#45;&gt;Node29</title>
<path fill="none" stroke="midnightblue" d="M2208,-138.64C2193.67,-136.84 2178.61,-135.16 2164.5,-134 1703.12,-95.97 1582.41,-159 1123.5,-98 1120.76,-97.64 1117.96,-97.2 1115.15,-96.72"/>
<polygon fill="midnightblue" stroke="midnightblue" points="2207.92,-142.16 2218.29,-139.97 2208.82,-135.21 2207.92,-142.16"/>
</g>
<!-- Node31 -->
<g id="node28" class="node">
<title>Node31</title>
<g id="a_node28"><a xlink:href="../../d5/d8e/vcubicbezier__p_8h.html" target="_top" xlink:title=" ">
<polygon fill="white" stroke="red" points="1133,-67.5 1133,-97.5 1240,-97.5 1240,-67.5 1133,-67.5"/>
<text text-anchor="start" x="1141" y="-85.5" font-family="Helvetica,sans-Serif" font-size="10.00">src/libs/vgeometry</text>
<text text-anchor="middle" x="1186.5" y="-74.5" font-family="Helvetica,sans-Serif" font-size="10.00">/vcubicbezier_p.h</text>
</a>
</g>
</g>
<!-- Node24&#45;&gt;Node31 -->
<g id="edge30" class="edge">
<title>Node24&#45;&gt;Node31</title>
<path fill="none" stroke="midnightblue" d="M2207.76,-138.66C2193.5,-136.87 2178.52,-135.19 2164.5,-134 1758.53,-99.58 1652.25,-152.64 1248.5,-98 1245.76,-97.63 1242.97,-97.19 1240.15,-96.71"/>
<polygon fill="midnightblue" stroke="midnightblue" points="2207.63,-142.17 2218,-139.98 2208.53,-135.23 2207.63,-142.17"/>
</g>
<!-- Node33 -->
<g id="node29" class="node">
<title>Node33</title>
<g id="a_node29"><a xlink:href="../../df/dde/vellipticalarc__p_8h.html" target="_top" xlink:title=" ">
<polygon fill="white" stroke="black" points="2222,-67.5 2222,-97.5 2329,-97.5 2329,-67.5 2222,-67.5"/>
<text text-anchor="start" x="2230" y="-85.5" font-family="Helvetica,sans-Serif" font-size="10.00">src/libs/vgeometry</text>
<text text-anchor="middle" x="2275.5" y="-74.5" font-family="Helvetica,sans-Serif" font-size="10.00">/vellipticalarc_p.h</text>
</a>
</g>
</g>
<!-- Node24&#45;&gt;Node33 -->
<g id="edge31" class="edge">
<title>Node24&#45;&gt;Node33</title>
<path fill="none" stroke="midnightblue" d="M2275.5,-129.41C2275.5,-119.22 2275.5,-106.9 2275.5,-97.59"/>
<polygon fill="midnightblue" stroke="midnightblue" points="2272,-129.73 2275.5,-139.73 2279,-129.73 2272,-129.73"/>
</g>
<!-- Node34 -->
<g id="node30" class="node">
<title>Node34</title>
<g id="a_node30"><a xlink:href="../../d6/dfb/vellipticalarc_8cpp.html" target="_top" xlink:title=" ">
<polygon fill="white" stroke="black" points="2263,-0.5 2263,-30.5 2370,-30.5 2370,-0.5 2263,-0.5"/>
<text text-anchor="start" x="2271" y="-18.5" font-family="Helvetica,sans-Serif" font-size="10.00">src/libs/vgeometry</text>
<text text-anchor="middle" x="2316.5" y="-7.5" font-family="Helvetica,sans-Serif" font-size="10.00">/vellipticalarc.cpp</text>
</a>
</g>
</g>
<!-- Node24&#45;&gt;Node34 -->
<g id="edge33" class="edge">
<title>Node24&#45;&gt;Node34</title>
<path fill="none" stroke="midnightblue" d="M2301.96,-134.53C2315.26,-125.94 2330.09,-113.59 2337.5,-98 2348.1,-75.7 2335.55,-47.32 2325.8,-30.61"/>
<polygon fill="midnightblue" stroke="midnightblue" points="2299.86,-131.71 2293.11,-139.87 2303.48,-137.7 2299.86,-131.71"/>
</g>
<!-- Node35 -->
<g id="node31" class="node">
<title>Node35</title>
<g id="a_node31"><a xlink:href="../../d1/d76/vspline__p_8h.html" target="_top" xlink:title=" ">
<polygon fill="white" stroke="red" points="1258,-67.5 1258,-97.5 1365,-97.5 1365,-67.5 1258,-67.5"/>
<text text-anchor="start" x="1266" y="-85.5" font-family="Helvetica,sans-Serif" font-size="10.00">src/libs/vgeometry</text>
<text text-anchor="middle" x="1311.5" y="-74.5" font-family="Helvetica,sans-Serif" font-size="10.00">/vspline_p.h</text>
</a>
</g>
</g>
<!-- Node24&#45;&gt;Node35 -->
<g id="edge34" class="edge">
<title>Node24&#45;&gt;Node35</title>
<path fill="none" stroke="midnightblue" d="M2207.28,-138.67C2193.16,-136.89 2178.36,-135.22 2164.5,-134 1814.38,-103.21 1722.74,-145.61 1374.5,-98 1371.5,-97.59 1368.43,-97.1 1365.34,-96.56"/>
<polygon fill="midnightblue" stroke="midnightblue" points="2207.05,-142.17 2217.42,-139.97 2207.95,-135.22 2207.05,-142.17"/>
</g>
<!-- Node37 -->
<g id="node32" class="node">
<title>Node37</title>
<g id="a_node32"><a xlink:href="../../d9/d15/vabstractpiece_8cpp.html" target="_top" xlink:title=" ">
<polygon fill="white" stroke="black" points="1383.5,-73 1383.5,-92 1569.5,-92 1569.5,-73 1383.5,-73"/>
<text text-anchor="middle" x="1476.5" y="-80" font-family="Helvetica,sans-Serif" font-size="10.00">src/libs/vlayout/vabstractpiece.cpp</text>
</a>
</g>
</g>
<!-- Node24&#45;&gt;Node37 -->
<g id="edge35" class="edge">
<title>Node24&#45;&gt;Node37</title>
<path fill="none" stroke="midnightblue" d="M2206.31,-138.72C2192.48,-136.97 2178.04,-135.3 2164.5,-134 1904.76,-109.09 1838.1,-124.38 1578.5,-98 1562.93,-96.42 1546.09,-94.22 1530.66,-92.02"/>
<polygon fill="midnightblue" stroke="midnightblue" points="2205.89,-142.19 2216.25,-140 2206.78,-135.25 2205.89,-142.19"/>
</g>
<!-- Node38 -->
<g id="node33" class="node">
<title>Node38</title>
<g id="a_node33"><a xlink:href="../../d6/d0b/def_8cpp.html" target="_top" xlink:title=" ">
<polygon fill="white" stroke="black" points="1587.5,-73 1587.5,-92 1709.5,-92 1709.5,-73 1587.5,-73"/>
<text text-anchor="middle" x="1648.5" y="-80" font-family="Helvetica,sans-Serif" font-size="10.00">src/libs/vmisc/def.cpp</text>
</a>
</g>
</g>
<!-- Node24&#45;&gt;Node38 -->
<g id="edge38" class="edge">
<title>Node24&#45;&gt;Node38</title>
<path fill="none" stroke="midnightblue" d="M2204.47,-138.69C2191.2,-137.01 2177.44,-135.37 2164.5,-134 1966.73,-113.11 1915.35,-126.22 1718.5,-98 1707.69,-96.45 1696.04,-94.25 1685.4,-92.04"/>
<polygon fill="midnightblue" stroke="midnightblue" points="2204.13,-142.18 2214.5,-139.98 2205.02,-135.23 2204.13,-142.18"/>
</g>
<!-- Node39 -->
<g id="node34" class="node">
<title>Node39</title>
<g id="a_node34"><a xlink:href="../../d0/df6/vabstractapplication_8cpp.html" target="_top" xlink:title=" ">
<polygon fill="white" stroke="black" points="1727.5,-73 1727.5,-92 1933.5,-92 1933.5,-73 1727.5,-73"/>
<text text-anchor="middle" x="1830.5" y="-80" font-family="Helvetica,sans-Serif" font-size="10.00">src/libs/vmisc/vabstractapplication.cpp</text>
</a>
</g>
</g>
<!-- Node24&#45;&gt;Node39 -->
<g id="edge39" class="edge">
<title>Node24&#45;&gt;Node39</title>
<path fill="none" stroke="midnightblue" d="M2206.81,-138.47C2119.66,-125.74 1970.86,-104 1888.91,-92.03"/>
<polygon fill="midnightblue" stroke="midnightblue" points="2206.47,-141.95 2216.87,-139.94 2207.48,-135.03 2206.47,-141.95"/>
</g>
<!-- Node40 -->
<g id="node35" class="node">
<title>Node40</title>
<g id="a_node35"><a xlink:href="../../db/d65/dialogexporttocsv_8cpp.html" target="_top" xlink:title=" ">
<polygon fill="white" stroke="black" points="1952,-67.5 1952,-97.5 2079,-97.5 2079,-67.5 1952,-67.5"/>
<text text-anchor="start" x="1960" y="-85.5" font-family="Helvetica,sans-Serif" font-size="10.00">src/libs/vmisc/dialogs</text>
<text text-anchor="middle" x="2015.5" y="-74.5" font-family="Helvetica,sans-Serif" font-size="10.00">/dialogexporttocsv.cpp</text>
</a>
</g>
</g>
<!-- Node24&#45;&gt;Node40 -->
<g id="edge40" class="edge">
<title>Node24&#45;&gt;Node40</title>
<path fill="none" stroke="midnightblue" d="M2231.41,-137.48C2187.4,-126.47 2119.6,-109.52 2071.74,-97.56"/>
<polygon fill="midnightblue" stroke="midnightblue" points="2230.69,-140.91 2241.24,-139.94 2232.39,-134.11 2230.69,-140.91"/>
</g>
<!-- Node41 -->
<g id="node36" class="node">
<title>Node41</title>
<g id="a_node36"><a xlink:href="../../d4/d4f/pmsystems_8cpp.html" target="_top" xlink:title=" ">
<polygon fill="white" stroke="black" points="2097,-67.5 2097,-97.5 2204,-97.5 2204,-67.5 2097,-67.5"/>
<text text-anchor="start" x="2105" y="-85.5" font-family="Helvetica,sans-Serif" font-size="10.00">src/libs/vpatterndb</text>
<text text-anchor="middle" x="2150.5" y="-74.5" font-family="Helvetica,sans-Serif" font-size="10.00">/pmsystems.cpp</text>
</a>
</g>
</g>
<!-- Node24&#45;&gt;Node41 -->
<g id="edge41" class="edge">
<title>Node24&#45;&gt;Node41</title>
<path fill="none" stroke="midnightblue" d="M2249.91,-135.19C2228.89,-124.26 2199.17,-108.81 2177.71,-97.65"/>
<polygon fill="midnightblue" stroke="midnightblue" points="2248.41,-138.36 2258.9,-139.87 2251.64,-132.15 2248.41,-138.36"/>
</g>
<!-- Node24&#45;&gt;Node42 -->
<g id="edge42" class="edge">
<title>Node24&#45;&gt;Node42</title>
<path fill="none" stroke="midnightblue" d="M2383.14,-145.61C2555.15,-140.3 2902.45,-126.82 3195.5,-98 3211.25,-96.45 3228.3,-94.24 3243.87,-92.01"/>
<polygon fill="midnightblue" stroke="midnightblue" points="2382.96,-142.11 2373.07,-145.91 2383.17,-149.11 2382.96,-142.11"/>
</g>
<!-- Node24&#45;&gt;Node43 -->
<g id="edge43" class="edge">
<title>Node24&#45;&gt;Node43</title>
<path fill="none" stroke="midnightblue" d="M2383.36,-143.83C2568.91,-135.43 2941.08,-116.88 3070.5,-98 3073.61,-97.55 3076.79,-97.02 3080,-96.44"/>
<polygon fill="midnightblue" stroke="midnightblue" points="2383.14,-140.33 2373.31,-144.28 2383.46,-147.33 2383.14,-140.33"/>
</g>
<!-- Node24&#45;&gt;Node44 -->
<g id="edge44" class="edge">
<title>Node24&#45;&gt;Node44</title>
<path fill="none" stroke="midnightblue" d="M2189.75,-139.02C2169.07,-137.05 2147.01,-135.2 2126.5,-134 1732.21,-110.85 741.47,-146.55 349.5,-98 346.49,-97.63 343.42,-97.17 340.33,-96.66"/>
<polygon fill="midnightblue" stroke="midnightblue" points="2189.5,-142.51 2199.79,-140 2190.17,-135.54 2189.5,-142.51"/>
</g>
<!-- Node45 -->
<g id="node40" class="node">
<title>Node45</title>
<g id="a_node40"><a xlink:href="../../df/dba/vpiecenode__p_8h.html" target="_top" xlink:title=" ">
<polygon fill="white" stroke="black" points="2955,-67.5 2955,-97.5 3062,-97.5 3062,-67.5 2955,-67.5"/>
<text text-anchor="start" x="2963" y="-85.5" font-family="Helvetica,sans-Serif" font-size="10.00">src/libs/vpatterndb</text>
<text text-anchor="middle" x="3008.5" y="-74.5" font-family="Helvetica,sans-Serif" font-size="10.00">/vpiecenode_p.h</text>
</a>
</g>
</g>
<!-- Node24&#45;&gt;Node45 -->
<g id="edge45" class="edge">
<title>Node24&#45;&gt;Node45</title>
<path fill="none" stroke="midnightblue" d="M2383.28,-145.38C2516.14,-140.39 2748.52,-127.92 2945.5,-98 2948.61,-97.53 2951.79,-96.99 2954.99,-96.39"/>
<polygon fill="midnightblue" stroke="midnightblue" points="2382.97,-141.89 2373.1,-145.76 2383.23,-148.89 2382.97,-141.89"/>
</g>
<!-- Node47 -->
<g id="node42" class="node">
<title>Node47</title>
<g id="a_node42"><a xlink:href="../../de/d3e/vtranslatevars_8cpp.html" target="_top" xlink:title=" ">
<polygon fill="white" stroke="black" points="2385.5,-67.5 2385.5,-97.5 2495.5,-97.5 2495.5,-67.5 2385.5,-67.5"/>
<text text-anchor="start" x="2393.5" y="-85.5" font-family="Helvetica,sans-Serif" font-size="10.00">src/libs/vpatterndb</text>
<text text-anchor="middle" x="2440.5" y="-74.5" font-family="Helvetica,sans-Serif" font-size="10.00">/vtranslatevars.cpp</text>
</a>
</g>
</g>
<!-- Node24&#45;&gt;Node47 -->
<g id="edge47" class="edge">
<title>Node24&#45;&gt;Node47</title>
<path fill="none" stroke="midnightblue" d="M2306.72,-136.2C2334.68,-125.19 2375.66,-109.04 2404.89,-97.53"/>
<polygon fill="midnightblue" stroke="midnightblue" points="2305.43,-132.95 2297.41,-139.87 2308,-139.46 2305.43,-132.95"/>
</g>
<!-- Node48 -->
<g id="node43" class="node">
<title>Node48</title>
<g id="a_node43"><a xlink:href="../../df/d40/export__format__combobox_8cpp.html" target="_top" xlink:title=" ">
<polygon fill="white" stroke="black" points="2514,-67.5 2514,-97.5 2647,-97.5 2647,-67.5 2514,-67.5"/>
<text text-anchor="start" x="2522" y="-85.5" font-family="Helvetica,sans-Serif" font-size="10.00">src/libs/vwidgets/export</text>
<text text-anchor="middle" x="2580.5" y="-74.5" font-family="Helvetica,sans-Serif" font-size="10.00">_format_combobox.cpp</text>
</a>
</g>
</g>
<!-- Node24&#45;&gt;Node48 -->
<g id="edge48" class="edge">
<title>Node24&#45;&gt;Node48</title>
<path fill="none" stroke="midnightblue" d="M2325.6,-137.82C2377.17,-126.83 2457.79,-109.65 2514.53,-97.56"/>
<polygon fill="midnightblue" stroke="midnightblue" points="2324.74,-134.43 2315.69,-139.94 2326.2,-141.27 2324.74,-134.43"/>
</g>
<!-- Node49 -->
<g id="node44" class="node">
<title>Node49</title>
<g id="a_node44"><a xlink:href="../../d3/d4f/mouse__coordinates_8cpp.html" target="_top" xlink:title=" ">
<polygon fill="white" stroke="black" points="2665.5,-67.5 2665.5,-97.5 2799.5,-97.5 2799.5,-67.5 2665.5,-67.5"/>
<text text-anchor="start" x="2673.5" y="-85.5" font-family="Helvetica,sans-Serif" font-size="10.00">src/libs/vwidgets/mouse</text>
<text text-anchor="middle" x="2732.5" y="-74.5" font-family="Helvetica,sans-Serif" font-size="10.00">_coordinates.cpp</text>
</a>
</g>
</g>
<!-- Node24&#45;&gt;Node49 -->
<g id="edge49" class="edge">
<title>Node24&#45;&gt;Node49</title>
<path fill="none" stroke="midnightblue" d="M2358.65,-138.76C2435.77,-129.42 2553.62,-114.35 2655.5,-98 2658.72,-97.48 2662.02,-96.93 2665.35,-96.37"/>
<polygon fill="midnightblue" stroke="midnightblue" points="2358.03,-135.31 2348.52,-139.98 2358.87,-142.26 2358.03,-135.31"/>
</g>
<!-- Node50 -->
<g id="node45" class="node">
<title>Node50</title>
<g id="a_node45"><a xlink:href="../../d7/d1b/pen__toolbar_8cpp.html" target="_top" xlink:title=" ">
<polygon fill="white" stroke="black" points="2818,-67.5 2818,-97.5 2937,-97.5 2937,-67.5 2818,-67.5"/>
<text text-anchor="start" x="2826" y="-85.5" font-family="Helvetica,sans-Serif" font-size="10.00">src/libs/vwidgets/pen</text>
<text text-anchor="middle" x="2877.5" y="-74.5" font-family="Helvetica,sans-Serif" font-size="10.00">_toolbar.cpp</text>
</a>
</g>
</g>
<!-- Node24&#45;&gt;Node50 -->
<g id="edge50" class="edge">
<title>Node24&#45;&gt;Node50</title>
<path fill="none" stroke="midnightblue" d="M2383.42,-141.86C2491.4,-134.37 2662.06,-120.25 2808.5,-98 2811.53,-97.54 2814.62,-97.03 2817.74,-96.49"/>
<polygon fill="midnightblue" stroke="midnightblue" points="2382.9,-138.38 2373.16,-142.56 2383.38,-145.37 2382.9,-138.38"/>
</g>
<!-- Node33&#45;&gt;Node34 -->
<g id="edge32" class="edge">
<title>Node33&#45;&gt;Node34</title>
<path fill="none" stroke="midnightblue" d="M2289.78,-58.87C2295.71,-49.46 2302.41,-38.83 2307.62,-30.58"/>
<polygon fill="midnightblue" stroke="midnightblue" points="2286.77,-57.07 2284.4,-67.4 2292.69,-60.81 2286.77,-57.07"/>
</g>
<!-- Node45&#45;&gt;Node46 -->
<g id="edge46" class="edge">
<title>Node45&#45;&gt;Node46</title>
<path fill="none" stroke="midnightblue" d="M3039.38,-62.02C3055.4,-51.9 3074.63,-39.77 3089.19,-30.58"/>
<polygon fill="midnightblue" stroke="midnightblue" points="3037.44,-59.1 3030.85,-67.4 3041.17,-65.02 3037.44,-59.1"/>
</g>
</g>
</svg>
