<?xml version="1.0" encoding="UTF-8" standalone="no"?>
<!DOCTYPE svg PUBLIC "-//W3C//DTD SVG 1.1//EN"
 "http://www.w3.org/Graphics/SVG/1.1/DTD/svg11.dtd">
<!-- Generated by graphviz version 2.43.0 (0)
 -->
<!-- Title: VPE::VPropertyModelPrivate Pages: 1 -->
<svg width="276pt" height="566pt"
 viewBox="0.00 0.00 276.00 566.00" xmlns="http://www.w3.org/2000/svg" xmlns:xlink="http://www.w3.org/1999/xlink">
<g id="graph0" class="graph" transform="scale(1 1) rotate(0) translate(4 562)">
<title>VPE::VPropertyModelPrivate</title>
<!-- Node1 -->
<g id="Node000001" class="node">
<title>Node1</title>
<g id="a_Node000001"><a xlink:title=" ">
<polygon fill="#999999" stroke="transparent" points="200.5,-64 52.5,-64 52.5,0 200.5,0 200.5,-64"/>
<text text-anchor="start" x="57.5" y="-52" font-family="Helvetica,sans-Serif" font-size="10.00">VPE::VPropertyModelPrivate</text>
<text text-anchor="start" x="58" y="-37" font-family="Helvetica,sans-Serif" font-size="10.00">+</text>
<text text-anchor="start" x="72.5" y="-37" font-family="Helvetica,sans-Serif" font-size="10.00">HeadlineProperty</text>
<text text-anchor="start" x="58" y="-22" font-family="Helvetica,sans-Serif" font-size="10.00">+</text>
<text text-anchor="start" x="72.5" y="-22" font-family="Helvetica,sans-Serif" font-size="10.00">HeadlineValue</text>
<text text-anchor="start" x="58" y="-7" font-family="Helvetica,sans-Serif" font-size="10.00">+</text>
<text text-anchor="start" x="72.5" y="-7" font-family="Helvetica,sans-Serif" font-size="10.00">VPropertyModelPrivate()</text>
<polygon fill="#666666" stroke="#666666" points="52.5,-47 52.5,-47 200.5,-47 200.5,-47 52.5,-47"/>
<polygon fill="#666666" stroke="#666666" points="52.5,-17 52.5,-17 70.5,-17 70.5,-17 52.5,-17"/>
<polygon fill="#666666" stroke="#666666" points="70.5,-17 70.5,-17 200.5,-17 200.5,-17 70.5,-17"/>
<polygon fill="none" stroke="#666666" points="52.5,0 52.5,-64 200.5,-64 200.5,0 52.5,0"/>
</a>
</g>
</g>
<!-- Node2 -->
<g id="Node000002" class="node">
<title>Node2</title>
<g id="a_Node000002"><a xlink:href="../../d9/d51/classVPE_1_1VPropertySet.html" target="_top" xlink:title="VPropertySet is a simple class for managing a set of properties. If you don&#39;t need all the Model&#45;func...">
<polygon fill="white" stroke="transparent" points="200.5,-355 52.5,-355 52.5,-111 200.5,-111 200.5,-355"/>
<text text-anchor="start" x="82" y="-343" font-family="Helvetica,sans-Serif" font-size="10.00">VPE::VPropertySet</text>
<text text-anchor="start" x="124.5" y="-328" font-family="Helvetica,sans-Serif" font-size="10.00"> </text>
<text text-anchor="start" x="56.5" y="-313" font-family="Helvetica,sans-Serif" font-size="10.00">+</text>
<text text-anchor="start" x="69.5" y="-313" font-family="Helvetica,sans-Serif" font-size="10.00">VPropertySet()</text>
<text text-anchor="start" x="56.5" y="-298" font-family="Helvetica,sans-Serif" font-size="10.00">+</text>
<text text-anchor="start" x="69.5" y="-298" font-family="Helvetica,sans-Serif" font-size="10.00">~VPropertySet()</text>
<text text-anchor="start" x="56.5" y="-283" font-family="Helvetica,sans-Serif" font-size="10.00">+</text>
<text text-anchor="start" x="69.5" y="-283" font-family="Helvetica,sans-Serif" font-size="10.00">addProperty()</text>
<text text-anchor="start" x="56.5" y="-268" font-family="Helvetica,sans-Serif" font-size="10.00">+</text>
<text text-anchor="start" x="69.5" y="-268" font-family="Helvetica,sans-Serif" font-size="10.00">addProperty()</text>
<text text-anchor="start" x="56.5" y="-253" font-family="Helvetica,sans-Serif" font-size="10.00">+</text>
<text text-anchor="start" x="69.5" y="-253" font-family="Helvetica,sans-Serif" font-size="10.00">hasProperty()</text>
<text text-anchor="start" x="56.5" y="-238" font-family="Helvetica,sans-Serif" font-size="10.00">+</text>
<text text-anchor="start" x="69.5" y="-238" font-family="Helvetica,sans-Serif" font-size="10.00">getProperty()</text>
<text text-anchor="start" x="56.5" y="-223" font-family="Helvetica,sans-Serif" font-size="10.00">+</text>
<text text-anchor="start" x="69.5" y="-223" font-family="Helvetica,sans-Serif" font-size="10.00">takeProperty()</text>
<text text-anchor="start" x="56.5" y="-208" font-family="Helvetica,sans-Serif" font-size="10.00">+</text>
<text text-anchor="start" x="69.5" y="-208" font-family="Helvetica,sans-Serif" font-size="10.00">removeProperty()</text>
<text text-anchor="start" x="56.5" y="-193" font-family="Helvetica,sans-Serif" font-size="10.00">+</text>
<text text-anchor="start" x="69.5" y="-193" font-family="Helvetica,sans-Serif" font-size="10.00">removeProperty()</text>
<text text-anchor="start" x="56.5" y="-178" font-family="Helvetica,sans-Serif" font-size="10.00">+</text>
<text text-anchor="start" x="69.5" y="-178" font-family="Helvetica,sans-Serif" font-size="10.00">count()</text>
<text text-anchor="start" x="69.5" y="-163" font-family="Helvetica,sans-Serif" font-size="10.00">and 7 more...</text>
<text text-anchor="start" x="56.5" y="-148" font-family="Helvetica,sans-Serif" font-size="10.00">#</text>
<text text-anchor="start" x="69.5" y="-148" font-family="Helvetica,sans-Serif" font-size="10.00">hasProperty()</text>
<text text-anchor="start" x="56.5" y="-133" font-family="Helvetica,sans-Serif" font-size="10.00">#</text>
<text text-anchor="start" x="69.5" y="-133" font-family="Helvetica,sans-Serif" font-size="10.00">cloneProperty()</text>
<text text-anchor="start" x="56.5" y="-118" font-family="Helvetica,sans-Serif" font-size="10.00">#</text>
<text text-anchor="start" x="69.5" y="-118" font-family="Helvetica,sans-Serif" font-size="10.00">removePropertyFromSet()</text>
<polygon fill="#666666" stroke="#666666" points="52.5,-338 52.5,-338 200.5,-338 200.5,-338 52.5,-338"/>
<polygon fill="#666666" stroke="#666666" points="52.5,-323 52.5,-323 200.5,-323 200.5,-323 52.5,-323"/>
<polygon fill="none" stroke="#666666" points="52.5,-111 52.5,-355 200.5,-355 200.5,-111 52.5,-111"/>
</a>
</g>
</g>
<!-- Node2&#45;&gt;Node1 -->
<g id="edge1_Node000001_Node000002" class="edge">
<title>Node2&#45;&gt;Node1</title>
<g id="a_edge1_Node000001_Node000002"><a xlink:title=" ">
<path fill="none" stroke="#63b8ff" d="M126.5,-110.79C126.5,-98.56 126.5,-86.79 126.5,-76.27"/>
<polygon fill="none" stroke="#63b8ff" points="126.5,-76.11 122.5,-70.11 126.5,-64.11 130.5,-70.11 126.5,-76.11"/>
</a>
</g>
<text text-anchor="middle" x="157" y="-85" font-family="Helvetica,sans-Serif" font-size="10.00" fill="grey"> +Properties</text>
</g>
<!-- Node3 -->
<g id="Node000003" class="node">
<title>Node3</title>
<g id="a_Node000003"><a xlink:href="../../d7/d5d/classVPE_1_1VPropertySetPrivate.html" target="_top" xlink:title=" ">
<polygon fill="white" stroke="transparent" points="193.5,-451 59.5,-451 59.5,-402 193.5,-402 193.5,-451"/>
<text text-anchor="start" x="64.5" y="-438.5" font-family="Helvetica,sans-Serif" font-size="10.00">VPE::VPropertySetPrivate</text>
<text text-anchor="start" x="124.5" y="-423.5" font-family="Helvetica,sans-Serif" font-size="10.00"> </text>
<text text-anchor="start" x="65" y="-408.5" font-family="Helvetica,sans-Serif" font-size="10.00">+</text>
<text text-anchor="start" x="79.5" y="-408.5" font-family="Helvetica,sans-Serif" font-size="10.00">VPropertySetPrivate()</text>
<polygon fill="#666666" stroke="#666666" points="59.5,-433.5 59.5,-433.5 193.5,-433.5 193.5,-433.5 59.5,-433.5"/>
<polygon fill="#666666" stroke="#666666" points="59.5,-418.5 59.5,-418.5 193.5,-418.5 193.5,-418.5 59.5,-418.5"/>
<polygon fill="none" stroke="#666666" points="59.5,-402 59.5,-451 193.5,-451 193.5,-402 59.5,-402"/>
</a>
</g>
</g>
<!-- Node3&#45;&gt;Node2 -->
<g id="edge2_Node000002_Node000003" class="edge">
<title>Node3&#45;&gt;Node2</title>
<g id="a_edge2_Node000002_Node000003"><a xlink:title=" ">
<path fill="none" stroke="#63b8ff" d="M126.5,-401.63C126.5,-392.04 126.5,-380.17 126.5,-367.22"/>
<polygon fill="none" stroke="#63b8ff" points="126.5,-367.06 122.5,-361.06 126.5,-355.06 130.5,-361.06 126.5,-367.06"/>
</a>
</g>
<text text-anchor="middle" x="145" y="-376" font-family="Helvetica,sans-Serif" font-size="10.00" fill="grey"> #d_ptr</text>
</g>
<!-- Node4 -->
<g id="Node000004" class="node">
<title>Node4</title>
<g id="a_Node000004"><a xlink:href="../../d0/d4c/classQMap.html" target="_top" xlink:title=" ">
<polygon fill="white" stroke="transparent" points="111,-558 0,-558 0,-498 111,-498 111,-558"/>
<text text-anchor="start" x="5.5" y="-546" font-family="Helvetica,sans-Serif" font-size="10.00">QMap&lt; QString, VPE</text>
<text text-anchor="start" x="19" y="-535" font-family="Helvetica,sans-Serif" font-size="10.00">::VProperty * &gt;</text>
<text text-anchor="start" x="54" y="-520" font-family="Helvetica,sans-Serif" font-size="10.00"> </text>
<text text-anchor="start" x="54" y="-505" font-family="Helvetica,sans-Serif" font-size="10.00"> </text>
<polygon fill="#666666" stroke="#666666" points="0.5,-530 0.5,-530 111.5,-530 111.5,-530 0.5,-530"/>
<polygon fill="#666666" stroke="#666666" points="0.5,-515 0.5,-515 111.5,-515 111.5,-515 0.5,-515"/>
<polygon fill="none" stroke="#666666" points="0,-498 0,-558 111,-558 111,-498 0,-498"/>
</a>
</g>
</g>
<!-- Node4&#45;&gt;Node3 -->
<g id="edge3_Node000003_Node000004" class="edge">
<title>Node4&#45;&gt;Node3</title>
<g id="a_edge3_Node000003_Node000004"><a xlink:title=" ">
<path fill="none" stroke="#63b8ff" d="M76.23,-497.95C84.46,-486.42 93.98,-473.08 102.51,-461.13"/>
<polygon fill="none" stroke="#63b8ff" points="102.72,-460.83 102.95,-453.62 109.69,-451.06 109.46,-458.27 102.72,-460.83"/>
</a>
</g>
<text text-anchor="middle" x="126" y="-472" font-family="Helvetica,sans-Serif" font-size="10.00" fill="grey"> +Properties</text>
</g>
<!-- Node5 -->
<g id="Node000005" class="node">
<title>Node5</title>
<g id="a_Node000005"><a xlink:href="../../d1/d4a/classQList.html" target="_top" xlink:title=" ">
<polygon fill="white" stroke="transparent" points="268,-552.5 129,-552.5 129,-503.5 268,-503.5 268,-552.5"/>
<text text-anchor="start" x="134.5" y="-540" font-family="Helvetica,sans-Serif" font-size="10.00">QList&lt; VPE::VProperty * &gt;</text>
<text text-anchor="start" x="197" y="-525" font-family="Helvetica,sans-Serif" font-size="10.00"> </text>
<text text-anchor="start" x="197" y="-510" font-family="Helvetica,sans-Serif" font-size="10.00"> </text>
<polygon fill="#666666" stroke="#666666" points="129.5,-535 129.5,-535 268.5,-535 268.5,-535 129.5,-535"/>
<polygon fill="#666666" stroke="#666666" points="129.5,-520 129.5,-520 268.5,-520 268.5,-520 129.5,-520"/>
<polygon fill="none" stroke="#666666" points="129,-503.5 129,-552.5 268,-552.5 268,-503.5 129,-503.5"/>
</a>
</g>
</g>
<!-- Node5&#45;&gt;Node3 -->
<g id="edge4_Node000003_Node000005" class="edge">
<title>Node5&#45;&gt;Node3</title>
<g id="a_edge4_Node000003_Node000005"><a xlink:title=" ">
<path fill="none" stroke="#63b8ff" d="M183.89,-503.47C177.04,-492.77 168.62,-480.06 160.5,-469 158.55,-466.35 156.49,-463.63 154.39,-460.93"/>
<polygon fill="none" stroke="#63b8ff" points="154.2,-460.68 147.33,-458.48 146.72,-451.3 153.59,-453.5 154.2,-460.68"/>
</a>
</g>
<text text-anchor="middle" x="209.5" y="-472" font-family="Helvetica,sans-Serif" font-size="10.00" fill="grey"> +RootProperties</text>
</g>
</g>
</svg>
