999
dxfrw 0.6.3
  0
SECTION
  2
HEADER
  9
$ACADVER
  1
AC1009
  9
$DWGCODEPAGE
  3
ANSI_1252
  9
$INSBASE
 10
0
 20
0
 30
0
  9
$EXTMIN
 10
1e+20
 20
1e+20
 30
1e+20
  9
$EXTMAX
 10
-1e+20
 20
-1e+20
 30
-1e+20
  9
$LIMMIN
 10
0
 20
0
  9
$LIMMAX
 10
420
 20
297
  9
$ORTHOMODE
 70
    0
  9
$REGENMODE
 70
    1
  9
$FILLMODE
 70
    1
  9
$QTEXTMODE
 70
    0
  9
$MIRRTEXT
 70
    0
  9
$LTSCALE
 40
1
  9
$ATTMODE
 70
    0
  9
$TEXTSIZE
 40
2.5
  9
$TRACEWID
 40
15.68
  9
$TEXTSTYLE
  7
STANDARD
  9
$CLAYER
  8
1
  9
$CELTYPE
  6
BYLAYER
  9
$CECOLOR
 62
  256
  9
$DIMSCALE
 40
1
  9
$DIMASZ
 40
2.5
  9
$DIMEXO
 40
0.625
  9
$DIMDLI
 40
3.75
  9
$DIMRND
 40
0
  9
$DIMDLE
 40
0
  9
$DIMEXE
 40
1.25
  9
$DIMTP
 40
0
  9
$DIMTM
 40
0
  9
$DIMTXT
 40
2.5
  9
$DIMCEN
 40
2.5
  9
$DIMTSZ
 40
0
  9
$DIMTOL
 70
    0
  9
$DIMLIM
 70
    0
  9
$DIMTIH
 70
    0
  9
$DIMTOH
 70
    0
  9
$DIMSE1
 70
    0
  9
$DIMSE2
 70
    0
  9
$DIMTAD
 70
    1
  9
$DIMZIN
 70
    8
  9
$DIMBLK
  1

  9
$DIMASO
 70
    1
  9
$DIMSHO
 70
    1
  9
$DIMPOST
  1

  9
$DIMAPOST
  1

  9
$DIMALT
 70
    0
  9
$DIMALTD
 70
    3
  9
$DIMALTF
 40
0.03937
  9
$DIMLFAC
 40
1
  9
$DIMTOFL
 70
    1
  9
$DIMTVP
 40
0
  9
$DIMTIX
 70
    0
  9
$DIMSOXD
 70
    0
  9
$DIMSAH
 70
    0
  9
$DIMBLK1
  1

  9
$DIMBLK2
  1

  9
$DIMSTYLE
  2
STANDARD
  9
$DIMCLRD
 70
    0
  9
$DIMCLRE
 70
    0
  9
$DIMCLRT
 70
    0
  9
$DIMTFAC
 40
1
  9
$DIMGAP
 40
0.625
  9
$LUNITS
 70
    2
  9
$LUPREC
 70
    4
  9
$SKETCHINC
 40
1
  9
$FILLETRAD
 40
0
  9
$AUNITS
 70
    0
  9
$AUPREC
 70
    2
  9
$MENU
  1
.
  9
$ELEVATION
 40
0
  9
$PELEVATION
 40
0
  9
$THICKNESS
 40
0
  9
$LIMCHECK
 70
    0
  9
$BLIPMODE
 70
    0
  9
$CHAMFERA
 40
0
  9
$CHAMFERB
 40
0
  9
$SKPOLY
 70
    0
  9
$USRTIMER
 70
    1
  9
$ANGBASE
 50
0
  9
$ANGDIR
 70
    0
  9
$PDMODE
 70
   34
  9
$PDSIZE
 40
0
  9
$PLINEWID
 40
0
  9
$COORDS
 70
    2
  9
$SPLFRAME
 70
    0
  9
$SPLINETYPE
 70
    2
  9
$SPLINESEGS
 70
    8
  9
$ATTDIA
 70
    1
  9
$ATTREQ
 70
    1
  9
$HANDLING
 70
    1
  9
$HANDSEED
  5
20000
  9
$SURFTAB1
 70
    6
  9
$SURFTAB2
 70
    6
  9
$SURFTYPE
 70
    6
  9
$SURFU
 70
    6
  9
$SURFV
 70
    6
  9
$TDCREATE
 40
20260320.14184581
  9
$UCSNAME
  2

  9
$UCSORG
 10
0
 20
0
 30
0
  9
$UCSXDIR
 10
1
 20
0
 30
0
  9
$UCSYDIR
 10
0
 20
1
 30
0
  9
$PUCSNAME
  2

  9
$PUCSORG
 10
0
 20
0
 30
0
  9
$PUCSXDIR
 10
1
 20
0
 30
0
  9
$PUCSYDIR
 10
0
 20
1
 30
0
  9
$USERI1
 70
    0
  9
$USERI2
 70
    0
  9
$USERI3
 70
    0
  9
$USERI4
 70
    0
  9
$USERI5
 70
    0
  9
$USERR1
 40
0
  9
$USERR2
 40
0
  9
$USERR3
 40
0
  9
$USERR4
 40
0
  9
$USERR5
 40
0
  9
$WORLDVIEW
 70
    1
  9
$SHADEDGE
 70
    3
  9
$SHADEDIF
 70
   70
  9
$TILEMODE
 70
    1
  9
$MAXACTVP
 70
   64
  9
$PLIMCHECK
 70
    0
  9
$PEXTMIN
 10
0
 20
0
 30
0
  9
$PEXTMAX
 10
0
 20
0
 30
0
  9
$PLIMMIN
 10
0
 20
0
  9
$PLIMMAX
 10
297
 20
210
  9
$UNITMODE
 70
    0
  9
$VISRETAIN
 70
    1
  9
$PLINEGEN
 70
    0
  9
$PSLTSCALE
 70
    1
  0
ENDSEC
  0
SECTION
  2
TABLES
  0
TABLE
  2
VPORT
 70
    1
  0
VPORT
  2
*ACTIVE
 70
    0
 10
0
 20
0
 11
1
 21
1
 12
0.651828
 22
-0.16
 13
0
 23
0
 14
10
 24
10
 15
10
 25
10
 16
0
 26
0
 36
1
 17
0
 27
0
 37
0
 40
5.13732
 41
2.4426877
 42
50
 43
0
 44
0
 50
0
 51
0
 71
    0
 72
  100
 73
    1
 74
    3
 75
    0
 76
    0
 77
    0
 78
    0
  0
ENDTAB
  0
TABLE
  2
LTYPE
 70
    4
  0
LTYPE
  2
BYBLOCK
 70
    0
  3

 72
   65
 73
    0
 40
0
  0
LTYPE
  2
BYLAYER
 70
    0
  3

 72
   65
 73
    0
 40
0
  0
LTYPE
  2
CONTINUOUS
 70
    0
  3
Solid line
 72
   65
 73
    0
 40
0
  0
ENDTAB
  0
TABLE
  2
LAYER
 70
    1
  0
LAYER
  2
1
 70
    0
 62
  250
  6
CONTINUOUS
  0
LAYER
  2
8
 70
    0
 62
  250
  6
CONTINUOUS
  0
LAYER
  2
7
 70
    0
 62
  250
  6
CONTINUOUS
  0
LAYER
  2
11
 70
    0
 62
  250
  6
CONTINUOUS
  0
LAYER
  2
4
 70
    0
 62
  250
  6
CONTINUOUS
  0
ENDTAB
  0
TABLE
  2
STYLE
 70
    3
  0
STYLE
  2
STANDARD
 70
    0
 40
0
 41
1
 50
0
 71
    0
 42
2.5
  3
TXT
  4

  0
ENDTAB
  0
TABLE
  2
VIEW
 70
    0
  0
ENDTAB
  0
TABLE
  2
UCS
 70
    0
  0
ENDTAB
  0
TABLE
  2
APPID
 70
    1
  0
APPID
  2
ACAD
 70
    0
  0
APPID
  2
SEAMLY2D
 70
    0
  0
ENDTAB
  0
TABLE
  2
DIMSTYLE
 70
    1
  0
DIMSTYLE
  2
STANDARD
 70
    0
  3

  4

  5

  6

  7

 40
1
 41
2.5
 42
0.625
 43
3.75
 44
1.25
 45
0
 46
0
 47
0
 48
0
140
2.5
141
2.5
142
0
143
0.03937007874015748
144
1
145
0
146
1
147
0.625
 71
    0
 72
    0
 73
    0
 74
    0
 75
    0
 76
    0
 77
    1
 78
    8
170
    0
171
    3
172
    1
173
    0
174
    0
175
    0
176
    0
177
    0
178
    0
  0
ENDTAB
  0
ENDSEC
  0
SECTION
  2
BLOCKS
  0
BLOCK
  8
0
  2
$MODEL_SPACE
 70
    0
 10
0
 20
0
 30
0
  3
$MODEL_SPACE
  1

  0
ENDBLK
  8
0
  0
BLOCK
  8
0
  2
$PAPER_SPACE
 70
    0
 10
0
 20
0
 30
0
  3
$PAPER_SPACE
  1

  0
ENDBLK
  8
0
  0
BLOCK
  8
1
  2
SWEATSHIRT_FRONT
 70
    0
 10
0
 20
0
  3
SWEATSHIRT_FRONT
  1

  0
POLYLINE
  5
31
  8
1
  6
BYLAYER
 62
  256
 66
    1
 10
0
 20
0
 30
0
 70
    1
  0
VERTEX
  5
32
  8
1
  6
BYLAYER
 62
  256
 10
903.0229166666667
 20
1701.99725
 30
0
  0
VERTEX
  5
33
  8
1
  6
BYLAYER
 62
  256
 10
700.4379166666665
 20
1701.99725
 30
0
  0
VERTEX
  5
34
  8
1
  6
BYLAYER
 62
  256
 10
557.5185656790159
 20
1701.99725
 30
0
  0
VERTEX
  5
35
  8
1
  6
BYLAYER
 62
  256
 10
557.4692751405918
 20
1710.460654791865
 30
0
  0
VERTEX
  5
36
  8
1
  6
BYLAYER
 62
  256
 10
557.3663795399141
 20
1713.360436093374
 30
0
  0
VERTEX
  5
37
  8
1
  6
BYLAYER
 62
  256
 10
557.1655269254388
 20
1716.131967760077
 30
0
  0
VERTEX
  5
38
  8
1
  6
BYLAYER
 62
  256
 10
556.8694754733631
 20
1718.797904858213
 30
0
  0
VERTEX
  5
39
  8
1
  6
BYLAYER
 62
  256
 10
556.4816607240864
 20
1721.360743887785
 30
0
  0
VERTEX
  5
3A
  8
1
  6
BYLAYER
 62
  256
 10
556.0054329951673
 20
1723.823206002083
 30
0
  0
VERTEX
  5
3B
  8
1
  6
BYLAYER
 62
  256
 10
555.4440142117581
 20
1726.188234328974
 30
0
  0
VERTEX
  5
3C
  8
1
  6
BYLAYER
 62
  256
 10
554.8004535482447
 20
1728.458979714775
 30
0
  0
VERTEX
  5
3D
  8
1
  6
BYLAYER
 62
  256
 10
554.0775850291097
 20
1730.638773707603
 30
0
  0
VERTEX
  5
3E
  8
1
  6
BYLAYER
 62
  256
 10
553.2779907225796
 20
1732.731088665708
 30
0
  0
VERTEX
  5
3F
  8
1
  6
BYLAYER
 62
  256
 10
552.4039732529925
 20
1734.739486201267
 30
0
  0
VERTEX
  5
40
  8
1
  6
BYLAYER
 62
  256
 10
551.4575409468043
 20
1736.6675565786
 30
0
  0
VERTEX
  5
41
  8
1
  6
BYLAYER
 62
  256
 10
550.4404079859255
 20
1738.518852947302
 30
0
  0
VERTEX
  5
42
  8
1
  6
BYLAYER
 62
  256
 10
549.3540105546796
 20
1740.296825162283
 30
0
  0
VERTEX
  5
43
  8
1
  6
BYLAYER
 62
  256
 10
548.1995383260095
 20
1742.004758231059
 30
0
  0
VERTEX
  5
44
  8
1
  6
BYLAYER
 62
  256
 10
546.977979005535
 20
1743.645720045463
 30
0
  0
VERTEX
  5
45
  8
1
  6
BYLAYER
 62
  256
 10
545.6901723172217
 20
1745.222522048621
 30
0
  0
VERTEX
  5
46
  8
1
  6
BYLAYER
 62
  256
 10
544.3534913075194
 20
1746.719084512069
 30
0
  0
VERTEX
  5
47
  8
1
  6
BYLAYER
 62
  256
 10
542.207409782037
 20
1748.891050006869
 30
0
  0
VERTEX
  5
48
  8
1
  6
BYLAYER
 62
  256
 10
539.0976441814159
 20
1751.592920759765
 30
0
  0
VERTEX
  5
49
  8
1
  6
BYLAYER
 62
  256
 10
535.7599743578335
 20
1754.063644714529
 30
0
  0
VERTEX
  5
4A
  8
1
  6
BYLAYER
 62
  256
 10
532.185422502933
 20
1756.328465745954
 30
0
  0
VERTEX
  5
4B
  8
1
  6
BYLAYER
 62
  256
 10
528.3865039493379
 20
1758.394475613295
 30
0
  0
VERTEX
  5
4C
  8
1
  6
BYLAYER
 62
  256
 10
524.3782165207948
 20
1760.267998570778
 30
0
  0
VERTEX
  5
4D
  8
1
  6
BYLAYER
 62
  256
 10
520.1776291260022
 20
1761.955326273306
 30
0
  0
VERTEX
  5
4E
  8
1
  6
BYLAYER
 62
  256
 10
515.8033850412929
 20
1763.463177093211
 30
0
  0
VERTEX
  5
4F
  8
1
  6
BYLAYER
 62
  256
 10
511.2752297514257
 20
1764.798931130197
 30
0
  0
VERTEX
  5
50
  8
1
  6
BYLAYER
 62
  256
 10
506.6136161266447
 20
1765.970708936067
 30
0
  0
VERTEX
  5
51
  8
1
  6
BYLAYER
 62
  256
 10
501.8394007109025
 20
1766.987354831163
 30
0
  0
VERTEX
  5
52
  8
1
  6
BYLAYER
 62
  256
 10
496.9736237784697
 20
1767.858370072016
 30
0
  0
VERTEX
  5
53
  8
1
  6
BYLAYER
 62
  256
 10
492.0373572970101
 20
1768.593825586073
 30
0
  0
VERTEX
  5
54
  8
1
  6
BYLAYER
 62
  256
 10
487.0516035728538
 20
1769.20427182722
 30
0
  0
VERTEX
  5
55
  8
1
  6
BYLAYER
 62
  256
 10
482.0483704780924
 20
1769.699552089338
 30
0
  0
VERTEX
  5
56
  8
1
  6
BYLAYER
 62
  256
 10
474.5071418025475
 20
1770.266281966869
 30
0
  0
VERTEX
  5
57
  8
1
  6
BYLAYER
 62
  256
 10
464.5540840319113
 20
1770.711835729056
 30
0
  0
VERTEX
  5
58
  8
1
  6
BYLAYER
 62
  256
 10
450.0468011919838
 20
1770.961694650783
 30
0
  0
VERTEX
  5
59
  8
1
  6
BYLAYER
 62
  256
 10
441.1508654687062
 20
1770.961694650783
 30
0
  0
VERTEX
  5
5A
  8
1
  6
BYLAYER
 62
  256
 10
437.5595998236991
 20
1770.938147185024
 30
0
  0
VERTEX
  5
5B
  8
1
  6
BYLAYER
 62
  256
 10
430.0545329863716
 20
1770.666449804592
 30
0
  0
VERTEX
  5
5C
  8
1
  6
BYLAYER
 62
  256
 10
422.2654063212796
 20
1770.147431627202
 30
0
  0
VERTEX
  5
5D
  8
1
  6
BYLAYER
 62
  256
 10
414.2488763571039
 20
1769.404587795623
 30
0
  0
VERTEX
  5
5E
  8
1
  6
BYLAYER
 62
  256
 10
406.0824578087106
 20
1768.463163704513
 30
0
  0
VERTEX
  5
5F
  8
1
  6
BYLAYER
 62
  256
 10
397.8422132717121
 20
1767.348945965532
 30
0
  0
VERTEX
  5
60
  8
1
  6
BYLAYER
 62
  256
 10
389.6031899262263
 20
1766.088050869127
 30
0
  0
VERTEX
  5
61
  8
1
  6
BYLAYER
 62
  256
 10
381.4397309143652
 20
1764.706805638148
 30
0
  0
VERTEX
  5
62
  8
1
  6
BYLAYER
 62
  256
 10
373.4257085135204
 20
1763.231683945764
 30
0
  0
VERTEX
  5
63
  8
1
  6
BYLAYER
 62
  256
 10
365.6418965560918
 20
1761.690698179652
 30
0
  0
VERTEX
  5
64
  8
1
  6
BYLAYER
 62
  256
 10
354.4832737618713
 20
1759.309370381486
 30
0
  0
VERTEX
  5
65
  8
1
  6
BYLAYER
 62
  256
 10
341.1187926485866
 20
1756.141626268294
 30
0
  0
VERTEX
  5
66
  8
1
  6
BYLAYER
 62
  256
 10
329.9713032507142
 20
1753.189682080367
 30
0
  0
VERTEX
  5
67
  8
1
  6
BYLAYER
 62
  256
 10
318.8601862468809
 20
1749.919219802555
 30
0
  0
VERTEX
  5
68
  8
1
  6
BYLAYER
 62
  256
 10
266.2588038212224
 20
1924.297764938182
 30
0
  0
VERTEX
  5
69
  8
1
  6
BYLAYER
 62
  256
 10
275.9664622638596
 20
1927.264679597692
 30
0
  0
VERTEX
  5
6A
  8
1
  6
BYLAYER
 62
  256
 10
281.8479303850203
 20
1929.182874582557
 30
0
  0
VERTEX
  5
6B
  8
1
  6
BYLAYER
 62
  256
 10
287.4974707184822
 20
1931.17312948159
 30
0
  0
VERTEX
  5
6C
  8
1
  6
BYLAYER
 62
  256
 10
292.9283468417078
 20
1933.238238765375
 30
0
  0
VERTEX
  5
6D
  8
1
  6
BYLAYER
 62
  256
 10
298.1417634145225
 20
1935.376988522886
 30
0
  0
VERTEX
  5
6E
  8
1
  6
BYLAYER
 62
  256
 10
303.1389947690736
 20
1937.588109017896
 30
0
  0
VERTEX
  5
6F
  8
1
  6
BYLAYER
 62
  256
 10
307.9214016703201
 20
1939.870279020296
 30
0
  0
VERTEX
  5
70
  8
1
  6
BYLAYER
 62
  256
 10
312.4904499073737
 20
1942.222133508766
 30
0
  0
VERTEX
  5
71
  8
1
  6
BYLAYER
 62
  256
 10
316.8477303098905
 20
1944.642275580447
 30
0
  0
VERTEX
  5
72
  8
1
  6
BYLAYER
 62
  256
 10
320.9949794863122
 20
1947.129293423328
 30
0
  0
VERTEX
  5
73
  8
1
  6
BYLAYER
 62
  256
 10
324.9341002136966
 20
1949.681783138932
 30
0
  0
VERTEX
  5
74
  8
1
  6
BYLAYER
 62
  256
 10
328.6671799881327
 20
1952.298378005779
 30
0
  0
VERTEX
  5
75
  8
1
  6
BYLAYER
 62
  256
 10
332.1965058069409
 20
1954.977784406131
 30
0
  0
VERTEX
  5
76
  8
1
  6
BYLAYER
 62
  256
 10
335.5245728620004
 20
1957.718824066232
 30
0
  0
VERTEX
  5
77
  8
1
  6
BYLAYER
 62
  256
 10
338.6540845687828
 20
1960.520481473384
 30
0
  0
VERTEX
  5
78
  8
1
  6
BYLAYER
 62
  256
 10
341.5879413516902
 20
1963.381954362014
 30
0
  0
VERTEX
  5
79
  8
1
  6
BYLAYER
 62
  256
 10
344.3292159723355
 20
1966.302704094272
 30
0
  0
VERTEX
  5
7A
  8
1
  6
BYLAYER
 62
  256
 10
346.8811140181026
 20
1969.282501755704
 30
0
  0
VERTEX
  5
7B
  8
1
  6
BYLAYER
 62
  256
 10
349.2469194931224
 20
1972.321465060803
 30
0
  0
VERTEX
  5
7C
  8
1
  6
BYLAYER
 62
  256
 10
351.4299271956224
 20
1975.420080962813
 30
0
  0
VERTEX
  5
7D
  8
1
  6
BYLAYER
 62
  256
 10
353.4333655155897
 20
1978.579209401138
 30
0
  0
VERTEX
  5
7E
  8
1
  6
BYLAYER
 62
  256
 10
355.2603151140024
 20
1981.800065003991
 30
0
  0
VERTEX
  5
7F
  8
1
  6
BYLAYER
 62
  256
 10
356.913630253843
 20
1985.084175721418
 30
0
  0
VERTEX
  5
80
  8
1
  6
BYLAYER
 62
  256
 10
358.3958699833769
 20
1988.433320014369
 30
0
  0
VERTEX
  5
81
  8
1
  6
BYLAYER
 62
  256
 10
359.7092457138626
 20
1991.849446915429
 30
0
  0
VERTEX
  5
82
  8
1
  6
BYLAYER
 62
  256
 10
360.8555900151255
 20
1995.334585482298
 30
0
  0
VERTEX
  5
83
  8
1
  6
BYLAYER
 62
  256
 10
361.8363489578605
 20
1998.890751434942
 30
0
  0
VERTEX
  5
84
  8
1
  6
BYLAYER
 62
  256
 10
362.6525975356575
 20
2002.5198588558
 30
0
  0
VERTEX
  5
85
  8
1
  6
BYLAYER
 62
  256
 10
363.3050751355025
 20
2006.223643768246
 30
0
  0
VERTEX
  5
86
  8
1
  6
BYLAYER
 62
  256
 10
363.7942361374625
 20
2010.003604474384
 30
0
  0
VERTEX
  5
87
  8
1
  6
BYLAYER
 62
  256
 10
364.1203097607275
 20
2013.860961168912
 30
0
  0
VERTEX
  5
88
  8
1
  6
BYLAYER
 62
  256
 10
364.2843471188924
 20
2017.820382937202
 30
0
  0
VERTEX
  5
89
  8
1
  6
BYLAYER
 62
  256
 10
364.2977553713649
 20
2019.7955
 30
0
  0
VERTEX
  5
8A
  8
1
  6
BYLAYER
 62
  256
 10
364.2843471188924
 20
2021.770617062798
 30
0
  0
VERTEX
  5
8B
  8
1
  6
BYLAYER
 62
  256
 10
364.1203097607275
 20
2025.730038831087
 30
0
  0
VERTEX
  5
8C
  8
1
  6
BYLAYER
 62
  256
 10
363.7942361374625
 20
2029.587395525616
 30
0
  0
VERTEX
  5
8D
  8
1
  6
BYLAYER
 62
  256
 10
363.3050751355026
 20
2033.367356231754
 30
0
  0
VERTEX
  5
8E
  8
1
  6
BYLAYER
 62
  256
 10
362.6525975356575
 20
2037.071141144199
 30
0
  0
VERTEX
  5
8F
  8
1
  6
BYLAYER
 62
  256
 10
361.8363489578605
 20
2040.700248565058
 30
0
  0
VERTEX
  5
90
  8
1
  6
BYLAYER
 62
  256
 10
360.8555900151255
 20
2044.256414517701
 30
0
  0
VERTEX
  5
91
  8
1
  6
BYLAYER
 62
  256
 10
359.7092457138626
 20
2047.741553084571
 30
0
  0
VERTEX
  5
92
  8
1
  6
BYLAYER
 62
  256
 10
358.3958699833769
 20
2051.15767998563
 30
0
  0
VERTEX
  5
93
  8
1
  6
BYLAYER
 62
  256
 10
356.9136302538429
 20
2054.506824278581
 30
0
  0
VERTEX
  5
94
  8
1
  6
BYLAYER
 62
  256
 10
355.2603151140025
 20
2057.790934996009
 30
0
  0
VERTEX
  5
95
  8
1
  6
BYLAYER
 62
  256
 10
353.4333655155897
 20
2061.011790598861
 30
0
  0
VERTEX
  5
96
  8
1
  6
BYLAYER
 62
  256
 10
351.4299271956224
 20
2064.170919037186
 30
0
  0
VERTEX
  5
97
  8
1
  6
BYLAYER
 62
  256
 10
349.2469194931224
 20
2067.269534939197
 30
0
  0
VERTEX
  5
98
  8
1
  6
BYLAYER
 62
  256
 10
346.8811140181024
 20
2070.308498244296
 30
0
  0
VERTEX
  5
99
  8
1
  6
BYLAYER
 62
  256
 10
344.3292159723357
 20
2073.288295905727
 30
0
  0
VERTEX
  5
9A
  8
1
  6
BYLAYER
 62
  256
 10
341.5879413516902
 20
2076.209045637985
 30
0
  0
VERTEX
  5
9B
  8
1
  6
BYLAYER
 62
  256
 10
338.6540845687829
 20
2079.070518526615
 30
0
  0
VERTEX
  5
9C
  8
1
  6
BYLAYER
 62
  256
 10
335.5245728620004
 20
2081.872175933768
 30
0
  0
VERTEX
  5
9D
  8
1
  6
BYLAYER
 62
  256
 10
332.196505806941
 20
2084.613215593868
 30
0
  0
VERTEX
  5
9E
  8
1
  6
BYLAYER
 62
  256
 10
328.6671799881325
 20
2087.292621994221
 30
0
  0
VERTEX
  5
9F
  8
1
  6
BYLAYER
 62
  256
 10
324.9341002136964
 20
2089.909216861068
 30
0
  0
VERTEX
  5
A0
  8
1
  6
BYLAYER
 62
  256
 10
320.9949794863124
 20
2092.461706576671
 30
0
  0
VERTEX
  5
A1
  8
1
  6
BYLAYER
 62
  256
 10
316.8477303098905
 20
2094.948724419552
 30
0
  0
VERTEX
  5
A2
  8
1
  6
BYLAYER
 62
  256
 10
312.4904499073738
 20
2097.368866491234
 30
0
  0
VERTEX
  5
A3
  8
1
  6
BYLAYER
 62
  256
 10
307.9214016703199
 20
2099.720720979703
 30
0
  0
VERTEX
  5
A4
  8
1
  6
BYLAYER
 62
  256
 10
303.1389947690735
 20
2102.002890982103
 30
0
  0
VERTEX
  5
A5
  8
1
  6
BYLAYER
 62
  256
 10
298.1417634145224
 20
2104.214011477113
 30
0
  0
VERTEX
  5
A6
  8
1
  6
BYLAYER
 62
  256
 10
292.9283468417079
 20
2106.352761234625
 30
0
  0
VERTEX
  5
A7
  8
1
  6
BYLAYER
 62
  256
 10
287.4974707184822
 20
2108.41787051841
 30
0
  0
VERTEX
  5
A8
  8
1
  6
BYLAYER
 62
  256
 10
281.8479303850207
 20
2110.408125417442
 30
0
  0
VERTEX
  5
A9
  8
1
  6
BYLAYER
 62
  256
 10
275.9664622638596
 20
2112.326320402308
 30
0
  0
VERTEX
  5
AA
  8
1
  6
BYLAYER
 62
  256
 10
266.2588038212224
 20
2115.293235061818
 30
0
  0
VERTEX
  5
AB
  8
1
  6
BYLAYER
 62
  256
 10
318.8601862468809
 20
2289.671780197445
 30
0
  0
VERTEX
  5
AC
  8
1
  6
BYLAYER
 62
  256
 10
329.9713032507132
 20
2286.401317919632
 30
0
  0
VERTEX
  5
AD
  8
1
  6
BYLAYER
 62
  256
 10
341.1187926485876
 20
2283.449373731704
 30
0
  0
VERTEX
  5
AE
  8
1
  6
BYLAYER
 62
  256
 10
354.4832737618713
 20
2280.281629618513
 30
0
  0
VERTEX
  5
AF
  8
1
  6
BYLAYER
 62
  256
 10
365.6418965560918
 20
2277.900301820348
 30
0
  0
VERTEX
  5
B0
  8
1
  6
BYLAYER
 62
  256
 10
373.4257085135204
 20
2276.359316054235
 30
0
  0
VERTEX
  5
B1
  8
1
  6
BYLAYER
 62
  256
 10
381.4397309143652
 20
2274.884194361851
 30
0
  0
VERTEX
  5
B2
  8
1
  6
BYLAYER
 62
  256
 10
389.6031899262263
 20
2273.502949130872
 30
0
  0
VERTEX
  5
B3
  8
1
  6
BYLAYER
 62
  256
 10
397.8422132717121
 20
2272.242054034467
 30
0
  0
VERTEX
  5
B4
  8
1
  6
BYLAYER
 62
  256
 10
406.0824578087106
 20
2271.127836295486
 30
0
  0
VERTEX
  5
B5
  8
1
  6
BYLAYER
 62
  256
 10
414.2488763571039
 20
2270.186412204376
 30
0
  0
VERTEX
  5
B6
  8
1
  6
BYLAYER
 62
  256
 10
422.2654063212796
 20
2269.443568372798
 30
0
  0
VERTEX
  5
B7
  8
1
  6
BYLAYER
 62
  256
 10
430.0545329863716
 20
2268.924550195407
 30
0
  0
VERTEX
  5
B8
  8
1
  6
BYLAYER
 62
  256
 10
437.5595998236991
 20
2268.652852814975
 30
0
  0
VERTEX
  5
B9
  8
1
  6
BYLAYER
 62
  256
 10
441.1508654687062
 20
2268.629305349216
 30
0
  0
VERTEX
  5
BA
  8
1
  6
BYLAYER
 62
  256
 10
450.0468011919838
 20
2268.629305349216
 30
0
  0
VERTEX
  5
BB
  8
1
  6
BYLAYER
 62
  256
 10
464.5540840319113
 20
2268.879164270944
 30
0
  0
VERTEX
  5
BC
  8
1
  6
BYLAYER
 62
  256
 10
474.5071418025475
 20
2269.32471803313
 30
0
  0
VERTEX
  5
BD
  8
1
  6
BYLAYER
 62
  256
 10
482.0483704780924
 20
2269.891447910662
 30
0
  0
VERTEX
  5
BE
  8
1
  6
BYLAYER
 62
  256
 10
487.0516035728538
 20
2270.38672817278
 30
0
  0
VERTEX
  5
BF
  8
1
  6
BYLAYER
 62
  256
 10
492.0373572970101
 20
2270.997174413927
 30
0
  0
VERTEX
  5
C0
  8
1
  6
BYLAYER
 62
  256
 10
496.9736237784697
 20
2271.732629927984
 30
0
  0
VERTEX
  5
C1
  8
1
  6
BYLAYER
 62
  256
 10
501.8394007109025
 20
2272.603645168836
 30
0
  0
VERTEX
  5
C2
  8
1
  6
BYLAYER
 62
  256
 10
506.6136161266447
 20
2273.620291063932
 30
0
  0
VERTEX
  5
C3
  8
1
  6
BYLAYER
 62
  256
 10
511.2752297514257
 20
2274.792068869802
 30
0
  0
VERTEX
  5
C4
  8
1
  6
BYLAYER
 62
  256
 10
515.8033850412929
 20
2276.127822906789
 30
0
  0
VERTEX
  5
C5
  8
1
  6
BYLAYER
 62
  256
 10
520.1776291260022
 20
2277.635673726693
 30
0
  0
VERTEX
  5
C6
  8
1
  6
BYLAYER
 62
  256
 10
524.3782165207948
 20
2279.323001429222
 30
0
  0
VERTEX
  5
C7
  8
1
  6
BYLAYER
 62
  256
 10
528.3865039493379
 20
2281.196524386705
 30
0
  0
VERTEX
  5
C8
  8
1
  6
BYLAYER
 62
  256
 10
532.1854225029326
 20
2283.262534254046
 30
0
  0
VERTEX
  5
C9
  8
1
  6
BYLAYER
 62
  256
 10
535.7599743578332
 20
2285.527355285471
 30
0
  0
VERTEX
  5
CA
  8
1
  6
BYLAYER
 62
  256
 10
539.0976441814161
 20
2287.998079240235
 30
0
  0
VERTEX
  5
CB
  8
1
  6
BYLAYER
 62
  256
 10
542.207409782037
 20
2290.69994999313
 30
0
  0
VERTEX
  5
CC
  8
1
  6
BYLAYER
 62
  256
 10
544.3534913075192
 20
2292.871915487931
 30
0
  0
VERTEX
  5
CD
  8
1
  6
BYLAYER
 62
  256
 10
545.6901723172223
 20
2294.36847795138
 30
0
  0
VERTEX
  5
CE
  8
1
  6
BYLAYER
 62
  256
 10
546.9779790055348
 20
2295.945279954536
 30
0
  0
VERTEX
  5
CF
  8
1
  6
BYLAYER
 62
  256
 10
548.1995383260095
 20
2297.58624176894
 30
0
  0
VERTEX
  5
D0
  8
1
  6
BYLAYER
 62
  256
 10
549.3540105546797
 20
2299.294174837717
 30
0
  0
VERTEX
  5
D1
  8
1
  6
BYLAYER
 62
  256
 10
550.4404079859255
 20
2301.072147052698
 30
0
  0
VERTEX
  5
D2
  8
1
  6
BYLAYER
 62
  256
 10
551.4575409468043
 20
2302.9234434214
 30
0
  0
VERTEX
  5
D3
  8
1
  6
BYLAYER
 62
  256
 10
552.4039732529925
 20
2304.851513798732
 30
0
  0
VERTEX
  5
D4
  8
1
  6
BYLAYER
 62
  256
 10
553.2779907225796
 20
2306.859911334292
 30
0
  0
VERTEX
  5
D5
  8
1
  6
BYLAYER
 62
  256
 10
554.0775850291097
 20
2308.952226292396
 30
0
  0
VERTEX
  5
D6
  8
1
  6
BYLAYER
 62
  256
 10
554.8004535482447
 20
2311.132020285225
 30
0
  0
VERTEX
  5
D7
  8
1
  6
BYLAYER
 62
  256
 10
555.4440142117581
 20
2313.402765671025
 30
0
  0
VERTEX
  5
D8
  8
1
  6
BYLAYER
 62
  256
 10
556.0054329951673
 20
2315.767793997916
 30
0
  0
VERTEX
  5
D9
  8
1
  6
BYLAYER
 62
  256
 10
556.4816607240864
 20
2318.230256112215
 30
0
  0
VERTEX
  5
DA
  8
1
  6
BYLAYER
 62
  256
 10
556.8694754733631
 20
2320.793095141786
 30
0
  0
VERTEX
  5
DB
  8
1
  6
BYLAYER
 62
  256
 10
557.1655269254388
 20
2323.459032239923
 30
0
  0
VERTEX
  5
DC
  8
1
  6
BYLAYER
 62
  256
 10
557.3663795399141
 20
2326.230563906626
 30
0
  0
VERTEX
  5
DD
  8
1
  6
BYLAYER
 62
  256
 10
557.4692751405918
 20
2329.130345208135
 30
0
  0
VERTEX
  5
DE
  8
1
  6
BYLAYER
 62
  256
 10
557.5185656790159
 20
2337.59375
 30
0
  0
VERTEX
  5
DF
  8
1
  6
BYLAYER
 62
  256
 10
700.4379166666665
 20
2337.59375
 30
0
  0
VERTEX
  5
E0
  8
1
  6
BYLAYER
 62
  256
 10
903.0229166666667
 20
2337.59375
 30
0
  0
VERTEX
  5
E1
  8
1
  6
BYLAYER
 62
  256
 10
903.0229166666667
 20
1701.99725
 30
0
  0
SEQEND
  5
E2
  8
1
  6
BYLAYER
 62
  256
  0
POLYLINE
  5
E3
  8
8
  6
BYLAYER
 62
  256
 66
    1
 10
0
 20
0
 30
0
 70
    1
  0
VERTEX
  5
E4
  8
8
  6
BYLAYER
 62
  256
 10
896.0229166666667
 20
1708.99725
 30
0
  0
VERTEX
  5
E5
  8
8
  6
BYLAYER
 62
  256
 10
700.4379166666665
 20
1708.99725
 30
0
  0
VERTEX
  5
E6
  8
8
  6
BYLAYER
 62
  256
 10
564.4779166666667
 20
1708.99725
 30
0
  0
VERTEX
  5
E7
  8
8
  6
BYLAYER
 62
  256
 10
564.4685521122832
 20
1710.605185660193
 30
0
  0
VERTEX
  5
E8
  8
8
  6
BYLAYER
 62
  256
 10
564.3573996118794
 20
1713.737661102914
 30
0
  0
VERTEX
  5
E9
  8
8
  6
BYLAYER
 62
  256
 10
564.1375389154659
 20
1716.771482116223
 30
0
  0
VERTEX
  5
EA
  8
8
  6
BYLAYER
 62
  256
 10
563.8114143274374
 20
1719.70822717099
 30
0
  0
VERTEX
  5
EB
  8
8
  6
BYLAYER
 62
  256
 10
563.3814701521882
 20
1722.549474738084
 30
0
  0
VERTEX
  5
EC
  8
8
  6
BYLAYER
 62
  256
 10
562.8501506941126
 20
1725.296803288378
 30
0
  0
VERTEX
  5
ED
  8
8
  6
BYLAYER
 62
  256
 10
562.2199002576051
 20
1727.951791292741
 30
0
  0
VERTEX
  5
EE
  8
8
  6
BYLAYER
 62
  256
 10
561.4931631470599
 20
1730.516017222044
 30
0
  0
VERTEX
  5
EF
  8
8
  6
BYLAYER
 62
  256
 10
560.6723836668716
 20
1732.991059547157
 30
0
  0
VERTEX
  5
F0
  8
8
  6
BYLAYER
 62
  256
 10
559.7600061214345
 20
1735.378496738952
 30
0
  0
VERTEX
  5
F1
  8
8
  6
BYLAYER
 62
  256
 10
558.7584748151431
 20
1737.679907268299
 30
0
  0
VERTEX
  5
F2
  8
8
  6
BYLAYER
 62
  256
 10
557.6702340523915
 20
1739.896869606068
 30
0
  0
VERTEX
  5
F3
  8
8
  6
BYLAYER
 62
  256
 10
556.4977281375743
 20
1742.03096222313
 30
0
  0
VERTEX
  5
F4
  8
8
  6
BYLAYER
 62
  256
 10
555.2434013750859
 20
1744.083763590356
 30
0
  0
VERTEX
  5
F5
  8
8
  6
BYLAYER
 62
  256
 10
553.9096980693206
 20
1746.056852178616
 30
0
  0
VERTEX
  5
F6
  8
8
  6
BYLAYER
 62
  256
 10
552.4990625246729
 20
1747.951806458781
 30
0
  0
VERTEX
  5
F7
  8
8
  6
BYLAYER
 62
  256
 10
551.0139390455371
 20
1749.770204901722
 30
0
  0
VERTEX
  5
F8
  8
8
  6
BYLAYER
 62
  256
 10
549.4567719363075
 20
1751.513625978308
 30
0
  0
VERTEX
  5
F9
  8
8
  6
BYLAYER
 62
  256
 10
546.9995279905387
 20
1754.000506834952
 30
0
  0
VERTEX
  5
FA
  8
8
  6
BYLAYER
 62
  256
 10
543.48226364425
 20
1757.056426440449
 30
0
  0
VERTEX
  5
FB
  8
8
  6
BYLAYER
 62
  256
 10
539.7208222566856
 20
1759.840849056202
 30
0
  0
VERTEX
  5
FC
  8
8
  6
BYLAYER
 62
  256
 10
535.7347582630002
 20
1762.366402449175
 30
0
  0
VERTEX
  5
FD
  8
8
  6
BYLAYER
 62
  256
 10
531.5436260983494
 20
1764.645714386333
 30
0
  0
VERTEX
  5
FE
  8
8
  6
BYLAYER
 62
  256
 10
527.1669801978878
 20
1766.691412634641
 30
0
  0
VERTEX
  5
FF
  8
8
  6
BYLAYER
 62
  256
 10
522.6243749967708
 20
1768.516124961064
 30
0
  0
VERTEX
  5
100
  8
8
  6
BYLAYER
 62
  256
 10
517.9353649301536
 20
1770.132479132567
 30
0
  0
VERTEX
  5
101
  8
8
  6
BYLAYER
 62
  256
 10
513.119504433191
 20
1771.553102916114
 30
0
  0
VERTEX
  5
102
  8
8
  6
BYLAYER
 62
  256
 10
508.1963479410381
 20
1772.790624078671
 30
0
  0
VERTEX
  5
103
  8
8
  6
BYLAYER
 62
  256
 10
503.1854498888501
 20
1773.857670387202
 30
0
  0
VERTEX
  5
104
  8
8
  6
BYLAYER
 62
  256
 10
498.1063647117823
 20
1774.766869608672
 30
0
  0
VERTEX
  5
105
  8
8
  6
BYLAYER
 62
  256
 10
492.9786468449894
 20
1775.530849510046
 30
0
  0
VERTEX
  5
106
  8
8
  6
BYLAYER
 62
  256
 10
487.8218507236268
 20
1776.16223785829
 30
0
  0
VERTEX
  5
107
  8
8
  6
BYLAYER
 62
  256
 10
482.6555307828494
 20
1776.673662420367
 30
0
  0
VERTEX
  5
108
  8
8
  6
BYLAYER
 62
  256
 10
474.9260487536233
 20
1777.254539700751
 30
0
  0
VERTEX
  5
109
  8
8
  6
BYLAYER
 62
  256
 10
464.7709191774414
 20
1777.709139311486
 30
0
  0
VERTEX
  5
10A
  8
8
  6
BYLAYER
 62
  256
 10
450.107077219806
 20
1777.961694650783
 30
0
  0
VERTEX
  5
10B
  8
8
  6
BYLAYER
 62
  256
 10
441.1279166666666
 20
1777.961694650783
 30
0
  0
VERTEX
  5
10C
  8
8
  6
BYLAYER
 62
  256
 10
437.409994873332
 20
1777.937316716992
 30
0
  0
VERTEX
  5
10D
  8
8
  6
BYLAYER
 62
  256
 10
429.6951248187281
 20
1777.658024069818
 30
0
  0
VERTEX
  5
10E
  8
8
  6
BYLAYER
 62
  256
 10
421.7096710078716
 20
1777.125923892128
 30
0
  0
VERTEX
  5
10F
  8
8
  6
BYLAYER
 62
  256
 10
413.5250201132837
 20
1776.367501300578
 30
0
  0
VERTEX
  5
110
  8
8
  6
BYLAYER
 62
  256
 10
405.2125588074852
 20
1775.409241411824
 30
0
  0
VERTEX
  5
111
  8
8
  6
BYLAYER
 62
  256
 10
396.843673762997
 20
1774.277629342524
 30
0
  0
VERTEX
  5
112
  8
8
  6
BYLAYER
 62
  256
 10
388.4897516523405
 20
1772.999150209332
 30
0
  0
VERTEX
  5
113
  8
8
  6
BYLAYER
 62
  256
 10
380.2221791480364
 20
1771.600289128907
 30
0
  0
VERTEX
  5
114
  8
8
  6
BYLAYER
 62
  256
 10
372.112342922606
 20
1770.107531217904
 30
0
  0
VERTEX
  5
115
  8
8
  6
BYLAYER
 62
  256
 10
364.2316296485702
 20
1768.54736159298
 30
0
  0
VERTEX
  5
116
  8
8
  6
BYLAYER
 62
  256
 10
352.9453749134339
 20
1766.138796249963
 30
0
  0
VERTEX
  5
117
  8
8
  6
BYLAYER
 62
  256
 10
339.415326143982
 20
1762.931808116467
 30
0
  0
VERTEX
  5
118
  8
8
  6
BYLAYER
 62
  256
 10
328.0867292854871
 20
1759.931905227106
 30
0
  0
VERTEX
  5
119
  8
8
  6
BYLAYER
 62
  256
 10
323.5538625033681
 20
1758.597694650783
 30
0
  0
VERTEX
  5
11A
  8
8
  6
BYLAYER
 62
  256
 10
274.9747714467796
 20
1919.641964436493
 30
0
  0
VERTEX
  5
11B
  8
8
  6
BYLAYER
 62
  256
 10
278.0748650563793
 20
1920.589434233718
 30
0
  0
VERTEX
  5
11C
  8
8
  6
BYLAYER
 62
  256
 10
284.0964250749988
 20
1922.553319098999
 30
0
  0
VERTEX
  5
11D
  8
8
  6
BYLAYER
 62
  256
 10
289.9047706851372
 20
1924.59951889996
 30
0
  0
VERTEX
  5
11E
  8
8
  6
BYLAYER
 62
  256
 10
295.5011665892553
 20
1926.727567648468
 30
0
  0
VERTEX
  5
11F
  8
8
  6
BYLAYER
 62
  256
 10
300.886877489814
 20
1928.936999356393
 30
0
  0
VERTEX
  5
120
  8
8
  6
BYLAYER
 62
  256
 10
306.063168089274
 20
1931.227348035601
 30
0
  0
VERTEX
  5
121
  8
8
  6
BYLAYER
 62
  256
 10
311.0313030900964
 20
1933.598147697962
 30
0
  0
VERTEX
  5
122
  8
8
  6
BYLAYER
 62
  256
 10
315.7925471947419
 20
1936.048932355344
 30
0
  0
VERTEX
  5
123
  8
8
  6
BYLAYER
 62
  256
 10
320.3481651056713
 20
1938.579236019616
 30
0
  0
VERTEX
  5
124
  8
8
  6
BYLAYER
 62
  256
 10
324.6994215253455
 20
1941.188592702645
 30
0
  0
VERTEX
  5
125
  8
8
  6
BYLAYER
 62
  256
 10
328.8475811562255
 20
1943.876536416299
 30
0
  0
VERTEX
  5
126
  8
8
  6
BYLAYER
 62
  256
 10
332.7939087007719
 20
1946.642601172448
 30
0
  0
VERTEX
  5
127
  8
8
  6
BYLAYER
 62
  256
 10
336.5396688614457
 20
1949.48632098296
 30
0
  0
VERTEX
  5
128
  8
8
  6
BYLAYER
 62
  256
 10
340.0861263407078
 20
1952.407229859702
 30
0
  0
VERTEX
  5
129
  8
8
  6
BYLAYER
 62
  256
 10
343.4345458410189
 20
1955.404861814543
 30
0
  0
VERTEX
  5
12A
  8
8
  6
BYLAYER
 62
  256
 10
346.58619206484
 20
1958.478750859352
 30
0
  0
VERTEX
  5
12B
  8
8
  6
BYLAYER
 62
  256
 10
349.5423297146318
 20
1961.628431005997
 30
0
  0
VERTEX
  5
12C
  8
8
  6
BYLAYER
 62
  256
 10
352.3042234928552
 20
1964.853436266345
 30
0
  0
VERTEX
  5
12D
  8
8
  6
BYLAYER
 62
  256
 10
354.8731381019711
 20
1968.153300652266
 30
0
  0
VERTEX
  5
12E
  8
8
  6
BYLAYER
 62
  256
 10
357.2503382444404
 20
1971.527558175628
 30
0
  0
VERTEX
  5
12F
  8
8
  6
BYLAYER
 62
  256
 10
359.4370886227239
 20
1974.975742848299
 30
0
  0
VERTEX
  5
130
  8
8
  6
BYLAYER
 62
  256
 10
361.4346539392823
 20
1978.497388682147
 30
0
  0
VERTEX
  5
131
  8
8
  6
BYLAYER
 62
  256
 10
363.2442988965767
 20
1982.092029689041
 30
0
  0
VERTEX
  5
132
  8
8
  6
BYLAYER
 62
  256
 10
364.8672881970678
 20
1985.75919988085
 30
0
  0
VERTEX
  5
133
  8
8
  6
BYLAYER
 62
  256
 10
366.3048865432165
 20
1989.49843326944
 30
0
  0
VERTEX
  5
134
  8
8
  6
BYLAYER
 62
  256
 10
367.5583586374836
 20
1993.309263866681
 30
0
  0
VERTEX
  5
135
  8
8
  6
BYLAYER
 62
  256
 10
368.62896918233
 20
1997.191225684441
 30
0
  0
VERTEX
  5
136
  8
8
  6
BYLAYER
 62
  256
 10
369.5179828802166
 20
2001.143852734588
 30
0
  0
VERTEX
  5
137
  8
8
  6
BYLAYER
 62
  256
 10
370.2266644336041
 20
2005.166679028991
 30
0
  0
VERTEX
  5
138
  8
8
  6
BYLAYER
 62
  256
 10
370.7562785449534
 20
2009.259238579519
 30
0
  0
VERTEX
  5
139
  8
8
  6
BYLAYER
 62
  256
 10
371.1080899167255
 20
2013.421065398037
 30
0
  0
VERTEX
  5
13A
  8
8
  6
BYLAYER
 62
  256
 10
371.2833632513811
 20
2017.651693496417
 30
0
  0
VERTEX
  5
13B
  8
8
  6
BYLAYER
 62
  256
 10
371.2979166666665
 20
2019.7955
 30
0
  0
VERTEX
  5
13C
  8
8
  6
BYLAYER
 62
  256
 10
371.2833632513811
 20
2021.939306503582
 30
0
  0
VERTEX
  5
13D
  8
8
  6
BYLAYER
 62
  256
 10
371.1080899167255
 20
2026.169934601962
 30
0
  0
VERTEX
  5
13E
  8
8
  6
BYLAYER
 62
  256
 10
370.7562785449534
 20
2030.331761420481
 30
0
  0
VERTEX
  5
13F
  8
8
  6
BYLAYER
 62
  256
 10
370.2266644336041
 20
2034.424320971008
 30
0
  0
VERTEX
  5
140
  8
8
  6
BYLAYER
 62
  256
 10
369.5179828802166
 20
2038.447147265411
 30
0
  0
VERTEX
  5
141
  8
8
  6
BYLAYER
 62
  256
 10
368.62896918233
 20
2042.399774315559
 30
0
  0
VERTEX
  5
142
  8
8
  6
BYLAYER
 62
  256
 10
367.5583586374836
 20
2046.281736133318
 30
0
  0
VERTEX
  5
143
  8
8
  6
BYLAYER
 62
  256
 10
366.3048865432165
 20
2050.09256673056
 30
0
  0
VERTEX
  5
144
  8
8
  6
BYLAYER
 62
  256
 10
364.8672881970678
 20
2053.83180011915
 30
0
  0
VERTEX
  5
145
  8
8
  6
BYLAYER
 62
  256
 10
363.2442988965767
 20
2057.498970310958
 30
0
  0
VERTEX
  5
146
  8
8
  6
BYLAYER
 62
  256
 10
361.4346539392823
 20
2061.093611317852
 30
0
  0
VERTEX
  5
147
  8
8
  6
BYLAYER
 62
  256
 10
359.4370886227239
 20
2064.6152571517
 30
0
  0
VERTEX
  5
148
  8
8
  6
BYLAYER
 62
  256
 10
357.2503382444404
 20
2068.063441824372
 30
0
  0
VERTEX
  5
149
  8
8
  6
BYLAYER
 62
  256
 10
354.8731381019711
 20
2071.437699347733
 30
0
  0
VERTEX
  5
14A
  8
8
  6
BYLAYER
 62
  256
 10
352.3042234928552
 20
2074.737563733654
 30
0
  0
VERTEX
  5
14B
  8
8
  6
BYLAYER
 62
  256
 10
349.5423297146318
 20
2077.962568994003
 30
0
  0
VERTEX
  5
14C
  8
8
  6
BYLAYER
 62
  256
 10
346.58619206484
 20
2081.112249140648
 30
0
  0
VERTEX
  5
14D
  8
8
  6
BYLAYER
 62
  256
 10
343.4345458410189
 20
2084.186138185456
 30
0
  0
VERTEX
  5
14E
  8
8
  6
BYLAYER
 62
  256
 10
340.0861263407078
 20
2087.183770140298
 30
0
  0
VERTEX
  5
14F
  8
8
  6
BYLAYER
 62
  256
 10
336.5396688614457
 20
2090.10467901704
 30
0
  0
VERTEX
  5
150
  8
8
  6
BYLAYER
 62
  256
 10
332.7939087007719
 20
2092.948398827551
 30
0
  0
VERTEX
  5
151
  8
8
  6
BYLAYER
 62
  256
 10
328.8475811562255
 20
2095.7144635837
 30
0
  0
VERTEX
  5
152
  8
8
  6
BYLAYER
 62
  256
 10
324.6994215253455
 20
2098.402407297355
 30
0
  0
VERTEX
  5
153
  8
8
  6
BYLAYER
 62
  256
 10
320.3481651056713
 20
2101.011763980384
 30
0
  0
VERTEX
  5
154
  8
8
  6
BYLAYER
 62
  256
 10
315.7925471947419
 20
2103.542067644655
 30
0
  0
VERTEX
  5
155
  8
8
  6
BYLAYER
 62
  256
 10
311.0313030900964
 20
2105.992852302037
 30
0
  0
VERTEX
  5
156
  8
8
  6
BYLAYER
 62
  256
 10
306.063168089274
 20
2108.363651964398
 30
0
  0
VERTEX
  5
157
  8
8
  6
BYLAYER
 62
  256
 10
300.886877489814
 20
2110.654000643607
 30
0
  0
VERTEX
  5
158
  8
8
  6
BYLAYER
 62
  256
 10
295.5011665892553
 20
2112.863432351531
 30
0
  0
VERTEX
  5
159
  8
8
  6
BYLAYER
 62
  256
 10
289.9047706851372
 20
2114.991481100039
 30
0
  0
VERTEX
  5
15A
  8
8
  6
BYLAYER
 62
  256
 10
284.0964250749988
 20
2117.037680901
 30
0
  0
VERTEX
  5
15B
  8
8
  6
BYLAYER
 62
  256
 10
278.0748650563793
 20
2119.001565766282
 30
0
  0
VERTEX
  5
15C
  8
8
  6
BYLAYER
 62
  256
 10
274.9747714467796
 20
2119.949035563507
 30
0
  0
VERTEX
  5
15D
  8
8
  6
BYLAYER
 62
  256
 10
323.5538625033681
 20
2280.993305349216
 30
0
  0
VERTEX
  5
15E
  8
8
  6
BYLAYER
 62
  256
 10
328.0867292854871
 20
2279.659094772894
 30
0
  0
VERTEX
  5
15F
  8
8
  6
BYLAYER
 62
  256
 10
339.415326143982
 20
2276.659191883532
 30
0
  0
VERTEX
  5
160
  8
8
  6
BYLAYER
 62
  256
 10
352.9453749134339
 20
2273.452203750037
 30
0
  0
VERTEX
  5
161
  8
8
  6
BYLAYER
 62
  256
 10
364.2316296485702
 20
2271.04363840702
 30
0
  0
VERTEX
  5
162
  8
8
  6
BYLAYER
 62
  256
 10
372.112342922606
 20
2269.483468782096
 30
0
  0
VERTEX
  5
163
  8
8
  6
BYLAYER
 62
  256
 10
380.2221791480364
 20
2267.990710871093
 30
0
  0
VERTEX
  5
164
  8
8
  6
BYLAYER
 62
  256
 10
388.4897516523405
 20
2266.591849790667
 30
0
  0
VERTEX
  5
165
  8
8
  6
BYLAYER
 62
  256
 10
396.843673762997
 20
2265.313370657476
 30
0
  0
VERTEX
  5
166
  8
8
  6
BYLAYER
 62
  256
 10
405.2125588074852
 20
2264.181758588175
 30
0
  0
VERTEX
  5
167
  8
8
  6
BYLAYER
 62
  256
 10
413.5250201132837
 20
2263.223498699421
 30
0
  0
VERTEX
  5
168
  8
8
  6
BYLAYER
 62
  256
 10
421.7096710078716
 20
2262.465076107871
 30
0
  0
VERTEX
  5
169
  8
8
  6
BYLAYER
 62
  256
 10
429.6951248187281
 20
2261.932975930181
 30
0
  0
VERTEX
  5
16A
  8
8
  6
BYLAYER
 62
  256
 10
437.409994873332
 20
2261.653683283008
 30
0
  0
VERTEX
  5
16B
  8
8
  6
BYLAYER
 62
  256
 10
441.1279166666666
 20
2261.629305349216
 30
0
  0
VERTEX
  5
16C
  8
8
  6
BYLAYER
 62
  256
 10
450.107077219806
 20
2261.629305349216
 30
0
  0
VERTEX
  5
16D
  8
8
  6
BYLAYER
 62
  256
 10
464.7709191774414
 20
2261.881860688514
 30
0
  0
VERTEX
  5
16E
  8
8
  6
BYLAYER
 62
  256
 10
474.9260487536233
 20
2262.336460299249
 30
0
  0
VERTEX
  5
16F
  8
8
  6
BYLAYER
 62
  256
 10
482.6555307828494
 20
2262.917337579633
 30
0
  0
VERTEX
  5
170
  8
8
  6
BYLAYER
 62
  256
 10
487.8218507236268
 20
2263.42876214171
 30
0
  0
VERTEX
  5
171
  8
8
  6
BYLAYER
 62
  256
 10
492.9786468449894
 20
2264.060150489953
 30
0
  0
VERTEX
  5
172
  8
8
  6
BYLAYER
 62
  256
 10
498.1063647117823
 20
2264.824130391327
 30
0
  0
VERTEX
  5
173
  8
8
  6
BYLAYER
 62
  256
 10
503.1854498888501
 20
2265.733329612797
 30
0
  0
VERTEX
  5
174
  8
8
  6
BYLAYER
 62
  256
 10
508.1963479410381
 20
2266.800375921329
 30
0
  0
VERTEX
  5
175
  8
8
  6
BYLAYER
 62
  256
 10
513.119504433191
 20
2268.037897083886
 30
0
  0
VERTEX
  5
176
  8
8
  6
BYLAYER
 62
  256
 10
517.9353649301536
 20
2269.458520867433
 30
0
  0
VERTEX
  5
177
  8
8
  6
BYLAYER
 62
  256
 10
522.6243749967708
 20
2271.074875038935
 30
0
  0
VERTEX
  5
178
  8
8
  6
BYLAYER
 62
  256
 10
527.1669801978878
 20
2272.899587365358
 30
0
  0
VERTEX
  5
179
  8
8
  6
BYLAYER
 62
  256
 10
531.5436260983494
 20
2274.945285613667
 30
0
  0
VERTEX
  5
17A
  8
8
  6
BYLAYER
 62
  256
 10
535.7347582630002
 20
2277.224597550824
 30
0
  0
VERTEX
  5
17B
  8
8
  6
BYLAYER
 62
  256
 10
539.7208222566856
 20
2279.750150943798
 30
0
  0
VERTEX
  5
17C
  8
8
  6
BYLAYER
 62
  256
 10
543.48226364425
 20
2282.534573559551
 30
0
  0
VERTEX
  5
17D
  8
8
  6
BYLAYER
 62
  256
 10
546.9995279905387
 20
2285.590493165048
 30
0
  0
VERTEX
  5
17E
  8
8
  6
BYLAYER
 62
  256
 10
549.4567719363075
 20
2288.077374021691
 30
0
  0
VERTEX
  5
17F
  8
8
  6
BYLAYER
 62
  256
 10
551.0139390455371
 20
2289.820795098278
 30
0
  0
VERTEX
  5
180
  8
8
  6
BYLAYER
 62
  256
 10
552.4990625246729
 20
2291.639193541218
 30
0
  0
VERTEX
  5
181
  8
8
  6
BYLAYER
 62
  256
 10
553.9096980693206
 20
2293.534147821384
 30
0
  0
VERTEX
  5
182
  8
8
  6
BYLAYER
 62
  256
 10
555.2434013750859
 20
2295.507236409644
 30
0
  0
VERTEX
  5
183
  8
8
  6
BYLAYER
 62
  256
 10
556.4977281375743
 20
2297.56003777687
 30
0
  0
VERTEX
  5
184
  8
8
  6
BYLAYER
 62
  256
 10
557.6702340523915
 20
2299.694130393932
 30
0
  0
VERTEX
  5
185
  8
8
  6
BYLAYER
 62
  256
 10
558.7584748151431
 20
2301.911092731701
 30
0
  0
VERTEX
  5
186
  8
8
  6
BYLAYER
 62
  256
 10
559.7600061214345
 20
2304.212503261047
 30
0
  0
VERTEX
  5
187
  8
8
  6
BYLAYER
 62
  256
 10
560.6723836668716
 20
2306.599940452842
 30
0
  0
VERTEX
  5
188
  8
8
  6
BYLAYER
 62
  256
 10
561.4931631470599
 20
2309.074982777956
 30
0
  0
VERTEX
  5
189
  8
8
  6
BYLAYER
 62
  256
 10
562.2199002576051
 20
2311.639208707259
 30
0
  0
VERTEX
  5
18A
  8
8
  6
BYLAYER
 62
  256
 10
562.8501506941126
 20
2314.294196711622
 30
0
  0
VERTEX
  5
18B
  8
8
  6
BYLAYER
 62
  256
 10
563.3814701521882
 20
2317.041525261915
 30
0
  0
VERTEX
  5
18C
  8
8
  6
BYLAYER
 62
  256
 10
563.8114143274374
 20
2319.88277282901
 30
0
  0
VERTEX
  5
18D
  8
8
  6
BYLAYER
 62
  256
 10
564.1375389154659
 20
2322.819517883776
 30
0
  0
VERTEX
  5
18E
  8
8
  6
BYLAYER
 62
  256
 10
564.3573996118794
 20
2325.853338897085
 30
0
  0
VERTEX
  5
18F
  8
8
  6
BYLAYER
 62
  256
 10
564.4685521122832
 20
2328.985814339807
 30
0
  0
VERTEX
  5
190
  8
8
  6
BYLAYER
 62
  256
 10
564.4779166666667
 20
2330.59375
 30
0
  0
VERTEX
  5
191
  8
8
  6
BYLAYER
 62
  256
 10
700.4379166666665
 20
2330.59375
 30
0
  0
VERTEX
  5
192
  8
8
  6
BYLAYER
 62
  256
 10
896.0229166666667
 20
2330.59375
 30
0
  0
SEQEND
  5
193
  8
8
  6
BYLAYER
 62
  256
  0
POLYLINE
  5
194
  8
8
  6
BYLAYER
 62
  256
 66
    1
 10
0
 20
0
 30
0
 70
    0
  0
VERTEX
  5
195
  8
8
  6
BYLAYER
 62
  256
 10
896.0229166666667
 20
1774.335047609908
 30
0
  0
VERTEX
  5
196
  8
8
  6
BYLAYER
 62
  256
 10
896.0229166666667
 20
1774.335047609908
 30
0
  0
VERTEX
  5
197
  8
8
  6
BYLAYER
 62
  256
 10
889.7319897388796
 20
1774.935661396831
 30
0
  0
VERTEX
  5
198
  8
8
  6
BYLAYER
 62
  256
 10
884.3298115842824
 20
1775.268416310972
 30
0
  0
VERTEX
  5
199
  8
8
  6
BYLAYER
 62
  256
 10
881.6379166666666
 20
1775.345499999999
 30
0
  0
VERTEX
  5
19A
  8
8
  6
BYLAYER
 62
  256
 10
875.7510177540638
 20
1775.440613576337
 30
0
  0
VERTEX
  5
19B
  8
8
  6
BYLAYER
 62
  256
 10
863.8633306444153
 20
1775.335452248024
 30
0
  0
VERTEX
  5
19C
  8
8
  6
BYLAYER
 62
  256
 10
854.9189894966312
 20
1774.993058569536
 30
0
  0
VERTEX
  5
19D
  8
8
  6
BYLAYER
 62
  256
 10
848.96863316547
 20
1774.645520276848
 30
0
  0
VERTEX
  5
19E
  8
8
  6
BYLAYER
 62
  256
 10
843.0439283957221
 20
1774.191225674462
 30
0
  0
VERTEX
  5
19F
  8
8
  6
BYLAYER
 62
  256
 10
837.1587864308161
 20
1773.625956212285
 30
0
  0
VERTEX
  5
1A0
  8
8
  6
BYLAYER
 62
  256
 10
834.2379166666667
 20
1773.295499999999
 30
0
  0
VERTEX
  5
1A1
  8
8
  6
BYLAYER
 62
  256
 10
831.2799295771159
 20
1772.912619771046
 30
0
  0
VERTEX
  5
1A2
  8
8
  6
BYLAYER
 62
  256
 10
825.373002550701
 20
1771.835110413959
 30
0
  0
VERTEX
  5
1A3
  8
8
  6
BYLAYER
 62
  256
 10
816.5238609166373
 20
1769.78256044344
 30
0
  0
VERTEX
  5
1A4
  8
8
  6
BYLAYER
 62
  256
 10
807.674507393278
 20
1767.565540552052
 30
0
  0
VERTEX
  5
1A5
  8
8
  6
BYLAYER
 62
  256
 10
801.7672413439903
 20
1766.224879321573
 30
0
  0
VERTEX
  5
1A6
  8
8
  6
BYLAYER
 62
  256
 10
795.8484933109189
 20
1765.139587113027
 30
0
  0
VERTEX
  5
1A7
  8
8
  6
BYLAYER
 62
  256
 10
791.398546649897
 20
1764.585487869144
 30
0
  0
VERTEX
  5
1A8
  8
8
  6
BYLAYER
 62
  256
 10
788.426287184999
 20
1764.354802402674
 30
0
  0
VERTEX
  5
1A9
  8
8
  6
BYLAYER
 62
  256
 10
786.9379166666666
 20
1764.2955
 30
0
  0
VERTEX
  5
1AA
  8
8
  6
BYLAYER
 62
  256
 10
784.2576351081022
 20
1764.222017500822
 30
0
  0
VERTEX
  5
1AB
  8
8
  6
BYLAYER
 62
  256
 10
778.8831264304373
 20
1764.183525103301
 30
0
  0
VERTEX
  5
1AC
  8
8
  6
BYLAYER
 62
  256
 10
770.7959016794781
 20
1764.327796769539
 30
0
  0
VERTEX
  5
1AD
  8
8
  6
BYLAYER
 62
  256
 10
759.9721191979183
 20
1764.858922305661
 30
0
  0
VERTEX
  5
1AE
  8
8
  6
BYLAYER
 62
  256
 10
749.1209870792505
 20
1765.64379473375
 30
0
  0
VERTEX
  5
1AF
  8
8
  6
BYLAYER
 62
  256
 10
732.8301677068768
 20
1767.037670443617
 30
0
  0
VERTEX
  5
1B0
  8
8
  6
BYLAYER
 62
  256
 10
716.5834431436233
 20
1768.307613406034
 30
0
  0
VERTEX
  5
1B1
  8
8
  6
BYLAYER
 62
  256
 10
705.8028627195482
 20
1768.894193438203
 30
0
  0
VERTEX
  5
1B2
  8
8
  6
BYLAYER
 62
  256
 10
700.4379166666665
 20
1769.045499999999
 30
0
  0
VERTEX
  5
1B3
  8
8
  6
BYLAYER
 62
  256
 10
695.2809456168442
 20
1769.177277263374
 30
0
  0
VERTEX
  5
1B4
  8
8
  6
BYLAYER
 62
  256
 10
684.8862231016911
 20
1769.575682674995
 30
0
  0
VERTEX
  5
1B5
  8
8
  6
BYLAYER
 62
  256
 10
674.425278686719
 20
1770.026713124066
 30
0
  0
VERTEX
  5
1B6
  8
8
  6
BYLAYER
 62
  256
 10
663.9322397039181
 20
1770.409039694594
 30
0
  0
VERTEX
  5
1B7
  8
8
  6
BYLAYER
 62
  256
 10
653.4412334852781
 20
1770.601333470581
 30
0
  0
VERTEX
  5
1B8
  8
8
  6
BYLAYER
 62
  256
 10
645.5967724082772
 20
1770.535284155203
 30
0
  0
VERTEX
  5
1B9
  8
8
  6
BYLAYER
 62
  256
 10
640.3847882458185
 20
1770.375160588547
 30
0
  0
VERTEX
  5
1BA
  8
8
  6
BYLAYER
 62
  256
 10
635.1925088986447
 20
1770.099281308008
 30
0
  0
VERTEX
  5
1BB
  8
8
  6
BYLAYER
 62
  256
 10
630.0242002832541
 20
1769.692480199087
 30
0
  0
VERTEX
  5
1BC
  8
8
  6
BYLAYER
 62
  256
 10
624.8841283161456
 20
1769.139591147286
 30
0
  0
VERTEX
  5
1BD
  8
8
  6
BYLAYER
 62
  256
 10
619.7765589138181
 20
1768.425448038103
 30
0
  0
VERTEX
  5
1BE
  8
8
  6
BYLAYER
 62
  256
 10
617.2379166666666
 20
1767.9955
 30
0
  0
VERTEX
  5
1BF
  8
8
  6
BYLAYER
 62
  256
 10
615.4966247619429
 20
1767.667094494919
 30
0
  0
VERTEX
  5
1C0
  8
8
  6
BYLAYER
 62
  256
 10
612.0660169475128
 20
1766.80899429362
 30
0
  0
VERTEX
  5
1C1
  8
8
  6
BYLAYER
 62
  256
 10
608.6908231324763
 20
1765.735989814479
 30
0
  0
VERTEX
  5
1C2
  8
8
  6
BYLAYER
 62
  256
 10
605.3633131005814
 20
1764.477684114745
 30
0
  0
VERTEX
  5
1C3
  8
8
  6
BYLAYER
 62
  256
 10
602.0757566355752
 20
1763.063680251666
 30
0
  0
VERTEX
  5
1C4
  8
8
  6
BYLAYER
 62
  256
 10
598.8204235212057
 20
1761.523581282489
 30
0
  0
VERTEX
  5
1C5
  8
8
  6
BYLAYER
 62
  256
 10
593.979320557792
 20
1759.048272125394
 30
0
  0
VERTEX
  5
1C6
  8
8
  6
BYLAYER
 62
  256
 10
587.5692318378433
 20
1755.566740237434
 30
0
  0
VERTEX
  5
1C7
  8
8
  6
BYLAYER
 62
  256
 10
581.1488926278975
 20
1752.113682955551
 30
0
  0
VERTEX
  5
1C8
  8
8
  6
BYLAYER
 62
  256
 10
576.28600737324
 20
1749.698882336369
 30
0
  0
VERTEX
  5
1C9
  8
8
  6
BYLAYER
 62
  256
 10
573.0101732788762
 20
1748.215732579346
 30
0
  0
VERTEX
  5
1CA
  8
8
  6
BYLAYER
 62
  256
 10
569.6969905888773
 20
1746.87291523146
 30
0
  0
VERTEX
  5
1CB
  8
8
  6
BYLAYER
 62
  256
 10
566.3387290869908
 20
1745.700033349957
 30
0
  0
VERTEX
  5
1CC
  8
8
  6
BYLAYER
 62
  256
 10
564.6379166666667
 20
1745.1955
 30
0
  0
VERTEX
  5
1CD
  8
8
  6
BYLAYER
 62
  256
 10
559.1951795439799
 20
1743.647126554008
 30
0
  0
VERTEX
  5
1CE
  8
8
  6
BYLAYER
 62
  256
 10
556.0073860733669
 20
1742.833444391187
 30
0
  0
VERTEX
  5
1CF
  8
8
  6
BYLAYER
 62
  256
 10
556.0073860733669
 20
1742.833444391187
 30
0
  0
SEQEND
  5
1D0
  8
8
  6
BYLAYER
 62
  256
  0
POLYLINE
  5
1D1
  8
8
  6
BYLAYER
 62
  256
 66
    1
 10
0
 20
0
 30
0
 70
    0
  0
VERTEX
  5
1D2
  8
8
  6
BYLAYER
 62
  256
 10
896.0229166666667
 20
2265.255952390092
 30
0
  0
VERTEX
  5
1D3
  8
8
  6
BYLAYER
 62
  256
 10
896.0229166666667
 20
2265.255952390092
 30
0
  0
VERTEX
  5
1D4
  8
8
  6
BYLAYER
 62
  256
 10
889.7319897388796
 20
2264.655338603168
 30
0
  0
VERTEX
  5
1D5
  8
8
  6
BYLAYER
 62
  256
 10
884.3298115842824
 20
2264.322583689027
 30
0
  0
VERTEX
  5
1D6
  8
8
  6
BYLAYER
 62
  256
 10
881.6379166666666
 20
2264.2455
 30
0
  0
VERTEX
  5
1D7
  8
8
  6
BYLAYER
 62
  256
 10
875.7510177540638
 20
2264.150386423662
 30
0
  0
VERTEX
  5
1D8
  8
8
  6
BYLAYER
 62
  256
 10
863.8633306444153
 20
2264.255547751975
 30
0
  0
VERTEX
  5
1D9
  8
8
  6
BYLAYER
 62
  256
 10
854.9189894966312
 20
2264.597941430463
 30
0
  0
VERTEX
  5
1DA
  8
8
  6
BYLAYER
 62
  256
 10
848.96863316547
 20
2264.945479723151
 30
0
  0
VERTEX
  5
1DB
  8
8
  6
BYLAYER
 62
  256
 10
843.0439283957221
 20
2265.399774325538
 30
0
  0
VERTEX
  5
1DC
  8
8
  6
BYLAYER
 62
  256
 10
837.1587864308161
 20
2265.965043787714
 30
0
  0
VERTEX
  5
1DD
  8
8
  6
BYLAYER
 62
  256
 10
834.2379166666667
 20
2266.2955
 30
0
  0
VERTEX
  5
1DE
  8
8
  6
BYLAYER
 62
  256
 10
831.2799295771159
 20
2266.678380228953
 30
0
  0
VERTEX
  5
1DF
  8
8
  6
BYLAYER
 62
  256
 10
825.373002550701
 20
2267.755889586041
 30
0
  0
VERTEX
  5
1E0
  8
8
  6
BYLAYER
 62
  256
 10
816.5238609166373
 20
2269.80843955656
 30
0
  0
VERTEX
  5
1E1
  8
8
  6
BYLAYER
 62
  256
 10
807.674507393278
 20
2272.025459447948
 30
0
  0
VERTEX
  5
1E2
  8
8
  6
BYLAYER
 62
  256
 10
801.7672413439903
 20
2273.366120678427
 30
0
  0
VERTEX
  5
1E3
  8
8
  6
BYLAYER
 62
  256
 10
795.8484933109189
 20
2274.451412886973
 30
0
  0
VERTEX
  5
1E4
  8
8
  6
BYLAYER
 62
  256
 10
791.398546649897
 20
2275.005512130856
 30
0
  0
VERTEX
  5
1E5
  8
8
  6
BYLAYER
 62
  256
 10
788.426287184999
 20
2275.236197597325
 30
0
  0
VERTEX
  5
1E6
  8
8
  6
BYLAYER
 62
  256
 10
786.9379166666666
 20
2275.2955
 30
0
  0
VERTEX
  5
1E7
  8
8
  6
BYLAYER
 62
  256
 10
784.2576351081022
 20
2275.368982499177
 30
0
  0
VERTEX
  5
1E8
  8
8
  6
BYLAYER
 62
  256
 10
778.8831264304373
 20
2275.407474896699
 30
0
  0
VERTEX
  5
1E9
  8
8
  6
BYLAYER
 62
  256
 10
770.7959016794781
 20
2275.26320323046
 30
0
  0
VERTEX
  5
1EA
  8
8
  6
BYLAYER
 62
  256
 10
759.9721191979183
 20
2274.732077694339
 30
0
  0
VERTEX
  5
1EB
  8
8
  6
BYLAYER
 62
  256
 10
749.1209870792505
 20
2273.94720526625
 30
0
  0
VERTEX
  5
1EC
  8
8
  6
BYLAYER
 62
  256
 10
732.8301677068768
 20
2272.553329556382
 30
0
  0
VERTEX
  5
1ED
  8
8
  6
BYLAYER
 62
  256
 10
716.5834431436233
 20
2271.283386593966
 30
0
  0
VERTEX
  5
1EE
  8
8
  6
BYLAYER
 62
  256
 10
705.8028627195482
 20
2270.696806561796
 30
0
  0
VERTEX
  5
1EF
  8
8
  6
BYLAYER
 62
  256
 10
700.4379166666665
 20
2270.5455
 30
0
  0
VERTEX
  5
1F0
  8
8
  6
BYLAYER
 62
  256
 10
695.2809456168442
 20
2270.413722736625
 30
0
  0
VERTEX
  5
1F1
  8
8
  6
BYLAYER
 62
  256
 10
684.8862231016911
 20
2270.015317325005
 30
0
  0
VERTEX
  5
1F2
  8
8
  6
BYLAYER
 62
  256
 10
674.425278686719
 20
2269.564286875933
 30
0
  0
VERTEX
  5
1F3
  8
8
  6
BYLAYER
 62
  256
 10
663.9322397039181
 20
2269.181960305406
 30
0
  0
VERTEX
  5
1F4
  8
8
  6
BYLAYER
 62
  256
 10
653.4412334852781
 20
2268.989666529419
 30
0
  0
VERTEX
  5
1F5
  8
8
  6
BYLAYER
 62
  256
 10
645.5967724082772
 20
2269.055715844796
 30
0
  0
VERTEX
  5
1F6
  8
8
  6
BYLAYER
 62
  256
 10
640.3847882458185
 20
2269.215839411453
 30
0
  0
VERTEX
  5
1F7
  8
8
  6
BYLAYER
 62
  256
 10
635.1925088986447
 20
2269.491718691992
 30
0
  0
VERTEX
  5
1F8
  8
8
  6
BYLAYER
 62
  256
 10
630.0242002832541
 20
2269.898519800913
 30
0
  0
VERTEX
  5
1F9
  8
8
  6
BYLAYER
 62
  256
 10
624.8841283161456
 20
2270.451408852714
 30
0
  0
VERTEX
  5
1FA
  8
8
  6
BYLAYER
 62
  256
 10
619.7765589138181
 20
2271.165551961896
 30
0
  0
VERTEX
  5
1FB
  8
8
  6
BYLAYER
 62
  256
 10
617.2379166666666
 20
2271.5955
 30
0
  0
VERTEX
  5
1FC
  8
8
  6
BYLAYER
 62
  256
 10
615.4966247619429
 20
2271.92390550508
 30
0
  0
VERTEX
  5
1FD
  8
8
  6
BYLAYER
 62
  256
 10
612.0660169475128
 20
2272.78200570638
 30
0
  0
VERTEX
  5
1FE
  8
8
  6
BYLAYER
 62
  256
 10
608.6908231324763
 20
2273.85501018552
 30
0
  0
VERTEX
  5
1FF
  8
8
  6
BYLAYER
 62
  256
 10
605.3633131005814
 20
2275.113315885254
 30
0
  0
VERTEX
  5
200
  8
8
  6
BYLAYER
 62
  256
 10
602.0757566355752
 20
2276.527319748334
 30
0
  0
VERTEX
  5
201
  8
8
  6
BYLAYER
 62
  256
 10
598.8204235212057
 20
2278.067418717511
 30
0
  0
VERTEX
  5
202
  8
8
  6
BYLAYER
 62
  256
 10
593.979320557792
 20
2280.542727874606
 30
0
  0
VERTEX
  5
203
  8
8
  6
BYLAYER
 62
  256
 10
587.5692318378433
 20
2284.024259762566
 30
0
  0
VERTEX
  5
204
  8
8
  6
BYLAYER
 62
  256
 10
581.1488926278975
 20
2287.477317044449
 30
0
  0
VERTEX
  5
205
  8
8
  6
BYLAYER
 62
  256
 10
576.28600737324
 20
2289.89211766363
 30
0
  0
VERTEX
  5
206
  8
8
  6
BYLAYER
 62
  256
 10
573.0101732788762
 20
2291.375267420653
 30
0
  0
VERTEX
  5
207
  8
8
  6
BYLAYER
 62
  256
 10
569.6969905888773
 20
2292.71808476854
 30
0
  0
VERTEX
  5
208
  8
8
  6
BYLAYER
 62
  256
 10
566.3387290869908
 20
2293.890966650043
 30
0
  0
VERTEX
  5
209
  8
8
  6
BYLAYER
 62
  256
 10
564.6379166666667
 20
2294.3955
 30
0
  0
VERTEX
  5
20A
  8
8
  6
BYLAYER
 62
  256
 10
559.1951795439799
 20
2295.943873445991
 30
0
  0
VERTEX
  5
20B
  8
8
  6
BYLAYER
 62
  256
 10
556.0073860733669
 20
2296.757555608813
 30
0
  0
VERTEX
  5
20C
  8
8
  6
BYLAYER
 62
  256
 10
556.0073860733669
 20
2296.757555608813
 30
0
  0
SEQEND
  5
20D
  8
8
  6
BYLAYER
 62
  256
  0
POLYLINE
  5
20E
  8
8
  6
BYLAYER
 62
  256
 66
    1
 10
0
 20
0
 30
0
 70
    0
  0
VERTEX
  5
20F
  8
8
  6
BYLAYER
 62
  256
 10
564.6379166666667
 20
1745.1955
 30
0
  0
VERTEX
  5
210
  8
8
  6
BYLAYER
 62
  256
 10
564.6379166666667
 20
2294.3955
 30
0
  0
SEQEND
  5
211
  8
8
  6
BYLAYER
 62
  256
  0
POLYLINE
  5
212
  8
8
  6
BYLAYER
 62
  256
 66
    1
 10
0
 20
0
 30
0
 70
    0
  0
VERTEX
  5
213
  8
8
  6
BYLAYER
 62
  256
 10
700.4379166666665
 20
1769.045499999999
 30
0
  0
VERTEX
  5
214
  8
8
  6
BYLAYER
 62
  256
 10
700.4379166666665
 20
2270.5455
 30
0
  0
SEQEND
  5
215
  8
8
  6
BYLAYER
 62
  256
  0
LINE
  5
216
  8
7
  6
BYLAYER
 62
  256
 10
896.0229166666667
 20
2019.7955
 11
371.2979166666665
 21
2019.7955
  0
TEXT
  5
217
  8
1
  6
BYLAYER
 62
  256
 10
539.6379166666667
 20
1977.2955
 30
0
 40
2.5
  1
Piece Name: Sweatshirt Front
 50
0
 41
1
 51
0
  7
STANDARD
 71
    0
210
0
220
0
230
1
  0
TEXT
  5
218
  8
1
  6
BYLAYER
 62
  256
 10
539.6379166666667
 20
1974.795499999999
 30
0
 40
2.5
  1
File Name: GBlock-201-Sweatshirt-Parametric-Scalable-V4-Hood-SG-EXTRA
 50
0
 41
1
 51
0
  7
STANDARD
 71
    0
210
0
220
0
230
1
  0
TEXT
  5
219
  8
1
  6
BYLAYER
 62
  256
 10
539.6379166666667
 20
1972.2955
 30
0
 40
2.5
  1
Measurement Name: SG-EXTRA
 50
0
 41
1
 51
0
  7
STANDARD
 71
    0
210
0
220
0
230
1
  0
TEXT
  5
21A
  8
1
  6
BYLAYER
 62
  256
 10
539.6379166666667
 20
1969.7955
 30
0
 40
2.5
  1
Date: 03-20-2026
 50
0
 41
1
 51
0
  7
STANDARD
 71
    0
210
0
220
0
230
1
  0
ENDBLK
  8
1
  0
BLOCK
  8
1
  2
SWEATSHIRT_BACK
 70
    0
 10
0
 20
0
  3
SWEATSHIRT_BACK
  1

  0
POLYLINE
  5
21B
  8
1
  6
BYLAYER
 62
  256
 66
    1
 10
0
 20
0
 30
0
 70
    1
  0
VERTEX
  5
21C
  8
1
  6
BYLAYER
 62
  256
 10
143.3493862804041
 20
1059.635524242965
 30
0
  0
VERTEX
  5
21D
  8
1
  6
BYLAYER
 62
  256
 10
143.3493862804041
 20
1262.220524242965
 30
0
  0
VERTEX
  5
21E
  8
1
  6
BYLAYER
 62
  256
 10
143.3493862804041
 20
1405.139875230615
 30
0
  0
VERTEX
  5
21F
  8
1
  6
BYLAYER
 62
  256
 10
151.8127910722691
 20
1405.189165769039
 30
0
  0
VERTEX
  5
220
  8
1
  6
BYLAYER
 62
  256
 10
154.7125723737781
 20
1405.292061369717
 30
0
  0
VERTEX
  5
221
  8
1
  6
BYLAYER
 62
  256
 10
157.4841040404814
 20
1405.492913984192
 30
0
  0
VERTEX
  5
222
  8
1
  6
BYLAYER
 62
  256
 10
160.1500411386175
 20
1405.788965436268
 30
0
  0
VERTEX
  5
223
  8
1
  6
BYLAYER
 62
  256
 10
162.7128801681893
 20
1406.176780185545
 30
0
  0
VERTEX
  5
224
  8
1
  6
BYLAYER
 62
  256
 10
165.1753422824881
 20
1406.653007914464
 30
0
  0
VERTEX
  5
225
  8
1
  6
BYLAYER
 62
  256
 10
167.5403706093786
 20
1407.214426697873
 30
0
  0
VERTEX
  5
226
  8
1
  6
BYLAYER
 62
  256
 10
169.8111159951792
 20
1407.857987361386
 30
0
  0
VERTEX
  5
227
  8
1
  6
BYLAYER
 62
  256
 10
171.9909099880077
 20
1408.580855880522
 30
0
  0
VERTEX
  5
228
  8
1
  6
BYLAYER
 62
  256
 10
174.0832249461125
 20
1409.380450187052
 30
0
  0
VERTEX
  5
229
  8
1
  6
BYLAYER
 62
  256
 10
176.0916224816718
 20
1410.254467656639
 30
0
  0
VERTEX
  5
22A
  8
1
  6
BYLAYER
 62
  256
 10
178.0196928590044
 20
1411.200899962827
 30
0
  0
VERTEX
  5
22B
  8
1
  6
BYLAYER
 62
  256
 10
179.8709892277058
 20
1412.218032923706
 30
0
  0
VERTEX
  5
22C
  8
1
  6
BYLAYER
 62
  256
 10
181.6489614426876
 20
1413.304430354952
 30
0
  0
VERTEX
  5
22D
  8
1
  6
BYLAYER
 62
  256
 10
183.3568945114634
 20
1414.458902583622
 30
0
  0
VERTEX
  5
22E
  8
1
  6
BYLAYER
 62
  256
 10
184.9978563258679
 20
1415.680461904096
 30
0
  0
VERTEX
  5
22F
  8
1
  6
BYLAYER
 62
  256
 10
186.5746583290253
 20
1416.96826859241
 30
0
  0
VERTEX
  5
230
  8
1
  6
BYLAYER
 62
  256
 10
188.0712207924728
 20
1418.304949602112
 30
0
  0
VERTEX
  5
231
  8
1
  6
BYLAYER
 62
  256
 10
190.2431862872735
 20
1420.451031127594
 30
0
  0
VERTEX
  5
232
  8
1
  6
BYLAYER
 62
  256
 10
192.945057040169
 20
1423.560796728215
 30
0
  0
VERTEX
  5
233
  8
1
  6
BYLAYER
 62
  256
 10
195.4157809949336
 20
1426.898466551798
 30
0
  0
VERTEX
  5
234
  8
1
  6
BYLAYER
 62
  256
 10
197.6806020263581
 20
1430.473018406698
 30
0
  0
VERTEX
  5
235
  8
1
  6
BYLAYER
 62
  256
 10
199.7466118936995
 20
1434.271936960293
 30
0
  0
VERTEX
  5
236
  8
1
  6
BYLAYER
 62
  256
 10
201.6201348511819
 20
1438.280224388837
 30
0
  0
VERTEX
  5
237
  8
1
  6
BYLAYER
 62
  256
 10
203.3074625537106
 20
1442.480811783629
 30
0
  0
VERTEX
  5
238
  8
1
  6
BYLAYER
 62
  256
 10
204.8153133736153
 20
1446.855055868339
 30
0
  0
VERTEX
  5
239
  8
1
  6
BYLAYER
 62
  256
 10
206.1510674106018
 20
1451.383211158206
 30
0
  0
VERTEX
  5
23A
  8
1
  6
BYLAYER
 62
  256
 10
207.3228452164718
 20
1456.044824782987
 30
0
  0
VERTEX
  5
23B
  8
1
  6
BYLAYER
 62
  256
 10
208.3394911115675
 20
1460.819040198729
 30
0
  0
VERTEX
  5
23C
  8
1
  6
BYLAYER
 62
  256
 10
209.2105063524203
 20
1465.684817131162
 30
0
  0
VERTEX
  5
23D
  8
1
  6
BYLAYER
 62
  256
 10
209.9459618664776
 20
1470.621083612621
 30
0
  0
VERTEX
  5
23E
  8
1
  6
BYLAYER
 62
  256
 10
210.5564081076238
 20
1475.606837336778
 30
0
  0
VERTEX
  5
23F
  8
1
  6
BYLAYER
 62
  256
 10
211.0516883697425
 20
1480.610070431539
 30
0
  0
VERTEX
  5
240
  8
1
  6
BYLAYER
 62
  256
 10
211.6184182472738
 20
1488.151299107084
 30
0
  0
VERTEX
  5
241
  8
1
  6
BYLAYER
 62
  256
 10
212.0639720094599
 20
1498.10435687772
 30
0
  0
VERTEX
  5
242
  8
1
  6
BYLAYER
 62
  256
 10
212.3138309311876
 20
1512.611639717648
 30
0
  0
VERTEX
  5
243
  8
1
  6
BYLAYER
 62
  256
 10
212.3138309311876
 20
1521.507575440925
 30
0
  0
VERTEX
  5
244
  8
1
  6
BYLAYER
 62
  256
 10
212.2902834654287
 20
1525.098841085932
 30
0
  0
VERTEX
  5
245
  8
1
  6
BYLAYER
 62
  256
 10
212.0185860849967
 20
1532.60390792326
 30
0
  0
VERTEX
  5
246
  8
1
  6
BYLAYER
 62
  256
 10
211.4995679076064
 20
1540.393034588352
 30
0
  0
VERTEX
  5
247
  8
1
  6
BYLAYER
 62
  256
 10
210.7567240760278
 20
1548.409564552527
 30
0
  0
VERTEX
  5
248
  8
1
  6
BYLAYER
 62
  256
 10
209.8152999849176
 20
1556.575983100921
 30
0
  0
VERTEX
  5
249
  8
1
  6
BYLAYER
 62
  256
 10
208.701082245937
 20
1564.816227637919
 30
0
  0
VERTEX
  5
24A
  8
1
  6
BYLAYER
 62
  256
 10
207.4401871495315
 20
1573.055250983405
 30
0
  0
VERTEX
  5
24B
  8
1
  6
BYLAYER
 62
  256
 10
206.0589419185527
 20
1581.218709995266
 30
0
  0
VERTEX
  5
24C
  8
1
  6
BYLAYER
 62
  256
 10
204.5838202261684
 20
1589.232732396111
 30
0
  0
VERTEX
  5
24D
  8
1
  6
BYLAYER
 62
  256
 10
203.0428344600563
 20
1597.01654435354
 30
0
  0
VERTEX
  5
24E
  8
1
  6
BYLAYER
 62
  256
 10
200.6615066618909
 20
1608.17516714776
 30
0
  0
VERTEX
  5
24F
  8
1
  6
BYLAYER
 62
  256
 10
197.4937625486991
 20
1621.539648261045
 30
0
  0
VERTEX
  5
250
  8
1
  6
BYLAYER
 62
  256
 10
194.5418183607716
 20
1632.687137658917
 30
0
  0
VERTEX
  5
251
  8
1
  6
BYLAYER
 62
  256
 10
191.2713560829592
 20
1643.798254662751
 30
0
  0
VERTEX
  5
252
  8
1
  6
BYLAYER
 62
  256
 10
365.612692361465
 20
1696.38841301654
 30
0
  0
VERTEX
  5
253
  8
1
  6
BYLAYER
 62
  256
 10
367.9372603538723
 20
1688.931815696211
 30
0
  0
VERTEX
  5
254
  8
1
  6
BYLAYER
 62
  256
 10
368.5401936632594
 20
1687.27066649436
 30
0
  0
VERTEX
  5
255
  8
1
  6
BYLAYER
 62
  256
 10
369.2451625779127
 20
1685.615167483571
 30
0
  0
VERTEX
  5
256
  8
1
  6
BYLAYER
 62
  256
 10
370.0674864200856
 20
1683.939413126499
 30
0
  0
VERTEX
  5
257
  8
1
  6
BYLAYER
 62
  256
 10
371.0114999105934
 20
1682.247887695421
 30
0
  0
VERTEX
  5
258
  8
1
  6
BYLAYER
 62
  256
 10
372.0815868477277
 20
1680.545108873751
 30
0
  0
VERTEX
  5
259
  8
1
  6
BYLAYER
 62
  256
 10
373.2821801208905
 20
1678.835650714685
 30
0
  0
VERTEX
  5
25A
  8
1
  6
BYLAYER
 62
  256
 10
374.6177553653495
 20
1677.124164916215
 30
0
  0
VERTEX
  5
25B
  8
1
  6
BYLAYER
 62
  256
 10
376.0928192931553
 20
1675.415399061295
 30
0
  0
VERTEX
  5
25C
  8
1
  6
BYLAYER
 62
  256
 10
377.7118939569629
 20
1673.714210798812
 30
0
  0
VERTEX
  5
25D
  8
1
  6
BYLAYER
 62
  256
 10
379.4794983339008
 20
1672.025577309819
 30
0
  0
VERTEX
  5
25E
  8
1
  6
BYLAYER
 62
  256
 10
381.4001286437729
 20
1670.35459978638
 30
0
  0
VERTEX
  5
25F
  8
1
  6
BYLAYER
 62
  256
 10
383.4782387402947
 20
1668.70650301535
 30
0
  0
VERTEX
  5
260
  8
1
  6
BYLAYER
 62
  256
 10
385.7182217488051
 20
1667.0866304764
 30
0
  0
VERTEX
  5
261
  8
1
  6
BYLAYER
 62
  256
 10
388.1243938918133
 20
1665.500435609412
 30
0
  0
VERTEX
  5
262
  8
1
  6
BYLAYER
 62
  256
 10
390.7009811734151
 20
1663.953470067887
 30
0
  0
VERTEX
  5
263
  8
1
  6
BYLAYER
 62
  256
 10
393.4521093144153
 20
1662.451369849977
 30
0
  0
VERTEX
  5
264
  8
1
  6
BYLAYER
 62
  256
 10
396.3817970681054
 20
1660.999840194674
 30
0
  0
VERTEX
  5
265
  8
1
  6
BYLAYER
 62
  256
 10
399.4939528218097
 20
1659.604640062265
 30
0
  0
VERTEX
  5
266
  8
1
  6
BYLAYER
 62
  256
 10
402.7923742137666
 20
1658.27156690389
 30
0
  0
VERTEX
  5
267
  8
1
  6
BYLAYER
 62
  256
 10
406.2807503731621
 20
1657.006442284365
 30
0
  0
VERTEX
  5
268
  8
1
  6
BYLAYER
 62
  256
 10
409.9626663213652
 20
1655.815098772743
 30
0
  0
VERTEX
  5
269
  8
1
  6
BYLAYER
 62
  256
 10
413.8416090481843
 20
1654.703368370772
 30
0
  0
VERTEX
  5
26A
  8
1
  6
BYLAYER
 62
  256
 10
417.9209747891024
 20
1653.677072620322
 30
0
  0
VERTEX
  5
26B
  8
1
  6
BYLAYER
 62
  256
 10
422.2040770679505
 20
1652.742014423087
 30
0
  0
VERTEX
  5
26C
  8
1
  6
BYLAYER
 62
  256
 10
426.6941551246551
 20
1651.903971521801
 30
0
  0
VERTEX
  5
26D
  8
1
  6
BYLAYER
 62
  256
 10
431.3943824112137
 20
1651.168691531454
 30
0
  0
VERTEX
  5
26E
  8
1
  6
BYLAYER
 62
  256
 10
436.3078749043032
 20
1650.541888369449
 30
0
  0
VERTEX
  5
26F
  8
1
  6
BYLAYER
 62
  256
 10
441.4376990450855
 20
1650.029239912028
 30
0
  0
VERTEX
  5
270
  8
1
  6
BYLAYER
 62
  256
 10
446.7868791727582
 20
1649.636386696869
 30
0
  0
VERTEX
  5
271
  8
1
  6
BYLAYER
 62
  256
 10
452.3584043665283
 20
1649.36893149506
 30
0
  0
VERTEX
  5
272
  8
1
  6
BYLAYER
 62
  256
 10
458.168795467647
 20
1649.232120283873
 30
0
  0
VERTEX
  5
273
  8
1
  6
BYLAYER
 62
  256
 10
461.1476362804041
 20
1649.220576801771
 30
0
  0
VERTEX
  5
274
  8
1
  6
BYLAYER
 62
  256
 10
464.1264770931614
 20
1649.232120283873
 30
0
  0
VERTEX
  5
275
  8
1
  6
BYLAYER
 62
  256
 10
469.9368681942801
 20
1649.36893149506
 30
0
  0
VERTEX
  5
276
  8
1
  6
BYLAYER
 62
  256
 10
475.5083933880501
 20
1649.636386696869
 30
0
  0
VERTEX
  5
277
  8
1
  6
BYLAYER
 62
  256
 10
480.8575735157229
 20
1650.029239912028
 30
0
  0
VERTEX
  5
278
  8
1
  6
BYLAYER
 62
  256
 10
485.9873976565052
 20
1650.541888369449
 30
0
  0
VERTEX
  5
279
  8
1
  6
BYLAYER
 62
  256
 10
490.9008901495945
 20
1651.168691531454
 30
0
  0
VERTEX
  5
27A
  8
1
  6
BYLAYER
 62
  256
 10
495.6011174361532
 20
1651.903971521801
 30
0
  0
VERTEX
  5
27B
  8
1
  6
BYLAYER
 62
  256
 10
500.0911954928578
 20
1652.742014423087
 30
0
  0
VERTEX
  5
27C
  8
1
  6
BYLAYER
 62
  256
 10
504.374297771706
 20
1653.677072620322
 30
0
  0
VERTEX
  5
27D
  8
1
  6
BYLAYER
 62
  256
 10
508.4536635126241
 20
1654.703368370772
 30
0
  0
VERTEX
  5
27E
  8
1
  6
BYLAYER
 62
  256
 10
512.3326062394432
 20
1655.815098772743
 30
0
  0
VERTEX
  5
27F
  8
1
  6
BYLAYER
 62
  256
 10
516.0145221876462
 20
1657.006442284365
 30
0
  0
VERTEX
  5
280
  8
1
  6
BYLAYER
 62
  256
 10
519.5028983470418
 20
1658.27156690389
 30
0
  0
VERTEX
  5
281
  8
1
  6
BYLAYER
 62
  256
 10
522.8013197389985
 20
1659.604640062264
 30
0
  0
VERTEX
  5
282
  8
1
  6
BYLAYER
 62
  256
 10
525.913475492703
 20
1660.999840194674
 30
0
  0
VERTEX
  5
283
  8
1
  6
BYLAYER
 62
  256
 10
528.843163246393
 20
1662.451369849977
 30
0
  0
VERTEX
  5
284
  8
1
  6
BYLAYER
 62
  256
 10
531.5942913873935
 20
1663.953470067887
 30
0
  0
VERTEX
  5
285
  8
1
  6
BYLAYER
 62
  256
 10
534.170878668995
 20
1665.500435609412
 30
0
  0
VERTEX
  5
286
  8
1
  6
BYLAYER
 62
  256
 10
536.5770508120032
 20
1667.0866304764
 30
0
  0
VERTEX
  5
287
  8
1
  6
BYLAYER
 62
  256
 10
538.8170338205136
 20
1668.70650301535
 30
0
  0
VERTEX
  5
288
  8
1
  6
BYLAYER
 62
  256
 10
540.8951439170356
 20
1670.35459978638
 30
0
  0
VERTEX
  5
289
  8
1
  6
BYLAYER
 62
  256
 10
542.8157742269076
 20
1672.025577309819
 30
0
  0
VERTEX
  5
28A
  8
1
  6
BYLAYER
 62
  256
 10
544.5833786038454
 20
1673.714210798812
 30
0
  0
VERTEX
  5
28B
  8
1
  6
BYLAYER
 62
  256
 10
546.202453267653
 20
1675.415399061295
 30
0
  0
VERTEX
  5
28C
  8
1
  6
BYLAYER
 62
  256
 10
547.6775171954589
 20
1677.124164916215
 30
0
  0
VERTEX
  5
28D
  8
1
  6
BYLAYER
 62
  256
 10
549.0130924399178
 20
1678.835650714685
 30
0
  0
VERTEX
  5
28E
  8
1
  6
BYLAYER
 62
  256
 10
550.2136857130807
 20
1680.545108873751
 30
0
  0
VERTEX
  5
28F
  8
1
  6
BYLAYER
 62
  256
 10
551.283772650215
 20
1682.247887695421
 30
0
  0
VERTEX
  5
290
  8
1
  6
BYLAYER
 62
  256
 10
552.2277861407229
 20
1683.939413126499
 30
0
  0
VERTEX
  5
291
  8
1
  6
BYLAYER
 62
  256
 10
553.0501099828956
 20
1685.615167483571
 30
0
  0
VERTEX
  5
292
  8
1
  6
BYLAYER
 62
  256
 10
553.755078897549
 20
1687.27066649436
 30
0
  0
VERTEX
  5
293
  8
1
  6
BYLAYER
 62
  256
 10
554.3580122069361
 20
1688.931815696211
 30
0
  0
VERTEX
  5
294
  8
1
  6
BYLAYER
 62
  256
 10
556.6825801993434
 20
1696.38841301654
 30
0
  0
VERTEX
  5
295
  8
1
  6
BYLAYER
 62
  256
 10
731.0239164778492
 20
1643.798254662751
 30
0
  0
VERTEX
  5
296
  8
1
  6
BYLAYER
 62
  256
 10
727.753454200037
 20
1632.687137658918
 30
0
  0
VERTEX
  5
297
  8
1
  6
BYLAYER
 62
  256
 10
724.8015100121091
 20
1621.539648261044
 30
0
  0
VERTEX
  5
298
  8
1
  6
BYLAYER
 62
  256
 10
721.6337658989173
 20
1608.17516714776
 30
0
  0
VERTEX
  5
299
  8
1
  6
BYLAYER
 62
  256
 10
719.2524381007521
 20
1597.01654435354
 30
0
  0
VERTEX
  5
29A
  8
1
  6
BYLAYER
 62
  256
 10
717.7114523346399
 20
1589.232732396111
 30
0
  0
VERTEX
  5
29B
  8
1
  6
BYLAYER
 62
  256
 10
716.2363306422557
 20
1581.218709995266
 30
0
  0
VERTEX
  5
29C
  8
1
  6
BYLAYER
 62
  256
 10
714.8550854112769
 20
1573.055250983405
 30
0
  0
VERTEX
  5
29D
  8
1
  6
BYLAYER
 62
  256
 10
713.5941903148714
 20
1564.816227637919
 30
0
  0
VERTEX
  5
29E
  8
1
  6
BYLAYER
 62
  256
 10
712.4799725758909
 20
1556.575983100921
 30
0
  0
VERTEX
  5
29F
  8
1
  6
BYLAYER
 62
  256
 10
711.5385484847806
 20
1548.409564552527
 30
0
  0
VERTEX
  5
2A0
  8
1
  6
BYLAYER
 62
  256
 10
710.7957046532019
 20
1540.393034588352
 30
0
  0
VERTEX
  5
2A1
  8
1
  6
BYLAYER
 62
  256
 10
710.2766864758117
 20
1532.60390792326
 30
0
  0
VERTEX
  5
2A2
  8
1
  6
BYLAYER
 62
  256
 10
710.0049890953796
 20
1525.098841085932
 30
0
  0
VERTEX
  5
2A3
  8
1
  6
BYLAYER
 62
  256
 10
709.9814416296208
 20
1521.507575440925
 30
0
  0
VERTEX
  5
2A4
  8
1
  6
BYLAYER
 62
  256
 10
709.9814416296208
 20
1512.611639717648
 30
0
  0
VERTEX
  5
2A5
  8
1
  6
BYLAYER
 62
  256
 10
710.2313005513485
 20
1498.10435687772
 30
0
  0
VERTEX
  5
2A6
  8
1
  6
BYLAYER
 62
  256
 10
710.6768543135347
 20
1488.151299107084
 30
0
  0
VERTEX
  5
2A7
  8
1
  6
BYLAYER
 62
  256
 10
711.2435841910658
 20
1480.610070431539
 30
0
  0
VERTEX
  5
2A8
  8
1
  6
BYLAYER
 62
  256
 10
711.7388644531845
 20
1475.606837336778
 30
0
  0
VERTEX
  5
2A9
  8
1
  6
BYLAYER
 62
  256
 10
712.3493106943307
 20
1470.621083612621
 30
0
  0
VERTEX
  5
2AA
  8
1
  6
BYLAYER
 62
  256
 10
713.084766208388
 20
1465.684817131162
 30
0
  0
VERTEX
  5
2AB
  8
1
  6
BYLAYER
 62
  256
 10
713.9557814492408
 20
1460.819040198729
 30
0
  0
VERTEX
  5
2AC
  8
1
  6
BYLAYER
 62
  256
 10
714.9724273443366
 20
1456.044824782987
 30
0
  0
VERTEX
  5
2AD
  8
1
  6
BYLAYER
 62
  256
 10
716.1442051502065
 20
1451.383211158206
 30
0
  0
VERTEX
  5
2AE
  8
1
  6
BYLAYER
 62
  256
 10
717.4799591871931
 20
1446.855055868339
 30
0
  0
VERTEX
  5
2AF
  8
1
  6
BYLAYER
 62
  256
 10
718.9878100070979
 20
1442.480811783629
 30
0
  0
VERTEX
  5
2B0
  8
1
  6
BYLAYER
 62
  256
 10
720.6751377096264
 20
1438.280224388837
 30
0
  0
VERTEX
  5
2B1
  8
1
  6
BYLAYER
 62
  256
 10
722.5486606671088
 20
1434.271936960293
 30
0
  0
VERTEX
  5
2B2
  8
1
  6
BYLAYER
 62
  256
 10
724.6146705344502
 20
1430.473018406699
 30
0
  0
VERTEX
  5
2B3
  8
1
  6
BYLAYER
 62
  256
 10
726.8794915658746
 20
1426.898466551798
 30
0
  0
VERTEX
  5
2B4
  8
1
  6
BYLAYER
 62
  256
 10
729.3502155206395
 20
1423.560796728215
 30
0
  0
VERTEX
  5
2B5
  8
1
  6
BYLAYER
 62
  256
 10
732.0520862735347
 20
1420.451031127595
 30
0
  0
VERTEX
  5
2B6
  8
1
  6
BYLAYER
 62
  256
 10
734.2240517683355
 20
1418.304949602112
 30
0
  0
VERTEX
  5
2B7
  8
1
  6
BYLAYER
 62
  256
 10
735.7206142317837
 20
1416.968268592409
 30
0
  0
VERTEX
  5
2B8
  8
1
  6
BYLAYER
 62
  256
 10
737.2974162349401
 20
1415.680461904097
 30
0
  0
VERTEX
  5
2B9
  8
1
  6
BYLAYER
 62
  256
 10
738.9383780493446
 20
1414.458902583622
 30
0
  0
VERTEX
  5
2BA
  8
1
  6
BYLAYER
 62
  256
 10
740.6463111181209
 20
1413.304430354952
 30
0
  0
VERTEX
  5
2BB
  8
1
  6
BYLAYER
 62
  256
 10
742.4242833331025
 20
1412.218032923706
 30
0
  0
VERTEX
  5
2BC
  8
1
  6
BYLAYER
 62
  256
 10
744.275579701804
 20
1411.200899962827
 30
0
  0
VERTEX
  5
2BD
  8
1
  6
BYLAYER
 62
  256
 10
746.2036500791365
 20
1410.254467656639
 30
0
  0
VERTEX
  5
2BE
  8
1
  6
BYLAYER
 62
  256
 10
748.2120476146958
 20
1409.380450187052
 30
0
  0
VERTEX
  5
2BF
  8
1
  6
BYLAYER
 62
  256
 10
750.3043625728006
 20
1408.580855880522
 30
0
  0
VERTEX
  5
2C0
  8
1
  6
BYLAYER
 62
  256
 10
752.4841565656292
 20
1407.857987361386
 30
0
  0
VERTEX
  5
2C1
  8
1
  6
BYLAYER
 62
  256
 10
754.7549019514298
 20
1407.214426697873
 30
0
  0
VERTEX
  5
2C2
  8
1
  6
BYLAYER
 62
  256
 10
757.1199302783205
 20
1406.653007914464
 30
0
  0
VERTEX
  5
2C3
  8
1
  6
BYLAYER
 62
  256
 10
759.582392392619
 20
1406.176780185545
 30
0
  0
VERTEX
  5
2C4
  8
1
  6
BYLAYER
 62
  256
 10
762.1452314221909
 20
1405.788965436268
 30
0
  0
VERTEX
  5
2C5
  8
1
  6
BYLAYER
 62
  256
 10
764.811168520327
 20
1405.492913984192
 30
0
  0
VERTEX
  5
2C6
  8
1
  6
BYLAYER
 62
  256
 10
767.5827001870304
 20
1405.292061369717
 30
0
  0
VERTEX
  5
2C7
  8
1
  6
BYLAYER
 62
  256
 10
770.4824814885393
 20
1405.189165769039
 30
0
  0
VERTEX
  5
2C8
  8
1
  6
BYLAYER
 62
  256
 10
778.9458862804042
 20
1405.139875230615
 30
0
  0
VERTEX
  5
2C9
  8
1
  6
BYLAYER
 62
  256
 10
778.9458862804042
 20
1262.220524242965
 30
0
  0
VERTEX
  5
2CA
  8
1
  6
BYLAYER
 62
  256
 10
778.9458862804042
 20
1059.635524242965
 30
0
  0
VERTEX
  5
2CB
  8
1
  6
BYLAYER
 62
  256
 10
143.3493862804041
 20
1059.635524242965
 30
0
  0
SEQEND
  5
2CC
  8
1
  6
BYLAYER
 62
  256
  0
POLYLINE
  5
2CD
  8
8
  6
BYLAYER
 62
  256
 66
    1
 10
0
 20
0
 30
0
 70
    1
  0
VERTEX
  5
2CE
  8
8
  6
BYLAYER
 62
  256
 10
150.3493862804041
 20
1066.635524242965
 30
0
  0
VERTEX
  5
2CF
  8
8
  6
BYLAYER
 62
  256
 10
150.3493862804041
 20
1262.220524242965
 30
0
  0
VERTEX
  5
2D0
  8
8
  6
BYLAYER
 62
  256
 10
150.3493862804041
 20
1398.180524242965
 30
0
  0
VERTEX
  5
2D1
  8
8
  6
BYLAYER
 62
  256
 10
151.9573219405969
 20
1398.189888797348
 30
0
  0
VERTEX
  5
2D2
  8
8
  6
BYLAYER
 62
  256
 10
155.0897973833187
 20
1398.301041297752
 30
0
  0
VERTEX
  5
2D3
  8
8
  6
BYLAYER
 62
  256
 10
158.1236183966276
 20
1398.520901994165
 30
0
  0
VERTEX
  5
2D4
  8
8
  6
BYLAYER
 62
  256
 10
161.060363451394
 20
1398.847026582194
 30
0
  0
VERTEX
  5
2D5
  8
8
  6
BYLAYER
 62
  256
 10
163.9016110184886
 20
1399.276970757443
 30
0
  0
VERTEX
  5
2D6
  8
8
  6
BYLAYER
 62
  256
 10
166.6489395687822
 20
1399.808290215519
 30
0
  0
VERTEX
  5
2D7
  8
8
  6
BYLAYER
 62
  256
 10
169.3039275731451
 20
1400.438540652026
 30
0
  0
VERTEX
  5
2D8
  8
8
  6
BYLAYER
 62
  256
 10
171.868153502448
 20
1401.165277762572
 30
0
  0
VERTEX
  5
2D9
  8
8
  6
BYLAYER
 62
  256
 10
174.3431958275615
 20
1401.98605724276
 30
0
  0
VERTEX
  5
2DA
  8
8
  6
BYLAYER
 62
  256
 10
176.7306330193564
 20
1402.898434788197
 30
0
  0
VERTEX
  5
2DB
  8
8
  6
BYLAYER
 62
  256
 10
179.0320435487031
 20
1403.899966094488
 30
0
  0
VERTEX
  5
2DC
  8
8
  6
BYLAYER
 62
  256
 10
181.2490058864721
 20
1404.98820685724
 30
0
  0
VERTEX
  5
2DD
  8
8
  6
BYLAYER
 62
  256
 10
183.3830985035344
 20
1406.160712772057
 30
0
  0
VERTEX
  5
2DE
  8
8
  6
BYLAYER
 62
  256
 10
185.4358998707603
 20
1407.415039534546
 30
0
  0
VERTEX
  5
2DF
  8
8
  6
BYLAYER
 62
  256
 10
187.4089884590205
 20
1408.748742840311
 30
0
  0
VERTEX
  5
2E0
  8
8
  6
BYLAYER
 62
  256
 10
189.3039427391856
 20
1410.159378384958
 30
0
  0
VERTEX
  5
2E1
  8
8
  6
BYLAYER
 62
  256
 10
191.1223411821261
 20
1411.644501864094
 30
0
  0
VERTEX
  5
2E2
  8
8
  6
BYLAYER
 62
  256
 10
192.8657622587129
 20
1413.201668973324
 30
0
  0
VERTEX
  5
2E3
  8
8
  6
BYLAYER
 62
  256
 10
195.352643115356
 20
1415.658912919093
 30
0
  0
VERTEX
  5
2E4
  8
8
  6
BYLAYER
 62
  256
 10
198.4085627208534
 20
1419.176177265381
 30
0
  0
VERTEX
  5
2E5
  8
8
  6
BYLAYER
 62
  256
 10
201.1929853366061
 20
1422.937618652946
 30
0
  0
VERTEX
  5
2E6
  8
8
  6
BYLAYER
 62
  256
 10
203.7185387295791
 20
1426.923682646631
 30
0
  0
VERTEX
  5
2E7
  8
8
  6
BYLAYER
 62
  256
 10
205.9978506667373
 20
1431.114814811282
 30
0
  0
VERTEX
  5
2E8
  8
8
  6
BYLAYER
 62
  256
 10
208.0435489150454
 20
1435.491460711743
 30
0
  0
VERTEX
  5
2E9
  8
8
  6
BYLAYER
 62
  256
 10
209.8682612414685
 20
1440.034065912861
 30
0
  0
VERTEX
  5
2EA
  8
8
  6
BYLAYER
 62
  256
 10
211.4846154129712
 20
1444.723075979478
 30
0
  0
VERTEX
  5
2EB
  8
8
  6
BYLAYER
 62
  256
 10
212.9052391965185
 20
1449.53893647644
 30
0
  0
VERTEX
  5
2EC
  8
8
  6
BYLAYER
 62
  256
 10
214.1427603590753
 20
1454.462092968593
 30
0
  0
VERTEX
  5
2ED
  8
8
  6
BYLAYER
 62
  256
 10
215.2098066676064
 20
1459.472991020781
 30
0
  0
VERTEX
  5
2EE
  8
8
  6
BYLAYER
 62
  256
 10
216.1190058890767
 20
1464.552076197849
 30
0
  0
VERTEX
  5
2EF
  8
8
  6
BYLAYER
 62
  256
 10
216.882985790451
 20
1469.679794064642
 30
0
  0
VERTEX
  5
2F0
  8
8
  6
BYLAYER
 62
  256
 10
217.5143741386943
 20
1474.836590186005
 30
0
  0
VERTEX
  5
2F1
  8
8
  6
BYLAYER
 62
  256
 10
218.0257987007713
 20
1480.002910126782
 30
0
  0
VERTEX
  5
2F2
  8
8
  6
BYLAYER
 62
  256
 10
218.6066759811551
 20
1487.732392156008
 30
0
  0
VERTEX
  5
2F3
  8
8
  6
BYLAYER
 62
  256
 10
219.0612755918903
 20
1497.88752173219
 30
0
  0
VERTEX
  5
2F4
  8
8
  6
BYLAYER
 62
  256
 10
219.3138309311876
 20
1512.551363689826
 30
0
  0
VERTEX
  5
2F5
  8
8
  6
BYLAYER
 62
  256
 10
219.3138309311876
 20
1521.530524242965
 30
0
  0
VERTEX
  5
2F6
  8
8
  6
BYLAYER
 62
  256
 10
219.2894529973958
 20
1525.2484460363
 30
0
  0
VERTEX
  5
2F7
  8
8
  6
BYLAYER
 62
  256
 10
219.0101603502225
 20
1532.963316090903
 30
0
  0
VERTEX
  5
2F8
  8
8
  6
BYLAYER
 62
  256
 10
218.4780601725326
 20
1540.94876990176
 30
0
  0
VERTEX
  5
2F9
  8
8
  6
BYLAYER
 62
  256
 10
217.7196375809825
 20
1549.133420796348
 30
0
  0
VERTEX
  5
2FA
  8
8
  6
BYLAYER
 62
  256
 10
216.7613776922287
 20
1557.445882102146
 30
0
  0
VERTEX
  5
2FB
  8
8
  6
BYLAYER
 62
  256
 10
215.6297656229279
 20
1565.814767146634
 30
0
  0
VERTEX
  5
2FC
  8
8
  6
BYLAYER
 62
  256
 10
214.3512864897365
 20
1574.168689257291
 30
0
  0
VERTEX
  5
2FD
  8
8
  6
BYLAYER
 62
  256
 10
212.952425409311
 20
1582.436261761595
 30
0
  0
VERTEX
  5
2FE
  8
8
  6
BYLAYER
 62
  256
 10
211.459667498308
 20
1590.546097987025
 30
0
  0
VERTEX
  5
2FF
  8
8
  6
BYLAYER
 62
  256
 10
209.899497873384
 20
1598.426811261061
 30
0
  0
VERTEX
  5
300
  8
8
  6
BYLAYER
 62
  256
 10
207.4909325303673
 20
1609.713065996198
 30
0
  0
VERTEX
  5
301
  8
8
  6
BYLAYER
 62
  256
 10
204.2839443968718
 20
1623.243114765649
 30
0
  0
VERTEX
  5
302
  8
8
  6
BYLAYER
 62
  256
 10
201.2840415075099
 20
1634.571711624144
 30
0
  0
VERTEX
  5
303
  8
8
  6
BYLAYER
 62
  256
 10
199.9498309311876
 20
1639.104578406263
 30
0
  0
VERTEX
  5
304
  8
8
  6
BYLAYER
 62
  256
 10
360.9941007168972
 20
1687.683669462852
 30
0
  0
VERTEX
  5
305
  8
8
  6
BYLAYER
 62
  256
 10
361.3023693127028
 20
1686.69482560329
 30
0
  0
VERTEX
  5
306
  8
8
  6
BYLAYER
 62
  256
 10
362.0251950923951
 20
1684.703359137067
 30
0
  0
VERTEX
  5
307
  8
8
  6
BYLAYER
 62
  256
 10
362.8783245709122
 20
1682.699930363964
 30
0
  0
VERTEX
  5
308
  8
8
  6
BYLAYER
 62
  256
 10
363.8648215183961
 20
1680.689619494689
 30
0
  0
VERTEX
  5
309
  8
8
  6
BYLAYER
 62
  256
 10
364.9877497049886
 20
1678.67750673995
 30
0
  0
VERTEX
  5
30A
  8
8
  6
BYLAYER
 62
  256
 10
366.2501729008319
 20
1676.668672310457
 30
0
  0
VERTEX
  5
30B
  8
8
  6
BYLAYER
 62
  256
 10
367.6551548760678
 20
1674.668196416917
 30
0
  0
VERTEX
  5
30C
  8
8
  6
BYLAYER
 62
  256
 10
369.2057594008382
 20
1672.681159270041
 30
0
  0
VERTEX
  5
30D
  8
8
  6
BYLAYER
 62
  256
 10
370.9050502452853
 20
1670.712641080536
 30
0
  0
VERTEX
  5
30E
  8
8
  6
BYLAYER
 62
  256
 10
372.7560911795508
 20
1668.767722059111
 30
0
  0
VERTEX
  5
30F
  8
8
  6
BYLAYER
 62
  256
 10
374.7619459737767
 20
1666.851482416474
 30
0
  0
VERTEX
  5
310
  8
8
  6
BYLAYER
 62
  256
 10
376.9256783981051
 20
1664.969002363334
 30
0
  0
VERTEX
  5
311
  8
8
  6
BYLAYER
 62
  256
 10
379.2503522226778
 20
1663.125362110399
 30
0
  0
VERTEX
  5
312
  8
8
  6
BYLAYER
 62
  256
 10
381.7390312176368
 20
1661.32564186838
 30
0
  0
VERTEX
  5
313
  8
8
  6
BYLAYER
 62
  256
 10
384.394779153124
 20
1659.574921847984
 30
0
  0
VERTEX
  5
314
  8
8
  6
BYLAYER
 62
  256
 10
387.2206597992815
 20
1657.87828225992
 30
0
  0
VERTEX
  5
315
  8
8
  6
BYLAYER
 62
  256
 10
390.2197369262511
 20
1656.240803314896
 30
0
  0
VERTEX
  5
316
  8
8
  6
BYLAYER
 62
  256
 10
393.3950743041748
 20
1654.667565223621
 30
0
  0
VERTEX
  5
317
  8
8
  6
BYLAYER
 62
  256
 10
396.7497357031946
 20
1653.163648196804
 30
0
  0
VERTEX
  5
318
  8
8
  6
BYLAYER
 62
  256
 10
400.2867848934524
 20
1651.734132445154
 30
0
  0
VERTEX
  5
319
  8
8
  6
BYLAYER
 62
  256
 10
404.0092856450902
 20
1650.384098179378
 30
0
  0
VERTEX
  5
31A
  8
8
  6
BYLAYER
 62
  256
 10
407.9203017282499
 20
1649.118625610186
 30
0
  0
VERTEX
  5
31B
  8
8
  6
BYLAYER
 62
  256
 10
412.0228969130734
 20
1647.942794948287
 30
0
  0
VERTEX
  5
31C
  8
8
  6
BYLAYER
 62
  256
 10
416.3201349697029
 20
1646.861686404389
 30
0
  0
VERTEX
  5
31D
  8
8
  6
BYLAYER
 62
  256
 10
420.81507966828
 20
1645.8803801892
 30
0
  0
VERTEX
  5
31E
  8
8
  6
BYLAYER
 62
  256
 10
425.5107947789469
 20
1645.003956513429
 30
0
  0
VERTEX
  5
31F
  8
8
  6
BYLAYER
 62
  256
 10
430.4103440718456
 20
1644.237495587786
 30
0
  0
VERTEX
  5
320
  8
8
  6
BYLAYER
 62
  256
 10
435.5167913171178
 20
1643.586077622978
 30
0
  0
VERTEX
  5
321
  8
8
  6
BYLAYER
 62
  256
 10
440.8332002849056
 20
1643.054782829714
 30
0
  0
VERTEX
  5
322
  8
8
  6
BYLAYER
 62
  256
 10
446.362634745351
 20
1642.648691418704
 30
0
  0
VERTEX
  5
323
  8
8
  6
BYLAYER
 62
  256
 10
452.1081584685958
 20
1642.372883600655
 30
0
  0
VERTEX
  5
324
  8
8
  6
BYLAYER
 62
  256
 10
458.0728352247822
 20
1642.232439586276
 30
0
  0
VERTEX
  5
325
  8
8
  6
BYLAYER
 62
  256
 10
461.1476362804041
 20
1642.220524242965
 30
0
  0
VERTEX
  5
326
  8
8
  6
BYLAYER
 62
  256
 10
464.2224373360262
 20
1642.232439586276
 30
0
  0
VERTEX
  5
327
  8
8
  6
BYLAYER
 62
  256
 10
470.1871140922125
 20
1642.372883600655
 30
0
  0
VERTEX
  5
328
  8
8
  6
BYLAYER
 62
  256
 10
475.9326378154574
 20
1642.648691418704
 30
0
  0
VERTEX
  5
329
  8
8
  6
BYLAYER
 62
  256
 10
481.4620722759028
 20
1643.054782829714
 30
0
  0
VERTEX
  5
32A
  8
8
  6
BYLAYER
 62
  256
 10
486.7784812436906
 20
1643.586077622978
 30
0
  0
VERTEX
  5
32B
  8
8
  6
BYLAYER
 62
  256
 10
491.8849284889628
 20
1644.237495587786
 30
0
  0
VERTEX
  5
32C
  8
8
  6
BYLAYER
 62
  256
 10
496.7844777818615
 20
1645.003956513429
 30
0
  0
VERTEX
  5
32D
  8
8
  6
BYLAYER
 62
  256
 10
501.4801928925284
 20
1645.8803801892
 30
0
  0
VERTEX
  5
32E
  8
8
  6
BYLAYER
 62
  256
 10
505.9751375911055
 20
1646.861686404389
 30
0
  0
VERTEX
  5
32F
  8
8
  6
BYLAYER
 62
  256
 10
510.272375647735
 20
1647.942794948287
 30
0
  0
VERTEX
  5
330
  8
8
  6
BYLAYER
 62
  256
 10
514.3749708325585
 20
1649.118625610186
 30
0
  0
VERTEX
  5
331
  8
8
  6
BYLAYER
 62
  256
 10
518.2859869157182
 20
1650.384098179378
 30
0
  0
VERTEX
  5
332
  8
8
  6
BYLAYER
 62
  256
 10
522.008487667356
 20
1651.734132445154
 30
0
  0
VERTEX
  5
333
  8
8
  6
BYLAYER
 62
  256
 10
525.5455368576138
 20
1653.163648196804
 30
0
  0
VERTEX
  5
334
  8
8
  6
BYLAYER
 62
  256
 10
528.9001982566336
 20
1654.667565223621
 30
0
  0
VERTEX
  5
335
  8
8
  6
BYLAYER
 62
  256
 10
532.0755356345574
 20
1656.240803314896
 30
0
  0
VERTEX
  5
336
  8
8
  6
BYLAYER
 62
  256
 10
535.074612761527
 20
1657.87828225992
 30
0
  0
VERTEX
  5
337
  8
8
  6
BYLAYER
 62
  256
 10
537.9004934076844
 20
1659.574921847984
 30
0
  0
VERTEX
  5
338
  8
8
  6
BYLAYER
 62
  256
 10
540.5562413431717
 20
1661.32564186838
 30
0
  0
VERTEX
  5
339
  8
8
  6
BYLAYER
 62
  256
 10
543.0449203381305
 20
1663.125362110399
 30
0
  0
VERTEX
  5
33A
  8
8
  6
BYLAYER
 62
  256
 10
545.3695941627033
 20
1664.969002363334
 30
0
  0
VERTEX
  5
33B
  8
8
  6
BYLAYER
 62
  256
 10
547.5333265870316
 20
1666.851482416474
 30
0
  0
VERTEX
  5
33C
  8
8
  6
BYLAYER
 62
  256
 10
549.5391813812574
 20
1668.767722059111
 30
0
  0
VERTEX
  5
33D
  8
8
  6
BYLAYER
 62
  256
 10
551.390222315523
 20
1670.712641080536
 30
0
  0
VERTEX
  5
33E
  8
8
  6
BYLAYER
 62
  256
 10
553.0895131599701
 20
1672.681159270041
 30
0
  0
VERTEX
  5
33F
  8
8
  6
BYLAYER
 62
  256
 10
554.6401176847406
 20
1674.668196416917
 30
0
  0
VERTEX
  5
340
  8
8
  6
BYLAYER
 62
  256
 10
556.0450996599765
 20
1676.668672310457
 30
0
  0
VERTEX
  5
341
  8
8
  6
BYLAYER
 62
  256
 10
557.3075228558198
 20
1678.67750673995
 30
0
  0
VERTEX
  5
342
  8
8
  6
BYLAYER
 62
  256
 10
558.4304510424123
 20
1680.689619494689
 30
0
  0
VERTEX
  5
343
  8
8
  6
BYLAYER
 62
  256
 10
559.4169479898962
 20
1682.699930363964
 30
0
  0
VERTEX
  5
344
  8
8
  6
BYLAYER
 62
  256
 10
560.2700774684133
 20
1684.703359137067
 30
0
  0
VERTEX
  5
345
  8
8
  6
BYLAYER
 62
  256
 10
560.9929032481056
 20
1686.69482560329
 30
0
  0
VERTEX
  5
346
  8
8
  6
BYLAYER
 62
  256
 10
561.3011718439112
 20
1687.683669462852
 30
0
  0
VERTEX
  5
347
  8
8
  6
BYLAYER
 62
  256
 10
722.3454416296207
 20
1639.104578406263
 30
0
  0
VERTEX
  5
348
  8
8
  6
BYLAYER
 62
  256
 10
721.0112310532985
 20
1634.571711624144
 30
0
  0
VERTEX
  5
349
  8
8
  6
BYLAYER
 62
  256
 10
718.0113281639366
 20
1623.243114765649
 30
0
  0
VERTEX
  5
34A
  8
8
  6
BYLAYER
 62
  256
 10
714.804340030441
 20
1609.713065996198
 30
0
  0
VERTEX
  5
34B
  8
8
  6
BYLAYER
 62
  256
 10
712.3957746874244
 20
1598.426811261061
 30
0
  0
VERTEX
  5
34C
  8
8
  6
BYLAYER
 62
  256
 10
710.8356050625003
 20
1590.546097987025
 30
0
  0
VERTEX
  5
34D
  8
8
  6
BYLAYER
 62
  256
 10
709.3428471514974
 20
1582.436261761595
 30
0
  0
VERTEX
  5
34E
  8
8
  6
BYLAYER
 62
  256
 10
707.943986071072
 20
1574.168689257291
 30
0
  0
VERTEX
  5
34F
  8
8
  6
BYLAYER
 62
  256
 10
706.6655069378804
 20
1565.814767146634
 30
0
  0
VERTEX
  5
350
  8
8
  6
BYLAYER
 62
  256
 10
705.5338948685796
 20
1557.445882102146
 30
0
  0
VERTEX
  5
351
  8
8
  6
BYLAYER
 62
  256
 10
704.5756349798257
 20
1549.133420796348
 30
0
  0
VERTEX
  5
352
  8
8
  6
BYLAYER
 62
  256
 10
703.8172123882757
 20
1540.94876990176
 30
0
  0
VERTEX
  5
353
  8
8
  6
BYLAYER
 62
  256
 10
703.2851122105858
 20
1532.963316090903
 30
0
  0
VERTEX
  5
354
  8
8
  6
BYLAYER
 62
  256
 10
703.0058195634126
 20
1525.2484460363
 30
0
  0
VERTEX
  5
355
  8
8
  6
BYLAYER
 62
  256
 10
702.9814416296207
 20
1521.530524242965
 30
0
  0
VERTEX
  5
356
  8
8
  6
BYLAYER
 62
  256
 10
702.9814416296207
 20
1512.551363689826
 30
0
  0
VERTEX
  5
357
  8
8
  6
BYLAYER
 62
  256
 10
703.2339969689181
 20
1497.88752173219
 30
0
  0
VERTEX
  5
358
  8
8
  6
BYLAYER
 62
  256
 10
703.6885965796532
 20
1487.732392156008
 30
0
  0
VERTEX
  5
359
  8
8
  6
BYLAYER
 62
  256
 10
704.269473860037
 20
1480.002910126782
 30
0
  0
VERTEX
  5
35A
  8
8
  6
BYLAYER
 62
  256
 10
704.780898422114
 20
1474.836590186005
 30
0
  0
VERTEX
  5
35B
  8
8
  6
BYLAYER
 62
  256
 10
705.4122867703574
 20
1469.679794064642
 30
0
  0
VERTEX
  5
35C
  8
8
  6
BYLAYER
 62
  256
 10
706.1762666717317
 20
1464.552076197849
 30
0
  0
VERTEX
  5
35D
  8
8
  6
BYLAYER
 62
  256
 10
707.085465893202
 20
1459.472991020781
 30
0
  0
VERTEX
  5
35E
  8
8
  6
BYLAYER
 62
  256
 10
708.1525122017331
 20
1454.462092968593
 30
0
  0
VERTEX
  5
35F
  8
8
  6
BYLAYER
 62
  256
 10
709.3900333642898
 20
1449.53893647644
 30
0
  0
VERTEX
  5
360
  8
8
  6
BYLAYER
 62
  256
 10
710.8106571478372
 20
1444.723075979478
 30
0
  0
VERTEX
  5
361
  8
8
  6
BYLAYER
 62
  256
 10
712.42701131934
 20
1440.034065912861
 30
0
  0
VERTEX
  5
362
  8
8
  6
BYLAYER
 62
  256
 10
714.2517236457629
 20
1435.491460711743
 30
0
  0
VERTEX
  5
363
  8
8
  6
BYLAYER
 62
  256
 10
716.2974218940711
 20
1431.114814811282
 30
0
  0
VERTEX
  5
364
  8
8
  6
BYLAYER
 62
  256
 10
718.5767338312293
 20
1426.923682646631
 30
0
  0
VERTEX
  5
365
  8
8
  6
BYLAYER
 62
  256
 10
721.1022872242022
 20
1422.937618652946
 30
0
  0
VERTEX
  5
366
  8
8
  6
BYLAYER
 62
  256
 10
723.886709839955
 20
1419.176177265381
 30
0
  0
VERTEX
  5
367
  8
8
  6
BYLAYER
 62
  256
 10
726.9426294454524
 20
1415.658912919093
 30
0
  0
VERTEX
  5
368
  8
8
  6
BYLAYER
 62
  256
 10
729.4295103020955
 20
1413.201668973324
 30
0
  0
VERTEX
  5
369
  8
8
  6
BYLAYER
 62
  256
 10
731.1729313786822
 20
1411.644501864094
 30
0
  0
VERTEX
  5
36A
  8
8
  6
BYLAYER
 62
  256
 10
732.9913298216228
 20
1410.159378384958
 30
0
  0
VERTEX
  5
36B
  8
8
  6
BYLAYER
 62
  256
 10
734.886284101788
 20
1408.748742840311
 30
0
  0
VERTEX
  5
36C
  8
8
  6
BYLAYER
 62
  256
 10
736.8593726900482
 20
1407.415039534546
 30
0
  0
VERTEX
  5
36D
  8
8
  6
BYLAYER
 62
  256
 10
738.912174057274
 20
1406.160712772057
 30
0
  0
VERTEX
  5
36E
  8
8
  6
BYLAYER
 62
  256
 10
741.0462666743363
 20
1404.98820685724
 30
0
  0
VERTEX
  5
36F
  8
8
  6
BYLAYER
 62
  256
 10
743.2632290121054
 20
1403.899966094488
 30
0
  0
VERTEX
  5
370
  8
8
  6
BYLAYER
 62
  256
 10
745.5646395414519
 20
1402.898434788197
 30
0
  0
VERTEX
  5
371
  8
8
  6
BYLAYER
 62
  256
 10
747.9520767332468
 20
1401.98605724276
 30
0
  0
VERTEX
  5
372
  8
8
  6
BYLAYER
 62
  256
 10
750.4271190583603
 20
1401.165277762572
 30
0
  0
VERTEX
  5
373
  8
8
  6
BYLAYER
 62
  256
 10
752.9913449876633
 20
1400.438540652026
 30
0
  0
VERTEX
  5
374
  8
8
  6
BYLAYER
 62
  256
 10
755.6463329920261
 20
1399.808290215519
 30
0
  0
VERTEX
  5
375
  8
8
  6
BYLAYER
 62
  256
 10
758.3936615423196
 20
1399.276970757443
 30
0
  0
VERTEX
  5
376
  8
8
  6
BYLAYER
 62
  256
 10
761.2349091094144
 20
1398.847026582194
 30
0
  0
VERTEX
  5
377
  8
8
  6
BYLAYER
 62
  256
 10
764.1716541641808
 20
1398.520901994165
 30
0
  0
VERTEX
  5
378
  8
8
  6
BYLAYER
 62
  256
 10
767.2054751774897
 20
1398.301041297752
 30
0
  0
VERTEX
  5
379
  8
8
  6
BYLAYER
 62
  256
 10
770.3379506202115
 20
1398.189888797348
 30
0
  0
VERTEX
  5
37A
  8
8
  6
BYLAYER
 62
  256
 10
771.9458862804044
 20
1398.180524242965
 30
0
  0
VERTEX
  5
37B
  8
8
  6
BYLAYER
 62
  256
 10
771.9458862804044
 20
1262.220524242965
 30
0
  0
VERTEX
  5
37C
  8
8
  6
BYLAYER
 62
  256
 10
771.9458862804044
 20
1066.635524242965
 30
0
  0
SEQEND
  5
37D
  8
8
  6
BYLAYER
 62
  256
  0
POLYLINE
  5
37E
  8
8
  6
BYLAYER
 62
  256
 66
    1
 10
0
 20
0
 30
0
 70
    0
  0
VERTEX
  5
37F
  8
8
  6
BYLAYER
 62
  256
 10
187.0268993569225
 20
1066.635524242965
 30
0
  0
VERTEX
  5
380
  8
8
  6
BYLAYER
 62
  256
 10
187.0268993569225
 20
1066.635524242965
 30
0
  0
VERTEX
  5
381
  8
8
  6
BYLAYER
 62
  256
 10
187.0726845210915
 20
1067.5016912349
 30
0
  0
VERTEX
  5
382
  8
8
  6
BYLAYER
 62
  256
 10
187.7026540622598
 20
1075.65982645684
 30
0
  0
VERTEX
  5
383
  8
8
  6
BYLAYER
 62
  256
 10
188.197636280404
 20
1081.020524242965
 30
0
  0
VERTEX
  5
384
  8
8
  6
BYLAYER
 62
  256
 10
188.4879996094148
 20
1083.988437326062
 30
0
  0
VERTEX
  5
385
  8
8
  6
BYLAYER
 62
  256
 10
189.2137428406802
 20
1089.939699334403
 30
0
  0
VERTEX
  5
386
  8
8
  6
BYLAYER
 62
  256
 10
190.092228357593
 20
1095.900681811162
 30
0
  0
VERTEX
  5
387
  8
8
  6
BYLAYER
 62
  256
 10
191.0998143798815
 20
1101.86160415394
 30
0
  0
VERTEX
  5
388
  8
8
  6
BYLAYER
 62
  256
 10
192.7927909597115
 20
1110.78454380414
 30
0
  0
VERTEX
  5
389
  8
8
  6
BYLAYER
 62
  256
 10
195.2988646732778
 20
1122.588660457019
 30
0
  0
VERTEX
  5
38A
  8
8
  6
BYLAYER
 62
  256
 10
196.5976362804041
 20
1128.420524242965
 30
0
  0
VERTEX
  5
38B
  8
8
  6
BYLAYER
 62
  256
 10
197.2727653542292
 20
1131.379147471529
 30
0
  0
VERTEX
  5
38C
  8
8
  6
BYLAYER
 62
  256
 10
198.7476849168995
 20
1137.298943863781
 30
0
  0
VERTEX
  5
38D
  8
8
  6
BYLAYER
 62
  256
 10
201.1548114655396
 20
1146.180645570523
 30
0
  0
VERTEX
  5
38E
  8
8
  6
BYLAYER
 62
  256
 10
204.5526385774079
 20
1158.016148301164
 30
0
  0
VERTEX
  5
38F
  8
8
  6
BYLAYER
 62
  256
 10
207.8547610122082
 20
1169.829231709279
 30
0
  0
VERTEX
  5
390
  8
8
  6
BYLAYER
 62
  256
 10
209.3476362804041
 20
1175.720524242965
 30
0
  0
VERTEX
  5
391
  8
8
  6
BYLAYER
 62
  256
 10
210.6828819517153
 20
1181.060105187639
 30
0
  0
VERTEX
  5
392
  8
8
  6
BYLAYER
 62
  256
 10
213.5428258934633
 20
1191.771190704964
 30
0
  0
VERTEX
  5
393
  8
8
  6
BYLAYER
 62
  256
 10
218.0214164147327
 20
1207.902113422493
 30
0
  0
VERTEX
  5
394
  8
8
  6
BYLAYER
 62
  256
 10
222.3300970292035
 20
1224.119118163206
 30
0
  0
VERTEX
  5
395
  8
8
  6
BYLAYER
 62
  256
 10
224.9181851200737
 20
1234.967934917625
 30
0
  0
VERTEX
  5
396
  8
8
  6
BYLAYER
 62
  256
 10
226.6048881720573
 20
1243.125495047729
 30
0
  0
VERTEX
  5
397
  8
8
  6
BYLAYER
 62
  256
 10
227.5941797221426
 20
1248.572397486011
 30
0
  0
VERTEX
  5
398
  8
8
  6
BYLAYER
 62
  256
 10
228.4511259527706
 20
1254.026394242119
 30
0
  0
VERTEX
  5
399
  8
8
  6
BYLAYER
 62
  256
 10
229.160346286771
 20
1259.487283464788
 30
0
  0
VERTEX
  5
39A
  8
8
  6
BYLAYER
 62
  256
 10
229.4476362804041
 20
1262.220524242965
 30
0
  0
VERTEX
  5
39B
  8
8
  6
BYLAYER
 62
  256
 10
229.6930452187892
 20
1264.786017814606
 30
0
  0
VERTEX
  5
39C
  8
8
  6
BYLAYER
 62
  256
 10
230.0814970371582
 20
1269.939196311971
 30
0
  0
VERTEX
  5
39D
  8
8
  6
BYLAYER
 62
  256
 10
230.3536177487028
 20
1275.115695550535
 30
0
  0
VERTEX
  5
39E
  8
8
  6
BYLAYER
 62
  256
 10
230.5166386459304
 20
1280.311838992854
 30
0
  0
VERTEX
  5
39F
  8
8
  6
BYLAYER
 62
  256
 10
230.5838039901685
 20
1288.133538005193
 30
0
  0
VERTEX
  5
3A0
  8
8
  6
BYLAYER
 62
  256
 10
230.3420224088107
 20
1298.599571663016
 30
0
  0
VERTEX
  5
3A1
  8
8
  6
BYLAYER
 62
  256
 10
229.7940048353188
 20
1309.078004461845
 30
0
  0
VERTEX
  5
3A2
  8
8
  6
BYLAYER
 62
  256
 10
228.997601609752
 20
1319.539424102118
 30
0
  0
VERTEX
  5
3A3
  8
8
  6
BYLAYER
 62
  256
 10
228.01066307217
 20
1329.954418284277
 30
0
  0
VERTEX
  5
3A4
  8
8
  6
BYLAYER
 62
  256
 10
226.8910395626322
 20
1340.293574708758
 30
0
  0
VERTEX
  5
3A5
  8
8
  6
BYLAYER
 62
  256
 10
226.2976362804041
 20
1345.420524242965
 30
0
  0
VERTEX
  5
3A6
  8
8
  6
BYLAYER
 62
  256
 10
225.8771030156745
 20
1348.744726206447
 30
0
  0
VERTEX
  5
3A7
  8
8
  6
BYLAYER
 62
  256
 10
224.7470147257686
 20
1355.378945170413
 30
0
  0
VERTEX
  5
3A8
  8
8
  6
BYLAYER
 62
  256
 10
223.3328206378401
 20
1361.99526515239
 30
0
  0
VERTEX
  5
3A9
  8
8
  6
BYLAYER
 62
  256
 10
221.7042099902375
 20
1368.592711678614
 30
0
  0
VERTEX
  5
3AA
  8
8
  6
BYLAYER
 62
  256
 10
219.0167323613065
 20
1378.454025782074
 30
0
  0
VERTEX
  5
3AB
  8
8
  6
BYLAYER
 62
  256
 10
215.3092825682347
 20
1391.523984414826
 30
0
  0
VERTEX
  5
3AC
  8
8
  6
BYLAYER
 62
  256
 10
213.5976362804042
 20
1398.020524242965
 30
0
  0
VERTEX
  5
3AD
  8
8
  6
BYLAYER
 62
  256
 10
213.2294617612046
 20
1399.417917754052
 30
0
  0
VERTEX
  5
3AE
  8
8
  6
BYLAYER
 62
  256
 10
212.3896235372899
 20
1402.210403811406
 30
0
  0
VERTEX
  5
3AF
  8
8
  6
BYLAYER
 62
  256
 10
210.9549261080551
 20
1406.396062455516
 30
0
  0
VERTEX
  5
3B0
  8
8
  6
BYLAYER
 62
  256
 10
207.7046809292469
 20
1414.76715168274
 30
0
  0
VERTEX
  5
3B1
  8
8
  6
BYLAYER
 62
  256
 10
204.5589823453561
 20
1423.166585536124
 30
0
  0
VERTEX
  5
3B2
  8
8
  6
BYLAYER
 62
  256
 10
203.4971165281339
 20
1426.574213470078
 30
0
  0
VERTEX
  5
3B3
  8
8
  6
BYLAYER
 62
  256
 10
203.4971165281339
 20
1426.574213470078
 30
0
  0
SEQEND
  5
3B4
  8
8
  6
BYLAYER
 62
  256
  0
POLYLINE
  5
3B5
  8
8
  6
BYLAYER
 62
  256
 66
    1
 10
0
 20
0
 30
0
 70
    0
  0
VERTEX
  5
3B6
  8
8
  6
BYLAYER
 62
  256
 10
735.2683732038859
 20
1066.635524242965
 30
0
  0
VERTEX
  5
3B7
  8
8
  6
BYLAYER
 62
  256
 10
735.2683732038859
 20
1066.635524242965
 30
0
  0
VERTEX
  5
3B8
  8
8
  6
BYLAYER
 62
  256
 10
735.2225880397169
 20
1067.5016912349
 30
0
  0
VERTEX
  5
3B9
  8
8
  6
BYLAYER
 62
  256
 10
734.5926184985485
 20
1075.65982645684
 30
0
  0
VERTEX
  5
3BA
  8
8
  6
BYLAYER
 62
  256
 10
734.0976362804043
 20
1081.020524242965
 30
0
  0
VERTEX
  5
3BB
  8
8
  6
BYLAYER
 62
  256
 10
733.8072729513937
 20
1083.988437326062
 30
0
  0
VERTEX
  5
3BC
  8
8
  6
BYLAYER
 62
  256
 10
733.0815297201283
 20
1089.939699334403
 30
0
  0
VERTEX
  5
3BD
  8
8
  6
BYLAYER
 62
  256
 10
732.2030442032153
 20
1095.900681811162
 30
0
  0
VERTEX
  5
3BE
  8
8
  6
BYLAYER
 62
  256
 10
731.1954581809269
 20
1101.86160415394
 30
0
  0
VERTEX
  5
3BF
  8
8
  6
BYLAYER
 62
  256
 10
729.5024816010969
 20
1110.78454380414
 30
0
  0
VERTEX
  5
3C0
  8
8
  6
BYLAYER
 62
  256
 10
726.9964078875305
 20
1122.588660457019
 30
0
  0
VERTEX
  5
3C1
  8
8
  6
BYLAYER
 62
  256
 10
725.6976362804041
 20
1128.420524242965
 30
0
  0
VERTEX
  5
3C2
  8
8
  6
BYLAYER
 62
  256
 10
725.0225072065792
 20
1131.379147471529
 30
0
  0
VERTEX
  5
3C3
  8
8
  6
BYLAYER
 62
  256
 10
723.5475876439087
 20
1137.298943863781
 30
0
  0
VERTEX
  5
3C4
  8
8
  6
BYLAYER
 62
  256
 10
721.1404610952688
 20
1146.180645570523
 30
0
  0
VERTEX
  5
3C5
  8
8
  6
BYLAYER
 62
  256
 10
717.7426339834004
 20
1158.016148301164
 30
0
  0
VERTEX
  5
3C6
  8
8
  6
BYLAYER
 62
  256
 10
714.4405115486002
 20
1169.829231709279
 30
0
  0
VERTEX
  5
3C7
  8
8
  6
BYLAYER
 62
  256
 10
712.9476362804043
 20
1175.720524242965
 30
0
  0
VERTEX
  5
3C8
  8
8
  6
BYLAYER
 62
  256
 10
711.612390609093
 20
1181.060105187639
 30
0
  0
VERTEX
  5
3C9
  8
8
  6
BYLAYER
 62
  256
 10
708.7524466673451
 20
1191.771190704964
 30
0
  0
VERTEX
  5
3CA
  8
8
  6
BYLAYER
 62
  256
 10
704.2738561460757
 20
1207.902113422493
 30
0
  0
VERTEX
  5
3CB
  8
8
  6
BYLAYER
 62
  256
 10
699.9651755316049
 20
1224.119118163206
 30
0
  0
VERTEX
  5
3CC
  8
8
  6
BYLAYER
 62
  256
 10
697.3770874407346
 20
1234.967934917625
 30
0
  0
VERTEX
  5
3CD
  8
8
  6
BYLAYER
 62
  256
 10
695.6903843887509
 20
1243.125495047729
 30
0
  0
VERTEX
  5
3CE
  8
8
  6
BYLAYER
 62
  256
 10
694.7010928386658
 20
1248.572397486011
 30
0
  0
VERTEX
  5
3CF
  8
8
  6
BYLAYER
 62
  256
 10
693.8441466080377
 20
1254.026394242119
 30
0
  0
VERTEX
  5
3D0
  8
8
  6
BYLAYER
 62
  256
 10
693.1349262740373
 20
1259.487283464788
 30
0
  0
VERTEX
  5
3D1
  8
8
  6
BYLAYER
 62
  256
 10
692.8476362804042
 20
1262.220524242965
 30
0
  0
VERTEX
  5
3D2
  8
8
  6
BYLAYER
 62
  256
 10
692.6022273420192
 20
1264.786017814606
 30
0
  0
VERTEX
  5
3D3
  8
8
  6
BYLAYER
 62
  256
 10
692.21377552365
 20
1269.939196311971
 30
0
  0
VERTEX
  5
3D4
  8
8
  6
BYLAYER
 62
  256
 10
691.9416548121055
 20
1275.115695550535
 30
0
  0
VERTEX
  5
3D5
  8
8
  6
BYLAYER
 62
  256
 10
691.778633914878
 20
1280.311838992854
 30
0
  0
VERTEX
  5
3D6
  8
8
  6
BYLAYER
 62
  256
 10
691.71146857064
 20
1288.133538005193
 30
0
  0
VERTEX
  5
3D7
  8
8
  6
BYLAYER
 62
  256
 10
691.9532501519977
 20
1298.599571663016
 30
0
  0
VERTEX
  5
3D8
  8
8
  6
BYLAYER
 62
  256
 10
692.5012677254896
 20
1309.078004461845
 30
0
  0
VERTEX
  5
3D9
  8
8
  6
BYLAYER
 62
  256
 10
693.2976709510564
 20
1319.539424102118
 30
0
  0
VERTEX
  5
3DA
  8
8
  6
BYLAYER
 62
  256
 10
694.2846094886384
 20
1329.954418284277
 30
0
  0
VERTEX
  5
3DB
  8
8
  6
BYLAYER
 62
  256
 10
695.4042329981762
 20
1340.293574708758
 30
0
  0
VERTEX
  5
3DC
  8
8
  6
BYLAYER
 62
  256
 10
695.9976362804042
 20
1345.420524242965
 30
0
  0
VERTEX
  5
3DD
  8
8
  6
BYLAYER
 62
  256
 10
696.4181695451339
 20
1348.744726206447
 30
0
  0
VERTEX
  5
3DE
  8
8
  6
BYLAYER
 62
  256
 10
697.5482578350397
 20
1355.378945170413
 30
0
  0
VERTEX
  5
3DF
  8
8
  6
BYLAYER
 62
  256
 10
698.9624519229682
 20
1361.99526515239
 30
0
  0
VERTEX
  5
3E0
  8
8
  6
BYLAYER
 62
  256
 10
700.5910625705709
 20
1368.592711678614
 30
0
  0
VERTEX
  5
3E1
  8
8
  6
BYLAYER
 62
  256
 10
703.2785401995019
 20
1378.454025782074
 30
0
  0
VERTEX
  5
3E2
  8
8
  6
BYLAYER
 62
  256
 10
706.9859899925736
 20
1391.523984414826
 30
0
  0
VERTEX
  5
3E3
  8
8
  6
BYLAYER
 62
  256
 10
708.6976362804041
 20
1398.020524242965
 30
0
  0
VERTEX
  5
3E4
  8
8
  6
BYLAYER
 62
  256
 10
709.0658107996037
 20
1399.417917754052
 30
0
  0
VERTEX
  5
3E5
  8
8
  6
BYLAYER
 62
  256
 10
709.9056490235184
 20
1402.210403811406
 30
0
  0
VERTEX
  5
3E6
  8
8
  6
BYLAYER
 62
  256
 10
711.3403464527532
 20
1406.396062455516
 30
0
  0
VERTEX
  5
3E7
  8
8
  6
BYLAYER
 62
  256
 10
714.5905916315614
 20
1414.76715168274
 30
0
  0
VERTEX
  5
3E8
  8
8
  6
BYLAYER
 62
  256
 10
717.7362902154523
 20
1423.166585536124
 30
0
  0
VERTEX
  5
3E9
  8
8
  6
BYLAYER
 62
  256
 10
718.7981560326746
 20
1426.574213470078
 30
0
  0
VERTEX
  5
3EA
  8
8
  6
BYLAYER
 62
  256
 10
718.7981560326746
 20
1426.574213470078
 30
0
  0
SEQEND
  5
3EB
  8
8
  6
BYLAYER
 62
  256
  0
POLYLINE
  5
3EC
  8
8
  6
BYLAYER
 62
  256
 66
    1
 10
0
 20
0
 30
0
 70
    0
  0
VERTEX
  5
3ED
  8
8
  6
BYLAYER
 62
  256
 10
213.5976362804042
 20
1398.020524242965
 30
0
  0
VERTEX
  5
3EE
  8
8
  6
BYLAYER
 62
  256
 10
708.6976362804041
 20
1398.020524242965
 30
0
  0
SEQEND
  5
3EF
  8
8
  6
BYLAYER
 62
  256
  0
POLYLINE
  5
3F0
  8
8
  6
BYLAYER
 62
  256
 66
    1
 10
0
 20
0
 30
0
 70
    0
  0
VERTEX
  5
3F1
  8
8
  6
BYLAYER
 62
  256
 10
229.4476362804041
 20
1262.220524242965
 30
0
  0
VERTEX
  5
3F2
  8
8
  6
BYLAYER
 62
  256
 10
692.8476362804042
 20
1262.220524242965
 30
0
  0
SEQEND
  5
3F3
  8
8
  6
BYLAYER
 62
  256
  0
LINE
  5
3F4
  8
7
  6
BYLAYER
 62
  256
 10
461.1476362804041
 20
1066.635524242965
 11
461.1476362804042
 21
1642.220524242965
  0
TEXT
  5
3F5
  8
1
  6
BYLAYER
 62
  256
 10
411.1476362804041
 20
1430.520524242965
 30
0
 40
2.5
  1
Piece Name: Sweatshirt Back
 50
0
 41
1
 51
0
  7
STANDARD
 71
    0
210
0
220
0
230
1
  0
TEXT
  5
3F6
  8
1
  6
BYLAYER
 62
  256
 10
411.1476362804041
 20
1428.020524242965
 30
0
 40
2.5
  1
File Name: GBlock-201-Sweatshirt-Parametric-Scalable-V4-Hood-SG-EXTRA
 50
0
 41
1
 51
0
  7
STANDARD
 71
    0
210
0
220
0
230
1
  0
TEXT
  5
3F7
  8
1
  6
BYLAYER
 62
  256
 10
411.1476362804041
 20
1425.520524242965
 30
0
 40
2.5
  1
Measurement Name: SG-EXTRA
 50
0
 41
1
 51
0
  7
STANDARD
 71
    0
210
0
220
0
230
1
  0
TEXT
  5
3F8
  8
1
  6
BYLAYER
 62
  256
 10
411.1476362804041
 20
1423.020524242965
 30
0
 40
2.5
  1
Date: 03-20-2026
 50
0
 41
1
 51
0
  7
STANDARD
 71
    0
210
0
220
0
230
1
  0
ENDBLK
  8
1
  0
BLOCK
  8
1
  2
COLLAR
 70
    0
 10
0
 20
0
  3
COLLAR
  1

  0
POLYLINE
  5
3F9
  8
1
  6
BYLAYER
 62
  256
 66
    1
 10
0
 20
0
 30
0
 70
    1
  0
VERTEX
  5
3FA
  8
1
  6
BYLAYER
 62
  256
 10
314.0684043998957
 20
2291.099753061319
 30
0
  0
VERTEX
  5
3FB
  8
1
  6
BYLAYER
 62
  256
 10
200.2391324049929
 20
1913.74497778765
 30
0
  0
VERTEX
  5
3FC
  8
1
  6
BYLAYER
 62
  256
 10
138.9661552874997
 20
1932.228004465096
 30
0
  0
VERTEX
  5
3FD
  8
1
  6
BYLAYER
 62
  256
 10
252.7954272824025
 20
2309.582779738764
 30
0
  0
VERTEX
  5
3FE
  8
1
  6
BYLAYER
 62
  256
 10
314.0684043998957
 20
2291.099753061319
 30
0
  0
SEQEND
  5
3FF
  8
1
  6
BYLAYER
 62
  256
  0
POLYLINE
  5
400
  8
8
  6
BYLAYER
 62
  256
 66
    1
 10
0
 20
0
 30
0
 70
    1
  0
VERTEX
  5
401
  8
8
  6
BYLAYER
 62
  256
 10
196.4253734511179
 20
1925.340461505104
 30
0
  0
VERTEX
  5
402
  8
8
  6
BYLAYER
 62
  256
 10
148.5558600780763
 20
1939.780326096859
 30
0
  0
VERTEX
  5
403
  8
8
  6
BYLAYER
 62
  256
 10
256.6091862362775
 20
2297.987296021311
 30
0
  0
VERTEX
  5
404
  8
8
  6
BYLAYER
 62
  256
 10
304.478699609319
 20
2283.547431429557
 30
0
  0
SEQEND
  5
405
  8
8
  6
BYLAYER
 62
  256
  0
POLYLINE
  5
406
  8
8
  6
BYLAYER
 62
  256
 66
    1
 10
0
 20
0
 30
0
 70
    0
  0
VERTEX
  5
407
  8
8
  6
BYLAYER
 62
  256
 10
172.4906167645971
 20
1932.560393800982
 30
0
  0
VERTEX
  5
408
  8
8
  6
BYLAYER
 62
  256
 10
280.5439429227982
 20
2290.767363725433
 30
0
  0
SEQEND
  5
409
  8
8
  6
BYLAYER
 62
  256
  0
LINE
  5
40A
  8
7
  6
BYLAYER
 62
  256
 10
225.1892271485942
 20
2194.285245432135
 11
273.2541438752245
 21
2179.786437313117
  0
TEXT
  5
40B
  8
1
  6
BYLAYER
 62
  256
 10
217.0223877489311
 20
2174.253324432127
 30
0
 40
2.5
  1
Piece Name: Collar
 50
0
 41
1
 51
0
  7
STANDARD
 71
    0
210
0
220
0
230
1
  0
TEXT
  5
40C
  8
1
  6
BYLAYER
 62
  256
 10
217.0223877489311
 20
2171.753324432126
 30
0
 40
2.5
  1
File Name: GBlock-201-Sweatshirt-Parametric-Scalable-V4-Hood-SG-EXTRA
 50
0
 41
1
 51
0
  7
STANDARD
 71
    0
210
0
220
0
230
1
  0
TEXT
  5
40D
  8
1
  6
BYLAYER
 62
  256
 10
217.0223877489311
 20
2169.253324432126
 30
0
 40
2.5
  1
Measurement Name: SG-EXTRA
 50
0
 41
1
 51
0
  7
STANDARD
 71
    0
210
0
220
0
230
1
  0
TEXT
  5
40E
  8
1
  6
BYLAYER
 62
  256
 10
217.0223877489311
 20
2166.753324432126
 30
0
 40
2.5
  1
Date: 03-20-2026
 50
0
 41
1
 51
0
  7
STANDARD
 71
    0
210
0
220
0
230
1
  0
ENDBLK
  8
1
  0
BLOCK
  8
1
  2
RIB_CUFF
 70
    0
 10
0
 20
0
  3
RIB_CUFF
  1

  0
POLYLINE
  5
40F
  8
1
  6
BYLAYER
 62
  256
 66
    1
 10
0
 20
0
 30
0
 70
    1
  0
VERTEX
  5
410
  8
1
  6
BYLAYER
 62
  256
 10
123.6102772872415
 20
1881.25827190915
 30
0
  0
VERTEX
  5
411
  8
1
  6
BYLAYER
 62
  256
 10
261.4744758016012
 20
1922.845081933402
 30
0
  0
VERTEX
  5
412
  8
1
  6
BYLAYER
 62
  256
 10
326.9893110834214
 20
1705.657222329329
 30
0
  0
VERTEX
  5
413
  8
1
  6
BYLAYER
 62
  256
 10
189.1251125690616
 20
1664.070412305078
 30
0
  0
VERTEX
  5
414
  8
1
  6
BYLAYER
 62
  256
 10
123.6102772872415
 20
1881.25827190915
 30
0
  0
SEQEND
  5
415
  8
1
  6
BYLAYER
 62
  256
  0
POLYLINE
  5
416
  8
8
  6
BYLAYER
 62
  256
 66
    1
 10
0
 20
0
 30
0
 70
    1
  0
VERTEX
  5
417
  8
8
  6
BYLAYER
 62
  256
 10
257.6607168477262
 20
1911.249598215948
 30
0
  0
VERTEX
  5
418
  8
8
  6
BYLAYER
 62
  256
 10
317.3996062928446
 20
1713.209543961092
 30
0
  0
VERTEX
  5
419
  8
8
  6
BYLAYER
 62
  256
 10
192.9388715229365
 20
1675.665896022532
 30
0
  0
VERTEX
  5
41A
  8
8
  6
BYLAYER
 62
  256
 10
133.1999820778181
 20
1873.705950277388
 30
0
  0
SEQEND
  5
41B
  8
8
  6
BYLAYER
 62
  256
  0
POLYLINE
  5
41C
  8
8
  6
BYLAYER
 62
  256
 66
    1
 10
0
 20
0
 30
0
 70
    0
  0
VERTEX
  5
41D
  8
8
  6
BYLAYER
 62
  256
 10
255.1692389078905
 20
1694.437719991812
 30
0
  0
VERTEX
  5
41E
  8
8
  6
BYLAYER
 62
  256
 10
195.430349462772
 20
1892.477774246668
 30
0
  0
SEQEND
  5
41F
  8
8
  6
BYLAYER
 62
  256
  0
LINE
  5
420
  8
7
  6
BYLAYER
 62
  256
 10
148.0220128191168
 20
1836.373979212548
 11
243.7610395651999
 21
1865.253708396056
  0
TEXT
  5
421
  8
1
  6
BYLAYER
 62
  256
 10
186.9251729070565
 20
1841.607328196404
 30
0
 40
2.5
  1
Piece Name: Rib Cuff
 50
0
 41
1
 51
0
  7
STANDARD
 71
    0
210
0
220
0
230
1
  0
TEXT
  5
422
  8
1
  6
BYLAYER
 62
  256
 10
186.9251729070565
 20
1839.107328196405
 30
0
 40
2.5
  1
File Name: GBlock-201-Sweatshirt-Parametric-Scalable-V4-Hood-SG-EXTRA
 50
0
 41
1
 51
0
  7
STANDARD
 71
    0
210
0
220
0
230
1
  0
TEXT
  5
423
  8
1
  6
BYLAYER
 62
  256
 10
186.9251729070565
 20
1836.607328196404
 30
0
 40
2.5
  1
Measurement Name: SG-EXTRA
 50
0
 41
1
 51
0
  7
STANDARD
 71
    0
210
0
220
0
230
1
  0
TEXT
  5
424
  8
1
  6
BYLAYER
 62
  256
 10
186.9251729070565
 20
1834.107328196405
 30
0
 40
2.5
  1
Date: 03-20-2026
 50
0
 41
1
 51
0
  7
STANDARD
 71
    0
210
0
220
0
230
1
  0
ENDBLK
  8
1
  0
BLOCK
  8
1
  2
SLEEVE
 70
    0
 10
0
 20
0
  3
SLEEVE
  1

  0
POLYLINE
  5
425
  8
1
  6
BYLAYER
 62
  256
 66
    1
 10
0
 20
0
 30
0
 70
    1
  0
VERTEX
  5
426
  8
1
  6
BYLAYER
 62
  256
 10
841.5619333425108
 20
837.5064400632887
 30
0
  0
VERTEX
  5
427
  8
1
  6
BYLAYER
 62
  256
 10
872.4568611231238
 20
765.8653867605273
 30
0
  0
VERTEX
  5
428
  8
1
  6
BYLAYER
 62
  256
 10
676.3528235127459
 20
681.2962772884067
 30
0
  0
VERTEX
  5
429
  8
1
  6
BYLAYER
 62
  256
 10
633.6088767755053
 20
662.8631152029113
 30
0
  0
VERTEX
  5
42A
  8
1
  6
BYLAYER
 62
  256
 10
488.67812276592
 20
600.3622868106612
 30
0
  0
VERTEX
  5
42B
  8
1
  6
BYLAYER
 62
  256
 10
422.1904200956932
 20
571.6897216040251
 30
0
  0
VERTEX
  5
42C
  8
1
  6
BYLAYER
 62
  256
 10
418.3478180945936
 20
580.413598400403
 30
0
  0
VERTEX
  5
42D
  8
1
  6
BYLAYER
 62
  256
 10
416.0777079769548
 20
585.0799885195444
 30
0
  0
VERTEX
  5
42E
  8
1
  6
BYLAYER
 62
  256
 10
413.5928800540647
 20
589.6649167244608
 30
0
  0
VERTEX
  5
42F
  8
1
  6
BYLAYER
 62
  256
 10
410.892118225294
 20
594.1809069904373
 30
0
  0
VERTEX
  5
430
  8
1
  6
BYLAYER
 62
  256
 10
407.9863654874963
 20
598.6161283723793
 30
0
  0
VERTEX
  5
431
  8
1
  6
BYLAYER
 62
  256
 10
404.8868162642673
 20
602.9588275474089
 30
0
  0
VERTEX
  5
432
  8
1
  6
BYLAYER
 62
  256
 10
401.6048865962571
 20
607.1973464720176
 30
0
  0
VERTEX
  5
433
  8
1
  6
BYLAYER
 62
  256
 10
398.1521898681575
 20
611.3201336379012
 30
0
  0
VERTEX
  5
434
  8
1
  6
BYLAYER
 62
  256
 10
394.5405179716867
 20
615.3157514715407
 30
0
  0
VERTEX
  5
435
  8
1
  6
BYLAYER
 62
  256
 10
390.7818274924269
 20
619.1728819399139
 30
0
  0
VERTEX
  5
436
  8
1
  6
BYLAYER
 62
  256
 10
386.8882303218056
 20
622.88033205402
 30
0
  0
VERTEX
  5
437
  8
1
  6
BYLAYER
 62
  256
 10
382.8719879665525
 20
626.4270407012151
 30
0
  0
VERTEX
  5
438
  8
1
  6
BYLAYER
 62
  256
 10
378.7455087022486
 20
629.8020880738226
 30
0
  0
VERTEX
  5
439
  8
1
  6
BYLAYER
 62
  256
 10
374.5213465502392
 20
632.9947088740545
 30
0
  0
VERTEX
  5
43A
  8
1
  6
BYLAYER
 62
  256
 10
370.2122008066005
 20
635.9943104368431
 30
0
  0
VERTEX
  5
43B
  8
1
  6
BYLAYER
 62
  256
 10
365.8103222629233
 20
638.803639069418
 30
0
  0
VERTEX
  5
43C
  8
1
  6
BYLAYER
 62
  256
 10
363.5798713162435
 20
640.1218012135911
 30
0
  0
VERTEX
  5
43D
  8
1
  6
BYLAYER
 62
  256
 10
358.773004475024
 20
642.9456965432287
 30
0
  0
VERTEX
  5
43E
  8
1
  6
BYLAYER
 62
  256
 10
349.3353342356863
 20
648.7895518630481
 30
0
  0
VERTEX
  5
43F
  8
1
  6
BYLAYER
 62
  256
 10
340.1265529219032
 20
654.8882046542354
 30
0
  0
VERTEX
  5
440
  8
1
  6
BYLAYER
 62
  256
 10
331.1720300557684
 20
661.2574430156225
 30
0
  0
VERTEX
  5
441
  8
1
  6
BYLAYER
 62
  256
 10
324.6224681101228
 20
666.247763869085
 30
0
  0
VERTEX
  5
442
  8
1
  6
BYLAYER
 62
  256
 10
320.2827244089688
 20
669.7076650024763
 30
0
  0
VERTEX
  5
443
  8
1
  6
BYLAYER
 62
  256
 10
319.3985464148782
 20
670.7699046957941
 30
0
  0
VERTEX
  5
444
  8
1
  6
BYLAYER
 62
  256
 10
315.9650980000481
 20
675.0618096609591
 30
0
  0
VERTEX
  5
445
  8
1
  6
BYLAYER
 62
  256
 10
312.6127081135348
 20
679.4283164070953
 30
0
  0
VERTEX
  5
446
  8
1
  6
BYLAYER
 62
  256
 10
309.3426844912083
 20
683.872800911416
 30
0
  0
VERTEX
  5
447
  8
1
  6
BYLAYER
 62
  256
 10
306.1563351681436
 20
688.3986007862721
 30
0
  0
VERTEX
  5
448
  8
1
  6
BYLAYER
 62
  256
 10
303.0549632210585
 20
693.0090157935432
 30
0
  0
VERTEX
  5
449
  8
1
  6
BYLAYER
 62
  256
 10
300.0398613923119
 20
697.7073092487841
 30
0
  0
VERTEX
  5
44A
  8
1
  6
BYLAYER
 62
  256
 10
297.1123067626887
 20
702.4967103246557
 30
0
  0
VERTEX
  5
44B
  8
1
  6
BYLAYER
 62
  256
 10
294.2735556470354
 20
707.3804172241906
 30
0
  0
VERTEX
  5
44C
  8
1
  6
BYLAYER
 62
  256
 10
291.5248388844023
 20
712.3616011539718
 30
0
  0
VERTEX
  5
44D
  8
1
  6
BYLAYER
 62
  256
 10
288.8673576814913
 20
717.443410989511
 30
0
  0
VERTEX
  5
44E
  8
1
  6
BYLAYER
 62
  256
 10
286.302280146076
 20
722.628978491887
 30
0
  0
VERTEX
  5
44F
  8
1
  6
BYLAYER
 62
  256
 10
283.8307386165957
 20
727.9214239094099
 30
0
  0
VERTEX
  5
450
  8
1
  6
BYLAYER
 62
  256
 10
281.4538278579622
 20
733.323861781843
 30
0
  0
VERTEX
  5
451
  8
1
  6
BYLAYER
 62
  256
 10
279.1726041539694
 20
738.8394067594563
 30
0
  0
VERTEX
  5
452
  8
1
  6
BYLAYER
 62
  256
 10
276.9880852869931
 20
744.4711792541126
 30
0
  0
VERTEX
  5
453
  8
1
  6
BYLAYER
 62
  256
 10
274.9012513582314
 20
750.222310754862
 30
0
  0
VERTEX
  5
454
  8
1
  6
BYLAYER
 62
  256
 10
272.9130463694203
 20
756.0959486637329
 30
0
  0
VERTEX
  5
455
  8
1
  6
BYLAYER
 62
  256
 10
271.0243804613576
 20
762.0952605368594
 30
0
  0
VERTEX
  5
456
  8
1
  6
BYLAYER
 62
  256
 10
269.2361326868518
 20
768.2234376491917
 30
0
  0
VERTEX
  5
457
  8
1
  6
BYLAYER
 62
  256
 10
267.5491541862781
 20
774.4836978350826
 30
0
  0
VERTEX
  5
458
  8
1
  6
BYLAYER
 62
  256
 10
265.9642716323105
 20
780.8792875899564
 30
0
  0
VERTEX
  5
459
  8
1
  6
BYLAYER
 62
  256
 10
264.4847773291038
 20
787.402520171627
 30
0
  0
VERTEX
  5
45A
  8
1
  6
BYLAYER
 62
  256
 10
263.7842798163517
 20
790.7413714094465
 30
0
  0
VERTEX
  5
45B
  8
1
  6
BYLAYER
 62
  256
 10
263.2190478032528
 20
793.5294700901479
 30
0
  0
VERTEX
  5
45C
  8
1
  6
BYLAYER
 62
  256
 10
262.189473782833
 20
799.1138901156122
 30
0
  0
VERTEX
  5
45D
  8
1
  6
BYLAYER
 62
  256
 10
261.2708563106681
 20
804.7568865763961
 30
0
  0
VERTEX
  5
45E
  8
1
  6
BYLAYER
 62
  256
 10
260.46551952096
 20
810.4419750568898
 30
0
  0
VERTEX
  5
45F
  8
1
  6
BYLAYER
 62
  256
 10
259.7735411034406
 20
816.1649670519066
 30
0
  0
VERTEX
  5
460
  8
1
  6
BYLAYER
 62
  256
 10
259.1950179319171
 20
821.9216752186148
 30
0
  0
VERTEX
  5
461
  8
1
  6
BYLAYER
 62
  256
 10
258.7300652080183
 20
827.7079126857479
 30
0
  0
VERTEX
  5
462
  8
1
  6
BYLAYER
 62
  256
 10
258.3788156970655
 20
833.5194924880078
 30
0
  0
VERTEX
  5
463
  8
1
  6
BYLAYER
 62
  256
 10
258.1414190594687
 20
839.3522270996996
 30
0
  0
VERTEX
  5
464
  8
1
  6
BYLAYER
 62
  256
 10
258.0180412789464
 20
845.2019280443841
 30
0
  0
VERTEX
  5
465
  8
1
  6
BYLAYER
 62
  256
 10
258.0088641872822
 20
851.0644055592835
 30
0
  0
VERTEX
  5
466
  8
1
  6
BYLAYER
 62
  256
 10
258.1140850840652
 20
856.9354682951498
 30
0
  0
VERTEX
  5
467
  8
1
  6
BYLAYER
 62
  256
 10
258.3339164488667
 20
862.8109230336307
 30
0
  0
VERTEX
  5
468
  8
1
  6
BYLAYER
 62
  256
 10
258.6685857424508
 20
868.6865744052236
 30
0
  0
VERTEX
  5
469
  8
1
  6
BYLAYER
 62
  256
 10
259.1183352928142
 20
874.5582245916864
 30
0
  0
VERTEX
  5
46A
  8
1
  6
BYLAYER
 62
  256
 10
259.683422261054
 20
880.4216729971523
 30
0
  0
VERTEX
  5
46B
  8
1
  6
BYLAYER
 62
  256
 10
260.3641186811599
 20
886.2727158723536
 30
0
  0
VERTEX
  5
46C
  8
1
  6
BYLAYER
 62
  256
 10
261.1607115667846
 20
892.107145876296
 30
0
  0
VERTEX
  5
46D
  8
1
  6
BYLAYER
 62
  256
 10
262.0735030767806
 20
897.9207515594384
 30
0
  0
VERTEX
  5
46E
  8
1
  6
BYLAYER
 62
  256
 10
263.102810729725
 20
903.7093167519045
 30
0
  0
VERTEX
  5
46F
  8
1
  6
BYLAYER
 62
  256
 10
264.2489676557685
 20
909.4686198398792
 30
0
  0
VERTEX
  5
470
  8
1
  6
BYLAYER
 62
  256
 10
265.5123228717868
 20
915.1944329125751
 30
0
  0
VERTEX
  5
471
  8
1
  6
BYLAYER
 62
  256
 10
266.8932415630237
 20
920.8825207617908
 30
0
  0
VERTEX
  5
472
  8
1
  6
BYLAYER
 62
  256
 10
267.7444352515125
 20
924.088910065762
 30
0
  0
VERTEX
  5
473
  8
1
  6
BYLAYER
 62
  256
 10
269.5108279821673
 20
927.6267692640066
 30
0
  0
VERTEX
  5
474
  8
1
  6
BYLAYER
 62
  256
 10
272.2268627740419
 20
932.7840316840476
 30
0
  0
VERTEX
  5
475
  8
1
  6
BYLAYER
 62
  256
 10
275.0489954555703
 20
937.8678381268541
 30
0
  0
VERTEX
  5
476
  8
1
  6
BYLAYER
 62
  256
 10
277.9767841588369
 20
942.8739116066898
 30
0
  0
VERTEX
  5
477
  8
1
  6
BYLAYER
 62
  256
 10
281.0098004209246
 20
947.7979569050963
 30
0
  0
VERTEX
  5
478
  8
1
  6
BYLAYER
 62
  256
 10
284.1476284686786
 20
952.635658418323
 30
0
  0
VERTEX
  5
479
  8
1
  6
BYLAYER
 62
  256
 10
287.3898642165498
 20
957.3826778055203
 30
0
  0
VERTEX
  5
47A
  8
1
  6
BYLAYER
 62
  256
 10
290.7361139178777
 20
962.0346514493815
 30
0
  0
VERTEX
  5
47B
  8
1
  6
BYLAYER
 62
  256
 10
294.1769176163481
 20
966.5752124586302
 30
0
  0
VERTEX
  5
47C
  8
1
  6
BYLAYER
 62
  256
 10
295.9258176680907
 20
968.7842930534506
 30
0
  0
VERTEX
  5
47D
  8
1
  6
BYLAYER
 62
  256
 10
297.5049376855068
 20
970.7965835740301
 30
0
  0
VERTEX
  5
47E
  8
1
  6
BYLAYER
 62
  256
 10
300.518208557314
 20
974.985648326699
 30
0
  0
VERTEX
  5
47F
  8
1
  6
BYLAYER
 62
  256
 10
303.3409536879587
 20
979.3375752590075
 30
0
  0
VERTEX
  5
480
  8
1
  6
BYLAYER
 62
  256
 10
305.9859445807851
 20
983.8601074855343
 30
0
  0
VERTEX
  5
481
  8
1
  6
BYLAYER
 62
  256
 10
308.4486030628999
 20
988.5362537857221
 30
0
  0
VERTEX
  5
482
  8
1
  6
BYLAYER
 62
  256
 10
310.724567719942
 20
993.3487449318427
 30
0
  0
VERTEX
  5
483
  8
1
  6
BYLAYER
 62
  256
 10
312.8097043823421
 20
998.2800899016033
 30
0
  0
VERTEX
  5
484
  8
1
  6
BYLAYER
 62
  256
 10
314.7001083926831
 20
1003.312620042137
 30
0
  0
VERTEX
  5
485
  8
1
  6
BYLAYER
 62
  256
 10
316.3921027941653
 20
1008.428522611996
 30
0
  0
VERTEX
  5
486
  8
1
  6
BYLAYER
 62
  256
 10
317.8822355146498
 20
1013.609865439582
 30
0
  0
VERTEX
  5
487
  8
1
  6
BYLAYER
 62
  256
 10
319.1672778149045
 20
1018.838614518464
 30
0
  0
VERTEX
  5
488
  8
1
  6
BYLAYER
 62
  256
 10
320.2442256971914
 20
1024.096646351427
 30
0
  0
VERTEX
  5
489
  8
1
  6
BYLAYER
 62
  256
 10
321.1103055837541
 20
1029.365756851447
 30
0
  0
VERTEX
  5
48A
  8
1
  6
BYLAYER
 62
  256
 10
321.7629853185236
 20
1034.627668678396
 30
0
  0
VERTEX
  5
48B
  8
1
  6
BYLAYER
 62
  256
 10
322.1999913578168
 20
1039.864039087371
 30
0
  0
VERTEX
  5
48C
  8
1
  6
BYLAYER
 62
  256
 10
322.4203873295958
 20
1045.081433818721
 30
0
  0
VERTEX
  5
48D
  8
1
  6
BYLAYER
 62
  256
 10
322.4885210842683
 20
1054.629166666666
 30
0
  0
VERTEX
  5
48E
  8
1
  6
BYLAYER
 62
  256
 10
394.8994964859439
 20
1054.629166666666
 30
0
  0
VERTEX
  5
48F
  8
1
  6
BYLAYER
 62
  256
 10
541.81375
 20
1054.629166666666
 30
0
  0
VERTEX
  5
490
  8
1
  6
BYLAYER
 62
  256
 10
601.100073950733
 20
1054.629166666665
 30
0
  0
VERTEX
  5
491
  8
1
  6
BYLAYER
 62
  256
 10
812.8437464859442
 20
1054.629166666665
 30
0
  0
VERTEX
  5
492
  8
1
  6
BYLAYER
 62
  256
 10
812.8437464859438
 20
976.6104561431428
 30
0
  0
VERTEX
  5
493
  8
1
  6
BYLAYER
 62
  256
 10
827.2028283242013
 20
907.0585042425238
 30
0
  0
VERTEX
  5
494
  8
1
  6
BYLAYER
 62
  256
 10
841.5619333425108
 20
837.5064400632887
 30
0
  0
SEQEND
  5
495
  8
1
  6
BYLAYER
 62
  256
  0
POLYLINE
  5
496
  8
8
  6
BYLAYER
 62
  256
 66
    1
 10
0
 20
0
 30
0
 70
    1
  0
VERTEX
  5
497
  8
8
  6
BYLAYER
 62
  256
 10
834.851053974974
 20
835.3909695182332
 30
0
  0
VERTEX
  5
498
  8
8
  6
BYLAYER
 62
  256
 10
863.2571344415161
 20
769.5212080066656
 30
0
  0
VERTEX
  5
499
  8
8
  6
BYLAYER
 62
  256
 10
673.5808707950114
 20
687.7240512522798
 30
0
  0
VERTEX
  5
49A
  8
8
  6
BYLAYER
 62
  256
 10
626.1618048833852
 20
667.2747620636835
 30
0
  0
VERTEX
  5
49B
  8
8
  6
BYLAYER
 62
  256
 10
485.9061700481854
 20
606.7900607745344
 30
0
  0
VERTEX
  5
49C
  8
8
  6
BYLAYER
 62
  256
 10
425.796612261671
 20
580.8680459363273
 30
0
  0
VERTEX
  5
49D
  8
8
  6
BYLAYER
 62
  256
 10
424.7004734932811
 20
583.3566147666228
 30
0
  0
VERTEX
  5
49E
  8
8
  6
BYLAYER
 62
  256
 10
422.3051830587506
 20
588.2803228851488
 30
0
  0
VERTEX
  5
49F
  8
8
  6
BYLAYER
 62
  256
 10
419.6765687094535
 20
593.130561390165
 30
0
  0
VERTEX
  5
4A0
  8
8
  6
BYLAYER
 62
  256
 10
416.8260655148721
 20
597.8969367671911
 30
0
  0
VERTEX
  5
4A1
  8
8
  6
BYLAYER
 62
  256
 10
413.7651085444889
 20
602.5690555017458
 30
0
  0
VERTEX
  5
4A2
  8
8
  6
BYLAYER
 62
  256
 10
410.5051328677863
 20
607.136524079349
 30
0
  0
VERTEX
  5
4A3
  8
8
  6
BYLAYER
 62
  256
 10
407.0575735542466
 20
611.5889489855196
 30
0
  0
VERTEX
  5
4A4
  8
8
  6
BYLAYER
 62
  256
 10
403.4338656733523
 20
615.9159367057779
 30
0
  0
VERTEX
  5
4A5
  8
8
  6
BYLAYER
 62
  256
 10
399.6454442945856
 20
620.1070937256425
 30
0
  0
VERTEX
  5
4A6
  8
8
  6
BYLAYER
 62
  256
 10
395.7037444874293
 20
624.1520265306328
 30
0
  0
VERTEX
  5
4A7
  8
8
  6
BYLAYER
 62
  256
 10
391.6202013213654
 20
628.0403416062687
 30
0
  0
VERTEX
  5
4A8
  8
8
  6
BYLAYER
 62
  256
 10
387.4062498658765
 20
631.7616454380695
 30
0
  0
VERTEX
  5
4A9
  8
8
  6
BYLAYER
 62
  256
 10
383.073325190445
 20
635.3055445115543
 30
0
  0
VERTEX
  5
4AA
  8
8
  6
BYLAYER
 62
  256
 10
378.6328623645533
 20
638.6616453122429
 30
0
  0
VERTEX
  5
4AB
  8
8
  6
BYLAYER
 62
  256
 10
374.0962964576837
 20
641.8195543256545
 30
0
  0
VERTEX
  5
4AC
  8
8
  6
BYLAYER
 62
  256
 10
369.4750625393186
 20
644.7688780373085
 30
0
  0
VERTEX
  5
4AD
  8
8
  6
BYLAYER
 62
  256
 10
367.133455393069
 20
646.1527317828062
 30
0
  0
VERTEX
  5
4AE
  8
8
  6
BYLAYER
 62
  256
 10
362.3889309135753
 20
648.940002776898
 30
0
  0
VERTEX
  5
4AF
  8
8
  6
BYLAYER
 62
  256
 10
353.1113433931939
 20
654.6847340306018
 30
0
  0
VERTEX
  5
4B0
  8
8
  6
BYLAYER
 62
  256
 10
344.0888681889741
 20
660.6600028216278
 30
0
  0
VERTEX
  5
4B1
  8
8
  6
BYLAYER
 62
  256
 10
335.3230148451761
 20
666.8950429485297
 30
0
  0
VERTEX
  5
4B2
  8
8
  6
BYLAYER
 62
  256
 10
328.9260430047885
 20
671.7691005174214
 30
0
  0
VERTEX
  5
4B3
  8
8
  6
BYLAYER
 62
  256
 10
325.2054458643028
 20
674.7353812818444
 30
0
  0
VERTEX
  5
4B4
  8
8
  6
BYLAYER
 62
  256
 10
324.8221697152532
 20
675.1958441544148
 30
0
  0
VERTEX
  5
4B5
  8
8
  6
BYLAYER
 62
  256
 10
321.4748794254816
 20
679.380049093236
 30
0
  0
VERTEX
  5
4B6
  8
8
  6
BYLAYER
 62
  256
 10
318.2086279196947
 20
683.634360112361
 30
0
  0
VERTEX
  5
4B7
  8
8
  6
BYLAYER
 62
  256
 10
315.0243387169203
 20
687.9623178440352
 30
0
  0
VERTEX
  5
4B8
  8
8
  6
BYLAYER
 62
  256
 10
311.9229353361857
 20
692.3674629205038
 30
0
  0
VERTEX
  5
4B9
  8
8
  6
BYLAYER
 62
  256
 10
308.9053412965181
 20
696.8533359740119
 30
0
  0
VERTEX
  5
4BA
  8
8
  6
BYLAYER
 62
  256
 10
305.9724801169452
 20
701.4234776368047
 30
0
  0
VERTEX
  5
4BB
  8
8
  6
BYLAYER
 62
  256
 10
303.125275316494
 20
706.0814285411273
 30
0
  0
VERTEX
  5
4BC
  8
8
  6
BYLAYER
 62
  256
 10
300.3646504141923
 20
710.8307293192254
 30
0
  0
VERTEX
  5
4BD
  8
8
  6
BYLAYER
 62
  256
 10
297.6915289290673
 20
715.6749206033438
 30
0
  0
VERTEX
  5
4BE
  8
8
  6
BYLAYER
 62
  256
 10
295.1068343801464
 20
720.6175430257276
 30
0
  0
VERTEX
  5
4BF
  8
8
  6
BYLAYER
 62
  256
 10
292.611490286457
 20
725.6621372186221
 30
0
  0
VERTEX
  5
4C0
  8
8
  6
BYLAYER
 62
  256
 10
290.2064201670266
 20
730.8122438142732
 30
0
  0
VERTEX
  5
4C1
  8
8
  6
BYLAYER
 62
  256
 10
287.8925475408824
 20
736.0714034449248
 30
0
  0
VERTEX
  5
4C2
  8
8
  6
BYLAYER
 62
  256
 10
285.670795927052
 20
741.443156742823
 30
0
  0
VERTEX
  5
4C3
  8
8
  6
BYLAYER
 62
  256
 10
283.5420888445627
 20
746.931044340213
 30
0
  0
VERTEX
  5
4C4
  8
8
  6
BYLAYER
 62
  256
 10
281.5073498124419
 20
752.5386068693397
 30
0
  0
VERTEX
  5
4C5
  8
8
  6
BYLAYER
 62
  256
 10
279.5675023497171
 20
758.2693849624482
 30
0
  0
VERTEX
  5
4C6
  8
8
  6
BYLAYER
 62
  256
 10
277.7234699754154
 20
764.1269192517841
 30
0
  0
VERTEX
  5
4C7
  8
8
  6
BYLAYER
 62
  256
 10
275.9761762085645
 20
770.1147503695923
 30
0
  0
VERTEX
  5
4C8
  8
8
  6
BYLAYER
 62
  256
 10
274.3265445681918
 20
776.2364189481181
 30
0
  0
VERTEX
  5
4C9
  8
8
  6
BYLAYER
 62
  256
 10
272.7754985733246
 20
782.4954656196069
 30
0
  0
VERTEX
  5
4CA
  8
8
  6
BYLAYER
 62
  256
 10
271.3239617429902
 20
788.8954310163036
 30
0
  0
VERTEX
  5
4CB
  8
8
  6
BYLAYER
 62
  256
 10
270.6400017993469
 20
792.1554575872473
 30
0
  0
VERTEX
  5
4CC
  8
8
  6
BYLAYER
 62
  256
 10
270.0917967892995
 20
794.8595678107419
 30
0
  0
VERTEX
  5
4CD
  8
8
  6
BYLAYER
 62
  256
 10
269.0867477091501
 20
800.3109643091422
 30
0
  0
VERTEX
  5
4CE
  8
8
  6
BYLAYER
 62
  256
 10
268.1915233398926
 20
805.8102587384354
 30
0
  0
VERTEX
  5
4CF
  8
8
  6
BYLAYER
 62
  256
 10
267.4063365514797
 20
811.3531029532886
 30
0
  0
VERTEX
  5
4D0
  8
8
  6
BYLAYER
 62
  256
 10
266.7314002138644
 20
816.9351488083676
 30
0
  0
VERTEX
  5
4D1
  8
8
  6
BYLAYER
 62
  256
 10
266.1669271969993
 20
822.5520481583386
 30
0
  0
VERTEX
  5
4D2
  8
8
  6
BYLAYER
 62
  256
 10
265.7131303708373
 20
828.1994528578682
 30
0
  0
VERTEX
  5
4D3
  8
8
  6
BYLAYER
 62
  256
 10
265.370222605331
 20
833.8730147616226
 30
0
  0
VERTEX
  5
4D4
  8
8
  6
BYLAYER
 62
  256
 10
265.1384167704334
 20
839.5683857242688
 30
0
  0
VERTEX
  5
4D5
  8
8
  6
BYLAYER
 62
  256
 10
265.0179257360971
 20
845.2812176004729
 30
0
  0
VERTEX
  5
4D6
  8
8
  6
BYLAYER
 62
  256
 10
265.0089623722749
 20
851.0071622449012
 30
0
  0
VERTEX
  5
4D7
  8
8
  6
BYLAYER
 62
  256
 10
265.1117395489197
 20
856.7418715122202
 30
0
  0
VERTEX
  5
4D8
  8
8
  6
BYLAYER
 62
  256
 10
265.3264701359841
 20
862.4809972570961
 30
0
  0
VERTEX
  5
4D9
  8
8
  6
BYLAYER
 62
  256
 10
265.653367003421
 20
868.2201913341958
 30
0
  0
VERTEX
  5
4DA
  8
8
  6
BYLAYER
 62
  256
 10
266.0926430211831
 20
873.9551055981849
 30
0
  0
VERTEX
  5
4DB
  8
8
  6
BYLAYER
 62
  256
 10
266.6445110592231
 20
879.6813919037305
 30
0
  0
VERTEX
  5
4DC
  8
8
  6
BYLAYER
 62
  256
 10
267.309183987494
 20
885.3947021054991
 30
0
  0
VERTEX
  5
4DD
  8
8
  6
BYLAYER
 62
  256
 10
268.0868746759484
 20
891.090688058156
 30
0
  0
VERTEX
  5
4DE
  8
8
  6
BYLAYER
 62
  256
 10
268.9777959945391
 20
896.7650016163685
 30
0
  0
VERTEX
  5
4DF
  8
8
  6
BYLAYER
 62
  256
 10
269.9821608132189
 20
902.4132946348032
 30
0
  0
VERTEX
  5
4E0
  8
8
  6
BYLAYER
 62
  256
 10
271.1001820019405
 20
908.0312189681262
 30
0
  0
VERTEX
  5
4E1
  8
8
  6
BYLAYER
 62
  256
 10
272.3320724306569
 20
913.6144264710034
 30
0
  0
VERTEX
  5
4E2
  8
8
  6
BYLAYER
 62
  256
 10
273.6780449693205
 20
919.1585689981018
 30
0
  0
VERTEX
  5
4E3
  8
8
  6
BYLAYER
 62
  256
 10
274.3266292216084
 20
921.6017421999046
 30
0
  0
VERTEX
  5
4E4
  8
8
  6
BYLAYER
 62
  256
 10
275.7397477436952
 20
924.4320382460852
 30
0
  0
VERTEX
  5
4E5
  8
8
  6
BYLAYER
 62
  256
 10
278.3845200166762
 20
929.4539859375569
 30
0
  0
VERTEX
  5
4E6
  8
8
  6
BYLAYER
 62
  256
 10
281.1311078059392
 20
934.4017053662648
 30
0
  0
VERTEX
  5
4E7
  8
8
  6
BYLAYER
 62
  256
 10
283.9788404452104
 20
939.2708951500807
 30
0
  0
VERTEX
  5
4E8
  8
8
  6
BYLAYER
 62
  256
 10
286.9270472682157
 20
944.0572539068775
 30
0
  0
VERTEX
  5
4E9
  8
8
  6
BYLAYER
 62
  256
 10
289.975057608681
 20
948.7564802545267
 30
0
  0
VERTEX
  5
4EA
  8
8
  6
BYLAYER
 62
  256
 10
293.1222008003323
 20
953.364272810902
 30
0
  0
VERTEX
  5
4EB
  8
8
  6
BYLAYER
 62
  256
 10
296.3678061768956
 20
957.8763301938744
 30
0
  0
VERTEX
  5
4EC
  8
8
  6
BYLAYER
 62
  256
 10
299.7112030720967
 20
962.2883510213175
 30
0
  0
VERTEX
  5
4ED
  8
8
  6
BYLAYER
 62
  256
 10
301.4233964859437
 20
964.4510665186037
 30
0
  0
VERTEX
  5
4EE
  8
8
  6
BYLAYER
 62
  256
 10
303.1020896942743
 20
966.5902442839598
 30
0
  0
VERTEX
  5
4EF
  8
8
  6
BYLAYER
 62
  256
 10
306.2992531995456
 20
971.034957526888
 30
0
  0
VERTEX
  5
4F0
  8
8
  6
BYLAYER
 62
  256
 10
309.3017708483622
 20
975.6640461678563
 30
0
  0
VERTEX
  5
4F1
  8
8
  6
BYLAYER
 62
  256
 10
312.1070000154054
 20
980.460561477287
 30
0
  0
VERTEX
  5
4F2
  8
8
  6
BYLAYER
 62
  256
 10
314.7122980753569
 20
985.4075547256023
 30
0
  0
VERTEX
  5
4F3
  8
8
  6
BYLAYER
 62
  256
 10
317.1150224028978
 20
990.4880771832254
 30
0
  0
VERTEX
  5
4F4
  8
8
  6
BYLAYER
 62
  256
 10
319.3125303727098
 20
995.6851801205784
 30
0
  0
VERTEX
  5
4F5
  8
8
  6
BYLAYER
 62
  256
 10
321.3021793594742
 20
1000.981914808084
 30
0
  0
VERTEX
  5
4F6
  8
8
  6
BYLAYER
 62
  256
 10
323.0813267378724
 20
1006.361332516164
 30
0
  0
VERTEX
  5
4F7
  8
8
  6
BYLAYER
 62
  256
 10
324.6473298825857
 20
1011.806484515242
 30
0
  0
VERTEX
  5
4F8
  8
8
  6
BYLAYER
 62
  256
 10
325.9975461682957
 20
1017.30042207574
 30
0
  0
VERTEX
  5
4F9
  8
8
  6
BYLAYER
 62
  256
 10
327.129332969684
 20
1022.82619646808
 30
0
  0
VERTEX
  5
4FA
  8
8
  6
BYLAYER
 62
  256
 10
328.0400476614316
 20
1028.366858962685
 30
0
  0
VERTEX
  5
4FB
  8
8
  6
BYLAYER
 62
  256
 10
328.7270476182202
 20
1033.905460829979
 30
0
  0
VERTEX
  5
4FC
  8
8
  6
BYLAYER
 62
  256
 10
329.1876902147312
 20
1039.425053340382
 30
0
  0
VERTEX
  5
4FD
  8
8
  6
BYLAYER
 62
  256
 10
329.4193328256461
 20
1044.908687764318
 30
0
  0
VERTEX
  5
4FE
  8
8
  6
BYLAYER
 62
  256
 10
329.4387464859439
 20
1047.629166666666
 30
0
  0
VERTEX
  5
4FF
  8
8
  6
BYLAYER
 62
  256
 10
394.8994964859439
 20
1047.629166666666
 30
0
  0
VERTEX
  5
500
  8
8
  6
BYLAYER
 62
  256
 10
547.6412464859438
 20
1047.629166666666
 30
0
  0
VERTEX
  5
501
  8
8
  6
BYLAYER
 62
  256
 10
599.2817464859439
 20
1047.629166666665
 30
0
  0
VERTEX
  5
502
  8
8
  6
BYLAYER
 62
  256
 10
805.8437464859442
 20
1047.629166666665
 30
0
  0
VERTEX
  5
503
  8
8
  6
BYLAYER
 62
  256
 10
805.8437464859438
 20
975.8954166666654
 30
0
  0
VERTEX
  5
504
  8
8
  6
BYLAYER
 62
  256
 10
820.3474002304588
 20
905.6431930924498
 30
0
  0
SEQEND
  5
505
  8
8
  6
BYLAYER
 62
  256
  0
POLYLINE
  5
506
  8
8
  6
BYLAYER
 62
  256
 66
    1
 10
0
 20
0
 30
0
 70
    0
  0
VERTEX
  5
507
  8
8
  6
BYLAYER
 62
  256
 10
829.1374934089528
 20
863.0660878959549
 30
0
  0
VERTEX
  5
508
  8
8
  6
BYLAYER
 62
  256
 10
632.0277495660544
 20
796.1816261265203
 30
0
  0
VERTEX
  5
509
  8
8
  6
BYLAYER
 62
  256
 10
581.6104826612525
 20
784.9815786668008
 30
0
  0
VERTEX
  5
50A
  8
8
  6
BYLAYER
 62
  256
 10
433.9845446781511
 20
744.5994709002169
 30
0
  0
VERTEX
  5
50B
  8
8
  6
BYLAYER
 62
  256
 10
370.0172951378059
 20
730.6785953241009
 30
0
  0
SEQEND
  5
50C
  8
8
  6
BYLAYER
 62
  256
  0
POLYLINE
  5
50D
  8
8
  6
BYLAYER
 62
  256
 66
    1
 10
0
 20
0
 30
0
 70
    0
  0
VERTEX
  5
50E
  8
8
  6
BYLAYER
 62
  256
 10
337.5460136089701
 20
887.9617027319692
 30
0
  0
VERTEX
  5
50F
  8
8
  6
BYLAYER
 62
  256
 10
401.7963253793301
 20
900.5114926893368
 30
0
  0
VERTEX
  5
510
  8
8
  6
BYLAYER
 62
  256
 10
553.3446971212073
 20
921.8942711675481
 30
0
  0
VERTEX
  5
511
  8
8
  6
BYLAYER
 62
  256
 10
604.0753543520971
 20
931.5763309779388
 30
0
  0
VERTEX
  5
512
  8
8
  6
BYLAYER
 62
  256
 10
811.5573070519647
 20
948.2202982889445
 30
0
  0
SEQEND
  5
513
  8
8
  6
BYLAYER
 62
  256
  0
POLYLINE
  5
514
  8
8
  6
BYLAYER
 62
  256
 66
    1
 10
0
 20
0
 30
0
 70
    0
  0
VERTEX
  5
515
  8
8
  6
BYLAYER
 62
  256
 10
393.9983546568009
 20
654.6037958361849
 30
0
  0
VERTEX
  5
516
  8
8
  6
BYLAYER
 62
  256
 10
454.3851077150887
 20
679.8830332780044
 30
0
  0
VERTEX
  5
517
  8
8
  6
BYLAYER
 62
  256
 10
598.4818770305779
 20
731.4606763600723
 30
0
  0
VERTEX
  5
518
  8
8
  6
BYLAYER
 62
  256
 10
646.2078377073818
 20
751.1983191455256
 30
0
  0
VERTEX
  5
519
  8
8
  6
BYLAYER
 62
  256
 10
846.0413280981571
 20
809.4422755894338
 30
0
  0
SEQEND
  5
51A
  8
8
  6
BYLAYER
 62
  256
  0
POLYLINE
  5
51B
  8
8
  6
BYLAYER
 62
  256
 66
    1
 10
0
 20
0
 30
0
 70
    0
  0
VERTEX
  5
51C
  8
8
  6
BYLAYER
 62
  256
 10
805.8437464859437
 20
1004.154166666666
 30
0
  0
VERTEX
  5
51D
  8
8
  6
BYLAYER
 62
  256
 10
599.2817464859437
 20
978.5041666666663
 30
0
  0
VERTEX
  5
51E
  8
8
  6
BYLAYER
 62
  256
 10
547.6412464859438
 20
977.7291666666663
 30
0
  0
VERTEX
  5
51F
  8
8
  6
BYLAYER
 62
  256
 10
394.8994964859439
 20
968.0291666666664
 30
0
  0
VERTEX
  5
520
  8
8
  6
BYLAYER
 62
  256
 10
329.4387464859438
 20
967.3291666666663
 30
0
  0
SEQEND
  5
521
  8
8
  6
BYLAYER
 62
  256
  0
LINE
  5
522
  8
7
  6
BYLAYER
 62
  256
 10
820.3474002304588
 20
905.6431930924498
 11
270.640001799347
 21
792.1554575872473
  0
TEXT
  5
523
  8
1
  6
BYLAYER
 62
  256
 10
339.4073479676911
 20
762.7981228224663
 30
0
 40
2.5
  1
Piece Name: Sleeve
 50
0
 41
1
 51
0
  7
STANDARD
 71
    0
210
0
220
0
230
1
  0
TEXT
  5
524
  8
1
  6
BYLAYER
 62
  256
 10
339.4073479676911
 20
760.2981228224664
 30
0
 40
2.5
  1
File Name: GBlock-201-Sweatshirt-Parametric-Scalable-V4-Hood-SG-EXTRA
 50
0
 41
1
 51
0
  7
STANDARD
 71
    0
210
0
220
0
230
1
  0
TEXT
  5
525
  8
1
  6
BYLAYER
 62
  256
 10
339.4073479676911
 20
757.7981228224663
 30
0
 40
2.5
  1
Measurement Name: SG-EXTRA
 50
0
 41
1
 51
0
  7
STANDARD
 71
    0
210
0
220
0
230
1
  0
TEXT
  5
526
  8
1
  6
BYLAYER
 62
  256
 10
339.4073479676911
 20
755.2981228224663
 30
0
 40
2.5
  1
Date: 03-20-2026
 50
0
 41
1
 51
0
  7
STANDARD
 71
    0
210
0
220
0
230
1
  0
ENDBLK
  8
1
  0
BLOCK
  8
1
  2
RIB_HEM
 70
    0
 10
0
 20
0
  3
RIB_HEM
  1

  0
POLYLINE
  5
527
  8
1
  6
BYLAYER
 62
  256
 66
    1
 10
0
 20
0
 30
0
 70
    1
  0
VERTEX
  5
528
  8
1
  6
BYLAYER
 62
  256
 10
255.1115908420955
 20
884.3919360603655
 30
0
  0
VERTEX
  5
529
  8
1
  6
BYLAYER
 62
  256
 10
152.2375867894559
 20
0.1207827582876499
 30
0
  0
VERTEX
  5
52A
  8
1
  6
BYLAYER
 62
  256
 10
9.20228513093989
 20
16.76116975671102
 30
0
  0
VERTEX
  5
52B
  8
1
  6
BYLAYER
 62
  256
 10
112.0762891835795
 20
901.0323230587893
 30
0
  0
VERTEX
  5
52C
  8
1
  6
BYLAYER
 62
  256
 10
255.1115908420955
 20
884.3919360603655
 30
0
  0
SEQEND
  5
52D
  8
1
  6
BYLAYER
 62
  256
  0
POLYLINE
  5
52E
  8
8
  6
BYLAYER
 62
  256
 66
    1
 10
0
 20
0
 30
0
 70
    1
  0
VERTEX
  5
52F
  8
8
  6
BYLAYER
 62
  256
 10
146.4400642781687
 20
10.86269751921939
 30
0
  0
VERTEX
  5
530
  8
8
  6
BYLAYER
 62
  256
 10
17.31097250311935
 20
25.8852691150182
 30
0
  0
VERTEX
  5
531
  8
8
  6
BYLAYER
 62
  256
 10
117.8738116948667
 20
890.2904082978578
 30
0
  0
VERTEX
  5
532
  8
8
  6
BYLAYER
 62
  256
 10
247.0029034699161
 20
875.267836702059
 30
0
  0
SEQEND
  5
533
  8
8
  6
BYLAYER
 62
  256
  0
POLYLINE
  5
534
  8
8
  6
BYLAYER
 62
  256
 66
    1
 10
0
 20
0
 30
0
 70
    0
  0
VERTEX
  5
535
  8
8
  6
BYLAYER
 62
  256
 10
182.4383575823914
 20
882.7791224999582
 30
0
  0
VERTEX
  5
536
  8
8
  6
BYLAYER
 62
  256
 10
81.87551839064403
 20
18.37398331711855
 30
0
  0
SEQEND
  5
537
  8
8
  6
BYLAYER
 62
  256
  0
LINE
  5
538
  8
7
  6
BYLAYER
 62
  256
 10
158.8314961611078
 20
223.5037855956213
 11
59.50142556491605
 21
235.059609900082
  0
TEXT
  5
539
  8
1
  6
BYLAYER
 62
  256
 10
151.2115434833353
 20
405.5225615343276
 30
0
 40
2.5
  1
Piece Name: Rib Hem
 50
0
 41
1
 51
0
  7
STANDARD
 71
    0
210
0
220
0
230
1
  0
TEXT
  5
53A
  8
1
  6
BYLAYER
 62
  256
 10
151.2115434833353
 20
403.0225615343276
 30
0
 40
2.5
  1
File Name: GBlock-201-Sweatshirt-Parametric-Scalable-V4-Hood-SG-EXTRA
 50
0
 41
1
 51
0
  7
STANDARD
 71
    0
210
0
220
0
230
1
  0
TEXT
  5
53B
  8
1
  6
BYLAYER
 62
  256
 10
151.2115434833353
 20
400.5225615343275
 30
0
 40
2.5
  1
Measurement Name: SG-EXTRA
 50
0
 41
1
 51
0
  7
STANDARD
 71
    0
210
0
220
0
230
1
  0
TEXT
  5
53C
  8
1
  6
BYLAYER
 62
  256
 10
151.2115434833353
 20
398.0225615343276
 30
0
 40
2.5
  1
Date: 03-20-2026
 50
0
 41
1
 51
0
  7
STANDARD
 71
    0
210
0
220
0
230
1
  0
ENDBLK
  8
0
  0
ENDSEC
  0
SECTION
  2
ENTITIES
  0
INSERT
  5
53D
  8
1
  6
BYLAYER
 62
  256
  2
SWEATSHIRT_FRONT
 10
0
 20
0
 30
0
 41
1
 42
1
 43
1
 50
0
 70
    1
 71
    1
 44
0
 45
0
  0
INSERT
  5
53E
  8
1
  6
BYLAYER
 62
  256
  2
SWEATSHIRT_BACK
 10
0
 20
0
 30
0
 41
1
 42
1
 43
1
 50
0
 70
    1
 71
    1
 44
0
 45
0
  0
INSERT
  5
53F
  8
1
  6
BYLAYER
 62
  256
  2
COLLAR
 10
0
 20
0
 30
0
 41
1
 42
1
 43
1
 50
0
 70
    1
 71
    1
 44
0
 45
0
  0
INSERT
  5
540
  8
1
  6
BYLAYER
 62
  256
  2
RIB_CUFF
 10
0
 20
0
 30
0
 41
1
 42
1
 43
1
 50
0
 70
    1
 71
    1
 44
0
 45
0
  0
INSERT
  5
541
  8
1
  6
BYLAYER
 62
  256
  2
SLEEVE
 10
0
 20
0
 30
0
 41
1
 42
1
 43
1
 50
0
 70
    1
 71
    1
 44
0
 45
0
  0
INSERT
  5
542
  8
1
  6
BYLAYER
 62
  256
  2
RIB_HEM
 10
0
 20
0
 30
0
 41
1
 42
1
 43
1
 50
0
 70
    1
 71
    1
 44
0
 45
0
  0
ENDSEC
  0
EOF
