<?xml version="1.0" encoding="UTF-8" standalone="no"?>
<!DOCTYPE svg PUBLIC "-//W3C//DTD SVG 1.1//EN"
 "http://www.w3.org/Graphics/SVG/1.1/DTD/svg11.dtd">
<!-- Generated by graphviz version 2.43.0 (0)
 -->
<!-- Title: VException Pages: 1 -->
<svg width="1150pt" height="602pt"
 viewBox="0.00 0.00 1149.50 602.00" xmlns="http://www.w3.org/2000/svg" xmlns:xlink="http://www.w3.org/1999/xlink">
<g id="graph0" class="graph" transform="scale(1 1) rotate(0) translate(4 598)">
<title>VException</title>
<!-- Node1 -->
<g id="Node000001" class="node">
<title>Node1</title>
<g id="a_Node000001"><a xlink:title="The VException class parent for all exception. Could be use for abstract exception.">
<polygon fill="#999999" stroke="transparent" points="657,-509 527,-509 527,-265 657,-265 657,-509"/>
<text text-anchor="start" x="564.5" y="-497" font-family="Helvetica,sans-Serif" font-size="10.00">VException</text>
<text text-anchor="start" x="531" y="-482" font-family="Helvetica,sans-Serif" font-size="10.00">#</text>
<text text-anchor="start" x="544" y="-482" font-family="Helvetica,sans-Serif" font-size="10.00">error</text>
<text text-anchor="start" x="531" y="-467" font-family="Helvetica,sans-Serif" font-size="10.00">#</text>
<text text-anchor="start" x="544" y="-467" font-family="Helvetica,sans-Serif" font-size="10.00">moreInfo</text>
<text text-anchor="start" x="531" y="-452" font-family="Helvetica,sans-Serif" font-size="10.00">+</text>
<text text-anchor="start" x="544" y="-452" font-family="Helvetica,sans-Serif" font-size="10.00">VException()</text>
<text text-anchor="start" x="531" y="-437" font-family="Helvetica,sans-Serif" font-size="10.00">+</text>
<text text-anchor="start" x="544" y="-437" font-family="Helvetica,sans-Serif" font-size="10.00">VException()</text>
<text text-anchor="start" x="531" y="-422" font-family="Helvetica,sans-Serif" font-size="10.00">+</text>
<text text-anchor="start" x="544" y="-422" font-family="Helvetica,sans-Serif" font-size="10.00">operator=()</text>
<text text-anchor="start" x="531" y="-407" font-family="Helvetica,sans-Serif" font-size="10.00">+</text>
<text text-anchor="start" x="544" y="-407" font-family="Helvetica,sans-Serif" font-size="10.00">~VException()</text>
<text text-anchor="start" x="531" y="-392" font-family="Helvetica,sans-Serif" font-size="10.00">+</text>
<text text-anchor="start" x="544" y="-392" font-family="Helvetica,sans-Serif" font-size="10.00">raise()</text>
<text text-anchor="start" x="531" y="-377" font-family="Helvetica,sans-Serif" font-size="10.00">+</text>
<text text-anchor="start" x="544" y="-377" font-family="Helvetica,sans-Serif" font-size="10.00">clone()</text>
<text text-anchor="start" x="531" y="-362" font-family="Helvetica,sans-Serif" font-size="10.00">+</text>
<text text-anchor="start" x="544" y="-362" font-family="Helvetica,sans-Serif" font-size="10.00">ErrorMessage()</text>
<text text-anchor="start" x="531" y="-347" font-family="Helvetica,sans-Serif" font-size="10.00">+</text>
<text text-anchor="start" x="544" y="-347" font-family="Helvetica,sans-Serif" font-size="10.00">DetailedInformation()</text>
<text text-anchor="start" x="531" y="-332" font-family="Helvetica,sans-Serif" font-size="10.00">+</text>
<text text-anchor="start" x="544" y="-332" font-family="Helvetica,sans-Serif" font-size="10.00">WhatUtf8()</text>
<text text-anchor="start" x="531" y="-317" font-family="Helvetica,sans-Serif" font-size="10.00">+</text>
<text text-anchor="start" x="544" y="-317" font-family="Helvetica,sans-Serif" font-size="10.00">AddMoreInformation()</text>
<text text-anchor="start" x="531" y="-302" font-family="Helvetica,sans-Serif" font-size="10.00">+</text>
<text text-anchor="start" x="544" y="-302" font-family="Helvetica,sans-Serif" font-size="10.00">MoreInformation()</text>
<text text-anchor="start" x="531" y="-287" font-family="Helvetica,sans-Serif" font-size="10.00">+</text>
<text text-anchor="start" x="544" y="-287" font-family="Helvetica,sans-Serif" font-size="10.00">what()</text>
<text text-anchor="start" x="531" y="-272" font-family="Helvetica,sans-Serif" font-size="10.00">#</text>
<text text-anchor="start" x="544" y="-272" font-family="Helvetica,sans-Serif" font-size="10.00">MoreInfo()</text>
<polygon fill="#666666" stroke="#666666" points="527,-492 527,-492 657,-492 657,-492 527,-492"/>
<polygon fill="#666666" stroke="#666666" points="527,-462 527,-462 542,-462 542,-462 527,-462"/>
<polygon fill="#666666" stroke="#666666" points="542,-462 542,-462 657,-462 657,-462 542,-462"/>
<polygon fill="none" stroke="#666666" points="527,-265 527,-509 657,-509 657,-265 527,-265"/>
</a>
</g>
</g>
<!-- Node3 -->
<g id="Node000003" class="node">
<title>Node3</title>
<g id="a_Node000003"><a xlink:href="../../de/da9/classVExceptionBadId.html" target="_top" xlink:title="The VExceptionBadId class for exception bad id.">
<polygon fill="white" stroke="transparent" points="120,-199 0,-199 0,-30 120,-30 120,-199"/>
<text text-anchor="start" x="18.5" y="-186.5" font-family="Helvetica,sans-Serif" font-size="10.00">VExceptionBadId</text>
<text text-anchor="start" x="4" y="-171.5" font-family="Helvetica,sans-Serif" font-size="10.00">#</text>
<text text-anchor="start" x="17" y="-171.5" font-family="Helvetica,sans-Serif" font-size="10.00">id</text>
<text text-anchor="start" x="4" y="-156.5" font-family="Helvetica,sans-Serif" font-size="10.00">#</text>
<text text-anchor="start" x="17" y="-156.5" font-family="Helvetica,sans-Serif" font-size="10.00">key</text>
<text text-anchor="start" x="4" y="-141.5" font-family="Helvetica,sans-Serif" font-size="10.00">+</text>
<text text-anchor="start" x="17" y="-141.5" font-family="Helvetica,sans-Serif" font-size="10.00">VExceptionBadId()</text>
<text text-anchor="start" x="4" y="-126.5" font-family="Helvetica,sans-Serif" font-size="10.00">+</text>
<text text-anchor="start" x="17" y="-126.5" font-family="Helvetica,sans-Serif" font-size="10.00">VExceptionBadId()</text>
<text text-anchor="start" x="4" y="-111.5" font-family="Helvetica,sans-Serif" font-size="10.00">+</text>
<text text-anchor="start" x="17" y="-111.5" font-family="Helvetica,sans-Serif" font-size="10.00">VExceptionBadId()</text>
<text text-anchor="start" x="4" y="-96.5" font-family="Helvetica,sans-Serif" font-size="10.00">+</text>
<text text-anchor="start" x="17" y="-96.5" font-family="Helvetica,sans-Serif" font-size="10.00">operator=()</text>
<text text-anchor="start" x="4" y="-81.5" font-family="Helvetica,sans-Serif" font-size="10.00">+</text>
<text text-anchor="start" x="17" y="-81.5" font-family="Helvetica,sans-Serif" font-size="10.00">~VExceptionBadId()</text>
<text text-anchor="start" x="4" y="-66.5" font-family="Helvetica,sans-Serif" font-size="10.00">+</text>
<text text-anchor="start" x="17" y="-66.5" font-family="Helvetica,sans-Serif" font-size="10.00">ErrorMessage()</text>
<text text-anchor="start" x="4" y="-51.5" font-family="Helvetica,sans-Serif" font-size="10.00">+</text>
<text text-anchor="start" x="17" y="-51.5" font-family="Helvetica,sans-Serif" font-size="10.00">BadId()</text>
<text text-anchor="start" x="4" y="-36.5" font-family="Helvetica,sans-Serif" font-size="10.00">+</text>
<text text-anchor="start" x="17" y="-36.5" font-family="Helvetica,sans-Serif" font-size="10.00">BadKey()</text>
<polygon fill="#666666" stroke="#666666" points="0,-181.5 0,-181.5 120,-181.5 120,-181.5 0,-181.5"/>
<polygon fill="#666666" stroke="#666666" points="0,-151.5 0,-151.5 15,-151.5 15,-151.5 0,-151.5"/>
<polygon fill="#666666" stroke="#666666" points="15,-151.5 15,-151.5 120,-151.5 120,-151.5 15,-151.5"/>
<polygon fill="none" stroke="#666666" points="0,-30 0,-199 120,-199 120,-30 0,-30"/>
</a>
</g>
</g>
<!-- Node1&#45;&gt;Node3 -->
<g id="edge2_Node000001_Node000003" class="edge">
<title>Node1&#45;&gt;Node3</title>
<g id="a_edge2_Node000001_Node000003"><a xlink:title=" ">
<path fill="none" stroke="#63b8ff" d="M516.77,-376.65C418.33,-361.07 244.77,-321.81 129,-229 118.56,-220.63 109.32,-210.23 101.25,-199.15"/>
<polygon fill="none" stroke="#63b8ff" points="516.51,-380.15 526.93,-378.21 517.58,-373.23 516.51,-380.15"/>
</a>
</g>
</g>
<!-- Node4 -->
<g id="Node000004" class="node">
<title>Node4</title>
<g id="a_Node000004"><a xlink:href="../../d1/d99/classVExceptionConversionError.html" target="_top" xlink:title="The VExceptionConversionError class for exception of conversion error.">
<polygon fill="white" stroke="transparent" points="308,-176.5 138,-176.5 138,-52.5 308,-52.5 308,-176.5"/>
<text text-anchor="start" x="156.5" y="-164.5" font-family="Helvetica,sans-Serif" font-size="10.00">VExceptionConversionError</text>
<text text-anchor="start" x="142" y="-149.5" font-family="Helvetica,sans-Serif" font-size="10.00">#</text>
<text text-anchor="start" x="155" y="-149.5" font-family="Helvetica,sans-Serif" font-size="10.00">str</text>
<text text-anchor="start" x="142" y="-134.5" font-family="Helvetica,sans-Serif" font-size="10.00">+</text>
<text text-anchor="start" x="155" y="-134.5" font-family="Helvetica,sans-Serif" font-size="10.00">VExceptionConversionError()</text>
<text text-anchor="start" x="142" y="-119.5" font-family="Helvetica,sans-Serif" font-size="10.00">+</text>
<text text-anchor="start" x="155" y="-119.5" font-family="Helvetica,sans-Serif" font-size="10.00">VExceptionConversionError()</text>
<text text-anchor="start" x="142" y="-104.5" font-family="Helvetica,sans-Serif" font-size="10.00">+</text>
<text text-anchor="start" x="155" y="-104.5" font-family="Helvetica,sans-Serif" font-size="10.00">operator=()</text>
<text text-anchor="start" x="142" y="-89.5" font-family="Helvetica,sans-Serif" font-size="10.00">+</text>
<text text-anchor="start" x="155" y="-89.5" font-family="Helvetica,sans-Serif" font-size="10.00">~VExceptionConversionError()</text>
<text text-anchor="start" x="142" y="-74.5" font-family="Helvetica,sans-Serif" font-size="10.00">+</text>
<text text-anchor="start" x="155" y="-74.5" font-family="Helvetica,sans-Serif" font-size="10.00">ErrorMessage()</text>
<text text-anchor="start" x="142" y="-59.5" font-family="Helvetica,sans-Serif" font-size="10.00">+</text>
<text text-anchor="start" x="155" y="-59.5" font-family="Helvetica,sans-Serif" font-size="10.00">String()</text>
<polygon fill="#666666" stroke="#666666" points="138,-159.5 138,-159.5 308,-159.5 308,-159.5 138,-159.5"/>
<polygon fill="#666666" stroke="#666666" points="138,-144.5 138,-144.5 153,-144.5 153,-144.5 138,-144.5"/>
<polygon fill="#666666" stroke="#666666" points="153,-144.5 153,-144.5 308,-144.5 308,-144.5 153,-144.5"/>
<polygon fill="none" stroke="#666666" points="138,-52.5 138,-176.5 308,-176.5 308,-52.5 138,-52.5"/>
</a>
</g>
</g>
<!-- Node1&#45;&gt;Node4 -->
<g id="edge3_Node000001_Node000004" class="edge">
<title>Node1&#45;&gt;Node4</title>
<g id="a_edge3_Node000001_Node000004"><a xlink:title=" ">
<path fill="none" stroke="#63b8ff" d="M517.84,-352.79C459.71,-324.7 378.62,-280.79 317,-229 298.88,-213.77 281.59,-194.73 266.88,-176.62"/>
<polygon fill="none" stroke="#63b8ff" points="516.44,-356 526.97,-357.17 519.46,-349.69 516.44,-356"/>
</a>
</g>
</g>
<!-- Node5 -->
<g id="Node000005" class="node">
<title>Node5</title>
<g id="a_Node000005"><a xlink:href="../../d9/d43/classVExceptionEmptyParameter.html" target="_top" xlink:title="The VExceptionEmptyParameter class for exception empty parameter.">
<polygon fill="white" stroke="transparent" points="500,-229 326,-229 326,0 500,0 500,-229"/>
<text text-anchor="start" x="344.5" y="-216.5" font-family="Helvetica,sans-Serif" font-size="10.00">VExceptionEmptyParameter</text>
<text text-anchor="start" x="330" y="-201.5" font-family="Helvetica,sans-Serif" font-size="10.00">#</text>
<text text-anchor="start" x="343" y="-201.5" font-family="Helvetica,sans-Serif" font-size="10.00">name</text>
<text text-anchor="start" x="330" y="-186.5" font-family="Helvetica,sans-Serif" font-size="10.00">#</text>
<text text-anchor="start" x="343" y="-186.5" font-family="Helvetica,sans-Serif" font-size="10.00">tagText</text>
<text text-anchor="start" x="330" y="-171.5" font-family="Helvetica,sans-Serif" font-size="10.00">#</text>
<text text-anchor="start" x="343" y="-171.5" font-family="Helvetica,sans-Serif" font-size="10.00">tagName</text>
<text text-anchor="start" x="330" y="-156.5" font-family="Helvetica,sans-Serif" font-size="10.00">#</text>
<text text-anchor="start" x="343" y="-156.5" font-family="Helvetica,sans-Serif" font-size="10.00">lineNumber</text>
<text text-anchor="start" x="330" y="-141.5" font-family="Helvetica,sans-Serif" font-size="10.00">+</text>
<text text-anchor="start" x="343" y="-141.5" font-family="Helvetica,sans-Serif" font-size="10.00">VExceptionEmptyParameter()</text>
<text text-anchor="start" x="330" y="-126.5" font-family="Helvetica,sans-Serif" font-size="10.00">+</text>
<text text-anchor="start" x="343" y="-126.5" font-family="Helvetica,sans-Serif" font-size="10.00">VExceptionEmptyParameter()</text>
<text text-anchor="start" x="330" y="-111.5" font-family="Helvetica,sans-Serif" font-size="10.00">+</text>
<text text-anchor="start" x="343" y="-111.5" font-family="Helvetica,sans-Serif" font-size="10.00">operator=()</text>
<text text-anchor="start" x="330" y="-96.5" font-family="Helvetica,sans-Serif" font-size="10.00">+</text>
<text text-anchor="start" x="343" y="-96.5" font-family="Helvetica,sans-Serif" font-size="10.00">~VExceptionEmptyParameter()</text>
<text text-anchor="start" x="330" y="-81.5" font-family="Helvetica,sans-Serif" font-size="10.00">+</text>
<text text-anchor="start" x="343" y="-81.5" font-family="Helvetica,sans-Serif" font-size="10.00">ErrorMessage()</text>
<text text-anchor="start" x="330" y="-66.5" font-family="Helvetica,sans-Serif" font-size="10.00">+</text>
<text text-anchor="start" x="343" y="-66.5" font-family="Helvetica,sans-Serif" font-size="10.00">DetailedInformation()</text>
<text text-anchor="start" x="330" y="-51.5" font-family="Helvetica,sans-Serif" font-size="10.00">+</text>
<text text-anchor="start" x="343" y="-51.5" font-family="Helvetica,sans-Serif" font-size="10.00">Name()</text>
<text text-anchor="start" x="330" y="-36.5" font-family="Helvetica,sans-Serif" font-size="10.00">+</text>
<text text-anchor="start" x="343" y="-36.5" font-family="Helvetica,sans-Serif" font-size="10.00">TagText()</text>
<text text-anchor="start" x="330" y="-21.5" font-family="Helvetica,sans-Serif" font-size="10.00">+</text>
<text text-anchor="start" x="343" y="-21.5" font-family="Helvetica,sans-Serif" font-size="10.00">TagName()</text>
<text text-anchor="start" x="330" y="-6.5" font-family="Helvetica,sans-Serif" font-size="10.00">+</text>
<text text-anchor="start" x="343" y="-6.5" font-family="Helvetica,sans-Serif" font-size="10.00">LineNumber()</text>
<polygon fill="#666666" stroke="#666666" points="326,-211.5 326,-211.5 500,-211.5 500,-211.5 326,-211.5"/>
<polygon fill="#666666" stroke="#666666" points="326,-151.5 326,-151.5 341,-151.5 341,-151.5 326,-151.5"/>
<polygon fill="#666666" stroke="#666666" points="341,-151.5 341,-151.5 500,-151.5 500,-151.5 341,-151.5"/>
<polygon fill="none" stroke="#666666" points="326,0 326,-229 500,-229 500,0 326,0"/>
</a>
</g>
</g>
<!-- Node1&#45;&gt;Node5 -->
<g id="edge4_Node000001_Node000005" class="edge">
<title>Node1&#45;&gt;Node5</title>
<g id="a_edge4_Node000001_Node000005"><a xlink:title=" ">
<path fill="none" stroke="#63b8ff" d="M521.26,-279.11C510.47,-262.8 499.3,-245.91 488.41,-229.45"/>
<polygon fill="none" stroke="#63b8ff" points="518.43,-281.17 526.87,-287.58 524.27,-277.31 518.43,-281.17"/>
</a>
</g>
</g>
<!-- Node6 -->
<g id="Node000006" class="node">
<title>Node6</title>
<g id="a_Node000006"><a xlink:href="../../d7/d41/classVExceptionObjectError.html" target="_top" xlink:title="The VExceptionObjectError class for exception object error.">
<polygon fill="white" stroke="transparent" points="665.5,-214 518.5,-214 518.5,-15 665.5,-15 665.5,-214"/>
<text text-anchor="start" x="537.5" y="-201.5" font-family="Helvetica,sans-Serif" font-size="10.00">VExceptionObjectError</text>
<text text-anchor="start" x="523" y="-186.5" font-family="Helvetica,sans-Serif" font-size="10.00">#</text>
<text text-anchor="start" x="536" y="-186.5" font-family="Helvetica,sans-Serif" font-size="10.00">tagText</text>
<text text-anchor="start" x="523" y="-171.5" font-family="Helvetica,sans-Serif" font-size="10.00">#</text>
<text text-anchor="start" x="536" y="-171.5" font-family="Helvetica,sans-Serif" font-size="10.00">tagName</text>
<text text-anchor="start" x="523" y="-156.5" font-family="Helvetica,sans-Serif" font-size="10.00">#</text>
<text text-anchor="start" x="536" y="-156.5" font-family="Helvetica,sans-Serif" font-size="10.00">lineNumber</text>
<text text-anchor="start" x="523" y="-141.5" font-family="Helvetica,sans-Serif" font-size="10.00">+</text>
<text text-anchor="start" x="536" y="-141.5" font-family="Helvetica,sans-Serif" font-size="10.00">VExceptionObjectError()</text>
<text text-anchor="start" x="523" y="-126.5" font-family="Helvetica,sans-Serif" font-size="10.00">+</text>
<text text-anchor="start" x="536" y="-126.5" font-family="Helvetica,sans-Serif" font-size="10.00">VExceptionObjectError()</text>
<text text-anchor="start" x="523" y="-111.5" font-family="Helvetica,sans-Serif" font-size="10.00">+</text>
<text text-anchor="start" x="536" y="-111.5" font-family="Helvetica,sans-Serif" font-size="10.00">operator=()</text>
<text text-anchor="start" x="523" y="-96.5" font-family="Helvetica,sans-Serif" font-size="10.00">+</text>
<text text-anchor="start" x="536" y="-96.5" font-family="Helvetica,sans-Serif" font-size="10.00">~VExceptionObjectError()</text>
<text text-anchor="start" x="523" y="-81.5" font-family="Helvetica,sans-Serif" font-size="10.00">+</text>
<text text-anchor="start" x="536" y="-81.5" font-family="Helvetica,sans-Serif" font-size="10.00">ErrorMessage()</text>
<text text-anchor="start" x="523" y="-66.5" font-family="Helvetica,sans-Serif" font-size="10.00">+</text>
<text text-anchor="start" x="536" y="-66.5" font-family="Helvetica,sans-Serif" font-size="10.00">DetailedInformation()</text>
<text text-anchor="start" x="523" y="-51.5" font-family="Helvetica,sans-Serif" font-size="10.00">+</text>
<text text-anchor="start" x="536" y="-51.5" font-family="Helvetica,sans-Serif" font-size="10.00">TagText()</text>
<text text-anchor="start" x="523" y="-36.5" font-family="Helvetica,sans-Serif" font-size="10.00">+</text>
<text text-anchor="start" x="536" y="-36.5" font-family="Helvetica,sans-Serif" font-size="10.00">TagName()</text>
<text text-anchor="start" x="523" y="-21.5" font-family="Helvetica,sans-Serif" font-size="10.00">+</text>
<text text-anchor="start" x="536" y="-21.5" font-family="Helvetica,sans-Serif" font-size="10.00">LineNumber()</text>
<polygon fill="#666666" stroke="#666666" points="519,-196.5 519,-196.5 666,-196.5 666,-196.5 519,-196.5"/>
<polygon fill="#666666" stroke="#666666" points="519,-151.5 519,-151.5 534,-151.5 534,-151.5 519,-151.5"/>
<polygon fill="#666666" stroke="#666666" points="534,-151.5 534,-151.5 666,-151.5 666,-151.5 534,-151.5"/>
<polygon fill="none" stroke="#666666" points="518.5,-15 518.5,-214 665.5,-214 665.5,-15 518.5,-15"/>
</a>
</g>
</g>
<!-- Node1&#45;&gt;Node6 -->
<g id="edge5_Node000001_Node000006" class="edge">
<title>Node1&#45;&gt;Node6</title>
<g id="a_edge5_Node000001_Node000006"><a xlink:title=" ">
<path fill="none" stroke="#63b8ff" d="M592,-254.59C592,-240.96 592,-227.29 592,-214.11"/>
<polygon fill="none" stroke="#63b8ff" points="588.5,-254.99 592,-264.99 595.5,-254.99 588.5,-254.99"/>
</a>
</g>
</g>
<!-- Node7 -->
<g id="Node000007" class="node">
<title>Node7</title>
<g id="a_Node000007"><a xlink:href="../../d3/d58/classVExceptionToolWasDeleted.html" target="_top" xlink:title=" ">
<polygon fill="white" stroke="transparent" points="854,-176.5 684,-176.5 684,-52.5 854,-52.5 854,-176.5"/>
<text text-anchor="start" x="702.5" y="-164.5" font-family="Helvetica,sans-Serif" font-size="10.00">VExceptionToolWasDeleted</text>
<text text-anchor="start" x="767" y="-149.5" font-family="Helvetica,sans-Serif" font-size="10.00"> </text>
<text text-anchor="start" x="688" y="-134.5" font-family="Helvetica,sans-Serif" font-size="10.00">+</text>
<text text-anchor="start" x="701" y="-134.5" font-family="Helvetica,sans-Serif" font-size="10.00">VExceptionToolWasDeleted()</text>
<text text-anchor="start" x="688" y="-119.5" font-family="Helvetica,sans-Serif" font-size="10.00">+</text>
<text text-anchor="start" x="701" y="-119.5" font-family="Helvetica,sans-Serif" font-size="10.00">VExceptionToolWasDeleted()</text>
<text text-anchor="start" x="688" y="-104.5" font-family="Helvetica,sans-Serif" font-size="10.00">+</text>
<text text-anchor="start" x="701" y="-104.5" font-family="Helvetica,sans-Serif" font-size="10.00">operator=()</text>
<text text-anchor="start" x="688" y="-89.5" font-family="Helvetica,sans-Serif" font-size="10.00">+</text>
<text text-anchor="start" x="701" y="-89.5" font-family="Helvetica,sans-Serif" font-size="10.00">~VExceptionToolWasDeleted()</text>
<text text-anchor="start" x="688" y="-74.5" font-family="Helvetica,sans-Serif" font-size="10.00">+</text>
<text text-anchor="start" x="701" y="-74.5" font-family="Helvetica,sans-Serif" font-size="10.00">raise()</text>
<text text-anchor="start" x="688" y="-59.5" font-family="Helvetica,sans-Serif" font-size="10.00">+</text>
<text text-anchor="start" x="701" y="-59.5" font-family="Helvetica,sans-Serif" font-size="10.00">clone()</text>
<polygon fill="#666666" stroke="#666666" points="684,-159.5 684,-159.5 854,-159.5 854,-159.5 684,-159.5"/>
<polygon fill="#666666" stroke="#666666" points="684,-144.5 684,-144.5 854,-144.5 854,-144.5 684,-144.5"/>
<polygon fill="none" stroke="#666666" points="684,-52.5 684,-176.5 854,-176.5 854,-52.5 684,-52.5"/>
</a>
</g>
</g>
<!-- Node1&#45;&gt;Node7 -->
<g id="edge6_Node000001_Node000007" class="edge">
<title>Node1&#45;&gt;Node7</title>
<g id="a_edge6_Node000001_Node000007"><a xlink:title=" ">
<path fill="none" stroke="#63b8ff" d="M662.83,-277.75C685.32,-243.39 709.39,-206.6 728.92,-176.76"/>
<polygon fill="none" stroke="#63b8ff" points="659.7,-276.14 657.15,-286.43 665.56,-279.98 659.7,-276.14"/>
</a>
</g>
</g>
<!-- Node8 -->
<g id="Node000008" class="node">
<title>Node8</title>
<g id="a_Node000008"><a xlink:href="../../dc/d27/classVExceptionUndo.html" target="_top" xlink:title=" ">
<polygon fill="white" stroke="transparent" points="990,-154 872,-154 872,-75 990,-75 990,-154"/>
<text text-anchor="start" x="890.5" y="-141.5" font-family="Helvetica,sans-Serif" font-size="10.00">VExceptionUndo</text>
<text text-anchor="start" x="929" y="-126.5" font-family="Helvetica,sans-Serif" font-size="10.00"> </text>
<text text-anchor="start" x="876" y="-111.5" font-family="Helvetica,sans-Serif" font-size="10.00">+</text>
<text text-anchor="start" x="889" y="-111.5" font-family="Helvetica,sans-Serif" font-size="10.00">VExceptionUndo()</text>
<text text-anchor="start" x="876" y="-96.5" font-family="Helvetica,sans-Serif" font-size="10.00">+</text>
<text text-anchor="start" x="889" y="-96.5" font-family="Helvetica,sans-Serif" font-size="10.00">VExceptionUndo()</text>
<text text-anchor="start" x="876" y="-81.5" font-family="Helvetica,sans-Serif" font-size="10.00">+</text>
<text text-anchor="start" x="889" y="-81.5" font-family="Helvetica,sans-Serif" font-size="10.00">~VExceptionUndo()</text>
<polygon fill="#666666" stroke="#666666" points="872,-136.5 872,-136.5 990,-136.5 990,-136.5 872,-136.5"/>
<polygon fill="#666666" stroke="#666666" points="872,-121.5 872,-121.5 990,-121.5 990,-121.5 872,-121.5"/>
<polygon fill="none" stroke="#666666" points="872,-75 872,-154 990,-154 990,-75 872,-75"/>
</a>
</g>
</g>
<!-- Node1&#45;&gt;Node8 -->
<g id="edge7_Node000001_Node000008" class="edge">
<title>Node1&#45;&gt;Node8</title>
<g id="a_edge7_Node000001_Node000008"><a xlink:title=" ">
<path fill="none" stroke="#63b8ff" d="M666.43,-355.43C725.02,-328.62 806.02,-285.15 863,-229 884.76,-207.56 902.26,-177.76 914.06,-154.08"/>
<polygon fill="none" stroke="#63b8ff" points="664.9,-352.28 657.23,-359.59 667.78,-358.66 664.9,-352.28"/>
</a>
</g>
</g>
<!-- Node9 -->
<g id="Node000009" class="node">
<title>Node9</title>
<g id="a_Node000009"><a xlink:href="../../d9/dcf/classVExceptionWrongId.html" target="_top" xlink:title="The VExceptionWrongId class for exception wrong id.">
<polygon fill="white" stroke="transparent" points="1141.5,-214 1008.5,-214 1008.5,-15 1141.5,-15 1141.5,-214"/>
<text text-anchor="start" x="1027.5" y="-201.5" font-family="Helvetica,sans-Serif" font-size="10.00">VExceptionWrongId</text>
<text text-anchor="start" x="1013" y="-186.5" font-family="Helvetica,sans-Serif" font-size="10.00">#</text>
<text text-anchor="start" x="1026" y="-186.5" font-family="Helvetica,sans-Serif" font-size="10.00">tagText</text>
<text text-anchor="start" x="1013" y="-171.5" font-family="Helvetica,sans-Serif" font-size="10.00">#</text>
<text text-anchor="start" x="1026" y="-171.5" font-family="Helvetica,sans-Serif" font-size="10.00">tagName</text>
<text text-anchor="start" x="1013" y="-156.5" font-family="Helvetica,sans-Serif" font-size="10.00">#</text>
<text text-anchor="start" x="1026" y="-156.5" font-family="Helvetica,sans-Serif" font-size="10.00">lineNumber</text>
<text text-anchor="start" x="1013" y="-141.5" font-family="Helvetica,sans-Serif" font-size="10.00">+</text>
<text text-anchor="start" x="1026" y="-141.5" font-family="Helvetica,sans-Serif" font-size="10.00">VExceptionWrongId()</text>
<text text-anchor="start" x="1013" y="-126.5" font-family="Helvetica,sans-Serif" font-size="10.00">+</text>
<text text-anchor="start" x="1026" y="-126.5" font-family="Helvetica,sans-Serif" font-size="10.00">VExceptionWrongId()</text>
<text text-anchor="start" x="1013" y="-111.5" font-family="Helvetica,sans-Serif" font-size="10.00">+</text>
<text text-anchor="start" x="1026" y="-111.5" font-family="Helvetica,sans-Serif" font-size="10.00">operator=()</text>
<text text-anchor="start" x="1013" y="-96.5" font-family="Helvetica,sans-Serif" font-size="10.00">+</text>
<text text-anchor="start" x="1026" y="-96.5" font-family="Helvetica,sans-Serif" font-size="10.00">~VExceptionWrongId()</text>
<text text-anchor="start" x="1013" y="-81.5" font-family="Helvetica,sans-Serif" font-size="10.00">+</text>
<text text-anchor="start" x="1026" y="-81.5" font-family="Helvetica,sans-Serif" font-size="10.00">ErrorMessage()</text>
<text text-anchor="start" x="1013" y="-66.5" font-family="Helvetica,sans-Serif" font-size="10.00">+</text>
<text text-anchor="start" x="1026" y="-66.5" font-family="Helvetica,sans-Serif" font-size="10.00">DetailedInformation()</text>
<text text-anchor="start" x="1013" y="-51.5" font-family="Helvetica,sans-Serif" font-size="10.00">+</text>
<text text-anchor="start" x="1026" y="-51.5" font-family="Helvetica,sans-Serif" font-size="10.00">TagText()</text>
<text text-anchor="start" x="1013" y="-36.5" font-family="Helvetica,sans-Serif" font-size="10.00">+</text>
<text text-anchor="start" x="1026" y="-36.5" font-family="Helvetica,sans-Serif" font-size="10.00">TagName()</text>
<text text-anchor="start" x="1013" y="-21.5" font-family="Helvetica,sans-Serif" font-size="10.00">+</text>
<text text-anchor="start" x="1026" y="-21.5" font-family="Helvetica,sans-Serif" font-size="10.00">LineNumber()</text>
<polygon fill="#666666" stroke="#666666" points="1009,-196.5 1009,-196.5 1142,-196.5 1142,-196.5 1009,-196.5"/>
<polygon fill="#666666" stroke="#666666" points="1009,-151.5 1009,-151.5 1024,-151.5 1024,-151.5 1009,-151.5"/>
<polygon fill="#666666" stroke="#666666" points="1024,-151.5 1024,-151.5 1142,-151.5 1142,-151.5 1024,-151.5"/>
<polygon fill="none" stroke="#666666" points="1008.5,-15 1008.5,-214 1141.5,-214 1141.5,-15 1008.5,-15"/>
</a>
</g>
</g>
<!-- Node1&#45;&gt;Node9 -->
<g id="edge8_Node000001_Node000009" class="edge">
<title>Node1&#45;&gt;Node9</title>
<g id="a_edge8_Node000001_Node000009"><a xlink:title=" ">
<path fill="none" stroke="#63b8ff" d="M667.2,-371.45C754.53,-351.5 899.33,-308.69 999,-229 1004.65,-224.48 1010.03,-219.43 1015.13,-214.04"/>
<polygon fill="none" stroke="#63b8ff" points="666.36,-368.05 657.36,-373.65 667.89,-374.88 666.36,-368.05"/>
</a>
</g>
</g>
<!-- Node2 -->
<g id="Node000002" class="node">
<title>Node2</title>
<g id="a_Node000002"><a xlink:title=" ">
<polygon fill="white" stroke="transparent" points="625,-594 559,-594 559,-545 625,-545 625,-594"/>
<text text-anchor="start" x="564" y="-581.5" font-family="Helvetica,sans-Serif" font-size="10.00">QException</text>
<text text-anchor="start" x="590" y="-566.5" font-family="Helvetica,sans-Serif" font-size="10.00"> </text>
<text text-anchor="start" x="590" y="-551.5" font-family="Helvetica,sans-Serif" font-size="10.00"> </text>
<polygon fill="#666666" stroke="#666666" points="559,-576.5 559,-576.5 625,-576.5 625,-576.5 559,-576.5"/>
<polygon fill="#666666" stroke="#666666" points="559,-561.5 559,-561.5 625,-561.5 625,-561.5 559,-561.5"/>
<polygon fill="none" stroke="#666666" points="559,-545 559,-594 625,-594 625,-545 559,-545"/>
</a>
</g>
</g>
<!-- Node2&#45;&gt;Node1 -->
<g id="edge1_Node000001_Node000002" class="edge">
<title>Node2&#45;&gt;Node1</title>
<g id="a_edge1_Node000001_Node000002"><a xlink:title=" ">
<path fill="none" stroke="#63b8ff" d="M592,-534.65C592,-526.93 592,-518.29 592,-509.18"/>
<polygon fill="none" stroke="#63b8ff" points="588.5,-534.9 592,-544.9 595.5,-534.9 588.5,-534.9"/>
</a>
</g>
</g>
</g>
</svg>
