<?xml version="1.0" encoding="UTF-8" standalone="no"?>
<!DOCTYPE svg PUBLIC "-//W3C//DTD SVG 1.1//EN"
 "http://www.w3.org/Graphics/SVG/1.1/DTD/svg11.dtd">
<!-- Generated by graphviz version 2.43.0 (0)
 -->
<!-- Title: src/libs/vpropertyexplorer/plugins/plaintext_property.cpp Pages: 1 -->
<!--zoomable 203 -->

<svg id="main" version="1.1" xmlns="http://www.w3.org/2000/svg" xmlns:xlink="http://www.w3.org/1999/xlink" xml:space="preserve" onload="init(evt)">
<style type="text/css"><![CDATA[
.node, .edge {opacity: 0.7;}
.node.selected, .edge.selected {opacity: 1;}
.edge:hover path { stroke: red; }
.edge:hover polygon { stroke: red; fill: red; }
]]></style>

<defs>
  <circle id="rim" cx="0" cy="0" r="7"/>
  <circle id="rim2" cx="0" cy="0" r="3.5"/>
  <g id="zoomPlus">
    <use xlink:href="#rim" fill="#404040"><set attributeName="fill" to="#808080" begin="zoomplus.mouseover" end="zoomplus.mouseout"/></use>
    <path d="M-4,0h8M0,-4v8" fill="none" stroke="white" stroke-width="1.5" pointer-events="none"/>
  </g>
  <g id="zoomMin">
    <use xlink:href="#rim" fill="#404040"><set attributeName="fill" to="#808080" begin="zoomminus.mouseover" end="zoomminus.mouseout"/></use>
    <path d="M-4,0h8" fill="none" stroke="white" stroke-width="1.5" pointer-events="none"/>
  </g>
  <g id="arrowUp" transform="translate(30 24)">
    <use xlink:href="#rim"/>
    <path pointer-events="none" fill="none" stroke="white" stroke-width="1.5" d="M0,-3.0v7 M-2.5,-0.5L0,-3.0L2.5,-0.5"/>
  </g>
  <g id="arrowRight" transform="rotate(90) translate(36 -43)">
    <use xlink:href="#rim"/>
    <path pointer-events="none" fill="none" stroke="white" stroke-width="1.5" d="M0,-3.0v7 M-2.5,-0.5L0,-3.0L2.5,-0.5"/>
  </g>
  <g id="arrowDown" transform="rotate(180) translate(-30 -48)">
    <use xlink:href="#rim"/>
    <path pointer-events="none" fill="none" stroke="white" stroke-width="1.5" d="M0,-3.0v7 M-2.5,-0.5L0,-3.0L2.5,-0.5"/>
  </g>
  <g id="arrowLeft" transform="rotate(270) translate(-36 17)">
    <use xlink:href="#rim"/>
    <path pointer-events="none" fill="none" stroke="white" stroke-width="1.5" d="M0,-3.0v7 M-2.5,-0.5L0,-3.0L2.5,-0.5"/>
  </g>
  <g id="resetDef">
    <use xlink:href="#rim2" fill="#404040"><set attributeName="fill" to="#808080" begin="reset.mouseover" end="reset.mouseout"/></use>
  </g>
</defs>
<script type="application/ecmascript">
var viewWidth = 1793;
var viewHeight = 203;
var sectionId = 'dynsection-0';
</script>
<script type="application/ecmascript" xlink:href="../../svg.min.js"/>
<svg id="graph" class="graph">
<g id="viewport">
<title>src/libs/vpropertyexplorer/plugins/plaintext_property.cpp</title>
<!-- Node1 -->
<g id="Node000001" class="node">
<title>Node1</title>
<g id="a_Node000001"><a xlink:title=" ">
<polygon fill="#999999" stroke="#666666" points="1335.5,-195 1168.5,-195 1168.5,-165 1335.5,-165 1335.5,-195"/>
<text text-anchor="start" x="1176.5" y="-183" font-family="Helvetica,sans-Serif" font-size="10.00">src/libs/vpropertyexplorer</text>
<text text-anchor="middle" x="1252" y="-172" font-family="Helvetica,sans-Serif" font-size="10.00">/plugins/plaintext_property.cpp</text>
</a>
</g>
</g>
<!-- Node2 -->
<g id="Node000002" class="node">
<title>Node2</title>
<g id="a_Node000002"><a xlink:href="../../da/dcb/plaintext__property_8h.html" target="_top" xlink:title=" ">
<polygon fill="white" stroke="#666666" points="599,-129 485,-129 485,-110 599,-110 599,-129"/>
<text text-anchor="middle" x="542" y="-117" font-family="Helvetica,sans-Serif" font-size="10.00">plaintext_property.h</text>
</a>
</g>
</g>
<!-- Node1&#45;&gt;Node2 -->
<g id="edge1_Node000001_Node000002" class="edge">
<title>Node1&#45;&gt;Node2</title>
<g id="a_edge1_Node000001_Node000002"><a xlink:title=" ">
<path fill="none" stroke="#63b8ff" d="M1168.47,-172.12C1026.24,-160.4 739.82,-136.8 609.42,-126.05"/>
<polygon fill="#63b8ff" stroke="#63b8ff" points="609.43,-122.54 599.17,-125.21 608.85,-129.52 609.43,-122.54"/>
</a>
</g>
</g>
<!-- Node17 -->
<g id="Node000017" class="node">
<title>Node17</title>
<g id="a_Node000017"><a xlink:title=" ">
<polygon fill="#e0e0e0" stroke="#999999" points="1021,-129 951,-129 951,-110 1021,-110 1021,-129"/>
<text text-anchor="middle" x="986" y="-117" font-family="Helvetica,sans-Serif" font-size="10.00">QKeyEvent</text>
</a>
</g>
</g>
<!-- Node1&#45;&gt;Node17 -->
<g id="edge25_Node000001_Node000017" class="edge">
<title>Node1&#45;&gt;Node17</title>
<g id="a_edge25_Node000001_Node000017"><a xlink:title=" ">
<path fill="none" stroke="#63b8ff" d="M1188.29,-164.99C1139.77,-154.32 1074.17,-139.89 1031.01,-130.4"/>
<polygon fill="#63b8ff" stroke="#63b8ff" points="1031.6,-126.94 1021.08,-128.22 1030.1,-133.78 1031.6,-126.94"/>
</a>
</g>
</g>
<!-- Node18 -->
<g id="Node000018" class="node">
<title>Node18</title>
<g id="a_Node000018"><a xlink:title=" ">
<polygon fill="#e0e0e0" stroke="#999999" points="1122.5,-129 1039.5,-129 1039.5,-110 1122.5,-110 1122.5,-129"/>
<text text-anchor="middle" x="1081" y="-117" font-family="Helvetica,sans-Serif" font-size="10.00">QLatin1String</text>
</a>
</g>
</g>
<!-- Node1&#45;&gt;Node18 -->
<g id="edge26_Node000001_Node000018" class="edge">
<title>Node1&#45;&gt;Node18</title>
<g id="a_edge26_Node000001_Node000018"><a xlink:title=" ">
<path fill="none" stroke="#63b8ff" d="M1211.04,-164.99C1182,-155.05 1143.45,-141.86 1115.88,-132.43"/>
<polygon fill="#63b8ff" stroke="#63b8ff" points="1116.85,-129.06 1106.25,-129.14 1114.58,-135.69 1116.85,-129.06"/>
</a>
</g>
</g>
<!-- Node19 -->
<g id="Node000019" class="node">
<title>Node19</title>
<g id="a_Node000019"><a xlink:title=" ">
<polygon fill="#e0e0e0" stroke="#999999" points="1197,-129 1141,-129 1141,-110 1197,-110 1197,-129"/>
<text text-anchor="middle" x="1169" y="-117" font-family="Helvetica,sans-Serif" font-size="10.00">QLocale</text>
</a>
</g>
</g>
<!-- Node1&#45;&gt;Node19 -->
<g id="edge27_Node000001_Node000019" class="edge">
<title>Node1&#45;&gt;Node19</title>
<g id="a_edge27_Node000001_Node000019"><a xlink:title=" ">
<path fill="none" stroke="#63b8ff" d="M1231.91,-164.84C1219.12,-155.83 1202.6,-144.18 1189.7,-135.09"/>
<polygon fill="#63b8ff" stroke="#63b8ff" points="1191.63,-132.17 1181.44,-129.27 1187.59,-137.89 1191.63,-132.17"/>
</a>
</g>
</g>
<!-- Node20 -->
<g id="Node000020" class="node">
<title>Node20</title>
<g id="a_Node000020"><a xlink:title=" ">
<polygon fill="#e0e0e0" stroke="#999999" points="1289,-129 1215,-129 1215,-110 1289,-110 1289,-129"/>
<text text-anchor="middle" x="1252" y="-117" font-family="Helvetica,sans-Serif" font-size="10.00">QSizePolicy</text>
</a>
</g>
</g>
<!-- Node1&#45;&gt;Node20 -->
<g id="edge28_Node000001_Node000020" class="edge">
<title>Node1&#45;&gt;Node20</title>
<g id="a_edge28_Node000001_Node000020"><a xlink:title=" ">
<path fill="none" stroke="#63b8ff" d="M1252,-164.84C1252,-157.21 1252,-147.7 1252,-139.45"/>
<polygon fill="#63b8ff" stroke="#63b8ff" points="1255.5,-139.27 1252,-129.27 1248.5,-139.27 1255.5,-139.27"/>
</a>
</g>
</g>
<!-- Node21 -->
<g id="Node000021" class="node">
<title>Node21</title>
<g id="a_Node000021"><a xlink:title=" ">
<polygon fill="#e0e0e0" stroke="#999999" points="1411,-129 1307,-129 1307,-110 1411,-110 1411,-129"/>
<text text-anchor="middle" x="1359" y="-117" font-family="Helvetica,sans-Serif" font-size="10.00">QStaticStringData</text>
</a>
</g>
</g>
<!-- Node1&#45;&gt;Node21 -->
<g id="edge29_Node000001_Node000021" class="edge">
<title>Node1&#45;&gt;Node21</title>
<g id="a_edge29_Node000001_Node000021"><a xlink:title=" ">
<path fill="none" stroke="#63b8ff" d="M1277.63,-164.99C1294.84,-155.58 1317.4,-143.24 1334.4,-133.95"/>
<polygon fill="#63b8ff" stroke="#63b8ff" points="1336.1,-137.01 1343.2,-129.14 1332.75,-130.87 1336.1,-137.01"/>
</a>
</g>
</g>
<!-- Node22 -->
<g id="Node000022" class="node">
<title>Node22</title>
<g id="a_Node000022"><a xlink:title=" ">
<polygon fill="#e0e0e0" stroke="#999999" points="1505,-129 1429,-129 1429,-110 1505,-110 1505,-129"/>
<text text-anchor="middle" x="1467" y="-117" font-family="Helvetica,sans-Serif" font-size="10.00">QStringData</text>
</a>
</g>
</g>
<!-- Node1&#45;&gt;Node22 -->
<g id="edge30_Node000001_Node000022" class="edge">
<title>Node1&#45;&gt;Node22</title>
<g id="a_edge30_Node000001_Node000022"><a xlink:title=" ">
<path fill="none" stroke="#63b8ff" d="M1303.5,-164.99C1340.92,-154.8 1390.91,-141.2 1425.73,-131.73"/>
<polygon fill="#63b8ff" stroke="#63b8ff" points="1426.83,-135.06 1435.56,-129.05 1425,-128.3 1426.83,-135.06"/>
</a>
</g>
</g>
<!-- Node23 -->
<g id="Node000023" class="node">
<title>Node23</title>
<g id="a_Node000023"><a xlink:title=" ">
<polygon fill="#e0e0e0" stroke="#999999" points="1612.5,-129 1523.5,-129 1523.5,-110 1612.5,-110 1612.5,-129"/>
<text text-anchor="middle" x="1568" y="-117" font-family="Helvetica,sans-Serif" font-size="10.00">QStringDataPtr</text>
</a>
</g>
</g>
<!-- Node1&#45;&gt;Node23 -->
<g id="edge31_Node000001_Node000023" class="edge">
<title>Node1&#45;&gt;Node23</title>
<g id="a_edge31_Node000001_Node000023"><a xlink:title=" ">
<path fill="none" stroke="#63b8ff" d="M1327.69,-164.99C1384.86,-154.4 1461.99,-140.13 1513.27,-130.63"/>
<polygon fill="#63b8ff" stroke="#63b8ff" points="1513.98,-134.06 1523.17,-128.8 1512.7,-127.18 1513.98,-134.06"/>
</a>
</g>
</g>
<!-- Node24 -->
<g id="Node000024" class="node">
<title>Node24</title>
<g id="a_Node000024"><a xlink:title=" ">
<polygon fill="#e0e0e0" stroke="#999999" points="1670.5,-74 1611.5,-74 1611.5,-55 1670.5,-55 1670.5,-74"/>
<text text-anchor="middle" x="1641" y="-62" font-family="Helvetica,sans-Serif" font-size="10.00">QWidget</text>
</a>
</g>
</g>
<!-- Node1&#45;&gt;Node24 -->
<g id="edge32_Node000001_Node000024" class="edge">
<title>Node1&#45;&gt;Node24</title>
<g id="a_edge32_Node000001_Node000024"><a xlink:title=" ">
<path fill="none" stroke="#63b8ff" d="M1335.57,-177.82C1430.92,-174.78 1579.1,-164.3 1621,-129 1633.97,-118.07 1638.64,-98.8 1640.27,-84.35"/>
<polygon fill="#63b8ff" stroke="#63b8ff" points="1643.78,-84.27 1641.02,-74.04 1636.8,-83.76 1643.78,-84.27"/>
</a>
</g>
</g>
<!-- Node25 -->
<g id="Node000025" class="node">
<title>Node25</title>
<g id="a_Node000025"><a xlink:href="../../d5/d39/expandingtextedit_8h.html" target="_top" xlink:title=" ">
<polygon fill="white" stroke="#666666" points="1784.5,-129 1669.5,-129 1669.5,-110 1784.5,-110 1784.5,-129"/>
<text text-anchor="middle" x="1727" y="-117" font-family="Helvetica,sans-Serif" font-size="10.00">expandingtextedit.h</text>
</a>
</g>
</g>
<!-- Node1&#45;&gt;Node25 -->
<g id="edge33_Node000001_Node000025" class="edge">
<title>Node1&#45;&gt;Node25</title>
<g id="a_edge33_Node000001_Node000025"><a xlink:title=" ">
<path fill="none" stroke="#63b8ff" d="M1335.55,-168.71C1427.64,-157.37 1573.99,-139.34 1659.24,-128.85"/>
<polygon fill="#63b8ff" stroke="#63b8ff" points="1659.83,-132.3 1669.32,-127.6 1658.97,-125.35 1659.83,-132.3"/>
</a>
</g>
</g>
<!-- Node27 -->
<g id="Node000027" class="node">
<title>Node27</title>
<g id="a_Node000027"><a xlink:href="../../d1/de6/vproperty__p_8h.html" target="_top" xlink:title=" ">
<polygon fill="white" stroke="#666666" points="932.5,-129 839.5,-129 839.5,-110 932.5,-110 932.5,-129"/>
<text text-anchor="middle" x="886" y="-117" font-family="Helvetica,sans-Serif" font-size="10.00">../vproperty_p.h</text>
</a>
</g>
</g>
<!-- Node1&#45;&gt;Node27 -->
<g id="edge36_Node000001_Node000027" class="edge">
<title>Node1&#45;&gt;Node27</title>
<g id="a_edge36_Node000001_Node000027"><a xlink:title=" ">
<path fill="none" stroke="#63b8ff" d="M1168.49,-165.65C1099.38,-154.61 1003.08,-139.21 942.67,-129.56"/>
<polygon fill="#63b8ff" stroke="#63b8ff" points="942.98,-126.06 932.55,-127.94 941.87,-132.98 942.98,-126.06"/>
</a>
</g>
</g>
<!-- Node3 -->
<g id="Node000003" class="node">
<title>Node3</title>
<g id="a_Node000003"><a xlink:title=" ">
<polygon fill="#e0e0e0" stroke="#999999" points="516,-19 396,-19 396,0 516,0 516,-19"/>
<text text-anchor="middle" x="456" y="-7" font-family="Helvetica,sans-Serif" font-size="10.00">qcompilerdetection.h</text>
</a>
</g>
</g>
<!-- Node2&#45;&gt;Node3 -->
<g id="edge2_Node000002_Node000003" class="edge">
<title>Node2&#45;&gt;Node3</title>
<g id="a_edge2_Node000002_Node000003"><a xlink:title=" ">
<path fill="none" stroke="#63b8ff" d="M534.96,-109.66C520.59,-91.61 487.67,-50.28 469.2,-27.08"/>
<polygon fill="#63b8ff" stroke="#63b8ff" points="471.86,-24.8 462.89,-19.16 466.39,-29.16 471.86,-24.8"/>
</a>
</g>
</g>
<!-- Node4 -->
<g id="Node000004" class="node">
<title>Node4</title>
<g id="a_Node000004"><a xlink:title=" ">
<polygon fill="#e0e0e0" stroke="#999999" points="579.5,-19 534.5,-19 534.5,0 579.5,0 579.5,-19"/>
<text text-anchor="middle" x="557" y="-7" font-family="Helvetica,sans-Serif" font-size="10.00">QMap</text>
</a>
</g>
</g>
<!-- Node2&#45;&gt;Node4 -->
<g id="edge3_Node000002_Node000004" class="edge">
<title>Node2&#45;&gt;Node4</title>
<g id="a_edge3_Node000002_Node000004"><a xlink:title=" ">
<path fill="none" stroke="#63b8ff" d="M543.23,-109.66C545.66,-92.17 551.12,-52.8 554.39,-29.27"/>
<polygon fill="#63b8ff" stroke="#63b8ff" points="557.89,-29.54 555.8,-19.16 550.95,-28.58 557.89,-29.54"/>
</a>
</g>
</g>
<!-- Node5 -->
<g id="Node000005" class="node">
<title>Node5</title>
<g id="a_Node000005"><a xlink:title=" ">
<polygon fill="#e0e0e0" stroke="#999999" points="80,-19 0,-19 0,0 80,0 80,-19"/>
<text text-anchor="middle" x="40" y="-7" font-family="Helvetica,sans-Serif" font-size="10.00">QMetaObject</text>
</a>
</g>
</g>
<!-- Node2&#45;&gt;Node5 -->
<g id="edge4_Node000002_Node000005" class="edge">
<title>Node2&#45;&gt;Node5</title>
<g id="a_edge4_Node000002_Node000005"><a xlink:title=" ">
<path fill="none" stroke="#63b8ff" d="M497.71,-109.96C452.85,-101.24 381.51,-87.14 320,-74 237.4,-56.36 141.47,-34.25 86.05,-21.32"/>
<polygon fill="#63b8ff" stroke="#63b8ff" points="86.72,-17.88 76.18,-19.01 85.12,-24.7 86.72,-17.88"/>
</a>
</g>
</g>
<!-- Node6 -->
<g id="Node000006" class="node">
<title>Node6</title>
<g id="a_Node000006"><a xlink:title=" ">
<polygon fill="#e0e0e0" stroke="#999999" points="378,-19 322,-19 322,0 378,0 378,-19"/>
<text text-anchor="middle" x="350" y="-7" font-family="Helvetica,sans-Serif" font-size="10.00">QObject</text>
</a>
</g>
</g>
<!-- Node2&#45;&gt;Node6 -->
<g id="edge5_Node000002_Node000006" class="edge">
<title>Node2&#45;&gt;Node6</title>
<g id="a_edge5_Node000002_Node000006"><a xlink:title=" ">
<path fill="none" stroke="#63b8ff" d="M526.61,-109.84C493.25,-91.08 414.04,-46.52 374.02,-24.01"/>
<polygon fill="#63b8ff" stroke="#63b8ff" points="375.63,-20.9 365.19,-19.05 372.19,-27 375.63,-20.9"/>
</a>
</g>
</g>
<!-- Node7 -->
<g id="Node000007" class="node">
<title>Node7</title>
<g id="a_Node000007"><a xlink:title=" ">
<polygon fill="#e0e0e0" stroke="#999999" points="1193.5,-19 1140.5,-19 1140.5,0 1193.5,0 1193.5,-19"/>
<text text-anchor="middle" x="1167" y="-7" font-family="Helvetica,sans-Serif" font-size="10.00">QString</text>
</a>
</g>
</g>
<!-- Node2&#45;&gt;Node7 -->
<g id="edge6_Node000002_Node000007" class="edge">
<title>Node2&#45;&gt;Node7</title>
<g id="a_edge6_Node000002_Node000007"><a xlink:title=" ">
<path fill="none" stroke="#63b8ff" d="M599.08,-110.88C660.08,-102.56 759.55,-88.48 845,-74 969.38,-52.92 1002.75,-46.43 1130.14,-19.12"/>
<polygon fill="#63b8ff" stroke="#63b8ff" points="1131.25,-22.46 1140.29,-16.94 1129.78,-15.61 1131.25,-22.46"/>
</a>
</g>
</g>
<!-- Node8 -->
<g id="Node000008" class="node">
<title>Node8</title>
<g id="a_Node000008"><a xlink:title=" ">
<polygon fill="#e0e0e0" stroke="#999999" points="668,-19 598,-19 598,0 668,0 668,-19"/>
<text text-anchor="middle" x="633" y="-7" font-family="Helvetica,sans-Serif" font-size="10.00">QStringList</text>
</a>
</g>
</g>
<!-- Node2&#45;&gt;Node8 -->
<g id="edge7_Node000002_Node000008" class="edge">
<title>Node2&#45;&gt;Node8</title>
<g id="a_edge7_Node000002_Node000008"><a xlink:title=" ">
<path fill="none" stroke="#63b8ff" d="M549.45,-109.66C564.65,-91.61 599.48,-50.28 619.03,-27.08"/>
<polygon fill="#63b8ff" stroke="#63b8ff" points="621.94,-29.06 625.7,-19.16 616.58,-24.55 621.94,-29.06"/>
</a>
</g>
</g>
<!-- Node9 -->
<g id="Node000009" class="node">
<title>Node9</title>
<g id="a_Node000009"><a xlink:title=" ">
<polygon fill="#e0e0e0" stroke="#999999" points="226,-19 98,-19 98,0 226,0 226,-19"/>
<text text-anchor="middle" x="162" y="-7" font-family="Helvetica,sans-Serif" font-size="10.00">QStyleOptionViewItem</text>
</a>
</g>
</g>
<!-- Node2&#45;&gt;Node9 -->
<g id="edge8_Node000002_Node000009" class="edge">
<title>Node2&#45;&gt;Node9</title>
<g id="a_edge8_Node000002_Node000009"><a xlink:title=" ">
<path fill="none" stroke="#63b8ff" d="M511.4,-109.92C479.57,-100.99 428.27,-86.57 384,-74 320.14,-55.87 246,-34.63 201.61,-21.88"/>
<polygon fill="#63b8ff" stroke="#63b8ff" points="202.37,-18.46 191.79,-19.06 200.44,-25.19 202.37,-18.46"/>
</a>
</g>
</g>
<!-- Node10 -->
<g id="Node000010" class="node">
<title>Node10</title>
<g id="a_Node000010"><a xlink:title=" ">
<polygon fill="#e0e0e0" stroke="#999999" points="1122.5,-19 1063.5,-19 1063.5,0 1122.5,0 1122.5,-19"/>
<text text-anchor="middle" x="1093" y="-7" font-family="Helvetica,sans-Serif" font-size="10.00">QVariant</text>
</a>
</g>
</g>
<!-- Node2&#45;&gt;Node10 -->
<g id="edge9_Node000002_Node000010" class="edge">
<title>Node2&#45;&gt;Node10</title>
<g id="a_edge9_Node000002_Node000010"><a xlink:title=" ">
<path fill="none" stroke="#63b8ff" d="M587.62,-109.99C675.54,-93.52 874.8,-55.81 1053.37,-19.09"/>
<polygon fill="#63b8ff" stroke="#63b8ff" points="1054.12,-22.51 1063.2,-17.07 1052.7,-15.66 1054.12,-22.51"/>
</a>
</g>
</g>
<!-- Node11 -->
<g id="Node000011" class="node">
<title>Node11</title>
<g id="a_Node000011"><a xlink:title=" ">
<polygon fill="#e0e0e0" stroke="#999999" points="303.5,-19 244.5,-19 244.5,0 303.5,0 303.5,-19"/>
<text text-anchor="middle" x="274" y="-7" font-family="Helvetica,sans-Serif" font-size="10.00">QtGlobal</text>
</a>
</g>
</g>
<!-- Node2&#45;&gt;Node11 -->
<g id="edge10_Node000002_Node000011" class="edge">
<title>Node2&#45;&gt;Node11</title>
<g id="a_edge10_Node000002_Node000011"><a xlink:title=" ">
<path fill="none" stroke="#63b8ff" d="M520.71,-109.99C498.36,-101.05 462.2,-86.56 431,-74 387.07,-56.31 336.27,-35.74 304.63,-22.92"/>
<polygon fill="#63b8ff" stroke="#63b8ff" points="305.65,-19.56 295.07,-19.05 303.02,-26.05 305.65,-19.56"/>
</a>
</g>
</g>
<!-- Node12 -->
<g id="Node000012" class="node">
<title>Node12</title>
<g id="a_Node000012"><a xlink:href="../../d2/d6e/vproperty_8h.html" target="_top" xlink:title=" ">
<polygon fill="white" stroke="#666666" points="688,-74 608,-74 608,-55 688,-55 688,-74"/>
<text text-anchor="middle" x="648" y="-62" font-family="Helvetica,sans-Serif" font-size="10.00">../vproperty.h</text>
</a>
</g>
</g>
<!-- Node2&#45;&gt;Node12 -->
<g id="edge11_Node000002_Node000012" class="edge">
<title>Node2&#45;&gt;Node12</title>
<g id="a_edge11_Node000002_Node000012"><a xlink:title=" ">
<path fill="none" stroke="#63b8ff" d="M559.03,-109.98C575.93,-101.54 602.06,-88.47 621.64,-78.68"/>
<polygon fill="#63b8ff" stroke="#63b8ff" points="623.28,-81.77 630.66,-74.17 620.15,-75.51 623.28,-81.77"/>
</a>
</g>
</g>
<!-- Node12&#45;&gt;Node3 -->
<g id="edge12_Node000012_Node000003" class="edge">
<title>Node12&#45;&gt;Node3</title>
<g id="a_edge12_Node000012_Node000003"><a xlink:title=" ">
<path fill="none" stroke="#63b8ff" d="M617.15,-54.98C584.5,-45.97 532.8,-31.7 496.8,-21.76"/>
<polygon fill="#63b8ff" stroke="#63b8ff" points="497.66,-18.37 487.09,-19.08 495.8,-25.12 497.66,-18.37"/>
</a>
</g>
</g>
<!-- Node12&#45;&gt;Node4 -->
<g id="edge15_Node000012_Node000004" class="edge">
<title>Node12&#45;&gt;Node4</title>
<g id="a_edge15_Node000012_Node000004"><a xlink:title=" ">
<path fill="none" stroke="#63b8ff" d="M633.38,-54.98C619.14,-46.69 597.25,-33.94 580.55,-24.22"/>
<polygon fill="#63b8ff" stroke="#63b8ff" points="582.29,-21.18 571.89,-19.17 578.77,-27.23 582.29,-21.18"/>
</a>
</g>
</g>
<!-- Node12&#45;&gt;Node5 -->
<g id="edge16_Node000012_Node000005" class="edge">
<title>Node12&#45;&gt;Node5</title>
<g id="a_edge16_Node000012_Node000005"><a xlink:title=" ">
<path fill="none" stroke="#63b8ff" d="M607.88,-61.58C517.39,-56.98 290.36,-43.9 90.18,-19.03"/>
<polygon fill="#63b8ff" stroke="#63b8ff" points="90.42,-15.53 80.07,-17.76 89.55,-22.48 90.42,-15.53"/>
</a>
</g>
</g>
<!-- Node12&#45;&gt;Node6 -->
<g id="edge17_Node000012_Node000006" class="edge">
<title>Node12&#45;&gt;Node6</title>
<g id="a_edge17_Node000012_Node000006"><a xlink:title=" ">
<path fill="none" stroke="#63b8ff" d="M607.63,-57.35C558.18,-49.65 471.66,-35.66 388.15,-19.14"/>
<polygon fill="#63b8ff" stroke="#63b8ff" points="388.74,-15.69 378.25,-17.16 387.37,-22.55 388.74,-15.69"/>
</a>
</g>
</g>
<!-- Node12&#45;&gt;Node7 -->
<g id="edge19_Node000012_Node000007" class="edge">
<title>Node12&#45;&gt;Node7</title>
<g id="a_edge19_Node000012_Node000007"><a xlink:title=" ">
<path fill="none" stroke="#63b8ff" d="M688.32,-61.7C769.89,-57.63 960.47,-46.06 1130.23,-18.88"/>
<polygon fill="#63b8ff" stroke="#63b8ff" points="1131.04,-22.29 1140.35,-17.23 1129.92,-15.38 1131.04,-22.29"/>
</a>
</g>
</g>
<!-- Node12&#45;&gt;Node8 -->
<g id="edge20_Node000012_Node000008" class="edge">
<title>Node12&#45;&gt;Node8</title>
<g id="a_edge20_Node000012_Node000008"><a xlink:title=" ">
<path fill="none" stroke="#63b8ff" d="M645.52,-54.75C643.54,-47.72 640.68,-37.62 638.19,-28.84"/>
<polygon fill="#63b8ff" stroke="#63b8ff" points="641.52,-27.76 635.43,-19.09 634.79,-29.66 641.52,-27.76"/>
</a>
</g>
</g>
<!-- Node12&#45;&gt;Node9 -->
<g id="edge21_Node000012_Node000009" class="edge">
<title>Node12&#45;&gt;Node9</title>
<g id="a_edge21_Node000012_Node000009"><a xlink:title=" ">
<path fill="none" stroke="#63b8ff" d="M607.83,-59.29C535.72,-51.7 379.26,-35.12 236.36,-19.14"/>
<polygon fill="#63b8ff" stroke="#63b8ff" points="236.42,-15.63 226.09,-17.99 235.64,-22.59 236.42,-15.63"/>
</a>
</g>
</g>
<!-- Node12&#45;&gt;Node10 -->
<g id="edge22_Node000012_Node000010" class="edge">
<title>Node12&#45;&gt;Node10</title>
<g id="a_edge22_Node000012_Node000010"><a xlink:title=" ">
<path fill="none" stroke="#63b8ff" d="M688.07,-59.65C772.58,-51.45 967.64,-32.05 1053.14,-18.93"/>
<polygon fill="#63b8ff" stroke="#63b8ff" points="1053.93,-22.35 1063.25,-17.32 1052.83,-15.44 1053.93,-22.35"/>
</a>
</g>
</g>
<!-- Node12&#45;&gt;Node11 -->
<g id="edge24_Node000012_Node000011" class="edge">
<title>Node12&#45;&gt;Node11</title>
<g id="a_edge24_Node000012_Node000011"><a xlink:title=" ">
<path fill="none" stroke="#63b8ff" d="M607.87,-59.25C546.69,-52.54 426.23,-38.4 313.91,-19.02"/>
<polygon fill="#63b8ff" stroke="#63b8ff" points="314.21,-15.52 303.76,-17.25 313.01,-22.42 314.21,-15.52"/>
</a>
</g>
</g>
<!-- Node13 -->
<g id="Node000013" class="node">
<title>Node13</title>
<g id="a_Node000013"><a xlink:title=" ">
<polygon fill="#e0e0e0" stroke="#999999" points="974.5,-19 843.5,-19 843.5,0 974.5,0 974.5,-19"/>
<text text-anchor="middle" x="909" y="-7" font-family="Helvetica,sans-Serif" font-size="10.00">QAbstractItemDelegate</text>
</a>
</g>
</g>
<!-- Node12&#45;&gt;Node13 -->
<g id="edge13_Node000012_Node000013" class="edge">
<title>Node12&#45;&gt;Node13</title>
<g id="a_edge13_Node000012_Node000013"><a xlink:title=" ">
<path fill="none" stroke="#63b8ff" d="M688.21,-55.33C733.56,-46.13 807.44,-31.12 857.11,-21.04"/>
<polygon fill="#63b8ff" stroke="#63b8ff" points="857.91,-24.45 867.01,-19.03 856.52,-17.59 857.91,-24.45"/>
</a>
</g>
</g>
<!-- Node14 -->
<g id="Node000014" class="node">
<title>Node14</title>
<g id="a_Node000014"><a xlink:title=" ">
<polygon fill="#e0e0e0" stroke="#999999" points="1045,-19 993,-19 993,0 1045,0 1045,-19"/>
<text text-anchor="middle" x="1019" y="-7" font-family="Helvetica,sans-Serif" font-size="10.00">QEvent</text>
</a>
</g>
</g>
<!-- Node12&#45;&gt;Node14 -->
<g id="edge14_Node000012_Node000014" class="edge">
<title>Node12&#45;&gt;Node14</title>
<g id="a_edge14_Node000012_Node000014"><a xlink:title=" ">
<path fill="none" stroke="#63b8ff" d="M688.17,-59.47C749.4,-53.05 869.93,-39.29 982.54,-18.89"/>
<polygon fill="#63b8ff" stroke="#63b8ff" points="983.51,-22.27 992.72,-17.03 982.25,-15.39 983.51,-22.27"/>
</a>
</g>
</g>
<!-- Node15 -->
<g id="Node000015" class="node">
<title>Node15</title>
<g id="a_Node000015"><a xlink:title=" ">
<polygon fill="#e0e0e0" stroke="#999999" points="778,-19 686,-19 686,0 778,0 778,-19"/>
<text text-anchor="middle" x="732" y="-7" font-family="Helvetica,sans-Serif" font-size="10.00">QSharedPointer</text>
</a>
</g>
</g>
<!-- Node12&#45;&gt;Node15 -->
<g id="edge18_Node000012_Node000015" class="edge">
<title>Node12&#45;&gt;Node15</title>
<g id="a_edge18_Node000012_Node000015"><a xlink:title=" ">
<path fill="none" stroke="#63b8ff" d="M661.5,-54.98C674.4,-46.84 694.1,-34.41 709.4,-24.76"/>
<polygon fill="#63b8ff" stroke="#63b8ff" points="711.67,-27.47 718.26,-19.17 707.93,-21.55 711.67,-27.47"/>
</a>
</g>
</g>
<!-- Node16 -->
<g id="Node000016" class="node">
<title>Node16</title>
<g id="a_Node000016"><a xlink:title=" ">
<polygon fill="#e0e0e0" stroke="#999999" points="825.5,-19 796.5,-19 796.5,0 825.5,0 825.5,-19"/>
<text text-anchor="middle" x="811" y="-7" font-family="Helvetica,sans-Serif" font-size="10.00">Qt</text>
</a>
</g>
</g>
<!-- Node12&#45;&gt;Node16 -->
<g id="edge23_Node000012_Node000016" class="edge">
<title>Node12&#45;&gt;Node16</title>
<g id="a_edge23_Node000012_Node000016"><a xlink:title=" ">
<path fill="none" stroke="#63b8ff" d="M675.51,-54.97C701.74,-46.77 742.58,-33.85 786.81,-18.99"/>
<polygon fill="#63b8ff" stroke="#63b8ff" points="787.95,-22.3 796.3,-15.79 785.71,-15.67 787.95,-22.3"/>
</a>
</g>
</g>
<!-- Node25&#45;&gt;Node24 -->
<g id="edge35_Node000025_Node000024" class="edge">
<title>Node25&#45;&gt;Node24</title>
<g id="a_edge35_Node000025_Node000024"><a xlink:title=" ">
<path fill="none" stroke="#63b8ff" d="M1713.18,-109.98C1699.85,-101.77 1679.42,-89.18 1663.69,-79.49"/>
<polygon fill="#63b8ff" stroke="#63b8ff" points="1665.42,-76.44 1655.07,-74.17 1661.75,-82.4 1665.42,-76.44"/>
</a>
</g>
</g>
<!-- Node26 -->
<g id="Node000026" class="node">
<title>Node26</title>
<g id="a_Node000026"><a xlink:title=" ">
<polygon fill="#e0e0e0" stroke="#999999" points="1775.5,-74 1688.5,-74 1688.5,-55 1775.5,-55 1775.5,-74"/>
<text text-anchor="middle" x="1732" y="-62" font-family="Helvetica,sans-Serif" font-size="10.00">QPlainTextEdit</text>
</a>
</g>
</g>
<!-- Node25&#45;&gt;Node26 -->
<g id="edge34_Node000025_Node000026" class="edge">
<title>Node25&#45;&gt;Node26</title>
<g id="a_edge34_Node000025_Node000026"><a xlink:title=" ">
<path fill="none" stroke="#63b8ff" d="M1727.83,-109.75C1728.48,-102.8 1729.42,-92.85 1730.24,-84.13"/>
<polygon fill="#63b8ff" stroke="#63b8ff" points="1733.73,-84.37 1731.19,-74.09 1726.77,-83.72 1733.73,-84.37"/>
</a>
</g>
</g>
<!-- Node27&#45;&gt;Node7 -->
<g id="edge38_Node000027_Node000007" class="edge">
<title>Node27&#45;&gt;Node7</title>
<g id="a_edge38_Node000027_Node000007"><a xlink:title=" ">
<path fill="none" stroke="#63b8ff" d="M909.09,-109.88C932.9,-100.97 971.09,-86.62 1004,-74 1049.87,-56.42 1102.86,-35.7 1135.65,-22.83"/>
<polygon fill="#63b8ff" stroke="#63b8ff" points="1137.12,-26.01 1145.15,-19.1 1134.56,-19.5 1137.12,-26.01"/>
</a>
</g>
</g>
<!-- Node27&#45;&gt;Node10 -->
<g id="edge37_Node000027_Node000010" class="edge">
<title>Node27&#45;&gt;Node10</title>
<g id="a_edge37_Node000027_Node000010"><a xlink:title=" ">
<path fill="none" stroke="#63b8ff" d="M902.59,-109.84C938.71,-91 1024.68,-46.14 1067.65,-23.73"/>
<polygon fill="#63b8ff" stroke="#63b8ff" points="1069.37,-26.78 1076.62,-19.05 1066.13,-20.57 1069.37,-26.78"/>
</a>
</g>
</g>
<!-- Node27&#45;&gt;Node12 -->
<g id="edge39_Node000027_Node000012" class="edge">
<title>Node27&#45;&gt;Node12</title>
<g id="a_edge39_Node000027_Node000012"><a xlink:title=" ">
<path fill="none" stroke="#63b8ff" d="M847.76,-109.98C806.59,-100.82 741.01,-86.21 696.3,-76.26"/>
<polygon fill="#63b8ff" stroke="#63b8ff" points="697.06,-72.84 686.54,-74.08 695.54,-79.67 697.06,-72.84"/>
</a>
</g>
</g>
</g>
</svg>

<g id="navigator" transform="translate(0 0)" fill="#404254">
  <rect fill="#f2f5e9" fill-opacity="0.5" stroke="#606060" stroke-width=".5" x="0" y="0" width="60" height="60"/>
  <use id="zoomplus" xlink:href="#zoomPlus" x="17" y="9" onmousedown="handleZoom(evt,'in')"/>
  <use id="zoomminus" xlink:href="#zoomMin" x="42" y="9" onmousedown="handleZoom(evt,'out')"/>
  <use id="reset" xlink:href="#resetDef" x="30" y="36" onmousedown="handleReset()"/>
   <use id="arrowup" xlink:href="#arrowUp" x="0" y="0" onmousedown="handlePan(0,-1)"/>
  <use id="arrowright" xlink:href="#arrowRight" x="0" y="0" onmousedown="handlePan(1,0)"/>
  <use id="arrowdown" xlink:href="#arrowDown" x="0" y="0" onmousedown="handlePan(0,1)"/>
  <use id="arrowleft" xlink:href="#arrowLeft" x="0" y="0" onmousedown="handlePan(-1,0)"/>
</g>
<svg viewBox="0 0 15 15" width="100%" height="30px" preserveAspectRatio="xMaxYMin meet">
 <g id="arrow_out" transform="scale(0.3 0.3)">
  <a xlink:href="plaintext__property_8cpp__incl_org.svg" target="_base">
   <rect id="button" ry="5" rx="5" y="6" x="6" height="38" width="38"
        fill="#f2f5e9" fill-opacity="0.5" stroke="#606060" stroke-width="1.0"/>
   <path id="arrow"
     d="M 11.500037,31.436501 C 11.940474,20.09759 22.043105,11.32322 32.158766,21.979434 L 37.068811,17.246167 C 37.068811,17.246167 37.088388,32 37.088388,32 L 22.160133,31.978069 C 22.160133,31.978069 26.997745,27.140456 26.997745,27.140456 C 18.528582,18.264221 13.291696,25.230495 11.500037,31.436501 z"
     style="fill:#404040;"/>
  </a>
 </g>
</svg>

<style type='text/css'>
<![CDATA[
[data-mouse-over-selected='false'] { opacity: 0.7; }
[data-mouse-over-selected='true']  { opacity: 1.0; }
]]>
</style>
<script type="application/ecmascript"><![CDATA[
document.addEventListener('DOMContentLoaded', (event) => {
  highlightEdges();
  highlightAdjacentNodes();
});
]]></script>
</svg>
