<?xml version="1.0" encoding="UTF-8" standalone="no"?>
<!DOCTYPE svg PUBLIC "-//W3C//DTD SVG 1.1//EN"
 "http://www.w3.org/Graphics/SVG/1.1/DTD/svg11.dtd">
<!-- Generated by graphviz version 2.43.0 (0)
 -->
<!-- Title: src/libs/vtools/visualization/line/point_intersectxy_visual.h Pages: 1 -->
<!--zoomable 159 -->

<svg id="main" version="1.1" xmlns="http://www.w3.org/2000/svg" xmlns:xlink="http://www.w3.org/1999/xlink" xml:space="preserve" onload="init(evt)">
<style type="text/css"><![CDATA[
.node, .edge {opacity: 0.7;}
.node.selected, .edge.selected {opacity: 1;}
.edge:hover path { stroke: red; }
.edge:hover polygon { stroke: red; fill: red; }
]]></style>

<defs>
  <circle id="rim" cx="0" cy="0" r="7"/>
  <circle id="rim2" cx="0" cy="0" r="3.5"/>
  <g id="zoomPlus">
    <use xlink:href="#rim" fill="#404040"><set attributeName="fill" to="#808080" begin="zoomplus.mouseover" end="zoomplus.mouseout"/></use>
    <path d="M-4,0h8M0,-4v8" fill="none" stroke="white" stroke-width="1.5" pointer-events="none"/>
  </g>
  <g id="zoomMin">
    <use xlink:href="#rim" fill="#404040"><set attributeName="fill" to="#808080" begin="zoomminus.mouseover" end="zoomminus.mouseout"/></use>
    <path d="M-4,0h8" fill="none" stroke="white" stroke-width="1.5" pointer-events="none"/>
  </g>
  <g id="arrowUp" transform="translate(30 24)">
    <use xlink:href="#rim"/>
    <path pointer-events="none" fill="none" stroke="white" stroke-width="1.5" d="M0,-3.0v7 M-2.5,-0.5L0,-3.0L2.5,-0.5"/>
  </g>
  <g id="arrowRight" transform="rotate(90) translate(36 -43)">
    <use xlink:href="#rim"/>
    <path pointer-events="none" fill="none" stroke="white" stroke-width="1.5" d="M0,-3.0v7 M-2.5,-0.5L0,-3.0L2.5,-0.5"/>
  </g>
  <g id="arrowDown" transform="rotate(180) translate(-30 -48)">
    <use xlink:href="#rim"/>
    <path pointer-events="none" fill="none" stroke="white" stroke-width="1.5" d="M0,-3.0v7 M-2.5,-0.5L0,-3.0L2.5,-0.5"/>
  </g>
  <g id="arrowLeft" transform="rotate(270) translate(-36 17)">
    <use xlink:href="#rim"/>
    <path pointer-events="none" fill="none" stroke="white" stroke-width="1.5" d="M0,-3.0v7 M-2.5,-0.5L0,-3.0L2.5,-0.5"/>
  </g>
  <g id="resetDef">
    <use xlink:href="#rim2" fill="#404040"><set attributeName="fill" to="#808080" begin="reset.mouseover" end="reset.mouseout"/></use>
  </g>
</defs>
<script type="application/ecmascript">
var viewWidth = 1363;
var viewHeight = 159;
var sectionId = 'dynsection-0';
</script>
<script type="application/ecmascript" xlink:href="../../svg.min.js"/>
<svg id="graph" class="graph">
<g id="viewport">
<title>src/libs/vtools/visualization/line/point_intersectxy_visual.h</title>
<!-- Node1 -->
<g id="Node000001" class="node">
<title>Node1</title>
<g id="a_Node000001"><a xlink:title=" ">
<polygon fill="#999999" stroke="#666666" points="560.5,-151 391.5,-151 391.5,-121 560.5,-121 560.5,-151"/>
<text text-anchor="start" x="399.5" y="-139" font-family="Helvetica,sans-Serif" font-size="10.00">src/libs/vtools/visualization</text>
<text text-anchor="middle" x="476" y="-128" font-family="Helvetica,sans-Serif" font-size="10.00">/line/point_intersectxy_visual.h</text>
</a>
</g>
</g>
<!-- Node2 -->
<g id="Node000002" class="node">
<title>Node2</title>
<g id="a_Node000002"><a xlink:href="../../d8/d51/visline_8h.html" target="_top" xlink:title=" ">
<polygon fill="white" stroke="#666666" points="598,-85 540,-85 540,-66 598,-66 598,-85"/>
<text text-anchor="middle" x="569" y="-73" font-family="Helvetica,sans-Serif" font-size="10.00">visline.h</text>
</a>
</g>
</g>
<!-- Node1&#45;&gt;Node2 -->
<g id="edge1_Node000001_Node000002" class="edge">
<title>Node1&#45;&gt;Node2</title>
<g id="a_edge1_Node000001_Node000002"><a xlink:title=" ">
<path fill="none" stroke="#63b8ff" d="M498.51,-120.84C513.06,-111.68 531.93,-99.82 546.49,-90.66"/>
<polygon fill="#63b8ff" stroke="#63b8ff" points="548.74,-93.38 555.34,-85.09 545.01,-87.46 548.74,-93.38"/>
</a>
</g>
</g>
<!-- Node3 -->
<g id="Node000003" class="node">
<title>Node3</title>
<g id="a_Node000003"><a xlink:title=" ">
<polygon fill="#e0e0e0" stroke="#999999" points="120,-24.5 0,-24.5 0,-5.5 120,-5.5 120,-24.5"/>
<text text-anchor="middle" x="60" y="-12.5" font-family="Helvetica,sans-Serif" font-size="10.00">qcompilerdetection.h</text>
</a>
</g>
</g>
<!-- Node1&#45;&gt;Node3 -->
<g id="edge17_Node000001_Node000003" class="edge">
<title>Node1&#45;&gt;Node3</title>
<g id="a_edge17_Node000001_Node000003"><a xlink:title=" ">
<path fill="none" stroke="#63b8ff" d="M423.46,-120.96C386.84,-111.1 336.87,-97.49 293,-85 224.16,-65.4 144.22,-41.47 98.13,-27.56"/>
<polygon fill="#63b8ff" stroke="#63b8ff" points="98.86,-24.13 88.28,-24.58 96.84,-30.83 98.86,-24.13"/>
</a>
</g>
</g>
<!-- Node4 -->
<g id="Node000004" class="node">
<title>Node4</title>
<g id="a_Node000004"><a xlink:title=" ">
<polygon fill="#e0e0e0" stroke="#999999" points="188,-24.5 138,-24.5 138,-5.5 188,-5.5 188,-24.5"/>
<text text-anchor="middle" x="163" y="-12.5" font-family="Helvetica,sans-Serif" font-size="10.00">QColor</text>
</a>
</g>
</g>
<!-- Node1&#45;&gt;Node4 -->
<g id="edge18_Node000001_Node000004" class="edge">
<title>Node1&#45;&gt;Node4</title>
<g id="a_edge18_Node000001_Node000004"><a xlink:title=" ">
<path fill="none" stroke="#63b8ff" d="M437.5,-120.93C383.55,-101.13 282.47,-63.67 197,-30 195.63,-29.46 194.22,-28.9 192.81,-28.33"/>
<polygon fill="#63b8ff" stroke="#63b8ff" points="194.04,-25.06 183.46,-24.54 191.41,-31.54 194.04,-25.06"/>
</a>
</g>
</g>
<!-- Node5 -->
<g id="Node000005" class="node">
<title>Node5</title>
<g id="a_Node000005"><a xlink:title=" ">
<polygon fill="#e0e0e0" stroke="#999999" points="295.5,-24.5 206.5,-24.5 206.5,-5.5 295.5,-5.5 295.5,-24.5"/>
<text text-anchor="middle" x="251" y="-12.5" font-family="Helvetica,sans-Serif" font-size="10.00">QGraphicsItem</text>
</a>
</g>
</g>
<!-- Node1&#45;&gt;Node5 -->
<g id="edge19_Node000001_Node000005" class="edge">
<title>Node1&#45;&gt;Node5</title>
<g id="a_edge19_Node000001_Node000005"><a xlink:title=" ">
<path fill="none" stroke="#63b8ff" d="M449.31,-120.88C405.48,-97.7 318.87,-51.89 276.1,-29.27"/>
<polygon fill="#63b8ff" stroke="#63b8ff" points="277.66,-26.14 267.19,-24.56 274.39,-32.33 277.66,-26.14"/>
</a>
</g>
</g>
<!-- Node7 -->
<g id="Node000007" class="node">
<title>Node7</title>
<g id="a_Node000007"><a xlink:title=" ">
<polygon fill="#e0e0e0" stroke="#999999" points="364,-24.5 314,-24.5 314,-5.5 364,-5.5 364,-24.5"/>
<text text-anchor="middle" x="339" y="-12.5" font-family="Helvetica,sans-Serif" font-size="10.00">QLineF</text>
</a>
</g>
</g>
<!-- Node1&#45;&gt;Node7 -->
<g id="edge20_Node000001_Node000007" class="edge">
<title>Node1&#45;&gt;Node7</title>
<g id="a_edge20_Node000001_Node000007"><a xlink:title=" ">
<path fill="none" stroke="#63b8ff" d="M459.75,-120.88C433.91,-98.44 383.65,-54.78 356.85,-31.5"/>
<polygon fill="#63b8ff" stroke="#63b8ff" points="358.87,-28.63 349.03,-24.71 354.28,-33.91 358.87,-28.63"/>
</a>
</g>
</g>
<!-- Node8 -->
<g id="Node000008" class="node">
<title>Node8</title>
<g id="a_Node000008"><a xlink:title=" ">
<polygon fill="#e0e0e0" stroke="#999999" points="462,-24.5 382,-24.5 382,-5.5 462,-5.5 462,-24.5"/>
<text text-anchor="middle" x="422" y="-12.5" font-family="Helvetica,sans-Serif" font-size="10.00">QMetaObject</text>
</a>
</g>
</g>
<!-- Node1&#45;&gt;Node8 -->
<g id="edge21_Node000001_Node000008" class="edge">
<title>Node1&#45;&gt;Node8</title>
<g id="a_edge21_Node000001_Node000008"><a xlink:title=" ">
<path fill="none" stroke="#63b8ff" d="M469.59,-120.88C459.76,-99.22 440.96,-57.78 430.16,-33.99"/>
<polygon fill="#63b8ff" stroke="#63b8ff" points="433.27,-32.37 425.95,-24.71 426.9,-35.26 433.27,-32.37"/>
</a>
</g>
</g>
<!-- Node9 -->
<g id="Node000009" class="node">
<title>Node9</title>
<g id="a_Node000009"><a xlink:title=" ">
<polygon fill="#e0e0e0" stroke="#999999" points="536,-24.5 480,-24.5 480,-5.5 536,-5.5 536,-24.5"/>
<text text-anchor="middle" x="508" y="-12.5" font-family="Helvetica,sans-Serif" font-size="10.00">QObject</text>
</a>
</g>
</g>
<!-- Node1&#45;&gt;Node9 -->
<g id="edge22_Node000001_Node000009" class="edge">
<title>Node1&#45;&gt;Node9</title>
<g id="a_edge22_Node000001_Node000009"><a xlink:title=" ">
<path fill="none" stroke="#63b8ff" d="M479.8,-120.88C485.57,-99.41 496.56,-58.52 502.99,-34.64"/>
<polygon fill="#63b8ff" stroke="#63b8ff" points="506.44,-35.28 505.66,-24.71 499.68,-33.46 506.44,-35.28"/>
</a>
</g>
</g>
<!-- Node11 -->
<g id="Node000011" class="node">
<title>Node11</title>
<g id="a_Node000011"><a xlink:title=" ">
<polygon fill="#e0e0e0" stroke="#999999" points="1177.5,-24.5 1124.5,-24.5 1124.5,-5.5 1177.5,-5.5 1177.5,-24.5"/>
<text text-anchor="middle" x="1151" y="-12.5" font-family="Helvetica,sans-Serif" font-size="10.00">QString</text>
</a>
</g>
</g>
<!-- Node1&#45;&gt;Node11 -->
<g id="edge23_Node000001_Node000011" class="edge">
<title>Node1&#45;&gt;Node11</title>
<g id="a_edge23_Node000001_Node000011"><a xlink:title=" ">
<path fill="none" stroke="#63b8ff" d="M560.68,-126.76C684.17,-113.47 920.21,-83.26 1115,-30 1117.15,-29.41 1119.36,-28.74 1121.56,-28.01"/>
<polygon fill="#63b8ff" stroke="#63b8ff" points="1122.84,-31.27 1131.07,-24.6 1120.47,-24.69 1122.84,-31.27"/>
</a>
</g>
</g>
<!-- Node13 -->
<g id="Node000013" class="node">
<title>Node13</title>
<g id="a_Node000013"><a xlink:title=" ">
<polygon fill="#e0e0e0" stroke="#999999" points="1254.5,-24.5 1195.5,-24.5 1195.5,-5.5 1254.5,-5.5 1254.5,-24.5"/>
<text text-anchor="middle" x="1225" y="-12.5" font-family="Helvetica,sans-Serif" font-size="10.00">QtGlobal</text>
</a>
</g>
</g>
<!-- Node1&#45;&gt;Node13 -->
<g id="edge24_Node000001_Node000013" class="edge">
<title>Node1&#45;&gt;Node13</title>
<g id="a_edge24_Node000001_Node000013"><a xlink:title=" ">
<path fill="none" stroke="#63b8ff" d="M560.86,-128.26C652.33,-120.38 802.02,-105.74 930,-85 1044.88,-66.38 1074.1,-61.95 1186,-30 1188.42,-29.31 1190.91,-28.54 1193.4,-27.74"/>
<polygon fill="#63b8ff" stroke="#63b8ff" points="1194.55,-31.05 1202.89,-24.51 1192.3,-24.42 1194.55,-31.05"/>
</a>
</g>
</g>
<!-- Node15 -->
<g id="Node000015" class="node">
<title>Node15</title>
<g id="a_Node000015"><a xlink:title=" ">
<polygon fill="#e0e0e0" stroke="#999999" points="1355,-24.5 1273,-24.5 1273,-5.5 1355,-5.5 1355,-24.5"/>
<text text-anchor="middle" x="1314" y="-12.5" font-family="Helvetica,sans-Serif" font-size="10.00">../vmisc/def.h</text>
</a>
</g>
</g>
<!-- Node1&#45;&gt;Node15 -->
<g id="edge16_Node000001_Node000015" class="edge">
<title>Node1&#45;&gt;Node15</title>
<g id="a_edge16_Node000001_Node000015"><a xlink:title=" ">
<path fill="none" stroke="#63b8ff" d="M560.88,-129.71C664.46,-122.6 844.74,-108.12 998,-85 1117.37,-67 1146.69,-58.51 1264,-30 1267.58,-29.13 1271.3,-28.18 1275.01,-27.2"/>
<polygon fill="#63b8ff" stroke="#63b8ff" points="1276.01,-30.55 1284.74,-24.56 1274.17,-23.8 1276.01,-30.55"/>
</a>
</g>
</g>
<!-- Node2&#45;&gt;Node3 -->
<g id="edge2_Node000002_Node000003" class="edge">
<title>Node2&#45;&gt;Node3</title>
<g id="a_edge2_Node000002_Node000003"><a xlink:title=" ">
<path fill="none" stroke="#63b8ff" d="M539.78,-72.55C469.02,-67.62 282.91,-53.34 129,-30 122.34,-28.99 115.35,-27.77 108.49,-26.47"/>
<polygon fill="#63b8ff" stroke="#63b8ff" points="109.05,-23.01 98.56,-24.53 107.71,-29.88 109.05,-23.01"/>
</a>
</g>
</g>
<!-- Node2&#45;&gt;Node4 -->
<g id="edge3_Node000002_Node000004" class="edge">
<title>Node2&#45;&gt;Node4</title>
<g id="a_edge3_Node000002_Node000004"><a xlink:title=" ">
<path fill="none" stroke="#63b8ff" d="M539.56,-73.68C476,-71.33 321.63,-62.46 197,-30 195.05,-29.49 193.07,-28.9 191.09,-28.25"/>
<polygon fill="#63b8ff" stroke="#63b8ff" points="191.99,-24.84 181.39,-24.64 189.54,-31.4 191.99,-24.84"/>
</a>
</g>
</g>
<!-- Node2&#45;&gt;Node5 -->
<g id="edge4_Node000002_Node000005" class="edge">
<title>Node2&#45;&gt;Node5</title>
<g id="a_edge4_Node000002_Node000005"><a xlink:title=" ">
<path fill="none" stroke="#63b8ff" d="M539.94,-70.44C491.14,-63.44 389.77,-48.1 305,-30 300.79,-29.1 296.42,-28.09 292.06,-27.04"/>
<polygon fill="#63b8ff" stroke="#63b8ff" points="292.57,-23.56 282.02,-24.53 290.87,-30.35 292.57,-23.56"/>
</a>
</g>
</g>
<!-- Node6 -->
<g id="Node000006" class="node">
<title>Node6</title>
<g id="a_Node000006"><a xlink:title=" ">
<polygon fill="#e0e0e0" stroke="#999999" points="1033,-24.5 923,-24.5 923,-5.5 1033,-5.5 1033,-24.5"/>
<text text-anchor="middle" x="978" y="-12.5" font-family="Helvetica,sans-Serif" font-size="10.00">QGraphicsLineItem</text>
</a>
</g>
</g>
<!-- Node2&#45;&gt;Node6 -->
<g id="edge5_Node000002_Node000006" class="edge">
<title>Node2&#45;&gt;Node6</title>
<g id="a_edge5_Node000002_Node000006"><a xlink:title=" ">
<path fill="none" stroke="#63b8ff" d="M598.21,-71.6C657.81,-65.49 797.67,-50.19 914,-30 919.74,-29 925.75,-27.84 931.69,-26.63"/>
<polygon fill="#63b8ff" stroke="#63b8ff" points="932.49,-30.04 941.56,-24.55 931.05,-23.19 932.49,-30.04"/>
</a>
</g>
</g>
<!-- Node2&#45;&gt;Node7 -->
<g id="edge6_Node000002_Node000007" class="edge">
<title>Node2&#45;&gt;Node7</title>
<g id="a_edge6_Node000002_Node000007"><a xlink:title=" ">
<path fill="none" stroke="#63b8ff" d="M539.7,-69.43C501.03,-62.39 431.04,-48.4 373,-30 371.33,-29.47 369.62,-28.89 367.91,-28.28"/>
<polygon fill="#63b8ff" stroke="#63b8ff" points="368.8,-24.88 358.21,-24.57 366.3,-31.41 368.8,-24.88"/>
</a>
</g>
</g>
<!-- Node2&#45;&gt;Node8 -->
<g id="edge7_Node000002_Node000008" class="edge">
<title>Node2&#45;&gt;Node8</title>
<g id="a_edge7_Node000002_Node000008"><a xlink:title=" ">
<path fill="none" stroke="#63b8ff" d="M547.62,-65.99C522.69,-56.07 481.28,-39.59 452.86,-28.28"/>
<polygon fill="#63b8ff" stroke="#63b8ff" points="453.99,-24.96 443.4,-24.52 451.4,-31.47 453.99,-24.96"/>
</a>
</g>
</g>
<!-- Node2&#45;&gt;Node9 -->
<g id="edge8_Node000002_Node000009" class="edge">
<title>Node2&#45;&gt;Node9</title>
<g id="a_edge8_Node000002_Node000009"><a xlink:title=" ">
<path fill="none" stroke="#63b8ff" d="M560,-65.87C550.63,-56.88 535.75,-42.61 524.3,-31.64"/>
<polygon fill="#63b8ff" stroke="#63b8ff" points="526.68,-29.06 517.04,-24.67 521.83,-34.12 526.68,-29.06"/>
</a>
</g>
</g>
<!-- Node10 -->
<g id="Node000010" class="node">
<title>Node10</title>
<g id="a_Node000010"><a xlink:title=" ">
<polygon fill="#e0e0e0" stroke="#999999" points="1106.5,-24.5 1051.5,-24.5 1051.5,-5.5 1106.5,-5.5 1106.5,-24.5"/>
<text text-anchor="middle" x="1079" y="-12.5" font-family="Helvetica,sans-Serif" font-size="10.00">QPointF</text>
</a>
</g>
</g>
<!-- Node2&#45;&gt;Node10 -->
<g id="edge9_Node000002_Node000010" class="edge">
<title>Node2&#45;&gt;Node10</title>
<g id="a_edge9_Node000002_Node000010"><a xlink:title=" ">
<path fill="none" stroke="#63b8ff" d="M598.23,-74.45C673.06,-73.75 877.28,-68.18 1042,-30 1044.52,-29.42 1047.09,-28.7 1049.66,-27.91"/>
<polygon fill="#63b8ff" stroke="#63b8ff" points="1051.03,-31.14 1059.33,-24.56 1048.74,-24.52 1051.03,-31.14"/>
</a>
</g>
</g>
<!-- Node2&#45;&gt;Node11 -->
<g id="edge10_Node000002_Node000011" class="edge">
<title>Node2&#45;&gt;Node11</title>
<g id="a_edge10_Node000002_Node000011"><a xlink:title=" ">
<path fill="none" stroke="#63b8ff" d="M598.16,-75.06C680.53,-76.02 921.52,-74.51 1115,-30 1117.37,-29.45 1119.79,-28.78 1122.2,-28.03"/>
<polygon fill="#63b8ff" stroke="#63b8ff" points="1123.63,-31.24 1131.89,-24.61 1121.3,-24.64 1123.63,-31.24"/>
</a>
</g>
</g>
<!-- Node12 -->
<g id="Node000012" class="node">
<title>Node12</title>
<g id="a_Node000012"><a xlink:title=" ">
<polygon fill="#e0e0e0" stroke="#999999" points="583.5,-24.5 554.5,-24.5 554.5,-5.5 583.5,-5.5 583.5,-24.5"/>
<text text-anchor="middle" x="569" y="-12.5" font-family="Helvetica,sans-Serif" font-size="10.00">Qt</text>
</a>
</g>
</g>
<!-- Node2&#45;&gt;Node12 -->
<g id="edge11_Node000002_Node000012" class="edge">
<title>Node2&#45;&gt;Node12</title>
<g id="a_edge11_Node000002_Node000012"><a xlink:title=" ">
<path fill="none" stroke="#63b8ff" d="M569,-65.87C569,-57.75 569,-45.31 569,-34.89"/>
<polygon fill="#63b8ff" stroke="#63b8ff" points="572.5,-34.67 569,-24.67 565.5,-34.67 572.5,-34.67"/>
</a>
</g>
</g>
<!-- Node2&#45;&gt;Node13 -->
<g id="edge12_Node000002_Node000013" class="edge">
<title>Node2&#45;&gt;Node13</title>
<g id="a_edge12_Node000002_Node000013"><a xlink:title=" ">
<path fill="none" stroke="#63b8ff" d="M598.18,-73.45C704.58,-69.46 1071.47,-54.21 1186,-30 1188.84,-29.4 1191.75,-28.64 1194.64,-27.79"/>
<polygon fill="#63b8ff" stroke="#63b8ff" points="1195.85,-31.08 1204.25,-24.63 1193.66,-24.43 1195.85,-31.08"/>
</a>
</g>
</g>
<!-- Node14 -->
<g id="Node000014" class="node">
<title>Node14</title>
<g id="a_Node000014"><a xlink:title=" ">
<polygon fill="#e0e0e0" stroke="#999999" points="722.5,-30 601.5,-30 601.5,0 722.5,0 722.5,-30"/>
<text text-anchor="start" x="609.5" y="-18" font-family="Helvetica,sans-Serif" font-size="10.00">../vtools/visualization</text>
<text text-anchor="middle" x="662" y="-7" font-family="Helvetica,sans-Serif" font-size="10.00">/visualization.h</text>
</a>
</g>
</g>
<!-- Node2&#45;&gt;Node14 -->
<g id="edge13_Node000002_Node000014" class="edge">
<title>Node2&#45;&gt;Node14</title>
<g id="a_edge13_Node000002_Node000014"><a xlink:title=" ">
<path fill="none" stroke="#63b8ff" d="M582.72,-65.87C595.34,-57.93 614.51,-45.87 630.84,-35.6"/>
<polygon fill="#63b8ff" stroke="#63b8ff" points="632.96,-38.4 639.56,-30.11 629.23,-32.48 632.96,-38.4"/>
</a>
</g>
</g>
<!-- Node2&#45;&gt;Node15 -->
<g id="edge14_Node000002_Node000015" class="edge">
<title>Node2&#45;&gt;Node15</title>
<g id="a_edge14_Node000002_Node000015"><a xlink:title=" ">
<path fill="none" stroke="#63b8ff" d="M598.05,-74.8C693.91,-75.34 1008.62,-73.44 1264,-30 1268.47,-29.24 1273.11,-28.24 1277.69,-27.12"/>
<polygon fill="#63b8ff" stroke="#63b8ff" points="1278.73,-30.46 1287.51,-24.53 1276.95,-23.7 1278.73,-30.46"/>
</a>
</g>
</g>
<!-- Node16 -->
<g id="Node000016" class="node">
<title>Node16</title>
<g id="a_Node000016"><a xlink:title=" ">
<polygon fill="#e0e0e0" stroke="#999999" points="905,-24.5 741,-24.5 741,-5.5 905,-5.5 905,-24.5"/>
<text text-anchor="middle" x="823" y="-12.5" font-family="Helvetica,sans-Serif" font-size="10.00">../vwidgets/scalesceneitems.h</text>
</a>
</g>
</g>
<!-- Node2&#45;&gt;Node16 -->
<g id="edge15_Node000002_Node000016" class="edge">
<title>Node2&#45;&gt;Node16</title>
<g id="a_edge15_Node000002_Node000016"><a xlink:title=" ">
<path fill="none" stroke="#63b8ff" d="M598.14,-67.79C641.63,-57.77 723.97,-38.81 776.03,-26.82"/>
<polygon fill="#63b8ff" stroke="#63b8ff" points="777.06,-30.17 786.02,-24.52 775.48,-23.35 777.06,-30.17"/>
</a>
</g>
</g>
</g>
</svg>

<g id="navigator" transform="translate(0 0)" fill="#404254">
  <rect fill="#f2f5e9" fill-opacity="0.5" stroke="#606060" stroke-width=".5" x="0" y="0" width="60" height="60"/>
  <use id="zoomplus" xlink:href="#zoomPlus" x="17" y="9" onmousedown="handleZoom(evt,'in')"/>
  <use id="zoomminus" xlink:href="#zoomMin" x="42" y="9" onmousedown="handleZoom(evt,'out')"/>
  <use id="reset" xlink:href="#resetDef" x="30" y="36" onmousedown="handleReset()"/>
   <use id="arrowup" xlink:href="#arrowUp" x="0" y="0" onmousedown="handlePan(0,-1)"/>
  <use id="arrowright" xlink:href="#arrowRight" x="0" y="0" onmousedown="handlePan(1,0)"/>
  <use id="arrowdown" xlink:href="#arrowDown" x="0" y="0" onmousedown="handlePan(0,1)"/>
  <use id="arrowleft" xlink:href="#arrowLeft" x="0" y="0" onmousedown="handlePan(-1,0)"/>
</g>
<svg viewBox="0 0 15 15" width="100%" height="30px" preserveAspectRatio="xMaxYMin meet">
 <g id="arrow_out" transform="scale(0.3 0.3)">
  <a xlink:href="point__intersectxy__visual_8h__incl_org.svg" target="_base">
   <rect id="button" ry="5" rx="5" y="6" x="6" height="38" width="38"
        fill="#f2f5e9" fill-opacity="0.5" stroke="#606060" stroke-width="1.0"/>
   <path id="arrow"
     d="M 11.500037,31.436501 C 11.940474,20.09759 22.043105,11.32322 32.158766,21.979434 L 37.068811,17.246167 C 37.068811,17.246167 37.088388,32 37.088388,32 L 22.160133,31.978069 C 22.160133,31.978069 26.997745,27.140456 26.997745,27.140456 C 18.528582,18.264221 13.291696,25.230495 11.500037,31.436501 z"
     style="fill:#404040;"/>
  </a>
 </g>
</svg>

<style type='text/css'>
<![CDATA[
[data-mouse-over-selected='false'] { opacity: 0.7; }
[data-mouse-over-selected='true']  { opacity: 1.0; }
]]>
</style>
<script type="application/ecmascript"><![CDATA[
document.addEventListener('DOMContentLoaded', (event) => {
  highlightEdges();
  highlightAdjacentNodes();
});
]]></script>
</svg>
