<?xml version="1.0" encoding="UTF-8" standalone="no"?>
<!DOCTYPE svg PUBLIC "-//W3C//DTD SVG 1.1//EN"
 "http://www.w3.org/Graphics/SVG/1.1/DTD/svg11.dtd">
<!-- Generated by graphviz version 2.43.0 (0)
 -->
<!-- Title: src/app/seamlylayout/qt_frontend/src/Platform.h Pages: 1 -->
<!--zoomable 115 -->
<svg id="main" version="1.1" xmlns="http://www.w3.org/2000/svg" xmlns:xlink="http://www.w3.org/1999/xlink" xml:space="preserve" onload="init(evt)">
<style type="text/css"><![CDATA[
.edge:hover path { stroke: red; }
.edge:hover polygon { stroke: red; fill: red; }
]]></style>
<script type="text/javascript"><![CDATA[
var edges = document.getElementsByTagName('g');
if (edges && edges.length) {
  for (var i=0;i<edges.length;i++) {
    if (edges[i].id.substr(0,4)=='edge') {
      edges[i].setAttribute('class','edge');
    }
  }
}
]]></script>
        <defs>
                <circle id="rim" cx="0" cy="0" r="7"/>
                <circle id="rim2" cx="0" cy="0" r="3.5"/>
                <g id="zoomPlus">
                        <use xlink:href="#rim" fill="#404040">
                                <set attributeName="fill" to="#808080" begin="zoomplus.mouseover" end="zoomplus.mouseout"/>
                        </use>
                        <path d="M-4,0h8M0,-4v8" fill="none" stroke="white" stroke-width="1.5" pointer-events="none"/>
                </g>
                <g id="zoomMin">
                        <use xlink:href="#rim" fill="#404040">
                                <set attributeName="fill" to="#808080" begin="zoomminus.mouseover" end="zoomminus.mouseout"/>
                        </use>
                        <path d="M-4,0h8" fill="none" stroke="white" stroke-width="1.5" pointer-events="none"/>
                </g>
                <g id="dirArrow">
                        <path fill="none" stroke="white" stroke-width="1.5" d="M0,-3.0v7 M-2.5,-0.5L0,-3.0L2.5,-0.5"/>
                </g>
               <g id="resetDef">
                       <use xlink:href="#rim2" fill="#404040">
                               <set attributeName="fill" to="#808080" begin="reset.mouseover" end="reset.mouseout"/>
                       </use>
               </g>
        </defs>

<script type="text/javascript">
var viewWidth = 841;
var viewHeight = 115;
var sectionId = 'dynsection-1';
</script>
<script xlink:href="../../svgpan.js"/>
<svg id="graph" class="graph">
<g id="viewport">
<title>src/app/seamlylayout/qt_frontend/src/Platform.h</title>
<!-- Node1 -->
<g id="node1" class="node">
<title>Node1</title>
<g id="a_node1"><a xlink:title=" ">
<polygon fill="#999999" stroke="#666666" points="485.5,-107 338.5,-107 338.5,-77 485.5,-77 485.5,-107"/>
<text text-anchor="start" x="346.5" y="-95" font-family="Helvetica,sans-Serif" font-size="10.00">src/app/seamlylayout</text>
<text text-anchor="middle" x="412" y="-84" font-family="Helvetica,sans-Serif" font-size="10.00">/qt_frontend/src/Platform.h</text>
</a>
</g>
</g>
<!-- Node2 -->
<g id="node2" class="node">
<title>Node2</title>
<g id="a_node2"><a xlink:href="../../d3/db3/seamlyLayout__main_8mm.html" target="_top" xlink:title=" ">
<polygon fill="white" stroke="#666666" points="148,-41 0,-41 0,0 148,0 148,-41"/>
<text text-anchor="start" x="8" y="-29" font-family="Helvetica,sans-Serif" font-size="10.00">src/app/seamlylayout</text>
<text text-anchor="start" x="8" y="-18" font-family="Helvetica,sans-Serif" font-size="10.00">/qt_frontend/seamlyLayout</text>
<text text-anchor="middle" x="74" y="-7" font-family="Helvetica,sans-Serif" font-size="10.00">_main.mm</text>
</a>
</g>
</g>
<!-- Node1&#45;&gt;Node2 -->
<g id="edge1" class="edge">
<title>Node1&#45;&gt;Node2</title>
<path fill="none" stroke="#63b8ff" d="M328.39,-75.42C278.54,-65.92 214.04,-53.29 157,-41 154.11,-40.38 151.16,-39.73 148.18,-39.07"/>
<polygon fill="#63b8ff" stroke="#63b8ff" points="328,-78.91 338.48,-77.33 329.31,-72.03 328,-78.91"/>
</g>
<!-- Node3 -->
<g id="node3" class="node">
<title>Node3</title>
<g id="a_node3"><a xlink:href="../../d9/df5/Logger_8cpp.html" target="_top" xlink:title=" ">
<polygon fill="white" stroke="#666666" points="315.5,-35.5 166.5,-35.5 166.5,-5.5 315.5,-5.5 315.5,-35.5"/>
<text text-anchor="start" x="174.5" y="-23.5" font-family="Helvetica,sans-Serif" font-size="10.00">src/app/seamlylayout</text>
<text text-anchor="middle" x="241" y="-12.5" font-family="Helvetica,sans-Serif" font-size="10.00">/qt_frontend/src/Logger.cpp</text>
</a>
</g>
</g>
<!-- Node1&#45;&gt;Node3 -->
<g id="edge2" class="edge">
<title>Node1&#45;&gt;Node3</title>
<path fill="none" stroke="#63b8ff" d="M367.99,-73.11C339.22,-61.42 302.19,-46.37 275.55,-35.54"/>
<polygon fill="#63b8ff" stroke="#63b8ff" points="366.81,-76.41 377.4,-76.94 369.45,-69.93 366.81,-76.41"/>
</g>
<!-- Node4 -->
<g id="node4" class="node">
<title>Node4</title>
<g id="a_node4"><a xlink:href="../../d5/d0a/Platform_8cpp.html" target="_top" xlink:title=" ">
<polygon fill="white" stroke="#666666" points="491,-35.5 333,-35.5 333,-5.5 491,-5.5 491,-35.5"/>
<text text-anchor="start" x="341" y="-23.5" font-family="Helvetica,sans-Serif" font-size="10.00">src/app/seamlylayout</text>
<text text-anchor="middle" x="412" y="-12.5" font-family="Helvetica,sans-Serif" font-size="10.00">/qt_frontend/src/Platform.cpp</text>
</a>
</g>
</g>
<!-- Node1&#45;&gt;Node4 -->
<g id="edge3" class="edge">
<title>Node1&#45;&gt;Node4</title>
<path fill="none" stroke="#63b8ff" d="M412,-66.75C412,-56.31 412,-44.49 412,-35.54"/>
<polygon fill="#63b8ff" stroke="#63b8ff" points="408.5,-66.94 412,-76.94 415.5,-66.94 408.5,-66.94"/>
</g>
<!-- Node5 -->
<g id="node5" class="node">
<title>Node5</title>
<g id="a_node5"><a xlink:href="../../dd/d74/PreferencesModel_8cpp.html" target="_top" xlink:title=" ">
<polygon fill="white" stroke="#666666" points="663,-41 509,-41 509,0 663,0 663,-41"/>
<text text-anchor="start" x="517" y="-29" font-family="Helvetica,sans-Serif" font-size="10.00">src/app/seamlylayout</text>
<text text-anchor="start" x="517" y="-18" font-family="Helvetica,sans-Serif" font-size="10.00">/qt_frontend/src/Preferences</text>
<text text-anchor="middle" x="586" y="-7" font-family="Helvetica,sans-Serif" font-size="10.00">Model.cpp</text>
</a>
</g>
</g>
<!-- Node1&#45;&gt;Node5 -->
<g id="edge4" class="edge">
<title>Node1&#45;&gt;Node5</title>
<path fill="none" stroke="#63b8ff" d="M456.66,-73.16C481.23,-63.35 511.77,-51.15 537,-41.07"/>
<polygon fill="#63b8ff" stroke="#63b8ff" points="455.2,-69.98 447.21,-76.94 457.8,-76.48 455.2,-69.98"/>
</g>
<!-- Node6 -->
<g id="node6" class="node">
<title>Node6</title>
<g id="a_node6"><a xlink:href="../../da/d62/PreferencesModelTests_8cpp.html" target="_top" xlink:title=" ">
<polygon fill="white" stroke="#666666" points="833,-35.5 681,-35.5 681,-5.5 833,-5.5 833,-35.5"/>
<text text-anchor="start" x="689" y="-23.5" font-family="Helvetica,sans-Serif" font-size="10.00">src/test/SeamlyLayoutTest</text>
<text text-anchor="middle" x="757" y="-12.5" font-family="Helvetica,sans-Serif" font-size="10.00">/PreferencesModelTests.cpp</text>
</a>
</g>
</g>
<!-- Node1&#45;&gt;Node6 -->
<g id="edge5" class="edge">
<title>Node1&#45;&gt;Node6</title>
<path fill="none" stroke="#63b8ff" d="M495.54,-75.71C546.6,-66.18 613.18,-53.4 672,-41 680.15,-39.28 688.72,-37.4 697.15,-35.51"/>
<polygon fill="#63b8ff" stroke="#63b8ff" points="494.74,-72.3 485.55,-77.58 496.02,-79.19 494.74,-72.3"/>
</g>
</g>
</svg>
        <g id="navigator" transform="translate(0 0)" fill="#404254">
                <rect fill="#f2f5e9" fill-opacity="0.5" stroke="#606060" stroke-width=".5" x="0" y="0" width="60" height="60"/>
                <use id="zoomplus" xlink:href="#zoomPlus" x="17" y="9" onmousedown="handleZoom(evt,'in')"/>
                <use id="zoomminus" xlink:href="#zoomMin" x="42" y="9" onmousedown="handleZoom(evt,'out')"/>
                <use id="reset" xlink:href="#resetDef" x="30" y="36" onmousedown="handleReset()"/>
                <g id="arrowUp" xlink:href="#dirArrow" transform="translate(30 24)" onmousedown="handlePan(0,-1)">
                  <use xlink:href="#rim" fill="#404040">
                        <set attributeName="fill" to="#808080" begin="arrowUp.mouseover" end="arrowUp.mouseout"/>
                  </use>
                  <path fill="none" stroke="white" stroke-width="1.5" d="M0,-3.0v7 M-2.5,-0.5L0,-3.0L2.5,-0.5"/>
                </g>
                <g id="arrowRight" xlink:href="#dirArrow" transform="rotate(90) translate(36 -43)" onmousedown="handlePan(1,0)">
                  <use xlink:href="#rim" fill="#404040">
                        <set attributeName="fill" to="#808080" begin="arrowRight.mouseover" end="arrowRight.mouseout"/>
                  </use>
                  <path fill="none" stroke="white" stroke-width="1.5" d="M0,-3.0v7 M-2.5,-0.5L0,-3.0L2.5,-0.5"/>
                </g>
                <g id="arrowDown" xlink:href="#dirArrow" transform="rotate(180) translate(-30 -48)" onmousedown="handlePan(0,1)">
                  <use xlink:href="#rim" fill="#404040">
                        <set attributeName="fill" to="#808080" begin="arrowDown.mouseover" end="arrowDown.mouseout"/>
                  </use>
                  <path fill="none" stroke="white" stroke-width="1.5" d="M0,-3.0v7 M-2.5,-0.5L0,-3.0L2.5,-0.5"/>
                </g>
                <g id="arrowLeft" xlink:href="#dirArrow" transform="rotate(270) translate(-36 17)" onmousedown="handlePan(-1,0)">
                  <use xlink:href="#rim" fill="#404040">
                        <set attributeName="fill" to="#808080" begin="arrowLeft.mouseover" end="arrowLeft.mouseout"/>
                  </use>
                  <path fill="none" stroke="white" stroke-width="1.5" d="M0,-3.0v7 M-2.5,-0.5L0,-3.0L2.5,-0.5"/>
                </g>
        </g>
        <svg viewBox="0 0 15 15" width="100%" height="30px" preserveAspectRatio="xMaxYMin meet">
         <g id="arrow_out" transform="scale(0.3 0.3)">
          <a xlink:href="Platform_8h__dep__incl_org.svg" target="_base">
           <rect id="button" ry="5" rx="5" y="6" x="6" height="38" width="38"
                fill="#f2f5e9" fill-opacity="0.5" stroke="#606060" stroke-width="1.0"/>
           <path id="arrow"
             d="M 11.500037,31.436501 C 11.940474,20.09759 22.043105,11.32322 32.158766,21.979434 L 37.068811,17.246167 C 37.068811,17.246167 37.088388,32 37.088388,32 L 22.160133,31.978069 C 22.160133,31.978069 26.997745,27.140456 26.997745,27.140456 C 18.528582,18.264221 13.291696,25.230495 11.500037,31.436501 z"
             style="fill:#404040;"/>
          </a>
         </g>
        </svg>
</svg>
