<?xml version="1.0" encoding="UTF-8" standalone="no"?>
<!DOCTYPE svg PUBLIC "-//W3C//DTD SVG 1.1//EN"
 "http://www.w3.org/Graphics/SVG/1.1/DTD/svg11.dtd">
<!-- Generated by graphviz version 2.43.0 (0)
 -->
<!-- Title: VScenePoint Pages: 1 -->
<svg width="433pt" height="869pt"
 viewBox="0.00 0.00 432.50 869.00" xmlns="http://www.w3.org/2000/svg" xmlns:xlink="http://www.w3.org/1999/xlink">
<g id="graph0" class="graph" transform="scale(1 1) rotate(0) translate(4 865)">
<title>VScenePoint</title>
<!-- Node1 -->
<g id="Node000001" class="node">
<title>Node1</title>
<g id="a_Node000001"><a xlink:title=" ">
<polygon fill="#999999" stroke="transparent" points="284.5,-259 147.5,-259 147.5,0 284.5,0 284.5,-259"/>
<text text-anchor="start" x="186" y="-246.5" font-family="Helvetica,sans-Serif" font-size="10.00">VScenePoint</text>
<text text-anchor="start" x="152" y="-231.5" font-family="Helvetica,sans-Serif" font-size="10.00">#</text>
<text text-anchor="start" x="165" y="-231.5" font-family="Helvetica,sans-Serif" font-size="10.00">m_pointColor</text>
<text text-anchor="start" x="152" y="-216.5" font-family="Helvetica,sans-Serif" font-size="10.00">#</text>
<text text-anchor="start" x="165" y="-216.5" font-family="Helvetica,sans-Serif" font-size="10.00">m_onlyPoint</text>
<text text-anchor="start" x="152" y="-201.5" font-family="Helvetica,sans-Serif" font-size="10.00">#</text>
<text text-anchor="start" x="165" y="-201.5" font-family="Helvetica,sans-Serif" font-size="10.00">m_isHovered</text>
<text text-anchor="start" x="152" y="-186.5" font-family="Helvetica,sans-Serif" font-size="10.00">#</text>
<text text-anchor="start" x="165" y="-186.5" font-family="Helvetica,sans-Serif" font-size="10.00">m_showPointName</text>
<text text-anchor="start" x="152" y="-171.5" font-family="Helvetica,sans-Serif" font-size="10.00">+</text>
<text text-anchor="start" x="165" y="-171.5" font-family="Helvetica,sans-Serif" font-size="10.00">VScenePoint()</text>
<text text-anchor="start" x="152" y="-156.5" font-family="Helvetica,sans-Serif" font-size="10.00">+</text>
<text text-anchor="start" x="165" y="-156.5" font-family="Helvetica,sans-Serif" font-size="10.00">~VScenePoint()</text>
<text text-anchor="start" x="152" y="-141.5" font-family="Helvetica,sans-Serif" font-size="10.00">+</text>
<text text-anchor="start" x="165" y="-141.5" font-family="Helvetica,sans-Serif" font-size="10.00">type()</text>
<text text-anchor="start" x="152" y="-126.5" font-family="Helvetica,sans-Serif" font-size="10.00">+</text>
<text text-anchor="start" x="165" y="-126.5" font-family="Helvetica,sans-Serif" font-size="10.00">paint()</text>
<text text-anchor="start" x="152" y="-111.5" font-family="Helvetica,sans-Serif" font-size="10.00">+</text>
<text text-anchor="start" x="165" y="-111.5" font-family="Helvetica,sans-Serif" font-size="10.00">refreshPointGeometry()</text>
<text text-anchor="start" x="152" y="-96.5" font-family="Helvetica,sans-Serif" font-size="10.00">+</text>
<text text-anchor="start" x="165" y="-96.5" font-family="Helvetica,sans-Serif" font-size="10.00">refreshLeader()</text>
<text text-anchor="start" x="152" y="-81.5" font-family="Helvetica,sans-Serif" font-size="10.00">#</text>
<text text-anchor="start" x="165" y="-81.5" font-family="Helvetica,sans-Serif" font-size="10.00">hoverEnterEvent()</text>
<text text-anchor="start" x="152" y="-66.5" font-family="Helvetica,sans-Serif" font-size="10.00">#</text>
<text text-anchor="start" x="165" y="-66.5" font-family="Helvetica,sans-Serif" font-size="10.00">hoverLeaveEvent()</text>
<text text-anchor="start" x="152" y="-51.5" font-family="Helvetica,sans-Serif" font-size="10.00">#</text>
<text text-anchor="start" x="165" y="-51.5" font-family="Helvetica,sans-Serif" font-size="10.00">setOnlyPoint()</text>
<text text-anchor="start" x="152" y="-36.5" font-family="Helvetica,sans-Serif" font-size="10.00">#</text>
<text text-anchor="start" x="165" y="-36.5" font-family="Helvetica,sans-Serif" font-size="10.00">isOnlyPoint()</text>
<text text-anchor="start" x="152" y="-21.5" font-family="Helvetica,sans-Serif" font-size="10.00">#</text>
<text text-anchor="start" x="165" y="-21.5" font-family="Helvetica,sans-Serif" font-size="10.00">setPointColor()</text>
<text text-anchor="start" x="154.5" y="-6.5" font-family="Helvetica,sans-Serif" font-size="10.00">&#45;</text>
<text text-anchor="start" x="165" y="-6.5" font-family="Helvetica,sans-Serif" font-size="10.00">setPointPen()</text>
<polygon fill="#666666" stroke="#666666" points="148,-241.5 148,-241.5 285,-241.5 285,-241.5 148,-241.5"/>
<polygon fill="#666666" stroke="#666666" points="148,-181.5 148,-181.5 163,-181.5 163,-181.5 148,-181.5"/>
<polygon fill="#666666" stroke="#666666" points="163,-181.5 163,-181.5 285,-181.5 285,-181.5 163,-181.5"/>
<polygon fill="none" stroke="#666666" points="147.5,0 147.5,-259 284.5,-259 284.5,0 147.5,0"/>
</a>
</g>
</g>
<!-- Node2 -->
<g id="Node000002" class="node">
<title>Node2</title>
<g id="a_Node000002"><a xlink:title=" ">
<polygon fill="white" stroke="transparent" points="116,-565 0,-565 0,-516 116,-516 116,-565"/>
<text text-anchor="start" x="5" y="-552.5" font-family="Helvetica,sans-Serif" font-size="10.00">QGraphicsEllipseItem</text>
<text text-anchor="start" x="56" y="-537.5" font-family="Helvetica,sans-Serif" font-size="10.00"> </text>
<text text-anchor="start" x="56" y="-522.5" font-family="Helvetica,sans-Serif" font-size="10.00"> </text>
<polygon fill="#666666" stroke="#666666" points="0,-547.5 0,-547.5 116,-547.5 116,-547.5 0,-547.5"/>
<polygon fill="#666666" stroke="#666666" points="0,-532.5 0,-532.5 116,-532.5 116,-532.5 0,-532.5"/>
<polygon fill="none" stroke="#666666" points="0,-516 0,-565 116,-565 116,-516 0,-516"/>
</a>
</g>
</g>
<!-- Node2&#45;&gt;Node1 -->
<g id="edge1_Node000001_Node000002" class="edge">
<title>Node2&#45;&gt;Node1</title>
<g id="a_edge1_Node000001_Node000002"><a xlink:title=" ">
<path fill="none" stroke="#63b8ff" d="M65.45,-505.76C76.11,-459.73 97.5,-375.07 125,-306 131.6,-289.42 139.28,-272.33 147.31,-255.63"/>
<polygon fill="none" stroke="#63b8ff" points="61.97,-505.26 63.15,-515.79 68.79,-506.82 61.97,-505.26"/>
</a>
</g>
</g>
<!-- Node3 -->
<g id="Node000003" class="node">
<title>Node3</title>
<g id="a_Node000003"><a xlink:href="../../de/dbc/classVGraphicsSimpleTextItem.html" target="_top" xlink:title="The VGraphicsSimpleTextItem class pointer label.">
<polygon fill="white" stroke="transparent" points="297.5,-775 134.5,-775 134.5,-306 297.5,-306 297.5,-775"/>
<text text-anchor="start" x="153" y="-762.5" font-family="Helvetica,sans-Serif" font-size="10.00">VGraphicsSimpleTextItem</text>
<text text-anchor="start" x="141.5" y="-747.5" font-family="Helvetica,sans-Serif" font-size="10.00">&#45;</text>
<text text-anchor="start" x="152" y="-747.5" font-family="Helvetica,sans-Serif" font-size="10.00">m_fontSize</text>
<text text-anchor="start" x="141.5" y="-732.5" font-family="Helvetica,sans-Serif" font-size="10.00">&#45;</text>
<text text-anchor="start" x="152" y="-732.5" font-family="Helvetica,sans-Serif" font-size="10.00">m_scale</text>
<text text-anchor="start" x="141.5" y="-717.5" font-family="Helvetica,sans-Serif" font-size="10.00">&#45;</text>
<text text-anchor="start" x="152" y="-717.5" font-family="Helvetica,sans-Serif" font-size="10.00">m_textColor</text>
<text text-anchor="start" x="141.5" y="-702.5" font-family="Helvetica,sans-Serif" font-size="10.00">&#45;</text>
<text text-anchor="start" x="152" y="-702.5" font-family="Helvetica,sans-Serif" font-size="10.00">m_isNameHovered</text>
<text text-anchor="start" x="141.5" y="-687.5" font-family="Helvetica,sans-Serif" font-size="10.00">&#45;</text>
<text text-anchor="start" x="152" y="-687.5" font-family="Helvetica,sans-Serif" font-size="10.00">selectionType</text>
<text text-anchor="start" x="141.5" y="-672.5" font-family="Helvetica,sans-Serif" font-size="10.00">&#45;</text>
<text text-anchor="start" x="152" y="-672.5" font-family="Helvetica,sans-Serif" font-size="10.00">m_showParentTooltip</text>
<text text-anchor="start" x="141.5" y="-657.5" font-family="Helvetica,sans-Serif" font-size="10.00">&#45;</text>
<text text-anchor="start" x="152" y="-657.5" font-family="Helvetica,sans-Serif" font-size="10.00">m_pointNamePos</text>
<text text-anchor="start" x="139" y="-642.5" font-family="Helvetica,sans-Serif" font-size="10.00">+</text>
<text text-anchor="start" x="152" y="-642.5" font-family="Helvetica,sans-Serif" font-size="10.00">VGraphicsSimpleTextItem()</text>
<text text-anchor="start" x="139" y="-627.5" font-family="Helvetica,sans-Serif" font-size="10.00">+</text>
<text text-anchor="start" x="152" y="-627.5" font-family="Helvetica,sans-Serif" font-size="10.00">VGraphicsSimpleTextItem()</text>
<text text-anchor="start" x="139" y="-612.5" font-family="Helvetica,sans-Serif" font-size="10.00">+</text>
<text text-anchor="start" x="152" y="-612.5" font-family="Helvetica,sans-Serif" font-size="10.00">~VGraphicsSimpleTextItem()</text>
<text text-anchor="start" x="139" y="-597.5" font-family="Helvetica,sans-Serif" font-size="10.00">+</text>
<text text-anchor="start" x="152" y="-597.5" font-family="Helvetica,sans-Serif" font-size="10.00">BaseFontSize()</text>
<text text-anchor="start" x="139" y="-582.5" font-family="Helvetica,sans-Serif" font-size="10.00">+</text>
<text text-anchor="start" x="152" y="-582.5" font-family="Helvetica,sans-Serif" font-size="10.00">type()</text>
<text text-anchor="start" x="139" y="-567.5" font-family="Helvetica,sans-Serif" font-size="10.00">+</text>
<text text-anchor="start" x="152" y="-567.5" font-family="Helvetica,sans-Serif" font-size="10.00">paint()</text>
<text text-anchor="start" x="139" y="-552.5" font-family="Helvetica,sans-Serif" font-size="10.00">+</text>
<text text-anchor="start" x="152" y="-552.5" font-family="Helvetica,sans-Serif" font-size="10.00">setEnabled()</text>
<text text-anchor="start" x="139" y="-537.5" font-family="Helvetica,sans-Serif" font-size="10.00">+</text>
<text text-anchor="start" x="152" y="-537.5" font-family="Helvetica,sans-Serif" font-size="10.00">textSelectionType()</text>
<text text-anchor="start" x="139" y="-522.5" font-family="Helvetica,sans-Serif" font-size="10.00">+</text>
<text text-anchor="start" x="152" y="-522.5" font-family="Helvetica,sans-Serif" font-size="10.00">setShowParentTooltip()</text>
<text text-anchor="start" x="139" y="-507.5" font-family="Helvetica,sans-Serif" font-size="10.00">+</text>
<text text-anchor="start" x="152" y="-507.5" font-family="Helvetica,sans-Serif" font-size="10.00">getTextBrushColor()</text>
<text text-anchor="start" x="139" y="-492.5" font-family="Helvetica,sans-Serif" font-size="10.00">+</text>
<text text-anchor="start" x="152" y="-492.5" font-family="Helvetica,sans-Serif" font-size="10.00">setTextColor()</text>
<text text-anchor="start" x="139" y="-477.5" font-family="Helvetica,sans-Serif" font-size="10.00">+</text>
<text text-anchor="start" x="152" y="-477.5" font-family="Helvetica,sans-Serif" font-size="10.00">setPosition()</text>
<text text-anchor="start" x="139" y="-462.5" font-family="Helvetica,sans-Serif" font-size="10.00">#</text>
<text text-anchor="start" x="152" y="-462.5" font-family="Helvetica,sans-Serif" font-size="10.00">itemChange()</text>
<text text-anchor="start" x="139" y="-447.5" font-family="Helvetica,sans-Serif" font-size="10.00">#</text>
<text text-anchor="start" x="152" y="-447.5" font-family="Helvetica,sans-Serif" font-size="10.00">hoverEnterEvent()</text>
<text text-anchor="start" x="139" y="-432.5" font-family="Helvetica,sans-Serif" font-size="10.00">#</text>
<text text-anchor="start" x="152" y="-432.5" font-family="Helvetica,sans-Serif" font-size="10.00">hoverLeaveEvent()</text>
<text text-anchor="start" x="139" y="-417.5" font-family="Helvetica,sans-Serif" font-size="10.00">#</text>
<text text-anchor="start" x="152" y="-417.5" font-family="Helvetica,sans-Serif" font-size="10.00">contextMenuEvent()</text>
<text text-anchor="start" x="139" y="-402.5" font-family="Helvetica,sans-Serif" font-size="10.00">#</text>
<text text-anchor="start" x="152" y="-402.5" font-family="Helvetica,sans-Serif" font-size="10.00">mousePressEvent()</text>
<text text-anchor="start" x="139" y="-387.5" font-family="Helvetica,sans-Serif" font-size="10.00">#</text>
<text text-anchor="start" x="152" y="-387.5" font-family="Helvetica,sans-Serif" font-size="10.00">mouseReleaseEvent()</text>
<text text-anchor="start" x="139" y="-372.5" font-family="Helvetica,sans-Serif" font-size="10.00">#</text>
<text text-anchor="start" x="152" y="-372.5" font-family="Helvetica,sans-Serif" font-size="10.00">keyReleaseEvent()</text>
<text text-anchor="start" x="141.5" y="-357.5" font-family="Helvetica,sans-Serif" font-size="10.00">&#45;</text>
<text text-anchor="start" x="152" y="-357.5" font-family="Helvetica,sans-Serif" font-size="10.00">initItem()</text>
<text text-anchor="start" x="141.5" y="-342.5" font-family="Helvetica,sans-Serif" font-size="10.00">&#45;</text>
<text text-anchor="start" x="152" y="-342.5" font-family="Helvetica,sans-Serif" font-size="10.00">scalePointName()</text>
<text text-anchor="start" x="141.5" y="-327.5" font-family="Helvetica,sans-Serif" font-size="10.00">&#45;</text>
<text text-anchor="start" x="152" y="-327.5" font-family="Helvetica,sans-Serif" font-size="10.00">scalePosition()</text>
<text text-anchor="start" x="141.5" y="-312.5" font-family="Helvetica,sans-Serif" font-size="10.00">&#45;</text>
<text text-anchor="start" x="152" y="-312.5" font-family="Helvetica,sans-Serif" font-size="10.00">updateLeader()</text>
<polygon fill="#666666" stroke="#666666" points="135,-757.5 135,-757.5 298,-757.5 298,-757.5 135,-757.5"/>
<polygon fill="#666666" stroke="#666666" points="135,-652.5 135,-652.5 150,-652.5 150,-652.5 135,-652.5"/>
<polygon fill="#666666" stroke="#666666" points="150,-652.5 150,-652.5 298,-652.5 298,-652.5 150,-652.5"/>
<polygon fill="none" stroke="#666666" points="134.5,-306 134.5,-775 297.5,-775 297.5,-306 134.5,-306"/>
</a>
</g>
</g>
<!-- Node3&#45;&gt;Node1 -->
<g id="edge2_Node000001_Node000003" class="edge">
<title>Node3&#45;&gt;Node1</title>
<g id="a_edge2_Node000001_Node000003"><a xlink:title=" ">
<path fill="none" stroke="#63b8ff" d="M216,-305.73C216,-294.04 216,-282.47 216,-271.19"/>
<polygon fill="none" stroke="#63b8ff" points="216,-271.08 212,-265.08 216,-259.08 220,-265.08 216,-271.08"/>
</a>
</g>
<text text-anchor="middle" x="256.5" y="-280" font-family="Helvetica,sans-Serif" font-size="10.00" fill="grey"> #m_pointName</text>
</g>
<!-- Node4 -->
<g id="Node000004" class="node">
<title>Node4</title>
<g id="a_Node000004"><a xlink:title=" ">
<polygon fill="white" stroke="transparent" points="136,-861 86,-861 86,-812 136,-812 136,-861"/>
<text text-anchor="start" x="91" y="-848.5" font-family="Helvetica,sans-Serif" font-size="10.00">QObject</text>
<text text-anchor="start" x="109" y="-833.5" font-family="Helvetica,sans-Serif" font-size="10.00"> </text>
<text text-anchor="start" x="109" y="-818.5" font-family="Helvetica,sans-Serif" font-size="10.00"> </text>
<polygon fill="#666666" stroke="#666666" points="86,-843.5 86,-843.5 136,-843.5 136,-843.5 86,-843.5"/>
<polygon fill="#666666" stroke="#666666" points="86,-828.5 86,-828.5 136,-828.5 136,-828.5 86,-828.5"/>
<polygon fill="none" stroke="#666666" points="86,-812 86,-861 136,-861 136,-812 86,-812"/>
</a>
</g>
</g>
<!-- Node4&#45;&gt;Node3 -->
<g id="edge3_Node000003_Node000004" class="edge">
<title>Node4&#45;&gt;Node3</title>
<g id="a_edge3_Node000003_Node000004"><a xlink:title=" ">
<path fill="none" stroke="#63b8ff" d="M122.84,-802.35C126.21,-792.9 130.16,-781.84 134.5,-769.71"/>
<polygon fill="none" stroke="#63b8ff" points="119.48,-801.34 119.42,-811.94 126.07,-803.7 119.48,-801.34"/>
</a>
</g>
</g>
<!-- Node5 -->
<g id="Node000005" class="node">
<title>Node5</title>
<g id="a_Node000005"><a xlink:title=" ">
<polygon fill="white" stroke="transparent" points="291.5,-861 154.5,-861 154.5,-812 291.5,-812 291.5,-861"/>
<text text-anchor="start" x="160" y="-848.5" font-family="Helvetica,sans-Serif" font-size="10.00">QGraphicsSimpleTextItem</text>
<text text-anchor="start" x="221.5" y="-833.5" font-family="Helvetica,sans-Serif" font-size="10.00"> </text>
<text text-anchor="start" x="221.5" y="-818.5" font-family="Helvetica,sans-Serif" font-size="10.00"> </text>
<polygon fill="#666666" stroke="#666666" points="155,-843.5 155,-843.5 292,-843.5 292,-843.5 155,-843.5"/>
<polygon fill="#666666" stroke="#666666" points="155,-828.5 155,-828.5 292,-828.5 292,-828.5 155,-828.5"/>
<polygon fill="none" stroke="#666666" points="154.5,-812 154.5,-861 291.5,-861 291.5,-812 154.5,-812"/>
</a>
</g>
</g>
<!-- Node5&#45;&gt;Node3 -->
<g id="edge4_Node000003_Node000005" class="edge">
<title>Node5&#45;&gt;Node3</title>
<g id="a_edge4_Node000003_Node000005"><a xlink:title=" ">
<path fill="none" stroke="#63b8ff" d="M222.2,-801.86C222.01,-793.94 221.8,-784.91 221.56,-775.07"/>
<polygon fill="none" stroke="#63b8ff" points="218.7,-802.02 222.44,-811.94 225.7,-801.86 218.7,-802.02"/>
</a>
</g>
</g>
<!-- Node6 -->
<g id="Node000006" class="node">
<title>Node6</title>
<g id="a_Node000006"><a xlink:href="../../dd/da2/classVScaledLine.html" target="_top" xlink:title=" ">
<polygon fill="white" stroke="transparent" points="424.5,-610 315.5,-610 315.5,-471 424.5,-471 424.5,-610"/>
<text text-anchor="start" x="340.5" y="-597.5" font-family="Helvetica,sans-Serif" font-size="10.00">VScaledLine</text>
<text text-anchor="start" x="322.5" y="-582.5" font-family="Helvetica,sans-Serif" font-size="10.00">&#45;</text>
<text text-anchor="start" x="333" y="-582.5" font-family="Helvetica,sans-Serif" font-size="10.00">m_defaultWidth</text>
<text text-anchor="start" x="320" y="-567.5" font-family="Helvetica,sans-Serif" font-size="10.00">+</text>
<text text-anchor="start" x="333" y="-567.5" font-family="Helvetica,sans-Serif" font-size="10.00">VScaledLine()</text>
<text text-anchor="start" x="320" y="-552.5" font-family="Helvetica,sans-Serif" font-size="10.00">+</text>
<text text-anchor="start" x="333" y="-552.5" font-family="Helvetica,sans-Serif" font-size="10.00">VScaledLine()</text>
<text text-anchor="start" x="320" y="-537.5" font-family="Helvetica,sans-Serif" font-size="10.00">+</text>
<text text-anchor="start" x="333" y="-537.5" font-family="Helvetica,sans-Serif" font-size="10.00">~VScaledLine()</text>
<text text-anchor="start" x="320" y="-522.5" font-family="Helvetica,sans-Serif" font-size="10.00">+</text>
<text text-anchor="start" x="333" y="-522.5" font-family="Helvetica,sans-Serif" font-size="10.00">type()</text>
<text text-anchor="start" x="320" y="-507.5" font-family="Helvetica,sans-Serif" font-size="10.00">+</text>
<text text-anchor="start" x="333" y="-507.5" font-family="Helvetica,sans-Serif" font-size="10.00">paint()</text>
<text text-anchor="start" x="320" y="-492.5" font-family="Helvetica,sans-Serif" font-size="10.00">+</text>
<text text-anchor="start" x="333" y="-492.5" font-family="Helvetica,sans-Serif" font-size="10.00">getDefaultWidth()</text>
<text text-anchor="start" x="320" y="-477.5" font-family="Helvetica,sans-Serif" font-size="10.00">+</text>
<text text-anchor="start" x="333" y="-477.5" font-family="Helvetica,sans-Serif" font-size="10.00">setDefaultWidth()</text>
<polygon fill="#666666" stroke="#666666" points="316,-592.5 316,-592.5 425,-592.5 425,-592.5 316,-592.5"/>
<polygon fill="#666666" stroke="#666666" points="316,-577.5 316,-577.5 331,-577.5 331,-577.5 316,-577.5"/>
<polygon fill="#666666" stroke="#666666" points="331,-577.5 331,-577.5 425,-577.5 425,-577.5 331,-577.5"/>
<polygon fill="none" stroke="#666666" points="315.5,-471 315.5,-610 424.5,-610 424.5,-471 315.5,-471"/>
</a>
</g>
</g>
<!-- Node6&#45;&gt;Node1 -->
<g id="edge5_Node000001_Node000006" class="edge">
<title>Node6&#45;&gt;Node1</title>
<g id="a_edge5_Node000001_Node000006"><a xlink:title=" ">
<path fill="none" stroke="#63b8ff" d="M357.27,-470.98C346,-417.03 327.24,-340.59 301,-277 297.68,-268.96 294,-260.83 290.08,-252.73"/>
<polygon fill="none" stroke="#63b8ff" points="289.94,-252.46 283.69,-248.87 284.59,-241.71 290.85,-245.3 289.94,-252.46"/>
</a>
</g>
<text text-anchor="middle" x="346.5" y="-280" font-family="Helvetica,sans-Serif" font-size="10.00" fill="grey"> #m_pointLeader</text>
</g>
<!-- Node7 -->
<g id="Node000007" class="node">
<title>Node7</title>
<g id="a_Node000007"><a xlink:title=" ">
<polygon fill="white" stroke="transparent" points="422,-861 318,-861 318,-812 422,-812 422,-861"/>
<text text-anchor="start" x="323" y="-848.5" font-family="Helvetica,sans-Serif" font-size="10.00">QGraphicsLineItem</text>
<text text-anchor="start" x="368" y="-833.5" font-family="Helvetica,sans-Serif" font-size="10.00"> </text>
<text text-anchor="start" x="368" y="-818.5" font-family="Helvetica,sans-Serif" font-size="10.00"> </text>
<polygon fill="#666666" stroke="#666666" points="318,-843.5 318,-843.5 422,-843.5 422,-843.5 318,-843.5"/>
<polygon fill="#666666" stroke="#666666" points="318,-828.5 318,-828.5 422,-828.5 422,-828.5 318,-828.5"/>
<polygon fill="none" stroke="#666666" points="318,-812 318,-861 422,-861 422,-812 318,-812"/>
</a>
</g>
</g>
<!-- Node7&#45;&gt;Node6 -->
<g id="edge6_Node000006_Node000007" class="edge">
<title>Node7&#45;&gt;Node6</title>
<g id="a_edge6_Node000006_Node000007"><a xlink:title=" ">
<path fill="none" stroke="#63b8ff" d="M370,-801.8C370,-755.3 370,-670.38 370,-610.2"/>
<polygon fill="none" stroke="#63b8ff" points="366.5,-801.94 370,-811.94 373.5,-801.94 366.5,-801.94"/>
</a>
</g>
</g>
</g>
</svg>
