<?xml version="1.0" encoding="UTF-8" standalone="no"?>
<!DOCTYPE svg PUBLIC "-//W3C//DTD SVG 1.1//EN"
 "http://www.w3.org/Graphics/SVG/1.1/DTD/svg11.dtd">
<!-- Generated by graphviz version 2.43.0 (0)
 -->
<!-- Title: src/app/seamly2d/core/vformulaproperty.cpp Pages: 1 -->
<svg width="935pt" height="170pt"
 viewBox="0.00 0.00 935.00 170.00" xmlns="http://www.w3.org/2000/svg" xmlns:xlink="http://www.w3.org/1999/xlink">
<g id="graph0" class="graph" transform="scale(1 1) rotate(0) translate(4 166)">
<title>src/app/seamly2d/core/vformulaproperty.cpp</title>
<!-- Node1 -->
<g id="Node000001" class="node">
<title>Node1</title>
<g id="a_Node000001"><a xlink:title=" ">
<polygon fill="#999999" stroke="#666666" points="575,-162 448,-162 448,-132 575,-132 575,-162"/>
<text text-anchor="start" x="456" y="-150" font-family="Helvetica,sans-Serif" font-size="10.00">src/app/seamly2d/core</text>
<text text-anchor="middle" x="511.5" y="-139" font-family="Helvetica,sans-Serif" font-size="10.00">/vformulaproperty.cpp</text>
</a>
</g>
</g>
<!-- Node2 -->
<g id="Node000002" class="node">
<title>Node2</title>
<g id="a_Node000002"><a xlink:href="../../dd/de8/vformulaproperty_8h.html" target="_top" xlink:title=" ">
<polygon fill="white" stroke="#666666" points="216.5,-90.5 106.5,-90.5 106.5,-71.5 216.5,-71.5 216.5,-90.5"/>
<text text-anchor="middle" x="161.5" y="-78.5" font-family="Helvetica,sans-Serif" font-size="10.00">vformulaproperty.h</text>
</a>
</g>
</g>
<!-- Node1&#45;&gt;Node2 -->
<g id="edge1_Node000001_Node000002" class="edge">
<title>Node1&#45;&gt;Node2</title>
<g id="a_edge1_Node000001_Node000002"><a xlink:title=" ">
<path fill="none" stroke="#63b8ff" d="M447.71,-134.34C382.15,-122.35 281.04,-103.86 218.2,-92.37"/>
<polygon fill="#63b8ff" stroke="#63b8ff" points="218.54,-88.87 208.07,-90.52 217.28,-95.76 218.54,-88.87"/>
</a>
</g>
</g>
<!-- Node4 -->
<g id="Node000004" class="node">
<title>Node4</title>
<g id="a_Node000004"><a xlink:href="../../de/dfb/vformulapropertyeditor_8h.html" target="_top" xlink:title=" ">
<polygon fill="white" stroke="#666666" points="441,-90.5 302,-90.5 302,-71.5 441,-71.5 441,-90.5"/>
<text text-anchor="middle" x="371.5" y="-78.5" font-family="Helvetica,sans-Serif" font-size="10.00">vformulapropertyeditor.h</text>
</a>
</g>
</g>
<!-- Node1&#45;&gt;Node4 -->
<g id="edge3_Node000001_Node000004" class="edge">
<title>Node1&#45;&gt;Node4</title>
<g id="a_edge3_Node000001_Node000004"><a xlink:title=" ">
<path fill="none" stroke="#63b8ff" d="M480.78,-131.95C456.55,-120.88 423.04,-105.56 399.54,-94.82"/>
<polygon fill="#63b8ff" stroke="#63b8ff" points="400.68,-91.49 390.13,-90.52 397.77,-97.86 400.68,-91.49"/>
</a>
</g>
</g>
<!-- Node10 -->
<g id="Node000010" class="node">
<title>Node10</title>
<g id="a_Node000010"><a xlink:title=" ">
<polygon fill="#e0e0e0" stroke="#999999" points="686,-24.5 551,-24.5 551,-5.5 686,-5.5 686,-24.5"/>
<text text-anchor="middle" x="618.5" y="-12.5" font-family="Helvetica,sans-Serif" font-size="10.00">../vpatterndb/vformula.h</text>
</a>
</g>
</g>
<!-- Node1&#45;&gt;Node10 -->
<g id="edge12_Node000001_Node000010" class="edge">
<title>Node1&#45;&gt;Node10</title>
<g id="a_edge12_Node000001_Node000010"><a xlink:title=" ">
<path fill="none" stroke="#63b8ff" d="M501.04,-131.82C489.9,-114.85 475.66,-86.2 489.5,-66 499.56,-51.32 541.19,-36.88 574.47,-27.33"/>
<polygon fill="#63b8ff" stroke="#63b8ff" points="575.8,-30.59 584.49,-24.52 573.92,-23.85 575.8,-30.59"/>
</a>
</g>
</g>
<!-- Node11 -->
<g id="Node000011" class="node">
<title>Node11</title>
<g id="a_Node000011"><a xlink:title=" ">
<polygon fill="#e0e0e0" stroke="#999999" points="611,-96 498,-96 498,-66 611,-66 611,-96"/>
<text text-anchor="start" x="506" y="-84" font-family="Helvetica,sans-Serif" font-size="10.00">../vpropertyexplorer</text>
<text text-anchor="middle" x="554.5" y="-73" font-family="Helvetica,sans-Serif" font-size="10.00">/vproperty_p.h</text>
</a>
</g>
</g>
<!-- Node1&#45;&gt;Node11 -->
<g id="edge10_Node000001_Node000011" class="edge">
<title>Node1&#45;&gt;Node11</title>
<g id="a_edge10_Node000001_Node000011"><a xlink:title=" ">
<path fill="none" stroke="#63b8ff" d="M521.04,-131.8C526.39,-123.84 533.18,-113.74 539.24,-104.71"/>
<polygon fill="#63b8ff" stroke="#63b8ff" points="542.31,-106.42 544.98,-96.16 536.5,-102.51 542.31,-106.42"/>
</a>
</g>
</g>
<!-- Node12 -->
<g id="Node000012" class="node">
<title>Node12</title>
<g id="a_Node000012"><a xlink:title=" ">
<polygon fill="#e0e0e0" stroke="#999999" points="742,-96 629,-96 629,-66 742,-66 742,-96"/>
<text text-anchor="start" x="637" y="-84" font-family="Helvetica,sans-Serif" font-size="10.00">../vpropertyexplorer</text>
<text text-anchor="middle" x="685.5" y="-73" font-family="Helvetica,sans-Serif" font-size="10.00">/vproperties.h</text>
</a>
</g>
</g>
<!-- Node1&#45;&gt;Node12 -->
<g id="edge11_Node000001_Node000012" class="edge">
<title>Node1&#45;&gt;Node12</title>
<g id="a_edge11_Node000001_Node000012"><a xlink:title=" ">
<path fill="none" stroke="#63b8ff" d="M549.69,-131.95C575.64,-122.41 610.16,-109.71 637.9,-99.51"/>
<polygon fill="#63b8ff" stroke="#63b8ff" points="639.23,-102.75 647.4,-96.01 636.81,-96.18 639.23,-102.75"/>
</a>
</g>
</g>
<!-- Node13 -->
<g id="Node000013" class="node">
<title>Node13</title>
<g id="a_Node000013"><a xlink:title=" ">
<polygon fill="#e0e0e0" stroke="#999999" points="927,-90.5 760,-90.5 760,-71.5 927,-71.5 927,-90.5"/>
<text text-anchor="middle" x="843.5" y="-78.5" font-family="Helvetica,sans-Serif" font-size="10.00">../vmisc/vabstractapplication.h</text>
</a>
</g>
</g>
<!-- Node1&#45;&gt;Node13 -->
<g id="edge13_Node000001_Node000013" class="edge">
<title>Node1&#45;&gt;Node13</title>
<g id="a_edge13_Node000001_Node000013"><a xlink:title=" ">
<path fill="none" stroke="#63b8ff" d="M575.12,-133.74C637.11,-121.79 730.35,-103.81 789.02,-92.5"/>
<polygon fill="#63b8ff" stroke="#63b8ff" points="790.04,-95.87 799.2,-90.54 788.71,-89 790.04,-95.87"/>
</a>
</g>
</g>
<!-- Node3 -->
<g id="Node000003" class="node">
<title>Node3</title>
<g id="a_Node000003"><a xlink:title=" ">
<polygon fill="#e0e0e0" stroke="#999999" points="113,-30 0,-30 0,0 113,0 113,-30"/>
<text text-anchor="start" x="8" y="-18" font-family="Helvetica,sans-Serif" font-size="10.00">../vpropertyexplorer</text>
<text text-anchor="middle" x="56.5" y="-7" font-family="Helvetica,sans-Serif" font-size="10.00">/vproperty.h</text>
</a>
</g>
</g>
<!-- Node2&#45;&gt;Node3 -->
<g id="edge2_Node000002_Node000003" class="edge">
<title>Node2&#45;&gt;Node3</title>
<g id="a_edge2_Node000002_Node000003"><a xlink:title=" ">
<path fill="none" stroke="#63b8ff" d="M147.34,-71.37C132.29,-62.2 108,-47.39 88.33,-35.4"/>
<polygon fill="#63b8ff" stroke="#63b8ff" points="90.02,-32.33 79.66,-30.12 86.38,-38.31 90.02,-32.33"/>
</a>
</g>
</g>
<!-- Node5 -->
<g id="Node000005" class="node">
<title>Node5</title>
<g id="a_Node000005"><a xlink:title=" ">
<polygon fill="#e0e0e0" stroke="#999999" points="190,-24.5 131,-24.5 131,-5.5 190,-5.5 190,-24.5"/>
<text text-anchor="middle" x="160.5" y="-12.5" font-family="Helvetica,sans-Serif" font-size="10.00">QWidget</text>
</a>
</g>
</g>
<!-- Node4&#45;&gt;Node5 -->
<g id="edge4_Node000004_Node000005" class="edge">
<title>Node4&#45;&gt;Node5</title>
<g id="a_edge4_Node000004_Node000005"><a xlink:title=" ">
<path fill="none" stroke="#63b8ff" d="M339.94,-71.45C305.3,-61.93 248.16,-45.79 199.5,-30 197.39,-29.31 195.22,-28.59 193.03,-27.85"/>
<polygon fill="#63b8ff" stroke="#63b8ff" points="194.11,-24.52 183.52,-24.53 191.81,-31.13 194.11,-24.52"/>
</a>
</g>
</g>
<!-- Node6 -->
<g id="Node000006" class="node">
<title>Node6</title>
<g id="a_Node000006"><a xlink:title=" ">
<polygon fill="#e0e0e0" stroke="#999999" points="284.5,-24.5 208.5,-24.5 208.5,-5.5 284.5,-5.5 284.5,-24.5"/>
<text text-anchor="middle" x="246.5" y="-12.5" font-family="Helvetica,sans-Serif" font-size="10.00">QToolButton</text>
</a>
</g>
</g>
<!-- Node4&#45;&gt;Node6 -->
<g id="edge5_Node000004_Node000006" class="edge">
<title>Node4&#45;&gt;Node6</title>
<g id="a_edge5_Node000004_Node000006"><a xlink:title=" ">
<path fill="none" stroke="#63b8ff" d="M354.64,-71.37C333.58,-60.59 297.32,-42.02 272.64,-29.38"/>
<polygon fill="#63b8ff" stroke="#63b8ff" points="273.99,-26.14 263.49,-24.7 270.8,-32.37 273.99,-26.14"/>
</a>
</g>
</g>
<!-- Node7 -->
<g id="Node000007" class="node">
<title>Node7</title>
<g id="a_Node000007"><a xlink:title=" ">
<polygon fill="#e0e0e0" stroke="#999999" points="366,-24.5 303,-24.5 303,-5.5 366,-5.5 366,-24.5"/>
<text text-anchor="middle" x="334.5" y="-12.5" font-family="Helvetica,sans-Serif" font-size="10.00">QLineEdit</text>
</a>
</g>
</g>
<!-- Node4&#45;&gt;Node7 -->
<g id="edge6_Node000004_Node000007" class="edge">
<title>Node4&#45;&gt;Node7</title>
<g id="a_edge6_Node000004_Node000007"><a xlink:title=" ">
<path fill="none" stroke="#63b8ff" d="M366.51,-71.37C360.97,-61.78 351.87,-46.05 344.79,-33.8"/>
<polygon fill="#63b8ff" stroke="#63b8ff" points="347.68,-31.81 339.65,-24.91 341.62,-35.31 347.68,-31.81"/>
</a>
</g>
</g>
<!-- Node8 -->
<g id="Node000008" class="node">
<title>Node8</title>
<g id="a_Node000008"><a xlink:title=" ">
<polygon fill="#e0e0e0" stroke="#999999" points="434.5,-24.5 384.5,-24.5 384.5,-5.5 434.5,-5.5 434.5,-24.5"/>
<text text-anchor="middle" x="409.5" y="-12.5" font-family="Helvetica,sans-Serif" font-size="10.00">QLabel</text>
</a>
</g>
</g>
<!-- Node4&#45;&gt;Node8 -->
<g id="edge7_Node000004_Node000008" class="edge">
<title>Node4&#45;&gt;Node8</title>
<g id="a_edge7_Node000004_Node000008"><a xlink:title=" ">
<path fill="none" stroke="#63b8ff" d="M376.62,-71.37C382.32,-61.78 391.66,-46.05 398.93,-33.8"/>
<polygon fill="#63b8ff" stroke="#63b8ff" points="402.12,-35.29 404.21,-24.91 396.1,-31.72 402.12,-35.29"/>
</a>
</g>
</g>
<!-- Node9 -->
<g id="Node000009" class="node">
<title>Node9</title>
<g id="a_Node000009"><a xlink:title=" ">
<polygon fill="#e0e0e0" stroke="#999999" points="532.5,-24.5 452.5,-24.5 452.5,-5.5 532.5,-5.5 532.5,-24.5"/>
<text text-anchor="middle" x="492.5" y="-12.5" font-family="Helvetica,sans-Serif" font-size="10.00">QSpacerItem</text>
</a>
</g>
</g>
<!-- Node4&#45;&gt;Node9 -->
<g id="edge8_Node000004_Node000009" class="edge">
<title>Node4&#45;&gt;Node9</title>
<g id="a_edge8_Node000004_Node000009"><a xlink:title=" ">
<path fill="none" stroke="#63b8ff" d="M387.82,-71.37C408.21,-60.59 443.31,-42.02 467.2,-29.38"/>
<polygon fill="#63b8ff" stroke="#63b8ff" points="468.85,-32.47 476.05,-24.7 465.58,-26.28 468.85,-32.47"/>
</a>
</g>
</g>
<!-- Node4&#45;&gt;Node10 -->
<g id="edge9_Node000004_Node000010" class="edge">
<title>Node4&#45;&gt;Node10</title>
<g id="a_edge9_Node000004_Node000010"><a xlink:title=" ">
<path fill="none" stroke="#63b8ff" d="M404.56,-71.44C448.74,-59.99 527.1,-39.68 575.74,-27.08"/>
<polygon fill="#63b8ff" stroke="#63b8ff" points="576.84,-30.41 585.64,-24.51 575.08,-23.63 576.84,-30.41"/>
</a>
</g>
</g>
</g>
</svg>
