<?xml version="1.0" encoding="UTF-8" standalone="no"?>
<!DOCTYPE svg PUBLIC "-//W3C//DTD SVG 1.1//EN"
 "http://www.w3.org/Graphics/SVG/1.1/DTD/svg11.dtd">
<!-- Generated by graphviz version 2.43.0 (0)
 -->
<!-- Title: src/libs/vgeometry/vsplinepoint.h Pages: 1 -->
<!--zoomable 203 -->

<svg id="main" version="1.1" xmlns="http://www.w3.org/2000/svg" xmlns:xlink="http://www.w3.org/1999/xlink" xml:space="preserve" onload="init(evt)">
<style type="text/css"><![CDATA[
.node, .edge {opacity: 0.7;}
.node.selected, .edge.selected {opacity: 1;}
.edge:hover path { stroke: red; }
.edge:hover polygon { stroke: red; fill: red; }
]]></style>

<defs>
  <circle id="rim" cx="0" cy="0" r="7"/>
  <circle id="rim2" cx="0" cy="0" r="3.5"/>
  <g id="zoomPlus">
    <use xlink:href="#rim" fill="#404040"><set attributeName="fill" to="#808080" begin="zoomplus.mouseover" end="zoomplus.mouseout"/></use>
    <path d="M-4,0h8M0,-4v8" fill="none" stroke="white" stroke-width="1.5" pointer-events="none"/>
  </g>
  <g id="zoomMin">
    <use xlink:href="#rim" fill="#404040"><set attributeName="fill" to="#808080" begin="zoomminus.mouseover" end="zoomminus.mouseout"/></use>
    <path d="M-4,0h8" fill="none" stroke="white" stroke-width="1.5" pointer-events="none"/>
  </g>
  <g id="arrowUp" transform="translate(30 24)">
    <use xlink:href="#rim"/>
    <path pointer-events="none" fill="none" stroke="white" stroke-width="1.5" d="M0,-3.0v7 M-2.5,-0.5L0,-3.0L2.5,-0.5"/>
  </g>
  <g id="arrowRight" transform="rotate(90) translate(36 -43)">
    <use xlink:href="#rim"/>
    <path pointer-events="none" fill="none" stroke="white" stroke-width="1.5" d="M0,-3.0v7 M-2.5,-0.5L0,-3.0L2.5,-0.5"/>
  </g>
  <g id="arrowDown" transform="rotate(180) translate(-30 -48)">
    <use xlink:href="#rim"/>
    <path pointer-events="none" fill="none" stroke="white" stroke-width="1.5" d="M0,-3.0v7 M-2.5,-0.5L0,-3.0L2.5,-0.5"/>
  </g>
  <g id="arrowLeft" transform="rotate(270) translate(-36 17)">
    <use xlink:href="#rim"/>
    <path pointer-events="none" fill="none" stroke="white" stroke-width="1.5" d="M0,-3.0v7 M-2.5,-0.5L0,-3.0L2.5,-0.5"/>
  </g>
  <g id="resetDef">
    <use xlink:href="#rim2" fill="#404040"><set attributeName="fill" to="#808080" begin="reset.mouseover" end="reset.mouseout"/></use>
  </g>
</defs>
<script type="application/ecmascript">
var viewWidth = 685;
var viewHeight = 203;
var sectionId = 'dynsection-0';
</script>
<script type="application/ecmascript" xlink:href="../../svg.min.js"/>
<svg id="graph" class="graph">
<g id="viewport">
<title>src/libs/vgeometry/vsplinepoint.h</title>
<!-- Node1 -->
<g id="Node000001" class="node">
<title>Node1</title>
<g id="a_Node000001"><a xlink:title=" ">
<polygon fill="#999999" stroke="#666666" points="222.19,-195 115.19,-195 115.19,-165 222.19,-165 222.19,-195"/>
<text text-anchor="start" x="123.19" y="-183" font-family="Helvetica,sans-Serif" font-size="10.00">src/libs/vgeometry</text>
<text text-anchor="middle" x="168.69" y="-172" font-family="Helvetica,sans-Serif" font-size="10.00">/vsplinepoint.h</text>
</a>
</g>
</g>
<!-- Node2 -->
<g id="Node000002" class="node">
<title>Node2</title>
<g id="a_Node000002"><a xlink:title=" ">
<polygon fill="#e0e0e0" stroke="#999999" points="99.19,-74 28.19,-74 28.19,-55 99.19,-55 99.19,-74"/>
<text text-anchor="middle" x="63.69" y="-62" font-family="Helvetica,sans-Serif" font-size="10.00">QMetaType</text>
</a>
</g>
</g>
<!-- Node1&#45;&gt;Node2 -->
<g id="edge1_Node000001_Node000002" class="edge">
<title>Node1&#45;&gt;Node2</title>
<g id="a_edge1_Node000001_Node000002"><a xlink:title=" ">
<path fill="none" stroke="#63b8ff" d="M155.39,-164.63C135.82,-143.47 99.36,-104.05 78.8,-81.83"/>
<polygon fill="#63b8ff" stroke="#63b8ff" points="81.13,-79.19 71.77,-74.23 75.99,-83.95 81.13,-79.19"/>
</a>
</g>
</g>
<!-- Node3 -->
<g id="Node000003" class="node">
<title>Node3</title>
<g id="a_Node000003"><a xlink:title=" ">
<polygon fill="#e0e0e0" stroke="#999999" points="120.69,-19 4.69,-19 4.69,0 120.69,0 120.69,-19"/>
<text text-anchor="middle" x="62.69" y="-7" font-family="Helvetica,sans-Serif" font-size="10.00">QSharedDataPointer</text>
</a>
</g>
</g>
<!-- Node1&#45;&gt;Node3 -->
<g id="edge2_Node000001_Node000003" class="edge">
<title>Node1&#45;&gt;Node3</title>
<g id="a_edge2_Node000001_Node000003"><a xlink:title=" ">
<path fill="none" stroke="#63b8ff" d="M115.05,-172.42C84.79,-166.06 48.41,-153.55 24.69,-129 1.24,-104.73 -6.84,-85.46 7.69,-55 13.79,-42.23 25.53,-31.94 36.61,-24.49"/>
<polygon fill="#63b8ff" stroke="#63b8ff" points="38.59,-27.38 45.23,-19.12 34.89,-21.43 38.59,-27.38"/>
</a>
</g>
</g>
<!-- Node4 -->
<g id="Node000004" class="node">
<title>Node4</title>
<g id="a_Node000004"><a xlink:title=" ">
<polygon fill="#e0e0e0" stroke="#999999" points="192.19,-19 139.19,-19 139.19,0 192.19,0 192.19,-19"/>
<text text-anchor="middle" x="165.69" y="-7" font-family="Helvetica,sans-Serif" font-size="10.00">QString</text>
</a>
</g>
</g>
<!-- Node1&#45;&gt;Node4 -->
<g id="edge3_Node000001_Node000004" class="edge">
<title>Node1&#45;&gt;Node4</title>
<g id="a_edge3_Node000001_Node000004"><a xlink:title=" ">
<path fill="none" stroke="#63b8ff" d="M125.42,-164.93C69.37,-144.38 -17.15,-103.3 18.69,-55 25.44,-45.9 88.04,-29.27 129.34,-19.11"/>
<polygon fill="#63b8ff" stroke="#63b8ff" points="130.2,-22.51 139.08,-16.74 128.54,-15.71 130.2,-22.51"/>
</a>
</g>
</g>
<!-- Node5 -->
<g id="Node000005" class="node">
<title>Node5</title>
<g id="a_Node000005"><a xlink:title=" ">
<polygon fill="#e0e0e0" stroke="#999999" points="498.19,-19 433.19,-19 433.19,0 498.19,0 498.19,-19"/>
<text text-anchor="middle" x="465.69" y="-7" font-family="Helvetica,sans-Serif" font-size="10.00">QTypeInfo</text>
</a>
</g>
</g>
<!-- Node1&#45;&gt;Node5 -->
<g id="edge4_Node000001_Node000005" class="edge">
<title>Node1&#45;&gt;Node5</title>
<g id="a_edge4_Node000001_Node000005"><a xlink:title=" ">
<path fill="none" stroke="#63b8ff" d="M222.22,-175.75C337.7,-167.49 604.2,-141.4 658.69,-74 664,-67.43 663.95,-61.61 658.69,-55 649.31,-43.21 562.37,-26.72 508.42,-17.48"/>
<polygon fill="#63b8ff" stroke="#63b8ff" points="508.88,-14 498.44,-15.78 507.71,-20.91 508.88,-14"/>
</a>
</g>
</g>
<!-- Node6 -->
<g id="Node000006" class="node">
<title>Node6</title>
<g id="a_Node000006"><a xlink:title=" ">
<polygon fill="#e0e0e0" stroke="#999999" points="597.19,-19 538.19,-19 538.19,0 597.19,0 597.19,-19"/>
<text text-anchor="middle" x="567.69" y="-7" font-family="Helvetica,sans-Serif" font-size="10.00">QtGlobal</text>
</a>
</g>
</g>
<!-- Node1&#45;&gt;Node6 -->
<g id="edge5_Node000001_Node000006" class="edge">
<title>Node1&#45;&gt;Node6</title>
<g id="a_edge5_Node000001_Node000006"><a xlink:title=" ">
<path fill="none" stroke="#63b8ff" d="M222.37,-179.94C303.44,-179.75 460.88,-173 585.69,-129 629.19,-113.66 651.33,-114.34 673.69,-74 690.47,-43.73 644,-26.39 607.34,-17.71"/>
<polygon fill="#63b8ff" stroke="#63b8ff" points="607.84,-14.24 597.32,-15.49 606.33,-21.07 607.84,-14.24"/>
</a>
</g>
</g>
<!-- Node7 -->
<g id="Node000007" class="node">
<title>Node7</title>
<g id="a_Node000007"><a xlink:href="../../d1/d48/vpointf_8h.html" target="_top" xlink:title=" ">
<polygon fill="white" stroke="#666666" points="264.19,-129 205.19,-129 205.19,-110 264.19,-110 264.19,-129"/>
<text text-anchor="middle" x="234.69" y="-117" font-family="Helvetica,sans-Serif" font-size="10.00">vpointf.h</text>
</a>
</g>
</g>
<!-- Node1&#45;&gt;Node7 -->
<g id="edge6_Node000001_Node000007" class="edge">
<title>Node1&#45;&gt;Node7</title>
<g id="a_edge6_Node000001_Node000007"><a xlink:title=" ">
<path fill="none" stroke="#63b8ff" d="M184.67,-164.84C194.44,-156.17 206.97,-145.08 217.03,-136.15"/>
<polygon fill="#63b8ff" stroke="#63b8ff" points="219.64,-138.52 224.8,-129.27 215,-133.28 219.64,-138.52"/>
</a>
</g>
</g>
<!-- Node7&#45;&gt;Node2 -->
<g id="edge8_Node000007_Node000002" class="edge">
<title>Node7&#45;&gt;Node2</title>
<g id="a_edge8_Node000007_Node000002"><a xlink:title=" ">
<path fill="none" stroke="#63b8ff" d="M207.22,-109.98C178.51,-101.09 133.27,-87.07 101.27,-77.15"/>
<polygon fill="#63b8ff" stroke="#63b8ff" points="101.97,-73.7 91.38,-74.08 99.9,-80.39 101.97,-73.7"/>
</a>
</g>
</g>
<!-- Node7&#45;&gt;Node3 -->
<g id="edge9_Node000007_Node000003" class="edge">
<title>Node7&#45;&gt;Node3</title>
<g id="a_edge9_Node000007_Node000003"><a xlink:title=" ">
<path fill="none" stroke="#63b8ff" d="M220.91,-109.84C191.34,-91.28 121.6,-47.49 85.39,-24.75"/>
<polygon fill="#63b8ff" stroke="#63b8ff" points="86.87,-21.55 76.54,-19.2 83.15,-27.48 86.87,-21.55"/>
</a>
</g>
</g>
<!-- Node7&#45;&gt;Node4 -->
<g id="edge10_Node000007_Node000004" class="edge">
<title>Node7&#45;&gt;Node4</title>
<g id="a_edge10_Node000007_Node000004"><a xlink:title=" ">
<path fill="none" stroke="#63b8ff" d="M229.05,-109.66C217.62,-91.77 191.57,-51 176.68,-27.69"/>
<polygon fill="#63b8ff" stroke="#63b8ff" points="179.56,-25.7 171.22,-19.16 173.66,-29.47 179.56,-25.7"/>
</a>
</g>
</g>
<!-- Node7&#45;&gt;Node5 -->
<g id="edge11_Node000007_Node000005" class="edge">
<title>Node7&#45;&gt;Node5</title>
<g id="a_edge11_Node000007_Node000005"><a xlink:title=" ">
<path fill="none" stroke="#63b8ff" d="M264.46,-115.97C316.35,-110.98 420.39,-98.18 446.69,-74 458.99,-62.69 463.45,-43.79 465.01,-29.54"/>
<polygon fill="#63b8ff" stroke="#63b8ff" points="468.51,-29.56 465.73,-19.34 461.53,-29.07 468.51,-29.56"/>
</a>
</g>
</g>
<!-- Node7&#45;&gt;Node6 -->
<g id="edge12_Node000007_Node000006" class="edge">
<title>Node7&#45;&gt;Node6</title>
<g id="a_edge12_Node000007_Node000006"><a xlink:title=" ">
<path fill="none" stroke="#63b8ff" d="M264.23,-116.35C309.28,-112.31 397.25,-101.37 466.69,-74 497.61,-61.82 529.44,-39.97 548.9,-25.35"/>
<polygon fill="#63b8ff" stroke="#63b8ff" points="551.11,-28.06 556.92,-19.2 546.85,-22.51 551.11,-28.06"/>
</a>
</g>
</g>
<!-- Node8 -->
<g id="Node000008" class="node">
<title>Node8</title>
<g id="a_Node000008"><a xlink:title=" ">
<polygon fill="#e0e0e0" stroke="#999999" points="437.69,-74 317.69,-74 317.69,-55 437.69,-55 437.69,-74"/>
<text text-anchor="middle" x="377.69" y="-62" font-family="Helvetica,sans-Serif" font-size="10.00">qcompilerdetection.h</text>
</a>
</g>
</g>
<!-- Node7&#45;&gt;Node8 -->
<g id="edge7_Node000007_Node000008" class="edge">
<title>Node7&#45;&gt;Node8</title>
<g id="a_edge7_Node000007_Node000008"><a xlink:title=" ">
<path fill="none" stroke="#63b8ff" d="M257.67,-109.98C281.19,-101.27 317.98,-87.63 344.63,-77.75"/>
<polygon fill="#63b8ff" stroke="#63b8ff" points="346.14,-80.93 354.3,-74.17 343.71,-74.36 346.14,-80.93"/>
</a>
</g>
</g>
<!-- Node9 -->
<g id="Node000009" class="node">
<title>Node9</title>
<g id="a_Node000009"><a xlink:href="../../d6/dcd/diagnostic_8h.html" target="_top" xlink:title=" ">
<polygon fill="white" stroke="#666666" points="649.19,-74 532.19,-74 532.19,-55 649.19,-55 649.19,-74"/>
<text text-anchor="middle" x="590.69" y="-62" font-family="Helvetica,sans-Serif" font-size="10.00">../vmisc/diagnostic.h</text>
</a>
</g>
</g>
<!-- Node7&#45;&gt;Node9 -->
<g id="edge13_Node000007_Node000009" class="edge">
<title>Node7&#45;&gt;Node9</title>
<g id="a_edge13_Node000007_Node000009"><a xlink:title=" ">
<path fill="none" stroke="#63b8ff" d="M264.43,-114.07C321.05,-105.64 445.59,-87.1 523.38,-75.52"/>
<polygon fill="#63b8ff" stroke="#63b8ff" points="524.18,-78.94 533.56,-74.01 523.15,-72.02 524.18,-78.94"/>
</a>
</g>
</g>
<!-- Node10 -->
<g id="Node000010" class="node">
<title>Node10</title>
<g id="a_Node000010"><a xlink:href="../../d5/d9d/vgeometrydef_8h.html" target="_top" xlink:title=" ">
<polygon fill="white" stroke="#666666" points="304.69,-19 210.69,-19 210.69,0 304.69,0 304.69,-19"/>
<text text-anchor="middle" x="257.69" y="-7" font-family="Helvetica,sans-Serif" font-size="10.00">vgeometrydef.h</text>
</a>
</g>
</g>
<!-- Node7&#45;&gt;Node10 -->
<g id="edge15_Node000007_Node000010" class="edge">
<title>Node7&#45;&gt;Node10</title>
<g id="a_edge15_Node000007_Node000010"><a xlink:title=" ">
<path fill="none" stroke="#63b8ff" d="M230.21,-109.66C224.51,-97.2 216.16,-73.87 222.69,-55 226.37,-44.38 233.74,-34.38 240.77,-26.55"/>
<polygon fill="#63b8ff" stroke="#63b8ff" points="243.39,-28.88 247.81,-19.25 238.35,-24.02 243.39,-28.88"/>
</a>
</g>
</g>
<!-- Node11 -->
<g id="Node000011" class="node">
<title>Node11</title>
<g id="a_Node000011"><a xlink:href="../../d2/d07/vgobject_8h.html" target="_top" xlink:title=" ">
<polygon fill="white" stroke="#666666" points="299.69,-74 231.69,-74 231.69,-55 299.69,-55 299.69,-74"/>
<text text-anchor="middle" x="265.69" y="-62" font-family="Helvetica,sans-Serif" font-size="10.00">vgobject.h</text>
</a>
</g>
</g>
<!-- Node7&#45;&gt;Node11 -->
<g id="edge16_Node000007_Node000011" class="edge">
<title>Node7&#45;&gt;Node11</title>
<g id="a_edge16_Node000007_Node000011"><a xlink:title=" ">
<path fill="none" stroke="#63b8ff" d="M239.81,-109.75C244.05,-102.49 250.22,-91.95 255.47,-82.98"/>
<polygon fill="#63b8ff" stroke="#63b8ff" points="258.64,-84.49 260.67,-74.09 252.6,-80.95 258.64,-84.49"/>
</a>
</g>
</g>
<!-- Node9&#45;&gt;Node6 -->
<g id="edge14_Node000009_Node000006" class="edge">
<title>Node9&#45;&gt;Node6</title>
<g id="a_edge14_Node000009_Node000006"><a xlink:title=" ">
<path fill="none" stroke="#63b8ff" d="M586.89,-54.75C583.78,-47.57 579.27,-37.18 575.4,-28.27"/>
<polygon fill="#63b8ff" stroke="#63b8ff" points="578.61,-26.87 571.42,-19.09 572.19,-29.66 578.61,-26.87"/>
</a>
</g>
</g>
<!-- Node11&#45;&gt;Node3 -->
<g id="edge17_Node000011_Node000003" class="edge">
<title>Node11&#45;&gt;Node3</title>
<g id="a_edge17_Node000011_Node000003"><a xlink:title=" ">
<path fill="none" stroke="#63b8ff" d="M233.08,-54.98C198.4,-45.93 143.43,-31.58 105.34,-21.64"/>
<polygon fill="#63b8ff" stroke="#63b8ff" points="106.12,-18.22 95.56,-19.08 104.35,-24.99 106.12,-18.22"/>
</a>
</g>
</g>
<!-- Node11&#45;&gt;Node4 -->
<g id="edge18_Node000011_Node000004" class="edge">
<title>Node11&#45;&gt;Node4</title>
<g id="a_edge18_Node000011_Node000004"><a xlink:title=" ">
<path fill="none" stroke="#63b8ff" d="M249.63,-54.98C233.83,-46.61 209.47,-33.7 191.06,-23.95"/>
<polygon fill="#63b8ff" stroke="#63b8ff" points="192.53,-20.76 182.05,-19.17 189.25,-26.95 192.53,-20.76"/>
</a>
</g>
</g>
<!-- Node11&#45;&gt;Node5 -->
<g id="edge19_Node000011_Node000005" class="edge">
<title>Node11&#45;&gt;Node5</title>
<g id="a_edge19_Node000011_Node000005"><a xlink:title=" ">
<path fill="none" stroke="#63b8ff" d="M297.83,-54.98C331.84,-45.97 385.69,-31.7 423.19,-21.76"/>
<polygon fill="#63b8ff" stroke="#63b8ff" points="424.54,-25.03 433.31,-19.08 422.74,-18.26 424.54,-25.03"/>
</a>
</g>
</g>
<!-- Node11&#45;&gt;Node6 -->
<g id="edge21_Node000011_Node000006" class="edge">
<title>Node11&#45;&gt;Node6</title>
<g id="a_edge21_Node000011_Node000006"><a xlink:title=" ">
<path fill="none" stroke="#63b8ff" d="M299.94,-56.65C302.9,-56.08 305.85,-55.53 308.69,-55 386.34,-40.66 477.38,-25.37 528.21,-16.97"/>
<polygon fill="#63b8ff" stroke="#63b8ff" points="528.83,-20.41 538.13,-15.33 527.69,-13.51 528.83,-20.41"/>
</a>
</g>
</g>
<!-- Node11&#45;&gt;Node10 -->
<g id="edge22_Node000011_Node000010" class="edge">
<title>Node11&#45;&gt;Node10</title>
<g id="a_edge22_Node000011_Node000010"><a xlink:title=" ">
<path fill="none" stroke="#63b8ff" d="M264.37,-54.75C263.32,-47.8 261.82,-37.85 260.5,-29.13"/>
<polygon fill="#63b8ff" stroke="#63b8ff" points="263.94,-28.45 258.99,-19.09 257.02,-29.5 263.94,-28.45"/>
</a>
</g>
</g>
<!-- Node12 -->
<g id="Node000012" class="node">
<title>Node12</title>
<g id="a_Node000012"><a xlink:title=" ">
<polygon fill="#e0e0e0" stroke="#999999" points="378.19,-19 323.19,-19 323.19,0 378.19,0 378.19,-19"/>
<text text-anchor="middle" x="350.69" y="-7" font-family="Helvetica,sans-Serif" font-size="10.00">QVector</text>
</a>
</g>
</g>
<!-- Node11&#45;&gt;Node12 -->
<g id="edge20_Node000011_Node000012" class="edge">
<title>Node11&#45;&gt;Node12</title>
<g id="a_edge20_Node000011_Node000012"><a xlink:title=" ">
<path fill="none" stroke="#63b8ff" d="M279.35,-54.98C292.53,-46.77 312.72,-34.18 328.26,-24.49"/>
<polygon fill="#63b8ff" stroke="#63b8ff" points="330.15,-27.43 336.79,-19.17 326.45,-21.49 330.15,-27.43"/>
</a>
</g>
</g>
</g>
</svg>

<g id="navigator" transform="translate(0 0)" fill="#404254">
  <rect fill="#f2f5e9" fill-opacity="0.5" stroke="#606060" stroke-width=".5" x="0" y="0" width="60" height="60"/>
  <use id="zoomplus" xlink:href="#zoomPlus" x="17" y="9" onmousedown="handleZoom(evt,'in')"/>
  <use id="zoomminus" xlink:href="#zoomMin" x="42" y="9" onmousedown="handleZoom(evt,'out')"/>
  <use id="reset" xlink:href="#resetDef" x="30" y="36" onmousedown="handleReset()"/>
   <use id="arrowup" xlink:href="#arrowUp" x="0" y="0" onmousedown="handlePan(0,-1)"/>
  <use id="arrowright" xlink:href="#arrowRight" x="0" y="0" onmousedown="handlePan(1,0)"/>
  <use id="arrowdown" xlink:href="#arrowDown" x="0" y="0" onmousedown="handlePan(0,1)"/>
  <use id="arrowleft" xlink:href="#arrowLeft" x="0" y="0" onmousedown="handlePan(-1,0)"/>
</g>
<svg viewBox="0 0 15 15" width="100%" height="30px" preserveAspectRatio="xMaxYMin meet">
 <g id="arrow_out" transform="scale(0.3 0.3)">
  <a xlink:href="vsplinepoint_8h__incl_org.svg" target="_base">
   <rect id="button" ry="5" rx="5" y="6" x="6" height="38" width="38"
        fill="#f2f5e9" fill-opacity="0.5" stroke="#606060" stroke-width="1.0"/>
   <path id="arrow"
     d="M 11.500037,31.436501 C 11.940474,20.09759 22.043105,11.32322 32.158766,21.979434 L 37.068811,17.246167 C 37.068811,17.246167 37.088388,32 37.088388,32 L 22.160133,31.978069 C 22.160133,31.978069 26.997745,27.140456 26.997745,27.140456 C 18.528582,18.264221 13.291696,25.230495 11.500037,31.436501 z"
     style="fill:#404040;"/>
  </a>
 </g>
</svg>

<style type='text/css'>
<![CDATA[
[data-mouse-over-selected='false'] { opacity: 0.7; }
[data-mouse-over-selected='true']  { opacity: 1.0; }
]]>
</style>
<script type="application/ecmascript"><![CDATA[
document.addEventListener('DOMContentLoaded', (event) => {
  highlightEdges();
  highlightAdjacentNodes();
});
]]></script>
</svg>
