<?xml version="1.0" encoding="UTF-8" standalone="no"?>
<!DOCTYPE svg PUBLIC "-//W3C//DTD SVG 1.1//EN"
 "http://www.w3.org/Graphics/SVG/1.1/DTD/svg11.dtd">
<!-- Generated by graphviz version 2.43.0 (0)
 -->
<!-- Title: src/app/seamly2d/core/vformulapropertyeditor.cpp Pages: 1 -->
<svg width="1287pt" height="159pt"
 viewBox="0.00 0.00 1286.50 159.00" xmlns="http://www.w3.org/2000/svg" xmlns:xlink="http://www.w3.org/1999/xlink">
<g id="graph0" class="graph" transform="scale(1 1) rotate(0) translate(4 155)">
<title>src/app/seamly2d/core/vformulapropertyeditor.cpp</title>
<!-- Node1 -->
<g id="Node000001" class="node">
<title>Node1</title>
<g id="a_Node000001"><a xlink:title=" ">
<polygon fill="#999999" stroke="#666666" points="774,-151 621,-151 621,-121 774,-121 774,-151"/>
<text text-anchor="start" x="629" y="-139" font-family="Helvetica,sans-Serif" font-size="10.00">src/app/seamly2d/core</text>
<text text-anchor="middle" x="697.5" y="-128" font-family="Helvetica,sans-Serif" font-size="10.00">/vformulapropertyeditor.cpp</text>
</a>
</g>
</g>
<!-- Node2 -->
<g id="Node000002" class="node">
<title>Node2</title>
<g id="a_Node000002"><a xlink:href="../../de/dfb/vformulapropertyeditor_8h.html" target="_top" xlink:title=" ">
<polygon fill="white" stroke="#666666" points="310,-79.5 171,-79.5 171,-60.5 310,-60.5 310,-79.5"/>
<text text-anchor="middle" x="240.5" y="-67.5" font-family="Helvetica,sans-Serif" font-size="10.00">vformulapropertyeditor.h</text>
</a>
</g>
</g>
<!-- Node1&#45;&gt;Node2 -->
<g id="edge1_Node000001_Node000002" class="edge">
<title>Node1&#45;&gt;Node2</title>
<g id="a_edge1_Node000001_Node000002"><a xlink:title=" ">
<path fill="none" stroke="#63b8ff" d="M620.98,-125.88C544.52,-116.53 423.68,-101.11 319.5,-85 312.13,-83.86 304.39,-82.58 296.75,-81.28"/>
<polygon fill="#63b8ff" stroke="#63b8ff" points="297.26,-77.82 286.81,-79.56 296.07,-84.71 297.26,-77.82"/>
</a>
</g>
</g>
<!-- Node9 -->
<g id="Node000009" class="node">
<title>Node9</title>
<g id="a_Node000009"><a xlink:title=" ">
<polygon fill="#e0e0e0" stroke="#999999" points="411,-79.5 328,-79.5 328,-60.5 411,-60.5 411,-79.5"/>
<text text-anchor="middle" x="369.5" y="-67.5" font-family="Helvetica,sans-Serif" font-size="10.00">QHBoxLayout</text>
</a>
</g>
</g>
<!-- Node1&#45;&gt;Node9 -->
<g id="edge8_Node000001_Node000009" class="edge">
<title>Node1&#45;&gt;Node9</title>
<g id="a_edge8_Node000001_Node000009"><a xlink:title=" ">
<path fill="none" stroke="#63b8ff" d="M620.71,-123.03C564.9,-113.87 487.69,-100.25 420.5,-85 416.63,-84.12 412.62,-83.14 408.61,-82.12"/>
<polygon fill="#63b8ff" stroke="#63b8ff" points="409.35,-78.69 398.78,-79.52 407.56,-85.46 409.35,-78.69"/>
</a>
</g>
</g>
<!-- Node10 -->
<g id="Node000010" class="node">
<title>Node10</title>
<g id="a_Node000010"><a xlink:title=" ">
<polygon fill="#e0e0e0" stroke="#999999" points="502,-79.5 429,-79.5 429,-60.5 502,-60.5 502,-79.5"/>
<text text-anchor="middle" x="465.5" y="-67.5" font-family="Helvetica,sans-Serif" font-size="10.00">QFileDialog</text>
</a>
</g>
</g>
<!-- Node1&#45;&gt;Node10 -->
<g id="edge9_Node000001_Node000010" class="edge">
<title>Node1&#45;&gt;Node10</title>
<g id="a_edge9_Node000001_Node000010"><a xlink:title=" ">
<path fill="none" stroke="#63b8ff" d="M643.25,-120.92C606.08,-111.15 555.7,-97.66 511.5,-85 508.72,-84.2 505.84,-83.36 502.95,-82.51"/>
<polygon fill="#63b8ff" stroke="#63b8ff" points="503.77,-79.1 493.19,-79.59 501.76,-85.81 503.77,-79.1"/>
</a>
</g>
</g>
<!-- Node11 -->
<g id="Node000011" class="node">
<title>Node11</title>
<g id="a_Node000011"><a xlink:title=" ">
<polygon fill="#e0e0e0" stroke="#999999" points="590.5,-79.5 520.5,-79.5 520.5,-60.5 590.5,-60.5 590.5,-79.5"/>
<text text-anchor="middle" x="555.5" y="-67.5" font-family="Helvetica,sans-Serif" font-size="10.00">QKeyEvent</text>
</a>
</g>
</g>
<!-- Node1&#45;&gt;Node11 -->
<g id="edge10_Node000001_Node000011" class="edge">
<title>Node1&#45;&gt;Node11</title>
<g id="a_edge10_Node000001_Node000011"><a xlink:title=" ">
<path fill="none" stroke="#63b8ff" d="M666.34,-120.95C641.65,-109.83 607.47,-94.42 583.62,-83.67"/>
<polygon fill="#63b8ff" stroke="#63b8ff" points="584.95,-80.44 574.4,-79.52 582.08,-86.82 584.95,-80.44"/>
</a>
</g>
</g>
<!-- Node12 -->
<g id="Node000012" class="node">
<title>Node12</title>
<g id="a_Node000012"><a xlink:title=" ">
<polygon fill="#e0e0e0" stroke="#999999" points="688,-79.5 609,-79.5 609,-60.5 688,-60.5 688,-79.5"/>
<text text-anchor="middle" x="648.5" y="-67.5" font-family="Helvetica,sans-Serif" font-size="10.00">QApplication</text>
</a>
</g>
</g>
<!-- Node1&#45;&gt;Node12 -->
<g id="edge11_Node000001_Node000012" class="edge">
<title>Node1&#45;&gt;Node12</title>
<g id="a_edge11_Node000001_Node000012"><a xlink:title=" ">
<path fill="none" stroke="#63b8ff" d="M686.63,-120.8C679.21,-111.11 669.36,-98.24 661.52,-88.01"/>
<polygon fill="#63b8ff" stroke="#63b8ff" points="664.13,-85.66 655.27,-79.84 658.57,-89.91 664.13,-85.66"/>
</a>
</g>
</g>
<!-- Node13 -->
<g id="Node000013" class="node">
<title>Node13</title>
<g id="a_Node000013"><a xlink:title=" ">
<polygon fill="#e0e0e0" stroke="#999999" points="787,-79.5 706,-79.5 706,-60.5 787,-60.5 787,-79.5"/>
<text text-anchor="middle" x="746.5" y="-67.5" font-family="Helvetica,sans-Serif" font-size="10.00">QColorDialog</text>
</a>
</g>
</g>
<!-- Node1&#45;&gt;Node13 -->
<g id="edge12_Node000001_Node000013" class="edge">
<title>Node1&#45;&gt;Node13</title>
<g id="a_edge12_Node000001_Node000013"><a xlink:title=" ">
<path fill="none" stroke="#63b8ff" d="M708.37,-120.8C715.79,-111.11 725.64,-98.24 733.48,-88.01"/>
<polygon fill="#63b8ff" stroke="#63b8ff" points="736.43,-89.91 739.73,-79.84 730.87,-85.66 736.43,-89.91"/>
</a>
</g>
</g>
<!-- Node14 -->
<g id="Node000014" class="node">
<title>Node14</title>
<g id="a_Node000014"><a xlink:title=" ">
<polygon fill="#e0e0e0" stroke="#999999" points="861.5,-79.5 805.5,-79.5 805.5,-60.5 861.5,-60.5 861.5,-79.5"/>
<text text-anchor="middle" x="833.5" y="-67.5" font-family="Helvetica,sans-Serif" font-size="10.00">QDebug</text>
</a>
</g>
</g>
<!-- Node1&#45;&gt;Node14 -->
<g id="edge13_Node000001_Node000014" class="edge">
<title>Node1&#45;&gt;Node14</title>
<g id="a_edge13_Node000001_Node000014"><a xlink:title=" ">
<path fill="none" stroke="#63b8ff" d="M727.35,-120.95C750.88,-109.88 783.43,-94.56 806.27,-83.82"/>
<polygon fill="#63b8ff" stroke="#63b8ff" points="807.84,-86.94 815.4,-79.52 804.86,-80.61 807.84,-86.94"/>
</a>
</g>
</g>
<!-- Node15 -->
<g id="Node000015" class="node">
<title>Node15</title>
<g id="a_Node000015"><a xlink:title=" ">
<polygon fill="#e0e0e0" stroke="#999999" points="995,-79.5 880,-79.5 880,-60.5 995,-60.5 995,-79.5"/>
<text text-anchor="middle" x="937.5" y="-67.5" font-family="Helvetica,sans-Serif" font-size="10.00">QRegularExpression</text>
</a>
</g>
</g>
<!-- Node1&#45;&gt;Node15 -->
<g id="edge14_Node000001_Node000015" class="edge">
<title>Node1&#45;&gt;Node15</title>
<g id="a_edge14_Node000001_Node000015"><a xlink:title=" ">
<path fill="none" stroke="#63b8ff" d="M750.17,-120.95C793.93,-109.29 855.35,-92.91 895.76,-82.13"/>
<polygon fill="#63b8ff" stroke="#63b8ff" points="896.8,-85.48 905.56,-79.52 895,-78.71 896.8,-85.48"/>
</a>
</g>
</g>
<!-- Node16 -->
<g id="Node000016" class="node">
<title>Node16</title>
<g id="a_Node000016"><a xlink:title=" ">
<polygon fill="#e0e0e0" stroke="#999999" points="1126,-85 1013,-85 1013,-55 1126,-55 1126,-85"/>
<text text-anchor="start" x="1021" y="-73" font-family="Helvetica,sans-Serif" font-size="10.00">../vpropertyexplorer</text>
<text text-anchor="middle" x="1069.5" y="-62" font-family="Helvetica,sans-Serif" font-size="10.00">/vproperty.h</text>
</a>
</g>
</g>
<!-- Node1&#45;&gt;Node16 -->
<g id="edge15_Node000001_Node000016" class="edge">
<title>Node1&#45;&gt;Node16</title>
<g id="a_edge15_Node000001_Node000016"><a xlink:title=" ">
<path fill="none" stroke="#63b8ff" d="M774.02,-123.64C833.87,-114.5 919.42,-100.88 1002.91,-85.25"/>
<polygon fill="#63b8ff" stroke="#63b8ff" points="1003.63,-88.68 1012.81,-83.39 1002.34,-81.8 1003.63,-88.68"/>
</a>
</g>
</g>
<!-- Node17 -->
<g id="Node000017" class="node">
<title>Node17</title>
<g id="a_Node000017"><a xlink:title=" ">
<polygon fill="#e0e0e0" stroke="#999999" points="1278.5,-85 1144.5,-85 1144.5,-55 1278.5,-55 1278.5,-85"/>
<text text-anchor="start" x="1152.5" y="-73" font-family="Helvetica,sans-Serif" font-size="10.00">../vtools/dialogs/support</text>
<text text-anchor="middle" x="1211.5" y="-62" font-family="Helvetica,sans-Serif" font-size="10.00">/edit_formula_dialog.h</text>
</a>
</g>
</g>
<!-- Node1&#45;&gt;Node17 -->
<g id="edge16_Node000001_Node000017" class="edge">
<title>Node1&#45;&gt;Node17</title>
<g id="a_edge16_Node000001_Node000017"><a xlink:title=" ">
<path fill="none" stroke="#63b8ff" d="M774.06,-127.86C859.51,-119.54 1002.1,-104.56 1134.49,-85.09"/>
<polygon fill="#63b8ff" stroke="#63b8ff" points="1135.03,-88.55 1144.4,-83.62 1134,-81.62 1135.03,-88.55"/>
</a>
</g>
</g>
<!-- Node3 -->
<g id="Node000003" class="node">
<title>Node3</title>
<g id="a_Node000003"><a xlink:title=" ">
<polygon fill="#e0e0e0" stroke="#999999" points="59,-19 0,-19 0,0 59,0 59,-19"/>
<text text-anchor="middle" x="29.5" y="-7" font-family="Helvetica,sans-Serif" font-size="10.00">QWidget</text>
</a>
</g>
</g>
<!-- Node2&#45;&gt;Node3 -->
<g id="edge2_Node000002_Node000003" class="edge">
<title>Node2&#45;&gt;Node3</title>
<g id="a_edge2_Node000002_Node000003"><a xlink:title=" ">
<path fill="none" stroke="#63b8ff" d="M209.82,-60.49C172.62,-50.18 109.87,-32.78 69.07,-21.47"/>
<polygon fill="#63b8ff" stroke="#63b8ff" points="69.77,-18.03 59.2,-18.73 67.9,-24.78 69.77,-18.03"/>
</a>
</g>
</g>
<!-- Node4 -->
<g id="Node000004" class="node">
<title>Node4</title>
<g id="a_Node000004"><a xlink:title=" ">
<polygon fill="#e0e0e0" stroke="#999999" points="153.5,-19 77.5,-19 77.5,0 153.5,0 153.5,-19"/>
<text text-anchor="middle" x="115.5" y="-7" font-family="Helvetica,sans-Serif" font-size="10.00">QToolButton</text>
</a>
</g>
</g>
<!-- Node2&#45;&gt;Node4 -->
<g id="edge3_Node000002_Node000004" class="edge">
<title>Node2&#45;&gt;Node4</title>
<g id="a_edge3_Node000002_Node000004"><a xlink:title=" ">
<path fill="none" stroke="#63b8ff" d="M222.32,-60.49C201.49,-50.75 167.13,-34.66 143.02,-23.38"/>
<polygon fill="#63b8ff" stroke="#63b8ff" points="144.24,-20.09 133.7,-19.02 141.27,-26.43 144.24,-20.09"/>
</a>
</g>
</g>
<!-- Node5 -->
<g id="Node000005" class="node">
<title>Node5</title>
<g id="a_Node000005"><a xlink:title=" ">
<polygon fill="#e0e0e0" stroke="#999999" points="235,-19 172,-19 172,0 235,0 235,-19"/>
<text text-anchor="middle" x="203.5" y="-7" font-family="Helvetica,sans-Serif" font-size="10.00">QLineEdit</text>
</a>
</g>
</g>
<!-- Node2&#45;&gt;Node5 -->
<g id="edge4_Node000002_Node000005" class="edge">
<title>Node2&#45;&gt;Node5</title>
<g id="a_edge4_Node000002_Node000005"><a xlink:title=" ">
<path fill="none" stroke="#63b8ff" d="M235.04,-60.37C229.63,-51.81 221.19,-38.47 214.4,-27.74"/>
<polygon fill="#63b8ff" stroke="#63b8ff" points="217.29,-25.75 208.98,-19.17 211.37,-29.49 217.29,-25.75"/>
</a>
</g>
</g>
<!-- Node6 -->
<g id="Node000006" class="node">
<title>Node6</title>
<g id="a_Node000006"><a xlink:title=" ">
<polygon fill="#e0e0e0" stroke="#999999" points="303.5,-19 253.5,-19 253.5,0 303.5,0 303.5,-19"/>
<text text-anchor="middle" x="278.5" y="-7" font-family="Helvetica,sans-Serif" font-size="10.00">QLabel</text>
</a>
</g>
</g>
<!-- Node2&#45;&gt;Node6 -->
<g id="edge5_Node000002_Node000006" class="edge">
<title>Node2&#45;&gt;Node6</title>
<g id="a_edge5_Node000002_Node000006"><a xlink:title=" ">
<path fill="none" stroke="#63b8ff" d="M246.11,-60.37C251.66,-51.81 260.33,-38.47 267.3,-27.74"/>
<polygon fill="#63b8ff" stroke="#63b8ff" points="270.36,-29.46 272.87,-19.17 264.49,-25.65 270.36,-29.46"/>
</a>
</g>
</g>
<!-- Node7 -->
<g id="Node000007" class="node">
<title>Node7</title>
<g id="a_Node000007"><a xlink:title=" ">
<polygon fill="#e0e0e0" stroke="#999999" points="401.5,-19 321.5,-19 321.5,0 401.5,0 401.5,-19"/>
<text text-anchor="middle" x="361.5" y="-7" font-family="Helvetica,sans-Serif" font-size="10.00">QSpacerItem</text>
</a>
</g>
</g>
<!-- Node2&#45;&gt;Node7 -->
<g id="edge6_Node000002_Node000007" class="edge">
<title>Node2&#45;&gt;Node7</title>
<g id="a_edge6_Node000002_Node000007"><a xlink:title=" ">
<path fill="none" stroke="#63b8ff" d="M258.09,-60.49C278.26,-50.75 311.52,-34.66 334.86,-23.38"/>
<polygon fill="#63b8ff" stroke="#63b8ff" points="336.4,-26.52 343.88,-19.02 333.36,-20.22 336.4,-26.52"/>
</a>
</g>
</g>
<!-- Node8 -->
<g id="Node000008" class="node">
<title>Node8</title>
<g id="a_Node000008"><a xlink:title=" ">
<polygon fill="#e0e0e0" stroke="#999999" points="555,-19 420,-19 420,0 555,0 555,-19"/>
<text text-anchor="middle" x="487.5" y="-7" font-family="Helvetica,sans-Serif" font-size="10.00">../vpatterndb/vformula.h</text>
</a>
</g>
</g>
<!-- Node2&#45;&gt;Node8 -->
<g id="edge7_Node000002_Node000008" class="edge">
<title>Node2&#45;&gt;Node8</title>
<g id="a_edge7_Node000002_Node000008"><a xlink:title=" ">
<path fill="none" stroke="#63b8ff" d="M276.42,-60.49C320.14,-50.14 394.03,-32.64 441.77,-21.33"/>
<polygon fill="#63b8ff" stroke="#63b8ff" points="442.62,-24.73 451.54,-19.02 441,-17.92 442.62,-24.73"/>
</a>
</g>
</g>
</g>
</svg>
