<?xml version="1.0" encoding="UTF-8" standalone="no"?>
<!DOCTYPE svg PUBLIC "-//W3C//DTD SVG 1.1//EN"
 "http://www.w3.org/Graphics/SVG/1.1/DTD/svg11.dtd">
<!-- Generated by graphviz version 2.43.0 (0)
 -->
<!-- Title: src/app/seamly2d/dialogs/export_layout_dialog.cpp Pages: 1 -->
<svg width="2017pt" height="335pt"
 viewBox="0.00 0.00 2017.08 335.00" xmlns="http://www.w3.org/2000/svg" xmlns:xlink="http://www.w3.org/1999/xlink">
<g id="graph0" class="graph" transform="scale(1 1) rotate(0) translate(4 331)">
<title>src/app/seamly2d/dialogs/export_layout_dialog.cpp</title>
<!-- Node1 -->
<g id="Node000001" class="node">
<title>Node1</title>
<g id="a_Node000001"><a xlink:title=" ">
<polygon fill="#999999" stroke="#666666" points="1314.58,-327 1171.58,-327 1171.58,-297 1314.58,-297 1314.58,-327"/>
<text text-anchor="start" x="1179.58" y="-315" font-family="Helvetica,sans-Serif" font-size="10.00">src/app/seamly2d/dialogs</text>
<text text-anchor="middle" x="1243.08" y="-304" font-family="Helvetica,sans-Serif" font-size="10.00">/export_layout_dialog.cpp</text>
</a>
</g>
</g>
<!-- Node2 -->
<g id="Node000002" class="node">
<title>Node2</title>
<g id="a_Node000002"><a xlink:href="../../d1/d8e/export__layout__dialog_8h.html" target="_top" xlink:title=" ">
<polygon fill="white" stroke="#666666" points="233.08,-134.5 105.08,-134.5 105.08,-115.5 233.08,-115.5 233.08,-134.5"/>
<text text-anchor="middle" x="169.08" y="-122.5" font-family="Helvetica,sans-Serif" font-size="10.00">export_layout_dialog.h</text>
</a>
</g>
</g>
<!-- Node1&#45;&gt;Node2 -->
<g id="edge1_Node000001_Node000002" class="edge">
<title>Node1&#45;&gt;Node2</title>
<g id="a_edge1_Node000001_Node000002"><a xlink:title=" ">
<path fill="none" stroke="#63b8ff" d="M1171.5,-310.22C1001.08,-307.77 575.3,-298.03 438.08,-261 338.94,-234.25 233.49,-169.01 189.84,-140.14"/>
<polygon fill="#63b8ff" stroke="#63b8ff" points="191.75,-137.21 181.49,-134.56 187.86,-143.03 191.75,-137.21"/>
</a>
</g>
</g>
<!-- Node6 -->
<g id="Node000006" class="node">
<title>Node6</title>
<g id="a_Node000006"><a xlink:title=" ">
<polygon fill="#e0e0e0" stroke="#999999" points="627.08,-19 545.08,-19 545.08,0 627.08,0 627.08,-19"/>
<text text-anchor="middle" x="586.08" y="-7" font-family="Helvetica,sans-Serif" font-size="10.00">../vmisc/def.h</text>
</a>
</g>
</g>
<!-- Node1&#45;&gt;Node6 -->
<g id="edge37_Node000001_Node000006" class="edge">
<title>Node1&#45;&gt;Node6</title>
<g id="a_edge37_Node000001_Node000006"><a xlink:title=" ">
<path fill="none" stroke="#63b8ff" d="M1171.4,-310.01C1088.28,-307.16 958.73,-296.9 928.08,-261 919.42,-250.86 919.23,-240.97 928.08,-231 973.11,-180.3 1177.6,-236.69 1231.08,-195 1280.7,-156.32 1295.21,-100.81 1252.08,-55 1206.45,-6.54 720.36,-25.13 654.08,-19 648.68,-18.5 643.04,-17.91 637.42,-17.27"/>
<polygon fill="#63b8ff" stroke="#63b8ff" points="637.73,-13.79 627.39,-16.09 636.91,-20.74 637.73,-13.79"/>
</a>
</g>
</g>
<!-- Node9 -->
<g id="Node000009" class="node">
<title>Node9</title>
<g id="a_Node000009"><a xlink:title=" ">
<polygon fill="#e0e0e0" stroke="#999999" points="693.58,-255.5 550.58,-255.5 550.58,-236.5 693.58,-236.5 693.58,-255.5"/>
<text text-anchor="middle" x="622.08" y="-243.5" font-family="Helvetica,sans-Serif" font-size="10.00">ui_export_layout_dialog.h</text>
</a>
</g>
</g>
<!-- Node1&#45;&gt;Node9 -->
<g id="edge10_Node000001_Node000009" class="edge">
<title>Node1&#45;&gt;Node9</title>
<g id="a_edge10_Node000001_Node000009"><a xlink:title=" ">
<path fill="none" stroke="#63b8ff" d="M1171.52,-305.87C1068.74,-298.15 873.48,-282.17 708.08,-261 699.25,-259.87 689.94,-258.52 680.82,-257.11"/>
<polygon fill="#63b8ff" stroke="#63b8ff" points="681.09,-253.61 670.66,-255.5 679.99,-260.52 681.09,-253.61"/>
</a>
</g>
</g>
<!-- Node10 -->
<g id="Node000010" class="node">
<title>Node10</title>
<g id="a_Node000010"><a xlink:href="../../d7/d5b/options_8h.html" target="_top" xlink:title=" ">
<polygon fill="white" stroke="#666666" points="418.58,-134.5 347.58,-134.5 347.58,-115.5 418.58,-115.5 418.58,-134.5"/>
<text text-anchor="middle" x="383.08" y="-122.5" font-family="Helvetica,sans-Serif" font-size="10.00">../options.h</text>
</a>
</g>
</g>
<!-- Node1&#45;&gt;Node10 -->
<g id="edge11_Node000001_Node000010" class="edge">
<title>Node1&#45;&gt;Node10</title>
<g id="a_edge11_Node000001_Node000010"><a xlink:title=" ">
<path fill="none" stroke="#63b8ff" d="M1171.48,-309.23C1017.52,-304.88 659.46,-291.71 542.08,-261 475.53,-243.59 446.37,-247.64 402.08,-195 390.22,-180.91 385.73,-160 384.04,-144.9"/>
<polygon fill="#63b8ff" stroke="#63b8ff" points="387.51,-144.38 383.23,-134.69 380.54,-144.94 387.51,-144.38"/>
</a>
</g>
</g>
<!-- Node12 -->
<g id="Node000012" class="node">
<title>Node12</title>
<g id="a_Node000012"><a xlink:href="../../d7/d61/application__2d_8h.html" target="_top" xlink:title=" ">
<polygon fill="white" stroke="#666666" points="880.08,-255.5 750.08,-255.5 750.08,-236.5 880.08,-236.5 880.08,-255.5"/>
<text text-anchor="middle" x="815.08" y="-243.5" font-family="Helvetica,sans-Serif" font-size="10.00">../core/application_2d.h</text>
</a>
</g>
</g>
<!-- Node1&#45;&gt;Node12 -->
<g id="edge16_Node000001_Node000012" class="edge">
<title>Node1&#45;&gt;Node12</title>
<g id="a_edge16_Node000001_Node000012"><a xlink:title=" ">
<path fill="none" stroke="#63b8ff" d="M1171.46,-301.44C1100.83,-291.86 989.88,-276.35 894.08,-261 886.9,-259.85 879.35,-258.58 871.9,-257.3"/>
<polygon fill="#63b8ff" stroke="#63b8ff" points="872.28,-253.81 861.82,-255.55 871.08,-260.71 872.28,-253.81"/>
</a>
</g>
</g>
<!-- Node14 -->
<g id="Node000014" class="node">
<title>Node14</title>
<g id="a_Node000014"><a xlink:title=" ">
<polygon fill="#e0e0e0" stroke="#999999" points="523.08,-195 411.08,-195 411.08,-176 523.08,-176 523.08,-195"/>
<text text-anchor="middle" x="467.08" y="-183" font-family="Helvetica,sans-Serif" font-size="10.00">../vmisc/vsettings.h</text>
</a>
</g>
</g>
<!-- Node1&#45;&gt;Node14 -->
<g id="edge38_Node000001_Node000014" class="edge">
<title>Node1&#45;&gt;Node14</title>
<g id="a_edge38_Node000001_Node000014"><a xlink:title=" ">
<path fill="none" stroke="#63b8ff" d="M1171.32,-308.8C1051.74,-304.31 817.32,-291.79 741.08,-261 721.13,-252.94 722.66,-239.92 703.08,-231 687.44,-223.88 594,-207.46 529.49,-196.68"/>
<polygon fill="#63b8ff" stroke="#63b8ff" points="529.85,-193.19 519.41,-195 528.7,-200.1 529.85,-193.19"/>
</a>
</g>
</g>
<!-- Node28 -->
<g id="Node000028" class="node">
<title>Node28</title>
<g id="a_Node000028"><a xlink:title=" ">
<polygon fill="#e0e0e0" stroke="#999999" points="1091.58,-255.5 936.58,-255.5 936.58,-236.5 1091.58,-236.5 1091.58,-255.5"/>
<text text-anchor="middle" x="1014.08" y="-243.5" font-family="Helvetica,sans-Serif" font-size="10.00">../ifc/exception/vexception.h</text>
</a>
</g>
</g>
<!-- Node1&#45;&gt;Node28 -->
<g id="edge39_Node000001_Node000028" class="edge">
<title>Node1&#45;&gt;Node28</title>
<g id="a_edge39_Node000001_Node000028"><a xlink:title=" ">
<path fill="none" stroke="#63b8ff" d="M1192.83,-296.95C1151.25,-285.34 1092.97,-269.05 1054.4,-258.27"/>
<polygon fill="#63b8ff" stroke="#63b8ff" points="1055.13,-254.84 1044.56,-255.52 1053.25,-261.58 1055.13,-254.84"/>
</a>
</g>
</g>
<!-- Node29 -->
<g id="Node000029" class="node">
<title>Node29</title>
<g id="a_Node000029"><a xlink:title=" ">
<polygon fill="#e0e0e0" stroke="#999999" points="1230.08,-261 1110.08,-261 1110.08,-231 1230.08,-231 1230.08,-261"/>
<text text-anchor="start" x="1118.08" y="-249" font-family="Helvetica,sans-Serif" font-size="10.00">../vwidgets/export</text>
<text text-anchor="middle" x="1170.08" y="-238" font-family="Helvetica,sans-Serif" font-size="10.00">_format_combobox.h</text>
</a>
</g>
</g>
<!-- Node1&#45;&gt;Node29 -->
<g id="edge40_Node000001_Node000029" class="edge">
<title>Node1&#45;&gt;Node29</title>
<g id="a_edge40_Node000001_Node000029"><a xlink:title=" ">
<path fill="none" stroke="#63b8ff" d="M1226.88,-296.8C1217.24,-288.34 1204.83,-277.46 1194.07,-268.03"/>
<polygon fill="#63b8ff" stroke="#63b8ff" points="1196.06,-265.12 1186.24,-261.16 1191.45,-270.39 1196.06,-265.12"/>
</a>
</g>
</g>
<!-- Node30 -->
<g id="Node000030" class="node">
<title>Node30</title>
<g id="a_Node000030"><a xlink:title=" ">
<polygon fill="#e0e0e0" stroke="#999999" points="1383.58,-261 1248.58,-261 1248.58,-231 1383.58,-231 1383.58,-261"/>
<text text-anchor="start" x="1256.58" y="-249" font-family="Helvetica,sans-Serif" font-size="10.00">../vwidgets/page_format</text>
<text text-anchor="middle" x="1316.08" y="-238" font-family="Helvetica,sans-Serif" font-size="10.00">_combobox.h</text>
</a>
</g>
</g>
<!-- Node1&#45;&gt;Node30 -->
<g id="edge41_Node000001_Node000030" class="edge">
<title>Node1&#45;&gt;Node30</title>
<g id="a_edge41_Node000001_Node000030"><a xlink:title=" ">
<path fill="none" stroke="#63b8ff" d="M1259.28,-296.8C1268.92,-288.34 1281.33,-277.46 1292.09,-268.03"/>
<polygon fill="#63b8ff" stroke="#63b8ff" points="1294.71,-270.39 1299.93,-261.16 1290.1,-265.12 1294.71,-270.39"/>
</a>
</g>
</g>
<!-- Node31 -->
<g id="Node000031" class="node">
<title>Node31</title>
<g id="a_Node000031"><a xlink:title=" ">
<polygon fill="#e0e0e0" stroke="#999999" points="1440.08,-255.5 1402.08,-255.5 1402.08,-236.5 1440.08,-236.5 1440.08,-255.5"/>
<text text-anchor="middle" x="1421.08" y="-243.5" font-family="Helvetica,sans-Serif" font-size="10.00">QDir</text>
</a>
</g>
</g>
<!-- Node1&#45;&gt;Node31 -->
<g id="edge42_Node000001_Node000031" class="edge">
<title>Node1&#45;&gt;Node31</title>
<g id="a_edge42_Node000001_Node000031"><a xlink:title=" ">
<path fill="none" stroke="#63b8ff" d="M1291,-296.93C1320.77,-287.73 1359.61,-274.87 1393.08,-261 1393.94,-260.65 1394.81,-260.28 1395.68,-259.89"/>
<polygon fill="#63b8ff" stroke="#63b8ff" points="1397.4,-262.95 1404.98,-255.54 1394.44,-256.61 1397.4,-262.95"/>
</a>
</g>
</g>
<!-- Node32 -->
<g id="Node000032" class="node">
<title>Node32</title>
<g id="a_Node000032"><a xlink:title=" ">
<polygon fill="#e0e0e0" stroke="#999999" points="1531.58,-255.5 1458.58,-255.5 1458.58,-236.5 1531.58,-236.5 1531.58,-255.5"/>
<text text-anchor="middle" x="1495.08" y="-243.5" font-family="Helvetica,sans-Serif" font-size="10.00">QFileDialog</text>
</a>
</g>
</g>
<!-- Node1&#45;&gt;Node32 -->
<g id="edge43_Node000001_Node000032" class="edge">
<title>Node1&#45;&gt;Node32</title>
<g id="a_edge43_Node000001_Node000032"><a xlink:title=" ">
<path fill="none" stroke="#63b8ff" d="M1305.07,-296.93C1346.08,-287.38 1400.98,-274.15 1449.08,-261 1452.05,-260.19 1455.11,-259.32 1458.18,-258.43"/>
<polygon fill="#63b8ff" stroke="#63b8ff" points="1459.32,-261.75 1467.91,-255.55 1457.33,-255.03 1459.32,-261.75"/>
</a>
</g>
</g>
<!-- Node33 -->
<g id="Node000033" class="node">
<title>Node33</title>
<g id="a_Node000033"><a xlink:title=" ">
<polygon fill="#e0e0e0" stroke="#999999" points="1636.08,-255.5 1550.08,-255.5 1550.08,-236.5 1636.08,-236.5 1636.08,-255.5"/>
<text text-anchor="middle" x="1593.08" y="-243.5" font-family="Helvetica,sans-Serif" font-size="10.00">QMessageBox</text>
</a>
</g>
</g>
<!-- Node1&#45;&gt;Node33 -->
<g id="edge44_Node000001_Node000033" class="edge">
<title>Node1&#45;&gt;Node33</title>
<g id="a_edge44_Node000001_Node000033"><a xlink:title=" ">
<path fill="none" stroke="#63b8ff" d="M1314.8,-300.96C1375.4,-292 1464.33,-277.73 1541.08,-261 1545.03,-260.14 1549.12,-259.17 1553.21,-258.16"/>
<polygon fill="#63b8ff" stroke="#63b8ff" points="1554.42,-261.46 1563.23,-255.57 1552.67,-254.68 1554.42,-261.46"/>
</a>
</g>
</g>
<!-- Node34 -->
<g id="Node000034" class="node">
<title>Node34</title>
<g id="a_Node000034"><a xlink:title=" ">
<polygon fill="#e0e0e0" stroke="#999999" points="1716.08,-255.5 1654.08,-255.5 1654.08,-236.5 1716.08,-236.5 1716.08,-255.5"/>
<text text-anchor="middle" x="1685.08" y="-243.5" font-family="Helvetica,sans-Serif" font-size="10.00">QProcess</text>
</a>
</g>
</g>
<!-- Node1&#45;&gt;Node34 -->
<g id="edge45_Node000001_Node000034" class="edge">
<title>Node1&#45;&gt;Node34</title>
<g id="a_edge45_Node000001_Node000034"><a xlink:title=" ">
<path fill="none" stroke="#63b8ff" d="M1314.69,-306.71C1395.72,-300.79 1531.24,-287.68 1645.08,-261 1647.9,-260.34 1650.8,-259.55 1653.69,-258.69"/>
<polygon fill="#63b8ff" stroke="#63b8ff" points="1654.9,-261.98 1663.32,-255.56 1652.73,-255.32 1654.9,-261.98"/>
</a>
</g>
</g>
<!-- Node35 -->
<g id="Node000035" class="node">
<title>Node35</title>
<g id="a_Node000035"><a xlink:title=" ">
<polygon fill="#e0e0e0" stroke="#999999" points="1793.58,-255.5 1734.58,-255.5 1734.58,-236.5 1793.58,-236.5 1793.58,-255.5"/>
<text text-anchor="middle" x="1764.08" y="-243.5" font-family="Helvetica,sans-Serif" font-size="10.00">QtDebug</text>
</a>
</g>
</g>
<!-- Node1&#45;&gt;Node35 -->
<g id="edge46_Node000001_Node000035" class="edge">
<title>Node1&#45;&gt;Node35</title>
<g id="a_edge46_Node000001_Node000035"><a xlink:title=" ">
<path fill="none" stroke="#63b8ff" d="M1314.6,-308.96C1409.5,-305.03 1581.74,-293.66 1725.08,-261 1727.91,-260.36 1730.81,-259.57 1733.7,-258.7"/>
<polygon fill="#63b8ff" stroke="#63b8ff" points="1734.92,-261.98 1743.31,-255.5 1732.71,-255.34 1734.92,-261.98"/>
</a>
</g>
</g>
<!-- Node36 -->
<g id="Node000036" class="node">
<title>Node36</title>
<g id="a_Node000036"><a xlink:title=" ">
<polygon fill="#e0e0e0" stroke="#999999" points="1926.58,-255.5 1811.58,-255.5 1811.58,-236.5 1926.58,-236.5 1926.58,-255.5"/>
<text text-anchor="middle" x="1869.08" y="-243.5" font-family="Helvetica,sans-Serif" font-size="10.00">QRegularExpression</text>
</a>
</g>
</g>
<!-- Node1&#45;&gt;Node36 -->
<g id="edge47_Node000001_Node000036" class="edge">
<title>Node1&#45;&gt;Node36</title>
<g id="a_edge47_Node000001_Node000036"><a xlink:title=" ">
<path fill="none" stroke="#63b8ff" d="M1315.01,-307.34C1421.92,-301.29 1628.85,-287.16 1803.08,-261 1809.39,-260.05 1816,-258.87 1822.5,-257.61"/>
<polygon fill="#63b8ff" stroke="#63b8ff" points="1823.47,-260.98 1832.57,-255.56 1822.07,-254.12 1823.47,-260.98"/>
</a>
</g>
</g>
<!-- Node37 -->
<g id="Node000037" class="node">
<title>Node37</title>
<g id="a_Node000037"><a xlink:title=" ">
<polygon fill="#e0e0e0" stroke="#999999" points="2009.08,-255.5 1945.08,-255.5 1945.08,-236.5 2009.08,-236.5 2009.08,-255.5"/>
<text text-anchor="middle" x="1977.08" y="-243.5" font-family="Helvetica,sans-Serif" font-size="10.00">QSpinBox</text>
</a>
</g>
</g>
<!-- Node1&#45;&gt;Node37 -->
<g id="edge48_Node000001_Node000037" class="edge">
<title>Node1&#45;&gt;Node37</title>
<g id="a_edge48_Node000001_Node000037"><a xlink:title=" ">
<path fill="none" stroke="#63b8ff" d="M1314.73,-311.85C1441.41,-312.02 1712.67,-306.41 1936.08,-261 1939.15,-260.38 1942.31,-259.58 1945.44,-258.7"/>
<polygon fill="#63b8ff" stroke="#63b8ff" points="1946.75,-261.95 1955.24,-255.62 1944.65,-255.28 1946.75,-261.95"/>
</a>
</g>
</g>
<!-- Node3 -->
<g id="Node000003" class="node">
<title>Node3</title>
<g id="a_Node000003"><a xlink:title=" ">
<polygon fill="#e0e0e0" stroke="#999999" points="281.08,-19 225.08,-19 225.08,0 281.08,0 281.08,-19"/>
<text text-anchor="middle" x="253.08" y="-7" font-family="Helvetica,sans-Serif" font-size="10.00">QDialog</text>
</a>
</g>
</g>
<!-- Node2&#45;&gt;Node3 -->
<g id="edge2_Node000002_Node000003" class="edge">
<title>Node2&#45;&gt;Node3</title>
<g id="a_edge2_Node000002_Node000003"><a xlink:title=" ">
<path fill="none" stroke="#63b8ff" d="M104.99,-117.93C47.59,-109.97 -23.1,-92.35 8.08,-55 33.94,-24.02 152.39,-14.56 214.63,-11.71"/>
<polygon fill="#63b8ff" stroke="#63b8ff" points="214.99,-15.19 224.83,-11.28 214.69,-8.2 214.99,-15.19"/>
</a>
</g>
</g>
<!-- Node4 -->
<g id="Node000004" class="node">
<title>Node4</title>
<g id="a_Node000004"><a xlink:title=" ">
<polygon fill="#e0e0e0" stroke="#999999" points="86.58,-74 17.58,-74 17.58,-55 86.58,-55 86.58,-74"/>
<text text-anchor="middle" x="52.08" y="-62" font-family="Helvetica,sans-Serif" font-size="10.00">QMarginsF</text>
</a>
</g>
</g>
<!-- Node2&#45;&gt;Node4 -->
<g id="edge3_Node000002_Node000004" class="edge">
<title>Node2&#45;&gt;Node4</title>
<g id="a_edge3_Node000002_Node000004"><a xlink:title=" ">
<path fill="none" stroke="#63b8ff" d="M152.07,-115.49C132.66,-105.79 100.7,-89.81 78.14,-78.53"/>
<polygon fill="#63b8ff" stroke="#63b8ff" points="79.62,-75.36 69.11,-74.02 76.49,-81.62 79.62,-75.36"/>
</a>
</g>
</g>
<!-- Node5 -->
<g id="Node000005" class="node">
<title>Node5</title>
<g id="a_Node000005"><a xlink:title=" ">
<polygon fill="#e0e0e0" stroke="#999999" points="301.58,-74 142.58,-74 142.58,-55 301.58,-55 301.58,-74"/>
<text text-anchor="middle" x="222.08" y="-62" font-family="Helvetica,sans-Serif" font-size="10.00">../vgeometry/vgeometrydef.h</text>
</a>
</g>
</g>
<!-- Node2&#45;&gt;Node5 -->
<g id="edge4_Node000002_Node000005" class="edge">
<title>Node2&#45;&gt;Node5</title>
<g id="a_edge4_Node000002_Node000005"><a xlink:title=" ">
<path fill="none" stroke="#63b8ff" d="M176.9,-115.37C184.89,-106.55 197.48,-92.66 207.34,-81.77"/>
<polygon fill="#63b8ff" stroke="#63b8ff" points="210.11,-83.93 214.23,-74.17 204.92,-79.23 210.11,-83.93"/>
</a>
</g>
</g>
<!-- Node2&#45;&gt;Node6 -->
<g id="edge5_Node000002_Node000006" class="edge">
<title>Node2&#45;&gt;Node6</title>
<g id="a_edge5_Node000002_Node000006"><a xlink:title=" ">
<path fill="none" stroke="#63b8ff" d="M158.44,-115.3C142.57,-101.31 116.29,-73.52 133.08,-55 159.65,-25.69 421.83,-15.01 534.77,-11.74"/>
<polygon fill="#63b8ff" stroke="#63b8ff" points="535,-15.24 544.89,-11.46 534.8,-8.24 535,-15.24"/>
</a>
</g>
</g>
<!-- Node7 -->
<g id="Node000007" class="node">
<title>Node7</title>
<g id="a_Node000007"><a xlink:href="../../d7/d9e/abstractlayout__dialog_8h.html" target="_top" xlink:title=" ">
<polygon fill="white" stroke="#666666" points="634.58,-74 503.58,-74 503.58,-55 634.58,-55 634.58,-74"/>
<text text-anchor="middle" x="569.08" y="-62" font-family="Helvetica,sans-Serif" font-size="10.00">abstractlayout_dialog.h</text>
</a>
</g>
</g>
<!-- Node2&#45;&gt;Node7 -->
<g id="edge6_Node000002_Node000007" class="edge">
<title>Node2&#45;&gt;Node7</title>
<g id="a_edge6_Node000002_Node000007"><a xlink:title=" ">
<path fill="none" stroke="#63b8ff" d="M227.24,-115.49C299.82,-104.88 423.74,-86.76 500.77,-75.49"/>
<polygon fill="#63b8ff" stroke="#63b8ff" points="501.46,-78.93 510.85,-74.02 500.45,-72 501.46,-78.93"/>
</a>
</g>
</g>
<!-- Node7&#45;&gt;Node3 -->
<g id="edge9_Node000007_Node000003" class="edge">
<title>Node7&#45;&gt;Node3</title>
<g id="a_edge9_Node000007_Node000003"><a xlink:title=" ">
<path fill="none" stroke="#63b8ff" d="M518.31,-54.98C454.91,-44.35 347.91,-26.4 291.12,-16.88"/>
<polygon fill="#63b8ff" stroke="#63b8ff" points="291.57,-13.41 281.13,-15.2 290.41,-20.31 291.57,-13.41"/>
</a>
</g>
</g>
<!-- Node7&#45;&gt;Node6 -->
<g id="edge8_Node000007_Node000006" class="edge">
<title>Node7&#45;&gt;Node6</title>
<g id="a_edge8_Node000007_Node000006"><a xlink:title=" ">
<path fill="none" stroke="#63b8ff" d="M571.89,-54.75C574.14,-47.72 577.38,-37.62 580.2,-28.84"/>
<polygon fill="#63b8ff" stroke="#63b8ff" points="583.6,-29.68 583.33,-19.09 576.94,-27.54 583.6,-29.68"/>
</a>
</g>
</g>
<!-- Node8 -->
<g id="Node000008" class="node">
<title>Node8</title>
<g id="a_Node000008"><a xlink:title=" ">
<polygon fill="#e0e0e0" stroke="#999999" points="739.58,-19 662.58,-19 662.58,0 739.58,0 739.58,-19"/>
<text text-anchor="middle" x="701.08" y="-7" font-family="Helvetica,sans-Serif" font-size="10.00">../ifc/ifcdef.h</text>
</a>
</g>
</g>
<!-- Node7&#45;&gt;Node8 -->
<g id="edge7_Node000007_Node000008" class="edge">
<title>Node7&#45;&gt;Node8</title>
<g id="a_edge7_Node000007_Node000008"><a xlink:title=" ">
<path fill="none" stroke="#63b8ff" d="M590.29,-54.98C611.81,-46.34 645.36,-32.87 669.91,-23.02"/>
<polygon fill="#63b8ff" stroke="#63b8ff" points="671.51,-26.14 679.49,-19.17 668.9,-19.65 671.51,-26.14"/>
</a>
</g>
</g>
<!-- Node10&#45;&gt;Node5 -->
<g id="edge13_Node000010_Node000005" class="edge">
<title>Node10&#45;&gt;Node5</title>
<g id="a_edge13_Node000010_Node000005"><a xlink:title=" ">
<path fill="none" stroke="#63b8ff" d="M359.67,-115.49C332.13,-105.49 286.21,-88.8 255.07,-77.49"/>
<polygon fill="#63b8ff" stroke="#63b8ff" points="256.11,-74.14 245.52,-74.02 253.72,-80.72 256.11,-74.14"/>
</a>
</g>
</g>
<!-- Node10&#45;&gt;Node6 -->
<g id="edge15_Node000010_Node000006" class="edge">
<title>Node10&#45;&gt;Node6</title>
<g id="a_edge15_Node000010_Node000006"><a xlink:title=" ">
<path fill="none" stroke="#63b8ff" d="M396.28,-115.29C416.97,-101.76 458.47,-75.16 495.08,-55 515.75,-43.62 539.74,-31.94 557.91,-23.41"/>
<polygon fill="#63b8ff" stroke="#63b8ff" points="559.75,-26.41 567.34,-19.01 556.79,-20.07 559.75,-26.41"/>
</a>
</g>
</g>
<!-- Node10&#45;&gt;Node8 -->
<g id="edge12_Node000010_Node000008" class="edge">
<title>Node10&#45;&gt;Node8</title>
<g id="a_edge12_Node000010_Node000008"><a xlink:title=" ">
<path fill="none" stroke="#63b8ff" d="M418.81,-117.78C487.98,-105.65 634.29,-79.53 644.08,-74 663.76,-62.88 680.23,-42.46 690.32,-27.77"/>
<polygon fill="#63b8ff" stroke="#63b8ff" points="693.45,-29.39 696.01,-19.11 687.6,-25.55 693.45,-29.39"/>
</a>
</g>
</g>
<!-- Node11 -->
<g id="Node000011" class="node">
<title>Node11</title>
<g id="a_Node000011"><a xlink:title=" ">
<polygon fill="#e0e0e0" stroke="#999999" points="446.58,-74 319.58,-74 319.58,-55 446.58,-55 446.58,-74"/>
<text text-anchor="middle" x="383.08" y="-62" font-family="Helvetica,sans-Serif" font-size="10.00">../qmuparser/qmudef.h</text>
</a>
</g>
</g>
<!-- Node10&#45;&gt;Node11 -->
<g id="edge14_Node000010_Node000011" class="edge">
<title>Node10&#45;&gt;Node11</title>
<g id="a_edge14_Node000010_Node000011"><a xlink:title=" ">
<path fill="none" stroke="#63b8ff" d="M383.08,-115.37C383.08,-107.25 383.08,-94.81 383.08,-84.39"/>
<polygon fill="#63b8ff" stroke="#63b8ff" points="386.58,-84.17 383.08,-74.17 379.58,-84.17 386.58,-84.17"/>
</a>
</g>
</g>
<!-- Node12&#45;&gt;Node10 -->
<g id="edge19_Node000012_Node000010" class="edge">
<title>Node12&#45;&gt;Node10</title>
<g id="a_edge19_Node000012_Node000010"><a xlink:title=" ">
<path fill="none" stroke="#63b8ff" d="M770.18,-236.5C704.71,-224 588.75,-201.45 570.08,-195 552.23,-188.84 549.52,-183.24 532.08,-176 495.63,-160.86 452.8,-146.87 422.44,-137.56"/>
<polygon fill="#63b8ff" stroke="#63b8ff" points="423.23,-134.14 412.65,-134.58 421.2,-140.84 423.23,-134.14"/>
</a>
</g>
</g>
<!-- Node13 -->
<g id="Node000013" class="node">
<title>Node13</title>
<g id="a_Node000013"><a xlink:title=" ">
<polygon fill="#e0e0e0" stroke="#999999" points="1221.58,-195 1054.58,-195 1054.58,-176 1221.58,-176 1221.58,-195"/>
<text text-anchor="middle" x="1138.08" y="-183" font-family="Helvetica,sans-Serif" font-size="10.00">../vmisc/vabstractapplication.h</text>
</a>
</g>
</g>
<!-- Node12&#45;&gt;Node13 -->
<g id="edge17_Node000012_Node000013" class="edge">
<title>Node12&#45;&gt;Node13</title>
<g id="a_edge17_Node000012_Node000013"><a xlink:title=" ">
<path fill="none" stroke="#63b8ff" d="M862.05,-236.49C920.06,-225.99 1018.68,-208.12 1081,-196.84"/>
<polygon fill="#63b8ff" stroke="#63b8ff" points="1081.84,-200.24 1091.06,-195.02 1080.59,-193.35 1081.84,-200.24"/>
</a>
</g>
</g>
<!-- Node12&#45;&gt;Node14 -->
<g id="edge18_Node000012_Node000014" class="edge">
<title>Node12&#45;&gt;Node14</title>
<g id="a_edge18_Node000012_Node000014"><a xlink:title=" ">
<path fill="none" stroke="#63b8ff" d="M767.47,-236.47C757.13,-234.64 746.24,-232.74 736.08,-231 665.51,-218.91 584.43,-205.57 529.89,-196.68"/>
<polygon fill="#63b8ff" stroke="#63b8ff" points="530.12,-193.17 519.69,-195.02 528.99,-200.08 530.12,-193.17"/>
</a>
</g>
</g>
<!-- Node15 -->
<g id="Node000015" class="node">
<title>Node15</title>
<g id="a_Node000015"><a xlink:title=" ">
<polygon fill="#e0e0e0" stroke="#999999" points="755.08,-195 579.08,-195 579.08,-176 755.08,-176 755.08,-195"/>
<text text-anchor="middle" x="667.08" y="-183" font-family="Helvetica,sans-Serif" font-size="10.00">../vwidgets/vmaingraphicsview.h</text>
</a>
</g>
</g>
<!-- Node12&#45;&gt;Node15 -->
<g id="edge20_Node000012_Node000015" class="edge">
<title>Node12&#45;&gt;Node15</title>
<g id="a_edge20_Node000012_Node000015"><a xlink:title=" ">
<path fill="none" stroke="#63b8ff" d="M793.56,-236.49C768.46,-226.57 726.76,-210.09 698.15,-198.78"/>
<polygon fill="#63b8ff" stroke="#63b8ff" points="699.21,-195.44 688.63,-195.02 696.64,-201.95 699.21,-195.44"/>
</a>
</g>
</g>
<!-- Node16 -->
<g id="Node000016" class="node">
<title>Node16</title>
<g id="a_Node000016"><a xlink:title=" ">
<polygon fill="#e0e0e0" stroke="#999999" points="1036.58,-195 875.58,-195 875.58,-176 1036.58,-176 1036.58,-195"/>
<text text-anchor="middle" x="956.08" y="-183" font-family="Helvetica,sans-Serif" font-size="10.00">../vpatterndb/vtranslatevars.h</text>
</a>
</g>
</g>
<!-- Node12&#45;&gt;Node16 -->
<g id="edge21_Node000012_Node000016" class="edge">
<title>Node12&#45;&gt;Node16</title>
<g id="a_edge21_Node000012_Node000016"><a xlink:title=" ">
<path fill="none" stroke="#63b8ff" d="M835.58,-236.49C859.39,-226.62 898.88,-210.23 926.12,-198.93"/>
<polygon fill="#63b8ff" stroke="#63b8ff" points="927.66,-202.08 935.55,-195.02 924.98,-195.62 927.66,-202.08"/>
</a>
</g>
</g>
<!-- Node17 -->
<g id="Node000017" class="node">
<title>Node17</title>
<g id="a_Node000017"><a xlink:href="../../dd/d57/vcmdexport_8h.html" target="_top" xlink:title=" ">
<polygon fill="white" stroke="#666666" points="857.08,-195 773.08,-195 773.08,-176 857.08,-176 857.08,-195"/>
<text text-anchor="middle" x="815.08" y="-183" font-family="Helvetica,sans-Serif" font-size="10.00">vcmdexport.h</text>
</a>
</g>
</g>
<!-- Node12&#45;&gt;Node17 -->
<g id="edge22_Node000012_Node000017" class="edge">
<title>Node12&#45;&gt;Node17</title>
<g id="a_edge22_Node000012_Node000017"><a xlink:title=" ">
<path fill="none" stroke="#63b8ff" d="M815.08,-236.37C815.08,-228.25 815.08,-215.81 815.08,-205.39"/>
<polygon fill="#63b8ff" stroke="#63b8ff" points="818.58,-205.17 815.08,-195.17 811.58,-205.17 818.58,-205.17"/>
</a>
</g>
</g>
<!-- Node17&#45;&gt;Node6 -->
<g id="edge35_Node000017_Node000006" class="edge">
<title>Node17&#45;&gt;Node6</title>
<g id="a_edge35_Node000017_Node000006"><a xlink:title=" ">
<path fill="none" stroke="#63b8ff" d="M773.08,-177.35C770.04,-176.88 767.01,-176.42 764.08,-176 698.06,-166.51 510.33,-189.91 466.08,-140 457.24,-130.02 457.64,-120.32 466.08,-110 517.19,-47.53 592.98,-136.47 644.08,-74 658.72,-56.1 634.42,-36.62 612.94,-24.02"/>
<polygon fill="#63b8ff" stroke="#63b8ff" points="614.46,-20.86 604.02,-19.07 611.06,-26.98 614.46,-20.86"/>
</a>
</g>
</g>
<!-- Node18 -->
<g id="Node000018" class="node">
<title>Node18</title>
<g id="a_Node000018"><a xlink:title=" ">
<polygon fill="#e0e0e0" stroke="#999999" points="533.08,-134.5 475.08,-134.5 475.08,-115.5 533.08,-115.5 533.08,-134.5"/>
<text text-anchor="middle" x="504.08" y="-122.5" font-family="Helvetica,sans-Serif" font-size="10.00">memory</text>
</a>
</g>
</g>
<!-- Node17&#45;&gt;Node18 -->
<g id="edge23_Node000017_Node000018" class="edge">
<title>Node17&#45;&gt;Node18</title>
<g id="a_edge23_Node000017_Node000018"><a xlink:title=" ">
<path fill="none" stroke="#63b8ff" d="M773.06,-177.48C770.02,-176.98 767,-176.48 764.08,-176 665.89,-159.82 639.43,-164.92 543.08,-140 540.58,-139.35 538.02,-138.61 535.46,-137.82"/>
<polygon fill="#63b8ff" stroke="#63b8ff" points="536.32,-134.42 525.73,-134.56 534.1,-141.06 536.32,-134.42"/>
</a>
</g>
</g>
<!-- Node19 -->
<g id="Node000019" class="node">
<title>Node19</title>
<g id="a_Node000019"><a xlink:title=" ">
<polygon fill="#e0e0e0" stroke="#999999" points="598.58,-134.5 551.58,-134.5 551.58,-115.5 598.58,-115.5 598.58,-134.5"/>
<text text-anchor="middle" x="575.08" y="-122.5" font-family="Helvetica,sans-Serif" font-size="10.00">vector</text>
</a>
</g>
</g>
<!-- Node17&#45;&gt;Node19 -->
<g id="edge24_Node000017_Node000019" class="edge">
<title>Node17&#45;&gt;Node19</title>
<g id="a_edge24_Node000017_Node000019"><a xlink:title=" ">
<path fill="none" stroke="#63b8ff" d="M773.03,-176.44C721.79,-166.45 638.31,-149.57 608.08,-140 606.45,-139.48 604.79,-138.92 603.12,-138.32"/>
<polygon fill="#63b8ff" stroke="#63b8ff" points="604.28,-135.01 593.7,-134.62 601.73,-141.53 604.28,-135.01"/>
</a>
</g>
</g>
<!-- Node20 -->
<g id="Node000020" class="node">
<title>Node20</title>
<g id="a_Node000020"><a xlink:title=" ">
<polygon fill="#e0e0e0" stroke="#999999" points="697.08,-134.5 617.08,-134.5 617.08,-115.5 697.08,-115.5 697.08,-134.5"/>
<text text-anchor="middle" x="657.08" y="-122.5" font-family="Helvetica,sans-Serif" font-size="10.00">QTextStream</text>
</a>
</g>
</g>
<!-- Node17&#45;&gt;Node20 -->
<g id="edge25_Node000017_Node000020" class="edge">
<title>Node17&#45;&gt;Node20</title>
<g id="a_edge25_Node000017_Node000020"><a xlink:title=" ">
<path fill="none" stroke="#63b8ff" d="M792.11,-175.99C765.19,-166.03 720.41,-149.45 689.85,-138.13"/>
<polygon fill="#63b8ff" stroke="#63b8ff" points="690.68,-134.71 680.08,-134.52 688.25,-141.27 690.68,-134.71"/>
</a>
</g>
</g>
<!-- Node21 -->
<g id="Node000021" class="node">
<title>Node21</title>
<g id="a_Node000021"><a xlink:title=" ">
<polygon fill="#e0e0e0" stroke="#999999" points="816.58,-134.5 715.58,-134.5 715.58,-115.5 816.58,-115.5 816.58,-134.5"/>
<text text-anchor="middle" x="766.08" y="-122.5" font-family="Helvetica,sans-Serif" font-size="10.00">QCoreApplication</text>
</a>
</g>
</g>
<!-- Node17&#45;&gt;Node21 -->
<g id="edge26_Node000017_Node000021" class="edge">
<title>Node17&#45;&gt;Node21</title>
<g id="a_edge26_Node000017_Node000021"><a xlink:title=" ">
<path fill="none" stroke="#63b8ff" d="M807.85,-175.87C800.54,-167.14 789.06,-153.43 779.98,-142.59"/>
<polygon fill="#63b8ff" stroke="#63b8ff" points="782.45,-140.09 773.34,-134.67 777.08,-144.58 782.45,-140.09"/>
</a>
</g>
</g>
<!-- Node22 -->
<g id="Node000022" class="node">
<title>Node22</title>
<g id="a_Node000022"><a xlink:title=" ">
<polygon fill="#e0e0e0" stroke="#999999" points="959.58,-134.5 834.58,-134.5 834.58,-115.5 959.58,-115.5 959.58,-134.5"/>
<text text-anchor="middle" x="897.08" y="-122.5" font-family="Helvetica,sans-Serif" font-size="10.00">QCommandLineParser</text>
</a>
</g>
</g>
<!-- Node17&#45;&gt;Node22 -->
<g id="edge27_Node000017_Node000022" class="edge">
<title>Node17&#45;&gt;Node22</title>
<g id="a_edge27_Node000017_Node000022"><a xlink:title=" ">
<path fill="none" stroke="#63b8ff" d="M827.18,-175.87C840.14,-166.62 860.94,-151.78 876.49,-140.69"/>
<polygon fill="#63b8ff" stroke="#63b8ff" points="878.82,-143.32 884.93,-134.67 874.76,-137.63 878.82,-143.32"/>
</a>
</g>
</g>
<!-- Node23 -->
<g id="Node000023" class="node">
<title>Node23</title>
<g id="a_Node000023"><a xlink:href="../../d3/dd8/layoutsettings__dialog_8h.html" target="_top" xlink:title=" ">
<polygon fill="white" stroke="#666666" points="1243.08,-140 1109.08,-140 1109.08,-110 1243.08,-110 1243.08,-140"/>
<text text-anchor="start" x="1117.08" y="-128" font-family="Helvetica,sans-Serif" font-size="10.00">../dialogs/layoutsettings</text>
<text text-anchor="middle" x="1176.08" y="-117" font-family="Helvetica,sans-Serif" font-size="10.00">_dialog.h</text>
</a>
</g>
</g>
<!-- Node17&#45;&gt;Node23 -->
<g id="edge28_Node000017_Node000023" class="edge">
<title>Node17&#45;&gt;Node23</title>
<g id="a_edge28_Node000017_Node000023"><a xlink:title=" ">
<path fill="none" stroke="#63b8ff" d="M857.36,-177.56C860.65,-177.03 863.92,-176.5 867.08,-176 967.43,-160.05 995.11,-157.63 1099.01,-140.15"/>
<polygon fill="#63b8ff" stroke="#63b8ff" points="1099.69,-143.59 1108.96,-138.47 1098.52,-136.69 1099.69,-143.59"/>
</a>
</g>
</g>
<!-- Node27 -->
<g id="Node000027" class="node">
<title>Node27</title>
<g id="a_Node000027"><a xlink:title=" ">
<polygon fill="#e0e0e0" stroke="#999999" points="1090.58,-134.5 977.58,-134.5 977.58,-115.5 1090.58,-115.5 1090.58,-134.5"/>
<text text-anchor="middle" x="1034.08" y="-122.5" font-family="Helvetica,sans-Serif" font-size="10.00">../vmisc/vsysexits.h</text>
</a>
</g>
</g>
<!-- Node17&#45;&gt;Node27 -->
<g id="edge36_Node000017_Node000027" class="edge">
<title>Node17&#45;&gt;Node27</title>
<g id="a_edge36_Node000017_Node000027"><a xlink:title=" ">
<path fill="none" stroke="#63b8ff" d="M846.93,-175.99C885.37,-165.73 950.11,-148.43 992.47,-137.12"/>
<polygon fill="#63b8ff" stroke="#63b8ff" points="993.44,-140.48 1002.2,-134.52 991.63,-133.72 993.44,-140.48"/>
</a>
</g>
</g>
<!-- Node23&#45;&gt;Node6 -->
<g id="edge31_Node000023_Node000006" class="edge">
<title>Node23&#45;&gt;Node6</title>
<g id="a_edge31_Node000023_Node000006"><a xlink:title=" ">
<path fill="none" stroke="#63b8ff" d="M1108.96,-111.54C1105.96,-111.01 1102.99,-110.5 1100.08,-110 998.52,-92.67 972.3,-93.21 871.08,-74 785.75,-57.8 686.98,-34.84 630.98,-21.43"/>
<polygon fill="#63b8ff" stroke="#63b8ff" points="631.58,-17.97 621.03,-19.04 629.94,-24.78 631.58,-17.97"/>
</a>
</g>
</g>
<!-- Node23&#45;&gt;Node7 -->
<g id="edge29_Node000023_Node000007" class="edge">
<title>Node23&#45;&gt;Node7</title>
<g id="a_edge29_Node000023_Node000007"><a xlink:title=" ">
<path fill="none" stroke="#63b8ff" d="M1109,-111.27C1105.99,-110.82 1103.01,-110.39 1100.08,-110 938.57,-88.41 747.94,-75.46 644.72,-69.49"/>
<polygon fill="#63b8ff" stroke="#63b8ff" points="644.89,-65.99 634.7,-68.91 644.49,-72.98 644.89,-65.99"/>
</a>
</g>
</g>
<!-- Node23&#45;&gt;Node8 -->
<g id="edge32_Node000023_Node000008" class="edge">
<title>Node23&#45;&gt;Node8</title>
<g id="a_edge32_Node000023_Node000008"><a xlink:title=" ">
<path fill="none" stroke="#63b8ff" d="M1110.49,-109.97C1065.54,-100.22 1004.61,-86.74 951.08,-74 877.72,-56.54 792.7,-34.57 743.1,-21.58"/>
<polygon fill="#63b8ff" stroke="#63b8ff" points="743.93,-18.18 733.37,-19.03 742.15,-24.95 743.93,-18.18"/>
</a>
</g>
</g>
<!-- Node24 -->
<g id="Node000024" class="node">
<title>Node24</title>
<g id="a_Node000024"><a xlink:title=" ">
<polygon fill="#e0e0e0" stroke="#999999" points="1145.08,-74 1041.08,-74 1041.08,-55 1145.08,-55 1145.08,-74"/>
<text text-anchor="middle" x="1093.08" y="-62" font-family="Helvetica,sans-Serif" font-size="10.00">../vlayout/vbank.h</text>
</a>
</g>
</g>
<!-- Node23&#45;&gt;Node24 -->
<g id="edge30_Node000023_Node000024" class="edge">
<title>Node23&#45;&gt;Node24</title>
<g id="a_edge30_Node000023_Node000024"><a xlink:title=" ">
<path fill="none" stroke="#63b8ff" d="M1155.99,-109.84C1143.2,-100.83 1126.68,-89.18 1113.78,-80.09"/>
<polygon fill="#63b8ff" stroke="#63b8ff" points="1115.71,-77.17 1105.52,-74.27 1111.68,-82.89 1115.71,-77.17"/>
</a>
</g>
</g>
<!-- Node25 -->
<g id="Node000025" class="node">
<title>Node25</title>
<g id="a_Node000025"><a xlink:title=" ">
<polygon fill="#e0e0e0" stroke="#999999" points="1242.58,-74 1163.58,-74 1163.58,-55 1242.58,-55 1242.58,-74"/>
<text text-anchor="middle" x="1203.08" y="-62" font-family="Helvetica,sans-Serif" font-size="10.00">QCloseEvent</text>
</a>
</g>
</g>
<!-- Node23&#45;&gt;Node25 -->
<g id="edge33_Node000023_Node000025" class="edge">
<title>Node23&#45;&gt;Node25</title>
<g id="a_edge33_Node000023_Node000025"><a xlink:title=" ">
<path fill="none" stroke="#63b8ff" d="M1182.62,-109.84C1186.26,-101.95 1190.83,-92.05 1194.72,-83.61"/>
<polygon fill="#63b8ff" stroke="#63b8ff" points="1198.02,-84.81 1199.04,-74.27 1191.67,-81.88 1198.02,-84.81"/>
</a>
</g>
</g>
<!-- Node26 -->
<g id="Node000026" class="node">
<title>Node26</title>
<g id="a_Node000026"><a xlink:title=" ">
<polygon fill="#e0e0e0" stroke="#999999" points="1022.58,-74 959.58,-74 959.58,-55 1022.58,-55 1022.58,-74"/>
<text text-anchor="middle" x="991.08" y="-62" font-family="Helvetica,sans-Serif" font-size="10.00">QMargins</text>
</a>
</g>
</g>
<!-- Node23&#45;&gt;Node26 -->
<g id="edge34_Node000023_Node000026" class="edge">
<title>Node23&#45;&gt;Node26</title>
<g id="a_edge34_Node000023_Node000026"><a xlink:title=" ">
<path fill="none" stroke="#63b8ff" d="M1131.77,-109.99C1099.98,-99.94 1057.66,-86.55 1027.76,-77.1"/>
<polygon fill="#63b8ff" stroke="#63b8ff" points="1028.72,-73.73 1018.13,-74.05 1026.61,-80.41 1028.72,-73.73"/>
</a>
</g>
</g>
</g>
</svg>
