<?xml version="1.0" encoding="UTF-8" standalone="no"?>
<!DOCTYPE svg PUBLIC "-//W3C//DTD SVG 1.1//EN"
 "http://www.w3.org/Graphics/SVG/1.1/DTD/svg11.dtd">
<!-- Generated by graphviz version 2.43.0 (0)
 -->
<!-- Title: PointIntersectXYVisual Pages: 1 -->
<!--zoomable 1647 -->

<svg id="main" version="1.1" xmlns="http://www.w3.org/2000/svg" xmlns:xlink="http://www.w3.org/1999/xlink" xml:space="preserve" onload="init(evt)">
<style type="text/css"><![CDATA[
.node, .edge {opacity: 0.7;}
.node.selected, .edge.selected {opacity: 1;}
.edge:hover path { stroke: red; }
.edge:hover polygon { stroke: red; fill: red; }
]]></style>

<defs>
  <circle id="rim" cx="0" cy="0" r="7"/>
  <circle id="rim2" cx="0" cy="0" r="3.5"/>
  <g id="zoomPlus">
    <use xlink:href="#rim" fill="#404040"><set attributeName="fill" to="#808080" begin="zoomplus.mouseover" end="zoomplus.mouseout"/></use>
    <path d="M-4,0h8M0,-4v8" fill="none" stroke="white" stroke-width="1.5" pointer-events="none"/>
  </g>
  <g id="zoomMin">
    <use xlink:href="#rim" fill="#404040"><set attributeName="fill" to="#808080" begin="zoomminus.mouseover" end="zoomminus.mouseout"/></use>
    <path d="M-4,0h8" fill="none" stroke="white" stroke-width="1.5" pointer-events="none"/>
  </g>
  <g id="arrowUp" transform="translate(30 24)">
    <use xlink:href="#rim"/>
    <path pointer-events="none" fill="none" stroke="white" stroke-width="1.5" d="M0,-3.0v7 M-2.5,-0.5L0,-3.0L2.5,-0.5"/>
  </g>
  <g id="arrowRight" transform="rotate(90) translate(36 -43)">
    <use xlink:href="#rim"/>
    <path pointer-events="none" fill="none" stroke="white" stroke-width="1.5" d="M0,-3.0v7 M-2.5,-0.5L0,-3.0L2.5,-0.5"/>
  </g>
  <g id="arrowDown" transform="rotate(180) translate(-30 -48)">
    <use xlink:href="#rim"/>
    <path pointer-events="none" fill="none" stroke="white" stroke-width="1.5" d="M0,-3.0v7 M-2.5,-0.5L0,-3.0L2.5,-0.5"/>
  </g>
  <g id="arrowLeft" transform="rotate(270) translate(-36 17)">
    <use xlink:href="#rim"/>
    <path pointer-events="none" fill="none" stroke="white" stroke-width="1.5" d="M0,-3.0v7 M-2.5,-0.5L0,-3.0L2.5,-0.5"/>
  </g>
  <g id="resetDef">
    <use xlink:href="#rim2" fill="#404040"><set attributeName="fill" to="#808080" begin="reset.mouseover" end="reset.mouseout"/></use>
  </g>
</defs>
<script type="application/ecmascript">
var viewWidth = 487;
var viewHeight = 1647;
var sectionId = 'dynsection-1';
</script>
<script type="application/ecmascript" xlink:href="../../svg.min.js"/>
<svg id="graph" class="graph">
<g id="viewport">
<title>PointIntersectXYVisual</title>
<!-- Node1 -->
<g id="Node000001" class="node">
<title>Node1</title>
<g id="a_Node000001"><a xlink:title=" ">
<polygon fill="#999999" stroke="transparent" points="376,-139 228,-139 228,0 376,0 376,-139"/>
<text text-anchor="start" x="246.5" y="-126.5" font-family="Helvetica,sans-Serif" font-size="10.00">PointIntersectXYVisual</text>
<text text-anchor="start" x="234.5" y="-111.5" font-family="Helvetica,sans-Serif" font-size="10.00">&#45;</text>
<text text-anchor="start" x="245" y="-111.5" font-family="Helvetica,sans-Serif" font-size="10.00">point2Id</text>
<text text-anchor="start" x="232" y="-96.5" font-family="Helvetica,sans-Serif" font-size="10.00">+</text>
<text text-anchor="start" x="245" y="-96.5" font-family="Helvetica,sans-Serif" font-size="10.00">PointIntersectXYVisual()</text>
<text text-anchor="start" x="232" y="-81.5" font-family="Helvetica,sans-Serif" font-size="10.00">+</text>
<text text-anchor="start" x="245" y="-81.5" font-family="Helvetica,sans-Serif" font-size="10.00">~PointIntersectXYVisual()</text>
<text text-anchor="start" x="232" y="-66.5" font-family="Helvetica,sans-Serif" font-size="10.00">+</text>
<text text-anchor="start" x="245" y="-66.5" font-family="Helvetica,sans-Serif" font-size="10.00">RefreshGeometry()</text>
<text text-anchor="start" x="232" y="-51.5" font-family="Helvetica,sans-Serif" font-size="10.00">+</text>
<text text-anchor="start" x="245" y="-51.5" font-family="Helvetica,sans-Serif" font-size="10.00">setPoint2Id()</text>
<text text-anchor="start" x="232" y="-36.5" font-family="Helvetica,sans-Serif" font-size="10.00">+</text>
<text text-anchor="start" x="245" y="-36.5" font-family="Helvetica,sans-Serif" font-size="10.00">setPoint1Id()</text>
<text text-anchor="start" x="232" y="-21.5" font-family="Helvetica,sans-Serif" font-size="10.00">+</text>
<text text-anchor="start" x="245" y="-21.5" font-family="Helvetica,sans-Serif" font-size="10.00">type()</text>
<text text-anchor="start" x="234.5" y="-6.5" font-family="Helvetica,sans-Serif" font-size="10.00">&#45;</text>
<text text-anchor="start" x="245" y="-6.5" font-family="Helvetica,sans-Serif" font-size="10.00">showIntersection()</text>
<polygon fill="#666666" stroke="#666666" points="228,-121.5 228,-121.5 376,-121.5 376,-121.5 228,-121.5"/>
<polygon fill="#666666" stroke="#666666" points="228,-106.5 228,-106.5 243,-106.5 243,-106.5 228,-106.5"/>
<polygon fill="#666666" stroke="#666666" points="243,-106.5 243,-106.5 376,-106.5 376,-106.5 243,-106.5"/>
<polygon fill="none" stroke="#666666" points="228,0 228,-139 376,-139 376,0 228,0"/>
</a>
</g>
</g>
<!-- Node2 -->
<g id="Node000002" class="node">
<title>Node2</title>
<g id="a_Node000002"><a xlink:href="../../de/d0e/classVisLine.html" target="_top" xlink:title=" ">
<polygon fill="white" stroke="transparent" points="266,-407 174,-407 174,-208 266,-208 266,-407"/>
<text text-anchor="start" x="202" y="-394.5" font-family="Helvetica,sans-Serif" font-size="10.00">VisLine</text>
<text text-anchor="start" x="218" y="-379.5" font-family="Helvetica,sans-Serif" font-size="10.00"> </text>
<text text-anchor="start" x="178" y="-364.5" font-family="Helvetica,sans-Serif" font-size="10.00">+</text>
<text text-anchor="start" x="191" y="-364.5" font-family="Helvetica,sans-Serif" font-size="10.00">VisLine()</text>
<text text-anchor="start" x="178" y="-349.5" font-family="Helvetica,sans-Serif" font-size="10.00">+</text>
<text text-anchor="start" x="191" y="-349.5" font-family="Helvetica,sans-Serif" font-size="10.00">~VisLine()</text>
<text text-anchor="start" x="178" y="-334.5" font-family="Helvetica,sans-Serif" font-size="10.00">+</text>
<text text-anchor="start" x="191" y="-334.5" font-family="Helvetica,sans-Serif" font-size="10.00">type()</text>
<text text-anchor="start" x="178" y="-319.5" font-family="Helvetica,sans-Serif" font-size="10.00">+</text>
<text text-anchor="start" x="191" y="-319.5" font-family="Helvetica,sans-Serif" font-size="10.00">CorrectAngle()</text>
<text text-anchor="start" x="178" y="-304.5" font-family="Helvetica,sans-Serif" font-size="10.00">#</text>
<text text-anchor="start" x="191" y="-304.5" font-family="Helvetica,sans-Serif" font-size="10.00">Ray()</text>
<text text-anchor="start" x="178" y="-289.5" font-family="Helvetica,sans-Serif" font-size="10.00">#</text>
<text text-anchor="start" x="191" y="-289.5" font-family="Helvetica,sans-Serif" font-size="10.00">Ray()</text>
<text text-anchor="start" x="178" y="-274.5" font-family="Helvetica,sans-Serif" font-size="10.00">#</text>
<text text-anchor="start" x="191" y="-274.5" font-family="Helvetica,sans-Serif" font-size="10.00">Axis()</text>
<text text-anchor="start" x="178" y="-259.5" font-family="Helvetica,sans-Serif" font-size="10.00">#</text>
<text text-anchor="start" x="191" y="-259.5" font-family="Helvetica,sans-Serif" font-size="10.00">Axis()</text>
<text text-anchor="start" x="178" y="-244.5" font-family="Helvetica,sans-Serif" font-size="10.00">#</text>
<text text-anchor="start" x="191" y="-244.5" font-family="Helvetica,sans-Serif" font-size="10.00">initPen()</text>
<text text-anchor="start" x="178" y="-229.5" font-family="Helvetica,sans-Serif" font-size="10.00">#</text>
<text text-anchor="start" x="191" y="-229.5" font-family="Helvetica,sans-Serif" font-size="10.00">AddOnScene()</text>
<text text-anchor="start" x="178" y="-214.5" font-family="Helvetica,sans-Serif" font-size="10.00">#</text>
<text text-anchor="start" x="191" y="-214.5" font-family="Helvetica,sans-Serif" font-size="10.00">DrawRay()</text>
<polygon fill="#666666" stroke="#666666" points="174,-389.5 174,-389.5 266,-389.5 266,-389.5 174,-389.5"/>
<polygon fill="#666666" stroke="#666666" points="174,-374.5 174,-374.5 266,-374.5 266,-374.5 174,-374.5"/>
<polygon fill="none" stroke="#666666" points="174,-208 174,-407 266,-407 266,-208 174,-208"/>
</a>
</g>
</g>
<!-- Node2&#45;&gt;Node1 -->
<g id="edge1_Node000001_Node000002" class="edge">
<title>Node2&#45;&gt;Node1</title>
<g id="a_edge1_Node000001_Node000002"><a xlink:title=" ">
<path fill="none" stroke="#63b8ff" d="M257.61,-198.25C264.61,-178.12 271.74,-157.6 278.17,-139.07"/>
<polygon fill="none" stroke="#63b8ff" points="254.28,-197.19 254.3,-207.78 260.89,-199.48 254.28,-197.19"/>
</a>
</g>
</g>
<!-- Node3 -->
<g id="Node000003" class="node">
<title>Node3</title>
<g id="a_Node000003"><a xlink:href="../../d7/d24/classVisualization.html" target="_top" xlink:title=" ">
<polygon fill="white" stroke="transparent" points="206.5,-1033 91.5,-1033 91.5,-444 206.5,-444 206.5,-1033"/>
<text text-anchor="start" x="117.5" y="-1020.5" font-family="Helvetica,sans-Serif" font-size="10.00">Visualization</text>
<text text-anchor="start" x="96" y="-1005.5" font-family="Helvetica,sans-Serif" font-size="10.00">#</text>
<text text-anchor="start" x="109" y="-1005.5" font-family="Helvetica,sans-Serif" font-size="10.00">scenePos</text>
<text text-anchor="start" x="96" y="-990.5" font-family="Helvetica,sans-Serif" font-size="10.00">#</text>
<text text-anchor="start" x="109" y="-990.5" font-family="Helvetica,sans-Serif" font-size="10.00">mainColor</text>
<text text-anchor="start" x="96" y="-975.5" font-family="Helvetica,sans-Serif" font-size="10.00">#</text>
<text text-anchor="start" x="109" y="-975.5" font-family="Helvetica,sans-Serif" font-size="10.00">supportColor</text>
<text text-anchor="start" x="96" y="-960.5" font-family="Helvetica,sans-Serif" font-size="10.00">#</text>
<text text-anchor="start" x="109" y="-960.5" font-family="Helvetica,sans-Serif" font-size="10.00">lineStyle</text>
<text text-anchor="start" x="96" y="-945.5" font-family="Helvetica,sans-Serif" font-size="10.00">#</text>
<text text-anchor="start" x="109" y="-945.5" font-family="Helvetica,sans-Serif" font-size="10.00">lineWeight</text>
<text text-anchor="start" x="96" y="-930.5" font-family="Helvetica,sans-Serif" font-size="10.00">#</text>
<text text-anchor="start" x="109" y="-930.5" font-family="Helvetica,sans-Serif" font-size="10.00">object1Id</text>
<text text-anchor="start" x="96" y="-915.5" font-family="Helvetica,sans-Serif" font-size="10.00">#</text>
<text text-anchor="start" x="109" y="-915.5" font-family="Helvetica,sans-Serif" font-size="10.00">toolTip</text>
<text text-anchor="start" x="96" y="-900.5" font-family="Helvetica,sans-Serif" font-size="10.00">#</text>
<text text-anchor="start" x="109" y="-900.5" font-family="Helvetica,sans-Serif" font-size="10.00">mode</text>
<text text-anchor="start" x="96" y="-885.5" font-family="Helvetica,sans-Serif" font-size="10.00">+</text>
<text text-anchor="start" x="109" y="-885.5" font-family="Helvetica,sans-Serif" font-size="10.00">Visualization()</text>
<text text-anchor="start" x="96" y="-870.5" font-family="Helvetica,sans-Serif" font-size="10.00">+</text>
<text text-anchor="start" x="109" y="-870.5" font-family="Helvetica,sans-Serif" font-size="10.00">~Visualization()</text>
<text text-anchor="start" x="96" y="-855.5" font-family="Helvetica,sans-Serif" font-size="10.00">+</text>
<text text-anchor="start" x="109" y="-855.5" font-family="Helvetica,sans-Serif" font-size="10.00">RefreshGeometry()</text>
<text text-anchor="start" x="96" y="-840.5" font-family="Helvetica,sans-Serif" font-size="10.00">+</text>
<text text-anchor="start" x="109" y="-840.5" font-family="Helvetica,sans-Serif" font-size="10.00">setObject1Id()</text>
<text text-anchor="start" x="96" y="-825.5" font-family="Helvetica,sans-Serif" font-size="10.00">+</text>
<text text-anchor="start" x="109" y="-825.5" font-family="Helvetica,sans-Serif" font-size="10.00">setLineStyle()</text>
<text text-anchor="start" x="96" y="-810.5" font-family="Helvetica,sans-Serif" font-size="10.00">+</text>
<text text-anchor="start" x="109" y="-810.5" font-family="Helvetica,sans-Serif" font-size="10.00">setLineWeight()</text>
<text text-anchor="start" x="96" y="-795.5" font-family="Helvetica,sans-Serif" font-size="10.00">+</text>
<text text-anchor="start" x="109" y="-795.5" font-family="Helvetica,sans-Serif" font-size="10.00">setScenePos()</text>
<text text-anchor="start" x="96" y="-780.5" font-family="Helvetica,sans-Serif" font-size="10.00">+</text>
<text text-anchor="start" x="109" y="-780.5" font-family="Helvetica,sans-Serif" font-size="10.00">VisualMode()</text>
<text text-anchor="start" x="96" y="-765.5" font-family="Helvetica,sans-Serif" font-size="10.00">+</text>
<text text-anchor="start" x="109" y="-765.5" font-family="Helvetica,sans-Serif" font-size="10.00">setMainColor()</text>
<text text-anchor="start" x="96" y="-750.5" font-family="Helvetica,sans-Serif" font-size="10.00">+</text>
<text text-anchor="start" x="109" y="-750.5" font-family="Helvetica,sans-Serif" font-size="10.00">getData()</text>
<text text-anchor="start" x="96" y="-735.5" font-family="Helvetica,sans-Serif" font-size="10.00">+</text>
<text text-anchor="start" x="109" y="-735.5" font-family="Helvetica,sans-Serif" font-size="10.00">setData()</text>
<text text-anchor="start" x="96" y="-720.5" font-family="Helvetica,sans-Serif" font-size="10.00">+</text>
<text text-anchor="start" x="109" y="-720.5" font-family="Helvetica,sans-Serif" font-size="10.00">GetMode()</text>
<text text-anchor="start" x="96" y="-705.5" font-family="Helvetica,sans-Serif" font-size="10.00">+</text>
<text text-anchor="start" x="109" y="-705.5" font-family="Helvetica,sans-Serif" font-size="10.00">SetMode()</text>
<text text-anchor="start" x="96" y="-690.5" font-family="Helvetica,sans-Serif" font-size="10.00">+</text>
<text text-anchor="start" x="109" y="-690.5" font-family="Helvetica,sans-Serif" font-size="10.00">CurrentToolTip()</text>
<text text-anchor="start" x="96" y="-675.5" font-family="Helvetica,sans-Serif" font-size="10.00">+</text>
<text text-anchor="start" x="109" y="-675.5" font-family="Helvetica,sans-Serif" font-size="10.00">FindLength()</text>
<text text-anchor="start" x="96" y="-660.5" font-family="Helvetica,sans-Serif" font-size="10.00">+</text>
<text text-anchor="start" x="109" y="-660.5" font-family="Helvetica,sans-Serif" font-size="10.00">FindVal()</text>
<text text-anchor="start" x="96" y="-645.5" font-family="Helvetica,sans-Serif" font-size="10.00">+</text>
<text text-anchor="start" x="109" y="-645.5" font-family="Helvetica,sans-Serif" font-size="10.00">mousePos()</text>
<text text-anchor="start" x="96" y="-630.5" font-family="Helvetica,sans-Serif" font-size="10.00">#</text>
<text text-anchor="start" x="109" y="-630.5" font-family="Helvetica,sans-Serif" font-size="10.00">initPen()</text>
<text text-anchor="start" x="96" y="-615.5" font-family="Helvetica,sans-Serif" font-size="10.00">#</text>
<text text-anchor="start" x="109" y="-615.5" font-family="Helvetica,sans-Serif" font-size="10.00">AddOnScene()</text>
<text text-anchor="start" x="96" y="-600.5" font-family="Helvetica,sans-Serif" font-size="10.00">#</text>
<text text-anchor="start" x="109" y="-600.5" font-family="Helvetica,sans-Serif" font-size="10.00">InitPoint()</text>
<text text-anchor="start" x="96" y="-585.5" font-family="Helvetica,sans-Serif" font-size="10.00">#</text>
<text text-anchor="start" x="109" y="-585.5" font-family="Helvetica,sans-Serif" font-size="10.00">DrawPoint()</text>
<text text-anchor="start" x="96" y="-570.5" font-family="Helvetica,sans-Serif" font-size="10.00">#</text>
<text text-anchor="start" x="109" y="-570.5" font-family="Helvetica,sans-Serif" font-size="10.00">DrawLine()</text>
<text text-anchor="start" x="96" y="-555.5" font-family="Helvetica,sans-Serif" font-size="10.00">#</text>
<text text-anchor="start" x="109" y="-555.5" font-family="Helvetica,sans-Serif" font-size="10.00">DrawPath()</text>
<text text-anchor="start" x="96" y="-540.5" font-family="Helvetica,sans-Serif" font-size="10.00">#</text>
<text text-anchor="start" x="109" y="-540.5" font-family="Helvetica,sans-Serif" font-size="10.00">DrawPath()</text>
<text text-anchor="start" x="96" y="-525.5" font-family="Helvetica,sans-Serif" font-size="10.00">#</text>
<text text-anchor="start" x="109" y="-525.5" font-family="Helvetica,sans-Serif" font-size="10.00">drawArrowedLine()</text>
<text text-anchor="start" x="96" y="-510.5" font-family="Helvetica,sans-Serif" font-size="10.00">#</text>
<text text-anchor="start" x="109" y="-510.5" font-family="Helvetica,sans-Serif" font-size="10.00">drawArrow()</text>
<text text-anchor="start" x="96" y="-495.5" font-family="Helvetica,sans-Serif" font-size="10.00">#</text>
<text text-anchor="start" x="109" y="-495.5" font-family="Helvetica,sans-Serif" font-size="10.00">addItem()</text>
<text text-anchor="start" x="96" y="-480.5" font-family="Helvetica,sans-Serif" font-size="10.00">#</text>
<text text-anchor="start" x="109" y="-480.5" font-family="Helvetica,sans-Serif" font-size="10.00">InitItem()</text>
<text text-anchor="start" x="96" y="-465.5" font-family="Helvetica,sans-Serif" font-size="10.00">#</text>
<text text-anchor="start" x="109" y="-465.5" font-family="Helvetica,sans-Serif" font-size="10.00">GetPointItem()</text>
<text text-anchor="start" x="98.5" y="-450.5" font-family="Helvetica,sans-Serif" font-size="10.00">&#45;</text>
<text text-anchor="start" x="109" y="-450.5" font-family="Helvetica,sans-Serif" font-size="10.00">initPointItem()</text>
<polygon fill="#666666" stroke="#666666" points="92,-1015.5 92,-1015.5 207,-1015.5 207,-1015.5 92,-1015.5"/>
<polygon fill="#666666" stroke="#666666" points="92,-895.5 92,-895.5 107,-895.5 107,-895.5 92,-895.5"/>
<polygon fill="#666666" stroke="#666666" points="107,-895.5 107,-895.5 207,-895.5 207,-895.5 107,-895.5"/>
<polygon fill="none" stroke="#666666" points="91.5,-444 91.5,-1033 206.5,-1033 206.5,-444 91.5,-444"/>
</a>
</g>
</g>
<!-- Node3&#45;&gt;Node2 -->
<g id="edge2_Node000002_Node000003" class="edge">
<title>Node3&#45;&gt;Node2</title>
<g id="a_edge2_Node000002_Node000003"><a xlink:title=" ">
<path fill="none" stroke="#63b8ff" d="M199.25,-433.85C200.78,-424.64 202.26,-415.69 203.68,-407.1"/>
<polygon fill="none" stroke="#63b8ff" points="195.76,-433.51 197.58,-443.94 202.67,-434.65 195.76,-433.51"/>
</a>
</g>
</g>
<!-- Node4 -->
<g id="Node000004" class="node">
<title>Node4</title>
<g id="a_Node000004"><a xlink:title=" ">
<polygon fill="white" stroke="transparent" points="50,-1384 0,-1384 0,-1335 50,-1335 50,-1384"/>
<text text-anchor="start" x="5" y="-1371.5" font-family="Helvetica,sans-Serif" font-size="10.00">QObject</text>
<text text-anchor="start" x="23" y="-1356.5" font-family="Helvetica,sans-Serif" font-size="10.00"> </text>
<text text-anchor="start" x="23" y="-1341.5" font-family="Helvetica,sans-Serif" font-size="10.00"> </text>
<polygon fill="#666666" stroke="#666666" points="0,-1366.5 0,-1366.5 50,-1366.5 50,-1366.5 0,-1366.5"/>
<polygon fill="#666666" stroke="#666666" points="0,-1351.5 0,-1351.5 50,-1351.5 50,-1351.5 0,-1351.5"/>
<polygon fill="none" stroke="#666666" points="0,-1335 0,-1384 50,-1384 50,-1335 0,-1335"/>
</a>
</g>
</g>
<!-- Node4&#45;&gt;Node3 -->
<g id="edge3_Node000003_Node000004" class="edge">
<title>Node4&#45;&gt;Node3</title>
<g id="a_edge3_Node000003_Node000004"><a xlink:title=" ">
<path fill="none" stroke="#63b8ff" d="M27.62,-1324.74C32.04,-1272.12 42.18,-1167.49 59,-1080 67.86,-1033.92 79.5,-984.86 91.45,-938.75"/>
<polygon fill="none" stroke="#63b8ff" points="24.12,-1324.6 26.79,-1334.86 31.1,-1325.18 24.12,-1324.6"/>
</a>
</g>
</g>
<!-- Node5 -->
<g id="Node000005" class="node">
<title>Node5</title>
<g id="a_Node000005"><a xlink:href="../../d2/d83/classVContainer.html" target="_top" xlink:title="Manages a collection of geometric objects, pieces, paths, and variables.">
<polygon fill="white" stroke="transparent" points="230,-1639 68,-1639 68,-1080 230,-1080 230,-1639"/>
<text text-anchor="start" x="121.5" y="-1626.5" font-family="Helvetica,sans-Serif" font-size="10.00">VContainer</text>
<text text-anchor="start" x="74.5" y="-1611.5" font-family="Helvetica,sans-Serif" font-size="10.00">&#45;</text>
<text text-anchor="start" x="85" y="-1611.5" font-family="Helvetica,sans-Serif" font-size="10.00">d</text>
<text text-anchor="start" x="74.5" y="-1596.5" font-family="Helvetica,sans-Serif" font-size="10.00">&#45;</text>
<text text-anchor="start" x="85" y="-1596.5" font-family="Helvetica,sans-Serif" font-size="10.00">_id</text>
<text text-anchor="start" x="74.5" y="-1581.5" font-family="Helvetica,sans-Serif" font-size="10.00">&#45;</text>
<text text-anchor="start" x="85" y="-1581.5" font-family="Helvetica,sans-Serif" font-size="10.00">_size</text>
<text text-anchor="start" x="74.5" y="-1566.5" font-family="Helvetica,sans-Serif" font-size="10.00">&#45;</text>
<text text-anchor="start" x="85" y="-1566.5" font-family="Helvetica,sans-Serif" font-size="10.00">_height</text>
<text text-anchor="start" x="74.5" y="-1551.5" font-family="Helvetica,sans-Serif" font-size="10.00">&#45;</text>
<text text-anchor="start" x="85" y="-1551.5" font-family="Helvetica,sans-Serif" font-size="10.00">uniqueNames</text>
<text text-anchor="start" x="72" y="-1536.5" font-family="Helvetica,sans-Serif" font-size="10.00">+</text>
<text text-anchor="start" x="85" y="-1536.5" font-family="Helvetica,sans-Serif" font-size="10.00">VContainer()</text>
<text text-anchor="start" x="72" y="-1521.5" font-family="Helvetica,sans-Serif" font-size="10.00">+</text>
<text text-anchor="start" x="85" y="-1521.5" font-family="Helvetica,sans-Serif" font-size="10.00">VContainer()</text>
<text text-anchor="start" x="72" y="-1506.5" font-family="Helvetica,sans-Serif" font-size="10.00">+</text>
<text text-anchor="start" x="85" y="-1506.5" font-family="Helvetica,sans-Serif" font-size="10.00">~VContainer()</text>
<text text-anchor="start" x="72" y="-1491.5" font-family="Helvetica,sans-Serif" font-size="10.00">+</text>
<text text-anchor="start" x="85" y="-1491.5" font-family="Helvetica,sans-Serif" font-size="10.00">operator=()</text>
<text text-anchor="start" x="72" y="-1476.5" font-family="Helvetica,sans-Serif" font-size="10.00">+</text>
<text text-anchor="start" x="85" y="-1476.5" font-family="Helvetica,sans-Serif" font-size="10.00">Swap()</text>
<text text-anchor="start" x="72" y="-1461.5" font-family="Helvetica,sans-Serif" font-size="10.00">+</text>
<text text-anchor="start" x="85" y="-1461.5" font-family="Helvetica,sans-Serif" font-size="10.00">GeometricObject()</text>
<text text-anchor="start" x="72" y="-1446.5" font-family="Helvetica,sans-Serif" font-size="10.00">+</text>
<text text-anchor="start" x="85" y="-1446.5" font-family="Helvetica,sans-Serif" font-size="10.00">GetGObject()</text>
<text text-anchor="start" x="72" y="-1431.5" font-family="Helvetica,sans-Serif" font-size="10.00">+</text>
<text text-anchor="start" x="85" y="-1431.5" font-family="Helvetica,sans-Serif" font-size="10.00">GetPiece()</text>
<text text-anchor="start" x="72" y="-1416.5" font-family="Helvetica,sans-Serif" font-size="10.00">+</text>
<text text-anchor="start" x="85" y="-1416.5" font-family="Helvetica,sans-Serif" font-size="10.00">GetPiecePath()</text>
<text text-anchor="start" x="72" y="-1401.5" font-family="Helvetica,sans-Serif" font-size="10.00">+</text>
<text text-anchor="start" x="85" y="-1401.5" font-family="Helvetica,sans-Serif" font-size="10.00">getVariable()</text>
<text text-anchor="start" x="85" y="-1386.5" font-family="Helvetica,sans-Serif" font-size="10.00">and 34 more...</text>
<text text-anchor="start" x="72" y="-1371.5" font-family="Helvetica,sans-Serif" font-size="10.00">+</text>
<text text-anchor="start" x="85" y="-1371.5" font-family="Helvetica,sans-Serif" font-size="10.00">GetFakeGObject()</text>
<text text-anchor="start" x="72" y="-1356.5" font-family="Helvetica,sans-Serif" font-size="10.00">+</text>
<text text-anchor="start" x="85" y="-1356.5" font-family="Helvetica,sans-Serif" font-size="10.00">getId()</text>
<text text-anchor="start" x="72" y="-1341.5" font-family="Helvetica,sans-Serif" font-size="10.00">+</text>
<text text-anchor="start" x="85" y="-1341.5" font-family="Helvetica,sans-Serif" font-size="10.00">getNextId()</text>
<text text-anchor="start" x="72" y="-1326.5" font-family="Helvetica,sans-Serif" font-size="10.00">+</text>
<text text-anchor="start" x="85" y="-1326.5" font-family="Helvetica,sans-Serif" font-size="10.00">UpdateId()</text>
<text text-anchor="start" x="72" y="-1311.5" font-family="Helvetica,sans-Serif" font-size="10.00">+</text>
<text text-anchor="start" x="85" y="-1311.5" font-family="Helvetica,sans-Serif" font-size="10.00">ClearUniqueNames()</text>
<text text-anchor="start" x="72" y="-1296.5" font-family="Helvetica,sans-Serif" font-size="10.00">+</text>
<text text-anchor="start" x="85" y="-1296.5" font-family="Helvetica,sans-Serif" font-size="10.00">clearUniqueVariableNames()</text>
<text text-anchor="start" x="72" y="-1281.5" font-family="Helvetica,sans-Serif" font-size="10.00">+</text>
<text text-anchor="start" x="85" y="-1281.5" font-family="Helvetica,sans-Serif" font-size="10.00">setSize()</text>
<text text-anchor="start" x="72" y="-1266.5" font-family="Helvetica,sans-Serif" font-size="10.00">+</text>
<text text-anchor="start" x="85" y="-1266.5" font-family="Helvetica,sans-Serif" font-size="10.00">setHeight()</text>
<text text-anchor="start" x="72" y="-1251.5" font-family="Helvetica,sans-Serif" font-size="10.00">+</text>
<text text-anchor="start" x="85" y="-1251.5" font-family="Helvetica,sans-Serif" font-size="10.00">size()</text>
<text text-anchor="start" x="72" y="-1236.5" font-family="Helvetica,sans-Serif" font-size="10.00">+</text>
<text text-anchor="start" x="85" y="-1236.5" font-family="Helvetica,sans-Serif" font-size="10.00">rsize()</text>
<text text-anchor="start" x="72" y="-1221.5" font-family="Helvetica,sans-Serif" font-size="10.00">+</text>
<text text-anchor="start" x="85" y="-1221.5" font-family="Helvetica,sans-Serif" font-size="10.00">height()</text>
<text text-anchor="start" x="72" y="-1206.5" font-family="Helvetica,sans-Serif" font-size="10.00">+</text>
<text text-anchor="start" x="85" y="-1206.5" font-family="Helvetica,sans-Serif" font-size="10.00">rheight()</text>
<text text-anchor="start" x="72" y="-1191.5" font-family="Helvetica,sans-Serif" font-size="10.00">+</text>
<text text-anchor="start" x="85" y="-1191.5" font-family="Helvetica,sans-Serif" font-size="10.00">IsUnique()</text>
<text text-anchor="start" x="72" y="-1176.5" font-family="Helvetica,sans-Serif" font-size="10.00">+</text>
<text text-anchor="start" x="85" y="-1176.5" font-family="Helvetica,sans-Serif" font-size="10.00">AllUniqueNames()</text>
<text text-anchor="start" x="74.5" y="-1161.5" font-family="Helvetica,sans-Serif" font-size="10.00">&#45;</text>
<text text-anchor="start" x="85" y="-1161.5" font-family="Helvetica,sans-Serif" font-size="10.00">AddCurve()</text>
<text text-anchor="start" x="74.5" y="-1146.5" font-family="Helvetica,sans-Serif" font-size="10.00">&#45;</text>
<text text-anchor="start" x="85" y="-1146.5" font-family="Helvetica,sans-Serif" font-size="10.00">qHash()</text>
<text text-anchor="start" x="74.5" y="-1131.5" font-family="Helvetica,sans-Serif" font-size="10.00">&#45;</text>
<text text-anchor="start" x="85" y="-1131.5" font-family="Helvetica,sans-Serif" font-size="10.00">GetObject()</text>
<text text-anchor="start" x="74.5" y="-1116.5" font-family="Helvetica,sans-Serif" font-size="10.00">&#45;</text>
<text text-anchor="start" x="85" y="-1116.5" font-family="Helvetica,sans-Serif" font-size="10.00">UpdateObject()</text>
<text text-anchor="start" x="74.5" y="-1101.5" font-family="Helvetica,sans-Serif" font-size="10.00">&#45;</text>
<text text-anchor="start" x="85" y="-1101.5" font-family="Helvetica,sans-Serif" font-size="10.00">DataVar()</text>
<text text-anchor="start" x="74.5" y="-1086.5" font-family="Helvetica,sans-Serif" font-size="10.00">&#45;</text>
<text text-anchor="start" x="85" y="-1086.5" font-family="Helvetica,sans-Serif" font-size="10.00">AddObject()</text>
<polygon fill="#666666" stroke="#666666" points="68,-1621.5 68,-1621.5 230,-1621.5 230,-1621.5 68,-1621.5"/>
<polygon fill="#666666" stroke="#666666" points="68,-1546.5 68,-1546.5 83,-1546.5 83,-1546.5 68,-1546.5"/>
<polygon fill="#666666" stroke="#666666" points="83,-1546.5 83,-1546.5 230,-1546.5 230,-1546.5 83,-1546.5"/>
<polygon fill="none" stroke="#666666" points="68,-1080 68,-1639 230,-1639 230,-1080 68,-1080"/>
</a>
</g>
</g>
<!-- Node5&#45;&gt;Node3 -->
<g id="edge4_Node000003_Node000005" class="edge">
<title>Node5&#45;&gt;Node3</title>
<g id="a_edge4_Node000003_Node000005"><a xlink:title=" ">
<path fill="none" stroke="#63b8ff" d="M149,-1079.78C149,-1068.47 149,-1057.11 149,-1045.74"/>
<polygon fill="none" stroke="#63b8ff" points="149,-1045.42 145,-1039.42 149,-1033.42 153,-1039.42 149,-1045.42"/>
</a>
</g>
<text text-anchor="middle" x="166" y="-1054" font-family="Helvetica,sans-Serif" font-size="10.00" fill="grey"> #data</text>
</g>
<!-- Node6 -->
<g id="Node000006" class="node">
<title>Node6</title>
<g id="a_Node000006"><a xlink:href="../../dd/da2/classVScaledLine.html" target="_top" xlink:title=" ">
<polygon fill="white" stroke="transparent" points="344.5,-808 235.5,-808 235.5,-669 344.5,-669 344.5,-808"/>
<text text-anchor="start" x="260.5" y="-795.5" font-family="Helvetica,sans-Serif" font-size="10.00">VScaledLine</text>
<text text-anchor="start" x="242.5" y="-780.5" font-family="Helvetica,sans-Serif" font-size="10.00">&#45;</text>
<text text-anchor="start" x="253" y="-780.5" font-family="Helvetica,sans-Serif" font-size="10.00">m_defaultWidth</text>
<text text-anchor="start" x="240" y="-765.5" font-family="Helvetica,sans-Serif" font-size="10.00">+</text>
<text text-anchor="start" x="253" y="-765.5" font-family="Helvetica,sans-Serif" font-size="10.00">VScaledLine()</text>
<text text-anchor="start" x="240" y="-750.5" font-family="Helvetica,sans-Serif" font-size="10.00">+</text>
<text text-anchor="start" x="253" y="-750.5" font-family="Helvetica,sans-Serif" font-size="10.00">VScaledLine()</text>
<text text-anchor="start" x="240" y="-735.5" font-family="Helvetica,sans-Serif" font-size="10.00">+</text>
<text text-anchor="start" x="253" y="-735.5" font-family="Helvetica,sans-Serif" font-size="10.00">~VScaledLine()</text>
<text text-anchor="start" x="240" y="-720.5" font-family="Helvetica,sans-Serif" font-size="10.00">+</text>
<text text-anchor="start" x="253" y="-720.5" font-family="Helvetica,sans-Serif" font-size="10.00">type()</text>
<text text-anchor="start" x="240" y="-705.5" font-family="Helvetica,sans-Serif" font-size="10.00">+</text>
<text text-anchor="start" x="253" y="-705.5" font-family="Helvetica,sans-Serif" font-size="10.00">paint()</text>
<text text-anchor="start" x="240" y="-690.5" font-family="Helvetica,sans-Serif" font-size="10.00">+</text>
<text text-anchor="start" x="253" y="-690.5" font-family="Helvetica,sans-Serif" font-size="10.00">getDefaultWidth()</text>
<text text-anchor="start" x="240" y="-675.5" font-family="Helvetica,sans-Serif" font-size="10.00">+</text>
<text text-anchor="start" x="253" y="-675.5" font-family="Helvetica,sans-Serif" font-size="10.00">setDefaultWidth()</text>
<polygon fill="#666666" stroke="#666666" points="236,-790.5 236,-790.5 345,-790.5 345,-790.5 236,-790.5"/>
<polygon fill="#666666" stroke="#666666" points="236,-775.5 236,-775.5 251,-775.5 251,-775.5 236,-775.5"/>
<polygon fill="#666666" stroke="#666666" points="251,-775.5 251,-775.5 345,-775.5 345,-775.5 251,-775.5"/>
<polygon fill="none" stroke="#666666" points="235.5,-669 235.5,-808 344.5,-808 344.5,-669 235.5,-669"/>
</a>
</g>
</g>
<!-- Node6&#45;&gt;Node1 -->
<g id="edge9_Node000001_Node000006" class="edge">
<title>Node6&#45;&gt;Node1</title>
<g id="a_edge9_Node000001_Node000006"><a xlink:title=" ">
<path fill="none" stroke="#63b8ff" d="M291.23,-668.94C293.47,-544.83 298.17,-283.52 300.55,-151.09"/>
<polygon fill="none" stroke="#63b8ff" points="300.55,-151.07 296.66,-145 300.77,-139.07 304.66,-145.14 300.55,-151.07"/>
</a>
</g>
<text text-anchor="middle" x="317" y="-305" font-family="Helvetica,sans-Serif" font-size="10.00" fill="grey"> &#45;axis2</text>
</g>
<!-- Node6&#45;&gt;Node2 -->
<g id="edge5_Node000002_Node000006" class="edge">
<title>Node6&#45;&gt;Node2</title>
<g id="a_edge5_Node000002_Node000006"><a xlink:title=" ">
<path fill="none" stroke="#63b8ff" d="M277.09,-658.38C265.54,-587.57 248.55,-483.47 236.11,-407.23"/>
<polygon fill="none" stroke="#63b8ff" points="273.69,-659.27 278.75,-668.57 280.6,-658.14 273.69,-659.27"/>
</a>
</g>
</g>
<!-- Node7 -->
<g id="Node000007" class="node">
<title>Node7</title>
<g id="a_Node000007"><a xlink:title=" ">
<polygon fill="white" stroke="transparent" points="352,-1384 248,-1384 248,-1335 352,-1335 352,-1384"/>
<text text-anchor="start" x="253" y="-1371.5" font-family="Helvetica,sans-Serif" font-size="10.00">QGraphicsLineItem</text>
<text text-anchor="start" x="298" y="-1356.5" font-family="Helvetica,sans-Serif" font-size="10.00"> </text>
<text text-anchor="start" x="298" y="-1341.5" font-family="Helvetica,sans-Serif" font-size="10.00"> </text>
<polygon fill="#666666" stroke="#666666" points="248,-1366.5 248,-1366.5 352,-1366.5 352,-1366.5 248,-1366.5"/>
<polygon fill="#666666" stroke="#666666" points="248,-1351.5 248,-1351.5 352,-1351.5 352,-1351.5 248,-1351.5"/>
<polygon fill="none" stroke="#666666" points="248,-1335 248,-1384 352,-1384 352,-1335 248,-1335"/>
</a>
</g>
</g>
<!-- Node7&#45;&gt;Node6 -->
<g id="edge6_Node000006_Node000007" class="edge">
<title>Node7&#45;&gt;Node6</title>
<g id="a_edge6_Node000006_Node000007"><a xlink:title=" ">
<path fill="none" stroke="#63b8ff" d="M299.46,-1324.78C297.87,-1226.74 293.25,-940.38 291.11,-808.03"/>
<polygon fill="none" stroke="#63b8ff" points="295.96,-1325.05 299.62,-1334.99 302.96,-1324.94 295.96,-1325.05"/>
</a>
</g>
</g>
<!-- Node8 -->
<g id="Node000008" class="node">
<title>Node8</title>
<g id="a_Node000008"><a xlink:href="../../d8/dbf/classVScaledEllipse.html" target="_top" xlink:title=" ">
<polygon fill="white" stroke="transparent" points="469.5,-354.5 360.5,-354.5 360.5,-260.5 469.5,-260.5 469.5,-354.5"/>
<text text-anchor="start" x="379.5" y="-342.5" font-family="Helvetica,sans-Serif" font-size="10.00">VScaledEllipse</text>
<text text-anchor="start" x="413.5" y="-327.5" font-family="Helvetica,sans-Serif" font-size="10.00"> </text>
<text text-anchor="start" x="365" y="-312.5" font-family="Helvetica,sans-Serif" font-size="10.00">+</text>
<text text-anchor="start" x="378" y="-312.5" font-family="Helvetica,sans-Serif" font-size="10.00">VScaledEllipse()</text>
<text text-anchor="start" x="365" y="-297.5" font-family="Helvetica,sans-Serif" font-size="10.00">+</text>
<text text-anchor="start" x="378" y="-297.5" font-family="Helvetica,sans-Serif" font-size="10.00">~VScaledEllipse()</text>
<text text-anchor="start" x="365" y="-282.5" font-family="Helvetica,sans-Serif" font-size="10.00">+</text>
<text text-anchor="start" x="378" y="-282.5" font-family="Helvetica,sans-Serif" font-size="10.00">type()</text>
<text text-anchor="start" x="365" y="-267.5" font-family="Helvetica,sans-Serif" font-size="10.00">+</text>
<text text-anchor="start" x="378" y="-267.5" font-family="Helvetica,sans-Serif" font-size="10.00">paint()</text>
<polygon fill="#666666" stroke="#666666" points="361,-337.5 361,-337.5 470,-337.5 470,-337.5 361,-337.5"/>
<polygon fill="#666666" stroke="#666666" points="361,-322.5 361,-322.5 470,-322.5 470,-322.5 361,-322.5"/>
<polygon fill="none" stroke="#666666" points="360.5,-260.5 360.5,-354.5 469.5,-354.5 469.5,-260.5 360.5,-260.5"/>
</a>
</g>
</g>
<!-- Node8&#45;&gt;Node1 -->
<g id="edge7_Node000001_Node000008" class="edge">
<title>Node8&#45;&gt;Node1</title>
<g id="a_edge7_Node000001_Node000008"><a xlink:title=" ">
<path fill="none" stroke="#63b8ff" d="M392.94,-260.44C377.98,-229.19 357.82,-187.07 340.27,-150.43"/>
<polygon fill="none" stroke="#63b8ff" points="340.1,-150.08 333.91,-146.4 334.92,-139.26 341.12,-142.94 340.1,-150.08"/>
</a>
</g>
<text text-anchor="middle" x="379" y="-182" font-family="Helvetica,sans-Serif" font-size="10.00" fill="grey"> &#45;axisP1</text>
<text text-anchor="middle" x="379" y="-171" font-family="Helvetica,sans-Serif" font-size="10.00" fill="grey">&#45;axisP2</text>
<text text-anchor="middle" x="379" y="-160" font-family="Helvetica,sans-Serif" font-size="10.00" fill="grey">&#45;point</text>
</g>
<!-- Node9 -->
<g id="Node000009" class="node">
<title>Node9</title>
<g id="a_Node000009"><a xlink:title=" ">
<polygon fill="white" stroke="transparent" points="479,-763 363,-763 363,-714 479,-714 479,-763"/>
<text text-anchor="start" x="368" y="-750.5" font-family="Helvetica,sans-Serif" font-size="10.00">QGraphicsEllipseItem</text>
<text text-anchor="start" x="419" y="-735.5" font-family="Helvetica,sans-Serif" font-size="10.00"> </text>
<text text-anchor="start" x="419" y="-720.5" font-family="Helvetica,sans-Serif" font-size="10.00"> </text>
<polygon fill="#666666" stroke="#666666" points="363,-745.5 363,-745.5 479,-745.5 479,-745.5 363,-745.5"/>
<polygon fill="#666666" stroke="#666666" points="363,-730.5 363,-730.5 479,-730.5 479,-730.5 363,-730.5"/>
<polygon fill="none" stroke="#666666" points="363,-714 363,-763 479,-763 479,-714 363,-714"/>
</a>
</g>
</g>
<!-- Node9&#45;&gt;Node8 -->
<g id="edge8_Node000008_Node000009" class="edge">
<title>Node9&#45;&gt;Node8</title>
<g id="a_edge8_Node000008_Node000009"><a xlink:title=" ">
<path fill="none" stroke="#63b8ff" d="M420.53,-703.81C419.46,-627.51 416.86,-441.41 415.64,-354.55"/>
<polygon fill="none" stroke="#63b8ff" points="417.03,-703.87 420.67,-713.82 424.03,-703.78 417.03,-703.87"/>
</a>
</g>
</g>
</g>
</svg>

<g id="navigator" transform="translate(0 0)" fill="#404254">
  <rect fill="#f2f5e9" fill-opacity="0.5" stroke="#606060" stroke-width=".5" x="0" y="0" width="60" height="60"/>
  <use id="zoomplus" xlink:href="#zoomPlus" x="17" y="9" onmousedown="handleZoom(evt,'in')"/>
  <use id="zoomminus" xlink:href="#zoomMin" x="42" y="9" onmousedown="handleZoom(evt,'out')"/>
  <use id="reset" xlink:href="#resetDef" x="30" y="36" onmousedown="handleReset()"/>
   <use id="arrowup" xlink:href="#arrowUp" x="0" y="0" onmousedown="handlePan(0,-1)"/>
  <use id="arrowright" xlink:href="#arrowRight" x="0" y="0" onmousedown="handlePan(1,0)"/>
  <use id="arrowdown" xlink:href="#arrowDown" x="0" y="0" onmousedown="handlePan(0,1)"/>
  <use id="arrowleft" xlink:href="#arrowLeft" x="0" y="0" onmousedown="handlePan(-1,0)"/>
</g>
<svg viewBox="0 0 15 15" width="100%" height="30px" preserveAspectRatio="xMaxYMin meet">
 <g id="arrow_out" transform="scale(0.3 0.3)">
  <a xlink:href="classPointIntersectXYVisual__coll__graph_org.svg" target="_base">
   <rect id="button" ry="5" rx="5" y="6" x="6" height="38" width="38"
        fill="#f2f5e9" fill-opacity="0.5" stroke="#606060" stroke-width="1.0"/>
   <path id="arrow"
     d="M 11.500037,31.436501 C 11.940474,20.09759 22.043105,11.32322 32.158766,21.979434 L 37.068811,17.246167 C 37.068811,17.246167 37.088388,32 37.088388,32 L 22.160133,31.978069 C 22.160133,31.978069 26.997745,27.140456 26.997745,27.140456 C 18.528582,18.264221 13.291696,25.230495 11.500037,31.436501 z"
     style="fill:#404040;"/>
  </a>
 </g>
</svg>

<style type='text/css'>
<![CDATA[
[data-mouse-over-selected='false'] { opacity: 0.7; }
[data-mouse-over-selected='true']  { opacity: 1.0; }
]]>
</style>
<script type="application/ecmascript"><![CDATA[
document.addEventListener('DOMContentLoaded', (event) => {
  highlightEdges();
  highlightAdjacentNodes();
});
]]></script>
</svg>
