<?xml version="1.0" encoding="UTF-8" standalone="no"?>
<!DOCTYPE svg PUBLIC "-//W3C//DTD SVG 1.1//EN"
 "http://www.w3.org/Graphics/SVG/1.1/DTD/svg11.dtd">
<!-- Generated by graphviz version 2.43.0 (0)
 -->
<!-- Title: TST_TSTranslation Pages: 1 -->
<svg width="418pt" height="456pt"
 viewBox="0.00 0.00 418.00 456.00" xmlns="http://www.w3.org/2000/svg" xmlns:xlink="http://www.w3.org/1999/xlink">
<g id="graph0" class="graph" transform="scale(1 1) rotate(0) translate(4 452)">
<title>TST_TSTranslation</title>
<!-- Node1 -->
<g id="Node000001" class="node">
<title>Node1</title>
<g id="a_Node000001"><a xlink:title=" ">
<polygon fill="#999999" stroke="transparent" points="211.5,-352 58.5,-352 58.5,0 211.5,0 211.5,-352"/>
<text text-anchor="start" x="91" y="-340" font-family="Helvetica,sans-Serif" font-size="10.00">TST_TSTranslation</text>
<text text-anchor="start" x="65.5" y="-325" font-family="Helvetica,sans-Serif" font-size="10.00">&#45;</text>
<text text-anchor="start" x="76" y="-325" font-family="Helvetica,sans-Serif" font-size="10.00">TagName</text>
<text text-anchor="start" x="65.5" y="-310" font-family="Helvetica,sans-Serif" font-size="10.00">&#45;</text>
<text text-anchor="start" x="76" y="-310" font-family="Helvetica,sans-Serif" font-size="10.00">TagMessage</text>
<text text-anchor="start" x="65.5" y="-295" font-family="Helvetica,sans-Serif" font-size="10.00">&#45;</text>
<text text-anchor="start" x="76" y="-295" font-family="Helvetica,sans-Serif" font-size="10.00">TagSource</text>
<text text-anchor="start" x="65.5" y="-280" font-family="Helvetica,sans-Serif" font-size="10.00">&#45;</text>
<text text-anchor="start" x="76" y="-280" font-family="Helvetica,sans-Serif" font-size="10.00">TagTranslation</text>
<text text-anchor="start" x="65.5" y="-265" font-family="Helvetica,sans-Serif" font-size="10.00">&#45;</text>
<text text-anchor="start" x="76" y="-265" font-family="Helvetica,sans-Serif" font-size="10.00">AttrType</text>
<text text-anchor="start" x="65.5" y="-250" font-family="Helvetica,sans-Serif" font-size="10.00">&#45;</text>
<text text-anchor="start" x="76" y="-250" font-family="Helvetica,sans-Serif" font-size="10.00">AttrValVanished</text>
<text text-anchor="start" x="65.5" y="-235" font-family="Helvetica,sans-Serif" font-size="10.00">&#45;</text>
<text text-anchor="start" x="76" y="-235" font-family="Helvetica,sans-Serif" font-size="10.00">AttrValUnfinished</text>
<text text-anchor="start" x="65.5" y="-220" font-family="Helvetica,sans-Serif" font-size="10.00">&#45;</text>
<text text-anchor="start" x="76" y="-220" font-family="Helvetica,sans-Serif" font-size="10.00">AttrValObsolete</text>
<text text-anchor="start" x="63" y="-205" font-family="Helvetica,sans-Serif" font-size="10.00">+</text>
<text text-anchor="start" x="76" y="-205" font-family="Helvetica,sans-Serif" font-size="10.00">TST_TSTranslation()</text>
<text text-anchor="start" x="65.5" y="-190" font-family="Helvetica,sans-Serif" font-size="10.00">&#45;</text>
<text text-anchor="start" x="76" y="-190" font-family="Helvetica,sans-Serif" font-size="10.00">LoadTSFile()</text>
<text text-anchor="start" x="65.5" y="-175" font-family="Helvetica,sans-Serif" font-size="10.00">&#45;</text>
<text text-anchor="start" x="76" y="-175" font-family="Helvetica,sans-Serif" font-size="10.00">CheckEnglishLocalization</text>
<text text-anchor="start" x="76" y="-164" font-family="Helvetica,sans-Serif" font-size="10.00">_data()</text>
<text text-anchor="start" x="65.5" y="-149" font-family="Helvetica,sans-Serif" font-size="10.00">&#45;</text>
<text text-anchor="start" x="76" y="-149" font-family="Helvetica,sans-Serif" font-size="10.00">CheckEnglishLocalization()</text>
<text text-anchor="start" x="65.5" y="-134" font-family="Helvetica,sans-Serif" font-size="10.00">&#45;</text>
<text text-anchor="start" x="76" y="-134" font-family="Helvetica,sans-Serif" font-size="10.00">CheckEmptyToolButton</text>
<text text-anchor="start" x="76" y="-123" font-family="Helvetica,sans-Serif" font-size="10.00">_data()</text>
<text text-anchor="start" x="65.5" y="-108" font-family="Helvetica,sans-Serif" font-size="10.00">&#45;</text>
<text text-anchor="start" x="76" y="-108" font-family="Helvetica,sans-Serif" font-size="10.00">CheckEmptyToolButton()</text>
<text text-anchor="start" x="65.5" y="-93" font-family="Helvetica,sans-Serif" font-size="10.00">&#45;</text>
<text text-anchor="start" x="76" y="-93" font-family="Helvetica,sans-Serif" font-size="10.00">CheckPlaceMarkerExist</text>
<text text-anchor="start" x="76" y="-82" font-family="Helvetica,sans-Serif" font-size="10.00">_data()</text>
<text text-anchor="start" x="65.5" y="-67" font-family="Helvetica,sans-Serif" font-size="10.00">&#45;</text>
<text text-anchor="start" x="76" y="-67" font-family="Helvetica,sans-Serif" font-size="10.00">CheckPlaceMarkerExist()</text>
<text text-anchor="start" x="65.5" y="-52" font-family="Helvetica,sans-Serif" font-size="10.00">&#45;</text>
<text text-anchor="start" x="76" y="-52" font-family="Helvetica,sans-Serif" font-size="10.00">TestPunctuation_data()</text>
<text text-anchor="start" x="65.5" y="-37" font-family="Helvetica,sans-Serif" font-size="10.00">&#45;</text>
<text text-anchor="start" x="76" y="-37" font-family="Helvetica,sans-Serif" font-size="10.00">TestPunctuation()</text>
<text text-anchor="start" x="65.5" y="-22" font-family="Helvetica,sans-Serif" font-size="10.00">&#45;</text>
<text text-anchor="start" x="76" y="-22" font-family="Helvetica,sans-Serif" font-size="10.00">TestHTMLTags_data()</text>
<text text-anchor="start" x="65.5" y="-7" font-family="Helvetica,sans-Serif" font-size="10.00">&#45;</text>
<text text-anchor="start" x="76" y="-7" font-family="Helvetica,sans-Serif" font-size="10.00">TestHTMLTags()</text>
<polygon fill="#666666" stroke="#666666" points="59,-335 59,-335 212,-335 212,-335 59,-335"/>
<polygon fill="#666666" stroke="#666666" points="59,-215 59,-215 74,-215 74,-215 59,-215"/>
<polygon fill="#666666" stroke="#666666" points="74,-215 74,-215 212,-215 212,-215 74,-215"/>
<polygon fill="none" stroke="#666666" points="58.5,0 58.5,-352 211.5,-352 211.5,0 58.5,0"/>
</a>
</g>
</g>
<!-- Node2 -->
<g id="Node000002" class="node">
<title>Node2</title>
<g id="a_Node000002"><a xlink:title=" ">
<polygon fill="white" stroke="transparent" points="50,-448 0,-448 0,-399 50,-399 50,-448"/>
<text text-anchor="start" x="5" y="-435.5" font-family="Helvetica,sans-Serif" font-size="10.00">QObject</text>
<text text-anchor="start" x="23" y="-420.5" font-family="Helvetica,sans-Serif" font-size="10.00"> </text>
<text text-anchor="start" x="23" y="-405.5" font-family="Helvetica,sans-Serif" font-size="10.00"> </text>
<polygon fill="#666666" stroke="#666666" points="0,-430.5 0,-430.5 50,-430.5 50,-430.5 0,-430.5"/>
<polygon fill="#666666" stroke="#666666" points="0,-415.5 0,-415.5 50,-415.5 50,-415.5 0,-415.5"/>
<polygon fill="none" stroke="#666666" points="0,-399 0,-448 50,-448 50,-399 0,-399"/>
</a>
</g>
</g>
<!-- Node2&#45;&gt;Node1 -->
<g id="edge1_Node000001_Node000002" class="edge">
<title>Node2&#45;&gt;Node1</title>
<g id="a_edge1_Node000001_Node000002"><a xlink:title=" ">
<path fill="none" stroke="#63b8ff" d="M39.73,-389.62C45.04,-377.78 51.45,-363.47 58.41,-347.94"/>
<polygon fill="none" stroke="#63b8ff" points="36.44,-388.4 35.55,-398.96 42.83,-391.27 36.44,-388.4"/>
</a>
</g>
</g>
<!-- Node3 -->
<g id="Node000003" class="node">
<title>Node3</title>
<g id="a_Node000003"><a xlink:href="../../dd/daa/classQSharedPointer.html" target="_top" xlink:title=" ">
<polygon fill="white" stroke="transparent" points="202,-448 68,-448 68,-399 202,-399 202,-448"/>
<text text-anchor="start" x="73" y="-435.5" font-family="Helvetica,sans-Serif" font-size="10.00">QSharedPointer&lt; QFile &gt;</text>
<text text-anchor="start" x="133" y="-420.5" font-family="Helvetica,sans-Serif" font-size="10.00"> </text>
<text text-anchor="start" x="133" y="-405.5" font-family="Helvetica,sans-Serif" font-size="10.00"> </text>
<polygon fill="#666666" stroke="#666666" points="68,-430.5 68,-430.5 202,-430.5 202,-430.5 68,-430.5"/>
<polygon fill="#666666" stroke="#666666" points="68,-415.5 68,-415.5 202,-415.5 202,-415.5 68,-415.5"/>
<polygon fill="none" stroke="#666666" points="68,-399 68,-448 202,-448 202,-399 68,-399"/>
</a>
</g>
</g>
<!-- Node3&#45;&gt;Node1 -->
<g id="edge2_Node000001_Node000003" class="edge">
<title>Node3&#45;&gt;Node1</title>
<g id="a_edge2_Node000001_Node000003"><a xlink:title=" ">
<path fill="none" stroke="#63b8ff" d="M135,-398.96C135,-389.45 135,-377.56 135,-364.26"/>
<polygon fill="none" stroke="#63b8ff" points="135,-364.23 131,-358.23 135,-352.23 139,-358.23 135,-364.23"/>
</a>
</g>
<text text-anchor="middle" x="152" y="-373" font-family="Helvetica,sans-Serif" font-size="10.00" fill="grey"> &#45;tsFile</text>
</g>
<!-- Node4 -->
<g id="Node000004" class="node">
<title>Node4</title>
<g id="a_Node000004"><a xlink:href="../../dd/daa/classQSharedPointer.html" target="_top" xlink:title=" ">
<polygon fill="white" stroke="transparent" points="410,-448 220,-448 220,-399 410,-399 410,-448"/>
<text text-anchor="start" x="225" y="-435.5" font-family="Helvetica,sans-Serif" font-size="10.00">QSharedPointer&lt; QDomDocument &gt;</text>
<text text-anchor="start" x="313" y="-420.5" font-family="Helvetica,sans-Serif" font-size="10.00"> </text>
<text text-anchor="start" x="313" y="-405.5" font-family="Helvetica,sans-Serif" font-size="10.00"> </text>
<polygon fill="#666666" stroke="#666666" points="220,-430.5 220,-430.5 410,-430.5 410,-430.5 220,-430.5"/>
<polygon fill="#666666" stroke="#666666" points="220,-415.5 220,-415.5 410,-415.5 410,-415.5 220,-415.5"/>
<polygon fill="none" stroke="#666666" points="220,-399 220,-448 410,-448 410,-399 220,-399"/>
</a>
</g>
</g>
<!-- Node4&#45;&gt;Node1 -->
<g id="edge3_Node000001_Node000004" class="edge">
<title>Node4&#45;&gt;Node1</title>
<g id="a_edge3_Node000001_Node000004"><a xlink:title=" ">
<path fill="none" stroke="#63b8ff" d="M297.74,-398.96C279.25,-373.74 248.52,-331.83 218.71,-291.18"/>
<polygon fill="none" stroke="#63b8ff" points="218.67,-291.11 211.89,-288.64 211.57,-281.43 218.34,-283.91 218.67,-291.11"/>
</a>
</g>
<text text-anchor="middle" x="298.5" y="-373" font-family="Helvetica,sans-Serif" font-size="10.00" fill="grey"> &#45;tsXML</text>
</g>
</g>
</svg>
