<?xml version="1.0" encoding="UTF-8" standalone="no"?>
<!DOCTYPE svg PUBLIC "-//W3C//DTD SVG 1.1//EN"
 "http://www.w3.org/Graphics/SVG/1.1/DTD/svg11.dtd">
<!-- Generated by graphviz version 2.43.0 (0)
 -->
<!-- Title: VisToolLine Pages: 1 -->
<svg width="250pt" height="1092pt"
 viewBox="0.00 0.00 250.00 1092.00" xmlns="http://www.w3.org/2000/svg" xmlns:xlink="http://www.w3.org/1999/xlink">
<g id="graph0" class="graph" transform="scale(1 1) rotate(0) translate(4 1088)">
<title>VisToolLine</title>
<!-- Node1 -->
<g id="Node000001" class="node">
<title>Node1</title>
<g id="a_Node000001"><a xlink:title=" ">
<polygon fill="#999999" stroke="transparent" points="180,-124 65,-124 65,0 180,0 180,-124"/>
<text text-anchor="start" x="95.5" y="-112" font-family="Helvetica,sans-Serif" font-size="10.00">VisToolLine</text>
<text text-anchor="start" x="72" y="-97" font-family="Helvetica,sans-Serif" font-size="10.00">&#45;</text>
<text text-anchor="start" x="82.5" y="-97" font-family="Helvetica,sans-Serif" font-size="10.00">point2Id</text>
<text text-anchor="start" x="69.5" y="-82" font-family="Helvetica,sans-Serif" font-size="10.00">+</text>
<text text-anchor="start" x="82.5" y="-82" font-family="Helvetica,sans-Serif" font-size="10.00">VisToolLine()</text>
<text text-anchor="start" x="69.5" y="-67" font-family="Helvetica,sans-Serif" font-size="10.00">+</text>
<text text-anchor="start" x="82.5" y="-67" font-family="Helvetica,sans-Serif" font-size="10.00">~VisToolLine()</text>
<text text-anchor="start" x="69.5" y="-52" font-family="Helvetica,sans-Serif" font-size="10.00">+</text>
<text text-anchor="start" x="82.5" y="-52" font-family="Helvetica,sans-Serif" font-size="10.00">RefreshGeometry()</text>
<text text-anchor="start" x="69.5" y="-37" font-family="Helvetica,sans-Serif" font-size="10.00">+</text>
<text text-anchor="start" x="82.5" y="-37" font-family="Helvetica,sans-Serif" font-size="10.00">setPoint2Id()</text>
<text text-anchor="start" x="69.5" y="-22" font-family="Helvetica,sans-Serif" font-size="10.00">+</text>
<text text-anchor="start" x="82.5" y="-22" font-family="Helvetica,sans-Serif" font-size="10.00">type()</text>
<text text-anchor="start" x="69.5" y="-7" font-family="Helvetica,sans-Serif" font-size="10.00">#</text>
<text text-anchor="start" x="82.5" y="-7" font-family="Helvetica,sans-Serif" font-size="10.00">DrawLine()</text>
<polygon fill="#666666" stroke="#666666" points="65.5,-107 65.5,-107 180.5,-107 180.5,-107 65.5,-107"/>
<polygon fill="#666666" stroke="#666666" points="65.5,-92 65.5,-92 80.5,-92 80.5,-92 65.5,-92"/>
<polygon fill="#666666" stroke="#666666" points="80.5,-92 80.5,-92 180.5,-92 180.5,-92 80.5,-92"/>
<polygon fill="none" stroke="#666666" points="65,0 65,-124 180,-124 180,0 65,0"/>
</a>
</g>
</g>
<!-- Node2 -->
<g id="Node000002" class="node">
<title>Node2</title>
<g id="a_Node000002"><a xlink:href="../../de/d0e/classVisLine.html" target="_top" xlink:title=" ">
<polygon fill="white" stroke="transparent" points="168.5,-359 76.5,-359 76.5,-160 168.5,-160 168.5,-359"/>
<text text-anchor="start" x="104.5" y="-346.5" font-family="Helvetica,sans-Serif" font-size="10.00">VisLine</text>
<text text-anchor="start" x="120.5" y="-331.5" font-family="Helvetica,sans-Serif" font-size="10.00"> </text>
<text text-anchor="start" x="80.5" y="-316.5" font-family="Helvetica,sans-Serif" font-size="10.00">+</text>
<text text-anchor="start" x="93.5" y="-316.5" font-family="Helvetica,sans-Serif" font-size="10.00">VisLine()</text>
<text text-anchor="start" x="80.5" y="-301.5" font-family="Helvetica,sans-Serif" font-size="10.00">+</text>
<text text-anchor="start" x="93.5" y="-301.5" font-family="Helvetica,sans-Serif" font-size="10.00">~VisLine()</text>
<text text-anchor="start" x="80.5" y="-286.5" font-family="Helvetica,sans-Serif" font-size="10.00">+</text>
<text text-anchor="start" x="93.5" y="-286.5" font-family="Helvetica,sans-Serif" font-size="10.00">type()</text>
<text text-anchor="start" x="80.5" y="-271.5" font-family="Helvetica,sans-Serif" font-size="10.00">+</text>
<text text-anchor="start" x="93.5" y="-271.5" font-family="Helvetica,sans-Serif" font-size="10.00">CorrectAngle()</text>
<text text-anchor="start" x="80.5" y="-256.5" font-family="Helvetica,sans-Serif" font-size="10.00">#</text>
<text text-anchor="start" x="93.5" y="-256.5" font-family="Helvetica,sans-Serif" font-size="10.00">Ray()</text>
<text text-anchor="start" x="80.5" y="-241.5" font-family="Helvetica,sans-Serif" font-size="10.00">#</text>
<text text-anchor="start" x="93.5" y="-241.5" font-family="Helvetica,sans-Serif" font-size="10.00">Ray()</text>
<text text-anchor="start" x="80.5" y="-226.5" font-family="Helvetica,sans-Serif" font-size="10.00">#</text>
<text text-anchor="start" x="93.5" y="-226.5" font-family="Helvetica,sans-Serif" font-size="10.00">Axis()</text>
<text text-anchor="start" x="80.5" y="-211.5" font-family="Helvetica,sans-Serif" font-size="10.00">#</text>
<text text-anchor="start" x="93.5" y="-211.5" font-family="Helvetica,sans-Serif" font-size="10.00">Axis()</text>
<text text-anchor="start" x="80.5" y="-196.5" font-family="Helvetica,sans-Serif" font-size="10.00">#</text>
<text text-anchor="start" x="93.5" y="-196.5" font-family="Helvetica,sans-Serif" font-size="10.00">initPen()</text>
<text text-anchor="start" x="80.5" y="-181.5" font-family="Helvetica,sans-Serif" font-size="10.00">#</text>
<text text-anchor="start" x="93.5" y="-181.5" font-family="Helvetica,sans-Serif" font-size="10.00">AddOnScene()</text>
<text text-anchor="start" x="80.5" y="-166.5" font-family="Helvetica,sans-Serif" font-size="10.00">#</text>
<text text-anchor="start" x="93.5" y="-166.5" font-family="Helvetica,sans-Serif" font-size="10.00">DrawRay()</text>
<polygon fill="#666666" stroke="#666666" points="76.5,-341.5 76.5,-341.5 168.5,-341.5 168.5,-341.5 76.5,-341.5"/>
<polygon fill="#666666" stroke="#666666" points="76.5,-326.5 76.5,-326.5 168.5,-326.5 168.5,-326.5 76.5,-326.5"/>
<polygon fill="none" stroke="#666666" points="76.5,-160 76.5,-359 168.5,-359 168.5,-160 76.5,-160"/>
</a>
</g>
</g>
<!-- Node2&#45;&gt;Node1 -->
<g id="edge1_Node000001_Node000002" class="edge">
<title>Node2&#45;&gt;Node1</title>
<g id="a_edge1_Node000001_Node000002"><a xlink:title=" ">
<path fill="none" stroke="#63b8ff" d="M122.5,-149.66C122.5,-140.98 122.5,-132.42 122.5,-124.25"/>
<polygon fill="none" stroke="#63b8ff" points="119,-149.89 122.5,-159.89 126,-149.89 119,-149.89"/>
</a>
</g>
</g>
<!-- Node3 -->
<g id="Node000003" class="node">
<title>Node3</title>
<g id="a_Node000003"><a xlink:href="../../d7/d24/classVisualization.html" target="_top" xlink:title=" ">
<polygon fill="white" stroke="transparent" points="115,-999 0,-999 0,-395 115,-395 115,-999"/>
<text text-anchor="start" x="26" y="-987" font-family="Helvetica,sans-Serif" font-size="10.00">Visualization</text>
<text text-anchor="start" x="4.5" y="-972" font-family="Helvetica,sans-Serif" font-size="10.00">#</text>
<text text-anchor="start" x="17.5" y="-972" font-family="Helvetica,sans-Serif" font-size="10.00">data</text>
<text text-anchor="start" x="4.5" y="-957" font-family="Helvetica,sans-Serif" font-size="10.00">#</text>
<text text-anchor="start" x="17.5" y="-957" font-family="Helvetica,sans-Serif" font-size="10.00">scenePos</text>
<text text-anchor="start" x="4.5" y="-942" font-family="Helvetica,sans-Serif" font-size="10.00">#</text>
<text text-anchor="start" x="17.5" y="-942" font-family="Helvetica,sans-Serif" font-size="10.00">mainColor</text>
<text text-anchor="start" x="4.5" y="-927" font-family="Helvetica,sans-Serif" font-size="10.00">#</text>
<text text-anchor="start" x="17.5" y="-927" font-family="Helvetica,sans-Serif" font-size="10.00">supportColor</text>
<text text-anchor="start" x="4.5" y="-912" font-family="Helvetica,sans-Serif" font-size="10.00">#</text>
<text text-anchor="start" x="17.5" y="-912" font-family="Helvetica,sans-Serif" font-size="10.00">lineStyle</text>
<text text-anchor="start" x="4.5" y="-897" font-family="Helvetica,sans-Serif" font-size="10.00">#</text>
<text text-anchor="start" x="17.5" y="-897" font-family="Helvetica,sans-Serif" font-size="10.00">lineWeight</text>
<text text-anchor="start" x="4.5" y="-882" font-family="Helvetica,sans-Serif" font-size="10.00">#</text>
<text text-anchor="start" x="17.5" y="-882" font-family="Helvetica,sans-Serif" font-size="10.00">object1Id</text>
<text text-anchor="start" x="4.5" y="-867" font-family="Helvetica,sans-Serif" font-size="10.00">#</text>
<text text-anchor="start" x="17.5" y="-867" font-family="Helvetica,sans-Serif" font-size="10.00">toolTip</text>
<text text-anchor="start" x="4.5" y="-852" font-family="Helvetica,sans-Serif" font-size="10.00">#</text>
<text text-anchor="start" x="17.5" y="-852" font-family="Helvetica,sans-Serif" font-size="10.00">mode</text>
<text text-anchor="start" x="4.5" y="-837" font-family="Helvetica,sans-Serif" font-size="10.00">+</text>
<text text-anchor="start" x="17.5" y="-837" font-family="Helvetica,sans-Serif" font-size="10.00">Visualization()</text>
<text text-anchor="start" x="4.5" y="-822" font-family="Helvetica,sans-Serif" font-size="10.00">+</text>
<text text-anchor="start" x="17.5" y="-822" font-family="Helvetica,sans-Serif" font-size="10.00">~Visualization()</text>
<text text-anchor="start" x="4.5" y="-807" font-family="Helvetica,sans-Serif" font-size="10.00">+</text>
<text text-anchor="start" x="17.5" y="-807" font-family="Helvetica,sans-Serif" font-size="10.00">RefreshGeometry()</text>
<text text-anchor="start" x="4.5" y="-792" font-family="Helvetica,sans-Serif" font-size="10.00">+</text>
<text text-anchor="start" x="17.5" y="-792" font-family="Helvetica,sans-Serif" font-size="10.00">setObject1Id()</text>
<text text-anchor="start" x="4.5" y="-777" font-family="Helvetica,sans-Serif" font-size="10.00">+</text>
<text text-anchor="start" x="17.5" y="-777" font-family="Helvetica,sans-Serif" font-size="10.00">setLineStyle()</text>
<text text-anchor="start" x="4.5" y="-762" font-family="Helvetica,sans-Serif" font-size="10.00">+</text>
<text text-anchor="start" x="17.5" y="-762" font-family="Helvetica,sans-Serif" font-size="10.00">setLineWeight()</text>
<text text-anchor="start" x="4.5" y="-747" font-family="Helvetica,sans-Serif" font-size="10.00">+</text>
<text text-anchor="start" x="17.5" y="-747" font-family="Helvetica,sans-Serif" font-size="10.00">setScenePos()</text>
<text text-anchor="start" x="4.5" y="-732" font-family="Helvetica,sans-Serif" font-size="10.00">+</text>
<text text-anchor="start" x="17.5" y="-732" font-family="Helvetica,sans-Serif" font-size="10.00">VisualMode()</text>
<text text-anchor="start" x="4.5" y="-717" font-family="Helvetica,sans-Serif" font-size="10.00">+</text>
<text text-anchor="start" x="17.5" y="-717" font-family="Helvetica,sans-Serif" font-size="10.00">setMainColor()</text>
<text text-anchor="start" x="4.5" y="-702" font-family="Helvetica,sans-Serif" font-size="10.00">+</text>
<text text-anchor="start" x="17.5" y="-702" font-family="Helvetica,sans-Serif" font-size="10.00">getData()</text>
<text text-anchor="start" x="4.5" y="-687" font-family="Helvetica,sans-Serif" font-size="10.00">+</text>
<text text-anchor="start" x="17.5" y="-687" font-family="Helvetica,sans-Serif" font-size="10.00">setData()</text>
<text text-anchor="start" x="4.5" y="-672" font-family="Helvetica,sans-Serif" font-size="10.00">+</text>
<text text-anchor="start" x="17.5" y="-672" font-family="Helvetica,sans-Serif" font-size="10.00">GetMode()</text>
<text text-anchor="start" x="4.5" y="-657" font-family="Helvetica,sans-Serif" font-size="10.00">+</text>
<text text-anchor="start" x="17.5" y="-657" font-family="Helvetica,sans-Serif" font-size="10.00">SetMode()</text>
<text text-anchor="start" x="4.5" y="-642" font-family="Helvetica,sans-Serif" font-size="10.00">+</text>
<text text-anchor="start" x="17.5" y="-642" font-family="Helvetica,sans-Serif" font-size="10.00">CurrentToolTip()</text>
<text text-anchor="start" x="4.5" y="-627" font-family="Helvetica,sans-Serif" font-size="10.00">+</text>
<text text-anchor="start" x="17.5" y="-627" font-family="Helvetica,sans-Serif" font-size="10.00">FindLength()</text>
<text text-anchor="start" x="4.5" y="-612" font-family="Helvetica,sans-Serif" font-size="10.00">+</text>
<text text-anchor="start" x="17.5" y="-612" font-family="Helvetica,sans-Serif" font-size="10.00">FindVal()</text>
<text text-anchor="start" x="4.5" y="-597" font-family="Helvetica,sans-Serif" font-size="10.00">+</text>
<text text-anchor="start" x="17.5" y="-597" font-family="Helvetica,sans-Serif" font-size="10.00">mousePos()</text>
<text text-anchor="start" x="4.5" y="-582" font-family="Helvetica,sans-Serif" font-size="10.00">#</text>
<text text-anchor="start" x="17.5" y="-582" font-family="Helvetica,sans-Serif" font-size="10.00">initPen()</text>
<text text-anchor="start" x="4.5" y="-567" font-family="Helvetica,sans-Serif" font-size="10.00">#</text>
<text text-anchor="start" x="17.5" y="-567" font-family="Helvetica,sans-Serif" font-size="10.00">AddOnScene()</text>
<text text-anchor="start" x="4.5" y="-552" font-family="Helvetica,sans-Serif" font-size="10.00">#</text>
<text text-anchor="start" x="17.5" y="-552" font-family="Helvetica,sans-Serif" font-size="10.00">InitPoint()</text>
<text text-anchor="start" x="4.5" y="-537" font-family="Helvetica,sans-Serif" font-size="10.00">#</text>
<text text-anchor="start" x="17.5" y="-537" font-family="Helvetica,sans-Serif" font-size="10.00">DrawPoint()</text>
<text text-anchor="start" x="4.5" y="-522" font-family="Helvetica,sans-Serif" font-size="10.00">#</text>
<text text-anchor="start" x="17.5" y="-522" font-family="Helvetica,sans-Serif" font-size="10.00">DrawLine()</text>
<text text-anchor="start" x="4.5" y="-507" font-family="Helvetica,sans-Serif" font-size="10.00">#</text>
<text text-anchor="start" x="17.5" y="-507" font-family="Helvetica,sans-Serif" font-size="10.00">DrawPath()</text>
<text text-anchor="start" x="4.5" y="-492" font-family="Helvetica,sans-Serif" font-size="10.00">#</text>
<text text-anchor="start" x="17.5" y="-492" font-family="Helvetica,sans-Serif" font-size="10.00">DrawPath()</text>
<text text-anchor="start" x="4.5" y="-477" font-family="Helvetica,sans-Serif" font-size="10.00">#</text>
<text text-anchor="start" x="17.5" y="-477" font-family="Helvetica,sans-Serif" font-size="10.00">drawArrowedLine()</text>
<text text-anchor="start" x="4.5" y="-462" font-family="Helvetica,sans-Serif" font-size="10.00">#</text>
<text text-anchor="start" x="17.5" y="-462" font-family="Helvetica,sans-Serif" font-size="10.00">drawArrow()</text>
<text text-anchor="start" x="4.5" y="-447" font-family="Helvetica,sans-Serif" font-size="10.00">#</text>
<text text-anchor="start" x="17.5" y="-447" font-family="Helvetica,sans-Serif" font-size="10.00">addItem()</text>
<text text-anchor="start" x="4.5" y="-432" font-family="Helvetica,sans-Serif" font-size="10.00">#</text>
<text text-anchor="start" x="17.5" y="-432" font-family="Helvetica,sans-Serif" font-size="10.00">InitItem()</text>
<text text-anchor="start" x="4.5" y="-417" font-family="Helvetica,sans-Serif" font-size="10.00">#</text>
<text text-anchor="start" x="17.5" y="-417" font-family="Helvetica,sans-Serif" font-size="10.00">GetPointItem()</text>
<text text-anchor="start" x="7" y="-402" font-family="Helvetica,sans-Serif" font-size="10.00">&#45;</text>
<text text-anchor="start" x="17.5" y="-402" font-family="Helvetica,sans-Serif" font-size="10.00">initPointItem()</text>
<polygon fill="#666666" stroke="#666666" points="0.5,-982 0.5,-982 115.5,-982 115.5,-982 0.5,-982"/>
<polygon fill="#666666" stroke="#666666" points="0.5,-847 0.5,-847 15.5,-847 15.5,-847 0.5,-847"/>
<polygon fill="#666666" stroke="#666666" points="15.5,-847 15.5,-847 115.5,-847 115.5,-847 15.5,-847"/>
<polygon fill="none" stroke="#666666" points="0,-395 0,-999 115,-999 115,-395 0,-395"/>
</a>
</g>
</g>
<!-- Node3&#45;&gt;Node2 -->
<g id="edge2_Node000002_Node000003" class="edge">
<title>Node3&#45;&gt;Node2</title>
<g id="a_edge2_Node000002_Node000003"><a xlink:title=" ">
<path fill="none" stroke="#63b8ff" d="M103.96,-384.74C105.26,-375.99 106.53,-367.49 107.75,-359.31"/>
<polygon fill="none" stroke="#63b8ff" points="100.48,-384.31 102.47,-394.72 107.41,-385.34 100.48,-384.31"/>
</a>
</g>
</g>
<!-- Node4 -->
<g id="Node000004" class="node">
<title>Node4</title>
<g id="a_Node000004"><a xlink:title=" ">
<polygon fill="white" stroke="transparent" points="82.5,-1084 32.5,-1084 32.5,-1035 82.5,-1035 82.5,-1084"/>
<text text-anchor="start" x="37.5" y="-1071.5" font-family="Helvetica,sans-Serif" font-size="10.00">QObject</text>
<text text-anchor="start" x="55.5" y="-1056.5" font-family="Helvetica,sans-Serif" font-size="10.00"> </text>
<text text-anchor="start" x="55.5" y="-1041.5" font-family="Helvetica,sans-Serif" font-size="10.00"> </text>
<polygon fill="#666666" stroke="#666666" points="32.5,-1066.5 32.5,-1066.5 82.5,-1066.5 82.5,-1066.5 32.5,-1066.5"/>
<polygon fill="#666666" stroke="#666666" points="32.5,-1051.5 32.5,-1051.5 82.5,-1051.5 82.5,-1051.5 32.5,-1051.5"/>
<polygon fill="none" stroke="#666666" points="32.5,-1035 32.5,-1084 82.5,-1084 82.5,-1035 32.5,-1035"/>
</a>
</g>
</g>
<!-- Node4&#45;&gt;Node3 -->
<g id="edge3_Node000003_Node000004" class="edge">
<title>Node4&#45;&gt;Node3</title>
<g id="a_edge3_Node000003_Node000004"><a xlink:title=" ">
<path fill="none" stroke="#63b8ff" d="M57.5,-1024.83C57.5,-1017.23 57.5,-1008.56 57.5,-999.06"/>
<polygon fill="none" stroke="#63b8ff" points="54,-1024.85 57.5,-1034.85 61,-1024.85 54,-1024.85"/>
</a>
</g>
</g>
<!-- Node5 -->
<g id="Node000005" class="node">
<title>Node5</title>
<g id="a_Node000005"><a xlink:href="../../dd/da2/classVScaledLine.html" target="_top" xlink:title=" ">
<polygon fill="white" stroke="transparent" points="242,-766.5 133,-766.5 133,-627.5 242,-627.5 242,-766.5"/>
<text text-anchor="start" x="158" y="-754" font-family="Helvetica,sans-Serif" font-size="10.00">VScaledLine</text>
<text text-anchor="start" x="140" y="-739" font-family="Helvetica,sans-Serif" font-size="10.00">&#45;</text>
<text text-anchor="start" x="150.5" y="-739" font-family="Helvetica,sans-Serif" font-size="10.00">m_defaultWidth</text>
<text text-anchor="start" x="137.5" y="-724" font-family="Helvetica,sans-Serif" font-size="10.00">+</text>
<text text-anchor="start" x="150.5" y="-724" font-family="Helvetica,sans-Serif" font-size="10.00">VScaledLine()</text>
<text text-anchor="start" x="137.5" y="-709" font-family="Helvetica,sans-Serif" font-size="10.00">+</text>
<text text-anchor="start" x="150.5" y="-709" font-family="Helvetica,sans-Serif" font-size="10.00">VScaledLine()</text>
<text text-anchor="start" x="137.5" y="-694" font-family="Helvetica,sans-Serif" font-size="10.00">+</text>
<text text-anchor="start" x="150.5" y="-694" font-family="Helvetica,sans-Serif" font-size="10.00">~VScaledLine()</text>
<text text-anchor="start" x="137.5" y="-679" font-family="Helvetica,sans-Serif" font-size="10.00">+</text>
<text text-anchor="start" x="150.5" y="-679" font-family="Helvetica,sans-Serif" font-size="10.00">type()</text>
<text text-anchor="start" x="137.5" y="-664" font-family="Helvetica,sans-Serif" font-size="10.00">+</text>
<text text-anchor="start" x="150.5" y="-664" font-family="Helvetica,sans-Serif" font-size="10.00">paint()</text>
<text text-anchor="start" x="137.5" y="-649" font-family="Helvetica,sans-Serif" font-size="10.00">+</text>
<text text-anchor="start" x="150.5" y="-649" font-family="Helvetica,sans-Serif" font-size="10.00">getDefaultWidth()</text>
<text text-anchor="start" x="137.5" y="-634" font-family="Helvetica,sans-Serif" font-size="10.00">+</text>
<text text-anchor="start" x="150.5" y="-634" font-family="Helvetica,sans-Serif" font-size="10.00">setDefaultWidth()</text>
<polygon fill="#666666" stroke="#666666" points="133.5,-749 133.5,-749 242.5,-749 242.5,-749 133.5,-749"/>
<polygon fill="#666666" stroke="#666666" points="133.5,-734 133.5,-734 148.5,-734 148.5,-734 133.5,-734"/>
<polygon fill="#666666" stroke="#666666" points="148.5,-734 148.5,-734 242.5,-734 242.5,-734 148.5,-734"/>
<polygon fill="none" stroke="#666666" points="133,-627.5 133,-766.5 242,-766.5 242,-627.5 133,-627.5"/>
</a>
</g>
</g>
<!-- Node5&#45;&gt;Node2 -->
<g id="edge4_Node000002_Node000005" class="edge">
<title>Node5&#45;&gt;Node2</title>
<g id="a_edge4_Node000002_Node000005"><a xlink:title=" ">
<path fill="none" stroke="#63b8ff" d="M175.78,-617.51C164.99,-545.18 148.92,-437.54 137.26,-359.37"/>
<polygon fill="none" stroke="#63b8ff" points="172.33,-618.1 177.27,-627.47 179.26,-617.07 172.33,-618.1"/>
</a>
</g>
</g>
<!-- Node6 -->
<g id="Node000006" class="node">
<title>Node6</title>
<g id="a_Node000006"><a xlink:title=" ">
<polygon fill="white" stroke="transparent" points="239.5,-1084 135.5,-1084 135.5,-1035 239.5,-1035 239.5,-1084"/>
<text text-anchor="start" x="140.5" y="-1071.5" font-family="Helvetica,sans-Serif" font-size="10.00">QGraphicsLineItem</text>
<text text-anchor="start" x="185.5" y="-1056.5" font-family="Helvetica,sans-Serif" font-size="10.00"> </text>
<text text-anchor="start" x="185.5" y="-1041.5" font-family="Helvetica,sans-Serif" font-size="10.00"> </text>
<polygon fill="#666666" stroke="#666666" points="135.5,-1066.5 135.5,-1066.5 239.5,-1066.5 239.5,-1066.5 135.5,-1066.5"/>
<polygon fill="#666666" stroke="#666666" points="135.5,-1051.5 135.5,-1051.5 239.5,-1051.5 239.5,-1051.5 135.5,-1051.5"/>
<polygon fill="none" stroke="#666666" points="135.5,-1035 135.5,-1084 239.5,-1084 239.5,-1035 135.5,-1035"/>
</a>
</g>
</g>
<!-- Node6&#45;&gt;Node5 -->
<g id="edge5_Node000005_Node000006" class="edge">
<title>Node6&#45;&gt;Node5</title>
<g id="a_edge5_Node000005_Node000006"><a xlink:title=" ">
<path fill="none" stroke="#63b8ff" d="M187.5,-1024.63C187.5,-965.83 187.5,-843.79 187.5,-766.67"/>
<polygon fill="none" stroke="#63b8ff" points="184,-1024.85 187.5,-1034.85 191,-1024.85 184,-1024.85"/>
</a>
</g>
</g>
</g>
</svg>
