<?xml version="1.0" encoding="UTF-8" standalone="no"?>
<!DOCTYPE svg PUBLIC "-//W3C//DTD SVG 1.1//EN"
 "http://www.w3.org/Graphics/SVG/1.1/DTD/svg11.dtd">
<!-- Generated by graphviz version 2.43.0 (0)
 -->
<!-- Title: halfedge_s Pages: 1 -->
<svg width="180pt" height="183pt"
 viewBox="0.00 0.00 180.00 183.00" xmlns="http://www.w3.org/2000/svg" xmlns:xlink="http://www.w3.org/1999/xlink">
<g id="graph0" class="graph" transform="scale(1 1) rotate(0) translate(4 179)">
<title>halfedge_s</title>
<!-- Node1 -->
<g id="Node000001" class="node">
<title>Node1</title>
<g id="a_Node000001"><a xlink:title=" ">
<polygon fill="#999999" stroke="transparent" points="110,-175 46,-175 46,-126 110,-126 110,-175"/>
<text text-anchor="start" x="51" y="-162.5" font-family="Helvetica,sans-Serif" font-size="10.00">halfedge_s</text>
<text text-anchor="start" x="76" y="-147.5" font-family="Helvetica,sans-Serif" font-size="10.00"> </text>
<text text-anchor="start" x="76" y="-132.5" font-family="Helvetica,sans-Serif" font-size="10.00"> </text>
<polygon fill="#666666" stroke="#666666" points="46,-157.5 46,-157.5 110,-157.5 110,-157.5 46,-157.5"/>
<polygon fill="#666666" stroke="#666666" points="46,-142.5 46,-142.5 110,-142.5 110,-142.5 46,-142.5"/>
<polygon fill="none" stroke="#666666" points="46,-126 46,-175 110,-175 110,-126 46,-126"/>
</a>
</g>
</g>
<!-- Node1&#45;&gt;Node1 -->
<g id="edge3_Node000001_Node000001" class="edge">
<title>Node1&#45;&gt;Node1</title>
<g id="a_edge3_Node000001_Node000001"><a xlink:title=" ">
<path fill="none" stroke="#63b8ff" d="M110.22,-159.49C120.18,-159.31 128,-156.31 128,-150.5 128,-147.41 125.79,-145.12 122.23,-143.62"/>
<polygon fill="none" stroke="#63b8ff" points="122.04,-143.59 115.44,-146.49 110.22,-141.51 116.82,-138.61 122.04,-143.59"/>
</a>
</g>
<text text-anchor="middle" x="145" y="-159" font-family="Helvetica,sans-Serif" font-size="10.00" fill="grey"> +next</text>
<text text-anchor="middle" x="145" y="-148" font-family="Helvetica,sans-Serif" font-size="10.00" fill="grey">+pair</text>
<text text-anchor="middle" x="145" y="-137" font-family="Helvetica,sans-Serif" font-size="10.00" fill="grey">+prev</text>
</g>
<!-- Node2 -->
<g id="Node000002" class="node">
<title>Node2</title>
<g id="a_Node000002"><a xlink:href="../../dc/d79/structpoint2d__s.html" target="_top" xlink:title=" ">
<polygon fill="white" stroke="transparent" points="58,-79 0,-79 0,0 58,0 58,-79"/>
<text text-anchor="start" x="5" y="-66.5" font-family="Helvetica,sans-Serif" font-size="10.00">point2d_s</text>
<text text-anchor="start" x="9" y="-51.5" font-family="Helvetica,sans-Serif" font-size="10.00">+</text>
<text text-anchor="start" x="27" y="-51.5" font-family="Helvetica,sans-Serif" font-size="10.00">x</text>
<text text-anchor="start" x="9" y="-36.5" font-family="Helvetica,sans-Serif" font-size="10.00">+</text>
<text text-anchor="start" x="27" y="-36.5" font-family="Helvetica,sans-Serif" font-size="10.00">y</text>
<text text-anchor="start" x="9" y="-21.5" font-family="Helvetica,sans-Serif" font-size="10.00">+</text>
<text text-anchor="start" x="27" y="-21.5" font-family="Helvetica,sans-Serif" font-size="10.00">idx</text>
<text text-anchor="start" x="27" y="-6.5" font-family="Helvetica,sans-Serif" font-size="10.00"> </text>
<polygon fill="#666666" stroke="#666666" points="0,-61.5 0,-61.5 58,-61.5 58,-61.5 0,-61.5"/>
<polygon fill="#666666" stroke="#666666" points="0,-16.5 0,-16.5 25,-16.5 25,-16.5 0,-16.5"/>
<polygon fill="#666666" stroke="#666666" points="25,-16.5 25,-16.5 58,-16.5 58,-16.5 25,-16.5"/>
<polygon fill="none" stroke="#666666" points="0,0 0,-79 58,-79 58,0 0,0"/>
</a>
</g>
</g>
<!-- Node1&#45;&gt;Node2 -->
<g id="edge2_Node000002_Node000001" class="edge">
<title>Node1&#45;&gt;Node2</title>
<g id="a_edge2_Node000002_Node000001"><a xlink:title=" ">
<path fill="none" stroke="#63b8ff" d="M45.74,-136.71C33.52,-130.09 20.89,-120.68 14,-108 11.18,-102.8 9.99,-97.1 9.93,-91.29"/>
<polygon fill="none" stroke="#63b8ff" points="9.93,-91.25 6.58,-84.87 11.19,-79.32 14.54,-85.71 9.93,-91.25"/>
</a>
</g>
<text text-anchor="middle" x="26" y="-100" font-family="Helvetica,sans-Serif" font-size="10.00" fill="grey"> +he</text>
</g>
<!-- Node3 -->
<g id="Node000003" class="node">
<title>Node3</title>
<g id="a_Node000003"><a xlink:href="../../d3/d07/structface__s.html" target="_top" xlink:title=" ">
<polygon fill="white" stroke="transparent" points="163.5,-64 90.5,-64 90.5,-15 163.5,-15 163.5,-64"/>
<text text-anchor="start" x="111.5" y="-51.5" font-family="Helvetica,sans-Serif" font-size="10.00">face_s</text>
<text text-anchor="start" x="95" y="-36.5" font-family="Helvetica,sans-Serif" font-size="10.00">+</text>
<text text-anchor="start" x="108" y="-36.5" font-family="Helvetica,sans-Serif" font-size="10.00">num_verts</text>
<text text-anchor="start" x="125.5" y="-21.5" font-family="Helvetica,sans-Serif" font-size="10.00"> </text>
<polygon fill="#666666" stroke="#666666" points="91,-46.5 91,-46.5 164,-46.5 164,-46.5 91,-46.5"/>
<polygon fill="#666666" stroke="#666666" points="91,-31.5 91,-31.5 106,-31.5 106,-31.5 91,-31.5"/>
<polygon fill="#666666" stroke="#666666" points="106,-31.5 106,-31.5 164,-31.5 164,-31.5 106,-31.5"/>
<polygon fill="none" stroke="#666666" points="90.5,-15 90.5,-64 163.5,-64 163.5,-15 90.5,-15"/>
</a>
</g>
</g>
<!-- Node1&#45;&gt;Node3 -->
<g id="edge5_Node000003_Node000001" class="edge">
<title>Node1&#45;&gt;Node3</title>
<g id="a_edge5_Node000003_Node000001"><a xlink:title=" ">
<path fill="none" stroke="#63b8ff" d="M88.63,-125.85C95.25,-111.14 103.87,-91.95 111.27,-75.5"/>
<polygon fill="none" stroke="#63b8ff" points="111.47,-75.05 110.28,-67.94 116.39,-64.11 117.58,-71.22 111.47,-75.05"/>
</a>
</g>
<text text-anchor="middle" x="114" y="-100" font-family="Helvetica,sans-Serif" font-size="10.00" fill="grey"> +he</text>
</g>
<!-- Node2&#45;&gt;Node1 -->
<g id="edge1_Node000001_Node000002" class="edge">
<title>Node2&#45;&gt;Node1</title>
<g id="a_edge1_Node000001_Node000002"><a xlink:title=" ">
<path fill="none" stroke="#63b8ff" d="M35.89,-79.3C38.37,-88.96 41.67,-99.08 46,-108 47.24,-110.56 48.65,-113.1 50.18,-115.61"/>
<polygon fill="none" stroke="#63b8ff" points="50.2,-115.65 56.88,-118.37 56.93,-125.58 50.26,-122.86 50.2,-115.65"/>
</a>
</g>
<text text-anchor="middle" x="67.5" y="-100" font-family="Helvetica,sans-Serif" font-size="10.00" fill="grey"> +vertex</text>
</g>
<!-- Node3&#45;&gt;Node1 -->
<g id="edge4_Node000001_Node000003" class="edge">
<title>Node3&#45;&gt;Node1</title>
<g id="a_edge4_Node000001_Node000003"><a xlink:title=" ">
<path fill="none" stroke="#63b8ff" d="M136.69,-64.16C140.67,-77.67 142.92,-94.54 136,-108 132.2,-115.4 126.39,-121.77 119.9,-127.15"/>
<polygon fill="none" stroke="#63b8ff" points="119.76,-127.25 117.26,-134.02 110.06,-134.32 112.55,-127.55 119.76,-127.25"/>
</a>
</g>
<text text-anchor="middle" x="155.5" y="-100" font-family="Helvetica,sans-Serif" font-size="10.00" fill="grey"> +face</text>
</g>
</g>
</svg>
