<?xml version="1.0" encoding="UTF-8" standalone="no"?>
<!DOCTYPE svg PUBLIC "-//W3C//DTD SVG 1.1//EN"
 "http://www.w3.org/Graphics/SVG/1.1/DTD/svg11.dtd">
<!-- Generated by graphviz version 2.43.0 (0)
 -->
<!-- Title: VCubicBezierPathData Pages: 1 -->
<svg width="154pt" height="187pt"
 viewBox="0.00 0.00 154.00 187.00" xmlns="http://www.w3.org/2000/svg" xmlns:xlink="http://www.w3.org/1999/xlink">
<g id="graph0" class="graph" transform="scale(1 1) rotate(0) translate(4 183)">
<title>VCubicBezierPathData</title>
<!-- Node1 -->
<g id="Node000001" class="node">
<title>Node1</title>
<g id="a_Node000001"><a xlink:title=" ">
<polygon fill="#999999" stroke="transparent" points="146,-94 0,-94 0,0 146,0 146,-94"/>
<text text-anchor="start" x="18.5" y="-82" font-family="Helvetica,sans-Serif" font-size="10.00">VCubicBezierPathData</text>
<text text-anchor="start" x="4" y="-67" font-family="Helvetica,sans-Serif" font-size="10.00">+</text>
<text text-anchor="start" x="17" y="-67" font-family="Helvetica,sans-Serif" font-size="10.00">path</text>
<text text-anchor="start" x="4" y="-52" font-family="Helvetica,sans-Serif" font-size="10.00">+</text>
<text text-anchor="start" x="17" y="-52" font-family="Helvetica,sans-Serif" font-size="10.00">VCubicBezierPathData()</text>
<text text-anchor="start" x="4" y="-37" font-family="Helvetica,sans-Serif" font-size="10.00">+</text>
<text text-anchor="start" x="17" y="-37" font-family="Helvetica,sans-Serif" font-size="10.00">VCubicBezierPathData()</text>
<text text-anchor="start" x="4" y="-22" font-family="Helvetica,sans-Serif" font-size="10.00">+</text>
<text text-anchor="start" x="17" y="-22" font-family="Helvetica,sans-Serif" font-size="10.00">~VCubicBezierPathData()</text>
<text text-anchor="start" x="6.5" y="-7" font-family="Helvetica,sans-Serif" font-size="10.00">&#45;</text>
<text text-anchor="start" x="17" y="-7" font-family="Helvetica,sans-Serif" font-size="10.00">operator=()</text>
<polygon fill="#666666" stroke="#666666" points="0,-77 0,-77 146,-77 146,-77 0,-77"/>
<polygon fill="#666666" stroke="#666666" points="0,-62 0,-62 15,-62 15,-62 0,-62"/>
<polygon fill="#666666" stroke="#666666" points="15,-62 15,-62 146,-62 146,-62 15,-62"/>
<polygon fill="none" stroke="#666666" points="0,0 0,-94 146,-94 146,0 0,0"/>
</a>
</g>
</g>
<!-- Node2 -->
<g id="Node000002" class="node">
<title>Node2</title>
<g id="a_Node000002"><a xlink:title=" ">
<polygon fill="white" stroke="transparent" points="110.5,-179 35.5,-179 35.5,-130 110.5,-130 110.5,-179"/>
<text text-anchor="start" x="41" y="-166.5" font-family="Helvetica,sans-Serif" font-size="10.00">QSharedData</text>
<text text-anchor="start" x="71.5" y="-151.5" font-family="Helvetica,sans-Serif" font-size="10.00"> </text>
<text text-anchor="start" x="71.5" y="-136.5" font-family="Helvetica,sans-Serif" font-size="10.00"> </text>
<polygon fill="#666666" stroke="#666666" points="36,-161.5 36,-161.5 111,-161.5 111,-161.5 36,-161.5"/>
<polygon fill="#666666" stroke="#666666" points="36,-146.5 36,-146.5 111,-146.5 111,-146.5 36,-146.5"/>
<polygon fill="none" stroke="#666666" points="35.5,-130 35.5,-179 110.5,-179 110.5,-130 35.5,-130"/>
</a>
</g>
</g>
<!-- Node2&#45;&gt;Node1 -->
<g id="edge1_Node000001_Node000002" class="edge">
<title>Node2&#45;&gt;Node1</title>
<g id="a_edge1_Node000001_Node000002"><a xlink:title=" ">
<path fill="none" stroke="#63b8ff" d="M73,-119.61C73,-111.48 73,-102.66 73,-94.08"/>
<polygon fill="none" stroke="#63b8ff" points="69.5,-119.82 73,-129.82 76.5,-119.82 69.5,-119.82"/>
</a>
</g>
</g>
</g>
</svg>
