<?xml version="1.0" encoding="UTF-8" standalone="no"?>
<!DOCTYPE svg PUBLIC "-//W3C//DTD SVG 1.1//EN"
 "http://www.w3.org/Graphics/SVG/1.1/DTD/svg11.dtd">
<!-- Generated by graphviz version 2.43.0 (0)
 -->
<!-- Title: src/libs/vtools/tools/drawTools/toolpoint/toolsinglepoint/vtoolpointofcontact.h Pages: 1 -->
<svg width="548pt" height="192pt"
 viewBox="0.00 0.00 548.00 192.00" xmlns="http://www.w3.org/2000/svg" xmlns:xlink="http://www.w3.org/1999/xlink">
<g id="graph0" class="graph" transform="scale(1 1) rotate(0) translate(4 188)">
<title>src/libs/vtools/tools/drawTools/toolpoint/toolsinglepoint/vtoolpointofcontact.h</title>
<!-- Node1 -->
<g id="Node000001" class="node">
<title>Node1</title>
<g id="a_Node000001"><a xlink:title=" ">
<polygon fill="#999999" stroke="#666666" points="352,-184 152,-184 152,-143 352,-143 352,-184"/>
<text text-anchor="start" x="160" y="-172" font-family="Helvetica,sans-Serif" font-size="10.00">src/libs/vtools/tools</text>
<text text-anchor="start" x="160" y="-161" font-family="Helvetica,sans-Serif" font-size="10.00">/drawTools/toolpoint</text>
<text text-anchor="middle" x="252" y="-150" font-family="Helvetica,sans-Serif" font-size="10.00">/toolsinglepoint/vtoolpointofcontact.h</text>
</a>
</g>
</g>
<!-- Node2 -->
<g id="Node000002" class="node">
<title>Node2</title>
<g id="a_Node000002"><a xlink:href="../../d4/d56/drawtools_8h.html" target="_top" xlink:title=" ">
<polygon fill="white" stroke="#666666" points="128,-101.5 0,-101.5 0,-71.5 128,-71.5 128,-101.5"/>
<text text-anchor="start" x="8" y="-89.5" font-family="Helvetica,sans-Serif" font-size="10.00">src/libs/vtools/tools</text>
<text text-anchor="middle" x="64" y="-78.5" font-family="Helvetica,sans-Serif" font-size="10.00">/drawTools/drawtools.h</text>
</a>
</g>
</g>
<!-- Node1&#45;&gt;Node2 -->
<g id="edge1_Node000001_Node000002" class="edge">
<title>Node1&#45;&gt;Node2</title>
<g id="a_edge1_Node000001_Node000002"><a xlink:title=" ">
<path fill="none" stroke="#63b8ff" d="M193.72,-139.25C162.81,-126.92 125.85,-112.17 99.3,-101.58"/>
<polygon fill="#63b8ff" stroke="#63b8ff" points="192.51,-142.54 203.1,-142.99 195.1,-136.03 192.51,-142.54"/>
</a>
</g>
</g>
<!-- Node4 -->
<g id="Node000004" class="node">
<title>Node4</title>
<g id="a_Node000004"><a xlink:href="../../d0/dad/vtoolpointofcontact_8cpp.html" target="_top" xlink:title=" ">
<polygon fill="white" stroke="#666666" points="357.5,-107 146.5,-107 146.5,-66 357.5,-66 357.5,-107"/>
<text text-anchor="start" x="154.5" y="-95" font-family="Helvetica,sans-Serif" font-size="10.00">src/libs/vtools/tools</text>
<text text-anchor="start" x="154.5" y="-84" font-family="Helvetica,sans-Serif" font-size="10.00">/drawTools/toolpoint</text>
<text text-anchor="middle" x="252" y="-73" font-family="Helvetica,sans-Serif" font-size="10.00">/toolsinglepoint/vtoolpointofcontact.cpp</text>
</a>
</g>
</g>
<!-- Node1&#45;&gt;Node4 -->
<g id="edge3_Node000001_Node000004" class="edge">
<title>Node1&#45;&gt;Node4</title>
<g id="a_edge3_Node000001_Node000004"><a xlink:title=" ">
<path fill="none" stroke="#63b8ff" d="M252,-132.69C252,-124.08 252,-114.9 252,-107.07"/>
<polygon fill="#63b8ff" stroke="#63b8ff" points="248.5,-132.79 252,-142.79 255.5,-132.79 248.5,-132.79"/>
</a>
</g>
</g>
<!-- Node5 -->
<g id="Node000005" class="node">
<title>Node5</title>
<g id="a_Node000005"><a xlink:href="../../d5/df5/vistoolpointofcontact_8cpp.html" target="_top" xlink:title=" ">
<polygon fill="white" stroke="#666666" points="540,-101.5 376,-101.5 376,-71.5 540,-71.5 540,-101.5"/>
<text text-anchor="start" x="384" y="-89.5" font-family="Helvetica,sans-Serif" font-size="10.00">src/libs/vtools/visualization</text>
<text text-anchor="middle" x="458" y="-78.5" font-family="Helvetica,sans-Serif" font-size="10.00">/line/vistoolpointofcontact.cpp</text>
</a>
</g>
</g>
<!-- Node1&#45;&gt;Node5 -->
<g id="edge4_Node000001_Node000005" class="edge">
<title>Node1&#45;&gt;Node5</title>
<g id="a_edge4_Node000001_Node000005"><a xlink:title=" ">
<path fill="none" stroke="#63b8ff" d="M314.99,-139.57C349.03,-127.17 389.98,-112.26 419.32,-101.58"/>
<polygon fill="#63b8ff" stroke="#63b8ff" points="313.79,-136.28 305.59,-142.99 316.18,-142.86 313.79,-136.28"/>
</a>
</g>
</g>
<!-- Node3 -->
<g id="Node000003" class="node">
<title>Node3</title>
<g id="a_Node000003"><a xlink:href="../../d5/da5/tools_8h.html" target="_top" xlink:title=" ">
<polygon fill="white" stroke="#666666" points="119.5,-30 8.5,-30 8.5,0 119.5,0 119.5,-30"/>
<text text-anchor="start" x="16.5" y="-18" font-family="Helvetica,sans-Serif" font-size="10.00">src/libs/vtools/tools</text>
<text text-anchor="middle" x="64" y="-7" font-family="Helvetica,sans-Serif" font-size="10.00">/tools.h</text>
</a>
</g>
</g>
<!-- Node2&#45;&gt;Node3 -->
<g id="edge2_Node000002_Node000003" class="edge">
<title>Node2&#45;&gt;Node3</title>
<g id="a_edge2_Node000002_Node000003"><a xlink:title=" ">
<path fill="none" stroke="#63b8ff" d="M64,-61.25C64,-50.81 64,-38.99 64,-30.04"/>
<polygon fill="#63b8ff" stroke="#63b8ff" points="60.5,-61.44 64,-71.44 67.5,-61.44 60.5,-61.44"/>
</a>
</g>
</g>
</g>
</svg>
