<?xml version="1.0" encoding="UTF-8" standalone="no"?>
<!DOCTYPE svg PUBLIC "-//W3C//DTD SVG 1.1//EN"
 "http://www.w3.org/Graphics/SVG/1.1/DTD/svg11.dtd">
<!-- Generated by graphviz version 2.43.0 (0)
 -->
<!-- Title: src/libs/vtools/visualization/line/operation/vistoolrotation.h Pages: 1 -->
<!--zoomable 214 -->

<svg id="main" version="1.1" xmlns="http://www.w3.org/2000/svg" xmlns:xlink="http://www.w3.org/1999/xlink" xml:space="preserve" onload="init(evt)">
<style type="text/css"><![CDATA[
.node, .edge {opacity: 0.7;}
.node.selected, .edge.selected {opacity: 1;}
.edge:hover path { stroke: red; }
.edge:hover polygon { stroke: red; fill: red; }
]]></style>

<defs>
  <circle id="rim" cx="0" cy="0" r="7"/>
  <circle id="rim2" cx="0" cy="0" r="3.5"/>
  <g id="zoomPlus">
    <use xlink:href="#rim" fill="#404040"><set attributeName="fill" to="#808080" begin="zoomplus.mouseover" end="zoomplus.mouseout"/></use>
    <path d="M-4,0h8M0,-4v8" fill="none" stroke="white" stroke-width="1.5" pointer-events="none"/>
  </g>
  <g id="zoomMin">
    <use xlink:href="#rim" fill="#404040"><set attributeName="fill" to="#808080" begin="zoomminus.mouseover" end="zoomminus.mouseout"/></use>
    <path d="M-4,0h8" fill="none" stroke="white" stroke-width="1.5" pointer-events="none"/>
  </g>
  <g id="arrowUp" transform="translate(30 24)">
    <use xlink:href="#rim"/>
    <path pointer-events="none" fill="none" stroke="white" stroke-width="1.5" d="M0,-3.0v7 M-2.5,-0.5L0,-3.0L2.5,-0.5"/>
  </g>
  <g id="arrowRight" transform="rotate(90) translate(36 -43)">
    <use xlink:href="#rim"/>
    <path pointer-events="none" fill="none" stroke="white" stroke-width="1.5" d="M0,-3.0v7 M-2.5,-0.5L0,-3.0L2.5,-0.5"/>
  </g>
  <g id="arrowDown" transform="rotate(180) translate(-30 -48)">
    <use xlink:href="#rim"/>
    <path pointer-events="none" fill="none" stroke="white" stroke-width="1.5" d="M0,-3.0v7 M-2.5,-0.5L0,-3.0L2.5,-0.5"/>
  </g>
  <g id="arrowLeft" transform="rotate(270) translate(-36 17)">
    <use xlink:href="#rim"/>
    <path pointer-events="none" fill="none" stroke="white" stroke-width="1.5" d="M0,-3.0v7 M-2.5,-0.5L0,-3.0L2.5,-0.5"/>
  </g>
  <g id="resetDef">
    <use xlink:href="#rim2" fill="#404040"><set attributeName="fill" to="#808080" begin="reset.mouseover" end="reset.mouseout"/></use>
  </g>
</defs>
<script type="application/ecmascript">
var viewWidth = 1364;
var viewHeight = 214;
var sectionId = 'dynsection-0';
</script>
<script type="application/ecmascript" xlink:href="../../svg.min.js"/>
<svg id="graph" class="graph">
<g id="viewport">
<title>src/libs/vtools/visualization/line/operation/vistoolrotation.h</title>
<!-- Node1 -->
<g id="Node000001" class="node">
<title>Node1</title>
<g id="a_Node000001"><a xlink:title=" ">
<polygon fill="#999999" stroke="#666666" points="604,-206 434,-206 434,-176 604,-176 604,-206"/>
<text text-anchor="start" x="442" y="-194" font-family="Helvetica,sans-Serif" font-size="10.00">src/libs/vtools/visualization</text>
<text text-anchor="middle" x="519" y="-183" font-family="Helvetica,sans-Serif" font-size="10.00">/line/operation/vistoolrotation.h</text>
</a>
</g>
</g>
<!-- Node2 -->
<g id="Node000002" class="node">
<title>Node2</title>
<g id="a_Node000002"><a xlink:title=" ">
<polygon fill="#e0e0e0" stroke="#999999" points="120,-24.5 0,-24.5 0,-5.5 120,-5.5 120,-24.5"/>
<text text-anchor="middle" x="60" y="-12.5" font-family="Helvetica,sans-Serif" font-size="10.00">qcompilerdetection.h</text>
</a>
</g>
</g>
<!-- Node1&#45;&gt;Node2 -->
<g id="edge1_Node000001_Node000002" class="edge">
<title>Node1&#45;&gt;Node2</title>
<g id="a_edge1_Node000001_Node000002"><a xlink:title=" ">
<path fill="none" stroke="#63b8ff" d="M474.15,-175.96C443.97,-166.32 403.39,-152.97 368,-140 264.57,-102.1 143.92,-51.68 89.4,-28.56"/>
<polygon fill="#63b8ff" stroke="#63b8ff" points="90.58,-25.26 80.01,-24.57 87.84,-31.7 90.58,-25.26"/>
</a>
</g>
</g>
<!-- Node3 -->
<g id="Node000003" class="node">
<title>Node3</title>
<g id="a_Node000003"><a xlink:title=" ">
<polygon fill="#e0e0e0" stroke="#999999" points="188,-24.5 138,-24.5 138,-5.5 188,-5.5 188,-24.5"/>
<text text-anchor="middle" x="163" y="-12.5" font-family="Helvetica,sans-Serif" font-size="10.00">QColor</text>
</a>
</g>
</g>
<!-- Node1&#45;&gt;Node3 -->
<g id="edge2_Node000001_Node000003" class="edge">
<title>Node1&#45;&gt;Node3</title>
<g id="a_edge2_Node000001_Node000003"><a xlink:title=" ">
<path fill="none" stroke="#63b8ff" d="M487.38,-175.85C465.55,-165.99 435.9,-152.44 410,-140 328.6,-100.91 233.4,-52.28 188.68,-29.26"/>
<polygon fill="#63b8ff" stroke="#63b8ff" points="190.16,-26.09 179.67,-24.62 186.96,-32.32 190.16,-26.09"/>
</a>
</g>
</g>
<!-- Node4 -->
<g id="Node000004" class="node">
<title>Node4</title>
<g id="a_Node000004"><a xlink:title=" ">
<polygon fill="#e0e0e0" stroke="#999999" points="295.5,-24.5 206.5,-24.5 206.5,-5.5 295.5,-5.5 295.5,-24.5"/>
<text text-anchor="middle" x="251" y="-12.5" font-family="Helvetica,sans-Serif" font-size="10.00">QGraphicsItem</text>
</a>
</g>
</g>
<!-- Node1&#45;&gt;Node4 -->
<g id="edge3_Node000001_Node000004" class="edge">
<title>Node1&#45;&gt;Node4</title>
<g id="a_edge3_Node000001_Node000004"><a xlink:title=" ">
<path fill="none" stroke="#63b8ff" d="M497.07,-175.76C446.7,-143.06 323.22,-62.89 272.89,-30.21"/>
<polygon fill="#63b8ff" stroke="#63b8ff" points="274.67,-27.19 264.38,-24.68 270.86,-33.07 274.67,-27.19"/>
</a>
</g>
</g>
<!-- Node5 -->
<g id="Node000005" class="node">
<title>Node5</title>
<g id="a_Node000005"><a xlink:title=" ">
<polygon fill="#e0e0e0" stroke="#999999" points="394,-24.5 314,-24.5 314,-5.5 394,-5.5 394,-24.5"/>
<text text-anchor="middle" x="354" y="-12.5" font-family="Helvetica,sans-Serif" font-size="10.00">QMetaObject</text>
</a>
</g>
</g>
<!-- Node1&#45;&gt;Node5 -->
<g id="edge4_Node000001_Node000005" class="edge">
<title>Node1&#45;&gt;Node5</title>
<g id="a_edge4_Node000001_Node000005"><a xlink:title=" ">
<path fill="none" stroke="#63b8ff" d="M505.5,-175.76C475.13,-143.74 401.6,-66.19 369.46,-32.31"/>
<polygon fill="#63b8ff" stroke="#63b8ff" points="371.66,-29.53 362.24,-24.68 366.58,-34.35 371.66,-29.53"/>
</a>
</g>
</g>
<!-- Node6 -->
<g id="Node000006" class="node">
<title>Node6</title>
<g id="a_Node000006"><a xlink:title=" ">
<polygon fill="#e0e0e0" stroke="#999999" points="468,-24.5 412,-24.5 412,-5.5 468,-5.5 468,-24.5"/>
<text text-anchor="middle" x="440" y="-12.5" font-family="Helvetica,sans-Serif" font-size="10.00">QObject</text>
</a>
</g>
</g>
<!-- Node1&#45;&gt;Node6 -->
<g id="edge5_Node000001_Node000006" class="edge">
<title>Node1&#45;&gt;Node6</title>
<g id="a_edge5_Node000001_Node000006"><a xlink:title=" ">
<path fill="none" stroke="#63b8ff" d="M512.54,-175.76C498.24,-144.28 463.98,-68.81 448.2,-34.07"/>
<polygon fill="#63b8ff" stroke="#63b8ff" points="451.26,-32.34 443.94,-24.68 444.89,-35.24 451.26,-32.34"/>
</a>
</g>
</g>
<!-- Node7 -->
<g id="Node000007" class="node">
<title>Node7</title>
<g id="a_Node000007"><a xlink:title=" ">
<polygon fill="#e0e0e0" stroke="#999999" points="541.5,-24.5 486.5,-24.5 486.5,-5.5 541.5,-5.5 541.5,-24.5"/>
<text text-anchor="middle" x="514" y="-12.5" font-family="Helvetica,sans-Serif" font-size="10.00">QPointF</text>
</a>
</g>
</g>
<!-- Node1&#45;&gt;Node7 -->
<g id="edge6_Node000001_Node000007" class="edge">
<title>Node1&#45;&gt;Node7</title>
<g id="a_edge6_Node000001_Node000007"><a xlink:title=" ">
<path fill="none" stroke="#63b8ff" d="M518.59,-175.76C517.69,-144.55 515.55,-70.11 514.55,-34.97"/>
<polygon fill="#63b8ff" stroke="#63b8ff" points="518.04,-34.58 514.25,-24.68 511.04,-34.78 518.04,-34.58"/>
</a>
</g>
</g>
<!-- Node8 -->
<g id="Node000008" class="node">
<title>Node8</title>
<g id="a_Node000008"><a xlink:title=" ">
<polygon fill="#e0e0e0" stroke="#999999" points="612.5,-24.5 559.5,-24.5 559.5,-5.5 612.5,-5.5 612.5,-24.5"/>
<text text-anchor="middle" x="586" y="-12.5" font-family="Helvetica,sans-Serif" font-size="10.00">QString</text>
</a>
</g>
</g>
<!-- Node1&#45;&gt;Node8 -->
<g id="edge7_Node000001_Node000008" class="edge">
<title>Node1&#45;&gt;Node8</title>
<g id="a_edge7_Node000001_Node000008"><a xlink:title=" ">
<path fill="none" stroke="#63b8ff" d="M522.21,-175.87C527.78,-152.45 540.25,-104.38 557,-66 561.94,-54.67 568.85,-42.66 574.68,-33.26"/>
<polygon fill="#63b8ff" stroke="#63b8ff" points="577.81,-34.85 580.24,-24.53 571.91,-31.08 577.81,-34.85"/>
</a>
</g>
</g>
<!-- Node9 -->
<g id="Node000009" class="node">
<title>Node9</title>
<g id="a_Node000009"><a xlink:title=" ">
<polygon fill="#e0e0e0" stroke="#999999" points="981.5,-140 926.5,-140 926.5,-121 981.5,-121 981.5,-140"/>
<text text-anchor="middle" x="954" y="-128" font-family="Helvetica,sans-Serif" font-size="10.00">QVector</text>
</a>
</g>
</g>
<!-- Node1&#45;&gt;Node9 -->
<g id="edge8_Node000001_Node000009" class="edge">
<title>Node1&#45;&gt;Node9</title>
<g id="a_edge8_Node000001_Node000009"><a xlink:title=" ">
<path fill="none" stroke="#63b8ff" d="M604.36,-180.96C684.14,-172.08 806.47,-157.37 912,-140 913.47,-139.76 914.96,-139.5 916.47,-139.24"/>
<polygon fill="#63b8ff" stroke="#63b8ff" points="917.3,-142.64 926.49,-137.37 916.02,-135.76 917.3,-142.64"/>
</a>
</g>
</g>
<!-- Node10 -->
<g id="Node000010" class="node">
<title>Node10</title>
<g id="a_Node000010"><a xlink:title=" ">
<polygon fill="#e0e0e0" stroke="#999999" points="1255.5,-24.5 1196.5,-24.5 1196.5,-5.5 1255.5,-5.5 1255.5,-24.5"/>
<text text-anchor="middle" x="1226" y="-12.5" font-family="Helvetica,sans-Serif" font-size="10.00">QtGlobal</text>
</a>
</g>
</g>
<!-- Node1&#45;&gt;Node10 -->
<g id="edge9_Node000001_Node000010" class="edge">
<title>Node1&#45;&gt;Node10</title>
<g id="a_edge9_Node000001_Node000010"><a xlink:title=" ">
<path fill="none" stroke="#63b8ff" d="M534.78,-175.6C565.57,-148.49 637,-90.4 709,-66 910.78,2.37 978.63,-74.39 1187,-30 1189.84,-29.4 1192.75,-28.63 1195.64,-27.78"/>
<polygon fill="#63b8ff" stroke="#63b8ff" points="1196.85,-31.07 1205.25,-24.62 1194.66,-24.42 1196.85,-31.07"/>
</a>
</g>
</g>
<!-- Node11 -->
<g id="Node000011" class="node">
<title>Node11</title>
<g id="a_Node000011"><a xlink:title=" ">
<polygon fill="#e0e0e0" stroke="#999999" points="1076.5,-140 999.5,-140 999.5,-121 1076.5,-121 1076.5,-140"/>
<text text-anchor="middle" x="1038" y="-128" font-family="Helvetica,sans-Serif" font-size="10.00">../ifc/ifcdef.h</text>
</a>
</g>
</g>
<!-- Node1&#45;&gt;Node11 -->
<g id="edge10_Node000001_Node000011" class="edge">
<title>Node1&#45;&gt;Node11</title>
<g id="a_edge10_Node000001_Node000011"><a xlink:title=" ">
<path fill="none" stroke="#63b8ff" d="M604.31,-182.74C696.61,-174.48 848.34,-159.71 989.15,-140.02"/>
<polygon fill="#63b8ff" stroke="#63b8ff" points="989.85,-143.46 999.26,-138.6 988.87,-136.53 989.85,-143.46"/>
</a>
</g>
</g>
<!-- Node12 -->
<g id="Node000012" class="node">
<title>Node12</title>
<g id="a_Node000012"><a xlink:title=" ">
<polygon fill="#e0e0e0" stroke="#999999" points="1356,-24.5 1274,-24.5 1274,-5.5 1356,-5.5 1356,-24.5"/>
<text text-anchor="middle" x="1315" y="-12.5" font-family="Helvetica,sans-Serif" font-size="10.00">../vmisc/def.h</text>
</a>
</g>
</g>
<!-- Node1&#45;&gt;Node12 -->
<g id="edge11_Node000001_Node000012" class="edge">
<title>Node1&#45;&gt;Node12</title>
<g id="a_edge11_Node000001_Node000012"><a xlink:title=" ">
<path fill="none" stroke="#63b8ff" d="M598.02,-175.99C651.02,-166.39 722.32,-153.07 785,-140 999.26,-95.33 1052.89,-83.97 1265,-30 1268.42,-29.13 1271.97,-28.2 1275.52,-27.24"/>
<polygon fill="#63b8ff" stroke="#63b8ff" points="1276.73,-30.54 1285.45,-24.53 1274.88,-23.79 1276.73,-30.54"/>
</a>
</g>
</g>
<!-- Node13 -->
<g id="Node000013" class="node">
<title>Node13</title>
<g id="a_Node000013"><a xlink:href="../../d5/d71/visoperation_8h.html" target="_top" xlink:title=" ">
<polygon fill="white" stroke="#666666" points="776,-140 690,-140 690,-121 776,-121 776,-140"/>
<text text-anchor="middle" x="733" y="-128" font-family="Helvetica,sans-Serif" font-size="10.00">visoperation.h</text>
</a>
</g>
</g>
<!-- Node1&#45;&gt;Node13 -->
<g id="edge12_Node000001_Node000013" class="edge">
<title>Node1&#45;&gt;Node13</title>
<g id="a_edge12_Node000001_Node000013"><a xlink:title=" ">
<path fill="none" stroke="#63b8ff" d="M570.26,-175.99C607.51,-165.8 657.27,-152.2 691.92,-142.73"/>
<polygon fill="#63b8ff" stroke="#63b8ff" points="692.99,-146.07 701.71,-140.05 691.14,-139.31 692.99,-146.07"/>
</a>
</g>
</g>
<!-- Node13&#45;&gt;Node10 -->
<g id="edge13_Node000013_Node000010" class="edge">
<title>Node13&#45;&gt;Node10</title>
<g id="a_edge13_Node000013_Node000010"><a xlink:title=" ">
<path fill="none" stroke="#63b8ff" d="M726.95,-120.87C718.29,-107.38 704.89,-81.24 719,-66 754.44,-27.73 1136,-40.91 1187,-30 1189.84,-29.39 1192.75,-28.63 1195.64,-27.78"/>
<polygon fill="#63b8ff" stroke="#63b8ff" points="1196.85,-31.06 1205.25,-24.61 1194.66,-24.41 1196.85,-31.06"/>
</a>
</g>
</g>
<!-- Node14 -->
<g id="Node000014" class="node">
<title>Node14</title>
<g id="a_Node000014"><a xlink:href="../../d8/d51/visline_8h.html" target="_top" xlink:title=" ">
<polygon fill="white" stroke="#666666" points="633.5,-85 566.5,-85 566.5,-66 633.5,-66 633.5,-85"/>
<text text-anchor="middle" x="600" y="-73" font-family="Helvetica,sans-Serif" font-size="10.00">../visline.h</text>
</a>
</g>
</g>
<!-- Node13&#45;&gt;Node14 -->
<g id="edge14_Node000013_Node000014" class="edge">
<title>Node13&#45;&gt;Node14</title>
<g id="a_edge14_Node000013_Node000014"><a xlink:title=" ">
<path fill="none" stroke="#63b8ff" d="M711.63,-120.98C689.85,-112.3 655.84,-98.75 631.08,-88.88"/>
<polygon fill="#63b8ff" stroke="#63b8ff" points="632.34,-85.62 621.76,-85.17 629.75,-92.12 632.34,-85.62"/>
</a>
</g>
</g>
<!-- Node20 -->
<g id="Node000020" class="node">
<title>Node20</title>
<g id="a_Node000020"><a xlink:title=" ">
<polygon fill="#e0e0e0" stroke="#999999" points="870,-85 728,-85 728,-66 870,-66 870,-85"/>
<text text-anchor="middle" x="799" y="-73" font-family="Helvetica,sans-Serif" font-size="10.00">../vpatterndb/vcontainer.h</text>
</a>
</g>
</g>
<!-- Node13&#45;&gt;Node20 -->
<g id="edge29_Node000013_Node000020" class="edge">
<title>Node13&#45;&gt;Node20</title>
<g id="a_edge29_Node000013_Node000020"><a xlink:title=" ">
<path fill="none" stroke="#63b8ff" d="M743.6,-120.98C753.46,-113.07 768.35,-101.11 780.22,-91.58"/>
<polygon fill="#63b8ff" stroke="#63b8ff" points="782.6,-94.16 788.2,-85.17 778.21,-88.7 782.6,-94.16"/>
</a>
</g>
</g>
<!-- Node14&#45;&gt;Node2 -->
<g id="edge15_Node000014_Node000002" class="edge">
<title>Node14&#45;&gt;Node2</title>
<g id="a_edge15_Node000014_Node000002"><a xlink:title=" ">
<path fill="none" stroke="#63b8ff" d="M566.45,-72.56C489.04,-67.8 292.1,-54.18 129,-30 122.26,-29 115.18,-27.77 108.23,-26.46"/>
<polygon fill="#63b8ff" stroke="#63b8ff" points="108.68,-22.98 98.19,-24.5 107.34,-29.85 108.68,-22.98"/>
</a>
</g>
</g>
<!-- Node14&#45;&gt;Node3 -->
<g id="edge16_Node000014_Node000003" class="edge">
<title>Node14&#45;&gt;Node3</title>
<g id="a_edge16_Node000014_Node000003"><a xlink:title=" ">
<path fill="none" stroke="#63b8ff" d="M566.26,-73.95C496.31,-72.12 330.84,-64.22 197,-30 194.84,-29.45 192.63,-28.79 190.44,-28.05"/>
<polygon fill="#63b8ff" stroke="#63b8ff" points="191.62,-24.76 181.03,-24.52 189.16,-31.31 191.62,-24.76"/>
</a>
</g>
</g>
<!-- Node14&#45;&gt;Node4 -->
<g id="edge17_Node000014_Node000004" class="edge">
<title>Node14&#45;&gt;Node4</title>
<g id="a_edge17_Node000014_Node000004"><a xlink:title=" ">
<path fill="none" stroke="#63b8ff" d="M566.18,-70.56C511.13,-63.89 398.88,-49.2 305,-30 300.61,-29.1 296.05,-28.07 291.51,-26.99"/>
<polygon fill="#63b8ff" stroke="#63b8ff" points="292.26,-23.57 281.71,-24.55 290.57,-30.36 292.26,-23.57"/>
</a>
</g>
</g>
<!-- Node14&#45;&gt;Node5 -->
<g id="edge20_Node000014_Node000005" class="edge">
<title>Node14&#45;&gt;Node5</title>
<g id="a_edge20_Node000014_Node000005"><a xlink:title=" ">
<path fill="none" stroke="#63b8ff" d="M566.4,-67.51C527.08,-59.19 460.07,-44.59 403,-30 399.64,-29.14 396.16,-28.22 392.68,-27.27"/>
<polygon fill="#63b8ff" stroke="#63b8ff" points="393.52,-23.87 382.95,-24.56 391.64,-30.61 393.52,-23.87"/>
</a>
</g>
</g>
<!-- Node14&#45;&gt;Node6 -->
<g id="edge21_Node000014_Node000006" class="edge">
<title>Node14&#45;&gt;Node6</title>
<g id="a_edge21_Node000014_Node000006"><a xlink:title=" ">
<path fill="none" stroke="#63b8ff" d="M575.92,-65.91C551.1,-57.02 511.29,-42.69 477,-30 475.41,-29.41 473.77,-28.8 472.13,-28.19"/>
<polygon fill="#63b8ff" stroke="#63b8ff" points="473.27,-24.88 462.68,-24.64 470.81,-31.43 473.27,-24.88"/>
</a>
</g>
</g>
<!-- Node14&#45;&gt;Node7 -->
<g id="edge22_Node000014_Node000007" class="edge">
<title>Node14&#45;&gt;Node7</title>
<g id="a_edge22_Node000014_Node000007"><a xlink:title=" ">
<path fill="none" stroke="#63b8ff" d="M587.31,-65.87C573.59,-56.54 551.5,-41.51 535.15,-30.38"/>
<polygon fill="#63b8ff" stroke="#63b8ff" points="536.98,-27.4 526.74,-24.67 533.04,-33.19 536.98,-27.4"/>
</a>
</g>
</g>
<!-- Node14&#45;&gt;Node8 -->
<g id="edge23_Node000014_Node000008" class="edge">
<title>Node14&#45;&gt;Node8</title>
<g id="a_edge23_Node000014_Node000008"><a xlink:title=" ">
<path fill="none" stroke="#63b8ff" d="M597.93,-65.87C595.97,-57.66 592.95,-45.04 590.44,-34.55"/>
<polygon fill="#63b8ff" stroke="#63b8ff" points="593.81,-33.58 588.07,-24.67 587,-35.21 593.81,-33.58"/>
</a>
</g>
</g>
<!-- Node14&#45;&gt;Node10 -->
<g id="edge25_Node000014_Node000010" class="edge">
<title>Node14&#45;&gt;Node10</title>
<g id="a_edge25_Node000014_Node000010"><a xlink:title=" ">
<path fill="none" stroke="#63b8ff" d="M633.76,-68.05C638.53,-67.27 643.38,-66.56 648,-66 886.33,-37.03 951.97,-79.03 1187,-30 1190,-29.37 1193.09,-28.57 1196.14,-27.66"/>
<polygon fill="#63b8ff" stroke="#63b8ff" points="1197.27,-30.97 1205.66,-24.5 1195.07,-24.33 1197.27,-30.97"/>
</a>
</g>
</g>
<!-- Node14&#45;&gt;Node12 -->
<g id="edge27_Node000014_Node000012" class="edge">
<title>Node14&#45;&gt;Node12</title>
<g id="a_edge27_Node000014_Node000012"><a xlink:title=" ">
<path fill="none" stroke="#63b8ff" d="M633.59,-72.05C657.43,-70.33 690.17,-67.98 719,-66 961.62,-49.34 1025.29,-71.01 1265,-30 1269.47,-29.24 1274.11,-28.23 1278.69,-27.11"/>
<polygon fill="#63b8ff" stroke="#63b8ff" points="1279.73,-30.46 1288.51,-24.52 1277.94,-23.69 1279.73,-30.46"/>
</a>
</g>
</g>
<!-- Node15 -->
<g id="Node000015" class="node">
<title>Node15</title>
<g id="a_Node000015"><a xlink:title=" ">
<polygon fill="#e0e0e0" stroke="#999999" points="1178,-24.5 1068,-24.5 1068,-5.5 1178,-5.5 1178,-24.5"/>
<text text-anchor="middle" x="1123" y="-12.5" font-family="Helvetica,sans-Serif" font-size="10.00">QGraphicsLineItem</text>
</a>
</g>
</g>
<!-- Node14&#45;&gt;Node15 -->
<g id="edge18_Node000014_Node000015" class="edge">
<title>Node14&#45;&gt;Node15</title>
<g id="a_edge18_Node000014_Node000015"><a xlink:title=" ">
<path fill="none" stroke="#63b8ff" d="M633.51,-68.18C638.36,-67.38 643.3,-66.62 648,-66 829.79,-41.99 877.73,-57.65 1059,-30 1065.2,-29.05 1071.69,-27.87 1078.07,-26.59"/>
<polygon fill="#63b8ff" stroke="#63b8ff" points="1078.87,-29.99 1087.94,-24.52 1077.43,-23.14 1078.87,-29.99"/>
</a>
</g>
</g>
<!-- Node16 -->
<g id="Node000016" class="node">
<title>Node16</title>
<g id="a_Node000016"><a xlink:title=" ">
<polygon fill="#e0e0e0" stroke="#999999" points="681,-24.5 631,-24.5 631,-5.5 681,-5.5 681,-24.5"/>
<text text-anchor="middle" x="656" y="-12.5" font-family="Helvetica,sans-Serif" font-size="10.00">QLineF</text>
</a>
</g>
</g>
<!-- Node14&#45;&gt;Node16 -->
<g id="edge19_Node000014_Node000016" class="edge">
<title>Node14&#45;&gt;Node16</title>
<g id="a_edge19_Node000014_Node000016"><a xlink:title=" ">
<path fill="none" stroke="#63b8ff" d="M608.26,-65.87C616.78,-56.97 630.26,-42.89 640.73,-31.95"/>
<polygon fill="#63b8ff" stroke="#63b8ff" points="643.32,-34.31 647.7,-24.67 638.26,-29.47 643.32,-34.31"/>
</a>
</g>
</g>
<!-- Node17 -->
<g id="Node000017" class="node">
<title>Node17</title>
<g id="a_Node000017"><a xlink:title=" ">
<polygon fill="#e0e0e0" stroke="#999999" points="728.5,-24.5 699.5,-24.5 699.5,-5.5 728.5,-5.5 728.5,-24.5"/>
<text text-anchor="middle" x="714" y="-12.5" font-family="Helvetica,sans-Serif" font-size="10.00">Qt</text>
</a>
</g>
</g>
<!-- Node14&#45;&gt;Node17 -->
<g id="edge24_Node000014_Node000017" class="edge">
<title>Node14&#45;&gt;Node17</title>
<g id="a_edge24_Node000014_Node000017"><a xlink:title=" ">
<path fill="none" stroke="#63b8ff" d="M618.12,-65.99C636.42,-57.29 665.44,-43.21 690,-30 690.29,-29.84 690.59,-29.68 690.89,-29.52"/>
<polygon fill="#63b8ff" stroke="#63b8ff" points="692.63,-32.56 699.62,-24.6 689.19,-26.46 692.63,-32.56"/>
</a>
</g>
</g>
<!-- Node18 -->
<g id="Node000018" class="node">
<title>Node18</title>
<g id="a_Node000018"><a xlink:title=" ">
<polygon fill="#e0e0e0" stroke="#999999" points="867.5,-30 746.5,-30 746.5,0 867.5,0 867.5,-30"/>
<text text-anchor="start" x="754.5" y="-18" font-family="Helvetica,sans-Serif" font-size="10.00">../vtools/visualization</text>
<text text-anchor="middle" x="807" y="-7" font-family="Helvetica,sans-Serif" font-size="10.00">/visualization.h</text>
</a>
</g>
</g>
<!-- Node14&#45;&gt;Node18 -->
<g id="edge26_Node000014_Node000018" class="edge">
<title>Node14&#45;&gt;Node18</title>
<g id="a_edge26_Node000014_Node000018"><a xlink:title=" ">
<path fill="none" stroke="#63b8ff" d="M630.1,-65.99C660.67,-57.35 708.84,-43.74 747.2,-32.9"/>
<polygon fill="#63b8ff" stroke="#63b8ff" points="748.56,-36.15 757.23,-30.06 746.66,-29.42 748.56,-36.15"/>
</a>
</g>
</g>
<!-- Node19 -->
<g id="Node000019" class="node">
<title>Node19</title>
<g id="a_Node000019"><a xlink:title=" ">
<polygon fill="#e0e0e0" stroke="#999999" points="1050,-24.5 886,-24.5 886,-5.5 1050,-5.5 1050,-24.5"/>
<text text-anchor="middle" x="968" y="-12.5" font-family="Helvetica,sans-Serif" font-size="10.00">../vwidgets/scalesceneitems.h</text>
</a>
</g>
</g>
<!-- Node14&#45;&gt;Node19 -->
<g id="edge28_Node000014_Node000019" class="edge">
<title>Node14&#45;&gt;Node19</title>
<g id="a_edge28_Node000014_Node000019"><a xlink:title=" ">
<path fill="none" stroke="#63b8ff" d="M633.55,-68.47C638.4,-67.62 643.33,-66.78 648,-66 695.64,-58.06 823.44,-38.26 902.36,-26.09"/>
<polygon fill="#63b8ff" stroke="#63b8ff" points="903.34,-29.49 912.69,-24.5 902.27,-22.57 903.34,-29.49"/>
</a>
</g>
</g>
</g>
</svg>

<g id="navigator" transform="translate(0 0)" fill="#404254">
  <rect fill="#f2f5e9" fill-opacity="0.5" stroke="#606060" stroke-width=".5" x="0" y="0" width="60" height="60"/>
  <use id="zoomplus" xlink:href="#zoomPlus" x="17" y="9" onmousedown="handleZoom(evt,'in')"/>
  <use id="zoomminus" xlink:href="#zoomMin" x="42" y="9" onmousedown="handleZoom(evt,'out')"/>
  <use id="reset" xlink:href="#resetDef" x="30" y="36" onmousedown="handleReset()"/>
   <use id="arrowup" xlink:href="#arrowUp" x="0" y="0" onmousedown="handlePan(0,-1)"/>
  <use id="arrowright" xlink:href="#arrowRight" x="0" y="0" onmousedown="handlePan(1,0)"/>
  <use id="arrowdown" xlink:href="#arrowDown" x="0" y="0" onmousedown="handlePan(0,1)"/>
  <use id="arrowleft" xlink:href="#arrowLeft" x="0" y="0" onmousedown="handlePan(-1,0)"/>
</g>
<svg viewBox="0 0 15 15" width="100%" height="30px" preserveAspectRatio="xMaxYMin meet">
 <g id="arrow_out" transform="scale(0.3 0.3)">
  <a xlink:href="vistoolrotation_8h__incl_org.svg" target="_base">
   <rect id="button" ry="5" rx="5" y="6" x="6" height="38" width="38"
        fill="#f2f5e9" fill-opacity="0.5" stroke="#606060" stroke-width="1.0"/>
   <path id="arrow"
     d="M 11.500037,31.436501 C 11.940474,20.09759 22.043105,11.32322 32.158766,21.979434 L 37.068811,17.246167 C 37.068811,17.246167 37.088388,32 37.088388,32 L 22.160133,31.978069 C 22.160133,31.978069 26.997745,27.140456 26.997745,27.140456 C 18.528582,18.264221 13.291696,25.230495 11.500037,31.436501 z"
     style="fill:#404040;"/>
  </a>
 </g>
</svg>

<style type='text/css'>
<![CDATA[
[data-mouse-over-selected='false'] { opacity: 0.7; }
[data-mouse-over-selected='true']  { opacity: 1.0; }
]]>
</style>
<script type="application/ecmascript"><![CDATA[
document.addEventListener('DOMContentLoaded', (event) => {
  highlightEdges();
  highlightAdjacentNodes();
});
]]></script>
</svg>
