<?xml version="1.0" encoding="UTF-8" standalone="no"?>
<!DOCTYPE svg PUBLIC "-//W3C//DTD SVG 1.1//EN"
 "http://www.w3.org/Graphics/SVG/1.1/DTD/svg11.dtd">
<!-- Generated by graphviz version 2.43.0 (0)
 -->
<!-- Title: MoveAbstractLabel Pages: 1 -->
<!--zoomable 732 -->

<svg id="main" version="1.1" xmlns="http://www.w3.org/2000/svg" xmlns:xlink="http://www.w3.org/1999/xlink" xml:space="preserve" onload="init(evt)">
<style type="text/css"><![CDATA[
.node, .edge {opacity: 0.7;}
.node.selected, .edge.selected {opacity: 1;}
.edge:hover path { stroke: red; }
.edge:hover polygon { stroke: red; fill: red; }
]]></style>

<defs>
  <circle id="rim" cx="0" cy="0" r="7"/>
  <circle id="rim2" cx="0" cy="0" r="3.5"/>
  <g id="zoomPlus">
    <use xlink:href="#rim" fill="#404040"><set attributeName="fill" to="#808080" begin="zoomplus.mouseover" end="zoomplus.mouseout"/></use>
    <path d="M-4,0h8M0,-4v8" fill="none" stroke="white" stroke-width="1.5" pointer-events="none"/>
  </g>
  <g id="zoomMin">
    <use xlink:href="#rim" fill="#404040"><set attributeName="fill" to="#808080" begin="zoomminus.mouseover" end="zoomminus.mouseout"/></use>
    <path d="M-4,0h8" fill="none" stroke="white" stroke-width="1.5" pointer-events="none"/>
  </g>
  <g id="arrowUp" transform="translate(30 24)">
    <use xlink:href="#rim"/>
    <path pointer-events="none" fill="none" stroke="white" stroke-width="1.5" d="M0,-3.0v7 M-2.5,-0.5L0,-3.0L2.5,-0.5"/>
  </g>
  <g id="arrowRight" transform="rotate(90) translate(36 -43)">
    <use xlink:href="#rim"/>
    <path pointer-events="none" fill="none" stroke="white" stroke-width="1.5" d="M0,-3.0v7 M-2.5,-0.5L0,-3.0L2.5,-0.5"/>
  </g>
  <g id="arrowDown" transform="rotate(180) translate(-30 -48)">
    <use xlink:href="#rim"/>
    <path pointer-events="none" fill="none" stroke="white" stroke-width="1.5" d="M0,-3.0v7 M-2.5,-0.5L0,-3.0L2.5,-0.5"/>
  </g>
  <g id="arrowLeft" transform="rotate(270) translate(-36 17)">
    <use xlink:href="#rim"/>
    <path pointer-events="none" fill="none" stroke="white" stroke-width="1.5" d="M0,-3.0v7 M-2.5,-0.5L0,-3.0L2.5,-0.5"/>
  </g>
  <g id="resetDef">
    <use xlink:href="#rim2" fill="#404040"><set attributeName="fill" to="#808080" begin="reset.mouseover" end="reset.mouseout"/></use>
  </g>
</defs>
<script type="application/ecmascript">
var viewWidth = 399;
var viewHeight = 732;
var sectionId = 'dynsection-0';
</script>
<script type="application/ecmascript" xlink:href="../../svg.min.js"/>
<svg id="graph" class="graph">
<g id="viewport">
<title>MoveAbstractLabel</title>
<!-- Node1 -->
<g id="Node000001" class="node">
<title>Node1</title>
<g id="a_Node000001"><a xlink:title=" ">
<polygon fill="#999999" stroke="transparent" points="254,-359 123,-359 123,-205 254,-205 254,-359"/>
<text text-anchor="start" x="142" y="-347" font-family="Helvetica,sans-Serif" font-size="10.00">MoveAbstractLabel</text>
<text text-anchor="start" x="127.5" y="-332" font-family="Helvetica,sans-Serif" font-size="10.00">#</text>
<text text-anchor="start" x="140.5" y="-332" font-family="Helvetica,sans-Serif" font-size="10.00">m_oldPos</text>
<text text-anchor="start" x="127.5" y="-317" font-family="Helvetica,sans-Serif" font-size="10.00">#</text>
<text text-anchor="start" x="140.5" y="-317" font-family="Helvetica,sans-Serif" font-size="10.00">m_newPos</text>
<text text-anchor="start" x="127.5" y="-302" font-family="Helvetica,sans-Serif" font-size="10.00">+</text>
<text text-anchor="start" x="140.5" y="-302" font-family="Helvetica,sans-Serif" font-size="10.00">MoveAbstractLabel()</text>
<text text-anchor="start" x="127.5" y="-287" font-family="Helvetica,sans-Serif" font-size="10.00">+</text>
<text text-anchor="start" x="140.5" y="-287" font-family="Helvetica,sans-Serif" font-size="10.00">~MoveAbstractLabel()</text>
<text text-anchor="start" x="127.5" y="-272" font-family="Helvetica,sans-Serif" font-size="10.00">+</text>
<text text-anchor="start" x="140.5" y="-272" font-family="Helvetica,sans-Serif" font-size="10.00">undo()</text>
<text text-anchor="start" x="127.5" y="-257" font-family="Helvetica,sans-Serif" font-size="10.00">+</text>
<text text-anchor="start" x="140.5" y="-257" font-family="Helvetica,sans-Serif" font-size="10.00">redo()</text>
<text text-anchor="start" x="127.5" y="-242" font-family="Helvetica,sans-Serif" font-size="10.00">+</text>
<text text-anchor="start" x="140.5" y="-242" font-family="Helvetica,sans-Serif" font-size="10.00">GetPointId()</text>
<text text-anchor="start" x="127.5" y="-227" font-family="Helvetica,sans-Serif" font-size="10.00">+</text>
<text text-anchor="start" x="140.5" y="-227" font-family="Helvetica,sans-Serif" font-size="10.00">GetNewPos()</text>
<text text-anchor="start" x="127.5" y="-212" font-family="Helvetica,sans-Serif" font-size="10.00">#</text>
<text text-anchor="start" x="140.5" y="-212" font-family="Helvetica,sans-Serif" font-size="10.00">Do()</text>
<polygon fill="#666666" stroke="#666666" points="123.5,-342 123.5,-342 254.5,-342 254.5,-342 123.5,-342"/>
<polygon fill="#666666" stroke="#666666" points="123.5,-312 123.5,-312 138.5,-312 138.5,-312 123.5,-312"/>
<polygon fill="#666666" stroke="#666666" points="138.5,-312 138.5,-312 254.5,-312 254.5,-312 138.5,-312"/>
<polygon fill="none" stroke="#666666" points="123,-205 123,-359 254,-359 254,-205 123,-205"/>
</a>
</g>
</g>
<!-- Node5 -->
<g id="Node000005" class="node">
<title>Node5</title>
<g id="a_Node000005"><a xlink:href="../../d1/d74/classMoveDoubleLabel.html" target="_top" xlink:title=" ">
<polygon fill="white" stroke="transparent" points="125,-169 0,-169 0,0 125,0 125,-169"/>
<text text-anchor="start" x="19" y="-156.5" font-family="Helvetica,sans-Serif" font-size="10.00">MoveDoubleLabel</text>
<text text-anchor="start" x="7" y="-141.5" font-family="Helvetica,sans-Serif" font-size="10.00">&#45;</text>
<text text-anchor="start" x="17.5" y="-141.5" font-family="Helvetica,sans-Serif" font-size="10.00">m_type</text>
<text text-anchor="start" x="7" y="-126.5" font-family="Helvetica,sans-Serif" font-size="10.00">&#45;</text>
<text text-anchor="start" x="17.5" y="-126.5" font-family="Helvetica,sans-Serif" font-size="10.00">m_idTool</text>
<text text-anchor="start" x="7" y="-111.5" font-family="Helvetica,sans-Serif" font-size="10.00">&#45;</text>
<text text-anchor="start" x="17.5" y="-111.5" font-family="Helvetica,sans-Serif" font-size="10.00">m_scene</text>
<text text-anchor="start" x="4.5" y="-96.5" font-family="Helvetica,sans-Serif" font-size="10.00">+</text>
<text text-anchor="start" x="17.5" y="-96.5" font-family="Helvetica,sans-Serif" font-size="10.00">MoveDoubleLabel()</text>
<text text-anchor="start" x="4.5" y="-81.5" font-family="Helvetica,sans-Serif" font-size="10.00">+</text>
<text text-anchor="start" x="17.5" y="-81.5" font-family="Helvetica,sans-Serif" font-size="10.00">~MoveDoubleLabel()</text>
<text text-anchor="start" x="4.5" y="-66.5" font-family="Helvetica,sans-Serif" font-size="10.00">+</text>
<text text-anchor="start" x="17.5" y="-66.5" font-family="Helvetica,sans-Serif" font-size="10.00">mergeWith()</text>
<text text-anchor="start" x="4.5" y="-51.5" font-family="Helvetica,sans-Serif" font-size="10.00">+</text>
<text text-anchor="start" x="17.5" y="-51.5" font-family="Helvetica,sans-Serif" font-size="10.00">id()</text>
<text text-anchor="start" x="4.5" y="-36.5" font-family="Helvetica,sans-Serif" font-size="10.00">+</text>
<text text-anchor="start" x="17.5" y="-36.5" font-family="Helvetica,sans-Serif" font-size="10.00">GetToolId()</text>
<text text-anchor="start" x="4.5" y="-21.5" font-family="Helvetica,sans-Serif" font-size="10.00">+</text>
<text text-anchor="start" x="17.5" y="-21.5" font-family="Helvetica,sans-Serif" font-size="10.00">GetPointType()</text>
<text text-anchor="start" x="4.5" y="-6.5" font-family="Helvetica,sans-Serif" font-size="10.00">#</text>
<text text-anchor="start" x="17.5" y="-6.5" font-family="Helvetica,sans-Serif" font-size="10.00">Do()</text>
<polygon fill="#666666" stroke="#666666" points="0.5,-151.5 0.5,-151.5 125.5,-151.5 125.5,-151.5 0.5,-151.5"/>
<polygon fill="#666666" stroke="#666666" points="0.5,-106.5 0.5,-106.5 15.5,-106.5 15.5,-106.5 0.5,-106.5"/>
<polygon fill="#666666" stroke="#666666" points="15.5,-106.5 15.5,-106.5 125.5,-106.5 125.5,-106.5 15.5,-106.5"/>
<polygon fill="none" stroke="#666666" points="0,0 0,-169 125,-169 125,0 0,0"/>
</a>
</g>
</g>
<!-- Node1&#45;&gt;Node5 -->
<g id="edge4_Node000001_Node000005" class="edge">
<title>Node1&#45;&gt;Node5</title>
<g id="a_edge4_Node000001_Node000005"><a xlink:title=" ">
<path fill="none" stroke="#63b8ff" d="M133.91,-196.3C128.12,-187.31 122.23,-178.18 116.45,-169.21"/>
<polygon fill="none" stroke="#63b8ff" points="131.06,-198.35 139.42,-204.85 136.95,-194.55 131.06,-198.35"/>
</a>
</g>
</g>
<!-- Node6 -->
<g id="Node000006" class="node">
<title>Node6</title>
<g id="a_Node000006"><a xlink:href="../../d7/ddb/classMoveLabel.html" target="_top" xlink:title=" ">
<polygon fill="white" stroke="transparent" points="234,-139 143,-139 143,-30 234,-30 234,-139"/>
<text text-anchor="start" x="162" y="-126.5" font-family="Helvetica,sans-Serif" font-size="10.00">MoveLabel</text>
<text text-anchor="start" x="150" y="-111.5" font-family="Helvetica,sans-Serif" font-size="10.00">&#45;</text>
<text text-anchor="start" x="160.5" y="-111.5" font-family="Helvetica,sans-Serif" font-size="10.00">m_scene</text>
<text text-anchor="start" x="147.5" y="-96.5" font-family="Helvetica,sans-Serif" font-size="10.00">+</text>
<text text-anchor="start" x="160.5" y="-96.5" font-family="Helvetica,sans-Serif" font-size="10.00">MoveLabel()</text>
<text text-anchor="start" x="147.5" y="-81.5" font-family="Helvetica,sans-Serif" font-size="10.00">+</text>
<text text-anchor="start" x="160.5" y="-81.5" font-family="Helvetica,sans-Serif" font-size="10.00">~MoveLabel()</text>
<text text-anchor="start" x="147.5" y="-66.5" font-family="Helvetica,sans-Serif" font-size="10.00">+</text>
<text text-anchor="start" x="160.5" y="-66.5" font-family="Helvetica,sans-Serif" font-size="10.00">mergeWith()</text>
<text text-anchor="start" x="147.5" y="-51.5" font-family="Helvetica,sans-Serif" font-size="10.00">+</text>
<text text-anchor="start" x="160.5" y="-51.5" font-family="Helvetica,sans-Serif" font-size="10.00">id()</text>
<text text-anchor="start" x="147.5" y="-36.5" font-family="Helvetica,sans-Serif" font-size="10.00">#</text>
<text text-anchor="start" x="160.5" y="-36.5" font-family="Helvetica,sans-Serif" font-size="10.00">Do()</text>
<polygon fill="#666666" stroke="#666666" points="143.5,-121.5 143.5,-121.5 234.5,-121.5 234.5,-121.5 143.5,-121.5"/>
<polygon fill="#666666" stroke="#666666" points="143.5,-106.5 143.5,-106.5 158.5,-106.5 158.5,-106.5 143.5,-106.5"/>
<polygon fill="#666666" stroke="#666666" points="158.5,-106.5 158.5,-106.5 234.5,-106.5 234.5,-106.5 158.5,-106.5"/>
<polygon fill="none" stroke="#666666" points="143,-30 143,-139 234,-139 234,-30 143,-30"/>
</a>
</g>
</g>
<!-- Node1&#45;&gt;Node6 -->
<g id="edge5_Node000001_Node000006" class="edge">
<title>Node1&#45;&gt;Node6</title>
<g id="a_edge5_Node000001_Node000006"><a xlink:title=" ">
<path fill="none" stroke="#63b8ff" d="M188.5,-194.72C188.5,-175.79 188.5,-156.27 188.5,-139.07"/>
<polygon fill="none" stroke="#63b8ff" points="185,-194.85 188.5,-204.85 192,-194.85 185,-194.85"/>
</a>
</g>
</g>
<!-- Node7 -->
<g id="Node000007" class="node">
<title>Node7</title>
<g id="a_Node000007"><a xlink:href="../../d7/d7b/classMoveOperationLabel.html" target="_top" xlink:title=" ">
<polygon fill="white" stroke="transparent" points="391,-154 252,-154 252,-15 391,-15 391,-154"/>
<text text-anchor="start" x="271" y="-141.5" font-family="Helvetica,sans-Serif" font-size="10.00">MoveOperationLabel</text>
<text text-anchor="start" x="259" y="-126.5" font-family="Helvetica,sans-Serif" font-size="10.00">&#45;</text>
<text text-anchor="start" x="269.5" y="-126.5" font-family="Helvetica,sans-Serif" font-size="10.00">m_idTool</text>
<text text-anchor="start" x="259" y="-111.5" font-family="Helvetica,sans-Serif" font-size="10.00">&#45;</text>
<text text-anchor="start" x="269.5" y="-111.5" font-family="Helvetica,sans-Serif" font-size="10.00">m_scene</text>
<text text-anchor="start" x="256.5" y="-96.5" font-family="Helvetica,sans-Serif" font-size="10.00">+</text>
<text text-anchor="start" x="269.5" y="-96.5" font-family="Helvetica,sans-Serif" font-size="10.00">MoveOperationLabel()</text>
<text text-anchor="start" x="256.5" y="-81.5" font-family="Helvetica,sans-Serif" font-size="10.00">+</text>
<text text-anchor="start" x="269.5" y="-81.5" font-family="Helvetica,sans-Serif" font-size="10.00">~MoveOperationLabel()</text>
<text text-anchor="start" x="256.5" y="-66.5" font-family="Helvetica,sans-Serif" font-size="10.00">+</text>
<text text-anchor="start" x="269.5" y="-66.5" font-family="Helvetica,sans-Serif" font-size="10.00">mergeWith()</text>
<text text-anchor="start" x="256.5" y="-51.5" font-family="Helvetica,sans-Serif" font-size="10.00">+</text>
<text text-anchor="start" x="269.5" y="-51.5" font-family="Helvetica,sans-Serif" font-size="10.00">id()</text>
<text text-anchor="start" x="256.5" y="-36.5" font-family="Helvetica,sans-Serif" font-size="10.00">+</text>
<text text-anchor="start" x="269.5" y="-36.5" font-family="Helvetica,sans-Serif" font-size="10.00">GetToolId()</text>
<text text-anchor="start" x="256.5" y="-21.5" font-family="Helvetica,sans-Serif" font-size="10.00">#</text>
<text text-anchor="start" x="269.5" y="-21.5" font-family="Helvetica,sans-Serif" font-size="10.00">Do()</text>
<polygon fill="#666666" stroke="#666666" points="252.5,-136.5 252.5,-136.5 391.5,-136.5 391.5,-136.5 252.5,-136.5"/>
<polygon fill="#666666" stroke="#666666" points="252.5,-106.5 252.5,-106.5 267.5,-106.5 267.5,-106.5 252.5,-106.5"/>
<polygon fill="#666666" stroke="#666666" points="267.5,-106.5 267.5,-106.5 391.5,-106.5 391.5,-106.5 267.5,-106.5"/>
<polygon fill="none" stroke="#666666" points="252,-15 252,-154 391,-154 391,-15 252,-15"/>
</a>
</g>
</g>
<!-- Node1&#45;&gt;Node7 -->
<g id="edge6_Node000001_Node000007" class="edge">
<title>Node1&#45;&gt;Node7</title>
<g id="a_edge6_Node000001_Node000007"><a xlink:title=" ">
<path fill="none" stroke="#63b8ff" d="M245.94,-196.56C255.59,-182.38 265.49,-167.82 274.83,-154.11"/>
<polygon fill="none" stroke="#63b8ff" points="243.03,-194.62 240.3,-204.85 248.82,-198.56 243.03,-194.62"/>
</a>
</g>
</g>
<!-- Node2 -->
<g id="Node000002" class="node">
<title>Node2</title>
<g id="a_Node000002"><a xlink:href="../../de/d04/classVUndoCommand.html" target="_top" xlink:title=" ">
<polygon fill="white" stroke="transparent" points="260,-639 117,-639 117,-395 260,-395 260,-639"/>
<text text-anchor="start" x="147.5" y="-627" font-family="Helvetica,sans-Serif" font-size="10.00">VUndoCommand</text>
<text text-anchor="start" x="121.5" y="-612" font-family="Helvetica,sans-Serif" font-size="10.00">#</text>
<text text-anchor="start" x="134.5" y="-612" font-family="Helvetica,sans-Serif" font-size="10.00">xml</text>
<text text-anchor="start" x="121.5" y="-597" font-family="Helvetica,sans-Serif" font-size="10.00">#</text>
<text text-anchor="start" x="134.5" y="-597" font-family="Helvetica,sans-Serif" font-size="10.00">doc</text>
<text text-anchor="start" x="121.5" y="-582" font-family="Helvetica,sans-Serif" font-size="10.00">#</text>
<text text-anchor="start" x="134.5" y="-582" font-family="Helvetica,sans-Serif" font-size="10.00">nodeId</text>
<text text-anchor="start" x="121.5" y="-567" font-family="Helvetica,sans-Serif" font-size="10.00">#</text>
<text text-anchor="start" x="134.5" y="-567" font-family="Helvetica,sans-Serif" font-size="10.00">redoFlag</text>
<text text-anchor="start" x="121.5" y="-552" font-family="Helvetica,sans-Serif" font-size="10.00">+</text>
<text text-anchor="start" x="134.5" y="-552" font-family="Helvetica,sans-Serif" font-size="10.00">VUndoCommand()</text>
<text text-anchor="start" x="121.5" y="-537" font-family="Helvetica,sans-Serif" font-size="10.00">+</text>
<text text-anchor="start" x="134.5" y="-537" font-family="Helvetica,sans-Serif" font-size="10.00">~VUndoCommand()</text>
<text text-anchor="start" x="121.5" y="-522" font-family="Helvetica,sans-Serif" font-size="10.00">#</text>
<text text-anchor="start" x="134.5" y="-522" font-family="Helvetica,sans-Serif" font-size="10.00">RedoFullParsing()</text>
<text text-anchor="start" x="121.5" y="-507" font-family="Helvetica,sans-Serif" font-size="10.00">#</text>
<text text-anchor="start" x="134.5" y="-507" font-family="Helvetica,sans-Serif" font-size="10.00">UndoDeleteAfterSibling()</text>
<text text-anchor="start" x="121.5" y="-492" font-family="Helvetica,sans-Serif" font-size="10.00">#</text>
<text text-anchor="start" x="134.5" y="-492" font-family="Helvetica,sans-Serif" font-size="10.00">IncrementReferences()</text>
<text text-anchor="start" x="121.5" y="-477" font-family="Helvetica,sans-Serif" font-size="10.00">#</text>
<text text-anchor="start" x="134.5" y="-477" font-family="Helvetica,sans-Serif" font-size="10.00">DecrementReferences()</text>
<text text-anchor="start" x="121.5" y="-462" font-family="Helvetica,sans-Serif" font-size="10.00">#</text>
<text text-anchor="start" x="134.5" y="-462" font-family="Helvetica,sans-Serif" font-size="10.00">IncrementReferences()</text>
<text text-anchor="start" x="121.5" y="-447" font-family="Helvetica,sans-Serif" font-size="10.00">#</text>
<text text-anchor="start" x="134.5" y="-447" font-family="Helvetica,sans-Serif" font-size="10.00">DecrementReferences()</text>
<text text-anchor="start" x="121.5" y="-432" font-family="Helvetica,sans-Serif" font-size="10.00">#</text>
<text text-anchor="start" x="134.5" y="-432" font-family="Helvetica,sans-Serif" font-size="10.00">IncrementReferences()</text>
<text text-anchor="start" x="121.5" y="-417" font-family="Helvetica,sans-Serif" font-size="10.00">#</text>
<text text-anchor="start" x="134.5" y="-417" font-family="Helvetica,sans-Serif" font-size="10.00">DecrementReferences()</text>
<text text-anchor="start" x="121.5" y="-402" font-family="Helvetica,sans-Serif" font-size="10.00">#</text>
<text text-anchor="start" x="134.5" y="-402" font-family="Helvetica,sans-Serif" font-size="10.00">getDestinationObject()</text>
<polygon fill="#666666" stroke="#666666" points="117.5,-622 117.5,-622 260.5,-622 260.5,-622 117.5,-622"/>
<polygon fill="#666666" stroke="#666666" points="117.5,-562 117.5,-562 132.5,-562 132.5,-562 117.5,-562"/>
<polygon fill="#666666" stroke="#666666" points="132.5,-562 132.5,-562 260.5,-562 260.5,-562 132.5,-562"/>
<polygon fill="none" stroke="#666666" points="117,-395 117,-639 260,-639 260,-395 117,-395"/>
</a>
</g>
</g>
<!-- Node2&#45;&gt;Node1 -->
<g id="edge1_Node000001_Node000002" class="edge">
<title>Node2&#45;&gt;Node1</title>
<g id="a_edge1_Node000001_Node000002"><a xlink:title=" ">
<path fill="none" stroke="#63b8ff" d="M188.5,-384.58C188.5,-375.98 188.5,-367.48 188.5,-359.29"/>
<polygon fill="none" stroke="#63b8ff" points="185,-384.72 188.5,-394.72 192,-384.72 185,-384.72"/>
</a>
</g>
</g>
<!-- Node3 -->
<g id="Node000003" class="node">
<title>Node3</title>
<g id="a_Node000003"><a xlink:title=" ">
<polygon fill="white" stroke="transparent" points="168.5,-724 118.5,-724 118.5,-675 168.5,-675 168.5,-724"/>
<text text-anchor="start" x="123.5" y="-711.5" font-family="Helvetica,sans-Serif" font-size="10.00">QObject</text>
<text text-anchor="start" x="141.5" y="-696.5" font-family="Helvetica,sans-Serif" font-size="10.00"> </text>
<text text-anchor="start" x="141.5" y="-681.5" font-family="Helvetica,sans-Serif" font-size="10.00"> </text>
<polygon fill="#666666" stroke="#666666" points="118.5,-706.5 118.5,-706.5 168.5,-706.5 168.5,-706.5 118.5,-706.5"/>
<polygon fill="#666666" stroke="#666666" points="118.5,-691.5 118.5,-691.5 168.5,-691.5 168.5,-691.5 118.5,-691.5"/>
<polygon fill="none" stroke="#666666" points="118.5,-675 118.5,-724 168.5,-724 168.5,-675 118.5,-675"/>
</a>
</g>
</g>
<!-- Node3&#45;&gt;Node2 -->
<g id="edge2_Node000002_Node000003" class="edge">
<title>Node3&#45;&gt;Node2</title>
<g id="a_edge2_Node000002_Node000003"><a xlink:title=" ">
<path fill="none" stroke="#63b8ff" d="M151.81,-665.18C153.76,-657.33 155.96,-648.5 158.29,-639.18"/>
<polygon fill="none" stroke="#63b8ff" points="148.41,-664.35 149.38,-674.9 155.2,-666.05 148.41,-664.35"/>
</a>
</g>
</g>
<!-- Node4 -->
<g id="Node000004" class="node">
<title>Node4</title>
<g id="a_Node000004"><a xlink:title=" ">
<polygon fill="white" stroke="transparent" points="280.5,-724 186.5,-724 186.5,-675 280.5,-675 280.5,-724"/>
<text text-anchor="start" x="191.5" y="-711.5" font-family="Helvetica,sans-Serif" font-size="10.00">QUndoCommand</text>
<text text-anchor="start" x="231.5" y="-696.5" font-family="Helvetica,sans-Serif" font-size="10.00"> </text>
<text text-anchor="start" x="231.5" y="-681.5" font-family="Helvetica,sans-Serif" font-size="10.00"> </text>
<polygon fill="#666666" stroke="#666666" points="186.5,-706.5 186.5,-706.5 280.5,-706.5 280.5,-706.5 186.5,-706.5"/>
<polygon fill="#666666" stroke="#666666" points="186.5,-691.5 186.5,-691.5 280.5,-691.5 280.5,-691.5 186.5,-691.5"/>
<polygon fill="none" stroke="#666666" points="186.5,-675 186.5,-724 280.5,-724 280.5,-675 186.5,-675"/>
</a>
</g>
</g>
<!-- Node4&#45;&gt;Node2 -->
<g id="edge3_Node000002_Node000004" class="edge">
<title>Node4&#45;&gt;Node2</title>
<g id="a_edge3_Node000002_Node000004"><a xlink:title=" ">
<path fill="none" stroke="#63b8ff" d="M225.19,-665.18C223.24,-657.33 221.04,-648.5 218.71,-639.18"/>
<polygon fill="none" stroke="#63b8ff" points="221.8,-666.05 227.62,-674.9 228.59,-664.35 221.8,-666.05"/>
</a>
</g>
</g>
</g>
</svg>

<g id="navigator" transform="translate(0 0)" fill="#404254">
  <rect fill="#f2f5e9" fill-opacity="0.5" stroke="#606060" stroke-width=".5" x="0" y="0" width="60" height="60"/>
  <use id="zoomplus" xlink:href="#zoomPlus" x="17" y="9" onmousedown="handleZoom(evt,'in')"/>
  <use id="zoomminus" xlink:href="#zoomMin" x="42" y="9" onmousedown="handleZoom(evt,'out')"/>
  <use id="reset" xlink:href="#resetDef" x="30" y="36" onmousedown="handleReset()"/>
   <use id="arrowup" xlink:href="#arrowUp" x="0" y="0" onmousedown="handlePan(0,-1)"/>
  <use id="arrowright" xlink:href="#arrowRight" x="0" y="0" onmousedown="handlePan(1,0)"/>
  <use id="arrowdown" xlink:href="#arrowDown" x="0" y="0" onmousedown="handlePan(0,1)"/>
  <use id="arrowleft" xlink:href="#arrowLeft" x="0" y="0" onmousedown="handlePan(-1,0)"/>
</g>
<svg viewBox="0 0 15 15" width="100%" height="30px" preserveAspectRatio="xMaxYMin meet">
 <g id="arrow_out" transform="scale(0.3 0.3)">
  <a xlink:href="classMoveAbstractLabel__inherit__graph_org.svg" target="_base">
   <rect id="button" ry="5" rx="5" y="6" x="6" height="38" width="38"
        fill="#f2f5e9" fill-opacity="0.5" stroke="#606060" stroke-width="1.0"/>
   <path id="arrow"
     d="M 11.500037,31.436501 C 11.940474,20.09759 22.043105,11.32322 32.158766,21.979434 L 37.068811,17.246167 C 37.068811,17.246167 37.088388,32 37.088388,32 L 22.160133,31.978069 C 22.160133,31.978069 26.997745,27.140456 26.997745,27.140456 C 18.528582,18.264221 13.291696,25.230495 11.500037,31.436501 z"
     style="fill:#404040;"/>
  </a>
 </g>
</svg>

<style type='text/css'>
<![CDATA[
[data-mouse-over-selected='false'] { opacity: 0.7; }
[data-mouse-over-selected='true']  { opacity: 1.0; }
]]>
</style>
<script type="application/ecmascript"><![CDATA[
document.addEventListener('DOMContentLoaded', (event) => {
  highlightEdges();
  highlightAdjacentNodes();
});
]]></script>
</svg>
