<?xml version="1.0" encoding="UTF-8" standalone="no"?>
<!DOCTYPE svg PUBLIC "-//W3C//DTD SVG 1.1//EN"
 "http://www.w3.org/Graphics/SVG/1.1/DTD/svg11.dtd">
<!-- Generated by graphviz version 2.43.0 (0)
 -->
<!-- Title: VCurvePathItem Pages: 1 -->
<svg width="392pt" height="269pt"
 viewBox="0.00 0.00 392.00 269.00" xmlns="http://www.w3.org/2000/svg" xmlns:xlink="http://www.w3.org/1999/xlink">

<svg id="main" version="1.1" xmlns="http://www.w3.org/2000/svg" xmlns:xlink="http://www.w3.org/1999/xlink" xml:space="preserve" onload="init(evt)">
<style type="text/css"><![CDATA[
.node, .edge {opacity: 0.7;}
.node.selected, .edge.selected {opacity: 1;}
.edge:hover path { stroke: red; }
.edge:hover polygon { stroke: red; fill: red; }
]]></style>
<script type="application/ecmascript" xlink:href="../../svg.min.js"/>
<svg id="graph" class="graph">
<g id="graph0" class="graph" transform="scale(1 1) rotate(0) translate(4 265)">
<title>VCurvePathItem</title>
<!-- Node1 -->
<g id="Node000001" class="node">
<title>Node1</title>
<g id="a_Node000001"><a xlink:title=" ">
<polygon fill="#999999" stroke="transparent" points="250.5,-154 127.5,-154 127.5,0 250.5,0 250.5,-154"/>
<text text-anchor="start" x="150" y="-142" font-family="Helvetica,sans-Serif" font-size="10.00">VCurvePathItem</text>
<text text-anchor="start" x="187.5" y="-127" font-family="Helvetica,sans-Serif" font-size="10.00"> </text>
<text text-anchor="start" x="132" y="-112" font-family="Helvetica,sans-Serif" font-size="10.00">+</text>
<text text-anchor="start" x="145" y="-112" font-family="Helvetica,sans-Serif" font-size="10.00">VCurvePathItem()</text>
<text text-anchor="start" x="132" y="-97" font-family="Helvetica,sans-Serif" font-size="10.00">+</text>
<text text-anchor="start" x="145" y="-97" font-family="Helvetica,sans-Serif" font-size="10.00">~VCurvePathItem()</text>
<text text-anchor="start" x="132" y="-82" font-family="Helvetica,sans-Serif" font-size="10.00">+</text>
<text text-anchor="start" x="145" y="-82" font-family="Helvetica,sans-Serif" font-size="10.00">shape()</text>
<text text-anchor="start" x="132" y="-67" font-family="Helvetica,sans-Serif" font-size="10.00">+</text>
<text text-anchor="start" x="145" y="-67" font-family="Helvetica,sans-Serif" font-size="10.00">paint()</text>
<text text-anchor="start" x="132" y="-52" font-family="Helvetica,sans-Serif" font-size="10.00">+</text>
<text text-anchor="start" x="145" y="-52" font-family="Helvetica,sans-Serif" font-size="10.00">type()</text>
<text text-anchor="start" x="132" y="-37" font-family="Helvetica,sans-Serif" font-size="10.00">+</text>
<text text-anchor="start" x="145" y="-37" font-family="Helvetica,sans-Serif" font-size="10.00">SetDirectionArrows()</text>
<text text-anchor="start" x="132" y="-22" font-family="Helvetica,sans-Serif" font-size="10.00">+</text>
<text text-anchor="start" x="145" y="-22" font-family="Helvetica,sans-Serif" font-size="10.00">SetPoints()</text>
<text text-anchor="start" x="132" y="-7" font-family="Helvetica,sans-Serif" font-size="10.00">#</text>
<text text-anchor="start" x="145" y="-7" font-family="Helvetica,sans-Serif" font-size="10.00">ScalePenWidth()</text>
<polygon fill="#666666" stroke="#666666" points="128,-137 128,-137 251,-137 251,-137 128,-137"/>
<polygon fill="#666666" stroke="#666666" points="128,-122 128,-122 251,-122 251,-122 128,-122"/>
<polygon fill="none" stroke="#666666" points="127.5,0 127.5,-154 250.5,-154 250.5,0 127.5,0"/>
</a>
</g>
</g>
<!-- Node2 -->
<g id="Node000002" class="node">
<title>Node2</title>
<g id="a_Node000002"><a xlink:title=" ">
<polygon fill="white" stroke="transparent" points="104,-255.5 0,-255.5 0,-206.5 104,-206.5 104,-255.5"/>
<text text-anchor="start" x="5" y="-243" font-family="Helvetica,sans-Serif" font-size="10.00">QGraphicsPathItem</text>
<text text-anchor="start" x="50" y="-228" font-family="Helvetica,sans-Serif" font-size="10.00"> </text>
<text text-anchor="start" x="50" y="-213" font-family="Helvetica,sans-Serif" font-size="10.00"> </text>
<polygon fill="#666666" stroke="#666666" points="0,-238 0,-238 104,-238 104,-238 0,-238"/>
<polygon fill="#666666" stroke="#666666" points="0,-223 0,-223 104,-223 104,-223 0,-223"/>
<polygon fill="none" stroke="#666666" points="0,-206.5 0,-255.5 104,-255.5 104,-206.5 0,-206.5"/>
</a>
</g>
</g>
<!-- Node2&#45;&gt;Node1 -->
<g id="edge1_Node000001_Node000002" class="edge">
<title>Node2&#45;&gt;Node1</title>
<g id="a_edge1_Node000001_Node000002"><a xlink:title=" ">
<path fill="none" stroke="#63b8ff" d="M80.22,-198.69C93.85,-183.57 110.79,-164.77 127.21,-146.55"/>
<polygon fill="none" stroke="#63b8ff" points="77.5,-196.48 73.41,-206.25 82.7,-201.17 77.5,-196.48"/>
</a>
</g>
</g>
<!-- Node3 -->
<g id="Node000003" class="node">
<title>Node3</title>
<g id="a_Node000003"><a xlink:href="../../d5/dc2/classQVector.html" target="_top" xlink:title=" ">
<polygon fill="white" stroke="transparent" points="256,-261 122,-261 122,-201 256,-201 256,-261"/>
<text text-anchor="start" x="127" y="-249" font-family="Helvetica,sans-Serif" font-size="10.00">QVector&lt; QPair&lt; QLineF,</text>
<text text-anchor="start" x="159" y="-238" font-family="Helvetica,sans-Serif" font-size="10.00"> QLineF &gt; &gt;</text>
<text text-anchor="start" x="187" y="-223" font-family="Helvetica,sans-Serif" font-size="10.00"> </text>
<text text-anchor="start" x="187" y="-208" font-family="Helvetica,sans-Serif" font-size="10.00"> </text>
<polygon fill="#666666" stroke="#666666" points="122,-233 122,-233 256,-233 256,-233 122,-233"/>
<polygon fill="#666666" stroke="#666666" points="122,-218 122,-218 256,-218 256,-218 122,-218"/>
<polygon fill="none" stroke="#666666" points="122,-201 122,-261 256,-261 256,-201 122,-201"/>
</a>
</g>
</g>
<!-- Node3&#45;&gt;Node1 -->
<g id="edge2_Node000001_Node000003" class="edge">
<title>Node3&#45;&gt;Node1</title>
<g id="a_edge2_Node000001_Node000003"><a xlink:title=" ">
<path fill="none" stroke="#63b8ff" d="M189,-200.69C189,-190.66 189,-178.86 189,-166.61"/>
<polygon fill="none" stroke="#63b8ff" points="189,-166.26 185,-160.26 189,-154.26 193,-160.26 189,-166.26"/>
</a>
</g>
<text text-anchor="middle" x="238.5" y="-175" font-family="Helvetica,sans-Serif" font-size="10.00" fill="grey"> &#45;m_directionArrows</text>
</g>
<!-- Node4 -->
<g id="Node000004" class="node">
<title>Node4</title>
<g id="a_Node000004"><a xlink:href="../../d5/dc2/classQVector.html" target="_top" xlink:title=" ">
<polygon fill="white" stroke="transparent" points="384,-255.5 274,-255.5 274,-206.5 384,-206.5 384,-255.5"/>
<text text-anchor="start" x="279" y="-243" font-family="Helvetica,sans-Serif" font-size="10.00">QVector&lt; QPointF &gt;</text>
<text text-anchor="start" x="327" y="-228" font-family="Helvetica,sans-Serif" font-size="10.00"> </text>
<text text-anchor="start" x="327" y="-213" font-family="Helvetica,sans-Serif" font-size="10.00"> </text>
<polygon fill="#666666" stroke="#666666" points="274,-238 274,-238 384,-238 384,-238 274,-238"/>
<polygon fill="#666666" stroke="#666666" points="274,-223 274,-223 384,-223 384,-223 274,-223"/>
<polygon fill="none" stroke="#666666" points="274,-206.5 274,-255.5 384,-255.5 384,-206.5 274,-206.5"/>
</a>
</g>
</g>
<!-- Node4&#45;&gt;Node1 -->
<g id="edge3_Node000001_Node000004" class="edge">
<title>Node4&#45;&gt;Node1</title>
<g id="a_edge3_Node000001_Node000004"><a xlink:title=" ">
<path fill="none" stroke="#63b8ff" d="M315.91,-206.45C309.35,-195.5 300.92,-182.6 292,-172 282.22,-160.38 271.05,-148.81 259.76,-137.96"/>
<polygon fill="none" stroke="#63b8ff" points="259.44,-137.66 252.33,-136.46 250.7,-129.43 257.81,-130.63 259.44,-137.66"/>
</a>
</g>
<text text-anchor="middle" x="326" y="-175" font-family="Helvetica,sans-Serif" font-size="10.00" fill="grey"> &#45;m_points</text>
</g>
</g>
</svg>
</svg>

<style type='text/css'>
<![CDATA[
[data-mouse-over-selected='false'] { opacity: 0.7; }
[data-mouse-over-selected='true']  { opacity: 1.0; }
]]>
</style>
<script type="application/ecmascript"><![CDATA[
document.addEventListener('DOMContentLoaded', (event) => {
  highlightEdges();
  highlightAdjacentNodes();
});
]]></script>
</svg>
