<?xml version="1.0" encoding="UTF-8" standalone="no"?>
<!DOCTYPE svg PUBLIC "-//W3C//DTD SVG 1.1//EN"
 "http://www.w3.org/Graphics/SVG/1.1/DTD/svg11.dtd">
<!-- Generated by graphviz version 2.43.0 (0)
 -->
<!-- Title: src/libs/vtools/dialogs/tools/piece/pattern_piece_dialog.h Pages: 1 -->
<svg width="3069pt" height="181pt"
 viewBox="0.00 0.00 3069.00 181.00" xmlns="http://www.w3.org/2000/svg" xmlns:xlink="http://www.w3.org/1999/xlink">
<g id="graph0" class="graph" transform="scale(1 1) rotate(0) translate(4 177)">
<title>src/libs/vtools/dialogs/tools/piece/pattern_piece_dialog.h</title>
<!-- Node1 -->
<g id="Node000001" class="node">
<title>Node1</title>
<g id="a_Node000001"><a xlink:title=" ">
<polygon fill="#999999" stroke="#666666" points="1685.5,-173 1542.5,-173 1542.5,-132 1685.5,-132 1685.5,-173"/>
<text text-anchor="start" x="1550.5" y="-161" font-family="Helvetica,sans-Serif" font-size="10.00">src/libs/vtools/dialogs</text>
<text text-anchor="start" x="1550.5" y="-150" font-family="Helvetica,sans-Serif" font-size="10.00">/tools/piece/pattern_piece</text>
<text text-anchor="middle" x="1614" y="-139" font-family="Helvetica,sans-Serif" font-size="10.00">_dialog.h</text>
</a>
</g>
</g>
<!-- Node2 -->
<g id="Node000002" class="node">
<title>Node2</title>
<g id="a_Node000002"><a xlink:href="../../d1/d30/dialogtool_8h.html" target="_top" xlink:title=" ">
<polygon fill="white" stroke="#666666" points="1297.5,-90.5 1214.5,-90.5 1214.5,-71.5 1297.5,-71.5 1297.5,-90.5"/>
<text text-anchor="middle" x="1256" y="-78.5" font-family="Helvetica,sans-Serif" font-size="10.00">../dialogtool.h</text>
</a>
</g>
</g>
<!-- Node1&#45;&gt;Node2 -->
<g id="edge1_Node000001_Node000002" class="edge">
<title>Node1&#45;&gt;Node2</title>
<g id="a_edge1_Node000001_Node000002"><a xlink:title=" ">
<path fill="none" stroke="#63b8ff" d="M1542.3,-140.39C1479.85,-130.28 1387.02,-114.18 1307,-96 1303.13,-95.12 1299.12,-94.14 1295.11,-93.12"/>
<polygon fill="#63b8ff" stroke="#63b8ff" points="1295.85,-89.69 1285.28,-90.52 1294.06,-96.46 1295.85,-89.69"/>
</a>
</g>
</g>
<!-- Node32 -->
<g id="Node000032" class="node">
<title>Node32</title>
<g id="a_Node000032"><a xlink:title=" ">
<polygon fill="#e0e0e0" stroke="#999999" points="1438.5,-90.5 1315.5,-90.5 1315.5,-71.5 1438.5,-71.5 1438.5,-90.5"/>
<text text-anchor="middle" x="1377" y="-78.5" font-family="Helvetica,sans-Serif" font-size="10.00">../vpatterndb/vpiece.h</text>
</a>
</g>
</g>
<!-- Node1&#45;&gt;Node32 -->
<g id="edge31_Node000001_Node000032" class="edge">
<title>Node1&#45;&gt;Node32</title>
<g id="a_edge31_Node000001_Node000032"><a xlink:title=" ">
<path fill="none" stroke="#63b8ff" d="M1547.35,-131.96C1504.98,-119.53 1451.6,-103.88 1415.99,-93.44"/>
<polygon fill="#63b8ff" stroke="#63b8ff" points="1416.58,-89.96 1406,-90.5 1414.61,-96.68 1416.58,-89.96"/>
</a>
</g>
</g>
<!-- Node33 -->
<g id="Node000033" class="node">
<title>Node33</title>
<g id="a_Node000033"><a xlink:title=" ">
<polygon fill="#e0e0e0" stroke="#999999" points="1605.5,-96 1456.5,-96 1456.5,-66 1605.5,-66 1605.5,-96"/>
<text text-anchor="start" x="1464.5" y="-84" font-family="Helvetica,sans-Serif" font-size="10.00">../vpatterndb/floatItemData</text>
<text text-anchor="middle" x="1531" y="-73" font-family="Helvetica,sans-Serif" font-size="10.00">/vgrainlinedata.h</text>
</a>
</g>
</g>
<!-- Node1&#45;&gt;Node33 -->
<g id="edge32_Node000001_Node000033" class="edge">
<title>Node1&#45;&gt;Node33</title>
<g id="a_edge32_Node000001_Node000033"><a xlink:title=" ">
<path fill="none" stroke="#63b8ff" d="M1590.44,-131.77C1579.59,-122.69 1566.72,-111.91 1555.73,-102.71"/>
<polygon fill="#63b8ff" stroke="#63b8ff" points="1557.68,-99.77 1547.77,-96.04 1553.19,-105.14 1557.68,-99.77"/>
</a>
</g>
</g>
<!-- Node34 -->
<g id="Node000034" class="node">
<title>Node34</title>
<g id="a_Node000034"><a xlink:title=" ">
<polygon fill="#e0e0e0" stroke="#999999" points="1772.5,-96 1623.5,-96 1623.5,-66 1772.5,-66 1772.5,-96"/>
<text text-anchor="start" x="1631.5" y="-84" font-family="Helvetica,sans-Serif" font-size="10.00">../vpatterndb/floatItemData</text>
<text text-anchor="middle" x="1698" y="-73" font-family="Helvetica,sans-Serif" font-size="10.00">/vpatternlabeldata.h</text>
</a>
</g>
</g>
<!-- Node1&#45;&gt;Node34 -->
<g id="edge33_Node000001_Node000034" class="edge">
<title>Node1&#45;&gt;Node34</title>
<g id="a_edge33_Node000001_Node000034"><a xlink:title=" ">
<path fill="none" stroke="#63b8ff" d="M1637.85,-131.77C1648.93,-122.6 1662.1,-111.7 1673.29,-102.44"/>
<polygon fill="#63b8ff" stroke="#63b8ff" points="1675.56,-105.11 1681.03,-96.04 1671.1,-99.72 1675.56,-105.11"/>
</a>
</g>
</g>
<!-- Node35 -->
<g id="Node000035" class="node">
<title>Node35</title>
<g id="a_Node000035"><a xlink:title=" ">
<polygon fill="#e0e0e0" stroke="#999999" points="1939.5,-96 1790.5,-96 1790.5,-66 1939.5,-66 1939.5,-96"/>
<text text-anchor="start" x="1798.5" y="-84" font-family="Helvetica,sans-Serif" font-size="10.00">../vpatterndb/floatItemData</text>
<text text-anchor="middle" x="1865" y="-73" font-family="Helvetica,sans-Serif" font-size="10.00">/vpiecelabeldata.h</text>
</a>
</g>
</g>
<!-- Node1&#45;&gt;Node35 -->
<g id="edge34_Node000001_Node000035" class="edge">
<title>Node1&#45;&gt;Node35</title>
<g id="a_edge34_Node000001_Node000035"><a xlink:title=" ">
<path fill="none" stroke="#63b8ff" d="M1684.59,-131.96C1722.36,-121.5 1768.4,-108.75 1804.52,-98.75"/>
<polygon fill="#63b8ff" stroke="#63b8ff" points="1805.72,-102.05 1814.42,-96 1803.85,-95.3 1805.72,-102.05"/>
</a>
</g>
</g>
<!-- Node36 -->
<g id="Node000036" class="node">
<title>Node36</title>
<g id="a_Node000036"><a xlink:title=" ">
<polygon fill="#e0e0e0" stroke="#999999" points="2011,-90.5 1957,-90.5 1957,-71.5 2011,-71.5 2011,-90.5"/>
<text text-anchor="middle" x="1984" y="-78.5" font-family="Helvetica,sans-Serif" font-size="10.00">QSound</text>
</a>
</g>
</g>
<!-- Node1&#45;&gt;Node36 -->
<g id="edge35_Node000001_Node000036" class="edge">
<title>Node1&#45;&gt;Node36</title>
<g id="a_edge35_Node000001_Node000036"><a xlink:title=" ">
<path fill="none" stroke="#63b8ff" d="M1685.56,-144.19C1754.05,-136.13 1859.86,-120.9 1949,-96 1950.94,-95.46 1952.92,-94.85 1954.9,-94.19"/>
<polygon fill="#63b8ff" stroke="#63b8ff" points="1956.45,-97.34 1964.64,-90.61 1954.04,-90.77 1956.45,-97.34"/>
</a>
</g>
</g>
<!-- Node3 -->
<g id="Node000003" class="node">
<title>Node3</title>
<g id="a_Node000003"><a xlink:title=" ">
<polygon fill="#e0e0e0" stroke="#999999" points="120,-24.5 0,-24.5 0,-5.5 120,-5.5 120,-24.5"/>
<text text-anchor="middle" x="60" y="-12.5" font-family="Helvetica,sans-Serif" font-size="10.00">qcompilerdetection.h</text>
</a>
</g>
</g>
<!-- Node2&#45;&gt;Node3 -->
<g id="edge2_Node000002_Node000003" class="edge">
<title>Node2&#45;&gt;Node3</title>
<g id="a_edge2_Node000002_Node000003"><a xlink:title=" ">
<path fill="none" stroke="#63b8ff" d="M1214.36,-80.49C1066.11,-81.72 550.34,-81.77 129,-30 121.74,-29.11 114.11,-27.87 106.67,-26.49"/>
<polygon fill="#63b8ff" stroke="#63b8ff" points="107.19,-23.03 96.71,-24.55 105.86,-29.9 107.19,-23.03"/>
</a>
</g>
</g>
<!-- Node4 -->
<g id="Node000004" class="node">
<title>Node4</title>
<g id="a_Node000004"><a xlink:title=" ">
<polygon fill="#e0e0e0" stroke="#999999" points="211.5,-24.5 138.5,-24.5 138.5,-5.5 211.5,-5.5 211.5,-24.5"/>
<text text-anchor="middle" x="175" y="-12.5" font-family="Helvetica,sans-Serif" font-size="10.00">QCheckBox</text>
</a>
</g>
</g>
<!-- Node2&#45;&gt;Node4 -->
<g id="edge3_Node000002_Node000004" class="edge">
<title>Node2&#45;&gt;Node4</title>
<g id="a_edge3_Node000002_Node000004"><a xlink:title=" ">
<path fill="none" stroke="#63b8ff" d="M1214.23,-79.36C1045.89,-76.56 416.86,-63.99 221,-30 217.04,-29.31 212.95,-28.39 208.9,-27.34"/>
<polygon fill="#63b8ff" stroke="#63b8ff" points="209.65,-23.92 199.08,-24.55 207.74,-30.65 209.65,-23.92"/>
</a>
</g>
</g>
<!-- Node5 -->
<g id="Node000005" class="node">
<title>Node5</title>
<g id="a_Node000005"><a xlink:title=" ">
<polygon fill="#e0e0e0" stroke="#999999" points="280,-24.5 230,-24.5 230,-5.5 280,-5.5 280,-24.5"/>
<text text-anchor="middle" x="255" y="-12.5" font-family="Helvetica,sans-Serif" font-size="10.00">QColor</text>
</a>
</g>
</g>
<!-- Node2&#45;&gt;Node5 -->
<g id="edge4_Node000002_Node000005" class="edge">
<title>Node2&#45;&gt;Node5</title>
<g id="a_edge4_Node000002_Node000005"><a xlink:title=" ">
<path fill="none" stroke="#63b8ff" d="M1214.44,-79.72C1053.23,-78.32 469.31,-70.54 289,-30 286.77,-29.5 284.51,-28.87 282.25,-28.15"/>
<polygon fill="#63b8ff" stroke="#63b8ff" points="283.22,-24.77 272.63,-24.58 280.79,-31.34 283.22,-24.77"/>
</a>
</g>
</g>
<!-- Node6 -->
<g id="Node000006" class="node">
<title>Node6</title>
<g id="a_Node000006"><a xlink:title=" ">
<polygon fill="#e0e0e0" stroke="#999999" points="375.5,-24.5 298.5,-24.5 298.5,-5.5 375.5,-5.5 375.5,-24.5"/>
<text text-anchor="middle" x="337" y="-12.5" font-family="Helvetica,sans-Serif" font-size="10.00">QComboBox</text>
</a>
</g>
</g>
<!-- Node2&#45;&gt;Node6 -->
<g id="edge5_Node000002_Node000006" class="edge">
<title>Node2&#45;&gt;Node6</title>
<g id="a_edge5_Node000002_Node000006"><a xlink:title=" ">
<path fill="none" stroke="#63b8ff" d="M1214.36,-78.86C1063.73,-74.54 547.51,-57.99 385,-30 380.81,-29.28 376.47,-28.32 372.19,-27.25"/>
<polygon fill="#63b8ff" stroke="#63b8ff" points="372.98,-23.83 362.41,-24.57 371.13,-30.58 372.98,-23.83"/>
</a>
</g>
</g>
<!-- Node7 -->
<g id="Node000007" class="node">
<title>Node7</title>
<g id="a_Node000007"><a xlink:title=" ">
<polygon fill="#e0e0e0" stroke="#999999" points="450,-24.5 394,-24.5 394,-5.5 450,-5.5 450,-24.5"/>
<text text-anchor="middle" x="422" y="-12.5" font-family="Helvetica,sans-Serif" font-size="10.00">QDialog</text>
</a>
</g>
</g>
<!-- Node2&#45;&gt;Node7 -->
<g id="edge6_Node000002_Node000007" class="edge">
<title>Node2&#45;&gt;Node7</title>
<g id="a_edge6_Node000002_Node000007"><a xlink:title=" ">
<path fill="none" stroke="#63b8ff" d="M1214.43,-79.03C1072.14,-75.45 605.37,-61.53 459,-30 456.32,-29.42 453.58,-28.69 450.86,-27.85"/>
<polygon fill="#63b8ff" stroke="#63b8ff" points="451.85,-24.49 441.26,-24.53 449.56,-31.11 451.85,-24.49"/>
</a>
</g>
</g>
<!-- Node8 -->
<g id="Node000008" class="node">
<title>Node8</title>
<g id="a_Node000008"><a xlink:title=" ">
<polygon fill="#e0e0e0" stroke="#999999" points="575.5,-24.5 468.5,-24.5 468.5,-5.5 575.5,-5.5 575.5,-24.5"/>
<text text-anchor="middle" x="522" y="-12.5" font-family="Helvetica,sans-Serif" font-size="10.00">QDialogButtonBox</text>
</a>
</g>
</g>
<!-- Node2&#45;&gt;Node8 -->
<g id="edge7_Node000002_Node000008" class="edge">
<title>Node2&#45;&gt;Node8</title>
<g id="a_edge7_Node000002_Node000008"><a xlink:title=" ">
<path fill="none" stroke="#63b8ff" d="M1214.47,-79.04C1108.73,-76.14 820.91,-65.36 584,-30 578.06,-29.11 571.84,-27.97 565.73,-26.72"/>
<polygon fill="#63b8ff" stroke="#63b8ff" points="566.13,-23.23 555.62,-24.54 564.65,-30.07 566.13,-23.23"/>
</a>
</g>
</g>
<!-- Node9 -->
<g id="Node000009" class="node">
<title>Node9</title>
<g id="a_Node000009"><a xlink:title=" ">
<polygon fill="#e0e0e0" stroke="#999999" points="656.5,-24.5 593.5,-24.5 593.5,-5.5 656.5,-5.5 656.5,-24.5"/>
<text text-anchor="middle" x="625" y="-12.5" font-family="Helvetica,sans-Serif" font-size="10.00">QLineEdit</text>
</a>
</g>
</g>
<!-- Node2&#45;&gt;Node9 -->
<g id="edge8_Node000002_Node000009" class="edge">
<title>Node2&#45;&gt;Node9</title>
<g id="a_edge8_Node000002_Node000009"><a xlink:title=" ">
<path fill="none" stroke="#63b8ff" d="M1214.27,-80.06C1116.92,-79.42 867.65,-73.31 665,-30 662,-29.36 658.92,-28.56 655.86,-27.66"/>
<polygon fill="#63b8ff" stroke="#63b8ff" points="656.9,-24.32 646.3,-24.57 654.74,-30.98 656.9,-24.32"/>
</a>
</g>
</g>
<!-- Node10 -->
<g id="Node000010" class="node">
<title>Node10</title>
<g id="a_Node000010"><a xlink:title=" ">
<polygon fill="#e0e0e0" stroke="#999999" points="715.5,-24.5 674.5,-24.5 674.5,-5.5 715.5,-5.5 715.5,-24.5"/>
<text text-anchor="middle" x="695" y="-12.5" font-family="Helvetica,sans-Serif" font-size="10.00">QList</text>
</a>
</g>
</g>
<!-- Node2&#45;&gt;Node10 -->
<g id="edge9_Node000002_Node000010" class="edge">
<title>Node2&#45;&gt;Node10</title>
<g id="a_edge9_Node000002_Node000010"><a xlink:title=" ">
<path fill="none" stroke="#63b8ff" d="M1214.17,-80.86C1123.37,-81.7 902.15,-78.12 725,-30 723.51,-29.6 722,-29.12 720.5,-28.6"/>
<polygon fill="#63b8ff" stroke="#63b8ff" points="721.39,-25.18 710.81,-24.61 718.72,-31.65 721.39,-25.18"/>
</a>
</g>
</g>
<!-- Node11 -->
<g id="Node000011" class="node">
<title>Node11</title>
<g id="a_Node000011"><a xlink:title=" ">
<polygon fill="#e0e0e0" stroke="#999999" points="810,-24.5 734,-24.5 734,-5.5 810,-5.5 810,-24.5"/>
<text text-anchor="middle" x="772" y="-12.5" font-family="Helvetica,sans-Serif" font-size="10.00">QListWidget</text>
</a>
</g>
</g>
<!-- Node2&#45;&gt;Node11 -->
<g id="edge10_Node000002_Node000011" class="edge">
<title>Node2&#45;&gt;Node11</title>
<g id="a_edge10_Node000002_Node000011"><a xlink:title=" ">
<path fill="none" stroke="#63b8ff" d="M1214.35,-77.68C1136.18,-72.78 962.46,-59.34 819,-30 815.28,-29.24 811.42,-28.32 807.6,-27.32"/>
<polygon fill="#63b8ff" stroke="#63b8ff" points="808.22,-23.86 797.65,-24.53 806.34,-30.6 808.22,-23.86"/>
</a>
</g>
</g>
<!-- Node12 -->
<g id="Node000012" class="node">
<title>Node12</title>
<g id="a_Node000012"><a xlink:title=" ">
<polygon fill="#e0e0e0" stroke="#999999" points="884,-24.5 828,-24.5 828,-5.5 884,-5.5 884,-24.5"/>
<text text-anchor="middle" x="856" y="-12.5" font-family="Helvetica,sans-Serif" font-size="10.00">QLocale</text>
</a>
</g>
</g>
<!-- Node2&#45;&gt;Node12 -->
<g id="edge11_Node000002_Node000012" class="edge">
<title>Node2&#45;&gt;Node12</title>
<g id="a_edge11_Node000002_Node000012"><a xlink:title=" ">
<path fill="none" stroke="#63b8ff" d="M1214.32,-77.32C1146.21,-72.25 1007.21,-59.08 893,-30 890.55,-29.38 888.05,-28.64 885.55,-27.85"/>
<polygon fill="#63b8ff" stroke="#63b8ff" points="886.69,-24.54 876.09,-24.54 884.38,-31.14 886.69,-24.54"/>
</a>
</g>
</g>
<!-- Node13 -->
<g id="Node000013" class="node">
<title>Node13</title>
<g id="a_Node000013"><a xlink:title=" ">
<polygon fill="#e0e0e0" stroke="#999999" points="947.5,-24.5 902.5,-24.5 902.5,-5.5 947.5,-5.5 947.5,-24.5"/>
<text text-anchor="middle" x="925" y="-12.5" font-family="Helvetica,sans-Serif" font-size="10.00">QMap</text>
</a>
</g>
</g>
<!-- Node2&#45;&gt;Node13 -->
<g id="edge12_Node000002_Node000013" class="edge">
<title>Node2&#45;&gt;Node13</title>
<g id="a_edge12_Node000002_Node000013"><a xlink:title=" ">
<path fill="none" stroke="#63b8ff" d="M1214.16,-76.29C1155.66,-70.37 1046.54,-56.63 957,-30 955.32,-29.5 953.61,-28.94 951.91,-28.33"/>
<polygon fill="#63b8ff" stroke="#63b8ff" points="952.9,-24.95 942.31,-24.5 950.31,-31.46 952.9,-24.95"/>
</a>
</g>
</g>
<!-- Node14 -->
<g id="Node000014" class="node">
<title>Node14</title>
<g id="a_Node000014"><a xlink:title=" ">
<polygon fill="#e0e0e0" stroke="#999999" points="1046,-24.5 966,-24.5 966,-5.5 1046,-5.5 1046,-24.5"/>
<text text-anchor="middle" x="1006" y="-12.5" font-family="Helvetica,sans-Serif" font-size="10.00">QMetaObject</text>
</a>
</g>
</g>
<!-- Node2&#45;&gt;Node14 -->
<g id="edge13_Node000002_Node000014" class="edge">
<title>Node2&#45;&gt;Node14</title>
<g id="a_edge13_Node000002_Node000014"><a xlink:title=" ">
<path fill="none" stroke="#63b8ff" d="M1219.96,-71.43C1179.66,-61.76 1112.5,-45.36 1055,-30 1051.79,-29.14 1048.48,-28.24 1045.15,-27.32"/>
<polygon fill="#63b8ff" stroke="#63b8ff" points="1045.81,-23.86 1035.23,-24.53 1043.91,-30.6 1045.81,-23.86"/>
</a>
</g>
</g>
<!-- Node15 -->
<g id="Node000015" class="node">
<title>Node15</title>
<g id="a_Node000015"><a xlink:title=" ">
<polygon fill="#e0e0e0" stroke="#999999" points="1120,-24.5 1064,-24.5 1064,-5.5 1120,-5.5 1120,-24.5"/>
<text text-anchor="middle" x="1092" y="-12.5" font-family="Helvetica,sans-Serif" font-size="10.00">QObject</text>
</a>
</g>
</g>
<!-- Node2&#45;&gt;Node15 -->
<g id="edge14_Node000002_Node000015" class="edge">
<title>Node2&#45;&gt;Node15</title>
<g id="a_edge14_Node000002_Node000015"><a xlink:title=" ">
<path fill="none" stroke="#63b8ff" d="M1233.88,-71.37C1205.44,-60.27 1155.85,-40.92 1123.48,-28.28"/>
<polygon fill="#63b8ff" stroke="#63b8ff" points="1124.62,-24.97 1114.03,-24.6 1122.07,-31.49 1124.62,-24.97"/>
</a>
</g>
</g>
<!-- Node16 -->
<g id="Node000016" class="node">
<title>Node16</title>
<g id="a_Node000016"><a xlink:title=" ">
<polygon fill="#e0e0e0" stroke="#999999" points="1197.5,-24.5 1138.5,-24.5 1138.5,-5.5 1197.5,-5.5 1197.5,-24.5"/>
<text text-anchor="middle" x="1168" y="-12.5" font-family="Helvetica,sans-Serif" font-size="10.00">QPointer</text>
</a>
</g>
</g>
<!-- Node2&#45;&gt;Node16 -->
<g id="edge15_Node000002_Node000016" class="edge">
<title>Node2&#45;&gt;Node16</title>
<g id="a_edge15_Node000002_Node000016"><a xlink:title=" ">
<path fill="none" stroke="#63b8ff" d="M1244.13,-71.37C1229.83,-60.97 1205.57,-43.32 1188.28,-30.75"/>
<polygon fill="#63b8ff" stroke="#63b8ff" points="1190.11,-27.75 1179.96,-24.7 1185.99,-33.41 1190.11,-27.75"/>
</a>
</g>
</g>
<!-- Node17 -->
<g id="Node000017" class="node">
<title>Node17</title>
<g id="a_Node000017"><a xlink:title=" ">
<polygon fill="#e0e0e0" stroke="#999999" points="1296,-24.5 1216,-24.5 1216,-5.5 1296,-5.5 1296,-24.5"/>
<text text-anchor="middle" x="1256" y="-12.5" font-family="Helvetica,sans-Serif" font-size="10.00">QPushButton</text>
</a>
</g>
</g>
<!-- Node2&#45;&gt;Node17 -->
<g id="edge16_Node000002_Node000017" class="edge">
<title>Node2&#45;&gt;Node17</title>
<g id="a_edge16_Node000002_Node000017"><a xlink:title=" ">
<path fill="none" stroke="#63b8ff" d="M1256,-71.37C1256,-62.16 1256,-47.29 1256,-35.27"/>
<polygon fill="#63b8ff" stroke="#63b8ff" points="1259.5,-34.91 1256,-24.91 1252.5,-34.91 1259.5,-34.91"/>
</a>
</g>
</g>
<!-- Node18 -->
<g id="Node000018" class="node">
<title>Node18</title>
<g id="a_Node000018"><a xlink:title=" ">
<polygon fill="#e0e0e0" stroke="#999999" points="1398,-24.5 1314,-24.5 1314,-5.5 1398,-5.5 1398,-24.5"/>
<text text-anchor="middle" x="1356" y="-12.5" font-family="Helvetica,sans-Serif" font-size="10.00">QRadioButton</text>
</a>
</g>
</g>
<!-- Node2&#45;&gt;Node18 -->
<g id="edge17_Node000002_Node000018" class="edge">
<title>Node2&#45;&gt;Node18</title>
<g id="a_edge17_Node000002_Node000018"><a xlink:title=" ">
<path fill="none" stroke="#63b8ff" d="M1269.49,-71.37C1285.96,-60.82 1314.07,-42.84 1333.76,-30.23"/>
<polygon fill="#63b8ff" stroke="#63b8ff" points="1335.87,-33.04 1342.41,-24.7 1332.1,-27.14 1335.87,-33.04"/>
</a>
</g>
</g>
<!-- Node19 -->
<g id="Node000019" class="node">
<title>Node19</title>
<g id="a_Node000019"><a xlink:title=" ">
<polygon fill="#e0e0e0" stroke="#999999" points="1473.5,-24.5 1416.5,-24.5 1416.5,-5.5 1473.5,-5.5 1473.5,-24.5"/>
<text text-anchor="middle" x="1445" y="-12.5" font-family="Helvetica,sans-Serif" font-size="10.00">QScreen</text>
</a>
</g>
</g>
<!-- Node2&#45;&gt;Node19 -->
<g id="edge18_Node000002_Node000019" class="edge">
<title>Node2&#45;&gt;Node19</title>
<g id="a_edge18_Node000002_Node000019"><a xlink:title=" ">
<path fill="none" stroke="#63b8ff" d="M1282.82,-71.42C1313.08,-61.66 1363.73,-45.13 1407,-30 1408.84,-29.36 1410.73,-28.69 1412.63,-28.01"/>
<polygon fill="#63b8ff" stroke="#63b8ff" points="1413.93,-31.26 1422.14,-24.56 1411.54,-24.68 1413.93,-31.26"/>
</a>
</g>
</g>
<!-- Node20 -->
<g id="Node000020" class="node">
<title>Node20</title>
<g id="a_Node000020"><a xlink:title=" ">
<polygon fill="#e0e0e0" stroke="#999999" points="1544.5,-24.5 1491.5,-24.5 1491.5,-5.5 1544.5,-5.5 1544.5,-24.5"/>
<text text-anchor="middle" x="1518" y="-12.5" font-family="Helvetica,sans-Serif" font-size="10.00">QString</text>
</a>
</g>
</g>
<!-- Node2&#45;&gt;Node20 -->
<g id="edge19_Node000002_Node000020" class="edge">
<title>Node2&#45;&gt;Node20</title>
<g id="a_edge19_Node000002_Node000020"><a xlink:title=" ">
<path fill="none" stroke="#63b8ff" d="M1285.85,-71.45C1292.77,-69.57 1300.12,-67.65 1307,-66 1384.65,-47.42 1406.52,-52.92 1483,-30 1484.88,-29.44 1486.8,-28.81 1488.73,-28.15"/>
<polygon fill="#63b8ff" stroke="#63b8ff" points="1490.07,-31.38 1498.23,-24.62 1487.64,-24.82 1490.07,-31.38"/>
</a>
</g>
</g>
<!-- Node21 -->
<g id="Node000021" class="node">
<title>Node21</title>
<g id="a_Node000021"><a xlink:title=" ">
<polygon fill="#e0e0e0" stroke="#999999" points="1621.5,-24.5 1562.5,-24.5 1562.5,-5.5 1621.5,-5.5 1621.5,-24.5"/>
<text text-anchor="middle" x="1592" y="-12.5" font-family="Helvetica,sans-Serif" font-size="10.00">QVariant</text>
</a>
</g>
</g>
<!-- Node2&#45;&gt;Node21 -->
<g id="edge20_Node000002_Node000021" class="edge">
<title>Node2&#45;&gt;Node21</title>
<g id="a_edge20_Node000002_Node000021"><a xlink:title=" ">
<path fill="none" stroke="#63b8ff" d="M1284.71,-71.45C1291.94,-69.48 1299.72,-67.52 1307,-66 1415.58,-43.27 1446.48,-57.32 1554,-30 1556.44,-29.38 1558.95,-28.66 1561.45,-27.87"/>
<polygon fill="#63b8ff" stroke="#63b8ff" points="1562.6,-31.18 1570.94,-24.64 1560.35,-24.55 1562.6,-31.18"/>
</a>
</g>
</g>
<!-- Node22 -->
<g id="Node000022" class="node">
<title>Node22</title>
<g id="a_Node000022"><a xlink:title=" ">
<polygon fill="#e0e0e0" stroke="#999999" points="1698.5,-24.5 1639.5,-24.5 1639.5,-5.5 1698.5,-5.5 1698.5,-24.5"/>
<text text-anchor="middle" x="1669" y="-12.5" font-family="Helvetica,sans-Serif" font-size="10.00">QtGlobal</text>
</a>
</g>
</g>
<!-- Node2&#45;&gt;Node22 -->
<g id="edge21_Node000002_Node000022" class="edge">
<title>Node2&#45;&gt;Node22</title>
<g id="a_edge21_Node000002_Node000022"><a xlink:title=" ">
<path fill="none" stroke="#63b8ff" d="M1283.87,-71.5C1291.33,-69.46 1299.43,-67.45 1307,-66 1449.3,-38.74 1489.99,-63.29 1631,-30 1633.51,-29.41 1636.09,-28.69 1638.66,-27.91"/>
<polygon fill="#63b8ff" stroke="#63b8ff" points="1640.02,-31.15 1648.37,-24.63 1637.78,-24.51 1640.02,-31.15"/>
</a>
</g>
</g>
<!-- Node23 -->
<g id="Node000023" class="node">
<title>Node23</title>
<g id="a_Node000023"><a xlink:title=" ">
<polygon fill="#e0e0e0" stroke="#999999" points="1837.5,-30 1716.5,-30 1716.5,0 1837.5,0 1837.5,-30"/>
<text text-anchor="start" x="1724.5" y="-18" font-family="Helvetica,sans-Serif" font-size="10.00">../vtools/visualization</text>
<text text-anchor="middle" x="1777" y="-7" font-family="Helvetica,sans-Serif" font-size="10.00">/visualization.h</text>
</a>
</g>
</g>
<!-- Node2&#45;&gt;Node23 -->
<g id="edge22_Node000002_Node000023" class="edge">
<title>Node2&#45;&gt;Node23</title>
<g id="a_edge22_Node000002_Node000023"><a xlink:title=" ">
<path fill="none" stroke="#63b8ff" d="M1283.59,-71.46C1291.12,-69.4 1299.32,-67.39 1307,-66 1479.91,-34.76 1529.16,-55.07 1706.56,-30.1"/>
<polygon fill="#63b8ff" stroke="#63b8ff" points="1707.08,-33.56 1716.48,-28.67 1706.09,-26.63 1707.08,-33.56"/>
</a>
</g>
</g>
<!-- Node24 -->
<g id="Node000024" class="node">
<title>Node24</title>
<g id="a_Node000024"><a xlink:title=" ">
<polygon fill="#e0e0e0" stroke="#999999" points="2008,-24.5 1856,-24.5 1856,-5.5 2008,-5.5 2008,-24.5"/>
<text text-anchor="middle" x="1932" y="-12.5" font-family="Helvetica,sans-Serif" font-size="10.00">../ifc/xml/vabstractpattern.h</text>
</a>
</g>
</g>
<!-- Node2&#45;&gt;Node24 -->
<g id="edge23_Node000002_Node000024" class="edge">
<title>Node2&#45;&gt;Node24</title>
<g id="a_edge23_Node000002_Node000024"><a xlink:title=" ">
<path fill="none" stroke="#63b8ff" d="M1283.03,-71.49C1290.71,-69.37 1299.12,-67.33 1307,-66 1544.18,-25.96 1608.05,-57.58 1847,-30 1856.17,-28.94 1865.85,-27.58 1875.27,-26.12"/>
<polygon fill="#63b8ff" stroke="#63b8ff" points="1876.03,-29.55 1885.35,-24.52 1874.92,-22.64 1876.03,-29.55"/>
</a>
</g>
</g>
<!-- Node25 -->
<g id="Node000025" class="node">
<title>Node25</title>
<g id="a_Node000025"><a xlink:title=" ">
<polygon fill="#e0e0e0" stroke="#999999" points="2103.5,-24.5 2026.5,-24.5 2026.5,-5.5 2103.5,-5.5 2103.5,-24.5"/>
<text text-anchor="middle" x="2065" y="-12.5" font-family="Helvetica,sans-Serif" font-size="10.00">../ifc/ifcdef.h</text>
</a>
</g>
</g>
<!-- Node2&#45;&gt;Node25 -->
<g id="edge24_Node000002_Node000025" class="edge">
<title>Node2&#45;&gt;Node25</title>
<g id="a_edge24_Node000002_Node000025"><a xlink:title=" ">
<path fill="none" stroke="#63b8ff" d="M1282.76,-71.48C1290.5,-69.34 1299.02,-67.28 1307,-66 1618.96,-15.88 1705.45,-82.59 2017,-30 2021.24,-29.28 2025.63,-28.32 2029.96,-27.24"/>
<polygon fill="#63b8ff" stroke="#63b8ff" points="2031.13,-30.55 2039.85,-24.53 2029.28,-23.79 2031.13,-30.55"/>
</a>
</g>
</g>
<!-- Node26 -->
<g id="Node000026" class="node">
<title>Node26</title>
<g id="a_Node000026"><a xlink:title=" ">
<polygon fill="#e0e0e0" stroke="#999999" points="2280.5,-24.5 2121.5,-24.5 2121.5,-5.5 2280.5,-5.5 2280.5,-24.5"/>
<text text-anchor="middle" x="2201" y="-12.5" font-family="Helvetica,sans-Serif" font-size="10.00">../vgeometry/vgeometrydef.h</text>
</a>
</g>
</g>
<!-- Node2&#45;&gt;Node26 -->
<g id="edge25_Node000002_Node000026" class="edge">
<title>Node2&#45;&gt;Node26</title>
<g id="a_edge25_Node000002_Node000026"><a xlink:title=" ">
<path fill="none" stroke="#63b8ff" d="M1282.75,-71.45C1290.5,-69.3 1299.02,-67.26 1307,-66 1661.21,-10.19 1756.26,-66.23 2113,-30 2122.93,-28.99 2133.44,-27.6 2143.61,-26.09"/>
<polygon fill="#63b8ff" stroke="#63b8ff" points="2144.28,-29.53 2153.63,-24.54 2143.21,-22.61 2144.28,-29.53"/>
</a>
</g>
</g>
<!-- Node27 -->
<g id="Node000027" class="node">
<title>Node27</title>
<g id="a_Node000027"><a xlink:title=" ">
<polygon fill="#e0e0e0" stroke="#999999" points="2381,-24.5 2299,-24.5 2299,-5.5 2381,-5.5 2381,-24.5"/>
<text text-anchor="middle" x="2340" y="-12.5" font-family="Helvetica,sans-Serif" font-size="10.00">../vmisc/def.h</text>
</a>
</g>
</g>
<!-- Node2&#45;&gt;Node27 -->
<g id="edge26_Node000002_Node000027" class="edge">
<title>Node2&#45;&gt;Node27</title>
<g id="a_edge26_Node000002_Node000027"><a xlink:title=" ">
<path fill="none" stroke="#63b8ff" d="M1282.48,-71.48C1290.3,-69.31 1298.92,-67.24 1307,-66 1739.12,0.31 1858.05,-97.41 2290,-30 2294.58,-29.28 2299.34,-28.29 2304.02,-27.16"/>
<polygon fill="#63b8ff" stroke="#63b8ff" points="2305.27,-30.45 2314.05,-24.52 2303.49,-23.68 2305.27,-30.45"/>
</a>
</g>
</g>
<!-- Node28 -->
<g id="Node000028" class="node">
<title>Node28</title>
<g id="a_Node000028"><a xlink:title=" ">
<polygon fill="#e0e0e0" stroke="#999999" points="2502.5,-24.5 2399.5,-24.5 2399.5,-5.5 2502.5,-5.5 2502.5,-24.5"/>
<text text-anchor="middle" x="2451" y="-12.5" font-family="Helvetica,sans-Serif" font-size="10.00">../vmisc/logging.h</text>
</a>
</g>
</g>
<!-- Node2&#45;&gt;Node28 -->
<g id="edge27_Node000002_Node000028" class="edge">
<title>Node2&#45;&gt;Node28</title>
<g id="a_edge27_Node000002_Node000028"><a xlink:title=" ">
<path fill="none" stroke="#63b8ff" d="M1282.48,-71.46C1290.29,-69.29 1298.92,-67.23 1307,-66 1783.15,6.24 1912.43,-92.15 2390,-30 2396.29,-29.18 2402.89,-28.01 2409.32,-26.68"/>
<polygon fill="#63b8ff" stroke="#63b8ff" points="2410.22,-30.07 2419.23,-24.51 2408.72,-23.23 2410.22,-30.07"/>
</a>
</g>
</g>
<!-- Node29 -->
<g id="Node000029" class="node">
<title>Node29</title>
<g id="a_Node000029"><a xlink:title=" ">
<polygon fill="#e0e0e0" stroke="#999999" points="2687.5,-24.5 2520.5,-24.5 2520.5,-5.5 2687.5,-5.5 2687.5,-24.5"/>
<text text-anchor="middle" x="2604" y="-12.5" font-family="Helvetica,sans-Serif" font-size="10.00">../vmisc/vabstractapplication.h</text>
</a>
</g>
</g>
<!-- Node2&#45;&gt;Node29 -->
<g id="edge28_Node000002_Node000029" class="edge">
<title>Node2&#45;&gt;Node29</title>
<g id="a_edge28_Node000002_Node000029"><a xlink:title=" ">
<path fill="none" stroke="#63b8ff" d="M1282.48,-71.45C1290.29,-69.27 1298.92,-67.21 1307,-66 1836.87,13.48 1978.4,-78.39 2512,-30 2522.84,-29.02 2534.35,-27.58 2545.42,-26"/>
<polygon fill="#63b8ff" stroke="#63b8ff" points="2546.05,-29.44 2555.43,-24.52 2545.03,-22.52 2546.05,-29.44"/>
</a>
</g>
</g>
<!-- Node30 -->
<g id="Node000030" class="node">
<title>Node30</title>
<g id="a_Node000030"><a xlink:title=" ">
<polygon fill="#e0e0e0" stroke="#999999" points="2860.5,-24.5 2705.5,-24.5 2705.5,-5.5 2860.5,-5.5 2860.5,-24.5"/>
<text text-anchor="middle" x="2783" y="-12.5" font-family="Helvetica,sans-Serif" font-size="10.00">../vmisc/vcommonsettings.h</text>
</a>
</g>
</g>
<!-- Node2&#45;&gt;Node30 -->
<g id="edge29_Node000002_Node000030" class="edge">
<title>Node2&#45;&gt;Node30</title>
<g id="a_edge29_Node000002_Node000030"><a xlink:title=" ">
<path fill="none" stroke="#63b8ff" d="M1282.47,-71.43C1290.29,-69.25 1298.92,-67.2 1307,-66 1612.66,-20.77 2389.36,-58.89 2697,-30 2706.94,-29.07 2717.47,-27.68 2727.63,-26.15"/>
<polygon fill="#63b8ff" stroke="#63b8ff" points="2728.29,-29.58 2737.62,-24.57 2727.2,-22.67 2728.29,-29.58"/>
</a>
</g>
</g>
<!-- Node31 -->
<g id="Node000031" class="node">
<title>Node31</title>
<g id="a_Node000031"><a xlink:title=" ">
<polygon fill="#e0e0e0" stroke="#999999" points="3061,-24.5 2879,-24.5 2879,-5.5 3061,-5.5 3061,-24.5"/>
<text text-anchor="middle" x="2970" y="-12.5" font-family="Helvetica,sans-Serif" font-size="10.00">../vwidgets/vmaingraphicsscene.h</text>
</a>
</g>
</g>
<!-- Node2&#45;&gt;Node31 -->
<g id="edge30_Node000002_Node000031" class="edge">
<title>Node2&#45;&gt;Node31</title>
<g id="a_edge30_Node000002_Node000031"><a xlink:title=" ">
<path fill="none" stroke="#63b8ff" d="M1282.21,-71.49C1290.09,-69.28 1298.82,-67.2 1307,-66 1650.76,-15.64 2523.72,-58.13 2870,-30 2882.08,-29.02 2894.93,-27.55 2907.25,-25.92"/>
<polygon fill="#63b8ff" stroke="#63b8ff" points="2908.02,-29.35 2917.45,-24.52 2907.07,-22.41 2908.02,-29.35"/>
</a>
</g>
</g>
</g>
</svg>
