<?xml version="1.0" encoding="UTF-8" standalone="no"?>
<!DOCTYPE svg PUBLIC "-//W3C//DTD SVG 1.1//EN"
 "http://www.w3.org/Graphics/SVG/1.1/DTD/svg11.dtd">
<!-- Generated by graphviz version 2.43.0 (0)
 -->
<!-- Title: DialogSeamlyMePreferences Pages: 1 -->
<!--zoomable 471 -->

<svg id="main" version="1.1" xmlns="http://www.w3.org/2000/svg" xmlns:xlink="http://www.w3.org/1999/xlink" xml:space="preserve" onload="init(evt)">
<style type="text/css"><![CDATA[
.node, .edge {opacity: 0.7;}
.node.selected, .edge.selected {opacity: 1;}
.edge:hover path { stroke: red; }
.edge:hover polygon { stroke: red; fill: red; }
]]></style>

<defs>
  <circle id="rim" cx="0" cy="0" r="7"/>
  <circle id="rim2" cx="0" cy="0" r="3.5"/>
  <g id="zoomPlus">
    <use xlink:href="#rim" fill="#404040"><set attributeName="fill" to="#808080" begin="zoomplus.mouseover" end="zoomplus.mouseout"/></use>
    <path d="M-4,0h8M0,-4v8" fill="none" stroke="white" stroke-width="1.5" pointer-events="none"/>
  </g>
  <g id="zoomMin">
    <use xlink:href="#rim" fill="#404040"><set attributeName="fill" to="#808080" begin="zoomminus.mouseover" end="zoomminus.mouseout"/></use>
    <path d="M-4,0h8" fill="none" stroke="white" stroke-width="1.5" pointer-events="none"/>
  </g>
  <g id="arrowUp" transform="translate(30 24)">
    <use xlink:href="#rim"/>
    <path pointer-events="none" fill="none" stroke="white" stroke-width="1.5" d="M0,-3.0v7 M-2.5,-0.5L0,-3.0L2.5,-0.5"/>
  </g>
  <g id="arrowRight" transform="rotate(90) translate(36 -43)">
    <use xlink:href="#rim"/>
    <path pointer-events="none" fill="none" stroke="white" stroke-width="1.5" d="M0,-3.0v7 M-2.5,-0.5L0,-3.0L2.5,-0.5"/>
  </g>
  <g id="arrowDown" transform="rotate(180) translate(-30 -48)">
    <use xlink:href="#rim"/>
    <path pointer-events="none" fill="none" stroke="white" stroke-width="1.5" d="M0,-3.0v7 M-2.5,-0.5L0,-3.0L2.5,-0.5"/>
  </g>
  <g id="arrowLeft" transform="rotate(270) translate(-36 17)">
    <use xlink:href="#rim"/>
    <path pointer-events="none" fill="none" stroke="white" stroke-width="1.5" d="M0,-3.0v7 M-2.5,-0.5L0,-3.0L2.5,-0.5"/>
  </g>
  <g id="resetDef">
    <use xlink:href="#rim2" fill="#404040"><set attributeName="fill" to="#808080" begin="reset.mouseover" end="reset.mouseout"/></use>
  </g>
</defs>
<script type="application/ecmascript">
var viewWidth = 487;
var viewHeight = 471;
var sectionId = 'dynsection-1';
</script>
<script type="application/ecmascript" xlink:href="../../svg.min.js"/>
<svg id="graph" class="graph">
<g id="viewport">
<title>DialogSeamlyMePreferences</title>
<!-- Node1 -->
<g id="Node000001" class="node">
<title>Node1</title>
<g id="a_Node000001"><a xlink:title=" ">
<polygon fill="#999999" stroke="transparent" points="262,-169 84,-169 84,0 262,0 262,-169"/>
<text text-anchor="start" x="102" y="-156.5" font-family="Helvetica,sans-Serif" font-size="10.00">DialogSeamlyMePreferences</text>
<text text-anchor="start" x="90.5" y="-141.5" font-family="Helvetica,sans-Serif" font-size="10.00">&#45;</text>
<text text-anchor="start" x="101" y="-141.5" font-family="Helvetica,sans-Serif" font-size="10.00">ui</text>
<text text-anchor="start" x="90.5" y="-126.5" font-family="Helvetica,sans-Serif" font-size="10.00">&#45;</text>
<text text-anchor="start" x="101" y="-126.5" font-family="Helvetica,sans-Serif" font-size="10.00">m_isInitialized</text>
<text text-anchor="start" x="88" y="-111.5" font-family="Helvetica,sans-Serif" font-size="10.00">+</text>
<text text-anchor="start" x="101" y="-111.5" font-family="Helvetica,sans-Serif" font-size="10.00">DialogSeamlyMePreferences()</text>
<text text-anchor="start" x="88" y="-96.5" font-family="Helvetica,sans-Serif" font-size="10.00">+</text>
<text text-anchor="start" x="101" y="-96.5" font-family="Helvetica,sans-Serif" font-size="10.00">~DialogSeamlyMePreferences()</text>
<text text-anchor="start" x="88" y="-81.5" font-family="Helvetica,sans-Serif" font-size="10.00">#</text>
<text text-anchor="start" x="101" y="-81.5" font-family="Helvetica,sans-Serif" font-size="10.00">changeEvent()</text>
<text text-anchor="start" x="88" y="-66.5" font-family="Helvetica,sans-Serif" font-size="10.00">#</text>
<text text-anchor="start" x="101" y="-66.5" font-family="Helvetica,sans-Serif" font-size="10.00">showEvent()</text>
<text text-anchor="start" x="88" y="-51.5" font-family="Helvetica,sans-Serif" font-size="10.00">#</text>
<text text-anchor="start" x="101" y="-51.5" font-family="Helvetica,sans-Serif" font-size="10.00">resizeEvent()</text>
<text text-anchor="start" x="90.5" y="-36.5" font-family="Helvetica,sans-Serif" font-size="10.00">&#45;</text>
<text text-anchor="start" x="101" y="-36.5" font-family="Helvetica,sans-Serif" font-size="10.00">Apply()</text>
<text text-anchor="start" x="90.5" y="-21.5" font-family="Helvetica,sans-Serif" font-size="10.00">&#45;</text>
<text text-anchor="start" x="101" y="-21.5" font-family="Helvetica,sans-Serif" font-size="10.00">Ok()</text>
<text text-anchor="start" x="90.5" y="-6.5" font-family="Helvetica,sans-Serif" font-size="10.00">&#45;</text>
<text text-anchor="start" x="101" y="-6.5" font-family="Helvetica,sans-Serif" font-size="10.00">PageChanged()</text>
<polygon fill="#666666" stroke="#666666" points="84,-151.5 84,-151.5 262,-151.5 262,-151.5 84,-151.5"/>
<polygon fill="#666666" stroke="#666666" points="84,-121.5 84,-121.5 99,-121.5 99,-121.5 84,-121.5"/>
<polygon fill="#666666" stroke="#666666" points="99,-121.5 99,-121.5 262,-121.5 262,-121.5 99,-121.5"/>
<polygon fill="none" stroke="#666666" points="84,0 84,-169 262,-169 262,0 84,0"/>
</a>
</g>
</g>
<!-- Node2 -->
<g id="Node000002" class="node">
<title>Node2</title>
<g id="a_Node000002"><a xlink:title=" ">
<polygon fill="white" stroke="transparent" points="50,-321 0,-321 0,-272 50,-272 50,-321"/>
<text text-anchor="start" x="5" y="-308.5" font-family="Helvetica,sans-Serif" font-size="10.00">QDialog</text>
<text text-anchor="start" x="23" y="-293.5" font-family="Helvetica,sans-Serif" font-size="10.00"> </text>
<text text-anchor="start" x="23" y="-278.5" font-family="Helvetica,sans-Serif" font-size="10.00"> </text>
<polygon fill="#666666" stroke="#666666" points="0,-303.5 0,-303.5 50,-303.5 50,-303.5 0,-303.5"/>
<polygon fill="#666666" stroke="#666666" points="0,-288.5 0,-288.5 50,-288.5 50,-288.5 0,-288.5"/>
<polygon fill="none" stroke="#666666" points="0,-272 0,-321 50,-321 50,-272 0,-272"/>
</a>
</g>
</g>
<!-- Node2&#45;&gt;Node1 -->
<g id="edge1_Node000001_Node000002" class="edge">
<title>Node2&#45;&gt;Node1</title>
<g id="a_edge1_Node000001_Node000002"><a xlink:title=" ">
<path fill="none" stroke="#63b8ff" d="M36.54,-262.21C42.3,-247.52 49.98,-230.35 59,-216 69,-200.08 80.92,-184.16 93.21,-169.18"/>
<polygon fill="none" stroke="#63b8ff" points="33.12,-261.34 32.86,-271.93 39.67,-263.82 33.12,-261.34"/>
</a>
</g>
</g>
<!-- Node3 -->
<g id="Node000003" class="node">
<title>Node3</title>
<g id="a_Node000003"><a xlink:href="../../df/de0/classSeamlyMePreferencesConfigurationPage.html" target="_top" xlink:title=" ">
<polygon fill="white" stroke="transparent" points="277.5,-377 68.5,-377 68.5,-216 277.5,-216 277.5,-377"/>
<text text-anchor="start" x="74" y="-364.5" font-family="Helvetica,sans-Serif" font-size="10.00">SeamlyMePreferencesConfigurationPage</text>
<text text-anchor="start" x="76.5" y="-349.5" font-family="Helvetica,sans-Serif" font-size="10.00">&#45;</text>
<text text-anchor="start" x="88" y="-349.5" font-family="Helvetica,sans-Serif" font-size="10.00">ui</text>
<text text-anchor="start" x="76.5" y="-334.5" font-family="Helvetica,sans-Serif" font-size="10.00">&#45;</text>
<text text-anchor="start" x="88" y="-334.5" font-family="Helvetica,sans-Serif" font-size="10.00">m_langChanged</text>
<text text-anchor="start" x="76.5" y="-319.5" font-family="Helvetica,sans-Serif" font-size="10.00">&#45;</text>
<text text-anchor="start" x="88" y="-319.5" font-family="Helvetica,sans-Serif" font-size="10.00">m_systemChanged</text>
<text text-anchor="start" x="76.5" y="-304.5" font-family="Helvetica,sans-Serif" font-size="10.00">&#45;</text>
<text text-anchor="start" x="88" y="-304.5" font-family="Helvetica,sans-Serif" font-size="10.00">m_defGradationChanged</text>
<text text-anchor="start" x="74" y="-289.5" font-family="Helvetica,sans-Serif" font-size="10.00">+</text>
<text text-anchor="start" x="88" y="-289.5" font-family="Helvetica,sans-Serif" font-size="10.00">SeamlyMePreferencesConfiguration</text>
<text text-anchor="start" x="88" y="-278.5" font-family="Helvetica,sans-Serif" font-size="10.00">Page()</text>
<text text-anchor="start" x="74" y="-263.5" font-family="Helvetica,sans-Serif" font-size="10.00">+</text>
<text text-anchor="start" x="88" y="-263.5" font-family="Helvetica,sans-Serif" font-size="10.00">~SeamlyMePreferencesConfiguration</text>
<text text-anchor="start" x="88" y="-252.5" font-family="Helvetica,sans-Serif" font-size="10.00">Page()</text>
<text text-anchor="start" x="74" y="-237.5" font-family="Helvetica,sans-Serif" font-size="10.00">+</text>
<text text-anchor="start" x="88" y="-237.5" font-family="Helvetica,sans-Serif" font-size="10.00">Apply()</text>
<text text-anchor="start" x="74" y="-222.5" font-family="Helvetica,sans-Serif" font-size="10.00">#</text>
<text text-anchor="start" x="88" y="-222.5" font-family="Helvetica,sans-Serif" font-size="10.00">changeEvent()</text>
<polygon fill="#666666" stroke="#666666" points="69,-359.5 69,-359.5 278,-359.5 278,-359.5 69,-359.5"/>
<polygon fill="#666666" stroke="#666666" points="69,-299.5 69,-299.5 86,-299.5 86,-299.5 69,-299.5"/>
<polygon fill="#666666" stroke="#666666" points="86,-299.5 86,-299.5 278,-299.5 278,-299.5 86,-299.5"/>
<polygon fill="none" stroke="#666666" points="68.5,-216 68.5,-377 277.5,-377 277.5,-216 68.5,-216"/>
</a>
</g>
</g>
<!-- Node3&#45;&gt;Node1 -->
<g id="edge2_Node000001_Node000003" class="edge">
<title>Node3&#45;&gt;Node1</title>
<g id="a_edge2_Node000001_Node000003"><a xlink:title=" ">
<path fill="none" stroke="#63b8ff" d="M173,-215.81C173,-204.65 173,-193.08 173,-181.65"/>
<polygon fill="none" stroke="#63b8ff" points="173,-181.33 169,-175.33 173,-169.33 177,-175.33 173,-181.33"/>
</a>
</g>
<text text-anchor="middle" x="227.5" y="-190" font-family="Helvetica,sans-Serif" font-size="10.00" fill="grey"> &#45;m_configurationPage</text>
</g>
<!-- Node4 -->
<g id="Node000004" class="node">
<title>Node4</title>
<g id="a_Node000004"><a xlink:title=" ">
<polygon fill="white" stroke="transparent" points="305.5,-463 252.5,-463 252.5,-414 305.5,-414 305.5,-463"/>
<text text-anchor="start" x="258" y="-450.5" font-family="Helvetica,sans-Serif" font-size="10.00">QWidget</text>
<text text-anchor="start" x="277.5" y="-435.5" font-family="Helvetica,sans-Serif" font-size="10.00"> </text>
<text text-anchor="start" x="277.5" y="-420.5" font-family="Helvetica,sans-Serif" font-size="10.00"> </text>
<polygon fill="#666666" stroke="#666666" points="253,-445.5 253,-445.5 306,-445.5 306,-445.5 253,-445.5"/>
<polygon fill="#666666" stroke="#666666" points="253,-430.5 253,-430.5 306,-430.5 306,-430.5 253,-430.5"/>
<polygon fill="none" stroke="#666666" points="252.5,-414 252.5,-463 305.5,-463 305.5,-414 252.5,-414"/>
</a>
</g>
</g>
<!-- Node4&#45;&gt;Node3 -->
<g id="edge3_Node000003_Node000004" class="edge">
<title>Node4&#45;&gt;Node3</title>
<g id="a_edge3_Node000003_Node000004"><a xlink:title=" ">
<path fill="none" stroke="#63b8ff" d="M254.8,-405.54C248.28,-396.93 240.93,-387.22 233.37,-377.24"/>
<polygon fill="none" stroke="#63b8ff" points="252.19,-407.89 261.02,-413.75 257.77,-403.67 252.19,-407.89"/>
</a>
</g>
</g>
<!-- Node5 -->
<g id="Node000005" class="node">
<title>Node5</title>
<g id="a_Node000005"><a xlink:href="../../d7/d92/classSeamlyMePreferencesPathPage.html" target="_top" xlink:title=" ">
<polygon fill="white" stroke="transparent" points="478.5,-371.5 295.5,-371.5 295.5,-221.5 478.5,-221.5 478.5,-371.5"/>
<text text-anchor="start" x="310.5" y="-359.5" font-family="Helvetica,sans-Serif" font-size="10.00">SeamlyMePreferencesPathPage</text>
<text text-anchor="start" x="302.5" y="-344.5" font-family="Helvetica,sans-Serif" font-size="10.00">&#45;</text>
<text text-anchor="start" x="313" y="-344.5" font-family="Helvetica,sans-Serif" font-size="10.00">ui</text>
<text text-anchor="start" x="300" y="-329.5" font-family="Helvetica,sans-Serif" font-size="10.00">+</text>
<text text-anchor="start" x="313" y="-329.5" font-family="Helvetica,sans-Serif" font-size="10.00">SeamlyMePreferencesPathPage()</text>
<text text-anchor="start" x="300" y="-314.5" font-family="Helvetica,sans-Serif" font-size="10.00">+</text>
<text text-anchor="start" x="313" y="-314.5" font-family="Helvetica,sans-Serif" font-size="10.00">~SeamlyMePreferencesPath</text>
<text text-anchor="start" x="313" y="-303.5" font-family="Helvetica,sans-Serif" font-size="10.00">Page()</text>
<text text-anchor="start" x="300" y="-288.5" font-family="Helvetica,sans-Serif" font-size="10.00">+</text>
<text text-anchor="start" x="313" y="-288.5" font-family="Helvetica,sans-Serif" font-size="10.00">Apply()</text>
<text text-anchor="start" x="300" y="-273.5" font-family="Helvetica,sans-Serif" font-size="10.00">#</text>
<text text-anchor="start" x="313" y="-273.5" font-family="Helvetica,sans-Serif" font-size="10.00">changeEvent()</text>
<text text-anchor="start" x="302.5" y="-258.5" font-family="Helvetica,sans-Serif" font-size="10.00">&#45;</text>
<text text-anchor="start" x="313" y="-258.5" font-family="Helvetica,sans-Serif" font-size="10.00">initializeTable()</text>
<text text-anchor="start" x="302.5" y="-243.5" font-family="Helvetica,sans-Serif" font-size="10.00">&#45;</text>
<text text-anchor="start" x="313" y="-243.5" font-family="Helvetica,sans-Serif" font-size="10.00">defaultPath()</text>
<text text-anchor="start" x="302.5" y="-228.5" font-family="Helvetica,sans-Serif" font-size="10.00">&#45;</text>
<text text-anchor="start" x="313" y="-228.5" font-family="Helvetica,sans-Serif" font-size="10.00">editPath()</text>
<polygon fill="#666666" stroke="#666666" points="296,-354.5 296,-354.5 479,-354.5 479,-354.5 296,-354.5"/>
<polygon fill="#666666" stroke="#666666" points="296,-339.5 296,-339.5 311,-339.5 311,-339.5 296,-339.5"/>
<polygon fill="#666666" stroke="#666666" points="311,-339.5 311,-339.5 479,-339.5 479,-339.5 311,-339.5"/>
<polygon fill="none" stroke="#666666" points="295.5,-221.5 295.5,-371.5 478.5,-371.5 478.5,-221.5 295.5,-221.5"/>
</a>
</g>
</g>
<!-- Node4&#45;&gt;Node5 -->
<g id="edge5_Node000005_Node000004" class="edge">
<title>Node4&#45;&gt;Node5</title>
<g id="a_edge5_Node000005_Node000004"><a xlink:title=" ">
<path fill="none" stroke="#63b8ff" d="M303.65,-405.54C311.56,-395.29 320.67,-383.48 329.91,-371.51"/>
<polygon fill="none" stroke="#63b8ff" points="300.66,-403.7 297.32,-413.75 306.2,-407.97 300.66,-403.7"/>
</a>
</g>
</g>
<!-- Node5&#45;&gt;Node1 -->
<g id="edge4_Node000001_Node000005" class="edge">
<title>Node5&#45;&gt;Node1</title>
<g id="a_edge4_Node000001_Node000005"><a xlink:title=" ">
<path fill="none" stroke="#63b8ff" d="M319.69,-221.41C308.6,-209.72 297.11,-197.91 286,-187 281.24,-182.32 276.31,-177.58 271.3,-172.82"/>
<polygon fill="none" stroke="#63b8ff" points="270.95,-172.49 263.84,-171.3 262.21,-164.27 269.32,-165.47 270.95,-172.49"/>
</a>
</g>
<text text-anchor="middle" x="328.5" y="-190" font-family="Helvetica,sans-Serif" font-size="10.00" fill="grey"> &#45;m_pathPage</text>
</g>
</g>
</svg>

<g id="navigator" transform="translate(0 0)" fill="#404254">
  <rect fill="#f2f5e9" fill-opacity="0.5" stroke="#606060" stroke-width=".5" x="0" y="0" width="60" height="60"/>
  <use id="zoomplus" xlink:href="#zoomPlus" x="17" y="9" onmousedown="handleZoom(evt,'in')"/>
  <use id="zoomminus" xlink:href="#zoomMin" x="42" y="9" onmousedown="handleZoom(evt,'out')"/>
  <use id="reset" xlink:href="#resetDef" x="30" y="36" onmousedown="handleReset()"/>
   <use id="arrowup" xlink:href="#arrowUp" x="0" y="0" onmousedown="handlePan(0,-1)"/>
  <use id="arrowright" xlink:href="#arrowRight" x="0" y="0" onmousedown="handlePan(1,0)"/>
  <use id="arrowdown" xlink:href="#arrowDown" x="0" y="0" onmousedown="handlePan(0,1)"/>
  <use id="arrowleft" xlink:href="#arrowLeft" x="0" y="0" onmousedown="handlePan(-1,0)"/>
</g>
<svg viewBox="0 0 15 15" width="100%" height="30px" preserveAspectRatio="xMaxYMin meet">
 <g id="arrow_out" transform="scale(0.3 0.3)">
  <a xlink:href="classDialogSeamlyMePreferences__coll__graph_org.svg" target="_base">
   <rect id="button" ry="5" rx="5" y="6" x="6" height="38" width="38"
        fill="#f2f5e9" fill-opacity="0.5" stroke="#606060" stroke-width="1.0"/>
   <path id="arrow"
     d="M 11.500037,31.436501 C 11.940474,20.09759 22.043105,11.32322 32.158766,21.979434 L 37.068811,17.246167 C 37.068811,17.246167 37.088388,32 37.088388,32 L 22.160133,31.978069 C 22.160133,31.978069 26.997745,27.140456 26.997745,27.140456 C 18.528582,18.264221 13.291696,25.230495 11.500037,31.436501 z"
     style="fill:#404040;"/>
  </a>
 </g>
</svg>

<style type='text/css'>
<![CDATA[
[data-mouse-over-selected='false'] { opacity: 0.7; }
[data-mouse-over-selected='true']  { opacity: 1.0; }
]]>
</style>
<script type="application/ecmascript"><![CDATA[
document.addEventListener('DOMContentLoaded', (event) => {
  highlightEdges();
  highlightAdjacentNodes();
});
]]></script>
</svg>
