<?xml version="1.0" encoding="UTF-8" standalone="no"?>
<!DOCTYPE svg PUBLIC "-//W3C//DTD SVG 1.1//EN"
 "http://www.w3.org/Graphics/SVG/1.1/DTD/svg11.dtd">
<!-- Generated by graphviz version 2.43.0 (0)
 -->
<!-- Title: src/test/Seamly2DTest/tst_readval.cpp Pages: 1 -->
<svg width="586pt" height="148pt"
 viewBox="0.00 0.00 586.00 148.00" xmlns="http://www.w3.org/2000/svg" xmlns:xlink="http://www.w3.org/1999/xlink">
<g id="graph0" class="graph" transform="scale(1 1) rotate(0) translate(4 144)">
<title>src/test/Seamly2DTest/tst_readval.cpp</title>
<!-- Node1 -->
<g id="Node000001" class="node">
<title>Node1</title>
<g id="a_Node000001"><a xlink:title=" ">
<polygon fill="#999999" stroke="#666666" points="461.5,-140 336.5,-140 336.5,-110 461.5,-110 461.5,-140"/>
<text text-anchor="start" x="344.5" y="-128" font-family="Helvetica,sans-Serif" font-size="10.00">src/test/Seamly2DTest</text>
<text text-anchor="middle" x="399" y="-117" font-family="Helvetica,sans-Serif" font-size="10.00">/tst_readval.cpp</text>
</a>
</g>
</g>
<!-- Node2 -->
<g id="Node000002" class="node">
<title>Node2</title>
<g id="a_Node000002"><a xlink:href="../../d1/dd5/tst__readval_8h.html" target="_top" xlink:title=" ">
<polygon fill="white" stroke="#666666" points="184,-74 104,-74 104,-55 184,-55 184,-74"/>
<text text-anchor="middle" x="144" y="-62" font-family="Helvetica,sans-Serif" font-size="10.00">tst_readval.h</text>
</a>
</g>
</g>
<!-- Node1&#45;&gt;Node2 -->
<g id="edge1_Node000001_Node000002" class="edge">
<title>Node1&#45;&gt;Node2</title>
<g id="a_edge1_Node000001_Node000002"><a xlink:title=" ">
<path fill="none" stroke="#63b8ff" d="M337.92,-109.99C292.87,-99.65 232.46,-85.79 191.11,-76.31"/>
<polygon fill="#63b8ff" stroke="#63b8ff" points="191.81,-72.88 181.29,-74.05 190.25,-79.7 191.81,-72.88"/>
</a>
</g>
</g>
<!-- Node6 -->
<g id="Node000006" class="node">
<title>Node6</title>
<g id="a_Node000006"><a xlink:title=" ">
<polygon fill="#e0e0e0" stroke="#999999" points="329.5,-74 202.5,-74 202.5,-55 329.5,-55 329.5,-74"/>
<text text-anchor="middle" x="266" y="-62" font-family="Helvetica,sans-Serif" font-size="10.00">../qmuparser/qmudef.h</text>
</a>
</g>
</g>
<!-- Node1&#45;&gt;Node6 -->
<g id="edge5_Node000001_Node000006" class="edge">
<title>Node1&#45;&gt;Node6</title>
<g id="a_edge5_Node000001_Node000006"><a xlink:title=" ">
<path fill="none" stroke="#63b8ff" d="M367.14,-109.99C345.15,-100.31 316.15,-87.56 294.84,-78.18"/>
<polygon fill="#63b8ff" stroke="#63b8ff" points="296.2,-74.96 285.64,-74.14 293.39,-81.37 296.2,-74.96"/>
</a>
</g>
</g>
<!-- Node7 -->
<g id="Node000007" class="node">
<title>Node7</title>
<g id="a_Node000007"><a xlink:title=" ">
<polygon fill="#e0e0e0" stroke="#999999" points="450.5,-74 347.5,-74 347.5,-55 450.5,-55 450.5,-74"/>
<text text-anchor="middle" x="399" y="-62" font-family="Helvetica,sans-Serif" font-size="10.00">../vmisc/logging.h</text>
</a>
</g>
</g>
<!-- Node1&#45;&gt;Node7 -->
<g id="edge6_Node000001_Node000007" class="edge">
<title>Node1&#45;&gt;Node7</title>
<g id="a_edge6_Node000001_Node000007"><a xlink:title=" ">
<path fill="none" stroke="#63b8ff" d="M399,-109.84C399,-102.21 399,-92.7 399,-84.45"/>
<polygon fill="#63b8ff" stroke="#63b8ff" points="402.5,-84.27 399,-74.27 395.5,-84.27 402.5,-84.27"/>
</a>
</g>
</g>
<!-- Node8 -->
<g id="Node000008" class="node">
<title>Node8</title>
<g id="a_Node000008"><a xlink:title=" ">
<polygon fill="#e0e0e0" stroke="#999999" points="515.5,-74 468.5,-74 468.5,-55 515.5,-55 515.5,-74"/>
<text text-anchor="middle" x="492" y="-62" font-family="Helvetica,sans-Serif" font-size="10.00">QtTest</text>
</a>
</g>
</g>
<!-- Node1&#45;&gt;Node8 -->
<g id="edge7_Node000001_Node000008" class="edge">
<title>Node1&#45;&gt;Node8</title>
<g id="a_edge7_Node000001_Node000008"><a xlink:title=" ">
<path fill="none" stroke="#63b8ff" d="M421.51,-109.84C436.06,-100.68 454.93,-88.82 469.49,-79.66"/>
<polygon fill="#63b8ff" stroke="#63b8ff" points="471.74,-82.38 478.34,-74.09 468.01,-76.46 471.74,-82.38"/>
</a>
</g>
</g>
<!-- Node9 -->
<g id="Node000009" class="node">
<title>Node9</title>
<g id="a_Node000009"><a xlink:title=" ">
<polygon fill="#e0e0e0" stroke="#999999" points="578,-74 534,-74 534,-55 578,-55 578,-74"/>
<text text-anchor="middle" x="556" y="-62" font-family="Helvetica,sans-Serif" font-size="10.00">limits</text>
</a>
</g>
</g>
<!-- Node1&#45;&gt;Node9 -->
<g id="edge8_Node000001_Node000009" class="edge">
<title>Node1&#45;&gt;Node9</title>
<g id="a_edge8_Node000001_Node000009"><a xlink:title=" ">
<path fill="none" stroke="#63b8ff" d="M436.61,-109.99C463.35,-100.02 498.89,-86.78 524.22,-77.34"/>
<polygon fill="#63b8ff" stroke="#63b8ff" points="525.58,-80.57 533.73,-73.8 523.14,-74.01 525.58,-80.57"/>
</a>
</g>
</g>
<!-- Node3 -->
<g id="Node000003" class="node">
<title>Node3</title>
<g id="a_Node000003"><a xlink:title=" ">
<polygon fill="#e0e0e0" stroke="#999999" points="98,-19 0,-19 0,0 98,0 98,-19"/>
<text text-anchor="middle" x="49" y="-7" font-family="Helvetica,sans-Serif" font-size="10.00">QtCore/qglobal.h</text>
</a>
</g>
</g>
<!-- Node2&#45;&gt;Node3 -->
<g id="edge2_Node000002_Node000003" class="edge">
<title>Node2&#45;&gt;Node3</title>
<g id="a_edge2_Node000002_Node000003"><a xlink:title=" ">
<path fill="none" stroke="#63b8ff" d="M128.74,-54.98C113.87,-46.69 91.02,-33.94 73.58,-24.22"/>
<polygon fill="#63b8ff" stroke="#63b8ff" points="74.98,-20.99 64.54,-19.17 71.57,-27.1 74.98,-20.99"/>
</a>
</g>
</g>
<!-- Node4 -->
<g id="Node000004" class="node">
<title>Node4</title>
<g id="a_Node000004"><a xlink:title=" ">
<polygon fill="#e0e0e0" stroke="#999999" points="172,-19 116,-19 116,0 172,0 172,-19"/>
<text text-anchor="middle" x="144" y="-7" font-family="Helvetica,sans-Serif" font-size="10.00">QObject</text>
</a>
</g>
</g>
<!-- Node2&#45;&gt;Node4 -->
<g id="edge3_Node000002_Node000004" class="edge">
<title>Node2&#45;&gt;Node4</title>
<g id="a_edge3_Node000002_Node000004"><a xlink:title=" ">
<path fill="none" stroke="#63b8ff" d="M144,-54.75C144,-47.8 144,-37.85 144,-29.13"/>
<polygon fill="#63b8ff" stroke="#63b8ff" points="147.5,-29.09 144,-19.09 140.5,-29.09 147.5,-29.09"/>
</a>
</g>
</g>
<!-- Node5 -->
<g id="Node000005" class="node">
<title>Node5</title>
<g id="a_Node000005"><a xlink:title=" ">
<polygon fill="#e0e0e0" stroke="#999999" points="246,-19 190,-19 190,0 246,0 246,-19"/>
<text text-anchor="middle" x="218" y="-7" font-family="Helvetica,sans-Serif" font-size="10.00">QLocale</text>
</a>
</g>
</g>
<!-- Node2&#45;&gt;Node5 -->
<g id="edge4_Node000002_Node000005" class="edge">
<title>Node2&#45;&gt;Node5</title>
<g id="a_edge4_Node000002_Node000005"><a xlink:title=" ">
<path fill="none" stroke="#63b8ff" d="M155.89,-54.98C167.15,-46.92 184.29,-34.65 197.71,-25.03"/>
<polygon fill="#63b8ff" stroke="#63b8ff" points="199.8,-27.84 205.89,-19.17 195.73,-22.15 199.8,-27.84"/>
</a>
</g>
</g>
</g>
</svg>
