<?xml version="1.0" encoding="UTF-8" standalone="no"?>
<!DOCTYPE svg PUBLIC "-//W3C//DTD SVG 1.1//EN"
 "http://www.w3.org/Graphics/SVG/1.1/DTD/svg11.dtd">
<!-- Generated by graphviz version 2.43.0 (0)
 -->
<!-- Title: SavePiecePathOptions Pages: 1 -->
<svg width="173pt" height="557pt"
 viewBox="0.00 0.00 173.00 557.00" xmlns="http://www.w3.org/2000/svg" xmlns:xlink="http://www.w3.org/1999/xlink">
<g id="graph0" class="graph" transform="scale(1 1) rotate(0) translate(4 553)">
<title>SavePiecePathOptions</title>
<!-- Node1 -->
<g id="Node000001" class="node">
<title>Node1</title>
<g id="a_Node000001"><a xlink:title=" ">
<polygon fill="#999999" stroke="transparent" points="146,-184 0,-184 0,0 146,0 146,-184"/>
<text text-anchor="start" x="18.5" y="-172" font-family="Helvetica,sans-Serif" font-size="10.00">SavePiecePathOptions</text>
<text text-anchor="start" x="6.5" y="-157" font-family="Helvetica,sans-Serif" font-size="10.00">&#45;</text>
<text text-anchor="start" x="17" y="-157" font-family="Helvetica,sans-Serif" font-size="10.00">m_oldPath</text>
<text text-anchor="start" x="6.5" y="-142" font-family="Helvetica,sans-Serif" font-size="10.00">&#45;</text>
<text text-anchor="start" x="17" y="-142" font-family="Helvetica,sans-Serif" font-size="10.00">m_newPath</text>
<text text-anchor="start" x="6.5" y="-127" font-family="Helvetica,sans-Serif" font-size="10.00">&#45;</text>
<text text-anchor="start" x="17" y="-127" font-family="Helvetica,sans-Serif" font-size="10.00">m_data</text>
<text text-anchor="start" x="4" y="-112" font-family="Helvetica,sans-Serif" font-size="10.00">+</text>
<text text-anchor="start" x="17" y="-112" font-family="Helvetica,sans-Serif" font-size="10.00">SavePiecePathOptions()</text>
<text text-anchor="start" x="4" y="-97" font-family="Helvetica,sans-Serif" font-size="10.00">+</text>
<text text-anchor="start" x="17" y="-97" font-family="Helvetica,sans-Serif" font-size="10.00">~SavePiecePathOptions()</text>
<text text-anchor="start" x="4" y="-82" font-family="Helvetica,sans-Serif" font-size="10.00">+</text>
<text text-anchor="start" x="17" y="-82" font-family="Helvetica,sans-Serif" font-size="10.00">undo()</text>
<text text-anchor="start" x="4" y="-67" font-family="Helvetica,sans-Serif" font-size="10.00">+</text>
<text text-anchor="start" x="17" y="-67" font-family="Helvetica,sans-Serif" font-size="10.00">redo()</text>
<text text-anchor="start" x="4" y="-52" font-family="Helvetica,sans-Serif" font-size="10.00">+</text>
<text text-anchor="start" x="17" y="-52" font-family="Helvetica,sans-Serif" font-size="10.00">mergeWith()</text>
<text text-anchor="start" x="4" y="-37" font-family="Helvetica,sans-Serif" font-size="10.00">+</text>
<text text-anchor="start" x="17" y="-37" font-family="Helvetica,sans-Serif" font-size="10.00">id()</text>
<text text-anchor="start" x="4" y="-22" font-family="Helvetica,sans-Serif" font-size="10.00">+</text>
<text text-anchor="start" x="17" y="-22" font-family="Helvetica,sans-Serif" font-size="10.00">PathId()</text>
<text text-anchor="start" x="4" y="-7" font-family="Helvetica,sans-Serif" font-size="10.00">+</text>
<text text-anchor="start" x="17" y="-7" font-family="Helvetica,sans-Serif" font-size="10.00">NewPath()</text>
<polygon fill="#666666" stroke="#666666" points="0,-167 0,-167 146,-167 146,-167 0,-167"/>
<polygon fill="#666666" stroke="#666666" points="0,-122 0,-122 15,-122 15,-122 0,-122"/>
<polygon fill="#666666" stroke="#666666" points="15,-122 15,-122 146,-122 146,-122 15,-122"/>
<polygon fill="none" stroke="#666666" points="0,0 0,-184 146,-184 146,0 0,0"/>
</a>
</g>
</g>
<!-- Node2 -->
<g id="Node000002" class="node">
<title>Node2</title>
<g id="a_Node000002"><a xlink:href="../../de/d04/classVUndoCommand.html" target="_top" xlink:title=" ">
<polygon fill="white" stroke="transparent" points="144.5,-464 1.5,-464 1.5,-220 144.5,-220 144.5,-464"/>
<text text-anchor="start" x="32" y="-452" font-family="Helvetica,sans-Serif" font-size="10.00">VUndoCommand</text>
<text text-anchor="start" x="6" y="-437" font-family="Helvetica,sans-Serif" font-size="10.00">#</text>
<text text-anchor="start" x="19" y="-437" font-family="Helvetica,sans-Serif" font-size="10.00">xml</text>
<text text-anchor="start" x="6" y="-422" font-family="Helvetica,sans-Serif" font-size="10.00">#</text>
<text text-anchor="start" x="19" y="-422" font-family="Helvetica,sans-Serif" font-size="10.00">doc</text>
<text text-anchor="start" x="6" y="-407" font-family="Helvetica,sans-Serif" font-size="10.00">#</text>
<text text-anchor="start" x="19" y="-407" font-family="Helvetica,sans-Serif" font-size="10.00">nodeId</text>
<text text-anchor="start" x="6" y="-392" font-family="Helvetica,sans-Serif" font-size="10.00">#</text>
<text text-anchor="start" x="19" y="-392" font-family="Helvetica,sans-Serif" font-size="10.00">redoFlag</text>
<text text-anchor="start" x="6" y="-377" font-family="Helvetica,sans-Serif" font-size="10.00">+</text>
<text text-anchor="start" x="19" y="-377" font-family="Helvetica,sans-Serif" font-size="10.00">VUndoCommand()</text>
<text text-anchor="start" x="6" y="-362" font-family="Helvetica,sans-Serif" font-size="10.00">+</text>
<text text-anchor="start" x="19" y="-362" font-family="Helvetica,sans-Serif" font-size="10.00">~VUndoCommand()</text>
<text text-anchor="start" x="6" y="-347" font-family="Helvetica,sans-Serif" font-size="10.00">#</text>
<text text-anchor="start" x="19" y="-347" font-family="Helvetica,sans-Serif" font-size="10.00">RedoFullParsing()</text>
<text text-anchor="start" x="6" y="-332" font-family="Helvetica,sans-Serif" font-size="10.00">#</text>
<text text-anchor="start" x="19" y="-332" font-family="Helvetica,sans-Serif" font-size="10.00">UndoDeleteAfterSibling()</text>
<text text-anchor="start" x="6" y="-317" font-family="Helvetica,sans-Serif" font-size="10.00">#</text>
<text text-anchor="start" x="19" y="-317" font-family="Helvetica,sans-Serif" font-size="10.00">IncrementReferences()</text>
<text text-anchor="start" x="6" y="-302" font-family="Helvetica,sans-Serif" font-size="10.00">#</text>
<text text-anchor="start" x="19" y="-302" font-family="Helvetica,sans-Serif" font-size="10.00">DecrementReferences()</text>
<text text-anchor="start" x="6" y="-287" font-family="Helvetica,sans-Serif" font-size="10.00">#</text>
<text text-anchor="start" x="19" y="-287" font-family="Helvetica,sans-Serif" font-size="10.00">IncrementReferences()</text>
<text text-anchor="start" x="6" y="-272" font-family="Helvetica,sans-Serif" font-size="10.00">#</text>
<text text-anchor="start" x="19" y="-272" font-family="Helvetica,sans-Serif" font-size="10.00">DecrementReferences()</text>
<text text-anchor="start" x="6" y="-257" font-family="Helvetica,sans-Serif" font-size="10.00">#</text>
<text text-anchor="start" x="19" y="-257" font-family="Helvetica,sans-Serif" font-size="10.00">IncrementReferences()</text>
<text text-anchor="start" x="6" y="-242" font-family="Helvetica,sans-Serif" font-size="10.00">#</text>
<text text-anchor="start" x="19" y="-242" font-family="Helvetica,sans-Serif" font-size="10.00">DecrementReferences()</text>
<text text-anchor="start" x="6" y="-227" font-family="Helvetica,sans-Serif" font-size="10.00">#</text>
<text text-anchor="start" x="19" y="-227" font-family="Helvetica,sans-Serif" font-size="10.00">getDestinationObject()</text>
<polygon fill="#666666" stroke="#666666" points="2,-447 2,-447 145,-447 145,-447 2,-447"/>
<polygon fill="#666666" stroke="#666666" points="2,-387 2,-387 17,-387 17,-387 2,-387"/>
<polygon fill="#666666" stroke="#666666" points="17,-387 17,-387 145,-387 145,-387 17,-387"/>
<polygon fill="none" stroke="#666666" points="1.5,-220 1.5,-464 144.5,-464 144.5,-220 1.5,-220"/>
</a>
</g>
</g>
<!-- Node2&#45;&gt;Node1 -->
<g id="edge1_Node000001_Node000002" class="edge">
<title>Node2&#45;&gt;Node1</title>
<g id="a_edge1_Node000001_Node000002"><a xlink:title=" ">
<path fill="none" stroke="#63b8ff" d="M73,-209.74C73,-201.09 73,-192.49 73,-184.1"/>
<polygon fill="none" stroke="#63b8ff" points="69.5,-209.91 73,-219.91 76.5,-209.91 69.5,-209.91"/>
</a>
</g>
</g>
<!-- Node3 -->
<g id="Node000003" class="node">
<title>Node3</title>
<g id="a_Node000003"><a xlink:title=" ">
<polygon fill="white" stroke="transparent" points="53,-549 3,-549 3,-500 53,-500 53,-549"/>
<text text-anchor="start" x="8" y="-536.5" font-family="Helvetica,sans-Serif" font-size="10.00">QObject</text>
<text text-anchor="start" x="26" y="-521.5" font-family="Helvetica,sans-Serif" font-size="10.00"> </text>
<text text-anchor="start" x="26" y="-506.5" font-family="Helvetica,sans-Serif" font-size="10.00"> </text>
<polygon fill="#666666" stroke="#666666" points="3,-531.5 3,-531.5 53,-531.5 53,-531.5 3,-531.5"/>
<polygon fill="#666666" stroke="#666666" points="3,-516.5 3,-516.5 53,-516.5 53,-516.5 3,-516.5"/>
<polygon fill="none" stroke="#666666" points="3,-500 3,-549 53,-549 53,-500 3,-500"/>
</a>
</g>
</g>
<!-- Node3&#45;&gt;Node2 -->
<g id="edge2_Node000002_Node000003" class="edge">
<title>Node3&#45;&gt;Node2</title>
<g id="a_edge2_Node000002_Node000003"><a xlink:title=" ">
<path fill="none" stroke="#63b8ff" d="M36.31,-490.18C38.26,-482.33 40.46,-473.5 42.79,-464.18"/>
<polygon fill="none" stroke="#63b8ff" points="32.91,-489.35 33.88,-499.9 39.7,-491.05 32.91,-489.35"/>
</a>
</g>
</g>
<!-- Node4 -->
<g id="Node000004" class="node">
<title>Node4</title>
<g id="a_Node000004"><a xlink:title=" ">
<polygon fill="white" stroke="transparent" points="165,-549 71,-549 71,-500 165,-500 165,-549"/>
<text text-anchor="start" x="76" y="-536.5" font-family="Helvetica,sans-Serif" font-size="10.00">QUndoCommand</text>
<text text-anchor="start" x="116" y="-521.5" font-family="Helvetica,sans-Serif" font-size="10.00"> </text>
<text text-anchor="start" x="116" y="-506.5" font-family="Helvetica,sans-Serif" font-size="10.00"> </text>
<polygon fill="#666666" stroke="#666666" points="71,-531.5 71,-531.5 165,-531.5 165,-531.5 71,-531.5"/>
<polygon fill="#666666" stroke="#666666" points="71,-516.5 71,-516.5 165,-516.5 165,-516.5 71,-516.5"/>
<polygon fill="none" stroke="#666666" points="71,-500 71,-549 165,-549 165,-500 71,-500"/>
</a>
</g>
</g>
<!-- Node4&#45;&gt;Node2 -->
<g id="edge3_Node000002_Node000004" class="edge">
<title>Node4&#45;&gt;Node2</title>
<g id="a_edge3_Node000002_Node000004"><a xlink:title=" ">
<path fill="none" stroke="#63b8ff" d="M109.69,-490.18C107.74,-482.33 105.54,-473.5 103.21,-464.18"/>
<polygon fill="none" stroke="#63b8ff" points="106.3,-491.05 112.12,-499.9 113.09,-489.35 106.3,-491.05"/>
</a>
</g>
</g>
</g>
</svg>
