<?xml version="1.0" encoding="UTF-8" standalone="no"?>
<!DOCTYPE svg PUBLIC "-//W3C//DTD SVG 1.1//EN"
 "http://www.w3.org/Graphics/SVG/1.1/DTD/svg11.dtd">
<!-- Generated by graphviz version 2.43.0 (0)
 -->
<!-- Title: src/libs/vpatterndb/floatItemData/vpatternlabeldata.cpp Pages: 1 -->
<svg width="551pt" height="203pt"
 viewBox="0.00 0.00 551.00 203.00" xmlns="http://www.w3.org/2000/svg" xmlns:xlink="http://www.w3.org/1999/xlink">
<g id="graph0" class="graph" transform="scale(1 1) rotate(0) translate(4 199)">
<title>src/libs/vpatterndb/floatItemData/vpatternlabeldata.cpp</title>
<!-- Node1 -->
<g id="Node000001" class="node">
<title>Node1</title>
<g id="a_Node000001"><a xlink:title=" ">
<polygon fill="#999999" stroke="#666666" points="444,-195 247,-195 247,-165 444,-165 444,-195"/>
<text text-anchor="start" x="255" y="-183" font-family="Helvetica,sans-Serif" font-size="10.00">src/libs/vpatterndb</text>
<text text-anchor="middle" x="345.5" y="-172" font-family="Helvetica,sans-Serif" font-size="10.00">/floatItemData/vpatternlabeldata.cpp</text>
</a>
</g>
</g>
<!-- Node2 -->
<g id="Node000002" class="node">
<title>Node2</title>
<g id="a_Node000002"><a xlink:href="../../de/d1f/vpatternlabeldata_8h.html" target="_top" xlink:title=" ">
<polygon fill="white" stroke="#666666" points="222,-129 109,-129 109,-110 222,-110 222,-129"/>
<text text-anchor="middle" x="165.5" y="-117" font-family="Helvetica,sans-Serif" font-size="10.00">vpatternlabeldata.h</text>
</a>
</g>
</g>
<!-- Node1&#45;&gt;Node2 -->
<g id="edge1_Node000001_Node000002" class="edge">
<title>Node1&#45;&gt;Node2</title>
<g id="a_edge1_Node000001_Node000002"><a xlink:title=" ">
<path fill="none" stroke="#63b8ff" d="M302.39,-164.99C271.59,-154.98 230.63,-141.67 201.57,-132.22"/>
<polygon fill="#63b8ff" stroke="#63b8ff" points="202.41,-128.82 191.82,-129.05 200.25,-135.47 202.41,-128.82"/>
</a>
</g>
</g>
<!-- Node6 -->
<g id="Node000006" class="node">
<title>Node6</title>
<g id="a_Node000006"><a xlink:href="../../df/dda/vpatternlabeldata__p_8h.html" target="_top" xlink:title=" ">
<polygon fill="white" stroke="#666666" points="407.5,-129 283.5,-129 283.5,-110 407.5,-110 407.5,-129"/>
<text text-anchor="middle" x="345.5" y="-117" font-family="Helvetica,sans-Serif" font-size="10.00">vpatternlabeldata_p.h</text>
</a>
</g>
</g>
<!-- Node1&#45;&gt;Node6 -->
<g id="edge6_Node000001_Node000006" class="edge">
<title>Node1&#45;&gt;Node6</title>
<g id="a_edge6_Node000001_Node000006"><a xlink:title=" ">
<path fill="none" stroke="#63b8ff" d="M345.5,-164.84C345.5,-157.21 345.5,-147.7 345.5,-139.45"/>
<polygon fill="#63b8ff" stroke="#63b8ff" points="349,-139.27 345.5,-129.27 342,-139.27 349,-139.27"/>
</a>
</g>
</g>
<!-- Node9 -->
<g id="Node000009" class="node">
<title>Node9</title>
<g id="a_Node000009"><a xlink:title=" ">
<polygon fill="#e0e0e0" stroke="#999999" points="543,-74 466,-74 466,-55 543,-55 543,-74"/>
<text text-anchor="middle" x="504.5" y="-62" font-family="Helvetica,sans-Serif" font-size="10.00">../ifc/ifcdef.h</text>
</a>
</g>
</g>
<!-- Node1&#45;&gt;Node9 -->
<g id="edge11_Node000001_Node000009" class="edge">
<title>Node1&#45;&gt;Node9</title>
<g id="a_edge11_Node000001_Node000009"><a xlink:title=" ">
<path fill="none" stroke="#63b8ff" d="M365.74,-164.84C379.97,-154.86 399.44,-141.16 416.5,-129 439.75,-112.42 466.32,-93.21 484.13,-80.3"/>
<polygon fill="#63b8ff" stroke="#63b8ff" points="486.54,-82.88 492.58,-74.17 482.43,-77.21 486.54,-82.88"/>
</a>
</g>
</g>
<!-- Node3 -->
<g id="Node000003" class="node">
<title>Node3</title>
<g id="a_Node000003"><a xlink:title=" ">
<polygon fill="#e0e0e0" stroke="#999999" points="197,-19 142,-19 142,0 197,0 197,-19"/>
<text text-anchor="middle" x="169.5" y="-7" font-family="Helvetica,sans-Serif" font-size="10.00">QPointF</text>
</a>
</g>
</g>
<!-- Node2&#45;&gt;Node3 -->
<g id="edge2_Node000002_Node000003" class="edge">
<title>Node2&#45;&gt;Node3</title>
<g id="a_edge2_Node000002_Node000003"><a xlink:title=" ">
<path fill="none" stroke="#63b8ff" d="M165.83,-109.66C166.48,-92.17 167.93,-52.8 168.8,-29.27"/>
<polygon fill="#63b8ff" stroke="#63b8ff" points="172.31,-29.28 169.18,-19.16 165.31,-29.02 172.31,-29.28"/>
</a>
</g>
</g>
<!-- Node4 -->
<g id="Node000004" class="node">
<title>Node4</title>
<g id="a_Node000004"><a xlink:href="../../db/dc1/vabstractfloatitemdata_8h.html" target="_top" xlink:title=" ">
<polygon fill="white" stroke="#666666" points="137,-74 0,-74 0,-55 137,-55 137,-74"/>
<text text-anchor="middle" x="68.5" y="-62" font-family="Helvetica,sans-Serif" font-size="10.00">vabstractfloatitemdata.h</text>
</a>
</g>
</g>
<!-- Node2&#45;&gt;Node4 -->
<g id="edge3_Node000002_Node000004" class="edge">
<title>Node2&#45;&gt;Node4</title>
<g id="a_edge3_Node000002_Node000004"><a xlink:title=" ">
<path fill="none" stroke="#63b8ff" d="M149.92,-109.98C134.73,-101.69 111.4,-88.94 93.6,-79.22"/>
<polygon fill="#63b8ff" stroke="#63b8ff" points="94.82,-75.89 84.37,-74.17 91.47,-82.04 94.82,-75.89"/>
</a>
</g>
</g>
<!-- Node4&#45;&gt;Node3 -->
<g id="edge4_Node000004_Node000003" class="edge">
<title>Node4&#45;&gt;Node3</title>
<g id="a_edge4_Node000004_Node000003"><a xlink:title=" ">
<path fill="none" stroke="#63b8ff" d="M84.73,-54.98C100.68,-46.61 125.28,-33.7 143.88,-23.95"/>
<polygon fill="#63b8ff" stroke="#63b8ff" points="145.75,-26.92 152.98,-19.17 142.5,-20.72 145.75,-26.92"/>
</a>
</g>
</g>
<!-- Node5 -->
<g id="Node000005" class="node">
<title>Node5</title>
<g id="a_Node000005"><a xlink:title=" ">
<polygon fill="#e0e0e0" stroke="#999999" points="123.5,-19 7.5,-19 7.5,0 123.5,0 123.5,-19"/>
<text text-anchor="middle" x="65.5" y="-7" font-family="Helvetica,sans-Serif" font-size="10.00">QSharedDataPointer</text>
</a>
</g>
</g>
<!-- Node4&#45;&gt;Node5 -->
<g id="edge5_Node000004_Node000005" class="edge">
<title>Node4&#45;&gt;Node5</title>
<g id="a_edge5_Node000004_Node000005"><a xlink:title=" ">
<path fill="none" stroke="#63b8ff" d="M68,-54.75C67.61,-47.8 67.05,-37.85 66.55,-29.13"/>
<polygon fill="#63b8ff" stroke="#63b8ff" points="70.05,-28.88 65.99,-19.09 63.06,-29.27 70.05,-28.88"/>
</a>
</g>
</g>
<!-- Node6&#45;&gt;Node3 -->
<g id="edge7_Node000006_Node000003" class="edge">
<title>Node6&#45;&gt;Node3</title>
<g id="a_edge7_Node000006_Node000003"><a xlink:title=" ">
<path fill="none" stroke="#63b8ff" d="M306.15,-109.94C280.68,-103.09 247.7,-91.66 222.5,-74 204.92,-61.68 189.8,-42.09 180.26,-27.93"/>
<polygon fill="#63b8ff" stroke="#63b8ff" points="182.95,-25.65 174.58,-19.15 177.07,-29.44 182.95,-25.65"/>
</a>
</g>
</g>
<!-- Node7 -->
<g id="Node000007" class="node">
<title>Node7</title>
<g id="a_Node000007"><a xlink:title=" ">
<polygon fill="#e0e0e0" stroke="#999999" points="313,-74 232,-74 232,-55 313,-55 313,-74"/>
<text text-anchor="middle" x="272.5" y="-62" font-family="Helvetica,sans-Serif" font-size="10.00">QSharedData</text>
</a>
</g>
</g>
<!-- Node6&#45;&gt;Node7 -->
<g id="edge8_Node000006_Node000007" class="edge">
<title>Node6&#45;&gt;Node7</title>
<g id="a_edge8_Node000006_Node000007"><a xlink:title=" ">
<path fill="none" stroke="#63b8ff" d="M333.77,-109.98C322.77,-102 306.08,-89.88 292.9,-80.31"/>
<polygon fill="#63b8ff" stroke="#63b8ff" points="294.59,-77.21 284.44,-74.17 290.48,-82.88 294.59,-77.21"/>
</a>
</g>
</g>
<!-- Node8 -->
<g id="Node000008" class="node">
<title>Node8</title>
<g id="a_Node000008"><a xlink:title=" ">
<polygon fill="#e0e0e0" stroke="#999999" points="448,-74 331,-74 331,-55 448,-55 448,-74"/>
<text text-anchor="middle" x="389.5" y="-62" font-family="Helvetica,sans-Serif" font-size="10.00">../vmisc/diagnostic.h</text>
</a>
</g>
</g>
<!-- Node6&#45;&gt;Node8 -->
<g id="edge9_Node000006_Node000008" class="edge">
<title>Node6&#45;&gt;Node8</title>
<g id="a_edge9_Node000006_Node000008"><a xlink:title=" ">
<path fill="none" stroke="#63b8ff" d="M352.77,-109.75C359.04,-102.18 368.29,-91.05 375.93,-81.84"/>
<polygon fill="#63b8ff" stroke="#63b8ff" points="378.67,-84.02 382.37,-74.09 373.29,-79.55 378.67,-84.02"/>
</a>
</g>
</g>
<!-- Node6&#45;&gt;Node9 -->
<g id="edge10_Node000006_Node000009" class="edge">
<title>Node6&#45;&gt;Node9</title>
<g id="a_edge10_Node000006_Node000009"><a xlink:title=" ">
<path fill="none" stroke="#63b8ff" d="M371.05,-109.98C397.62,-101.13 439.44,-87.19 469.17,-77.28"/>
<polygon fill="#63b8ff" stroke="#63b8ff" points="470.37,-80.56 478.75,-74.08 468.16,-73.92 470.37,-80.56"/>
</a>
</g>
</g>
</g>
</svg>
