<?xml version="1.0" encoding="UTF-8" standalone="no"?>
<!DOCTYPE svg PUBLIC "-//W3C//DTD SVG 1.1//EN"
 "http://www.w3.org/Graphics/SVG/1.1/DTD/svg11.dtd">
<!-- Generated by graphviz version 2.43.0 (0)
 -->
<!-- Title: MoveDoubleLabel Pages: 1 -->
<svg width="172pt" height="732pt"
 viewBox="0.00 0.00 171.50 732.00" xmlns="http://www.w3.org/2000/svg" xmlns:xlink="http://www.w3.org/1999/xlink">
<g id="graph0" class="graph" transform="scale(1 1) rotate(0) translate(4 728)">
<title>MoveDoubleLabel</title>
<!-- Node1 -->
<g id="Node000001" class="node">
<title>Node1</title>
<g id="a_Node000001"><a xlink:title=" ">
<polygon fill="#999999" stroke="transparent" points="134,-169 9,-169 9,0 134,0 134,-169"/>
<text text-anchor="start" x="28" y="-156.5" font-family="Helvetica,sans-Serif" font-size="10.00">MoveDoubleLabel</text>
<text text-anchor="start" x="16" y="-141.5" font-family="Helvetica,sans-Serif" font-size="10.00">&#45;</text>
<text text-anchor="start" x="26.5" y="-141.5" font-family="Helvetica,sans-Serif" font-size="10.00">m_type</text>
<text text-anchor="start" x="16" y="-126.5" font-family="Helvetica,sans-Serif" font-size="10.00">&#45;</text>
<text text-anchor="start" x="26.5" y="-126.5" font-family="Helvetica,sans-Serif" font-size="10.00">m_idTool</text>
<text text-anchor="start" x="16" y="-111.5" font-family="Helvetica,sans-Serif" font-size="10.00">&#45;</text>
<text text-anchor="start" x="26.5" y="-111.5" font-family="Helvetica,sans-Serif" font-size="10.00">m_scene</text>
<text text-anchor="start" x="13.5" y="-96.5" font-family="Helvetica,sans-Serif" font-size="10.00">+</text>
<text text-anchor="start" x="26.5" y="-96.5" font-family="Helvetica,sans-Serif" font-size="10.00">MoveDoubleLabel()</text>
<text text-anchor="start" x="13.5" y="-81.5" font-family="Helvetica,sans-Serif" font-size="10.00">+</text>
<text text-anchor="start" x="26.5" y="-81.5" font-family="Helvetica,sans-Serif" font-size="10.00">~MoveDoubleLabel()</text>
<text text-anchor="start" x="13.5" y="-66.5" font-family="Helvetica,sans-Serif" font-size="10.00">+</text>
<text text-anchor="start" x="26.5" y="-66.5" font-family="Helvetica,sans-Serif" font-size="10.00">mergeWith()</text>
<text text-anchor="start" x="13.5" y="-51.5" font-family="Helvetica,sans-Serif" font-size="10.00">+</text>
<text text-anchor="start" x="26.5" y="-51.5" font-family="Helvetica,sans-Serif" font-size="10.00">id()</text>
<text text-anchor="start" x="13.5" y="-36.5" font-family="Helvetica,sans-Serif" font-size="10.00">+</text>
<text text-anchor="start" x="26.5" y="-36.5" font-family="Helvetica,sans-Serif" font-size="10.00">GetToolId()</text>
<text text-anchor="start" x="13.5" y="-21.5" font-family="Helvetica,sans-Serif" font-size="10.00">+</text>
<text text-anchor="start" x="26.5" y="-21.5" font-family="Helvetica,sans-Serif" font-size="10.00">GetPointType()</text>
<text text-anchor="start" x="13.5" y="-6.5" font-family="Helvetica,sans-Serif" font-size="10.00">#</text>
<text text-anchor="start" x="26.5" y="-6.5" font-family="Helvetica,sans-Serif" font-size="10.00">Do()</text>
<polygon fill="#666666" stroke="#666666" points="9.5,-151.5 9.5,-151.5 134.5,-151.5 134.5,-151.5 9.5,-151.5"/>
<polygon fill="#666666" stroke="#666666" points="9.5,-106.5 9.5,-106.5 24.5,-106.5 24.5,-106.5 9.5,-106.5"/>
<polygon fill="#666666" stroke="#666666" points="24.5,-106.5 24.5,-106.5 134.5,-106.5 134.5,-106.5 24.5,-106.5"/>
<polygon fill="none" stroke="#666666" points="9,0 9,-169 134,-169 134,0 9,0"/>
</a>
</g>
</g>
<!-- Node2 -->
<g id="Node000002" class="node">
<title>Node2</title>
<g id="a_Node000002"><a xlink:href="../../d6/d7c/classMoveAbstractLabel.html" target="_top" xlink:title=" ">
<polygon fill="white" stroke="transparent" points="137,-359 6,-359 6,-205 137,-205 137,-359"/>
<text text-anchor="start" x="25" y="-347" font-family="Helvetica,sans-Serif" font-size="10.00">MoveAbstractLabel</text>
<text text-anchor="start" x="10.5" y="-332" font-family="Helvetica,sans-Serif" font-size="10.00">#</text>
<text text-anchor="start" x="23.5" y="-332" font-family="Helvetica,sans-Serif" font-size="10.00">m_oldPos</text>
<text text-anchor="start" x="10.5" y="-317" font-family="Helvetica,sans-Serif" font-size="10.00">#</text>
<text text-anchor="start" x="23.5" y="-317" font-family="Helvetica,sans-Serif" font-size="10.00">m_newPos</text>
<text text-anchor="start" x="10.5" y="-302" font-family="Helvetica,sans-Serif" font-size="10.00">+</text>
<text text-anchor="start" x="23.5" y="-302" font-family="Helvetica,sans-Serif" font-size="10.00">MoveAbstractLabel()</text>
<text text-anchor="start" x="10.5" y="-287" font-family="Helvetica,sans-Serif" font-size="10.00">+</text>
<text text-anchor="start" x="23.5" y="-287" font-family="Helvetica,sans-Serif" font-size="10.00">~MoveAbstractLabel()</text>
<text text-anchor="start" x="10.5" y="-272" font-family="Helvetica,sans-Serif" font-size="10.00">+</text>
<text text-anchor="start" x="23.5" y="-272" font-family="Helvetica,sans-Serif" font-size="10.00">undo()</text>
<text text-anchor="start" x="10.5" y="-257" font-family="Helvetica,sans-Serif" font-size="10.00">+</text>
<text text-anchor="start" x="23.5" y="-257" font-family="Helvetica,sans-Serif" font-size="10.00">redo()</text>
<text text-anchor="start" x="10.5" y="-242" font-family="Helvetica,sans-Serif" font-size="10.00">+</text>
<text text-anchor="start" x="23.5" y="-242" font-family="Helvetica,sans-Serif" font-size="10.00">GetPointId()</text>
<text text-anchor="start" x="10.5" y="-227" font-family="Helvetica,sans-Serif" font-size="10.00">+</text>
<text text-anchor="start" x="23.5" y="-227" font-family="Helvetica,sans-Serif" font-size="10.00">GetNewPos()</text>
<text text-anchor="start" x="10.5" y="-212" font-family="Helvetica,sans-Serif" font-size="10.00">#</text>
<text text-anchor="start" x="23.5" y="-212" font-family="Helvetica,sans-Serif" font-size="10.00">Do()</text>
<polygon fill="#666666" stroke="#666666" points="6.5,-342 6.5,-342 137.5,-342 137.5,-342 6.5,-342"/>
<polygon fill="#666666" stroke="#666666" points="6.5,-312 6.5,-312 21.5,-312 21.5,-312 6.5,-312"/>
<polygon fill="#666666" stroke="#666666" points="21.5,-312 21.5,-312 137.5,-312 137.5,-312 21.5,-312"/>
<polygon fill="none" stroke="#666666" points="6,-205 6,-359 137,-359 137,-205 6,-205"/>
</a>
</g>
</g>
<!-- Node2&#45;&gt;Node1 -->
<g id="edge1_Node000001_Node000002" class="edge">
<title>Node2&#45;&gt;Node1</title>
<g id="a_edge1_Node000001_Node000002"><a xlink:title=" ">
<path fill="none" stroke="#63b8ff" d="M71.5,-194.63C71.5,-186.19 71.5,-177.63 71.5,-169.21"/>
<polygon fill="none" stroke="#63b8ff" points="68,-194.85 71.5,-204.85 75,-194.85 68,-194.85"/>
</a>
</g>
</g>
<!-- Node3 -->
<g id="Node000003" class="node">
<title>Node3</title>
<g id="a_Node000003"><a xlink:href="../../de/d04/classVUndoCommand.html" target="_top" xlink:title=" ">
<polygon fill="white" stroke="transparent" points="143,-639 0,-639 0,-395 143,-395 143,-639"/>
<text text-anchor="start" x="30.5" y="-627" font-family="Helvetica,sans-Serif" font-size="10.00">VUndoCommand</text>
<text text-anchor="start" x="4.5" y="-612" font-family="Helvetica,sans-Serif" font-size="10.00">#</text>
<text text-anchor="start" x="17.5" y="-612" font-family="Helvetica,sans-Serif" font-size="10.00">xml</text>
<text text-anchor="start" x="4.5" y="-597" font-family="Helvetica,sans-Serif" font-size="10.00">#</text>
<text text-anchor="start" x="17.5" y="-597" font-family="Helvetica,sans-Serif" font-size="10.00">doc</text>
<text text-anchor="start" x="4.5" y="-582" font-family="Helvetica,sans-Serif" font-size="10.00">#</text>
<text text-anchor="start" x="17.5" y="-582" font-family="Helvetica,sans-Serif" font-size="10.00">nodeId</text>
<text text-anchor="start" x="4.5" y="-567" font-family="Helvetica,sans-Serif" font-size="10.00">#</text>
<text text-anchor="start" x="17.5" y="-567" font-family="Helvetica,sans-Serif" font-size="10.00">redoFlag</text>
<text text-anchor="start" x="4.5" y="-552" font-family="Helvetica,sans-Serif" font-size="10.00">+</text>
<text text-anchor="start" x="17.5" y="-552" font-family="Helvetica,sans-Serif" font-size="10.00">VUndoCommand()</text>
<text text-anchor="start" x="4.5" y="-537" font-family="Helvetica,sans-Serif" font-size="10.00">+</text>
<text text-anchor="start" x="17.5" y="-537" font-family="Helvetica,sans-Serif" font-size="10.00">~VUndoCommand()</text>
<text text-anchor="start" x="4.5" y="-522" font-family="Helvetica,sans-Serif" font-size="10.00">#</text>
<text text-anchor="start" x="17.5" y="-522" font-family="Helvetica,sans-Serif" font-size="10.00">RedoFullParsing()</text>
<text text-anchor="start" x="4.5" y="-507" font-family="Helvetica,sans-Serif" font-size="10.00">#</text>
<text text-anchor="start" x="17.5" y="-507" font-family="Helvetica,sans-Serif" font-size="10.00">UndoDeleteAfterSibling()</text>
<text text-anchor="start" x="4.5" y="-492" font-family="Helvetica,sans-Serif" font-size="10.00">#</text>
<text text-anchor="start" x="17.5" y="-492" font-family="Helvetica,sans-Serif" font-size="10.00">IncrementReferences()</text>
<text text-anchor="start" x="4.5" y="-477" font-family="Helvetica,sans-Serif" font-size="10.00">#</text>
<text text-anchor="start" x="17.5" y="-477" font-family="Helvetica,sans-Serif" font-size="10.00">DecrementReferences()</text>
<text text-anchor="start" x="4.5" y="-462" font-family="Helvetica,sans-Serif" font-size="10.00">#</text>
<text text-anchor="start" x="17.5" y="-462" font-family="Helvetica,sans-Serif" font-size="10.00">IncrementReferences()</text>
<text text-anchor="start" x="4.5" y="-447" font-family="Helvetica,sans-Serif" font-size="10.00">#</text>
<text text-anchor="start" x="17.5" y="-447" font-family="Helvetica,sans-Serif" font-size="10.00">DecrementReferences()</text>
<text text-anchor="start" x="4.5" y="-432" font-family="Helvetica,sans-Serif" font-size="10.00">#</text>
<text text-anchor="start" x="17.5" y="-432" font-family="Helvetica,sans-Serif" font-size="10.00">IncrementReferences()</text>
<text text-anchor="start" x="4.5" y="-417" font-family="Helvetica,sans-Serif" font-size="10.00">#</text>
<text text-anchor="start" x="17.5" y="-417" font-family="Helvetica,sans-Serif" font-size="10.00">DecrementReferences()</text>
<text text-anchor="start" x="4.5" y="-402" font-family="Helvetica,sans-Serif" font-size="10.00">#</text>
<text text-anchor="start" x="17.5" y="-402" font-family="Helvetica,sans-Serif" font-size="10.00">getDestinationObject()</text>
<polygon fill="#666666" stroke="#666666" points="0.5,-622 0.5,-622 143.5,-622 143.5,-622 0.5,-622"/>
<polygon fill="#666666" stroke="#666666" points="0.5,-562 0.5,-562 15.5,-562 15.5,-562 0.5,-562"/>
<polygon fill="#666666" stroke="#666666" points="15.5,-562 15.5,-562 143.5,-562 143.5,-562 15.5,-562"/>
<polygon fill="none" stroke="#666666" points="0,-395 0,-639 143,-639 143,-395 0,-395"/>
</a>
</g>
</g>
<!-- Node3&#45;&gt;Node2 -->
<g id="edge2_Node000002_Node000003" class="edge">
<title>Node3&#45;&gt;Node2</title>
<g id="a_edge2_Node000002_Node000003"><a xlink:title=" ">
<path fill="none" stroke="#63b8ff" d="M71.5,-384.58C71.5,-375.98 71.5,-367.48 71.5,-359.29"/>
<polygon fill="none" stroke="#63b8ff" points="68,-384.72 71.5,-394.72 75,-384.72 68,-384.72"/>
</a>
</g>
</g>
<!-- Node4 -->
<g id="Node000004" class="node">
<title>Node4</title>
<g id="a_Node000004"><a xlink:title=" ">
<polygon fill="white" stroke="transparent" points="51.5,-724 1.5,-724 1.5,-675 51.5,-675 51.5,-724"/>
<text text-anchor="start" x="6.5" y="-711.5" font-family="Helvetica,sans-Serif" font-size="10.00">QObject</text>
<text text-anchor="start" x="24.5" y="-696.5" font-family="Helvetica,sans-Serif" font-size="10.00"> </text>
<text text-anchor="start" x="24.5" y="-681.5" font-family="Helvetica,sans-Serif" font-size="10.00"> </text>
<polygon fill="#666666" stroke="#666666" points="1.5,-706.5 1.5,-706.5 51.5,-706.5 51.5,-706.5 1.5,-706.5"/>
<polygon fill="#666666" stroke="#666666" points="1.5,-691.5 1.5,-691.5 51.5,-691.5 51.5,-691.5 1.5,-691.5"/>
<polygon fill="none" stroke="#666666" points="1.5,-675 1.5,-724 51.5,-724 51.5,-675 1.5,-675"/>
</a>
</g>
</g>
<!-- Node4&#45;&gt;Node3 -->
<g id="edge3_Node000003_Node000004" class="edge">
<title>Node4&#45;&gt;Node3</title>
<g id="a_edge3_Node000003_Node000004"><a xlink:title=" ">
<path fill="none" stroke="#63b8ff" d="M34.81,-665.18C36.76,-657.33 38.96,-648.5 41.29,-639.18"/>
<polygon fill="none" stroke="#63b8ff" points="31.41,-664.35 32.38,-674.9 38.2,-666.05 31.41,-664.35"/>
</a>
</g>
</g>
<!-- Node5 -->
<g id="Node000005" class="node">
<title>Node5</title>
<g id="a_Node000005"><a xlink:title=" ">
<polygon fill="white" stroke="transparent" points="163.5,-724 69.5,-724 69.5,-675 163.5,-675 163.5,-724"/>
<text text-anchor="start" x="74.5" y="-711.5" font-family="Helvetica,sans-Serif" font-size="10.00">QUndoCommand</text>
<text text-anchor="start" x="114.5" y="-696.5" font-family="Helvetica,sans-Serif" font-size="10.00"> </text>
<text text-anchor="start" x="114.5" y="-681.5" font-family="Helvetica,sans-Serif" font-size="10.00"> </text>
<polygon fill="#666666" stroke="#666666" points="69.5,-706.5 69.5,-706.5 163.5,-706.5 163.5,-706.5 69.5,-706.5"/>
<polygon fill="#666666" stroke="#666666" points="69.5,-691.5 69.5,-691.5 163.5,-691.5 163.5,-691.5 69.5,-691.5"/>
<polygon fill="none" stroke="#666666" points="69.5,-675 69.5,-724 163.5,-724 163.5,-675 69.5,-675"/>
</a>
</g>
</g>
<!-- Node5&#45;&gt;Node3 -->
<g id="edge4_Node000003_Node000005" class="edge">
<title>Node5&#45;&gt;Node3</title>
<g id="a_edge4_Node000003_Node000005"><a xlink:title=" ">
<path fill="none" stroke="#63b8ff" d="M108.19,-665.18C106.24,-657.33 104.04,-648.5 101.71,-639.18"/>
<polygon fill="none" stroke="#63b8ff" points="104.8,-666.05 110.62,-674.9 111.59,-664.35 104.8,-666.05"/>
</a>
</g>
</g>
</g>
</svg>
