<?xml version="1.0" encoding="UTF-8" standalone="no"?>
<!DOCTYPE svg PUBLIC "-//W3C//DTD SVG 1.1//EN"
 "http://www.w3.org/Graphics/SVG/1.1/DTD/svg11.dtd">
<!-- Generated by graphviz version 2.43.0 (0)
 -->
<!-- Title: src/libs/vpropertyexplorer/plugins/lineweight_property.cpp Pages: 1 -->
<svg width="1882pt" height="203pt"
 viewBox="0.00 0.00 1882.00 203.00" xmlns="http://www.w3.org/2000/svg" xmlns:xlink="http://www.w3.org/1999/xlink">
<g id="graph0" class="graph" transform="scale(1 1) rotate(0) translate(4 199)">
<title>src/libs/vpropertyexplorer/plugins/lineweight_property.cpp</title>
<!-- Node1 -->
<g id="Node000001" class="node">
<title>Node1</title>
<g id="a_Node000001"><a xlink:title=" ">
<polygon fill="#999999" stroke="#666666" points="1302.5,-195 1128.5,-195 1128.5,-165 1302.5,-165 1302.5,-195"/>
<text text-anchor="start" x="1136.5" y="-183" font-family="Helvetica,sans-Serif" font-size="10.00">src/libs/vpropertyexplorer</text>
<text text-anchor="middle" x="1215.5" y="-172" font-family="Helvetica,sans-Serif" font-size="10.00">/plugins/lineweight_property.cpp</text>
</a>
</g>
</g>
<!-- Node2 -->
<g id="Node000002" class="node">
<title>Node2</title>
<g id="a_Node000002"><a xlink:href="../../dd/d62/lineweight__property_8h.html" target="_top" xlink:title=" ">
<polygon fill="white" stroke="#666666" points="741.5,-129 619.5,-129 619.5,-110 741.5,-110 741.5,-129"/>
<text text-anchor="middle" x="680.5" y="-117" font-family="Helvetica,sans-Serif" font-size="10.00">lineweight_property.h</text>
</a>
</g>
</g>
<!-- Node1&#45;&gt;Node2 -->
<g id="edge1_Node000001_Node000002" class="edge">
<title>Node1&#45;&gt;Node2</title>
<g id="a_edge1_Node000001_Node000002"><a xlink:title=" ">
<path fill="none" stroke="#63b8ff" d="M1128.47,-170C1037.3,-160.49 889.62,-144.86 751.9,-129.15"/>
<polygon fill="#63b8ff" stroke="#63b8ff" points="751.91,-125.63 741.58,-127.97 751.12,-132.58 751.91,-125.63"/>
</a>
</g>
</g>
<!-- Node19 -->
<g id="Node000019" class="node">
<title>Node19</title>
<g id="a_Node000019"><a xlink:title=" ">
<polygon fill="#e0e0e0" stroke="#999999" points="811.5,-129 759.5,-129 759.5,-110 811.5,-110 811.5,-129"/>
<text text-anchor="middle" x="785.5" y="-117" font-family="Helvetica,sans-Serif" font-size="10.00">QBrush</text>
</a>
</g>
</g>
<!-- Node1&#45;&gt;Node19 -->
<g id="edge27_Node000001_Node000019" class="edge">
<title>Node1&#45;&gt;Node19</title>
<g id="a_edge27_Node000001_Node000019"><a xlink:title=" ">
<path fill="none" stroke="#63b8ff" d="M1128.24,-170.6C1050.48,-162.5 933.43,-148.8 821.86,-128.87"/>
<polygon fill="#63b8ff" stroke="#63b8ff" points="822.24,-125.38 811.78,-127.04 821,-132.27 822.24,-125.38"/>
</a>
</g>
</g>
<!-- Node20 -->
<g id="Node000020" class="node">
<title>Node20</title>
<g id="a_Node000020"><a xlink:title=" ">
<polygon fill="#e0e0e0" stroke="#999999" points="907,-129 830,-129 830,-110 907,-110 907,-129"/>
<text text-anchor="middle" x="868.5" y="-117" font-family="Helvetica,sans-Serif" font-size="10.00">QComboBox</text>
</a>
</g>
</g>
<!-- Node1&#45;&gt;Node20 -->
<g id="edge28_Node000001_Node000020" class="edge">
<title>Node1&#45;&gt;Node20</title>
<g id="a_edge28_Node000001_Node000020"><a xlink:title=" ">
<path fill="none" stroke="#63b8ff" d="M1130.4,-164.99C1073,-155.49 995.28,-142.53 917.05,-129.08"/>
<polygon fill="#63b8ff" stroke="#63b8ff" points="917.46,-125.6 907.01,-127.35 916.27,-132.5 917.46,-125.6"/>
</a>
</g>
</g>
<!-- Node21 -->
<g id="Node000021" class="node">
<title>Node21</title>
<g id="a_Node000021"><a xlink:title=" ">
<polygon fill="#e0e0e0" stroke="#999999" points="1026,-129 925,-129 925,-110 1026,-110 1026,-129"/>
<text text-anchor="middle" x="975.5" y="-117" font-family="Helvetica,sans-Serif" font-size="10.00">QCoreApplication</text>
</a>
</g>
</g>
<!-- Node1&#45;&gt;Node21 -->
<g id="edge29_Node000001_Node000021" class="edge">
<title>Node1&#45;&gt;Node21</title>
<g id="a_edge29_Node000001_Node000021"><a xlink:title=" ">
<path fill="none" stroke="#63b8ff" d="M1158.01,-164.99C1115.88,-154.72 1059.47,-140.97 1020.58,-131.49"/>
<polygon fill="#63b8ff" stroke="#63b8ff" points="1021.14,-128.02 1010.59,-129.05 1019.48,-134.82 1021.14,-128.02"/>
</a>
</g>
</g>
<!-- Node22 -->
<g id="Node000022" class="node">
<title>Node22</title>
<g id="a_Node000022"><a xlink:title=" ">
<polygon fill="#e0e0e0" stroke="#999999" points="1100.5,-129 1044.5,-129 1044.5,-110 1100.5,-110 1100.5,-129"/>
<text text-anchor="middle" x="1072.5" y="-117" font-family="Helvetica,sans-Serif" font-size="10.00">QLocale</text>
</a>
</g>
</g>
<!-- Node1&#45;&gt;Node22 -->
<g id="edge30_Node000001_Node000022" class="edge">
<title>Node1&#45;&gt;Node22</title>
<g id="a_edge30_Node000001_Node000022"><a xlink:title=" ">
<path fill="none" stroke="#63b8ff" d="M1181.25,-164.99C1157.39,-155.23 1125.85,-142.33 1102.89,-132.93"/>
<polygon fill="#63b8ff" stroke="#63b8ff" points="1104.2,-129.69 1093.62,-129.14 1101.55,-136.17 1104.2,-129.69"/>
</a>
</g>
</g>
<!-- Node23 -->
<g id="Node000023" class="node">
<title>Node23</title>
<g id="a_Node000023"><a xlink:title=" ">
<polygon fill="#e0e0e0" stroke="#999999" points="1176.5,-129 1118.5,-129 1118.5,-110 1176.5,-110 1176.5,-129"/>
<text text-anchor="middle" x="1147.5" y="-117" font-family="Helvetica,sans-Serif" font-size="10.00">QPainter</text>
</a>
</g>
</g>
<!-- Node1&#45;&gt;Node23 -->
<g id="edge31_Node000001_Node000023" class="edge">
<title>Node1&#45;&gt;Node23</title>
<g id="a_edge31_Node000001_Node000023"><a xlink:title=" ">
<path fill="none" stroke="#63b8ff" d="M1199.04,-164.84C1188.87,-156.09 1175.81,-144.85 1165.38,-135.88"/>
<polygon fill="#63b8ff" stroke="#63b8ff" points="1167.55,-133.13 1157.69,-129.27 1162.99,-138.44 1167.55,-133.13"/>
</a>
</g>
</g>
<!-- Node24 -->
<g id="Node000024" class="node">
<title>Node24</title>
<g id="a_Node000024"><a xlink:title=" ">
<polygon fill="#e0e0e0" stroke="#999999" points="1236.5,-129 1194.5,-129 1194.5,-110 1236.5,-110 1236.5,-129"/>
<text text-anchor="middle" x="1215.5" y="-117" font-family="Helvetica,sans-Serif" font-size="10.00">QPen</text>
</a>
</g>
</g>
<!-- Node1&#45;&gt;Node24 -->
<g id="edge32_Node000001_Node000024" class="edge">
<title>Node1&#45;&gt;Node24</title>
<g id="a_edge32_Node000001_Node000024"><a xlink:title=" ">
<path fill="none" stroke="#63b8ff" d="M1215.5,-164.84C1215.5,-157.21 1215.5,-147.7 1215.5,-139.45"/>
<polygon fill="#63b8ff" stroke="#63b8ff" points="1219,-139.27 1215.5,-129.27 1212,-139.27 1219,-139.27"/>
</a>
</g>
</g>
<!-- Node25 -->
<g id="Node000025" class="node">
<title>Node25</title>
<g id="a_Node000025"><a xlink:title=" ">
<polygon fill="#e0e0e0" stroke="#999999" points="1316,-129 1255,-129 1255,-110 1316,-110 1316,-129"/>
<text text-anchor="middle" x="1285.5" y="-117" font-family="Helvetica,sans-Serif" font-size="10.00">QPixmap</text>
</a>
</g>
</g>
<!-- Node1&#45;&gt;Node25 -->
<g id="edge33_Node000001_Node000025" class="edge">
<title>Node1&#45;&gt;Node25</title>
<g id="a_edge33_Node000001_Node000025"><a xlink:title=" ">
<path fill="none" stroke="#63b8ff" d="M1232.45,-164.84C1242.92,-156.09 1256.36,-144.85 1267.09,-135.88"/>
<polygon fill="#63b8ff" stroke="#63b8ff" points="1269.58,-138.36 1275.01,-129.27 1265.09,-132.99 1269.58,-138.36"/>
</a>
</g>
</g>
<!-- Node26 -->
<g id="Node000026" class="node">
<title>Node26</title>
<g id="a_Node000026"><a xlink:title=" ">
<polygon fill="#e0e0e0" stroke="#999999" points="1378.5,-129 1334.5,-129 1334.5,-110 1378.5,-110 1378.5,-129"/>
<text text-anchor="middle" x="1356.5" y="-117" font-family="Helvetica,sans-Serif" font-size="10.00">QSize</text>
</a>
</g>
</g>
<!-- Node1&#45;&gt;Node26 -->
<g id="edge34_Node000001_Node000026" class="edge">
<title>Node1&#45;&gt;Node26</title>
<g id="a_edge34_Node000001_Node000026"><a xlink:title=" ">
<path fill="none" stroke="#63b8ff" d="M1249.27,-164.99C1272.69,-155.27 1303.62,-142.44 1326.23,-133.06"/>
<polygon fill="#63b8ff" stroke="#63b8ff" points="1327.78,-136.2 1335.68,-129.14 1325.1,-129.74 1327.78,-136.2"/>
</a>
</g>
</g>
<!-- Node27 -->
<g id="Node000027" class="node">
<title>Node27</title>
<g id="a_Node000027"><a xlink:title=" ">
<polygon fill="#e0e0e0" stroke="#999999" points="1500.5,-129 1396.5,-129 1396.5,-110 1500.5,-110 1500.5,-129"/>
<text text-anchor="middle" x="1448.5" y="-117" font-family="Helvetica,sans-Serif" font-size="10.00">QStaticStringData</text>
</a>
</g>
</g>
<!-- Node1&#45;&gt;Node27 -->
<g id="edge35_Node000001_Node000027" class="edge">
<title>Node1&#45;&gt;Node27</title>
<g id="a_edge35_Node000001_Node000027"><a xlink:title=" ">
<path fill="none" stroke="#63b8ff" d="M1271.31,-164.99C1312.04,-154.76 1366.51,-141.09 1404.25,-131.61"/>
<polygon fill="#63b8ff" stroke="#63b8ff" points="1405.59,-134.88 1414.43,-129.05 1403.88,-128.09 1405.59,-134.88"/>
</a>
</g>
</g>
<!-- Node28 -->
<g id="Node000028" class="node">
<title>Node28</title>
<g id="a_Node000028"><a xlink:title=" ">
<polygon fill="#e0e0e0" stroke="#999999" points="1594.5,-129 1518.5,-129 1518.5,-110 1594.5,-110 1594.5,-129"/>
<text text-anchor="middle" x="1556.5" y="-117" font-family="Helvetica,sans-Serif" font-size="10.00">QStringData</text>
</a>
</g>
</g>
<!-- Node1&#45;&gt;Node28 -->
<g id="edge36_Node000001_Node000028" class="edge">
<title>Node1&#45;&gt;Node28</title>
<g id="a_edge36_Node000001_Node000028"><a xlink:title=" ">
<path fill="none" stroke="#63b8ff" d="M1299.5,-164.95C1355.79,-155.48 1431.87,-142.58 1508.03,-129.24"/>
<polygon fill="#63b8ff" stroke="#63b8ff" points="1509.04,-132.62 1518.29,-127.45 1507.83,-125.73 1509.04,-132.62"/>
</a>
</g>
</g>
<!-- Node29 -->
<g id="Node000029" class="node">
<title>Node29</title>
<g id="a_Node000029"><a xlink:title=" ">
<polygon fill="#e0e0e0" stroke="#999999" points="1702,-129 1613,-129 1613,-110 1702,-110 1702,-129"/>
<text text-anchor="middle" x="1657.5" y="-117" font-family="Helvetica,sans-Serif" font-size="10.00">QStringDataPtr</text>
</a>
</g>
</g>
<!-- Node1&#45;&gt;Node29 -->
<g id="edge37_Node000001_Node000029" class="edge">
<title>Node1&#45;&gt;Node29</title>
<g id="a_edge37_Node000001_Node000029"><a xlink:title=" ">
<path fill="none" stroke="#63b8ff" d="M1302.66,-168.47C1378.98,-159.1 1493.13,-144.67 1602.5,-129.11"/>
<polygon fill="#63b8ff" stroke="#63b8ff" points="1603.32,-132.53 1612.73,-127.65 1602.33,-125.6 1603.32,-132.53"/>
</a>
</g>
</g>
<!-- Node30 -->
<g id="Node000030" class="node">
<title>Node30</title>
<g id="a_Node000030"><a xlink:title=" ">
<polygon fill="#e0e0e0" stroke="#999999" points="1779,-129 1720,-129 1720,-110 1779,-110 1779,-129"/>
<text text-anchor="middle" x="1749.5" y="-117" font-family="Helvetica,sans-Serif" font-size="10.00">QWidget</text>
</a>
</g>
</g>
<!-- Node1&#45;&gt;Node30 -->
<g id="edge38_Node000001_Node000030" class="edge">
<title>Node1&#45;&gt;Node30</title>
<g id="a_edge38_Node000001_Node000030"><a xlink:title=" ">
<path fill="none" stroke="#63b8ff" d="M1302.82,-173.37C1399.99,-166.39 1561.78,-152.63 1709.53,-129.15"/>
<polygon fill="#63b8ff" stroke="#63b8ff" points="1710.38,-132.56 1719.69,-127.52 1709.27,-125.65 1710.38,-132.56"/>
</a>
</g>
</g>
<!-- Node31 -->
<g id="Node000031" class="node">
<title>Node31</title>
<g id="a_Node000031"><a xlink:title=" ">
<polygon fill="#e0e0e0" stroke="#999999" points="1874,-129 1797,-129 1797,-110 1874,-110 1874,-129"/>
<text text-anchor="middle" x="1835.5" y="-117" font-family="Helvetica,sans-Serif" font-size="10.00">../ifc/ifcdef.h</text>
</a>
</g>
</g>
<!-- Node1&#45;&gt;Node31 -->
<g id="edge39_Node000001_Node000031" class="edge">
<title>Node1&#45;&gt;Node31</title>
<g id="a_edge39_Node000001_Node000031"><a xlink:title=" ">
<path fill="none" stroke="#63b8ff" d="M1302.66,-173.89C1413.12,-166.86 1609.57,-152.48 1786.79,-129.12"/>
<polygon fill="#63b8ff" stroke="#63b8ff" points="1787.36,-132.58 1796.82,-127.79 1786.44,-125.64 1787.36,-132.58"/>
</a>
</g>
</g>
<!-- Node32 -->
<g id="Node000032" class="node">
<title>Node32</title>
<g id="a_Node000032"><a xlink:href="../../d1/de6/vproperty__p_8h.html" target="_top" xlink:title=" ">
<polygon fill="white" stroke="#666666" points="394,-129 301,-129 301,-110 394,-110 394,-129"/>
<text text-anchor="middle" x="347.5" y="-117" font-family="Helvetica,sans-Serif" font-size="10.00">../vproperty_p.h</text>
</a>
</g>
</g>
<!-- Node1&#45;&gt;Node32 -->
<g id="edge40_Node000001_Node000032" class="edge">
<title>Node1&#45;&gt;Node32</title>
<g id="a_edge40_Node000001_Node000032"><a xlink:title=" ">
<path fill="none" stroke="#63b8ff" d="M1128.3,-173.12C950.92,-161.17 552.37,-134.31 404.31,-124.33"/>
<polygon fill="#63b8ff" stroke="#63b8ff" points="404.3,-120.82 394.08,-123.64 403.83,-127.8 404.3,-120.82"/>
</a>
</g>
</g>
<!-- Node3 -->
<g id="Node000003" class="node">
<title>Node3</title>
<g id="a_Node000003"><a xlink:title=" ">
<polygon fill="#e0e0e0" stroke="#999999" points="810.5,-19 690.5,-19 690.5,0 810.5,0 810.5,-19"/>
<text text-anchor="middle" x="750.5" y="-7" font-family="Helvetica,sans-Serif" font-size="10.00">qcompilerdetection.h</text>
</a>
</g>
</g>
<!-- Node2&#45;&gt;Node3 -->
<g id="edge2_Node000002_Node000003" class="edge">
<title>Node2&#45;&gt;Node3</title>
<g id="a_edge2_Node000002_Node000003"><a xlink:title=" ">
<path fill="none" stroke="#63b8ff" d="M686.07,-109.98C691.92,-101.02 701.37,-86.53 709.5,-74 719.63,-58.38 731.12,-40.58 739.36,-27.8"/>
<polygon fill="#63b8ff" stroke="#63b8ff" points="742.47,-29.44 744.94,-19.14 736.58,-25.65 742.47,-29.44"/>
</a>
</g>
</g>
<!-- Node4 -->
<g id="Node000004" class="node">
<title>Node4</title>
<g id="a_Node000004"><a xlink:title=" ">
<polygon fill="#e0e0e0" stroke="#999999" points="578.5,-74 534.5,-74 534.5,-55 578.5,-55 578.5,-74"/>
<text text-anchor="middle" x="556.5" y="-62" font-family="Helvetica,sans-Serif" font-size="10.00">QIcon</text>
</a>
</g>
</g>
<!-- Node2&#45;&gt;Node4 -->
<g id="edge3_Node000002_Node000004" class="edge">
<title>Node2&#45;&gt;Node4</title>
<g id="a_edge3_Node000002_Node000004"><a xlink:title=" ">
<path fill="none" stroke="#63b8ff" d="M660.58,-109.98C640.45,-101.38 609.12,-87.99 586.09,-78.15"/>
<polygon fill="#63b8ff" stroke="#63b8ff" points="587.36,-74.88 576.79,-74.17 584.6,-81.32 587.36,-74.88"/>
</a>
</g>
</g>
<!-- Node5 -->
<g id="Node000005" class="node">
<title>Node5</title>
<g id="a_Node000005"><a xlink:title=" ">
<polygon fill="#e0e0e0" stroke="#999999" points="874,-19 829,-19 829,0 874,0 874,-19"/>
<text text-anchor="middle" x="851.5" y="-7" font-family="Helvetica,sans-Serif" font-size="10.00">QMap</text>
</a>
</g>
</g>
<!-- Node2&#45;&gt;Node5 -->
<g id="edge4_Node000002_Node000005" class="edge">
<title>Node2&#45;&gt;Node5</title>
<g id="a_edge4_Node000002_Node000005"><a xlink:title=" ">
<path fill="none" stroke="#63b8ff" d="M694.2,-109.84C723.6,-91.28 792.94,-47.49 828.93,-24.75"/>
<polygon fill="#63b8ff" stroke="#63b8ff" points="831.14,-27.5 837.73,-19.2 827.41,-21.58 831.14,-27.5"/>
</a>
</g>
</g>
<!-- Node6 -->
<g id="Node000006" class="node">
<title>Node6</title>
<g id="a_Node000006"><a xlink:title=" ">
<polygon fill="#e0e0e0" stroke="#999999" points="972.5,-19 892.5,-19 892.5,0 972.5,0 972.5,-19"/>
<text text-anchor="middle" x="932.5" y="-7" font-family="Helvetica,sans-Serif" font-size="10.00">QMetaObject</text>
</a>
</g>
</g>
<!-- Node2&#45;&gt;Node6 -->
<g id="edge5_Node000002_Node000006" class="edge">
<title>Node2&#45;&gt;Node6</title>
<g id="a_edge5_Node000002_Node000006"><a xlink:title=" ">
<path fill="none" stroke="#63b8ff" d="M700.7,-109.84C745.13,-90.8 851.54,-45.2 903.27,-23.03"/>
<polygon fill="#63b8ff" stroke="#63b8ff" points="904.74,-26.2 912.56,-19.05 901.99,-19.77 904.74,-26.2"/>
</a>
</g>
</g>
<!-- Node7 -->
<g id="Node000007" class="node">
<title>Node7</title>
<g id="a_Node000007"><a xlink:title=" ">
<polygon fill="#e0e0e0" stroke="#999999" points="1046.5,-19 990.5,-19 990.5,0 1046.5,0 1046.5,-19"/>
<text text-anchor="middle" x="1018.5" y="-7" font-family="Helvetica,sans-Serif" font-size="10.00">QObject</text>
</a>
</g>
</g>
<!-- Node2&#45;&gt;Node7 -->
<g id="edge6_Node000002_Node000007" class="edge">
<title>Node2&#45;&gt;Node7</title>
<g id="a_edge6_Node000002_Node000007"><a xlink:title=" ">
<path fill="none" stroke="#63b8ff" d="M707.35,-109.99C735.53,-101.05 781.14,-86.57 820.5,-74 876.97,-55.97 942.46,-34.94 982.17,-22.18"/>
<polygon fill="#63b8ff" stroke="#63b8ff" points="983.48,-25.44 991.93,-19.05 981.33,-18.77 983.48,-25.44"/>
</a>
</g>
</g>
<!-- Node8 -->
<g id="Node000008" class="node">
<title>Node8</title>
<g id="a_Node000008"><a xlink:title=" ">
<polygon fill="#e0e0e0" stroke="#999999" points="53,-19 0,-19 0,0 53,0 53,-19"/>
<text text-anchor="middle" x="26.5" y="-7" font-family="Helvetica,sans-Serif" font-size="10.00">QString</text>
</a>
</g>
</g>
<!-- Node2&#45;&gt;Node8 -->
<g id="edge7_Node000002_Node000008" class="edge">
<title>Node2&#45;&gt;Node8</title>
<g id="a_edge7_Node000002_Node000008"><a xlink:title=" ">
<path fill="none" stroke="#63b8ff" d="M619.24,-111.91C550.11,-104.16 434.42,-90.29 335.5,-74 216.17,-54.35 184.42,-46.31 63.27,-19.34"/>
<polygon fill="#63b8ff" stroke="#63b8ff" points="63.75,-15.86 53.23,-17.11 62.23,-22.7 63.75,-15.86"/>
</a>
</g>
</g>
<!-- Node9 -->
<g id="Node000009" class="node">
<title>Node9</title>
<g id="a_Node000009"><a xlink:title=" ">
<polygon fill="#e0e0e0" stroke="#999999" points="1192.5,-19 1064.5,-19 1064.5,0 1192.5,0 1192.5,-19"/>
<text text-anchor="middle" x="1128.5" y="-7" font-family="Helvetica,sans-Serif" font-size="10.00">QStyleOptionViewItem</text>
</a>
</g>
</g>
<!-- Node2&#45;&gt;Node9 -->
<g id="edge8_Node000002_Node000009" class="edge">
<title>Node2&#45;&gt;Node9</title>
<g id="a_edge8_Node000002_Node000009"><a xlink:title=" ">
<path fill="none" stroke="#63b8ff" d="M716.03,-109.94C796.74,-90.48 993.79,-42.98 1083.13,-21.44"/>
<polygon fill="#63b8ff" stroke="#63b8ff" points="1084.07,-24.81 1092.97,-19.07 1082.43,-18.01 1084.07,-24.81"/>
</a>
</g>
</g>
<!-- Node10 -->
<g id="Node000010" class="node">
<title>Node10</title>
<g id="a_Node000010"><a xlink:title=" ">
<polygon fill="#e0e0e0" stroke="#999999" points="130,-19 71,-19 71,0 130,0 130,-19"/>
<text text-anchor="middle" x="100.5" y="-7" font-family="Helvetica,sans-Serif" font-size="10.00">QVariant</text>
</a>
</g>
</g>
<!-- Node2&#45;&gt;Node10 -->
<g id="edge9_Node000002_Node000010" class="edge">
<title>Node2&#45;&gt;Node10</title>
<g id="a_edge9_Node000002_Node000010"><a xlink:title=" ">
<path fill="none" stroke="#63b8ff" d="M629.54,-109.99C578.39,-101.34 497.37,-87.36 427.5,-74 386.49,-66.16 376.48,-62.99 335.5,-55 251.63,-38.64 227.98,-36.56 140.15,-19.07"/>
<polygon fill="#63b8ff" stroke="#63b8ff" points="140.78,-15.63 130.29,-17.1 139.41,-22.49 140.78,-15.63"/>
</a>
</g>
</g>
<!-- Node11 -->
<g id="Node000011" class="node">
<title>Node11</title>
<g id="a_Node000011"><a xlink:title=" ">
<polygon fill="#e0e0e0" stroke="#999999" points="652,-74 597,-74 597,-55 652,-55 652,-74"/>
<text text-anchor="middle" x="624.5" y="-62" font-family="Helvetica,sans-Serif" font-size="10.00">QVector</text>
</a>
</g>
</g>
<!-- Node2&#45;&gt;Node11 -->
<g id="edge10_Node000002_Node000011" class="edge">
<title>Node2&#45;&gt;Node11</title>
<g id="a_edge10_Node000002_Node000011"><a xlink:title=" ">
<path fill="none" stroke="#63b8ff" d="M671.5,-109.98C663.31,-102.23 650.99,-90.58 641.03,-81.14"/>
<polygon fill="#63b8ff" stroke="#63b8ff" points="643.33,-78.5 633.66,-74.17 638.52,-83.59 643.33,-78.5"/>
</a>
</g>
</g>
<!-- Node12 -->
<g id="Node000012" class="node">
<title>Node12</title>
<g id="a_Node000012"><a xlink:title=" ">
<polygon fill="#e0e0e0" stroke="#999999" points="595,-19 566,-19 566,0 595,0 595,-19"/>
<text text-anchor="middle" x="580.5" y="-7" font-family="Helvetica,sans-Serif" font-size="10.00">Qt</text>
</a>
</g>
</g>
<!-- Node2&#45;&gt;Node12 -->
<g id="edge11_Node000002_Node000012" class="edge">
<title>Node2&#45;&gt;Node12</title>
<g id="a_edge11_Node000002_Node000012"><a xlink:title=" ">
<path fill="none" stroke="#63b8ff" d="M679.95,-109.73C678.71,-96.51 674.66,-71.29 661.5,-55 653.67,-45.3 625.5,-30.98 604.57,-21.22"/>
<polygon fill="#63b8ff" stroke="#63b8ff" points="605.83,-17.95 595.28,-16.97 602.91,-24.31 605.83,-17.95"/>
</a>
</g>
</g>
<!-- Node13 -->
<g id="Node000013" class="node">
<title>Node13</title>
<g id="a_Node000013"><a xlink:title=" ">
<polygon fill="#e0e0e0" stroke="#999999" points="672,-19 613,-19 613,0 672,0 672,-19"/>
<text text-anchor="middle" x="642.5" y="-7" font-family="Helvetica,sans-Serif" font-size="10.00">QtGlobal</text>
</a>
</g>
</g>
<!-- Node2&#45;&gt;Node13 -->
<g id="edge12_Node000002_Node000013" class="edge">
<title>Node2&#45;&gt;Node13</title>
<g id="a_edge12_Node000002_Node000013"><a xlink:title=" ">
<path fill="none" stroke="#63b8ff" d="M685.72,-109.91C692.62,-97.35 703,-73.46 694.5,-55 688.75,-42.52 677.59,-32.24 667.08,-24.71"/>
<polygon fill="#63b8ff" stroke="#63b8ff" points="668.8,-21.65 658.53,-19.05 664.93,-27.49 668.8,-21.65"/>
</a>
</g>
</g>
<!-- Node14 -->
<g id="Node000014" class="node">
<title>Node14</title>
<g id="a_Node000014"><a xlink:href="../../d2/d6e/vproperty_8h.html" target="_top" xlink:title=" ">
<polygon fill="white" stroke="#666666" points="516.5,-74 436.5,-74 436.5,-55 516.5,-55 516.5,-74"/>
<text text-anchor="middle" x="476.5" y="-62" font-family="Helvetica,sans-Serif" font-size="10.00">../vproperty.h</text>
</a>
</g>
</g>
<!-- Node2&#45;&gt;Node14 -->
<g id="edge13_Node000002_Node000014" class="edge">
<title>Node2&#45;&gt;Node14</title>
<g id="a_edge13_Node000002_Node000014"><a xlink:title=" ">
<path fill="none" stroke="#63b8ff" d="M647.72,-109.98C612.88,-100.93 557.63,-86.58 519.36,-76.64"/>
<polygon fill="#63b8ff" stroke="#63b8ff" points="520.09,-73.21 509.53,-74.08 518.33,-79.98 520.09,-73.21"/>
</a>
</g>
</g>
<!-- Node14&#45;&gt;Node3 -->
<g id="edge14_Node000014_Node000003" class="edge">
<title>Node14&#45;&gt;Node3</title>
<g id="a_edge14_Node000014_Node000003"><a xlink:title=" ">
<path fill="none" stroke="#63b8ff" d="M516.64,-55.74C564.11,-46.55 643.37,-31.22 696.28,-20.99"/>
<polygon fill="#63b8ff" stroke="#63b8ff" points="697.01,-24.41 706.17,-19.08 695.68,-17.54 697.01,-24.41"/>
</a>
</g>
</g>
<!-- Node14&#45;&gt;Node5 -->
<g id="edge17_Node000014_Node000005" class="edge">
<title>Node14&#45;&gt;Node5</title>
<g id="a_edge17_Node000014_Node000005"><a xlink:title=" ">
<path fill="none" stroke="#63b8ff" d="M516.59,-56.38C519.6,-55.89 522.6,-55.43 525.5,-55 652.55,-36.21 688.5,-43.57 818.89,-18.84"/>
<polygon fill="#63b8ff" stroke="#63b8ff" points="819.7,-22.25 828.86,-16.93 818.38,-15.38 819.7,-22.25"/>
</a>
</g>
</g>
<!-- Node14&#45;&gt;Node6 -->
<g id="edge18_Node000014_Node000006" class="edge">
<title>Node14&#45;&gt;Node6</title>
<g id="a_edge18_Node000014_Node000006"><a xlink:title=" ">
<path fill="none" stroke="#63b8ff" d="M516.58,-56.31C519.59,-55.84 522.59,-55.4 525.5,-55 680.69,-33.76 723.33,-40.39 882.29,-19.07"/>
<polygon fill="#63b8ff" stroke="#63b8ff" points="882.99,-22.51 892.42,-17.69 882.05,-15.57 882.99,-22.51"/>
</a>
</g>
</g>
<!-- Node14&#45;&gt;Node7 -->
<g id="edge19_Node000014_Node000007" class="edge">
<title>Node14&#45;&gt;Node7</title>
<g id="a_edge19_Node000014_Node000007"><a xlink:title=" ">
<path fill="none" stroke="#63b8ff" d="M516.57,-56.24C519.58,-55.79 522.59,-55.37 525.5,-55 723.95,-30.01 778.8,-49.2 980.28,-18.95"/>
<polygon fill="#63b8ff" stroke="#63b8ff" points="980.94,-22.39 990.3,-17.43 979.89,-15.47 980.94,-22.39"/>
</a>
</g>
</g>
<!-- Node14&#45;&gt;Node8 -->
<g id="edge21_Node000014_Node000008" class="edge">
<title>Node14&#45;&gt;Node8</title>
<g id="a_edge21_Node000014_Node000008"><a xlink:title=" ">
<path fill="none" stroke="#63b8ff" d="M436.49,-60.97C363.92,-55.99 205.67,-43.4 63.39,-19.13"/>
<polygon fill="#63b8ff" stroke="#63b8ff" points="63.63,-15.62 53.18,-17.36 62.43,-22.52 63.63,-15.62"/>
</a>
</g>
</g>
<!-- Node14&#45;&gt;Node9 -->
<g id="edge23_Node000014_Node000009" class="edge">
<title>Node14&#45;&gt;Node9</title>
<g id="a_edge23_Node000014_Node000009"><a xlink:title=" ">
<path fill="none" stroke="#63b8ff" d="M516.56,-56.2C519.58,-55.76 522.59,-55.35 525.5,-55 756.59,-27.18 818.65,-40.27 1054.17,-19.07"/>
<polygon fill="#63b8ff" stroke="#63b8ff" points="1054.78,-22.53 1064.42,-18.14 1054.15,-15.56 1054.78,-22.53"/>
</a>
</g>
</g>
<!-- Node14&#45;&gt;Node10 -->
<g id="edge24_Node000014_Node000010" class="edge">
<title>Node14&#45;&gt;Node10</title>
<g id="a_edge24_Node000014_Node000010"><a xlink:title=" ">
<path fill="none" stroke="#63b8ff" d="M436.4,-58.63C363.66,-49.73 211.63,-30.81 140.55,-19.01"/>
<polygon fill="#63b8ff" stroke="#63b8ff" points="140.71,-15.49 130.26,-17.25 139.53,-22.39 140.71,-15.49"/>
</a>
</g>
</g>
<!-- Node14&#45;&gt;Node12 -->
<g id="edge25_Node000014_Node000012" class="edge">
<title>Node14&#45;&gt;Node12</title>
<g id="a_edge25_Node000014_Node000012"><a xlink:title=" ">
<path fill="none" stroke="#63b8ff" d="M493.21,-54.98C510.4,-46.22 537.34,-32.5 556.74,-22.61"/>
<polygon fill="#63b8ff" stroke="#63b8ff" points="558.53,-25.63 565.85,-17.97 555.35,-19.39 558.53,-25.63"/>
</a>
</g>
</g>
<!-- Node14&#45;&gt;Node13 -->
<g id="edge26_Node000014_Node000013" class="edge">
<title>Node14&#45;&gt;Node13</title>
<g id="a_edge26_Node000014_Node000013"><a xlink:title=" ">
<path fill="none" stroke="#63b8ff" d="M503.17,-54.98C531.04,-46.09 574.95,-32.07 606.02,-22.15"/>
<polygon fill="#63b8ff" stroke="#63b8ff" points="607.16,-25.46 615.62,-19.08 605.03,-18.79 607.16,-25.46"/>
</a>
</g>
</g>
<!-- Node15 -->
<g id="Node000015" class="node">
<title>Node15</title>
<g id="a_Node000015"><a xlink:title=" ">
<polygon fill="#e0e0e0" stroke="#999999" points="548,-19 417,-19 417,0 548,0 548,-19"/>
<text text-anchor="middle" x="482.5" y="-7" font-family="Helvetica,sans-Serif" font-size="10.00">QAbstractItemDelegate</text>
</a>
</g>
</g>
<!-- Node14&#45;&gt;Node15 -->
<g id="edge15_Node000014_Node000015" class="edge">
<title>Node14&#45;&gt;Node15</title>
<g id="a_edge15_Node000014_Node000015"><a xlink:title=" ">
<path fill="none" stroke="#63b8ff" d="M477.49,-54.75C478.28,-47.8 479.4,-37.85 480.39,-29.13"/>
<polygon fill="#63b8ff" stroke="#63b8ff" points="483.88,-29.42 481.53,-19.09 476.92,-28.63 483.88,-29.42"/>
</a>
</g>
</g>
<!-- Node16 -->
<g id="Node000016" class="node">
<title>Node16</title>
<g id="a_Node000016"><a xlink:title=" ">
<polygon fill="#e0e0e0" stroke="#999999" points="200.5,-19 148.5,-19 148.5,0 200.5,0 200.5,-19"/>
<text text-anchor="middle" x="174.5" y="-7" font-family="Helvetica,sans-Serif" font-size="10.00">QEvent</text>
</a>
</g>
</g>
<!-- Node14&#45;&gt;Node16 -->
<g id="edge16_Node000014_Node000016" class="edge">
<title>Node14&#45;&gt;Node16</title>
<g id="a_edge16_Node000014_Node000016"><a xlink:title=" ">
<path fill="none" stroke="#63b8ff" d="M436.07,-57.7C385.57,-50.25 296.32,-36.41 210.71,-19.13"/>
<polygon fill="#63b8ff" stroke="#63b8ff" points="211.32,-15.68 200.83,-17.11 209.93,-22.54 211.32,-15.68"/>
</a>
</g>
</g>
<!-- Node17 -->
<g id="Node000017" class="node">
<title>Node17</title>
<g id="a_Node000017"><a xlink:title=" ">
<polygon fill="#e0e0e0" stroke="#999999" points="310.5,-19 218.5,-19 218.5,0 310.5,0 310.5,-19"/>
<text text-anchor="middle" x="264.5" y="-7" font-family="Helvetica,sans-Serif" font-size="10.00">QSharedPointer</text>
</a>
</g>
</g>
<!-- Node14&#45;&gt;Node17 -->
<g id="edge20_Node000014_Node000017" class="edge">
<title>Node14&#45;&gt;Node17</title>
<g id="a_edge20_Node000014_Node000017"><a xlink:title=" ">
<path fill="none" stroke="#63b8ff" d="M442.44,-54.98C406.08,-45.89 348.33,-31.46 308.53,-21.51"/>
<polygon fill="#63b8ff" stroke="#63b8ff" points="309.38,-18.11 298.83,-19.08 307.68,-24.9 309.38,-18.11"/>
</a>
</g>
</g>
<!-- Node18 -->
<g id="Node000018" class="node">
<title>Node18</title>
<g id="a_Node000018"><a xlink:title=" ">
<polygon fill="#e0e0e0" stroke="#999999" points="398.5,-19 328.5,-19 328.5,0 398.5,0 398.5,-19"/>
<text text-anchor="middle" x="363.5" y="-7" font-family="Helvetica,sans-Serif" font-size="10.00">QStringList</text>
</a>
</g>
</g>
<!-- Node14&#45;&gt;Node18 -->
<g id="edge22_Node000014_Node000018" class="edge">
<title>Node14&#45;&gt;Node18</title>
<g id="a_edge22_Node000014_Node000018"><a xlink:title=" ">
<path fill="none" stroke="#63b8ff" d="M458.34,-54.98C440.25,-46.5 412.22,-33.35 391.31,-23.54"/>
<polygon fill="#63b8ff" stroke="#63b8ff" points="392.53,-20.25 381.99,-19.17 389.55,-26.59 392.53,-20.25"/>
</a>
</g>
</g>
<!-- Node32&#45;&gt;Node8 -->
<g id="edge42_Node000032_Node000008" class="edge">
<title>Node32&#45;&gt;Node8</title>
<g id="a_edge42_Node000032_Node000008"><a xlink:title=" ">
<path fill="none" stroke="#63b8ff" d="M319.11,-109.94C290.37,-101.2 244.71,-87.09 205.5,-74 154.18,-56.86 95.12,-35.61 59.32,-22.55"/>
<polygon fill="#63b8ff" stroke="#63b8ff" points="60.45,-19.24 49.86,-19.1 58.05,-25.82 60.45,-19.24"/>
</a>
</g>
</g>
<!-- Node32&#45;&gt;Node10 -->
<g id="edge41_Node000032_Node000010" class="edge">
<title>Node32&#45;&gt;Node10</title>
<g id="a_edge41_Node000032_Node000010"><a xlink:title=" ">
<path fill="none" stroke="#63b8ff" d="M327.7,-109.84C284.24,-90.84 180.29,-45.39 129.47,-23.17"/>
<polygon fill="#63b8ff" stroke="#63b8ff" points="130.61,-19.85 120.05,-19.05 127.81,-26.26 130.61,-19.85"/>
</a>
</g>
</g>
<!-- Node32&#45;&gt;Node14 -->
<g id="edge43_Node000032_Node000014" class="edge">
<title>Node32&#45;&gt;Node14</title>
<g id="a_edge43_Node000032_Node000014"><a xlink:title=" ">
<path fill="none" stroke="#63b8ff" d="M368.23,-109.98C389.26,-101.34 422.05,-87.87 446.04,-78.02"/>
<polygon fill="#63b8ff" stroke="#63b8ff" points="447.48,-81.21 455.4,-74.17 444.82,-74.73 447.48,-81.21"/>
</a>
</g>
</g>
</g>
</svg>
