<?xml version="1.0" encoding="UTF-8" standalone="no"?>
<!DOCTYPE svg PUBLIC "-//W3C//DTD SVG 1.1//EN"
 "http://www.w3.org/Graphics/SVG/1.1/DTD/svg11.dtd">
<!-- Generated by graphviz version 2.43.0 (0)
 -->
<!-- Title: src/libs/vmisc/commandoptions.cpp Pages: 1 -->
<svg width="897pt" height="192pt"
 viewBox="0.00 0.00 896.50 192.00" xmlns="http://www.w3.org/2000/svg" xmlns:xlink="http://www.w3.org/1999/xlink">
<g id="graph0" class="graph" transform="scale(1 1) rotate(0) translate(4 188)">
<title>src/libs/vmisc/commandoptions.cpp</title>
<!-- Node1 -->
<g id="Node000001" class="node">
<title>Node1</title>
<g id="a_Node000001"><a xlink:title=" ">
<polygon fill="#999999" stroke="#666666" points="490,-184 299,-184 299,-165 490,-165 490,-184"/>
<text text-anchor="middle" x="394.5" y="-172" font-family="Helvetica,sans-Serif" font-size="10.00">src/libs/vmisc/commandoptions.cpp</text>
</a>
</g>
</g>
<!-- Node2 -->
<g id="Node000002" class="node">
<title>Node2</title>
<g id="a_Node000002"><a xlink:href="../../d4/d96/commandoptions_8h.html" target="_top" xlink:title=" ">
<polygon fill="white" stroke="#666666" points="129.5,-129 19.5,-129 19.5,-110 129.5,-110 129.5,-129"/>
<text text-anchor="middle" x="74.5" y="-117" font-family="Helvetica,sans-Serif" font-size="10.00">commandoptions.h</text>
</a>
</g>
</g>
<!-- Node1&#45;&gt;Node2 -->
<g id="edge1_Node000001_Node000002" class="edge">
<title>Node1&#45;&gt;Node2</title>
<g id="a_edge1_Node000001_Node000002"><a xlink:title=" ">
<path fill="none" stroke="#63b8ff" d="M343.09,-164.98C286.72,-155.65 196.31,-140.67 136.17,-130.71"/>
<polygon fill="#63b8ff" stroke="#63b8ff" points="136.49,-127.22 126.05,-129.04 135.34,-134.13 136.49,-127.22"/>
</a>
</g>
</g>
<!-- Node4 -->
<g id="Node000004" class="node">
<title>Node4</title>
<g id="a_Node000004"><a xlink:href="../../d4/da4/def_8h.html" target="_top" xlink:title=" ">
<polygon fill="white" stroke="#666666" points="370,-129 329,-129 329,-110 370,-110 370,-129"/>
<text text-anchor="middle" x="349.5" y="-117" font-family="Helvetica,sans-Serif" font-size="10.00">def.h</text>
</a>
</g>
</g>
<!-- Node1&#45;&gt;Node4 -->
<g id="edge3_Node000001_Node000004" class="edge">
<title>Node1&#45;&gt;Node4</title>
<g id="a_edge3_Node000001_Node000004"><a xlink:title=" ">
<path fill="none" stroke="#63b8ff" d="M387.07,-164.75C380.65,-157.18 371.19,-146.05 363.38,-136.84"/>
<polygon fill="#63b8ff" stroke="#63b8ff" points="365.93,-134.45 356.79,-129.09 360.6,-138.98 365.93,-134.45"/>
</a>
</g>
</g>
<!-- Node8 -->
<g id="Node000008" class="node">
<title>Node8</title>
<g id="a_Node000008"><a xlink:title=" ">
<polygon fill="#e0e0e0" stroke="#999999" points="141.5,-74 71.5,-74 71.5,-55 141.5,-55 141.5,-74"/>
<text text-anchor="middle" x="106.5" y="-62" font-family="Helvetica,sans-Serif" font-size="10.00">QStringList</text>
</a>
</g>
</g>
<!-- Node1&#45;&gt;Node8 -->
<g id="edge19_Node000001_Node000008" class="edge">
<title>Node1&#45;&gt;Node8</title>
<g id="a_edge19_Node000001_Node000008"><a xlink:title=" ">
<path fill="none" stroke="#63b8ff" d="M371.42,-164.84C320.32,-145.68 197.51,-99.63 138.81,-77.62"/>
<polygon fill="#63b8ff" stroke="#63b8ff" points="139.88,-74.28 129.29,-74.05 137.43,-80.84 139.88,-74.28"/>
</a>
</g>
</g>
<!-- Node16 -->
<g id="Node000016" class="node">
<title>Node16</title>
<g id="a_Node000016"><a xlink:title=" ">
<polygon fill="#e0e0e0" stroke="#999999" points="492.5,-129 388.5,-129 388.5,-110 492.5,-110 492.5,-129"/>
<text text-anchor="middle" x="440.5" y="-117" font-family="Helvetica,sans-Serif" font-size="10.00">QStaticStringData</text>
</a>
</g>
</g>
<!-- Node1&#45;&gt;Node16 -->
<g id="edge16_Node000001_Node000016" class="edge">
<title>Node1&#45;&gt;Node16</title>
<g id="a_edge16_Node000001_Node000016"><a xlink:title=" ">
<path fill="none" stroke="#63b8ff" d="M402.1,-164.75C408.66,-157.18 418.32,-146.05 426.31,-136.84"/>
<polygon fill="#63b8ff" stroke="#63b8ff" points="429.13,-138.94 433.05,-129.09 423.85,-134.35 429.13,-138.94"/>
</a>
</g>
</g>
<!-- Node17 -->
<g id="Node000017" class="node">
<title>Node17</title>
<g id="a_Node000017"><a xlink:title=" ">
<polygon fill="#e0e0e0" stroke="#999999" points="586.5,-129 510.5,-129 510.5,-110 586.5,-110 586.5,-129"/>
<text text-anchor="middle" x="548.5" y="-117" font-family="Helvetica,sans-Serif" font-size="10.00">QStringData</text>
</a>
</g>
</g>
<!-- Node1&#45;&gt;Node17 -->
<g id="edge17_Node000001_Node000017" class="edge">
<title>Node1&#45;&gt;Node17</title>
<g id="a_edge17_Node000001_Node000017"><a xlink:title=" ">
<path fill="none" stroke="#63b8ff" d="M419.24,-164.98C444.87,-156.16 485.13,-142.31 513.91,-132.41"/>
<polygon fill="#63b8ff" stroke="#63b8ff" points="515.25,-135.65 523.56,-129.08 512.97,-129.03 515.25,-135.65"/>
</a>
</g>
</g>
<!-- Node18 -->
<g id="Node000018" class="node">
<title>Node18</title>
<g id="a_Node000018"><a xlink:title=" ">
<polygon fill="#e0e0e0" stroke="#999999" points="694,-129 605,-129 605,-110 694,-110 694,-129"/>
<text text-anchor="middle" x="649.5" y="-117" font-family="Helvetica,sans-Serif" font-size="10.00">QStringDataPtr</text>
</a>
</g>
</g>
<!-- Node1&#45;&gt;Node18 -->
<g id="edge18_Node000001_Node000018" class="edge">
<title>Node1&#45;&gt;Node18</title>
<g id="a_edge18_Node000001_Node000018"><a xlink:title=" ">
<path fill="none" stroke="#63b8ff" d="M435.47,-164.98C479.76,-155.78 550.44,-141.09 598.35,-131.13"/>
<polygon fill="#63b8ff" stroke="#63b8ff" points="599.13,-134.54 608.21,-129.08 597.71,-127.69 599.13,-134.54"/>
</a>
</g>
</g>
<!-- Node3 -->
<g id="Node000003" class="node">
<title>Node3</title>
<g id="a_Node000003"><a xlink:title=" ">
<polygon fill="#e0e0e0" stroke="#999999" points="53,-74 0,-74 0,-55 53,-55 53,-74"/>
<text text-anchor="middle" x="26.5" y="-62" font-family="Helvetica,sans-Serif" font-size="10.00">QString</text>
</a>
</g>
</g>
<!-- Node2&#45;&gt;Node3 -->
<g id="edge2_Node000002_Node000003" class="edge">
<title>Node2&#45;&gt;Node3</title>
<g id="a_edge2_Node000002_Node000003"><a xlink:title=" ">
<path fill="none" stroke="#63b8ff" d="M66.57,-109.75C59.65,-102.11 49.43,-90.82 41.05,-81.56"/>
<polygon fill="#63b8ff" stroke="#63b8ff" points="43.59,-79.15 34.28,-74.09 38.4,-83.85 43.59,-79.15"/>
</a>
</g>
</g>
<!-- Node4&#45;&gt;Node3 -->
<g id="edge7_Node000004_Node000003" class="edge">
<title>Node4&#45;&gt;Node3</title>
<g id="a_edge7_Node000004_Node000003"><a xlink:title=" ">
<path fill="none" stroke="#63b8ff" d="M328.87,-115.86C283,-109.88 168.91,-94.35 63.07,-73.97"/>
<polygon fill="#63b8ff" stroke="#63b8ff" points="63.67,-70.52 53.19,-72.05 62.33,-77.39 63.67,-70.52"/>
</a>
</g>
</g>
<!-- Node5 -->
<g id="Node000005" class="node">
<title>Node5</title>
<g id="a_Node000005"><a xlink:title=" ">
<polygon fill="#e0e0e0" stroke="#999999" points="529.5,-74 409.5,-74 409.5,-55 529.5,-55 529.5,-74"/>
<text text-anchor="middle" x="469.5" y="-62" font-family="Helvetica,sans-Serif" font-size="10.00">qcompilerdetection.h</text>
</a>
</g>
</g>
<!-- Node4&#45;&gt;Node5 -->
<g id="edge4_Node000004_Node000005" class="edge">
<title>Node4&#45;&gt;Node5</title>
<g id="a_edge4_Node000004_Node000005"><a xlink:title=" ">
<path fill="none" stroke="#63b8ff" d="M368.78,-109.98C388.17,-101.42 418.31,-88.11 440.57,-78.28"/>
<polygon fill="#63b8ff" stroke="#63b8ff" points="442.14,-81.41 449.87,-74.17 439.31,-75.01 442.14,-81.41"/>
</a>
</g>
</g>
<!-- Node6 -->
<g id="Node000006" class="node">
<title>Node6</title>
<g id="a_Node000006"><a xlink:title=" ">
<polygon fill="#e0e0e0" stroke="#999999" points="621,-74 548,-74 548,-55 621,-55 621,-74"/>
<text text-anchor="middle" x="584.5" y="-62" font-family="Helvetica,sans-Serif" font-size="10.00">QFileDialog</text>
</a>
</g>
</g>
<!-- Node4&#45;&gt;Node6 -->
<g id="edge5_Node000004_Node000006" class="edge">
<title>Node4&#45;&gt;Node6</title>
<g id="a_edge5_Node000004_Node000006"><a xlink:title=" ">
<path fill="none" stroke="#63b8ff" d="M370.11,-112.48C373.25,-111.61 376.45,-110.76 379.5,-110 433.52,-96.5 496.14,-83.25 537.81,-74.77"/>
<polygon fill="#63b8ff" stroke="#63b8ff" points="538.57,-78.19 547.68,-72.77 537.18,-71.33 538.57,-78.19"/>
</a>
</g>
</g>
<!-- Node7 -->
<g id="Node000007" class="node">
<title>Node7</title>
<g id="a_Node000007"><a xlink:title=" ">
<polygon fill="#e0e0e0" stroke="#999999" points="689.5,-74 639.5,-74 639.5,-55 689.5,-55 689.5,-74"/>
<text text-anchor="middle" x="664.5" y="-62" font-family="Helvetica,sans-Serif" font-size="10.00">QLineF</text>
</a>
</g>
</g>
<!-- Node4&#45;&gt;Node7 -->
<g id="edge6_Node000004_Node000007" class="edge">
<title>Node4&#45;&gt;Node7</title>
<g id="a_edge6_Node000004_Node000007"><a xlink:title=" ">
<path fill="none" stroke="#63b8ff" d="M370.07,-112.28C373.21,-111.45 376.43,-110.65 379.5,-110 486.62,-87.25 518.14,-95.21 629.38,-74.03"/>
<polygon fill="#63b8ff" stroke="#63b8ff" points="630.16,-77.44 639.31,-72.1 628.83,-70.57 630.16,-77.44"/>
</a>
</g>
</g>
<!-- Node4&#45;&gt;Node8 -->
<g id="edge8_Node000004_Node000008" class="edge">
<title>Node4&#45;&gt;Node8</title>
<g id="a_edge8_Node000004_Node000008"><a xlink:title=" ">
<path fill="none" stroke="#63b8ff" d="M328.78,-113.98C289.75,-105.47 204.5,-86.87 151.65,-75.35"/>
<polygon fill="#63b8ff" stroke="#63b8ff" points="152.37,-71.92 141.86,-73.21 150.88,-78.76 152.37,-71.92"/>
</a>
</g>
</g>
<!-- Node9 -->
<g id="Node000009" class="node">
<title>Node9</title>
<g id="a_Node000009"><a xlink:title=" ">
<polygon fill="#e0e0e0" stroke="#999999" points="737,-74 708,-74 708,-55 737,-55 737,-74"/>
<text text-anchor="middle" x="722.5" y="-62" font-family="Helvetica,sans-Serif" font-size="10.00">Qt</text>
</a>
</g>
</g>
<!-- Node4&#45;&gt;Node9 -->
<g id="edge9_Node000004_Node000009" class="edge">
<title>Node4&#45;&gt;Node9</title>
<g id="a_edge9_Node000004_Node000009"><a xlink:title=" ">
<path fill="none" stroke="#63b8ff" d="M370.05,-112.2C373.19,-111.37 376.42,-110.61 379.5,-110 516.35,-83.08 557.62,-104.99 698.09,-73.51"/>
<polygon fill="#63b8ff" stroke="#63b8ff" points="698.97,-76.9 707.93,-71.25 697.4,-70.08 698.97,-76.9"/>
</a>
</g>
</g>
<!-- Node10 -->
<g id="Node000010" class="node">
<title>Node10</title>
<g id="a_Node000010"><a xlink:title=" ">
<polygon fill="#e0e0e0" stroke="#999999" points="814,-74 755,-74 755,-55 814,-55 814,-74"/>
<text text-anchor="middle" x="784.5" y="-62" font-family="Helvetica,sans-Serif" font-size="10.00">QtGlobal</text>
</a>
</g>
</g>
<!-- Node4&#45;&gt;Node10 -->
<g id="edge10_Node000004_Node000010" class="edge">
<title>Node4&#45;&gt;Node10</title>
<g id="a_edge10_Node000004_Node000010"><a xlink:title=" ">
<path fill="none" stroke="#63b8ff" d="M370.04,-112.16C373.19,-111.34 376.41,-110.58 379.5,-110 537.24,-80.16 582.81,-99.12 744.39,-74.16"/>
<polygon fill="#63b8ff" stroke="#63b8ff" points="745.36,-77.55 754.7,-72.53 744.27,-70.63 745.36,-77.55"/>
</a>
</g>
</g>
<!-- Node11 -->
<g id="Node000011" class="node">
<title>Node11</title>
<g id="a_Node000011"><a xlink:title=" ">
<polygon fill="#e0e0e0" stroke="#999999" points="888.5,-74 832.5,-74 832.5,-55 888.5,-55 888.5,-74"/>
<text text-anchor="middle" x="860.5" y="-62" font-family="Helvetica,sans-Serif" font-size="10.00">QPrinter</text>
</a>
</g>
</g>
<!-- Node4&#45;&gt;Node11 -->
<g id="edge11_Node000004_Node000011" class="edge">
<title>Node4&#45;&gt;Node11</title>
<g id="a_edge11_Node000004_Node000011"><a xlink:title=" ">
<path fill="none" stroke="#63b8ff" d="M370.03,-112.11C373.18,-111.3 376.41,-110.56 379.5,-110 571.1,-75.43 626.03,-103.28 822.24,-73.96"/>
<polygon fill="#63b8ff" stroke="#63b8ff" points="822.94,-77.39 832.3,-72.42 821.89,-70.47 822.94,-77.39"/>
</a>
</g>
</g>
<!-- Node12 -->
<g id="Node000012" class="node">
<title>Node12</title>
<g id="a_Node000012"><a xlink:title=" ">
<polygon fill="#e0e0e0" stroke="#999999" points="221,-74 160,-74 160,-55 221,-55 221,-74"/>
<text text-anchor="middle" x="190.5" y="-62" font-family="Helvetica,sans-Serif" font-size="10.00">QPixmap</text>
</a>
</g>
</g>
<!-- Node4&#45;&gt;Node12 -->
<g id="edge12_Node000004_Node000012" class="edge">
<title>Node4&#45;&gt;Node12</title>
<g id="a_edge12_Node000004_Node000012"><a xlink:title=" ">
<path fill="none" stroke="#63b8ff" d="M328.71,-111.57C302.58,-102.86 257.34,-87.78 225.76,-77.25"/>
<polygon fill="#63b8ff" stroke="#63b8ff" points="226.62,-73.85 216.02,-74.01 224.4,-80.49 226.62,-73.85"/>
</a>
</g>
</g>
<!-- Node13 -->
<g id="Node000013" class="node">
<title>Node13</title>
<g id="a_Node000013"><a xlink:title=" ">
<polygon fill="#e0e0e0" stroke="#999999" points="290,-74 239,-74 239,-55 290,-55 290,-74"/>
<text text-anchor="middle" x="264.5" y="-62" font-family="Helvetica,sans-Serif" font-size="10.00">csignal</text>
</a>
</g>
</g>
<!-- Node4&#45;&gt;Node13 -->
<g id="edge13_Node000004_Node000013" class="edge">
<title>Node4&#45;&gt;Node13</title>
<g id="a_edge13_Node000004_Node000013"><a xlink:title=" ">
<path fill="none" stroke="#63b8ff" d="M335.84,-109.98C322.66,-101.77 302.47,-89.18 286.93,-79.49"/>
<polygon fill="#63b8ff" stroke="#63b8ff" points="288.74,-76.49 278.41,-74.17 285.04,-82.43 288.74,-76.49"/>
</a>
</g>
</g>
<!-- Node14 -->
<g id="Node000014" class="node">
<title>Node14</title>
<g id="a_Node000014"><a xlink:href="../../d4/d82/debugbreak_8h.html" target="_top" xlink:title=" ">
<polygon fill="white" stroke="#666666" points="391,-74 308,-74 308,-55 391,-55 391,-74"/>
<text text-anchor="middle" x="349.5" y="-62" font-family="Helvetica,sans-Serif" font-size="10.00">debugbreak.h</text>
</a>
</g>
</g>
<!-- Node4&#45;&gt;Node14 -->
<g id="edge14_Node000004_Node000014" class="edge">
<title>Node4&#45;&gt;Node14</title>
<g id="a_edge14_Node000004_Node000014"><a xlink:title=" ">
<path fill="none" stroke="#63b8ff" d="M349.5,-109.75C349.5,-102.8 349.5,-92.85 349.5,-84.13"/>
<polygon fill="#63b8ff" stroke="#63b8ff" points="353,-84.09 349.5,-74.09 346,-84.09 353,-84.09"/>
</a>
</g>
</g>
<!-- Node15 -->
<g id="Node000015" class="node">
<title>Node15</title>
<g id="a_Node000015"><a xlink:title=" ">
<polygon fill="#e0e0e0" stroke="#999999" points="377,-19 322,-19 322,0 377,0 377,-19"/>
<text text-anchor="middle" x="349.5" y="-7" font-family="Helvetica,sans-Serif" font-size="10.00">signal.h</text>
</a>
</g>
</g>
<!-- Node14&#45;&gt;Node15 -->
<g id="edge15_Node000014_Node000015" class="edge">
<title>Node14&#45;&gt;Node15</title>
<g id="a_edge15_Node000014_Node000015"><a xlink:title=" ">
<path fill="none" stroke="#63b8ff" d="M349.5,-54.75C349.5,-47.8 349.5,-37.85 349.5,-29.13"/>
<polygon fill="#63b8ff" stroke="#63b8ff" points="353,-29.09 349.5,-19.09 346,-29.09 353,-29.09"/>
</a>
</g>
</g>
</g>
</svg>
