<?xml version="1.0" encoding="UTF-8" standalone="no"?>
<!DOCTYPE svg PUBLIC "-//W3C//DTD SVG 1.1//EN"
 "http://www.w3.org/Graphics/SVG/1.1/DTD/svg11.dtd">
<!-- Generated by graphviz version 2.43.0 (0)
 -->
<!-- Title: src/libs/vpropertyexplorer/vpropertymodel.h Pages: 1 -->
<!--zoomable 148 -->

<svg id="main" version="1.1" xmlns="http://www.w3.org/2000/svg" xmlns:xlink="http://www.w3.org/1999/xlink" xml:space="preserve" onload="init(evt)">
<style type="text/css"><![CDATA[
.node, .edge {opacity: 0.7;}
.node.selected, .edge.selected {opacity: 1;}
.edge:hover path { stroke: red; }
.edge:hover polygon { stroke: red; fill: red; }
]]></style>

<defs>
  <circle id="rim" cx="0" cy="0" r="7"/>
  <circle id="rim2" cx="0" cy="0" r="3.5"/>
  <g id="zoomPlus">
    <use xlink:href="#rim" fill="#404040"><set attributeName="fill" to="#808080" begin="zoomplus.mouseover" end="zoomplus.mouseout"/></use>
    <path d="M-4,0h8M0,-4v8" fill="none" stroke="white" stroke-width="1.5" pointer-events="none"/>
  </g>
  <g id="zoomMin">
    <use xlink:href="#rim" fill="#404040"><set attributeName="fill" to="#808080" begin="zoomminus.mouseover" end="zoomminus.mouseout"/></use>
    <path d="M-4,0h8" fill="none" stroke="white" stroke-width="1.5" pointer-events="none"/>
  </g>
  <g id="arrowUp" transform="translate(30 24)">
    <use xlink:href="#rim"/>
    <path pointer-events="none" fill="none" stroke="white" stroke-width="1.5" d="M0,-3.0v7 M-2.5,-0.5L0,-3.0L2.5,-0.5"/>
  </g>
  <g id="arrowRight" transform="rotate(90) translate(36 -43)">
    <use xlink:href="#rim"/>
    <path pointer-events="none" fill="none" stroke="white" stroke-width="1.5" d="M0,-3.0v7 M-2.5,-0.5L0,-3.0L2.5,-0.5"/>
  </g>
  <g id="arrowDown" transform="rotate(180) translate(-30 -48)">
    <use xlink:href="#rim"/>
    <path pointer-events="none" fill="none" stroke="white" stroke-width="1.5" d="M0,-3.0v7 M-2.5,-0.5L0,-3.0L2.5,-0.5"/>
  </g>
  <g id="arrowLeft" transform="rotate(270) translate(-36 17)">
    <use xlink:href="#rim"/>
    <path pointer-events="none" fill="none" stroke="white" stroke-width="1.5" d="M0,-3.0v7 M-2.5,-0.5L0,-3.0L2.5,-0.5"/>
  </g>
  <g id="resetDef">
    <use xlink:href="#rim2" fill="#404040"><set attributeName="fill" to="#808080" begin="reset.mouseover" end="reset.mouseout"/></use>
  </g>
</defs>
<script type="application/ecmascript">
var viewWidth = 1202;
var viewHeight = 148;
var sectionId = 'dynsection-0';
</script>
<script type="application/ecmascript" xlink:href="../../svg.min.js"/>
<svg id="graph" class="graph">
<g id="viewport">
<title>src/libs/vpropertyexplorer/vpropertymodel.h</title>
<!-- Node1 -->
<g id="Node000001" class="node">
<title>Node1</title>
<g id="a_Node000001"><a xlink:title=" ">
<polygon fill="#999999" stroke="#666666" points="510,-140 368,-140 368,-110 510,-110 510,-140"/>
<text text-anchor="start" x="376" y="-128" font-family="Helvetica,sans-Serif" font-size="10.00">src/libs/vpropertyexplorer</text>
<text text-anchor="middle" x="439" y="-117" font-family="Helvetica,sans-Serif" font-size="10.00">/vpropertymodel.h</text>
</a>
</g>
</g>
<!-- Node2 -->
<g id="Node000002" class="node">
<title>Node2</title>
<g id="a_Node000002"><a xlink:title=" ">
<polygon fill="#e0e0e0" stroke="#999999" points="120,-19 0,-19 0,0 120,0 120,-19"/>
<text text-anchor="middle" x="60" y="-7" font-family="Helvetica,sans-Serif" font-size="10.00">qcompilerdetection.h</text>
</a>
</g>
</g>
<!-- Node1&#45;&gt;Node2 -->
<g id="edge1_Node000001_Node000002" class="edge">
<title>Node1&#45;&gt;Node2</title>
<g id="a_edge1_Node000001_Node000002"><a xlink:title=" ">
<path fill="none" stroke="#63b8ff" d="M392.21,-109.99C358.73,-99.97 312.59,-86.16 272,-74 211.18,-55.79 140.54,-34.63 98.1,-21.91"/>
<polygon fill="#63b8ff" stroke="#63b8ff" points="99.04,-18.54 88.46,-19.03 97.04,-25.25 99.04,-18.54"/>
</a>
</g>
</g>
<!-- Node3 -->
<g id="Node000003" class="node">
<title>Node3</title>
<g id="a_Node000003"><a xlink:title=" ">
<polygon fill="#e0e0e0" stroke="#999999" points="750.5,-74 633.5,-74 633.5,-55 750.5,-55 750.5,-74"/>
<text text-anchor="middle" x="692" y="-62" font-family="Helvetica,sans-Serif" font-size="10.00">QAbstractItemModel</text>
</a>
</g>
</g>
<!-- Node1&#45;&gt;Node3 -->
<g id="edge2_Node000001_Node000003" class="edge">
<title>Node1&#45;&gt;Node3</title>
<g id="a_edge2_Node000001_Node000003"><a xlink:title=" ">
<path fill="none" stroke="#63b8ff" d="M499.6,-109.99C544.3,-99.65 604.24,-85.79 645.26,-76.31"/>
<polygon fill="#63b8ff" stroke="#63b8ff" points="646.05,-79.72 655.01,-74.05 644.48,-72.9 646.05,-79.72"/>
</a>
</g>
</g>
<!-- Node4 -->
<g id="Node000004" class="node">
<title>Node4</title>
<g id="a_Node000004"><a xlink:title=" ">
<polygon fill="#e0e0e0" stroke="#999999" points="183.5,-19 138.5,-19 138.5,0 183.5,0 183.5,-19"/>
<text text-anchor="middle" x="161" y="-7" font-family="Helvetica,sans-Serif" font-size="10.00">QMap</text>
</a>
</g>
</g>
<!-- Node1&#45;&gt;Node4 -->
<g id="edge3_Node000001_Node000004" class="edge">
<title>Node1&#45;&gt;Node4</title>
<g id="a_edge3_Node000001_Node000004"><a xlink:title=" ">
<path fill="none" stroke="#63b8ff" d="M404.63,-109.97C349.91,-87.63 243.82,-44.31 191.58,-22.98"/>
<polygon fill="#63b8ff" stroke="#63b8ff" points="192.75,-19.68 182.17,-19.14 190.11,-26.16 192.75,-19.68"/>
</a>
</g>
</g>
<!-- Node5 -->
<g id="Node000005" class="node">
<title>Node5</title>
<g id="a_Node000005"><a xlink:title=" ">
<polygon fill="#e0e0e0" stroke="#999999" points="282,-19 202,-19 202,0 282,0 282,-19"/>
<text text-anchor="middle" x="242" y="-7" font-family="Helvetica,sans-Serif" font-size="10.00">QMetaObject</text>
</a>
</g>
</g>
<!-- Node1&#45;&gt;Node5 -->
<g id="edge4_Node000001_Node000005" class="edge">
<title>Node1&#45;&gt;Node5</title>
<g id="a_edge4_Node000001_Node000005"><a xlink:title=" ">
<path fill="none" stroke="#63b8ff" d="M414.45,-109.85C376.41,-87.94 303.71,-46.06 266.01,-24.33"/>
<polygon fill="#63b8ff" stroke="#63b8ff" points="267.63,-21.23 257.22,-19.27 264.14,-27.3 267.63,-21.23"/>
</a>
</g>
</g>
<!-- Node6 -->
<g id="Node000006" class="node">
<title>Node6</title>
<g id="a_Node000006"><a xlink:title=" ">
<polygon fill="#e0e0e0" stroke="#999999" points="849.5,-74 768.5,-74 768.5,-55 849.5,-55 849.5,-74"/>
<text text-anchor="middle" x="809" y="-62" font-family="Helvetica,sans-Serif" font-size="10.00">QModelIndex</text>
</a>
</g>
</g>
<!-- Node1&#45;&gt;Node6 -->
<g id="edge5_Node000001_Node000006" class="edge">
<title>Node1&#45;&gt;Node6</title>
<g id="a_edge5_Node000001_Node000006"><a xlink:title=" ">
<path fill="none" stroke="#63b8ff" d="M510.14,-113.28C572.93,-103.73 667.24,-89.2 758.42,-74.24"/>
<polygon fill="#63b8ff" stroke="#63b8ff" points="759.07,-77.68 768.37,-72.6 757.93,-70.77 759.07,-77.68"/>
</a>
</g>
</g>
<!-- Node7 -->
<g id="Node000007" class="node">
<title>Node7</title>
<g id="a_Node000007"><a xlink:title=" ">
<polygon fill="#e0e0e0" stroke="#999999" points="356,-19 300,-19 300,0 356,0 356,-19"/>
<text text-anchor="middle" x="328" y="-7" font-family="Helvetica,sans-Serif" font-size="10.00">QObject</text>
</a>
</g>
</g>
<!-- Node1&#45;&gt;Node7 -->
<g id="edge6_Node000001_Node000007" class="edge">
<title>Node1&#45;&gt;Node7</title>
<g id="a_edge6_Node000001_Node000007"><a xlink:title=" ">
<path fill="none" stroke="#63b8ff" d="M424.94,-109.63C404.16,-88.37 365.36,-48.71 343.68,-26.54"/>
<polygon fill="#63b8ff" stroke="#63b8ff" points="346.03,-23.93 336.54,-19.23 341.03,-28.83 346.03,-23.93"/>
</a>
</g>
</g>
<!-- Node8 -->
<g id="Node000008" class="node">
<title>Node8</title>
<g id="a_Node000008"><a xlink:title=" ">
<polygon fill="#e0e0e0" stroke="#999999" points="427.5,-19 374.5,-19 374.5,0 427.5,0 427.5,-19"/>
<text text-anchor="middle" x="401" y="-7" font-family="Helvetica,sans-Serif" font-size="10.00">QString</text>
</a>
</g>
</g>
<!-- Node1&#45;&gt;Node8 -->
<g id="edge7_Node000001_Node000008" class="edge">
<title>Node1&#45;&gt;Node8</title>
<g id="a_edge7_Node000001_Node000008"><a xlink:title=" ">
<path fill="none" stroke="#63b8ff" d="M434.19,-109.63C427.32,-89.12 414.72,-51.47 407.17,-28.93"/>
<polygon fill="#63b8ff" stroke="#63b8ff" points="410.42,-27.6 403.92,-19.23 403.78,-29.82 410.42,-27.6"/>
</a>
</g>
</g>
<!-- Node9 -->
<g id="Node000009" class="node">
<title>Node9</title>
<g id="a_Node000009"><a xlink:title=" ">
<polygon fill="#e0e0e0" stroke="#999999" points="504.5,-19 445.5,-19 445.5,0 504.5,0 504.5,-19"/>
<text text-anchor="middle" x="475" y="-7" font-family="Helvetica,sans-Serif" font-size="10.00">QVariant</text>
</a>
</g>
</g>
<!-- Node1&#45;&gt;Node9 -->
<g id="edge8_Node000001_Node000009" class="edge">
<title>Node1&#45;&gt;Node9</title>
<g id="a_edge8_Node000001_Node000009"><a xlink:title=" ">
<path fill="none" stroke="#63b8ff" d="M442.47,-109.87C446.01,-95.84 451.85,-73.77 458,-55 460.87,-46.26 464.45,-36.71 467.59,-28.71"/>
<polygon fill="#63b8ff" stroke="#63b8ff" points="470.9,-29.86 471.36,-19.28 464.4,-27.26 470.9,-29.86"/>
</a>
</g>
</g>
<!-- Node10 -->
<g id="Node000010" class="node">
<title>Node10</title>
<g id="a_Node000010"><a xlink:title=" ">
<polygon fill="#e0e0e0" stroke="#999999" points="1116.5,-19 1087.5,-19 1087.5,0 1116.5,0 1116.5,-19"/>
<text text-anchor="middle" x="1102" y="-7" font-family="Helvetica,sans-Serif" font-size="10.00">Qt</text>
</a>
</g>
</g>
<!-- Node1&#45;&gt;Node10 -->
<g id="edge9_Node000001_Node000010" class="edge">
<title>Node1&#45;&gt;Node10</title>
<g id="a_edge9_Node000001_Node000010"><a xlink:title=" ">
<path fill="none" stroke="#63b8ff" d="M469.21,-109.96C511.7,-90.26 584.66,-56.62 591,-55 798.11,-2.13 863.62,-61.76 1077.49,-18.42"/>
<polygon fill="#63b8ff" stroke="#63b8ff" points="1078.38,-21.81 1087.45,-16.35 1076.95,-14.96 1078.38,-21.81"/>
</a>
</g>
</g>
<!-- Node11 -->
<g id="Node000011" class="node">
<title>Node11</title>
<g id="a_Node000011"><a xlink:title=" ">
<polygon fill="#e0e0e0" stroke="#999999" points="1193.5,-19 1134.5,-19 1134.5,0 1193.5,0 1193.5,-19"/>
<text text-anchor="middle" x="1164" y="-7" font-family="Helvetica,sans-Serif" font-size="10.00">QtGlobal</text>
</a>
</g>
</g>
<!-- Node1&#45;&gt;Node11 -->
<g id="edge10_Node000001_Node000011" class="edge">
<title>Node1&#45;&gt;Node11</title>
<g id="a_edge10_Node000001_Node000011"><a xlink:title=" ">
<path fill="none" stroke="#63b8ff" d="M483.53,-109.95C512.44,-100.51 550.78,-87.38 584,-74 602.63,-66.49 605.55,-60.02 625,-55 837.98,0.03 903.22,-49.95 1124.25,-19.04"/>
<polygon fill="#63b8ff" stroke="#63b8ff" points="1124.81,-22.49 1134.21,-17.6 1123.81,-15.56 1124.81,-22.49"/>
</a>
</g>
</g>
<!-- Node12 -->
<g id="Node000012" class="node">
<title>Node12</title>
<g id="a_Node000012"><a xlink:href="../../d2/d6e/vproperty_8h.html" target="_top" xlink:title=" ">
<polygon fill="white" stroke="#666666" points="538.5,-74 467.5,-74 467.5,-55 538.5,-55 538.5,-74"/>
<text text-anchor="middle" x="503" y="-62" font-family="Helvetica,sans-Serif" font-size="10.00">vproperty.h</text>
</a>
</g>
</g>
<!-- Node1&#45;&gt;Node12 -->
<g id="edge11_Node000001_Node000012" class="edge">
<title>Node1&#45;&gt;Node12</title>
<g id="a_edge11_Node000001_Node000012"><a xlink:title=" ">
<path fill="none" stroke="#63b8ff" d="M454.49,-109.84C463.97,-101.17 476.11,-90.08 485.88,-81.15"/>
<polygon fill="#63b8ff" stroke="#63b8ff" points="488.39,-83.6 493.41,-74.27 483.67,-78.43 488.39,-83.6"/>
</a>
</g>
</g>
<!-- Node12&#45;&gt;Node2 -->
<g id="edge12_Node000012_Node000002" class="edge">
<title>Node12&#45;&gt;Node2</title>
<g id="a_edge12_Node000012_Node000002"><a xlink:title=" ">
<path fill="none" stroke="#63b8ff" d="M467.41,-59.32C402.61,-51.68 260.75,-34.93 130.37,-19.16"/>
<polygon fill="#63b8ff" stroke="#63b8ff" points="130.56,-15.66 120.21,-17.93 129.72,-22.61 130.56,-15.66"/>
</a>
</g>
</g>
<!-- Node12&#45;&gt;Node4 -->
<g id="edge15_Node000012_Node000004" class="edge">
<title>Node12&#45;&gt;Node4</title>
<g id="a_edge15_Node000012_Node000004"><a xlink:title=" ">
<path fill="none" stroke="#63b8ff" d="M467.43,-59.77C411.31,-53.58 298.65,-39.95 193.47,-18.86"/>
<polygon fill="#63b8ff" stroke="#63b8ff" points="194.14,-15.43 183.65,-16.87 192.75,-22.29 194.14,-15.43"/>
</a>
</g>
</g>
<!-- Node12&#45;&gt;Node5 -->
<g id="edge16_Node000012_Node000005" class="edge">
<title>Node12&#45;&gt;Node5</title>
<g id="a_edge16_Node000012_Node000005"><a xlink:title=" ">
<path fill="none" stroke="#63b8ff" d="M467.26,-56.24C421.84,-47.02 343.2,-31.05 291.89,-20.63"/>
<polygon fill="#63b8ff" stroke="#63b8ff" points="292.51,-17.18 282.01,-18.62 291.11,-24.04 292.51,-17.18"/>
</a>
</g>
</g>
<!-- Node12&#45;&gt;Node7 -->
<g id="edge17_Node000012_Node000007" class="edge">
<title>Node12&#45;&gt;Node7</title>
<g id="a_edge17_Node000012_Node000007"><a xlink:title=" ">
<path fill="none" stroke="#63b8ff" d="M474.88,-54.98C445.29,-46.02 398.53,-31.86 365.74,-21.93"/>
<polygon fill="#63b8ff" stroke="#63b8ff" points="366.63,-18.54 356.05,-18.99 364.6,-25.24 366.63,-18.54"/>
</a>
</g>
</g>
<!-- Node12&#45;&gt;Node8 -->
<g id="edge19_Node000012_Node000008" class="edge">
<title>Node12&#45;&gt;Node8</title>
<g id="a_edge19_Node000012_Node000008"><a xlink:title=" ">
<path fill="none" stroke="#63b8ff" d="M486.61,-54.98C470.43,-46.57 445.43,-33.59 426.62,-23.81"/>
<polygon fill="#63b8ff" stroke="#63b8ff" points="428.17,-20.68 417.69,-19.17 424.95,-26.89 428.17,-20.68"/>
</a>
</g>
</g>
<!-- Node12&#45;&gt;Node9 -->
<g id="edge22_Node000012_Node000009" class="edge">
<title>Node12&#45;&gt;Node9</title>
<g id="a_edge22_Node000012_Node000009"><a xlink:title=" ">
<path fill="none" stroke="#63b8ff" d="M498.38,-54.75C494.54,-47.49 488.98,-36.95 484.24,-27.98"/>
<polygon fill="#63b8ff" stroke="#63b8ff" points="487.3,-26.3 479.54,-19.09 481.11,-29.57 487.3,-26.3"/>
</a>
</g>
</g>
<!-- Node12&#45;&gt;Node10 -->
<g id="edge23_Node000012_Node000010" class="edge">
<title>Node12&#45;&gt;Node10</title>
<g id="a_edge23_Node000012_Node000010"><a xlink:title=" ">
<path fill="none" stroke="#63b8ff" d="M538.72,-56.98C543.51,-56.24 548.37,-55.55 553,-55 781.95,-27.76 847.15,-65.38 1077.43,-18.44"/>
<polygon fill="#63b8ff" stroke="#63b8ff" points="1078.37,-21.81 1087.46,-16.36 1076.96,-14.96 1078.37,-21.81"/>
</a>
</g>
</g>
<!-- Node12&#45;&gt;Node11 -->
<g id="edge24_Node000012_Node000011" class="edge">
<title>Node12&#45;&gt;Node11</title>
<g id="a_edge24_Node000012_Node000011"><a xlink:title=" ">
<path fill="none" stroke="#63b8ff" d="M538.52,-59.83C554.54,-58.24 573.71,-56.42 591,-55 825.27,-35.81 888.42,-52.64 1124.3,-19.04"/>
<polygon fill="#63b8ff" stroke="#63b8ff" points="1124.81,-22.5 1134.21,-17.62 1123.81,-15.58 1124.81,-22.5"/>
</a>
</g>
</g>
<!-- Node13 -->
<g id="Node000013" class="node">
<title>Node13</title>
<g id="a_Node000013"><a xlink:title=" ">
<polygon fill="#e0e0e0" stroke="#999999" points="800.5,-19 669.5,-19 669.5,0 800.5,0 800.5,-19"/>
<text text-anchor="middle" x="735" y="-7" font-family="Helvetica,sans-Serif" font-size="10.00">QAbstractItemDelegate</text>
</a>
</g>
</g>
<!-- Node12&#45;&gt;Node13 -->
<g id="edge13_Node000012_Node000013" class="edge">
<title>Node12&#45;&gt;Node13</title>
<g id="a_edge13_Node000012_Node000013"><a xlink:title=" ">
<path fill="none" stroke="#63b8ff" d="M538.74,-55.33C578.72,-46.2 643.63,-31.37 687.77,-21.29"/>
<polygon fill="#63b8ff" stroke="#63b8ff" points="688.71,-24.66 697.68,-19.03 687.15,-17.84 688.71,-24.66"/>
</a>
</g>
</g>
<!-- Node14 -->
<g id="Node000014" class="node">
<title>Node14</title>
<g id="a_Node000014"><a xlink:title=" ">
<polygon fill="#e0e0e0" stroke="#999999" points="871,-19 819,-19 819,0 871,0 871,-19"/>
<text text-anchor="middle" x="845" y="-7" font-family="Helvetica,sans-Serif" font-size="10.00">QEvent</text>
</a>
</g>
</g>
<!-- Node12&#45;&gt;Node14 -->
<g id="edge14_Node000012_Node000014" class="edge">
<title>Node12&#45;&gt;Node14</title>
<g id="a_edge14_Node000012_Node000014"><a xlink:title=" ">
<path fill="none" stroke="#63b8ff" d="M538.76,-57.29C543.54,-56.5 548.39,-55.71 553,-55 663.75,-37.83 694.96,-40.47 808.54,-19.12"/>
<polygon fill="#63b8ff" stroke="#63b8ff" points="809.52,-22.49 818.69,-17.19 808.21,-15.62 809.52,-22.49"/>
</a>
</g>
</g>
<!-- Node15 -->
<g id="Node000015" class="node">
<title>Node15</title>
<g id="a_Node000015"><a xlink:title=" ">
<polygon fill="#e0e0e0" stroke="#999999" points="981,-19 889,-19 889,0 981,0 981,-19"/>
<text text-anchor="middle" x="935" y="-7" font-family="Helvetica,sans-Serif" font-size="10.00">QSharedPointer</text>
</a>
</g>
</g>
<!-- Node12&#45;&gt;Node15 -->
<g id="edge18_Node000012_Node000015" class="edge">
<title>Node12&#45;&gt;Node15</title>
<g id="a_edge18_Node000012_Node000015"><a xlink:title=" ">
<path fill="none" stroke="#63b8ff" d="M538.74,-57.16C543.53,-56.39 548.38,-55.65 553,-55 694.55,-35.19 733.32,-38.03 878.62,-19.13"/>
<polygon fill="#63b8ff" stroke="#63b8ff" points="879.35,-22.56 888.81,-17.79 878.44,-15.62 879.35,-22.56"/>
</a>
</g>
</g>
<!-- Node16 -->
<g id="Node000016" class="node">
<title>Node16</title>
<g id="a_Node000016"><a xlink:title=" ">
<polygon fill="#e0e0e0" stroke="#999999" points="1069,-19 999,-19 999,0 1069,0 1069,-19"/>
<text text-anchor="middle" x="1034" y="-7" font-family="Helvetica,sans-Serif" font-size="10.00">QStringList</text>
</a>
</g>
</g>
<!-- Node12&#45;&gt;Node16 -->
<g id="edge20_Node000012_Node000016" class="edge">
<title>Node12&#45;&gt;Node16</title>
<g id="a_edge20_Node000012_Node000016"><a xlink:title=" ">
<path fill="none" stroke="#63b8ff" d="M538.72,-57.04C543.51,-56.29 548.37,-55.58 553,-55 743.14,-31.05 795.21,-45.04 989.05,-18.97"/>
<polygon fill="#63b8ff" stroke="#63b8ff" points="989.56,-22.44 998.99,-17.62 988.61,-15.5 989.56,-22.44"/>
</a>
</g>
</g>
<!-- Node17 -->
<g id="Node000017" class="node">
<title>Node17</title>
<g id="a_Node000017"><a xlink:title=" ">
<polygon fill="#e0e0e0" stroke="#999999" points="651,-19 523,-19 523,0 651,0 651,-19"/>
<text text-anchor="middle" x="587" y="-7" font-family="Helvetica,sans-Serif" font-size="10.00">QStyleOptionViewItem</text>
</a>
</g>
</g>
<!-- Node12&#45;&gt;Node17 -->
<g id="edge21_Node000012_Node000017" class="edge">
<title>Node12&#45;&gt;Node17</title>
<g id="a_edge21_Node000012_Node000017"><a xlink:title=" ">
<path fill="none" stroke="#63b8ff" d="M516.5,-54.98C529.4,-46.84 549.1,-34.41 564.4,-24.76"/>
<polygon fill="#63b8ff" stroke="#63b8ff" points="566.67,-27.47 573.26,-19.17 562.93,-21.55 566.67,-27.47"/>
</a>
</g>
</g>
</g>
</svg>

<g id="navigator" transform="translate(0 0)" fill="#404254">
  <rect fill="#f2f5e9" fill-opacity="0.5" stroke="#606060" stroke-width=".5" x="0" y="0" width="60" height="60"/>
  <use id="zoomplus" xlink:href="#zoomPlus" x="17" y="9" onmousedown="handleZoom(evt,'in')"/>
  <use id="zoomminus" xlink:href="#zoomMin" x="42" y="9" onmousedown="handleZoom(evt,'out')"/>
  <use id="reset" xlink:href="#resetDef" x="30" y="36" onmousedown="handleReset()"/>
   <use id="arrowup" xlink:href="#arrowUp" x="0" y="0" onmousedown="handlePan(0,-1)"/>
  <use id="arrowright" xlink:href="#arrowRight" x="0" y="0" onmousedown="handlePan(1,0)"/>
  <use id="arrowdown" xlink:href="#arrowDown" x="0" y="0" onmousedown="handlePan(0,1)"/>
  <use id="arrowleft" xlink:href="#arrowLeft" x="0" y="0" onmousedown="handlePan(-1,0)"/>
</g>
<svg viewBox="0 0 15 15" width="100%" height="30px" preserveAspectRatio="xMaxYMin meet">
 <g id="arrow_out" transform="scale(0.3 0.3)">
  <a xlink:href="vpropertymodel_8h__incl_org.svg" target="_base">
   <rect id="button" ry="5" rx="5" y="6" x="6" height="38" width="38"
        fill="#f2f5e9" fill-opacity="0.5" stroke="#606060" stroke-width="1.0"/>
   <path id="arrow"
     d="M 11.500037,31.436501 C 11.940474,20.09759 22.043105,11.32322 32.158766,21.979434 L 37.068811,17.246167 C 37.068811,17.246167 37.088388,32 37.088388,32 L 22.160133,31.978069 C 22.160133,31.978069 26.997745,27.140456 26.997745,27.140456 C 18.528582,18.264221 13.291696,25.230495 11.500037,31.436501 z"
     style="fill:#404040;"/>
  </a>
 </g>
</svg>

<style type='text/css'>
<![CDATA[
[data-mouse-over-selected='false'] { opacity: 0.7; }
[data-mouse-over-selected='true']  { opacity: 1.0; }
]]>
</style>
<script type="application/ecmascript"><![CDATA[
document.addEventListener('DOMContentLoaded', (event) => {
  highlightEdges();
  highlightAdjacentNodes();
});
]]></script>
</svg>
