<?xml version="1.0" encoding="UTF-8" standalone="no"?>
<!DOCTYPE svg PUBLIC "-//W3C//DTD SVG 1.1//EN"
 "http://www.w3.org/Graphics/SVG/1.1/DTD/svg11.dtd">
<!-- Generated by graphviz version 2.43.0 (0)
 -->
<!-- Title: VPE::PlainTextProperty Pages: 1 -->
<!--zoomable 674 -->

<svg id="main" version="1.1" xmlns="http://www.w3.org/2000/svg" xmlns:xlink="http://www.w3.org/1999/xlink" xml:space="preserve" onload="init(evt)">
<style type="text/css"><![CDATA[
.node, .edge {opacity: 0.7;}
.node.selected, .edge.selected {opacity: 1;}
.edge:hover path { stroke: red; }
.edge:hover polygon { stroke: red; fill: red; }
]]></style>

<defs>
  <circle id="rim" cx="0" cy="0" r="7"/>
  <circle id="rim2" cx="0" cy="0" r="3.5"/>
  <g id="zoomPlus">
    <use xlink:href="#rim" fill="#404040"><set attributeName="fill" to="#808080" begin="zoomplus.mouseover" end="zoomplus.mouseout"/></use>
    <path d="M-4,0h8M0,-4v8" fill="none" stroke="white" stroke-width="1.5" pointer-events="none"/>
  </g>
  <g id="zoomMin">
    <use xlink:href="#rim" fill="#404040"><set attributeName="fill" to="#808080" begin="zoomminus.mouseover" end="zoomminus.mouseout"/></use>
    <path d="M-4,0h8" fill="none" stroke="white" stroke-width="1.5" pointer-events="none"/>
  </g>
  <g id="arrowUp" transform="translate(30 24)">
    <use xlink:href="#rim"/>
    <path pointer-events="none" fill="none" stroke="white" stroke-width="1.5" d="M0,-3.0v7 M-2.5,-0.5L0,-3.0L2.5,-0.5"/>
  </g>
  <g id="arrowRight" transform="rotate(90) translate(36 -43)">
    <use xlink:href="#rim"/>
    <path pointer-events="none" fill="none" stroke="white" stroke-width="1.5" d="M0,-3.0v7 M-2.5,-0.5L0,-3.0L2.5,-0.5"/>
  </g>
  <g id="arrowDown" transform="rotate(180) translate(-30 -48)">
    <use xlink:href="#rim"/>
    <path pointer-events="none" fill="none" stroke="white" stroke-width="1.5" d="M0,-3.0v7 M-2.5,-0.5L0,-3.0L2.5,-0.5"/>
  </g>
  <g id="arrowLeft" transform="rotate(270) translate(-36 17)">
    <use xlink:href="#rim"/>
    <path pointer-events="none" fill="none" stroke="white" stroke-width="1.5" d="M0,-3.0v7 M-2.5,-0.5L0,-3.0L2.5,-0.5"/>
  </g>
  <g id="resetDef">
    <use xlink:href="#rim2" fill="#404040"><set attributeName="fill" to="#808080" begin="reset.mouseover" end="reset.mouseout"/></use>
  </g>
</defs>
<script type="application/ecmascript">
var viewWidth = 357;
var viewHeight = 674;
var sectionId = 'dynsection-1';
</script>
<script type="application/ecmascript" xlink:href="../../svg.min.js"/>
<svg id="graph" class="graph">
<g id="viewport">
<title>VPE::PlainTextProperty</title>
<!-- Node1 -->
<g id="Node000001" class="node">
<title>Node1</title>
<g id="a_Node000001"><a xlink:title="Class for holding a plain text property.">
<polygon fill="#999999" stroke="transparent" points="349,-304 214,-304 214,0 349,0 349,-304"/>
<text text-anchor="start" x="226.5" y="-292" font-family="Helvetica,sans-Serif" font-size="10.00">VPE::PlainTextProperty</text>
<text text-anchor="start" x="218.5" y="-277" font-family="Helvetica,sans-Serif" font-size="10.00">#</text>
<text text-anchor="start" x="231.5" y="-277" font-family="Helvetica,sans-Serif" font-size="10.00">m_readOnly</text>
<text text-anchor="start" x="218.5" y="-262" font-family="Helvetica,sans-Serif" font-size="10.00">#</text>
<text text-anchor="start" x="231.5" y="-262" font-family="Helvetica,sans-Serif" font-size="10.00">m_typeForParent</text>
<text text-anchor="start" x="218.5" y="-247" font-family="Helvetica,sans-Serif" font-size="10.00">#</text>
<text text-anchor="start" x="231.5" y="-247" font-family="Helvetica,sans-Serif" font-size="10.00">m_osSeparator</text>
<text text-anchor="start" x="218.5" y="-232" font-family="Helvetica,sans-Serif" font-size="10.00">+</text>
<text text-anchor="start" x="231.5" y="-232" font-family="Helvetica,sans-Serif" font-size="10.00">PlainTextProperty()</text>
<text text-anchor="start" x="218.5" y="-217" font-family="Helvetica,sans-Serif" font-size="10.00">+</text>
<text text-anchor="start" x="231.5" y="-217" font-family="Helvetica,sans-Serif" font-size="10.00">PlainTextProperty()</text>
<text text-anchor="start" x="218.5" y="-202" font-family="Helvetica,sans-Serif" font-size="10.00">+</text>
<text text-anchor="start" x="231.5" y="-202" font-family="Helvetica,sans-Serif" font-size="10.00">createEditor()</text>
<text text-anchor="start" x="218.5" y="-187" font-family="Helvetica,sans-Serif" font-size="10.00">+</text>
<text text-anchor="start" x="231.5" y="-187" font-family="Helvetica,sans-Serif" font-size="10.00">getEditorData()</text>
<text text-anchor="start" x="218.5" y="-172" font-family="Helvetica,sans-Serif" font-size="10.00">+</text>
<text text-anchor="start" x="231.5" y="-172" font-family="Helvetica,sans-Serif" font-size="10.00">setReadOnly()</text>
<text text-anchor="start" x="218.5" y="-157" font-family="Helvetica,sans-Serif" font-size="10.00">+</text>
<text text-anchor="start" x="231.5" y="-157" font-family="Helvetica,sans-Serif" font-size="10.00">setOsSeparator()</text>
<text text-anchor="start" x="218.5" y="-142" font-family="Helvetica,sans-Serif" font-size="10.00">+</text>
<text text-anchor="start" x="231.5" y="-142" font-family="Helvetica,sans-Serif" font-size="10.00">setClearButtonEnable()</text>
<text text-anchor="start" x="218.5" y="-127" font-family="Helvetica,sans-Serif" font-size="10.00">+</text>
<text text-anchor="start" x="231.5" y="-127" font-family="Helvetica,sans-Serif" font-size="10.00">setSetting()</text>
<text text-anchor="start" x="218.5" y="-112" font-family="Helvetica,sans-Serif" font-size="10.00">+</text>
<text text-anchor="start" x="231.5" y="-112" font-family="Helvetica,sans-Serif" font-size="10.00">getSetting()</text>
<text text-anchor="start" x="218.5" y="-97" font-family="Helvetica,sans-Serif" font-size="10.00">+</text>
<text text-anchor="start" x="231.5" y="-97" font-family="Helvetica,sans-Serif" font-size="10.00">getSettingKeys()</text>
<text text-anchor="start" x="218.5" y="-82" font-family="Helvetica,sans-Serif" font-size="10.00">+</text>
<text text-anchor="start" x="231.5" y="-82" font-family="Helvetica,sans-Serif" font-size="10.00">type()</text>
<text text-anchor="start" x="218.5" y="-67" font-family="Helvetica,sans-Serif" font-size="10.00">+</text>
<text text-anchor="start" x="231.5" y="-67" font-family="Helvetica,sans-Serif" font-size="10.00">clone()</text>
<text text-anchor="start" x="218.5" y="-52" font-family="Helvetica,sans-Serif" font-size="10.00">+</text>
<text text-anchor="start" x="231.5" y="-52" font-family="Helvetica,sans-Serif" font-size="10.00">updateParent()</text>
<text text-anchor="start" x="218.5" y="-37" font-family="Helvetica,sans-Serif" font-size="10.00">+</text>
<text text-anchor="start" x="231.5" y="-37" font-family="Helvetica,sans-Serif" font-size="10.00">getTypeForParent()</text>
<text text-anchor="start" x="218.5" y="-22" font-family="Helvetica,sans-Serif" font-size="10.00">+</text>
<text text-anchor="start" x="231.5" y="-22" font-family="Helvetica,sans-Serif" font-size="10.00">setTypeForParent()</text>
<text text-anchor="start" x="218.5" y="-7" font-family="Helvetica,sans-Serif" font-size="10.00">#</text>
<text text-anchor="start" x="231.5" y="-7" font-family="Helvetica,sans-Serif" font-size="10.00">eventFilter()</text>
<polygon fill="#666666" stroke="#666666" points="214.5,-287 214.5,-287 349.5,-287 349.5,-287 214.5,-287"/>
<polygon fill="#666666" stroke="#666666" points="214.5,-242 214.5,-242 229.5,-242 229.5,-242 214.5,-242"/>
<polygon fill="#666666" stroke="#666666" points="229.5,-242 229.5,-242 349.5,-242 349.5,-242 229.5,-242"/>
<polygon fill="none" stroke="#666666" points="214,0 214,-304 349,-304 349,0 214,0"/>
</a>
</g>
</g>
<!-- Node2 -->
<g id="Node000002" class="node">
<title>Node2</title>
<g id="a_Node000002"><a xlink:href="../../db/df9/classVPE_1_1VProperty.html" target="_top" xlink:title=" ">
<polygon fill="white" stroke="transparent" points="279.5,-580 157.5,-580 157.5,-351 279.5,-351 279.5,-580"/>
<text text-anchor="start" x="182" y="-567.5" font-family="Helvetica,sans-Serif" font-size="10.00">VPE::VProperty</text>
<text text-anchor="start" x="216.5" y="-552.5" font-family="Helvetica,sans-Serif" font-size="10.00"> </text>
<text text-anchor="start" x="161.5" y="-537.5" font-family="Helvetica,sans-Serif" font-size="10.00">+</text>
<text text-anchor="start" x="174.5" y="-537.5" font-family="Helvetica,sans-Serif" font-size="10.00">VProperty()</text>
<text text-anchor="start" x="161.5" y="-522.5" font-family="Helvetica,sans-Serif" font-size="10.00">+</text>
<text text-anchor="start" x="174.5" y="-522.5" font-family="Helvetica,sans-Serif" font-size="10.00">~VProperty()</text>
<text text-anchor="start" x="161.5" y="-507.5" font-family="Helvetica,sans-Serif" font-size="10.00">+</text>
<text text-anchor="start" x="174.5" y="-507.5" font-family="Helvetica,sans-Serif" font-size="10.00">type()</text>
<text text-anchor="start" x="161.5" y="-492.5" font-family="Helvetica,sans-Serif" font-size="10.00">+</text>
<text text-anchor="start" x="174.5" y="-492.5" font-family="Helvetica,sans-Serif" font-size="10.00">data()</text>
<text text-anchor="start" x="161.5" y="-477.5" font-family="Helvetica,sans-Serif" font-size="10.00">+</text>
<text text-anchor="start" x="174.5" y="-477.5" font-family="Helvetica,sans-Serif" font-size="10.00">setData()</text>
<text text-anchor="start" x="161.5" y="-462.5" font-family="Helvetica,sans-Serif" font-size="10.00">+</text>
<text text-anchor="start" x="174.5" y="-462.5" font-family="Helvetica,sans-Serif" font-size="10.00">paint()</text>
<text text-anchor="start" x="161.5" y="-447.5" font-family="Helvetica,sans-Serif" font-size="10.00">+</text>
<text text-anchor="start" x="174.5" y="-447.5" font-family="Helvetica,sans-Serif" font-size="10.00">createEditor()</text>
<text text-anchor="start" x="161.5" y="-432.5" font-family="Helvetica,sans-Serif" font-size="10.00">+</text>
<text text-anchor="start" x="174.5" y="-432.5" font-family="Helvetica,sans-Serif" font-size="10.00">setEditorData()</text>
<text text-anchor="start" x="161.5" y="-417.5" font-family="Helvetica,sans-Serif" font-size="10.00">+</text>
<text text-anchor="start" x="174.5" y="-417.5" font-family="Helvetica,sans-Serif" font-size="10.00">getEditorData()</text>
<text text-anchor="start" x="161.5" y="-402.5" font-family="Helvetica,sans-Serif" font-size="10.00">+</text>
<text text-anchor="start" x="174.5" y="-402.5" font-family="Helvetica,sans-Serif" font-size="10.00">flags()</text>
<text text-anchor="start" x="174.5" y="-387.5" font-family="Helvetica,sans-Serif" font-size="10.00">and 29 more...</text>
<text text-anchor="start" x="161.5" y="-372.5" font-family="Helvetica,sans-Serif" font-size="10.00">+</text>
<text text-anchor="start" x="174.5" y="-372.5" font-family="Helvetica,sans-Serif" font-size="10.00">childValueChanged()</text>
<text text-anchor="start" x="161.5" y="-357.5" font-family="Helvetica,sans-Serif" font-size="10.00">#</text>
<text text-anchor="start" x="174.5" y="-357.5" font-family="Helvetica,sans-Serif" font-size="10.00">VProperty()</text>
<polygon fill="#666666" stroke="#666666" points="157.5,-562.5 157.5,-562.5 279.5,-562.5 279.5,-562.5 157.5,-562.5"/>
<polygon fill="#666666" stroke="#666666" points="157.5,-547.5 157.5,-547.5 279.5,-547.5 279.5,-547.5 157.5,-547.5"/>
<polygon fill="none" stroke="#666666" points="157.5,-351 157.5,-580 279.5,-580 279.5,-351 157.5,-351"/>
</a>
</g>
</g>
<!-- Node2&#45;&gt;Node1 -->
<g id="edge1_Node000001_Node000002" class="edge">
<title>Node2&#45;&gt;Node1</title>
<g id="a_edge1_Node000001_Node000002"><a xlink:title=" ">
<path fill="none" stroke="#63b8ff" d="M255.73,-340.98C256.35,-338.3 256.94,-335.64 257.5,-333 259.51,-323.6 261.38,-313.88 263.12,-304.05"/>
<polygon fill="none" stroke="#63b8ff" points="252.32,-340.2 253.42,-350.74 259.13,-341.82 252.32,-340.2"/>
</a>
</g>
</g>
<!-- Node4 -->
<g id="Node000004" class="node">
<title>Node4</title>
<g id="a_Node000004"><a xlink:href="../../db/d53/classVPE_1_1VPropertyPrivate.html" target="_top" xlink:title=" ">
<polygon fill="white" stroke="transparent" points="195.5,-251.5 75.5,-251.5 75.5,-52.5 195.5,-52.5 195.5,-251.5"/>
<text text-anchor="start" x="81.5" y="-239" font-family="Helvetica,sans-Serif" font-size="10.00">VPE::VPropertyPrivate</text>
<text text-anchor="start" x="79.5" y="-224" font-family="Helvetica,sans-Serif" font-size="10.00">+</text>
<text text-anchor="start" x="92.5" y="-224" font-family="Helvetica,sans-Serif" font-size="10.00">VariantValue</text>
<text text-anchor="start" x="79.5" y="-209" font-family="Helvetica,sans-Serif" font-size="10.00">+</text>
<text text-anchor="start" x="92.5" y="-209" font-family="Helvetica,sans-Serif" font-size="10.00">Name</text>
<text text-anchor="start" x="79.5" y="-194" font-family="Helvetica,sans-Serif" font-size="10.00">+</text>
<text text-anchor="start" x="92.5" y="-194" font-family="Helvetica,sans-Serif" font-size="10.00">Description</text>
<text text-anchor="start" x="79.5" y="-179" font-family="Helvetica,sans-Serif" font-size="10.00">+</text>
<text text-anchor="start" x="92.5" y="-179" font-family="Helvetica,sans-Serif" font-size="10.00">IsEmpty</text>
<text text-anchor="start" x="79.5" y="-164" font-family="Helvetica,sans-Serif" font-size="10.00">+</text>
<text text-anchor="start" x="92.5" y="-164" font-family="Helvetica,sans-Serif" font-size="10.00">PropertyVariantType</text>
<text text-anchor="start" x="79.5" y="-149" font-family="Helvetica,sans-Serif" font-size="10.00">+</text>
<text text-anchor="start" x="92.5" y="-149" font-family="Helvetica,sans-Serif" font-size="10.00">updateParent</text>
<text text-anchor="start" x="79.5" y="-134" font-family="Helvetica,sans-Serif" font-size="10.00">+</text>
<text text-anchor="start" x="92.5" y="-134" font-family="Helvetica,sans-Serif" font-size="10.00">UpdateChildren</text>
<text text-anchor="start" x="79.5" y="-119" font-family="Helvetica,sans-Serif" font-size="10.00">+</text>
<text text-anchor="start" x="92.5" y="-119" font-family="Helvetica,sans-Serif" font-size="10.00">editor</text>
<text text-anchor="start" x="79.5" y="-104" font-family="Helvetica,sans-Serif" font-size="10.00">+</text>
<text text-anchor="start" x="92.5" y="-104" font-family="Helvetica,sans-Serif" font-size="10.00">type</text>
<text text-anchor="start" x="79.5" y="-89" font-family="Helvetica,sans-Serif" font-size="10.00">+</text>
<text text-anchor="start" x="92.5" y="-89" font-family="Helvetica,sans-Serif" font-size="10.00">VPropertyPrivate()</text>
<text text-anchor="start" x="79.5" y="-74" font-family="Helvetica,sans-Serif" font-size="10.00">+</text>
<text text-anchor="start" x="92.5" y="-74" font-family="Helvetica,sans-Serif" font-size="10.00">VPropertyPrivate()</text>
<text text-anchor="start" x="79.5" y="-59" font-family="Helvetica,sans-Serif" font-size="10.00">+</text>
<text text-anchor="start" x="92.5" y="-59" font-family="Helvetica,sans-Serif" font-size="10.00">~VPropertyPrivate()</text>
<polygon fill="#666666" stroke="#666666" points="75.5,-234 75.5,-234 195.5,-234 195.5,-234 75.5,-234"/>
<polygon fill="#666666" stroke="#666666" points="75.5,-99 75.5,-99 90.5,-99 90.5,-99 75.5,-99"/>
<polygon fill="#666666" stroke="#666666" points="90.5,-99 90.5,-99 195.5,-99 195.5,-99 90.5,-99"/>
<polygon fill="none" stroke="#666666" points="75.5,-52.5 75.5,-251.5 195.5,-251.5 195.5,-52.5 75.5,-52.5"/>
</a>
</g>
</g>
<!-- Node2&#45;&gt;Node4 -->
<g id="edge4_Node000004_Node000002" class="edge">
<title>Node2&#45;&gt;Node4</title>
<g id="a_edge4_Node000004_Node000002"><a xlink:title=" ">
<path fill="none" stroke="#63b8ff" d="M157.36,-360.7C153.54,-351.53 150.16,-342.22 147.5,-333 141.18,-311.09 137.48,-287.08 135.43,-263.94"/>
<polygon fill="none" stroke="#63b8ff" points="135.43,-263.9 130.98,-258.23 134.5,-251.94 138.95,-257.61 135.43,-263.9"/>
</a>
</g>
<text text-anchor="middle" x="169" y="-325" font-family="Helvetica,sans-Serif" font-size="10.00" fill="grey"> +Parent</text>
</g>
<!-- Node3 -->
<g id="Node000003" class="node">
<title>Node3</title>
<g id="a_Node000003"><a xlink:title=" ">
<polygon fill="white" stroke="transparent" points="243.5,-666 193.5,-666 193.5,-617 243.5,-617 243.5,-666"/>
<text text-anchor="start" x="198.5" y="-653.5" font-family="Helvetica,sans-Serif" font-size="10.00">QObject</text>
<text text-anchor="start" x="216.5" y="-638.5" font-family="Helvetica,sans-Serif" font-size="10.00"> </text>
<text text-anchor="start" x="216.5" y="-623.5" font-family="Helvetica,sans-Serif" font-size="10.00"> </text>
<polygon fill="#666666" stroke="#666666" points="193.5,-648.5 193.5,-648.5 243.5,-648.5 243.5,-648.5 193.5,-648.5"/>
<polygon fill="#666666" stroke="#666666" points="193.5,-633.5 193.5,-633.5 243.5,-633.5 243.5,-633.5 193.5,-633.5"/>
<polygon fill="none" stroke="#666666" points="193.5,-617 193.5,-666 243.5,-666 243.5,-617 193.5,-617"/>
</a>
</g>
</g>
<!-- Node3&#45;&gt;Node2 -->
<g id="edge2_Node000002_Node000003" class="edge">
<title>Node3&#45;&gt;Node2</title>
<g id="a_edge2_Node000002_Node000003"><a xlink:title=" ">
<path fill="none" stroke="#63b8ff" d="M218.5,-606.48C218.5,-598.54 218.5,-589.64 218.5,-580.29"/>
<polygon fill="none" stroke="#63b8ff" points="215,-606.67 218.5,-616.67 222,-606.67 215,-606.67"/>
</a>
</g>
</g>
<!-- Node4&#45;&gt;Node2 -->
<g id="edge3_Node000002_Node000004" class="edge">
<title>Node4&#45;&gt;Node2</title>
<g id="a_edge3_Node000002_Node000004"><a xlink:title=" ">
<path fill="none" stroke="#63b8ff" d="M173.12,-251.78C180.94,-274.62 188.59,-298.97 194.5,-322 195.93,-327.55 197.29,-333.25 198.59,-339.03"/>
<polygon fill="none" stroke="#63b8ff" points="198.63,-339.23 203.81,-344.25 201.17,-350.96 195.99,-345.94 198.63,-339.23"/>
</a>
</g>
<text text-anchor="middle" x="214" y="-325" font-family="Helvetica,sans-Serif" font-size="10.00" fill="grey"> #d_ptr</text>
</g>
<!-- Node5 -->
<g id="Node000005" class="node">
<title>Node5</title>
<g id="a_Node000005"><a xlink:href="../../d1/d4a/classQList.html" target="_top" xlink:title=" ">
<polygon fill="white" stroke="transparent" points="139,-490 0,-490 0,-441 139,-441 139,-490"/>
<text text-anchor="start" x="5.5" y="-477.5" font-family="Helvetica,sans-Serif" font-size="10.00">QList&lt; VPE::VProperty * &gt;</text>
<text text-anchor="start" x="68" y="-462.5" font-family="Helvetica,sans-Serif" font-size="10.00"> </text>
<text text-anchor="start" x="68" y="-447.5" font-family="Helvetica,sans-Serif" font-size="10.00"> </text>
<polygon fill="#666666" stroke="#666666" points="0.5,-472.5 0.5,-472.5 139.5,-472.5 139.5,-472.5 0.5,-472.5"/>
<polygon fill="#666666" stroke="#666666" points="0.5,-457.5 0.5,-457.5 139.5,-457.5 139.5,-457.5 0.5,-457.5"/>
<polygon fill="none" stroke="#666666" points="0,-441 0,-490 139,-490 139,-441 0,-441"/>
</a>
</g>
</g>
<!-- Node5&#45;&gt;Node4 -->
<g id="edge5_Node000004_Node000005" class="edge">
<title>Node5&#45;&gt;Node4</title>
<g id="a_edge5_Node000004_Node000005"><a xlink:title=" ">
<path fill="none" stroke="#63b8ff" d="M68.1,-440.8C66.93,-412.31 66.55,-363.2 74.5,-322 78.24,-302.63 83.85,-282.52 90.19,-263.22"/>
<polygon fill="none" stroke="#63b8ff" points="90.26,-263 88.39,-256.04 94.1,-251.64 95.97,-258.6 90.26,-263"/>
</a>
</g>
<text text-anchor="middle" x="100.5" y="-325" font-family="Helvetica,sans-Serif" font-size="10.00" fill="grey"> +Children</text>
</g>
</g>
</svg>

<g id="navigator" transform="translate(0 0)" fill="#404254">
  <rect fill="#f2f5e9" fill-opacity="0.5" stroke="#606060" stroke-width=".5" x="0" y="0" width="60" height="60"/>
  <use id="zoomplus" xlink:href="#zoomPlus" x="17" y="9" onmousedown="handleZoom(evt,'in')"/>
  <use id="zoomminus" xlink:href="#zoomMin" x="42" y="9" onmousedown="handleZoom(evt,'out')"/>
  <use id="reset" xlink:href="#resetDef" x="30" y="36" onmousedown="handleReset()"/>
   <use id="arrowup" xlink:href="#arrowUp" x="0" y="0" onmousedown="handlePan(0,-1)"/>
  <use id="arrowright" xlink:href="#arrowRight" x="0" y="0" onmousedown="handlePan(1,0)"/>
  <use id="arrowdown" xlink:href="#arrowDown" x="0" y="0" onmousedown="handlePan(0,1)"/>
  <use id="arrowleft" xlink:href="#arrowLeft" x="0" y="0" onmousedown="handlePan(-1,0)"/>
</g>
<svg viewBox="0 0 15 15" width="100%" height="30px" preserveAspectRatio="xMaxYMin meet">
 <g id="arrow_out" transform="scale(0.3 0.3)">
  <a xlink:href="classVPE_1_1PlainTextProperty__coll__graph_org.svg" target="_base">
   <rect id="button" ry="5" rx="5" y="6" x="6" height="38" width="38"
        fill="#f2f5e9" fill-opacity="0.5" stroke="#606060" stroke-width="1.0"/>
   <path id="arrow"
     d="M 11.500037,31.436501 C 11.940474,20.09759 22.043105,11.32322 32.158766,21.979434 L 37.068811,17.246167 C 37.068811,17.246167 37.088388,32 37.088388,32 L 22.160133,31.978069 C 22.160133,31.978069 26.997745,27.140456 26.997745,27.140456 C 18.528582,18.264221 13.291696,25.230495 11.500037,31.436501 z"
     style="fill:#404040;"/>
  </a>
 </g>
</svg>

<style type='text/css'>
<![CDATA[
[data-mouse-over-selected='false'] { opacity: 0.7; }
[data-mouse-over-selected='true']  { opacity: 1.0; }
]]>
</style>
<script type="application/ecmascript"><![CDATA[
document.addEventListener('DOMContentLoaded', (event) => {
  highlightEdges();
  highlightAdjacentNodes();
});
]]></script>
</svg>
