<?xml version="1.0" encoding="UTF-8" standalone="no"?>
<!DOCTYPE svg PUBLIC "-//W3C//DTD SVG 1.1//EN"
 "http://www.w3.org/Graphics/SVG/1.1/DTD/svg11.dtd">
<!-- Generated by graphviz version 2.43.0 (0)
 -->
<!-- Title: src/app/seamlyme/dialogs/configpages/seamlymepreferencesconfigurationpage.cpp Pages: 1 -->
<svg width="988pt" height="214pt"
 viewBox="0.00 0.00 987.50 214.00" xmlns="http://www.w3.org/2000/svg" xmlns:xlink="http://www.w3.org/1999/xlink">
<g id="graph0" class="graph" transform="scale(1 1) rotate(0) translate(4 210)">
<title>src/app/seamlyme/dialogs/configpages/seamlymepreferencesconfigurationpage.cpp</title>
<!-- Node1 -->
<g id="Node000001" class="node">
<title>Node1</title>
<g id="a_Node000001"><a xlink:title=" ">
<polygon fill="#999999" stroke="#666666" points="749,-206 450,-206 450,-176 749,-176 749,-206"/>
<text text-anchor="start" x="458" y="-194" font-family="Helvetica,sans-Serif" font-size="10.00">src/app/seamlyme/dialogs</text>
<text text-anchor="middle" x="599.5" y="-183" font-family="Helvetica,sans-Serif" font-size="10.00">/configpages/seamlymepreferencesconfigurationpage.cpp</text>
</a>
</g>
</g>
<!-- Node2 -->
<g id="Node000002" class="node">
<title>Node2</title>
<g id="a_Node000002"><a xlink:href="../../df/d22/seamlymepreferencesconfigurationpage_8h.html" target="_top" xlink:title=" ">
<polygon fill="white" stroke="#666666" points="223,-134.5 0,-134.5 0,-115.5 223,-115.5 223,-134.5"/>
<text text-anchor="middle" x="111.5" y="-122.5" font-family="Helvetica,sans-Serif" font-size="10.00">seamlymepreferencesconfigurationpage.h</text>
</a>
</g>
</g>
<!-- Node1&#45;&gt;Node2 -->
<g id="edge1_Node000001_Node000002" class="edge">
<title>Node1&#45;&gt;Node2</title>
<g id="a_edge1_Node000001_Node000002"><a xlink:title=" ">
<path fill="none" stroke="#63b8ff" d="M492.71,-175.99C400.08,-163.85 268.36,-146.57 186.5,-135.84"/>
<polygon fill="#63b8ff" stroke="#63b8ff" points="186.9,-132.36 176.53,-134.53 185.99,-139.3 186.9,-132.36"/>
</a>
</g>
</g>
<!-- Node4 -->
<g id="Node000004" class="node">
<title>Node4</title>
<g id="a_Node000004"><a xlink:title=" ">
<polygon fill="#e0e0e0" stroke="#999999" points="478,-134.5 241,-134.5 241,-115.5 478,-115.5 478,-134.5"/>
<text text-anchor="middle" x="359.5" y="-122.5" font-family="Helvetica,sans-Serif" font-size="10.00">ui_seamlymepreferencesconfigurationpage.h</text>
</a>
</g>
</g>
<!-- Node1&#45;&gt;Node4 -->
<g id="edge3_Node000001_Node000004" class="edge">
<title>Node1&#45;&gt;Node4</title>
<g id="a_edge3_Node000001_Node000004"><a xlink:title=" ">
<path fill="none" stroke="#63b8ff" d="M546.83,-175.95C503.07,-164.29 441.65,-147.91 401.24,-137.13"/>
<polygon fill="#63b8ff" stroke="#63b8ff" points="402,-133.71 391.44,-134.52 400.2,-140.48 402,-133.71"/>
</a>
</g>
</g>
<!-- Node5 -->
<g id="Node000005" class="node">
<title>Node5</title>
<g id="a_Node000005"><a xlink:href="../../d1/da2/application__me_8h.html" target="_top" xlink:title=" ">
<polygon fill="white" stroke="#666666" points="615,-134.5 496,-134.5 496,-115.5 615,-115.5 615,-134.5"/>
<text text-anchor="middle" x="555.5" y="-122.5" font-family="Helvetica,sans-Serif" font-size="10.00">../../application_me.h</text>
</a>
</g>
</g>
<!-- Node1&#45;&gt;Node5 -->
<g id="edge4_Node000001_Node000005" class="edge">
<title>Node1&#45;&gt;Node5</title>
<g id="a_edge4_Node000001_Node000005"><a xlink:title=" ">
<path fill="none" stroke="#63b8ff" d="M589.73,-175.8C583.14,-166.21 574.41,-153.5 567.41,-143.32"/>
<polygon fill="#63b8ff" stroke="#63b8ff" points="570.13,-141.1 561.58,-134.84 564.36,-145.07 570.13,-141.1"/>
</a>
</g>
</g>
<!-- Node8 -->
<g id="Node000008" class="node">
<title>Node8</title>
<g id="a_Node000008"><a xlink:title=" ">
<polygon fill="#e0e0e0" stroke="#999999" points="971.5,-74 807.5,-74 807.5,-55 971.5,-55 971.5,-74"/>
<text text-anchor="middle" x="889.5" y="-62" font-family="Helvetica,sans-Serif" font-size="10.00">../vmisc/vseamlymesettings.h</text>
</a>
</g>
</g>
<!-- Node1&#45;&gt;Node8 -->
<g id="edge11_Node000001_Node000008" class="edge">
<title>Node1&#45;&gt;Node8</title>
<g id="a_edge11_Node000001_Node000008"><a xlink:title=" ">
<path fill="none" stroke="#63b8ff" d="M606.5,-175.89C616.36,-157.59 636.1,-126.14 662.5,-110 686.65,-95.24 753.04,-83.24 807.83,-75.44"/>
<polygon fill="#63b8ff" stroke="#63b8ff" points="808.49,-78.88 817.91,-74.03 807.52,-71.95 808.49,-78.88"/>
</a>
</g>
</g>
<!-- Node12 -->
<g id="Node000012" class="node">
<title>Node12</title>
<g id="a_Node000012"><a xlink:title=" ">
<polygon fill="#e0e0e0" stroke="#999999" points="813.5,-140 671.5,-140 671.5,-110 813.5,-110 813.5,-140"/>
<text text-anchor="start" x="679.5" y="-128" font-family="Helvetica,sans-Serif" font-size="10.00">../vpatterndb/variables</text>
<text text-anchor="middle" x="742.5" y="-117" font-family="Helvetica,sans-Serif" font-size="10.00">/measurement_variable.h</text>
</a>
</g>
</g>
<!-- Node1&#45;&gt;Node12 -->
<g id="edge12_Node000001_Node000012" class="edge">
<title>Node1&#45;&gt;Node12</title>
<g id="a_edge12_Node000001_Node000012"><a xlink:title=" ">
<path fill="none" stroke="#63b8ff" d="M630.88,-175.95C651.74,-166.62 679.34,-154.27 701.88,-144.18"/>
<polygon fill="#63b8ff" stroke="#63b8ff" points="703.49,-147.29 711.19,-140.01 700.63,-140.9 703.49,-147.29"/>
</a>
</g>
</g>
<!-- Node13 -->
<g id="Node000013" class="node">
<title>Node13</title>
<g id="a_Node000013"><a xlink:title=" ">
<polygon fill="#e0e0e0" stroke="#999999" points="979.5,-134.5 831.5,-134.5 831.5,-115.5 979.5,-115.5 979.5,-134.5"/>
<text text-anchor="middle" x="905.5" y="-122.5" font-family="Helvetica,sans-Serif" font-size="10.00">../vpatterndb/pmsystems.h</text>
</a>
</g>
</g>
<!-- Node1&#45;&gt;Node13 -->
<g id="edge13_Node000001_Node000013" class="edge">
<title>Node1&#45;&gt;Node13</title>
<g id="a_edge13_Node000001_Node000013"><a xlink:title=" ">
<path fill="none" stroke="#63b8ff" d="M666.65,-175.95C723.39,-164.09 803.42,-147.35 854.88,-136.59"/>
<polygon fill="#63b8ff" stroke="#63b8ff" points="855.7,-139.99 864.78,-134.52 854.27,-133.14 855.7,-139.99"/>
</a>
</g>
</g>
<!-- Node3 -->
<g id="Node000003" class="node">
<title>Node3</title>
<g id="a_Node000003"><a xlink:title=" ">
<polygon fill="#e0e0e0" stroke="#999999" points="141,-74 82,-74 82,-55 141,-55 141,-74"/>
<text text-anchor="middle" x="111.5" y="-62" font-family="Helvetica,sans-Serif" font-size="10.00">QWidget</text>
</a>
</g>
</g>
<!-- Node2&#45;&gt;Node3 -->
<g id="edge2_Node000002_Node000003" class="edge">
<title>Node2&#45;&gt;Node3</title>
<g id="a_edge2_Node000002_Node000003"><a xlink:title=" ">
<path fill="none" stroke="#63b8ff" d="M111.5,-115.37C111.5,-107.25 111.5,-94.81 111.5,-84.39"/>
<polygon fill="#63b8ff" stroke="#63b8ff" points="115,-84.17 111.5,-74.17 108,-84.17 115,-84.17"/>
</a>
</g>
</g>
<!-- Node6 -->
<g id="Node000006" class="node">
<title>Node6</title>
<g id="a_Node000006"><a xlink:title=" ">
<polygon fill="#e0e0e0" stroke="#999999" points="336,-74 175,-74 175,-55 336,-55 336,-74"/>
<text text-anchor="middle" x="255.5" y="-62" font-family="Helvetica,sans-Serif" font-size="10.00">../vpatterndb/vtranslatevars.h</text>
</a>
</g>
</g>
<!-- Node5&#45;&gt;Node6 -->
<g id="edge5_Node000005_Node000006" class="edge">
<title>Node5&#45;&gt;Node6</title>
<g id="a_edge5_Node000005_Node000006"><a xlink:title=" ">
<path fill="none" stroke="#63b8ff" d="M513.92,-115.49C504.88,-113.66 495.37,-111.75 486.5,-110 426.4,-98.12 357.43,-84.88 310.61,-75.96"/>
<polygon fill="#63b8ff" stroke="#63b8ff" points="311.15,-72.5 300.67,-74.07 309.84,-79.37 311.15,-72.5"/>
</a>
</g>
</g>
<!-- Node7 -->
<g id="Node000007" class="node">
<title>Node7</title>
<g id="a_Node000007"><a xlink:title=" ">
<polygon fill="#e0e0e0" stroke="#999999" points="436.5,-74 354.5,-74 354.5,-55 436.5,-55 436.5,-74"/>
<text text-anchor="middle" x="395.5" y="-62" font-family="Helvetica,sans-Serif" font-size="10.00">../vmisc/def.h</text>
</a>
</g>
</g>
<!-- Node5&#45;&gt;Node7 -->
<g id="edge6_Node000005_Node000007" class="edge">
<title>Node5&#45;&gt;Node7</title>
<g id="a_edge6_Node000005_Node000007"><a xlink:title=" ">
<path fill="none" stroke="#63b8ff" d="M532.23,-115.49C504.86,-105.49 459.23,-88.8 428.28,-77.49"/>
<polygon fill="#63b8ff" stroke="#63b8ff" points="429.39,-74.16 418.79,-74.02 426.98,-80.74 429.39,-74.16"/>
</a>
</g>
</g>
<!-- Node5&#45;&gt;Node8 -->
<g id="edge7_Node000005_Node000008" class="edge">
<title>Node5&#45;&gt;Node8</title>
<g id="a_edge7_Node000005_Node000008"><a xlink:title=" ">
<path fill="none" stroke="#63b8ff" d="M600.09,-115.43C609.78,-113.61 619.98,-111.72 629.5,-110 697.46,-97.76 775.56,-84.5 828.28,-75.67"/>
<polygon fill="#63b8ff" stroke="#63b8ff" points="828.86,-79.12 838.15,-74.02 827.71,-72.22 828.86,-79.12"/>
</a>
</g>
</g>
<!-- Node9 -->
<g id="Node000009" class="node">
<title>Node9</title>
<g id="a_Node000009"><a xlink:title=" ">
<polygon fill="#e0e0e0" stroke="#999999" points="622,-74 455,-74 455,-55 622,-55 622,-74"/>
<text text-anchor="middle" x="538.5" y="-62" font-family="Helvetica,sans-Serif" font-size="10.00">../vmisc/vabstractapplication.h</text>
</a>
</g>
</g>
<!-- Node5&#45;&gt;Node9 -->
<g id="edge8_Node000005_Node000009" class="edge">
<title>Node5&#45;&gt;Node9</title>
<g id="a_edge8_Node000005_Node000009"><a xlink:title=" ">
<path fill="none" stroke="#63b8ff" d="M552.99,-115.37C550.61,-107.16 546.94,-94.54 543.89,-84.05"/>
<polygon fill="#63b8ff" stroke="#63b8ff" points="547.17,-82.79 541.02,-74.17 540.45,-84.75 547.17,-82.79"/>
</a>
</g>
</g>
<!-- Node10 -->
<g id="Node000010" class="node">
<title>Node10</title>
<g id="a_Node000010"><a xlink:href="../../d0/d0b/dialogmdatabase_8h.html" target="_top" xlink:title=" ">
<polygon fill="white" stroke="#666666" points="789,-74 640,-74 640,-55 789,-55 789,-74"/>
<text text-anchor="middle" x="714.5" y="-62" font-family="Helvetica,sans-Serif" font-size="10.00">dialogs/dialogmdatabase.h</text>
</a>
</g>
</g>
<!-- Node5&#45;&gt;Node10 -->
<g id="edge9_Node000005_Node000010" class="edge">
<title>Node5&#45;&gt;Node10</title>
<g id="a_edge9_Node000005_Node000010"><a xlink:title=" ">
<path fill="none" stroke="#63b8ff" d="M578.62,-115.49C605.82,-105.49 651.17,-88.8 681.92,-77.49"/>
<polygon fill="#63b8ff" stroke="#63b8ff" points="683.18,-80.75 691.35,-74.02 680.76,-74.18 683.18,-80.75"/>
</a>
</g>
</g>
<!-- Node11 -->
<g id="Node000011" class="node">
<title>Node11</title>
<g id="a_Node000011"><a xlink:title=" ">
<polygon fill="#e0e0e0" stroke="#999999" points="742.5,-19 686.5,-19 686.5,0 742.5,0 742.5,-19"/>
<text text-anchor="middle" x="714.5" y="-7" font-family="Helvetica,sans-Serif" font-size="10.00">QDialog</text>
</a>
</g>
</g>
<!-- Node10&#45;&gt;Node11 -->
<g id="edge10_Node000010_Node000011" class="edge">
<title>Node10&#45;&gt;Node11</title>
<g id="a_edge10_Node000010_Node000011"><a xlink:title=" ">
<path fill="none" stroke="#63b8ff" d="M714.5,-54.75C714.5,-47.8 714.5,-37.85 714.5,-29.13"/>
<polygon fill="#63b8ff" stroke="#63b8ff" points="718,-29.09 714.5,-19.09 711,-29.09 718,-29.09"/>
</a>
</g>
</g>
</g>
</svg>
