<?xml version="1.0" encoding="UTF-8" standalone="no"?>
<!DOCTYPE svg PUBLIC "-//W3C//DTD SVG 1.1//EN"
 "http://www.w3.org/Graphics/SVG/1.1/DTD/svg11.dtd">
<!-- Generated by graphviz version 2.43.0 (0)
 -->
<!-- Title: src/app/seamlyme/mapplication.h Pages: 1 -->
<!--zoomable 95 -->
<svg id="main" version="1.1" xmlns="http://www.w3.org/2000/svg" xmlns:xlink="http://www.w3.org/1999/xlink" xml:space="preserve" onload="init(evt)">
<style type="text/css"><![CDATA[
.edge:hover path { stroke: red; }
.edge:hover polygon { stroke: red; fill: red; }
]]></style>
<script type="text/javascript"><![CDATA[
var edges = document.getElementsByTagName('g');
if (edges && edges.length) {
  for (var i=0;i<edges.length;i++) {
    if (edges[i].id.substr(0,4)=='edge') {
      edges[i].setAttribute('class','edge');
    }
  }
}
]]></script>
        <defs>
                <circle id="rim" cx="0" cy="0" r="7"/>
                <circle id="rim2" cx="0" cy="0" r="3.5"/>
                <g id="zoomPlus">
                        <use xlink:href="#rim" fill="#404040">
                                <set attributeName="fill" to="#808080" begin="zoomplus.mouseover" end="zoomplus.mouseout"/>
                        </use>
                        <path d="M-4,0h8M0,-4v8" fill="none" stroke="white" stroke-width="1.5" pointer-events="none"/>
                </g>
                <g id="zoomMin">
                        <use xlink:href="#rim" fill="#404040">
                                <set attributeName="fill" to="#808080" begin="zoomminus.mouseover" end="zoomminus.mouseout"/>
                        </use>
                        <path d="M-4,0h8" fill="none" stroke="white" stroke-width="1.5" pointer-events="none"/>
                </g>
                <g id="dirArrow">
                        <path fill="none" stroke="white" stroke-width="1.5" d="M0,-3.0v7 M-2.5,-0.5L0,-3.0L2.5,-0.5"/>
                </g>
               <g id="resetDef">
                       <use xlink:href="#rim2" fill="#404040">
                               <set attributeName="fill" to="#808080" begin="reset.mouseover" end="reset.mouseout"/>
                       </use>
               </g>
        </defs>

<script type="text/javascript">
var viewWidth = 1886;
var viewHeight = 95;
var sectionId = 'dynsection-1';
</script>
<script xlink:href="../../svgpan.js"/>
<svg id="graph" class="graph">
<g id="viewport">
<title>src/app/seamlyme/mapplication.h</title>
<polygon fill="white" stroke="transparent" points="-4,4 -4,-91 1882,-91 1882,4 -4,4"/>
<!-- Node1 -->
<g id="node1" class="node">
<title>Node1</title>
<g id="a_node1"><a xlink:title=" ">
<polygon fill="#bfbfbf" stroke="black" points="841.5,-67.5 841.5,-86.5 1023.5,-86.5 1023.5,-67.5 841.5,-67.5"/>
<text text-anchor="middle" x="932.5" y="-74.5" font-family="Helvetica,sans-Serif" font-size="10.00">src/app/seamlyme/mapplication.h</text>
</a>
</g>
</g>
<!-- Node2 -->
<g id="node2" class="node">
<title>Node2</title>
<g id="a_node2"><a xlink:href="../../d9/d23/seamlymepreferencesconfigurationpage_8cpp.html" target="_top" xlink:title=" ">
<polygon fill="white" stroke="black" points="0,-0.5 0,-30.5 299,-30.5 299,-0.5 0,-0.5"/>
<text text-anchor="start" x="8" y="-18.5" font-family="Helvetica,sans-Serif" font-size="10.00">src/app/seamlyme/dialogs</text>
<text text-anchor="middle" x="149.5" y="-7.5" font-family="Helvetica,sans-Serif" font-size="10.00">/configpages/seamlymepreferencesconfigurationpage.cpp</text>
</a>
</g>
</g>
<!-- Node1&#45;&gt;Node2 -->
<g id="edge1" class="edge">
<title>Node1&#45;&gt;Node2</title>
<path fill="none" stroke="midnightblue" d="M831.16,-69.32C707.5,-61.02 492.06,-46.11 307.5,-31 304.75,-30.78 301.98,-30.55 299.19,-30.31"/>
<polygon fill="midnightblue" stroke="midnightblue" points="831.16,-72.83 841.37,-70 831.63,-65.84 831.16,-72.83"/>
</g>
<!-- Node3 -->
<g id="node3" class="node">
<title>Node3</title>
<g id="a_node3"><a xlink:href="../../d1/d42/dialogmdatabase_8cpp.html" target="_top" xlink:title=" ">
<polygon fill="white" stroke="black" points="317,-0.5 317,-30.5 462,-30.5 462,-0.5 317,-0.5"/>
<text text-anchor="start" x="325" y="-18.5" font-family="Helvetica,sans-Serif" font-size="10.00">src/app/seamlyme/dialogs</text>
<text text-anchor="middle" x="389.5" y="-7.5" font-family="Helvetica,sans-Serif" font-size="10.00">/dialogmdatabase.cpp</text>
</a>
</g>
</g>
<!-- Node1&#45;&gt;Node3 -->
<g id="edge2" class="edge">
<title>Node1&#45;&gt;Node3</title>
<path fill="none" stroke="midnightblue" d="M831.26,-68.39C737.68,-60.82 594.88,-47.9 471.5,-31 468.49,-30.59 465.43,-30.15 462.33,-29.68"/>
<polygon fill="midnightblue" stroke="midnightblue" points="831.04,-71.89 841.29,-69.2 831.6,-64.91 831.04,-71.89"/>
</g>
<!-- Node4 -->
<g id="node4" class="node">
<title>Node4</title>
<g id="a_node4"><a xlink:href="../../de/d0a/dialognewmeasurements_8cpp.html" target="_top" xlink:title=" ">
<polygon fill="white" stroke="black" points="480.5,-0.5 480.5,-30.5 644.5,-30.5 644.5,-0.5 480.5,-0.5"/>
<text text-anchor="start" x="488.5" y="-18.5" font-family="Helvetica,sans-Serif" font-size="10.00">src/app/seamlyme/dialogs</text>
<text text-anchor="middle" x="562.5" y="-7.5" font-family="Helvetica,sans-Serif" font-size="10.00">/dialognewmeasurements.cpp</text>
</a>
</g>
</g>
<!-- Node1&#45;&gt;Node4 -->
<g id="edge3" class="edge">
<title>Node1&#45;&gt;Node4</title>
<path fill="none" stroke="midnightblue" d="M869.46,-65.86C807.5,-55.9 712.62,-40.64 644.75,-29.73"/>
<polygon fill="midnightblue" stroke="midnightblue" points="869.06,-69.34 879.49,-67.48 870.17,-62.43 869.06,-69.34"/>
</g>
<!-- Node5 -->
<g id="node5" class="node">
<title>Node5</title>
<g id="a_node5"><a xlink:href="../../dd/db1/dialogseamlymepreferences_8cpp.html" target="_top" xlink:title=" ">
<polygon fill="white" stroke="black" points="663,-0.5 663,-30.5 842,-30.5 842,-0.5 663,-0.5"/>
<text text-anchor="start" x="671" y="-18.5" font-family="Helvetica,sans-Serif" font-size="10.00">src/app/seamlyme/dialogs</text>
<text text-anchor="middle" x="752.5" y="-7.5" font-family="Helvetica,sans-Serif" font-size="10.00">/dialogseamlymepreferences.cpp</text>
</a>
</g>
</g>
<!-- Node1&#45;&gt;Node5 -->
<g id="edge4" class="edge">
<title>Node1&#45;&gt;Node5</title>
<path fill="none" stroke="midnightblue" d="M896.89,-64.23C867.58,-54.54 825.96,-40.78 794.92,-30.52"/>
<polygon fill="midnightblue" stroke="midnightblue" points="896.12,-67.66 906.71,-67.48 898.31,-61.01 896.12,-67.66"/>
</g>
<!-- Node6 -->
<g id="node6" class="node">
<title>Node6</title>
<g id="a_node6"><a xlink:href="../../d6/d8e/me__shortcuts__dialog_8cpp.html" target="_top" xlink:title=" ">
<polygon fill="white" stroke="black" points="860,-0.5 860,-30.5 1005,-30.5 1005,-0.5 860,-0.5"/>
<text text-anchor="start" x="868" y="-18.5" font-family="Helvetica,sans-Serif" font-size="10.00">src/app/seamlyme/dialogs</text>
<text text-anchor="middle" x="932.5" y="-7.5" font-family="Helvetica,sans-Serif" font-size="10.00">/me_shortcuts_dialog.cpp</text>
</a>
</g>
</g>
<!-- Node1&#45;&gt;Node6 -->
<g id="edge5" class="edge">
<title>Node1&#45;&gt;Node6</title>
<path fill="none" stroke="midnightblue" d="M932.5,-57.23C932.5,-48.59 932.5,-38.5 932.5,-30.52"/>
<polygon fill="midnightblue" stroke="midnightblue" points="929,-57.48 932.5,-67.48 936,-57.48 929,-57.48"/>
</g>
<!-- Node7 -->
<g id="node7" class="node">
<title>Node7</title>
<g id="a_node7"><a xlink:href="../../d8/dcc/seamlymepreferencespathpage_8cpp.html" target="_top" xlink:title=" ">
<polygon fill="white" stroke="black" points="1023,-0.5 1023,-30.5 1280,-30.5 1280,-0.5 1023,-0.5"/>
<text text-anchor="start" x="1031" y="-18.5" font-family="Helvetica,sans-Serif" font-size="10.00">src/app/seamlyme/dialogs</text>
<text text-anchor="middle" x="1151.5" y="-7.5" font-family="Helvetica,sans-Serif" font-size="10.00">/configpages/seamlymepreferencespathpage.cpp</text>
</a>
</g>
</g>
<!-- Node1&#45;&gt;Node7 -->
<g id="edge6" class="edge">
<title>Node1&#45;&gt;Node7</title>
<path fill="none" stroke="midnightblue" d="M973.97,-64.73C1009.71,-55.02 1061.47,-40.96 1099.89,-30.52"/>
<polygon fill="midnightblue" stroke="midnightblue" points="972.61,-61.48 963.88,-67.48 974.45,-68.23 972.61,-61.48"/>
</g>
<!-- Node8 -->
<g id="node8" class="node">
<title>Node8</title>
<g id="a_node8"><a xlink:href="../../db/de0/app_2seamlyme_2main_8cpp.html" target="_top" xlink:title=" ">
<polygon fill="white" stroke="black" points="1298,-6 1298,-25 1453,-25 1453,-6 1298,-6"/>
<text text-anchor="middle" x="1375.5" y="-13" font-family="Helvetica,sans-Serif" font-size="10.00">src/app/seamlyme/main.cpp</text>
</a>
</g>
</g>
<!-- Node1&#45;&gt;Node8 -->
<g id="edge7" class="edge">
<title>Node1&#45;&gt;Node8</title>
<path fill="none" stroke="midnightblue" d="M1017.48,-66.3C1089.9,-57.79 1196.68,-44.67 1289.5,-31 1301.63,-29.21 1314.7,-27.11 1326.89,-25.06"/>
<polygon fill="midnightblue" stroke="midnightblue" points="1017.02,-62.83 1007.5,-67.47 1017.84,-69.78 1017.02,-62.83"/>
</g>
<!-- Node9 -->
<g id="node9" class="node">
<title>Node9</title>
<g id="a_node9"><a xlink:href="../../da/dfb/mapplication_8cpp.html" target="_top" xlink:title=" ">
<polygon fill="white" stroke="black" points="1471.5,-6 1471.5,-25 1665.5,-25 1665.5,-6 1471.5,-6"/>
<text text-anchor="middle" x="1568.5" y="-13" font-family="Helvetica,sans-Serif" font-size="10.00">src/app/seamlyme/mapplication.cpp</text>
</a>
</g>
</g>
<!-- Node1&#45;&gt;Node9 -->
<g id="edge8" class="edge">
<title>Node1&#45;&gt;Node9</title>
<path fill="none" stroke="midnightblue" d="M1033.73,-68.95C1140.5,-61.16 1313.57,-47.5 1462.5,-31 1478.01,-29.28 1494.75,-27.13 1510.25,-25.01"/>
<polygon fill="midnightblue" stroke="midnightblue" points="1033.33,-65.47 1023.61,-69.69 1033.84,-72.46 1033.33,-65.47"/>
</g>
<!-- Node10 -->
<g id="node10" class="node">
<title>Node10</title>
<g id="a_node10"><a xlink:href="../../dc/de1/tmainwindow_8cpp.html" target="_top" xlink:title=" ">
<polygon fill="white" stroke="black" points="1683,-6 1683,-25 1878,-25 1878,-6 1683,-6"/>
<text text-anchor="middle" x="1780.5" y="-13" font-family="Helvetica,sans-Serif" font-size="10.00">src/app/seamlyme/tmainwindow.cpp</text>
</a>
</g>
</g>
<!-- Node1&#45;&gt;Node10 -->
<g id="edge9" class="edge">
<title>Node1&#45;&gt;Node10</title>
<path fill="none" stroke="midnightblue" d="M1033.85,-72.28C1176.9,-66.47 1446.07,-53.52 1674.5,-31 1690.67,-29.41 1708.18,-27.21 1724.21,-25"/>
<polygon fill="midnightblue" stroke="midnightblue" points="1033.62,-68.78 1023.77,-72.68 1033.9,-75.78 1033.62,-68.78"/>
</g>
</g>
</svg>
        <g id="navigator" transform="translate(0 0)" fill="#404254">
                <rect fill="#f2f5e9" fill-opacity="0.5" stroke="#606060" stroke-width=".5" x="0" y="0" width="60" height="60"/>
                <use id="zoomplus" xlink:href="#zoomPlus" x="17" y="9" onmousedown="handleZoom(evt,'in')"/>
                <use id="zoomminus" xlink:href="#zoomMin" x="42" y="9" onmousedown="handleZoom(evt,'out')"/>
                <use id="reset" xlink:href="#resetDef" x="30" y="36" onmousedown="handleReset()"/>
                <g id="arrowUp" xlink:href="#dirArrow" transform="translate(30 24)" onmousedown="handlePan(0,-1)">
                  <use xlink:href="#rim" fill="#404040">
                        <set attributeName="fill" to="#808080" begin="arrowUp.mouseover" end="arrowUp.mouseout"/>
                  </use>
                  <path fill="none" stroke="white" stroke-width="1.5" d="M0,-3.0v7 M-2.5,-0.5L0,-3.0L2.5,-0.5"/>
                </g>
                <g id="arrowRight" xlink:href="#dirArrow" transform="rotate(90) translate(36 -43)" onmousedown="handlePan(1,0)">
                  <use xlink:href="#rim" fill="#404040">
                        <set attributeName="fill" to="#808080" begin="arrowRight.mouseover" end="arrowRight.mouseout"/>
                  </use>
                  <path fill="none" stroke="white" stroke-width="1.5" d="M0,-3.0v7 M-2.5,-0.5L0,-3.0L2.5,-0.5"/>
                </g>
                <g id="arrowDown" xlink:href="#dirArrow" transform="rotate(180) translate(-30 -48)" onmousedown="handlePan(0,1)">
                  <use xlink:href="#rim" fill="#404040">
                        <set attributeName="fill" to="#808080" begin="arrowDown.mouseover" end="arrowDown.mouseout"/>
                  </use>
                  <path fill="none" stroke="white" stroke-width="1.5" d="M0,-3.0v7 M-2.5,-0.5L0,-3.0L2.5,-0.5"/>
                </g>
                <g id="arrowLeft" xlink:href="#dirArrow" transform="rotate(270) translate(-36 17)" onmousedown="handlePan(-1,0)">
                  <use xlink:href="#rim" fill="#404040">
                        <set attributeName="fill" to="#808080" begin="arrowLeft.mouseover" end="arrowLeft.mouseout"/>
                  </use>
                  <path fill="none" stroke="white" stroke-width="1.5" d="M0,-3.0v7 M-2.5,-0.5L0,-3.0L2.5,-0.5"/>
                </g>
        </g>
        <svg viewBox="0 0 15 15" width="100%" height="30px" preserveAspectRatio="xMaxYMin meet">
         <g id="arrow_out" transform="scale(0.3 0.3)">
          <a xlink:href="mapplication_8h__dep__incl_org.svg" target="_base">
           <rect id="button" ry="5" rx="5" y="6" x="6" height="38" width="38"
                fill="#f2f5e9" fill-opacity="0.5" stroke="#606060" stroke-width="1.0"/>
           <path id="arrow"
             d="M 11.500037,31.436501 C 11.940474,20.09759 22.043105,11.32322 32.158766,21.979434 L 37.068811,17.246167 C 37.068811,17.246167 37.088388,32 37.088388,32 L 22.160133,31.978069 C 22.160133,31.978069 26.997745,27.140456 26.997745,27.140456 C 18.528582,18.264221 13.291696,25.230495 11.500037,31.436501 z"
             style="fill:#404040;"/>
          </a>
         </g>
        </svg>
</svg>
