<?xml version="1.0" encoding="UTF-8" standalone="no"?>
<!DOCTYPE svg PUBLIC "-//W3C//DTD SVG 1.1//EN"
 "http://www.w3.org/Graphics/SVG/1.1/DTD/svg11.dtd">
<!-- Generated by graphviz version 2.43.0 (0)
 -->
<!-- Title: src/libs/vpatterndb Pages: 1 -->
<!--zoomable 149 -->

<svg id="main" version="1.1" xmlns="http://www.w3.org/2000/svg" xmlns:xlink="http://www.w3.org/1999/xlink" xml:space="preserve" onload="init(evt)">
<style type="text/css"><![CDATA[
.node, .edge {opacity: 0.7;}
.node.selected, .edge.selected {opacity: 1;}
.edge:hover path { stroke: red; }
.edge:hover polygon { stroke: red; fill: red; }
]]></style>

<defs>
  <circle id="rim" cx="0" cy="0" r="7"/>
  <circle id="rim2" cx="0" cy="0" r="3.5"/>
  <g id="zoomPlus">
    <use xlink:href="#rim" fill="#404040"><set attributeName="fill" to="#808080" begin="zoomplus.mouseover" end="zoomplus.mouseout"/></use>
    <path d="M-4,0h8M0,-4v8" fill="none" stroke="white" stroke-width="1.5" pointer-events="none"/>
  </g>
  <g id="zoomMin">
    <use xlink:href="#rim" fill="#404040"><set attributeName="fill" to="#808080" begin="zoomminus.mouseover" end="zoomminus.mouseout"/></use>
    <path d="M-4,0h8" fill="none" stroke="white" stroke-width="1.5" pointer-events="none"/>
  </g>
  <g id="arrowUp" transform="translate(30 24)">
    <use xlink:href="#rim"/>
    <path pointer-events="none" fill="none" stroke="white" stroke-width="1.5" d="M0,-3.0v7 M-2.5,-0.5L0,-3.0L2.5,-0.5"/>
  </g>
  <g id="arrowRight" transform="rotate(90) translate(36 -43)">
    <use xlink:href="#rim"/>
    <path pointer-events="none" fill="none" stroke="white" stroke-width="1.5" d="M0,-3.0v7 M-2.5,-0.5L0,-3.0L2.5,-0.5"/>
  </g>
  <g id="arrowDown" transform="rotate(180) translate(-30 -48)">
    <use xlink:href="#rim"/>
    <path pointer-events="none" fill="none" stroke="white" stroke-width="1.5" d="M0,-3.0v7 M-2.5,-0.5L0,-3.0L2.5,-0.5"/>
  </g>
  <g id="arrowLeft" transform="rotate(270) translate(-36 17)">
    <use xlink:href="#rim"/>
    <path pointer-events="none" fill="none" stroke="white" stroke-width="1.5" d="M0,-3.0v7 M-2.5,-0.5L0,-3.0L2.5,-0.5"/>
  </g>
  <g id="resetDef">
    <use xlink:href="#rim2" fill="#404040"><set attributeName="fill" to="#808080" begin="reset.mouseover" end="reset.mouseout"/></use>
  </g>
</defs>
<script type="application/ecmascript">
var viewWidth = 572;
var viewHeight = 149;
var sectionId = 'dynsection-0';
</script>
<script type="application/ecmascript" xlink:href="svg.min.js"/>
<svg id="graph" class="graph">
<g id="viewport">
<title>src/libs/vpatterndb</title>
<g id="clust1" class="cluster">
<title>clusterdir_87a455bccb09a92130c26a11a880c98a</title>
<g id="a_clust1"><a xlink:href="dir_87a455bccb09a92130c26a11a880c98a.html" target="_top" xlink:title="libs">
<polygon fill="#edf0f7" stroke="#7f7f7f" stroke-dasharray="5,2" points="8,-8 8,-133 556,-133 556,-8 8,-8"/>
<text text-anchor="middle" x="282" y="-121" font-family="Helvetica,sans-Serif" font-size="10.00">libs</text>
</a>
</g>
</g>
<g id="clust2" class="cluster">
<title>clusterdir_223cdb8d508b79a19c2b95144d044f4d</title>
<g id="a_clust2"><a xlink:href="dir_223cdb8d508b79a19c2b95144d044f4d.html" target="_top">
<polygon fill="#edf0f7" stroke="#404040" stroke-width="2" points="16,-16 16,-106 196,-106 196,-16 16,-16"/>
</a>
</g>
</g>
<!-- dir_0b43e84fad29eea21cbcad91e99d52fe -->
<g id="node1" class="node">
<title>dir_0b43e84fad29eea21cbcad91e99d52fe</title>
<g id="a_node1"><a xlink:href="dir_0b43e84fad29eea21cbcad91e99d52fe.html" target="_top" xlink:title="qmuparser">
<polygon fill="#a2b4d6" stroke="#404040" points="275.5,-43 206.5,-43 206.5,-24 275.5,-24 275.5,-43"/>
<text text-anchor="middle" x="241" y="-31" font-family="Helvetica,sans-Serif" font-size="10.00">qmuparser</text>
</a>
</g>
</g>
<!-- dir_45e7935e40ba1081fb9a668a2bba47b4 -->
<g id="node2" class="node">
<title>dir_45e7935e40ba1081fb9a668a2bba47b4</title>
<g id="a_node2"><a xlink:href="dir_45e7935e40ba1081fb9a668a2bba47b4.html" target="_top" xlink:title="vgeometry">
<polygon fill="#a2b4d6" stroke="#404040" points="364,-43 294,-43 294,-24 364,-24 364,-43"/>
<text text-anchor="middle" x="329" y="-31" font-family="Helvetica,sans-Serif" font-size="10.00">vgeometry</text>
</a>
</g>
</g>
<!-- dir_4a67e96e005fcfd63a781ee60f20496b -->
<g id="node3" class="node">
<title>dir_4a67e96e005fcfd63a781ee60f20496b</title>
<g id="a_node3"><a xlink:href="dir_4a67e96e005fcfd63a781ee60f20496b.html" target="_top" xlink:title="vlayout">
<polygon fill="#a2b4d6" stroke="#404040" points="435.5,-43 382.5,-43 382.5,-24 435.5,-24 435.5,-43"/>
<text text-anchor="middle" x="409" y="-31" font-family="Helvetica,sans-Serif" font-size="10.00">vlayout</text>
</a>
</g>
</g>
<!-- dir_6cff1c16a5044c24e75e85aac7391f76 -->
<g id="node4" class="node">
<title>dir_6cff1c16a5044c24e75e85aac7391f76</title>
<g id="a_node4"><a xlink:href="dir_6cff1c16a5044c24e75e85aac7391f76.html" target="_top" xlink:title="vmisc">
<polygon fill="#a2b4d6" stroke="red" points="500,-43 454,-43 454,-24 500,-24 500,-43"/>
<text text-anchor="middle" x="477" y="-31" font-family="Helvetica,sans-Serif" font-size="10.00">vmisc</text>
</a>
</g>
</g>
<!-- dir_adb9cc6631100b6c69049e067c60c42f -->
<g id="node5" class="node">
<title>dir_adb9cc6631100b6c69049e067c60c42f</title>
<g id="a_node5"><a xlink:href="dir_adb9cc6631100b6c69049e067c60c42f.html" target="_top" xlink:title="ifc">
<polygon fill="#a2b4d6" stroke="red" points="547.5,-43 518.5,-43 518.5,-24 547.5,-24 547.5,-43"/>
<text text-anchor="middle" x="533" y="-31" font-family="Helvetica,sans-Serif" font-size="10.00">ifc</text>
</a>
</g>
</g>
<!-- dir_223cdb8d508b79a19c2b95144d044f4d -->
<g id="node6" class="node">
<title>dir_223cdb8d508b79a19c2b95144d044f4d</title>
<text text-anchor="middle" x="153" y="-86" font-family="Helvetica,sans-Serif" font-size="10.00">vpatterndb</text>
</g>
<!-- dir_223cdb8d508b79a19c2b95144d044f4d&#45;&gt;dir_0b43e84fad29eea21cbcad91e99d52fe -->
<g id="edge1" class="edge">
<title>dir_223cdb8d508b79a19c2b95144d044f4d&#45;&gt;dir_0b43e84fad29eea21cbcad91e99d52fe</title>
<g id="a_edge1"><a xlink:href="dir_000054_000027.html" target="_top">
<path fill="none" stroke="#63b8ff" d="M167.14,-78.98C180.79,-70.77 201.69,-58.18 217.78,-48.49"/>
<polygon fill="#63b8ff" stroke="#63b8ff" points="219.84,-51.33 226.6,-43.17 216.23,-45.33 219.84,-51.33"/>
</a>
</g>
<g id="a_edge1&#45;headlabel"><a xlink:href="dir_000054_000027.html" target="_top" xlink:title="8">
<text text-anchor="middle" x="218.23" y="-53.11" font-family="Helvetica,sans-Serif" font-size="10.00" fill="#63b8ff">8</text>
</a>
</g>
</g>
<!-- dir_223cdb8d508b79a19c2b95144d044f4d&#45;&gt;dir_45e7935e40ba1081fb9a668a2bba47b4 -->
<g id="edge3" class="edge">
<title>dir_223cdb8d508b79a19c2b95144d044f4d&#45;&gt;dir_45e7935e40ba1081fb9a668a2bba47b4</title>
<g id="a_edge3"><a xlink:href="dir_000054_000049.html" target="_top">
<path fill="none" stroke="#63b8ff" d="M181.28,-78.98C210.95,-70.05 257.79,-55.94 290.75,-46.02"/>
<polygon fill="#63b8ff" stroke="#63b8ff" points="291.93,-49.32 300.5,-43.08 289.92,-42.61 291.93,-49.32"/>
</a>
</g>
<g id="a_edge3&#45;headlabel"><a xlink:href="dir_000054_000049.html" target="_top" xlink:title="17">
<text text-anchor="middle" x="289.31" y="-50.57" font-family="Helvetica,sans-Serif" font-size="10.00" fill="#63b8ff">17</text>
</a>
</g>
</g>
<!-- dir_223cdb8d508b79a19c2b95144d044f4d&#45;&gt;dir_4a67e96e005fcfd63a781ee60f20496b -->
<g id="edge4" class="edge">
<title>dir_223cdb8d508b79a19c2b95144d044f4d&#45;&gt;dir_4a67e96e005fcfd63a781ee60f20496b</title>
<g id="a_edge4"><a xlink:href="dir_000054_000051.html" target="_top">
<path fill="none" stroke="#63b8ff" d="M188.13,-80.76C229.66,-72.71 301.12,-58.6 372.25,-43.1"/>
<polygon fill="#63b8ff" stroke="#63b8ff" points="373.27,-46.47 382.29,-40.91 371.77,-39.63 373.27,-46.47"/>
</a>
</g>
<g id="a_edge4&#45;headlabel"><a xlink:href="dir_000054_000051.html" target="_top" xlink:title="2">
<text text-anchor="middle" x="370.36" y="-47.51" font-family="Helvetica,sans-Serif" font-size="10.00" fill="#63b8ff">2</text>
</a>
</g>
</g>
<!-- dir_223cdb8d508b79a19c2b95144d044f4d&#45;&gt;dir_6cff1c16a5044c24e75e85aac7391f76 -->
<g id="edge5" class="edge">
<title>dir_223cdb8d508b79a19c2b95144d044f4d&#45;&gt;dir_6cff1c16a5044c24e75e85aac7391f76</title>
<g id="a_edge5"><a xlink:href="dir_000054_000052.html" target="_top">
<path fill="none" stroke="#63b8ff" d="M188.28,-83.38C241.56,-76.88 345.9,-63.1 443.92,-43.02"/>
<polygon fill="#63b8ff" stroke="#63b8ff" points="444.92,-46.39 454,-40.93 443.5,-39.53 444.92,-46.39"/>
</a>
</g>
<g id="a_edge5&#45;headlabel"><a xlink:href="dir_000054_000052.html" target="_top" xlink:title="26">
<text text-anchor="middle" x="441.98" y="-47.4" font-family="Helvetica,sans-Serif" font-size="10.00" fill="#63b8ff">26</text>
</a>
</g>
</g>
<!-- dir_223cdb8d508b79a19c2b95144d044f4d&#45;&gt;dir_adb9cc6631100b6c69049e067c60c42f -->
<g id="edge6" class="edge">
<title>dir_223cdb8d508b79a19c2b95144d044f4d&#45;&gt;dir_adb9cc6631100b6c69049e067c60c42f</title>
<g id="a_edge6"><a xlink:href="dir_000054_000014.html" target="_top">
<path fill="none" stroke="#63b8ff" d="M188.06,-85.63C250.71,-81.76 386,-70.95 508.5,-42.57"/>
<polygon fill="#63b8ff" stroke="#63b8ff" points="509.5,-45.93 518.43,-40.23 507.89,-39.12 509.5,-45.93"/>
</a>
</g>
<g id="a_edge6&#45;headlabel"><a xlink:href="dir_000054_000014.html" target="_top" xlink:title="7">
<text text-anchor="middle" x="506.65" y="-47.02" font-family="Helvetica,sans-Serif" font-size="10.00" fill="#63b8ff">7</text>
</a>
</g>
</g>
<!-- dir_fc60e5b36873c7f373d7dac5754b2278 -->
<g id="node7" class="node">
<title>dir_fc60e5b36873c7f373d7dac5754b2278</title>
<g id="a_node7"><a xlink:href="dir_fc60e5b36873c7f373d7dac5754b2278.html" target="_top" xlink:title="floatItemData">
<polygon fill="#a2b4d6" stroke="#404040" points="108,-43 24,-43 24,-24 108,-24 108,-43"/>
<text text-anchor="middle" x="66" y="-31" font-family="Helvetica,sans-Serif" font-size="10.00">floatItemData</text>
</a>
</g>
</g>
<!-- dir_223cdb8d508b79a19c2b95144d044f4d&#45;&gt;dir_fc60e5b36873c7f373d7dac5754b2278 -->
<g id="edge7" class="edge">
<title>dir_223cdb8d508b79a19c2b95144d044f4d&#45;&gt;dir_fc60e5b36873c7f373d7dac5754b2278</title>
<g id="a_edge7"><a xlink:href="dir_000054_000013.html" target="_top">
<path fill="none" stroke="#63b8ff" d="M139.02,-78.98C125.53,-70.77 104.87,-58.18 88.96,-48.49"/>
<polygon fill="#63b8ff" stroke="#63b8ff" points="90.59,-45.38 80.23,-43.17 86.95,-51.36 90.59,-45.38"/>
</a>
</g>
<g id="a_edge7&#45;headlabel"><a xlink:href="dir_000054_000013.html" target="_top" xlink:title="3">
<text text-anchor="middle" x="95.14" y="-42.33" font-family="Helvetica,sans-Serif" font-size="10.00" fill="#63b8ff">3</text>
</a>
</g>
</g>
<!-- dir_3ca4be1edb5cabe1332bbec92b525c91 -->
<g id="node8" class="node">
<title>dir_3ca4be1edb5cabe1332bbec92b525c91</title>
<g id="a_node8"><a xlink:href="dir_3ca4be1edb5cabe1332bbec92b525c91.html" target="_top" xlink:title="variables">
<polygon fill="#a2b4d6" stroke="#404040" points="188,-43 126,-43 126,-24 188,-24 188,-43"/>
<text text-anchor="middle" x="157" y="-31" font-family="Helvetica,sans-Serif" font-size="10.00">variables</text>
</a>
</g>
</g>
<!-- dir_223cdb8d508b79a19c2b95144d044f4d&#45;&gt;dir_3ca4be1edb5cabe1332bbec92b525c91 -->
<g id="edge2" class="edge">
<title>dir_223cdb8d508b79a19c2b95144d044f4d&#45;&gt;dir_3ca4be1edb5cabe1332bbec92b525c91</title>
<g id="a_edge2"><a xlink:href="dir_000054_000045.html" target="_top">
<path fill="none" stroke="#63b8ff" d="M153.66,-78.75C154.18,-71.8 154.94,-61.85 155.59,-53.13"/>
<polygon fill="#63b8ff" stroke="#63b8ff" points="159.09,-53.32 156.35,-43.09 152.11,-52.8 159.09,-53.32"/>
</a>
</g>
<g id="a_edge2&#45;headlabel"><a xlink:href="dir_000054_000045.html" target="_top" xlink:title="21">
<text text-anchor="middle" x="161.65" y="-54.62" font-family="Helvetica,sans-Serif" font-size="10.00" fill="#63b8ff">21</text>
</a>
</g>
</g>
</g>
</svg>

<g id="navigator" transform="translate(0 0)" fill="#404254">
  <rect fill="#f2f5e9" fill-opacity="0.5" stroke="#606060" stroke-width=".5" x="0" y="0" width="60" height="60"/>
  <use id="zoomplus" xlink:href="#zoomPlus" x="17" y="9" onmousedown="handleZoom(evt,'in')"/>
  <use id="zoomminus" xlink:href="#zoomMin" x="42" y="9" onmousedown="handleZoom(evt,'out')"/>
  <use id="reset" xlink:href="#resetDef" x="30" y="36" onmousedown="handleReset()"/>
   <use id="arrowup" xlink:href="#arrowUp" x="0" y="0" onmousedown="handlePan(0,-1)"/>
  <use id="arrowright" xlink:href="#arrowRight" x="0" y="0" onmousedown="handlePan(1,0)"/>
  <use id="arrowdown" xlink:href="#arrowDown" x="0" y="0" onmousedown="handlePan(0,1)"/>
  <use id="arrowleft" xlink:href="#arrowLeft" x="0" y="0" onmousedown="handlePan(-1,0)"/>
</g>
<svg viewBox="0 0 15 15" width="100%" height="30px" preserveAspectRatio="xMaxYMin meet">
 <g id="arrow_out" transform="scale(0.3 0.3)">
  <a xlink:href="dir_223cdb8d508b79a19c2b95144d044f4d_dep_org.svg" target="_base">
   <rect id="button" ry="5" rx="5" y="6" x="6" height="38" width="38"
        fill="#f2f5e9" fill-opacity="0.5" stroke="#606060" stroke-width="1.0"/>
   <path id="arrow"
     d="M 11.500037,31.436501 C 11.940474,20.09759 22.043105,11.32322 32.158766,21.979434 L 37.068811,17.246167 C 37.068811,17.246167 37.088388,32 37.088388,32 L 22.160133,31.978069 C 22.160133,31.978069 26.997745,27.140456 26.997745,27.140456 C 18.528582,18.264221 13.291696,25.230495 11.500037,31.436501 z"
     style="fill:#404040;"/>
  </a>
 </g>
</svg>

<style type='text/css'>
<![CDATA[
[data-mouse-over-selected='false'] { opacity: 0.7; }
[data-mouse-over-selected='true']  { opacity: 1.0; }
]]>
</style>
<script type="application/ecmascript"><![CDATA[
document.addEventListener('DOMContentLoaded', (event) => {
  highlightEdges();
  highlightAdjacentNodes();
});
]]></script>
</svg>
