<?xml version="1.0" encoding="UTF-8" standalone="no"?>
<!DOCTYPE svg PUBLIC "-//W3C//DTD SVG 1.1//EN"
 "http://www.w3.org/Graphics/SVG/1.1/DTD/svg11.dtd">
<!-- Generated by graphviz version 2.43.0 (0)
 -->
<!-- Title: src/libs/vwidgets Pages: 1 -->
<!--zoomable 141 -->

<svg id="main" version="1.1" xmlns="http://www.w3.org/2000/svg" xmlns:xlink="http://www.w3.org/1999/xlink" xml:space="preserve" onload="init(evt)">
<style type="text/css"><![CDATA[
.node, .edge {opacity: 0.7;}
.node.selected, .edge.selected {opacity: 1;}
.edge:hover path { stroke: red; }
.edge:hover polygon { stroke: red; fill: red; }
]]></style>

<defs>
  <circle id="rim" cx="0" cy="0" r="7"/>
  <circle id="rim2" cx="0" cy="0" r="3.5"/>
  <g id="zoomPlus">
    <use xlink:href="#rim" fill="#404040"><set attributeName="fill" to="#808080" begin="zoomplus.mouseover" end="zoomplus.mouseout"/></use>
    <path d="M-4,0h8M0,-4v8" fill="none" stroke="white" stroke-width="1.5" pointer-events="none"/>
  </g>
  <g id="zoomMin">
    <use xlink:href="#rim" fill="#404040"><set attributeName="fill" to="#808080" begin="zoomminus.mouseover" end="zoomminus.mouseout"/></use>
    <path d="M-4,0h8" fill="none" stroke="white" stroke-width="1.5" pointer-events="none"/>
  </g>
  <g id="arrowUp" transform="translate(30 24)">
    <use xlink:href="#rim"/>
    <path pointer-events="none" fill="none" stroke="white" stroke-width="1.5" d="M0,-3.0v7 M-2.5,-0.5L0,-3.0L2.5,-0.5"/>
  </g>
  <g id="arrowRight" transform="rotate(90) translate(36 -43)">
    <use xlink:href="#rim"/>
    <path pointer-events="none" fill="none" stroke="white" stroke-width="1.5" d="M0,-3.0v7 M-2.5,-0.5L0,-3.0L2.5,-0.5"/>
  </g>
  <g id="arrowDown" transform="rotate(180) translate(-30 -48)">
    <use xlink:href="#rim"/>
    <path pointer-events="none" fill="none" stroke="white" stroke-width="1.5" d="M0,-3.0v7 M-2.5,-0.5L0,-3.0L2.5,-0.5"/>
  </g>
  <g id="arrowLeft" transform="rotate(270) translate(-36 17)">
    <use xlink:href="#rim"/>
    <path pointer-events="none" fill="none" stroke="white" stroke-width="1.5" d="M0,-3.0v7 M-2.5,-0.5L0,-3.0L2.5,-0.5"/>
  </g>
  <g id="resetDef">
    <use xlink:href="#rim2" fill="#404040"><set attributeName="fill" to="#808080" begin="reset.mouseover" end="reset.mouseout"/></use>
  </g>
</defs>
<script type="application/ecmascript">
var viewWidth = 570;
var viewHeight = 141;
var sectionId = 'dynsection-0';
</script>
<script type="application/ecmascript" xlink:href="svg.min.js"/>
<svg id="graph" class="graph">
<g id="viewport">
<title>src/libs/vwidgets</title>
<g id="clust1" class="cluster">
<title>clusterdir_87a455bccb09a92130c26a11a880c98a</title>
<g id="a_clust1"><a xlink:href="dir_87a455bccb09a92130c26a11a880c98a.html" target="_top" xlink:title="libs">
<polygon fill="#edf0f7" stroke="#7f7f7f" stroke-dasharray="5,2" points="8,-8 8,-125 554,-125 554,-8 8,-8"/>
<text text-anchor="middle" x="281" y="-113" font-family="Helvetica,sans-Serif" font-size="10.00">libs</text>
</a>
</g>
</g>
<g id="clust2" class="cluster">
<title>clusterdir_fa16871e366acf28eec42e1eb99c66a0</title>
<g id="a_clust2"><a xlink:href="dir_fa16871e366acf28eec42e1eb99c66a0.html" target="_top">
<polygon fill="#edf0f7" stroke="#404040" stroke-width="2" points="163,-63 163,-98 324,-98 324,-63 163,-63"/>
</a>
</g>
</g>
<!-- dir_223cdb8d508b79a19c2b95144d044f4d -->
<g id="node1" class="node">
<title>dir_223cdb8d508b79a19c2b95144d044f4d</title>
<g id="a_node1"><a xlink:href="dir_223cdb8d508b79a19c2b95144d044f4d.html" target="_top" xlink:title="vpatterndb">
<polygon fill="#a2b4d6" stroke="red" points="86,-35 16,-35 16,-16 86,-16 86,-35"/>
<text text-anchor="middle" x="51" y="-23" font-family="Helvetica,sans-Serif" font-size="10.00">vpatterndb</text>
</a>
</g>
</g>
<!-- dir_32a5fa251366cb688c6c63d2ec2cfdfb -->
<g id="node2" class="node">
<title>dir_32a5fa251366cb688c6c63d2ec2cfdfb</title>
<g id="a_node2"><a xlink:href="dir_32a5fa251366cb688c6c63d2ec2cfdfb.html" target="_top" xlink:title="vtools">
<polygon fill="#a2b4d6" stroke="red" points="151.5,-35 104.5,-35 104.5,-16 151.5,-16 151.5,-35"/>
<text text-anchor="middle" x="128" y="-23" font-family="Helvetica,sans-Serif" font-size="10.00">vtools</text>
</a>
</g>
</g>
<!-- dir_45e7935e40ba1081fb9a668a2bba47b4 -->
<g id="node3" class="node">
<title>dir_45e7935e40ba1081fb9a668a2bba47b4</title>
<g id="a_node3"><a xlink:href="dir_45e7935e40ba1081fb9a668a2bba47b4.html" target="_top" xlink:title="vgeometry">
<polygon fill="#a2b4d6" stroke="#404040" points="240,-35 170,-35 170,-16 240,-16 240,-35"/>
<text text-anchor="middle" x="205" y="-23" font-family="Helvetica,sans-Serif" font-size="10.00">vgeometry</text>
</a>
</g>
</g>
<!-- dir_4a67e96e005fcfd63a781ee60f20496b -->
<g id="node4" class="node">
<title>dir_4a67e96e005fcfd63a781ee60f20496b</title>
<g id="a_node4"><a xlink:href="dir_4a67e96e005fcfd63a781ee60f20496b.html" target="_top" xlink:title="vlayout">
<polygon fill="#a2b4d6" stroke="#404040" points="311.5,-35 258.5,-35 258.5,-16 311.5,-16 311.5,-35"/>
<text text-anchor="middle" x="285" y="-23" font-family="Helvetica,sans-Serif" font-size="10.00">vlayout</text>
</a>
</g>
</g>
<!-- dir_6a19f0209385bcdd20d39cdd0b14d14d -->
<g id="node5" class="node">
<title>dir_6a19f0209385bcdd20d39cdd0b14d14d</title>
<g id="a_node5"><a xlink:href="dir_6a19f0209385bcdd20d39cdd0b14d14d.html" target="_top" xlink:title="vpropertyexplorer">
<polygon fill="#a2b4d6" stroke="red" points="434,-35 330,-35 330,-16 434,-16 434,-35"/>
<text text-anchor="middle" x="382" y="-23" font-family="Helvetica,sans-Serif" font-size="10.00">vpropertyexplorer</text>
</a>
</g>
</g>
<!-- dir_6cff1c16a5044c24e75e85aac7391f76 -->
<g id="node6" class="node">
<title>dir_6cff1c16a5044c24e75e85aac7391f76</title>
<g id="a_node6"><a xlink:href="dir_6cff1c16a5044c24e75e85aac7391f76.html" target="_top" xlink:title="vmisc">
<polygon fill="#a2b4d6" stroke="red" points="498,-35 452,-35 452,-16 498,-16 498,-35"/>
<text text-anchor="middle" x="475" y="-23" font-family="Helvetica,sans-Serif" font-size="10.00">vmisc</text>
</a>
</g>
</g>
<!-- dir_adb9cc6631100b6c69049e067c60c42f -->
<g id="node7" class="node">
<title>dir_adb9cc6631100b6c69049e067c60c42f</title>
<g id="a_node7"><a xlink:href="dir_adb9cc6631100b6c69049e067c60c42f.html" target="_top" xlink:title="ifc">
<polygon fill="#a2b4d6" stroke="red" points="545.5,-35 516.5,-35 516.5,-16 545.5,-16 545.5,-35"/>
<text text-anchor="middle" x="531" y="-23" font-family="Helvetica,sans-Serif" font-size="10.00">ifc</text>
</a>
</g>
</g>
<!-- dir_fa16871e366acf28eec42e1eb99c66a0 -->
<g id="node8" class="node">
<title>dir_fa16871e366acf28eec42e1eb99c66a0</title>
<text text-anchor="middle" x="285" y="-78" font-family="Helvetica,sans-Serif" font-size="10.00">vwidgets</text>
</g>
<!-- dir_fa16871e366acf28eec42e1eb99c66a0&#45;&gt;dir_223cdb8d508b79a19c2b95144d044f4d -->
<g id="edge1" class="edge">
<title>dir_fa16871e366acf28eec42e1eb99c66a0&#45;&gt;dir_223cdb8d508b79a19c2b95144d044f4d</title>
<g id="a_edge1"><a xlink:href="dir_000058_000054.html" target="_top">
<path fill="none" stroke="#63b8ff" d="M267.05,-70.94C260.53,-68.1 253.04,-65.11 246,-63 183.57,-44.25 163.83,-47.35 95.96,-35.13"/>
<polygon fill="#63b8ff" stroke="#63b8ff" points="96.53,-31.67 86.06,-33.3 95.26,-38.56 96.53,-31.67"/>
</a>
</g>
<g id="a_edge1&#45;headlabel"><a xlink:href="dir_000058_000054.html" target="_top" xlink:title="3">
<text text-anchor="middle" x="100.58" y="-27.03" font-family="Helvetica,sans-Serif" font-size="10.00" fill="#63b8ff">3</text>
</a>
</g>
</g>
<!-- dir_fa16871e366acf28eec42e1eb99c66a0&#45;&gt;dir_32a5fa251366cb688c6c63d2ec2cfdfb -->
<g id="edge2" class="edge">
<title>dir_fa16871e366acf28eec42e1eb99c66a0&#45;&gt;dir_32a5fa251366cb688c6c63d2ec2cfdfb</title>
<g id="a_edge2"><a xlink:href="dir_000058_000057.html" target="_top">
<path fill="none" stroke="#63b8ff" d="M265.71,-70.89C259.47,-68.22 252.49,-65.37 246,-63 217.8,-52.7 185.15,-42.75 161.36,-35.85"/>
<polygon fill="#63b8ff" stroke="#63b8ff" points="162.32,-32.48 151.74,-33.08 160.38,-39.21 162.32,-32.48"/>
</a>
</g>
<g id="a_edge2&#45;headlabel"><a xlink:href="dir_000058_000057.html" target="_top" xlink:title="2">
<text text-anchor="middle" x="166.56" y="-28.25" font-family="Helvetica,sans-Serif" font-size="10.00" fill="#63b8ff">2</text>
</a>
</g>
</g>
<!-- dir_fa16871e366acf28eec42e1eb99c66a0&#45;&gt;dir_45e7935e40ba1081fb9a668a2bba47b4 -->
<g id="edge3" class="edge">
<title>dir_fa16871e366acf28eec42e1eb99c66a0&#45;&gt;dir_45e7935e40ba1081fb9a668a2bba47b4</title>
<g id="a_edge3"><a xlink:href="dir_000058_000049.html" target="_top">
<path fill="none" stroke="#63b8ff" d="M272.15,-70.98C259.86,-62.84 241.09,-50.41 226.52,-40.76"/>
<polygon fill="#63b8ff" stroke="#63b8ff" points="228.36,-37.78 218.09,-35.17 224.49,-43.61 228.36,-37.78"/>
</a>
</g>
<g id="a_edge3&#45;headlabel"><a xlink:href="dir_000058_000049.html" target="_top" xlink:title="10">
<text text-anchor="middle" x="232.92" y="-34.89" font-family="Helvetica,sans-Serif" font-size="10.00" fill="#63b8ff">10</text>
</a>
</g>
</g>
<!-- dir_fa16871e366acf28eec42e1eb99c66a0&#45;&gt;dir_4a67e96e005fcfd63a781ee60f20496b -->
<g id="edge4" class="edge">
<title>dir_fa16871e366acf28eec42e1eb99c66a0&#45;&gt;dir_4a67e96e005fcfd63a781ee60f20496b</title>
<g id="a_edge4"><a xlink:href="dir_000058_000051.html" target="_top">
<path fill="none" stroke="#63b8ff" d="M285,-70.75C285,-63.8 285,-53.85 285,-45.13"/>
<polygon fill="#63b8ff" stroke="#63b8ff" points="288.5,-45.09 285,-35.09 281.5,-45.09 288.5,-45.09"/>
</a>
</g>
<g id="a_edge4&#45;headlabel"><a xlink:href="dir_000058_000051.html" target="_top" xlink:title="1">
<text text-anchor="middle" x="291.34" y="-46.18" font-family="Helvetica,sans-Serif" font-size="10.00" fill="#63b8ff">1</text>
</a>
</g>
</g>
<!-- dir_fa16871e366acf28eec42e1eb99c66a0&#45;&gt;dir_6a19f0209385bcdd20d39cdd0b14d14d -->
<g id="edge5" class="edge">
<title>dir_fa16871e366acf28eec42e1eb99c66a0&#45;&gt;dir_6a19f0209385bcdd20d39cdd0b14d14d</title>
<g id="a_edge5"><a xlink:href="dir_000058_000055.html" target="_top">
<path fill="none" stroke="#63b8ff" d="M300.58,-70.98C315.77,-62.69 339.1,-49.94 356.9,-40.22"/>
<polygon fill="#63b8ff" stroke="#63b8ff" points="359.03,-43.04 366.13,-35.17 355.68,-36.89 359.03,-43.04"/>
</a>
</g>
<g id="a_edge5&#45;headlabel"><a xlink:href="dir_000058_000055.html" target="_top" xlink:title="1">
<text text-anchor="middle" x="357.24" y="-44.75" font-family="Helvetica,sans-Serif" font-size="10.00" fill="#63b8ff">1</text>
</a>
</g>
</g>
<!-- dir_fa16871e366acf28eec42e1eb99c66a0&#45;&gt;dir_6cff1c16a5044c24e75e85aac7391f76 -->
<g id="edge6" class="edge">
<title>dir_fa16871e366acf28eec42e1eb99c66a0&#45;&gt;dir_6cff1c16a5044c24e75e85aac7391f76</title>
<g id="a_edge6"><a xlink:href="dir_000058_000052.html" target="_top">
<path fill="none" stroke="#63b8ff" d="M315.53,-70.98C350.09,-61.34 406.21,-45.69 441.83,-35.75"/>
<polygon fill="#63b8ff" stroke="#63b8ff" points="443.04,-39.05 451.73,-32.99 441.16,-32.31 443.04,-39.05"/>
</a>
</g>
<g id="a_edge6&#45;headlabel"><a xlink:href="dir_000058_000052.html" target="_top" xlink:title="56">
<text text-anchor="middle" x="440.34" y="-40.25" font-family="Helvetica,sans-Serif" font-size="10.00" fill="#63b8ff">56</text>
</a>
</g>
</g>
<!-- dir_fa16871e366acf28eec42e1eb99c66a0&#45;&gt;dir_adb9cc6631100b6c69049e067c60c42f -->
<g id="edge7" class="edge">
<title>dir_fa16871e366acf28eec42e1eb99c66a0&#45;&gt;dir_adb9cc6631100b6c69049e067c60c42f</title>
<g id="a_edge7"><a xlink:href="dir_000058_000014.html" target="_top">
<path fill="none" stroke="#63b8ff" d="M315.85,-74.75C357.17,-68.07 432.87,-54.76 506.48,-34.78"/>
<polygon fill="#63b8ff" stroke="#63b8ff" points="507.67,-38.08 516.38,-32.05 505.81,-31.34 507.67,-38.08"/>
</a>
</g>
<g id="a_edge7&#45;headlabel"><a xlink:href="dir_000058_000014.html" target="_top" xlink:title="8">
<text text-anchor="middle" x="504.96" y="-39.28" font-family="Helvetica,sans-Serif" font-size="10.00" fill="#63b8ff">8</text>
</a>
</g>
</g>
<!-- dir_6f67c4fc059510090b39fc442429035f -->
<g id="node9" class="node">
<title>dir_6f67c4fc059510090b39fc442429035f</title>
<g id="a_node9"><a xlink:href="dir_6f67c4fc059510090b39fc442429035f.html" target="_top" xlink:title="calculator">
<polygon fill="#a2b4d6" stroke="#404040" points="236.5,-90 171.5,-90 171.5,-71 236.5,-71 236.5,-90"/>
<text text-anchor="middle" x="204" y="-78" font-family="Helvetica,sans-Serif" font-size="10.00">calculator</text>
</a>
</g>
</g>
</g>
</svg>

<g id="navigator" transform="translate(0 0)" fill="#404254">
  <rect fill="#f2f5e9" fill-opacity="0.5" stroke="#606060" stroke-width=".5" x="0" y="0" width="60" height="60"/>
  <use id="zoomplus" xlink:href="#zoomPlus" x="17" y="9" onmousedown="handleZoom(evt,'in')"/>
  <use id="zoomminus" xlink:href="#zoomMin" x="42" y="9" onmousedown="handleZoom(evt,'out')"/>
  <use id="reset" xlink:href="#resetDef" x="30" y="36" onmousedown="handleReset()"/>
   <use id="arrowup" xlink:href="#arrowUp" x="0" y="0" onmousedown="handlePan(0,-1)"/>
  <use id="arrowright" xlink:href="#arrowRight" x="0" y="0" onmousedown="handlePan(1,0)"/>
  <use id="arrowdown" xlink:href="#arrowDown" x="0" y="0" onmousedown="handlePan(0,1)"/>
  <use id="arrowleft" xlink:href="#arrowLeft" x="0" y="0" onmousedown="handlePan(-1,0)"/>
</g>
<svg viewBox="0 0 15 15" width="100%" height="30px" preserveAspectRatio="xMaxYMin meet">
 <g id="arrow_out" transform="scale(0.3 0.3)">
  <a xlink:href="dir_fa16871e366acf28eec42e1eb99c66a0_dep_org.svg" target="_base">
   <rect id="button" ry="5" rx="5" y="6" x="6" height="38" width="38"
        fill="#f2f5e9" fill-opacity="0.5" stroke="#606060" stroke-width="1.0"/>
   <path id="arrow"
     d="M 11.500037,31.436501 C 11.940474,20.09759 22.043105,11.32322 32.158766,21.979434 L 37.068811,17.246167 C 37.068811,17.246167 37.088388,32 37.088388,32 L 22.160133,31.978069 C 22.160133,31.978069 26.997745,27.140456 26.997745,27.140456 C 18.528582,18.264221 13.291696,25.230495 11.500037,31.436501 z"
     style="fill:#404040;"/>
  </a>
 </g>
</svg>

<style type='text/css'>
<![CDATA[
[data-mouse-over-selected='false'] { opacity: 0.7; }
[data-mouse-over-selected='true']  { opacity: 1.0; }
]]>
</style>
<script type="application/ecmascript"><![CDATA[
document.addEventListener('DOMContentLoaded', (event) => {
  highlightEdges();
  highlightAdjacentNodes();
});
]]></script>
</svg>
