<?xml version="1.0" encoding="UTF-8" standalone="no"?>
<!DOCTYPE svg PUBLIC "-//W3C//DTD SVG 1.1//EN"
 "http://www.w3.org/Graphics/SVG/1.1/DTD/svg11.dtd">
<!-- Generated by graphviz version 2.43.0 (0)
 -->
<!-- Title: Graphical Class Hierarchy Pages: 1 -->
<svg width="420pt" height="64pt"
 viewBox="0.00 0.00 420.00 64.00" xmlns="http://www.w3.org/2000/svg" xmlns:xlink="http://www.w3.org/1999/xlink">
<g id="graph0" class="graph" transform="scale(1 1) rotate(0) translate(4 60)">
<title>Graphical Class Hierarchy</title>
<!-- Node0 -->
<g id="Node000000" class="node">
<title>Node0</title>
<g id="a_Node000000"><a xlink:href="d4/dc0/classVAbstractFloatItemData.html" target="_top" xlink:title=" ">
<polygon fill="white" stroke="#666666" points="134,-37 0,-37 0,-18 134,-18 134,-37"/>
<text text-anchor="middle" x="67" y="-25" font-family="Helvetica,sans-Serif" font-size="10.00">VAbstractFloatItemData</text>
</a>
</g>
</g>
<!-- Node1 -->
<g id="Node000001" class="node">
<title>Node1</title>
<g id="a_Node000001"><a xlink:href="da/d7f/classVGrainlineData.html" target="_top" xlink:title="The VGrainlineData class holds information about a grainline like position, size, rotation and visibi...">
<polygon fill="white" stroke="#666666" points="269,-56 178,-56 178,-37 269,-37 269,-56"/>
<text text-anchor="middle" x="223.5" y="-44" font-family="Helvetica,sans-Serif" font-size="10.00">VGrainlineData</text>
</a>
</g>
</g>
<!-- Node0&#45;&gt;Node1 -->
<g id="edge416_Node000000_Node000001" class="edge">
<title>Node0&#45;&gt;Node1</title>
<g id="a_edge416_Node000000_Node000001"><a xlink:title=" ">
<path fill="none" stroke="#63b8ff" d="M144.48,-36.91C155.97,-38.32 167.48,-39.73 177.99,-41.03"/>
<polygon fill="#63b8ff" stroke="#63b8ff" points="144.77,-33.41 134.42,-35.67 143.92,-40.36 144.77,-33.41"/>
</a>
</g>
</g>
<!-- Node2 -->
<g id="Node000002" class="node">
<title>Node2</title>
<g id="a_Node000002"><a xlink:href="df/da3/classVPatternLabelData.html" target="_top" xlink:title="The VPatternLabelData class holds the information about pattern info label geometry.">
<polygon fill="white" stroke="#666666" points="277,-19 170,-19 170,0 277,0 277,-19"/>
<text text-anchor="middle" x="223.5" y="-7" font-family="Helvetica,sans-Serif" font-size="10.00">VPatternLabelData</text>
</a>
</g>
</g>
<!-- Node0&#45;&gt;Node2 -->
<g id="edge417_Node000000_Node000002" class="edge">
<title>Node0&#45;&gt;Node2</title>
<g id="a_edge417_Node000000_Node000002"><a xlink:title=" ">
<path fill="none" stroke="#63b8ff" d="M144.41,-18.6C152.95,-17.6 161.5,-16.61 169.65,-15.66"/>
<polygon fill="#63b8ff" stroke="#63b8ff" points="143.95,-15.13 134.42,-19.76 144.76,-22.08 143.95,-15.13"/>
</a>
</g>
</g>
<!-- Node3 -->
<g id="Node000003" class="node">
<title>Node3</title>
<g id="a_Node000003"><a xlink:href="de/d3b/classVPieceLabelData.html" target="_top" xlink:title="The VPieceLabelData class holds some information about a single piece like letter,...">
<polygon fill="white" stroke="#666666" points="412,-19 313,-19 313,0 412,0 412,-19"/>
<text text-anchor="middle" x="362.5" y="-7" font-family="Helvetica,sans-Serif" font-size="10.00">VPieceLabelData</text>
</a>
</g>
</g>
<!-- Node2&#45;&gt;Node3 -->
<g id="edge418_Node000002_Node000003" class="edge">
<title>Node2&#45;&gt;Node3</title>
<g id="a_edge418_Node000002_Node000003"><a xlink:title=" ">
<path fill="none" stroke="#63b8ff" d="M287.13,-9.5C295.78,-9.5 304.55,-9.5 312.89,-9.5"/>
<polygon fill="#63b8ff" stroke="#63b8ff" points="287.08,-6 277.08,-9.5 287.08,-13 287.08,-6"/>
</a>
</g>
</g>
</g>
</svg>
