<?xml version="1.0" encoding="UTF-8" standalone="no"?>
<!DOCTYPE svg PUBLIC "-//W3C//DTD SVG 1.1//EN"
 "http://www.w3.org/Graphics/SVG/1.1/DTD/svg11.dtd">
<!-- Generated by graphviz version 2.43.0 (0)
 -->
<!-- Title: src/libs/qmuparser/qmutokenparser.h Pages: 1 -->
<svg width="1737pt" height="478pt"
 viewBox="0.00 0.00 1737.00 478.00" xmlns="http://www.w3.org/2000/svg" xmlns:xlink="http://www.w3.org/1999/xlink">
<g id="graph0" class="graph" transform="scale(1 1) rotate(0) translate(4 474)">
<title>src/libs/qmuparser/qmutokenparser.h</title>
<!-- Node1 -->
<g id="Node000001" class="node">
<title>Node1</title>
<g id="a_Node000001"><a xlink:title=" ">
<polygon fill="#999999" stroke="#666666" points="1702.5,-470 1595.5,-470 1595.5,-440 1702.5,-440 1702.5,-470"/>
<text text-anchor="start" x="1603.5" y="-458" font-family="Helvetica,sans-Serif" font-size="10.00">src/libs/qmuparser</text>
<text text-anchor="middle" x="1649" y="-447" font-family="Helvetica,sans-Serif" font-size="10.00">/qmutokenparser.h</text>
</a>
</g>
</g>
<!-- Node2 -->
<g id="Node000002" class="node">
<title>Node2</title>
<g id="a_Node000002"><a xlink:title=" ">
<polygon fill="#e0e0e0" stroke="#999999" points="1504,-74 1384,-74 1384,-55 1504,-55 1504,-74"/>
<text text-anchor="middle" x="1444" y="-62" font-family="Helvetica,sans-Serif" font-size="10.00">qcompilerdetection.h</text>
</a>
</g>
</g>
<!-- Node1&#45;&gt;Node2 -->
<g id="edge1_Node000001_Node000002" class="edge">
<title>Node1&#45;&gt;Node2</title>
<g id="a_edge1_Node000001_Node000002"><a xlink:title=" ">
<path fill="none" stroke="#63b8ff" d="M1658.73,-439.9C1667.06,-426.07 1677,-404.31 1672,-385 1644,-276.76 1605.23,-262.21 1550,-165 1536.03,-140.41 1537.85,-130.14 1518,-110 1505.22,-97.04 1487.92,-86.36 1473.26,-78.72"/>
<polygon fill="#63b8ff" stroke="#63b8ff" points="1474.59,-75.47 1464.08,-74.14 1471.47,-81.74 1474.59,-75.47"/>
</a>
</g>
</g>
<!-- Node3 -->
<g id="Node000003" class="node">
<title>Node3</title>
<g id="a_Node000003"><a xlink:title=" ">
<polygon fill="#e0e0e0" stroke="#999999" points="995.5,-19 942.5,-19 942.5,0 995.5,0 995.5,-19"/>
<text text-anchor="middle" x="969" y="-7" font-family="Helvetica,sans-Serif" font-size="10.00">QString</text>
</a>
</g>
</g>
<!-- Node1&#45;&gt;Node3 -->
<g id="edge2_Node000001_Node000003" class="edge">
<title>Node1&#45;&gt;Node3</title>
<g id="a_edge2_Node000001_Node000003"><a xlink:title=" ">
<path fill="none" stroke="#63b8ff" d="M1667.96,-439.77C1691.62,-420.24 1729,-382.69 1729,-340.5 1729,-340.5 1729,-340.5 1729,-118.5 1729,-62.82 1674.2,-71.45 1621,-55 1504.73,-19.06 1125.47,-12.1 1005.64,-10.8"/>
<polygon fill="#63b8ff" stroke="#63b8ff" points="1005.55,-7.29 995.51,-10.69 1005.48,-14.29 1005.55,-7.29"/>
</a>
</g>
</g>
<!-- Node4 -->
<g id="Node000004" class="node">
<title>Node4</title>
<g id="a_Node000004"><a xlink:title=" ">
<polygon fill="#e0e0e0" stroke="#999999" points="1226.5,-74 1167.5,-74 1167.5,-55 1226.5,-55 1226.5,-74"/>
<text text-anchor="middle" x="1197" y="-62" font-family="Helvetica,sans-Serif" font-size="10.00">QtGlobal</text>
</a>
</g>
</g>
<!-- Node1&#45;&gt;Node4 -->
<g id="edge3_Node000001_Node000004" class="edge">
<title>Node1&#45;&gt;Node4</title>
<g id="a_edge3_Node000001_Node000004"><a xlink:title=" ">
<path fill="none" stroke="#63b8ff" d="M1595.24,-448.68C1493.3,-437.1 1282,-405.28 1282,-340.5 1282,-340.5 1282,-340.5 1282,-283.5 1282,-204.04 1232.37,-118.73 1208.96,-82.91"/>
<polygon fill="#63b8ff" stroke="#63b8ff" points="1211.58,-80.53 1203.11,-74.16 1205.76,-84.42 1211.58,-80.53"/>
</a>
</g>
</g>
<!-- Node5 -->
<g id="Node000005" class="node">
<title>Node5</title>
<g id="a_Node000005"><a xlink:href="../../d7/da3/qmuformulabase_8h.html" target="_top" xlink:title=" ">
<polygon fill="white" stroke="#666666" points="1662.5,-404 1553.5,-404 1553.5,-385 1662.5,-385 1662.5,-404"/>
<text text-anchor="middle" x="1608" y="-392" font-family="Helvetica,sans-Serif" font-size="10.00">qmuformulabase.h</text>
</a>
</g>
</g>
<!-- Node1&#45;&gt;Node5 -->
<g id="edge4_Node000001_Node000005" class="edge">
<title>Node1&#45;&gt;Node5</title>
<g id="a_edge4_Node000001_Node000005"><a xlink:title=" ">
<path fill="none" stroke="#63b8ff" d="M1639.08,-439.84C1633.31,-431.61 1626,-421.18 1619.92,-412.51"/>
<polygon fill="#63b8ff" stroke="#63b8ff" points="1622.75,-410.45 1614.14,-404.27 1617.02,-414.46 1622.75,-410.45"/>
</a>
</g>
</g>
<!-- Node5&#45;&gt;Node2 -->
<g id="edge5_Node000005_Node000002" class="edge">
<title>Node5&#45;&gt;Node2</title>
<g id="a_edge5_Node000005_Node000002"><a xlink:title=" ">
<path fill="none" stroke="#63b8ff" d="M1606.33,-384.85C1598.96,-348.43 1566.65,-204.99 1498,-110 1489.55,-98.31 1477.32,-87.89 1466.63,-80.08"/>
<polygon fill="#63b8ff" stroke="#63b8ff" points="1468.35,-77 1458.14,-74.16 1464.34,-82.74 1468.35,-77"/>
</a>
</g>
</g>
<!-- Node5&#45;&gt;Node3 -->
<g id="edge6_Node000005_Node000003" class="edge">
<title>Node5&#45;&gt;Node3</title>
<g id="a_edge6_Node000005_Node000003"><a xlink:title=" ">
<path fill="none" stroke="#63b8ff" d="M1613.97,-384.82C1633,-356.27 1691,-262.16 1691,-175.5 1691,-175.5 1691,-175.5 1691,-118.5 1691,-49.37 1616.01,-72.01 1549,-55 1445.4,-28.71 1116.59,-15.47 1005.83,-11.68"/>
<polygon fill="#63b8ff" stroke="#63b8ff" points="1005.92,-8.18 995.81,-11.34 1005.68,-15.17 1005.92,-8.18"/>
</a>
</g>
</g>
<!-- Node5&#45;&gt;Node4 -->
<g id="edge7_Node000005_Node000004" class="edge">
<title>Node5&#45;&gt;Node4</title>
<g id="a_edge7_Node000005_Node000004"><a xlink:title=" ">
<path fill="none" stroke="#63b8ff" d="M1601,-384.89C1570.15,-347.39 1441.78,-196.38 1307,-110 1285.04,-95.93 1257.9,-84.89 1236.07,-77.33"/>
<polygon fill="#63b8ff" stroke="#63b8ff" points="1237.04,-73.96 1226.45,-74.1 1234.82,-80.6 1237.04,-73.96"/>
</a>
</g>
</g>
<!-- Node6 -->
<g id="Node000006" class="node">
<title>Node6</title>
<g id="a_Node000006"><a xlink:href="../../d6/dc3/qmuparser_8h.html" target="_top" xlink:title="Definition of the standard floating point parser.">
<polygon fill="white" stroke="#666666" points="1387.5,-349 1310.5,-349 1310.5,-330 1387.5,-330 1387.5,-349"/>
<text text-anchor="middle" x="1349" y="-337" font-family="Helvetica,sans-Serif" font-size="10.00">qmuparser.h</text>
</a>
</g>
</g>
<!-- Node5&#45;&gt;Node6 -->
<g id="edge8_Node000005_Node000006" class="edge">
<title>Node5&#45;&gt;Node6</title>
<g id="a_edge8_Node000005_Node000006"><a xlink:title=" ">
<path fill="none" stroke="#63b8ff" d="M1566.39,-384.98C1520.33,-375.56 1446.19,-360.39 1397.53,-350.43"/>
<polygon fill="#63b8ff" stroke="#63b8ff" points="1398.05,-346.96 1387.55,-348.39 1396.65,-353.82 1398.05,-346.96"/>
</a>
</g>
</g>
<!-- Node6&#45;&gt;Node2 -->
<g id="edge9_Node000006_Node000002" class="edge">
<title>Node6&#45;&gt;Node2</title>
<g id="a_edge9_Node000006_Node000002"><a xlink:title=" ">
<path fill="none" stroke="#63b8ff" d="M1385.02,-329.92C1429.97,-316.82 1501,-287.15 1501,-230.5 1501,-230.5 1501,-230.5 1501,-173.5 1501,-137.51 1475.94,-101.76 1459.05,-81.76"/>
<polygon fill="#63b8ff" stroke="#63b8ff" points="1461.64,-79.4 1452.41,-74.2 1456.38,-84.02 1461.64,-79.4"/>
</a>
</g>
</g>
<!-- Node6&#45;&gt;Node3 -->
<g id="edge10_Node000006_Node000003" class="edge">
<title>Node6&#45;&gt;Node3</title>
<g id="a_edge10_Node000006_Node000003"><a xlink:title=" ">
<path fill="none" stroke="#63b8ff" d="M1387.56,-336.51C1418.97,-332.75 1462.06,-322.35 1487,-294 1558.19,-213.09 1601.12,-134.17 1528,-55 1492.61,-16.69 1124.81,-11.33 1005.88,-10.61"/>
<polygon fill="#63b8ff" stroke="#63b8ff" points="1005.82,-7.11 995.8,-10.55 1005.78,-14.11 1005.82,-7.11"/>
</a>
</g>
</g>
<!-- Node6&#45;&gt;Node4 -->
<g id="edge11_Node000006_Node000004" class="edge">
<title>Node6&#45;&gt;Node4</title>
<g id="a_edge11_Node000006_Node000004"><a xlink:title=" ">
<path fill="none" stroke="#63b8ff" d="M1349.07,-329.92C1348.9,-297.32 1344.18,-179.53 1287,-110 1274.01,-94.21 1254.04,-83.55 1236.2,-76.63"/>
<polygon fill="#63b8ff" stroke="#63b8ff" points="1237.16,-73.26 1226.57,-73.16 1234.79,-79.84 1237.16,-73.26"/>
</a>
</g>
</g>
<!-- Node7 -->
<g id="Node000007" class="node">
<title>Node7</title>
<g id="a_Node000007"><a xlink:title=" ">
<polygon fill="#e0e0e0" stroke="#999999" points="61,-19 15,-19 15,0 61,0 61,-19"/>
<text text-anchor="middle" x="38" y="-7" font-family="Helvetica,sans-Serif" font-size="10.00">locale</text>
</a>
</g>
</g>
<!-- Node6&#45;&gt;Node7 -->
<g id="edge12_Node000006_Node000007" class="edge">
<title>Node6&#45;&gt;Node7</title>
<g id="a_edge12_Node000006_Node000007"><a xlink:title=" ">
<path fill="none" stroke="#63b8ff" d="M1310.44,-337.48C1090.08,-331.43 0,-298.09 0,-230.5 0,-230.5 0,-230.5 0,-118.5 0,-85.02 16.45,-48.84 27.7,-28.01"/>
<polygon fill="#63b8ff" stroke="#63b8ff" points="30.87,-29.53 32.72,-19.1 24.76,-26.1 30.87,-29.53"/>
</a>
</g>
</g>
<!-- Node8 -->
<g id="Node000008" class="node">
<title>Node8</title>
<g id="a_Node000008"><a xlink:href="../../df/d18/qmuparserbase_8h.html" target="_top" xlink:title="This file contains the class definition of the qmuparser engine.">
<polygon fill="white" stroke="#666666" points="859.5,-294 758.5,-294 758.5,-275 859.5,-275 859.5,-294"/>
<text text-anchor="middle" x="809" y="-282" font-family="Helvetica,sans-Serif" font-size="10.00">qmuparserbase.h</text>
</a>
</g>
</g>
<!-- Node6&#45;&gt;Node8 -->
<g id="edge13_Node000006_Node000008" class="edge">
<title>Node6&#45;&gt;Node8</title>
<g id="a_edge13_Node000006_Node000008"><a xlink:title=" ">
<path fill="none" stroke="#63b8ff" d="M1310.16,-334.69C1217.3,-325.57 981.81,-302.46 869.88,-291.48"/>
<polygon fill="#63b8ff" stroke="#63b8ff" points="870.07,-287.98 859.77,-290.48 869.38,-294.94 870.07,-287.98"/>
</a>
</g>
</g>
<!-- Node8&#45;&gt;Node2 -->
<g id="edge15_Node000008_Node000002" class="edge">
<title>Node8&#45;&gt;Node2</title>
<g id="a_edge15_Node000008_Node000002"><a xlink:title=" ">
<path fill="none" stroke="#63b8ff" d="M859.65,-281.6C955.57,-277.41 1159.96,-265.61 1225,-239 1314.36,-202.45 1397.15,-117.85 1429.57,-82.02"/>
<polygon fill="#63b8ff" stroke="#63b8ff" points="1432.33,-84.18 1436.37,-74.39 1427.11,-79.52 1432.33,-84.18"/>
</a>
</g>
</g>
<!-- Node8&#45;&gt;Node3 -->
<g id="edge19_Node000008_Node000003" class="edge">
<title>Node8&#45;&gt;Node3</title>
<g id="a_edge19_Node000008_Node000003"><a xlink:title=" ">
<path fill="none" stroke="#63b8ff" d="M859.69,-283.83C943.75,-283.21 1116.64,-276.88 1257,-239 1370.67,-208.32 1421.75,-218.72 1498,-129 1514.41,-109.69 1509.64,-99.11 1513,-74 1514.12,-65.63 1518.72,-61.21 1513,-55 1478.71,-17.79 1122.98,-11.69 1006.03,-10.7"/>
<polygon fill="#63b8ff" stroke="#63b8ff" points="1005.82,-7.19 995.8,-10.62 1005.77,-14.19 1005.82,-7.19"/>
</a>
</g>
</g>
<!-- Node8&#45;&gt;Node4 -->
<g id="edge22_Node000008_Node000004" class="edge">
<title>Node8&#45;&gt;Node4</title>
<g id="a_edge22_Node000008_Node000004"><a xlink:title=" ">
<path fill="none" stroke="#63b8ff" d="M859.63,-276.19C950.91,-262.05 1138,-228.39 1185,-184 1210.04,-160.35 1212.16,-144.19 1208,-110 1206.94,-101.31 1204.76,-91.87 1202.62,-83.93"/>
<polygon fill="#63b8ff" stroke="#63b8ff" points="1205.96,-82.89 1199.83,-74.25 1199.23,-84.83 1205.96,-82.89"/>
</a>
</g>
</g>
<!-- Node9 -->
<g id="Node000009" class="node">
<title>Node9</title>
<g id="a_Node000009"><a xlink:title=" ">
<polygon fill="#e0e0e0" stroke="#999999" points="1215.5,-239 1162.5,-239 1162.5,-220 1215.5,-220 1215.5,-239"/>
<text text-anchor="middle" x="1189" y="-227" font-family="Helvetica,sans-Serif" font-size="10.00">limits.h</text>
</a>
</g>
</g>
<!-- Node8&#45;&gt;Node9 -->
<g id="edge14_Node000008_Node000009" class="edge">
<title>Node8&#45;&gt;Node9</title>
<g id="a_edge14_Node000008_Node000009"><a xlink:title=" ">
<path fill="none" stroke="#63b8ff" d="M859.72,-278.03C926.15,-270.59 1046.16,-256.22 1148,-239 1149.29,-238.78 1150.6,-238.55 1151.92,-238.31"/>
<polygon fill="#63b8ff" stroke="#63b8ff" points="1152.98,-241.68 1162.15,-236.36 1151.67,-234.8 1152.98,-241.68"/>
</a>
</g>
</g>
<!-- Node10 -->
<g id="Node000010" class="node">
<title>Node10</title>
<g id="a_Node000010"><a xlink:title=" ">
<polygon fill="#e0e0e0" stroke="#999999" points="1018.5,-129 971.5,-129 971.5,-110 1018.5,-110 1018.5,-129"/>
<text text-anchor="middle" x="995" y="-117" font-family="Helvetica,sans-Serif" font-size="10.00">QChar</text>
</a>
</g>
</g>
<!-- Node8&#45;&gt;Node10 -->
<g id="edge16_Node000008_Node000010" class="edge">
<title>Node8&#45;&gt;Node10</title>
<g id="a_edge16_Node000008_Node000010"><a xlink:title=" ">
<path fill="none" stroke="#63b8ff" d="M859.62,-277.61C906.62,-271.01 971.74,-258.58 988,-239 1011.4,-210.83 1005.69,-164.67 1000,-139.07"/>
<polygon fill="#63b8ff" stroke="#63b8ff" points="1003.36,-138.06 997.58,-129.18 996.56,-139.72 1003.36,-138.06"/>
</a>
</g>
</g>
<!-- Node11 -->
<g id="Node000011" class="node">
<title>Node11</title>
<g id="a_Node000011"><a xlink:title=" ">
<polygon fill="#e0e0e0" stroke="#999999" points="148.5,-19 103.5,-19 103.5,0 148.5,0 148.5,-19"/>
<text text-anchor="middle" x="126" y="-7" font-family="Helvetica,sans-Serif" font-size="10.00">QMap</text>
</a>
</g>
</g>
<!-- Node8&#45;&gt;Node11 -->
<g id="edge17_Node000008_Node000011" class="edge">
<title>Node8&#45;&gt;Node11</title>
<g id="a_edge17_Node000008_Node000011"><a xlink:title=" ">
<path fill="none" stroke="#63b8ff" d="M758.33,-281.38C592.41,-273.79 76,-244.6 76,-175.5 76,-175.5 76,-175.5 76,-118.5 76,-83.56 97.82,-47.66 112.63,-27.31"/>
<polygon fill="#63b8ff" stroke="#63b8ff" points="115.59,-29.2 118.84,-19.11 110.01,-24.97 115.59,-29.2"/>
</a>
</g>
</g>
<!-- Node12 -->
<g id="Node000012" class="node">
<title>Node12</title>
<g id="a_Node000012"><a xlink:title=" ">
<polygon fill="#e0e0e0" stroke="#999999" points="538.5,-239 487.5,-239 487.5,-220 538.5,-220 538.5,-239"/>
<text text-anchor="middle" x="513" y="-227" font-family="Helvetica,sans-Serif" font-size="10.00">QStack</text>
</a>
</g>
</g>
<!-- Node8&#45;&gt;Node12 -->
<g id="edge18_Node000008_Node000012" class="edge">
<title>Node8&#45;&gt;Node12</title>
<g id="a_edge18_Node000008_Node000012"><a xlink:title=" ">
<path fill="none" stroke="#63b8ff" d="M758.28,-275.92C707.71,-268.12 627.61,-255.13 548.69,-239.01"/>
<polygon fill="#63b8ff" stroke="#63b8ff" points="549.07,-235.52 538.57,-236.93 547.66,-242.37 549.07,-235.52"/>
</a>
</g>
</g>
<!-- Node13 -->
<g id="Node000013" class="node">
<title>Node13</title>
<g id="a_Node000013"><a xlink:title=" ">
<polygon fill="#e0e0e0" stroke="#999999" points="627,-239 557,-239 557,-220 627,-220 627,-239"/>
<text text-anchor="middle" x="592" y="-227" font-family="Helvetica,sans-Serif" font-size="10.00">QStringList</text>
</a>
</g>
</g>
<!-- Node8&#45;&gt;Node13 -->
<g id="edge20_Node000008_Node000013" class="edge">
<title>Node8&#45;&gt;Node13</title>
<g id="a_edge20_Node000008_Node000013"><a xlink:title=" ">
<path fill="none" stroke="#63b8ff" d="M774.14,-274.98C736.91,-265.89 677.8,-251.46 637.07,-241.51"/>
<polygon fill="#63b8ff" stroke="#63b8ff" points="637.68,-238.05 627.14,-239.08 636.02,-244.85 637.68,-238.05"/>
</a>
</g>
</g>
<!-- Node14 -->
<g id="Node000014" class="node">
<title>Node14</title>
<g id="a_Node000014"><a xlink:title=" ">
<polygon fill="#e0e0e0" stroke="#999999" points="749.5,-74 694.5,-74 694.5,-55 749.5,-55 749.5,-74"/>
<text text-anchor="middle" x="722" y="-62" font-family="Helvetica,sans-Serif" font-size="10.00">QVector</text>
</a>
</g>
</g>
<!-- Node8&#45;&gt;Node14 -->
<g id="edge21_Node000008_Node000014" class="edge">
<title>Node8&#45;&gt;Node14</title>
<g id="a_edge21_Node000008_Node000014"><a xlink:title=" ">
<path fill="none" stroke="#63b8ff" d="M758.41,-283.43C670.59,-282.32 494.74,-275.47 447,-239 405.03,-206.93 412.19,-180.83 402,-129 400.37,-120.71 396.43,-116.34 402,-110 443.12,-63.21 618.54,-84.18 680,-74 681.47,-73.76 682.96,-73.5 684.47,-73.23"/>
<polygon fill="#63b8ff" stroke="#63b8ff" points="685.3,-76.64 694.49,-71.36 684.02,-69.76 685.3,-76.64"/>
</a>
</g>
</g>
<!-- Node15 -->
<g id="Node000015" class="node">
<title>Node15</title>
<g id="a_Node000015"><a xlink:title=" ">
<polygon fill="#e0e0e0" stroke="#999999" points="469,-129 411,-129 411,-110 469,-110 469,-129"/>
<text text-anchor="middle" x="440" y="-117" font-family="Helvetica,sans-Serif" font-size="10.00">memory</text>
</a>
</g>
</g>
<!-- Node8&#45;&gt;Node15 -->
<g id="edge23_Node000008_Node000015" class="edge">
<title>Node8&#45;&gt;Node15</title>
<g id="a_edge23_Node000008_Node000015"><a xlink:title=" ">
<path fill="none" stroke="#63b8ff" d="M758.22,-283.88C673.05,-283.42 506.64,-277.46 465,-239 437.42,-213.52 436.15,-165.93 437.91,-139.47"/>
<polygon fill="#63b8ff" stroke="#63b8ff" points="441.42,-139.52 438.81,-129.25 434.44,-138.91 441.42,-139.52"/>
</a>
</g>
</g>
<!-- Node16 -->
<g id="Node000016" class="node">
<title>Node16</title>
<g id="a_Node000016"><a xlink:title=" ">
<polygon fill="#e0e0e0" stroke="#999999" points="531,-129 487,-129 487,-110 531,-110 531,-129"/>
<text text-anchor="middle" x="509" y="-117" font-family="Helvetica,sans-Serif" font-size="10.00">string</text>
</a>
</g>
</g>
<!-- Node8&#45;&gt;Node16 -->
<g id="edge24_Node000008_Node000016" class="edge">
<title>Node8&#45;&gt;Node16</title>
<g id="a_edge24_Node000008_Node000016"><a xlink:title=" ">
<path fill="none" stroke="#63b8ff" d="M758.42,-284.41C675.12,-284.71 514.67,-279.8 479,-239 453.62,-209.97 479.38,-162.46 496.47,-137.32"/>
<polygon fill="#63b8ff" stroke="#63b8ff" points="499.33,-139.33 502.26,-129.15 493.62,-135.28 499.33,-139.33"/>
</a>
</g>
</g>
<!-- Node17 -->
<g id="Node000017" class="node">
<title>Node17</title>
<g id="a_Node000017"><a xlink:title=" ">
<polygon fill="#e0e0e0" stroke="#999999" points="1093,-129 1037,-129 1037,-110 1093,-110 1093,-129"/>
<text text-anchor="middle" x="1065" y="-117" font-family="Helvetica,sans-Serif" font-size="10.00">QLocale</text>
</a>
</g>
</g>
<!-- Node8&#45;&gt;Node17 -->
<g id="edge25_Node000008_Node000017" class="edge">
<title>Node8&#45;&gt;Node17</title>
<g id="a_edge25_Node000008_Node000017"><a xlink:title=" ">
<path fill="none" stroke="#63b8ff" d="M859.67,-283.87C903.05,-281.65 964.97,-272.19 1007,-239 1039.25,-213.54 1054.78,-165.58 1061.19,-139.15"/>
<polygon fill="#63b8ff" stroke="#63b8ff" points="1064.63,-139.79 1063.4,-129.27 1057.8,-138.27 1064.63,-139.79"/>
</a>
</g>
</g>
<!-- Node18 -->
<g id="Node000018" class="node">
<title>Node18</title>
<g id="a_Node000018"><a xlink:href="../../dd/da6/qmuparserbytecode_8h.html" target="_top" xlink:title="Definition of the parser bytecode class.">
<polygon fill="white" stroke="#666666" points="960.5,-239 837.5,-239 837.5,-220 960.5,-220 960.5,-239"/>
<text text-anchor="middle" x="899" y="-227" font-family="Helvetica,sans-Serif" font-size="10.00">qmuparserbytecode.h</text>
</a>
</g>
</g>
<!-- Node8&#45;&gt;Node18 -->
<g id="edge26_Node000008_Node000018" class="edge">
<title>Node8&#45;&gt;Node18</title>
<g id="a_edge26_Node000008_Node000018"><a xlink:title=" ">
<path fill="none" stroke="#63b8ff" d="M823.46,-274.98C837.42,-266.77 858.79,-254.18 875.25,-244.49"/>
<polygon fill="#63b8ff" stroke="#63b8ff" points="877.44,-247.26 884.28,-239.17 873.88,-241.23 877.44,-247.26"/>
</a>
</g>
</g>
<!-- Node20 -->
<g id="Node000020" class="node">
<title>Node20</title>
<g id="a_Node000020"><a xlink:href="../../de/d28/qmuparserdef_8h.html" target="_top" xlink:title="This file contains standard definitions used by the parser.">
<polygon fill="white" stroke="#666666" points="197.5,-74 104.5,-74 104.5,-55 197.5,-55 197.5,-74"/>
<text text-anchor="middle" x="151" y="-62" font-family="Helvetica,sans-Serif" font-size="10.00">qmuparserdef.h</text>
</a>
</g>
</g>
<!-- Node8&#45;&gt;Node20 -->
<g id="edge64_Node000008_Node000020" class="edge">
<title>Node8&#45;&gt;Node20</title>
<g id="a_edge64_Node000008_Node000020"><a xlink:title=" ">
<path fill="none" stroke="#63b8ff" d="M758.27,-281.49C654,-276.9 419.03,-264.05 343,-239 252.87,-209.31 212.42,-208.11 160,-129 151.26,-115.8 149.45,-97.68 149.57,-84.17"/>
<polygon fill="#63b8ff" stroke="#63b8ff" points="153.07,-84.26 150.02,-74.12 146.08,-83.95 153.07,-84.26"/>
</a>
</g>
</g>
<!-- Node22 -->
<g id="Node000022" class="node">
<title>Node22</title>
<g id="a_Node000022"><a xlink:href="../../d7/ddf/qmuparsertoken_8h.html" target="_top" xlink:title="This file contains the parser token definition.">
<polygon fill="white" stroke="#666666" points="832.5,-184 727.5,-184 727.5,-165 832.5,-165 832.5,-184"/>
<text text-anchor="middle" x="780" y="-172" font-family="Helvetica,sans-Serif" font-size="10.00">qmuparsertoken.h</text>
</a>
</g>
</g>
<!-- Node8&#45;&gt;Node22 -->
<g id="edge66_Node000008_Node000022" class="edge">
<title>Node8&#45;&gt;Node22</title>
<g id="a_edge66_Node000008_Node000022"><a xlink:title=" ">
<path fill="none" stroke="#63b8ff" d="M806.63,-274.66C801.91,-257.09 791.26,-217.45 784.96,-193.95"/>
<polygon fill="#63b8ff" stroke="#63b8ff" points="788.3,-192.91 782.32,-184.16 781.54,-194.72 788.3,-192.91"/>
</a>
</g>
</g>
<!-- Node25 -->
<g id="Node000025" class="node">
<title>Node25</title>
<g id="a_Node000025"><a xlink:href="../../da/d49/qmuparsererror_8h.html" target="_top" xlink:title="This file defines the error class used by the parser.">
<polygon fill="white" stroke="#666666" points="354.5,-129 253.5,-129 253.5,-110 354.5,-110 354.5,-129"/>
<text text-anchor="middle" x="304" y="-117" font-family="Helvetica,sans-Serif" font-size="10.00">qmuparsererror.h</text>
</a>
</g>
</g>
<!-- Node8&#45;&gt;Node25 -->
<g id="edge65_Node000008_Node000025" class="edge">
<title>Node8&#45;&gt;Node25</title>
<g id="a_edge65_Node000008_Node000025"><a xlink:title=" ">
<path fill="none" stroke="#63b8ff" d="M758.16,-284.16C656.33,-284.56 431.73,-280.55 369,-239 333.58,-215.54 315.75,-165.99 308.34,-138.99"/>
<polygon fill="#63b8ff" stroke="#63b8ff" points="311.72,-138.07 305.86,-129.24 304.94,-139.8 311.72,-138.07"/>
</a>
</g>
</g>
<!-- Node30 -->
<g id="Node000030" class="node">
<title>Node30</title>
<g id="a_Node000030"><a xlink:href="../../db/d3a/qmuparsercallback_8h.html" target="_top" xlink:title="Definition of the parser callback class.">
<polygon fill="white" stroke="#666666" points="876.5,-129 757.5,-129 757.5,-110 876.5,-110 876.5,-129"/>
<text text-anchor="middle" x="817" y="-117" font-family="Helvetica,sans-Serif" font-size="10.00">qmuparsercallback.h</text>
</a>
</g>
</g>
<!-- Node8&#45;&gt;Node30 -->
<g id="edge63_Node000008_Node000030" class="edge">
<title>Node8&#45;&gt;Node30</title>
<g id="a_edge63_Node000008_Node000030"><a xlink:title=" ">
<path fill="none" stroke="#63b8ff" d="M859.69,-276.26C901.68,-269.1 956.56,-256.65 970,-239 1007.05,-190.32 914.01,-150.95 857.18,-132.26"/>
<polygon fill="#63b8ff" stroke="#63b8ff" points="857.96,-128.84 847.37,-129.12 855.83,-135.5 857.96,-128.84"/>
</a>
</g>
</g>
<!-- Node32 -->
<g id="Node000032" class="node">
<title>Node32</title>
<g id="a_Node000032"><a xlink:href="../../db/d1b/qmuparsertokenreader_8h.html" target="_top" xlink:title="This file contains the parser token reader definition.">
<polygon fill="white" stroke="#666666" points="781,-239 645,-239 645,-220 781,-220 781,-239"/>
<text text-anchor="middle" x="713" y="-227" font-family="Helvetica,sans-Serif" font-size="10.00">qmuparsertokenreader.h</text>
</a>
</g>
</g>
<!-- Node8&#45;&gt;Node32 -->
<g id="edge67_Node000008_Node000032" class="edge">
<title>Node8&#45;&gt;Node32</title>
<g id="a_edge67_Node000008_Node000032"><a xlink:title=" ">
<path fill="none" stroke="#63b8ff" d="M793.58,-274.98C778.55,-266.69 755.46,-253.94 737.84,-244.22"/>
<polygon fill="#63b8ff" stroke="#63b8ff" points="739.15,-240.94 728.7,-239.17 735.77,-247.07 739.15,-240.94"/>
</a>
</g>
</g>
<!-- Node18&#45;&gt;Node4 -->
<g id="edge28_Node000018_Node000004" class="edge">
<title>Node18&#45;&gt;Node4</title>
<g id="a_edge28_Node000018_Node000004"><a xlink:title=" ">
<path fill="none" stroke="#63b8ff" d="M960.78,-225.65C1029.54,-221.22 1134.83,-210.25 1164,-184 1192.35,-158.49 1197.2,-110.91 1197.55,-84.46"/>
<polygon fill="#63b8ff" stroke="#63b8ff" points="1201.05,-84.22 1197.47,-74.25 1194.05,-84.28 1201.05,-84.22"/>
</a>
</g>
</g>
<!-- Node18&#45;&gt;Node14 -->
<g id="edge27_Node000018_Node000014" class="edge">
<title>Node18&#45;&gt;Node14</title>
<g id="a_edge27_Node000018_Node000014"><a xlink:title=" ">
<path fill="none" stroke="#63b8ff" d="M893.33,-219.93C884.06,-206.52 864.43,-180.49 842,-165 805.53,-139.82 780.85,-159.82 749,-129 736.5,-116.9 729.5,-98.1 725.77,-84.09"/>
<polygon fill="#63b8ff" stroke="#63b8ff" points="729.12,-83.05 723.45,-74.11 722.31,-84.64 729.12,-83.05"/>
</a>
</g>
</g>
<!-- Node19 -->
<g id="Node000019" class="node">
<title>Node19</title>
<g id="a_Node000019"><a xlink:href="../../d9/de4/qmudef_8h.html" target="_top" xlink:title=" ">
<polygon fill="white" stroke="#666666" points="1155,-184 1093,-184 1093,-165 1155,-165 1155,-184"/>
<text text-anchor="middle" x="1124" y="-172" font-family="Helvetica,sans-Serif" font-size="10.00">qmudef.h</text>
</a>
</g>
</g>
<!-- Node18&#45;&gt;Node19 -->
<g id="edge29_Node000018_Node000019" class="edge">
<title>Node18&#45;&gt;Node19</title>
<g id="a_edge29_Node000018_Node000019"><a xlink:title=" ">
<path fill="none" stroke="#63b8ff" d="M935.15,-219.98C975.43,-210.5 1040.44,-195.18 1082.7,-185.23"/>
<polygon fill="#63b8ff" stroke="#63b8ff" points="1083.73,-188.58 1092.66,-182.88 1082.12,-181.77 1083.73,-188.58"/>
</a>
</g>
</g>
<!-- Node18&#45;&gt;Node20 -->
<g id="edge35_Node000018_Node000020" class="edge">
<title>Node18&#45;&gt;Node20</title>
<g id="a_edge35_Node000018_Node000020"><a xlink:title=" ">
<path fill="none" stroke="#63b8ff" d="M837.35,-222.62C696.07,-208.58 352.77,-171.12 245,-129 215.68,-117.54 186.33,-95.64 168.41,-80.8"/>
<polygon fill="#63b8ff" stroke="#63b8ff" points="170.48,-77.96 160.59,-74.16 165.95,-83.3 170.48,-77.96"/>
</a>
</g>
</g>
<!-- Node18&#45;&gt;Node22 -->
<g id="edge40_Node000018_Node000022" class="edge">
<title>Node18&#45;&gt;Node22</title>
<g id="a_edge40_Node000018_Node000022"><a xlink:title=" ">
<path fill="none" stroke="#63b8ff" d="M879.88,-219.98C860.65,-211.42 830.77,-198.11 808.69,-188.28"/>
<polygon fill="#63b8ff" stroke="#63b8ff" points="810.03,-185.04 799.47,-184.17 807.18,-191.44 810.03,-185.04"/>
</a>
</g>
</g>
<!-- Node19&#45;&gt;Node2 -->
<g id="edge30_Node000019_Node000002" class="edge">
<title>Node19&#45;&gt;Node2</title>
<g id="a_edge30_Node000019_Node000002"><a xlink:title=" ">
<path fill="none" stroke="#63b8ff" d="M1149.38,-164.94C1206.21,-145.76 1343.8,-99.32 1408.83,-77.37"/>
<polygon fill="#63b8ff" stroke="#63b8ff" points="1410.26,-80.58 1418.62,-74.07 1408.03,-73.95 1410.26,-80.58"/>
</a>
</g>
</g>
<!-- Node19&#45;&gt;Node3 -->
<g id="edge33_Node000019_Node000003" class="edge">
<title>Node19&#45;&gt;Node3</title>
<g id="a_edge33_Node000019_Node000003"><a xlink:title=" ">
<path fill="none" stroke="#63b8ff" d="M1122.69,-164.95C1120.36,-152.01 1114.53,-127.15 1102,-110 1073.45,-70.92 1025.17,-40.32 995.3,-23.87"/>
<polygon fill="#63b8ff" stroke="#63b8ff" points="996.76,-20.68 986.3,-19.04 993.45,-26.85 996.76,-20.68"/>
</a>
</g>
</g>
<!-- Node19&#45;&gt;Node4 -->
<g id="edge31_Node000019_Node000004" class="edge">
<title>Node19&#45;&gt;Node4</title>
<g id="a_edge31_Node000019_Node000004"><a xlink:title=" ">
<path fill="none" stroke="#63b8ff" d="M1129.97,-164.66C1142.06,-146.77 1169.62,-106 1185.38,-82.69"/>
<polygon fill="#63b8ff" stroke="#63b8ff" points="1188.45,-84.4 1191.15,-74.16 1182.65,-80.48 1188.45,-84.4"/>
</a>
</g>
</g>
<!-- Node19&#45;&gt;Node10 -->
<g id="edge32_Node000019_Node000010" class="edge">
<title>Node19&#45;&gt;Node10</title>
<g id="a_edge32_Node000019_Node000010"><a xlink:title=" ">
<path fill="none" stroke="#63b8ff" d="M1103.27,-164.98C1082.24,-156.34 1049.45,-142.87 1025.46,-133.02"/>
<polygon fill="#63b8ff" stroke="#63b8ff" points="1026.68,-129.73 1016.1,-129.17 1024.02,-136.21 1026.68,-129.73"/>
</a>
</g>
</g>
<!-- Node19&#45;&gt;Node17 -->
<g id="edge34_Node000019_Node000017" class="edge">
<title>Node19&#45;&gt;Node17</title>
<g id="a_edge34_Node000019_Node000017"><a xlink:title=" ">
<path fill="none" stroke="#63b8ff" d="M1114.52,-164.98C1105.8,-157.15 1092.66,-145.34 1082.1,-135.86"/>
<polygon fill="#63b8ff" stroke="#63b8ff" points="1084.43,-133.25 1074.65,-129.17 1079.75,-138.46 1084.43,-133.25"/>
</a>
</g>
</g>
<!-- Node20&#45;&gt;Node3 -->
<g id="edge37_Node000020_Node000003" class="edge">
<title>Node20&#45;&gt;Node3</title>
<g id="a_edge37_Node000020_Node000003"><a xlink:title=" ">
<path fill="none" stroke="#63b8ff" d="M197.83,-59C212.89,-57.62 229.64,-56.17 245,-55 508.14,-35.02 825.6,-17.93 932.14,-12.39"/>
<polygon fill="#63b8ff" stroke="#63b8ff" points="932.55,-15.87 942.36,-11.86 932.19,-8.88 932.55,-15.87"/>
</a>
</g>
</g>
<!-- Node20&#45;&gt;Node7 -->
<g id="edge38_Node000020_Node000007" class="edge">
<title>Node20&#45;&gt;Node7</title>
<g id="a_edge38_Node000020_Node000007"><a xlink:title=" ">
<path fill="none" stroke="#63b8ff" d="M132.84,-54.98C114.75,-46.5 86.72,-33.35 65.81,-23.54"/>
<polygon fill="#63b8ff" stroke="#63b8ff" points="67.03,-20.25 56.49,-19.17 64.05,-26.59 67.03,-20.25"/>
</a>
</g>
</g>
<!-- Node20&#45;&gt;Node11 -->
<g id="edge36_Node000020_Node000011" class="edge">
<title>Node20&#45;&gt;Node11</title>
<g id="a_edge36_Node000020_Node000011"><a xlink:title=" ">
<path fill="none" stroke="#63b8ff" d="M146.87,-54.75C143.49,-47.57 138.58,-37.18 134.38,-28.27"/>
<polygon fill="#63b8ff" stroke="#63b8ff" points="137.48,-26.64 130.05,-19.09 131.15,-29.63 137.48,-26.64"/>
</a>
</g>
</g>
<!-- Node21 -->
<g id="Node000021" class="node">
<title>Node21</title>
<g id="a_Node000021"><a xlink:href="../../df/d47/qmuparserfixes_8h.html" target="_top" xlink:title="This file contains compatibility fixes for some platforms.">
<polygon fill="white" stroke="#666666" points="267.5,-19 166.5,-19 166.5,0 267.5,0 267.5,-19"/>
<text text-anchor="middle" x="217" y="-7" font-family="Helvetica,sans-Serif" font-size="10.00">qmuparserfixes.h</text>
</a>
</g>
</g>
<!-- Node20&#45;&gt;Node21 -->
<g id="edge39_Node000020_Node000021" class="edge">
<title>Node20&#45;&gt;Node21</title>
<g id="a_edge39_Node000020_Node000021"><a xlink:title=" ">
<path fill="none" stroke="#63b8ff" d="M161.6,-54.98C171.46,-47.07 186.35,-35.11 198.22,-25.58"/>
<polygon fill="#63b8ff" stroke="#63b8ff" points="200.6,-28.16 206.2,-19.17 196.21,-22.7 200.6,-28.16"/>
</a>
</g>
</g>
<!-- Node22&#45;&gt;Node4 -->
<g id="edge45_Node000022_Node000004" class="edge">
<title>Node22&#45;&gt;Node4</title>
<g id="a_edge45_Node000022_Node000004"><a xlink:title=" ">
<path fill="none" stroke="#63b8ff" d="M800.77,-164.92C822.17,-156.04 856.49,-141.71 886,-129 905.19,-120.73 908.98,-115.98 929,-110 1008.01,-86.4 1104.11,-74.28 1157.1,-68.96"/>
<polygon fill="#63b8ff" stroke="#63b8ff" points="1157.49,-72.44 1167.1,-67.99 1156.81,-65.48 1157.49,-72.44"/>
</a>
</g>
</g>
<!-- Node22&#45;&gt;Node15 -->
<g id="edge44_Node000022_Node000015" class="edge">
<title>Node22&#45;&gt;Node15</title>
<g id="a_edge44_Node000022_Node000015"><a xlink:title=" ">
<path fill="none" stroke="#63b8ff" d="M727.44,-166.23C658.22,-156.58 539.18,-139.71 479.15,-129.06"/>
<polygon fill="#63b8ff" stroke="#63b8ff" points="479.47,-125.56 469,-127.22 478.21,-132.45 479.47,-125.56"/>
</a>
</g>
</g>
<!-- Node22&#45;&gt;Node16 -->
<g id="edge42_Node000022_Node000016" class="edge">
<title>Node22&#45;&gt;Node16</title>
<g id="a_edge42_Node000022_Node000016"><a xlink:title=" ">
<path fill="none" stroke="#63b8ff" d="M736.46,-164.98C681.96,-154.33 589.87,-136.32 541.27,-126.81"/>
<polygon fill="#63b8ff" stroke="#63b8ff" points="541.79,-123.35 531.3,-124.86 540.45,-130.22 541.79,-123.35"/>
</a>
</g>
</g>
<!-- Node23 -->
<g id="Node000023" class="node">
<title>Node23</title>
<g id="a_Node000023"><a xlink:title=" ">
<polygon fill="#e0e0e0" stroke="#999999" points="639,-129 587,-129 587,-110 639,-110 639,-129"/>
<text text-anchor="middle" x="613" y="-117" font-family="Helvetica,sans-Serif" font-size="10.00">cassert</text>
</a>
</g>
</g>
<!-- Node22&#45;&gt;Node23 -->
<g id="edge41_Node000022_Node000023" class="edge">
<title>Node22&#45;&gt;Node23</title>
<g id="a_edge41_Node000022_Node000023"><a xlink:title=" ">
<path fill="none" stroke="#63b8ff" d="M753.17,-164.98C724.88,-156.01 680.17,-141.82 648.87,-131.88"/>
<polygon fill="#63b8ff" stroke="#63b8ff" points="649.8,-128.51 639.21,-128.82 647.69,-135.18 649.8,-128.51"/>
</a>
</g>
</g>
<!-- Node24 -->
<g id="Node000024" class="node">
<title>Node24</title>
<g id="a_Node000024"><a xlink:title=" ">
<polygon fill="#e0e0e0" stroke="#999999" points="700.5,-129 657.5,-129 657.5,-110 700.5,-110 700.5,-129"/>
<text text-anchor="middle" x="679" y="-117" font-family="Helvetica,sans-Serif" font-size="10.00">stack</text>
</a>
</g>
</g>
<!-- Node22&#45;&gt;Node24 -->
<g id="edge43_Node000022_Node000024" class="edge">
<title>Node22&#45;&gt;Node24</title>
<g id="a_edge43_Node000022_Node000024"><a xlink:title=" ">
<path fill="none" stroke="#63b8ff" d="M763.77,-164.98C747.82,-156.61 723.22,-143.7 704.62,-133.95"/>
<polygon fill="#63b8ff" stroke="#63b8ff" points="706,-130.72 695.52,-129.17 702.75,-136.92 706,-130.72"/>
</a>
</g>
</g>
<!-- Node22&#45;&gt;Node25 -->
<g id="edge46_Node000022_Node000025" class="edge">
<title>Node22&#45;&gt;Node25</title>
<g id="a_edge46_Node000022_Node000025"><a xlink:title=" ">
<path fill="none" stroke="#63b8ff" d="M727.25,-166.16C724.12,-165.76 721.02,-165.37 718,-165 592.59,-149.67 445.45,-134.53 364.71,-126.47"/>
<polygon fill="#63b8ff" stroke="#63b8ff" points="365.02,-122.98 354.72,-125.47 364.32,-129.94 365.02,-122.98"/>
</a>
</g>
</g>
<!-- Node22&#45;&gt;Node30 -->
<g id="edge58_Node000022_Node000030" class="edge">
<title>Node22&#45;&gt;Node30</title>
<g id="a_edge58_Node000022_Node000030"><a xlink:title=" ">
<path fill="none" stroke="#63b8ff" d="M786.11,-164.75C791.28,-157.34 798.85,-146.5 805.19,-137.41"/>
<polygon fill="#63b8ff" stroke="#63b8ff" points="808.15,-139.29 811,-129.09 802.41,-135.29 808.15,-139.29"/>
</a>
</g>
</g>
<!-- Node25&#45;&gt;Node2 -->
<g id="edge47_Node000025_Node000002" class="edge">
<title>Node25&#45;&gt;Node2</title>
<g id="a_edge47_Node000025_Node000002"><a xlink:title=" ">
<path fill="none" stroke="#63b8ff" d="M354.58,-113.69C369.81,-112.35 386.58,-111 402,-110 450.38,-106.87 1147.35,-77.82 1373.62,-68.42"/>
<polygon fill="#63b8ff" stroke="#63b8ff" points="1373.87,-71.91 1383.72,-68 1373.58,-64.92 1373.87,-71.91"/>
</a>
</g>
</g>
<!-- Node25&#45;&gt;Node3 -->
<g id="edge51_Node000025_Node000003" class="edge">
<title>Node25&#45;&gt;Node3</title>
<g id="a_edge51_Node000025_Node000003"><a xlink:title=" ">
<path fill="none" stroke="#63b8ff" d="M354.74,-111.86C359.56,-111.23 364.37,-110.6 369,-110 492.55,-93.92 527.65,-109.75 647,-74 665.47,-68.47 667.61,-60.78 686,-55 771.62,-28.08 877.17,-17 931.99,-12.8"/>
<polygon fill="#63b8ff" stroke="#63b8ff" points="932.54,-16.27 942.26,-12.05 932.03,-9.29 932.54,-16.27"/>
</a>
</g>
</g>
<!-- Node25&#45;&gt;Node4 -->
<g id="edge53_Node000025_Node000004" class="edge">
<title>Node25&#45;&gt;Node4</title>
<g id="a_edge53_Node000025_Node000004"><a xlink:title=" ">
<path fill="none" stroke="#63b8ff" d="M354.59,-113.81C369.82,-112.48 386.58,-111.1 402,-110 691.49,-89.35 1040.85,-72.64 1157.18,-67.3"/>
<polygon fill="#63b8ff" stroke="#63b8ff" points="1157.55,-70.78 1167.38,-66.83 1157.23,-63.79 1157.55,-70.78"/>
</a>
</g>
</g>
<!-- Node25&#45;&gt;Node11 -->
<g id="edge50_Node000025_Node000011" class="edge">
<title>Node25&#45;&gt;Node11</title>
<g id="a_edge50_Node000025_Node000011"><a xlink:title=" ">
<path fill="none" stroke="#63b8ff" d="M291.18,-109.8C272.62,-97.29 237.1,-73.7 206,-55 187.95,-44.15 167.16,-32.61 151.29,-24"/>
<polygon fill="#63b8ff" stroke="#63b8ff" points="152.58,-20.72 142.12,-19.05 149.26,-26.88 152.58,-20.72"/>
</a>
</g>
</g>
<!-- Node25&#45;&gt;Node14 -->
<g id="edge52_Node000025_Node000014" class="edge">
<title>Node25&#45;&gt;Node14</title>
<g id="a_edge52_Node000025_Node000014"><a xlink:title=" ">
<path fill="none" stroke="#63b8ff" d="M354.73,-111.79C359.55,-111.18 364.37,-110.57 369,-110 507.1,-92.98 542.58,-95.82 680,-74 681.47,-73.77 682.97,-73.52 684.48,-73.26"/>
<polygon fill="#63b8ff" stroke="#63b8ff" points="685.3,-76.67 694.5,-71.41 684.03,-69.78 685.3,-76.67"/>
</a>
</g>
</g>
<!-- Node25&#45;&gt;Node20 -->
<g id="edge55_Node000025_Node000020" class="edge">
<title>Node25&#45;&gt;Node20</title>
<g id="a_edge55_Node000025_Node000020"><a xlink:title=" ">
<path fill="none" stroke="#63b8ff" d="M279.42,-109.98C253.95,-101.16 213.96,-87.31 185.37,-77.41"/>
<polygon fill="#63b8ff" stroke="#63b8ff" points="186.37,-74.05 175.77,-74.08 184.08,-80.66 186.37,-74.05"/>
</a>
</g>
</g>
<!-- Node26 -->
<g id="Node000026" class="node">
<title>Node26</title>
<g id="a_Node000026"><a xlink:title=" ">
<polygon fill="#e0e0e0" stroke="#999999" points="473.5,-74 372.5,-74 372.5,-55 473.5,-55 473.5,-74"/>
<text text-anchor="middle" x="423" y="-62" font-family="Helvetica,sans-Serif" font-size="10.00">QCoreApplication</text>
</a>
</g>
</g>
<!-- Node25&#45;&gt;Node26 -->
<g id="edge48_Node000025_Node000026" class="edge">
<title>Node25&#45;&gt;Node26</title>
<g id="a_edge48_Node000025_Node000026"><a xlink:title=" ">
<path fill="none" stroke="#63b8ff" d="M323.12,-109.98C342.35,-101.42 372.23,-88.11 394.31,-78.28"/>
<polygon fill="#63b8ff" stroke="#63b8ff" points="395.82,-81.44 403.53,-74.17 392.97,-75.04 395.82,-81.44"/>
</a>
</g>
</g>
<!-- Node27 -->
<g id="Node000027" class="node">
<title>Node27</title>
<g id="a_Node000027"><a xlink:title=" ">
<polygon fill="#e0e0e0" stroke="#999999" points="564,-74 492,-74 492,-55 564,-55 564,-74"/>
<text text-anchor="middle" x="528" y="-62" font-family="Helvetica,sans-Serif" font-size="10.00">QException</text>
</a>
</g>
</g>
<!-- Node25&#45;&gt;Node27 -->
<g id="edge49_Node000025_Node000027" class="edge">
<title>Node25&#45;&gt;Node27</title>
<g id="a_edge49_Node000025_Node000027"><a xlink:title=" ">
<path fill="none" stroke="#63b8ff" d="M339.99,-109.98C378.49,-100.87 439.69,-86.4 481.74,-76.45"/>
<polygon fill="#63b8ff" stroke="#63b8ff" points="482.8,-79.79 491.73,-74.08 481.19,-72.98 482.8,-79.79"/>
</a>
</g>
</g>
<!-- Node28 -->
<g id="Node000028" class="node">
<title>Node28</title>
<g id="a_Node000028"><a xlink:title=" ">
<polygon fill="#e0e0e0" stroke="#999999" points="638,-74 582,-74 582,-55 638,-55 638,-74"/>
<text text-anchor="middle" x="610" y="-62" font-family="Helvetica,sans-Serif" font-size="10.00">sstream</text>
</a>
</g>
</g>
<!-- Node25&#45;&gt;Node28 -->
<g id="edge54_Node000025_Node000028" class="edge">
<title>Node25&#45;&gt;Node28</title>
<g id="a_edge54_Node000025_Node000028"><a xlink:title=" ">
<path fill="none" stroke="#63b8ff" d="M354.74,-111.06C406.83,-103.22 490.45,-90.02 571.84,-74.13"/>
<polygon fill="#63b8ff" stroke="#63b8ff" points="572.62,-77.54 581.76,-72.18 571.27,-70.68 572.62,-77.54"/>
</a>
</g>
</g>
<!-- Node29 -->
<g id="Node000029" class="node">
<title>Node29</title>
<g id="a_Node000029"><a xlink:href="../../da/da3/qmutranslation_8h.html" target="_top" xlink:title="The VTranslation class help store string for translation.">
<polygon fill="white" stroke="#666666" points="354,-74 254,-74 254,-55 354,-55 354,-74"/>
<text text-anchor="middle" x="304" y="-62" font-family="Helvetica,sans-Serif" font-size="10.00">qmutranslation.h</text>
</a>
</g>
</g>
<!-- Node25&#45;&gt;Node29 -->
<g id="edge56_Node000025_Node000029" class="edge">
<title>Node25&#45;&gt;Node29</title>
<g id="a_edge56_Node000025_Node000029"><a xlink:title=" ">
<path fill="none" stroke="#63b8ff" d="M304,-109.75C304,-102.8 304,-92.85 304,-84.13"/>
<polygon fill="#63b8ff" stroke="#63b8ff" points="307.5,-84.09 304,-74.09 300.5,-84.09 307.5,-84.09"/>
</a>
</g>
</g>
<!-- Node29&#45;&gt;Node3 -->
<g id="edge57_Node000029_Node000003" class="edge">
<title>Node29&#45;&gt;Node3</title>
<g id="a_edge57_Node000029_Node000003"><a xlink:title=" ">
<path fill="none" stroke="#63b8ff" d="M354.06,-56.15C357.42,-55.74 360.76,-55.35 364,-55 578.77,-31.92 837.73,-17.26 932.22,-12.34"/>
<polygon fill="#63b8ff" stroke="#63b8ff" points="932.6,-15.83 942.41,-11.82 932.24,-8.84 932.6,-15.83"/>
</a>
</g>
</g>
<!-- Node30&#45;&gt;Node2 -->
<g id="edge59_Node000030_Node000002" class="edge">
<title>Node30&#45;&gt;Node2</title>
<g id="a_edge59_Node000030_Node000002"><a xlink:title=" ">
<path fill="none" stroke="#63b8ff" d="M876.55,-113.47C992.81,-103.64 1249.44,-81.95 1373.76,-71.44"/>
<polygon fill="#63b8ff" stroke="#63b8ff" points="1374.26,-74.91 1383.93,-70.58 1373.67,-67.93 1374.26,-74.91"/>
</a>
</g>
</g>
<!-- Node30&#45;&gt;Node3 -->
<g id="edge60_Node000030_Node000003" class="edge">
<title>Node30&#45;&gt;Node3</title>
<g id="a_edge60_Node000030_Node000003"><a xlink:title=" ">
<path fill="none" stroke="#63b8ff" d="M817.17,-109.87C817.9,-96.36 821.27,-70.21 836,-55 861.38,-28.79 902.61,-18.02 932.44,-13.59"/>
<polygon fill="#63b8ff" stroke="#63b8ff" points="933.02,-17.04 942.48,-12.27 932.11,-10.1 933.02,-17.04"/>
</a>
</g>
</g>
<!-- Node30&#45;&gt;Node20 -->
<g id="edge62_Node000030_Node000020" class="edge">
<title>Node30&#45;&gt;Node20</title>
<g id="a_edge62_Node000030_Node000020"><a xlink:title=" ">
<path fill="none" stroke="#63b8ff" d="M757.29,-113.74C741.89,-112.51 725.33,-111.2 710,-110 503.35,-93.79 451.56,-91.33 245,-74 233.01,-72.99 220.16,-71.87 207.94,-70.77"/>
<polygon fill="#63b8ff" stroke="#63b8ff" points="208.12,-67.27 197.85,-69.86 207.49,-74.24 208.12,-67.27"/>
</a>
</g>
</g>
<!-- Node31 -->
<g id="Node000031" class="node">
<title>Node31</title>
<g id="a_Node000031"><a xlink:title=" ">
<polygon fill="#e0e0e0" stroke="#999999" points="883,-74 845,-74 845,-55 883,-55 883,-74"/>
<text text-anchor="middle" x="864" y="-62" font-family="Helvetica,sans-Serif" font-size="10.00">map</text>
</a>
</g>
</g>
<!-- Node30&#45;&gt;Node31 -->
<g id="edge61_Node000030_Node000031" class="edge">
<title>Node30&#45;&gt;Node31</title>
<g id="a_edge61_Node000030_Node000031"><a xlink:title=" ">
<path fill="none" stroke="#63b8ff" d="M824.76,-109.75C831.47,-102.18 841.34,-91.05 849.51,-81.84"/>
<polygon fill="#63b8ff" stroke="#63b8ff" points="852.37,-83.89 856.38,-74.09 847.13,-79.25 852.37,-83.89"/>
</a>
</g>
</g>
<!-- Node32&#45;&gt;Node2 -->
<g id="edge68_Node000032_Node000002" class="edge">
<title>Node32&#45;&gt;Node2</title>
<g id="a_edge68_Node000032_Node000002"><a xlink:title=" ">
<path fill="none" stroke="#63b8ff" d="M781.17,-222.87C898.08,-213.06 1127.83,-193 1164,-184 1226.47,-168.45 1238.7,-154.06 1298,-129 1338.95,-111.69 1386.06,-91.07 1415.44,-78.13"/>
<polygon fill="#63b8ff" stroke="#63b8ff" points="1416.95,-81.29 1424.69,-74.05 1414.13,-74.88 1416.95,-81.29"/>
</a>
</g>
</g>
<!-- Node32&#45;&gt;Node3 -->
<g id="edge70_Node000032_Node000003" class="edge">
<title>Node32&#45;&gt;Node3</title>
<g id="a_edge70_Node000032_Node000003"><a xlink:title=" ">
<path fill="none" stroke="#63b8ff" d="M688.21,-219.95C639.47,-201.84 539.12,-157.37 578,-110 630.03,-46.6 679.51,-94.22 759,-74 786.52,-67 792.84,-63.29 820,-55 858.4,-43.29 902.46,-30.17 932.65,-21.23"/>
<polygon fill="#63b8ff" stroke="#63b8ff" points="933.73,-24.56 942.33,-18.36 931.74,-17.85 933.73,-24.56"/>
</a>
</g>
</g>
<!-- Node32&#45;&gt;Node4 -->
<g id="edge71_Node000032_Node000004" class="edge">
<title>Node32&#45;&gt;Node4</title>
<g id="a_edge71_Node000032_Node000004"><a xlink:title=" ">
<path fill="none" stroke="#63b8ff" d="M743.71,-219.96C770.32,-212.08 809.54,-199.3 842,-184 870.51,-170.56 933.6,-121.35 963,-110 1028.28,-84.8 1109.49,-73.47 1157.05,-68.69"/>
<polygon fill="#63b8ff" stroke="#63b8ff" points="1157.63,-72.15 1167.25,-67.71 1156.96,-65.18 1157.63,-72.15"/>
</a>
</g>
</g>
<!-- Node32&#45;&gt;Node7 -->
<g id="edge73_Node000032_Node000007" class="edge">
<title>Node32&#45;&gt;Node7</title>
<g id="a_edge73_Node000032_Node000007"><a xlink:title=" ">
<path fill="none" stroke="#63b8ff" d="M644.99,-220.88C641.95,-220.58 638.95,-220.28 636,-220 536.8,-210.53 280.9,-222.54 189,-184 120.14,-155.12 104.73,-135.24 62,-74 52.52,-60.41 46.21,-42.59 42.45,-29.29"/>
<polygon fill="#63b8ff" stroke="#63b8ff" points="45.78,-28.17 39.88,-19.37 39,-29.93 45.78,-28.17"/>
</a>
</g>
</g>
<!-- Node32&#45;&gt;Node10 -->
<g id="edge69_Node000032_Node000010" class="edge">
<title>Node32&#45;&gt;Node10</title>
<g id="a_edge69_Node000032_Node000010"><a xlink:title=" ">
<path fill="none" stroke="#63b8ff" d="M753.41,-219.99C786.67,-212.38 834.74,-199.96 875,-184 910.24,-170.03 948.57,-148.55 972.19,-134.51"/>
<polygon fill="#63b8ff" stroke="#63b8ff" points="974.31,-137.32 981.07,-129.17 970.7,-131.32 974.31,-137.32"/>
</a>
</g>
</g>
<!-- Node32&#45;&gt;Node20 -->
<g id="edge75_Node000032_Node000020" class="edge">
<title>Node32&#45;&gt;Node20</title>
<g id="a_edge75_Node000032_Node000020"><a xlink:title=" ">
<path fill="none" stroke="#63b8ff" d="M644.99,-220.9C641.95,-220.59 638.94,-220.29 636,-220 542.33,-210.84 292.54,-235.86 214,-184 178.8,-160.75 161.88,-111.12 154.99,-84.04"/>
<polygon fill="#63b8ff" stroke="#63b8ff" points="158.38,-83.2 152.69,-74.27 151.57,-84.8 158.38,-83.2"/>
</a>
</g>
</g>
<!-- Node32&#45;&gt;Node22 -->
<g id="edge77_Node000032_Node000022" class="edge">
<title>Node32&#45;&gt;Node22</title>
<g id="a_edge77_Node000032_Node000022"><a xlink:title=" ">
<path fill="none" stroke="#63b8ff" d="M723.76,-219.98C733.77,-212.07 748.89,-200.11 760.93,-190.58"/>
<polygon fill="#63b8ff" stroke="#63b8ff" points="763.37,-193.12 769.04,-184.17 759.03,-187.63 763.37,-193.12"/>
</a>
</g>
</g>
<!-- Node32&#45;&gt;Node25 -->
<g id="edge76_Node000032_Node000025" class="edge">
<title>Node32&#45;&gt;Node25</title>
<g id="a_edge76_Node000032_Node000025"><a xlink:title=" ">
<path fill="none" stroke="#63b8ff" d="M680.56,-219.94C607.11,-200.54 428.08,-153.26 346.17,-131.63"/>
<polygon fill="#63b8ff" stroke="#63b8ff" points="347,-128.23 336.44,-129.07 345.21,-135 347,-128.23"/>
</a>
</g>
</g>
<!-- Node32&#45;&gt;Node30 -->
<g id="edge74_Node000032_Node000030" class="edge">
<title>Node32&#45;&gt;Node30</title>
<g id="a_edge74_Node000032_Node000030"><a xlink:title=" ">
<path fill="none" stroke="#63b8ff" d="M699.31,-219.99C681.31,-207.71 653.55,-184.4 668,-165 686.32,-140.4 717.73,-128.88 746.99,-123.66"/>
<polygon fill="#63b8ff" stroke="#63b8ff" points="747.89,-127.06 757.23,-122.07 746.81,-120.15 747.89,-127.06"/>
</a>
</g>
</g>
<!-- Node33 -->
<g id="Node000033" class="node">
<title>Node33</title>
<g id="a_Node000033"><a xlink:title=" ">
<polygon fill="#e0e0e0" stroke="#999999" points="709,-184 677,-184 677,-165 709,-165 709,-184"/>
<text text-anchor="middle" x="693" y="-172" font-family="Helvetica,sans-Serif" font-size="10.00">list</text>
</a>
</g>
</g>
<!-- Node32&#45;&gt;Node33 -->
<g id="edge72_Node000032_Node000033" class="edge">
<title>Node32&#45;&gt;Node33</title>
<g id="a_edge72_Node000032_Node000033"><a xlink:title=" ">
<path fill="none" stroke="#63b8ff" d="M709.7,-219.75C707.02,-212.65 703.15,-202.4 699.81,-193.56"/>
<polygon fill="#63b8ff" stroke="#63b8ff" points="703.05,-192.21 696.24,-184.09 696.5,-194.68 703.05,-192.21"/>
</a>
</g>
</g>
</g>
</svg>
