<?xml version="1.0" encoding="UTF-8" standalone="no"?>
<!DOCTYPE svg PUBLIC "-//W3C//DTD SVG 1.1//EN"
 "http://www.w3.org/Graphics/SVG/1.1/DTD/svg11.dtd">
<!-- Generated by graphviz version 2.43.0 (0)
 -->
<!-- Title: VLockGuard&lt; Guarded &gt; Pages: 1 -->
<svg width="326pt" height="273pt"
 viewBox="0.00 0.00 326.00 273.00" xmlns="http://www.w3.org/2000/svg" xmlns:xlink="http://www.w3.org/1999/xlink">

<svg id="main" version="1.1" xmlns="http://www.w3.org/2000/svg" xmlns:xlink="http://www.w3.org/1999/xlink" xml:space="preserve" onload="init(evt)">
<style type="text/css"><![CDATA[
.node, .edge {opacity: 0.7;}
.node.selected, .edge.selected {opacity: 1;}
.edge:hover path { stroke: red; }
.edge:hover polygon { stroke: red; fill: red; }
]]></style>
<script type="application/ecmascript" xlink:href="../../svg.min.js"/>
<svg id="graph" class="graph">
<g id="graph0" class="graph" transform="scale(1 1) rotate(0) translate(4 269)">
<title>VLockGuard&lt; Guarded &gt;</title>
<!-- Node1 -->
<g id="Node000001" class="node">
<title>Node1</title>
<g id="a_Node000001"><a xlink:title=" ">
<polygon fill="#999999" stroke="transparent" points="224,-169 91,-169 91,0 224,0 224,-169"/>
<text text-anchor="start" x="96.5" y="-156.5" font-family="Helvetica,sans-Serif" font-size="10.00">VLockGuard&lt; Guarded &gt;</text>
<text text-anchor="start" x="108" y="-141.5" font-family="Helvetica,sans-Serif" font-size="10.00">&#45;</text>
<text text-anchor="start" x="128.5" y="-141.5" font-family="Helvetica,sans-Serif" font-size="10.00">lockError</text>
<text text-anchor="start" x="108" y="-126.5" font-family="Helvetica,sans-Serif" font-size="10.00">&#45;</text>
<text text-anchor="start" x="128.5" y="-126.5" font-family="Helvetica,sans-Serif" font-size="10.00">lockFile</text>
<text text-anchor="start" x="105.5" y="-111.5" font-family="Helvetica,sans-Serif" font-size="10.00">+</text>
<text text-anchor="start" x="128.5" y="-111.5" font-family="Helvetica,sans-Serif" font-size="10.00">VLockGuard()</text>
<text text-anchor="start" x="105.5" y="-96.5" font-family="Helvetica,sans-Serif" font-size="10.00">+</text>
<text text-anchor="start" x="128.5" y="-96.5" font-family="Helvetica,sans-Serif" font-size="10.00">VLockGuard()</text>
<text text-anchor="start" x="105.5" y="-81.5" font-family="Helvetica,sans-Serif" font-size="10.00">+</text>
<text text-anchor="start" x="128.5" y="-81.5" font-family="Helvetica,sans-Serif" font-size="10.00">VLockGuard()</text>
<text text-anchor="start" x="105.5" y="-66.5" font-family="Helvetica,sans-Serif" font-size="10.00">+</text>
<text text-anchor="start" x="128.5" y="-66.5" font-family="Helvetica,sans-Serif" font-size="10.00">GetProtected()</text>
<text text-anchor="start" x="105.5" y="-51.5" font-family="Helvetica,sans-Serif" font-size="10.00">+</text>
<text text-anchor="start" x="128.5" y="-51.5" font-family="Helvetica,sans-Serif" font-size="10.00">GetLockError()</text>
<text text-anchor="start" x="105.5" y="-36.5" font-family="Helvetica,sans-Serif" font-size="10.00">+</text>
<text text-anchor="start" x="128.5" y="-36.5" font-family="Helvetica,sans-Serif" font-size="10.00">IsLocked()</text>
<text text-anchor="start" x="105.5" y="-21.5" font-family="Helvetica,sans-Serif" font-size="10.00">+</text>
<text text-anchor="start" x="128.5" y="-21.5" font-family="Helvetica,sans-Serif" font-size="10.00">GetLockFile()</text>
<text text-anchor="start" x="108" y="-6.5" font-family="Helvetica,sans-Serif" font-size="10.00">&#45;</text>
<text text-anchor="start" x="128.5" y="-6.5" font-family="Helvetica,sans-Serif" font-size="10.00">TryLock()</text>
<polygon fill="#666666" stroke="#666666" points="91.5,-151.5 91.5,-151.5 224.5,-151.5 224.5,-151.5 91.5,-151.5"/>
<polygon fill="#666666" stroke="#666666" points="91.5,-121.5 91.5,-121.5 126.5,-121.5 126.5,-121.5 91.5,-121.5"/>
<polygon fill="#666666" stroke="#666666" points="126.5,-121.5 126.5,-121.5 224.5,-121.5 224.5,-121.5 126.5,-121.5"/>
<polygon fill="none" stroke="#666666" points="91,0 91,-169 224,-169 224,0 91,0"/>
</a>
</g>
</g>
<!-- Node2 -->
<g id="Node000002" class="node">
<title>Node2</title>
<g id="a_Node000002"><a xlink:title=" ">
<polygon fill="white" stroke="transparent" points="147,-265 0,-265 0,-216 147,-216 147,-265"/>
<text text-anchor="start" x="5.5" y="-252.5" font-family="Helvetica,sans-Serif" font-size="10.00">std::shared_ptr&lt; Guarded &gt;</text>
<text text-anchor="start" x="20.5" y="-237.5" font-family="Helvetica,sans-Serif" font-size="10.00">+</text>
<text text-anchor="start" x="49.5" y="-237.5" font-family="Helvetica,sans-Serif" font-size="10.00">ptr</text>
<text text-anchor="start" x="20.5" y="-222.5" font-family="Helvetica,sans-Serif" font-size="10.00">+</text>
<text text-anchor="start" x="49.5" y="-222.5" font-family="Helvetica,sans-Serif" font-size="10.00">operator&#45;&gt;()</text>
<polygon fill="#666666" stroke="#666666" points="0.5,-247.5 0.5,-247.5 147.5,-247.5 147.5,-247.5 0.5,-247.5"/>
<polygon fill="#666666" stroke="#666666" points="0.5,-232.5 0.5,-232.5 47.5,-232.5 47.5,-232.5 0.5,-232.5"/>
<polygon fill="#666666" stroke="#666666" points="47.5,-232.5 47.5,-232.5 147.5,-232.5 147.5,-232.5 47.5,-232.5"/>
<polygon fill="none" stroke="#666666" points="0,-216 0,-265 147,-265 147,-216 0,-216"/>
</a>
</g>
</g>
<!-- Node2&#45;&gt;Node1 -->
<g id="edge1_Node000001_Node000002" class="edge">
<title>Node2&#45;&gt;Node1</title>
<g id="a_edge1_Node000001_Node000002"><a xlink:title=" ">
<path fill="none" stroke="#63b8ff" d="M86.44,-215.77C91.96,-205.66 98.79,-193.13 106.02,-179.88"/>
<polygon fill="none" stroke="#63b8ff" points="106.14,-179.66 105.5,-172.48 111.89,-169.13 112.52,-176.31 106.14,-179.66"/>
</a>
</g>
<text text-anchor="middle" x="120.5" y="-190" font-family="Helvetica,sans-Serif" font-size="10.00" fill="grey"> &#45;holder</text>
</g>
<!-- Node3 -->
<g id="Node000003" class="node">
<title>Node3</title>
<g id="a_Node000003"><a xlink:title=" ">
<polygon fill="white" stroke="transparent" points="318,-265 165,-265 165,-216 318,-216 318,-265"/>
<text text-anchor="start" x="170.5" y="-252.5" font-family="Helvetica,sans-Serif" font-size="10.00">std::shared_ptr&lt; QLockFile &gt;</text>
<text text-anchor="start" x="187" y="-237.5" font-family="Helvetica,sans-Serif" font-size="10.00">+</text>
<text text-anchor="start" x="217.5" y="-237.5" font-family="Helvetica,sans-Serif" font-size="10.00">ptr</text>
<text text-anchor="start" x="187" y="-222.5" font-family="Helvetica,sans-Serif" font-size="10.00">+</text>
<text text-anchor="start" x="217.5" y="-222.5" font-family="Helvetica,sans-Serif" font-size="10.00">operator&#45;&gt;()</text>
<polygon fill="#666666" stroke="#666666" points="165.5,-247.5 165.5,-247.5 318.5,-247.5 318.5,-247.5 165.5,-247.5"/>
<polygon fill="#666666" stroke="#666666" points="165.5,-232.5 165.5,-232.5 215.5,-232.5 215.5,-232.5 165.5,-232.5"/>
<polygon fill="#666666" stroke="#666666" points="215.5,-232.5 215.5,-232.5 318.5,-232.5 318.5,-232.5 215.5,-232.5"/>
<polygon fill="none" stroke="#666666" points="165,-216 165,-265 318,-265 318,-216 165,-216"/>
</a>
</g>
</g>
<!-- Node3&#45;&gt;Node1 -->
<g id="edge2_Node000001_Node000003" class="edge">
<title>Node3&#45;&gt;Node1</title>
<g id="a_edge2_Node000001_Node000003"><a xlink:title=" ">
<path fill="none" stroke="#63b8ff" d="M228.56,-215.77C223.04,-205.66 216.21,-193.13 208.98,-179.88"/>
<polygon fill="none" stroke="#63b8ff" points="208.86,-179.66 202.48,-176.31 203.11,-169.13 209.5,-172.48 208.86,-179.66"/>
</a>
</g>
<text text-anchor="middle" x="230.5" y="-190" font-family="Helvetica,sans-Serif" font-size="10.00" fill="grey"> &#45;lock</text>
</g>
</g>
</svg>
</svg>

<style type='text/css'>
<![CDATA[
[data-mouse-over-selected='false'] { opacity: 0.7; }
[data-mouse-over-selected='true']  { opacity: 1.0; }
]]>
</style>
<script type="application/ecmascript"><![CDATA[
document.addEventListener('DOMContentLoaded', (event) => {
  highlightEdges();
  highlightAdjacentNodes();
});
]]></script>
</svg>
