<?xml version="1.0" encoding="UTF-8" standalone="no"?>
<!DOCTYPE svg PUBLIC "-//W3C//DTD SVG 1.1//EN"
 "http://www.w3.org/Graphics/SVG/1.1/DTD/svg11.dtd">
<!-- Generated by graphviz version 2.43.0 (0)
 -->
<!-- Title: VisToolArc Pages: 1 -->
<!--zoomable 1077 -->

<svg id="main" version="1.1" xmlns="http://www.w3.org/2000/svg" xmlns:xlink="http://www.w3.org/1999/xlink" xml:space="preserve" onload="init(evt)">
<style type="text/css"><![CDATA[
.node, .edge {opacity: 0.7;}
.node.selected, .edge.selected {opacity: 1;}
.edge:hover path { stroke: red; }
.edge:hover polygon { stroke: red; fill: red; }
]]></style>

<defs>
  <circle id="rim" cx="0" cy="0" r="7"/>
  <circle id="rim2" cx="0" cy="0" r="3.5"/>
  <g id="zoomPlus">
    <use xlink:href="#rim" fill="#404040"><set attributeName="fill" to="#808080" begin="zoomplus.mouseover" end="zoomplus.mouseout"/></use>
    <path d="M-4,0h8M0,-4v8" fill="none" stroke="white" stroke-width="1.5" pointer-events="none"/>
  </g>
  <g id="zoomMin">
    <use xlink:href="#rim" fill="#404040"><set attributeName="fill" to="#808080" begin="zoomminus.mouseover" end="zoomminus.mouseout"/></use>
    <path d="M-4,0h8" fill="none" stroke="white" stroke-width="1.5" pointer-events="none"/>
  </g>
  <g id="arrowUp" transform="translate(30 24)">
    <use xlink:href="#rim"/>
    <path pointer-events="none" fill="none" stroke="white" stroke-width="1.5" d="M0,-3.0v7 M-2.5,-0.5L0,-3.0L2.5,-0.5"/>
  </g>
  <g id="arrowRight" transform="rotate(90) translate(36 -43)">
    <use xlink:href="#rim"/>
    <path pointer-events="none" fill="none" stroke="white" stroke-width="1.5" d="M0,-3.0v7 M-2.5,-0.5L0,-3.0L2.5,-0.5"/>
  </g>
  <g id="arrowDown" transform="rotate(180) translate(-30 -48)">
    <use xlink:href="#rim"/>
    <path pointer-events="none" fill="none" stroke="white" stroke-width="1.5" d="M0,-3.0v7 M-2.5,-0.5L0,-3.0L2.5,-0.5"/>
  </g>
  <g id="arrowLeft" transform="rotate(270) translate(-36 17)">
    <use xlink:href="#rim"/>
    <path pointer-events="none" fill="none" stroke="white" stroke-width="1.5" d="M0,-3.0v7 M-2.5,-0.5L0,-3.0L2.5,-0.5"/>
  </g>
  <g id="resetDef">
    <use xlink:href="#rim2" fill="#404040"><set attributeName="fill" to="#808080" begin="reset.mouseover" end="reset.mouseout"/></use>
  </g>
</defs>
<script type="application/ecmascript">
var viewWidth = 264;
var viewHeight = 1077;
var sectionId = 'dynsection-0';
</script>
<script type="application/ecmascript" xlink:href="../../svg.min.js"/>
<svg id="graph" class="graph">
<g id="viewport">
<title>VisToolArc</title>
<!-- Node1 -->
<g id="Node000001" class="node">
<title>Node1</title>
<g id="a_Node000001"><a xlink:title=" ">
<polygon fill="#999999" stroke="transparent" points="183,-184 68,-184 68,0 183,0 183,-184"/>
<text text-anchor="start" x="100.5" y="-172" font-family="Helvetica,sans-Serif" font-size="10.00">VisToolArc</text>
<text text-anchor="start" x="75" y="-157" font-family="Helvetica,sans-Serif" font-size="10.00">&#45;</text>
<text text-anchor="start" x="85.5" y="-157" font-family="Helvetica,sans-Serif" font-size="10.00">arcCenter</text>
<text text-anchor="start" x="75" y="-142" font-family="Helvetica,sans-Serif" font-size="10.00">&#45;</text>
<text text-anchor="start" x="85.5" y="-142" font-family="Helvetica,sans-Serif" font-size="10.00">radius</text>
<text text-anchor="start" x="75" y="-127" font-family="Helvetica,sans-Serif" font-size="10.00">&#45;</text>
<text text-anchor="start" x="85.5" y="-127" font-family="Helvetica,sans-Serif" font-size="10.00">f1</text>
<text text-anchor="start" x="75" y="-112" font-family="Helvetica,sans-Serif" font-size="10.00">&#45;</text>
<text text-anchor="start" x="85.5" y="-112" font-family="Helvetica,sans-Serif" font-size="10.00">f2</text>
<text text-anchor="start" x="72.5" y="-97" font-family="Helvetica,sans-Serif" font-size="10.00">+</text>
<text text-anchor="start" x="85.5" y="-97" font-family="Helvetica,sans-Serif" font-size="10.00">VisToolArc()</text>
<text text-anchor="start" x="72.5" y="-82" font-family="Helvetica,sans-Serif" font-size="10.00">+</text>
<text text-anchor="start" x="85.5" y="-82" font-family="Helvetica,sans-Serif" font-size="10.00">~VisToolArc()</text>
<text text-anchor="start" x="72.5" y="-67" font-family="Helvetica,sans-Serif" font-size="10.00">+</text>
<text text-anchor="start" x="85.5" y="-67" font-family="Helvetica,sans-Serif" font-size="10.00">RefreshGeometry()</text>
<text text-anchor="start" x="72.5" y="-52" font-family="Helvetica,sans-Serif" font-size="10.00">+</text>
<text text-anchor="start" x="85.5" y="-52" font-family="Helvetica,sans-Serif" font-size="10.00">setRadius()</text>
<text text-anchor="start" x="72.5" y="-37" font-family="Helvetica,sans-Serif" font-size="10.00">+</text>
<text text-anchor="start" x="85.5" y="-37" font-family="Helvetica,sans-Serif" font-size="10.00">setF1()</text>
<text text-anchor="start" x="72.5" y="-22" font-family="Helvetica,sans-Serif" font-size="10.00">+</text>
<text text-anchor="start" x="85.5" y="-22" font-family="Helvetica,sans-Serif" font-size="10.00">setF2()</text>
<text text-anchor="start" x="72.5" y="-7" font-family="Helvetica,sans-Serif" font-size="10.00">+</text>
<text text-anchor="start" x="85.5" y="-7" font-family="Helvetica,sans-Serif" font-size="10.00">type()</text>
<polygon fill="#666666" stroke="#666666" points="68.5,-167 68.5,-167 183.5,-167 183.5,-167 68.5,-167"/>
<polygon fill="#666666" stroke="#666666" points="68.5,-107 68.5,-107 83.5,-107 83.5,-107 68.5,-107"/>
<polygon fill="#666666" stroke="#666666" points="83.5,-107 83.5,-107 183.5,-107 183.5,-107 83.5,-107"/>
<polygon fill="none" stroke="#666666" points="68,0 68,-184 183,-184 183,0 68,0"/>
</a>
</g>
</g>
<!-- Node2 -->
<g id="Node000002" class="node">
<title>Node2</title>
<g id="a_Node000002"><a xlink:href="../../db/d76/classVisPath.html" target="_top" xlink:title=" ">
<polygon fill="white" stroke="transparent" points="171,-344 80,-344 80,-220 171,-220 171,-344"/>
<text text-anchor="start" x="107.5" y="-332" font-family="Helvetica,sans-Serif" font-size="10.00">VisPath</text>
<text text-anchor="start" x="124" y="-317" font-family="Helvetica,sans-Serif" font-size="10.00"> </text>
<text text-anchor="start" x="84.5" y="-302" font-family="Helvetica,sans-Serif" font-size="10.00">+</text>
<text text-anchor="start" x="97.5" y="-302" font-family="Helvetica,sans-Serif" font-size="10.00">VisPath()</text>
<text text-anchor="start" x="84.5" y="-287" font-family="Helvetica,sans-Serif" font-size="10.00">+</text>
<text text-anchor="start" x="97.5" y="-287" font-family="Helvetica,sans-Serif" font-size="10.00">~VisPath()</text>
<text text-anchor="start" x="84.5" y="-272" font-family="Helvetica,sans-Serif" font-size="10.00">+</text>
<text text-anchor="start" x="97.5" y="-272" font-family="Helvetica,sans-Serif" font-size="10.00">type()</text>
<text text-anchor="start" x="84.5" y="-257" font-family="Helvetica,sans-Serif" font-size="10.00">#</text>
<text text-anchor="start" x="97.5" y="-257" font-family="Helvetica,sans-Serif" font-size="10.00">initPen()</text>
<text text-anchor="start" x="84.5" y="-242" font-family="Helvetica,sans-Serif" font-size="10.00">#</text>
<text text-anchor="start" x="97.5" y="-242" font-family="Helvetica,sans-Serif" font-size="10.00">AddOnScene()</text>
<text text-anchor="start" x="84.5" y="-227" font-family="Helvetica,sans-Serif" font-size="10.00">#</text>
<text text-anchor="start" x="97.5" y="-227" font-family="Helvetica,sans-Serif" font-size="10.00">GetPoint()</text>
<polygon fill="#666666" stroke="#666666" points="80.5,-327 80.5,-327 171.5,-327 171.5,-327 80.5,-327"/>
<polygon fill="#666666" stroke="#666666" points="80.5,-312 80.5,-312 171.5,-312 171.5,-312 80.5,-312"/>
<polygon fill="none" stroke="#666666" points="80,-220 80,-344 171,-344 171,-220 80,-220"/>
</a>
</g>
</g>
<!-- Node2&#45;&gt;Node1 -->
<g id="edge1_Node000001_Node000002" class="edge">
<title>Node2&#45;&gt;Node1</title>
<g id="a_edge1_Node000001_Node000002"><a xlink:title=" ">
<path fill="none" stroke="#63b8ff" d="M125.5,-209.84C125.5,-201.43 125.5,-192.75 125.5,-184.11"/>
<polygon fill="none" stroke="#63b8ff" points="122,-209.96 125.5,-219.96 129,-209.96 122,-209.96"/>
</a>
</g>
</g>
<!-- Node3 -->
<g id="Node000003" class="node">
<title>Node3</title>
<g id="a_Node000003"><a xlink:href="../../d7/d24/classVisualization.html" target="_top" xlink:title=" ">
<polygon fill="white" stroke="transparent" points="115,-984 0,-984 0,-380 115,-380 115,-984"/>
<text text-anchor="start" x="26" y="-972" font-family="Helvetica,sans-Serif" font-size="10.00">Visualization</text>
<text text-anchor="start" x="4.5" y="-957" font-family="Helvetica,sans-Serif" font-size="10.00">#</text>
<text text-anchor="start" x="17.5" y="-957" font-family="Helvetica,sans-Serif" font-size="10.00">data</text>
<text text-anchor="start" x="4.5" y="-942" font-family="Helvetica,sans-Serif" font-size="10.00">#</text>
<text text-anchor="start" x="17.5" y="-942" font-family="Helvetica,sans-Serif" font-size="10.00">scenePos</text>
<text text-anchor="start" x="4.5" y="-927" font-family="Helvetica,sans-Serif" font-size="10.00">#</text>
<text text-anchor="start" x="17.5" y="-927" font-family="Helvetica,sans-Serif" font-size="10.00">mainColor</text>
<text text-anchor="start" x="4.5" y="-912" font-family="Helvetica,sans-Serif" font-size="10.00">#</text>
<text text-anchor="start" x="17.5" y="-912" font-family="Helvetica,sans-Serif" font-size="10.00">supportColor</text>
<text text-anchor="start" x="4.5" y="-897" font-family="Helvetica,sans-Serif" font-size="10.00">#</text>
<text text-anchor="start" x="17.5" y="-897" font-family="Helvetica,sans-Serif" font-size="10.00">lineStyle</text>
<text text-anchor="start" x="4.5" y="-882" font-family="Helvetica,sans-Serif" font-size="10.00">#</text>
<text text-anchor="start" x="17.5" y="-882" font-family="Helvetica,sans-Serif" font-size="10.00">lineWeight</text>
<text text-anchor="start" x="4.5" y="-867" font-family="Helvetica,sans-Serif" font-size="10.00">#</text>
<text text-anchor="start" x="17.5" y="-867" font-family="Helvetica,sans-Serif" font-size="10.00">object1Id</text>
<text text-anchor="start" x="4.5" y="-852" font-family="Helvetica,sans-Serif" font-size="10.00">#</text>
<text text-anchor="start" x="17.5" y="-852" font-family="Helvetica,sans-Serif" font-size="10.00">toolTip</text>
<text text-anchor="start" x="4.5" y="-837" font-family="Helvetica,sans-Serif" font-size="10.00">#</text>
<text text-anchor="start" x="17.5" y="-837" font-family="Helvetica,sans-Serif" font-size="10.00">mode</text>
<text text-anchor="start" x="4.5" y="-822" font-family="Helvetica,sans-Serif" font-size="10.00">+</text>
<text text-anchor="start" x="17.5" y="-822" font-family="Helvetica,sans-Serif" font-size="10.00">Visualization()</text>
<text text-anchor="start" x="4.5" y="-807" font-family="Helvetica,sans-Serif" font-size="10.00">+</text>
<text text-anchor="start" x="17.5" y="-807" font-family="Helvetica,sans-Serif" font-size="10.00">~Visualization()</text>
<text text-anchor="start" x="4.5" y="-792" font-family="Helvetica,sans-Serif" font-size="10.00">+</text>
<text text-anchor="start" x="17.5" y="-792" font-family="Helvetica,sans-Serif" font-size="10.00">RefreshGeometry()</text>
<text text-anchor="start" x="4.5" y="-777" font-family="Helvetica,sans-Serif" font-size="10.00">+</text>
<text text-anchor="start" x="17.5" y="-777" font-family="Helvetica,sans-Serif" font-size="10.00">setObject1Id()</text>
<text text-anchor="start" x="4.5" y="-762" font-family="Helvetica,sans-Serif" font-size="10.00">+</text>
<text text-anchor="start" x="17.5" y="-762" font-family="Helvetica,sans-Serif" font-size="10.00">setLineStyle()</text>
<text text-anchor="start" x="4.5" y="-747" font-family="Helvetica,sans-Serif" font-size="10.00">+</text>
<text text-anchor="start" x="17.5" y="-747" font-family="Helvetica,sans-Serif" font-size="10.00">setLineWeight()</text>
<text text-anchor="start" x="4.5" y="-732" font-family="Helvetica,sans-Serif" font-size="10.00">+</text>
<text text-anchor="start" x="17.5" y="-732" font-family="Helvetica,sans-Serif" font-size="10.00">setScenePos()</text>
<text text-anchor="start" x="4.5" y="-717" font-family="Helvetica,sans-Serif" font-size="10.00">+</text>
<text text-anchor="start" x="17.5" y="-717" font-family="Helvetica,sans-Serif" font-size="10.00">VisualMode()</text>
<text text-anchor="start" x="4.5" y="-702" font-family="Helvetica,sans-Serif" font-size="10.00">+</text>
<text text-anchor="start" x="17.5" y="-702" font-family="Helvetica,sans-Serif" font-size="10.00">setMainColor()</text>
<text text-anchor="start" x="4.5" y="-687" font-family="Helvetica,sans-Serif" font-size="10.00">+</text>
<text text-anchor="start" x="17.5" y="-687" font-family="Helvetica,sans-Serif" font-size="10.00">getData()</text>
<text text-anchor="start" x="4.5" y="-672" font-family="Helvetica,sans-Serif" font-size="10.00">+</text>
<text text-anchor="start" x="17.5" y="-672" font-family="Helvetica,sans-Serif" font-size="10.00">setData()</text>
<text text-anchor="start" x="4.5" y="-657" font-family="Helvetica,sans-Serif" font-size="10.00">+</text>
<text text-anchor="start" x="17.5" y="-657" font-family="Helvetica,sans-Serif" font-size="10.00">GetMode()</text>
<text text-anchor="start" x="4.5" y="-642" font-family="Helvetica,sans-Serif" font-size="10.00">+</text>
<text text-anchor="start" x="17.5" y="-642" font-family="Helvetica,sans-Serif" font-size="10.00">SetMode()</text>
<text text-anchor="start" x="4.5" y="-627" font-family="Helvetica,sans-Serif" font-size="10.00">+</text>
<text text-anchor="start" x="17.5" y="-627" font-family="Helvetica,sans-Serif" font-size="10.00">CurrentToolTip()</text>
<text text-anchor="start" x="4.5" y="-612" font-family="Helvetica,sans-Serif" font-size="10.00">+</text>
<text text-anchor="start" x="17.5" y="-612" font-family="Helvetica,sans-Serif" font-size="10.00">FindLength()</text>
<text text-anchor="start" x="4.5" y="-597" font-family="Helvetica,sans-Serif" font-size="10.00">+</text>
<text text-anchor="start" x="17.5" y="-597" font-family="Helvetica,sans-Serif" font-size="10.00">FindVal()</text>
<text text-anchor="start" x="4.5" y="-582" font-family="Helvetica,sans-Serif" font-size="10.00">+</text>
<text text-anchor="start" x="17.5" y="-582" font-family="Helvetica,sans-Serif" font-size="10.00">mousePos()</text>
<text text-anchor="start" x="4.5" y="-567" font-family="Helvetica,sans-Serif" font-size="10.00">#</text>
<text text-anchor="start" x="17.5" y="-567" font-family="Helvetica,sans-Serif" font-size="10.00">initPen()</text>
<text text-anchor="start" x="4.5" y="-552" font-family="Helvetica,sans-Serif" font-size="10.00">#</text>
<text text-anchor="start" x="17.5" y="-552" font-family="Helvetica,sans-Serif" font-size="10.00">AddOnScene()</text>
<text text-anchor="start" x="4.5" y="-537" font-family="Helvetica,sans-Serif" font-size="10.00">#</text>
<text text-anchor="start" x="17.5" y="-537" font-family="Helvetica,sans-Serif" font-size="10.00">InitPoint()</text>
<text text-anchor="start" x="4.5" y="-522" font-family="Helvetica,sans-Serif" font-size="10.00">#</text>
<text text-anchor="start" x="17.5" y="-522" font-family="Helvetica,sans-Serif" font-size="10.00">DrawPoint()</text>
<text text-anchor="start" x="4.5" y="-507" font-family="Helvetica,sans-Serif" font-size="10.00">#</text>
<text text-anchor="start" x="17.5" y="-507" font-family="Helvetica,sans-Serif" font-size="10.00">DrawLine()</text>
<text text-anchor="start" x="4.5" y="-492" font-family="Helvetica,sans-Serif" font-size="10.00">#</text>
<text text-anchor="start" x="17.5" y="-492" font-family="Helvetica,sans-Serif" font-size="10.00">DrawPath()</text>
<text text-anchor="start" x="4.5" y="-477" font-family="Helvetica,sans-Serif" font-size="10.00">#</text>
<text text-anchor="start" x="17.5" y="-477" font-family="Helvetica,sans-Serif" font-size="10.00">DrawPath()</text>
<text text-anchor="start" x="4.5" y="-462" font-family="Helvetica,sans-Serif" font-size="10.00">#</text>
<text text-anchor="start" x="17.5" y="-462" font-family="Helvetica,sans-Serif" font-size="10.00">drawArrowedLine()</text>
<text text-anchor="start" x="4.5" y="-447" font-family="Helvetica,sans-Serif" font-size="10.00">#</text>
<text text-anchor="start" x="17.5" y="-447" font-family="Helvetica,sans-Serif" font-size="10.00">drawArrow()</text>
<text text-anchor="start" x="4.5" y="-432" font-family="Helvetica,sans-Serif" font-size="10.00">#</text>
<text text-anchor="start" x="17.5" y="-432" font-family="Helvetica,sans-Serif" font-size="10.00">addItem()</text>
<text text-anchor="start" x="4.5" y="-417" font-family="Helvetica,sans-Serif" font-size="10.00">#</text>
<text text-anchor="start" x="17.5" y="-417" font-family="Helvetica,sans-Serif" font-size="10.00">InitItem()</text>
<text text-anchor="start" x="4.5" y="-402" font-family="Helvetica,sans-Serif" font-size="10.00">#</text>
<text text-anchor="start" x="17.5" y="-402" font-family="Helvetica,sans-Serif" font-size="10.00">GetPointItem()</text>
<text text-anchor="start" x="7" y="-387" font-family="Helvetica,sans-Serif" font-size="10.00">&#45;</text>
<text text-anchor="start" x="17.5" y="-387" font-family="Helvetica,sans-Serif" font-size="10.00">initPointItem()</text>
<polygon fill="#666666" stroke="#666666" points="0.5,-967 0.5,-967 115.5,-967 115.5,-967 0.5,-967"/>
<polygon fill="#666666" stroke="#666666" points="0.5,-832 0.5,-832 15.5,-832 15.5,-832 0.5,-832"/>
<polygon fill="#666666" stroke="#666666" points="15.5,-832 15.5,-832 115.5,-832 115.5,-832 15.5,-832"/>
<polygon fill="none" stroke="#666666" points="0,-380 0,-984 115,-984 115,-380 0,-380"/>
</a>
</g>
</g>
<!-- Node3&#45;&gt;Node2 -->
<g id="edge2_Node000002_Node000003" class="edge">
<title>Node3&#45;&gt;Node2</title>
<g id="a_edge2_Node000002_Node000003"><a xlink:title=" ">
<path fill="none" stroke="#63b8ff" d="M110.66,-369.87C112.2,-360.82 113.67,-352.24 115.04,-344.24"/>
<polygon fill="none" stroke="#63b8ff" points="107.19,-369.41 108.95,-379.85 114.09,-370.59 107.19,-369.41"/>
</a>
</g>
</g>
<!-- Node4 -->
<g id="Node000004" class="node">
<title>Node4</title>
<g id="a_Node000004"><a xlink:title=" ">
<polygon fill="white" stroke="transparent" points="82.5,-1069 32.5,-1069 32.5,-1020 82.5,-1020 82.5,-1069"/>
<text text-anchor="start" x="37.5" y="-1056.5" font-family="Helvetica,sans-Serif" font-size="10.00">QObject</text>
<text text-anchor="start" x="55.5" y="-1041.5" font-family="Helvetica,sans-Serif" font-size="10.00"> </text>
<text text-anchor="start" x="55.5" y="-1026.5" font-family="Helvetica,sans-Serif" font-size="10.00"> </text>
<polygon fill="#666666" stroke="#666666" points="32.5,-1051.5 32.5,-1051.5 82.5,-1051.5 82.5,-1051.5 32.5,-1051.5"/>
<polygon fill="#666666" stroke="#666666" points="32.5,-1036.5 32.5,-1036.5 82.5,-1036.5 82.5,-1036.5 32.5,-1036.5"/>
<polygon fill="none" stroke="#666666" points="32.5,-1020 32.5,-1069 82.5,-1069 82.5,-1020 32.5,-1020"/>
</a>
</g>
</g>
<!-- Node4&#45;&gt;Node3 -->
<g id="edge3_Node000003_Node000004" class="edge">
<title>Node4&#45;&gt;Node3</title>
<g id="a_edge3_Node000003_Node000004"><a xlink:title=" ">
<path fill="none" stroke="#63b8ff" d="M57.5,-1009.83C57.5,-1002.23 57.5,-993.56 57.5,-984.06"/>
<polygon fill="none" stroke="#63b8ff" points="54,-1009.85 57.5,-1019.85 61,-1009.85 54,-1009.85"/>
</a>
</g>
</g>
<!-- Node5 -->
<g id="Node000005" class="node">
<title>Node5</title>
<g id="a_Node000005"><a xlink:href="../../d3/d85/classVCurvePathItem.html" target="_top" xlink:title=" ">
<polygon fill="white" stroke="transparent" points="256,-766.5 133,-766.5 133,-597.5 256,-597.5 256,-766.5"/>
<text text-anchor="start" x="155.5" y="-754" font-family="Helvetica,sans-Serif" font-size="10.00">VCurvePathItem</text>
<text text-anchor="start" x="140" y="-739" font-family="Helvetica,sans-Serif" font-size="10.00">&#45;</text>
<text text-anchor="start" x="150.5" y="-739" font-family="Helvetica,sans-Serif" font-size="10.00">m_directionArrows</text>
<text text-anchor="start" x="140" y="-724" font-family="Helvetica,sans-Serif" font-size="10.00">&#45;</text>
<text text-anchor="start" x="150.5" y="-724" font-family="Helvetica,sans-Serif" font-size="10.00">m_points</text>
<text text-anchor="start" x="137.5" y="-709" font-family="Helvetica,sans-Serif" font-size="10.00">+</text>
<text text-anchor="start" x="150.5" y="-709" font-family="Helvetica,sans-Serif" font-size="10.00">VCurvePathItem()</text>
<text text-anchor="start" x="137.5" y="-694" font-family="Helvetica,sans-Serif" font-size="10.00">+</text>
<text text-anchor="start" x="150.5" y="-694" font-family="Helvetica,sans-Serif" font-size="10.00">~VCurvePathItem()</text>
<text text-anchor="start" x="137.5" y="-679" font-family="Helvetica,sans-Serif" font-size="10.00">+</text>
<text text-anchor="start" x="150.5" y="-679" font-family="Helvetica,sans-Serif" font-size="10.00">shape()</text>
<text text-anchor="start" x="137.5" y="-664" font-family="Helvetica,sans-Serif" font-size="10.00">+</text>
<text text-anchor="start" x="150.5" y="-664" font-family="Helvetica,sans-Serif" font-size="10.00">paint()</text>
<text text-anchor="start" x="137.5" y="-649" font-family="Helvetica,sans-Serif" font-size="10.00">+</text>
<text text-anchor="start" x="150.5" y="-649" font-family="Helvetica,sans-Serif" font-size="10.00">type()</text>
<text text-anchor="start" x="137.5" y="-634" font-family="Helvetica,sans-Serif" font-size="10.00">+</text>
<text text-anchor="start" x="150.5" y="-634" font-family="Helvetica,sans-Serif" font-size="10.00">SetDirectionArrows()</text>
<text text-anchor="start" x="137.5" y="-619" font-family="Helvetica,sans-Serif" font-size="10.00">+</text>
<text text-anchor="start" x="150.5" y="-619" font-family="Helvetica,sans-Serif" font-size="10.00">SetPoints()</text>
<text text-anchor="start" x="137.5" y="-604" font-family="Helvetica,sans-Serif" font-size="10.00">#</text>
<text text-anchor="start" x="150.5" y="-604" font-family="Helvetica,sans-Serif" font-size="10.00">ScalePenWidth()</text>
<polygon fill="#666666" stroke="#666666" points="133.5,-749 133.5,-749 256.5,-749 256.5,-749 133.5,-749"/>
<polygon fill="#666666" stroke="#666666" points="133.5,-719 133.5,-719 148.5,-719 148.5,-719 133.5,-719"/>
<polygon fill="#666666" stroke="#666666" points="148.5,-719 148.5,-719 256.5,-719 256.5,-719 148.5,-719"/>
<polygon fill="none" stroke="#666666" points="133,-597.5 133,-766.5 256,-766.5 256,-597.5 133,-597.5"/>
</a>
</g>
</g>
<!-- Node5&#45;&gt;Node2 -->
<g id="edge4_Node000002_Node000005" class="edge">
<title>Node5&#45;&gt;Node2</title>
<g id="a_edge4_Node000002_Node000005"><a xlink:title=" ">
<path fill="none" stroke="#63b8ff" d="M178.23,-587.14C165.21,-512.02 147.32,-408.87 136.09,-344.09"/>
<polygon fill="none" stroke="#63b8ff" points="174.79,-587.83 179.95,-597.08 181.69,-586.63 174.79,-587.83"/>
</a>
</g>
</g>
<!-- Node6 -->
<g id="Node000006" class="node">
<title>Node6</title>
<g id="a_Node000006"><a xlink:title=" ">
<polygon fill="white" stroke="transparent" points="246.5,-1069 142.5,-1069 142.5,-1020 246.5,-1020 246.5,-1069"/>
<text text-anchor="start" x="147.5" y="-1056.5" font-family="Helvetica,sans-Serif" font-size="10.00">QGraphicsPathItem</text>
<text text-anchor="start" x="192.5" y="-1041.5" font-family="Helvetica,sans-Serif" font-size="10.00"> </text>
<text text-anchor="start" x="192.5" y="-1026.5" font-family="Helvetica,sans-Serif" font-size="10.00"> </text>
<polygon fill="#666666" stroke="#666666" points="142.5,-1051.5 142.5,-1051.5 246.5,-1051.5 246.5,-1051.5 142.5,-1051.5"/>
<polygon fill="#666666" stroke="#666666" points="142.5,-1036.5 142.5,-1036.5 246.5,-1036.5 246.5,-1036.5 142.5,-1036.5"/>
<polygon fill="none" stroke="#666666" points="142.5,-1020 142.5,-1069 246.5,-1069 246.5,-1020 142.5,-1020"/>
</a>
</g>
</g>
<!-- Node6&#45;&gt;Node5 -->
<g id="edge5_Node000005_Node000006" class="edge">
<title>Node6&#45;&gt;Node5</title>
<g id="a_edge5_Node000005_Node000006"><a xlink:title=" ">
<path fill="none" stroke="#63b8ff" d="M194.5,-1009.58C194.5,-954.41 194.5,-843.66 194.5,-766.51"/>
<polygon fill="none" stroke="#63b8ff" points="191,-1009.85 194.5,-1019.85 198,-1009.85 191,-1009.85"/>
</a>
</g>
</g>
</g>
</svg>

<g id="navigator" transform="translate(0 0)" fill="#404254">
  <rect fill="#f2f5e9" fill-opacity="0.5" stroke="#606060" stroke-width=".5" x="0" y="0" width="60" height="60"/>
  <use id="zoomplus" xlink:href="#zoomPlus" x="17" y="9" onmousedown="handleZoom(evt,'in')"/>
  <use id="zoomminus" xlink:href="#zoomMin" x="42" y="9" onmousedown="handleZoom(evt,'out')"/>
  <use id="reset" xlink:href="#resetDef" x="30" y="36" onmousedown="handleReset()"/>
   <use id="arrowup" xlink:href="#arrowUp" x="0" y="0" onmousedown="handlePan(0,-1)"/>
  <use id="arrowright" xlink:href="#arrowRight" x="0" y="0" onmousedown="handlePan(1,0)"/>
  <use id="arrowdown" xlink:href="#arrowDown" x="0" y="0" onmousedown="handlePan(0,1)"/>
  <use id="arrowleft" xlink:href="#arrowLeft" x="0" y="0" onmousedown="handlePan(-1,0)"/>
</g>
<svg viewBox="0 0 15 15" width="100%" height="30px" preserveAspectRatio="xMaxYMin meet">
 <g id="arrow_out" transform="scale(0.3 0.3)">
  <a xlink:href="classVisToolArc__inherit__graph_org.svg" target="_base">
   <rect id="button" ry="5" rx="5" y="6" x="6" height="38" width="38"
        fill="#f2f5e9" fill-opacity="0.5" stroke="#606060" stroke-width="1.0"/>
   <path id="arrow"
     d="M 11.500037,31.436501 C 11.940474,20.09759 22.043105,11.32322 32.158766,21.979434 L 37.068811,17.246167 C 37.068811,17.246167 37.088388,32 37.088388,32 L 22.160133,31.978069 C 22.160133,31.978069 26.997745,27.140456 26.997745,27.140456 C 18.528582,18.264221 13.291696,25.230495 11.500037,31.436501 z"
     style="fill:#404040;"/>
  </a>
 </g>
</svg>

<style type='text/css'>
<![CDATA[
[data-mouse-over-selected='false'] { opacity: 0.7; }
[data-mouse-over-selected='true']  { opacity: 1.0; }
]]>
</style>
<script type="application/ecmascript"><![CDATA[
document.addEventListener('DOMContentLoaded', (event) => {
  highlightEdges();
  highlightAdjacentNodes();
});
]]></script>
</svg>
