<?xml version="1.0" encoding="UTF-8" standalone="no"?>
<!DOCTYPE svg PUBLIC "-//W3C//DTD SVG 1.1//EN"
 "http://www.w3.org/Graphics/SVG/1.1/DTD/svg11.dtd">
<!-- Generated by graphviz version 2.43.0 (0)
 -->
<!-- Title: VisToolSplinePath Pages: 1 -->
<svg width="264pt" height="1167pt"
 viewBox="0.00 0.00 264.00 1167.00" xmlns="http://www.w3.org/2000/svg" xmlns:xlink="http://www.w3.org/1999/xlink">
<g id="graph0" class="graph" transform="scale(1 1) rotate(0) translate(4 1163)">
<title>VisToolSplinePath</title>
<!-- Node1 -->
<g id="Node000001" class="node">
<title>Node1</title>
<g id="a_Node000001"><a xlink:title=" ">
<polygon fill="#999999" stroke="transparent" points="187.5,-274 63.5,-274 63.5,0 187.5,0 187.5,-274"/>
<text text-anchor="start" x="82.5" y="-262" font-family="Helvetica,sans-Serif" font-size="10.00">VisToolSplinePath</text>
<text text-anchor="start" x="67.5" y="-247" font-family="Helvetica,sans-Serif" font-size="10.00">#</text>
<text text-anchor="start" x="80.5" y="-247" font-family="Helvetica,sans-Serif" font-size="10.00">points</text>
<text text-anchor="start" x="67.5" y="-232" font-family="Helvetica,sans-Serif" font-size="10.00">#</text>
<text text-anchor="start" x="80.5" y="-232" font-family="Helvetica,sans-Serif" font-size="10.00">ctrlPoints</text>
<text text-anchor="start" x="67.5" y="-217" font-family="Helvetica,sans-Serif" font-size="10.00">#</text>
<text text-anchor="start" x="80.5" y="-217" font-family="Helvetica,sans-Serif" font-size="10.00">newCurveSegment</text>
<text text-anchor="start" x="67.5" y="-202" font-family="Helvetica,sans-Serif" font-size="10.00">#</text>
<text text-anchor="start" x="80.5" y="-202" font-family="Helvetica,sans-Serif" font-size="10.00">path</text>
<text text-anchor="start" x="67.5" y="-187" font-family="Helvetica,sans-Serif" font-size="10.00">#</text>
<text text-anchor="start" x="80.5" y="-187" font-family="Helvetica,sans-Serif" font-size="10.00">isLeftMousePressed</text>
<text text-anchor="start" x="67.5" y="-172" font-family="Helvetica,sans-Serif" font-size="10.00">#</text>
<text text-anchor="start" x="80.5" y="-172" font-family="Helvetica,sans-Serif" font-size="10.00">pointIsSelected</text>
<text text-anchor="start" x="67.5" y="-157" font-family="Helvetica,sans-Serif" font-size="10.00">#</text>
<text text-anchor="start" x="80.5" y="-157" font-family="Helvetica,sans-Serif" font-size="10.00">ctrlPoint</text>
<text text-anchor="start" x="67.5" y="-142" font-family="Helvetica,sans-Serif" font-size="10.00">+</text>
<text text-anchor="start" x="80.5" y="-142" font-family="Helvetica,sans-Serif" font-size="10.00">VisToolSplinePath()</text>
<text text-anchor="start" x="67.5" y="-127" font-family="Helvetica,sans-Serif" font-size="10.00">+</text>
<text text-anchor="start" x="80.5" y="-127" font-family="Helvetica,sans-Serif" font-size="10.00">~VisToolSplinePath()</text>
<text text-anchor="start" x="67.5" y="-112" font-family="Helvetica,sans-Serif" font-size="10.00">+</text>
<text text-anchor="start" x="80.5" y="-112" font-family="Helvetica,sans-Serif" font-size="10.00">RefreshGeometry()</text>
<text text-anchor="start" x="67.5" y="-97" font-family="Helvetica,sans-Serif" font-size="10.00">+</text>
<text text-anchor="start" x="80.5" y="-97" font-family="Helvetica,sans-Serif" font-size="10.00">setPath()</text>
<text text-anchor="start" x="67.5" y="-82" font-family="Helvetica,sans-Serif" font-size="10.00">+</text>
<text text-anchor="start" x="80.5" y="-82" font-family="Helvetica,sans-Serif" font-size="10.00">getPath()</text>
<text text-anchor="start" x="67.5" y="-67" font-family="Helvetica,sans-Serif" font-size="10.00">+</text>
<text text-anchor="start" x="80.5" y="-67" font-family="Helvetica,sans-Serif" font-size="10.00">type()</text>
<text text-anchor="start" x="67.5" y="-52" font-family="Helvetica,sans-Serif" font-size="10.00">+</text>
<text text-anchor="start" x="80.5" y="-52" font-family="Helvetica,sans-Serif" font-size="10.00">MouseLeftPressed()</text>
<text text-anchor="start" x="67.5" y="-37" font-family="Helvetica,sans-Serif" font-size="10.00">+</text>
<text text-anchor="start" x="80.5" y="-37" font-family="Helvetica,sans-Serif" font-size="10.00">MouseLeftReleased()</text>
<text text-anchor="start" x="67.5" y="-22" font-family="Helvetica,sans-Serif" font-size="10.00">#</text>
<text text-anchor="start" x="80.5" y="-22" font-family="Helvetica,sans-Serif" font-size="10.00">getPoint()</text>
<text text-anchor="start" x="67.5" y="-7" font-family="Helvetica,sans-Serif" font-size="10.00">#</text>
<text text-anchor="start" x="80.5" y="-7" font-family="Helvetica,sans-Serif" font-size="10.00">Creating()</text>
<polygon fill="#666666" stroke="#666666" points="63.5,-257 63.5,-257 187.5,-257 187.5,-257 63.5,-257"/>
<polygon fill="#666666" stroke="#666666" points="63.5,-152 63.5,-152 78.5,-152 78.5,-152 63.5,-152"/>
<polygon fill="#666666" stroke="#666666" points="78.5,-152 78.5,-152 187.5,-152 187.5,-152 78.5,-152"/>
<polygon fill="none" stroke="#666666" points="63.5,0 63.5,-274 187.5,-274 187.5,0 63.5,0"/>
</a>
</g>
</g>
<!-- Node2 -->
<g id="Node000002" class="node">
<title>Node2</title>
<g id="a_Node000002"><a xlink:href="../../db/d76/classVisPath.html" target="_top" xlink:title=" ">
<polygon fill="white" stroke="transparent" points="171,-434 80,-434 80,-310 171,-310 171,-434"/>
<text text-anchor="start" x="107.5" y="-422" font-family="Helvetica,sans-Serif" font-size="10.00">VisPath</text>
<text text-anchor="start" x="124" y="-407" font-family="Helvetica,sans-Serif" font-size="10.00"> </text>
<text text-anchor="start" x="84.5" y="-392" font-family="Helvetica,sans-Serif" font-size="10.00">+</text>
<text text-anchor="start" x="97.5" y="-392" font-family="Helvetica,sans-Serif" font-size="10.00">VisPath()</text>
<text text-anchor="start" x="84.5" y="-377" font-family="Helvetica,sans-Serif" font-size="10.00">+</text>
<text text-anchor="start" x="97.5" y="-377" font-family="Helvetica,sans-Serif" font-size="10.00">~VisPath()</text>
<text text-anchor="start" x="84.5" y="-362" font-family="Helvetica,sans-Serif" font-size="10.00">+</text>
<text text-anchor="start" x="97.5" y="-362" font-family="Helvetica,sans-Serif" font-size="10.00">type()</text>
<text text-anchor="start" x="84.5" y="-347" font-family="Helvetica,sans-Serif" font-size="10.00">#</text>
<text text-anchor="start" x="97.5" y="-347" font-family="Helvetica,sans-Serif" font-size="10.00">initPen()</text>
<text text-anchor="start" x="84.5" y="-332" font-family="Helvetica,sans-Serif" font-size="10.00">#</text>
<text text-anchor="start" x="97.5" y="-332" font-family="Helvetica,sans-Serif" font-size="10.00">AddOnScene()</text>
<text text-anchor="start" x="84.5" y="-317" font-family="Helvetica,sans-Serif" font-size="10.00">#</text>
<text text-anchor="start" x="97.5" y="-317" font-family="Helvetica,sans-Serif" font-size="10.00">GetPoint()</text>
<polygon fill="#666666" stroke="#666666" points="80.5,-417 80.5,-417 171.5,-417 171.5,-417 80.5,-417"/>
<polygon fill="#666666" stroke="#666666" points="80.5,-402 80.5,-402 171.5,-402 171.5,-402 80.5,-402"/>
<polygon fill="none" stroke="#666666" points="80,-310 80,-434 171,-434 171,-310 80,-310"/>
</a>
</g>
</g>
<!-- Node2&#45;&gt;Node1 -->
<g id="edge1_Node000001_Node000002" class="edge">
<title>Node2&#45;&gt;Node1</title>
<g id="a_edge1_Node000001_Node000002"><a xlink:title=" ">
<path fill="none" stroke="#63b8ff" d="M125.5,-299.6C125.5,-291.39 125.5,-282.84 125.5,-274.13"/>
<polygon fill="none" stroke="#63b8ff" points="122,-299.78 125.5,-309.78 129,-299.78 122,-299.78"/>
</a>
</g>
</g>
<!-- Node3 -->
<g id="Node000003" class="node">
<title>Node3</title>
<g id="a_Node000003"><a xlink:href="../../d7/d24/classVisualization.html" target="_top" xlink:title=" ">
<polygon fill="white" stroke="transparent" points="115,-1074 0,-1074 0,-470 115,-470 115,-1074"/>
<text text-anchor="start" x="26" y="-1062" font-family="Helvetica,sans-Serif" font-size="10.00">Visualization</text>
<text text-anchor="start" x="4.5" y="-1047" font-family="Helvetica,sans-Serif" font-size="10.00">#</text>
<text text-anchor="start" x="17.5" y="-1047" font-family="Helvetica,sans-Serif" font-size="10.00">data</text>
<text text-anchor="start" x="4.5" y="-1032" font-family="Helvetica,sans-Serif" font-size="10.00">#</text>
<text text-anchor="start" x="17.5" y="-1032" font-family="Helvetica,sans-Serif" font-size="10.00">scenePos</text>
<text text-anchor="start" x="4.5" y="-1017" font-family="Helvetica,sans-Serif" font-size="10.00">#</text>
<text text-anchor="start" x="17.5" y="-1017" font-family="Helvetica,sans-Serif" font-size="10.00">mainColor</text>
<text text-anchor="start" x="4.5" y="-1002" font-family="Helvetica,sans-Serif" font-size="10.00">#</text>
<text text-anchor="start" x="17.5" y="-1002" font-family="Helvetica,sans-Serif" font-size="10.00">supportColor</text>
<text text-anchor="start" x="4.5" y="-987" font-family="Helvetica,sans-Serif" font-size="10.00">#</text>
<text text-anchor="start" x="17.5" y="-987" font-family="Helvetica,sans-Serif" font-size="10.00">lineStyle</text>
<text text-anchor="start" x="4.5" y="-972" font-family="Helvetica,sans-Serif" font-size="10.00">#</text>
<text text-anchor="start" x="17.5" y="-972" font-family="Helvetica,sans-Serif" font-size="10.00">lineWeight</text>
<text text-anchor="start" x="4.5" y="-957" font-family="Helvetica,sans-Serif" font-size="10.00">#</text>
<text text-anchor="start" x="17.5" y="-957" font-family="Helvetica,sans-Serif" font-size="10.00">object1Id</text>
<text text-anchor="start" x="4.5" y="-942" font-family="Helvetica,sans-Serif" font-size="10.00">#</text>
<text text-anchor="start" x="17.5" y="-942" font-family="Helvetica,sans-Serif" font-size="10.00">toolTip</text>
<text text-anchor="start" x="4.5" y="-927" font-family="Helvetica,sans-Serif" font-size="10.00">#</text>
<text text-anchor="start" x="17.5" y="-927" font-family="Helvetica,sans-Serif" font-size="10.00">mode</text>
<text text-anchor="start" x="4.5" y="-912" font-family="Helvetica,sans-Serif" font-size="10.00">+</text>
<text text-anchor="start" x="17.5" y="-912" font-family="Helvetica,sans-Serif" font-size="10.00">Visualization()</text>
<text text-anchor="start" x="4.5" y="-897" font-family="Helvetica,sans-Serif" font-size="10.00">+</text>
<text text-anchor="start" x="17.5" y="-897" font-family="Helvetica,sans-Serif" font-size="10.00">~Visualization()</text>
<text text-anchor="start" x="4.5" y="-882" font-family="Helvetica,sans-Serif" font-size="10.00">+</text>
<text text-anchor="start" x="17.5" y="-882" font-family="Helvetica,sans-Serif" font-size="10.00">RefreshGeometry()</text>
<text text-anchor="start" x="4.5" y="-867" font-family="Helvetica,sans-Serif" font-size="10.00">+</text>
<text text-anchor="start" x="17.5" y="-867" font-family="Helvetica,sans-Serif" font-size="10.00">setObject1Id()</text>
<text text-anchor="start" x="4.5" y="-852" font-family="Helvetica,sans-Serif" font-size="10.00">+</text>
<text text-anchor="start" x="17.5" y="-852" font-family="Helvetica,sans-Serif" font-size="10.00">setLineStyle()</text>
<text text-anchor="start" x="4.5" y="-837" font-family="Helvetica,sans-Serif" font-size="10.00">+</text>
<text text-anchor="start" x="17.5" y="-837" font-family="Helvetica,sans-Serif" font-size="10.00">setLineWeight()</text>
<text text-anchor="start" x="4.5" y="-822" font-family="Helvetica,sans-Serif" font-size="10.00">+</text>
<text text-anchor="start" x="17.5" y="-822" font-family="Helvetica,sans-Serif" font-size="10.00">setScenePos()</text>
<text text-anchor="start" x="4.5" y="-807" font-family="Helvetica,sans-Serif" font-size="10.00">+</text>
<text text-anchor="start" x="17.5" y="-807" font-family="Helvetica,sans-Serif" font-size="10.00">VisualMode()</text>
<text text-anchor="start" x="4.5" y="-792" font-family="Helvetica,sans-Serif" font-size="10.00">+</text>
<text text-anchor="start" x="17.5" y="-792" font-family="Helvetica,sans-Serif" font-size="10.00">setMainColor()</text>
<text text-anchor="start" x="4.5" y="-777" font-family="Helvetica,sans-Serif" font-size="10.00">+</text>
<text text-anchor="start" x="17.5" y="-777" font-family="Helvetica,sans-Serif" font-size="10.00">getData()</text>
<text text-anchor="start" x="4.5" y="-762" font-family="Helvetica,sans-Serif" font-size="10.00">+</text>
<text text-anchor="start" x="17.5" y="-762" font-family="Helvetica,sans-Serif" font-size="10.00">setData()</text>
<text text-anchor="start" x="4.5" y="-747" font-family="Helvetica,sans-Serif" font-size="10.00">+</text>
<text text-anchor="start" x="17.5" y="-747" font-family="Helvetica,sans-Serif" font-size="10.00">GetMode()</text>
<text text-anchor="start" x="4.5" y="-732" font-family="Helvetica,sans-Serif" font-size="10.00">+</text>
<text text-anchor="start" x="17.5" y="-732" font-family="Helvetica,sans-Serif" font-size="10.00">SetMode()</text>
<text text-anchor="start" x="4.5" y="-717" font-family="Helvetica,sans-Serif" font-size="10.00">+</text>
<text text-anchor="start" x="17.5" y="-717" font-family="Helvetica,sans-Serif" font-size="10.00">CurrentToolTip()</text>
<text text-anchor="start" x="4.5" y="-702" font-family="Helvetica,sans-Serif" font-size="10.00">+</text>
<text text-anchor="start" x="17.5" y="-702" font-family="Helvetica,sans-Serif" font-size="10.00">FindLength()</text>
<text text-anchor="start" x="4.5" y="-687" font-family="Helvetica,sans-Serif" font-size="10.00">+</text>
<text text-anchor="start" x="17.5" y="-687" font-family="Helvetica,sans-Serif" font-size="10.00">FindVal()</text>
<text text-anchor="start" x="4.5" y="-672" font-family="Helvetica,sans-Serif" font-size="10.00">+</text>
<text text-anchor="start" x="17.5" y="-672" font-family="Helvetica,sans-Serif" font-size="10.00">mousePos()</text>
<text text-anchor="start" x="4.5" y="-657" font-family="Helvetica,sans-Serif" font-size="10.00">#</text>
<text text-anchor="start" x="17.5" y="-657" font-family="Helvetica,sans-Serif" font-size="10.00">initPen()</text>
<text text-anchor="start" x="4.5" y="-642" font-family="Helvetica,sans-Serif" font-size="10.00">#</text>
<text text-anchor="start" x="17.5" y="-642" font-family="Helvetica,sans-Serif" font-size="10.00">AddOnScene()</text>
<text text-anchor="start" x="4.5" y="-627" font-family="Helvetica,sans-Serif" font-size="10.00">#</text>
<text text-anchor="start" x="17.5" y="-627" font-family="Helvetica,sans-Serif" font-size="10.00">InitPoint()</text>
<text text-anchor="start" x="4.5" y="-612" font-family="Helvetica,sans-Serif" font-size="10.00">#</text>
<text text-anchor="start" x="17.5" y="-612" font-family="Helvetica,sans-Serif" font-size="10.00">DrawPoint()</text>
<text text-anchor="start" x="4.5" y="-597" font-family="Helvetica,sans-Serif" font-size="10.00">#</text>
<text text-anchor="start" x="17.5" y="-597" font-family="Helvetica,sans-Serif" font-size="10.00">DrawLine()</text>
<text text-anchor="start" x="4.5" y="-582" font-family="Helvetica,sans-Serif" font-size="10.00">#</text>
<text text-anchor="start" x="17.5" y="-582" font-family="Helvetica,sans-Serif" font-size="10.00">DrawPath()</text>
<text text-anchor="start" x="4.5" y="-567" font-family="Helvetica,sans-Serif" font-size="10.00">#</text>
<text text-anchor="start" x="17.5" y="-567" font-family="Helvetica,sans-Serif" font-size="10.00">DrawPath()</text>
<text text-anchor="start" x="4.5" y="-552" font-family="Helvetica,sans-Serif" font-size="10.00">#</text>
<text text-anchor="start" x="17.5" y="-552" font-family="Helvetica,sans-Serif" font-size="10.00">drawArrowedLine()</text>
<text text-anchor="start" x="4.5" y="-537" font-family="Helvetica,sans-Serif" font-size="10.00">#</text>
<text text-anchor="start" x="17.5" y="-537" font-family="Helvetica,sans-Serif" font-size="10.00">drawArrow()</text>
<text text-anchor="start" x="4.5" y="-522" font-family="Helvetica,sans-Serif" font-size="10.00">#</text>
<text text-anchor="start" x="17.5" y="-522" font-family="Helvetica,sans-Serif" font-size="10.00">addItem()</text>
<text text-anchor="start" x="4.5" y="-507" font-family="Helvetica,sans-Serif" font-size="10.00">#</text>
<text text-anchor="start" x="17.5" y="-507" font-family="Helvetica,sans-Serif" font-size="10.00">InitItem()</text>
<text text-anchor="start" x="4.5" y="-492" font-family="Helvetica,sans-Serif" font-size="10.00">#</text>
<text text-anchor="start" x="17.5" y="-492" font-family="Helvetica,sans-Serif" font-size="10.00">GetPointItem()</text>
<text text-anchor="start" x="7" y="-477" font-family="Helvetica,sans-Serif" font-size="10.00">&#45;</text>
<text text-anchor="start" x="17.5" y="-477" font-family="Helvetica,sans-Serif" font-size="10.00">initPointItem()</text>
<polygon fill="#666666" stroke="#666666" points="0.5,-1057 0.5,-1057 115.5,-1057 115.5,-1057 0.5,-1057"/>
<polygon fill="#666666" stroke="#666666" points="0.5,-922 0.5,-922 15.5,-922 15.5,-922 0.5,-922"/>
<polygon fill="#666666" stroke="#666666" points="15.5,-922 15.5,-922 115.5,-922 115.5,-922 15.5,-922"/>
<polygon fill="none" stroke="#666666" points="0,-470 0,-1074 115,-1074 115,-470 0,-470"/>
</a>
</g>
</g>
<!-- Node3&#45;&gt;Node2 -->
<g id="edge2_Node000002_Node000003" class="edge">
<title>Node3&#45;&gt;Node2</title>
<g id="a_edge2_Node000002_Node000003"><a xlink:title=" ">
<path fill="none" stroke="#63b8ff" d="M110.66,-459.87C112.2,-450.82 113.67,-442.24 115.04,-434.24"/>
<polygon fill="none" stroke="#63b8ff" points="107.19,-459.41 108.95,-469.85 114.09,-460.59 107.19,-459.41"/>
</a>
</g>
</g>
<!-- Node4 -->
<g id="Node000004" class="node">
<title>Node4</title>
<g id="a_Node000004"><a xlink:title=" ">
<polygon fill="white" stroke="transparent" points="82.5,-1159 32.5,-1159 32.5,-1110 82.5,-1110 82.5,-1159"/>
<text text-anchor="start" x="37.5" y="-1146.5" font-family="Helvetica,sans-Serif" font-size="10.00">QObject</text>
<text text-anchor="start" x="55.5" y="-1131.5" font-family="Helvetica,sans-Serif" font-size="10.00"> </text>
<text text-anchor="start" x="55.5" y="-1116.5" font-family="Helvetica,sans-Serif" font-size="10.00"> </text>
<polygon fill="#666666" stroke="#666666" points="32.5,-1141.5 32.5,-1141.5 82.5,-1141.5 82.5,-1141.5 32.5,-1141.5"/>
<polygon fill="#666666" stroke="#666666" points="32.5,-1126.5 32.5,-1126.5 82.5,-1126.5 82.5,-1126.5 32.5,-1126.5"/>
<polygon fill="none" stroke="#666666" points="32.5,-1110 32.5,-1159 82.5,-1159 82.5,-1110 32.5,-1110"/>
</a>
</g>
</g>
<!-- Node4&#45;&gt;Node3 -->
<g id="edge3_Node000003_Node000004" class="edge">
<title>Node4&#45;&gt;Node3</title>
<g id="a_edge3_Node000003_Node000004"><a xlink:title=" ">
<path fill="none" stroke="#63b8ff" d="M57.5,-1099.83C57.5,-1092.23 57.5,-1083.56 57.5,-1074.06"/>
<polygon fill="none" stroke="#63b8ff" points="54,-1099.85 57.5,-1109.85 61,-1099.85 54,-1099.85"/>
</a>
</g>
</g>
<!-- Node5 -->
<g id="Node000005" class="node">
<title>Node5</title>
<g id="a_Node000005"><a xlink:href="../../d3/d85/classVCurvePathItem.html" target="_top" xlink:title=" ">
<polygon fill="white" stroke="transparent" points="256,-856.5 133,-856.5 133,-687.5 256,-687.5 256,-856.5"/>
<text text-anchor="start" x="155.5" y="-844" font-family="Helvetica,sans-Serif" font-size="10.00">VCurvePathItem</text>
<text text-anchor="start" x="140" y="-829" font-family="Helvetica,sans-Serif" font-size="10.00">&#45;</text>
<text text-anchor="start" x="150.5" y="-829" font-family="Helvetica,sans-Serif" font-size="10.00">m_directionArrows</text>
<text text-anchor="start" x="140" y="-814" font-family="Helvetica,sans-Serif" font-size="10.00">&#45;</text>
<text text-anchor="start" x="150.5" y="-814" font-family="Helvetica,sans-Serif" font-size="10.00">m_points</text>
<text text-anchor="start" x="137.5" y="-799" font-family="Helvetica,sans-Serif" font-size="10.00">+</text>
<text text-anchor="start" x="150.5" y="-799" font-family="Helvetica,sans-Serif" font-size="10.00">VCurvePathItem()</text>
<text text-anchor="start" x="137.5" y="-784" font-family="Helvetica,sans-Serif" font-size="10.00">+</text>
<text text-anchor="start" x="150.5" y="-784" font-family="Helvetica,sans-Serif" font-size="10.00">~VCurvePathItem()</text>
<text text-anchor="start" x="137.5" y="-769" font-family="Helvetica,sans-Serif" font-size="10.00">+</text>
<text text-anchor="start" x="150.5" y="-769" font-family="Helvetica,sans-Serif" font-size="10.00">shape()</text>
<text text-anchor="start" x="137.5" y="-754" font-family="Helvetica,sans-Serif" font-size="10.00">+</text>
<text text-anchor="start" x="150.5" y="-754" font-family="Helvetica,sans-Serif" font-size="10.00">paint()</text>
<text text-anchor="start" x="137.5" y="-739" font-family="Helvetica,sans-Serif" font-size="10.00">+</text>
<text text-anchor="start" x="150.5" y="-739" font-family="Helvetica,sans-Serif" font-size="10.00">type()</text>
<text text-anchor="start" x="137.5" y="-724" font-family="Helvetica,sans-Serif" font-size="10.00">+</text>
<text text-anchor="start" x="150.5" y="-724" font-family="Helvetica,sans-Serif" font-size="10.00">SetDirectionArrows()</text>
<text text-anchor="start" x="137.5" y="-709" font-family="Helvetica,sans-Serif" font-size="10.00">+</text>
<text text-anchor="start" x="150.5" y="-709" font-family="Helvetica,sans-Serif" font-size="10.00">SetPoints()</text>
<text text-anchor="start" x="137.5" y="-694" font-family="Helvetica,sans-Serif" font-size="10.00">#</text>
<text text-anchor="start" x="150.5" y="-694" font-family="Helvetica,sans-Serif" font-size="10.00">ScalePenWidth()</text>
<polygon fill="#666666" stroke="#666666" points="133.5,-839 133.5,-839 256.5,-839 256.5,-839 133.5,-839"/>
<polygon fill="#666666" stroke="#666666" points="133.5,-809 133.5,-809 148.5,-809 148.5,-809 133.5,-809"/>
<polygon fill="#666666" stroke="#666666" points="148.5,-809 148.5,-809 256.5,-809 256.5,-809 148.5,-809"/>
<polygon fill="none" stroke="#666666" points="133,-687.5 133,-856.5 256,-856.5 256,-687.5 133,-687.5"/>
</a>
</g>
</g>
<!-- Node5&#45;&gt;Node2 -->
<g id="edge4_Node000002_Node000005" class="edge">
<title>Node5&#45;&gt;Node2</title>
<g id="a_edge4_Node000002_Node000005"><a xlink:title=" ">
<path fill="none" stroke="#63b8ff" d="M178.23,-677.14C165.21,-602.02 147.32,-498.87 136.09,-434.09"/>
<polygon fill="none" stroke="#63b8ff" points="174.79,-677.83 179.95,-687.08 181.69,-676.63 174.79,-677.83"/>
</a>
</g>
</g>
<!-- Node6 -->
<g id="Node000006" class="node">
<title>Node6</title>
<g id="a_Node000006"><a xlink:title=" ">
<polygon fill="white" stroke="transparent" points="246.5,-1159 142.5,-1159 142.5,-1110 246.5,-1110 246.5,-1159"/>
<text text-anchor="start" x="147.5" y="-1146.5" font-family="Helvetica,sans-Serif" font-size="10.00">QGraphicsPathItem</text>
<text text-anchor="start" x="192.5" y="-1131.5" font-family="Helvetica,sans-Serif" font-size="10.00"> </text>
<text text-anchor="start" x="192.5" y="-1116.5" font-family="Helvetica,sans-Serif" font-size="10.00"> </text>
<polygon fill="#666666" stroke="#666666" points="142.5,-1141.5 142.5,-1141.5 246.5,-1141.5 246.5,-1141.5 142.5,-1141.5"/>
<polygon fill="#666666" stroke="#666666" points="142.5,-1126.5 142.5,-1126.5 246.5,-1126.5 246.5,-1126.5 142.5,-1126.5"/>
<polygon fill="none" stroke="#666666" points="142.5,-1110 142.5,-1159 246.5,-1159 246.5,-1110 142.5,-1110"/>
</a>
</g>
</g>
<!-- Node6&#45;&gt;Node5 -->
<g id="edge5_Node000005_Node000006" class="edge">
<title>Node6&#45;&gt;Node5</title>
<g id="a_edge5_Node000005_Node000006"><a xlink:title=" ">
<path fill="none" stroke="#63b8ff" d="M194.5,-1099.58C194.5,-1044.41 194.5,-933.66 194.5,-856.51"/>
<polygon fill="none" stroke="#63b8ff" points="191,-1099.85 194.5,-1109.85 198,-1099.85 191,-1099.85"/>
</a>
</g>
</g>
</g>
</svg>
