<?xml version="1.0" encoding="UTF-8" standalone="no"?>
<!DOCTYPE svg PUBLIC "-//W3C//DTD SVG 1.1//EN"
 "http://www.w3.org/Graphics/SVG/1.1/DTD/svg11.dtd">
<!-- Generated by graphviz version 2.43.0 (0)
 -->
<!-- Title: src/libs/vwidgets/vtextgraphicsitem.h Pages: 1 -->
<!--zoomable 247 -->

<svg id="main" version="1.1" xmlns="http://www.w3.org/2000/svg" xmlns:xlink="http://www.w3.org/1999/xlink" xml:space="preserve" onload="init(evt)">
<style type="text/css"><![CDATA[
.node, .edge {opacity: 0.7;}
.node.selected, .edge.selected {opacity: 1;}
.edge:hover path { stroke: red; }
.edge:hover polygon { stroke: red; fill: red; }
]]></style>

<defs>
  <circle id="rim" cx="0" cy="0" r="7"/>
  <circle id="rim2" cx="0" cy="0" r="3.5"/>
  <g id="zoomPlus">
    <use xlink:href="#rim" fill="#404040"><set attributeName="fill" to="#808080" begin="zoomplus.mouseover" end="zoomplus.mouseout"/></use>
    <path d="M-4,0h8M0,-4v8" fill="none" stroke="white" stroke-width="1.5" pointer-events="none"/>
  </g>
  <g id="zoomMin">
    <use xlink:href="#rim" fill="#404040"><set attributeName="fill" to="#808080" begin="zoomminus.mouseover" end="zoomminus.mouseout"/></use>
    <path d="M-4,0h8" fill="none" stroke="white" stroke-width="1.5" pointer-events="none"/>
  </g>
  <g id="arrowUp" transform="translate(30 24)">
    <use xlink:href="#rim"/>
    <path pointer-events="none" fill="none" stroke="white" stroke-width="1.5" d="M0,-3.0v7 M-2.5,-0.5L0,-3.0L2.5,-0.5"/>
  </g>
  <g id="arrowRight" transform="rotate(90) translate(36 -43)">
    <use xlink:href="#rim"/>
    <path pointer-events="none" fill="none" stroke="white" stroke-width="1.5" d="M0,-3.0v7 M-2.5,-0.5L0,-3.0L2.5,-0.5"/>
  </g>
  <g id="arrowDown" transform="rotate(180) translate(-30 -48)">
    <use xlink:href="#rim"/>
    <path pointer-events="none" fill="none" stroke="white" stroke-width="1.5" d="M0,-3.0v7 M-2.5,-0.5L0,-3.0L2.5,-0.5"/>
  </g>
  <g id="arrowLeft" transform="rotate(270) translate(-36 17)">
    <use xlink:href="#rim"/>
    <path pointer-events="none" fill="none" stroke="white" stroke-width="1.5" d="M0,-3.0v7 M-2.5,-0.5L0,-3.0L2.5,-0.5"/>
  </g>
  <g id="resetDef">
    <use xlink:href="#rim2" fill="#404040"><set attributeName="fill" to="#808080" begin="reset.mouseover" end="reset.mouseout"/></use>
  </g>
</defs>
<script type="application/ecmascript">
var viewWidth = 1202;
var viewHeight = 247;
var sectionId = 'dynsection-0';
</script>
<script type="application/ecmascript" xlink:href="../../svg.min.js"/>
<svg id="graph" class="graph">
<g id="viewport">
<title>src/libs/vwidgets/vtextgraphicsitem.h</title>
<!-- Node1 -->
<g id="Node000001" class="node">
<title>Node1</title>
<g id="a_Node000001"><a xlink:title=" ">
<polygon fill="#999999" stroke="#666666" points="657.5,-239 457.5,-239 457.5,-220 657.5,-220 657.5,-239"/>
<text text-anchor="middle" x="557.5" y="-227" font-family="Helvetica,sans-Serif" font-size="10.00">src/libs/vwidgets/vtextgraphicsitem.h</text>
</a>
</g>
</g>
<!-- Node2 -->
<g id="Node000002" class="node">
<title>Node2</title>
<g id="a_Node000002"><a xlink:title=" ">
<polygon fill="#e0e0e0" stroke="#999999" points="45,-74 0,-74 0,-55 45,-55 45,-74"/>
<text text-anchor="middle" x="22.5" y="-62" font-family="Helvetica,sans-Serif" font-size="10.00">QFont</text>
</a>
</g>
</g>
<!-- Node1&#45;&gt;Node2 -->
<g id="edge1_Node000001_Node000002" class="edge">
<title>Node1&#45;&gt;Node2</title>
<g id="a_edge1_Node000001_Node000002"><a xlink:title=" ">
<path fill="none" stroke="#63b8ff" d="M490.38,-219.98C441.1,-212.81 372.87,-200.99 314.5,-184 213.55,-154.61 99.6,-102.56 49.07,-78.44"/>
<polygon fill="#63b8ff" stroke="#63b8ff" points="50.36,-75.18 39.83,-74 47.33,-81.49 50.36,-75.18"/>
</a>
</g>
</g>
<!-- Node3 -->
<g id="Node000003" class="node">
<title>Node3</title>
<g id="a_Node000003"><a xlink:title=" ">
<polygon fill="#e0e0e0" stroke="#999999" points="809.5,-129 711.5,-129 711.5,-110 809.5,-110 809.5,-129"/>
<text text-anchor="middle" x="760.5" y="-117" font-family="Helvetica,sans-Serif" font-size="10.00">QGraphicsObject</text>
</a>
</g>
</g>
<!-- Node1&#45;&gt;Node3 -->
<g id="edge2_Node000001_Node000003" class="edge">
<title>Node1&#45;&gt;Node3</title>
<g id="a_edge2_Node000001_Node000003"><a xlink:title=" ">
<path fill="none" stroke="#63b8ff" d="M562.48,-219.7C570.7,-205.97 588.43,-179.52 610.5,-165 637.7,-147.11 672.32,-136.21 701.44,-129.69"/>
<polygon fill="#63b8ff" stroke="#63b8ff" points="702.43,-133.06 711.49,-127.56 700.98,-126.21 702.43,-133.06"/>
</a>
</g>
</g>
<!-- Node4 -->
<g id="Node000004" class="node">
<title>Node4</title>
<g id="a_Node000004"><a xlink:title=" ">
<polygon fill="#e0e0e0" stroke="#999999" points="104,-74 63,-74 63,-55 104,-55 104,-74"/>
<text text-anchor="middle" x="83.5" y="-62" font-family="Helvetica,sans-Serif" font-size="10.00">QList</text>
</a>
</g>
</g>
<!-- Node1&#45;&gt;Node4 -->
<g id="edge3_Node000001_Node000004" class="edge">
<title>Node1&#45;&gt;Node4</title>
<g id="a_edge3_Node000001_Node000004"><a xlink:title=" ">
<path fill="none" stroke="#63b8ff" d="M512.51,-219.96C474.07,-212.16 417.54,-199.51 369.5,-184 308.63,-164.35 295.6,-153.48 236.5,-129 193.82,-111.32 144.47,-90.83 113.62,-78.01"/>
<polygon fill="#63b8ff" stroke="#63b8ff" points="114.86,-74.74 104.28,-74.14 112.18,-81.2 114.86,-74.74"/>
</a>
</g>
</g>
<!-- Node5 -->
<g id="Node000005" class="node">
<title>Node5</title>
<g id="a_Node000005"><a xlink:title=" ">
<polygon fill="#e0e0e0" stroke="#999999" points="699.5,-184 619.5,-184 619.5,-165 699.5,-165 699.5,-184"/>
<text text-anchor="middle" x="659.5" y="-172" font-family="Helvetica,sans-Serif" font-size="10.00">QMetaObject</text>
</a>
</g>
</g>
<!-- Node1&#45;&gt;Node5 -->
<g id="edge4_Node000001_Node000005" class="edge">
<title>Node1&#45;&gt;Node5</title>
<g id="a_edge4_Node000001_Node000005"><a xlink:title=" ">
<path fill="none" stroke="#63b8ff" d="M573.89,-219.98C590.07,-211.57 615.07,-198.59 633.88,-188.81"/>
<polygon fill="#63b8ff" stroke="#63b8ff" points="635.55,-191.89 642.81,-184.17 632.33,-185.68 635.55,-191.89"/>
</a>
</g>
</g>
<!-- Node6 -->
<g id="Node000006" class="node">
<title>Node6</title>
<g id="a_Node000006"><a xlink:title=" ">
<polygon fill="#e0e0e0" stroke="#999999" points="773.5,-184 717.5,-184 717.5,-165 773.5,-165 773.5,-184"/>
<text text-anchor="middle" x="745.5" y="-172" font-family="Helvetica,sans-Serif" font-size="10.00">QObject</text>
</a>
</g>
</g>
<!-- Node1&#45;&gt;Node6 -->
<g id="edge5_Node000001_Node000006" class="edge">
<title>Node1&#45;&gt;Node6</title>
<g id="a_edge5_Node000001_Node000006"><a xlink:title=" ">
<path fill="none" stroke="#63b8ff" d="M587.71,-219.98C620.2,-210.82 671.96,-196.23 707.27,-186.28"/>
<polygon fill="#63b8ff" stroke="#63b8ff" points="708.54,-189.56 717.21,-183.47 706.64,-182.82 708.54,-189.56"/>
</a>
</g>
</g>
<!-- Node7 -->
<g id="Node000007" class="node">
<title>Node7</title>
<g id="a_Node000007"><a xlink:title=" ">
<polygon fill="#e0e0e0" stroke="#999999" points="847,-184 792,-184 792,-165 847,-165 847,-184"/>
<text text-anchor="middle" x="819.5" y="-172" font-family="Helvetica,sans-Serif" font-size="10.00">QPointF</text>
</a>
</g>
</g>
<!-- Node1&#45;&gt;Node7 -->
<g id="edge6_Node000001_Node000007" class="edge">
<title>Node1&#45;&gt;Node7</title>
<g id="a_edge6_Node000001_Node000007"><a xlink:title=" ">
<path fill="none" stroke="#63b8ff" d="M602.83,-219.96C646.2,-211.69 713.69,-198.57 781.62,-184.14"/>
<polygon fill="#63b8ff" stroke="#63b8ff" points="782.59,-187.51 791.64,-182 781.13,-180.66 782.59,-187.51"/>
</a>
</g>
</g>
<!-- Node8 -->
<g id="Node000008" class="node">
<title>Node8</title>
<g id="a_Node000008"><a xlink:title=" ">
<polygon fill="#e0e0e0" stroke="#999999" points="917.5,-184 865.5,-184 865.5,-165 917.5,-165 917.5,-184"/>
<text text-anchor="middle" x="891.5" y="-172" font-family="Helvetica,sans-Serif" font-size="10.00">QRectF</text>
</a>
</g>
</g>
<!-- Node1&#45;&gt;Node8 -->
<g id="edge7_Node000001_Node000008" class="edge">
<title>Node1&#45;&gt;Node8</title>
<g id="a_edge7_Node000001_Node000008"><a xlink:title=" ">
<path fill="none" stroke="#63b8ff" d="M626.98,-219.97C685.46,-212.38 771.48,-200.24 855.25,-184.1"/>
<polygon fill="#63b8ff" stroke="#63b8ff" points="856.04,-187.51 865.18,-182.16 854.7,-180.64 856.04,-187.51"/>
</a>
</g>
</g>
<!-- Node9 -->
<g id="Node000009" class="node">
<title>Node9</title>
<g id="a_Node000009"><a xlink:title=" ">
<polygon fill="#e0e0e0" stroke="#999999" points="985.5,-184 935.5,-184 935.5,-165 985.5,-165 985.5,-184"/>
<text text-anchor="middle" x="960.5" y="-172" font-family="Helvetica,sans-Serif" font-size="10.00">QSizeF</text>
</a>
</g>
</g>
<!-- Node1&#45;&gt;Node9 -->
<g id="edge8_Node000001_Node000009" class="edge">
<title>Node1&#45;&gt;Node9</title>
<g id="a_edge8_Node000001_Node000009"><a xlink:title=" ">
<path fill="none" stroke="#63b8ff" d="M656.29,-219.97C728.41,-212.95 828.68,-201.56 925.38,-184"/>
<polygon fill="#63b8ff" stroke="#63b8ff" points="926.12,-187.42 935.33,-182.17 924.86,-180.53 926.12,-187.42"/>
</a>
</g>
</g>
<!-- Node10 -->
<g id="Node000010" class="node">
<title>Node10</title>
<g id="a_Node000010"><a xlink:title=" ">
<polygon fill="#e0e0e0" stroke="#999999" points="406,-74 353,-74 353,-55 406,-55 406,-74"/>
<text text-anchor="middle" x="379.5" y="-62" font-family="Helvetica,sans-Serif" font-size="10.00">QString</text>
</a>
</g>
</g>
<!-- Node1&#45;&gt;Node10 -->
<g id="edge9_Node000001_Node000010" class="edge">
<title>Node1&#45;&gt;Node10</title>
<g id="a_edge9_Node000001_Node000010"><a xlink:title=" ">
<path fill="none" stroke="#63b8ff" d="M528.89,-219.98C508.26,-212.8 480.61,-200.96 460.5,-184 426.35,-155.19 400.3,-108.61 387.76,-83.28"/>
<polygon fill="#63b8ff" stroke="#63b8ff" points="390.84,-81.62 383.36,-74.12 384.54,-84.65 390.84,-81.62"/>
</a>
</g>
</g>
<!-- Node11 -->
<g id="Node000011" class="node">
<title>Node11</title>
<g id="a_Node000011"><a xlink:title=" ">
<polygon fill="#e0e0e0" stroke="#999999" points="483,-74 424,-74 424,-55 483,-55 483,-74"/>
<text text-anchor="middle" x="453.5" y="-62" font-family="Helvetica,sans-Serif" font-size="10.00">QtGlobal</text>
</a>
</g>
</g>
<!-- Node1&#45;&gt;Node11 -->
<g id="edge10_Node000001_Node000011" class="edge">
<title>Node1&#45;&gt;Node11</title>
<g id="a_edge10_Node000001_Node000011"><a xlink:title=" ">
<path fill="none" stroke="#63b8ff" d="M527.67,-219.9C509.49,-213.1 487.35,-201.74 474.5,-184 452.92,-154.22 451.09,-109.36 452.05,-84.24"/>
<polygon fill="#63b8ff" stroke="#63b8ff" points="455.55,-84.4 452.63,-74.22 448.56,-84 455.55,-84.4"/>
</a>
</g>
</g>
<!-- Node12 -->
<g id="Node000012" class="node">
<title>Node12</title>
<g id="a_Node000012"><a xlink:href="../../d3/d16/vpieceitem_8h.html" target="_top" xlink:title=" ">
<polygon fill="white" stroke="#666666" points="563.5,-184 483.5,-184 483.5,-165 563.5,-165 563.5,-184"/>
<text text-anchor="middle" x="523.5" y="-172" font-family="Helvetica,sans-Serif" font-size="10.00">vpieceitem.h</text>
</a>
</g>
</g>
<!-- Node1&#45;&gt;Node12 -->
<g id="edge11_Node000001_Node000012" class="edge">
<title>Node1&#45;&gt;Node12</title>
<g id="a_edge11_Node000001_Node000012"><a xlink:title=" ">
<path fill="none" stroke="#63b8ff" d="M551.89,-219.75C547.18,-212.42 540.33,-201.73 534.53,-192.7"/>
<polygon fill="#63b8ff" stroke="#63b8ff" points="537.36,-190.62 529.01,-184.09 531.46,-194.4 537.36,-190.62"/>
</a>
</g>
</g>
<!-- Node25 -->
<g id="Node000025" class="node">
<title>Node25</title>
<g id="a_Node000025"><a xlink:href="../../d7/df6/vtextmanager_8h.html" target="_top" xlink:title=" ">
<polygon fill="white" stroke="#666666" points="389,-129 246,-129 246,-110 389,-110 389,-129"/>
<text text-anchor="middle" x="317.5" y="-117" font-family="Helvetica,sans-Serif" font-size="10.00">../vlayout/vtextmanager.h</text>
</a>
</g>
</g>
<!-- Node1&#45;&gt;Node25 -->
<g id="edge27_Node000001_Node000025" class="edge">
<title>Node1&#45;&gt;Node25</title>
<g id="a_edge27_Node000001_Node000025"><a xlink:title=" ">
<path fill="none" stroke="#63b8ff" d="M512.82,-220C481.22,-212.94 438.44,-201.25 403.5,-184 377.43,-171.12 351.05,-150.22 334.51,-135.94"/>
<polygon fill="#63b8ff" stroke="#63b8ff" points="336.63,-133.14 326.82,-129.16 332,-138.39 336.63,-133.14"/>
</a>
</g>
</g>
<!-- Node12&#45;&gt;Node3 -->
<g id="edge13_Node000012_Node000003" class="edge">
<title>Node12&#45;&gt;Node3</title>
<g id="a_edge13_Node000012_Node000003"><a xlink:title=" ">
<path fill="none" stroke="#63b8ff" d="M561.58,-164.98C602.49,-155.84 667.61,-141.27 712.12,-131.32"/>
<polygon fill="#63b8ff" stroke="#63b8ff" points="713.13,-134.68 722.12,-129.08 711.6,-127.85 713.13,-134.68"/>
</a>
</g>
</g>
<!-- Node13 -->
<g id="Node000013" class="node">
<title>Node13</title>
<g id="a_Node000013"><a xlink:title=" ">
<polygon fill="#e0e0e0" stroke="#999999" points="693.5,-129 595.5,-129 595.5,-110 693.5,-110 693.5,-129"/>
<text text-anchor="middle" x="644.5" y="-117" font-family="Helvetica,sans-Serif" font-size="10.00">QtCore/qglobal.h</text>
</a>
</g>
</g>
<!-- Node12&#45;&gt;Node13 -->
<g id="edge12_Node000012_Node000013" class="edge">
<title>Node12&#45;&gt;Node13</title>
<g id="a_edge12_Node000012_Node000013"><a xlink:title=" ">
<path fill="none" stroke="#63b8ff" d="M542.94,-164.98C562.49,-156.42 592.88,-143.11 615.32,-133.28"/>
<polygon fill="#63b8ff" stroke="#63b8ff" points="616.95,-136.39 624.71,-129.17 614.14,-129.98 616.95,-136.39"/>
</a>
</g>
</g>
<!-- Node14 -->
<g id="Node000014" class="node">
<title>Node14</title>
<g id="a_Node000014"><a xlink:href="../../d4/da4/def_8h.html" target="_top" xlink:title=" ">
<polygon fill="white" stroke="#666666" points="577.5,-129 495.5,-129 495.5,-110 577.5,-110 577.5,-129"/>
<text text-anchor="middle" x="536.5" y="-117" font-family="Helvetica,sans-Serif" font-size="10.00">../vmisc/def.h</text>
</a>
</g>
</g>
<!-- Node12&#45;&gt;Node14 -->
<g id="edge14_Node000012_Node000014" class="edge">
<title>Node12&#45;&gt;Node14</title>
<g id="a_edge14_Node000012_Node000014"><a xlink:title=" ">
<path fill="none" stroke="#63b8ff" d="M525.65,-164.75C527.37,-157.72 529.85,-147.62 532,-138.84"/>
<polygon fill="#63b8ff" stroke="#63b8ff" points="535.41,-139.63 534.39,-129.09 528.61,-137.97 535.41,-139.63"/>
</a>
</g>
</g>
<!-- Node14&#45;&gt;Node10 -->
<g id="edge18_Node000014_Node000010" class="edge">
<title>Node14&#45;&gt;Node10</title>
<g id="a_edge18_Node000014_Node000010"><a xlink:title=" ">
<path fill="none" stroke="#63b8ff" d="M511.28,-109.98C485.14,-101.16 444.1,-87.31 414.77,-77.41"/>
<polygon fill="#63b8ff" stroke="#63b8ff" points="415.52,-73.96 404.92,-74.08 413.28,-80.6 415.52,-73.96"/>
</a>
</g>
</g>
<!-- Node14&#45;&gt;Node11 -->
<g id="edge21_Node000014_Node000011" class="edge">
<title>Node14&#45;&gt;Node11</title>
<g id="a_edge21_Node000014_Node000011"><a xlink:title=" ">
<path fill="none" stroke="#63b8ff" d="M523.16,-109.98C510.41,-101.84 490.95,-89.41 475.83,-79.76"/>
<polygon fill="#63b8ff" stroke="#63b8ff" points="477.39,-76.6 467.08,-74.17 473.62,-82.5 477.39,-76.6"/>
</a>
</g>
</g>
<!-- Node15 -->
<g id="Node000015" class="node">
<title>Node15</title>
<g id="a_Node000015"><a xlink:title=" ">
<polygon fill="#e0e0e0" stroke="#999999" points="1033.5,-74 913.5,-74 913.5,-55 1033.5,-55 1033.5,-74"/>
<text text-anchor="middle" x="973.5" y="-62" font-family="Helvetica,sans-Serif" font-size="10.00">qcompilerdetection.h</text>
</a>
</g>
</g>
<!-- Node14&#45;&gt;Node15 -->
<g id="edge15_Node000014_Node000015" class="edge">
<title>Node14&#45;&gt;Node15</title>
<g id="a_edge15_Node000014_Node000015"><a xlink:title=" ">
<path fill="none" stroke="#63b8ff" d="M577.67,-111.31C580.66,-110.85 583.62,-110.41 586.5,-110 724.17,-90.52 761.58,-90.68 903.35,-74.12"/>
<polygon fill="#63b8ff" stroke="#63b8ff" points="903.77,-77.6 913.29,-72.95 902.95,-70.64 903.77,-77.6"/>
</a>
</g>
</g>
<!-- Node16 -->
<g id="Node000016" class="node">
<title>Node16</title>
<g id="a_Node000016"><a xlink:title=" ">
<polygon fill="#e0e0e0" stroke="#999999" points="1125,-74 1052,-74 1052,-55 1125,-55 1125,-74"/>
<text text-anchor="middle" x="1088.5" y="-62" font-family="Helvetica,sans-Serif" font-size="10.00">QFileDialog</text>
</a>
</g>
</g>
<!-- Node14&#45;&gt;Node16 -->
<g id="edge16_Node000014_Node000016" class="edge">
<title>Node14&#45;&gt;Node16</title>
<g id="a_edge16_Node000014_Node000016"><a xlink:title=" ">
<path fill="none" stroke="#63b8ff" d="M577.66,-111.2C580.65,-110.77 583.62,-110.36 586.5,-110 785,-85.34 839.2,-100.01 1041.82,-73.93"/>
<polygon fill="#63b8ff" stroke="#63b8ff" points="1042.43,-77.38 1051.9,-72.62 1041.53,-70.44 1042.43,-77.38"/>
</a>
</g>
</g>
<!-- Node17 -->
<g id="Node000017" class="node">
<title>Node17</title>
<g id="a_Node000017"><a xlink:title=" ">
<polygon fill="#e0e0e0" stroke="#999999" points="1193.5,-74 1143.5,-74 1143.5,-55 1193.5,-55 1193.5,-74"/>
<text text-anchor="middle" x="1168.5" y="-62" font-family="Helvetica,sans-Serif" font-size="10.00">QLineF</text>
</a>
</g>
</g>
<!-- Node14&#45;&gt;Node17 -->
<g id="edge17_Node000014_Node000017" class="edge">
<title>Node14&#45;&gt;Node17</title>
<g id="a_edge17_Node000014_Node000017"><a xlink:title=" ">
<path fill="none" stroke="#63b8ff" d="M577.65,-111.16C580.64,-110.73 583.61,-110.34 586.5,-110 825.6,-81.9 891.56,-110.93 1133.2,-73.9"/>
<polygon fill="#63b8ff" stroke="#63b8ff" points="1134.01,-77.32 1143.35,-72.32 1132.93,-70.4 1134.01,-77.32"/>
</a>
</g>
</g>
<!-- Node18 -->
<g id="Node000018" class="node">
<title>Node18</title>
<g id="a_Node000018"><a xlink:title=" ">
<polygon fill="#e0e0e0" stroke="#999999" points="571.5,-74 501.5,-74 501.5,-55 571.5,-55 571.5,-74"/>
<text text-anchor="middle" x="536.5" y="-62" font-family="Helvetica,sans-Serif" font-size="10.00">QStringList</text>
</a>
</g>
</g>
<!-- Node14&#45;&gt;Node18 -->
<g id="edge19_Node000014_Node000018" class="edge">
<title>Node14&#45;&gt;Node18</title>
<g id="a_edge19_Node000014_Node000018"><a xlink:title=" ">
<path fill="none" stroke="#63b8ff" d="M536.5,-109.75C536.5,-102.8 536.5,-92.85 536.5,-84.13"/>
<polygon fill="#63b8ff" stroke="#63b8ff" points="540,-84.09 536.5,-74.09 533,-84.09 540,-84.09"/>
</a>
</g>
</g>
<!-- Node19 -->
<g id="Node000019" class="node">
<title>Node19</title>
<g id="a_Node000019"><a xlink:title=" ">
<polygon fill="#e0e0e0" stroke="#999999" points="335,-74 306,-74 306,-55 335,-55 335,-74"/>
<text text-anchor="middle" x="320.5" y="-62" font-family="Helvetica,sans-Serif" font-size="10.00">Qt</text>
</a>
</g>
</g>
<!-- Node14&#45;&gt;Node19 -->
<g id="edge20_Node000014_Node000019" class="edge">
<title>Node14&#45;&gt;Node19</title>
<g id="a_edge20_Node000014_Node000019"><a xlink:title=" ">
<path fill="none" stroke="#63b8ff" d="M495.44,-110.62C458.25,-103.12 401.82,-90.88 344.89,-74.13"/>
<polygon fill="#63b8ff" stroke="#63b8ff" points="345.59,-70.69 335.01,-71.18 343.59,-77.4 345.59,-70.69"/>
</a>
</g>
</g>
<!-- Node20 -->
<g id="Node000020" class="node">
<title>Node20</title>
<g id="a_Node000020"><a xlink:title=" ">
<polygon fill="#e0e0e0" stroke="#999999" points="645.5,-74 589.5,-74 589.5,-55 645.5,-55 645.5,-74"/>
<text text-anchor="middle" x="617.5" y="-62" font-family="Helvetica,sans-Serif" font-size="10.00">QPrinter</text>
</a>
</g>
</g>
<!-- Node14&#45;&gt;Node20 -->
<g id="edge22_Node000014_Node000020" class="edge">
<title>Node14&#45;&gt;Node20</title>
<g id="a_edge22_Node000014_Node000020"><a xlink:title=" ">
<path fill="none" stroke="#63b8ff" d="M549.51,-109.98C561.96,-101.84 580.96,-89.41 595.71,-79.76"/>
<polygon fill="#63b8ff" stroke="#63b8ff" points="597.8,-82.57 604.25,-74.17 593.96,-76.72 597.8,-82.57"/>
</a>
</g>
</g>
<!-- Node21 -->
<g id="Node000021" class="node">
<title>Node21</title>
<g id="a_Node000021"><a xlink:title=" ">
<polygon fill="#e0e0e0" stroke="#999999" points="725,-74 664,-74 664,-55 725,-55 725,-74"/>
<text text-anchor="middle" x="694.5" y="-62" font-family="Helvetica,sans-Serif" font-size="10.00">QPixmap</text>
</a>
</g>
</g>
<!-- Node14&#45;&gt;Node21 -->
<g id="edge23_Node000014_Node000021" class="edge">
<title>Node14&#45;&gt;Node21</title>
<g id="a_edge23_Node000014_Node000021"><a xlink:title=" ">
<path fill="none" stroke="#63b8ff" d="M561.89,-109.98C588.3,-101.13 629.85,-87.19 659.39,-77.28"/>
<polygon fill="#63b8ff" stroke="#63b8ff" points="660.55,-80.58 668.92,-74.08 658.32,-73.94 660.55,-80.58"/>
</a>
</g>
</g>
<!-- Node22 -->
<g id="Node000022" class="node">
<title>Node22</title>
<g id="a_Node000022"><a xlink:title=" ">
<polygon fill="#e0e0e0" stroke="#999999" points="794,-74 743,-74 743,-55 794,-55 794,-74"/>
<text text-anchor="middle" x="768.5" y="-62" font-family="Helvetica,sans-Serif" font-size="10.00">csignal</text>
</a>
</g>
</g>
<!-- Node14&#45;&gt;Node22 -->
<g id="edge24_Node000014_Node000022" class="edge">
<title>Node14&#45;&gt;Node22</title>
<g id="a_edge24_Node000014_Node000022"><a xlink:title=" ">
<path fill="none" stroke="#63b8ff" d="M575.63,-109.99C613.51,-101.7 672.81,-88.54 732.86,-74.35"/>
<polygon fill="#63b8ff" stroke="#63b8ff" points="733.97,-77.68 742.9,-71.97 732.36,-70.87 733.97,-77.68"/>
</a>
</g>
</g>
<!-- Node23 -->
<g id="Node000023" class="node">
<title>Node23</title>
<g id="a_Node000023"><a xlink:href="../../d4/d82/debugbreak_8h.html" target="_top" xlink:title=" ">
<polygon fill="white" stroke="#666666" points="895,-74 812,-74 812,-55 895,-55 895,-74"/>
<text text-anchor="middle" x="853.5" y="-62" font-family="Helvetica,sans-Serif" font-size="10.00">debugbreak.h</text>
</a>
</g>
</g>
<!-- Node14&#45;&gt;Node23 -->
<g id="edge25_Node000014_Node000023" class="edge">
<title>Node14&#45;&gt;Node23</title>
<g id="a_edge25_Node000014_Node000023"><a xlink:title=" ">
<path fill="none" stroke="#63b8ff" d="M577.7,-111.48C580.68,-110.98 583.63,-110.48 586.5,-110 679.81,-94.33 705.45,-90.44 801.89,-74.27"/>
<polygon fill="#63b8ff" stroke="#63b8ff" points="802.48,-77.72 811.76,-72.61 801.32,-70.81 802.48,-77.72"/>
</a>
</g>
</g>
<!-- Node24 -->
<g id="Node000024" class="node">
<title>Node24</title>
<g id="a_Node000024"><a xlink:title=" ">
<polygon fill="#e0e0e0" stroke="#999999" points="881,-19 826,-19 826,0 881,0 881,-19"/>
<text text-anchor="middle" x="853.5" y="-7" font-family="Helvetica,sans-Serif" font-size="10.00">signal.h</text>
</a>
</g>
</g>
<!-- Node23&#45;&gt;Node24 -->
<g id="edge26_Node000023_Node000024" class="edge">
<title>Node23&#45;&gt;Node24</title>
<g id="a_edge26_Node000023_Node000024"><a xlink:title=" ">
<path fill="none" stroke="#63b8ff" d="M853.5,-54.75C853.5,-47.8 853.5,-37.85 853.5,-29.13"/>
<polygon fill="#63b8ff" stroke="#63b8ff" points="857,-29.09 853.5,-19.09 850,-29.09 857,-29.09"/>
</a>
</g>
</g>
<!-- Node25&#45;&gt;Node2 -->
<g id="edge29_Node000025_Node000002" class="edge">
<title>Node25&#45;&gt;Node2</title>
<g id="a_edge29_Node000025_Node000002"><a xlink:title=" ">
<path fill="none" stroke="#63b8ff" d="M256.35,-109.98C204.93,-102.4 129.33,-90.33 55.11,-74.18"/>
<polygon fill="#63b8ff" stroke="#63b8ff" points="55.64,-70.72 45.12,-71.99 54.13,-77.55 55.64,-70.72"/>
</a>
</g>
</g>
<!-- Node25&#45;&gt;Node4 -->
<g id="edge30_Node000025_Node000004" class="edge">
<title>Node25&#45;&gt;Node4</title>
<g id="a_edge30_Node000025_Node000004"><a xlink:title=" ">
<path fill="none" stroke="#63b8ff" d="M273.7,-109.93C234.16,-101.99 174.21,-89.43 113.75,-74.19"/>
<polygon fill="#63b8ff" stroke="#63b8ff" points="114.6,-70.79 104.05,-71.72 112.87,-77.58 114.6,-70.79"/>
</a>
</g>
</g>
<!-- Node25&#45;&gt;Node10 -->
<g id="edge31_Node000025_Node000010" class="edge">
<title>Node25&#45;&gt;Node10</title>
<g id="a_edge31_Node000025_Node000010"><a xlink:title=" ">
<path fill="none" stroke="#63b8ff" d="M327.46,-109.98C336.63,-102.15 350.44,-90.34 361.53,-80.86"/>
<polygon fill="#63b8ff" stroke="#63b8ff" points="364.03,-83.33 369.36,-74.17 359.48,-78.01 364.03,-83.33"/>
</a>
</g>
</g>
<!-- Node25&#45;&gt;Node11 -->
<g id="edge34_Node000025_Node000011" class="edge">
<title>Node25&#45;&gt;Node11</title>
<g id="a_edge34_Node000025_Node000011"><a xlink:title=" ">
<path fill="none" stroke="#63b8ff" d="M339.35,-109.98C361.62,-101.3 396.4,-87.75 421.72,-77.88"/>
<polygon fill="#63b8ff" stroke="#63b8ff" points="423.21,-81.06 431.25,-74.17 420.66,-74.54 423.21,-81.06"/>
</a>
</g>
</g>
<!-- Node25&#45;&gt;Node18 -->
<g id="edge32_Node000025_Node000018" class="edge">
<title>Node25&#45;&gt;Node18</title>
<g id="a_edge32_Node000025_Node000018"><a xlink:title=" ">
<path fill="none" stroke="#63b8ff" d="M352.69,-109.98C390.44,-100.85 450.51,-86.31 491.64,-76.36"/>
<polygon fill="#63b8ff" stroke="#63b8ff" points="492.51,-79.75 501.4,-73.99 490.86,-72.94 492.51,-79.75"/>
</a>
</g>
</g>
<!-- Node25&#45;&gt;Node19 -->
<g id="edge33_Node000025_Node000019" class="edge">
<title>Node25&#45;&gt;Node19</title>
<g id="a_edge33_Node000025_Node000019"><a xlink:title=" ">
<path fill="none" stroke="#63b8ff" d="M318,-109.75C318.39,-102.8 318.95,-92.85 319.45,-84.13"/>
<polygon fill="#63b8ff" stroke="#63b8ff" points="322.94,-84.27 320.01,-74.09 315.95,-83.88 322.94,-84.27"/>
</a>
</g>
</g>
<!-- Node26 -->
<g id="Node000026" class="node">
<title>Node26</title>
<g id="a_Node000026"><a xlink:title=" ">
<polygon fill="#e0e0e0" stroke="#999999" points="169,-74 122,-74 122,-55 169,-55 169,-74"/>
<text text-anchor="middle" x="145.5" y="-62" font-family="Helvetica,sans-Serif" font-size="10.00">QDate</text>
</a>
</g>
</g>
<!-- Node25&#45;&gt;Node26 -->
<g id="edge28_Node000025_Node000026" class="edge">
<title>Node25&#45;&gt;Node26</title>
<g id="a_edge28_Node000025_Node000026"><a xlink:title=" ">
<path fill="none" stroke="#63b8ff" d="M289.87,-109.98C259.7,-100.69 211.41,-85.81 179.08,-75.85"/>
<polygon fill="#63b8ff" stroke="#63b8ff" points="179.78,-72.4 169.19,-72.8 177.72,-79.09 179.78,-72.4"/>
</a>
</g>
</g>
<!-- Node27 -->
<g id="Node000027" class="node">
<title>Node27</title>
<g id="a_Node000027"><a xlink:title=" ">
<polygon fill="#e0e0e0" stroke="#999999" points="288,-74 187,-74 187,-55 288,-55 288,-74"/>
<text text-anchor="middle" x="237.5" y="-62" font-family="Helvetica,sans-Serif" font-size="10.00">QCoreApplication</text>
</a>
</g>
</g>
<!-- Node25&#45;&gt;Node27 -->
<g id="edge35_Node000025_Node000027" class="edge">
<title>Node25&#45;&gt;Node27</title>
<g id="a_edge35_Node000025_Node000027"><a xlink:title=" ">
<path fill="none" stroke="#63b8ff" d="M304.65,-109.98C292.36,-101.84 273.59,-89.41 259.02,-79.76"/>
<polygon fill="#63b8ff" stroke="#63b8ff" points="260.86,-76.78 250.59,-74.17 256.99,-82.61 260.86,-76.78"/>
</a>
</g>
</g>
</g>
</svg>

<g id="navigator" transform="translate(0 0)" fill="#404254">
  <rect fill="#f2f5e9" fill-opacity="0.5" stroke="#606060" stroke-width=".5" x="0" y="0" width="60" height="60"/>
  <use id="zoomplus" xlink:href="#zoomPlus" x="17" y="9" onmousedown="handleZoom(evt,'in')"/>
  <use id="zoomminus" xlink:href="#zoomMin" x="42" y="9" onmousedown="handleZoom(evt,'out')"/>
  <use id="reset" xlink:href="#resetDef" x="30" y="36" onmousedown="handleReset()"/>
   <use id="arrowup" xlink:href="#arrowUp" x="0" y="0" onmousedown="handlePan(0,-1)"/>
  <use id="arrowright" xlink:href="#arrowRight" x="0" y="0" onmousedown="handlePan(1,0)"/>
  <use id="arrowdown" xlink:href="#arrowDown" x="0" y="0" onmousedown="handlePan(0,1)"/>
  <use id="arrowleft" xlink:href="#arrowLeft" x="0" y="0" onmousedown="handlePan(-1,0)"/>
</g>
<svg viewBox="0 0 15 15" width="100%" height="30px" preserveAspectRatio="xMaxYMin meet">
 <g id="arrow_out" transform="scale(0.3 0.3)">
  <a xlink:href="vtextgraphicsitem_8h__incl_org.svg" target="_base">
   <rect id="button" ry="5" rx="5" y="6" x="6" height="38" width="38"
        fill="#f2f5e9" fill-opacity="0.5" stroke="#606060" stroke-width="1.0"/>
   <path id="arrow"
     d="M 11.500037,31.436501 C 11.940474,20.09759 22.043105,11.32322 32.158766,21.979434 L 37.068811,17.246167 C 37.068811,17.246167 37.088388,32 37.088388,32 L 22.160133,31.978069 C 22.160133,31.978069 26.997745,27.140456 26.997745,27.140456 C 18.528582,18.264221 13.291696,25.230495 11.500037,31.436501 z"
     style="fill:#404040;"/>
  </a>
 </g>
</svg>

<style type='text/css'>
<![CDATA[
[data-mouse-over-selected='false'] { opacity: 0.7; }
[data-mouse-over-selected='true']  { opacity: 1.0; }
]]>
</style>
<script type="application/ecmascript"><![CDATA[
document.addEventListener('DOMContentLoaded', (event) => {
  highlightEdges();
  highlightAdjacentNodes();
});
]]></script>
</svg>
