<?xml version="1.0" encoding="UTF-8" standalone="no"?>
<!DOCTYPE svg PUBLIC "-//W3C//DTD SVG 1.1//EN"
 "http://www.w3.org/Graphics/SVG/1.1/DTD/svg11.dtd">
<!-- Generated by graphviz version 2.43.0 (0)
 -->
<!-- Title: PenToolBar Pages: 1 -->
<!--zoomable 543 -->

<svg id="main" version="1.1" xmlns="http://www.w3.org/2000/svg" xmlns:xlink="http://www.w3.org/1999/xlink" xml:space="preserve" onload="init(evt)">
<style type="text/css"><![CDATA[
.node, .edge {opacity: 0.7;}
.node.selected, .edge.selected {opacity: 1;}
.edge:hover path { stroke: red; }
.edge:hover polygon { stroke: red; fill: red; }
]]></style>

<defs>
  <circle id="rim" cx="0" cy="0" r="7"/>
  <circle id="rim2" cx="0" cy="0" r="3.5"/>
  <g id="zoomPlus">
    <use xlink:href="#rim" fill="#404040"><set attributeName="fill" to="#808080" begin="zoomplus.mouseover" end="zoomplus.mouseout"/></use>
    <path d="M-4,0h8M0,-4v8" fill="none" stroke="white" stroke-width="1.5" pointer-events="none"/>
  </g>
  <g id="zoomMin">
    <use xlink:href="#rim" fill="#404040"><set attributeName="fill" to="#808080" begin="zoomminus.mouseover" end="zoomminus.mouseout"/></use>
    <path d="M-4,0h8" fill="none" stroke="white" stroke-width="1.5" pointer-events="none"/>
  </g>
  <g id="arrowUp" transform="translate(30 24)">
    <use xlink:href="#rim"/>
    <path pointer-events="none" fill="none" stroke="white" stroke-width="1.5" d="M0,-3.0v7 M-2.5,-0.5L0,-3.0L2.5,-0.5"/>
  </g>
  <g id="arrowRight" transform="rotate(90) translate(36 -43)">
    <use xlink:href="#rim"/>
    <path pointer-events="none" fill="none" stroke="white" stroke-width="1.5" d="M0,-3.0v7 M-2.5,-0.5L0,-3.0L2.5,-0.5"/>
  </g>
  <g id="arrowDown" transform="rotate(180) translate(-30 -48)">
    <use xlink:href="#rim"/>
    <path pointer-events="none" fill="none" stroke="white" stroke-width="1.5" d="M0,-3.0v7 M-2.5,-0.5L0,-3.0L2.5,-0.5"/>
  </g>
  <g id="arrowLeft" transform="rotate(270) translate(-36 17)">
    <use xlink:href="#rim"/>
    <path pointer-events="none" fill="none" stroke="white" stroke-width="1.5" d="M0,-3.0v7 M-2.5,-0.5L0,-3.0L2.5,-0.5"/>
  </g>
  <g id="resetDef">
    <use xlink:href="#rim2" fill="#404040"><set attributeName="fill" to="#808080" begin="reset.mouseover" end="reset.mouseout"/></use>
  </g>
</defs>
<script type="application/ecmascript">
var viewWidth = 180;
var viewHeight = 543;
var sectionId = 'dynsection-1';
</script>
<script type="application/ecmascript" xlink:href="../../svg.min.js"/>
<svg id="graph" class="graph">
<g id="viewport">
<title>PenToolBar</title>
<!-- Node1 -->
<g id="Node000001" class="node">
<title>Node1</title>
<g id="a_Node000001"><a xlink:title=" ">
<polygon fill="#999999" stroke="transparent" points="136,-214 12,-214 12,0 136,0 136,-214"/>
<text text-anchor="start" x="46.5" y="-202" font-family="Helvetica,sans-Serif" font-size="10.00">PenToolBar</text>
<text text-anchor="start" x="16" y="-187" font-family="Helvetica,sans-Serif" font-size="10.00">+</text>
<text text-anchor="start" x="29" y="-187" font-family="Helvetica,sans-Serif" font-size="10.00">colorBox</text>
<text text-anchor="start" x="16" y="-172" font-family="Helvetica,sans-Serif" font-size="10.00">+</text>
<text text-anchor="start" x="29" y="-172" font-family="Helvetica,sans-Serif" font-size="10.00">lineTypeBox</text>
<text text-anchor="start" x="16" y="-157" font-family="Helvetica,sans-Serif" font-size="10.00">+</text>
<text text-anchor="start" x="29" y="-157" font-family="Helvetica,sans-Serif" font-size="10.00">lineWeightBox</text>
<text text-anchor="start" x="18.5" y="-142" font-family="Helvetica,sans-Serif" font-size="10.00">&#45;</text>
<text text-anchor="start" x="29" y="-142" font-family="Helvetica,sans-Serif" font-size="10.00">resetAction</text>
<text text-anchor="start" x="18.5" y="-127" font-family="Helvetica,sans-Serif" font-size="10.00">&#45;</text>
<text text-anchor="start" x="29" y="-127" font-family="Helvetica,sans-Serif" font-size="10.00">savePresetAction</text>
<text text-anchor="start" x="16" y="-112" font-family="Helvetica,sans-Serif" font-size="10.00">+</text>
<text text-anchor="start" x="29" y="-112" font-family="Helvetica,sans-Serif" font-size="10.00">PenToolBar()</text>
<text text-anchor="start" x="16" y="-97" font-family="Helvetica,sans-Serif" font-size="10.00">+</text>
<text text-anchor="start" x="29" y="-97" font-family="Helvetica,sans-Serif" font-size="10.00">~PenToolBar()</text>
<text text-anchor="start" x="16" y="-82" font-family="Helvetica,sans-Serif" font-size="10.00">+</text>
<text text-anchor="start" x="29" y="-82" font-family="Helvetica,sans-Serif" font-size="10.00">getPen()</text>
<text text-anchor="start" x="16" y="-67" font-family="Helvetica,sans-Serif" font-size="10.00">+</text>
<text text-anchor="start" x="29" y="-67" font-family="Helvetica,sans-Serif" font-size="10.00">colorChanged()</text>
<text text-anchor="start" x="16" y="-52" font-family="Helvetica,sans-Serif" font-size="10.00">+</text>
<text text-anchor="start" x="29" y="-52" font-family="Helvetica,sans-Serif" font-size="10.00">lineWeightChanged()</text>
<text text-anchor="start" x="16" y="-37" font-family="Helvetica,sans-Serif" font-size="10.00">+</text>
<text text-anchor="start" x="29" y="-37" font-family="Helvetica,sans-Serif" font-size="10.00">lineTypeChanged()</text>
<text text-anchor="start" x="16" y="-22" font-family="Helvetica,sans-Serif" font-size="10.00">+</text>
<text text-anchor="start" x="29" y="-22" font-family="Helvetica,sans-Serif" font-size="10.00">penReset()</text>
<text text-anchor="start" x="16" y="-7" font-family="Helvetica,sans-Serif" font-size="10.00">+</text>
<text text-anchor="start" x="29" y="-7" font-family="Helvetica,sans-Serif" font-size="10.00">savePreset()</text>
<polygon fill="#666666" stroke="#666666" points="12,-197 12,-197 136,-197 136,-197 12,-197"/>
<polygon fill="#666666" stroke="#666666" points="12,-122 12,-122 27,-122 27,-122 12,-122"/>
<polygon fill="#666666" stroke="#666666" points="27,-122 27,-122 136,-122 136,-122 27,-122"/>
<polygon fill="none" stroke="#666666" points="12,0 12,-214 136,-214 136,0 12,0"/>
</a>
</g>
</g>
<!-- Node2 -->
<g id="Node000002" class="node">
<title>Node2</title>
<g id="a_Node000002"><a xlink:title=" ">
<polygon fill="white" stroke="transparent" points="54,-422.5 0,-422.5 0,-373.5 54,-373.5 54,-422.5"/>
<text text-anchor="start" x="5" y="-410" font-family="Helvetica,sans-Serif" font-size="10.00">QToolBar</text>
<text text-anchor="start" x="25" y="-395" font-family="Helvetica,sans-Serif" font-size="10.00"> </text>
<text text-anchor="start" x="25" y="-380" font-family="Helvetica,sans-Serif" font-size="10.00"> </text>
<polygon fill="#666666" stroke="#666666" points="0,-405 0,-405 54,-405 54,-405 0,-405"/>
<polygon fill="#666666" stroke="#666666" points="0,-390 0,-390 54,-390 54,-390 0,-390"/>
<polygon fill="none" stroke="#666666" points="0,-373.5 0,-422.5 54,-422.5 54,-373.5 0,-373.5"/>
</a>
</g>
</g>
<!-- Node2&#45;&gt;Node1 -->
<g id="edge1_Node000001_Node000002" class="edge">
<title>Node2&#45;&gt;Node1</title>
<g id="a_edge1_Node000001_Node000002"><a xlink:title=" ">
<path fill="none" stroke="#63b8ff" d="M32.49,-363.26C38.42,-326.79 48.18,-266.78 56.74,-214.12"/>
<polygon fill="none" stroke="#63b8ff" points="29,-362.92 30.85,-373.35 35.91,-364.04 29,-362.92"/>
</a>
</g>
</g>
<!-- Node3 -->
<g id="Node000003" class="node">
<title>Node3</title>
<g id="a_Node000003"><a xlink:href="../../d9/de7/classPen.html" target="_top" xlink:title=" ">
<polygon fill="white" stroke="transparent" points="171.5,-535 72.5,-535 72.5,-261 171.5,-261 171.5,-535"/>
<text text-anchor="start" x="113" y="-523" font-family="Helvetica,sans-Serif" font-size="10.00">Pen</text>
<text text-anchor="start" x="77" y="-508" font-family="Helvetica,sans-Serif" font-size="10.00">+</text>
<text text-anchor="start" x="90" y="-508" font-family="Helvetica,sans-Serif" font-size="10.00">color</text>
<text text-anchor="start" x="77" y="-493" font-family="Helvetica,sans-Serif" font-size="10.00">+</text>
<text text-anchor="start" x="90" y="-493" font-family="Helvetica,sans-Serif" font-size="10.00">lineWeight</text>
<text text-anchor="start" x="77" y="-478" font-family="Helvetica,sans-Serif" font-size="10.00">+</text>
<text text-anchor="start" x="90" y="-478" font-family="Helvetica,sans-Serif" font-size="10.00">lineType</text>
<text text-anchor="start" x="77" y="-463" font-family="Helvetica,sans-Serif" font-size="10.00">#</text>
<text text-anchor="start" x="90" y="-463" font-family="Helvetica,sans-Serif" font-size="10.00">m_color</text>
<text text-anchor="start" x="77" y="-448" font-family="Helvetica,sans-Serif" font-size="10.00">#</text>
<text text-anchor="start" x="90" y="-448" font-family="Helvetica,sans-Serif" font-size="10.00">m_lineWeight</text>
<text text-anchor="start" x="77" y="-433" font-family="Helvetica,sans-Serif" font-size="10.00">#</text>
<text text-anchor="start" x="90" y="-433" font-family="Helvetica,sans-Serif" font-size="10.00">m_lineType</text>
<text text-anchor="start" x="77" y="-418" font-family="Helvetica,sans-Serif" font-size="10.00">+</text>
<text text-anchor="start" x="90" y="-418" font-family="Helvetica,sans-Serif" font-size="10.00">Pen()</text>
<text text-anchor="start" x="77" y="-403" font-family="Helvetica,sans-Serif" font-size="10.00">+</text>
<text text-anchor="start" x="90" y="-403" font-family="Helvetica,sans-Serif" font-size="10.00">Pen()</text>
<text text-anchor="start" x="77" y="-388" font-family="Helvetica,sans-Serif" font-size="10.00">+</text>
<text text-anchor="start" x="90" y="-388" font-family="Helvetica,sans-Serif" font-size="10.00">~Pen()</text>
<text text-anchor="start" x="77" y="-373" font-family="Helvetica,sans-Serif" font-size="10.00">+</text>
<text text-anchor="start" x="90" y="-373" font-family="Helvetica,sans-Serif" font-size="10.00">getLineType()</text>
<text text-anchor="start" x="77" y="-358" font-family="Helvetica,sans-Serif" font-size="10.00">+</text>
<text text-anchor="start" x="90" y="-358" font-family="Helvetica,sans-Serif" font-size="10.00">setLineType()</text>
<text text-anchor="start" x="77" y="-343" font-family="Helvetica,sans-Serif" font-size="10.00">+</text>
<text text-anchor="start" x="90" y="-343" font-family="Helvetica,sans-Serif" font-size="10.00">getLineWeight()</text>
<text text-anchor="start" x="77" y="-328" font-family="Helvetica,sans-Serif" font-size="10.00">+</text>
<text text-anchor="start" x="90" y="-328" font-family="Helvetica,sans-Serif" font-size="10.00">setLineWeight()</text>
<text text-anchor="start" x="77" y="-313" font-family="Helvetica,sans-Serif" font-size="10.00">+</text>
<text text-anchor="start" x="90" y="-313" font-family="Helvetica,sans-Serif" font-size="10.00">getColor()</text>
<text text-anchor="start" x="77" y="-298" font-family="Helvetica,sans-Serif" font-size="10.00">+</text>
<text text-anchor="start" x="90" y="-298" font-family="Helvetica,sans-Serif" font-size="10.00">setColor()</text>
<text text-anchor="start" x="77" y="-283" font-family="Helvetica,sans-Serif" font-size="10.00">+</text>
<text text-anchor="start" x="90" y="-283" font-family="Helvetica,sans-Serif" font-size="10.00">operator==()</text>
<text text-anchor="start" x="77" y="-268" font-family="Helvetica,sans-Serif" font-size="10.00">+</text>
<text text-anchor="start" x="90" y="-268" font-family="Helvetica,sans-Serif" font-size="10.00">operator!=()</text>
<polygon fill="#666666" stroke="#666666" points="73,-518 73,-518 172,-518 172,-518 73,-518"/>
<polygon fill="#666666" stroke="#666666" points="73,-428 73,-428 88,-428 88,-428 73,-428"/>
<polygon fill="#666666" stroke="#666666" points="88,-428 88,-428 172,-428 172,-428 88,-428"/>
<polygon fill="none" stroke="#666666" points="72.5,-261 72.5,-535 171.5,-535 171.5,-261 72.5,-261"/>
</a>
</g>
</g>
<!-- Node3&#45;&gt;Node1 -->
<g id="edge2_Node000001_Node000003" class="edge">
<title>Node3&#45;&gt;Node1</title>
<g id="a_edge2_Node000001_Node000003"><a xlink:title=" ">
<path fill="none" stroke="#63b8ff" d="M99.41,-260.96C97.47,-249.34 95.53,-237.64 93.63,-226.17"/>
<polygon fill="none" stroke="#63b8ff" points="93.62,-226.15 88.69,-220.88 91.66,-214.31 96.59,-219.57 93.62,-226.15"/>
</a>
</g>
<text text-anchor="middle" x="127" y="-235" font-family="Helvetica,sans-Serif" font-size="10.00" fill="grey"> +currentPen</text>
</g>
</g>
</svg>

<g id="navigator" transform="translate(0 0)" fill="#404254">
  <rect fill="#f2f5e9" fill-opacity="0.5" stroke="#606060" stroke-width=".5" x="0" y="0" width="60" height="60"/>
  <use id="zoomplus" xlink:href="#zoomPlus" x="17" y="9" onmousedown="handleZoom(evt,'in')"/>
  <use id="zoomminus" xlink:href="#zoomMin" x="42" y="9" onmousedown="handleZoom(evt,'out')"/>
  <use id="reset" xlink:href="#resetDef" x="30" y="36" onmousedown="handleReset()"/>
   <use id="arrowup" xlink:href="#arrowUp" x="0" y="0" onmousedown="handlePan(0,-1)"/>
  <use id="arrowright" xlink:href="#arrowRight" x="0" y="0" onmousedown="handlePan(1,0)"/>
  <use id="arrowdown" xlink:href="#arrowDown" x="0" y="0" onmousedown="handlePan(0,1)"/>
  <use id="arrowleft" xlink:href="#arrowLeft" x="0" y="0" onmousedown="handlePan(-1,0)"/>
</g>
<svg viewBox="0 0 15 15" width="100%" height="30px" preserveAspectRatio="xMaxYMin meet">
 <g id="arrow_out" transform="scale(0.3 0.3)">
  <a xlink:href="classPenToolBar__coll__graph_org.svg" target="_base">
   <rect id="button" ry="5" rx="5" y="6" x="6" height="38" width="38"
        fill="#f2f5e9" fill-opacity="0.5" stroke="#606060" stroke-width="1.0"/>
   <path id="arrow"
     d="M 11.500037,31.436501 C 11.940474,20.09759 22.043105,11.32322 32.158766,21.979434 L 37.068811,17.246167 C 37.068811,17.246167 37.088388,32 37.088388,32 L 22.160133,31.978069 C 22.160133,31.978069 26.997745,27.140456 26.997745,27.140456 C 18.528582,18.264221 13.291696,25.230495 11.500037,31.436501 z"
     style="fill:#404040;"/>
  </a>
 </g>
</svg>

<style type='text/css'>
<![CDATA[
[data-mouse-over-selected='false'] { opacity: 0.7; }
[data-mouse-over-selected='true']  { opacity: 1.0; }
]]>
</style>
<script type="application/ecmascript"><![CDATA[
document.addEventListener('DOMContentLoaded', (event) => {
  highlightEdges();
  highlightAdjacentNodes();
});
]]></script>
</svg>
