<?xml version="1.0" encoding="UTF-8" standalone="no"?>
<!DOCTYPE svg PUBLIC "-//W3C//DTD SVG 1.1//EN"
 "http://www.w3.org/Graphics/SVG/1.1/DTD/svg11.dtd">
<!-- Generated by graphviz version 2.43.0 (0)
 -->
<!-- Title: qmu::QmuFormulaBase Pages: 1 -->
<!--zoomable 1407 -->

<svg id="main" version="1.1" xmlns="http://www.w3.org/2000/svg" xmlns:xlink="http://www.w3.org/1999/xlink" xml:space="preserve" onload="init(evt)">
<style type="text/css"><![CDATA[
.node, .edge {opacity: 0.7;}
.node.selected, .edge.selected {opacity: 1;}
.edge:hover path { stroke: red; }
.edge:hover polygon { stroke: red; fill: red; }
]]></style>

<defs>
  <circle id="rim" cx="0" cy="0" r="7"/>
  <circle id="rim2" cx="0" cy="0" r="3.5"/>
  <g id="zoomPlus">
    <use xlink:href="#rim" fill="#404040"><set attributeName="fill" to="#808080" begin="zoomplus.mouseover" end="zoomplus.mouseout"/></use>
    <path d="M-4,0h8M0,-4v8" fill="none" stroke="white" stroke-width="1.5" pointer-events="none"/>
  </g>
  <g id="zoomMin">
    <use xlink:href="#rim" fill="#404040"><set attributeName="fill" to="#808080" begin="zoomminus.mouseover" end="zoomminus.mouseout"/></use>
    <path d="M-4,0h8" fill="none" stroke="white" stroke-width="1.5" pointer-events="none"/>
  </g>
  <g id="arrowUp" transform="translate(30 24)">
    <use xlink:href="#rim"/>
    <path pointer-events="none" fill="none" stroke="white" stroke-width="1.5" d="M0,-3.0v7 M-2.5,-0.5L0,-3.0L2.5,-0.5"/>
  </g>
  <g id="arrowRight" transform="rotate(90) translate(36 -43)">
    <use xlink:href="#rim"/>
    <path pointer-events="none" fill="none" stroke="white" stroke-width="1.5" d="M0,-3.0v7 M-2.5,-0.5L0,-3.0L2.5,-0.5"/>
  </g>
  <g id="arrowDown" transform="rotate(180) translate(-30 -48)">
    <use xlink:href="#rim"/>
    <path pointer-events="none" fill="none" stroke="white" stroke-width="1.5" d="M0,-3.0v7 M-2.5,-0.5L0,-3.0L2.5,-0.5"/>
  </g>
  <g id="arrowLeft" transform="rotate(270) translate(-36 17)">
    <use xlink:href="#rim"/>
    <path pointer-events="none" fill="none" stroke="white" stroke-width="1.5" d="M0,-3.0v7 M-2.5,-0.5L0,-3.0L2.5,-0.5"/>
  </g>
  <g id="resetDef">
    <use xlink:href="#rim2" fill="#404040"><set attributeName="fill" to="#808080" begin="reset.mouseover" end="reset.mouseout"/></use>
  </g>
</defs>
<script type="application/ecmascript">
var viewWidth = 236;
var viewHeight = 1407;
var sectionId = 'dynsection-0';
</script>
<script type="application/ecmascript" xlink:href="../../svg.min.js"/>
<svg id="graph" class="graph">
<g id="viewport">
<title>qmu::QmuFormulaBase</title>
<!-- Node1 -->
<g id="Node000001" class="node">
<title>Node1</title>
<g id="a_Node000001"><a xlink:title=" ">
<polygon fill="#999999" stroke="transparent" points="168.5,-269 43.5,-269 43.5,-130 168.5,-130 168.5,-269"/>
<text text-anchor="start" x="49" y="-256.5" font-family="Helvetica,sans-Serif" font-size="10.00">qmu::QmuFormulaBase</text>
<text text-anchor="start" x="104.5" y="-241.5" font-family="Helvetica,sans-Serif" font-size="10.00"> </text>
<text text-anchor="start" x="48" y="-226.5" font-family="Helvetica,sans-Serif" font-size="10.00">+</text>
<text text-anchor="start" x="61" y="-226.5" font-family="Helvetica,sans-Serif" font-size="10.00">QmuFormulaBase()</text>
<text text-anchor="start" x="48" y="-211.5" font-family="Helvetica,sans-Serif" font-size="10.00">+</text>
<text text-anchor="start" x="61" y="-211.5" font-family="Helvetica,sans-Serif" font-size="10.00">~QmuFormulaBase()</text>
<text text-anchor="start" x="48" y="-196.5" font-family="Helvetica,sans-Serif" font-size="10.00">+</text>
<text text-anchor="start" x="61" y="-196.5" font-family="Helvetica,sans-Serif" font-size="10.00">InitCharSets()</text>
<text text-anchor="start" x="48" y="-181.5" font-family="Helvetica,sans-Serif" font-size="10.00">+</text>
<text text-anchor="start" x="61" y="-181.5" font-family="Helvetica,sans-Serif" font-size="10.00">RemoveAll()</text>
<text text-anchor="start" x="48" y="-166.5" font-family="Helvetica,sans-Serif" font-size="10.00">#</text>
<text text-anchor="start" x="61" y="-166.5" font-family="Helvetica,sans-Serif" font-size="10.00">SetSepForTr()</text>
<text text-anchor="start" x="48" y="-151.5" font-family="Helvetica,sans-Serif" font-size="10.00">#</text>
<text text-anchor="start" x="61" y="-151.5" font-family="Helvetica,sans-Serif" font-size="10.00">SetSepForEval()</text>
<text text-anchor="start" x="48" y="-136.5" font-family="Helvetica,sans-Serif" font-size="10.00">#</text>
<text text-anchor="start" x="61" y="-136.5" font-family="Helvetica,sans-Serif" font-size="10.00">AddVariable()</text>
<polygon fill="#666666" stroke="#666666" points="44,-251.5 44,-251.5 169,-251.5 169,-251.5 44,-251.5"/>
<polygon fill="#666666" stroke="#666666" points="44,-236.5 44,-236.5 169,-236.5 169,-236.5 44,-236.5"/>
<polygon fill="none" stroke="#666666" points="43.5,-130 43.5,-269 168.5,-269 168.5,-130 43.5,-130"/>
</a>
</g>
</g>
<!-- Node4 -->
<g id="Node000004" class="node">
<title>Node4</title>
<g id="a_Node000004"><a xlink:href="../../d8/dbe/classCalculator.html" target="_top" xlink:title="The Calculator class for calculation formula.">
<polygon fill="white" stroke="transparent" points="90,-94 0,-94 0,0 90,0 90,-94"/>
<text text-anchor="start" x="20" y="-82" font-family="Helvetica,sans-Serif" font-size="10.00">Calculator</text>
<text text-anchor="start" x="43" y="-67" font-family="Helvetica,sans-Serif" font-size="10.00"> </text>
<text text-anchor="start" x="4" y="-52" font-family="Helvetica,sans-Serif" font-size="10.00">+</text>
<text text-anchor="start" x="17" y="-52" font-family="Helvetica,sans-Serif" font-size="10.00">Calculator()</text>
<text text-anchor="start" x="4" y="-37" font-family="Helvetica,sans-Serif" font-size="10.00">+</text>
<text text-anchor="start" x="17" y="-37" font-family="Helvetica,sans-Serif" font-size="10.00">~Calculator()</text>
<text text-anchor="start" x="4" y="-22" font-family="Helvetica,sans-Serif" font-size="10.00">+</text>
<text text-anchor="start" x="17" y="-22" font-family="Helvetica,sans-Serif" font-size="10.00">EvalFormula()</text>
<text text-anchor="start" x="6.5" y="-7" font-family="Helvetica,sans-Serif" font-size="10.00">&#45;</text>
<text text-anchor="start" x="17" y="-7" font-family="Helvetica,sans-Serif" font-size="10.00">InitVariables()</text>
<polygon fill="#666666" stroke="#666666" points="0,-77 0,-77 90,-77 90,-77 0,-77"/>
<polygon fill="#666666" stroke="#666666" points="0,-62 0,-62 90,-62 90,-62 0,-62"/>
<polygon fill="none" stroke="#666666" points="0,0 0,-94 90,-94 90,0 0,0"/>
</a>
</g>
</g>
<!-- Node1&#45;&gt;Node4 -->
<g id="edge3_Node000001_Node000004" class="edge">
<title>Node1&#45;&gt;Node4</title>
<g id="a_edge3_Node000001_Node000004"><a xlink:title=" ">
<path fill="none" stroke="#63b8ff" d="M74.38,-120.48C70.73,-111.48 67.1,-102.53 63.7,-94.15"/>
<polygon fill="none" stroke="#63b8ff" points="71.18,-121.9 78.18,-129.86 77.66,-119.27 71.18,-121.9"/>
</a>
</g>
</g>
<!-- Node5 -->
<g id="Node000005" class="node">
<title>Node5</title>
<g id="a_Node000005"><a xlink:href="../../d0/d84/classqmu_1_1QmuTokenParser.html" target="_top" xlink:title=" ">
<polygon fill="white" stroke="transparent" points="227.5,-94 108.5,-94 108.5,0 227.5,0 227.5,-94"/>
<text text-anchor="start" x="114" y="-82" font-family="Helvetica,sans-Serif" font-size="10.00">qmu::QmuTokenParser</text>
<text text-anchor="start" x="166.5" y="-67" font-family="Helvetica,sans-Serif" font-size="10.00"> </text>
<text text-anchor="start" x="113" y="-52" font-family="Helvetica,sans-Serif" font-size="10.00">+</text>
<text text-anchor="start" x="126" y="-52" font-family="Helvetica,sans-Serif" font-size="10.00">QmuTokenParser()</text>
<text text-anchor="start" x="113" y="-37" font-family="Helvetica,sans-Serif" font-size="10.00">+</text>
<text text-anchor="start" x="126" y="-37" font-family="Helvetica,sans-Serif" font-size="10.00">~QmuTokenParser()</text>
<text text-anchor="start" x="113" y="-22" font-family="Helvetica,sans-Serif" font-size="10.00">+</text>
<text text-anchor="start" x="126" y="-22" font-family="Helvetica,sans-Serif" font-size="10.00">IsSingle()</text>
<text text-anchor="start" x="115.5" y="-7" font-family="Helvetica,sans-Serif" font-size="10.00">&#45;</text>
<text text-anchor="start" x="126" y="-7" font-family="Helvetica,sans-Serif" font-size="10.00">QmuTokenParser()</text>
<polygon fill="#666666" stroke="#666666" points="109,-77 109,-77 228,-77 228,-77 109,-77"/>
<polygon fill="#666666" stroke="#666666" points="109,-62 109,-62 228,-62 228,-62 109,-62"/>
<polygon fill="none" stroke="#666666" points="108.5,0 108.5,-94 227.5,-94 227.5,0 108.5,0"/>
</a>
</g>
</g>
<!-- Node1&#45;&gt;Node5 -->
<g id="edge4_Node000001_Node000005" class="edge">
<title>Node1&#45;&gt;Node5</title>
<g id="a_edge4_Node000001_Node000005"><a xlink:title=" ">
<path fill="none" stroke="#63b8ff" d="M138.14,-120.48C141.85,-111.48 145.54,-102.53 148.99,-94.15"/>
<polygon fill="none" stroke="#63b8ff" points="134.85,-119.28 134.28,-129.86 141.32,-121.94 134.85,-119.28"/>
</a>
</g>
</g>
<!-- Node2 -->
<g id="Node000002" class="node">
<title>Node2</title>
<g id="a_Node000002"><a xlink:href="../../d6/dfd/classqmu_1_1QmuParser.html" target="_top" xlink:title="Mathematical expressions parser.">
<polygon fill="white" stroke="transparent" points="160.5,-609 51.5,-609 51.5,-305 160.5,-305 160.5,-609"/>
<text text-anchor="start" x="65.5" y="-597" font-family="Helvetica,sans-Serif" font-size="10.00">qmu::QmuParser</text>
<text text-anchor="start" x="104.5" y="-582" font-family="Helvetica,sans-Serif" font-size="10.00"> </text>
<text text-anchor="start" x="56" y="-567" font-family="Helvetica,sans-Serif" font-size="10.00">+</text>
<text text-anchor="start" x="69" y="-567" font-family="Helvetica,sans-Serif" font-size="10.00">QmuParser()</text>
<text text-anchor="start" x="56" y="-552" font-family="Helvetica,sans-Serif" font-size="10.00">+</text>
<text text-anchor="start" x="69" y="-552" font-family="Helvetica,sans-Serif" font-size="10.00">InitCharSets()</text>
<text text-anchor="start" x="56" y="-537" font-family="Helvetica,sans-Serif" font-size="10.00">+</text>
<text text-anchor="start" x="69" y="-537" font-family="Helvetica,sans-Serif" font-size="10.00">InitFun()</text>
<text text-anchor="start" x="56" y="-522" font-family="Helvetica,sans-Serif" font-size="10.00">+</text>
<text text-anchor="start" x="69" y="-522" font-family="Helvetica,sans-Serif" font-size="10.00">InitConst()</text>
<text text-anchor="start" x="56" y="-507" font-family="Helvetica,sans-Serif" font-size="10.00">+</text>
<text text-anchor="start" x="69" y="-507" font-family="Helvetica,sans-Serif" font-size="10.00">InitOprt()</text>
<text text-anchor="start" x="56" y="-492" font-family="Helvetica,sans-Serif" font-size="10.00">+</text>
<text text-anchor="start" x="69" y="-492" font-family="Helvetica,sans-Serif" font-size="10.00">OnDetectVar()</text>
<text text-anchor="start" x="56" y="-477" font-family="Helvetica,sans-Serif" font-size="10.00">+</text>
<text text-anchor="start" x="69" y="-477" font-family="Helvetica,sans-Serif" font-size="10.00">Diff()</text>
<text text-anchor="start" x="56" y="-462" font-family="Helvetica,sans-Serif" font-size="10.00">#</text>
<text text-anchor="start" x="69" y="-462" font-family="Helvetica,sans-Serif" font-size="10.00">IsVal()</text>
<text text-anchor="start" x="56" y="-447" font-family="Helvetica,sans-Serif" font-size="10.00">#</text>
<text text-anchor="start" x="69" y="-447" font-family="Helvetica,sans-Serif" font-size="10.00">Sinh()</text>
<text text-anchor="start" x="56" y="-432" font-family="Helvetica,sans-Serif" font-size="10.00">#</text>
<text text-anchor="start" x="69" y="-432" font-family="Helvetica,sans-Serif" font-size="10.00">Cosh()</text>
<text text-anchor="start" x="56" y="-417" font-family="Helvetica,sans-Serif" font-size="10.00">#</text>
<text text-anchor="start" x="69" y="-417" font-family="Helvetica,sans-Serif" font-size="10.00">Tanh()</text>
<text text-anchor="start" x="56" y="-402" font-family="Helvetica,sans-Serif" font-size="10.00">#</text>
<text text-anchor="start" x="69" y="-402" font-family="Helvetica,sans-Serif" font-size="10.00">ASinh()</text>
<text text-anchor="start" x="56" y="-387" font-family="Helvetica,sans-Serif" font-size="10.00">#</text>
<text text-anchor="start" x="69" y="-387" font-family="Helvetica,sans-Serif" font-size="10.00">ACosh()</text>
<text text-anchor="start" x="56" y="-372" font-family="Helvetica,sans-Serif" font-size="10.00">#</text>
<text text-anchor="start" x="69" y="-372" font-family="Helvetica,sans-Serif" font-size="10.00">ATanh()</text>
<text text-anchor="start" x="56" y="-357" font-family="Helvetica,sans-Serif" font-size="10.00">#</text>
<text text-anchor="start" x="69" y="-357" font-family="Helvetica,sans-Serif" font-size="10.00">DegreeToRadian()</text>
<text text-anchor="start" x="56" y="-342" font-family="Helvetica,sans-Serif" font-size="10.00">#</text>
<text text-anchor="start" x="69" y="-342" font-family="Helvetica,sans-Serif" font-size="10.00">RadianToDegree()</text>
<text text-anchor="start" x="56" y="-327" font-family="Helvetica,sans-Serif" font-size="10.00">#</text>
<text text-anchor="start" x="69" y="-327" font-family="Helvetica,sans-Serif" font-size="10.00">SinD()</text>
<text text-anchor="start" x="69" y="-312" font-family="Helvetica,sans-Serif" font-size="10.00">and 16 more...</text>
<polygon fill="#666666" stroke="#666666" points="52,-592 52,-592 161,-592 161,-592 52,-592"/>
<polygon fill="#666666" stroke="#666666" points="52,-577 52,-577 161,-577 161,-577 52,-577"/>
<polygon fill="none" stroke="#666666" points="51.5,-305 51.5,-609 160.5,-609 160.5,-305 51.5,-305"/>
</a>
</g>
</g>
<!-- Node2&#45;&gt;Node1 -->
<g id="edge1_Node000001_Node000002" class="edge">
<title>Node2&#45;&gt;Node1</title>
<g id="a_edge1_Node000001_Node000002"><a xlink:title=" ">
<path fill="none" stroke="#63b8ff" d="M106,-294.7C106,-285.85 106,-277.22 106,-269.02"/>
<polygon fill="none" stroke="#63b8ff" points="102.5,-294.79 106,-304.79 109.5,-294.79 102.5,-294.79"/>
</a>
</g>
</g>
<!-- Node3 -->
<g id="Node000003" class="node">
<title>Node3</title>
<g id="a_Node000003"><a xlink:href="../../db/d62/classqmu_1_1QmuParserBase.html" target="_top" xlink:title="Mathematical expressions parser (base parser engine).">
<polygon fill="white" stroke="transparent" points="184,-1399 28,-1399 28,-645 184,-645 184,-1399"/>
<text text-anchor="start" x="53" y="-1387" font-family="Helvetica,sans-Serif" font-size="10.00">qmu::QmuParserBase</text>
<text text-anchor="start" x="32" y="-1372" font-family="Helvetica,sans-Serif" font-size="10.00">#</text>
<text text-anchor="start" x="45" y="-1372" font-family="Helvetica,sans-Serif" font-size="10.00">m_locale</text>
<text text-anchor="start" x="32" y="-1357" font-family="Helvetica,sans-Serif" font-size="10.00">#</text>
<text text-anchor="start" x="45" y="-1357" font-family="Helvetica,sans-Serif" font-size="10.00">m_decimalPoint</text>
<text text-anchor="start" x="32" y="-1342" font-family="Helvetica,sans-Serif" font-size="10.00">#</text>
<text text-anchor="start" x="45" y="-1342" font-family="Helvetica,sans-Serif" font-size="10.00">m_thousandsSeparator</text>
<text text-anchor="start" x="32" y="-1327" font-family="Helvetica,sans-Serif" font-size="10.00">#</text>
<text text-anchor="start" x="45" y="-1327" font-family="Helvetica,sans-Serif" font-size="10.00">c_DefaultOprt</text>
<text text-anchor="start" x="32" y="-1312" font-family="Helvetica,sans-Serif" font-size="10.00">#</text>
<text text-anchor="start" x="45" y="-1312" font-family="Helvetica,sans-Serif" font-size="10.00">g_DbgDumpCmdCode</text>
<text text-anchor="start" x="32" y="-1297" font-family="Helvetica,sans-Serif" font-size="10.00">#</text>
<text text-anchor="start" x="45" y="-1297" font-family="Helvetica,sans-Serif" font-size="10.00">g_DbgDumpStack</text>
<text text-anchor="start" x="34.5" y="-1282" font-family="Helvetica,sans-Serif" font-size="10.00">&#45;</text>
<text text-anchor="start" x="45" y="-1282" font-family="Helvetica,sans-Serif" font-size="10.00">m_pParseFormula</text>
<text text-anchor="start" x="34.5" y="-1267" font-family="Helvetica,sans-Serif" font-size="10.00">&#45;</text>
<text text-anchor="start" x="45" y="-1267" font-family="Helvetica,sans-Serif" font-size="10.00">m_vRPN</text>
<text text-anchor="start" x="34.5" y="-1252" font-family="Helvetica,sans-Serif" font-size="10.00">&#45;</text>
<text text-anchor="start" x="45" y="-1252" font-family="Helvetica,sans-Serif" font-size="10.00">m_vStringBuf</text>
<text text-anchor="start" x="34.5" y="-1237" font-family="Helvetica,sans-Serif" font-size="10.00">&#45;</text>
<text text-anchor="start" x="45" y="-1237" font-family="Helvetica,sans-Serif" font-size="10.00">m_vStringVarBuf</text>
<text text-anchor="start" x="34.5" y="-1222" font-family="Helvetica,sans-Serif" font-size="10.00">&#45;</text>
<text text-anchor="start" x="45" y="-1222" font-family="Helvetica,sans-Serif" font-size="10.00">m_pTokenReader</text>
<text text-anchor="start" x="34.5" y="-1207" font-family="Helvetica,sans-Serif" font-size="10.00">&#45;</text>
<text text-anchor="start" x="45" y="-1207" font-family="Helvetica,sans-Serif" font-size="10.00">m_FunDef</text>
<text text-anchor="start" x="34.5" y="-1192" font-family="Helvetica,sans-Serif" font-size="10.00">&#45;</text>
<text text-anchor="start" x="45" y="-1192" font-family="Helvetica,sans-Serif" font-size="10.00">m_PostOprtDef</text>
<text text-anchor="start" x="34.5" y="-1177" font-family="Helvetica,sans-Serif" font-size="10.00">&#45;</text>
<text text-anchor="start" x="45" y="-1177" font-family="Helvetica,sans-Serif" font-size="10.00">m_InfixOprtDef</text>
<text text-anchor="start" x="34.5" y="-1162" font-family="Helvetica,sans-Serif" font-size="10.00">&#45;</text>
<text text-anchor="start" x="45" y="-1162" font-family="Helvetica,sans-Serif" font-size="10.00">m_OprtDef</text>
<text text-anchor="start" x="34.5" y="-1147" font-family="Helvetica,sans-Serif" font-size="10.00">&#45;</text>
<text text-anchor="start" x="45" y="-1147" font-family="Helvetica,sans-Serif" font-size="10.00">m_ConstDef</text>
<text text-anchor="start" x="45" y="-1132" font-family="Helvetica,sans-Serif" font-size="10.00">and 12 more...</text>
<text text-anchor="start" x="34.5" y="-1117" font-family="Helvetica,sans-Serif" font-size="10.00">&#45;</text>
<text text-anchor="start" x="45" y="-1117" font-family="Helvetica,sans-Serif" font-size="10.00">s_MaxNumOpenMPThreads</text>
<text text-anchor="start" x="32" y="-1102" font-family="Helvetica,sans-Serif" font-size="10.00">+</text>
<text text-anchor="start" x="45" y="-1102" font-family="Helvetica,sans-Serif" font-size="10.00">QmuParserBase()</text>
<text text-anchor="start" x="32" y="-1087" font-family="Helvetica,sans-Serif" font-size="10.00">+</text>
<text text-anchor="start" x="45" y="-1087" font-family="Helvetica,sans-Serif" font-size="10.00">QmuParserBase()</text>
<text text-anchor="start" x="32" y="-1072" font-family="Helvetica,sans-Serif" font-size="10.00">+</text>
<text text-anchor="start" x="45" y="-1072" font-family="Helvetica,sans-Serif" font-size="10.00">operator=()</text>
<text text-anchor="start" x="32" y="-1057" font-family="Helvetica,sans-Serif" font-size="10.00">+</text>
<text text-anchor="start" x="45" y="-1057" font-family="Helvetica,sans-Serif" font-size="10.00">~QmuParserBase()</text>
<text text-anchor="start" x="32" y="-1042" font-family="Helvetica,sans-Serif" font-size="10.00">+</text>
<text text-anchor="start" x="45" y="-1042" font-family="Helvetica,sans-Serif" font-size="10.00">Eval()</text>
<text text-anchor="start" x="32" y="-1027" font-family="Helvetica,sans-Serif" font-size="10.00">+</text>
<text text-anchor="start" x="45" y="-1027" font-family="Helvetica,sans-Serif" font-size="10.00">Eval()</text>
<text text-anchor="start" x="32" y="-1012" font-family="Helvetica,sans-Serif" font-size="10.00">+</text>
<text text-anchor="start" x="45" y="-1012" font-family="Helvetica,sans-Serif" font-size="10.00">Eval()</text>
<text text-anchor="start" x="32" y="-997" font-family="Helvetica,sans-Serif" font-size="10.00">+</text>
<text text-anchor="start" x="45" y="-997" font-family="Helvetica,sans-Serif" font-size="10.00">GetNumResults()</text>
<text text-anchor="start" x="32" y="-982" font-family="Helvetica,sans-Serif" font-size="10.00">+</text>
<text text-anchor="start" x="45" y="-982" font-family="Helvetica,sans-Serif" font-size="10.00">SetExpr()</text>
<text text-anchor="start" x="32" y="-967" font-family="Helvetica,sans-Serif" font-size="10.00">+</text>
<text text-anchor="start" x="45" y="-967" font-family="Helvetica,sans-Serif" font-size="10.00">SetVarFactory()</text>
<text text-anchor="start" x="45" y="-952" font-family="Helvetica,sans-Serif" font-size="10.00">and 42 more...</text>
<text text-anchor="start" x="32" y="-937" font-family="Helvetica,sans-Serif" font-size="10.00">+</text>
<text text-anchor="start" x="45" y="-937" font-family="Helvetica,sans-Serif" font-size="10.00">EnableDebugDump()</text>
<text text-anchor="start" x="32" y="-922" font-family="Helvetica,sans-Serif" font-size="10.00">+</text>
<text text-anchor="start" x="45" y="-922" font-family="Helvetica,sans-Serif" font-size="10.00">GetVersion()</text>
<text text-anchor="start" x="32" y="-907" font-family="Helvetica,sans-Serif" font-size="10.00">+</text>
<text text-anchor="start" x="45" y="-907" font-family="Helvetica,sans-Serif" font-size="10.00">GetOprtDef()</text>
<text text-anchor="start" x="32" y="-892" font-family="Helvetica,sans-Serif" font-size="10.00">#</text>
<text text-anchor="start" x="45" y="-892" font-family="Helvetica,sans-Serif" font-size="10.00">Init()</text>
<text text-anchor="start" x="32" y="-877" font-family="Helvetica,sans-Serif" font-size="10.00">#</text>
<text text-anchor="start" x="45" y="-877" font-family="Helvetica,sans-Serif" font-size="10.00">InitCharSets()</text>
<text text-anchor="start" x="32" y="-862" font-family="Helvetica,sans-Serif" font-size="10.00">#</text>
<text text-anchor="start" x="45" y="-862" font-family="Helvetica,sans-Serif" font-size="10.00">InitFun()</text>
<text text-anchor="start" x="32" y="-847" font-family="Helvetica,sans-Serif" font-size="10.00">#</text>
<text text-anchor="start" x="45" y="-847" font-family="Helvetica,sans-Serif" font-size="10.00">InitConst()</text>
<text text-anchor="start" x="32" y="-832" font-family="Helvetica,sans-Serif" font-size="10.00">#</text>
<text text-anchor="start" x="45" y="-832" font-family="Helvetica,sans-Serif" font-size="10.00">InitOprt()</text>
<text text-anchor="start" x="32" y="-817" font-family="Helvetica,sans-Serif" font-size="10.00">#</text>
<text text-anchor="start" x="45" y="-817" font-family="Helvetica,sans-Serif" font-size="10.00">OnDetectVar()</text>
<text text-anchor="start" x="34.5" y="-802" font-family="Helvetica,sans-Serif" font-size="10.00">&#45;</text>
<text text-anchor="start" x="45" y="-802" font-family="Helvetica,sans-Serif" font-size="10.00">Assign()</text>
<text text-anchor="start" x="34.5" y="-787" font-family="Helvetica,sans-Serif" font-size="10.00">&#45;</text>
<text text-anchor="start" x="45" y="-787" font-family="Helvetica,sans-Serif" font-size="10.00">InitTokenReader()</text>
<text text-anchor="start" x="34.5" y="-772" font-family="Helvetica,sans-Serif" font-size="10.00">&#45;</text>
<text text-anchor="start" x="45" y="-772" font-family="Helvetica,sans-Serif" font-size="10.00">ReInit()</text>
<text text-anchor="start" x="34.5" y="-757" font-family="Helvetica,sans-Serif" font-size="10.00">&#45;</text>
<text text-anchor="start" x="45" y="-757" font-family="Helvetica,sans-Serif" font-size="10.00">AddCallback()</text>
<text text-anchor="start" x="34.5" y="-742" font-family="Helvetica,sans-Serif" font-size="10.00">&#45;</text>
<text text-anchor="start" x="45" y="-742" font-family="Helvetica,sans-Serif" font-size="10.00">ApplyRemainingOprt()</text>
<text text-anchor="start" x="34.5" y="-727" font-family="Helvetica,sans-Serif" font-size="10.00">&#45;</text>
<text text-anchor="start" x="45" y="-727" font-family="Helvetica,sans-Serif" font-size="10.00">ApplyBinOprt()</text>
<text text-anchor="start" x="34.5" y="-712" font-family="Helvetica,sans-Serif" font-size="10.00">&#45;</text>
<text text-anchor="start" x="45" y="-712" font-family="Helvetica,sans-Serif" font-size="10.00">ApplyIfElse()</text>
<text text-anchor="start" x="34.5" y="-697" font-family="Helvetica,sans-Serif" font-size="10.00">&#45;</text>
<text text-anchor="start" x="45" y="-697" font-family="Helvetica,sans-Serif" font-size="10.00">ApplyFunc()</text>
<text text-anchor="start" x="34.5" y="-682" font-family="Helvetica,sans-Serif" font-size="10.00">&#45;</text>
<text text-anchor="start" x="45" y="-682" font-family="Helvetica,sans-Serif" font-size="10.00">ApplyStrFunc()</text>
<text text-anchor="start" x="34.5" y="-667" font-family="Helvetica,sans-Serif" font-size="10.00">&#45;</text>
<text text-anchor="start" x="45" y="-667" font-family="Helvetica,sans-Serif" font-size="10.00">GetOprtPrecedence()</text>
<text text-anchor="start" x="45" y="-652" font-family="Helvetica,sans-Serif" font-size="10.00">and 8 more...</text>
<polygon fill="#666666" stroke="#666666" points="28,-1382 28,-1382 184,-1382 184,-1382 28,-1382"/>
<polygon fill="#666666" stroke="#666666" points="28,-1112 28,-1112 43,-1112 43,-1112 28,-1112"/>
<polygon fill="#666666" stroke="#666666" points="43,-1112 43,-1112 184,-1112 184,-1112 43,-1112"/>
<polygon fill="none" stroke="#666666" points="28,-645 28,-1399 184,-1399 184,-645 28,-645"/>
</a>
</g>
</g>
<!-- Node3&#45;&gt;Node2 -->
<g id="edge2_Node000002_Node000003" class="edge">
<title>Node3&#45;&gt;Node2</title>
<g id="a_edge2_Node000002_Node000003"><a xlink:title=" ">
<path fill="none" stroke="#63b8ff" d="M106,-634.49C106,-625.87 106,-617.39 106,-609.11"/>
<polygon fill="none" stroke="#63b8ff" points="102.5,-634.69 106,-644.69 109.5,-634.69 102.5,-634.69"/>
</a>
</g>
</g>
</g>
</svg>

<g id="navigator" transform="translate(0 0)" fill="#404254">
  <rect fill="#f2f5e9" fill-opacity="0.5" stroke="#606060" stroke-width=".5" x="0" y="0" width="60" height="60"/>
  <use id="zoomplus" xlink:href="#zoomPlus" x="17" y="9" onmousedown="handleZoom(evt,'in')"/>
  <use id="zoomminus" xlink:href="#zoomMin" x="42" y="9" onmousedown="handleZoom(evt,'out')"/>
  <use id="reset" xlink:href="#resetDef" x="30" y="36" onmousedown="handleReset()"/>
   <use id="arrowup" xlink:href="#arrowUp" x="0" y="0" onmousedown="handlePan(0,-1)"/>
  <use id="arrowright" xlink:href="#arrowRight" x="0" y="0" onmousedown="handlePan(1,0)"/>
  <use id="arrowdown" xlink:href="#arrowDown" x="0" y="0" onmousedown="handlePan(0,1)"/>
  <use id="arrowleft" xlink:href="#arrowLeft" x="0" y="0" onmousedown="handlePan(-1,0)"/>
</g>
<svg viewBox="0 0 15 15" width="100%" height="30px" preserveAspectRatio="xMaxYMin meet">
 <g id="arrow_out" transform="scale(0.3 0.3)">
  <a xlink:href="classqmu_1_1QmuFormulaBase__inherit__graph_org.svg" target="_base">
   <rect id="button" ry="5" rx="5" y="6" x="6" height="38" width="38"
        fill="#f2f5e9" fill-opacity="0.5" stroke="#606060" stroke-width="1.0"/>
   <path id="arrow"
     d="M 11.500037,31.436501 C 11.940474,20.09759 22.043105,11.32322 32.158766,21.979434 L 37.068811,17.246167 C 37.068811,17.246167 37.088388,32 37.088388,32 L 22.160133,31.978069 C 22.160133,31.978069 26.997745,27.140456 26.997745,27.140456 C 18.528582,18.264221 13.291696,25.230495 11.500037,31.436501 z"
     style="fill:#404040;"/>
  </a>
 </g>
</svg>

<style type='text/css'>
<![CDATA[
[data-mouse-over-selected='false'] { opacity: 0.7; }
[data-mouse-over-selected='true']  { opacity: 1.0; }
]]>
</style>
<script type="application/ecmascript"><![CDATA[
document.addEventListener('DOMContentLoaded', (event) => {
  highlightEdges();
  highlightAdjacentNodes();
});
]]></script>
</svg>
