<?xml version="1.0" encoding="UTF-8" standalone="no"?>
<!DOCTYPE svg PUBLIC "-//W3C//DTD SVG 1.1//EN"
 "http://www.w3.org/Graphics/SVG/1.1/DTD/svg11.dtd">
<!-- Generated by graphviz version 2.43.0 (0)
 -->
<!-- Title: src/libs/qmuparser/qmuparsertoken.h Pages: 1 -->
<svg width="964pt" height="203pt"
 viewBox="0.00 0.00 963.50 203.00" xmlns="http://www.w3.org/2000/svg" xmlns:xlink="http://www.w3.org/1999/xlink">
<g id="graph0" class="graph" transform="scale(1 1) rotate(0) translate(4 199)">
<title>src/libs/qmuparser/qmuparsertoken.h</title>
<!-- Node1 -->
<g id="Node000001" class="node">
<title>Node1</title>
<g id="a_Node000001"><a xlink:title="This file contains the parser token definition.">
<polygon fill="#999999" stroke="#666666" points="301.5,-195 193.5,-195 193.5,-165 301.5,-165 301.5,-195"/>
<text text-anchor="start" x="201.5" y="-183" font-family="Helvetica,sans-Serif" font-size="10.00">src/libs/qmuparser</text>
<text text-anchor="middle" x="247.5" y="-172" font-family="Helvetica,sans-Serif" font-size="10.00">/qmuparsertoken.h</text>
</a>
</g>
</g>
<!-- Node2 -->
<g id="Node000002" class="node">
<title>Node2</title>
<g id="a_Node000002"><a xlink:title=" ">
<polygon fill="#e0e0e0" stroke="#999999" points="76.5,-129 24.5,-129 24.5,-110 76.5,-110 76.5,-129"/>
<text text-anchor="middle" x="50.5" y="-117" font-family="Helvetica,sans-Serif" font-size="10.00">cassert</text>
</a>
</g>
</g>
<!-- Node1&#45;&gt;Node2 -->
<g id="edge1_Node000001_Node000002" class="edge">
<title>Node1&#45;&gt;Node2</title>
<g id="a_edge1_Node000001_Node000002"><a xlink:title=" ">
<path fill="none" stroke="#63b8ff" d="M200.31,-164.99C165.39,-154.62 118.53,-140.7 86.58,-131.21"/>
<polygon fill="#63b8ff" stroke="#63b8ff" points="87.34,-127.79 76.76,-128.3 85.35,-134.5 87.34,-127.79"/>
</a>
</g>
</g>
<!-- Node3 -->
<g id="Node000003" class="node">
<title>Node3</title>
<g id="a_Node000003"><a xlink:title=" ">
<polygon fill="#e0e0e0" stroke="#999999" points="138.5,-129 94.5,-129 94.5,-110 138.5,-110 138.5,-129"/>
<text text-anchor="middle" x="116.5" y="-117" font-family="Helvetica,sans-Serif" font-size="10.00">string</text>
</a>
</g>
</g>
<!-- Node1&#45;&gt;Node3 -->
<g id="edge2_Node000001_Node000003" class="edge">
<title>Node1&#45;&gt;Node3</title>
<g id="a_edge2_Node000001_Node000003"><a xlink:title=" ">
<path fill="none" stroke="#63b8ff" d="M216.12,-164.99C194.56,-155.36 166.15,-142.67 145.19,-133.31"/>
<polygon fill="#63b8ff" stroke="#63b8ff" points="146.4,-130.02 135.85,-129.14 143.55,-136.41 146.4,-130.02"/>
</a>
</g>
</g>
<!-- Node4 -->
<g id="Node000004" class="node">
<title>Node4</title>
<g id="a_Node000004"><a xlink:title=" ">
<polygon fill="#e0e0e0" stroke="#999999" points="200,-129 157,-129 157,-110 200,-110 200,-129"/>
<text text-anchor="middle" x="178.5" y="-117" font-family="Helvetica,sans-Serif" font-size="10.00">stack</text>
</a>
</g>
</g>
<!-- Node1&#45;&gt;Node4 -->
<g id="edge3_Node000001_Node000004" class="edge">
<title>Node1&#45;&gt;Node4</title>
<g id="a_edge3_Node000001_Node000004"><a xlink:title=" ">
<path fill="none" stroke="#63b8ff" d="M230.8,-164.84C220.47,-156.09 207.22,-144.85 196.64,-135.88"/>
<polygon fill="#63b8ff" stroke="#63b8ff" points="198.73,-133.06 188.84,-129.27 194.2,-138.4 198.73,-133.06"/>
</a>
</g>
</g>
<!-- Node5 -->
<g id="Node000005" class="node">
<title>Node5</title>
<g id="a_Node000005"><a xlink:title=" ">
<polygon fill="#e0e0e0" stroke="#999999" points="276.5,-129 218.5,-129 218.5,-110 276.5,-110 276.5,-129"/>
<text text-anchor="middle" x="247.5" y="-117" font-family="Helvetica,sans-Serif" font-size="10.00">memory</text>
</a>
</g>
</g>
<!-- Node1&#45;&gt;Node5 -->
<g id="edge4_Node000001_Node000005" class="edge">
<title>Node1&#45;&gt;Node5</title>
<g id="a_edge4_Node000001_Node000005"><a xlink:title=" ">
<path fill="none" stroke="#63b8ff" d="M247.5,-164.84C247.5,-157.21 247.5,-147.7 247.5,-139.45"/>
<polygon fill="#63b8ff" stroke="#63b8ff" points="251,-139.27 247.5,-129.27 244,-139.27 251,-139.27"/>
</a>
</g>
</g>
<!-- Node6 -->
<g id="Node000006" class="node">
<title>Node6</title>
<g id="a_Node000006"><a xlink:title=" ">
<polygon fill="#e0e0e0" stroke="#999999" points="59,-74 0,-74 0,-55 59,-55 59,-74"/>
<text text-anchor="middle" x="29.5" y="-62" font-family="Helvetica,sans-Serif" font-size="10.00">QtGlobal</text>
</a>
</g>
</g>
<!-- Node1&#45;&gt;Node6 -->
<g id="edge5_Node000001_Node000006" class="edge">
<title>Node1&#45;&gt;Node6</title>
<g id="a_edge5_Node000001_Node000006"><a xlink:title=" ">
<path fill="none" stroke="#63b8ff" d="M264.9,-164.76C280.8,-150.04 299.83,-126.9 285.5,-110 255.62,-74.75 131.22,-82.2 69.36,-73.78"/>
<polygon fill="#63b8ff" stroke="#63b8ff" points="69.71,-70.29 59.28,-72.15 68.59,-77.2 69.71,-70.29"/>
</a>
</g>
</g>
<!-- Node7 -->
<g id="Node000007" class="node">
<title>Node7</title>
<g id="a_Node000007"><a xlink:href="../../da/d49/qmuparsererror_8h.html" target="_top" xlink:title="This file defines the error class used by the parser.">
<polygon fill="white" stroke="#666666" points="434,-129 333,-129 333,-110 434,-110 434,-129"/>
<text text-anchor="middle" x="383.5" y="-117" font-family="Helvetica,sans-Serif" font-size="10.00">qmuparsererror.h</text>
</a>
</g>
</g>
<!-- Node1&#45;&gt;Node7 -->
<g id="edge6_Node000001_Node000007" class="edge">
<title>Node1&#45;&gt;Node7</title>
<g id="a_edge6_Node000001_Node000007"><a xlink:title=" ">
<path fill="none" stroke="#63b8ff" d="M280.08,-164.99C302.56,-155.31 332.22,-142.56 354.01,-133.18"/>
<polygon fill="#63b8ff" stroke="#63b8ff" points="355.61,-136.31 363.42,-129.14 352.85,-129.88 355.61,-136.31"/>
</a>
</g>
</g>
<!-- Node19 -->
<g id="Node000019" class="node">
<title>Node19</title>
<g id="a_Node000019"><a xlink:href="../../db/d3a/qmuparsercallback_8h.html" target="_top" xlink:title="Definition of the parser callback class.">
<polygon fill="white" stroke="#666666" points="837,-129 718,-129 718,-110 837,-110 837,-129"/>
<text text-anchor="middle" x="777.5" y="-117" font-family="Helvetica,sans-Serif" font-size="10.00">qmuparsercallback.h</text>
</a>
</g>
</g>
<!-- Node1&#45;&gt;Node19 -->
<g id="edge22_Node000001_Node000019" class="edge">
<title>Node1&#45;&gt;Node19</title>
<g id="a_edge22_Node000001_Node000019"><a xlink:title=" ">
<path fill="none" stroke="#63b8ff" d="M301.73,-173.01C398.47,-162.34 600.66,-140.02 707.65,-128.21"/>
<polygon fill="#63b8ff" stroke="#63b8ff" points="708.14,-131.68 717.7,-127.1 707.37,-124.72 708.14,-131.68"/>
</a>
</g>
</g>
<!-- Node7&#45;&gt;Node6 -->
<g id="edge13_Node000007_Node000006" class="edge">
<title>Node7&#45;&gt;Node6</title>
<g id="a_edge13_Node000007_Node000006"><a xlink:title=" ">
<path fill="none" stroke="#63b8ff" d="M332.78,-111.8C261.06,-102.26 132.59,-84.86 69.22,-73.98"/>
<polygon fill="#63b8ff" stroke="#63b8ff" points="69.72,-70.51 59.27,-72.23 68.51,-77.41 69.72,-70.51"/>
</a>
</g>
</g>
<!-- Node8 -->
<g id="Node000008" class="node">
<title>Node8</title>
<g id="a_Node000008"><a xlink:title=" ">
<polygon fill="#e0e0e0" stroke="#999999" points="749.5,-74 629.5,-74 629.5,-55 749.5,-55 749.5,-74"/>
<text text-anchor="middle" x="689.5" y="-62" font-family="Helvetica,sans-Serif" font-size="10.00">qcompilerdetection.h</text>
</a>
</g>
</g>
<!-- Node7&#45;&gt;Node8 -->
<g id="edge7_Node000007_Node000008" class="edge">
<title>Node7&#45;&gt;Node8</title>
<g id="a_edge7_Node000007_Node000008"><a xlink:title=" ">
<path fill="none" stroke="#63b8ff" d="M432.66,-109.98C486.45,-100.67 572.66,-85.74 630.17,-75.78"/>
<polygon fill="#63b8ff" stroke="#63b8ff" points="630.95,-79.19 640.2,-74.04 629.75,-72.3 630.95,-79.19"/>
</a>
</g>
</g>
<!-- Node9 -->
<g id="Node000009" class="node">
<title>Node9</title>
<g id="a_Node000009"><a xlink:title=" ">
<polygon fill="#e0e0e0" stroke="#999999" points="483,-74 382,-74 382,-55 483,-55 483,-74"/>
<text text-anchor="middle" x="432.5" y="-62" font-family="Helvetica,sans-Serif" font-size="10.00">QCoreApplication</text>
</a>
</g>
</g>
<!-- Node7&#45;&gt;Node9 -->
<g id="edge8_Node000007_Node000009" class="edge">
<title>Node7&#45;&gt;Node9</title>
<g id="a_edge8_Node000007_Node000009"><a xlink:title=" ">
<path fill="none" stroke="#63b8ff" d="M391.59,-109.75C398.66,-102.11 409.09,-90.82 417.65,-81.56"/>
<polygon fill="#63b8ff" stroke="#63b8ff" points="420.34,-83.81 424.56,-74.09 415.2,-79.06 420.34,-83.81"/>
</a>
</g>
</g>
<!-- Node10 -->
<g id="Node000010" class="node">
<title>Node10</title>
<g id="a_Node000010"><a xlink:title=" ">
<polygon fill="#e0e0e0" stroke="#999999" points="573.5,-74 501.5,-74 501.5,-55 573.5,-55 573.5,-74"/>
<text text-anchor="middle" x="537.5" y="-62" font-family="Helvetica,sans-Serif" font-size="10.00">QException</text>
</a>
</g>
</g>
<!-- Node7&#45;&gt;Node10 -->
<g id="edge9_Node000007_Node000010" class="edge">
<title>Node7&#45;&gt;Node10</title>
<g id="a_edge9_Node000007_Node000010"><a xlink:title=" ">
<path fill="none" stroke="#63b8ff" d="M408.24,-109.98C433.87,-101.16 474.13,-87.31 502.91,-77.41"/>
<polygon fill="#63b8ff" stroke="#63b8ff" points="504.25,-80.65 512.56,-74.08 501.97,-74.03 504.25,-80.65"/>
</a>
</g>
</g>
<!-- Node11 -->
<g id="Node000011" class="node">
<title>Node11</title>
<g id="a_Node000011"><a xlink:title=" ">
<polygon fill="#e0e0e0" stroke="#999999" points="671,-19 626,-19 626,0 671,0 671,-19"/>
<text text-anchor="middle" x="648.5" y="-7" font-family="Helvetica,sans-Serif" font-size="10.00">QMap</text>
</a>
</g>
</g>
<!-- Node7&#45;&gt;Node11 -->
<g id="edge10_Node000007_Node000011" class="edge">
<title>Node7&#45;&gt;Node11</title>
<g id="a_edge10_Node000007_Node000011"><a xlink:title=" ">
<path fill="none" stroke="#63b8ff" d="M434.38,-114.76C476.24,-109.95 536.03,-98.97 582.5,-74 604.07,-62.41 623.58,-41.78 635.7,-27.18"/>
<polygon fill="#63b8ff" stroke="#63b8ff" points="638.72,-29 642.24,-19.01 633.26,-24.63 638.72,-29"/>
</a>
</g>
</g>
<!-- Node12 -->
<g id="Node000012" class="node">
<title>Node12</title>
<g id="a_Node000012"><a xlink:title=" ">
<polygon fill="#e0e0e0" stroke="#999999" points="481,-19 428,-19 428,0 481,0 481,-19"/>
<text text-anchor="middle" x="454.5" y="-7" font-family="Helvetica,sans-Serif" font-size="10.00">QString</text>
</a>
</g>
</g>
<!-- Node7&#45;&gt;Node12 -->
<g id="edge11_Node000007_Node000012" class="edge">
<title>Node7&#45;&gt;Node12</title>
<g id="a_edge11_Node000007_Node000012"><a xlink:title=" ">
<path fill="none" stroke="#63b8ff" d="M353.95,-110C322.54,-99.45 279.8,-79.78 298.5,-55 312.85,-35.99 376.35,-22.67 417.78,-15.82"/>
<polygon fill="#63b8ff" stroke="#63b8ff" points="418.47,-19.26 427.8,-14.22 417.37,-12.35 418.47,-19.26"/>
</a>
</g>
</g>
<!-- Node13 -->
<g id="Node000013" class="node">
<title>Node13</title>
<g id="a_Node000013"><a xlink:title=" ">
<polygon fill="#e0e0e0" stroke="#999999" points="251,-74 196,-74 196,-55 251,-55 251,-74"/>
<text text-anchor="middle" x="223.5" y="-62" font-family="Helvetica,sans-Serif" font-size="10.00">QVector</text>
</a>
</g>
</g>
<!-- Node7&#45;&gt;Node13 -->
<g id="edge12_Node000007_Node000013" class="edge">
<title>Node7&#45;&gt;Node13</title>
<g id="a_edge12_Node000007_Node000013"><a xlink:title=" ">
<path fill="none" stroke="#63b8ff" d="M357.79,-109.98C331.05,-101.13 288.97,-87.19 259.05,-77.28"/>
<polygon fill="#63b8ff" stroke="#63b8ff" points="260,-73.9 249.41,-74.08 257.8,-80.55 260,-73.9"/>
</a>
</g>
</g>
<!-- Node14 -->
<g id="Node000014" class="node">
<title>Node14</title>
<g id="a_Node000014"><a xlink:title=" ">
<polygon fill="#e0e0e0" stroke="#999999" points="363.5,-74 307.5,-74 307.5,-55 363.5,-55 363.5,-74"/>
<text text-anchor="middle" x="335.5" y="-62" font-family="Helvetica,sans-Serif" font-size="10.00">sstream</text>
</a>
</g>
</g>
<!-- Node7&#45;&gt;Node14 -->
<g id="edge14_Node000007_Node000014" class="edge">
<title>Node7&#45;&gt;Node14</title>
<g id="a_edge14_Node000007_Node000014"><a xlink:title=" ">
<path fill="none" stroke="#63b8ff" d="M375.57,-109.75C368.65,-102.11 358.43,-90.82 350.05,-81.56"/>
<polygon fill="#63b8ff" stroke="#63b8ff" points="352.59,-79.15 343.28,-74.09 347.4,-83.85 352.59,-79.15"/>
</a>
</g>
</g>
<!-- Node15 -->
<g id="Node000015" class="node">
<title>Node15</title>
<g id="a_Node000015"><a xlink:href="../../de/d28/qmuparserdef_8h.html" target="_top" xlink:title="This file contains standard definitions used by the parser.">
<polygon fill="white" stroke="#666666" points="899,-74 806,-74 806,-55 899,-55 899,-74"/>
<text text-anchor="middle" x="852.5" y="-62" font-family="Helvetica,sans-Serif" font-size="10.00">qmuparserdef.h</text>
</a>
</g>
</g>
<!-- Node7&#45;&gt;Node15 -->
<g id="edge15_Node000007_Node000015" class="edge">
<title>Node7&#45;&gt;Node15</title>
<g id="a_edge15_Node000007_Node000015"><a xlink:title=" ">
<path fill="none" stroke="#63b8ff" d="M434.14,-112.78C522.38,-102.81 703.69,-82.32 795.93,-71.89"/>
<polygon fill="#63b8ff" stroke="#63b8ff" points="796.37,-75.37 805.91,-70.76 795.59,-68.41 796.37,-75.37"/>
</a>
</g>
</g>
<!-- Node18 -->
<g id="Node000018" class="node">
<title>Node18</title>
<g id="a_Node000018"><a xlink:href="../../da/da3/qmutranslation_8h.html" target="_top" xlink:title="The VTranslation class help store string for translation.">
<polygon fill="white" stroke="#666666" points="177.5,-74 77.5,-74 77.5,-55 177.5,-55 177.5,-74"/>
<text text-anchor="middle" x="127.5" y="-62" font-family="Helvetica,sans-Serif" font-size="10.00">qmutranslation.h</text>
</a>
</g>
</g>
<!-- Node7&#45;&gt;Node18 -->
<g id="edge20_Node000007_Node000018" class="edge">
<title>Node7&#45;&gt;Node18</title>
<g id="a_edge20_Node000007_Node000018"><a xlink:title=" ">
<path fill="none" stroke="#63b8ff" d="M342.37,-109.98C297.9,-100.78 226.95,-86.09 178.85,-76.13"/>
<polygon fill="#63b8ff" stroke="#63b8ff" points="179.46,-72.68 168.95,-74.08 178.04,-79.54 179.46,-72.68"/>
</a>
</g>
</g>
<!-- Node15&#45;&gt;Node11 -->
<g id="edge16_Node000015_Node000011" class="edge">
<title>Node15&#45;&gt;Node11</title>
<g id="a_edge16_Node000015_Node000011"><a xlink:title=" ">
<path fill="none" stroke="#63b8ff" d="M819.72,-54.98C781.63,-45.09 719.15,-28.86 681.13,-18.98"/>
<polygon fill="#63b8ff" stroke="#63b8ff" points="681.65,-15.5 671.09,-16.37 679.89,-22.27 681.65,-15.5"/>
</a>
</g>
</g>
<!-- Node15&#45;&gt;Node12 -->
<g id="edge17_Node000015_Node000012" class="edge">
<title>Node15&#45;&gt;Node12</title>
<g id="a_edge17_Node000015_Node000012"><a xlink:title=" ">
<path fill="none" stroke="#63b8ff" d="M805.88,-56.97C801.02,-56.3 796.16,-55.63 791.5,-55 682.32,-40.18 553.15,-23.31 491.21,-15.26"/>
<polygon fill="#63b8ff" stroke="#63b8ff" points="491.53,-11.77 481.16,-13.95 490.62,-18.71 491.53,-11.77"/>
</a>
</g>
</g>
<!-- Node16 -->
<g id="Node000016" class="node">
<title>Node16</title>
<g id="a_Node000016"><a xlink:title=" ">
<polygon fill="#e0e0e0" stroke="#999999" points="829.5,-19 783.5,-19 783.5,0 829.5,0 829.5,-19"/>
<text text-anchor="middle" x="806.5" y="-7" font-family="Helvetica,sans-Serif" font-size="10.00">locale</text>
</a>
</g>
</g>
<!-- Node15&#45;&gt;Node16 -->
<g id="edge18_Node000015_Node000016" class="edge">
<title>Node15&#45;&gt;Node16</title>
<g id="a_edge18_Node000015_Node000016"><a xlink:title=" ">
<path fill="none" stroke="#63b8ff" d="M844.9,-54.75C838.34,-47.18 828.68,-36.05 820.69,-26.84"/>
<polygon fill="#63b8ff" stroke="#63b8ff" points="823.15,-24.35 813.95,-19.09 817.87,-28.94 823.15,-24.35"/>
</a>
</g>
</g>
<!-- Node17 -->
<g id="Node000017" class="node">
<title>Node17</title>
<g id="a_Node000017"><a xlink:href="../../df/d47/qmuparserfixes_8h.html" target="_top" xlink:title="This file contains compatibility fixes for some platforms.">
<polygon fill="white" stroke="#666666" points="949,-19 848,-19 848,0 949,0 949,-19"/>
<text text-anchor="middle" x="898.5" y="-7" font-family="Helvetica,sans-Serif" font-size="10.00">qmuparserfixes.h</text>
</a>
</g>
</g>
<!-- Node15&#45;&gt;Node17 -->
<g id="edge19_Node000015_Node000017" class="edge">
<title>Node15&#45;&gt;Node17</title>
<g id="a_edge19_Node000015_Node000017"><a xlink:title=" ">
<path fill="none" stroke="#63b8ff" d="M860.1,-54.75C866.66,-47.18 876.32,-36.05 884.31,-26.84"/>
<polygon fill="#63b8ff" stroke="#63b8ff" points="887.13,-28.94 891.05,-19.09 881.85,-24.35 887.13,-28.94"/>
</a>
</g>
</g>
<!-- Node18&#45;&gt;Node12 -->
<g id="edge21_Node000018_Node000012" class="edge">
<title>Node18&#45;&gt;Node12</title>
<g id="a_edge21_Node000018_Node000012"><a xlink:title=" ">
<path fill="none" stroke="#63b8ff" d="M177.52,-55.39C243.85,-44.64 359.35,-25.92 418.03,-16.41"/>
<polygon fill="#63b8ff" stroke="#63b8ff" points="418.65,-19.86 427.96,-14.8 417.53,-12.95 418.65,-19.86"/>
</a>
</g>
</g>
<!-- Node19&#45;&gt;Node8 -->
<g id="edge23_Node000019_Node000008" class="edge">
<title>Node19&#45;&gt;Node8</title>
<g id="a_edge23_Node000019_Node000008"><a xlink:title=" ">
<path fill="none" stroke="#63b8ff" d="M763.36,-109.98C749.71,-101.77 728.81,-89.18 712.72,-79.49"/>
<polygon fill="#63b8ff" stroke="#63b8ff" points="714.27,-76.33 703.9,-74.17 710.66,-82.33 714.27,-76.33"/>
</a>
</g>
</g>
<!-- Node19&#45;&gt;Node12 -->
<g id="edge24_Node000019_Node000012" class="edge">
<title>Node19&#45;&gt;Node12</title>
<g id="a_edge24_Node000019_Node000012"><a xlink:title=" ">
<path fill="none" stroke="#63b8ff" d="M777.65,-109.99C777.39,-96.17 774.69,-69 758.5,-55 738.53,-37.74 567.7,-20.57 491.24,-13.67"/>
<polygon fill="#63b8ff" stroke="#63b8ff" points="491.37,-10.16 481.1,-12.76 490.75,-17.14 491.37,-10.16"/>
</a>
</g>
</g>
<!-- Node19&#45;&gt;Node15 -->
<g id="edge26_Node000019_Node000015" class="edge">
<title>Node19&#45;&gt;Node15</title>
<g id="a_edge26_Node000019_Node000015"><a xlink:title=" ">
<path fill="none" stroke="#63b8ff" d="M789.55,-109.98C800.96,-101.92 818.33,-89.65 831.93,-80.03"/>
<polygon fill="#63b8ff" stroke="#63b8ff" points="834.08,-82.8 840.23,-74.17 830.04,-77.08 834.08,-82.8"/>
</a>
</g>
</g>
<!-- Node20 -->
<g id="Node000020" class="node">
<title>Node20</title>
<g id="a_Node000020"><a xlink:title=" ">
<polygon fill="#e0e0e0" stroke="#999999" points="955.5,-74 917.5,-74 917.5,-55 955.5,-55 955.5,-74"/>
<text text-anchor="middle" x="936.5" y="-62" font-family="Helvetica,sans-Serif" font-size="10.00">map</text>
</a>
</g>
</g>
<!-- Node19&#45;&gt;Node20 -->
<g id="edge25_Node000019_Node000020" class="edge">
<title>Node19&#45;&gt;Node20</title>
<g id="a_edge25_Node000019_Node000020"><a xlink:title=" ">
<path fill="none" stroke="#63b8ff" d="M803.05,-109.98C831.47,-100.51 877.32,-85.23 907.19,-75.27"/>
<polygon fill="#63b8ff" stroke="#63b8ff" points="908.65,-78.47 917.03,-71.99 906.44,-71.83 908.65,-78.47"/>
</a>
</g>
</g>
</g>
</svg>
