0
SECTION
2
HEADER
9
$ACADVER
1
AC1012
9
$INSUNITS
70
1
0
ENDSEC
0
SECTION
2
TABLES
0
TABLE
2
LAYER
70
7
0
LAYER
2
CUT
70
0
62
7
6
CONTINUOUS
0
LAYER
2
SEAM
70
0
62
3
6
CONTINUOUS
0
LAYER
2
FOLD
70
0
62
5
6
CONTINUOUS
0
LAYER
2
STITCH
70
0
62
1
6
CONTINUOUS
0
LAYER
2
NOTCH
70
0
62
2
6
CONTINUOUS
0
LAYER
2
TEXT
70
0
62
4
6
CONTINUOUS
0
LAYER
2
GRAIN
70
0
62
6
6
CONTINUOUS
0
ENDTAB
0
ENDSEC
0
SECTION
2
ENTITIES

#################################
## SKIRT FRONT - CUT 3
## ORIGIN: CENTER FRONT (X=0)
#################################

### SEAM LINE (20 x 33)
0
LINE
8
SEAM
10
-10
20
0
11
10
21
0
0
LINE
8
SEAM
10
10
20
0
11
10
21
33
0
LINE
8
SEAM
10
10
20
33
11
-10
21
33
0
LINE
8
SEAM
10
-10
20
33
11
-10
21
0

### CUT LINE (0.5 SA + 2.5 HEM)
0
LINE
8
CUT
10
-10.5
20
-0.5
11
10.5
21
-0.5
0
LINE
8
CUT
10
10.5
20
-0.5
11
10.5
21
35.5
0
LINE
8
CUT
10
10.5
20
35.5
11
-10.5
21
35.5
0
LINE
8
CUT
10
-10.5
20
35.5
11
-10.5
21
-0.5

### HEM FOLD
0
LINE
8
FOLD
10
-10
20
2.0
11
10
21
2.0

### GRAINLINE
0
LINE
8
GRAIN
10
0
20
5
11
0
21
28

### CENTER INVERTED BOX TUCK
0
LINE
8
STITCH
10
0
20
0
11
0
21
6
0
LINE
8
FOLD
10
-1.8
20
0
11
-1.8
21
6
0
LINE
8
FOLD
10
1.8
20
0
11
1.8
21
6

### KNIFE TUCKS - FRONT (PRESS TOWARD CF)
### RIGHT
0
LINE
8
STITCH
10
1.9
20
0
11
1.9
21
6
0
LINE
8
FOLD
10
3.7
20
0
11
3.7
21
6
0
LINE
8
STITCH
10
3.8
20
0
11
3.8
21
6
0
LINE
8
FOLD
10
5.6
20
0
11
5.6
21
6
0
LINE
8
STITCH
10
5.7
20
0
11
5.7
21
6
0
LINE
8
FOLD
10
7.5
20
0
11
7.5
21
6
0
LINE
8
STITCH
10
7.6
20
0
11
7.6
21
6
0
LINE
8
FOLD
10
9.4
20
0
11
9.4
21
6

### LEFT (MIRRORED)
0
LINE
8
STITCH
10
-1.9
20
0
11
-1.9
21
6
0
LINE
8
FOLD
10
-3.7
20
0
11
-3.7
21
6
0
LINE
8
STITCH
10
-3.8
20
0
11
-3.8
21
6
0
LINE
8
FOLD
10
-5.6
20
0
11
-5.6
21
6
0
LINE
8
STITCH
10
-5.7
20
0
11
-5.7
21
6
0
LINE
8
FOLD
10
-7.5
20
0
11
-7.5
21
6
0
LINE
8
STITCH
10
-7.6
20
0
11
-7.6
21
6
0
LINE
8
FOLD
10
-9.4
20
0
11
-9.4
21
6

### NOTCHES - FRONT
### CF DOUBLE NOTCH
0
LINE
8
NOTCH
10
-0.2
20
0
11
0.2
21
0
0
LINE
8
NOTCH
10
-0.2
20
-0.25
11
0.2
21
-0.25

### KNIFE TUCK SINGLE NOTCHES (±1.9, 3.8, 5.7, 7.6)
0
LINE
8
NOTCH
10
1.75
20
0
11
2.05
21
0
0
LINE
8
NOTCH
10
3.65
20
0
11
3.95
21
0
0
LINE
8
NOTCH
10
5.55
20
0
11
5.85
21
0
0
LINE
8
NOTCH
10
7.45
20
0
11
7.75
21
0
0
LINE
8
NOTCH
10
-2.05
20
0
11
-1.75
21
0
0
LINE
8
NOTCH
10
-3.95
20
0
11
-3.65
21
0
0
LINE
8
NOTCH
10
-5.85
20
0
11
-5.55
21
0
0
LINE
8
NOTCH
10
-7.75
20
0
11
-7.45
21
0

### HIP NOTCHES
0
LINE
8
NOTCH
10
-10
20
9.35
11
-10
21
9.65
0
LINE
8
NOTCH
10
10
20
9.35
11
10
21
9.65

### CENTER HEM NOTCH
0
LINE
8
NOTCH
10
-0.2
20
35.5
11
0.2
21
35.5

### TEXT - FRONT
0
TEXT
8
TEXT
10
-8
20
30
40
0.5
1
SKIRT FRONT - CUT 3
10 TUCKS TOTAL
CENTER INVERTED BOX TUCK - PRESS INWARD
KNIFE TUCKS - PRESS TOWARD CF
TUCK DEPTH = 1.8"

#################################
## SKIRT BACK - CUT 3
## (OFFSET +30 IN X)
#################################

### NOTE:
### BACK PIECE IS IDENTICAL GEOMETRY,
### PRESS TEXT CHANGED TO "PRESS TOWARD CB"
### (GERBER/LECTRA SAFE)

0
TEXT
8
TEXT
10
22
20
30
40
0.5
1
SKIRT BACK - CUT 3
10 TUCKS TOTAL
CENTER INVERTED BOX TUCK - PRESS INWARD
KNIFE TUCKS - PRESS TOWARD CB
TUCK DEPTH = 1.8"

#################################
## WAISTBAND - CUT 2
#################################

0
LINE
8
SEAM
10
40
20
0
11
60
21
0
0
LINE
8
SEAM
10
60
20
0
11
60
21
4
0
LINE
8
SEAM
10
60
20
4
11
40
21
4
0
LINE
8
SEAM
10
40
20
4
11
40
21
0

0
LINE
8
CUT
10
39.5
20
-0.5
11
60.5
21
-0.5
0
LINE
8
CUT
10
60.5
20
-0.5
11
60.5
21
4.5
0
LINE
8
CUT
10
60.5
20
4.5
11
39.5
21
4.5
0
LINE
8
CUT
10
39.5
20
4.5
11
39.5
21
-0.5

0
TEXT
8
TEXT
10
42
20
6
40
0.5
1
WAISTBAND - CUT 2

0
ENDSEC
0
EOF