<?xml version="1.0" encoding="UTF-8" standalone="no"?>
<!DOCTYPE svg PUBLIC "-//W3C//DTD SVG 1.1//EN"
 "http://www.w3.org/Graphics/SVG/1.1/DTD/svg11.dtd">
<!-- Generated by graphviz version 2.43.0 (0)
 -->
<!-- Title: VSimplePoint Pages: 1 -->
<!--zoomable 1443 -->

<svg id="main" version="1.1" xmlns="http://www.w3.org/2000/svg" xmlns:xlink="http://www.w3.org/1999/xlink" xml:space="preserve" onload="init(evt)">
<style type="text/css"><![CDATA[
.node, .edge {opacity: 0.7;}
.node.selected, .edge.selected {opacity: 1;}
.edge:hover path { stroke: red; }
.edge:hover polygon { stroke: red; fill: red; }
]]></style>

<defs>
  <circle id="rim" cx="0" cy="0" r="7"/>
  <circle id="rim2" cx="0" cy="0" r="3.5"/>
  <g id="zoomPlus">
    <use xlink:href="#rim" fill="#404040"><set attributeName="fill" to="#808080" begin="zoomplus.mouseover" end="zoomplus.mouseout"/></use>
    <path d="M-4,0h8M0,-4v8" fill="none" stroke="white" stroke-width="1.5" pointer-events="none"/>
  </g>
  <g id="zoomMin">
    <use xlink:href="#rim" fill="#404040"><set attributeName="fill" to="#808080" begin="zoomminus.mouseover" end="zoomminus.mouseout"/></use>
    <path d="M-4,0h8" fill="none" stroke="white" stroke-width="1.5" pointer-events="none"/>
  </g>
  <g id="arrowUp" transform="translate(30 24)">
    <use xlink:href="#rim"/>
    <path pointer-events="none" fill="none" stroke="white" stroke-width="1.5" d="M0,-3.0v7 M-2.5,-0.5L0,-3.0L2.5,-0.5"/>
  </g>
  <g id="arrowRight" transform="rotate(90) translate(36 -43)">
    <use xlink:href="#rim"/>
    <path pointer-events="none" fill="none" stroke="white" stroke-width="1.5" d="M0,-3.0v7 M-2.5,-0.5L0,-3.0L2.5,-0.5"/>
  </g>
  <g id="arrowDown" transform="rotate(180) translate(-30 -48)">
    <use xlink:href="#rim"/>
    <path pointer-events="none" fill="none" stroke="white" stroke-width="1.5" d="M0,-3.0v7 M-2.5,-0.5L0,-3.0L2.5,-0.5"/>
  </g>
  <g id="arrowLeft" transform="rotate(270) translate(-36 17)">
    <use xlink:href="#rim"/>
    <path pointer-events="none" fill="none" stroke="white" stroke-width="1.5" d="M0,-3.0v7 M-2.5,-0.5L0,-3.0L2.5,-0.5"/>
  </g>
  <g id="resetDef">
    <use xlink:href="#rim2" fill="#404040"><set attributeName="fill" to="#808080" begin="reset.mouseover" end="reset.mouseout"/></use>
  </g>
</defs>
<script type="application/ecmascript">
var viewWidth = 498;
var viewHeight = 1443;
var sectionId = 'dynsection-1';
</script>
<script type="application/ecmascript" xlink:href="../../svg.min.js"/>
<svg id="graph" class="graph">
<g id="viewport">
<title>VSimplePoint</title>
<!-- Node1 -->
<g id="Node000001" class="node">
<title>Node1</title>
<g id="a_Node000001"><a xlink:title=" ">
<polygon fill="#999999" stroke="transparent" points="363,-409 200,-409 200,0 363,0 363,-409"/>
<text text-anchor="start" x="249" y="-396.5" font-family="Helvetica,sans-Serif" font-size="10.00">VSimplePoint</text>
<text text-anchor="start" x="207" y="-381.5" font-family="Helvetica,sans-Serif" font-size="10.00">&#45;</text>
<text text-anchor="start" x="217.5" y="-381.5" font-family="Helvetica,sans-Serif" font-size="10.00">m_visualizationMode</text>
<text text-anchor="start" x="207" y="-366.5" font-family="Helvetica,sans-Serif" font-size="10.00">&#45;</text>
<text text-anchor="start" x="217.5" y="-366.5" font-family="Helvetica,sans-Serif" font-size="10.00">m_alwaysHovered</text>
<text text-anchor="start" x="204.5" y="-351.5" font-family="Helvetica,sans-Serif" font-size="10.00">+</text>
<text text-anchor="start" x="217.5" y="-351.5" font-family="Helvetica,sans-Serif" font-size="10.00">VSimplePoint()</text>
<text text-anchor="start" x="204.5" y="-336.5" font-family="Helvetica,sans-Serif" font-size="10.00">+</text>
<text text-anchor="start" x="217.5" y="-336.5" font-family="Helvetica,sans-Serif" font-size="10.00">~VSimplePoint()</text>
<text text-anchor="start" x="204.5" y="-321.5" font-family="Helvetica,sans-Serif" font-size="10.00">+</text>
<text text-anchor="start" x="217.5" y="-321.5" font-family="Helvetica,sans-Serif" font-size="10.00">type()</text>
<text text-anchor="start" x="204.5" y="-306.5" font-family="Helvetica,sans-Serif" font-size="10.00">+</text>
<text text-anchor="start" x="217.5" y="-306.5" font-family="Helvetica,sans-Serif" font-size="10.00">SetVisualizationMode()</text>
<text text-anchor="start" x="204.5" y="-291.5" font-family="Helvetica,sans-Serif" font-size="10.00">+</text>
<text text-anchor="start" x="217.5" y="-291.5" font-family="Helvetica,sans-Serif" font-size="10.00">IsVisualizationMode()</text>
<text text-anchor="start" x="204.5" y="-276.5" font-family="Helvetica,sans-Serif" font-size="10.00">+</text>
<text text-anchor="start" x="217.5" y="-276.5" font-family="Helvetica,sans-Serif" font-size="10.00">SetPointHighlight()</text>
<text text-anchor="start" x="204.5" y="-261.5" font-family="Helvetica,sans-Serif" font-size="10.00">+</text>
<text text-anchor="start" x="217.5" y="-261.5" font-family="Helvetica,sans-Serif" font-size="10.00">SetEnabled()</text>
<text text-anchor="start" x="204.5" y="-246.5" font-family="Helvetica,sans-Serif" font-size="10.00">+</text>
<text text-anchor="start" x="217.5" y="-246.5" font-family="Helvetica,sans-Serif" font-size="10.00">EnableToolMove()</text>
<text text-anchor="start" x="204.5" y="-231.5" font-family="Helvetica,sans-Serif" font-size="10.00">+</text>
<text text-anchor="start" x="217.5" y="-231.5" font-family="Helvetica,sans-Serif" font-size="10.00">allowTextHover()</text>
<text text-anchor="start" x="204.5" y="-216.5" font-family="Helvetica,sans-Serif" font-size="10.00">+</text>
<text text-anchor="start" x="217.5" y="-216.5" font-family="Helvetica,sans-Serif" font-size="10.00">allowTextSelectable()</text>
<text text-anchor="start" x="204.5" y="-201.5" font-family="Helvetica,sans-Serif" font-size="10.00">+</text>
<text text-anchor="start" x="217.5" y="-201.5" font-family="Helvetica,sans-Serif" font-size="10.00">ToolSelectionType()</text>
<text text-anchor="start" x="204.5" y="-186.5" font-family="Helvetica,sans-Serif" font-size="10.00">+</text>
<text text-anchor="start" x="217.5" y="-186.5" font-family="Helvetica,sans-Serif" font-size="10.00">setOnlyPoint()</text>
<text text-anchor="start" x="204.5" y="-171.5" font-family="Helvetica,sans-Serif" font-size="10.00">+</text>
<text text-anchor="start" x="217.5" y="-171.5" font-family="Helvetica,sans-Serif" font-size="10.00">isOnlyPoint()</text>
<text text-anchor="start" x="204.5" y="-156.5" font-family="Helvetica,sans-Serif" font-size="10.00">+</text>
<text text-anchor="start" x="217.5" y="-156.5" font-family="Helvetica,sans-Serif" font-size="10.00">deletePoint()</text>
<text text-anchor="start" x="204.5" y="-141.5" font-family="Helvetica,sans-Serif" font-size="10.00">+</text>
<text text-anchor="start" x="217.5" y="-141.5" font-family="Helvetica,sans-Serif" font-size="10.00">pointChosen()</text>
<text text-anchor="start" x="204.5" y="-126.5" font-family="Helvetica,sans-Serif" font-size="10.00">+</text>
<text text-anchor="start" x="217.5" y="-126.5" font-family="Helvetica,sans-Serif" font-size="10.00">pointSelected()</text>
<text text-anchor="start" x="204.5" y="-111.5" font-family="Helvetica,sans-Serif" font-size="10.00">+</text>
<text text-anchor="start" x="217.5" y="-111.5" font-family="Helvetica,sans-Serif" font-size="10.00">pointnameChangedPosition()</text>
<text text-anchor="start" x="204.5" y="-96.5" font-family="Helvetica,sans-Serif" font-size="10.00">#</text>
<text text-anchor="start" x="217.5" y="-96.5" font-family="Helvetica,sans-Serif" font-size="10.00">mousePressEvent()</text>
<text text-anchor="start" x="204.5" y="-81.5" font-family="Helvetica,sans-Serif" font-size="10.00">#</text>
<text text-anchor="start" x="217.5" y="-81.5" font-family="Helvetica,sans-Serif" font-size="10.00">mouseReleaseEvent()</text>
<text text-anchor="start" x="204.5" y="-66.5" font-family="Helvetica,sans-Serif" font-size="10.00">#</text>
<text text-anchor="start" x="217.5" y="-66.5" font-family="Helvetica,sans-Serif" font-size="10.00">hoverEnterEvent()</text>
<text text-anchor="start" x="204.5" y="-51.5" font-family="Helvetica,sans-Serif" font-size="10.00">#</text>
<text text-anchor="start" x="217.5" y="-51.5" font-family="Helvetica,sans-Serif" font-size="10.00">hoverLeaveEvent()</text>
<text text-anchor="start" x="204.5" y="-36.5" font-family="Helvetica,sans-Serif" font-size="10.00">#</text>
<text text-anchor="start" x="217.5" y="-36.5" font-family="Helvetica,sans-Serif" font-size="10.00">keyReleaseEvent()</text>
<text text-anchor="start" x="204.5" y="-21.5" font-family="Helvetica,sans-Serif" font-size="10.00">#</text>
<text text-anchor="start" x="217.5" y="-21.5" font-family="Helvetica,sans-Serif" font-size="10.00">itemChange()</text>
<text text-anchor="start" x="204.5" y="-6.5" font-family="Helvetica,sans-Serif" font-size="10.00">#</text>
<text text-anchor="start" x="217.5" y="-6.5" font-family="Helvetica,sans-Serif" font-size="10.00">contextMenuEvent()</text>
<polygon fill="#666666" stroke="#666666" points="200.5,-391.5 200.5,-391.5 363.5,-391.5 363.5,-391.5 200.5,-391.5"/>
<polygon fill="#666666" stroke="#666666" points="200.5,-361.5 200.5,-361.5 215.5,-361.5 215.5,-361.5 200.5,-361.5"/>
<polygon fill="#666666" stroke="#666666" points="215.5,-361.5 215.5,-361.5 363.5,-361.5 363.5,-361.5 215.5,-361.5"/>
<polygon fill="none" stroke="#666666" points="200,0 200,-409 363,-409 363,0 200,0"/>
</a>
</g>
</g>
<!-- Node2 -->
<g id="Node000002" class="node">
<title>Node2</title>
<g id="a_Node000002"><a xlink:href="../../dc/de5/classVAbstractSimple.html" target="_top" xlink:title=" ">
<polygon fill="white" stroke="transparent" points="489.5,-862 371.5,-862 371.5,-723 489.5,-723 489.5,-862"/>
<text text-anchor="start" x="390" y="-849.5" font-family="Helvetica,sans-Serif" font-size="10.00">VAbstractSimple</text>
<text text-anchor="start" x="375.5" y="-834.5" font-family="Helvetica,sans-Serif" font-size="10.00">#</text>
<text text-anchor="start" x="388.5" y="-834.5" font-family="Helvetica,sans-Serif" font-size="10.00">id</text>
<text text-anchor="start" x="375.5" y="-819.5" font-family="Helvetica,sans-Serif" font-size="10.00">#</text>
<text text-anchor="start" x="388.5" y="-819.5" font-family="Helvetica,sans-Serif" font-size="10.00">selectionType</text>
<text text-anchor="start" x="375.5" y="-804.5" font-family="Helvetica,sans-Serif" font-size="10.00">#</text>
<text text-anchor="start" x="388.5" y="-804.5" font-family="Helvetica,sans-Serif" font-size="10.00">type</text>
<text text-anchor="start" x="375.5" y="-789.5" font-family="Helvetica,sans-Serif" font-size="10.00">+</text>
<text text-anchor="start" x="388.5" y="-789.5" font-family="Helvetica,sans-Serif" font-size="10.00">VAbstractSimple()</text>
<text text-anchor="start" x="375.5" y="-774.5" font-family="Helvetica,sans-Serif" font-size="10.00">+</text>
<text text-anchor="start" x="388.5" y="-774.5" font-family="Helvetica,sans-Serif" font-size="10.00">~VAbstractSimple()</text>
<text text-anchor="start" x="375.5" y="-759.5" font-family="Helvetica,sans-Serif" font-size="10.00">+</text>
<text text-anchor="start" x="388.5" y="-759.5" font-family="Helvetica,sans-Serif" font-size="10.00">ToolSelectionType()</text>
<text text-anchor="start" x="375.5" y="-744.5" font-family="Helvetica,sans-Serif" font-size="10.00">+</text>
<text text-anchor="start" x="388.5" y="-744.5" font-family="Helvetica,sans-Serif" font-size="10.00">GetType()</text>
<text text-anchor="start" x="375.5" y="-729.5" font-family="Helvetica,sans-Serif" font-size="10.00">+</text>
<text text-anchor="start" x="388.5" y="-729.5" font-family="Helvetica,sans-Serif" font-size="10.00">SetType()</text>
<polygon fill="#666666" stroke="#666666" points="371.5,-844.5 371.5,-844.5 489.5,-844.5 489.5,-844.5 371.5,-844.5"/>
<polygon fill="#666666" stroke="#666666" points="371.5,-799.5 371.5,-799.5 386.5,-799.5 386.5,-799.5 371.5,-799.5"/>
<polygon fill="#666666" stroke="#666666" points="386.5,-799.5 386.5,-799.5 489.5,-799.5 489.5,-799.5 386.5,-799.5"/>
<polygon fill="none" stroke="#666666" points="371.5,-723 371.5,-862 489.5,-862 489.5,-723 371.5,-723"/>
</a>
</g>
</g>
<!-- Node2&#45;&gt;Node1 -->
<g id="edge1_Node000001_Node000002" class="edge">
<title>Node2&#45;&gt;Node1</title>
<g id="a_edge1_Node000001_Node000002"><a xlink:title=" ">
<path fill="none" stroke="#63b8ff" d="M410.46,-712.68C390.76,-635.21 359.87,-513.71 333.26,-409.05"/>
<polygon fill="none" stroke="#63b8ff" points="407.19,-714.01 413.04,-722.84 413.97,-712.29 407.19,-714.01"/>
</a>
</g>
</g>
<!-- Node3 -->
<g id="Node000003" class="node">
<title>Node3</title>
<g id="a_Node000003"><a xlink:title=" ">
<polygon fill="white" stroke="transparent" points="478.5,-1435 428.5,-1435 428.5,-1386 478.5,-1386 478.5,-1435"/>
<text text-anchor="start" x="433.5" y="-1422.5" font-family="Helvetica,sans-Serif" font-size="10.00">QObject</text>
<text text-anchor="start" x="451.5" y="-1407.5" font-family="Helvetica,sans-Serif" font-size="10.00"> </text>
<text text-anchor="start" x="451.5" y="-1392.5" font-family="Helvetica,sans-Serif" font-size="10.00"> </text>
<polygon fill="#666666" stroke="#666666" points="428.5,-1417.5 428.5,-1417.5 478.5,-1417.5 478.5,-1417.5 428.5,-1417.5"/>
<polygon fill="#666666" stroke="#666666" points="428.5,-1402.5 428.5,-1402.5 478.5,-1402.5 478.5,-1402.5 428.5,-1402.5"/>
<polygon fill="none" stroke="#666666" points="428.5,-1386 428.5,-1435 478.5,-1435 478.5,-1386 428.5,-1386"/>
</a>
</g>
</g>
<!-- Node3&#45;&gt;Node2 -->
<g id="edge2_Node000002_Node000003" class="edge">
<title>Node3&#45;&gt;Node2</title>
<g id="a_edge2_Node000002_Node000003"><a xlink:title=" ">
<path fill="none" stroke="#63b8ff" d="M452.4,-1375.52C449.66,-1291.47 442.18,-1067.1 434.5,-880 434.27,-874.29 434.01,-868.37 433.75,-862.43"/>
<polygon fill="none" stroke="#63b8ff" points="448.91,-1375.87 452.74,-1385.75 455.91,-1375.64 448.91,-1375.87"/>
</a>
</g>
</g>
<!-- Node6 -->
<g id="Node000006" class="node">
<title>Node6</title>
<g id="a_Node000006"><a xlink:href="../../de/dbc/classVGraphicsSimpleTextItem.html" target="_top" xlink:title="The VGraphicsSimpleTextItem class pointer label.">
<polygon fill="white" stroke="transparent" points="425,-1349 262,-1349 262,-880 425,-880 425,-1349"/>
<text text-anchor="start" x="280.5" y="-1336.5" font-family="Helvetica,sans-Serif" font-size="10.00">VGraphicsSimpleTextItem</text>
<text text-anchor="start" x="269" y="-1321.5" font-family="Helvetica,sans-Serif" font-size="10.00">&#45;</text>
<text text-anchor="start" x="279.5" y="-1321.5" font-family="Helvetica,sans-Serif" font-size="10.00">m_fontSize</text>
<text text-anchor="start" x="269" y="-1306.5" font-family="Helvetica,sans-Serif" font-size="10.00">&#45;</text>
<text text-anchor="start" x="279.5" y="-1306.5" font-family="Helvetica,sans-Serif" font-size="10.00">m_scale</text>
<text text-anchor="start" x="269" y="-1291.5" font-family="Helvetica,sans-Serif" font-size="10.00">&#45;</text>
<text text-anchor="start" x="279.5" y="-1291.5" font-family="Helvetica,sans-Serif" font-size="10.00">m_textColor</text>
<text text-anchor="start" x="269" y="-1276.5" font-family="Helvetica,sans-Serif" font-size="10.00">&#45;</text>
<text text-anchor="start" x="279.5" y="-1276.5" font-family="Helvetica,sans-Serif" font-size="10.00">m_isNameHovered</text>
<text text-anchor="start" x="269" y="-1261.5" font-family="Helvetica,sans-Serif" font-size="10.00">&#45;</text>
<text text-anchor="start" x="279.5" y="-1261.5" font-family="Helvetica,sans-Serif" font-size="10.00">selectionType</text>
<text text-anchor="start" x="269" y="-1246.5" font-family="Helvetica,sans-Serif" font-size="10.00">&#45;</text>
<text text-anchor="start" x="279.5" y="-1246.5" font-family="Helvetica,sans-Serif" font-size="10.00">m_showParentTooltip</text>
<text text-anchor="start" x="269" y="-1231.5" font-family="Helvetica,sans-Serif" font-size="10.00">&#45;</text>
<text text-anchor="start" x="279.5" y="-1231.5" font-family="Helvetica,sans-Serif" font-size="10.00">m_pointNamePos</text>
<text text-anchor="start" x="266.5" y="-1216.5" font-family="Helvetica,sans-Serif" font-size="10.00">+</text>
<text text-anchor="start" x="279.5" y="-1216.5" font-family="Helvetica,sans-Serif" font-size="10.00">VGraphicsSimpleTextItem()</text>
<text text-anchor="start" x="266.5" y="-1201.5" font-family="Helvetica,sans-Serif" font-size="10.00">+</text>
<text text-anchor="start" x="279.5" y="-1201.5" font-family="Helvetica,sans-Serif" font-size="10.00">VGraphicsSimpleTextItem()</text>
<text text-anchor="start" x="266.5" y="-1186.5" font-family="Helvetica,sans-Serif" font-size="10.00">+</text>
<text text-anchor="start" x="279.5" y="-1186.5" font-family="Helvetica,sans-Serif" font-size="10.00">~VGraphicsSimpleTextItem()</text>
<text text-anchor="start" x="266.5" y="-1171.5" font-family="Helvetica,sans-Serif" font-size="10.00">+</text>
<text text-anchor="start" x="279.5" y="-1171.5" font-family="Helvetica,sans-Serif" font-size="10.00">BaseFontSize()</text>
<text text-anchor="start" x="266.5" y="-1156.5" font-family="Helvetica,sans-Serif" font-size="10.00">+</text>
<text text-anchor="start" x="279.5" y="-1156.5" font-family="Helvetica,sans-Serif" font-size="10.00">type()</text>
<text text-anchor="start" x="266.5" y="-1141.5" font-family="Helvetica,sans-Serif" font-size="10.00">+</text>
<text text-anchor="start" x="279.5" y="-1141.5" font-family="Helvetica,sans-Serif" font-size="10.00">paint()</text>
<text text-anchor="start" x="266.5" y="-1126.5" font-family="Helvetica,sans-Serif" font-size="10.00">+</text>
<text text-anchor="start" x="279.5" y="-1126.5" font-family="Helvetica,sans-Serif" font-size="10.00">setEnabled()</text>
<text text-anchor="start" x="266.5" y="-1111.5" font-family="Helvetica,sans-Serif" font-size="10.00">+</text>
<text text-anchor="start" x="279.5" y="-1111.5" font-family="Helvetica,sans-Serif" font-size="10.00">textSelectionType()</text>
<text text-anchor="start" x="266.5" y="-1096.5" font-family="Helvetica,sans-Serif" font-size="10.00">+</text>
<text text-anchor="start" x="279.5" y="-1096.5" font-family="Helvetica,sans-Serif" font-size="10.00">setShowParentTooltip()</text>
<text text-anchor="start" x="266.5" y="-1081.5" font-family="Helvetica,sans-Serif" font-size="10.00">+</text>
<text text-anchor="start" x="279.5" y="-1081.5" font-family="Helvetica,sans-Serif" font-size="10.00">getTextBrushColor()</text>
<text text-anchor="start" x="266.5" y="-1066.5" font-family="Helvetica,sans-Serif" font-size="10.00">+</text>
<text text-anchor="start" x="279.5" y="-1066.5" font-family="Helvetica,sans-Serif" font-size="10.00">setTextColor()</text>
<text text-anchor="start" x="266.5" y="-1051.5" font-family="Helvetica,sans-Serif" font-size="10.00">+</text>
<text text-anchor="start" x="279.5" y="-1051.5" font-family="Helvetica,sans-Serif" font-size="10.00">setPosition()</text>
<text text-anchor="start" x="266.5" y="-1036.5" font-family="Helvetica,sans-Serif" font-size="10.00">#</text>
<text text-anchor="start" x="279.5" y="-1036.5" font-family="Helvetica,sans-Serif" font-size="10.00">itemChange()</text>
<text text-anchor="start" x="266.5" y="-1021.5" font-family="Helvetica,sans-Serif" font-size="10.00">#</text>
<text text-anchor="start" x="279.5" y="-1021.5" font-family="Helvetica,sans-Serif" font-size="10.00">hoverEnterEvent()</text>
<text text-anchor="start" x="266.5" y="-1006.5" font-family="Helvetica,sans-Serif" font-size="10.00">#</text>
<text text-anchor="start" x="279.5" y="-1006.5" font-family="Helvetica,sans-Serif" font-size="10.00">hoverLeaveEvent()</text>
<text text-anchor="start" x="266.5" y="-991.5" font-family="Helvetica,sans-Serif" font-size="10.00">#</text>
<text text-anchor="start" x="279.5" y="-991.5" font-family="Helvetica,sans-Serif" font-size="10.00">contextMenuEvent()</text>
<text text-anchor="start" x="266.5" y="-976.5" font-family="Helvetica,sans-Serif" font-size="10.00">#</text>
<text text-anchor="start" x="279.5" y="-976.5" font-family="Helvetica,sans-Serif" font-size="10.00">mousePressEvent()</text>
<text text-anchor="start" x="266.5" y="-961.5" font-family="Helvetica,sans-Serif" font-size="10.00">#</text>
<text text-anchor="start" x="279.5" y="-961.5" font-family="Helvetica,sans-Serif" font-size="10.00">mouseReleaseEvent()</text>
<text text-anchor="start" x="266.5" y="-946.5" font-family="Helvetica,sans-Serif" font-size="10.00">#</text>
<text text-anchor="start" x="279.5" y="-946.5" font-family="Helvetica,sans-Serif" font-size="10.00">keyReleaseEvent()</text>
<text text-anchor="start" x="269" y="-931.5" font-family="Helvetica,sans-Serif" font-size="10.00">&#45;</text>
<text text-anchor="start" x="279.5" y="-931.5" font-family="Helvetica,sans-Serif" font-size="10.00">initItem()</text>
<text text-anchor="start" x="269" y="-916.5" font-family="Helvetica,sans-Serif" font-size="10.00">&#45;</text>
<text text-anchor="start" x="279.5" y="-916.5" font-family="Helvetica,sans-Serif" font-size="10.00">scalePointName()</text>
<text text-anchor="start" x="269" y="-901.5" font-family="Helvetica,sans-Serif" font-size="10.00">&#45;</text>
<text text-anchor="start" x="279.5" y="-901.5" font-family="Helvetica,sans-Serif" font-size="10.00">scalePosition()</text>
<text text-anchor="start" x="269" y="-886.5" font-family="Helvetica,sans-Serif" font-size="10.00">&#45;</text>
<text text-anchor="start" x="279.5" y="-886.5" font-family="Helvetica,sans-Serif" font-size="10.00">updateLeader()</text>
<polygon fill="#666666" stroke="#666666" points="262.5,-1331.5 262.5,-1331.5 425.5,-1331.5 425.5,-1331.5 262.5,-1331.5"/>
<polygon fill="#666666" stroke="#666666" points="262.5,-1226.5 262.5,-1226.5 277.5,-1226.5 277.5,-1226.5 262.5,-1226.5"/>
<polygon fill="#666666" stroke="#666666" points="277.5,-1226.5 277.5,-1226.5 425.5,-1226.5 425.5,-1226.5 277.5,-1226.5"/>
<polygon fill="none" stroke="#666666" points="262,-880 262,-1349 425,-1349 425,-880 262,-880"/>
</a>
</g>
</g>
<!-- Node3&#45;&gt;Node6 -->
<g id="edge6_Node000006_Node000003" class="edge">
<title>Node3&#45;&gt;Node6</title>
<g id="a_edge6_Node000006_Node000003"><a xlink:title=" ">
<path fill="none" stroke="#63b8ff" d="M441.14,-1376.46C436.63,-1364.41 431.13,-1349.71 425.06,-1333.5"/>
<polygon fill="none" stroke="#63b8ff" points="437.9,-1377.8 444.68,-1385.94 444.46,-1375.35 437.9,-1377.8"/>
</a>
</g>
</g>
<!-- Node4 -->
<g id="Node000004" class="node">
<title>Node4</title>
<g id="a_Node000004"><a xlink:href="../../dc/d3b/classVScenePoint.html" target="_top" xlink:title=" ">
<polygon fill="white" stroke="transparent" points="270,-705 133,-705 133,-446 270,-446 270,-705"/>
<text text-anchor="start" x="171.5" y="-692.5" font-family="Helvetica,sans-Serif" font-size="10.00">VScenePoint</text>
<text text-anchor="start" x="137.5" y="-677.5" font-family="Helvetica,sans-Serif" font-size="10.00">#</text>
<text text-anchor="start" x="150.5" y="-677.5" font-family="Helvetica,sans-Serif" font-size="10.00">m_pointColor</text>
<text text-anchor="start" x="137.5" y="-662.5" font-family="Helvetica,sans-Serif" font-size="10.00">#</text>
<text text-anchor="start" x="150.5" y="-662.5" font-family="Helvetica,sans-Serif" font-size="10.00">m_onlyPoint</text>
<text text-anchor="start" x="137.5" y="-647.5" font-family="Helvetica,sans-Serif" font-size="10.00">#</text>
<text text-anchor="start" x="150.5" y="-647.5" font-family="Helvetica,sans-Serif" font-size="10.00">m_isHovered</text>
<text text-anchor="start" x="137.5" y="-632.5" font-family="Helvetica,sans-Serif" font-size="10.00">#</text>
<text text-anchor="start" x="150.5" y="-632.5" font-family="Helvetica,sans-Serif" font-size="10.00">m_showPointName</text>
<text text-anchor="start" x="137.5" y="-617.5" font-family="Helvetica,sans-Serif" font-size="10.00">+</text>
<text text-anchor="start" x="150.5" y="-617.5" font-family="Helvetica,sans-Serif" font-size="10.00">VScenePoint()</text>
<text text-anchor="start" x="137.5" y="-602.5" font-family="Helvetica,sans-Serif" font-size="10.00">+</text>
<text text-anchor="start" x="150.5" y="-602.5" font-family="Helvetica,sans-Serif" font-size="10.00">~VScenePoint()</text>
<text text-anchor="start" x="137.5" y="-587.5" font-family="Helvetica,sans-Serif" font-size="10.00">+</text>
<text text-anchor="start" x="150.5" y="-587.5" font-family="Helvetica,sans-Serif" font-size="10.00">type()</text>
<text text-anchor="start" x="137.5" y="-572.5" font-family="Helvetica,sans-Serif" font-size="10.00">+</text>
<text text-anchor="start" x="150.5" y="-572.5" font-family="Helvetica,sans-Serif" font-size="10.00">paint()</text>
<text text-anchor="start" x="137.5" y="-557.5" font-family="Helvetica,sans-Serif" font-size="10.00">+</text>
<text text-anchor="start" x="150.5" y="-557.5" font-family="Helvetica,sans-Serif" font-size="10.00">refreshPointGeometry()</text>
<text text-anchor="start" x="137.5" y="-542.5" font-family="Helvetica,sans-Serif" font-size="10.00">+</text>
<text text-anchor="start" x="150.5" y="-542.5" font-family="Helvetica,sans-Serif" font-size="10.00">refreshLeader()</text>
<text text-anchor="start" x="137.5" y="-527.5" font-family="Helvetica,sans-Serif" font-size="10.00">#</text>
<text text-anchor="start" x="150.5" y="-527.5" font-family="Helvetica,sans-Serif" font-size="10.00">hoverEnterEvent()</text>
<text text-anchor="start" x="137.5" y="-512.5" font-family="Helvetica,sans-Serif" font-size="10.00">#</text>
<text text-anchor="start" x="150.5" y="-512.5" font-family="Helvetica,sans-Serif" font-size="10.00">hoverLeaveEvent()</text>
<text text-anchor="start" x="137.5" y="-497.5" font-family="Helvetica,sans-Serif" font-size="10.00">#</text>
<text text-anchor="start" x="150.5" y="-497.5" font-family="Helvetica,sans-Serif" font-size="10.00">setOnlyPoint()</text>
<text text-anchor="start" x="137.5" y="-482.5" font-family="Helvetica,sans-Serif" font-size="10.00">#</text>
<text text-anchor="start" x="150.5" y="-482.5" font-family="Helvetica,sans-Serif" font-size="10.00">isOnlyPoint()</text>
<text text-anchor="start" x="137.5" y="-467.5" font-family="Helvetica,sans-Serif" font-size="10.00">#</text>
<text text-anchor="start" x="150.5" y="-467.5" font-family="Helvetica,sans-Serif" font-size="10.00">setPointColor()</text>
<text text-anchor="start" x="140" y="-452.5" font-family="Helvetica,sans-Serif" font-size="10.00">&#45;</text>
<text text-anchor="start" x="150.5" y="-452.5" font-family="Helvetica,sans-Serif" font-size="10.00">setPointPen()</text>
<polygon fill="#666666" stroke="#666666" points="133.5,-687.5 133.5,-687.5 270.5,-687.5 270.5,-687.5 133.5,-687.5"/>
<polygon fill="#666666" stroke="#666666" points="133.5,-627.5 133.5,-627.5 148.5,-627.5 148.5,-627.5 133.5,-627.5"/>
<polygon fill="#666666" stroke="#666666" points="148.5,-627.5 148.5,-627.5 270.5,-627.5 270.5,-627.5 148.5,-627.5"/>
<polygon fill="none" stroke="#666666" points="133,-446 133,-705 270,-705 270,-446 133,-446"/>
</a>
</g>
</g>
<!-- Node4&#45;&gt;Node1 -->
<g id="edge3_Node000001_Node000004" class="edge">
<title>Node4&#45;&gt;Node1</title>
<g id="a_edge3_Node000001_Node000004"><a xlink:title=" ">
<path fill="none" stroke="#63b8ff" d="M231.51,-436.08C233.42,-427.26 235.37,-418.3 237.32,-409.27"/>
<polygon fill="none" stroke="#63b8ff" points="228.07,-435.45 229.37,-445.96 234.91,-436.93 228.07,-435.45"/>
</a>
</g>
</g>
<!-- Node5 -->
<g id="Node000005" class="node">
<title>Node5</title>
<g id="a_Node000005"><a xlink:title=" ">
<polygon fill="white" stroke="transparent" points="243.5,-1139 127.5,-1139 127.5,-1090 243.5,-1090 243.5,-1139"/>
<text text-anchor="start" x="132.5" y="-1126.5" font-family="Helvetica,sans-Serif" font-size="10.00">QGraphicsEllipseItem</text>
<text text-anchor="start" x="183.5" y="-1111.5" font-family="Helvetica,sans-Serif" font-size="10.00"> </text>
<text text-anchor="start" x="183.5" y="-1096.5" font-family="Helvetica,sans-Serif" font-size="10.00"> </text>
<polygon fill="#666666" stroke="#666666" points="127.5,-1121.5 127.5,-1121.5 243.5,-1121.5 243.5,-1121.5 127.5,-1121.5"/>
<polygon fill="#666666" stroke="#666666" points="127.5,-1106.5 127.5,-1106.5 243.5,-1106.5 243.5,-1106.5 127.5,-1106.5"/>
<polygon fill="none" stroke="#666666" points="127.5,-1090 127.5,-1139 243.5,-1139 243.5,-1090 127.5,-1090"/>
</a>
</g>
</g>
<!-- Node5&#45;&gt;Node4 -->
<g id="edge4_Node000004_Node000005" class="edge">
<title>Node5&#45;&gt;Node4</title>
<g id="a_edge4_Node000004_Node000005"><a xlink:title=" ">
<path fill="none" stroke="#63b8ff" d="M186.51,-1079.66C188.7,-1006.1 193.99,-828.4 197.67,-705.18"/>
<polygon fill="none" stroke="#63b8ff" points="183.01,-1079.63 186.21,-1089.73 190,-1079.84 183.01,-1079.63"/>
</a>
</g>
</g>
<!-- Node6&#45;&gt;Node4 -->
<g id="edge5_Node000004_Node000006" class="edge">
<title>Node6&#45;&gt;Node4</title>
<g id="a_edge5_Node000004_Node000006"><a xlink:title=" ">
<path fill="none" stroke="#63b8ff" d="M281.73,-879.92C267.05,-824.4 251.84,-766.87 238.66,-717.01"/>
<polygon fill="none" stroke="#63b8ff" points="238.59,-716.78 233.19,-712 235.53,-705.18 240.93,-709.95 238.59,-716.78"/>
</a>
</g>
<text text-anchor="middle" x="318" y="-790" font-family="Helvetica,sans-Serif" font-size="10.00" fill="grey"> #m_pointName</text>
</g>
<!-- Node7 -->
<g id="Node000007" class="node">
<title>Node7</title>
<g id="a_Node000007"><a xlink:title=" ">
<polygon fill="white" stroke="transparent" points="410,-1435 273,-1435 273,-1386 410,-1386 410,-1435"/>
<text text-anchor="start" x="278.5" y="-1422.5" font-family="Helvetica,sans-Serif" font-size="10.00">QGraphicsSimpleTextItem</text>
<text text-anchor="start" x="340" y="-1407.5" font-family="Helvetica,sans-Serif" font-size="10.00"> </text>
<text text-anchor="start" x="340" y="-1392.5" font-family="Helvetica,sans-Serif" font-size="10.00"> </text>
<polygon fill="#666666" stroke="#666666" points="273.5,-1417.5 273.5,-1417.5 410.5,-1417.5 410.5,-1417.5 273.5,-1417.5"/>
<polygon fill="#666666" stroke="#666666" points="273.5,-1402.5 273.5,-1402.5 410.5,-1402.5 410.5,-1402.5 273.5,-1402.5"/>
<polygon fill="none" stroke="#666666" points="273,-1386 273,-1435 410,-1435 410,-1386 273,-1386"/>
</a>
</g>
</g>
<!-- Node7&#45;&gt;Node6 -->
<g id="edge7_Node000006_Node000007" class="edge">
<title>Node7&#45;&gt;Node6</title>
<g id="a_edge7_Node000006_Node000007"><a xlink:title=" ">
<path fill="none" stroke="#63b8ff" d="M341.73,-1375.86C341.78,-1367.94 341.84,-1358.91 341.91,-1349.07"/>
<polygon fill="none" stroke="#63b8ff" points="338.23,-1375.91 341.66,-1385.94 345.23,-1375.96 338.23,-1375.91"/>
</a>
</g>
</g>
<!-- Node8 -->
<g id="Node000008" class="node">
<title>Node8</title>
<g id="a_Node000008"><a xlink:href="../../dd/da2/classVScaledLine.html" target="_top" xlink:title=" ">
<polygon fill="white" stroke="transparent" points="109,-1184 0,-1184 0,-1045 109,-1045 109,-1184"/>
<text text-anchor="start" x="25" y="-1171.5" font-family="Helvetica,sans-Serif" font-size="10.00">VScaledLine</text>
<text text-anchor="start" x="7" y="-1156.5" font-family="Helvetica,sans-Serif" font-size="10.00">&#45;</text>
<text text-anchor="start" x="17.5" y="-1156.5" font-family="Helvetica,sans-Serif" font-size="10.00">m_defaultWidth</text>
<text text-anchor="start" x="4.5" y="-1141.5" font-family="Helvetica,sans-Serif" font-size="10.00">+</text>
<text text-anchor="start" x="17.5" y="-1141.5" font-family="Helvetica,sans-Serif" font-size="10.00">VScaledLine()</text>
<text text-anchor="start" x="4.5" y="-1126.5" font-family="Helvetica,sans-Serif" font-size="10.00">+</text>
<text text-anchor="start" x="17.5" y="-1126.5" font-family="Helvetica,sans-Serif" font-size="10.00">VScaledLine()</text>
<text text-anchor="start" x="4.5" y="-1111.5" font-family="Helvetica,sans-Serif" font-size="10.00">+</text>
<text text-anchor="start" x="17.5" y="-1111.5" font-family="Helvetica,sans-Serif" font-size="10.00">~VScaledLine()</text>
<text text-anchor="start" x="4.5" y="-1096.5" font-family="Helvetica,sans-Serif" font-size="10.00">+</text>
<text text-anchor="start" x="17.5" y="-1096.5" font-family="Helvetica,sans-Serif" font-size="10.00">type()</text>
<text text-anchor="start" x="4.5" y="-1081.5" font-family="Helvetica,sans-Serif" font-size="10.00">+</text>
<text text-anchor="start" x="17.5" y="-1081.5" font-family="Helvetica,sans-Serif" font-size="10.00">paint()</text>
<text text-anchor="start" x="4.5" y="-1066.5" font-family="Helvetica,sans-Serif" font-size="10.00">+</text>
<text text-anchor="start" x="17.5" y="-1066.5" font-family="Helvetica,sans-Serif" font-size="10.00">getDefaultWidth()</text>
<text text-anchor="start" x="4.5" y="-1051.5" font-family="Helvetica,sans-Serif" font-size="10.00">+</text>
<text text-anchor="start" x="17.5" y="-1051.5" font-family="Helvetica,sans-Serif" font-size="10.00">setDefaultWidth()</text>
<polygon fill="#666666" stroke="#666666" points="0.5,-1166.5 0.5,-1166.5 109.5,-1166.5 109.5,-1166.5 0.5,-1166.5"/>
<polygon fill="#666666" stroke="#666666" points="0.5,-1151.5 0.5,-1151.5 15.5,-1151.5 15.5,-1151.5 0.5,-1151.5"/>
<polygon fill="#666666" stroke="#666666" points="15.5,-1151.5 15.5,-1151.5 109.5,-1151.5 109.5,-1151.5 15.5,-1151.5"/>
<polygon fill="none" stroke="#666666" points="0,-1045 0,-1184 109,-1184 109,-1045 0,-1045"/>
</a>
</g>
</g>
<!-- Node8&#45;&gt;Node4 -->
<g id="edge8_Node000004_Node000008" class="edge">
<title>Node8&#45;&gt;Node4</title>
<g id="a_edge8_Node000004_Node000008"><a xlink:title=" ">
<path fill="none" stroke="#63b8ff" d="M53.97,-1044.95C55.45,-965.16 64.47,-830.62 104.5,-723 110.28,-707.47 117.97,-691.94 126.5,-677.1"/>
<polygon fill="none" stroke="#63b8ff" points="126.72,-676.74 126.35,-669.54 132.85,-666.43 133.22,-673.63 126.72,-676.74"/>
</a>
</g>
<text text-anchor="middle" x="147" y="-790" font-family="Helvetica,sans-Serif" font-size="10.00" fill="grey"> #m_pointLeader</text>
</g>
<!-- Node9 -->
<g id="Node000009" class="node">
<title>Node9</title>
<g id="a_Node000009"><a xlink:title=" ">
<polygon fill="white" stroke="transparent" points="106.5,-1435 2.5,-1435 2.5,-1386 106.5,-1386 106.5,-1435"/>
<text text-anchor="start" x="7.5" y="-1422.5" font-family="Helvetica,sans-Serif" font-size="10.00">QGraphicsLineItem</text>
<text text-anchor="start" x="52.5" y="-1407.5" font-family="Helvetica,sans-Serif" font-size="10.00"> </text>
<text text-anchor="start" x="52.5" y="-1392.5" font-family="Helvetica,sans-Serif" font-size="10.00"> </text>
<polygon fill="#666666" stroke="#666666" points="2.5,-1417.5 2.5,-1417.5 106.5,-1417.5 106.5,-1417.5 2.5,-1417.5"/>
<polygon fill="#666666" stroke="#666666" points="2.5,-1402.5 2.5,-1402.5 106.5,-1402.5 106.5,-1402.5 2.5,-1402.5"/>
<polygon fill="none" stroke="#666666" points="2.5,-1386 2.5,-1435 106.5,-1435 106.5,-1386 2.5,-1386"/>
</a>
</g>
</g>
<!-- Node9&#45;&gt;Node8 -->
<g id="edge9_Node000008_Node000009" class="edge">
<title>Node9&#45;&gt;Node8</title>
<g id="a_edge9_Node000008_Node000009"><a xlink:title=" ">
<path fill="none" stroke="#63b8ff" d="M54.5,-1375.8C54.5,-1329.3 54.5,-1244.38 54.5,-1184.2"/>
<polygon fill="none" stroke="#63b8ff" points="51,-1375.94 54.5,-1385.94 58,-1375.94 51,-1375.94"/>
</a>
</g>
</g>
</g>
</svg>

<g id="navigator" transform="translate(0 0)" fill="#404254">
  <rect fill="#f2f5e9" fill-opacity="0.5" stroke="#606060" stroke-width=".5" x="0" y="0" width="60" height="60"/>
  <use id="zoomplus" xlink:href="#zoomPlus" x="17" y="9" onmousedown="handleZoom(evt,'in')"/>
  <use id="zoomminus" xlink:href="#zoomMin" x="42" y="9" onmousedown="handleZoom(evt,'out')"/>
  <use id="reset" xlink:href="#resetDef" x="30" y="36" onmousedown="handleReset()"/>
   <use id="arrowup" xlink:href="#arrowUp" x="0" y="0" onmousedown="handlePan(0,-1)"/>
  <use id="arrowright" xlink:href="#arrowRight" x="0" y="0" onmousedown="handlePan(1,0)"/>
  <use id="arrowdown" xlink:href="#arrowDown" x="0" y="0" onmousedown="handlePan(0,1)"/>
  <use id="arrowleft" xlink:href="#arrowLeft" x="0" y="0" onmousedown="handlePan(-1,0)"/>
</g>
<svg viewBox="0 0 15 15" width="100%" height="30px" preserveAspectRatio="xMaxYMin meet">
 <g id="arrow_out" transform="scale(0.3 0.3)">
  <a xlink:href="classVSimplePoint__coll__graph_org.svg" target="_base">
   <rect id="button" ry="5" rx="5" y="6" x="6" height="38" width="38"
        fill="#f2f5e9" fill-opacity="0.5" stroke="#606060" stroke-width="1.0"/>
   <path id="arrow"
     d="M 11.500037,31.436501 C 11.940474,20.09759 22.043105,11.32322 32.158766,21.979434 L 37.068811,17.246167 C 37.068811,17.246167 37.088388,32 37.088388,32 L 22.160133,31.978069 C 22.160133,31.978069 26.997745,27.140456 26.997745,27.140456 C 18.528582,18.264221 13.291696,25.230495 11.500037,31.436501 z"
     style="fill:#404040;"/>
  </a>
 </g>
</svg>

<style type='text/css'>
<![CDATA[
[data-mouse-over-selected='false'] { opacity: 0.7; }
[data-mouse-over-selected='true']  { opacity: 1.0; }
]]>
</style>
<script type="application/ecmascript"><![CDATA[
document.addEventListener('DOMContentLoaded', (event) => {
  highlightEdges();
  highlightAdjacentNodes();
});
]]></script>
</svg>
