<?xml version="1.0" encoding="UTF-8" standalone="no"?>
<!DOCTYPE svg PUBLIC "-//W3C//DTD SVG 1.1//EN"
 "http://www.w3.org/Graphics/SVG/1.1/DTD/svg11.dtd">
<!-- Generated by graphviz version 2.43.0 (0)
 -->
<!-- Title: VisToolNormal Pages: 1 -->
<!--zoomable 1692 -->

<svg id="main" version="1.1" xmlns="http://www.w3.org/2000/svg" xmlns:xlink="http://www.w3.org/1999/xlink" xml:space="preserve" onload="init(evt)">
<style type="text/css"><![CDATA[
.node, .edge {opacity: 0.7;}
.node.selected, .edge.selected {opacity: 1;}
.edge:hover path { stroke: red; }
.edge:hover polygon { stroke: red; fill: red; }
]]></style>

<defs>
  <circle id="rim" cx="0" cy="0" r="7"/>
  <circle id="rim2" cx="0" cy="0" r="3.5"/>
  <g id="zoomPlus">
    <use xlink:href="#rim" fill="#404040"><set attributeName="fill" to="#808080" begin="zoomplus.mouseover" end="zoomplus.mouseout"/></use>
    <path d="M-4,0h8M0,-4v8" fill="none" stroke="white" stroke-width="1.5" pointer-events="none"/>
  </g>
  <g id="zoomMin">
    <use xlink:href="#rim" fill="#404040"><set attributeName="fill" to="#808080" begin="zoomminus.mouseover" end="zoomminus.mouseout"/></use>
    <path d="M-4,0h8" fill="none" stroke="white" stroke-width="1.5" pointer-events="none"/>
  </g>
  <g id="arrowUp" transform="translate(30 24)">
    <use xlink:href="#rim"/>
    <path pointer-events="none" fill="none" stroke="white" stroke-width="1.5" d="M0,-3.0v7 M-2.5,-0.5L0,-3.0L2.5,-0.5"/>
  </g>
  <g id="arrowRight" transform="rotate(90) translate(36 -43)">
    <use xlink:href="#rim"/>
    <path pointer-events="none" fill="none" stroke="white" stroke-width="1.5" d="M0,-3.0v7 M-2.5,-0.5L0,-3.0L2.5,-0.5"/>
  </g>
  <g id="arrowDown" transform="rotate(180) translate(-30 -48)">
    <use xlink:href="#rim"/>
    <path pointer-events="none" fill="none" stroke="white" stroke-width="1.5" d="M0,-3.0v7 M-2.5,-0.5L0,-3.0L2.5,-0.5"/>
  </g>
  <g id="arrowLeft" transform="rotate(270) translate(-36 17)">
    <use xlink:href="#rim"/>
    <path pointer-events="none" fill="none" stroke="white" stroke-width="1.5" d="M0,-3.0v7 M-2.5,-0.5L0,-3.0L2.5,-0.5"/>
  </g>
  <g id="resetDef">
    <use xlink:href="#rim2" fill="#404040"><set attributeName="fill" to="#808080" begin="reset.mouseover" end="reset.mouseout"/></use>
  </g>
</defs>
<script type="application/ecmascript">
var viewWidth = 487;
var viewHeight = 1692;
var sectionId = 'dynsection-1';
</script>
<script type="application/ecmascript" xlink:href="../../svg.min.js"/>
<svg id="graph" class="graph">
<g id="viewport">
<title>VisToolNormal</title>
<!-- Node1 -->
<g id="Node000001" class="node">
<title>Node1</title>
<g id="a_Node000001"><a xlink:title=" ">
<polygon fill="#999999" stroke="transparent" points="363.5,-184 248.5,-184 248.5,0 363.5,0 363.5,-184"/>
<text text-anchor="start" x="271" y="-172" font-family="Helvetica,sans-Serif" font-size="10.00">VisToolNormal</text>
<text text-anchor="start" x="255.5" y="-157" font-family="Helvetica,sans-Serif" font-size="10.00">&#45;</text>
<text text-anchor="start" x="266" y="-157" font-family="Helvetica,sans-Serif" font-size="10.00">object2Id</text>
<text text-anchor="start" x="255.5" y="-142" font-family="Helvetica,sans-Serif" font-size="10.00">&#45;</text>
<text text-anchor="start" x="266" y="-142" font-family="Helvetica,sans-Serif" font-size="10.00">length</text>
<text text-anchor="start" x="255.5" y="-127" font-family="Helvetica,sans-Serif" font-size="10.00">&#45;</text>
<text text-anchor="start" x="266" y="-127" font-family="Helvetica,sans-Serif" font-size="10.00">angle</text>
<text text-anchor="start" x="253" y="-112" font-family="Helvetica,sans-Serif" font-size="10.00">+</text>
<text text-anchor="start" x="266" y="-112" font-family="Helvetica,sans-Serif" font-size="10.00">VisToolNormal()</text>
<text text-anchor="start" x="253" y="-97" font-family="Helvetica,sans-Serif" font-size="10.00">+</text>
<text text-anchor="start" x="266" y="-97" font-family="Helvetica,sans-Serif" font-size="10.00">~VisToolNormal()</text>
<text text-anchor="start" x="253" y="-82" font-family="Helvetica,sans-Serif" font-size="10.00">+</text>
<text text-anchor="start" x="266" y="-82" font-family="Helvetica,sans-Serif" font-size="10.00">RefreshGeometry()</text>
<text text-anchor="start" x="253" y="-67" font-family="Helvetica,sans-Serif" font-size="10.00">+</text>
<text text-anchor="start" x="266" y="-67" font-family="Helvetica,sans-Serif" font-size="10.00">setObject2Id()</text>
<text text-anchor="start" x="253" y="-52" font-family="Helvetica,sans-Serif" font-size="10.00">+</text>
<text text-anchor="start" x="266" y="-52" font-family="Helvetica,sans-Serif" font-size="10.00">setLength()</text>
<text text-anchor="start" x="253" y="-37" font-family="Helvetica,sans-Serif" font-size="10.00">+</text>
<text text-anchor="start" x="266" y="-37" font-family="Helvetica,sans-Serif" font-size="10.00">GetAngle()</text>
<text text-anchor="start" x="253" y="-22" font-family="Helvetica,sans-Serif" font-size="10.00">+</text>
<text text-anchor="start" x="266" y="-22" font-family="Helvetica,sans-Serif" font-size="10.00">SetAngle()</text>
<text text-anchor="start" x="253" y="-7" font-family="Helvetica,sans-Serif" font-size="10.00">+</text>
<text text-anchor="start" x="266" y="-7" font-family="Helvetica,sans-Serif" font-size="10.00">type()</text>
<polygon fill="#666666" stroke="#666666" points="249,-167 249,-167 364,-167 364,-167 249,-167"/>
<polygon fill="#666666" stroke="#666666" points="249,-122 249,-122 264,-122 264,-122 249,-122"/>
<polygon fill="#666666" stroke="#666666" points="264,-122 264,-122 364,-122 364,-122 264,-122"/>
<polygon fill="none" stroke="#666666" points="248.5,0 248.5,-184 363.5,-184 363.5,0 248.5,0"/>
</a>
</g>
</g>
<!-- Node2 -->
<g id="Node000002" class="node">
<title>Node2</title>
<g id="a_Node000002"><a xlink:href="../../de/d0e/classVisLine.html" target="_top" xlink:title=" ">
<polygon fill="white" stroke="transparent" points="270,-452 178,-452 178,-253 270,-253 270,-452"/>
<text text-anchor="start" x="206" y="-439.5" font-family="Helvetica,sans-Serif" font-size="10.00">VisLine</text>
<text text-anchor="start" x="222" y="-424.5" font-family="Helvetica,sans-Serif" font-size="10.00"> </text>
<text text-anchor="start" x="182" y="-409.5" font-family="Helvetica,sans-Serif" font-size="10.00">+</text>
<text text-anchor="start" x="195" y="-409.5" font-family="Helvetica,sans-Serif" font-size="10.00">VisLine()</text>
<text text-anchor="start" x="182" y="-394.5" font-family="Helvetica,sans-Serif" font-size="10.00">+</text>
<text text-anchor="start" x="195" y="-394.5" font-family="Helvetica,sans-Serif" font-size="10.00">~VisLine()</text>
<text text-anchor="start" x="182" y="-379.5" font-family="Helvetica,sans-Serif" font-size="10.00">+</text>
<text text-anchor="start" x="195" y="-379.5" font-family="Helvetica,sans-Serif" font-size="10.00">type()</text>
<text text-anchor="start" x="182" y="-364.5" font-family="Helvetica,sans-Serif" font-size="10.00">+</text>
<text text-anchor="start" x="195" y="-364.5" font-family="Helvetica,sans-Serif" font-size="10.00">CorrectAngle()</text>
<text text-anchor="start" x="182" y="-349.5" font-family="Helvetica,sans-Serif" font-size="10.00">#</text>
<text text-anchor="start" x="195" y="-349.5" font-family="Helvetica,sans-Serif" font-size="10.00">Ray()</text>
<text text-anchor="start" x="182" y="-334.5" font-family="Helvetica,sans-Serif" font-size="10.00">#</text>
<text text-anchor="start" x="195" y="-334.5" font-family="Helvetica,sans-Serif" font-size="10.00">Ray()</text>
<text text-anchor="start" x="182" y="-319.5" font-family="Helvetica,sans-Serif" font-size="10.00">#</text>
<text text-anchor="start" x="195" y="-319.5" font-family="Helvetica,sans-Serif" font-size="10.00">Axis()</text>
<text text-anchor="start" x="182" y="-304.5" font-family="Helvetica,sans-Serif" font-size="10.00">#</text>
<text text-anchor="start" x="195" y="-304.5" font-family="Helvetica,sans-Serif" font-size="10.00">Axis()</text>
<text text-anchor="start" x="182" y="-289.5" font-family="Helvetica,sans-Serif" font-size="10.00">#</text>
<text text-anchor="start" x="195" y="-289.5" font-family="Helvetica,sans-Serif" font-size="10.00">initPen()</text>
<text text-anchor="start" x="182" y="-274.5" font-family="Helvetica,sans-Serif" font-size="10.00">#</text>
<text text-anchor="start" x="195" y="-274.5" font-family="Helvetica,sans-Serif" font-size="10.00">AddOnScene()</text>
<text text-anchor="start" x="182" y="-259.5" font-family="Helvetica,sans-Serif" font-size="10.00">#</text>
<text text-anchor="start" x="195" y="-259.5" font-family="Helvetica,sans-Serif" font-size="10.00">DrawRay()</text>
<polygon fill="#666666" stroke="#666666" points="178,-434.5 178,-434.5 270,-434.5 270,-434.5 178,-434.5"/>
<polygon fill="#666666" stroke="#666666" points="178,-419.5 178,-419.5 270,-419.5 270,-419.5 178,-419.5"/>
<polygon fill="none" stroke="#666666" points="178,-253 178,-452 270,-452 270,-253 178,-253"/>
</a>
</g>
</g>
<!-- Node2&#45;&gt;Node1 -->
<g id="edge1_Node000001_Node000002" class="edge">
<title>Node2&#45;&gt;Node1</title>
<g id="a_edge1_Node000001_Node000002"><a xlink:title=" ">
<path fill="none" stroke="#63b8ff" d="M258.39,-243.1C264.61,-223.48 271.04,-203.2 277.09,-184.14"/>
<polygon fill="none" stroke="#63b8ff" points="255.04,-242.08 255.35,-252.67 261.71,-244.19 255.04,-242.08"/>
</a>
</g>
</g>
<!-- Node3 -->
<g id="Node000003" class="node">
<title>Node3</title>
<g id="a_Node000003"><a xlink:href="../../d7/d24/classVisualization.html" target="_top" xlink:title=" ">
<polygon fill="white" stroke="transparent" points="206.5,-1078 91.5,-1078 91.5,-489 206.5,-489 206.5,-1078"/>
<text text-anchor="start" x="117.5" y="-1065.5" font-family="Helvetica,sans-Serif" font-size="10.00">Visualization</text>
<text text-anchor="start" x="96" y="-1050.5" font-family="Helvetica,sans-Serif" font-size="10.00">#</text>
<text text-anchor="start" x="109" y="-1050.5" font-family="Helvetica,sans-Serif" font-size="10.00">scenePos</text>
<text text-anchor="start" x="96" y="-1035.5" font-family="Helvetica,sans-Serif" font-size="10.00">#</text>
<text text-anchor="start" x="109" y="-1035.5" font-family="Helvetica,sans-Serif" font-size="10.00">mainColor</text>
<text text-anchor="start" x="96" y="-1020.5" font-family="Helvetica,sans-Serif" font-size="10.00">#</text>
<text text-anchor="start" x="109" y="-1020.5" font-family="Helvetica,sans-Serif" font-size="10.00">supportColor</text>
<text text-anchor="start" x="96" y="-1005.5" font-family="Helvetica,sans-Serif" font-size="10.00">#</text>
<text text-anchor="start" x="109" y="-1005.5" font-family="Helvetica,sans-Serif" font-size="10.00">lineStyle</text>
<text text-anchor="start" x="96" y="-990.5" font-family="Helvetica,sans-Serif" font-size="10.00">#</text>
<text text-anchor="start" x="109" y="-990.5" font-family="Helvetica,sans-Serif" font-size="10.00">lineWeight</text>
<text text-anchor="start" x="96" y="-975.5" font-family="Helvetica,sans-Serif" font-size="10.00">#</text>
<text text-anchor="start" x="109" y="-975.5" font-family="Helvetica,sans-Serif" font-size="10.00">object1Id</text>
<text text-anchor="start" x="96" y="-960.5" font-family="Helvetica,sans-Serif" font-size="10.00">#</text>
<text text-anchor="start" x="109" y="-960.5" font-family="Helvetica,sans-Serif" font-size="10.00">toolTip</text>
<text text-anchor="start" x="96" y="-945.5" font-family="Helvetica,sans-Serif" font-size="10.00">#</text>
<text text-anchor="start" x="109" y="-945.5" font-family="Helvetica,sans-Serif" font-size="10.00">mode</text>
<text text-anchor="start" x="96" y="-930.5" font-family="Helvetica,sans-Serif" font-size="10.00">+</text>
<text text-anchor="start" x="109" y="-930.5" font-family="Helvetica,sans-Serif" font-size="10.00">Visualization()</text>
<text text-anchor="start" x="96" y="-915.5" font-family="Helvetica,sans-Serif" font-size="10.00">+</text>
<text text-anchor="start" x="109" y="-915.5" font-family="Helvetica,sans-Serif" font-size="10.00">~Visualization()</text>
<text text-anchor="start" x="96" y="-900.5" font-family="Helvetica,sans-Serif" font-size="10.00">+</text>
<text text-anchor="start" x="109" y="-900.5" font-family="Helvetica,sans-Serif" font-size="10.00">RefreshGeometry()</text>
<text text-anchor="start" x="96" y="-885.5" font-family="Helvetica,sans-Serif" font-size="10.00">+</text>
<text text-anchor="start" x="109" y="-885.5" font-family="Helvetica,sans-Serif" font-size="10.00">setObject1Id()</text>
<text text-anchor="start" x="96" y="-870.5" font-family="Helvetica,sans-Serif" font-size="10.00">+</text>
<text text-anchor="start" x="109" y="-870.5" font-family="Helvetica,sans-Serif" font-size="10.00">setLineStyle()</text>
<text text-anchor="start" x="96" y="-855.5" font-family="Helvetica,sans-Serif" font-size="10.00">+</text>
<text text-anchor="start" x="109" y="-855.5" font-family="Helvetica,sans-Serif" font-size="10.00">setLineWeight()</text>
<text text-anchor="start" x="96" y="-840.5" font-family="Helvetica,sans-Serif" font-size="10.00">+</text>
<text text-anchor="start" x="109" y="-840.5" font-family="Helvetica,sans-Serif" font-size="10.00">setScenePos()</text>
<text text-anchor="start" x="96" y="-825.5" font-family="Helvetica,sans-Serif" font-size="10.00">+</text>
<text text-anchor="start" x="109" y="-825.5" font-family="Helvetica,sans-Serif" font-size="10.00">VisualMode()</text>
<text text-anchor="start" x="96" y="-810.5" font-family="Helvetica,sans-Serif" font-size="10.00">+</text>
<text text-anchor="start" x="109" y="-810.5" font-family="Helvetica,sans-Serif" font-size="10.00">setMainColor()</text>
<text text-anchor="start" x="96" y="-795.5" font-family="Helvetica,sans-Serif" font-size="10.00">+</text>
<text text-anchor="start" x="109" y="-795.5" font-family="Helvetica,sans-Serif" font-size="10.00">getData()</text>
<text text-anchor="start" x="96" y="-780.5" font-family="Helvetica,sans-Serif" font-size="10.00">+</text>
<text text-anchor="start" x="109" y="-780.5" font-family="Helvetica,sans-Serif" font-size="10.00">setData()</text>
<text text-anchor="start" x="96" y="-765.5" font-family="Helvetica,sans-Serif" font-size="10.00">+</text>
<text text-anchor="start" x="109" y="-765.5" font-family="Helvetica,sans-Serif" font-size="10.00">GetMode()</text>
<text text-anchor="start" x="96" y="-750.5" font-family="Helvetica,sans-Serif" font-size="10.00">+</text>
<text text-anchor="start" x="109" y="-750.5" font-family="Helvetica,sans-Serif" font-size="10.00">SetMode()</text>
<text text-anchor="start" x="96" y="-735.5" font-family="Helvetica,sans-Serif" font-size="10.00">+</text>
<text text-anchor="start" x="109" y="-735.5" font-family="Helvetica,sans-Serif" font-size="10.00">CurrentToolTip()</text>
<text text-anchor="start" x="96" y="-720.5" font-family="Helvetica,sans-Serif" font-size="10.00">+</text>
<text text-anchor="start" x="109" y="-720.5" font-family="Helvetica,sans-Serif" font-size="10.00">FindLength()</text>
<text text-anchor="start" x="96" y="-705.5" font-family="Helvetica,sans-Serif" font-size="10.00">+</text>
<text text-anchor="start" x="109" y="-705.5" font-family="Helvetica,sans-Serif" font-size="10.00">FindVal()</text>
<text text-anchor="start" x="96" y="-690.5" font-family="Helvetica,sans-Serif" font-size="10.00">+</text>
<text text-anchor="start" x="109" y="-690.5" font-family="Helvetica,sans-Serif" font-size="10.00">mousePos()</text>
<text text-anchor="start" x="96" y="-675.5" font-family="Helvetica,sans-Serif" font-size="10.00">#</text>
<text text-anchor="start" x="109" y="-675.5" font-family="Helvetica,sans-Serif" font-size="10.00">initPen()</text>
<text text-anchor="start" x="96" y="-660.5" font-family="Helvetica,sans-Serif" font-size="10.00">#</text>
<text text-anchor="start" x="109" y="-660.5" font-family="Helvetica,sans-Serif" font-size="10.00">AddOnScene()</text>
<text text-anchor="start" x="96" y="-645.5" font-family="Helvetica,sans-Serif" font-size="10.00">#</text>
<text text-anchor="start" x="109" y="-645.5" font-family="Helvetica,sans-Serif" font-size="10.00">InitPoint()</text>
<text text-anchor="start" x="96" y="-630.5" font-family="Helvetica,sans-Serif" font-size="10.00">#</text>
<text text-anchor="start" x="109" y="-630.5" font-family="Helvetica,sans-Serif" font-size="10.00">DrawPoint()</text>
<text text-anchor="start" x="96" y="-615.5" font-family="Helvetica,sans-Serif" font-size="10.00">#</text>
<text text-anchor="start" x="109" y="-615.5" font-family="Helvetica,sans-Serif" font-size="10.00">DrawLine()</text>
<text text-anchor="start" x="96" y="-600.5" font-family="Helvetica,sans-Serif" font-size="10.00">#</text>
<text text-anchor="start" x="109" y="-600.5" font-family="Helvetica,sans-Serif" font-size="10.00">DrawPath()</text>
<text text-anchor="start" x="96" y="-585.5" font-family="Helvetica,sans-Serif" font-size="10.00">#</text>
<text text-anchor="start" x="109" y="-585.5" font-family="Helvetica,sans-Serif" font-size="10.00">DrawPath()</text>
<text text-anchor="start" x="96" y="-570.5" font-family="Helvetica,sans-Serif" font-size="10.00">#</text>
<text text-anchor="start" x="109" y="-570.5" font-family="Helvetica,sans-Serif" font-size="10.00">drawArrowedLine()</text>
<text text-anchor="start" x="96" y="-555.5" font-family="Helvetica,sans-Serif" font-size="10.00">#</text>
<text text-anchor="start" x="109" y="-555.5" font-family="Helvetica,sans-Serif" font-size="10.00">drawArrow()</text>
<text text-anchor="start" x="96" y="-540.5" font-family="Helvetica,sans-Serif" font-size="10.00">#</text>
<text text-anchor="start" x="109" y="-540.5" font-family="Helvetica,sans-Serif" font-size="10.00">addItem()</text>
<text text-anchor="start" x="96" y="-525.5" font-family="Helvetica,sans-Serif" font-size="10.00">#</text>
<text text-anchor="start" x="109" y="-525.5" font-family="Helvetica,sans-Serif" font-size="10.00">InitItem()</text>
<text text-anchor="start" x="96" y="-510.5" font-family="Helvetica,sans-Serif" font-size="10.00">#</text>
<text text-anchor="start" x="109" y="-510.5" font-family="Helvetica,sans-Serif" font-size="10.00">GetPointItem()</text>
<text text-anchor="start" x="98.5" y="-495.5" font-family="Helvetica,sans-Serif" font-size="10.00">&#45;</text>
<text text-anchor="start" x="109" y="-495.5" font-family="Helvetica,sans-Serif" font-size="10.00">initPointItem()</text>
<polygon fill="#666666" stroke="#666666" points="92,-1060.5 92,-1060.5 207,-1060.5 207,-1060.5 92,-1060.5"/>
<polygon fill="#666666" stroke="#666666" points="92,-940.5 92,-940.5 107,-940.5 107,-940.5 92,-940.5"/>
<polygon fill="#666666" stroke="#666666" points="107,-940.5 107,-940.5 207,-940.5 207,-940.5 107,-940.5"/>
<polygon fill="none" stroke="#666666" points="91.5,-489 91.5,-1078 206.5,-1078 206.5,-489 91.5,-489"/>
</a>
</g>
</g>
<!-- Node3&#45;&gt;Node2 -->
<g id="edge2_Node000002_Node000003" class="edge">
<title>Node3&#45;&gt;Node2</title>
<g id="a_edge2_Node000002_Node000003"><a xlink:title=" ">
<path fill="none" stroke="#63b8ff" d="M202.09,-478.85C203.7,-469.64 205.26,-460.69 206.76,-452.1"/>
<polygon fill="none" stroke="#63b8ff" points="198.6,-478.49 200.32,-488.94 205.49,-479.7 198.6,-478.49"/>
</a>
</g>
</g>
<!-- Node4 -->
<g id="Node000004" class="node">
<title>Node4</title>
<g id="a_Node000004"><a xlink:title=" ">
<polygon fill="white" stroke="transparent" points="50,-1429 0,-1429 0,-1380 50,-1380 50,-1429"/>
<text text-anchor="start" x="5" y="-1416.5" font-family="Helvetica,sans-Serif" font-size="10.00">QObject</text>
<text text-anchor="start" x="23" y="-1401.5" font-family="Helvetica,sans-Serif" font-size="10.00"> </text>
<text text-anchor="start" x="23" y="-1386.5" font-family="Helvetica,sans-Serif" font-size="10.00"> </text>
<polygon fill="#666666" stroke="#666666" points="0,-1411.5 0,-1411.5 50,-1411.5 50,-1411.5 0,-1411.5"/>
<polygon fill="#666666" stroke="#666666" points="0,-1396.5 0,-1396.5 50,-1396.5 50,-1396.5 0,-1396.5"/>
<polygon fill="none" stroke="#666666" points="0,-1380 0,-1429 50,-1429 50,-1380 0,-1380"/>
</a>
</g>
</g>
<!-- Node4&#45;&gt;Node3 -->
<g id="edge3_Node000003_Node000004" class="edge">
<title>Node4&#45;&gt;Node3</title>
<g id="a_edge3_Node000003_Node000004"><a xlink:title=" ">
<path fill="none" stroke="#63b8ff" d="M27.62,-1369.74C32.04,-1317.12 42.18,-1212.49 59,-1125 67.86,-1078.92 79.5,-1029.86 91.45,-983.75"/>
<polygon fill="none" stroke="#63b8ff" points="24.12,-1369.6 26.79,-1379.86 31.1,-1370.18 24.12,-1369.6"/>
</a>
</g>
</g>
<!-- Node5 -->
<g id="Node000005" class="node">
<title>Node5</title>
<g id="a_Node000005"><a xlink:href="../../d2/d83/classVContainer.html" target="_top" xlink:title="Manages a collection of geometric objects, pieces, paths, and variables.">
<polygon fill="white" stroke="transparent" points="230,-1684 68,-1684 68,-1125 230,-1125 230,-1684"/>
<text text-anchor="start" x="121.5" y="-1671.5" font-family="Helvetica,sans-Serif" font-size="10.00">VContainer</text>
<text text-anchor="start" x="74.5" y="-1656.5" font-family="Helvetica,sans-Serif" font-size="10.00">&#45;</text>
<text text-anchor="start" x="85" y="-1656.5" font-family="Helvetica,sans-Serif" font-size="10.00">d</text>
<text text-anchor="start" x="74.5" y="-1641.5" font-family="Helvetica,sans-Serif" font-size="10.00">&#45;</text>
<text text-anchor="start" x="85" y="-1641.5" font-family="Helvetica,sans-Serif" font-size="10.00">_id</text>
<text text-anchor="start" x="74.5" y="-1626.5" font-family="Helvetica,sans-Serif" font-size="10.00">&#45;</text>
<text text-anchor="start" x="85" y="-1626.5" font-family="Helvetica,sans-Serif" font-size="10.00">_size</text>
<text text-anchor="start" x="74.5" y="-1611.5" font-family="Helvetica,sans-Serif" font-size="10.00">&#45;</text>
<text text-anchor="start" x="85" y="-1611.5" font-family="Helvetica,sans-Serif" font-size="10.00">_height</text>
<text text-anchor="start" x="74.5" y="-1596.5" font-family="Helvetica,sans-Serif" font-size="10.00">&#45;</text>
<text text-anchor="start" x="85" y="-1596.5" font-family="Helvetica,sans-Serif" font-size="10.00">uniqueNames</text>
<text text-anchor="start" x="72" y="-1581.5" font-family="Helvetica,sans-Serif" font-size="10.00">+</text>
<text text-anchor="start" x="85" y="-1581.5" font-family="Helvetica,sans-Serif" font-size="10.00">VContainer()</text>
<text text-anchor="start" x="72" y="-1566.5" font-family="Helvetica,sans-Serif" font-size="10.00">+</text>
<text text-anchor="start" x="85" y="-1566.5" font-family="Helvetica,sans-Serif" font-size="10.00">VContainer()</text>
<text text-anchor="start" x="72" y="-1551.5" font-family="Helvetica,sans-Serif" font-size="10.00">+</text>
<text text-anchor="start" x="85" y="-1551.5" font-family="Helvetica,sans-Serif" font-size="10.00">~VContainer()</text>
<text text-anchor="start" x="72" y="-1536.5" font-family="Helvetica,sans-Serif" font-size="10.00">+</text>
<text text-anchor="start" x="85" y="-1536.5" font-family="Helvetica,sans-Serif" font-size="10.00">operator=()</text>
<text text-anchor="start" x="72" y="-1521.5" font-family="Helvetica,sans-Serif" font-size="10.00">+</text>
<text text-anchor="start" x="85" y="-1521.5" font-family="Helvetica,sans-Serif" font-size="10.00">Swap()</text>
<text text-anchor="start" x="72" y="-1506.5" font-family="Helvetica,sans-Serif" font-size="10.00">+</text>
<text text-anchor="start" x="85" y="-1506.5" font-family="Helvetica,sans-Serif" font-size="10.00">GeometricObject()</text>
<text text-anchor="start" x="72" y="-1491.5" font-family="Helvetica,sans-Serif" font-size="10.00">+</text>
<text text-anchor="start" x="85" y="-1491.5" font-family="Helvetica,sans-Serif" font-size="10.00">GetGObject()</text>
<text text-anchor="start" x="72" y="-1476.5" font-family="Helvetica,sans-Serif" font-size="10.00">+</text>
<text text-anchor="start" x="85" y="-1476.5" font-family="Helvetica,sans-Serif" font-size="10.00">GetPiece()</text>
<text text-anchor="start" x="72" y="-1461.5" font-family="Helvetica,sans-Serif" font-size="10.00">+</text>
<text text-anchor="start" x="85" y="-1461.5" font-family="Helvetica,sans-Serif" font-size="10.00">GetPiecePath()</text>
<text text-anchor="start" x="72" y="-1446.5" font-family="Helvetica,sans-Serif" font-size="10.00">+</text>
<text text-anchor="start" x="85" y="-1446.5" font-family="Helvetica,sans-Serif" font-size="10.00">getVariable()</text>
<text text-anchor="start" x="85" y="-1431.5" font-family="Helvetica,sans-Serif" font-size="10.00">and 34 more...</text>
<text text-anchor="start" x="72" y="-1416.5" font-family="Helvetica,sans-Serif" font-size="10.00">+</text>
<text text-anchor="start" x="85" y="-1416.5" font-family="Helvetica,sans-Serif" font-size="10.00">GetFakeGObject()</text>
<text text-anchor="start" x="72" y="-1401.5" font-family="Helvetica,sans-Serif" font-size="10.00">+</text>
<text text-anchor="start" x="85" y="-1401.5" font-family="Helvetica,sans-Serif" font-size="10.00">getId()</text>
<text text-anchor="start" x="72" y="-1386.5" font-family="Helvetica,sans-Serif" font-size="10.00">+</text>
<text text-anchor="start" x="85" y="-1386.5" font-family="Helvetica,sans-Serif" font-size="10.00">getNextId()</text>
<text text-anchor="start" x="72" y="-1371.5" font-family="Helvetica,sans-Serif" font-size="10.00">+</text>
<text text-anchor="start" x="85" y="-1371.5" font-family="Helvetica,sans-Serif" font-size="10.00">UpdateId()</text>
<text text-anchor="start" x="72" y="-1356.5" font-family="Helvetica,sans-Serif" font-size="10.00">+</text>
<text text-anchor="start" x="85" y="-1356.5" font-family="Helvetica,sans-Serif" font-size="10.00">ClearUniqueNames()</text>
<text text-anchor="start" x="72" y="-1341.5" font-family="Helvetica,sans-Serif" font-size="10.00">+</text>
<text text-anchor="start" x="85" y="-1341.5" font-family="Helvetica,sans-Serif" font-size="10.00">clearUniqueVariableNames()</text>
<text text-anchor="start" x="72" y="-1326.5" font-family="Helvetica,sans-Serif" font-size="10.00">+</text>
<text text-anchor="start" x="85" y="-1326.5" font-family="Helvetica,sans-Serif" font-size="10.00">setSize()</text>
<text text-anchor="start" x="72" y="-1311.5" font-family="Helvetica,sans-Serif" font-size="10.00">+</text>
<text text-anchor="start" x="85" y="-1311.5" font-family="Helvetica,sans-Serif" font-size="10.00">setHeight()</text>
<text text-anchor="start" x="72" y="-1296.5" font-family="Helvetica,sans-Serif" font-size="10.00">+</text>
<text text-anchor="start" x="85" y="-1296.5" font-family="Helvetica,sans-Serif" font-size="10.00">size()</text>
<text text-anchor="start" x="72" y="-1281.5" font-family="Helvetica,sans-Serif" font-size="10.00">+</text>
<text text-anchor="start" x="85" y="-1281.5" font-family="Helvetica,sans-Serif" font-size="10.00">rsize()</text>
<text text-anchor="start" x="72" y="-1266.5" font-family="Helvetica,sans-Serif" font-size="10.00">+</text>
<text text-anchor="start" x="85" y="-1266.5" font-family="Helvetica,sans-Serif" font-size="10.00">height()</text>
<text text-anchor="start" x="72" y="-1251.5" font-family="Helvetica,sans-Serif" font-size="10.00">+</text>
<text text-anchor="start" x="85" y="-1251.5" font-family="Helvetica,sans-Serif" font-size="10.00">rheight()</text>
<text text-anchor="start" x="72" y="-1236.5" font-family="Helvetica,sans-Serif" font-size="10.00">+</text>
<text text-anchor="start" x="85" y="-1236.5" font-family="Helvetica,sans-Serif" font-size="10.00">IsUnique()</text>
<text text-anchor="start" x="72" y="-1221.5" font-family="Helvetica,sans-Serif" font-size="10.00">+</text>
<text text-anchor="start" x="85" y="-1221.5" font-family="Helvetica,sans-Serif" font-size="10.00">AllUniqueNames()</text>
<text text-anchor="start" x="74.5" y="-1206.5" font-family="Helvetica,sans-Serif" font-size="10.00">&#45;</text>
<text text-anchor="start" x="85" y="-1206.5" font-family="Helvetica,sans-Serif" font-size="10.00">AddCurve()</text>
<text text-anchor="start" x="74.5" y="-1191.5" font-family="Helvetica,sans-Serif" font-size="10.00">&#45;</text>
<text text-anchor="start" x="85" y="-1191.5" font-family="Helvetica,sans-Serif" font-size="10.00">qHash()</text>
<text text-anchor="start" x="74.5" y="-1176.5" font-family="Helvetica,sans-Serif" font-size="10.00">&#45;</text>
<text text-anchor="start" x="85" y="-1176.5" font-family="Helvetica,sans-Serif" font-size="10.00">GetObject()</text>
<text text-anchor="start" x="74.5" y="-1161.5" font-family="Helvetica,sans-Serif" font-size="10.00">&#45;</text>
<text text-anchor="start" x="85" y="-1161.5" font-family="Helvetica,sans-Serif" font-size="10.00">UpdateObject()</text>
<text text-anchor="start" x="74.5" y="-1146.5" font-family="Helvetica,sans-Serif" font-size="10.00">&#45;</text>
<text text-anchor="start" x="85" y="-1146.5" font-family="Helvetica,sans-Serif" font-size="10.00">DataVar()</text>
<text text-anchor="start" x="74.5" y="-1131.5" font-family="Helvetica,sans-Serif" font-size="10.00">&#45;</text>
<text text-anchor="start" x="85" y="-1131.5" font-family="Helvetica,sans-Serif" font-size="10.00">AddObject()</text>
<polygon fill="#666666" stroke="#666666" points="68,-1666.5 68,-1666.5 230,-1666.5 230,-1666.5 68,-1666.5"/>
<polygon fill="#666666" stroke="#666666" points="68,-1591.5 68,-1591.5 83,-1591.5 83,-1591.5 68,-1591.5"/>
<polygon fill="#666666" stroke="#666666" points="83,-1591.5 83,-1591.5 230,-1591.5 230,-1591.5 83,-1591.5"/>
<polygon fill="none" stroke="#666666" points="68,-1125 68,-1684 230,-1684 230,-1125 68,-1125"/>
</a>
</g>
</g>
<!-- Node5&#45;&gt;Node3 -->
<g id="edge4_Node000003_Node000005" class="edge">
<title>Node5&#45;&gt;Node3</title>
<g id="a_edge4_Node000003_Node000005"><a xlink:title=" ">
<path fill="none" stroke="#63b8ff" d="M149,-1124.78C149,-1113.47 149,-1102.11 149,-1090.74"/>
<polygon fill="none" stroke="#63b8ff" points="149,-1090.42 145,-1084.42 149,-1078.42 153,-1084.42 149,-1090.42"/>
</a>
</g>
<text text-anchor="middle" x="166" y="-1099" font-family="Helvetica,sans-Serif" font-size="10.00" fill="grey"> #data</text>
</g>
<!-- Node6 -->
<g id="Node000006" class="node">
<title>Node6</title>
<g id="a_Node000006"><a xlink:href="../../dd/da2/classVScaledLine.html" target="_top" xlink:title=" ">
<polygon fill="white" stroke="transparent" points="344.5,-853 235.5,-853 235.5,-714 344.5,-714 344.5,-853"/>
<text text-anchor="start" x="260.5" y="-840.5" font-family="Helvetica,sans-Serif" font-size="10.00">VScaledLine</text>
<text text-anchor="start" x="242.5" y="-825.5" font-family="Helvetica,sans-Serif" font-size="10.00">&#45;</text>
<text text-anchor="start" x="253" y="-825.5" font-family="Helvetica,sans-Serif" font-size="10.00">m_defaultWidth</text>
<text text-anchor="start" x="240" y="-810.5" font-family="Helvetica,sans-Serif" font-size="10.00">+</text>
<text text-anchor="start" x="253" y="-810.5" font-family="Helvetica,sans-Serif" font-size="10.00">VScaledLine()</text>
<text text-anchor="start" x="240" y="-795.5" font-family="Helvetica,sans-Serif" font-size="10.00">+</text>
<text text-anchor="start" x="253" y="-795.5" font-family="Helvetica,sans-Serif" font-size="10.00">VScaledLine()</text>
<text text-anchor="start" x="240" y="-780.5" font-family="Helvetica,sans-Serif" font-size="10.00">+</text>
<text text-anchor="start" x="253" y="-780.5" font-family="Helvetica,sans-Serif" font-size="10.00">~VScaledLine()</text>
<text text-anchor="start" x="240" y="-765.5" font-family="Helvetica,sans-Serif" font-size="10.00">+</text>
<text text-anchor="start" x="253" y="-765.5" font-family="Helvetica,sans-Serif" font-size="10.00">type()</text>
<text text-anchor="start" x="240" y="-750.5" font-family="Helvetica,sans-Serif" font-size="10.00">+</text>
<text text-anchor="start" x="253" y="-750.5" font-family="Helvetica,sans-Serif" font-size="10.00">paint()</text>
<text text-anchor="start" x="240" y="-735.5" font-family="Helvetica,sans-Serif" font-size="10.00">+</text>
<text text-anchor="start" x="253" y="-735.5" font-family="Helvetica,sans-Serif" font-size="10.00">getDefaultWidth()</text>
<text text-anchor="start" x="240" y="-720.5" font-family="Helvetica,sans-Serif" font-size="10.00">+</text>
<text text-anchor="start" x="253" y="-720.5" font-family="Helvetica,sans-Serif" font-size="10.00">setDefaultWidth()</text>
<polygon fill="#666666" stroke="#666666" points="236,-835.5 236,-835.5 345,-835.5 345,-835.5 236,-835.5"/>
<polygon fill="#666666" stroke="#666666" points="236,-820.5 236,-820.5 251,-820.5 251,-820.5 236,-820.5"/>
<polygon fill="#666666" stroke="#666666" points="251,-820.5 251,-820.5 345,-820.5 345,-820.5 251,-820.5"/>
<polygon fill="none" stroke="#666666" points="235.5,-714 235.5,-853 344.5,-853 344.5,-714 235.5,-714"/>
</a>
</g>
</g>
<!-- Node6&#45;&gt;Node1 -->
<g id="edge9_Node000001_Node000006" class="edge">
<title>Node6&#45;&gt;Node1</title>
<g id="a_edge9_Node000001_Node000006"><a xlink:title=" ">
<path fill="none" stroke="#63b8ff" d="M291.59,-713.87C294.41,-592.4 300.29,-338.95 303.6,-196.29"/>
<polygon fill="none" stroke="#63b8ff" points="303.61,-196.1 299.75,-190.01 303.89,-184.1 307.75,-190.2 303.61,-196.1"/>
</a>
</g>
<text text-anchor="middle" x="315.5" y="-350" font-family="Helvetica,sans-Serif" font-size="10.00" fill="grey"> &#45;line</text>
</g>
<!-- Node6&#45;&gt;Node2 -->
<g id="edge5_Node000002_Node000006" class="edge">
<title>Node6&#45;&gt;Node2</title>
<g id="a_edge5_Node000002_Node000006"><a xlink:title=" ">
<path fill="none" stroke="#63b8ff" d="M277.83,-703.38C266.93,-632.57 250.92,-528.47 239.19,-452.23"/>
<polygon fill="none" stroke="#63b8ff" points="274.42,-704.22 279.4,-713.57 281.33,-703.16 274.42,-704.22"/>
</a>
</g>
</g>
<!-- Node7 -->
<g id="Node000007" class="node">
<title>Node7</title>
<g id="a_Node000007"><a xlink:title=" ">
<polygon fill="white" stroke="transparent" points="352,-1429 248,-1429 248,-1380 352,-1380 352,-1429"/>
<text text-anchor="start" x="253" y="-1416.5" font-family="Helvetica,sans-Serif" font-size="10.00">QGraphicsLineItem</text>
<text text-anchor="start" x="298" y="-1401.5" font-family="Helvetica,sans-Serif" font-size="10.00"> </text>
<text text-anchor="start" x="298" y="-1386.5" font-family="Helvetica,sans-Serif" font-size="10.00"> </text>
<polygon fill="#666666" stroke="#666666" points="248,-1411.5 248,-1411.5 352,-1411.5 352,-1411.5 248,-1411.5"/>
<polygon fill="#666666" stroke="#666666" points="248,-1396.5 248,-1396.5 352,-1396.5 352,-1396.5 248,-1396.5"/>
<polygon fill="none" stroke="#666666" points="248,-1380 248,-1429 352,-1429 352,-1380 248,-1380"/>
</a>
</g>
</g>
<!-- Node7&#45;&gt;Node6 -->
<g id="edge6_Node000006_Node000007" class="edge">
<title>Node7&#45;&gt;Node6</title>
<g id="a_edge6_Node000006_Node000007"><a xlink:title=" ">
<path fill="none" stroke="#63b8ff" d="M299.46,-1369.78C297.87,-1271.74 293.25,-985.38 291.11,-853.03"/>
<polygon fill="none" stroke="#63b8ff" points="295.96,-1370.05 299.62,-1379.99 302.96,-1369.94 295.96,-1370.05"/>
</a>
</g>
</g>
<!-- Node8 -->
<g id="Node000008" class="node">
<title>Node8</title>
<g id="a_Node000008"><a xlink:href="../../d8/dbf/classVScaledEllipse.html" target="_top" xlink:title=" ">
<polygon fill="white" stroke="transparent" points="467.5,-399.5 358.5,-399.5 358.5,-305.5 467.5,-305.5 467.5,-399.5"/>
<text text-anchor="start" x="377.5" y="-387.5" font-family="Helvetica,sans-Serif" font-size="10.00">VScaledEllipse</text>
<text text-anchor="start" x="411.5" y="-372.5" font-family="Helvetica,sans-Serif" font-size="10.00"> </text>
<text text-anchor="start" x="363" y="-357.5" font-family="Helvetica,sans-Serif" font-size="10.00">+</text>
<text text-anchor="start" x="376" y="-357.5" font-family="Helvetica,sans-Serif" font-size="10.00">VScaledEllipse()</text>
<text text-anchor="start" x="363" y="-342.5" font-family="Helvetica,sans-Serif" font-size="10.00">+</text>
<text text-anchor="start" x="376" y="-342.5" font-family="Helvetica,sans-Serif" font-size="10.00">~VScaledEllipse()</text>
<text text-anchor="start" x="363" y="-327.5" font-family="Helvetica,sans-Serif" font-size="10.00">+</text>
<text text-anchor="start" x="376" y="-327.5" font-family="Helvetica,sans-Serif" font-size="10.00">type()</text>
<text text-anchor="start" x="363" y="-312.5" font-family="Helvetica,sans-Serif" font-size="10.00">+</text>
<text text-anchor="start" x="376" y="-312.5" font-family="Helvetica,sans-Serif" font-size="10.00">paint()</text>
<polygon fill="#666666" stroke="#666666" points="359,-382.5 359,-382.5 468,-382.5 468,-382.5 359,-382.5"/>
<polygon fill="#666666" stroke="#666666" points="359,-367.5 359,-367.5 468,-367.5 468,-367.5 359,-367.5"/>
<polygon fill="none" stroke="#666666" points="358.5,-305.5 358.5,-399.5 467.5,-399.5 467.5,-305.5 358.5,-305.5"/>
</a>
</g>
</g>
<!-- Node8&#45;&gt;Node1 -->
<g id="edge7_Node000001_Node000008" class="edge">
<title>Node8&#45;&gt;Node1</title>
<g id="a_edge7_Node000001_Node000008"><a xlink:title=" ">
<path fill="none" stroke="#63b8ff" d="M393.87,-305.29C381.21,-274.69 364.08,-233.32 348.32,-195.23"/>
<polygon fill="none" stroke="#63b8ff" points="348.28,-195.15 342.29,-191.14 343.69,-184.06 349.68,-188.08 348.28,-195.15"/>
</a>
</g>
<text text-anchor="middle" x="381.5" y="-227" font-family="Helvetica,sans-Serif" font-size="10.00" fill="grey"> &#45;lineP1</text>
<text text-anchor="middle" x="381.5" y="-216" font-family="Helvetica,sans-Serif" font-size="10.00" fill="grey">&#45;lineP2</text>
<text text-anchor="middle" x="381.5" y="-205" font-family="Helvetica,sans-Serif" font-size="10.00" fill="grey">&#45;point</text>
</g>
<!-- Node9 -->
<g id="Node000009" class="node">
<title>Node9</title>
<g id="a_Node000009"><a xlink:title=" ">
<polygon fill="white" stroke="transparent" points="479,-808 363,-808 363,-759 479,-759 479,-808"/>
<text text-anchor="start" x="368" y="-795.5" font-family="Helvetica,sans-Serif" font-size="10.00">QGraphicsEllipseItem</text>
<text text-anchor="start" x="419" y="-780.5" font-family="Helvetica,sans-Serif" font-size="10.00"> </text>
<text text-anchor="start" x="419" y="-765.5" font-family="Helvetica,sans-Serif" font-size="10.00"> </text>
<polygon fill="#666666" stroke="#666666" points="363,-790.5 363,-790.5 479,-790.5 479,-790.5 363,-790.5"/>
<polygon fill="#666666" stroke="#666666" points="363,-775.5 363,-775.5 479,-775.5 479,-775.5 363,-775.5"/>
<polygon fill="none" stroke="#666666" points="363,-759 363,-808 479,-808 479,-759 363,-759"/>
</a>
</g>
</g>
<!-- Node9&#45;&gt;Node8 -->
<g id="edge8_Node000008_Node000009" class="edge">
<title>Node9&#45;&gt;Node8</title>
<g id="a_edge8_Node000008_Node000009"><a xlink:title=" ">
<path fill="none" stroke="#63b8ff" d="M420.37,-748.81C418.95,-672.51 415.48,-486.41 413.86,-399.55"/>
<polygon fill="none" stroke="#63b8ff" points="416.87,-748.89 420.56,-758.82 423.87,-748.76 416.87,-748.89"/>
</a>
</g>
</g>
</g>
</svg>

<g id="navigator" transform="translate(0 0)" fill="#404254">
  <rect fill="#f2f5e9" fill-opacity="0.5" stroke="#606060" stroke-width=".5" x="0" y="0" width="60" height="60"/>
  <use id="zoomplus" xlink:href="#zoomPlus" x="17" y="9" onmousedown="handleZoom(evt,'in')"/>
  <use id="zoomminus" xlink:href="#zoomMin" x="42" y="9" onmousedown="handleZoom(evt,'out')"/>
  <use id="reset" xlink:href="#resetDef" x="30" y="36" onmousedown="handleReset()"/>
   <use id="arrowup" xlink:href="#arrowUp" x="0" y="0" onmousedown="handlePan(0,-1)"/>
  <use id="arrowright" xlink:href="#arrowRight" x="0" y="0" onmousedown="handlePan(1,0)"/>
  <use id="arrowdown" xlink:href="#arrowDown" x="0" y="0" onmousedown="handlePan(0,1)"/>
  <use id="arrowleft" xlink:href="#arrowLeft" x="0" y="0" onmousedown="handlePan(-1,0)"/>
</g>
<svg viewBox="0 0 15 15" width="100%" height="30px" preserveAspectRatio="xMaxYMin meet">
 <g id="arrow_out" transform="scale(0.3 0.3)">
  <a xlink:href="classVisToolNormal__coll__graph_org.svg" target="_base">
   <rect id="button" ry="5" rx="5" y="6" x="6" height="38" width="38"
        fill="#f2f5e9" fill-opacity="0.5" stroke="#606060" stroke-width="1.0"/>
   <path id="arrow"
     d="M 11.500037,31.436501 C 11.940474,20.09759 22.043105,11.32322 32.158766,21.979434 L 37.068811,17.246167 C 37.068811,17.246167 37.088388,32 37.088388,32 L 22.160133,31.978069 C 22.160133,31.978069 26.997745,27.140456 26.997745,27.140456 C 18.528582,18.264221 13.291696,25.230495 11.500037,31.436501 z"
     style="fill:#404040;"/>
  </a>
 </g>
</svg>

<style type='text/css'>
<![CDATA[
[data-mouse-over-selected='false'] { opacity: 0.7; }
[data-mouse-over-selected='true']  { opacity: 1.0; }
]]>
</style>
<script type="application/ecmascript"><![CDATA[
document.addEventListener('DOMContentLoaded', (event) => {
  highlightEdges();
  highlightAdjacentNodes();
});
]]></script>
</svg>
