<?xml version="1.0" encoding="UTF-8" standalone="no"?>
<!DOCTYPE svg PUBLIC "-//W3C//DTD SVG 1.1//EN"
 "http://www.w3.org/Graphics/SVG/1.1/DTD/svg11.dtd">
<!-- Generated by graphviz version 2.43.0 (0)
 -->
<!-- Title: src/libs/vpatterndb/variables/vincrement.h Pages: 1 -->
<svg width="5889pt" height="374pt"
 viewBox="0.00 0.00 5888.82 374.00" xmlns="http://www.w3.org/2000/svg" xmlns:xlink="http://www.w3.org/1999/xlink">
<g id="graph0" class="graph" transform="scale(1 1) rotate(0) translate(4 370)">
<title>src/libs/vpatterndb/variables/vincrement.h</title>
<polygon fill="white" stroke="transparent" points="-4,4 -4,-370 5884.82,-370 5884.82,4 -4,4"/>
<!-- Node1 -->
<g id="node1" class="node">
<title>Node1</title>
<g id="a_node1"><a xlink:title=" ">
<polygon fill="#bfbfbf" stroke="black" points="4868.5,-335.5 4868.5,-365.5 5000.5,-365.5 5000.5,-335.5 4868.5,-335.5"/>
<text text-anchor="start" x="4876.5" y="-353.5" font-family="Helvetica,sans-Serif" font-size="10.00">src/libs/vpatterndb</text>
<text text-anchor="middle" x="4934.5" y="-342.5" font-family="Helvetica,sans-Serif" font-size="10.00">/variables/vincrement.h</text>
</a>
</g>
</g>
<!-- Node2 -->
<g id="node2" class="node">
<title>Node2</title>
<g id="a_node2"><a xlink:href="../../d6/de6/vincrement_8cpp.html" target="_top" xlink:title=" ">
<polygon fill="white" stroke="black" points="0,-67.5 0,-97.5 143,-97.5 143,-67.5 0,-67.5"/>
<text text-anchor="start" x="8" y="-85.5" font-family="Helvetica,sans-Serif" font-size="10.00">src/libs/vpatterndb</text>
<text text-anchor="middle" x="71.5" y="-74.5" font-family="Helvetica,sans-Serif" font-size="10.00">/variables/vincrement.cpp</text>
</a>
</g>
</g>
<!-- Node1&#45;&gt;Node2 -->
<g id="edge1" class="edge">
<title>Node1&#45;&gt;Node2</title>
<path fill="none" stroke="midnightblue" d="M4857.76,-348.27C4338.83,-339.68 1336.54,-285.38 430.5,-165 318.04,-150.06 188.94,-116.66 120.34,-97.58"/>
<polygon fill="midnightblue" stroke="midnightblue" points="4858.07,-351.78 4868.12,-348.44 4858.18,-344.78 4858.07,-351.78"/>
</g>
<!-- Node3 -->
<g id="node3" class="node">
<title>Node3</title>
<g id="a_node3"><a xlink:href="../../de/dca/variables_8h.html" target="_top" xlink:title=" ">
<polygon fill="white" stroke="black" points="4881,-268.5 4881,-298.5 4988,-298.5 4988,-268.5 4881,-268.5"/>
<text text-anchor="start" x="4889" y="-286.5" font-family="Helvetica,sans-Serif" font-size="10.00">src/libs/vpatterndb</text>
<text text-anchor="middle" x="4934.5" y="-275.5" font-family="Helvetica,sans-Serif" font-size="10.00">/variables.h</text>
</a>
</g>
</g>
<!-- Node1&#45;&gt;Node3 -->
<g id="edge2" class="edge">
<title>Node1&#45;&gt;Node3</title>
<path fill="none" stroke="midnightblue" d="M4934.5,-325.11C4934.5,-316.15 4934.5,-306.32 4934.5,-298.58"/>
<polygon fill="midnightblue" stroke="midnightblue" points="4931,-325.4 4934.5,-335.4 4938,-325.4 4931,-325.4"/>
</g>
<!-- Node36 -->
<g id="node31" class="node">
<title>Node36</title>
<g id="a_node31"><a xlink:href="../../d6/d46/vcontainer_8cpp.html" target="_top" xlink:title=" ">
<polygon fill="white" stroke="black" points="5751,-67.5 5751,-97.5 5858,-97.5 5858,-67.5 5751,-67.5"/>
<text text-anchor="start" x="5759" y="-85.5" font-family="Helvetica,sans-Serif" font-size="10.00">src/libs/vpatterndb</text>
<text text-anchor="middle" x="5804.5" y="-74.5" font-family="Helvetica,sans-Serif" font-size="10.00">/vcontainer.cpp</text>
</a>
</g>
</g>
<!-- Node1&#45;&gt;Node36 -->
<g id="edge61" class="edge">
<title>Node1&#45;&gt;Node36</title>
<path fill="none" stroke="midnightblue" d="M5010.62,-343.27C5198.19,-326.36 5675.36,-273.44 5785.5,-165 5803.51,-147.26 5805.82,-115.99 5805.45,-97.77"/>
<polygon fill="midnightblue" stroke="midnightblue" points="5010.22,-339.79 5000.57,-344.16 5010.84,-346.76 5010.22,-339.79"/>
</g>
<!-- Node4 -->
<g id="node4" class="node">
<title>Node4</title>
<g id="a_node4"><a xlink:href="../../d3/df7/vcontainer_8h.html" target="_top" xlink:title=" ">
<polygon fill="white" stroke="black" points="4881,-201.5 4881,-231.5 4988,-231.5 4988,-201.5 4881,-201.5"/>
<text text-anchor="start" x="4889" y="-219.5" font-family="Helvetica,sans-Serif" font-size="10.00">src/libs/vpatterndb</text>
<text text-anchor="middle" x="4934.5" y="-208.5" font-family="Helvetica,sans-Serif" font-size="10.00">/vcontainer.h</text>
</a>
</g>
</g>
<!-- Node3&#45;&gt;Node4 -->
<g id="edge3" class="edge">
<title>Node3&#45;&gt;Node4</title>
<path fill="none" stroke="midnightblue" d="M4934.5,-258.11C4934.5,-249.15 4934.5,-239.32 4934.5,-231.58"/>
<polygon fill="midnightblue" stroke="midnightblue" points="4931,-258.4 4934.5,-268.4 4938,-258.4 4931,-258.4"/>
</g>
<!-- Node5 -->
<g id="node5" class="node">
<title>Node5</title>
<g id="a_node5"><a xlink:href="../../d4/dd6/vmeasurements_8h.html" target="_top" xlink:title=" ">
<polygon fill="white" stroke="black" points="752,-140 752,-159 937,-159 937,-140 752,-140"/>
<text text-anchor="middle" x="844.5" y="-147" font-family="Helvetica,sans-Serif" font-size="10.00">src/libs/vformat/vmeasurements.h</text>
</a>
</g>
</g>
<!-- Node4&#45;&gt;Node5 -->
<g id="edge4" class="edge">
<title>Node4&#45;&gt;Node5</title>
<path fill="none" stroke="midnightblue" d="M4870.96,-215.26C4429.95,-213.54 1819.05,-201.87 1025.5,-165 996.37,-163.65 964.66,-161.38 936.04,-159.03"/>
<polygon fill="midnightblue" stroke="midnightblue" points="4870.96,-218.76 4880.98,-215.3 4870.99,-211.76 4870.96,-218.76"/>
</g>
<!-- Node6 -->
<g id="node6" class="node">
<title>Node6</title>
<g id="a_node6"><a xlink:href="../../de/db3/vmeasurements_8cpp.html" target="_top" xlink:title=" ">
<polygon fill="white" stroke="black" points="161.5,-73 161.5,-92 357.5,-92 357.5,-73 161.5,-73"/>
<text text-anchor="middle" x="259.5" y="-80" font-family="Helvetica,sans-Serif" font-size="10.00">src/libs/vformat/vmeasurements.cpp</text>
</a>
</g>
</g>
<!-- Node4&#45;&gt;Node6 -->
<g id="edge6" class="edge">
<title>Node4&#45;&gt;Node6</title>
<path fill="none" stroke="midnightblue" d="M4870.36,-215.39C4399.62,-214.48 1486.06,-207.17 1096.5,-165 1028.39,-157.63 1013.41,-143.04 945.5,-134 689.92,-99.99 623.08,-123.33 366.5,-98 350.27,-96.4 332.71,-94.21 316.61,-92.02"/>
<polygon fill="midnightblue" stroke="midnightblue" points="4870.69,-218.89 4880.7,-215.41 4870.71,-211.89 4870.69,-218.89"/>
</g>
<!-- Node7 -->
<g id="node7" class="node">
<title>Node7</title>
<g id="a_node7"><a xlink:href="../../d6/de0/vlayoutpiece_8h.html" target="_top" xlink:title=" ">
<polygon fill="white" stroke="black" points="1105.5,-140 1105.5,-159 1271.5,-159 1271.5,-140 1105.5,-140"/>
<text text-anchor="middle" x="1188.5" y="-147" font-family="Helvetica,sans-Serif" font-size="10.00">src/libs/vlayout/vlayoutpiece.h</text>
</a>
</g>
</g>
<!-- Node4&#45;&gt;Node7 -->
<g id="edge7" class="edge">
<title>Node4&#45;&gt;Node7</title>
<path fill="none" stroke="midnightblue" d="M4870.7,-214.39C4424.72,-206.65 1776.72,-160.71 1271.69,-151.94"/>
<polygon fill="midnightblue" stroke="midnightblue" points="4870.77,-217.89 4880.83,-214.57 4870.89,-210.9 4870.77,-217.89"/>
</g>
<!-- Node17 -->
<g id="node16" class="node">
<title>Node17</title>
<g id="a_node16"><a xlink:href="../../d8/d70/vtextmanager_8cpp.html" target="_top" xlink:title=" ">
<polygon fill="white" stroke="black" points="1696.5,-73 1696.5,-92 1878.5,-92 1878.5,-73 1696.5,-73"/>
<text text-anchor="middle" x="1787.5" y="-80" font-family="Helvetica,sans-Serif" font-size="10.00">src/libs/vlayout/vtextmanager.cpp</text>
</a>
</g>
</g>
<!-- Node4&#45;&gt;Node17 -->
<g id="edge18" class="edge">
<title>Node4&#45;&gt;Node17</title>
<path fill="none" stroke="midnightblue" d="M4870.74,-213.27C4673.73,-206.36 4057.22,-184.6 3546.5,-165 2809.11,-136.7 2622.3,-165.93 1887.5,-98 1871.69,-96.54 1854.56,-94.3 1839.02,-92.01"/>
<polygon fill="midnightblue" stroke="midnightblue" points="4870.79,-216.77 4880.91,-213.63 4871.04,-209.78 4870.79,-216.77"/>
</g>
<!-- Node18 -->
<g id="node17" class="node">
<title>Node18</title>
<g id="a_node17"><a xlink:href="../../d5/d74/vabstractapplication_8h.html" target="_top" xlink:title=" ">
<polygon fill="white" stroke="red" points="3556,-140 3556,-159 3751,-159 3751,-140 3556,-140"/>
<text text-anchor="middle" x="3653.5" y="-147" font-family="Helvetica,sans-Serif" font-size="10.00">src/libs/vmisc/vabstractapplication.h</text>
</a>
</g>
</g>
<!-- Node4&#45;&gt;Node18 -->
<g id="edge19" class="edge">
<title>Node4&#45;&gt;Node18</title>
<path fill="none" stroke="midnightblue" d="M4870.52,-212.25C4662.16,-201.68 4002.12,-168.19 3751.4,-155.47"/>
<polygon fill="midnightblue" stroke="midnightblue" points="4870.52,-215.76 4880.68,-212.77 4870.87,-208.77 4870.52,-215.76"/>
</g>
<!-- Node4&#45;&gt;Node36 -->
<g id="edge53" class="edge">
<title>Node4&#45;&gt;Node36</title>
<path fill="none" stroke="midnightblue" d="M4945.16,-192.08C4955.35,-172.75 4972.68,-146.54 4996.5,-134 5069.84,-95.41 5659.41,-109.34 5741.5,-98 5744.5,-97.59 5747.57,-97.1 5750.66,-96.55"/>
<polygon fill="midnightblue" stroke="midnightblue" points="4941.95,-190.68 4940.61,-201.19 4948.21,-193.81 4941.95,-190.68"/>
</g>
<!-- Node37 -->
<g id="node32" class="node">
<title>Node37</title>
<g id="a_node32"><a xlink:href="../../db/d11/vformula_8cpp.html" target="_top" xlink:title=" ">
<polygon fill="white" stroke="black" points="5501,-67.5 5501,-97.5 5608,-97.5 5608,-67.5 5501,-67.5"/>
<text text-anchor="start" x="5509" y="-85.5" font-family="Helvetica,sans-Serif" font-size="10.00">src/libs/vpatterndb</text>
<text text-anchor="middle" x="5554.5" y="-74.5" font-family="Helvetica,sans-Serif" font-size="10.00">/vformula.cpp</text>
</a>
</g>
</g>
<!-- Node4&#45;&gt;Node37 -->
<g id="edge54" class="edge">
<title>Node4&#45;&gt;Node37</title>
<path fill="none" stroke="midnightblue" d="M4921.16,-192.05C4912.8,-173.91 4906.07,-149.37 4920.5,-134 4964.01,-87.66 5428.59,-107.16 5491.5,-98 5494.61,-97.55 5497.79,-97.02 5501,-96.44"/>
<polygon fill="midnightblue" stroke="midnightblue" points="4918.23,-194.02 4925.85,-201.38 4924.48,-190.87 4918.23,-194.02"/>
</g>
<!-- Node38 -->
<g id="node33" class="node">
<title>Node38</title>
<g id="a_node33"><a xlink:href="../../df/d7a/vpiece_8cpp.html" target="_top" xlink:title=" ">
<polygon fill="white" stroke="black" points="5626,-67.5 5626,-97.5 5733,-97.5 5733,-67.5 5626,-67.5"/>
<text text-anchor="start" x="5634" y="-85.5" font-family="Helvetica,sans-Serif" font-size="10.00">src/libs/vpatterndb</text>
<text text-anchor="middle" x="5679.5" y="-74.5" font-family="Helvetica,sans-Serif" font-size="10.00">/vpiece.cpp</text>
</a>
</g>
</g>
<!-- Node4&#45;&gt;Node38 -->
<g id="edge56" class="edge">
<title>Node4&#45;&gt;Node38</title>
<path fill="none" stroke="midnightblue" d="M4934.6,-191.12C4936.1,-172.37 4941.48,-147.47 4958.5,-134 5015.91,-88.56 5544,-108.25 5616.5,-98 5619.5,-97.58 5622.57,-97.08 5625.66,-96.53"/>
<polygon fill="midnightblue" stroke="midnightblue" points="4931.09,-191.16 4934.1,-201.32 4938.08,-191.5 4931.09,-191.16"/>
</g>
<!-- Node40 -->
<g id="node35" class="node">
<title>Node40</title>
<g id="a_node35"><a xlink:href="../../d8/dba/vpiecenode_8cpp.html" target="_top" xlink:title=" ">
<polygon fill="white" stroke="black" points="4779,-0.5 4779,-30.5 4886,-30.5 4886,-0.5 4779,-0.5"/>
<text text-anchor="start" x="4787" y="-18.5" font-family="Helvetica,sans-Serif" font-size="10.00">src/libs/vpatterndb</text>
<text text-anchor="middle" x="4832.5" y="-7.5" font-family="Helvetica,sans-Serif" font-size="10.00">/vpiecenode.cpp</text>
</a>
</g>
</g>
<!-- Node4&#45;&gt;Node40 -->
<g id="edge57" class="edge">
<title>Node4&#45;&gt;Node40</title>
<path fill="none" stroke="midnightblue" d="M4959.27,-194.89C4970.13,-185.79 4983,-174.93 4994.5,-165 5010.23,-151.42 5010.23,-141.78 5029.5,-134 5202.51,-64.11 5995.18,-202.12 5866.5,-67 5832.41,-31.21 5093.28,-19.64 4886.07,-17.09"/>
<polygon fill="midnightblue" stroke="midnightblue" points="4956.83,-192.36 4951.41,-201.46 4961.32,-197.74 4956.83,-192.36"/>
</g>
<!-- Node56 -->
<g id="node45" class="node">
<title>Node56</title>
<g id="a_node45"><a xlink:href="../../d1/de1/vincrement__p_8h.html" target="_top" xlink:title=" ">
<polygon fill="white" stroke="black" points="440,-134.5 440,-164.5 583,-164.5 583,-134.5 440,-134.5"/>
<text text-anchor="start" x="448" y="-152.5" font-family="Helvetica,sans-Serif" font-size="10.00">src/libs/vpatterndb</text>
<text text-anchor="middle" x="511.5" y="-141.5" font-family="Helvetica,sans-Serif" font-size="10.00">/variables/vincrement_p.h</text>
</a>
</g>
</g>
<!-- Node4&#45;&gt;Node56 -->
<g id="edge50" class="edge">
<title>Node4&#45;&gt;Node56</title>
<path fill="none" stroke="midnightblue" d="M4870.78,-215.18C4411.19,-212.77 1596.5,-196.93 742.5,-165 689.09,-163 628.83,-159.17 583.25,-155.94"/>
<polygon fill="midnightblue" stroke="midnightblue" points="4870.87,-218.68 4880.89,-215.23 4870.9,-211.68 4870.87,-218.68"/>
</g>
<!-- Node57 -->
<g id="node46" class="node">
<title>Node57</title>
<g id="a_node46"><a xlink:href="../../d6/dc1/vmeasurement__p_8h.html" target="_top" xlink:title=" ">
<polygon fill="white" stroke="red" points="5038.5,-134.5 5038.5,-164.5 5200.5,-164.5 5200.5,-134.5 5038.5,-134.5"/>
<text text-anchor="start" x="5046.5" y="-152.5" font-family="Helvetica,sans-Serif" font-size="10.00">src/libs/vpatterndb</text>
<text text-anchor="middle" x="5119.5" y="-141.5" font-family="Helvetica,sans-Serif" font-size="10.00">/variables/vmeasurement_p.h</text>
</a>
</g>
</g>
<!-- Node4&#45;&gt;Node57 -->
<g id="edge52" class="edge">
<title>Node4&#45;&gt;Node57</title>
<path fill="none" stroke="midnightblue" d="M4984.44,-197.96C5014.24,-187.48 5051.57,-174.37 5079.44,-164.58"/>
<polygon fill="midnightblue" stroke="midnightblue" points="4982.92,-194.78 4974.64,-201.4 4985.24,-201.38 4982.92,-194.78"/>
</g>
<!-- Node59 -->
<g id="node47" class="node">
<title>Node59</title>
<g id="a_node47"><a xlink:href="../../d6/d91/vnodedetail_8cpp.html" target="_top" xlink:title=" ">
<polygon fill="white" stroke="black" points="5219,-134.5 5219,-164.5 5326,-164.5 5326,-134.5 5219,-134.5"/>
<text text-anchor="start" x="5227" y="-152.5" font-family="Helvetica,sans-Serif" font-size="10.00">src/libs/vpatterndb</text>
<text text-anchor="middle" x="5272.5" y="-141.5" font-family="Helvetica,sans-Serif" font-size="10.00">/vnodedetail.cpp</text>
</a>
</g>
</g>
<!-- Node4&#45;&gt;Node59 -->
<g id="edge55" class="edge">
<title>Node4&#45;&gt;Node59</title>
<path fill="none" stroke="midnightblue" d="M4998.23,-204.63C5054.06,-194.9 5137.34,-179.92 5209.5,-165 5212.58,-164.36 5215.74,-163.69 5218.92,-163"/>
<polygon fill="midnightblue" stroke="midnightblue" points="4997.38,-201.22 4988.13,-206.38 4998.58,-208.12 4997.38,-201.22"/>
</g>
<!-- Node60 -->
<g id="node48" class="node">
<title>Node60</title>
<g id="a_node48"><a xlink:href="../../da/de1/vpiecepath_8cpp.html" target="_top" xlink:title=" ">
<polygon fill="white" stroke="black" points="5344,-134.5 5344,-164.5 5451,-164.5 5451,-134.5 5344,-134.5"/>
<text text-anchor="start" x="5352" y="-152.5" font-family="Helvetica,sans-Serif" font-size="10.00">src/libs/vpatterndb</text>
<text text-anchor="middle" x="5397.5" y="-141.5" font-family="Helvetica,sans-Serif" font-size="10.00">/vpiecepath.cpp</text>
</a>
</g>
</g>
<!-- Node4&#45;&gt;Node60 -->
<g id="edge58" class="edge">
<title>Node4&#45;&gt;Node60</title>
<path fill="none" stroke="midnightblue" d="M4998.44,-209.43C5077.66,-201.45 5216.61,-185.95 5334.5,-165 5337.59,-164.45 5340.76,-163.85 5343.96,-163.21"/>
<polygon fill="midnightblue" stroke="midnightblue" points="4997.74,-205.98 4988.14,-210.46 4998.43,-212.95 4997.74,-205.98"/>
</g>
<!-- Node61 -->
<g id="node49" class="node">
<title>Node61</title>
<g id="a_node49"><a xlink:href="../../d1/d3a/abstracttest_8cpp.html" target="_top" xlink:title=" ">
<polygon fill="white" stroke="black" points="5469,-140 5469,-159 5630,-159 5630,-140 5469,-140"/>
<text text-anchor="middle" x="5549.5" y="-147" font-family="Helvetica,sans-Serif" font-size="10.00">src/libs/vtest/abstracttest.cpp</text>
</a>
</g>
</g>
<!-- Node4&#45;&gt;Node61 -->
<g id="edge59" class="edge">
<title>Node4&#45;&gt;Node61</title>
<path fill="none" stroke="midnightblue" d="M4998.43,-210.67C5097.43,-202.9 5293.72,-186.31 5459.5,-165 5472.69,-163.31 5486.91,-161.16 5500.07,-159.05"/>
<polygon fill="midnightblue" stroke="midnightblue" points="4997.98,-207.2 4988.29,-211.47 4998.53,-214.18 4997.98,-207.2"/>
</g>
<!-- Node62 -->
<g id="node50" class="node">
<title>Node62</title>
<g id="a_node50"><a xlink:href="../../da/db4/piece__tablewidgetitem_8cpp.html" target="_top" xlink:title=" ">
<polygon fill="white" stroke="black" points="5648.5,-134.5 5648.5,-164.5 5776.5,-164.5 5776.5,-134.5 5648.5,-134.5"/>
<text text-anchor="start" x="5656.5" y="-152.5" font-family="Helvetica,sans-Serif" font-size="10.00">src/libs/vwidgets/piece</text>
<text text-anchor="middle" x="5712.5" y="-141.5" font-family="Helvetica,sans-Serif" font-size="10.00">_tablewidgetitem.cpp</text>
</a>
</g>
</g>
<!-- Node4&#45;&gt;Node62 -->
<g id="edge60" class="edge">
<title>Node4&#45;&gt;Node62</title>
<path fill="none" stroke="midnightblue" d="M4998.22,-213.53C5122.07,-209.13 5403.7,-196.31 5638.5,-165 5641.74,-164.57 5645.06,-164.08 5648.4,-163.56"/>
<polygon fill="midnightblue" stroke="midnightblue" points="4998.03,-210.04 4988.16,-213.88 4998.27,-217.03 4998.03,-210.04"/>
</g>
<!-- Node5&#45;&gt;Node6 -->
<g id="edge5" class="edge">
<title>Node5&#45;&gt;Node6</title>
<path fill="none" stroke="midnightblue" d="M746.26,-138.97C649.56,-129.4 497.73,-113.82 366.5,-98 351.42,-96.18 335.18,-94.06 320.01,-92.02"/>
<polygon fill="midnightblue" stroke="midnightblue" points="746.02,-142.47 756.31,-139.97 746.71,-135.5 746.02,-142.47"/>
</g>
<!-- Node8 -->
<g id="node8" class="node">
<title>Node8</title>
<g id="a_node8"><a xlink:href="../../dd/d66/vdxfengine_8cpp.html" target="_top" xlink:title=" ">
<polygon fill="white" stroke="black" points="375.5,-73 375.5,-92 529.5,-92 529.5,-73 375.5,-73"/>
<text text-anchor="middle" x="452.5" y="-80" font-family="Helvetica,sans-Serif" font-size="10.00">src/libs/vdxf/vdxfengine.cpp</text>
</a>
</g>
</g>
<!-- Node7&#45;&gt;Node8 -->
<g id="edge8" class="edge">
<title>Node7&#45;&gt;Node8</title>
<path fill="none" stroke="midnightblue" d="M1103.68,-138.9C1087.05,-137.16 1069.74,-135.44 1053.5,-134 824.95,-113.74 766.34,-125.11 538.5,-98 525.27,-96.43 510.97,-94.22 497.91,-92"/>
<polygon fill="midnightblue" stroke="midnightblue" points="1103.61,-142.41 1113.92,-139.99 1104.35,-135.45 1103.61,-142.41"/>
</g>
<!-- Node9 -->
<g id="node9" class="node">
<title>Node9</title>
<g id="a_node9"><a xlink:href="../../de/da8/vbank_8cpp.html" target="_top" xlink:title=" ">
<polygon fill="white" stroke="black" points="547.5,-73 547.5,-92 691.5,-92 691.5,-73 547.5,-73"/>
<text text-anchor="middle" x="619.5" y="-80" font-family="Helvetica,sans-Serif" font-size="10.00">src/libs/vlayout/vbank.cpp</text>
</a>
</g>
</g>
<!-- Node7&#45;&gt;Node9 -->
<g id="edge9" class="edge">
<title>Node7&#45;&gt;Node9</title>
<path fill="none" stroke="midnightblue" d="M1099.9,-138.92C1084.44,-137.26 1068.5,-135.57 1053.5,-134 896.65,-117.58 856.67,-119.91 700.5,-98 688.47,-96.31 675.51,-94.15 663.54,-92.01"/>
<polygon fill="midnightblue" stroke="midnightblue" points="1099.67,-142.41 1109.98,-139.99 1100.41,-135.45 1099.67,-142.41"/>
</g>
<!-- Node10 -->
<g id="node10" class="node">
<title>Node10</title>
<g id="a_node10"><a xlink:href="../../df/d5d/vcontour_8cpp.html" target="_top" xlink:title=" ">
<polygon fill="white" stroke="black" points="709.5,-73 709.5,-92 865.5,-92 865.5,-73 709.5,-73"/>
<text text-anchor="middle" x="787.5" y="-80" font-family="Helvetica,sans-Serif" font-size="10.00">src/libs/vlayout/vcontour.cpp</text>
</a>
</g>
</g>
<!-- Node7&#45;&gt;Node10 -->
<g id="edge10" class="edge">
<title>Node7&#45;&gt;Node10</title>
<path fill="none" stroke="midnightblue" d="M1124.62,-138.34C1061.16,-128.21 961.08,-112.18 874.5,-98 862.86,-96.09 850.36,-94.02 838.56,-92.06"/>
<polygon fill="midnightblue" stroke="midnightblue" points="1124.44,-141.85 1134.87,-139.97 1125.55,-134.94 1124.44,-141.85"/>
</g>
<!-- Node11 -->
<g id="node11" class="node">
<title>Node11</title>
<g id="a_node11"><a xlink:href="../../d3/d39/vlayoutgenerator_8cpp.html" target="_top" xlink:title=" ">
<polygon fill="white" stroke="black" points="884,-73 884,-92 1081,-92 1081,-73 884,-73"/>
<text text-anchor="middle" x="982.5" y="-80" font-family="Helvetica,sans-Serif" font-size="10.00">src/libs/vlayout/vlayoutgenerator.cpp</text>
</a>
</g>
</g>
<!-- Node7&#45;&gt;Node11 -->
<g id="edge11" class="edge">
<title>Node7&#45;&gt;Node11</title>
<path fill="none" stroke="midnightblue" d="M1151.57,-136.85C1110.77,-123.97 1046.03,-103.55 1009.64,-92.06"/>
<polygon fill="midnightblue" stroke="midnightblue" points="1150.56,-140.2 1161.14,-139.87 1152.66,-133.52 1150.56,-140.2"/>
</g>
<!-- Node12 -->
<g id="node12" class="node">
<title>Node12</title>
<g id="a_node12"><a xlink:href="../../d2/d2d/vlayoutpaper__p_8h.html" target="_top" xlink:title=" ">
<polygon fill="white" stroke="black" points="1099,-73 1099,-92 1278,-92 1278,-73 1099,-73"/>
<text text-anchor="middle" x="1188.5" y="-80" font-family="Helvetica,sans-Serif" font-size="10.00">src/libs/vlayout/vlayoutpaper_p.h</text>
</a>
</g>
</g>
<!-- Node7&#45;&gt;Node12 -->
<g id="edge12" class="edge">
<title>Node7&#45;&gt;Node12</title>
<path fill="none" stroke="midnightblue" d="M1188.5,-129.54C1188.5,-117.17 1188.5,-101.62 1188.5,-92.13"/>
<polygon fill="midnightblue" stroke="midnightblue" points="1185,-129.73 1188.5,-139.73 1192,-129.73 1185,-129.73"/>
</g>
<!-- Node13 -->
<g id="node13" class="node">
<title>Node13</title>
<g id="a_node13"><a xlink:href="../../d1/dd1/vlayoutpaper_8cpp.html" target="_top" xlink:title=" ">
<polygon fill="white" stroke="black" points="1217.5,-6 1217.5,-25 1395.5,-25 1395.5,-6 1217.5,-6"/>
<text text-anchor="middle" x="1306.5" y="-13" font-family="Helvetica,sans-Serif" font-size="10.00">src/libs/vlayout/vlayoutpaper.cpp</text>
</a>
</g>
</g>
<!-- Node7&#45;&gt;Node13 -->
<g id="edge14" class="edge">
<title>Node7&#45;&gt;Node13</title>
<path fill="none" stroke="midnightblue" d="M1229.47,-136.39C1249.42,-128.5 1272.14,-116.21 1286.5,-98 1303.82,-76.04 1306.41,-41.17 1306.62,-25.12"/>
<polygon fill="midnightblue" stroke="midnightblue" points="1228.11,-133.16 1219.94,-139.91 1230.54,-139.72 1228.11,-133.16"/>
</g>
<!-- Node14 -->
<g id="node14" class="node">
<title>Node14</title>
<g id="a_node14"><a xlink:href="../../dd/d70/vlayoutpiece_8cpp.html" target="_top" xlink:title=" ">
<polygon fill="white" stroke="black" points="1501,-73 1501,-92 1678,-92 1678,-73 1501,-73"/>
<text text-anchor="middle" x="1589.5" y="-80" font-family="Helvetica,sans-Serif" font-size="10.00">src/libs/vlayout/vlayoutpiece.cpp</text>
</a>
</g>
</g>
<!-- Node7&#45;&gt;Node14 -->
<g id="edge15" class="edge">
<title>Node7&#45;&gt;Node14</title>
<path fill="none" stroke="midnightblue" d="M1251.6,-138.27C1330.29,-125.52 1463.4,-103.94 1536.87,-92.03"/>
<polygon fill="midnightblue" stroke="midnightblue" points="1250.65,-134.88 1241.34,-139.94 1251.77,-141.79 1250.65,-134.88"/>
</g>
<!-- Node15 -->
<g id="node15" class="node">
<title>Node15</title>
<g id="a_node15"><a xlink:href="../../db/d5c/vposition_8h.html" target="_top" xlink:title=" ">
<polygon fill="white" stroke="red" points="1334.5,-73 1334.5,-92 1482.5,-92 1482.5,-73 1334.5,-73"/>
<text text-anchor="middle" x="1408.5" y="-80" font-family="Helvetica,sans-Serif" font-size="10.00">src/libs/vlayout/vposition.h</text>
</a>
</g>
</g>
<!-- Node7&#45;&gt;Node15 -->
<g id="edge16" class="edge">
<title>Node7&#45;&gt;Node15</title>
<path fill="none" stroke="midnightblue" d="M1227.39,-137.01C1270.93,-124.15 1340.49,-103.59 1379.52,-92.06"/>
<polygon fill="midnightblue" stroke="midnightblue" points="1226.31,-133.68 1217.71,-139.87 1228.3,-140.39 1226.31,-133.68"/>
</g>
<!-- Node12&#45;&gt;Node13 -->
<g id="edge13" class="edge">
<title>Node12&#45;&gt;Node13</title>
<path fill="none" stroke="midnightblue" d="M1213.39,-67.79C1236.78,-54.9 1271.06,-36.02 1290.84,-25.13"/>
<polygon fill="midnightblue" stroke="midnightblue" points="1211.48,-64.84 1204.41,-72.73 1214.86,-70.97 1211.48,-64.84"/>
</g>
<!-- Node15&#45;&gt;Node13 -->
<g id="edge17" class="edge">
<title>Node15&#45;&gt;Node13</title>
<path fill="none" stroke="midnightblue" d="M1386.17,-67.27C1365.98,-54.4 1336.91,-35.88 1320.04,-25.13"/>
<polygon fill="midnightblue" stroke="midnightblue" points="1384.43,-70.31 1394.74,-72.73 1388.19,-64.41 1384.43,-70.31"/>
</g>
<!-- Node18&#45;&gt;Node14 -->
<g id="edge30" class="edge">
<title>Node18&#45;&gt;Node14</title>
<path fill="none" stroke="midnightblue" d="M3545.87,-147.46C3189.97,-143.73 2052.96,-129.61 1687.5,-98 1671.65,-96.63 1654.46,-94.36 1638.97,-92.01"/>
<polygon fill="midnightblue" stroke="midnightblue" points="3545.88,-150.96 3555.92,-147.56 3545.95,-143.96 3545.88,-150.96"/>
</g>
<!-- Node18&#45;&gt;Node17 -->
<g id="edge31" class="edge">
<title>Node18&#45;&gt;Node17</title>
<path fill="none" stroke="midnightblue" d="M3545.92,-147.05C3214.54,-142.34 2212.16,-126.09 1887.5,-98 1871.42,-96.61 1853.98,-94.35 1838.24,-92.02"/>
<polygon fill="midnightblue" stroke="midnightblue" points="3545.95,-150.55 3556,-147.2 3546.05,-143.55 3545.95,-150.55"/>
</g>
<!-- Node19 -->
<g id="node18" class="node">
<title>Node19</title>
<g id="a_node18"><a xlink:href="../../d4/d90/fvupdater_8cpp.html" target="_top" xlink:title=" ">
<polygon fill="white" stroke="black" points="1897,-73 1897,-92 2050,-92 2050,-73 1897,-73"/>
<text text-anchor="middle" x="1973.5" y="-80" font-family="Helvetica,sans-Serif" font-size="10.00">src/libs/fervor/fvupdater.cpp</text>
</a>
</g>
</g>
<!-- Node18&#45;&gt;Node19 -->
<g id="edge20" class="edge">
<title>Node18&#45;&gt;Node19</title>
<path fill="none" stroke="midnightblue" d="M3545.5,-147.02C3235.73,-142.45 2347.92,-127.13 2058.5,-98 2044.8,-96.62 2029.96,-94.36 2016.59,-92.03"/>
<polygon fill="midnightblue" stroke="midnightblue" points="3545.78,-150.52 3555.83,-147.17 3545.88,-143.52 3545.78,-150.52"/>
</g>
<!-- Node20 -->
<g id="node19" class="node">
<title>Node20</title>
<g id="a_node19"><a xlink:href="../../d9/dc8/dxiface_8cpp.html" target="_top" xlink:title=" ">
<polygon fill="white" stroke="black" points="2068,-73 2068,-92 2203,-92 2203,-73 2068,-73"/>
<text text-anchor="middle" x="2135.5" y="-80" font-family="Helvetica,sans-Serif" font-size="10.00">src/libs/vdxf/dxiface.cpp</text>
</a>
</g>
</g>
<!-- Node18&#45;&gt;Node20 -->
<g id="edge21" class="edge">
<title>Node18&#45;&gt;Node20</title>
<path fill="none" stroke="midnightblue" d="M3545.81,-146.87C3257.03,-142.17 2469.82,-126.99 2211.5,-98 2199.22,-96.62 2185.95,-94.36 2173.99,-92.03"/>
<polygon fill="midnightblue" stroke="midnightblue" points="3545.82,-150.37 3555.87,-147.04 3545.93,-143.37 3545.82,-150.37"/>
</g>
<!-- Node21 -->
<g id="node20" class="node">
<title>Node21</title>
<g id="a_node20"><a xlink:href="../../da/d75/vabstractarc__p_8h.html" target="_top" xlink:title=" ">
<polygon fill="white" stroke="red" points="2221,-67.5 2221,-97.5 2328,-97.5 2328,-67.5 2221,-67.5"/>
<text text-anchor="start" x="2229" y="-85.5" font-family="Helvetica,sans-Serif" font-size="10.00">src/libs/vgeometry</text>
<text text-anchor="middle" x="2274.5" y="-74.5" font-family="Helvetica,sans-Serif" font-size="10.00">/vabstractarc_p.h</text>
</a>
</g>
</g>
<!-- Node18&#45;&gt;Node21 -->
<g id="edge22" class="edge">
<title>Node18&#45;&gt;Node21</title>
<path fill="none" stroke="midnightblue" d="M3545.64,-147.02C3274.41,-142.89 2569.06,-129.36 2336.5,-98 2333.76,-97.63 2330.97,-97.2 2328.15,-96.71"/>
<polygon fill="midnightblue" stroke="midnightblue" points="3545.83,-150.53 3555.88,-147.18 3545.94,-143.53 3545.83,-150.53"/>
</g>
<!-- Node23 -->
<g id="node21" class="node">
<title>Node23</title>
<g id="a_node21"><a xlink:href="../../dc/da3/varc__p_8h.html" target="_top" xlink:title=" ">
<polygon fill="white" stroke="red" points="2346,-67.5 2346,-97.5 2453,-97.5 2453,-67.5 2346,-67.5"/>
<text text-anchor="start" x="2354" y="-85.5" font-family="Helvetica,sans-Serif" font-size="10.00">src/libs/vgeometry</text>
<text text-anchor="middle" x="2399.5" y="-74.5" font-family="Helvetica,sans-Serif" font-size="10.00">/varc_p.h</text>
</a>
</g>
</g>
<!-- Node18&#45;&gt;Node23 -->
<g id="edge23" class="edge">
<title>Node18&#45;&gt;Node23</title>
<path fill="none" stroke="midnightblue" d="M3545.63,-146.52C3293.08,-141.46 2669.1,-126.42 2461.5,-98 2458.76,-97.63 2455.97,-97.19 2453.15,-96.7"/>
<polygon fill="midnightblue" stroke="midnightblue" points="3545.85,-150.02 3555.92,-146.72 3545.99,-143.02 3545.85,-150.02"/>
</g>
<!-- Node25 -->
<g id="node22" class="node">
<title>Node25</title>
<g id="a_node22"><a xlink:href="../../d5/d8e/vcubicbezier__p_8h.html" target="_top" xlink:title=" ">
<polygon fill="white" stroke="red" points="2471,-67.5 2471,-97.5 2578,-97.5 2578,-67.5 2471,-67.5"/>
<text text-anchor="start" x="2479" y="-85.5" font-family="Helvetica,sans-Serif" font-size="10.00">src/libs/vgeometry</text>
<text text-anchor="middle" x="2524.5" y="-74.5" font-family="Helvetica,sans-Serif" font-size="10.00">/vcubicbezier_p.h</text>
</a>
</g>
</g>
<!-- Node18&#45;&gt;Node25 -->
<g id="edge24" class="edge">
<title>Node18&#45;&gt;Node25</title>
<path fill="none" stroke="midnightblue" d="M3545.69,-145.9C3312.86,-139.87 2769.29,-123.48 2586.5,-98 2583.76,-97.62 2580.97,-97.17 2578.16,-96.68"/>
<polygon fill="midnightblue" stroke="midnightblue" points="3545.78,-149.4 3555.86,-146.16 3545.96,-142.4 3545.78,-149.4"/>
</g>
<!-- Node27 -->
<g id="node23" class="node">
<title>Node27</title>
<g id="a_node23"><a xlink:href="../../df/dde/vellipticalarc__p_8h.html" target="_top" xlink:title=" ">
<polygon fill="white" stroke="black" points="2596,-67.5 2596,-97.5 2703,-97.5 2703,-67.5 2596,-67.5"/>
<text text-anchor="start" x="2604" y="-85.5" font-family="Helvetica,sans-Serif" font-size="10.00">src/libs/vgeometry</text>
<text text-anchor="middle" x="2649.5" y="-74.5" font-family="Helvetica,sans-Serif" font-size="10.00">/vellipticalarc_p.h</text>
</a>
</g>
</g>
<!-- Node18&#45;&gt;Node27 -->
<g id="edge25" class="edge">
<title>Node18&#45;&gt;Node27</title>
<path fill="none" stroke="midnightblue" d="M3545.45,-148.14C3370.68,-146.32 3015.45,-137.56 2717.5,-98 2712.83,-97.38 2708.01,-96.61 2703.19,-95.76"/>
<polygon fill="midnightblue" stroke="midnightblue" points="3545.65,-151.64 3555.68,-148.24 3545.71,-144.64 3545.65,-151.64"/>
</g>
<!-- Node28 -->
<g id="node24" class="node">
<title>Node28</title>
<g id="a_node24"><a xlink:href="../../d6/dfb/vellipticalarc_8cpp.html" target="_top" xlink:title=" ">
<polygon fill="white" stroke="black" points="2637,-0.5 2637,-30.5 2744,-30.5 2744,-0.5 2637,-0.5"/>
<text text-anchor="start" x="2645" y="-18.5" font-family="Helvetica,sans-Serif" font-size="10.00">src/libs/vgeometry</text>
<text text-anchor="middle" x="2690.5" y="-7.5" font-family="Helvetica,sans-Serif" font-size="10.00">/vellipticalarc.cpp</text>
</a>
</g>
</g>
<!-- Node18&#45;&gt;Node28 -->
<g id="edge27" class="edge">
<title>Node18&#45;&gt;Node28</title>
<path fill="none" stroke="midnightblue" d="M3545.83,-147.59C3321.44,-144.97 2818.84,-134.98 2750.5,-98 2723.15,-83.2 2704.94,-49.9 2696.3,-30.77"/>
<polygon fill="midnightblue" stroke="midnightblue" points="3545.94,-151.09 3555.98,-147.71 3546.02,-144.09 3545.94,-151.09"/>
</g>
<!-- Node29 -->
<g id="node25" class="node">
<title>Node29</title>
<g id="a_node25"><a xlink:href="../../d1/d76/vspline__p_8h.html" target="_top" xlink:title=" ">
<polygon fill="white" stroke="red" points="2760,-67.5 2760,-97.5 2867,-97.5 2867,-67.5 2760,-67.5"/>
<text text-anchor="start" x="2768" y="-85.5" font-family="Helvetica,sans-Serif" font-size="10.00">src/libs/vgeometry</text>
<text text-anchor="middle" x="2813.5" y="-74.5" font-family="Helvetica,sans-Serif" font-size="10.00">/vspline_p.h</text>
</a>
</g>
</g>
<!-- Node18&#45;&gt;Node29 -->
<g id="edge28" class="edge">
<title>Node18&#45;&gt;Node29</title>
<path fill="none" stroke="midnightblue" d="M3545.59,-146.97C3395.01,-143.6 3113.64,-132.76 2876.5,-98 2873.39,-97.54 2870.21,-97.01 2867,-96.43"/>
<polygon fill="midnightblue" stroke="midnightblue" points="3545.69,-150.48 3555.76,-147.19 3545.84,-143.48 3545.69,-150.48"/>
</g>
<!-- Node31 -->
<g id="node26" class="node">
<title>Node31</title>
<g id="a_node26"><a xlink:href="../../d9/d15/vabstractpiece_8cpp.html" target="_top" xlink:title=" ">
<polygon fill="white" stroke="black" points="2885.5,-73 2885.5,-92 3071.5,-92 3071.5,-73 2885.5,-73"/>
<text text-anchor="middle" x="2978.5" y="-80" font-family="Helvetica,sans-Serif" font-size="10.00">src/libs/vlayout/vabstractpiece.cpp</text>
</a>
</g>
</g>
<!-- Node18&#45;&gt;Node31 -->
<g id="edge29" class="edge">
<title>Node18&#45;&gt;Node31</title>
<path fill="none" stroke="midnightblue" d="M3545.51,-140.71C3430.19,-131.98 3242.17,-116.6 3080.5,-98 3065.57,-96.28 3049.46,-94.13 3034.55,-92.02"/>
<polygon fill="midnightblue" stroke="midnightblue" points="3545.52,-144.22 3555.75,-141.48 3546.05,-137.24 3545.52,-144.22"/>
</g>
<!-- Node32 -->
<g id="node27" class="node">
<title>Node32</title>
<g id="a_node27"><a xlink:href="../../d6/d0b/def_8cpp.html" target="_top" xlink:title=" ">
<polygon fill="white" stroke="black" points="3089.5,-73 3089.5,-92 3211.5,-92 3211.5,-73 3089.5,-73"/>
<text text-anchor="middle" x="3150.5" y="-80" font-family="Helvetica,sans-Serif" font-size="10.00">src/libs/vmisc/def.cpp</text>
</a>
</g>
</g>
<!-- Node18&#45;&gt;Node32 -->
<g id="edge32" class="edge">
<title>Node18&#45;&gt;Node32</title>
<path fill="none" stroke="midnightblue" d="M3549.86,-139C3461.92,-130.33 3332.55,-116.1 3220.5,-98 3210.09,-96.32 3198.87,-94.15 3188.53,-92.01"/>
<polygon fill="midnightblue" stroke="midnightblue" points="3549.54,-142.49 3559.84,-139.98 3550.23,-135.52 3549.54,-142.49"/>
</g>
<!-- Node33 -->
<g id="node28" class="node">
<title>Node33</title>
<g id="a_node28"><a xlink:href="../../db/d65/dialogexporttocsv_8cpp.html" target="_top" xlink:title=" ">
<polygon fill="white" stroke="black" points="3230,-67.5 3230,-97.5 3357,-97.5 3357,-67.5 3230,-67.5"/>
<text text-anchor="start" x="3238" y="-85.5" font-family="Helvetica,sans-Serif" font-size="10.00">src/libs/vmisc/dialogs</text>
<text text-anchor="middle" x="3293.5" y="-74.5" font-family="Helvetica,sans-Serif" font-size="10.00">/dialogexporttocsv.cpp</text>
</a>
</g>
</g>
<!-- Node18&#45;&gt;Node33 -->
<g id="edge33" class="edge">
<title>Node18&#45;&gt;Node33</title>
<path fill="none" stroke="midnightblue" d="M3593.04,-138.26C3534.91,-128.32 3444.61,-112.63 3366.5,-98 3363.45,-97.43 3360.33,-96.84 3357.19,-96.24"/>
<polygon fill="midnightblue" stroke="midnightblue" points="3592.7,-141.75 3603.15,-139.98 3593.88,-134.85 3592.7,-141.75"/>
</g>
<!-- Node34 -->
<g id="node29" class="node">
<title>Node34</title>
<g id="a_node29"><a xlink:href="../../d0/df6/vabstractapplication_8cpp.html" target="_top" xlink:title=" ">
<polygon fill="white" stroke="black" points="3375.5,-73 3375.5,-92 3581.5,-92 3581.5,-73 3375.5,-73"/>
<text text-anchor="middle" x="3478.5" y="-80" font-family="Helvetica,sans-Serif" font-size="10.00">src/libs/vmisc/vabstractapplication.cpp</text>
</a>
</g>
</g>
<!-- Node18&#45;&gt;Node34 -->
<g id="edge34" class="edge">
<title>Node18&#45;&gt;Node34</title>
<path fill="none" stroke="midnightblue" d="M3620.57,-136.27C3585.84,-123.37 3532.01,-103.38 3501.56,-92.06"/>
<polygon fill="midnightblue" stroke="midnightblue" points="3619.67,-139.67 3630.26,-139.87 3622.11,-133.11 3619.67,-139.67"/>
</g>
<!-- Node35 -->
<g id="node30" class="node">
<title>Node35</title>
<g id="a_node30"><a xlink:href="../../d4/d4f/pmsystems_8cpp.html" target="_top" xlink:title=" ">
<polygon fill="white" stroke="black" points="3600,-67.5 3600,-97.5 3707,-97.5 3707,-67.5 3600,-67.5"/>
<text text-anchor="start" x="3608" y="-85.5" font-family="Helvetica,sans-Serif" font-size="10.00">src/libs/vpatterndb</text>
<text text-anchor="middle" x="3653.5" y="-74.5" font-family="Helvetica,sans-Serif" font-size="10.00">/pmsystems.cpp</text>
</a>
</g>
</g>
<!-- Node18&#45;&gt;Node35 -->
<g id="edge35" class="edge">
<title>Node18&#45;&gt;Node35</title>
<path fill="none" stroke="midnightblue" d="M3653.5,-129.41C3653.5,-119.22 3653.5,-106.9 3653.5,-97.59"/>
<polygon fill="midnightblue" stroke="midnightblue" points="3650,-129.73 3653.5,-139.73 3657,-129.73 3650,-129.73"/>
</g>
<!-- Node18&#45;&gt;Node36 -->
<g id="edge36" class="edge">
<title>Node18&#45;&gt;Node36</title>
<path fill="none" stroke="midnightblue" d="M3761.16,-147.17C4160.59,-142.07 5544.82,-122.75 5741.5,-98 5744.51,-97.62 5747.58,-97.16 5750.67,-96.64"/>
<polygon fill="midnightblue" stroke="midnightblue" points="3761.01,-143.67 3751.05,-147.3 3761.09,-150.67 3761.01,-143.67"/>
</g>
<!-- Node18&#45;&gt;Node37 -->
<g id="edge37" class="edge">
<title>Node18&#45;&gt;Node37</title>
<path fill="none" stroke="midnightblue" d="M3761.16,-148.35C4101.82,-147.43 5153.62,-141.09 5491.5,-98 5494.51,-97.62 5497.58,-97.15 5500.67,-96.63"/>
<polygon fill="midnightblue" stroke="midnightblue" points="3761.04,-144.85 3751.05,-148.38 3761.05,-151.85 3761.04,-144.85"/>
</g>
<!-- Node18&#45;&gt;Node38 -->
<g id="edge38" class="edge">
<title>Node18&#45;&gt;Node38</title>
<path fill="none" stroke="midnightblue" d="M3761.43,-146.99C4145.48,-141.44 5432.69,-121.28 5616.5,-98 5619.51,-97.62 5622.58,-97.16 5625.67,-96.64"/>
<polygon fill="midnightblue" stroke="midnightblue" points="3761.1,-143.49 3751.15,-147.14 3761.2,-150.49 3761.1,-143.49"/>
</g>
<!-- Node39 -->
<g id="node34" class="node">
<title>Node39</title>
<g id="a_node34"><a xlink:href="../../df/dba/vpiecenode__p_8h.html" target="_top" xlink:title=" ">
<polygon fill="white" stroke="black" points="3725,-67.5 3725,-97.5 3832,-97.5 3832,-67.5 3725,-67.5"/>
<text text-anchor="start" x="3733" y="-85.5" font-family="Helvetica,sans-Serif" font-size="10.00">src/libs/vpatterndb</text>
<text text-anchor="middle" x="3778.5" y="-74.5" font-family="Helvetica,sans-Serif" font-size="10.00">/vpiecenode_p.h</text>
</a>
</g>
</g>
<!-- Node18&#45;&gt;Node39 -->
<g id="edge39" class="edge">
<title>Node18&#45;&gt;Node39</title>
<path fill="none" stroke="midnightblue" d="M3679.09,-135.19C3700.11,-124.26 3729.83,-108.81 3751.29,-97.65"/>
<polygon fill="midnightblue" stroke="midnightblue" points="3677.36,-132.15 3670.1,-139.87 3680.59,-138.36 3677.36,-132.15"/>
</g>
<!-- Node41 -->
<g id="node36" class="node">
<title>Node41</title>
<g id="a_node36"><a xlink:href="../../de/d3e/vtranslatevars_8cpp.html" target="_top" xlink:title=" ">
<polygon fill="white" stroke="black" points="3850.5,-67.5 3850.5,-97.5 3960.5,-97.5 3960.5,-67.5 3850.5,-67.5"/>
<text text-anchor="start" x="3858.5" y="-85.5" font-family="Helvetica,sans-Serif" font-size="10.00">src/libs/vpatterndb</text>
<text text-anchor="middle" x="3905.5" y="-74.5" font-family="Helvetica,sans-Serif" font-size="10.00">/vtranslatevars.cpp</text>
</a>
</g>
</g>
<!-- Node18&#45;&gt;Node41 -->
<g id="edge41" class="edge">
<title>Node18&#45;&gt;Node41</title>
<path fill="none" stroke="midnightblue" d="M3696.5,-137.41C3739.17,-126.4 3804.7,-109.5 3850.99,-97.56"/>
<polygon fill="midnightblue" stroke="midnightblue" points="3695.51,-134.05 3686.7,-139.94 3697.26,-140.83 3695.51,-134.05"/>
</g>
<!-- Node42 -->
<g id="node37" class="node">
<title>Node42</title>
<g id="a_node37"><a xlink:href="../../df/d40/export__format__combobox_8cpp.html" target="_top" xlink:title=" ">
<polygon fill="white" stroke="black" points="3979,-67.5 3979,-97.5 4112,-97.5 4112,-67.5 3979,-67.5"/>
<text text-anchor="start" x="3987" y="-85.5" font-family="Helvetica,sans-Serif" font-size="10.00">src/libs/vwidgets/export</text>
<text text-anchor="middle" x="4045.5" y="-74.5" font-family="Helvetica,sans-Serif" font-size="10.00">_format_combobox.cpp</text>
</a>
</g>
</g>
<!-- Node18&#45;&gt;Node42 -->
<g id="edge42" class="edge">
<title>Node18&#45;&gt;Node42</title>
<path fill="none" stroke="midnightblue" d="M3720.06,-138.46C3784.08,-128.66 3883.53,-113.07 3969.5,-98 3972.54,-97.47 3975.65,-96.91 3978.79,-96.34"/>
<polygon fill="midnightblue" stroke="midnightblue" points="3719.45,-135.01 3710.1,-139.98 3720.51,-141.93 3719.45,-135.01"/>
</g>
<!-- Node43 -->
<g id="node38" class="node">
<title>Node43</title>
<g id="a_node38"><a xlink:href="../../d3/d4f/mouse__coordinates_8cpp.html" target="_top" xlink:title=" ">
<polygon fill="white" stroke="black" points="4130.5,-67.5 4130.5,-97.5 4264.5,-97.5 4264.5,-67.5 4130.5,-67.5"/>
<text text-anchor="start" x="4138.5" y="-85.5" font-family="Helvetica,sans-Serif" font-size="10.00">src/libs/vwidgets/mouse</text>
<text text-anchor="middle" x="4197.5" y="-74.5" font-family="Helvetica,sans-Serif" font-size="10.00">_coordinates.cpp</text>
</a>
</g>
</g>
<!-- Node18&#45;&gt;Node43 -->
<g id="edge43" class="edge">
<title>Node18&#45;&gt;Node43</title>
<path fill="none" stroke="midnightblue" d="M3761.46,-139.25C3856.31,-130.54 3997.91,-116.14 4120.5,-98 4123.73,-97.52 4127.03,-97.01 4130.36,-96.46"/>
<polygon fill="midnightblue" stroke="midnightblue" points="3760.92,-135.78 3751.28,-140.18 3761.55,-142.75 3760.92,-135.78"/>
</g>
<!-- Node44 -->
<g id="node39" class="node">
<title>Node44</title>
<g id="a_node39"><a xlink:href="../../d7/d1b/pen__toolbar_8cpp.html" target="_top" xlink:title=" ">
<polygon fill="white" stroke="black" points="4283,-67.5 4283,-97.5 4402,-97.5 4402,-67.5 4283,-67.5"/>
<text text-anchor="start" x="4291" y="-85.5" font-family="Helvetica,sans-Serif" font-size="10.00">src/libs/vwidgets/pen</text>
<text text-anchor="middle" x="4342.5" y="-74.5" font-family="Helvetica,sans-Serif" font-size="10.00">_toolbar.cpp</text>
</a>
</g>
</g>
<!-- Node18&#45;&gt;Node44 -->
<g id="edge44" class="edge">
<title>Node18&#45;&gt;Node44</title>
<path fill="none" stroke="midnightblue" d="M3761.37,-143.84C3885.42,-137.52 4094.96,-123.93 4273.5,-98 4276.53,-97.56 4279.62,-97.07 4282.74,-96.54"/>
<polygon fill="midnightblue" stroke="midnightblue" points="3760.92,-140.35 3751.11,-144.35 3761.27,-147.35 3760.92,-140.35"/>
</g>
<!-- Node45 -->
<g id="node40" class="node">
<title>Node45</title>
<g id="a_node40"><a xlink:href="../../d8/d76/scene__rect_8cpp.html" target="_top" xlink:title=" ">
<polygon fill="white" stroke="black" points="4420.5,-67.5 4420.5,-97.5 4550.5,-97.5 4550.5,-67.5 4420.5,-67.5"/>
<text text-anchor="start" x="4428.5" y="-85.5" font-family="Helvetica,sans-Serif" font-size="10.00">src/libs/vwidgets/scene</text>
<text text-anchor="middle" x="4485.5" y="-74.5" font-family="Helvetica,sans-Serif" font-size="10.00">_rect.cpp</text>
</a>
</g>
</g>
<!-- Node18&#45;&gt;Node45 -->
<g id="edge45" class="edge">
<title>Node18&#45;&gt;Node45</title>
<path fill="none" stroke="midnightblue" d="M3761.66,-145.51C3908.93,-140.48 4180.57,-127.78 4410.5,-98 4413.66,-97.59 4416.88,-97.13 4420.13,-96.63"/>
<polygon fill="midnightblue" stroke="midnightblue" points="3761.15,-142.03 3751.27,-145.86 3761.38,-149.02 3761.15,-142.03"/>
</g>
<!-- Node46 -->
<g id="node41" class="node">
<title>Node46</title>
<g id="a_node41"><a xlink:href="../../dd/df6/vabstractmainwindow_8cpp.html" target="_top" xlink:title=" ">
<polygon fill="white" stroke="black" points="4569,-73 4569,-92 4798,-92 4798,-73 4569,-73"/>
<text text-anchor="middle" x="4683.5" y="-80" font-family="Helvetica,sans-Serif" font-size="10.00">src/libs/vwidgets/vabstractmainwindow.cpp</text>
</a>
</g>
</g>
<!-- Node18&#45;&gt;Node46 -->
<g id="edge46" class="edge">
<title>Node18&#45;&gt;Node46</title>
<path fill="none" stroke="midnightblue" d="M3761.37,-144.61C3931.32,-138 4271.68,-122.83 4559.5,-98 4578.18,-96.39 4598.39,-94.21 4616.97,-92.03"/>
<polygon fill="midnightblue" stroke="midnightblue" points="3761.03,-141.12 3751.18,-145 3761.3,-148.11 3761.03,-141.12"/>
</g>
<!-- Node47 -->
<g id="node42" class="node">
<title>Node47</title>
<g id="a_node42"><a xlink:href="../../d1/d90/vgrainlineitem_8cpp.html" target="_top" xlink:title=" ">
<polygon fill="white" stroke="black" points="4816,-73 4816,-92 5009,-92 5009,-73 4816,-73"/>
<text text-anchor="middle" x="4912.5" y="-80" font-family="Helvetica,sans-Serif" font-size="10.00">src/libs/vwidgets/vgrainlineitem.cpp</text>
</a>
</g>
</g>
<!-- Node18&#45;&gt;Node47 -->
<g id="edge47" class="edge">
<title>Node18&#45;&gt;Node47</title>
<path fill="none" stroke="midnightblue" d="M3761.4,-147.09C3965.74,-143.68 4423.09,-132.55 4806.5,-98 4823.06,-96.51 4840.99,-94.29 4857.32,-92.03"/>
<polygon fill="midnightblue" stroke="midnightblue" points="3761.21,-143.59 3751.26,-147.26 3761.32,-150.59 3761.21,-143.59"/>
</g>
<!-- Node48 -->
<g id="node43" class="node">
<title>Node48</title>
<g id="a_node43"><a xlink:href="../../de/d45/vcontrolpointspline_8cpp.html" target="_top" xlink:title=" ">
<polygon fill="white" stroke="black" points="5027,-73 5027,-92 5242,-92 5242,-73 5027,-73"/>
<text text-anchor="middle" x="5134.5" y="-80" font-family="Helvetica,sans-Serif" font-size="10.00">src/libs/vwidgets/vcontrolpointspline.cpp</text>
</a>
</g>
</g>
<!-- Node18&#45;&gt;Node48 -->
<g id="edge48" class="edge">
<title>Node18&#45;&gt;Node48</title>
<path fill="none" stroke="midnightblue" d="M3761.33,-147.67C3992.1,-145.19 4550.84,-135.49 5017.5,-98 5035.86,-96.53 5055.77,-94.3 5073.88,-92.02"/>
<polygon fill="midnightblue" stroke="midnightblue" points="3761.21,-144.17 3751.25,-147.77 3761.29,-151.17 3761.21,-144.17"/>
</g>
<!-- Node49 -->
<g id="node44" class="node">
<title>Node49</title>
<g id="a_node44"><a xlink:href="../../d1/d88/vmaingraphicsscene_8cpp.html" target="_top" xlink:title=" ">
<polygon fill="white" stroke="black" points="5260.5,-73 5260.5,-92 5482.5,-92 5482.5,-73 5260.5,-73"/>
<text text-anchor="middle" x="5371.5" y="-80" font-family="Helvetica,sans-Serif" font-size="10.00">src/libs/vwidgets/vmaingraphicsscene.cpp</text>
</a>
</g>
</g>
<!-- Node18&#45;&gt;Node49 -->
<g id="edge49" class="edge">
<title>Node18&#45;&gt;Node49</title>
<path fill="none" stroke="midnightblue" d="M3761.45,-148.35C4019.3,-147.27 4691.27,-140.27 5250.5,-98 5269.59,-96.56 5290.31,-94.32 5309.11,-92.04"/>
<polygon fill="midnightblue" stroke="midnightblue" points="3761.32,-144.85 3751.33,-148.39 3761.35,-151.85 3761.32,-144.85"/>
</g>
<!-- Node27&#45;&gt;Node28 -->
<g id="edge26" class="edge">
<title>Node27&#45;&gt;Node28</title>
<path fill="none" stroke="midnightblue" d="M2663.78,-58.87C2669.71,-49.46 2676.41,-38.83 2681.62,-30.58"/>
<polygon fill="midnightblue" stroke="midnightblue" points="2660.77,-57.07 2658.4,-67.4 2666.69,-60.81 2660.77,-57.07"/>
</g>
<!-- Node39&#45;&gt;Node40 -->
<g id="edge40" class="edge">
<title>Node39&#45;&gt;Node40</title>
<path fill="none" stroke="midnightblue" d="M3842.5,-67.05C4204.61,-17.43 4630.7,-15.11 4778.74,-15.94"/>
<polygon fill="midnightblue" stroke="midnightblue" points="3841.77,-63.62 3832.34,-68.45 3842.73,-70.55 3841.77,-63.62"/>
</g>
<!-- Node56&#45;&gt;Node2 -->
<g id="edge51" class="edge">
<title>Node56&#45;&gt;Node2</title>
<path fill="none" stroke="midnightblue" d="M429.83,-137.9C356.98,-128.23 247.48,-113.18 152.5,-98 149.4,-97.5 146.23,-96.99 143.03,-96.45"/>
<polygon fill="midnightblue" stroke="midnightblue" points="429.49,-141.38 439.86,-139.22 430.41,-134.44 429.49,-141.38"/>
</g>
</g>
</svg>
