<?xml version="1.0" encoding="UTF-8" standalone="no"?>
<!DOCTYPE svg PUBLIC "-//W3C//DTD SVG 1.1//EN"
 "http://www.w3.org/Graphics/SVG/1.1/DTD/svg11.dtd">
<!-- Generated by graphviz version 2.43.0 (0)
 -->
<!-- Title: VPE::VPropertyFactoryManager Pages: 1 -->
<svg width="281pt" height="376pt"
 viewBox="0.00 0.00 280.50 376.00" xmlns="http://www.w3.org/2000/svg" xmlns:xlink="http://www.w3.org/1999/xlink">

<svg id="main" version="1.1" xmlns="http://www.w3.org/2000/svg" xmlns:xlink="http://www.w3.org/1999/xlink" xml:space="preserve" onload="init(evt)">
<style type="text/css"><![CDATA[
.node, .edge {opacity: 0.7;}
.node.selected, .edge.selected {opacity: 1;}
.edge:hover path { stroke: red; }
.edge:hover polygon { stroke: red; fill: red; }
]]></style>
<script type="application/ecmascript" xlink:href="../../svg.min.js"/>
<svg id="graph" class="graph">
<g id="graph0" class="graph" transform="scale(1 1) rotate(0) translate(4 372)">
<title>VPE::VPropertyFactoryManager</title>
<!-- Node1 -->
<g id="Node000001" class="node">
<title>Node1</title>
<g id="a_Node000001"><a xlink:title=" ">
<polygon fill="#999999" stroke="transparent" points="163,-154 0,-154 0,0 163,0 163,-154"/>
<text text-anchor="start" x="6.5" y="-142" font-family="Helvetica,sans-Serif" font-size="10.00">VPE::VPropertyFactoryManager</text>
<text text-anchor="start" x="80" y="-127" font-family="Helvetica,sans-Serif" font-size="10.00"> </text>
<text text-anchor="start" x="4.5" y="-112" font-family="Helvetica,sans-Serif" font-size="10.00">+</text>
<text text-anchor="start" x="17.5" y="-112" font-family="Helvetica,sans-Serif" font-size="10.00">VPropertyFactoryManager()</text>
<text text-anchor="start" x="4.5" y="-97" font-family="Helvetica,sans-Serif" font-size="10.00">+</text>
<text text-anchor="start" x="17.5" y="-97" font-family="Helvetica,sans-Serif" font-size="10.00">~VPropertyFactoryManager()</text>
<text text-anchor="start" x="4.5" y="-82" font-family="Helvetica,sans-Serif" font-size="10.00">+</text>
<text text-anchor="start" x="17.5" y="-82" font-family="Helvetica,sans-Serif" font-size="10.00">registerFactory()</text>
<text text-anchor="start" x="4.5" y="-67" font-family="Helvetica,sans-Serif" font-size="10.00">+</text>
<text text-anchor="start" x="17.5" y="-67" font-family="Helvetica,sans-Serif" font-size="10.00">unregisterFactory()</text>
<text text-anchor="start" x="4.5" y="-52" font-family="Helvetica,sans-Serif" font-size="10.00">+</text>
<text text-anchor="start" x="17.5" y="-52" font-family="Helvetica,sans-Serif" font-size="10.00">isRegistered()</text>
<text text-anchor="start" x="4.5" y="-37" font-family="Helvetica,sans-Serif" font-size="10.00">+</text>
<text text-anchor="start" x="17.5" y="-37" font-family="Helvetica,sans-Serif" font-size="10.00">getFactory()</text>
<text text-anchor="start" x="4.5" y="-22" font-family="Helvetica,sans-Serif" font-size="10.00">+</text>
<text text-anchor="start" x="17.5" y="-22" font-family="Helvetica,sans-Serif" font-size="10.00">createProperty()</text>
<text text-anchor="start" x="4.5" y="-7" font-family="Helvetica,sans-Serif" font-size="10.00">+</text>
<text text-anchor="start" x="17.5" y="-7" font-family="Helvetica,sans-Serif" font-size="10.00">getSupportedTypes()</text>
<polygon fill="#666666" stroke="#666666" points="0.5,-137 0.5,-137 163.5,-137 163.5,-137 0.5,-137"/>
<polygon fill="#666666" stroke="#666666" points="0.5,-122 0.5,-122 163.5,-122 163.5,-122 0.5,-122"/>
<polygon fill="none" stroke="#666666" points="0,0 0,-154 163,-154 163,0 0,0"/>
</a>
</g>
</g>
<!-- Node1&#45;&gt;Node1 -->
<g id="edge4_Node000001_Node000001" class="edge">
<title>Node1&#45;&gt;Node1</title>
<g id="a_edge4_Node000001_Node000001"><a xlink:title=" ">
<path fill="none" stroke="#63b8ff" d="M163.09,-93.53C173.86,-90.71 181,-85.2 181,-77 181,-72.13 178.48,-68.21 174.18,-65.23"/>
<polygon fill="none" stroke="#63b8ff" points="174.11,-65.21 167.02,-66.51 163.09,-60.47 170.18,-59.16 174.11,-65.21"/>
</a>
</g>
<text text-anchor="middle" x="226.5" y="-74.5" font-family="Helvetica,sans-Serif" font-size="10.00" fill="grey"> #DefaultManager</text>
</g>
<!-- Node2 -->
<g id="Node000002" class="node">
<title>Node2</title>
<g id="a_Node000002"><a xlink:title=" ">
<polygon fill="white" stroke="transparent" points="64.5,-255.5 14.5,-255.5 14.5,-206.5 64.5,-206.5 64.5,-255.5"/>
<text text-anchor="start" x="19.5" y="-243" font-family="Helvetica,sans-Serif" font-size="10.00">QObject</text>
<text text-anchor="start" x="37.5" y="-228" font-family="Helvetica,sans-Serif" font-size="10.00"> </text>
<text text-anchor="start" x="37.5" y="-213" font-family="Helvetica,sans-Serif" font-size="10.00"> </text>
<polygon fill="#666666" stroke="#666666" points="14.5,-238 14.5,-238 64.5,-238 64.5,-238 14.5,-238"/>
<polygon fill="#666666" stroke="#666666" points="14.5,-223 14.5,-223 64.5,-223 64.5,-223 14.5,-223"/>
<polygon fill="none" stroke="#666666" points="14.5,-206.5 14.5,-255.5 64.5,-255.5 64.5,-206.5 14.5,-206.5"/>
</a>
</g>
</g>
<!-- Node2&#45;&gt;Node1 -->
<g id="edge1_Node000001_Node000002" class="edge">
<title>Node2&#45;&gt;Node1</title>
<g id="a_edge1_Node000001_Node000002"><a xlink:title=" ">
<path fill="none" stroke="#63b8ff" d="M48.81,-196.31C52.27,-183.78 56.35,-169.01 60.44,-154.22"/>
<polygon fill="none" stroke="#63b8ff" points="45.35,-195.68 46.06,-206.25 52.1,-197.54 45.35,-195.68"/>
</a>
</g>
</g>
<!-- Node3 -->
<g id="Node000003" class="node">
<title>Node3</title>
<g id="a_Node000003"><a xlink:href="../../dd/dc8/classVPE_1_1VPropertyFactoryManagerPrivate.html" target="_top" xlink:title=" ">
<polygon fill="white" stroke="transparent" points="272.5,-261 82.5,-261 82.5,-201 272.5,-201 272.5,-261"/>
<text text-anchor="start" x="102" y="-249" font-family="Helvetica,sans-Serif" font-size="10.00">VPE::VPropertyFactoryManager</text>
<text text-anchor="start" x="160" y="-238" font-family="Helvetica,sans-Serif" font-size="10.00">Private</text>
<text text-anchor="start" x="175.5" y="-223" font-family="Helvetica,sans-Serif" font-size="10.00"> </text>
<text text-anchor="start" x="86.5" y="-208" font-family="Helvetica,sans-Serif" font-size="10.00">+</text>
<text text-anchor="start" x="99.5" y="-208" font-family="Helvetica,sans-Serif" font-size="10.00">VPropertyFactoryManagerPrivate()</text>
<polygon fill="#666666" stroke="#666666" points="82.5,-233 82.5,-233 272.5,-233 272.5,-233 82.5,-233"/>
<polygon fill="#666666" stroke="#666666" points="82.5,-218 82.5,-218 272.5,-218 272.5,-218 82.5,-218"/>
<polygon fill="none" stroke="#666666" points="82.5,-201 82.5,-261 272.5,-261 272.5,-201 82.5,-201"/>
</a>
</g>
</g>
<!-- Node3&#45;&gt;Node1 -->
<g id="edge2_Node000001_Node000003" class="edge">
<title>Node3&#45;&gt;Node1</title>
<g id="a_edge2_Node000001_Node000003"><a xlink:title=" ">
<path fill="none" stroke="#63b8ff" d="M158.99,-200.69C152.33,-190.14 144.42,-177.63 136.26,-164.7"/>
<polygon fill="none" stroke="#63b8ff" points="136.07,-164.41 129.49,-161.47 129.67,-154.26 136.25,-157.2 136.07,-164.41"/>
</a>
</g>
<text text-anchor="middle" x="164" y="-175" font-family="Helvetica,sans-Serif" font-size="10.00" fill="grey"> #d_ptr</text>
</g>
<!-- Node4 -->
<g id="Node000004" class="node">
<title>Node4</title>
<g id="a_Node000004"><a xlink:href="../../d0/d4c/classQMap.html" target="_top" xlink:title=" ">
<polygon fill="white" stroke="transparent" points="257,-368 98,-368 98,-308 257,-308 257,-368"/>
<text text-anchor="start" x="103.5" y="-356" font-family="Helvetica,sans-Serif" font-size="10.00">QMap&lt; QString, VPE</text>
<text text-anchor="start" x="103.5" y="-345" font-family="Helvetica,sans-Serif" font-size="10.00">::VAbstractPropertyFactory * &gt;</text>
<text text-anchor="start" x="176" y="-330" font-family="Helvetica,sans-Serif" font-size="10.00"> </text>
<text text-anchor="start" x="176" y="-315" font-family="Helvetica,sans-Serif" font-size="10.00"> </text>
<polygon fill="#666666" stroke="#666666" points="98.5,-340 98.5,-340 257.5,-340 257.5,-340 98.5,-340"/>
<polygon fill="#666666" stroke="#666666" points="98.5,-325 98.5,-325 257.5,-325 257.5,-325 98.5,-325"/>
<polygon fill="none" stroke="#666666" points="98,-308 98,-368 257,-368 257,-308 98,-308"/>
</a>
</g>
</g>
<!-- Node4&#45;&gt;Node3 -->
<g id="edge3_Node000003_Node000004" class="edge">
<title>Node4&#45;&gt;Node3</title>
<g id="a_edge3_Node000003_Node000004"><a xlink:title=" ">
<path fill="none" stroke="#63b8ff" d="M177.5,-307.75C177.5,-297.06 177.5,-284.75 177.5,-273.2"/>
<polygon fill="none" stroke="#63b8ff" points="177.5,-273.09 173.5,-267.09 177.5,-261.09 181.5,-267.09 177.5,-273.09"/>
</a>
</g>
<text text-anchor="middle" x="205" y="-282" font-family="Helvetica,sans-Serif" font-size="10.00" fill="grey"> +Factories</text>
</g>
</g>
</svg>
</svg>

<style type='text/css'>
<![CDATA[
[data-mouse-over-selected='false'] { opacity: 0.7; }
[data-mouse-over-selected='true']  { opacity: 1.0; }
]]>
</style>
<script type="application/ecmascript"><![CDATA[
document.addEventListener('DOMContentLoaded', (event) => {
  highlightEdges();
  highlightAdjacentNodes();
});
]]></script>
</svg>
