<?xml version="1.0" encoding="UTF-8" standalone="no"?>
<!DOCTYPE svg PUBLIC "-//W3C//DTD SVG 1.1//EN"
 "http://www.w3.org/Graphics/SVG/1.1/DTD/svg11.dtd">
<!-- Generated by graphviz version 2.43.0 (0)
 -->
<!-- Title: src/libs/vtools/dialogs/tools/editgroup_dialog.cpp Pages: 1 -->
<svg width="3790pt" height="225pt"
 viewBox="0.00 0.00 3789.50 225.00" xmlns="http://www.w3.org/2000/svg" xmlns:xlink="http://www.w3.org/1999/xlink">
<g id="graph0" class="graph" transform="scale(1 1) rotate(0) translate(4 221)">
<title>src/libs/vtools/dialogs/tools/editgroup_dialog.cpp</title>
<!-- Node1 -->
<g id="Node000001" class="node">
<title>Node1</title>
<g id="a_Node000001"><a xlink:title=" ">
<polygon fill="#999999" stroke="#666666" points="2794,-217 2645,-217 2645,-187 2794,-187 2794,-217"/>
<text text-anchor="start" x="2653" y="-205" font-family="Helvetica,sans-Serif" font-size="10.00">src/libs/vtools/dialogs</text>
<text text-anchor="middle" x="2719.5" y="-194" font-family="Helvetica,sans-Serif" font-size="10.00">/tools/editgroup_dialog.cpp</text>
</a>
</g>
</g>
<!-- Node2 -->
<g id="Node000002" class="node">
<title>Node2</title>
<g id="a_Node000002"><a xlink:href="../../d4/df4/editgroup__dialog_8h.html" target="_top" xlink:title=" ">
<polygon fill="white" stroke="#666666" points="384,-145.5 277,-145.5 277,-126.5 384,-126.5 384,-145.5"/>
<text text-anchor="middle" x="330.5" y="-133.5" font-family="Helvetica,sans-Serif" font-size="10.00">editgroup_dialog.h</text>
</a>
</g>
</g>
<!-- Node1&#45;&gt;Node2 -->
<g id="edge1_Node000001_Node000002" class="edge">
<title>Node1&#45;&gt;Node2</title>
<g id="a_edge1_Node000001_Node000002"><a xlink:title=" ">
<path fill="none" stroke="#63b8ff" d="M2644.72,-199C2284.2,-189.34 729.2,-147.68 394.23,-138.71"/>
<polygon fill="#63b8ff" stroke="#63b8ff" points="394.31,-135.21 384.22,-138.44 394.12,-142.21 394.31,-135.21"/>
</a>
</g>
</g>
<!-- Node9 -->
<g id="Node000009" class="node">
<title>Node9</title>
<g id="a_Node000009"><a xlink:href="../../d1/d30/dialogtool_8h.html" target="_top" xlink:title=" ">
<polygon fill="white" stroke="#666666" points="1638.5,-85 1564.5,-85 1564.5,-66 1638.5,-66 1638.5,-85"/>
<text text-anchor="middle" x="1601.5" y="-73" font-family="Helvetica,sans-Serif" font-size="10.00">dialogtool.h</text>
</a>
</g>
</g>
<!-- Node1&#45;&gt;Node9 -->
<g id="edge43_Node000001_Node000009" class="edge">
<title>Node1&#45;&gt;Node9</title>
<g id="a_edge43_Node000001_Node000009"><a xlink:title=" ">
<path fill="none" stroke="#63b8ff" d="M2644.84,-192.69C2431.51,-168.93 1823.39,-101.21 1648.86,-81.77"/>
<polygon fill="#63b8ff" stroke="#63b8ff" points="1649.04,-78.27 1638.71,-80.64 1648.26,-85.23 1649.04,-78.27"/>
</a>
</g>
</g>
<!-- Node12 -->
<g id="Node000012" class="node">
<title>Node12</title>
<g id="a_Node000012"><a xlink:title=" ">
<polygon fill="#e0e0e0" stroke="#999999" points="2408,-24.5 2331,-24.5 2331,-5.5 2408,-5.5 2408,-24.5"/>
<text text-anchor="middle" x="2369.5" y="-12.5" font-family="Helvetica,sans-Serif" font-size="10.00">QComboBox</text>
</a>
</g>
</g>
<!-- Node1&#45;&gt;Node12 -->
<g id="edge42_Node000001_Node000012" class="edge">
<title>Node1&#45;&gt;Node12</title>
<g id="a_edge42_Node000001_Node000012"><a xlink:title=" ">
<path fill="none" stroke="#63b8ff" d="M2646.52,-186.9C2613.91,-178.95 2575.67,-167.27 2543.5,-151 2478.63,-118.19 2414.14,-59.65 2385.25,-31.7"/>
<polygon fill="#63b8ff" stroke="#63b8ff" points="2387.67,-29.17 2378.07,-24.67 2382.77,-34.17 2387.67,-29.17"/>
</a>
</g>
</g>
<!-- Node15 -->
<g id="Node000015" class="node">
<title>Node15</title>
<g id="a_Node000015"><a xlink:title=" ">
<polygon fill="#e0e0e0" stroke="#999999" points="2489,-24.5 2426,-24.5 2426,-5.5 2489,-5.5 2489,-24.5"/>
<text text-anchor="middle" x="2457.5" y="-12.5" font-family="Helvetica,sans-Serif" font-size="10.00">QLineEdit</text>
</a>
</g>
</g>
<!-- Node1&#45;&gt;Node15 -->
<g id="edge39_Node000001_Node000015" class="edge">
<title>Node1&#45;&gt;Node15</title>
<g id="a_edge39_Node000001_Node000015"><a xlink:title=" ">
<path fill="none" stroke="#63b8ff" d="M2665.31,-186.96C2639.8,-178.85 2609.73,-167.03 2585.5,-151 2535.17,-117.69 2490.11,-61.08 2469.45,-32.93"/>
<polygon fill="#63b8ff" stroke="#63b8ff" points="2472.09,-30.61 2463.4,-24.55 2466.42,-34.71 2472.09,-30.61"/>
</a>
</g>
</g>
<!-- Node25 -->
<g id="Node000025" class="node">
<title>Node25</title>
<g id="a_Node000025"><a xlink:title=" ">
<polygon fill="#e0e0e0" stroke="#999999" points="2659.5,-24.5 2507.5,-24.5 2507.5,-5.5 2659.5,-5.5 2659.5,-24.5"/>
<text text-anchor="middle" x="2583.5" y="-12.5" font-family="Helvetica,sans-Serif" font-size="10.00">../ifc/xml/vabstractpattern.h</text>
</a>
</g>
</g>
<!-- Node1&#45;&gt;Node25 -->
<g id="edge45_Node000001_Node000025" class="edge">
<title>Node1&#45;&gt;Node25</title>
<g id="a_edge45_Node000001_Node000025"><a xlink:title=" ">
<path fill="none" stroke="#63b8ff" d="M2658.85,-186.95C2639.03,-179.45 2618.74,-168.08 2605.5,-151 2579.03,-116.86 2579.07,-63.06 2581.31,-34.79"/>
<polygon fill="#63b8ff" stroke="#63b8ff" points="2584.81,-34.97 2582.3,-24.67 2577.84,-34.29 2584.81,-34.97"/>
</a>
</g>
</g>
<!-- Node26 -->
<g id="Node000026" class="node">
<title>Node26</title>
<g id="a_Node000026"><a xlink:title=" ">
<polygon fill="#e0e0e0" stroke="#999999" points="2755,-24.5 2678,-24.5 2678,-5.5 2755,-5.5 2755,-24.5"/>
<text text-anchor="middle" x="2716.5" y="-12.5" font-family="Helvetica,sans-Serif" font-size="10.00">../ifc/ifcdef.h</text>
</a>
</g>
</g>
<!-- Node1&#45;&gt;Node26 -->
<g id="edge44_Node000001_Node000026" class="edge">
<title>Node1&#45;&gt;Node26</title>
<g id="a_edge44_Node000001_Node000026"><a xlink:title=" ">
<path fill="none" stroke="#63b8ff" d="M2669.38,-186.94C2651.72,-179.31 2633.73,-167.87 2623.5,-151 2603.91,-118.7 2604.12,-98.43 2623.5,-66 2634.39,-47.78 2654.46,-35.81 2673.18,-28.17"/>
<polygon fill="#63b8ff" stroke="#63b8ff" points="2674.66,-31.35 2682.79,-24.55 2672.19,-24.8 2674.66,-31.35"/>
</a>
</g>
</g>
<!-- Node29 -->
<g id="Node000029" class="node">
<title>Node29</title>
<g id="a_Node000029"><a xlink:title=" ">
<polygon fill="#e0e0e0" stroke="#999999" points="2876,-24.5 2773,-24.5 2773,-5.5 2876,-5.5 2876,-24.5"/>
<text text-anchor="middle" x="2824.5" y="-12.5" font-family="Helvetica,sans-Serif" font-size="10.00">../vmisc/logging.h</text>
</a>
</g>
</g>
<!-- Node1&#45;&gt;Node29 -->
<g id="edge46_Node000001_Node000029" class="edge">
<title>Node1&#45;&gt;Node29</title>
<g id="a_edge46_Node000001_Node000029"><a xlink:title=" ">
<path fill="none" stroke="#63b8ff" d="M2694.92,-186.99C2682.41,-178.38 2668.42,-166.11 2661.5,-151 2645.76,-116.66 2639.04,-96.38 2661.5,-66 2668.71,-56.24 2733.56,-38.47 2779.25,-26.96"/>
<polygon fill="#63b8ff" stroke="#63b8ff" points="2780.11,-30.35 2788.96,-24.53 2778.41,-23.56 2780.11,-30.35"/>
</a>
</g>
</g>
<!-- Node30 -->
<g id="Node000030" class="node">
<title>Node30</title>
<g id="a_Node000030"><a xlink:title=" ">
<polygon fill="#e0e0e0" stroke="#999999" points="3061,-24.5 2894,-24.5 2894,-5.5 3061,-5.5 3061,-24.5"/>
<text text-anchor="middle" x="2977.5" y="-12.5" font-family="Helvetica,sans-Serif" font-size="10.00">../vmisc/vabstractapplication.h</text>
</a>
</g>
</g>
<!-- Node1&#45;&gt;Node30 -->
<g id="edge47_Node000001_Node000030" class="edge">
<title>Node1&#45;&gt;Node30</title>
<g id="a_edge47_Node000001_Node000030"><a xlink:title=" ">
<path fill="none" stroke="#63b8ff" d="M2708.15,-186.86C2696.03,-169.92 2680.37,-141.31 2694.5,-121 2722.01,-81.45 2855.97,-44.55 2929.29,-26.9"/>
<polygon fill="#63b8ff" stroke="#63b8ff" points="2930.3,-30.25 2939.22,-24.53 2928.68,-23.44 2930.3,-30.25"/>
</a>
</g>
</g>
<!-- Node33 -->
<g id="Node000033" class="node">
<title>Node33</title>
<g id="a_Node000033"><a xlink:title=" ">
<polygon fill="#e0e0e0" stroke="#999999" points="2825.5,-145.5 2703.5,-145.5 2703.5,-126.5 2825.5,-126.5 2825.5,-145.5"/>
<text text-anchor="middle" x="2764.5" y="-133.5" font-family="Helvetica,sans-Serif" font-size="10.00">ui_editgroup_dialog.h</text>
</a>
</g>
</g>
<!-- Node1&#45;&gt;Node33 -->
<g id="edge38_Node000001_Node000033" class="edge">
<title>Node1&#45;&gt;Node33</title>
<g id="a_edge38_Node000001_Node000033"><a xlink:title=" ">
<path fill="none" stroke="#63b8ff" d="M2729.49,-186.8C2736.23,-177.21 2745.16,-164.5 2752.32,-154.32"/>
<polygon fill="#63b8ff" stroke="#63b8ff" points="2755.39,-156.04 2758.28,-145.84 2749.67,-152.01 2755.39,-156.04"/>
</a>
</g>
</g>
<!-- Node34 -->
<g id="Node000034" class="node">
<title>Node34</title>
<g id="a_Node000034"><a xlink:title=" ">
<polygon fill="#e0e0e0" stroke="#999999" points="2913.5,-145.5 2843.5,-145.5 2843.5,-126.5 2913.5,-126.5 2913.5,-145.5"/>
<text text-anchor="middle" x="2878.5" y="-133.5" font-family="Helvetica,sans-Serif" font-size="10.00">QStringList</text>
</a>
</g>
</g>
<!-- Node1&#45;&gt;Node34 -->
<g id="edge40_Node000001_Node000034" class="edge">
<title>Node1&#45;&gt;Node34</title>
<g id="a_edge40_Node000001_Node000034"><a xlink:title=" ">
<path fill="none" stroke="#63b8ff" d="M2754.39,-186.95C2782.28,-175.73 2820.99,-160.15 2847.73,-149.39"/>
<polygon fill="#63b8ff" stroke="#63b8ff" points="2849.37,-152.5 2857.34,-145.52 2846.76,-146 2849.37,-152.5"/>
</a>
</g>
</g>
<!-- Node35 -->
<g id="Node000035" class="node">
<title>Node35</title>
<g id="a_Node000035"><a xlink:title=" ">
<polygon fill="#e0e0e0" stroke="#999999" points="3011.5,-145.5 2931.5,-145.5 2931.5,-126.5 3011.5,-126.5 3011.5,-145.5"/>
<text text-anchor="middle" x="2971.5" y="-133.5" font-family="Helvetica,sans-Serif" font-size="10.00">QInputDialog</text>
</a>
</g>
</g>
<!-- Node1&#45;&gt;Node35 -->
<g id="edge41_Node000001_Node000035" class="edge">
<title>Node1&#45;&gt;Node35</title>
<g id="a_edge41_Node000001_Node000035"><a xlink:title=" ">
<path fill="none" stroke="#63b8ff" d="M2779.16,-186.92C2819.69,-177.2 2874.44,-163.78 2922.5,-151 2925.71,-150.15 2929.02,-149.24 2932.35,-148.32"/>
<polygon fill="#63b8ff" stroke="#63b8ff" points="2933.59,-151.61 2942.27,-145.54 2931.7,-144.87 2933.59,-151.61"/>
</a>
</g>
</g>
<!-- Node36 -->
<g id="Node000036" class="node">
<title>Node36</title>
<g id="a_Node000036"><a xlink:title=" ">
<polygon fill="#e0e0e0" stroke="#999999" points="3171.5,-145.5 3029.5,-145.5 3029.5,-126.5 3171.5,-126.5 3171.5,-145.5"/>
<text text-anchor="middle" x="3100.5" y="-133.5" font-family="Helvetica,sans-Serif" font-size="10.00">../vpatterndb/vcontainer.h</text>
</a>
</g>
</g>
<!-- Node1&#45;&gt;Node36 -->
<g id="edge48_Node000001_Node000036" class="edge">
<title>Node1&#45;&gt;Node36</title>
<g id="a_edge48_Node000001_Node000036"><a xlink:title=" ">
<path fill="none" stroke="#63b8ff" d="M2794.06,-188.8C2854.99,-178.78 2943.35,-164.16 3020.5,-151 3027.57,-149.79 3034.99,-148.51 3042.34,-147.24"/>
<polygon fill="#63b8ff" stroke="#63b8ff" points="3043.03,-150.67 3052.28,-145.51 3041.83,-143.77 3043.03,-150.67"/>
</a>
</g>
</g>
<!-- Node37 -->
<g id="Node000037" class="node">
<title>Node37</title>
<g id="a_Node000037"><a xlink:title=" ">
<polygon fill="#e0e0e0" stroke="#999999" points="3327,-151 3190,-151 3190,-121 3327,-121 3327,-151"/>
<text text-anchor="start" x="3198" y="-139" font-family="Helvetica,sans-Serif" font-size="10.00">../vtools/undocommands</text>
<text text-anchor="middle" x="3258.5" y="-128" font-family="Helvetica,sans-Serif" font-size="10.00">/addgroup.h</text>
</a>
</g>
</g>
<!-- Node1&#45;&gt;Node37 -->
<g id="edge49_Node000001_Node000037" class="edge">
<title>Node1&#45;&gt;Node37</title>
<g id="a_edge49_Node000001_Node000037"><a xlink:title=" ">
<path fill="none" stroke="#63b8ff" d="M2794.36,-194.49C2883.59,-186.38 3037.42,-171.24 3179.43,-151.09"/>
<polygon fill="#63b8ff" stroke="#63b8ff" points="3180.23,-154.51 3189.64,-149.63 3179.24,-147.58 3180.23,-154.51"/>
</a>
</g>
</g>
<!-- Node38 -->
<g id="Node000038" class="node">
<title>Node38</title>
<g id="a_Node000038"><a xlink:title=" ">
<polygon fill="#e0e0e0" stroke="#999999" points="3507.5,-145.5 3345.5,-145.5 3345.5,-126.5 3507.5,-126.5 3507.5,-145.5"/>
<text text-anchor="middle" x="3426.5" y="-133.5" font-family="Helvetica,sans-Serif" font-size="10.00">../vwidgets/color_combobox.h</text>
</a>
</g>
</g>
<!-- Node1&#45;&gt;Node38 -->
<g id="edge50_Node000001_Node000038" class="edge">
<title>Node1&#45;&gt;Node38</title>
<g id="a_edge50_Node000001_Node000038"><a xlink:title=" ">
<path fill="none" stroke="#63b8ff" d="M2794.23,-196.72C2910.46,-189.67 3141.46,-174.04 3336.5,-151 3346.06,-149.87 3356.16,-148.49 3366,-147.03"/>
<polygon fill="#63b8ff" stroke="#63b8ff" points="3366.77,-150.46 3376.13,-145.5 3365.72,-143.54 3366.77,-150.46"/>
</a>
</g>
</g>
<!-- Node39 -->
<g id="Node000039" class="node">
<title>Node39</title>
<g id="a_Node000039"><a xlink:title=" ">
<polygon fill="#e0e0e0" stroke="#999999" points="3639,-151 3526,-151 3526,-121 3639,-121 3639,-151"/>
<text text-anchor="start" x="3534" y="-139" font-family="Helvetica,sans-Serif" font-size="10.00">../vwidgets/linetype</text>
<text text-anchor="middle" x="3582.5" y="-128" font-family="Helvetica,sans-Serif" font-size="10.00">_combobox.h</text>
</a>
</g>
</g>
<!-- Node1&#45;&gt;Node39 -->
<g id="edge51_Node000001_Node000039" class="edge">
<title>Node1&#45;&gt;Node39</title>
<g id="a_edge51_Node000001_Node000039"><a xlink:title=" ">
<path fill="none" stroke="#63b8ff" d="M2794.03,-199.96C2933.77,-197.21 3244.71,-187.34 3515.68,-150.96"/>
<polygon fill="#63b8ff" stroke="#63b8ff" points="3516.27,-154.41 3525.71,-149.6 3515.33,-147.47 3516.27,-154.41"/>
</a>
</g>
</g>
<!-- Node40 -->
<g id="Node000040" class="node">
<title>Node40</title>
<g id="a_Node000040"><a xlink:title=" ">
<polygon fill="#e0e0e0" stroke="#999999" points="3781.5,-151 3657.5,-151 3657.5,-121 3781.5,-121 3781.5,-151"/>
<text text-anchor="start" x="3665.5" y="-139" font-family="Helvetica,sans-Serif" font-size="10.00">../vwidgets/lineweight</text>
<text text-anchor="middle" x="3719.5" y="-128" font-family="Helvetica,sans-Serif" font-size="10.00">_combobox.h</text>
</a>
</g>
</g>
<!-- Node1&#45;&gt;Node40 -->
<g id="edge52_Node000001_Node000040" class="edge">
<title>Node1&#45;&gt;Node40</title>
<g id="a_edge52_Node000001_Node000040"><a xlink:title=" ">
<path fill="none" stroke="#63b8ff" d="M2794.18,-200.54C2950.73,-198.81 3324.79,-190.62 3647.24,-151.03"/>
<polygon fill="#63b8ff" stroke="#63b8ff" points="3647.75,-154.5 3657.24,-149.79 3646.89,-147.55 3647.75,-154.5"/>
</a>
</g>
</g>
<!-- Node3 -->
<g id="Node000003" class="node">
<title>Node3</title>
<g id="a_Node000003"><a xlink:title=" ">
<polygon fill="#e0e0e0" stroke="#999999" points="268.5,-24.5 148.5,-24.5 148.5,-5.5 268.5,-5.5 268.5,-24.5"/>
<text text-anchor="middle" x="208.5" y="-12.5" font-family="Helvetica,sans-Serif" font-size="10.00">qcompilerdetection.h</text>
</a>
</g>
</g>
<!-- Node2&#45;&gt;Node3 -->
<g id="edge2_Node000002_Node000003" class="edge">
<title>Node2&#45;&gt;Node3</title>
<g id="a_edge2_Node000002_Node000003"><a xlink:title=" ">
<path fill="none" stroke="#63b8ff" d="M321.73,-126.44C301.43,-106.64 250.96,-57.41 224.8,-31.9"/>
<polygon fill="#63b8ff" stroke="#63b8ff" points="227.13,-29.28 217.52,-24.8 222.24,-34.29 227.13,-29.28"/>
</a>
</g>
</g>
<!-- Node4 -->
<g id="Node000004" class="node">
<title>Node4</title>
<g id="a_Node000004"><a xlink:title=" ">
<polygon fill="#e0e0e0" stroke="#999999" points="332,-24.5 287,-24.5 287,-5.5 332,-5.5 332,-24.5"/>
<text text-anchor="middle" x="309.5" y="-12.5" font-family="Helvetica,sans-Serif" font-size="10.00">QMap</text>
</a>
</g>
</g>
<!-- Node2&#45;&gt;Node4 -->
<g id="edge3_Node000002_Node000004" class="edge">
<title>Node2&#45;&gt;Node4</title>
<g id="a_edge3_Node000002_Node000004"><a xlink:title=" ">
<path fill="none" stroke="#63b8ff" d="M328.99,-126.44C325.63,-107.41 317.47,-61.19 312.85,-34.97"/>
<polygon fill="#63b8ff" stroke="#63b8ff" points="316.24,-34.04 311.05,-24.8 309.34,-35.26 316.24,-34.04"/>
</a>
</g>
</g>
<!-- Node5 -->
<g id="Node000005" class="node">
<title>Node5</title>
<g id="a_Node000005"><a xlink:title=" ">
<polygon fill="#e0e0e0" stroke="#999999" points="430.5,-24.5 350.5,-24.5 350.5,-5.5 430.5,-5.5 430.5,-24.5"/>
<text text-anchor="middle" x="390.5" y="-12.5" font-family="Helvetica,sans-Serif" font-size="10.00">QMetaObject</text>
</a>
</g>
</g>
<!-- Node2&#45;&gt;Node5 -->
<g id="edge4_Node000002_Node000005" class="edge">
<title>Node2&#45;&gt;Node5</title>
<g id="a_edge4_Node000002_Node000005"><a xlink:title=" ">
<path fill="none" stroke="#63b8ff" d="M334.82,-126.44C344.54,-107.15 368.34,-59.94 381.46,-33.93"/>
<polygon fill="#63b8ff" stroke="#63b8ff" points="384.69,-35.31 386.06,-24.8 378.43,-32.16 384.69,-35.31"/>
</a>
</g>
</g>
<!-- Node6 -->
<g id="Node000006" class="node">
<title>Node6</title>
<g id="a_Node000006"><a xlink:title=" ">
<polygon fill="#e0e0e0" stroke="#999999" points="504.5,-24.5 448.5,-24.5 448.5,-5.5 504.5,-5.5 504.5,-24.5"/>
<text text-anchor="middle" x="476.5" y="-12.5" font-family="Helvetica,sans-Serif" font-size="10.00">QObject</text>
</a>
</g>
</g>
<!-- Node2&#45;&gt;Node6 -->
<g id="edge5_Node000002_Node000006" class="edge">
<title>Node2&#45;&gt;Node6</title>
<g id="a_edge5_Node000002_Node000006"><a xlink:title=" ">
<path fill="none" stroke="#63b8ff" d="M341,-126.44C365.5,-106.47 426.73,-56.56 457.8,-31.25"/>
<polygon fill="#63b8ff" stroke="#63b8ff" points="460.16,-33.83 465.7,-24.8 455.74,-28.41 460.16,-33.83"/>
</a>
</g>
</g>
<!-- Node7 -->
<g id="Node000007" class="node">
<title>Node7</title>
<g id="a_Node000007"><a xlink:title=" ">
<polygon fill="#e0e0e0" stroke="#999999" points="53,-24.5 0,-24.5 0,-5.5 53,-5.5 53,-24.5"/>
<text text-anchor="middle" x="26.5" y="-12.5" font-family="Helvetica,sans-Serif" font-size="10.00">QString</text>
</a>
</g>
</g>
<!-- Node2&#45;&gt;Node7 -->
<g id="edge6_Node000002_Node000007" class="edge">
<title>Node2&#45;&gt;Node7</title>
<g id="a_edge6_Node000002_Node000007"><a xlink:title=" ">
<path fill="none" stroke="#63b8ff" d="M307.56,-126.46C281.18,-116.62 236.63,-99.87 198.5,-85 148.71,-65.58 91.12,-42.32 56.81,-28.37"/>
<polygon fill="#63b8ff" stroke="#63b8ff" points="57.95,-25.05 47.36,-24.52 55.31,-31.53 57.95,-25.05"/>
</a>
</g>
</g>
<!-- Node8 -->
<g id="Node000008" class="node">
<title>Node8</title>
<g id="a_Node000008"><a xlink:title=" ">
<polygon fill="#e0e0e0" stroke="#999999" points="130,-24.5 71,-24.5 71,-5.5 130,-5.5 130,-24.5"/>
<text text-anchor="middle" x="100.5" y="-12.5" font-family="Helvetica,sans-Serif" font-size="10.00">QtGlobal</text>
</a>
</g>
</g>
<!-- Node2&#45;&gt;Node8 -->
<g id="edge7_Node000002_Node000008" class="edge">
<title>Node2&#45;&gt;Node8</title>
<g id="a_edge7_Node000002_Node000008"><a xlink:title=" ">
<path fill="none" stroke="#63b8ff" d="M313.96,-126.44C274.35,-105.95 173.85,-53.95 126.25,-29.32"/>
<polygon fill="#63b8ff" stroke="#63b8ff" points="127.69,-26.13 117.2,-24.64 124.47,-32.34 127.69,-26.13"/>
</a>
</g>
</g>
<!-- Node2&#45;&gt;Node9 -->
<g id="edge8_Node000002_Node000009" class="edge">
<title>Node2&#45;&gt;Node9</title>
<g id="a_edge8_Node000002_Node000009"><a xlink:title=" ">
<path fill="none" stroke="#63b8ff" d="M384.3,-132.52C594.23,-122.86 1356.41,-87.78 1554.3,-78.67"/>
<polygon fill="#63b8ff" stroke="#63b8ff" points="1554.54,-82.17 1564.37,-78.21 1554.22,-75.17 1554.54,-82.17"/>
</a>
</g>
</g>
<!-- Node9&#45;&gt;Node3 -->
<g id="edge9_Node000009_Node000003" class="edge">
<title>Node9&#45;&gt;Node3</title>
<g id="a_edge9_Node000009_Node000003"><a xlink:title=" ">
<path fill="none" stroke="#63b8ff" d="M1564.36,-74.09C1377.26,-71.89 536.76,-60.44 277.5,-30 270.16,-29.14 262.43,-27.9 254.91,-26.51"/>
<polygon fill="#63b8ff" stroke="#63b8ff" points="255.33,-23.03 244.84,-24.55 253.99,-29.9 255.33,-23.03"/>
</a>
</g>
</g>
<!-- Node9&#45;&gt;Node4 -->
<g id="edge19_Node000009_Node000004" class="edge">
<title>Node9&#45;&gt;Node4</title>
<g id="a_edge19_Node000009_Node000004"><a xlink:title=" ">
<path fill="none" stroke="#63b8ff" d="M1564.27,-74.02C1368.55,-71.37 463.22,-57.71 341.5,-30 339.55,-29.56 337.57,-28.99 335.6,-28.35"/>
<polygon fill="#63b8ff" stroke="#63b8ff" points="336.62,-24.99 326.03,-24.64 334.09,-31.52 336.62,-24.99"/>
</a>
</g>
</g>
<!-- Node9&#45;&gt;Node5 -->
<g id="edge20_Node000009_Node000005" class="edge">
<title>Node9&#45;&gt;Node5</title>
<g id="a_edge20_Node000009_Node000005"><a xlink:title=" ">
<path fill="none" stroke="#63b8ff" d="M1564.38,-74.28C1391.44,-73.05 663.78,-65.8 439.5,-30 435,-29.28 430.34,-28.29 425.75,-27.16"/>
<polygon fill="#63b8ff" stroke="#63b8ff" points="426.49,-23.73 415.92,-24.52 424.67,-30.49 426.49,-23.73"/>
</a>
</g>
</g>
<!-- Node9&#45;&gt;Node6 -->
<g id="edge21_Node000009_Node000006" class="edge">
<title>Node9&#45;&gt;Node6</title>
<g id="a_edge21_Node000009_Node000006"><a xlink:title=" ">
<path fill="none" stroke="#63b8ff" d="M1564.47,-74.57C1398.36,-74.65 720.96,-72.34 513.5,-30 510.82,-29.45 508.07,-28.74 505.35,-27.92"/>
<polygon fill="#63b8ff" stroke="#63b8ff" points="506.33,-24.55 495.74,-24.61 504.06,-31.17 506.33,-24.55"/>
</a>
</g>
</g>
<!-- Node9&#45;&gt;Node7 -->
<g id="edge26_Node000009_Node000007" class="edge">
<title>Node9&#45;&gt;Node7</title>
<g id="a_edge26_Node000009_Node000007"><a xlink:title=" ">
<path fill="none" stroke="#63b8ff" d="M1564.28,-74.21C1343.72,-72.35 212.66,-61.38 61.5,-30 58.98,-29.48 56.4,-28.78 53.85,-27.98"/>
<polygon fill="#63b8ff" stroke="#63b8ff" points="54.88,-24.63 44.29,-24.52 52.5,-31.22 54.88,-24.63"/>
</a>
</g>
</g>
<!-- Node9&#45;&gt;Node8 -->
<g id="edge28_Node000009_Node000008" class="edge">
<title>Node9&#45;&gt;Node8</title>
<g id="a_edge28_Node000009_Node000008"><a xlink:title=" ">
<path fill="none" stroke="#63b8ff" d="M1564.46,-74.07C1351.07,-71.48 283.11,-57.25 139.5,-30 136.42,-29.42 133.26,-28.62 130.13,-27.71"/>
<polygon fill="#63b8ff" stroke="#63b8ff" points="131,-24.31 120.4,-24.5 128.8,-30.96 131,-24.31"/>
</a>
</g>
</g>
<!-- Node10 -->
<g id="Node000010" class="node">
<title>Node10</title>
<g id="a_Node000010"><a xlink:title=" ">
<polygon fill="#e0e0e0" stroke="#999999" points="1387,-24.5 1314,-24.5 1314,-5.5 1387,-5.5 1387,-24.5"/>
<text text-anchor="middle" x="1350.5" y="-12.5" font-family="Helvetica,sans-Serif" font-size="10.00">QCheckBox</text>
</a>
</g>
</g>
<!-- Node9&#45;&gt;Node10 -->
<g id="edge10_Node000009_Node000010" class="edge">
<title>Node9&#45;&gt;Node10</title>
<g id="a_edge10_Node000009_Node000010"><a xlink:title=" ">
<path fill="none" stroke="#63b8ff" d="M1564.25,-67.37C1523.01,-59.25 1454.65,-45.13 1396.5,-30 1393.35,-29.18 1390.09,-28.28 1386.83,-27.36"/>
<polygon fill="#63b8ff" stroke="#63b8ff" points="1387.73,-23.97 1377.15,-24.51 1385.76,-30.69 1387.73,-23.97"/>
</a>
</g>
</g>
<!-- Node11 -->
<g id="Node000011" class="node">
<title>Node11</title>
<g id="a_Node000011"><a xlink:title=" ">
<polygon fill="#e0e0e0" stroke="#999999" points="1455.5,-24.5 1405.5,-24.5 1405.5,-5.5 1455.5,-5.5 1455.5,-24.5"/>
<text text-anchor="middle" x="1430.5" y="-12.5" font-family="Helvetica,sans-Serif" font-size="10.00">QColor</text>
</a>
</g>
</g>
<!-- Node9&#45;&gt;Node11 -->
<g id="edge11_Node000009_Node000011" class="edge">
<title>Node9&#45;&gt;Node11</title>
<g id="a_edge11_Node000009_Node000011"><a xlink:title=" ">
<path fill="none" stroke="#63b8ff" d="M1572.95,-65.92C1545.08,-57.39 1501.59,-43.64 1464.5,-30 1463.08,-29.48 1461.63,-28.93 1460.16,-28.37"/>
<polygon fill="#63b8ff" stroke="#63b8ff" points="1461.12,-24.98 1450.54,-24.55 1458.54,-31.49 1461.12,-24.98"/>
</a>
</g>
</g>
<!-- Node9&#45;&gt;Node12 -->
<g id="edge12_Node000009_Node000012" class="edge">
<title>Node9&#45;&gt;Node12</title>
<g id="a_edge12_Node000009_Node000012"><a xlink:title=" ">
<path fill="none" stroke="#63b8ff" d="M1638.62,-75.17C1745.66,-76.47 2063.8,-75.89 2322.5,-30 2326.44,-29.3 2330.52,-28.39 2334.56,-27.36"/>
<polygon fill="#63b8ff" stroke="#63b8ff" points="2335.69,-30.68 2344.39,-24.63 2333.81,-23.93 2335.69,-30.68"/>
</a>
</g>
</g>
<!-- Node13 -->
<g id="Node000013" class="node">
<title>Node13</title>
<g id="a_Node000013"><a xlink:title=" ">
<polygon fill="#e0e0e0" stroke="#999999" points="1529.5,-24.5 1473.5,-24.5 1473.5,-5.5 1529.5,-5.5 1529.5,-24.5"/>
<text text-anchor="middle" x="1501.5" y="-12.5" font-family="Helvetica,sans-Serif" font-size="10.00">QDialog</text>
</a>
</g>
</g>
<!-- Node9&#45;&gt;Node13 -->
<g id="edge13_Node000009_Node000013" class="edge">
<title>Node9&#45;&gt;Node13</title>
<g id="a_edge13_Node000009_Node000013"><a xlink:title=" ">
<path fill="none" stroke="#63b8ff" d="M1586.74,-65.87C1570.5,-56.36 1544.15,-40.95 1525.04,-29.77"/>
<polygon fill="#63b8ff" stroke="#63b8ff" points="1526.71,-26.7 1516.32,-24.67 1523.18,-32.74 1526.71,-26.7"/>
</a>
</g>
</g>
<!-- Node14 -->
<g id="Node000014" class="node">
<title>Node14</title>
<g id="a_Node000014"><a xlink:title=" ">
<polygon fill="#e0e0e0" stroke="#999999" points="1655,-24.5 1548,-24.5 1548,-5.5 1655,-5.5 1655,-24.5"/>
<text text-anchor="middle" x="1601.5" y="-12.5" font-family="Helvetica,sans-Serif" font-size="10.00">QDialogButtonBox</text>
</a>
</g>
</g>
<!-- Node9&#45;&gt;Node14 -->
<g id="edge14_Node000009_Node000014" class="edge">
<title>Node9&#45;&gt;Node14</title>
<g id="a_edge14_Node000009_Node000014"><a xlink:title=" ">
<path fill="none" stroke="#63b8ff" d="M1601.5,-65.87C1601.5,-57.75 1601.5,-45.31 1601.5,-34.89"/>
<polygon fill="#63b8ff" stroke="#63b8ff" points="1605,-34.67 1601.5,-24.67 1598,-34.67 1605,-34.67"/>
</a>
</g>
</g>
<!-- Node9&#45;&gt;Node15 -->
<g id="edge15_Node000009_Node000015" class="edge">
<title>Node9&#45;&gt;Node15</title>
<g id="a_edge15_Node000009_Node000015"><a xlink:title=" ">
<path fill="none" stroke="#63b8ff" d="M1638.63,-73.86C1777.39,-71.27 2265.28,-60.16 2417.5,-30 2420.58,-29.39 2423.74,-28.6 2426.87,-27.69"/>
<polygon fill="#63b8ff" stroke="#63b8ff" points="2428.19,-30.95 2436.64,-24.55 2426.04,-24.28 2428.19,-30.95"/>
</a>
</g>
</g>
<!-- Node16 -->
<g id="Node000016" class="node">
<title>Node16</title>
<g id="a_Node000016"><a xlink:title=" ">
<polygon fill="#e0e0e0" stroke="#999999" points="1714,-24.5 1673,-24.5 1673,-5.5 1714,-5.5 1714,-24.5"/>
<text text-anchor="middle" x="1693.5" y="-12.5" font-family="Helvetica,sans-Serif" font-size="10.00">QList</text>
</a>
</g>
</g>
<!-- Node9&#45;&gt;Node16 -->
<g id="edge16_Node000009_Node000016" class="edge">
<title>Node9&#45;&gt;Node16</title>
<g id="a_edge16_Node000009_Node000016"><a xlink:title=" ">
<path fill="none" stroke="#63b8ff" d="M1615.07,-65.87C1629.89,-56.45 1653.83,-41.23 1671.36,-30.08"/>
<polygon fill="#63b8ff" stroke="#63b8ff" points="1673.31,-32.99 1679.87,-24.67 1669.55,-27.08 1673.31,-32.99"/>
</a>
</g>
</g>
<!-- Node17 -->
<g id="Node000017" class="node">
<title>Node17</title>
<g id="a_Node000017"><a xlink:title=" ">
<polygon fill="#e0e0e0" stroke="#999999" points="1808.5,-24.5 1732.5,-24.5 1732.5,-5.5 1808.5,-5.5 1808.5,-24.5"/>
<text text-anchor="middle" x="1770.5" y="-12.5" font-family="Helvetica,sans-Serif" font-size="10.00">QListWidget</text>
</a>
</g>
</g>
<!-- Node9&#45;&gt;Node17 -->
<g id="edge17_Node000009_Node000017" class="edge">
<title>Node9&#45;&gt;Node17</title>
<g id="a_edge17_Node000009_Node000017"><a xlink:title=" ">
<path fill="none" stroke="#63b8ff" d="M1626.07,-65.99C1655.11,-55.94 1703.6,-39.16 1736.3,-27.84"/>
<polygon fill="#63b8ff" stroke="#63b8ff" points="1737.59,-31.1 1745.9,-24.52 1735.3,-24.48 1737.59,-31.1"/>
</a>
</g>
</g>
<!-- Node18 -->
<g id="Node000018" class="node">
<title>Node18</title>
<g id="a_Node000018"><a xlink:title=" ">
<polygon fill="#e0e0e0" stroke="#999999" points="1882.5,-24.5 1826.5,-24.5 1826.5,-5.5 1882.5,-5.5 1882.5,-24.5"/>
<text text-anchor="middle" x="1854.5" y="-12.5" font-family="Helvetica,sans-Serif" font-size="10.00">QLocale</text>
</a>
</g>
</g>
<!-- Node9&#45;&gt;Node18 -->
<g id="edge18_Node000009_Node000018" class="edge">
<title>Node9&#45;&gt;Node18</title>
<g id="a_edge18_Node000009_Node000018"><a xlink:title=" ">
<path fill="none" stroke="#63b8ff" d="M1638.62,-68.7C1682.01,-61.49 1755.73,-47.93 1817.5,-30 1819.64,-29.38 1821.84,-28.69 1824.04,-27.96"/>
<polygon fill="#63b8ff" stroke="#63b8ff" points="1825.31,-31.22 1833.56,-24.58 1822.97,-24.62 1825.31,-31.22"/>
</a>
</g>
</g>
<!-- Node19 -->
<g id="Node000019" class="node">
<title>Node19</title>
<g id="a_Node000019"><a xlink:title=" ">
<polygon fill="#e0e0e0" stroke="#999999" points="1960,-24.5 1901,-24.5 1901,-5.5 1960,-5.5 1960,-24.5"/>
<text text-anchor="middle" x="1930.5" y="-12.5" font-family="Helvetica,sans-Serif" font-size="10.00">QPointer</text>
</a>
</g>
</g>
<!-- Node9&#45;&gt;Node19 -->
<g id="edge22_Node000009_Node000019" class="edge">
<title>Node9&#45;&gt;Node19</title>
<g id="a_edge22_Node000009_Node000019"><a xlink:title=" ">
<path fill="none" stroke="#63b8ff" d="M1638.58,-71.12C1694.17,-65.53 1802.14,-52.67 1891.5,-30 1894,-29.37 1896.57,-28.63 1899.13,-27.84"/>
<polygon fill="#63b8ff" stroke="#63b8ff" points="1900.48,-31.08 1908.87,-24.6 1898.27,-24.44 1900.48,-31.08"/>
</a>
</g>
</g>
<!-- Node20 -->
<g id="Node000020" class="node">
<title>Node20</title>
<g id="a_Node000020"><a xlink:title=" ">
<polygon fill="#e0e0e0" stroke="#999999" points="2058.5,-24.5 1978.5,-24.5 1978.5,-5.5 2058.5,-5.5 2058.5,-24.5"/>
<text text-anchor="middle" x="2018.5" y="-12.5" font-family="Helvetica,sans-Serif" font-size="10.00">QPushButton</text>
</a>
</g>
</g>
<!-- Node9&#45;&gt;Node20 -->
<g id="edge23_Node000009_Node000020" class="edge">
<title>Node9&#45;&gt;Node20</title>
<g id="a_edge23_Node000009_Node000020"><a xlink:title=" ">
<path fill="none" stroke="#63b8ff" d="M1638.63,-71.96C1705.37,-66.96 1849.81,-54.18 1969.5,-30 1973.44,-29.2 1977.52,-28.25 1981.57,-27.22"/>
<polygon fill="#63b8ff" stroke="#63b8ff" points="1982.73,-30.53 1991.47,-24.55 1980.91,-23.77 1982.73,-30.53"/>
</a>
</g>
</g>
<!-- Node21 -->
<g id="Node000021" class="node">
<title>Node21</title>
<g id="a_Node000021"><a xlink:title=" ">
<polygon fill="#e0e0e0" stroke="#999999" points="2160.5,-24.5 2076.5,-24.5 2076.5,-5.5 2160.5,-5.5 2160.5,-24.5"/>
<text text-anchor="middle" x="2118.5" y="-12.5" font-family="Helvetica,sans-Serif" font-size="10.00">QRadioButton</text>
</a>
</g>
</g>
<!-- Node9&#45;&gt;Node21 -->
<g id="edge24_Node000009_Node000021" class="edge">
<title>Node9&#45;&gt;Node21</title>
<g id="a_edge24_Node000009_Node000021"><a xlink:title=" ">
<path fill="none" stroke="#63b8ff" d="M1638.65,-73.13C1717.99,-69.73 1909.63,-58.98 2067.5,-30 2071.94,-29.19 2076.55,-28.17 2081.11,-27.05"/>
<polygon fill="#63b8ff" stroke="#63b8ff" points="2082.11,-30.41 2090.91,-24.51 2080.35,-23.64 2082.11,-30.41"/>
</a>
</g>
</g>
<!-- Node22 -->
<g id="Node000022" class="node">
<title>Node22</title>
<g id="a_Node000022"><a xlink:title=" ">
<polygon fill="#e0e0e0" stroke="#999999" points="2236,-24.5 2179,-24.5 2179,-5.5 2236,-5.5 2236,-24.5"/>
<text text-anchor="middle" x="2207.5" y="-12.5" font-family="Helvetica,sans-Serif" font-size="10.00">QScreen</text>
</a>
</g>
</g>
<!-- Node9&#45;&gt;Node22 -->
<g id="edge25_Node000009_Node000022" class="edge">
<title>Node9&#45;&gt;Node22</title>
<g id="a_edge25_Node000009_Node000022"><a xlink:title=" ">
<path fill="none" stroke="#63b8ff" d="M1638.56,-75.09C1729.93,-75.78 1972.87,-73.06 2169.5,-30 2172.18,-29.41 2174.92,-28.68 2177.64,-27.86"/>
<polygon fill="#63b8ff" stroke="#63b8ff" points="2178.94,-31.12 2187.3,-24.61 2176.7,-24.49 2178.94,-31.12"/>
</a>
</g>
</g>
<!-- Node23 -->
<g id="Node000023" class="node">
<title>Node23</title>
<g id="a_Node000023"><a xlink:title=" ">
<polygon fill="#e0e0e0" stroke="#999999" points="2313,-24.5 2254,-24.5 2254,-5.5 2313,-5.5 2313,-24.5"/>
<text text-anchor="middle" x="2283.5" y="-12.5" font-family="Helvetica,sans-Serif" font-size="10.00">QVariant</text>
</a>
</g>
</g>
<!-- Node9&#45;&gt;Node23 -->
<g id="edge27_Node000009_Node000023" class="edge">
<title>Node9&#45;&gt;Node23</title>
<g id="a_edge27_Node000009_Node000023"><a xlink:title=" ">
<path fill="none" stroke="#63b8ff" d="M1638.76,-73.31C1757.87,-69.3 2128.38,-55.08 2245.5,-30 2248.34,-29.39 2251.24,-28.62 2254.13,-27.74"/>
<polygon fill="#63b8ff" stroke="#63b8ff" points="2255.35,-31.03 2263.7,-24.5 2253.11,-24.4 2255.35,-31.03"/>
</a>
</g>
</g>
<!-- Node24 -->
<g id="Node000024" class="node">
<title>Node24</title>
<g id="a_Node000024"><a xlink:title=" ">
<polygon fill="#e0e0e0" stroke="#999999" points="644,-30 523,-30 523,0 644,0 644,-30"/>
<text text-anchor="start" x="531" y="-18" font-family="Helvetica,sans-Serif" font-size="10.00">../vtools/visualization</text>
<text text-anchor="middle" x="583.5" y="-7" font-family="Helvetica,sans-Serif" font-size="10.00">/visualization.h</text>
</a>
</g>
</g>
<!-- Node9&#45;&gt;Node24 -->
<g id="edge29_Node000009_Node000024" class="edge">
<title>Node9&#45;&gt;Node24</title>
<g id="a_edge29_Node000009_Node000024"><a xlink:title=" ">
<path fill="none" stroke="#63b8ff" d="M1564.24,-74.8C1437.77,-75.38 1013.21,-73.82 654.43,-30.12"/>
<polygon fill="#63b8ff" stroke="#63b8ff" points="654.72,-26.63 644.37,-28.88 653.87,-33.57 654.72,-26.63"/>
</a>
</g>
</g>
<!-- Node9&#45;&gt;Node25 -->
<g id="edge30_Node000009_Node000025" class="edge">
<title>Node9&#45;&gt;Node25</title>
<g id="a_edge30_Node000009_Node000025"><a xlink:title=" ">
<path fill="none" stroke="#63b8ff" d="M1638.79,-74.17C1761.87,-72.74 2166.33,-65.48 2498.5,-30 2507.99,-28.99 2518.03,-27.61 2527.76,-26.11"/>
<polygon fill="#63b8ff" stroke="#63b8ff" points="2528.43,-29.55 2537.75,-24.51 2527.33,-22.63 2528.43,-29.55"/>
</a>
</g>
</g>
<!-- Node9&#45;&gt;Node26 -->
<g id="edge31_Node000009_Node000026" class="edge">
<title>Node9&#45;&gt;Node26</title>
<g id="a_edge31_Node000009_Node000026"><a xlink:title=" ">
<path fill="none" stroke="#63b8ff" d="M1638.56,-74.16C1802.57,-72.45 2463.93,-63.59 2668.5,-30 2672.74,-29.3 2677.14,-28.35 2681.47,-27.27"/>
<polygon fill="#63b8ff" stroke="#63b8ff" points="2682.63,-30.58 2691.36,-24.58 2680.79,-23.83 2682.63,-30.58"/>
</a>
</g>
</g>
<!-- Node27 -->
<g id="Node000027" class="node">
<title>Node27</title>
<g id="a_Node000027"><a xlink:title=" ">
<polygon fill="#e0e0e0" stroke="#999999" points="821,-24.5 662,-24.5 662,-5.5 821,-5.5 821,-24.5"/>
<text text-anchor="middle" x="741.5" y="-12.5" font-family="Helvetica,sans-Serif" font-size="10.00">../vgeometry/vgeometrydef.h</text>
</a>
</g>
</g>
<!-- Node9&#45;&gt;Node27 -->
<g id="edge32_Node000009_Node000027" class="edge">
<title>Node9&#45;&gt;Node27</title>
<g id="a_edge32_Node000009_Node000027"><a xlink:title=" ">
<path fill="none" stroke="#63b8ff" d="M1564.48,-73.65C1453.16,-70.84 1111.79,-60.17 830.5,-30 820.7,-28.95 810.34,-27.57 800.28,-26.08"/>
<polygon fill="#63b8ff" stroke="#63b8ff" points="800.76,-22.62 790.35,-24.57 799.71,-29.54 800.76,-22.62"/>
</a>
</g>
</g>
<!-- Node28 -->
<g id="Node000028" class="node">
<title>Node28</title>
<g id="a_Node000028"><a xlink:title=" ">
<polygon fill="#e0e0e0" stroke="#999999" points="921.5,-24.5 839.5,-24.5 839.5,-5.5 921.5,-5.5 921.5,-24.5"/>
<text text-anchor="middle" x="880.5" y="-12.5" font-family="Helvetica,sans-Serif" font-size="10.00">../vmisc/def.h</text>
</a>
</g>
</g>
<!-- Node9&#45;&gt;Node28 -->
<g id="edge33_Node000009_Node000028" class="edge">
<title>Node9&#45;&gt;Node28</title>
<g id="a_edge33_Node000009_Node000028"><a xlink:title=" ">
<path fill="none" stroke="#63b8ff" d="M1564.45,-74.72C1462.52,-74.74 1169.57,-70.94 930.5,-30 926.03,-29.23 921.39,-28.23 916.81,-27.11"/>
<polygon fill="#63b8ff" stroke="#63b8ff" points="917.56,-23.69 906.99,-24.52 915.77,-30.45 917.56,-23.69"/>
</a>
</g>
</g>
<!-- Node9&#45;&gt;Node29 -->
<g id="edge34_Node000009_Node000029" class="edge">
<title>Node9&#45;&gt;Node29</title>
<g id="a_edge34_Node000009_Node000029"><a xlink:title=" ">
<path fill="none" stroke="#63b8ff" d="M1638.62,-74.03C1811.55,-71.72 2539.22,-60.31 2764.5,-30 2770.48,-29.2 2776.73,-28.07 2782.85,-26.8"/>
<polygon fill="#63b8ff" stroke="#63b8ff" points="2783.94,-30.14 2792.95,-24.55 2782.43,-23.3 2783.94,-30.14"/>
</a>
</g>
</g>
<!-- Node9&#45;&gt;Node30 -->
<g id="edge35_Node000009_Node000030" class="edge">
<title>Node9&#45;&gt;Node30</title>
<g id="a_edge35_Node000009_Node000030"><a xlink:title=" ">
<path fill="none" stroke="#63b8ff" d="M1638.63,-74.79C1792.35,-75.66 2393.85,-75.77 2885.5,-30 2896.22,-29 2907.58,-27.58 2918.54,-26.01"/>
<polygon fill="#63b8ff" stroke="#63b8ff" points="2919.07,-29.47 2928.45,-24.54 2918.05,-22.55 2919.07,-29.47"/>
</a>
</g>
</g>
<!-- Node31 -->
<g id="Node000031" class="node">
<title>Node31</title>
<g id="a_Node000031"><a xlink:title=" ">
<polygon fill="#e0e0e0" stroke="#999999" points="1095,-24.5 940,-24.5 940,-5.5 1095,-5.5 1095,-24.5"/>
<text text-anchor="middle" x="1017.5" y="-12.5" font-family="Helvetica,sans-Serif" font-size="10.00">../vmisc/vcommonsettings.h</text>
</a>
</g>
</g>
<!-- Node9&#45;&gt;Node31 -->
<g id="edge36_Node000009_Node000031" class="edge">
<title>Node9&#45;&gt;Node31</title>
<g id="a_edge36_Node000009_Node000031"><a xlink:title=" ">
<path fill="none" stroke="#63b8ff" d="M1564.31,-72.07C1481.51,-66.45 1275.78,-51.42 1104.5,-30 1095.47,-28.87 1085.94,-27.51 1076.63,-26.09"/>
<polygon fill="#63b8ff" stroke="#63b8ff" points="1077.07,-22.61 1066.64,-24.53 1075.98,-29.53 1077.07,-22.61"/>
</a>
</g>
</g>
<!-- Node32 -->
<g id="Node000032" class="node">
<title>Node32</title>
<g id="a_Node000032"><a xlink:title=" ">
<polygon fill="#e0e0e0" stroke="#999999" points="1295.5,-24.5 1113.5,-24.5 1113.5,-5.5 1295.5,-5.5 1295.5,-24.5"/>
<text text-anchor="middle" x="1204.5" y="-12.5" font-family="Helvetica,sans-Serif" font-size="10.00">../vwidgets/vmaingraphicsscene.h</text>
</a>
</g>
</g>
<!-- Node9&#45;&gt;Node32 -->
<g id="edge37_Node000009_Node000032" class="edge">
<title>Node9&#45;&gt;Node32</title>
<g id="a_edge37_Node000009_Node000032"><a xlink:title=" ">
<path fill="none" stroke="#63b8ff" d="M1564.15,-69C1497.38,-59.16 1356.65,-38.42 1272.39,-26"/>
<polygon fill="#63b8ff" stroke="#63b8ff" points="1272.8,-22.53 1262.4,-24.53 1271.78,-29.45 1272.8,-22.53"/>
</a>
</g>
</g>
</g>
</svg>
