<?xml version="1.0" encoding="UTF-8" standalone="no"?>
<!DOCTYPE svg PUBLIC "-//W3C//DTD SVG 1.1//EN"
 "http://www.w3.org/Graphics/SVG/1.1/DTD/svg11.dtd">
<!-- Generated by graphviz version 2.43.0 (0)
 -->
<!-- Title: VPE::VColorProperty Pages: 1 -->
<svg width="337pt" height="569pt"
 viewBox="0.00 0.00 337.00 569.00" xmlns="http://www.w3.org/2000/svg" xmlns:xlink="http://www.w3.org/1999/xlink">
<g id="graph0" class="graph" transform="scale(1 1) rotate(0) translate(4 565)">
<title>VPE::VColorProperty</title>
<!-- Node1 -->
<g id="Node000001" class="node">
<title>Node1</title>
<g id="a_Node000001"><a xlink:title=" ">
<polygon fill="#999999" stroke="transparent" points="329,-169 220,-169 220,-30 329,-30 329,-169"/>
<text text-anchor="start" x="225.5" y="-156.5" font-family="Helvetica,sans-Serif" font-size="10.00">VPE::VColorProperty</text>
<text text-anchor="start" x="273" y="-141.5" font-family="Helvetica,sans-Serif" font-size="10.00"> </text>
<text text-anchor="start" x="226" y="-126.5" font-family="Helvetica,sans-Serif" font-size="10.00">+</text>
<text text-anchor="start" x="240.5" y="-126.5" font-family="Helvetica,sans-Serif" font-size="10.00">VColorProperty()</text>
<text text-anchor="start" x="226" y="-111.5" font-family="Helvetica,sans-Serif" font-size="10.00">+</text>
<text text-anchor="start" x="240.5" y="-111.5" font-family="Helvetica,sans-Serif" font-size="10.00">data()</text>
<text text-anchor="start" x="226" y="-96.5" font-family="Helvetica,sans-Serif" font-size="10.00">+</text>
<text text-anchor="start" x="240.5" y="-96.5" font-family="Helvetica,sans-Serif" font-size="10.00">createEditor()</text>
<text text-anchor="start" x="226" y="-81.5" font-family="Helvetica,sans-Serif" font-size="10.00">+</text>
<text text-anchor="start" x="240.5" y="-81.5" font-family="Helvetica,sans-Serif" font-size="10.00">setEditorData()</text>
<text text-anchor="start" x="226" y="-66.5" font-family="Helvetica,sans-Serif" font-size="10.00">+</text>
<text text-anchor="start" x="240.5" y="-66.5" font-family="Helvetica,sans-Serif" font-size="10.00">getEditorData()</text>
<text text-anchor="start" x="226" y="-51.5" font-family="Helvetica,sans-Serif" font-size="10.00">+</text>
<text text-anchor="start" x="240.5" y="-51.5" font-family="Helvetica,sans-Serif" font-size="10.00">type()</text>
<text text-anchor="start" x="226" y="-36.5" font-family="Helvetica,sans-Serif" font-size="10.00">+</text>
<text text-anchor="start" x="240.5" y="-36.5" font-family="Helvetica,sans-Serif" font-size="10.00">clone()</text>
<polygon fill="#666666" stroke="#666666" points="220.5,-151.5 220.5,-151.5 329.5,-151.5 329.5,-151.5 220.5,-151.5"/>
<polygon fill="#666666" stroke="#666666" points="220.5,-136.5 220.5,-136.5 329.5,-136.5 329.5,-136.5 220.5,-136.5"/>
<polygon fill="none" stroke="#666666" points="220,-30 220,-169 329,-169 329,-30 220,-30"/>
</a>
</g>
</g>
<!-- Node2 -->
<g id="Node000002" class="node">
<title>Node2</title>
<g id="a_Node000002"><a xlink:href="../../db/df9/classVPE_1_1VProperty.html" target="_top" xlink:title=" ">
<polygon fill="white" stroke="transparent" points="279.5,-475 157.5,-475 157.5,-246 279.5,-246 279.5,-475"/>
<text text-anchor="start" x="182" y="-462.5" font-family="Helvetica,sans-Serif" font-size="10.00">VPE::VProperty</text>
<text text-anchor="start" x="216.5" y="-447.5" font-family="Helvetica,sans-Serif" font-size="10.00"> </text>
<text text-anchor="start" x="161.5" y="-432.5" font-family="Helvetica,sans-Serif" font-size="10.00">+</text>
<text text-anchor="start" x="174.5" y="-432.5" font-family="Helvetica,sans-Serif" font-size="10.00">VProperty()</text>
<text text-anchor="start" x="161.5" y="-417.5" font-family="Helvetica,sans-Serif" font-size="10.00">+</text>
<text text-anchor="start" x="174.5" y="-417.5" font-family="Helvetica,sans-Serif" font-size="10.00">~VProperty()</text>
<text text-anchor="start" x="161.5" y="-402.5" font-family="Helvetica,sans-Serif" font-size="10.00">+</text>
<text text-anchor="start" x="174.5" y="-402.5" font-family="Helvetica,sans-Serif" font-size="10.00">type()</text>
<text text-anchor="start" x="161.5" y="-387.5" font-family="Helvetica,sans-Serif" font-size="10.00">+</text>
<text text-anchor="start" x="174.5" y="-387.5" font-family="Helvetica,sans-Serif" font-size="10.00">data()</text>
<text text-anchor="start" x="161.5" y="-372.5" font-family="Helvetica,sans-Serif" font-size="10.00">+</text>
<text text-anchor="start" x="174.5" y="-372.5" font-family="Helvetica,sans-Serif" font-size="10.00">setData()</text>
<text text-anchor="start" x="161.5" y="-357.5" font-family="Helvetica,sans-Serif" font-size="10.00">+</text>
<text text-anchor="start" x="174.5" y="-357.5" font-family="Helvetica,sans-Serif" font-size="10.00">paint()</text>
<text text-anchor="start" x="161.5" y="-342.5" font-family="Helvetica,sans-Serif" font-size="10.00">+</text>
<text text-anchor="start" x="174.5" y="-342.5" font-family="Helvetica,sans-Serif" font-size="10.00">createEditor()</text>
<text text-anchor="start" x="161.5" y="-327.5" font-family="Helvetica,sans-Serif" font-size="10.00">+</text>
<text text-anchor="start" x="174.5" y="-327.5" font-family="Helvetica,sans-Serif" font-size="10.00">setEditorData()</text>
<text text-anchor="start" x="161.5" y="-312.5" font-family="Helvetica,sans-Serif" font-size="10.00">+</text>
<text text-anchor="start" x="174.5" y="-312.5" font-family="Helvetica,sans-Serif" font-size="10.00">getEditorData()</text>
<text text-anchor="start" x="161.5" y="-297.5" font-family="Helvetica,sans-Serif" font-size="10.00">+</text>
<text text-anchor="start" x="174.5" y="-297.5" font-family="Helvetica,sans-Serif" font-size="10.00">flags()</text>
<text text-anchor="start" x="174.5" y="-282.5" font-family="Helvetica,sans-Serif" font-size="10.00">and 29 more...</text>
<text text-anchor="start" x="161.5" y="-267.5" font-family="Helvetica,sans-Serif" font-size="10.00">+</text>
<text text-anchor="start" x="174.5" y="-267.5" font-family="Helvetica,sans-Serif" font-size="10.00">childValueChanged()</text>
<text text-anchor="start" x="161.5" y="-252.5" font-family="Helvetica,sans-Serif" font-size="10.00">#</text>
<text text-anchor="start" x="174.5" y="-252.5" font-family="Helvetica,sans-Serif" font-size="10.00">VProperty()</text>
<polygon fill="#666666" stroke="#666666" points="157.5,-457.5 157.5,-457.5 279.5,-457.5 279.5,-457.5 157.5,-457.5"/>
<polygon fill="#666666" stroke="#666666" points="157.5,-442.5 157.5,-442.5 279.5,-442.5 279.5,-442.5 157.5,-442.5"/>
<polygon fill="none" stroke="#666666" points="157.5,-246 157.5,-475 279.5,-475 279.5,-246 157.5,-246"/>
</a>
</g>
</g>
<!-- Node2&#45;&gt;Node1 -->
<g id="edge1_Node000001_Node000002" class="edge">
<title>Node2&#45;&gt;Node1</title>
<g id="a_edge1_Node000001_Node000002"><a xlink:title=" ">
<path fill="none" stroke="#63b8ff" d="M255.73,-235.98C256.35,-233.3 256.94,-230.64 257.5,-228 261.53,-209.11 264.78,-188.43 267.32,-169.32"/>
<polygon fill="none" stroke="#63b8ff" points="252.32,-235.2 253.42,-245.74 259.13,-236.82 252.32,-235.2"/>
</a>
</g>
</g>
<!-- Node4 -->
<g id="Node000004" class="node">
<title>Node4</title>
<g id="a_Node000004"><a xlink:href="../../db/d53/classVPE_1_1VPropertyPrivate.html" target="_top" xlink:title=" ">
<polygon fill="white" stroke="transparent" points="201.5,-199 81.5,-199 81.5,0 201.5,0 201.5,-199"/>
<text text-anchor="start" x="87.5" y="-186.5" font-family="Helvetica,sans-Serif" font-size="10.00">VPE::VPropertyPrivate</text>
<text text-anchor="start" x="85.5" y="-171.5" font-family="Helvetica,sans-Serif" font-size="10.00">+</text>
<text text-anchor="start" x="98.5" y="-171.5" font-family="Helvetica,sans-Serif" font-size="10.00">VariantValue</text>
<text text-anchor="start" x="85.5" y="-156.5" font-family="Helvetica,sans-Serif" font-size="10.00">+</text>
<text text-anchor="start" x="98.5" y="-156.5" font-family="Helvetica,sans-Serif" font-size="10.00">Name</text>
<text text-anchor="start" x="85.5" y="-141.5" font-family="Helvetica,sans-Serif" font-size="10.00">+</text>
<text text-anchor="start" x="98.5" y="-141.5" font-family="Helvetica,sans-Serif" font-size="10.00">Description</text>
<text text-anchor="start" x="85.5" y="-126.5" font-family="Helvetica,sans-Serif" font-size="10.00">+</text>
<text text-anchor="start" x="98.5" y="-126.5" font-family="Helvetica,sans-Serif" font-size="10.00">IsEmpty</text>
<text text-anchor="start" x="85.5" y="-111.5" font-family="Helvetica,sans-Serif" font-size="10.00">+</text>
<text text-anchor="start" x="98.5" y="-111.5" font-family="Helvetica,sans-Serif" font-size="10.00">PropertyVariantType</text>
<text text-anchor="start" x="85.5" y="-96.5" font-family="Helvetica,sans-Serif" font-size="10.00">+</text>
<text text-anchor="start" x="98.5" y="-96.5" font-family="Helvetica,sans-Serif" font-size="10.00">updateParent</text>
<text text-anchor="start" x="85.5" y="-81.5" font-family="Helvetica,sans-Serif" font-size="10.00">+</text>
<text text-anchor="start" x="98.5" y="-81.5" font-family="Helvetica,sans-Serif" font-size="10.00">UpdateChildren</text>
<text text-anchor="start" x="85.5" y="-66.5" font-family="Helvetica,sans-Serif" font-size="10.00">+</text>
<text text-anchor="start" x="98.5" y="-66.5" font-family="Helvetica,sans-Serif" font-size="10.00">editor</text>
<text text-anchor="start" x="85.5" y="-51.5" font-family="Helvetica,sans-Serif" font-size="10.00">+</text>
<text text-anchor="start" x="98.5" y="-51.5" font-family="Helvetica,sans-Serif" font-size="10.00">type</text>
<text text-anchor="start" x="85.5" y="-36.5" font-family="Helvetica,sans-Serif" font-size="10.00">+</text>
<text text-anchor="start" x="98.5" y="-36.5" font-family="Helvetica,sans-Serif" font-size="10.00">VPropertyPrivate()</text>
<text text-anchor="start" x="85.5" y="-21.5" font-family="Helvetica,sans-Serif" font-size="10.00">+</text>
<text text-anchor="start" x="98.5" y="-21.5" font-family="Helvetica,sans-Serif" font-size="10.00">VPropertyPrivate()</text>
<text text-anchor="start" x="85.5" y="-6.5" font-family="Helvetica,sans-Serif" font-size="10.00">+</text>
<text text-anchor="start" x="98.5" y="-6.5" font-family="Helvetica,sans-Serif" font-size="10.00">~VPropertyPrivate()</text>
<polygon fill="#666666" stroke="#666666" points="81.5,-181.5 81.5,-181.5 201.5,-181.5 201.5,-181.5 81.5,-181.5"/>
<polygon fill="#666666" stroke="#666666" points="81.5,-46.5 81.5,-46.5 96.5,-46.5 96.5,-46.5 81.5,-46.5"/>
<polygon fill="#666666" stroke="#666666" points="96.5,-46.5 96.5,-46.5 201.5,-46.5 201.5,-46.5 96.5,-46.5"/>
<polygon fill="none" stroke="#666666" points="81.5,0 81.5,-199 201.5,-199 201.5,0 81.5,0"/>
</a>
</g>
</g>
<!-- Node2&#45;&gt;Node4 -->
<g id="edge4_Node000004_Node000002" class="edge">
<title>Node2&#45;&gt;Node4</title>
<g id="a_edge4_Node000004_Node000002"><a xlink:title=" ">
<path fill="none" stroke="#63b8ff" d="M157.47,-256.5C153.56,-247.08 150.14,-237.5 147.5,-228 145.97,-222.49 144.68,-216.79 143.61,-210.99"/>
<polygon fill="none" stroke="#63b8ff" points="143.59,-210.86 138.7,-205.56 141.7,-199.01 146.6,-204.3 143.59,-210.86"/>
</a>
</g>
<text text-anchor="middle" x="169" y="-220" font-family="Helvetica,sans-Serif" font-size="10.00" fill="grey"> +Parent</text>
</g>
<!-- Node3 -->
<g id="Node000003" class="node">
<title>Node3</title>
<g id="a_Node000003"><a xlink:title=" ">
<polygon fill="white" stroke="transparent" points="243.5,-561 193.5,-561 193.5,-512 243.5,-512 243.5,-561"/>
<text text-anchor="start" x="198.5" y="-548.5" font-family="Helvetica,sans-Serif" font-size="10.00">QObject</text>
<text text-anchor="start" x="216.5" y="-533.5" font-family="Helvetica,sans-Serif" font-size="10.00"> </text>
<text text-anchor="start" x="216.5" y="-518.5" font-family="Helvetica,sans-Serif" font-size="10.00"> </text>
<polygon fill="#666666" stroke="#666666" points="193.5,-543.5 193.5,-543.5 243.5,-543.5 243.5,-543.5 193.5,-543.5"/>
<polygon fill="#666666" stroke="#666666" points="193.5,-528.5 193.5,-528.5 243.5,-528.5 243.5,-528.5 193.5,-528.5"/>
<polygon fill="none" stroke="#666666" points="193.5,-512 193.5,-561 243.5,-561 243.5,-512 193.5,-512"/>
</a>
</g>
</g>
<!-- Node3&#45;&gt;Node2 -->
<g id="edge2_Node000002_Node000003" class="edge">
<title>Node3&#45;&gt;Node2</title>
<g id="a_edge2_Node000002_Node000003"><a xlink:title=" ">
<path fill="none" stroke="#63b8ff" d="M218.5,-501.48C218.5,-493.54 218.5,-484.64 218.5,-475.29"/>
<polygon fill="none" stroke="#63b8ff" points="215,-501.67 218.5,-511.67 222,-501.67 215,-501.67"/>
</a>
</g>
</g>
<!-- Node4&#45;&gt;Node2 -->
<g id="edge3_Node000002_Node000004" class="edge">
<title>Node4&#45;&gt;Node2</title>
<g id="a_edge3_Node000002_Node000004"><a xlink:title=" ">
<path fill="none" stroke="#63b8ff" d="M188.52,-199.29C190.7,-205.22 192.71,-211.16 194.5,-217 196.18,-222.48 197.75,-228.12 199.21,-233.85"/>
<polygon fill="none" stroke="#63b8ff" points="199.26,-234.04 204.56,-238.93 202.08,-245.7 196.78,-240.81 199.26,-234.04"/>
</a>
</g>
<text text-anchor="middle" x="215" y="-220" font-family="Helvetica,sans-Serif" font-size="10.00" fill="grey"> #d_ptr</text>
</g>
<!-- Node5 -->
<g id="Node000005" class="node">
<title>Node5</title>
<g id="a_Node000005"><a xlink:href="../../d1/d4a/classQList.html" target="_top" xlink:title=" ">
<polygon fill="white" stroke="transparent" points="139,-385 0,-385 0,-336 139,-336 139,-385"/>
<text text-anchor="start" x="5.5" y="-372.5" font-family="Helvetica,sans-Serif" font-size="10.00">QList&lt; VPE::VProperty * &gt;</text>
<text text-anchor="start" x="68" y="-357.5" font-family="Helvetica,sans-Serif" font-size="10.00"> </text>
<text text-anchor="start" x="68" y="-342.5" font-family="Helvetica,sans-Serif" font-size="10.00"> </text>
<polygon fill="#666666" stroke="#666666" points="0.5,-367.5 0.5,-367.5 139.5,-367.5 139.5,-367.5 0.5,-367.5"/>
<polygon fill="#666666" stroke="#666666" points="0.5,-352.5 0.5,-352.5 139.5,-352.5 139.5,-352.5 0.5,-352.5"/>
<polygon fill="none" stroke="#666666" points="0,-336 0,-385 139,-385 139,-336 0,-336"/>
</a>
</g>
</g>
<!-- Node5&#45;&gt;Node4 -->
<g id="edge5_Node000004_Node000005" class="edge">
<title>Node5&#45;&gt;Node4</title>
<g id="a_edge5_Node000004_Node000005"><a xlink:title=" ">
<path fill="none" stroke="#63b8ff" d="M66.9,-335.76C64.52,-307.02 62.93,-257.46 74.5,-217 75.3,-214.21 76.18,-211.41 77.13,-208.62"/>
<polygon fill="none" stroke="#63b8ff" points="77.2,-208.41 75.56,-201.39 81.41,-197.17 83.05,-204.2 77.2,-208.41"/>
</a>
</g>
<text text-anchor="middle" x="100.5" y="-220" font-family="Helvetica,sans-Serif" font-size="10.00" fill="grey"> +Children</text>
</g>
</g>
</svg>
